  0
SECTION
  2
HEADER
  9
$ACADVER
  1
AC1003
  9
$INSBASE
 10
0.000000
 20
0.000000
  9
$EXTMIN
 10
0.000000
 20
0.000000
  9
$EXTMAX
 10
814.666667
 20
563.333333
  9
$LIMMIN
 10
0.000000
 20
0.000000
  9
$LIMMAX
 10
814.666667
 20
563.333333
  9
$VIEWCTR
 10
407.333333
 20
281.666667
  9
$VIEWSIZE
 40
563.333333
  0
ENDSEC
  0
SECTION
  2
TABLES
  0
TABLE
  2
LTYPE
 70
     4
  0
LTYPE
  2
CONTINUOUS
 70
    64
  3
SolidLine
 72
    65
 73
     0
 40
0.0
  0
LTYPE
  2
HIDDEN
 70
    64
  3
------------------------
 72
    65
 73
     2
 40
8.666667
 49
5.777778
 49
-2.888889
  0
LTYPE
  2
DASHDOT
 70
    64
  3
--?--?--?--?--?--?--?--
 72
    65
 73
     4
 40
34.666667
 49
26.000000
 49
-2.888889
 49
2.888889
 49
-2.888889
  0
LTYPE
  2
DIVIDE
 70
    64
  3
--??--??--??--??--??--
 72
    65
 73
     6
 40
43.333333
 49
28.888889
 49
-2.888889
 49
2.888889
 49
-2.888889
 49
2.888889
 49
-2.888889
  0
ENDTAB
  0
TABLE
  2
LAYER
 70
     5
  0
LAYER
  2
0
 70
    64
 62
     7
  6
CONTINUOUS
  0
LAYER
  2
HIDDEN
 70
    64
 62
     2
  6
HIDDEN
  0
LAYER
  2
DASHDOT
 70
    64
 62
     6
  6
DASHDOT
  0
LAYER
  2
DIVIDE
 70
    64
 62
     5
  6
DIVIDE
  0
ENDTAB
  0
TABLE
  2
STYLE
 70
     1
  0
STYLE
  2
STANDARD
 70
    64
 40
0.0
 41
1.0
 50
0.0
 71
     0
 42
0.2
  3
TXT
  4

  0
STYLE
  2
KANJI
 70
    64
 40
0.0
 41
1.0
 50
0.0
 71
     0
 42
0.2
  3
TXT
  4
BIGFONT
  0
ENDTAB
  0
TABLE
  2
VIEW
 70
     0
  0
ENDTAB
  0
ENDSEC
  0
SECTION
  2
BLOCKS
  0
ENDSEC
  0
SECTION
  2
ENTITIES
  0
TEXT
  8
0
 62
     7
 10
28.888889
 20
31.777779
 40
11.555556
 41
1.000000
  1
KHK AG4-40R1
  7
KANJI
 50
0.000000
 51
0.000000
  0
TEXT
  8
0
 62
     7
 10
28.888889
 20
14.444445
 40
11.555556
 41
1.000000
  1

  7
KANJI
 50
0.000000
 51
0.000000
  0
TEXT
  8
0
 62
     7
 10
28.888889
 20
520.000000
 40
13.000000
 41
1.000000
  1

  7
KANJI
 50
0.000000
 51
0.000000
  0
POLYLINE
  8
0
 62
     7
 66
     1
 70
     2
  0
VERTEX
  8
0
 10
606.666687
 20
520.000000
  0
VERTEX
  8
0
 10
595.400024
 20
539.528870
  0
VERTEX
  8
0
 10
640.466675
 20
539.528870
  0
VERTEX
  8
0
 10
629.200012
 20
520.000000
  0
VERTEX
  8
0
 10
617.933350
 20
539.528870
  0
VERTEX
  8
0
 10
606.666687
 20
520.000000
  0
SEQEND
  0
ARC
  8
0
 62
     7
 10
675.205566
 20
526.419312
 40
8.450000
 50
10.0
 51
180.0
  0
ARC
  8
0
 62
     7
 10
691.848816
 20
529.354004
 40
8.450000
 50
180.0
 51
10.0
  0
POLYLINE
  8
0
 62
     7
 66
     1
 70
     2
  0
VERTEX
  8
0
 10
657.742249
 20
539.528870
  0
VERTEX
  8
0
 10
654.737793
 20
536.524414
  0
VERTEX
  8
0
 10
654.737793
 20
523.004456
  0
VERTEX
  8
0
 10
657.742249
 20
520.000000
  0
SEQEND
  0
POLYLINE
  8
0
 62
     7
 66
     1
 70
     2
  0
VERTEX
  8
0
 10
711.071106
 20
539.528870
  0
VERTEX
  8
0
 10
714.075562
 20
536.524414
  0
VERTEX
  8
0
 10
714.075562
 20
523.004456
  0
VERTEX
  8
0
 10
711.071106
 20
520.000000
  0
SEQEND
  0
LINE
  8
0
 62
     5
 10
232.833344
 20
223.847214
 11
176.208527
 21
173.728226
  0
CIRCLE
  8
0
 62
     5
 10
232.833344
 20
223.847214
 40
0.866667
  0
CIRCLE
  8
0
 62
     5
 10
167.555573
 20
166.069427
 40
11.555556
  0
TEXT
  8
0
 62
     7
 10
159.851868
 20
158.365723
 40
15.407407
 41
1.000000
  1
2
  7
KANJI
 50
0.000000
 51
0.000000
  0
LINE
  8
0
 62
     5
 10
232.833344
 20
176.847214
 11
175.996735
 21
123.711044
  0
CIRCLE
  8
0
 62
     5
 10
232.833344
 20
176.847214
 40
0.866667
  0
CIRCLE
  8
0
 62
     5
 10
167.555573
 20
115.819443
 40
11.555556
  0
TEXT
  8
0
 62
     7
 10
159.851868
 20
108.115738
 40
15.407407
 41
1.000000
  1
1
  7
KANJI
 50
0.000000
 51
0.000000
  0
LINE
  8
DASHDOT
 62
     7
 10
234.000015
 20
359.847229
 11
246.666672
 21
359.847229
  0
LINE
  8
DASHDOT
 62
     7
 10
240.333344
 20
368.513885
 11
240.333344
 21
154.180542
  0
LINE
  8
0
 62
     5
 10
405.333344
 20
315.347229
 11
405.333344
 21
182.347214
  0
POLYLINE
  8
0
 62
     5
 66
     1
 70
     2
  0
VERTEX
  8
0
 10
408.222229
 20
305.236115
  0
VERTEX
  8
0
 10
405.333344
 20
315.347229
  0
VERTEX
  8
0
 10
402.444458
 20
305.236115
  0
SEQEND
  0
POLYLINE
  8
0
 62
     5
 66
     1
 70
     2
  0
VERTEX
  8
0
 10
402.444458
 20
192.458328
  0
VERTEX
  8
0
 10
405.333344
 20
182.347214
  0
VERTEX
  8
0
 10
408.222229
 20
192.458328
  0
SEQEND
  0
LINE
  8
0
 62
     5
 10
275.333344
 20
315.347229
 11
409.666687
 21
315.347229
  0
LINE
  8
0
 62
     5
 10
275.333344
 20
182.347214
 11
409.666687
 21
182.347214
  0
TEXT
  8
0
 62
     7
 10
402.444458
 20
217.791656
 40
14.444444
 41
1.000000
  1
(%%c133)
  7
KANJI
 50
90.000000
 51
0.000000
  0
LINE
  8
0
 62
     5
 10
428.444458
 20
332.847229
 11
428.444458
 21
164.847214
  0
POLYLINE
  8
0
 62
     5
 66
     1
 70
     2
  0
VERTEX
  8
0
 10
431.333344
 20
322.736084
  0
VERTEX
  8
0
 10
428.444458
 20
332.847229
  0
VERTEX
  8
0
 10
425.555573
 20
322.736084
  0
SEQEND
  0
POLYLINE
  8
0
 62
     5
 66
     1
 70
     2
  0
VERTEX
  8
0
 10
425.555573
 20
174.958328
  0
VERTEX
  8
0
 10
428.444458
 20
164.847214
  0
VERTEX
  8
0
 10
431.333344
 20
174.958328
  0
SEQEND
  0
LINE
  8
0
 62
     5
 10
275.333344
 20
332.847229
 11
432.777771
 21
332.847229
  0
LINE
  8
0
 62
     5
 10
275.333344
 20
164.847214
 11
432.777771
 21
164.847214
  0
TEXT
  8
0
 62
     7
 10
425.555573
 20
227.180542
 40
14.444444
 41
1.000000
  1
%%c168
  7
KANJI
 50
90.000000
 51
0.000000
  0
LINE
  8
0
 62
     5
 10
451.555573
 20
334.847229
 11
451.555573
 21
162.847214
  0
POLYLINE
  8
0
 62
     5
 66
     1
 70
     2
  0
VERTEX
  8
0
 10
454.444458
 20
324.736084
  0
VERTEX
  8
0
 10
451.555573
 20
334.847229
  0
VERTEX
  8
0
 10
448.666687
 20
324.736084
  0
SEQEND
  0
POLYLINE
  8
0
 62
     5
 66
     1
 70
     2
  0
VERTEX
  8
0
 10
448.666687
 20
172.958328
  0
VERTEX
  8
0
 10
451.555573
 20
162.847214
  0
VERTEX
  8
0
 10
454.444458
 20
172.958328
  0
SEQEND
  0
LINE
  8
0
 62
     5
 10
275.333344
 20
334.847229
 11
455.888916
 21
334.847229
  0
LINE
  8
0
 62
     5
 10
275.333344
 20
162.847214
 11
455.888916
 21
162.847214
  0
TEXT
  8
0
 62
     7
 10
448.666687
 20
227.180542
 40
14.444444
 41
1.000000
  1
%%c172
  7
KANJI
 50
90.000000
 51
0.000000
  0
LINE
  8
0
 62
     5
 10
144.444458
 20
248.847214
 11
144.444458
 21
359.847229
  0
POLYLINE
  8
0
 62
     5
 66
     1
 70
     2
  0
VERTEX
  8
0
 10
141.555573
 20
258.958313
  0
VERTEX
  8
0
 10
144.444458
 20
248.847214
  0
VERTEX
  8
0
 10
147.333344
 20
258.958313
  0
SEQEND
  0
POLYLINE
  8
0
 62
     5
 66
     1
 70
     2
  0
VERTEX
  8
0
 10
147.333344
 20
349.736084
  0
VERTEX
  8
0
 10
144.444458
 20
359.847229
  0
VERTEX
  8
0
 10
141.555573
 20
349.736084
  0
SEQEND
  0
LINE
  8
0
 62
     5
 10
225.333344
 20
248.847214
 11
140.111115
 21
248.847214
  0
LINE
  8
0
 62
     5
 10
234.000015
 20
359.847229
 11
140.111130
 21
359.847229
  0
TEXT
  8
0
 62
     7
 10
138.666687
 20
287.375000
 40
14.444444
 41
1.000000
  1
111
  7
KANJI
 50
90.000000
 51
0.000000
  0
LINE
  8
0
 62
     5
 10
265.166687
 20
296.625000
 11
215.500015
 21
296.625000
  0
POLYLINE
  8
0
 62
     5
 66
     1
 70
     2
  0
VERTEX
  8
0
 10
222.722229
 20
293.736115
  0
VERTEX
  8
0
 10
232.833344
 20
296.625000
  0
VERTEX
  8
0
 10
222.722229
 20
299.513885
  0
SEQEND
  0
POLYLINE
  8
0
 62
     5
 66
     1
 70
     2
  0
VERTEX
  8
0
 10
257.944458
 20
299.513885
  0
VERTEX
  8
0
 10
247.833344
 20
296.625000
  0
VERTEX
  8
0
 10
257.944458
 20
293.736115
  0
SEQEND
  0
TEXT
  8
0
 62
     7
 10
221.555573
 20
298.936096
 40
14.444444
 41
1.000000
  1
(15)
  7
KANJI
 50
0.000000
 51
0.000000
  0
LINE
  8
0
 62
     5
 10
292.666687
 20
421.513855
 11
238.000015
 21
421.513855
  0
POLYLINE
  8
0
 62
     5
 66
     1
 70
     2
  0
VERTEX
  8
0
 10
245.222229
 20
418.625000
  0
VERTEX
  8
0
 10
255.333344
 20
421.513855
  0
VERTEX
  8
0
 10
245.222229
 20
424.402771
  0
SEQEND
  0
POLYLINE
  8
0
 62
     5
 66
     1
 70
     2
  0
VERTEX
  8
0
 10
285.444458
 20
424.402771
  0
VERTEX
  8
0
 10
275.333344
 20
421.513855
  0
VERTEX
  8
0
 10
285.444458
 20
418.625000
  0
SEQEND
  0
TEXT
  8
0
 62
     7
 10
255.944458
 20
423.824982
 40
14.444444
 41
1.000000
  1
20
  7
KANJI
 50
0.000000
 51
0.000000
  0
LINE
  8
0
 62
     5
 10
257.666687
 20
398.402771
 11
208.000015
 21
398.402771
  0
POLYLINE
  8
0
 62
     5
 66
     1
 70
     2
  0
VERTEX
  8
0
 10
215.222229
 20
395.513885
  0
VERTEX
  8
0
 10
225.333344
 20
398.402771
  0
VERTEX
  8
0
 10
215.222229
 20
401.291656
  0
SEQEND
  0
POLYLINE
  8
0
 62
     5
 66
     1
 70
     2
  0
VERTEX
  8
0
 10
250.444458
 20
401.291656
  0
VERTEX
  8
0
 10
240.333344
 20
398.402771
  0
VERTEX
  8
0
 10
250.444458
 20
395.513885
  0
SEQEND
  0
LINE
  8
0
 62
     5
 10
240.333344
 20
359.847229
 11
240.333344
 21
402.736084
  0
TEXT
  8
0
 62
     7
 10
223.444458
 20
400.713867
 40
14.444444
 41
1.000000
  1
15
  7
KANJI
 50
0.000000
 51
0.000000
  0
ARC
  8
DASHDOT
 62
     7
 10
240.333344
 20
359.847229
 40
31.000000
 50
219.99999848136045
 51
320.00000352269944
  0
ARC
  8
DASHDOT
 62
     7
 10
240.333344
 20
137.847214
 40
31.000000
 50
39.99999647730051
 51
140.00000151863958
  0
ARC
  8
0
 62
     4
 10
240.333344
 20
137.847214
 40
36.000000
 50
65.37568171553778
 51
114.62431828446222
  0
ARC
  8
0
 62
     4
 10
240.333344
 20
359.847229
 40
36.000000
 50
245.37568171553778
 51
294.6243182844622
  0
ARC
  8
0
 62
     4
 10
240.333344
 20
359.847229
 40
27.000000
 50
247.80839416271144
 51
292.1916038884832
  0
ARC
  8
0
 62
     4
 10
240.333344
 20
137.847214
 40
27.000000
 50
67.80839611151683
 51
112.19160583728855
  0
ARC
  8
0
 62
     4
 10
230.833344
 20
290.847229
 40
2.000000
 50
270.0
 51
0.0
  0
ARC
  8
0
 62
     4
 10
230.833344
 20
206.847214
 40
2.000000
 50
0.0
 51
90.0
  0
LINE
  8
DASHDOT
 62
     7
 10
225.333344
 20
248.847214
 11
284.000000
 21
248.847214
  0
LINE
  8
0
 62
     5
 10
255.333344
 20
332.847229
 11
255.333344
 21
334.847229
  0
LINE
  8
0
 62
     5
 10
225.333344
 20
332.847229
 11
225.333344
 21
334.847229
  0
LINE
  8
0
 62
     5
 10
275.333344
 20
287.847229
 11
275.333344
 21
334.847229
  0
LINE
  8
0
 62
     5
 10
253.333344
 20
334.847229
 11
275.333344
 21
334.847229
  0
LINE
  8
0
 62
     5
 10
240.333344
 20
332.847229
 11
275.333344
 21
332.847229
  0
LINE
  8
0
 62
     5
 10
255.333344
 20
315.347229
 11
275.333344
 21
315.347229
  0
LINE
  8
0
 62
     5
 10
255.333344
 20
182.347214
 11
275.333344
 21
182.347214
  0
LINE
  8
0
 62
     5
 10
240.333344
 20
164.847214
 11
275.333344
 21
164.847214
  0
LINE
  8
0
 62
     5
 10
253.333344
 20
162.847214
 11
275.333344
 21
162.847214
  0
LINE
  8
0
 62
     5
 10
240.333344
 20
332.847229
 11
240.333344
 21
359.847229
  0
LINE
  8
0
 62
     4
 10
232.833344
 20
311.017090
 11
225.333344
 21
315.347229
  0
LINE
  8
0
 62
     4
 10
247.833344
 20
311.017090
 11
255.333344
 21
315.347229
  0
LINE
  8
0
 62
     4
 10
247.833344
 20
186.677338
 11
255.333344
 21
182.347214
  0
LINE
  8
0
 62
     4
 10
232.833344
 20
186.677338
 11
225.333344
 21
182.347214
  0
LINE
  8
0
 62
     4
 10
275.333344
 20
259.847229
 11
274.333344
 21
258.847229
  0
LINE
  8
0
 62
     4
 10
275.333344
 20
237.847214
 11
274.333344
 21
238.847214
  0
LINE
  8
0
 62
     4
 10
225.333344
 20
237.847214
 11
226.333344
 21
238.847214
  0
POLYLINE
  8
0
 62
     4
 66
     1
 70
     2
  0
VERTEX
  8
0
 10
232.833344
 20
290.847229
  0
VERTEX
  8
0
 10
232.833344
 20
317.847229
  0
VERTEX
  8
0
 10
247.833344
 20
317.847229
  0
SEQEND
  0
POLYLINE
  8
0
 62
     4
 66
     1
 70
     2
  0
VERTEX
  8
0
 10
225.333344
 20
287.847229
  0
VERTEX
  8
0
 10
226.333344
 20
288.847229
  0
VERTEX
  8
0
 10
230.833344
 20
288.847229
  0
SEQEND
  0
POLYLINE
  8
0
 62
     4
 66
     1
 70
     2
  0
VERTEX
  8
0
 10
232.833344
 20
206.847214
  0
VERTEX
  8
0
 10
232.833344
 20
179.847214
  0
VERTEX
  8
0
 10
247.833344
 20
179.847214
  0
SEQEND
  0
POLYLINE
  8
0
 62
     4
 66
     1
 70
     2
  0
VERTEX
  8
0
 10
225.333344
 20
209.847214
  0
VERTEX
  8
0
 10
226.333344
 20
208.847214
  0
VERTEX
  8
0
 10
230.833344
 20
208.847214
  0
SEQEND
  0
POLYLINE
  8
0
 62
     4
 66
     1
 70
     2
  0
VERTEX
  8
0
 10
230.135300
 20
334.847229
  0
VERTEX
  8
0
 10
227.333344
 20
334.847229
  0
VERTEX
  8
0
 10
225.333344
 20
332.847229
  0
VERTEX
  8
0
 10
225.333344
 20
237.847214
  0
SEQEND
  0
POLYLINE
  8
0
 62
     4
 66
     1
 70
     2
  0
VERTEX
  8
0
 10
225.333344
 20
237.847214
  0
VERTEX
  8
0
 10
225.333344
 20
164.847214
  0
VERTEX
  8
0
 10
227.333344
 20
162.847214
  0
VERTEX
  8
0
 10
230.135300
 20
162.847214
  0
SEQEND
  0
POLYLINE
  8
0
 62
     4
 66
     1
 70
     2
  0
VERTEX
  8
0
 10
225.333344
 20
259.847229
  0
VERTEX
  8
0
 10
226.333344
 20
258.847229
  0
VERTEX
  8
0
 10
226.333344
 20
238.847214
  0
VERTEX
  8
0
 10
274.333344
 20
238.847214
  0
VERTEX
  8
0
 10
274.333344
 20
258.847229
  0
VERTEX
  8
0
 10
226.333344
 20
258.847229
  0
SEQEND
  0
LINE
  8
0
 62
     5
 10
225.333344
 20
444.625000
 11
275.333344
 21
444.625000
  0
POLYLINE
  8
0
 62
     5
 66
     1
 70
     2
  0
VERTEX
  8
0
 10
235.444458
 20
447.513855
  0
VERTEX
  8
0
 10
225.333344
 20
444.625000
  0
VERTEX
  8
0
 10
235.444458
 20
441.736084
  0
SEQEND
  0
POLYLINE
  8
0
 62
     5
 66
     1
 70
     2
  0
VERTEX
  8
0
 10
265.222229
 20
441.736084
  0
VERTEX
  8
0
 10
275.333344
 20
444.625000
  0
VERTEX
  8
0
 10
265.222229
 20
447.513855
  0
SEQEND
  0
LINE
  8
0
 62
     5
 10
225.333344
 20
334.847229
 11
225.333344
 21
448.958313
  0
LINE
  8
0
 62
     5
 10
275.333344
 20
334.847229
 11
275.333344
 21
448.958313
  0
TEXT
  8
0
 62
     7
 10
240.944458
 20
446.936096
 40
14.444444
 41
1.000000
  1
50
  7
KANJI
 50
0.000000
 51
0.000000
  0
LINE
  8
0
 62
     5
 10
225.333344
 20
421.513855
 11
255.333344
 21
421.513855
  0
POLYLINE
  8
0
 62
     5
 66
     1
 70
     2
  0
VERTEX
  8
0
 10
235.444458
 20
424.402771
  0
VERTEX
  8
0
 10
225.333344
 20
421.513855
  0
VERTEX
  8
0
 10
235.444458
 20
418.625000
  0
SEQEND
  0
POLYLINE
  8
0
 62
     5
 66
     1
 70
     2
  0
VERTEX
  8
0
 10
245.222229
 20
418.625000
  0
VERTEX
  8
0
 10
255.333344
 20
421.513855
  0
VERTEX
  8
0
 10
245.222229
 20
424.402771
  0
SEQEND
  0
LINE
  8
0
 62
     5
 10
255.333344
 20
334.847229
 11
255.333344
 21
425.847198
  0
TEXT
  8
0
 62
     7
 10
230.944458
 20
423.824982
 40
14.444444
 41
1.000000
  1
30
  7
KANJI
 50
0.000000
 51
0.000000
  0
LINE
  8
0
 62
     5
 10
336.000000
 20
221.513885
 11
336.000000
 21
276.180542
  0
POLYLINE
  8
0
 62
     5
 66
     1
 70
     2
  0
VERTEX
  8
0
 10
333.111145
 20
268.958313
  0
VERTEX
  8
0
 10
336.000000
 20
258.847229
  0
VERTEX
  8
0
 10
338.888916
 20
268.958313
  0
SEQEND
  0
POLYLINE
  8
0
 62
     5
 66
     1
 70
     2
  0
VERTEX
  8
0
 10
338.888916
 20
228.736099
  0
VERTEX
  8
0
 10
336.000000
 20
238.847214
  0
VERTEX
  8
0
 10
333.111145
 20
228.736099
  0
SEQEND
  0
LINE
  8
0
 62
     5
 10
275.333344
 20
258.847229
 11
340.333344
 21
258.847229
  0
LINE
  8
0
 62
     5
 10
275.333344
 20
238.847214
 11
340.333344
 21
238.847214
  0
TEXT
  8
0
 62
     7
 10
333.111145
 20
222.486099
 40
14.444444
 41
1.000000
  1
%%c20H7
  7
KANJI
 50
90.000000
 51
0.000000
  0
POLYLINE
  8
0
 62
     4
 66
     1
 70
     2
  0
VERTEX
  8
0
 10
250.531387
 20
162.847214
  0
VERTEX
  8
0
 10
253.333344
 20
162.847214
  0
VERTEX
  8
0
 10
255.333344
 20
164.847214
  0
VERTEX
  8
0
 10
255.333344
 20
208.847214
  0
VERTEX
  8
0
 10
274.333344
 20
208.847214
  0
VERTEX
  8
0
 10
275.333344
 20
209.847214
  0
VERTEX
  8
0
 10
275.333344
 20
287.847229
  0
VERTEX
  8
0
 10
274.333344
 20
288.847229
  0
VERTEX
  8
0
 10
255.333344
 20
288.847229
  0
VERTEX
  8
0
 10
255.333344
 20
332.847229
  0
VERTEX
  8
0
 10
253.333344
 20
334.847229
  0
VERTEX
  8
0
 10
250.531387
 20
334.847229
  0
SEQEND
  0
ARC
  8
0
 62
     4
 10
249.833344
 20
206.847214
 40
2.000000
 50
90.0
 51
180.0
  0
ARC
  8
0
 62
     4
 10
249.833344
 20
290.847229
 40
2.000000
 50
180.0
 51
270.0
  0
LINE
  8
0
 62
     4
 10
249.833344
 20
288.847229
 11
255.333344
 21
288.847229
  0
LINE
  8
0
 62
     4
 10
249.833344
 20
208.847214
 11
255.333344
 21
208.847214
  0
LINE
  8
0
 62
     5
 10
359.111115
 20
288.847229
 11
359.111115
 21
208.847214
  0
POLYLINE
  8
0
 62
     5
 66
     1
 70
     2
  0
VERTEX
  8
0
 10
362.000000
 20
278.736115
  0
VERTEX
  8
0
 10
359.111115
 20
288.847229
  0
VERTEX
  8
0
 10
356.222229
 20
278.736115
  0
SEQEND
  0
POLYLINE
  8
0
 62
     5
 66
     1
 70
     2
  0
VERTEX
  8
0
 10
356.222229
 20
218.958328
  0
VERTEX
  8
0
 10
359.111115
 20
208.847214
  0
VERTEX
  8
0
 10
362.000000
 20
218.958328
  0
SEQEND
  0
LINE
  8
0
 62
     5
 10
275.333344
 20
288.847229
 11
363.444458
 21
288.847229
  0
LINE
  8
0
 62
     5
 10
275.333344
 20
208.847214
 11
363.444458
 21
208.847214
  0
TEXT
  8
0
 62
     7
 10
356.222229
 20
231.875000
 40
14.444444
 41
1.000000
  1
%%c80
  7
KANJI
 50
90.000000
 51
0.000000
  0
LINE
  8
0
 62
     4
 10
247.833344
 20
179.847214
 11
247.833344
 21
206.847214
  0
LINE
  8
0
 62
     4
 10
247.833344
 20
317.847229
 11
247.833344
 21
290.847229
  0
ARC
  8
0
 62
     7
 10
249.698685
 20
199.405548
 40
2.816667
 50
280.0
 51
90.0
  0
ARC
  8
0
 62
     7
 10
250.676895
 20
193.857788
 40
2.816667
 50
90.0
 51
280.0
  0
ARC
  8
0
 62
     7
 10
229.498672
 20
199.405548
 40
2.816667
 50
280.0
 51
90.0
  0
ARC
  8
0
 62
     7
 10
230.476898
 20
193.857788
 40
2.816667
 50
90.0
 51
280.0
  0
ENDSEC
  0
EOF
