  0
SECTION
  2
HEADER
  9
$ACADVER
  1
AC1003
  9
$INSBASE
 10
0.000000
 20
0.000000
  9
$EXTMIN
 10
0.000000
 20
0.000000
  9
$EXTMAX
 10
477.580645
 20
330.241935
  9
$LIMMIN
 10
0.000000
 20
0.000000
  9
$LIMMAX
 10
477.580645
 20
330.241935
  9
$VIEWCTR
 10
238.790323
 20
165.120968
  9
$VIEWSIZE
 40
330.241935
  0
ENDSEC
  0
SECTION
  2
TABLES
  0
TABLE
  2
LTYPE
 70
     4
  0
LTYPE
  2
CONTINUOUS
 70
    64
  3
SolidLine
 72
    65
 73
     0
 40
0.0
  0
LTYPE
  2
HIDDEN
 70
    64
  3
------------------------
 72
    65
 73
     2
 40
5.080645
 49
3.387097
 49
-1.693548
  0
LTYPE
  2
DASHDOT
 70
    64
  3
--?--?--?--?--?--?--?--
 72
    65
 73
     4
 40
20.322581
 49
15.241935
 49
-1.693548
 49
1.693548
 49
-1.693548
  0
LTYPE
  2
DIVIDE
 70
    64
  3
--??--??--??--??--??--
 72
    65
 73
     6
 40
25.403226
 49
16.935484
 49
-1.693548
 49
1.693548
 49
-1.693548
 49
1.693548
 49
-1.693548
  0
ENDTAB
  0
TABLE
  2
LAYER
 70
     5
  0
LAYER
  2
0
 70
    64
 62
     7
  6
CONTINUOUS
  0
LAYER
  2
HIDDEN
 70
    64
 62
     2
  6
HIDDEN
  0
LAYER
  2
DASHDOT
 70
    64
 62
     6
  6
DASHDOT
  0
LAYER
  2
DIVIDE
 70
    64
 62
     5
  6
DIVIDE
  0
ENDTAB
  0
TABLE
  2
STYLE
 70
     1
  0
STYLE
  2
STANDARD
 70
    64
 40
0.0
 41
1.0
 50
0.0
 71
     0
 42
0.2
  3
TXT
  4

  0
STYLE
  2
KANJI
 70
    64
 40
0.0
 41
1.0
 50
0.0
 71
     0
 42
0.2
  3
TXT
  4
BIGFONT
  0
ENDTAB
  0
TABLE
  2
VIEW
 70
     0
  0
ENDTAB
  0
ENDSEC
  0
SECTION
  2
BLOCKS
  0
ENDSEC
  0
SECTION
  2
ENTITIES
  0
TEXT
  8
0
 62
     7
 10
16.935484
 20
18.629032
 40
6.774194
 41
1.000000
  1
KHK AGDL3-36R1
  7
KANJI
 50
0.000000
 51
0.000000
  0
TEXT
  8
0
 62
     7
 10
16.935484
 20
8.467742
 40
6.774194
 41
1.000000
  1

  7
KANJI
 50
0.000000
 51
0.000000
  0
TEXT
  8
0
 62
     7
 10
16.935484
 20
304.838715
 40
7.620968
 41
1.000000
  1

  7
KANJI
 50
0.000000
 51
0.000000
  0
POLYLINE
  8
0
 62
     7
 66
     1
 70
     2
  0
VERTEX
  8
0
 10
406.451599
 20
304.838715
  0
VERTEX
  8
0
 10
399.846771
 20
316.287109
  0
VERTEX
  8
0
 10
426.266113
 20
316.287109
  0
VERTEX
  8
0
 10
419.661285
 20
304.838715
  0
VERTEX
  8
0
 10
413.056427
 20
316.287109
  0
VERTEX
  8
0
 10
406.451599
 20
304.838715
  0
SEQEND
  0
LINE
  8
DASHDOT
 62
     7
 10
125.322586
 20
215.717743
 11
143.161301
 21
215.717743
  0
LINE
  8
DASHDOT
 62
     7
 10
134.241943
 20
220.798386
 11
134.241943
 21
76.137100
  0
LINE
  8
0
 62
     5
 10
239.758072
 20
196.717743
 11
239.758072
 21
82.717743
  0
POLYLINE
  8
0
 62
     5
 66
     1
 70
     2
  0
VERTEX
  8
0
 10
241.451630
 20
190.790329
  0
VERTEX
  8
0
 10
239.758072
 20
196.717743
  0
VERTEX
  8
0
 10
238.064514
 20
190.790329
  0
SEQEND
  0
POLYLINE
  8
0
 62
     5
 66
     1
 70
     2
  0
VERTEX
  8
0
 10
238.064514
 20
88.645157
  0
VERTEX
  8
0
 10
239.758072
 20
82.717743
  0
VERTEX
  8
0
 10
241.451630
 20
88.645157
  0
SEQEND
  0
LINE
  8
0
 62
     5
 10
165.241943
 20
196.717743
 11
242.298401
 21
196.717743
  0
LINE
  8
0
 62
     5
 10
165.241943
 20
82.717743
 11
242.298401
 21
82.717743
  0
TEXT
  8
0
 62
     7
 10
238.064514
 20
127.016129
 40
8.467742
 41
1.000000
  1
%%c114
  7
KANJI
 50
90.000000
 51
0.000000
  0
LINE
  8
0
 62
     5
 10
253.306458
 20
198.217743
 11
253.306458
 21
81.217743
  0
POLYLINE
  8
0
 62
     5
 66
     1
 70
     2
  0
VERTEX
  8
0
 10
255.000000
 20
192.290329
  0
VERTEX
  8
0
 10
253.306458
 20
198.217743
  0
VERTEX
  8
0
 10
251.612915
 20
192.290329
  0
SEQEND
  0
POLYLINE
  8
0
 62
     5
 66
     1
 70
     2
  0
VERTEX
  8
0
 10
251.612915
 20
87.145157
  0
VERTEX
  8
0
 10
253.306458
 20
81.217743
  0
VERTEX
  8
0
 10
255.000000
 20
87.145157
  0
SEQEND
  0
LINE
  8
0
 62
     5
 10
165.241943
 20
198.217743
 11
255.846786
 21
198.217743
  0
LINE
  8
0
 62
     5
 10
165.241943
 20
81.217743
 11
255.846786
 21
81.217743
  0
TEXT
  8
0
 62
     7
 10
251.612915
 20
127.016129
 40
8.467742
 41
1.000000
  1
%%c117
  7
KANJI
 50
90.000000
 51
0.000000
  0
LINE
  8
0
 62
     5
 10
69.435493
 20
139.717743
 11
69.435493
 21
215.717743
  0
POLYLINE
  8
0
 62
     5
 66
     1
 70
     2
  0
VERTEX
  8
0
 10
67.741943
 20
145.645157
  0
VERTEX
  8
0
 10
69.435493
 20
139.717743
  0
VERTEX
  8
0
 10
71.129044
 20
145.645157
  0
SEQEND
  0
POLYLINE
  8
0
 62
     5
 66
     1
 70
     2
  0
VERTEX
  8
0
 10
71.129044
 20
209.790314
  0
VERTEX
  8
0
 10
69.435493
 20
215.717743
  0
VERTEX
  8
0
 10
67.741943
 20
209.790314
  0
SEQEND
  0
LINE
  8
0
 62
     5
 10
120.241943
 20
139.717743
 11
66.895172
 21
139.717743
  0
LINE
  8
0
 62
     5
 10
125.322586
 20
215.717743
 11
66.895172
 21
215.717743
  0
TEXT
  8
0
 62
     7
 10
66.048401
 20
170.520157
 40
8.467742
 41
1.000000
  1
76
  7
KANJI
 50
90.000000
 51
0.000000
  0
LINE
  8
0
 62
     5
 10
148.241943
 20
242.814514
 11
165.241943
 21
242.814514
  0
POLYLINE
  8
0
 62
     5
 66
     1
 70
     2
  0
VERTEX
  8
0
 10
154.169357
 20
244.508057
  0
VERTEX
  8
0
 10
148.241943
 20
242.814514
  0
VERTEX
  8
0
 10
154.169357
 20
241.120972
  0
SEQEND
  0
POLYLINE
  8
0
 62
     5
 66
     1
 70
     2
  0
VERTEX
  8
0
 10
159.314529
 20
241.120972
  0
VERTEX
  8
0
 10
165.241943
 20
242.814514
  0
VERTEX
  8
0
 10
159.314529
 20
244.508057
  0
SEQEND
  0
LINE
  8
0
 62
     5
 10
148.241943
 20
198.217743
 11
148.241943
 21
245.354828
  0
TEXT
  8
0
 62
     7
 10
151.237915
 20
244.169342
 40
8.467742
 41
1.000000
  1
17
  7
KANJI
 50
0.000000
 51
0.000000
  0
LINE
  8
0
 62
     5
 10
144.403229
 20
229.266129
 11
110.080650
 21
229.266129
  0
POLYLINE
  8
0
 62
     5
 66
     1
 70
     2
  0
VERTEX
  8
0
 10
114.314522
 20
227.572571
  0
VERTEX
  8
0
 10
120.241943
 20
229.266129
  0
VERTEX
  8
0
 10
114.314522
 20
230.959686
  0
SEQEND
  0
POLYLINE
  8
0
 62
     5
 66
     1
 70
     2
  0
VERTEX
  8
0
 10
140.169357
 20
230.959686
  0
VERTEX
  8
0
 10
134.241943
 20
229.266129
  0
VERTEX
  8
0
 10
140.169357
 20
227.572571
  0
SEQEND
  0
LINE
  8
0
 62
     5
 10
134.241943
 20
198.217743
 11
134.241943
 21
231.806458
  0
TEXT
  8
0
 62
     7
 10
121.737907
 20
230.620972
 40
8.467742
 41
1.000000
  1
14
  7
KANJI
 50
0.000000
 51
0.000000
  0
ARC
  8
DASHDOT
 62
     7
 10
134.241943
 20
215.717743
 40
22.000000
 50
219.99999848136045
 51
320.0000015186396
  0
ARC
  8
DASHDOT
 62
     7
 10
134.241943
 20
63.717743
 40
22.000000
 50
39.99999848136043
 51
140.00000151863958
  0
ARC
  8
0
 62
     4
 10
134.241943
 20
215.717743
 40
25.750000
 50
237.06485900654337
 51
302.9351409934566
  0
ARC
  8
0
 62
     4
 10
134.241943
 20
63.717743
 40
25.750000
 50
57.06485900654337
 51
122.93514099345664
  0
ARC
  8
0
 62
     4
 10
134.241943
 20
215.717743
 40
19.000000
 50
247.08045792695683
 51
292.91954207304315
  0
ARC
  8
0
 62
     4
 10
134.241943
 20
63.717743
 40
19.000000
 50
67.08045792695684
 51
112.91954207304317
  0
LINE
  8
DASHDOT
 62
     7
 10
120.241943
 20
139.717743
 11
170.322586
 21
139.717743
  0
LINE
  8
0
 62
     5
 10
148.241943
 20
196.524200
 11
148.241943
 21
198.217743
  0
LINE
  8
0
 62
     5
 10
120.241943
 20
196.524200
 11
120.241943
 21
198.217743
  0
LINE
  8
0
 62
     5
 10
165.241943
 20
168.717743
 11
165.241943
 21
198.217743
  0
LINE
  8
0
 62
     5
 10
148.241943
 20
169.717743
 11
165.241943
 21
169.717743
  0
LINE
  8
0
 62
     5
 10
148.241943
 20
109.717743
 11
165.241943
 21
109.717743
  0
LINE
  8
0
 62
     5
 10
146.548401
 20
198.217743
 11
165.241943
 21
198.217743
  0
LINE
  8
0
 62
     5
 10
134.241943
 20
196.717743
 11
165.241943
 21
196.717743
  0
LINE
  8
0
 62
     5
 10
134.241943
 20
82.717743
 11
165.241943
 21
82.717743
  0
LINE
  8
0
 62
     5
 10
146.548401
 20
81.217743
 11
165.241943
 21
81.217743
  0
LINE
  8
0
 62
     4
 10
165.241943
 20
150.717743
 11
164.241943
 21
149.717743
  0
LINE
  8
0
 62
     4
 10
165.241943
 20
128.717743
 11
164.241943
 21
129.717743
  0
LINE
  8
0
 62
     4
 10
120.241943
 20
128.717743
 11
121.241943
 21
129.717743
  0
POLYLINE
  8
0
 62
     4
 66
     1
 70
     2
  0
VERTEX
  8
0
 10
126.842621
 20
198.217743
  0
VERTEX
  8
0
 10
121.935493
 20
198.217743
  0
VERTEX
  8
0
 10
120.241943
 20
196.524200
  0
VERTEX
  8
0
 10
120.241943
 20
128.717743
  0
SEQEND
  0
POLYLINE
  8
0
 62
     4
 66
     1
 70
     2
  0
VERTEX
  8
0
 10
120.241943
 20
128.717743
  0
VERTEX
  8
0
 10
120.241943
 20
82.911293
  0
VERTEX
  8
0
 10
121.935493
 20
81.217743
  0
VERTEX
  8
0
 10
126.842621
 20
81.217743
  0
SEQEND
  0
POLYLINE
  8
0
 62
     4
 66
     1
 70
     2
  0
VERTEX
  8
0
 10
120.241943
 20
150.717743
  0
VERTEX
  8
0
 10
121.241943
 20
149.717743
  0
VERTEX
  8
0
 10
121.241943
 20
129.717743
  0
VERTEX
  8
0
 10
164.241943
 20
129.717743
  0
VERTEX
  8
0
 10
164.241943
 20
149.717743
  0
VERTEX
  8
0
 10
121.241943
 20
149.717743
  0
SEQEND
  0
POLYLINE
  8
0
 62
     5
 66
     1
 70
     2
  0
VERTEX
  8
0
 10
77.903229
 20
106.620972
  0
VERTEX
  8
0
 10
77.903229
 20
103.233871
  0
VERTEX
  8
0
 10
96.532265
 20
103.233871
  0
VERTEX
  8
0
 10
96.532265
 20
99.846771
  0
VERTEX
  8
0
 10
103.306458
 20
104.927422
  0
VERTEX
  8
0
 10
96.532265
 20
110.008064
  0
VERTEX
  8
0
 10
96.532265
 20
106.620972
  0
VERTEX
  8
0
 10
77.903229
 20
106.620972
  0
SEQEND
  0
POLYLINE
  8
0
 62
     5
 66
     1
 70
     2
  0
VERTEX
  8
0
 10
120.241943
 20
89.685486
  0
VERTEX
  8
0
 10
108.387108
 20
98.153229
  0
VERTEX
  8
0
 10
74.516136
 20
98.153229
  0
SEQEND
  0
POLYLINE
  8
0
 62
     5
 66
     1
 70
     2
  0
VERTEX
  8
0
 10
114.434250
 20
91.752632
  0
VERTEX
  8
0
 10
120.241943
 20
89.685486
  0
VERTEX
  8
0
 10
116.402962
 20
94.508820
  0
SEQEND
  0
CIRCLE
  8
0
 62
     5
 10
72.822586
 20
68.588707
 40
16.935484
  0
POLYLINE
  8
0
 62
     5
 66
     1
 70
     2
  0
VERTEX
  8
0
 10
60.967751
 20
51.653229
  0
VERTEX
  8
0
 10
60.967751
 20
38.104843
  0
VERTEX
  8
0
 10
84.677429
 20
38.104843
  0
VERTEX
  8
0
 10
84.677429
 20
51.653229
  0
VERTEX
  8
0
 10
60.967751
 20
51.653229
  0
SEQEND
  0
LINE
  8
DASHDOT
 62
     7
 10
52.500008
 20
68.588707
 11
93.145172
 21
68.588707
  0
LINE
  8
DASHDOT
 62
     7
 10
72.822586
 20
88.911293
 11
72.822586
 21
34.717743
  0
LINE
  8
DASHDOT
 62
     7
 10
54.193558
 20
44.879036
 11
94.838715
 21
44.879036
  0
POLYLINE
  8
0
 62
     5
 66
     1
 70
     2
  0
VERTEX
  8
0
 10
67.741943
 20
47.419357
  0
VERTEX
  8
0
 10
74.516136
 20
47.419357
  0
VERTEX
  8
0
 10
74.516136
 20
45.725807
  0
VERTEX
  8
0
 10
77.903229
 20
48.266129
  0
VERTEX
  8
0
 10
74.516136
 20
50.806450
  0
VERTEX
  8
0
 10
74.516136
 20
49.112907
  0
VERTEX
  8
0
 10
67.741943
 20
49.112907
  0
VERTEX
  8
0
 10
67.741943
 20
47.419357
  0
SEQEND
  0
POLYLINE
  8
0
 62
     5
 66
     1
 70
     2
  0
VERTEX
  8
0
 10
67.741943
 20
56.733871
  0
VERTEX
  8
0
 10
74.516136
 20
56.733871
  0
VERTEX
  8
0
 10
74.516136
 20
55.040321
  0
VERTEX
  8
0
 10
77.903229
 20
57.580643
  0
VERTEX
  8
0
 10
74.516136
 20
60.120972
  0
VERTEX
  8
0
 10
74.516136
 20
58.427422
  0
VERTEX
  8
0
 10
67.741943
 20
58.427422
  0
VERTEX
  8
0
 10
67.741943
 20
56.733871
  0
SEQEND
  0
POLYLINE
  8
0
 62
     5
 66
     1
 70
     2
  0
VERTEX
  8
0
 10
84.677429
 20
41.491936
  0
VERTEX
  8
0
 10
91.451622
 20
41.491936
  0
VERTEX
  8
0
 10
91.451622
 20
48.266129
  0
VERTEX
  8
0
 10
84.677429
 20
48.266129
  0
SEQEND
  0
TEXT
  8
0
 62
     7
 10
45.725815
 20
27.943550
 40
8.467742
 41
1.000000
  1
Orientation of the Assembly
  7
KANJI
 50
0.000000
 51
0.000000
  0
LINE
  8
0
 62
     5
 10
120.241943
 20
256.362915
 11
165.241943
 21
256.362915
  0
POLYLINE
  8
0
 62
     5
 66
     1
 70
     2
  0
VERTEX
  8
0
 10
126.169365
 20
258.056458
  0
VERTEX
  8
0
 10
120.241943
 20
256.362915
  0
VERTEX
  8
0
 10
126.169365
 20
254.669342
  0
SEQEND
  0
POLYLINE
  8
0
 62
     5
 66
     1
 70
     2
  0
VERTEX
  8
0
 10
159.314529
 20
254.669342
  0
VERTEX
  8
0
 10
165.241943
 20
256.362915
  0
VERTEX
  8
0
 10
159.314529
 20
258.056458
  0
SEQEND
  0
LINE
  8
0
 62
     5
 10
120.241943
 20
198.217743
 11
120.241943
 21
258.903229
  0
LINE
  8
0
 62
     5
 10
165.241943
 20
198.217743
 11
165.241943
 21
258.903229
  0
TEXT
  8
0
 62
     7
 10
137.237915
 20
257.717743
 40
8.467742
 41
1.000000
  1
45
  7
KANJI
 50
0.000000
 51
0.000000
  0
LINE
  8
0
 62
     5
 10
120.241943
 20
242.814514
 11
148.241943
 21
242.814514
  0
POLYLINE
  8
0
 62
     5
 66
     1
 70
     2
  0
VERTEX
  8
0
 10
126.169365
 20
244.508057
  0
VERTEX
  8
0
 10
120.241943
 20
242.814514
  0
VERTEX
  8
0
 10
126.169365
 20
241.120972
  0
SEQEND
  0
POLYLINE
  8
0
 62
     5
 66
     1
 70
     2
  0
VERTEX
  8
0
 10
142.314529
 20
241.120972
  0
VERTEX
  8
0
 10
148.241943
 20
242.814514
  0
VERTEX
  8
0
 10
142.314529
 20
244.508057
  0
SEQEND
  0
TEXT
  8
0
 62
     7
 10
128.737915
 20
244.169342
 40
8.467742
 41
1.000000
  1
28
  7
KANJI
 50
0.000000
 51
0.000000
  0
LINE
  8
0
 62
     5
 10
226.209686
 20
169.717743
 11
226.209686
 21
109.717743
  0
POLYLINE
  8
0
 62
     5
 66
     1
 70
     2
  0
VERTEX
  8
0
 10
227.903229
 20
163.790329
  0
VERTEX
  8
0
 10
226.209686
 20
169.717743
  0
VERTEX
  8
0
 10
224.516144
 20
163.790329
  0
SEQEND
  0
POLYLINE
  8
0
 62
     5
 66
     1
 70
     2
  0
VERTEX
  8
0
 10
224.516144
 20
115.645164
  0
VERTEX
  8
0
 10
226.209686
 20
109.717743
  0
VERTEX
  8
0
 10
227.903229
 20
115.645164
  0
SEQEND
  0
LINE
  8
0
 62
     5
 10
165.241943
 20
169.717743
 11
228.750000
 21
169.717743
  0
LINE
  8
0
 62
     5
 10
165.241943
 20
109.717743
 11
228.750000
 21
109.717743
  0
TEXT
  8
0
 62
     7
 10
224.516144
 20
129.768143
 40
8.467742
 41
1.000000
  1
%%c60
  7
KANJI
 50
90.000000
 51
0.000000
  0
LINE
  8
0
 62
     5
 10
199.112915
 20
119.556450
 11
199.112915
 21
159.879028
  0
POLYLINE
  8
0
 62
     5
 66
     1
 70
     2
  0
VERTEX
  8
0
 10
197.419373
 20
155.645157
  0
VERTEX
  8
0
 10
199.112915
 20
149.717743
  0
VERTEX
  8
0
 10
200.806458
 20
155.645157
  0
SEQEND
  0
POLYLINE
  8
0
 62
     5
 66
     1
 70
     2
  0
VERTEX
  8
0
 10
200.806458
 20
123.790321
  0
VERTEX
  8
0
 10
199.112915
 20
129.717743
  0
VERTEX
  8
0
 10
197.419373
 20
123.790321
  0
SEQEND
  0
LINE
  8
0
 62
     5
 10
165.241943
 20
149.717743
 11
201.653229
 21
149.717743
  0
LINE
  8
0
 62
     5
 10
165.241943
 20
129.717743
 11
201.653229
 21
129.717743
  0
TEXT
  8
0
 62
     7
 10
197.419373
 20
124.264114
 40
8.467742
 41
1.000000
  1
%%c20H7
  7
KANJI
 50
90.000000
 51
0.000000
  0
POLYLINE
  8
0
 62
     4
 66
     1
 70
     2
  0
VERTEX
  8
0
 10
148.241943
 20
169.717743
  0
VERTEX
  8
0
 10
148.241943
 20
196.524200
  0
VERTEX
  8
0
 10
146.548401
 20
198.217743
  0
VERTEX
  8
0
 10
141.641266
 20
198.217743
  0
SEQEND
  0
POLYLINE
  8
0
 62
     4
 66
     1
 70
     2
  0
VERTEX
  8
0
 10
141.641266
 20
81.217743
  0
VERTEX
  8
0
 10
146.548401
 20
81.217743
  0
VERTEX
  8
0
 10
148.241943
 20
82.911293
  0
VERTEX
  8
0
 10
148.241943
 20
109.717743
  0
SEQEND
  0
POLYLINE
  8
0
 62
     4
 66
     1
 70
     2
  0
VERTEX
  8
0
 10
148.241943
 20
109.717743
  0
VERTEX
  8
0
 10
164.241943
 20
109.717743
  0
VERTEX
  8
0
 10
165.241943
 20
110.717743
  0
VERTEX
  8
0
 10
165.241943
 20
168.717743
  0
VERTEX
  8
0
 10
164.241943
 20
169.717743
  0
VERTEX
  8
0
 10
148.241943
 20
169.717743
  0
SEQEND
  0
ENDSEC
  0
EOF
