  0
SECTION
  2
HEADER
  9
$ACADVER
  1
AC1003
  9
$INSBASE
 10
0.000000
 20
0.000000
  9
$EXTMIN
 10
0.000000
 20
0.000000
  9
$EXTMAX
 10
336.580645
 20
232.741935
  9
$LIMMIN
 10
0.000000
 20
0.000000
  9
$LIMMAX
 10
336.580645
 20
232.741935
  9
$VIEWCTR
 10
168.290323
 20
116.370968
  9
$VIEWSIZE
 40
232.741935
  0
ENDSEC
  0
SECTION
  2
TABLES
  0
TABLE
  2
LTYPE
 70
     4
  0
LTYPE
  2
CONTINUOUS
 70
    64
  3
SolidLine
 72
    65
 73
     0
 40
0.0
  0
LTYPE
  2
HIDDEN
 70
    64
  3
------------------------
 72
    65
 73
     2
 40
3.580645
 49
2.387097
 49
-1.193548
  0
LTYPE
  2
DASHDOT
 70
    64
  3
--?--?--?--?--?--?--?--
 72
    65
 73
     4
 40
14.322581
 49
10.741935
 49
-1.193548
 49
1.193548
 49
-1.193548
  0
LTYPE
  2
DIVIDE
 70
    64
  3
--??--??--??--??--??--
 72
    65
 73
     6
 40
17.903226
 49
11.935484
 49
-1.193548
 49
1.193548
 49
-1.193548
 49
1.193548
 49
-1.193548
  0
ENDTAB
  0
TABLE
  2
LAYER
 70
     5
  0
LAYER
  2
0
 70
    64
 62
     7
  6
CONTINUOUS
  0
LAYER
  2
HIDDEN
 70
    64
 62
     2
  6
HIDDEN
  0
LAYER
  2
DASHDOT
 70
    64
 62
     6
  6
DASHDOT
  0
LAYER
  2
DIVIDE
 70
    64
 62
     5
  6
DIVIDE
  0
ENDTAB
  0
TABLE
  2
STYLE
 70
     1
  0
STYLE
  2
STANDARD
 70
    64
 40
0.0
 41
1.0
 50
0.0
 71
     0
 42
0.2
  3
TXT
  4

  0
STYLE
  2
KANJI
 70
    64
 40
0.0
 41
1.0
 50
0.0
 71
     0
 42
0.2
  3
TXT
  4
BIGFONT
  0
ENDTAB
  0
TABLE
  2
VIEW
 70
     0
  0
ENDTAB
  0
ENDSEC
  0
SECTION
  2
BLOCKS
  0
ENDSEC
  0
SECTION
  2
ENTITIES
  0
TEXT
  8
0
 62
     7
 10
11.935484
 20
13.129032
 40
4.774194
 41
1.000000
  1
KHK AGDL1.5-60R1
  7
KANJI
 50
0.000000
 51
0.000000
  0
TEXT
  8
0
 62
     7
 10
11.935484
 20
5.967742
 40
4.774194
 41
1.000000
  1

  7
KANJI
 50
0.000000
 51
0.000000
  0
TEXT
  8
0
 62
     7
 10
11.935484
 20
214.838715
 40
5.370968
 41
1.000000
  1

  7
KANJI
 50
0.000000
 51
0.000000
  0
POLYLINE
  8
0
 62
     7
 66
     1
 70
     2
  0
VERTEX
  8
0
 10
286.451599
 20
214.838715
  0
VERTEX
  8
0
 10
281.796753
 20
222.907104
  0
VERTEX
  8
0
 10
300.416107
 20
222.907104
  0
VERTEX
  8
0
 10
295.761292
 20
214.838715
  0
VERTEX
  8
0
 10
291.106445
 20
222.907104
  0
VERTEX
  8
0
 10
286.451599
 20
214.838715
  0
SEQEND
  0
LINE
  8
DASHDOT
 62
     7
 10
88.322586
 20
155.967743
 11
95.161301
 21
155.967743
  0
LINE
  8
DASHDOT
 62
     7
 10
91.741943
 20
159.548386
 11
91.741943
 21
47.637089
  0
LINE
  8
0
 62
     5
 10
161.258072
 20
144.967743
 11
161.258072
 21
51.967735
  0
POLYLINE
  8
0
 62
     5
 66
     1
 70
     2
  0
VERTEX
  8
0
 10
162.451630
 20
140.790314
  0
VERTEX
  8
0
 10
161.258072
 20
144.967743
  0
VERTEX
  8
0
 10
160.064514
 20
140.790314
  0
SEQEND
  0
POLYLINE
  8
0
 62
     5
 66
     1
 70
     2
  0
VERTEX
  8
0
 10
160.064514
 20
56.145153
  0
VERTEX
  8
0
 10
161.258072
 20
51.967735
  0
VERTEX
  8
0
 10
162.451630
 20
56.145153
  0
SEQEND
  0
LINE
  8
0
 62
     5
 10
108.741943
 20
144.967743
 11
163.048401
 21
144.967743
  0
LINE
  8
0
 62
     5
 10
108.741943
 20
51.967735
 11
163.048401
 21
51.967735
  0
TEXT
  8
0
 62
     7
 10
160.064514
 20
91.455643
 40
5.967742
 41
1.000000
  1
%%c93
  7
KANJI
 50
90.000000
 51
0.000000
  0
LINE
  8
0
 62
     5
 10
170.806458
 20
145.717743
 11
170.806458
 21
51.217735
  0
POLYLINE
  8
0
 62
     5
 66
     1
 70
     2
  0
VERTEX
  8
0
 10
172.000000
 20
141.540314
  0
VERTEX
  8
0
 10
170.806458
 20
145.717743
  0
VERTEX
  8
0
 10
169.612915
 20
141.540314
  0
SEQEND
  0
POLYLINE
  8
0
 62
     5
 66
     1
 70
     2
  0
VERTEX
  8
0
 10
169.612915
 20
55.395153
  0
VERTEX
  8
0
 10
170.806458
 20
51.217735
  0
VERTEX
  8
0
 10
172.000000
 20
55.395153
  0
SEQEND
  0
LINE
  8
0
 62
     5
 10
108.741943
 20
145.717743
 11
172.596771
 21
145.717743
  0
LINE
  8
0
 62
     5
 10
108.741943
 20
51.217735
 11
172.596771
 21
51.217735
  0
TEXT
  8
0
 62
     7
 10
169.612915
 20
87.576607
 40
5.967742
 41
1.000000
  1
%%c94.5
  7
KANJI
 50
90.000000
 51
0.000000
  0
LINE
  8
0
 62
     5
 10
48.935493
 20
98.467735
 11
48.935493
 21
155.967743
  0
POLYLINE
  8
0
 62
     5
 66
     1
 70
     2
  0
VERTEX
  8
0
 10
47.741943
 20
102.645157
  0
VERTEX
  8
0
 10
48.935493
 20
98.467735
  0
VERTEX
  8
0
 10
50.129044
 20
102.645157
  0
SEQEND
  0
POLYLINE
  8
0
 62
     5
 66
     1
 70
     2
  0
VERTEX
  8
0
 10
50.129044
 20
151.790314
  0
VERTEX
  8
0
 10
48.935493
 20
155.967743
  0
VERTEX
  8
0
 10
47.741943
 20
151.790314
  0
SEQEND
  0
LINE
  8
0
 62
     5
 10
84.741943
 20
98.467735
 11
47.145172
 21
98.467735
  0
LINE
  8
0
 62
     5
 10
88.322586
 20
155.967743
 11
47.145168
 21
155.967743
  0
TEXT
  8
0
 62
     7
 10
46.548397
 20
118.266121
 40
5.967742
 41
1.000000
  1
57.5
  7
KANJI
 50
90.000000
 51
0.000000
  0
LINE
  8
0
 62
     5
 10
115.903236
 20
175.064514
 11
91.580650
 21
175.064514
  0
POLYLINE
  8
0
 62
     5
 66
     1
 70
     2
  0
VERTEX
  8
0
 10
94.564522
 20
173.870956
  0
VERTEX
  8
0
 10
98.741943
 20
175.064514
  0
VERTEX
  8
0
 10
94.564522
 20
176.258057
  0
SEQEND
  0
POLYLINE
  8
0
 62
     5
 66
     1
 70
     2
  0
VERTEX
  8
0
 10
112.919365
 20
176.258057
  0
VERTEX
  8
0
 10
108.741943
 20
175.064514
  0
VERTEX
  8
0
 10
112.919365
 20
173.870956
  0
SEQEND
  0
LINE
  8
0
 62
     5
 10
98.741943
 20
145.717743
 11
98.741943
 21
176.854828
  0
TEXT
  8
0
 62
     7
 10
99.862915
 20
176.019348
 40
5.967742
 41
1.000000
  1
10
  7
KANJI
 50
0.000000
 51
0.000000
  0
LINE
  8
0
 62
     5
 10
84.741943
 20
165.516113
 11
91.741943
 21
165.516113
  0
POLYLINE
  8
0
 62
     5
 66
     1
 70
     2
  0
VERTEX
  8
0
 10
88.919365
 20
166.709671
  0
VERTEX
  8
0
 10
84.741943
 20
165.516113
  0
VERTEX
  8
0
 10
88.919365
 20
164.322571
  0
SEQEND
  0
POLYLINE
  8
0
 62
     5
 66
     1
 70
     2
  0
VERTEX
  8
0
 10
87.564522
 20
164.322571
  0
VERTEX
  8
0
 10
91.741943
 20
165.516113
  0
VERTEX
  8
0
 10
87.564522
 20
166.709671
  0
SEQEND
  0
LINE
  8
0
 62
     5
 10
91.741943
 20
145.717743
 11
91.741943
 21
167.306442
  0
TEXT
  8
0
 62
     7
 10
86.302429
 20
166.470963
 40
5.967742
 41
1.000000
  1
7
  7
KANJI
 50
0.000000
 51
0.000000
  0
ARC
  8
DASHDOT
 62
     7
 10
91.741943
 20
155.967743
 40
12.500000
 50
219.99999246918034
 51
320.0000075308197
  0
ARC
  8
DASHDOT
 62
     7
 10
91.741943
 20
40.967735
 40
12.500000
 50
39.99999246918032
 51
140.00000753081966
  0
ARC
  8
0
 62
     4
 10
91.741943
 20
155.967743
 40
14.375000
 50
240.85925872932637
 51
299.14074127067363
  0
ARC
  8
0
 62
     4
 10
91.741943
 20
40.967735
 40
14.375000
 50
60.85925872932637
 51
119.14074127067363
  0
ARC
  8
0
 62
     4
 10
91.741943
 20
155.967743
 40
11.000000
 50
248.7200340697825
 51
291.2799659302175
  0
ARC
  8
0
 62
     4
 10
91.741943
 20
40.967735
 40
11.000000
 50
68.7200340697825
 51
111.2799659302175
  0
LINE
  8
DASHDOT
 62
     7
 10
84.741943
 20
98.467735
 11
112.322586
 21
98.467735
  0
LINE
  8
0
 62
     5
 10
98.741943
 20
144.524185
 11
98.741943
 21
145.717743
  0
LINE
  8
0
 62
     5
 10
84.741943
 20
144.524185
 11
84.741943
 21
145.717743
  0
LINE
  8
0
 62
     5
 10
108.741943
 20
122.967735
 11
108.741943
 21
145.717743
  0
LINE
  8
0
 62
     5
 10
98.741943
 20
123.467735
 11
108.741943
 21
123.467735
  0
LINE
  8
0
 62
     5
 10
98.741943
 20
73.467735
 11
108.741943
 21
73.467735
  0
LINE
  8
0
 62
     5
 10
97.548393
 20
145.717743
 11
108.741943
 21
145.717743
  0
LINE
  8
0
 62
     5
 10
91.741943
 20
144.967743
 11
108.741943
 21
144.967743
  0
LINE
  8
0
 62
     5
 10
91.741943
 20
51.967735
 11
108.741943
 21
51.967735
  0
LINE
  8
0
 62
     5
 10
97.548393
 20
51.217735
 11
108.741943
 21
51.217735
  0
LINE
  8
0
 62
     4
 10
108.741943
 20
104.967735
 11
108.241943
 21
104.467735
  0
LINE
  8
0
 62
     4
 10
108.741943
 20
91.967735
 11
108.241943
 21
92.467735
  0
LINE
  8
0
 62
     4
 10
84.741943
 20
91.967735
 11
85.241943
 21
92.467735
  0
POLYLINE
  8
0
 62
     4
 66
     1
 70
     2
  0
VERTEX
  8
0
 10
87.749763
 20
145.717743
  0
VERTEX
  8
0
 10
85.935493
 20
145.717743
  0
VERTEX
  8
0
 10
84.741943
 20
144.524185
  0
VERTEX
  8
0
 10
84.741943
 20
91.967735
  0
SEQEND
  0
POLYLINE
  8
0
 62
     4
 66
     1
 70
     2
  0
VERTEX
  8
0
 10
84.741943
 20
91.967735
  0
VERTEX
  8
0
 10
84.741943
 20
52.411285
  0
VERTEX
  8
0
 10
85.935493
 20
51.217735
  0
VERTEX
  8
0
 10
87.749763
 20
51.217735
  0
SEQEND
  0
POLYLINE
  8
0
 62
     4
 66
     1
 70
     2
  0
VERTEX
  8
0
 10
84.741943
 20
104.967735
  0
VERTEX
  8
0
 10
85.241943
 20
104.467735
  0
VERTEX
  8
0
 10
85.241943
 20
92.467735
  0
VERTEX
  8
0
 10
108.241943
 20
92.467735
  0
VERTEX
  8
0
 10
108.241943
 20
104.467735
  0
VERTEX
  8
0
 10
85.241943
 20
104.467735
  0
SEQEND
  0
POLYLINE
  8
0
 62
     5
 66
     1
 70
     2
  0
VERTEX
  8
0
 10
54.903236
 20
69.120956
  0
VERTEX
  8
0
 10
54.903236
 20
66.733864
  0
VERTEX
  8
0
 10
68.032265
 20
66.733864
  0
VERTEX
  8
0
 10
68.032265
 20
64.346771
  0
VERTEX
  8
0
 10
72.806458
 20
67.927414
  0
VERTEX
  8
0
 10
68.032265
 20
71.508057
  0
VERTEX
  8
0
 10
68.032265
 20
69.120956
  0
VERTEX
  8
0
 10
54.903236
 20
69.120956
  0
SEQEND
  0
POLYLINE
  8
0
 62
     5
 66
     1
 70
     2
  0
VERTEX
  8
0
 10
84.741943
 20
57.185478
  0
VERTEX
  8
0
 10
76.387108
 20
63.153217
  0
VERTEX
  8
0
 10
52.516136
 20
63.153217
  0
SEQEND
  0
POLYLINE
  8
0
 62
     5
 66
     1
 70
     2
  0
VERTEX
  8
0
 10
80.648903
 20
58.642323
  0
VERTEX
  8
0
 10
84.741943
 20
57.185478
  0
VERTEX
  8
0
 10
82.036369
 20
60.584785
  0
SEQEND
  0
CIRCLE
  8
0
 62
     5
 10
51.322590
 20
48.338703
 40
11.935484
  0
POLYLINE
  8
0
 62
     5
 66
     1
 70
     2
  0
VERTEX
  8
0
 10
42.967751
 20
36.403217
  0
VERTEX
  8
0
 10
42.967751
 20
26.854836
  0
VERTEX
  8
0
 10
59.677429
 20
26.854836
  0
VERTEX
  8
0
 10
59.677429
 20
36.403217
  0
VERTEX
  8
0
 10
42.967751
 20
36.403217
  0
SEQEND
  0
LINE
  8
DASHDOT
 62
     7
 10
37.000008
 20
48.338703
 11
65.645172
 21
48.338703
  0
LINE
  8
DASHDOT
 62
     7
 10
51.322590
 20
62.661285
 11
51.322590
 21
24.467735
  0
LINE
  8
DASHDOT
 62
     7
 10
38.193558
 20
31.629028
 11
66.838715
 21
31.629028
  0
POLYLINE
  8
0
 62
     5
 66
     1
 70
     2
  0
VERTEX
  8
0
 10
47.741943
 20
33.419350
  0
VERTEX
  8
0
 10
52.516136
 20
33.419350
  0
VERTEX
  8
0
 10
52.516136
 20
32.225800
  0
VERTEX
  8
0
 10
54.903236
 20
34.016121
  0
VERTEX
  8
0
 10
52.516136
 20
35.806446
  0
VERTEX
  8
0
 10
52.516136
 20
34.612896
  0
VERTEX
  8
0
 10
47.741943
 20
34.612896
  0
VERTEX
  8
0
 10
47.741943
 20
33.419350
  0
SEQEND
  0
POLYLINE
  8
0
 62
     5
 66
     1
 70
     2
  0
VERTEX
  8
0
 10
47.741943
 20
39.983864
  0
VERTEX
  8
0
 10
52.516136
 20
39.983864
  0
VERTEX
  8
0
 10
52.516136
 20
38.790318
  0
VERTEX
  8
0
 10
54.903236
 20
40.580639
  0
VERTEX
  8
0
 10
52.516136
 20
42.370960
  0
VERTEX
  8
0
 10
52.516136
 20
41.177414
  0
VERTEX
  8
0
 10
47.741943
 20
41.177414
  0
VERTEX
  8
0
 10
47.741943
 20
39.983864
  0
SEQEND
  0
POLYLINE
  8
0
 62
     5
 66
     1
 70
     2
  0
VERTEX
  8
0
 10
59.677429
 20
29.241928
  0
VERTEX
  8
0
 10
64.451622
 20
29.241928
  0
VERTEX
  8
0
 10
64.451622
 20
34.016121
  0
VERTEX
  8
0
 10
59.677429
 20
34.016121
  0
SEQEND
  0
TEXT
  8
0
 62
     7
 10
32.225815
 20
19.693542
 40
5.967742
 41
1.000000
  1
Orientation of the Assembly
  7
KANJI
 50
0.000000
 51
0.000000
  0
LINE
  8
0
 62
     5
 10
84.741943
 20
184.612885
 11
108.741943
 21
184.612885
  0
POLYLINE
  8
0
 62
     5
 66
     1
 70
     2
  0
VERTEX
  8
0
 10
88.919365
 20
185.806442
  0
VERTEX
  8
0
 10
84.741943
 20
184.612885
  0
VERTEX
  8
0
 10
88.919365
 20
183.419342
  0
SEQEND
  0
POLYLINE
  8
0
 62
     5
 66
     1
 70
     2
  0
VERTEX
  8
0
 10
104.564522
 20
183.419342
  0
VERTEX
  8
0
 10
108.741943
 20
184.612885
  0
VERTEX
  8
0
 10
104.564522
 20
185.806442
  0
SEQEND
  0
LINE
  8
0
 62
     5
 10
84.741943
 20
145.717743
 11
84.741943
 21
186.403214
  0
LINE
  8
0
 62
     5
 10
108.741943
 20
145.717743
 11
108.741943
 21
186.403214
  0
TEXT
  8
0
 62
     7
 10
92.862915
 20
185.567734
 40
5.967742
 41
1.000000
  1
24
  7
KANJI
 50
0.000000
 51
0.000000
  0
LINE
  8
0
 62
     5
 10
84.741943
 20
175.064514
 11
98.741943
 21
175.064514
  0
POLYLINE
  8
0
 62
     5
 66
     1
 70
     2
  0
VERTEX
  8
0
 10
88.919365
 20
176.258057
  0
VERTEX
  8
0
 10
84.741943
 20
175.064514
  0
VERTEX
  8
0
 10
88.919365
 20
173.870956
  0
SEQEND
  0
POLYLINE
  8
0
 62
     5
 66
     1
 70
     2
  0
VERTEX
  8
0
 10
94.564522
 20
173.870956
  0
VERTEX
  8
0
 10
98.741943
 20
175.064514
  0
VERTEX
  8
0
 10
94.564522
 20
176.258057
  0
SEQEND
  0
TEXT
  8
0
 62
     7
 10
87.862907
 20
176.019348
 40
5.967742
 41
1.000000
  1
14
  7
KANJI
 50
0.000000
 51
0.000000
  0
LINE
  8
0
 62
     5
 10
151.709686
 20
123.467735
 11
151.709686
 21
73.467735
  0
POLYLINE
  8
0
 62
     5
 66
     1
 70
     2
  0
VERTEX
  8
0
 10
152.903229
 20
119.290314
  0
VERTEX
  8
0
 10
151.709686
 20
123.467735
  0
VERTEX
  8
0
 10
150.516144
 20
119.290314
  0
SEQEND
  0
POLYLINE
  8
0
 62
     5
 66
     1
 70
     2
  0
VERTEX
  8
0
 10
150.516144
 20
77.645157
  0
VERTEX
  8
0
 10
151.709686
 20
73.467735
  0
VERTEX
  8
0
 10
152.903229
 20
77.645157
  0
SEQEND
  0
LINE
  8
0
 62
     5
 10
108.741943
 20
123.467735
 11
153.500000
 21
123.467735
  0
LINE
  8
0
 62
     5
 10
108.741943
 20
73.467735
 11
153.500000
 21
73.467735
  0
TEXT
  8
0
 62
     7
 10
150.516144
 20
91.455643
 40
5.967742
 41
1.000000
  1
%%c50
  7
KANJI
 50
90.000000
 51
0.000000
  0
LINE
  8
0
 62
     5
 10
132.612915
 20
85.306442
 11
132.612915
 21
111.629028
  0
POLYLINE
  8
0
 62
     5
 66
     1
 70
     2
  0
VERTEX
  8
0
 10
131.419357
 20
108.645157
  0
VERTEX
  8
0
 10
132.612915
 20
104.467735
  0
VERTEX
  8
0
 10
133.806458
 20
108.645157
  0
SEQEND
  0
POLYLINE
  8
0
 62
     5
 66
     1
 70
     2
  0
VERTEX
  8
0
 10
133.806458
 20
88.290314
  0
VERTEX
  8
0
 10
132.612915
 20
92.467735
  0
VERTEX
  8
0
 10
131.419357
 20
88.290314
  0
SEQEND
  0
LINE
  8
0
 62
     5
 10
108.741943
 20
104.467735
 11
134.403229
 21
104.467735
  0
LINE
  8
0
 62
     5
 10
108.741943
 20
92.467735
 11
134.403229
 21
92.467735
  0
TEXT
  8
0
 62
     7
 10
131.419357
 20
87.576607
 40
5.967742
 41
1.000000
  1
%%c12H7
  7
KANJI
 50
90.000000
 51
0.000000
  0
POLYLINE
  8
0
 62
     4
 66
     1
 70
     2
  0
VERTEX
  8
0
 10
98.741943
 20
123.467735
  0
VERTEX
  8
0
 10
98.741943
 20
144.524185
  0
VERTEX
  8
0
 10
97.548393
 20
145.717743
  0
VERTEX
  8
0
 10
95.734123
 20
145.717743
  0
SEQEND
  0
POLYLINE
  8
0
 62
     4
 66
     1
 70
     2
  0
VERTEX
  8
0
 10
95.734123
 20
51.217735
  0
VERTEX
  8
0
 10
97.548393
 20
51.217735
  0
VERTEX
  8
0
 10
98.741943
 20
52.411285
  0
VERTEX
  8
0
 10
98.741943
 20
73.467735
  0
SEQEND
  0
POLYLINE
  8
0
 62
     4
 66
     1
 70
     2
  0
VERTEX
  8
0
 10
98.741943
 20
73.467735
  0
VERTEX
  8
0
 10
108.241943
 20
73.467735
  0
VERTEX
  8
0
 10
108.741943
 20
73.967735
  0
VERTEX
  8
0
 10
108.741943
 20
122.967735
  0
VERTEX
  8
0
 10
108.241943
 20
123.467735
  0
VERTEX
  8
0
 10
98.741943
 20
123.467735
  0
SEQEND
  0
ENDSEC
  0
EOF
