  0
SECTION
  2
HEADER
  9
$ACADVER
  1
AC1003
  9
$INSBASE
 10
0.000000
 20
0.000000
  9
$EXTMIN
 10
0.000000
 20
0.000000
  9
$EXTMAX
 10
723.193548
 20
500.080645
  9
$LIMMIN
 10
0.000000
 20
0.000000
  9
$LIMMAX
 10
723.193548
 20
500.080645
  9
$VIEWCTR
 10
361.596774
 20
250.040323
  9
$VIEWSIZE
 40
500.080645
  0
ENDSEC
  0
SECTION
  2
TABLES
  0
TABLE
  2
LTYPE
 70
     4
  0
LTYPE
  2
CONTINUOUS
 70
    64
  3
SolidLine
 72
    65
 73
     0
 40
0.0
  0
LTYPE
  2
HIDDEN
 70
    64
  3
------------------------
 72
    65
 73
     2
 40
7.693548
 49
5.129032
 49
-2.564516
  0
LTYPE
  2
DASHDOT
 70
    64
  3
--?--?--?--?--?--?--?--
 72
    65
 73
     4
 40
30.774194
 49
23.080645
 49
-2.564516
 49
2.564516
 49
-2.564516
  0
LTYPE
  2
DIVIDE
 70
    64
  3
--??--??--??--??--??--
 72
    65
 73
     6
 40
38.467742
 49
25.645161
 49
-2.564516
 49
2.564516
 49
-2.564516
 49
2.564516
 49
-2.564516
  0
ENDTAB
  0
TABLE
  2
LAYER
 70
     5
  0
LAYER
  2
0
 70
    64
 62
     7
  6
CONTINUOUS
  0
LAYER
  2
HIDDEN
 70
    64
 62
     2
  6
HIDDEN
  0
LAYER
  2
DASHDOT
 70
    64
 62
     6
  6
DASHDOT
  0
LAYER
  2
DIVIDE
 70
    64
 62
     5
  6
DIVIDE
  0
ENDTAB
  0
TABLE
  2
STYLE
 70
     1
  0
STYLE
  2
STANDARD
 70
    64
 40
0.0
 41
1.0
 50
0.0
 71
     0
 42
0.2
  3
TXT
  4

  0
STYLE
  2
KANJI
 70
    64
 40
0.0
 41
1.0
 50
0.0
 71
     0
 42
0.2
  3
TXT
  4
BIGFONT
  0
ENDTAB
  0
TABLE
  2
VIEW
 70
     0
  0
ENDTAB
  0
ENDSEC
  0
SECTION
  2
BLOCKS
  0
ENDSEC
  0
SECTION
  2
ENTITIES
  0
TEXT
  8
0
 62
     7
 10
25.645161
 20
28.209677
 40
10.258065
 41
1.000000
  1
KHK AGF6-50R1
  7
KANJI
 50
0.000000
 51
0.000000
  0
TEXT
  8
0
 62
     7
 10
25.645161
 20
12.822580
 40
10.258065
 41
1.000000
  1

  7
KANJI
 50
0.000000
 51
0.000000
  0
TEXT
  8
0
 62
     7
 10
25.645161
 20
461.612915
 40
11.540323
 41
1.000000
  1

  7
KANJI
 50
0.000000
 51
0.000000
  0
POLYLINE
  8
0
 62
     7
 66
     1
 70
     2
  0
VERTEX
  8
0
 10
538.548401
 20
461.612915
  0
VERTEX
  8
0
 10
528.546814
 20
478.949036
  0
VERTEX
  8
0
 10
568.553223
 20
478.949036
  0
VERTEX
  8
0
 10
558.551636
 20
461.612915
  0
VERTEX
  8
0
 10
548.549988
 20
478.949036
  0
VERTEX
  8
0
 10
538.548401
 20
461.612915
  0
SEQEND
  0
ARC
  8
0
 62
     7
 10
599.391541
 20
467.311462
 40
7.501210
 50
10.0
 51
180.0
  0
ARC
  8
0
 62
     7
 10
614.166016
 20
469.916626
 40
7.501210
 50
180.0
 51
10.0
  0
POLYLINE
  8
0
 62
     7
 66
     1
 70
     2
  0
VERTEX
  8
0
 10
583.889038
 20
478.949036
  0
VERTEX
  8
0
 10
581.221924
 20
476.281952
  0
VERTEX
  8
0
 10
581.221924
 20
464.279999
  0
VERTEX
  8
0
 10
583.889038
 20
461.612915
  0
SEQEND
  0
POLYLINE
  8
0
 62
     7
 66
     1
 70
     2
  0
VERTEX
  8
0
 10
631.230042
 20
478.949036
  0
VERTEX
  8
0
 10
633.897095
 20
476.281952
  0
VERTEX
  8
0
 10
633.897095
 20
464.279999
  0
VERTEX
  8
0
 10
631.230042
 20
461.612915
  0
SEQEND
  0
POLYLINE
  8
0
 62
     4
 66
     1
 70
     2
  0
VERTEX
  8
0
 10
321.846771
 20
320.395172
  0
VERTEX
  8
0
 10
320.846771
 20
319.395172
  0
VERTEX
  8
0
 10
320.846771
 20
129.395172
  0
VERTEX
  8
0
 10
321.846771
 20
128.395172
  0
SEQEND
  0
POLYLINE
  8
0
 62
     4
 66
     1
 70
     2
  0
VERTEX
  8
0
 10
309.846771
 20
320.395172
  0
VERTEX
  8
0
 10
310.846771
 20
319.395172
  0
VERTEX
  8
0
 10
310.846771
 20
129.395172
  0
VERTEX
  8
0
 10
309.846771
 20
128.395172
  0
SEQEND
  0
LINE
  8
DASHDOT
 62
     7
 10
321.846771
 20
380.395172
 11
321.846771
 21
412.088715
  0
LINE
  8
DASHDOT
 62
     7
 10
309.540314
 20
404.395172
 11
334.153229
 21
404.395172
  0
LINE
  8
0
 62
     5
 10
441.862915
 20
358.395172
 11
441.862915
 21
90.395172
  0
POLYLINE
  8
0
 62
     5
 66
     1
 70
     2
  0
VERTEX
  8
0
 10
444.427429
 20
349.419373
  0
VERTEX
  8
0
 10
441.862915
 20
358.395172
  0
VERTEX
  8
0
 10
439.298401
 20
349.419373
  0
SEQEND
  0
POLYLINE
  8
0
 62
     5
 66
     1
 70
     2
  0
VERTEX
  8
0
 10
439.298401
 20
99.370979
  0
VERTEX
  8
0
 10
441.862915
 20
90.395172
  0
VERTEX
  8
0
 10
444.427429
 20
99.370979
  0
SEQEND
  0
LINE
  8
0
 62
     5
 10
341.846771
 20
358.395172
 11
445.709656
 21
358.395172
  0
LINE
  8
0
 62
     5
 10
341.846771
 20
90.395172
 11
445.709656
 21
90.395172
  0
TEXT
  8
0
 62
     7
 10
439.298401
 20
196.826630
 40
12.822581
 41
1.000000
  1
(%%c268)
  7
KANJI
 50
90.000000
 51
0.000000
  0
LINE
  8
0
 62
     5
 10
462.379028
 20
380.395172
 11
462.379028
 21
68.395172
  0
POLYLINE
  8
0
 62
     5
 66
     1
 70
     2
  0
VERTEX
  8
0
 10
464.943542
 20
371.419373
  0
VERTEX
  8
0
 10
462.379028
 20
380.395172
  0
VERTEX
  8
0
 10
459.814514
 20
371.419373
  0
SEQEND
  0
POLYLINE
  8
0
 62
     5
 66
     1
 70
     2
  0
VERTEX
  8
0
 10
459.814514
 20
77.370972
  0
VERTEX
  8
0
 10
462.379028
 20
68.395172
  0
VERTEX
  8
0
 10
464.943542
 20
77.370972
  0
SEQEND
  0
LINE
  8
0
 62
     5
 10
341.846771
 20
380.395172
 11
466.225800
 21
380.395172
  0
LINE
  8
0
 62
     5
 10
341.846771
 20
68.395172
 11
466.225800
 21
68.395172
  0
TEXT
  8
0
 62
     7
 10
459.814514
 20
205.161301
 40
12.822581
 41
1.000000
  1
%%c312
  7
KANJI
 50
90.000000
 51
0.000000
  0
LINE
  8
0
 62
     5
 10
479.895142
 20
383.395172
 11
479.895142
 21
65.395172
  0
POLYLINE
  8
0
 62
     5
 66
     1
 70
     2
  0
VERTEX
  8
0
 10
482.459656
 20
374.419373
  0
VERTEX
  8
0
 10
479.895142
 20
383.395172
  0
VERTEX
  8
0
 10
477.330627
 20
374.419373
  0
SEQEND
  0
POLYLINE
  8
0
 62
     5
 66
     1
 70
     2
  0
VERTEX
  8
0
 10
477.330627
 20
74.370972
  0
VERTEX
  8
0
 10
479.895142
 20
65.395172
  0
VERTEX
  8
0
 10
482.459656
 20
74.370972
  0
SEQEND
  0
LINE
  8
0
 62
     5
 10
338.846771
 20
383.395172
 11
483.741943
 21
383.395172
  0
LINE
  8
0
 62
     5
 10
338.846771
 20
65.395172
 11
483.741943
 21
65.395172
  0
TEXT
  8
0
 62
     7
 10
477.330627
 20
205.161301
 40
12.822581
 41
1.000000
  1
%%c318
  7
KANJI
 50
90.000000
 51
0.000000
  0
LINE
  8
0
 62
     5
 10
224.911285
 20
224.395172
 11
224.911285
 21
404.395172
  0
POLYLINE
  8
0
 62
     5
 66
     1
 70
     2
  0
VERTEX
  8
0
 10
222.346771
 20
233.370972
  0
VERTEX
  8
0
 10
224.911285
 20
224.395172
  0
VERTEX
  8
0
 10
227.475800
 20
233.370972
  0
SEQEND
  0
POLYLINE
  8
0
 62
     5
 66
     1
 70
     2
  0
VERTEX
  8
0
 10
227.475800
 20
395.419373
  0
VERTEX
  8
0
 10
224.911285
 20
404.395172
  0
VERTEX
  8
0
 10
222.346771
 20
395.419373
  0
SEQEND
  0
LINE
  8
0
 62
     5
 10
301.846771
 20
224.395172
 11
221.064514
 21
224.395172
  0
LINE
  8
0
 62
     5
 10
309.540314
 20
404.395172
 11
221.064514
 21
404.395172
  0
TEXT
  8
0
 62
     7
 10
219.782257
 20
299.328644
 40
12.822581
 41
1.000000
  1
180
  7
KANJI
 50
90.000000
 51
0.000000
  0
LINE
  8
0
 62
     5
 10
337.233856
 20
262.862915
 11
294.459686
 21
262.862915
  0
POLYLINE
  8
0
 62
     5
 66
     1
 70
     2
  0
VERTEX
  8
0
 10
300.870972
 20
260.298401
  0
VERTEX
  8
0
 10
309.846771
 20
262.862915
  0
VERTEX
  8
0
 10
300.870972
 20
265.427429
  0
SEQEND
  0
POLYLINE
  8
0
 62
     5
 66
     1
 70
     2
  0
VERTEX
  8
0
 10
321.846771
 20
262.862915
  0
VERTEX
  8
0
 10
321.077423
 20
263.632263
  0
VERTEX
  8
0
 10
322.616119
 20
263.632263
  0
VERTEX
  8
0
 10
322.616119
 20
262.093567
  0
VERTEX
  8
0
 10
321.077423
 20
262.093567
  0
VERTEX
  8
0
 10
321.077423
 20
263.632263
  0
VERTEX
  8
0
 10
321.846771
 20
262.862915
  0
VERTEX
  8
0
 10
322.616119
 20
262.093567
  0
VERTEX
  8
0
 10
322.616119
 20
263.632263
  0
VERTEX
  8
0
 10
321.846771
 20
262.862915
  0
SEQEND
  0
TEXT
  8
0
 62
     7
 10
285.483856
 20
264.914520
 40
12.822581
 41
1.000000
  1
12
  7
KANJI
 50
0.000000
 51
0.000000
  0
LINE
  8
0
 62
     5
 10
340.233856
 20
262.862915
 11
306.459686
 21
262.862915
  0
POLYLINE
  8
0
 62
     5
 66
     1
 70
     2
  0
VERTEX
  8
0
 10
321.846771
 20
262.862915
  0
VERTEX
  8
0
 10
321.077423
 20
263.632263
  0
VERTEX
  8
0
 10
322.616119
 20
263.632263
  0
VERTEX
  8
0
 10
322.616119
 20
262.093567
  0
VERTEX
  8
0
 10
321.077423
 20
262.093567
  0
VERTEX
  8
0
 10
321.077423
 20
263.632263
  0
VERTEX
  8
0
 10
321.846771
 20
262.862915
  0
VERTEX
  8
0
 10
322.616119
 20
262.093567
  0
VERTEX
  8
0
 10
322.616119
 20
263.632263
  0
VERTEX
  8
0
 10
321.846771
 20
262.862915
  0
SEQEND
  0
POLYLINE
  8
0
 62
     5
 66
     1
 70
     2
  0
VERTEX
  8
0
 10
333.822571
 20
265.427429
  0
VERTEX
  8
0
 10
324.846771
 20
262.862915
  0
VERTEX
  8
0
 10
333.822571
 20
260.298401
  0
SEQEND
  0
TEXT
  8
0
 62
     7
 10
332.540314
 20
264.914520
 40
12.822581
 41
1.000000
  1
3
  7
KANJI
 50
0.000000
 51
0.000000
  0
LINE
  8
0
 62
     5
 10
337.233856
 20
423.991943
 11
286.459686
 21
423.991943
  0
POLYLINE
  8
0
 62
     5
 66
     1
 70
     2
  0
VERTEX
  8
0
 10
292.870972
 20
421.427429
  0
VERTEX
  8
0
 10
301.846771
 20
423.991943
  0
VERTEX
  8
0
 10
292.870972
 20
426.556458
  0
SEQEND
  0
POLYLINE
  8
0
 62
     5
 66
     1
 70
     2
  0
VERTEX
  8
0
 10
330.822571
 20
426.556458
  0
VERTEX
  8
0
 10
321.846771
 20
423.991943
  0
VERTEX
  8
0
 10
330.822571
 20
421.427429
  0
SEQEND
  0
LINE
  8
0
 62
     5
 10
321.846771
 20
404.395172
 11
321.846771
 21
427.838715
  0
TEXT
  8
0
 62
     7
 10
303.512085
 20
426.043549
 40
12.822581
 41
1.000000
  1
20
  7
KANJI
 50
0.000000
 51
0.000000
  0
LINE
  8
0
 62
     5
 10
301.846771
 20
444.508057
 11
341.846771
 21
444.508057
  0
POLYLINE
  8
0
 62
     5
 66
     1
 70
     2
  0
VERTEX
  8
0
 10
310.822571
 20
447.072571
  0
VERTEX
  8
0
 10
301.846771
 20
444.508057
  0
VERTEX
  8
0
 10
310.822571
 20
441.943542
  0
SEQEND
  0
POLYLINE
  8
0
 62
     5
 66
     1
 70
     2
  0
VERTEX
  8
0
 10
332.870972
 20
441.943542
  0
VERTEX
  8
0
 10
341.846771
 20
444.508057
  0
VERTEX
  8
0
 10
332.870972
 20
447.072571
  0
SEQEND
  0
LINE
  8
0
 62
     5
 10
301.846771
 20
380.395172
 11
301.846771
 21
448.354858
  0
LINE
  8
0
 62
     5
 10
341.846771
 20
380.395172
 11
341.846771
 21
448.354858
  0
TEXT
  8
0
 62
     7
 10
313.512085
 20
446.559692
 40
12.822581
 41
1.000000
  1
40
  7
KANJI
 50
0.000000
 51
0.000000
  0
ARC
  8
DASHDOT
 62
     7
 10
321.846771
 20
404.395172
 40
30.000000
 50
209.99999955470798
 51
330.000000445292
  0
ARC
  8
DASHDOT
 62
     7
 10
321.846771
 20
44.395172
 40
30.000000
 50
29.99999955470796
 51
150.00000044529205
  0
ARC
  8
0
 62
     4
 10
321.846771
 20
404.395172
 40
37.500000
 50
237.769053420128
 51
302.230946579872
  0
ARC
  8
0
 62
     4
 10
321.846771
 20
44.395172
 40
37.500000
 50
57.76905342012798
 51
122.23094657987203
  0
ARC
  8
0
 62
     4
 10
321.846771
 20
404.395172
 40
24.000000
 50
241.04497578042813
 51
298.95502421957184
  0
ARC
  8
0
 62
     4
 10
321.846771
 20
44.395172
 40
24.000000
 50
61.04497578042817
 51
118.95502421957184
  0
ARC
  8
0
 62
     4
 10
321.846771
 20
44.395172
 40
50.000000
 50
66.50143388969565
 51
86.56018663762767
  0
ARC
  8
0
 62
     4
 10
321.846771
 20
404.395172
 40
50.000000
 50
273.4398133623723
 51
293.4985661103043
  0
ARC
  8
0
 62
     4
 10
321.846771
 20
44.395172
 40
50.000000
 50
103.88653868098002
 51
113.49856611030434
  0
ARC
  8
0
 62
     4
 10
321.846771
 20
404.395172
 40
50.000000
 50
246.50143388969568
 51
256.11346131901996
  0
LINE
  8
DASHDOT
 62
     7
 10
301.846771
 20
224.395172
 11
349.540314
 21
224.395172
  0
LINE
  8
0
 62
     5
 10
321.846771
 20
380.395172
 11
341.846771
 21
380.395172
  0
LINE
  8
0
 62
     5
 10
324.846771
 20
349.395172
 11
341.846771
 21
349.395172
  0
LINE
  8
0
 62
     5
 10
324.846771
 20
99.395172
 11
341.846771
 21
99.395172
  0
LINE
  8
0
 62
     5
 10
321.846771
 20
380.395172
 11
321.846771
 21
404.395172
  0
LINE
  8
0
 62
     5
 10
321.846771
 20
68.395172
 11
341.846771
 21
68.395172
  0
LINE
  8
0
 62
     4
 10
324.846771
 20
354.485260
 11
324.846771
 21
94.305084
  0
LINE
  8
0
 62
     4
 10
309.846771
 20
355.856506
 11
309.846771
 21
92.933823
  0
POLYLINE
  8
0
 62
     4
 66
     1
 70
     2
  0
VERTEX
  8
0
 10
324.846771
 20
349.395172
  0
VERTEX
  8
0
 10
321.846771
 20
349.395172
  0
VERTEX
  8
0
 10
321.846771
 20
99.395172
  0
VERTEX
  8
0
 10
324.846771
 20
99.395172
  0
SEQEND
  0
POLYLINE
  8
0
 62
     4
 66
     1
 70
     2
  0
VERTEX
  8
0
 10
310.227814
 20
383.395172
  0
VERTEX
  8
0
 10
304.846771
 20
383.395172
  0
VERTEX
  8
0
 10
301.846771
 20
380.395172
  0
VERTEX
  8
0
 10
301.846771
 20
90.395172
  0
SEQEND
  0
POLYLINE
  8
0
 62
     4
 66
     1
 70
     2
  0
VERTEX
  8
0
 10
333.465729
 20
65.395172
  0
VERTEX
  8
0
 10
338.846771
 20
65.395172
  0
VERTEX
  8
0
 10
341.846771
 20
68.395172
  0
VERTEX
  8
0
 10
341.846771
 20
380.395172
  0
VERTEX
  8
0
 10
338.846771
 20
383.395172
  0
VERTEX
  8
0
 10
333.465729
 20
383.395172
  0
SEQEND
  0
POLYLINE
  8
0
 62
     4
 66
     1
 70
     2
  0
VERTEX
  8
0
 10
301.846771
 20
90.395172
  0
VERTEX
  8
0
 10
301.846771
 20
68.395172
  0
VERTEX
  8
0
 10
304.846771
 20
65.395172
  0
VERTEX
  8
0
 10
310.227814
 20
65.395172
  0
SEQEND
  0
LINE
  8
DASHDOT
 62
     7
 10
321.846771
 20
57.701630
 11
321.846771
 21
380.395172
  0
LINE
  8
0
 62
     4
 10
310.846771
 20
319.395172
 11
320.846771
 21
319.395172
  0
LINE
  8
0
 62
     4
 10
310.846771
 20
129.395172
 11
320.846771
 21
129.395172
  0
LINE
  8
0
 62
     5
 10
421.346771
 20
349.395172
 11
421.346771
 21
99.395172
  0
POLYLINE
  8
0
 62
     5
 66
     1
 70
     2
  0
VERTEX
  8
0
 10
423.911285
 20
340.419373
  0
VERTEX
  8
0
 10
421.346771
 20
349.395172
  0
VERTEX
  8
0
 10
418.782257
 20
340.419373
  0
SEQEND
  0
POLYLINE
  8
0
 62
     5
 66
     1
 70
     2
  0
VERTEX
  8
0
 10
418.782257
 20
108.370979
  0
VERTEX
  8
0
 10
421.346771
 20
99.395172
  0
VERTEX
  8
0
 10
423.911285
 20
108.370979
  0
SEQEND
  0
LINE
  8
0
 62
     5
 10
341.846771
 20
349.395172
 11
425.193542
 21
349.395172
  0
LINE
  8
0
 62
     5
 10
341.846771
 20
99.395172
 11
425.193542
 21
99.395172
  0
TEXT
  8
0
 62
     7
 10
418.782257
 20
205.161301
 40
12.822581
 41
1.000000
  1
%%c250
  7
KANJI
 50
90.000000
 51
0.000000
  0
LINE
  8
0
 62
     5
 10
400.830627
 20
319.395172
 11
400.830627
 21
129.395172
  0
POLYLINE
  8
0
 62
     5
 66
     1
 70
     2
  0
VERTEX
  8
0
 10
403.395142
 20
310.419373
  0
VERTEX
  8
0
 10
400.830627
 20
319.395172
  0
VERTEX
  8
0
 10
398.266113
 20
310.419373
  0
SEQEND
  0
POLYLINE
  8
0
 62
     5
 66
     1
 70
     2
  0
VERTEX
  8
0
 10
398.266113
 20
138.370972
  0
VERTEX
  8
0
 10
400.830627
 20
129.395172
  0
VERTEX
  8
0
 10
403.395142
 20
138.370972
  0
SEQEND
  0
LINE
  8
0
 62
     5
 10
321.846771
 20
319.395172
 11
404.677429
 21
319.395172
  0
LINE
  8
0
 62
     5
 10
321.846771
 20
129.395172
 11
404.677429
 21
129.395172
  0
TEXT
  8
0
 62
     7
 10
398.266113
 20
196.826630
 40
12.822581
 41
1.000000
  1
%%c190H8
  7
KANJI
 50
90.000000
 51
0.000000
  0
ENDSEC
  0
EOF
