  0
SECTION
  2
HEADER
  9
$ACADVER
  1
AC1003
  9
$INSBASE
 10
0.000000
 20
0.000000
  9
$EXTMIN
 10
0.000000
 20
0.000000
  9
$EXTMAX
 10
155.731343
 20
107.686567
  9
$LIMMIN
 10
0.000000
 20
0.000000
  9
$LIMMAX
 10
155.731343
 20
107.686567
  9
$VIEWCTR
 10
77.865672
 20
53.843284
  9
$VIEWSIZE
 40
107.686567
  0
ENDSEC
  0
SECTION
  2
TABLES
  0
TABLE
  2
LTYPE
 70
     4
  0
LTYPE
  2
CONTINUOUS
 70
    64
  3
SolidLine
 72
    65
 73
     0
 40
0.0
  0
LTYPE
  2
HIDDEN
 70
    64
  3
------------------------
 72
    65
 73
     2
 40
1.656716
 49
1.104478
 49
-0.552239
  0
LTYPE
  2
DASHDOT
 70
    64
  3
--?--?--?--?--?--?--?--
 72
    65
 73
     4
 40
6.626866
 49
4.970149
 49
-0.552239
 49
0.552239
 49
-0.552239
  0
LTYPE
  2
DIVIDE
 70
    64
  3
--??--??--??--??--??--
 72
    65
 73
     6
 40
8.283582
 49
5.522388
 49
-0.552239
 49
0.552239
 49
-0.552239
 49
0.552239
 49
-0.552239
  0
ENDTAB
  0
TABLE
  2
LAYER
 70
     5
  0
LAYER
  2
0
 70
    64
 62
     7
  6
CONTINUOUS
  0
LAYER
  2
HIDDEN
 70
    64
 62
     2
  6
HIDDEN
  0
LAYER
  2
DASHDOT
 70
    64
 62
     6
  6
DASHDOT
  0
LAYER
  2
DIVIDE
 70
    64
 62
     5
  6
DIVIDE
  0
ENDTAB
  0
TABLE
  2
STYLE
 70
     1
  0
STYLE
  2
STANDARD
 70
    64
 40
0.0
 41
1.0
 50
0.0
 71
     0
 42
0.2
  3
TXT
  4

  0
STYLE
  2
KANJI
 70
    64
 40
0.0
 41
1.0
 50
0.0
 71
     0
 42
0.2
  3
TXT
  4
BIGFONT
  0
ENDTAB
  0
TABLE
  2
VIEW
 70
     0
  0
ENDTAB
  0
ENDSEC
  0
SECTION
  2
BLOCKS
  0
ENDSEC
  0
SECTION
  2
ENTITIES
  0
TEXT
  8
0
 62
     7
 10
5.522388
 20
6.074627
 40
2.208955
 41
1.000000
  1
KHK BG0.5-60R1
  7
KANJI
 50
0.000000
 51
0.000000
  0
TEXT
  8
0
 62
     7
 10
5.522388
 20
2.761194
 40
2.208955
 41
1.000000
  1

  7
KANJI
 50
0.000000
 51
0.000000
  0
TEXT
  8
0
 62
     7
 10
5.522388
 20
99.402985
 40
2.485075
 41
1.000000
  1

  7
KANJI
 50
0.000000
 51
0.000000
  0
POLYLINE
  8
0
 62
     7
 66
     1
 70
     2
  0
VERTEX
  8
0
 10
132.537308
 20
99.402985
  0
VERTEX
  8
0
 10
130.383575
 20
103.136116
  0
VERTEX
  8
0
 10
138.998505
 20
103.136116
  0
VERTEX
  8
0
 10
136.844772
 20
99.402985
  0
VERTEX
  8
0
 10
134.691040
 20
103.136116
  0
VERTEX
  8
0
 10
132.537308
 20
99.402985
  0
SEQEND
  0
LINE
  8
DASHDOT
 62
     7
 10
38.104473
 20
63.298508
 11
39.791042
 21
63.298508
  0
LINE
  8
DASHDOT
 62
     7
 10
38.947758
 20
64.955223
 11
38.947758
 21
25.641790
  0
LINE
  8
0
 62
     5
 10
73.850739
 20
58.298508
 11
73.850739
 21
27.298508
  0
POLYLINE
  8
0
 62
     5
 66
     1
 70
     2
  0
VERTEX
  8
0
 10
74.402985
 20
56.365673
  0
VERTEX
  8
0
 10
73.850739
 20
58.298508
  0
VERTEX
  8
0
 10
73.298508
 20
56.365673
  0
SEQEND
  0
POLYLINE
  8
0
 62
     5
 66
     1
 70
     2
  0
VERTEX
  8
0
 10
73.298508
 20
29.231342
  0
VERTEX
  8
0
 10
73.850739
 20
27.298508
  0
VERTEX
  8
0
 10
74.402985
 20
29.231342
  0
SEQEND
  0
LINE
  8
0
 62
     5
 10
48.447758
 20
58.298508
 11
74.679100
 21
58.298508
  0
LINE
  8
0
 62
     5
 10
48.447758
 20
27.298508
 11
74.679100
 21
27.298508
  0
TEXT
  8
0
 62
     7
 10
73.298508
 20
39.554104
 40
2.761194
 41
1.000000
  1
%%c31
  7
KANJI
 50
90.000000
 51
0.000000
  0
LINE
  8
0
 62
     5
 10
20.985071
 20
42.798508
 11
20.985071
 21
63.298508
  0
POLYLINE
  8
0
 62
     5
 66
     1
 70
     2
  0
VERTEX
  8
0
 10
20.432833
 20
44.731342
  0
VERTEX
  8
0
 10
20.985071
 20
42.798508
  0
VERTEX
  8
0
 10
21.537310
 20
44.731342
  0
SEQEND
  0
POLYLINE
  8
0
 62
     5
 66
     1
 70
     2
  0
VERTEX
  8
0
 10
21.537310
 20
61.365669
  0
VERTEX
  8
0
 10
20.985071
 20
63.298508
  0
VERTEX
  8
0
 10
20.432833
 20
61.365669
  0
SEQEND
  0
LINE
  8
0
 62
     5
 10
36.447758
 20
42.798508
 11
20.156713
 21
42.798508
  0
LINE
  8
0
 62
     5
 10
38.104473
 20
63.298508
 11
20.156712
 21
63.298508
  0
TEXT
  8
0
 62
     7
 10
19.880594
 20
48.906715
 40
2.761194
 41
1.000000
  1
20.5
  7
KANJI
 50
90.000000
 51
0.000000
  0
LINE
  8
0
 62
     5
 10
41.447758
 20
77.074631
 11
48.447758
 21
77.074631
  0
POLYLINE
  8
0
 62
     5
 66
     1
 70
     2
  0
VERTEX
  8
0
 10
43.380592
 20
77.626862
  0
VERTEX
  8
0
 10
41.447758
 20
77.074631
  0
VERTEX
  8
0
 10
43.380592
 20
76.522385
  0
SEQEND
  0
POLYLINE
  8
0
 62
     5
 66
     1
 70
     2
  0
VERTEX
  8
0
 10
46.514923
 20
76.522385
  0
VERTEX
  8
0
 10
48.447758
 20
77.074631
  0
VERTEX
  8
0
 10
46.514923
 20
77.626862
  0
SEQEND
  0
LINE
  8
0
 62
     5
 10
41.447758
 20
58.298508
 11
41.447758
 21
77.902985
  0
TEXT
  8
0
 62
     7
 10
44.050369
 20
77.516418
 40
2.761194
 41
1.000000
  1
7
  7
KANJI
 50
0.000000
 51
0.000000
  0
LINE
  8
0
 62
     5
 10
42.261192
 20
72.656715
 11
33.134323
 21
72.656715
  0
POLYLINE
  8
0
 62
     5
 66
     1
 70
     2
  0
VERTEX
  8
0
 10
34.514923
 20
72.104477
  0
VERTEX
  8
0
 10
36.447758
 20
72.656715
  0
VERTEX
  8
0
 10
34.514923
 20
73.208954
  0
SEQEND
  0
POLYLINE
  8
0
 62
     5
 66
     1
 70
     2
  0
VERTEX
  8
0
 10
40.880592
 20
73.208954
  0
VERTEX
  8
0
 10
38.947758
 20
72.656715
  0
VERTEX
  8
0
 10
40.880592
 20
72.104477
  0
SEQEND
  0
LINE
  8
0
 62
     5
 10
38.947758
 20
58.298508
 11
38.947758
 21
73.485077
  0
TEXT
  8
0
 62
     7
 10
35.005592
 20
73.098511
 40
2.761194
 41
1.000000
  1
2.5
  7
KANJI
 50
0.000000
 51
0.000000
  0
ARC
  8
DASHDOT
 62
     7
 10
38.947758
 20
63.298508
 40
5.485000
 50
220.00000048542023
 51
319.99999951457977
  0
ARC
  8
DASHDOT
 62
     7
 10
38.947758
 20
22.298508
 40
5.485000
 50
40.00000048542023
 51
139.99999951457977
  0
ARC
  8
0
 62
     4
 10
38.947758
 20
63.298508
 40
6.125000
 50
245.91049330447646
 51
294.08950669552354
  0
ARC
  8
0
 62
     4
 10
38.947758
 20
22.298508
 40
6.125000
 50
65.91049330447645
 51
114.08950669552355
  0
LINE
  8
DASHDOT
 62
     7
 10
36.447758
 20
42.798508
 11
50.104473
 21
42.798508
  0
LINE
  8
0
 62
     5
 10
41.447758
 20
57.998508
 11
41.447758
 21
58.298508
  0
LINE
  8
0
 62
     5
 10
36.447758
 20
57.998508
 11
36.447758
 21
58.298508
  0
LINE
  8
0
 62
     5
 10
48.447758
 20
54.998508
 11
48.447758
 21
58.298508
  0
LINE
  8
0
 62
     5
 10
41.447758
 20
55.298508
 11
48.447758
 21
55.298508
  0
LINE
  8
0
 62
     5
 10
41.447758
 20
30.298508
 11
48.447758
 21
30.298508
  0
LINE
  8
0
 62
     5
 10
41.147758
 20
58.298508
 11
48.447758
 21
58.298508
  0
LINE
  8
0
 62
     5
 10
41.147758
 20
27.298508
 11
48.447758
 21
27.298508
  0
LINE
  8
0
 62
     4
 10
48.447758
 20
45.598507
 11
48.147758
 21
45.298508
  0
LINE
  8
0
 62
     4
 10
48.447758
 20
39.998508
 11
48.147758
 21
40.298508
  0
LINE
  8
0
 62
     4
 10
36.447758
 20
39.998508
 11
36.747757
 21
40.298508
  0
POLYLINE
  8
0
 62
     4
 66
     1
 70
     2
  0
VERTEX
  8
0
 10
38.947758
 20
58.298508
  0
VERTEX
  8
0
 10
36.747757
 20
58.298508
  0
VERTEX
  8
0
 10
36.447758
 20
57.998508
  0
VERTEX
  8
0
 10
36.447758
 20
39.998508
  0
SEQEND
  0
POLYLINE
  8
0
 62
     4
 66
     1
 70
     2
  0
VERTEX
  8
0
 10
36.447758
 20
39.998508
  0
VERTEX
  8
0
 10
36.447758
 20
27.598507
  0
VERTEX
  8
0
 10
36.747757
 20
27.298508
  0
VERTEX
  8
0
 10
38.947758
 20
27.298508
  0
SEQEND
  0
POLYLINE
  8
0
 62
     4
 66
     1
 70
     2
  0
VERTEX
  8
0
 10
36.447758
 20
45.598507
  0
VERTEX
  8
0
 10
36.747757
 20
45.298508
  0
VERTEX
  8
0
 10
36.747757
 20
40.298508
  0
VERTEX
  8
0
 10
48.147758
 20
40.298508
  0
VERTEX
  8
0
 10
48.147758
 20
45.298508
  0
VERTEX
  8
0
 10
36.747757
 20
45.298508
  0
SEQEND
  0
LINE
  8
0
 62
     5
 10
36.447758
 20
81.492538
 11
48.447758
 21
81.492538
  0
POLYLINE
  8
0
 62
     5
 66
     1
 70
     2
  0
VERTEX
  8
0
 10
38.380592
 20
82.044777
  0
VERTEX
  8
0
 10
36.447758
 20
81.492538
  0
VERTEX
  8
0
 10
38.380592
 20
80.940300
  0
SEQEND
  0
POLYLINE
  8
0
 62
     5
 66
     1
 70
     2
  0
VERTEX
  8
0
 10
46.514923
 20
80.940300
  0
VERTEX
  8
0
 10
48.447758
 20
81.492538
  0
VERTEX
  8
0
 10
46.514923
 20
82.044777
  0
SEQEND
  0
LINE
  8
0
 62
     5
 10
36.447758
 20
58.298508
 11
36.447758
 21
82.320892
  0
LINE
  8
0
 62
     5
 10
48.447758
 20
58.298508
 11
48.447758
 21
82.320892
  0
TEXT
  8
0
 62
     7
 10
40.652981
 20
81.934326
 40
2.761194
 41
1.000000
  1
12
  7
KANJI
 50
0.000000
 51
0.000000
  0
LINE
  8
0
 62
     5
 10
36.447758
 20
77.074631
 11
41.447758
 21
77.074631
  0
POLYLINE
  8
0
 62
     5
 66
     1
 70
     2
  0
VERTEX
  8
0
 10
38.380592
 20
77.626862
  0
VERTEX
  8
0
 10
36.447758
 20
77.074631
  0
VERTEX
  8
0
 10
38.380592
 20
76.522385
  0
SEQEND
  0
POLYLINE
  8
0
 62
     5
 66
     1
 70
     2
  0
VERTEX
  8
0
 10
39.514923
 20
76.522385
  0
VERTEX
  8
0
 10
41.447758
 20
77.074631
  0
VERTEX
  8
0
 10
39.514923
 20
77.626862
  0
SEQEND
  0
TEXT
  8
0
 62
     7
 10
38.050369
 20
77.516418
 40
2.761194
 41
1.000000
  1
5
  7
KANJI
 50
0.000000
 51
0.000000
  0
LINE
  8
0
 62
     5
 10
69.432831
 20
55.298508
 11
69.432831
 21
30.298508
  0
POLYLINE
  8
0
 62
     5
 66
     1
 70
     2
  0
VERTEX
  8
0
 10
69.985077
 20
53.365673
  0
VERTEX
  8
0
 10
69.432831
 20
55.298508
  0
VERTEX
  8
0
 10
68.880600
 20
53.365673
  0
SEQEND
  0
POLYLINE
  8
0
 62
     5
 66
     1
 70
     2
  0
VERTEX
  8
0
 10
68.880600
 20
32.231342
  0
VERTEX
  8
0
 10
69.432831
 20
30.298508
  0
VERTEX
  8
0
 10
69.985077
 20
32.231342
  0
SEQEND
  0
LINE
  8
0
 62
     5
 10
48.447758
 20
55.298508
 11
70.261192
 21
55.298508
  0
LINE
  8
0
 62
     5
 10
48.447758
 20
30.298508
 11
70.261192
 21
30.298508
  0
TEXT
  8
0
 62
     7
 10
68.880600
 20
39.554104
 40
2.761194
 41
1.000000
  1
%%c25
  7
KANJI
 50
90.000000
 51
0.000000
  0
POLYLINE
  8
DASHDOT
 62
     7
 66
     1
 70
     2
  0
VERTEX
  8
DASHDOT
 10
44.947758
 20
56.955223
  0
VERTEX
  8
DASHDOT
 10
44.947758
 20
43.641792
  0
SEQEND
  0
POLYLINE
  8
0
 62
     4
 66
     1
 70
     2
  0
VERTEX
  8
0
 10
46.947758
 20
55.298508
  0
VERTEX
  8
0
 10
46.947758
 20
45.298508
  0
SEQEND
  0
POLYLINE
  8
0
 62
     4
 66
     1
 70
     2
  0
VERTEX
  8
0
 10
42.947758
 20
55.298508
  0
VERTEX
  8
0
 10
42.947758
 20
45.298508
  0
SEQEND
  0
POLYLINE
  8
0
 62
     4
 66
     1
 70
     2
  0
VERTEX
  8
0
 10
46.567757
 20
55.298508
  0
VERTEX
  8
0
 10
46.567757
 20
45.298508
  0
SEQEND
  0
POLYLINE
  8
0
 62
     4
 66
     1
 70
     2
  0
VERTEX
  8
0
 10
43.327759
 20
55.298508
  0
VERTEX
  8
0
 10
43.327759
 20
45.298508
  0
SEQEND
  0
POLYLINE
  8
0
 62
     5
 66
     1
 70
     2
  0
VERTEX
  8
0
 10
102.365662
 20
55.298508
  0
VERTEX
  8
0
 10
92.425369
 20
71.865669
  0
VERTEX
  8
0
 10
98.500000
 20
71.865669
  0
SEQEND
  0
POLYLINE
  8
0
 62
     5
 66
     1
 70
     2
  0
VERTEX
  8
0
 10
100.897690
 20
56.671776
  0
VERTEX
  8
0
 10
102.365662
 20
55.298508
  0
VERTEX
  8
0
 10
101.844772
 20
57.240025
  0
SEQEND
  0
TEXT
  8
0
 62
     7
 10
92.977608
 20
72.417908
 40
2.650746
 41
1.000000
  1
M4
  7
KANJI
 50
0.000000
 51
0.000000
  0
POLYLINE
  8
0
 62
     4
 66
     1
 70
     2
  0
VERTEX
  8
0
 10
100.365662
 20
44.298508
  0
VERTEX
  8
0
 10
100.365662
 20
55.137470
  0
SEQEND
  0
POLYLINE
  8
0
 62
     4
 66
     1
 70
     2
  0
VERTEX
  8
0
 10
104.365662
 20
44.298508
  0
VERTEX
  8
0
 10
104.365662
 20
55.137470
  0
SEQEND
  0
POLYLINE
  8
0
 62
     4
 66
     1
 70
     2
  0
VERTEX
  8
0
 10
100.745667
 20
44.702610
  0
VERTEX
  8
0
 10
100.745667
 20
55.193089
  0
SEQEND
  0
POLYLINE
  8
0
 62
     4
 66
     1
 70
     2
  0
VERTEX
  8
0
 10
103.985672
 20
44.702610
  0
VERTEX
  8
0
 10
103.985672
 20
55.193089
  0
SEQEND
  0
LINE
  8
0
 62
     5
 10
60.597012
 20
36.985077
 11
60.597012
 21
48.611938
  0
POLYLINE
  8
0
 62
     5
 66
     1
 70
     2
  0
VERTEX
  8
0
 10
60.044773
 20
47.231342
  0
VERTEX
  8
0
 10
60.597012
 20
45.298508
  0
VERTEX
  8
0
 10
61.149250
 20
47.231342
  0
SEQEND
  0
POLYLINE
  8
0
 62
     5
 66
     1
 70
     2
  0
VERTEX
  8
0
 10
61.149250
 20
38.365673
  0
VERTEX
  8
0
 10
60.597012
 20
40.298508
  0
VERTEX
  8
0
 10
60.044773
 20
38.365673
  0
SEQEND
  0
LINE
  8
0
 62
     5
 10
48.447758
 20
45.298508
 11
61.425369
 21
45.298508
  0
LINE
  8
0
 62
     5
 10
48.447758
 20
40.298508
 11
61.425369
 21
40.298508
  0
TEXT
  8
0
 62
     7
 10
60.044773
 20
38.656715
 40
2.761194
 41
1.000000
  1
%%c5H7
  7
KANJI
 50
90.000000
 51
0.000000
  0
POLYLINE
  8
0
 62
     4
 66
     1
 70
     2
  0
VERTEX
  8
0
 10
38.947758
 20
27.298508
  0
VERTEX
  8
0
 10
41.147758
 20
27.298508
  0
VERTEX
  8
0
 10
41.447758
 20
27.598507
  0
VERTEX
  8
0
 10
41.447758
 20
30.298508
  0
SEQEND
  0
POLYLINE
  8
0
 62
     4
 66
     1
 70
     2
  0
VERTEX
  8
0
 10
41.447758
 20
55.298508
  0
VERTEX
  8
0
 10
41.447758
 20
57.998508
  0
VERTEX
  8
0
 10
41.147758
 20
58.298508
  0
VERTEX
  8
0
 10
38.947758
 20
58.298508
  0
SEQEND
  0
POLYLINE
  8
0
 62
     4
 66
     1
 70
     2
  0
VERTEX
  8
0
 10
41.447758
 20
30.298508
  0
VERTEX
  8
0
 10
48.147758
 20
30.298508
  0
VERTEX
  8
0
 10
48.447758
 20
30.598507
  0
VERTEX
  8
0
 10
48.447758
 20
54.998508
  0
VERTEX
  8
0
 10
48.147758
 20
55.298508
  0
VERTEX
  8
0
 10
41.447758
 20
55.298508
  0
SEQEND
  0
CIRCLE
  8
0
 62
     4
 10
102.365662
 20
42.798508
 40
2.500000
  0
LINE
  8
DASHDOT
 62
     7
 10
102.365662
 20
58.059700
 11
102.365662
 21
28.641792
  0
LINE
  8
DASHDOT
 62
     7
 10
88.208954
 20
42.798508
 11
116.522385
 21
42.798508
  0
CIRCLE
  8
0
 62
     4
 10
102.365662
 20
42.798508
 40
12.500000
  0
LINE
  8
0
 62
     5
 10
51.761192
 20
68.238808
 11
41.634323
 21
68.238808
  0
POLYLINE
  8
0
 62
     5
 66
     1
 70
     2
  0
VERTEX
  8
0
 10
43.014923
 20
67.686569
  0
VERTEX
  8
0
 10
44.947758
 20
68.238808
  0
VERTEX
  8
0
 10
43.014923
 20
68.791046
  0
SEQEND
  0
POLYLINE
  8
0
 62
     5
 66
     1
 70
     2
  0
VERTEX
  8
0
 10
50.380592
 20
68.791046
  0
VERTEX
  8
0
 10
48.447758
 20
68.238808
  0
VERTEX
  8
0
 10
50.380592
 20
67.686569
  0
SEQEND
  0
LINE
  8
0
 62
     5
 10
44.947758
 20
58.298508
 11
44.947758
 21
69.067162
  0
TEXT
  8
0
 62
     7
 10
44.005592
 20
68.680595
 40
2.761194
 41
1.000000
  1
3.5
  7
KANJI
 50
0.000000
 51
0.000000
  0
LINE
  8
0
 62
     5
 10
44.947758
 20
55.298508
 11
44.947758
 21
58.298508
  0
ENDSEC
  0
EOF
