  0
SECTION
  2
HEADER
  9
$ACADVER
  1
AC1003
  9
$INSBASE
 10
0.000000
 20
0.000000
  9
$EXTMIN
 10
0.000000
 20
0.000000
  9
$EXTMAX
 10
101.014925
 20
69.850746
  9
$LIMMIN
 10
0.000000
 20
0.000000
  9
$LIMMAX
 10
101.014925
 20
69.850746
  9
$VIEWCTR
 10
50.507463
 20
34.925373
  9
$VIEWSIZE
 40
69.850746
  0
ENDSEC
  0
SECTION
  2
TABLES
  0
TABLE
  2
LTYPE
 70
     4
  0
LTYPE
  2
CONTINUOUS
 70
    64
  3
SolidLine
 72
    65
 73
     0
 40
0.0
  0
LTYPE
  2
HIDDEN
 70
    64
  3
------------------------
 72
    65
 73
     2
 40
1.074627
 49
0.716418
 49
-0.358209
  0
LTYPE
  2
DASHDOT
 70
    64
  3
--?--?--?--?--?--?--?--
 72
    65
 73
     4
 40
4.298507
 49
3.223881
 49
-0.358209
 49
0.358209
 49
-0.358209
  0
LTYPE
  2
DIVIDE
 70
    64
  3
--??--??--??--??--??--
 72
    65
 73
     6
 40
5.373134
 49
3.582090
 49
-0.358209
 49
0.358209
 49
-0.358209
 49
0.358209
 49
-0.358209
  0
ENDTAB
  0
TABLE
  2
LAYER
 70
     5
  0
LAYER
  2
0
 70
    64
 62
     7
  6
CONTINUOUS
  0
LAYER
  2
HIDDEN
 70
    64
 62
     2
  6
HIDDEN
  0
LAYER
  2
DASHDOT
 70
    64
 62
     6
  6
DASHDOT
  0
LAYER
  2
DIVIDE
 70
    64
 62
     5
  6
DIVIDE
  0
ENDTAB
  0
TABLE
  2
STYLE
 70
     1
  0
STYLE
  2
STANDARD
 70
    64
 40
0.0
 41
1.0
 50
0.0
 71
     0
 42
0.2
  3
TXT
  4

  0
STYLE
  2
KANJI
 70
    64
 40
0.0
 41
1.0
 50
0.0
 71
     0
 42
0.2
  3
TXT
  4
BIGFONT
  0
ENDTAB
  0
TABLE
  2
VIEW
 70
     0
  0
ENDTAB
  0
ENDSEC
  0
SECTION
  2
BLOCKS
  0
ENDSEC
  0
SECTION
  2
ENTITIES
  0
TEXT
  8
0
 62
     7
 10
3.582090
 20
3.940299
 40
1.432836
 41
1.000000
  1
KHK BG0.5-30R1
  7
KANJI
 50
0.000000
 51
0.000000
  0
TEXT
  8
0
 62
     7
 10
3.582090
 20
1.791045
 40
1.432836
 41
1.000000
  1

  7
KANJI
 50
0.000000
 51
0.000000
  0
TEXT
  8
0
 62
     7
 10
3.582090
 20
64.477615
 40
1.611940
 41
1.000000
  1

  7
KANJI
 50
0.000000
 51
0.000000
  0
POLYLINE
  8
0
 62
     7
 66
     1
 70
     2
  0
VERTEX
  8
0
 10
85.970146
 20
64.477615
  0
VERTEX
  8
0
 10
84.573128
 20
66.899109
  0
VERTEX
  8
0
 10
90.161194
 20
66.899109
  0
VERTEX
  8
0
 10
88.764175
 20
64.477615
  0
VERTEX
  8
0
 10
87.367165
 20
66.899109
  0
VERTEX
  8
0
 10
85.970146
 20
64.477615
  0
SEQEND
  0
LINE
  8
DASHDOT
 62
     7
 10
24.716417
 20
40.761192
 11
27.567163
 21
40.761192
  0
LINE
  8
DASHDOT
 62
     7
 10
26.141790
 20
41.835823
 11
26.141790
 21
18.686567
  0
LINE
  8
0
 62
     5
 10
52.119400
 20
35.761192
 11
52.119400
 21
19.761194
  0
POLYLINE
  8
0
 62
     5
 66
     1
 70
     2
  0
VERTEX
  8
0
 10
52.477612
 20
34.507462
  0
VERTEX
  8
0
 10
52.119400
 20
35.761192
  0
VERTEX
  8
0
 10
51.761192
 20
34.507462
  0
SEQEND
  0
POLYLINE
  8
0
 62
     5
 66
     1
 70
     2
  0
VERTEX
  8
0
 10
51.761192
 20
21.014925
  0
VERTEX
  8
0
 10
52.119400
 20
19.761194
  0
VERTEX
  8
0
 10
52.477612
 20
21.014925
  0
SEQEND
  0
LINE
  8
0
 62
     5
 10
35.641792
 20
35.761192
 11
52.656715
 21
35.761192
  0
LINE
  8
0
 62
     5
 10
35.641792
 20
19.761194
 11
52.656715
 21
19.761194
  0
TEXT
  8
0
 62
     7
 10
51.761192
 20
25.656715
 40
1.791045
 41
1.000000
  1
%%c16
  7
KANJI
 50
90.000000
 51
0.000000
  0
LINE
  8
0
 62
     5
 10
13.611939
 20
27.761194
 11
13.611939
 21
40.761192
  0
POLYLINE
  8
0
 62
     5
 66
     1
 70
     2
  0
VERTEX
  8
0
 10
13.253731
 20
29.014925
  0
VERTEX
  8
0
 10
13.611939
 20
27.761194
  0
VERTEX
  8
0
 10
13.970148
 20
29.014925
  0
SEQEND
  0
POLYLINE
  8
0
 62
     5
 66
     1
 70
     2
  0
VERTEX
  8
0
 10
13.970148
 20
39.507462
  0
VERTEX
  8
0
 10
13.611939
 20
40.761192
  0
VERTEX
  8
0
 10
13.253731
 20
39.507462
  0
SEQEND
  0
LINE
  8
0
 62
     5
 10
23.641790
 20
27.761194
 11
13.074626
 21
27.761194
  0
LINE
  8
0
 62
     5
 10
24.716417
 20
40.761192
 11
13.074626
 21
40.761192
  0
TEXT
  8
0
 62
     7
 10
12.895521
 20
32.738808
 40
1.791045
 41
1.000000
  1
13
  7
KANJI
 50
90.000000
 51
0.000000
  0
LINE
  8
0
 62
     5
 10
28.641790
 20
47.940300
 11
35.641792
 21
47.940300
  0
POLYLINE
  8
0
 62
     5
 66
     1
 70
     2
  0
VERTEX
  8
0
 10
29.895521
 20
48.298508
  0
VERTEX
  8
0
 10
28.641790
 20
47.940300
  0
VERTEX
  8
0
 10
29.895521
 20
47.582088
  0
SEQEND
  0
POLYLINE
  8
0
 62
     5
 66
     1
 70
     2
  0
VERTEX
  8
0
 10
34.388058
 20
47.582088
  0
VERTEX
  8
0
 10
35.641792
 20
47.940300
  0
VERTEX
  8
0
 10
34.388058
 20
48.298508
  0
SEQEND
  0
LINE
  8
0
 62
     5
 10
28.641790
 20
35.761192
 11
28.641790
 21
48.477612
  0
TEXT
  8
0
 62
     7
 10
31.559700
 20
48.226868
 40
1.791045
 41
1.000000
  1
7
  7
KANJI
 50
0.000000
 51
0.000000
  0
LINE
  8
0
 62
     5
 10
28.291044
 20
45.074627
 11
21.492537
 21
45.074627
  0
POLYLINE
  8
0
 62
     5
 66
     1
 70
     2
  0
VERTEX
  8
0
 10
22.388060
 20
44.716415
  0
VERTEX
  8
0
 10
23.641790
 20
45.074627
  0
VERTEX
  8
0
 10
22.388060
 20
45.432838
  0
SEQEND
  0
POLYLINE
  8
0
 62
     5
 66
     1
 70
     2
  0
VERTEX
  8
0
 10
27.395521
 20
45.432838
  0
VERTEX
  8
0
 10
26.141790
 20
45.074627
  0
VERTEX
  8
0
 10
27.395521
 20
44.716415
  0
SEQEND
  0
LINE
  8
0
 62
     5
 10
26.141790
 20
35.761192
 11
26.141790
 21
45.611938
  0
TEXT
  8
0
 62
     7
 10
23.145521
 20
45.361195
 40
1.791045
 41
1.000000
  1
2.5
  7
KANJI
 50
0.000000
 51
0.000000
  0
ARC
  8
DASHDOT
 62
     7
 10
26.141790
 20
40.761192
 40
5.490000
 50
220.00000048542023
 51
319.99999951457977
  0
ARC
  8
DASHDOT
 62
     7
 10
26.141790
 20
14.761194
 40
5.490000
 50
40.00000048542023
 51
139.99999951457977
  0
ARC
  8
0
 62
     4
 10
26.141790
 20
40.761192
 40
6.125000
 50
245.91049558025782
 51
294.0895044197422
  0
ARC
  8
0
 62
     4
 10
26.141790
 20
14.761194
 40
6.125000
 50
65.91049558025782
 51
114.08950441974218
  0
LINE
  8
DASHDOT
 62
     7
 10
23.641790
 20
27.761194
 11
36.716415
 21
27.761194
  0
LINE
  8
0
 62
     5
 10
28.641790
 20
35.461193
 11
28.641790
 21
35.761192
  0
LINE
  8
0
 62
     5
 10
23.641790
 20
35.461193
 11
23.641790
 21
35.761192
  0
LINE
  8
0
 62
     5
 10
35.641792
 20
33.461193
 11
35.641792
 21
35.761192
  0
LINE
  8
0
 62
     5
 10
28.641790
 20
33.761192
 11
35.641792
 21
33.761192
  0
LINE
  8
0
 62
     5
 10
28.641790
 20
21.761194
 11
35.641792
 21
21.761194
  0
LINE
  8
0
 62
     5
 10
28.341789
 20
35.761192
 11
35.641792
 21
35.761192
  0
LINE
  8
0
 62
     5
 10
28.341789
 20
19.761194
 11
35.641792
 21
19.761194
  0
LINE
  8
0
 62
     4
 10
35.641792
 20
30.061193
 11
35.341789
 21
29.761194
  0
LINE
  8
0
 62
     4
 10
35.641792
 20
25.461195
 11
35.341789
 21
25.761194
  0
LINE
  8
0
 62
     4
 10
23.641790
 20
25.461195
 11
23.941790
 21
25.761194
  0
POLYLINE
  8
0
 62
     4
 66
     1
 70
     2
  0
VERTEX
  8
0
 10
26.141790
 20
35.761192
  0
VERTEX
  8
0
 10
23.941790
 20
35.761192
  0
VERTEX
  8
0
 10
23.641790
 20
35.461193
  0
VERTEX
  8
0
 10
23.641790
 20
25.461195
  0
SEQEND
  0
POLYLINE
  8
0
 62
     4
 66
     1
 70
     2
  0
VERTEX
  8
0
 10
23.641790
 20
25.461195
  0
VERTEX
  8
0
 10
23.641790
 20
20.061195
  0
VERTEX
  8
0
 10
23.941790
 20
19.761194
  0
VERTEX
  8
0
 10
26.141790
 20
19.761194
  0
SEQEND
  0
POLYLINE
  8
0
 62
     4
 66
     1
 70
     2
  0
VERTEX
  8
0
 10
23.641790
 20
30.061193
  0
VERTEX
  8
0
 10
23.941790
 20
29.761194
  0
VERTEX
  8
0
 10
23.941790
 20
25.761194
  0
VERTEX
  8
0
 10
35.341789
 20
25.761194
  0
VERTEX
  8
0
 10
35.341789
 20
29.761194
  0
VERTEX
  8
0
 10
23.941790
 20
29.761194
  0
SEQEND
  0
LINE
  8
0
 62
     5
 10
23.641790
 20
50.805969
 11
35.641792
 21
50.805969
  0
POLYLINE
  8
0
 62
     5
 66
     1
 70
     2
  0
VERTEX
  8
0
 10
24.895521
 20
51.164181
  0
VERTEX
  8
0
 10
23.641790
 20
50.805969
  0
VERTEX
  8
0
 10
24.895521
 20
50.447762
  0
SEQEND
  0
POLYLINE
  8
0
 62
     5
 66
     1
 70
     2
  0
VERTEX
  8
0
 10
34.388058
 20
50.447762
  0
VERTEX
  8
0
 10
35.641792
 20
50.805969
  0
VERTEX
  8
0
 10
34.388058
 20
51.164181
  0
SEQEND
  0
LINE
  8
0
 62
     5
 10
23.641790
 20
35.761192
 11
23.641790
 21
51.343285
  0
LINE
  8
0
 62
     5
 10
35.641792
 20
35.761192
 11
35.641792
 21
51.343285
  0
TEXT
  8
0
 62
     7
 10
28.477612
 20
51.092537
 40
1.791045
 41
1.000000
  1
12
  7
KANJI
 50
0.000000
 51
0.000000
  0
LINE
  8
0
 62
     5
 10
23.641790
 20
47.940300
 11
28.641790
 21
47.940300
  0
POLYLINE
  8
0
 62
     5
 66
     1
 70
     2
  0
VERTEX
  8
0
 10
24.895521
 20
48.298508
  0
VERTEX
  8
0
 10
23.641790
 20
47.940300
  0
VERTEX
  8
0
 10
24.895521
 20
47.582088
  0
SEQEND
  0
POLYLINE
  8
0
 62
     5
 66
     1
 70
     2
  0
VERTEX
  8
0
 10
27.388060
 20
47.582088
  0
VERTEX
  8
0
 10
28.641790
 20
47.940300
  0
VERTEX
  8
0
 10
27.388060
 20
48.298508
  0
SEQEND
  0
TEXT
  8
0
 62
     7
 10
25.559700
 20
48.226868
 40
1.791045
 41
1.000000
  1
5
  7
KANJI
 50
0.000000
 51
0.000000
  0
LINE
  8
0
 62
     5
 10
49.253731
 20
33.761192
 11
49.253731
 21
21.761194
  0
POLYLINE
  8
0
 62
     5
 66
     1
 70
     2
  0
VERTEX
  8
0
 10
49.611938
 20
32.507462
  0
VERTEX
  8
0
 10
49.253731
 20
33.761192
  0
VERTEX
  8
0
 10
48.895523
 20
32.507462
  0
SEQEND
  0
POLYLINE
  8
0
 62
     5
 66
     1
 70
     2
  0
VERTEX
  8
0
 10
48.895523
 20
23.014925
  0
VERTEX
  8
0
 10
49.253731
 20
21.761194
  0
VERTEX
  8
0
 10
49.611938
 20
23.014925
  0
SEQEND
  0
LINE
  8
0
 62
     5
 10
35.641792
 20
33.761192
 11
49.791046
 21
33.761192
  0
LINE
  8
0
 62
     5
 10
35.641792
 20
21.761194
 11
49.791046
 21
21.761194
  0
TEXT
  8
0
 62
     7
 10
48.895523
 20
25.656715
 40
1.791045
 41
1.000000
  1
%%c12
  7
KANJI
 50
90.000000
 51
0.000000
  0
POLYLINE
  8
DASHDOT
 62
     7
 66
     1
 70
     2
  0
VERTEX
  8
DASHDOT
 10
32.141792
 20
34.835823
  0
VERTEX
  8
DASHDOT
 10
32.141792
 20
28.686567
  0
SEQEND
  0
POLYLINE
  8
0
 62
     4
 66
     1
 70
     2
  0
VERTEX
  8
0
 10
33.641792
 20
33.761192
  0
VERTEX
  8
0
 10
33.641792
 20
29.761194
  0
SEQEND
  0
POLYLINE
  8
0
 62
     4
 66
     1
 70
     2
  0
VERTEX
  8
0
 10
30.641790
 20
33.761192
  0
VERTEX
  8
0
 10
30.641790
 20
29.761194
  0
SEQEND
  0
POLYLINE
  8
0
 62
     4
 66
     1
 70
     2
  0
VERTEX
  8
0
 10
33.371788
 20
33.761192
  0
VERTEX
  8
0
 10
33.371788
 20
29.761194
  0
SEQEND
  0
POLYLINE
  8
0
 62
     4
 66
     1
 70
     2
  0
VERTEX
  8
0
 10
30.911791
 20
33.761192
  0
VERTEX
  8
0
 10
30.911791
 20
29.761194
  0
SEQEND
  0
POLYLINE
  8
0
 62
     5
 66
     1
 70
     2
  0
VERTEX
  8
0
 10
68.507462
 20
33.761192
  0
VERTEX
  8
0
 10
62.059700
 20
44.507462
  0
VERTEX
  8
0
 10
66.000000
 20
44.507462
  0
SEQEND
  0
POLYLINE
  8
0
 62
     5
 66
     1
 70
     2
  0
VERTEX
  8
0
 10
67.555260
 20
34.651962
  0
VERTEX
  8
0
 10
68.507462
 20
33.761192
  0
VERTEX
  8
0
 10
68.169586
 20
35.020557
  0
SEQEND
  0
TEXT
  8
0
 62
     7
 10
62.417908
 20
44.865669
 40
1.719403
 41
1.000000
  1
M3
  7
KANJI
 50
0.000000
 51
0.000000
  0
POLYLINE
  8
0
 62
     4
 66
     1
 70
     2
  0
VERTEX
  8
0
 10
67.007462
 20
29.084070
  0
VERTEX
  8
0
 10
67.007462
 20
33.570671
  0
SEQEND
  0
POLYLINE
  8
0
 62
     4
 66
     1
 70
     2
  0
VERTEX
  8
0
 10
70.007462
 20
29.084070
  0
VERTEX
  8
0
 10
70.007462
 20
33.570671
  0
SEQEND
  0
POLYLINE
  8
0
 62
     4
 66
     1
 70
     2
  0
VERTEX
  8
0
 10
67.277466
 20
29.338249
  0
VERTEX
  8
0
 10
67.277466
 20
33.633766
  0
SEQEND
  0
POLYLINE
  8
0
 62
     4
 66
     1
 70
     2
  0
VERTEX
  8
0
 10
69.737465
 20
29.338249
  0
VERTEX
  8
0
 10
69.737465
 20
33.633766
  0
SEQEND
  0
LINE
  8
0
 62
     5
 10
43.522385
 20
23.611940
 11
43.522385
 21
31.910448
  0
POLYLINE
  8
0
 62
     5
 66
     1
 70
     2
  0
VERTEX
  8
0
 10
43.164177
 20
31.014925
  0
VERTEX
  8
0
 10
43.522385
 20
29.761194
  0
VERTEX
  8
0
 10
43.880596
 20
31.014925
  0
SEQEND
  0
POLYLINE
  8
0
 62
     5
 66
     1
 70
     2
  0
VERTEX
  8
0
 10
43.880596
 20
24.507463
  0
VERTEX
  8
0
 10
43.522385
 20
25.761194
  0
VERTEX
  8
0
 10
43.164177
 20
24.507463
  0
SEQEND
  0
LINE
  8
0
 62
     5
 10
35.641792
 20
29.761194
 11
44.059700
 21
29.761194
  0
LINE
  8
0
 62
     5
 10
35.641792
 20
25.761194
 11
44.059700
 21
25.761194
  0
TEXT
  8
0
 62
     7
 10
43.164177
 20
25.074627
 40
1.791045
 41
1.000000
  1
%%c4H8
  7
KANJI
 50
90.000000
 51
0.000000
  0
POLYLINE
  8
0
 62
     4
 66
     1
 70
     2
  0
VERTEX
  8
0
 10
26.141790
 20
19.761194
  0
VERTEX
  8
0
 10
28.341789
 20
19.761194
  0
VERTEX
  8
0
 10
28.641790
 20
20.061195
  0
VERTEX
  8
0
 10
28.641790
 20
21.761194
  0
SEQEND
  0
POLYLINE
  8
0
 62
     4
 66
     1
 70
     2
  0
VERTEX
  8
0
 10
28.641790
 20
33.761192
  0
VERTEX
  8
0
 10
28.641790
 20
35.461193
  0
VERTEX
  8
0
 10
28.341789
 20
35.761192
  0
VERTEX
  8
0
 10
26.141790
 20
35.761192
  0
SEQEND
  0
POLYLINE
  8
0
 62
     4
 66
     1
 70
     2
  0
VERTEX
  8
0
 10
28.641790
 20
21.761194
  0
VERTEX
  8
0
 10
35.341789
 20
21.761194
  0
VERTEX
  8
0
 10
35.641792
 20
22.061195
  0
VERTEX
  8
0
 10
35.641792
 20
33.461193
  0
VERTEX
  8
0
 10
35.341789
 20
33.761192
  0
VERTEX
  8
0
 10
28.641790
 20
33.761192
  0
SEQEND
  0
CIRCLE
  8
0
 62
     4
 10
68.507462
 20
27.761194
 40
2.000000
  0
LINE
  8
DASHDOT
 62
     7
 10
68.507462
 20
35.552238
 11
68.507462
 21
20.686567
  0
LINE
  8
DASHDOT
 62
     7
 10
61.432838
 20
27.761194
 11
75.582092
 21
27.761194
  0
CIRCLE
  8
0
 62
     4
 10
68.507462
 20
27.761194
 40
6.000000
  0
LINE
  8
0
 62
     5
 10
37.791046
 20
42.208954
 11
29.992537
 21
42.208954
  0
POLYLINE
  8
0
 62
     5
 66
     1
 70
     2
  0
VERTEX
  8
0
 10
30.888060
 20
41.850746
  0
VERTEX
  8
0
 10
32.141792
 20
42.208954
  0
VERTEX
  8
0
 10
30.888060
 20
42.567165
  0
SEQEND
  0
POLYLINE
  8
0
 62
     5
 66
     1
 70
     2
  0
VERTEX
  8
0
 10
36.895523
 20
42.567165
  0
VERTEX
  8
0
 10
35.641792
 20
42.208954
  0
VERTEX
  8
0
 10
36.895523
 20
41.850746
  0
SEQEND
  0
LINE
  8
0
 62
     5
 10
32.141792
 20
35.761192
 11
32.141792
 21
42.746269
  0
TEXT
  8
0
 62
     7
 10
32.145523
 20
42.495522
 40
1.791045
 41
1.000000
  1
3.5
  7
KANJI
 50
0.000000
 51
0.000000
  0
LINE
  8
0
 62
     5
 10
32.141792
 20
33.761192
 11
32.141792
 21
35.761192
  0
ENDSEC
  0
EOF
