  0
SECTION
  2
HEADER
  9
$ACADVER
  1
AC1003
  9
$INSBASE
 10
0.000000
 20
0.000000
  9
$EXTMIN
 10
0.000000
 20
0.000000
  9
$EXTMAX
 10
227.419355
 20
157.258065
  9
$LIMMIN
 10
0.000000
 20
0.000000
  9
$LIMMAX
 10
227.419355
 20
157.258065
  9
$VIEWCTR
 10
113.709677
 20
78.629032
  9
$VIEWSIZE
 40
157.258065
  0
ENDSEC
  0
SECTION
  2
TABLES
  0
TABLE
  2
LTYPE
 70
     4
  0
LTYPE
  2
CONTINUOUS
 70
    64
  3
SolidLine
 72
    65
 73
     0
 40
0.0
  0
LTYPE
  2
HIDDEN
 70
    64
  3
------------------------
 72
    65
 73
     2
 40
2.419355
 49
1.612903
 49
-0.806452
  0
LTYPE
  2
DASHDOT
 70
    64
  3
--?--?--?--?--?--?--?--
 72
    65
 73
     4
 40
9.677419
 49
7.258065
 49
-0.806452
 49
0.806452
 49
-0.806452
  0
LTYPE
  2
DIVIDE
 70
    64
  3
--??--??--??--??--??--
 72
    65
 73
     6
 40
12.096774
 49
8.064516
 49
-0.806452
 49
0.806452
 49
-0.806452
 49
0.806452
 49
-0.806452
  0
ENDTAB
  0
TABLE
  2
LAYER
 70
     5
  0
LAYER
  2
0
 70
    64
 62
     7
  6
CONTINUOUS
  0
LAYER
  2
HIDDEN
 70
    64
 62
     2
  6
HIDDEN
  0
LAYER
  2
DASHDOT
 70
    64
 62
     6
  6
DASHDOT
  0
LAYER
  2
DIVIDE
 70
    64
 62
     5
  6
DIVIDE
  0
ENDTAB
  0
TABLE
  2
STYLE
 70
     1
  0
STYLE
  2
STANDARD
 70
    64
 40
0.0
 41
1.0
 50
0.0
 71
     0
 42
0.2
  3
TXT
  4

  0
STYLE
  2
KANJI
 70
    64
 40
0.0
 41
1.0
 50
0.0
 71
     0
 42
0.2
  3
TXT
  4
BIGFONT
  0
ENDTAB
  0
TABLE
  2
VIEW
 70
     0
  0
ENDTAB
  0
ENDSEC
  0
SECTION
  2
BLOCKS
  0
ENDSEC
  0
SECTION
  2
ENTITIES
  0
TEXT
  8
0
 62
     7
 10
8.064516
 20
8.870968
 40
3.225806
 41
1.000000
  1
KHK BG1-50R1J15
  7
KANJI
 50
0.000000
 51
0.000000
  0
TEXT
  8
0
 62
     7
 10
8.064516
 20
4.032258
 40
3.225806
 41
1.000000
  1
The precision grade of gears after secondary operations is equivalent but not identical to its original grade.
  7
KANJI
 50
0.000000
 51
0.000000
  0
TEXT
  8
0
 62
     7
 10
8.064516
 20
145.161285
 40
3.629032
 41
1.000000
  1

  7
KANJI
 50
0.000000
 51
0.000000
  0
POLYLINE
  8
0
 62
     7
 66
     1
 70
     2
  0
VERTEX
  8
0
 10
193.548386
 20
145.161285
  0
VERTEX
  8
0
 10
190.403229
 20
150.612900
  0
VERTEX
  8
0
 10
202.983871
 20
150.612900
  0
VERTEX
  8
0
 10
199.838715
 20
145.161285
  0
VERTEX
  8
0
 10
196.693542
 20
150.612900
  0
VERTEX
  8
0
 10
193.548386
 20
145.161285
  0
SEQEND
  0
LINE
  8
DASHDOT
 62
     7
 10
59.677422
 20
99.532265
 11
64.838715
 21
99.532265
  0
LINE
  8
DASHDOT
 62
     7
 10
62.258068
 20
101.951614
 11
62.258068
 21
37.612907
  0
LINE
  8
0
 62
     5
 10
112.741943
 20
92.532265
 11
112.741943
 21
40.532265
  0
POLYLINE
  8
0
 62
     5
 66
     1
 70
     2
  0
VERTEX
  8
0
 10
113.548386
 20
89.709686
  0
VERTEX
  8
0
 10
112.741943
 20
92.532265
  0
VERTEX
  8
0
 10
111.935486
 20
89.709686
  0
SEQEND
  0
POLYLINE
  8
0
 62
     5
 66
     1
 70
     2
  0
VERTEX
  8
0
 10
111.935486
 20
43.354843
  0
VERTEX
  8
0
 10
112.741943
 20
40.532265
  0
VERTEX
  8
0
 10
113.548386
 20
43.354843
  0
SEQEND
  0
LINE
  8
0
 62
     5
 10
77.258072
 20
92.532265
 11
113.951614
 21
92.532265
  0
LINE
  8
0
 62
     5
 10
77.258072
 20
40.532265
 11
113.951614
 21
40.532265
  0
TEXT
  8
0
 62
     7
 10
111.935486
 20
61.794361
 40
4.032258
 41
1.000000
  1
%%c52
  7
KANJI
 50
90.000000
 51
0.000000
  0
LINE
  8
0
 62
     5
 10
119.193550
 20
93.032265
 11
119.193550
 21
40.032265
  0
POLYLINE
  8
0
 62
     5
 66
     1
 70
     2
  0
VERTEX
  8
0
 10
120.000000
 20
90.209686
  0
VERTEX
  8
0
 10
119.193550
 20
93.032265
  0
VERTEX
  8
0
 10
118.387100
 20
90.209686
  0
SEQEND
  0
POLYLINE
  8
0
 62
     5
 66
     1
 70
     2
  0
VERTEX
  8
0
 10
118.387100
 20
42.854843
  0
VERTEX
  8
0
 10
119.193550
 20
40.032265
  0
VERTEX
  8
0
 10
120.000000
 20
42.854843
  0
SEQEND
  0
LINE
  8
0
 62
     5
 10
77.258072
 20
93.032265
 11
120.403229
 21
93.032265
  0
LINE
  8
0
 62
     5
 10
77.258072
 20
40.032265
 11
120.403229
 21
40.032265
  0
TEXT
  8
0
 62
     7
 10
118.387100
 20
61.794361
 40
4.032258
 41
1.000000
  1
%%c53
  7
KANJI
 50
90.000000
 51
0.000000
  0
LINE
  8
0
 62
     5
 10
33.064522
 20
66.532265
 11
33.064522
 21
99.532265
  0
POLYLINE
  8
0
 62
     5
 66
     1
 70
     2
  0
VERTEX
  8
0
 10
32.258068
 20
69.354843
  0
VERTEX
  8
0
 10
33.064522
 20
66.532265
  0
VERTEX
  8
0
 10
33.870972
 20
69.354843
  0
SEQEND
  0
POLYLINE
  8
0
 62
     5
 66
     1
 70
     2
  0
VERTEX
  8
0
 10
33.870972
 20
96.709686
  0
VERTEX
  8
0
 10
33.064522
 20
99.532265
  0
VERTEX
  8
0
 10
32.258068
 20
96.709686
  0
SEQEND
  0
LINE
  8
0
 62
     5
 10
57.258068
 20
66.532265
 11
31.854843
 21
66.532265
  0
LINE
  8
0
 62
     5
 10
59.677422
 20
99.532265
 11
31.854841
 21
99.532265
  0
TEXT
  8
0
 62
     7
 10
31.451616
 20
79.604843
 40
4.032258
 41
1.000000
  1
33
  7
KANJI
 50
90.000000
 51
0.000000
  0
LINE
  8
0
 62
     5
 10
67.258072
 20
112.435486
 11
77.258072
 21
112.435486
  0
POLYLINE
  8
0
 62
     5
 66
     1
 70
     2
  0
VERTEX
  8
0
 10
70.080650
 20
113.241943
  0
VERTEX
  8
0
 10
67.258072
 20
112.435486
  0
VERTEX
  8
0
 10
70.080650
 20
111.629044
  0
SEQEND
  0
POLYLINE
  8
0
 62
     5
 66
     1
 70
     2
  0
VERTEX
  8
0
 10
74.435486
 20
111.629044
  0
VERTEX
  8
0
 10
77.258072
 20
112.435486
  0
VERTEX
  8
0
 10
74.435486
 20
113.241943
  0
SEQEND
  0
LINE
  8
0
 62
     5
 10
67.258072
 20
93.032265
 11
67.258072
 21
113.645172
  0
TEXT
  8
0
 62
     7
 10
69.637100
 20
113.080650
 40
4.032258
 41
1.000000
  1
10
  7
KANJI
 50
0.000000
 51
0.000000
  0
LINE
  8
0
 62
     5
 10
57.258068
 20
105.983879
 11
62.258068
 21
105.983879
  0
POLYLINE
  8
0
 62
     5
 66
     1
 70
     2
  0
VERTEX
  8
0
 10
60.080650
 20
106.790329
  0
VERTEX
  8
0
 10
57.258068
 20
105.983879
  0
VERTEX
  8
0
 10
60.080650
 20
105.177429
  0
SEQEND
  0
POLYLINE
  8
0
 62
     5
 66
     1
 70
     2
  0
VERTEX
  8
0
 10
59.435486
 20
105.177429
  0
VERTEX
  8
0
 10
62.258068
 20
105.983879
  0
VERTEX
  8
0
 10
59.435486
 20
106.790329
  0
SEQEND
  0
LINE
  8
0
 62
     5
 10
62.258068
 20
93.032265
 11
62.258068
 21
107.193558
  0
TEXT
  8
0
 62
     7
 10
58.447586
 20
106.629044
 40
4.032258
 41
1.000000
  1
5
  7
KANJI
 50
0.000000
 51
0.000000
  0
ARC
  8
DASHDOT
 62
     7
 10
62.258068
 20
99.532265
 40
7.950000
 50
219.99999447324046
 51
320.00000552675954
  0
ARC
  8
DASHDOT
 62
     7
 10
62.258068
 20
33.532265
 40
7.950000
 50
39.99999447324048
 51
140.00000552675954
  0
ARC
  8
0
 62
     4
 10
62.258068
 20
99.532265
 40
9.250000
 50
237.27955406874375
 51
302.7204459312563
  0
ARC
  8
0
 62
     4
 10
62.258068
 20
33.532265
 40
9.250000
 50
57.279554068743764
 51
122.72044593125624
  0
ARC
  8
0
 62
     4
 10
62.258068
 20
99.532265
 40
7.000000
 50
248.2132119154777
 51
291.7867899663091
  0
ARC
  8
0
 62
     4
 10
62.258068
 20
33.532265
 40
7.000000
 50
68.21321003369091
 51
111.78678808452231
  0
LINE
  8
DASHDOT
 62
     7
 10
57.258068
 20
66.532265
 11
79.677422
 21
66.532265
  0
LINE
  8
0
 62
     5
 10
67.258072
 20
92.225815
 11
67.258072
 21
93.032265
  0
LINE
  8
0
 62
     5
 10
57.258068
 20
92.225815
 11
57.258068
 21
93.032265
  0
LINE
  8
0
 62
     5
 10
77.258072
 20
81.032265
 11
77.258072
 21
93.032265
  0
LINE
  8
0
 62
     5
 10
67.258072
 20
81.532265
 11
77.258072
 21
81.532265
  0
LINE
  8
0
 62
     5
 10
67.258072
 20
51.532265
 11
77.258072
 21
51.532265
  0
LINE
  8
0
 62
     5
 10
66.451614
 20
93.032265
 11
77.258072
 21
93.032265
  0
LINE
  8
0
 62
     5
 10
62.258068
 20
92.532265
 11
77.258072
 21
92.532265
  0
LINE
  8
0
 62
     5
 10
62.258068
 20
40.532265
 11
77.258072
 21
40.532265
  0
LINE
  8
0
 62
     5
 10
66.451614
 20
40.032265
 11
77.258072
 21
40.032265
  0
LINE
  8
0
 62
     4
 10
77.258072
 20
74.532265
 11
76.758072
 21
74.032265
  0
LINE
  8
0
 62
     4
 10
77.258072
 20
58.532265
 11
76.758072
 21
59.032265
  0
LINE
  8
0
 62
     4
 10
57.258068
 20
58.532265
 11
57.758068
 21
59.032265
  0
POLYLINE
  8
0
 62
     4
 66
     1
 70
     2
  0
VERTEX
  8
0
 10
59.659992
 20
93.032265
  0
VERTEX
  8
0
 10
58.064518
 20
93.032265
  0
VERTEX
  8
0
 10
57.258068
 20
92.225815
  0
VERTEX
  8
0
 10
57.258068
 20
58.532265
  0
SEQEND
  0
POLYLINE
  8
0
 62
     4
 66
     1
 70
     2
  0
VERTEX
  8
0
 10
57.258068
 20
58.532265
  0
VERTEX
  8
0
 10
57.258068
 20
40.838715
  0
VERTEX
  8
0
 10
58.064518
 20
40.032265
  0
VERTEX
  8
0
 10
59.659992
 20
40.032265
  0
SEQEND
  0
POLYLINE
  8
0
 62
     4
 66
     1
 70
     2
  0
VERTEX
  8
0
 10
57.258068
 20
74.532265
  0
VERTEX
  8
0
 10
57.758068
 20
74.032265
  0
VERTEX
  8
0
 10
57.758068
 20
59.032265
  0
VERTEX
  8
0
 10
76.758072
 20
59.032265
  0
VERTEX
  8
0
 10
76.758072
 20
74.032265
  0
VERTEX
  8
0
 10
57.758068
 20
74.032265
  0
SEQEND
  0
LINE
  8
0
 62
     5
 10
57.258068
 20
118.887100
 11
77.258072
 21
118.887100
  0
POLYLINE
  8
0
 62
     5
 66
     1
 70
     2
  0
VERTEX
  8
0
 10
60.080650
 20
119.693558
  0
VERTEX
  8
0
 10
57.258068
 20
118.887100
  0
VERTEX
  8
0
 10
60.080650
 20
118.080658
  0
SEQEND
  0
POLYLINE
  8
0
 62
     5
 66
     1
 70
     2
  0
VERTEX
  8
0
 10
74.435486
 20
118.080658
  0
VERTEX
  8
0
 10
77.258072
 20
118.887100
  0
VERTEX
  8
0
 10
74.435486
 20
119.693558
  0
SEQEND
  0
LINE
  8
0
 62
     5
 10
57.258068
 20
93.032265
 11
57.258068
 21
120.096786
  0
LINE
  8
0
 62
     5
 10
77.258072
 20
93.032265
 11
77.258072
 21
120.096786
  0
TEXT
  8
0
 62
     7
 10
64.637100
 20
119.532265
 40
4.032258
 41
1.000000
  1
20
  7
KANJI
 50
0.000000
 51
0.000000
  0
LINE
  8
0
 62
     5
 10
57.258068
 20
112.435486
 11
67.258072
 21
112.435486
  0
POLYLINE
  8
0
 62
     5
 66
     1
 70
     2
  0
VERTEX
  8
0
 10
60.080650
 20
113.241943
  0
VERTEX
  8
0
 10
57.258068
 20
112.435486
  0
VERTEX
  8
0
 10
60.080650
 20
111.629044
  0
SEQEND
  0
POLYLINE
  8
0
 62
     5
 66
     1
 70
     2
  0
VERTEX
  8
0
 10
64.435486
 20
111.629044
  0
VERTEX
  8
0
 10
67.258072
 20
112.435486
  0
VERTEX
  8
0
 10
64.435486
 20
113.241943
  0
SEQEND
  0
TEXT
  8
0
 62
     7
 10
59.637100
 20
113.080650
 40
4.032258
 41
1.000000
  1
10
  7
KANJI
 50
0.000000
 51
0.000000
  0
LINE
  8
0
 62
     5
 10
106.290329
 20
81.532265
 11
106.290329
 21
51.532265
  0
POLYLINE
  8
0
 62
     5
 66
     1
 70
     2
  0
VERTEX
  8
0
 10
107.096771
 20
78.709686
  0
VERTEX
  8
0
 10
106.290329
 20
81.532265
  0
VERTEX
  8
0
 10
105.483871
 20
78.709686
  0
SEQEND
  0
POLYLINE
  8
0
 62
     5
 66
     1
 70
     2
  0
VERTEX
  8
0
 10
105.483871
 20
54.354843
  0
VERTEX
  8
0
 10
106.290329
 20
51.532265
  0
VERTEX
  8
0
 10
107.096771
 20
54.354843
  0
SEQEND
  0
LINE
  8
0
 62
     5
 10
77.258072
 20
81.532265
 11
107.500000
 21
81.532265
  0
LINE
  8
0
 62
     5
 10
77.258072
 20
51.532265
 11
107.500000
 21
51.532265
  0
TEXT
  8
0
 62
     7
 10
105.483871
 20
61.794361
 40
4.032258
 41
1.000000
  1
%%c30
  7
KANJI
 50
90.000000
 51
0.000000
  0
LINE
  8
DASHDOT
 62
     7
 10
148.709686
 20
85.564522
 11
148.709686
 21
49.112907
  0
LINE
  8
DASHDOT
 62
     7
 10
131.290329
 20
66.532265
 11
166.129028
 21
66.532265
  0
LINE
  8
0
 62
     5
 10
156.048386
 20
93.629044
 11
141.370972
 21
93.629044
  0
POLYLINE
  8
0
 62
     5
 66
     1
 70
     2
  0
VERTEX
  8
0
 10
143.387100
 20
92.822586
  0
VERTEX
  8
0
 10
146.209686
 20
93.629044
  0
VERTEX
  8
0
 10
143.387100
 20
94.435493
  0
SEQEND
  0
POLYLINE
  8
0
 62
     5
 66
     1
 70
     2
  0
VERTEX
  8
0
 10
154.032257
 20
94.435493
  0
VERTEX
  8
0
 10
151.209686
 20
93.629044
  0
VERTEX
  8
0
 10
154.032257
 20
92.822586
  0
SEQEND
  0
LINE
  8
0
 62
     5
 10
146.209686
 20
76.332268
 11
146.209686
 21
94.838715
  0
LINE
  8
0
 62
     5
 10
151.209686
 20
76.332268
 11
151.209686
 21
94.838715
  0
TEXT
  8
0
 62
     7
 10
140.386307
 20
94.435493
 40
4.032258
 41
1.000000
  1
5
  7
KANJI
 50
0.000000
 51
0.000000
  0
TEXT
  8
0
 62
     7
 10
144.377747
 20
94.435493
 40
3.225806
 41
1.000000
  1
%%p0.015
  7
KANJI
 50
0.000000
 51
0.000000
  0
LINE
  8
0
 62
     5
 10
179.838715
 20
76.332268
 11
179.838715
 21
59.032265
  0
POLYLINE
  8
0
 62
     5
 66
     1
 70
     2
  0
VERTEX
  8
0
 10
180.645157
 20
73.509682
  0
VERTEX
  8
0
 10
179.838715
 20
76.332268
  0
VERTEX
  8
0
 10
179.032257
 20
73.509682
  0
SEQEND
  0
POLYLINE
  8
0
 62
     5
 66
     1
 70
     2
  0
VERTEX
  8
0
 10
179.032257
 20
61.854847
  0
VERTEX
  8
0
 10
179.838715
 20
59.032265
  0
VERTEX
  8
0
 10
180.645157
 20
61.854847
  0
SEQEND
  0
LINE
  8
0
 62
     5
 10
151.209686
 20
76.332268
 11
181.048386
 21
76.332268
  0
LINE
  8
0
 62
     5
 10
148.709686
 20
59.032265
 11
181.048386
 21
59.032265
  0
TEXT
  8
0
 62
     7
 10
178.629028
 20
54.454853
 40
4.032258
 41
1.000000
  1
17.3
  7
KANJI
 50
90.000000
 51
0.000000
  0
TEXT
  8
0
 62
     7
 10
178.870972
 20
71.908058
 40
2.016129
 41
1.000000
  1
 
  7
KANJI
 50
90.000000
 51
0.000000
  0
TEXT
  8
0
 62
     7
 10
176.370972
 20
71.908058
 40
2.016129
 41
1.000000
  1
+
  7
KANJI
 50
90.000000
 51
0.000000
  0
TEXT
  8
0
 62
     7
 10
178.870972
 20
74.166122
 40
2.016129
 41
1.000000
  1
0
  7
KANJI
 50
90.000000
 51
0.000000
  0
TEXT
  8
0
 62
     7
 10
176.370972
 20
74.166122
 40
2.016129
 41
1.000000
  1
0.1
  7
KANJI
 50
90.000000
 51
0.000000
  0
ARC
  8
0
 62
     4
 10
148.709686
 20
66.532265
 40
7.500000
 50
109.47122094265586
 51
70.52877905734415
  0
POLYLINE
  8
0
 62
     4
 66
     1
 70
     2
  0
VERTEX
  8
0
 10
151.209686
 20
73.603333
  0
VERTEX
  8
0
 10
151.209686
 20
76.332268
  0
VERTEX
  8
0
 10
146.209686
 20
76.332268
  0
VERTEX
  8
0
 10
146.209686
 20
73.603333
  0
SEQEND
  0
LINE
  8
0
 62
     4
 10
57.258068
 20
76.332268
 11
77.258072
 21
76.332268
  0
POLYLINE
  8
DASHDOT
 62
     7
 66
     1
 70
     2
  0
VERTEX
  8
DASHDOT
 10
72.258072
 20
83.951622
  0
VERTEX
  8
DASHDOT
 10
72.258072
 20
73.912910
  0
SEQEND
  0
POLYLINE
  8
0
 62
     4
 66
     1
 70
     2
  0
VERTEX
  8
0
 10
74.258072
 20
81.532265
  0
VERTEX
  8
0
 10
74.258072
 20
76.332268
  0
SEQEND
  0
POLYLINE
  8
0
 62
     4
 66
     1
 70
     2
  0
VERTEX
  8
0
 10
70.258072
 20
81.532265
  0
VERTEX
  8
0
 10
70.258072
 20
76.332268
  0
SEQEND
  0
POLYLINE
  8
0
 62
     4
 66
     1
 70
     2
  0
VERTEX
  8
0
 10
73.878067
 20
81.532265
  0
VERTEX
  8
0
 10
73.878067
 20
76.332268
  0
SEQEND
  0
POLYLINE
  8
0
 62
     4
 66
     1
 70
     2
  0
VERTEX
  8
0
 10
70.638069
 20
81.532265
  0
VERTEX
  8
0
 10
70.638069
 20
76.332268
  0
SEQEND
  0
POLYLINE
  8
0
 62
     4
 66
     1
 70
     2
  0
VERTEX
  8
0
 10
146.709686
 20
76.332268
  0
VERTEX
  8
0
 10
146.709686
 20
81.398331
  0
SEQEND
  0
POLYLINE
  8
0
 62
     4
 66
     1
 70
     2
  0
VERTEX
  8
0
 10
150.709686
 20
76.332268
  0
VERTEX
  8
0
 10
150.709686
 20
81.398331
  0
SEQEND
  0
POLYLINE
  8
0
 62
     4
 66
     1
 70
     2
  0
VERTEX
  8
0
 10
147.089676
 20
76.332268
  0
VERTEX
  8
0
 10
147.089676
 20
81.444527
  0
SEQEND
  0
POLYLINE
  8
0
 62
     4
 66
     1
 70
     2
  0
VERTEX
  8
0
 10
150.329681
 20
76.332268
  0
VERTEX
  8
0
 10
150.329681
 20
81.444527
  0
SEQEND
  0
POLYLINE
  8
0
 62
     5
 66
     1
 70
     2
  0
VERTEX
  8
0
 10
148.709686
 20
81.532265
  0
VERTEX
  8
0
 10
134.193558
 20
105.725815
  0
VERTEX
  8
0
 10
143.064514
 20
105.725815
  0
SEQEND
  0
POLYLINE
  8
0
 62
     5
 66
     1
 70
     2
  0
VERTEX
  8
0
 10
146.565948
 20
83.537689
  0
VERTEX
  8
0
 10
148.709686
 20
81.532265
  0
VERTEX
  8
0
 10
147.949005
 20
84.367523
  0
SEQEND
  0
TEXT
  8
0
 62
     7
 10
135.000000
 20
106.532265
 40
3.870968
 41
1.000000
  1
M4
  7
KANJI
 50
0.000000
 51
0.000000
  0
CIRCLE
  8
0
 62
     7
 10
72.258072
 20
66.532265
 40
2.000000
  0
CIRCLE
  8
0
 62
     4
 10
72.258072
 20
66.532265
 40
1.620000
  0
POLYLINE
  8
DASHDOT
 62
     7
 66
     1
 70
     2
  0
VERTEX
  8
DASHDOT
 10
67.838715
 20
66.532265
  0
VERTEX
  8
DASHDOT
 10
76.677422
 20
66.532265
  0
SEQEND
  0
POLYLINE
  8
DASHDOT
 62
     7
 66
     1
 70
     2
  0
VERTEX
  8
DASHDOT
 10
72.258072
 20
62.112911
  0
VERTEX
  8
DASHDOT
 10
72.258072
 20
70.951622
  0
SEQEND
  0
LINE
  8
0
 62
     5
 10
72.258072
 20
81.532265
 11
72.258072
 21
93.032265
  0
POLYLINE
  8
0
 62
     4
 66
     1
 70
     2
  0
VERTEX
  8
0
 10
155.938095
 20
68.532265
  0
VERTEX
  8
0
 10
163.575745
 20
68.532265
  0
SEQEND
  0
POLYLINE
  8
0
 62
     4
 66
     1
 70
     2
  0
VERTEX
  8
0
 10
155.938095
 20
64.532265
  0
VERTEX
  8
0
 10
163.575745
 20
64.532265
  0
SEQEND
  0
POLYLINE
  8
0
 62
     4
 66
     1
 70
     2
  0
VERTEX
  8
0
 10
156.032639
 20
68.152267
  0
VERTEX
  8
0
 10
163.621948
 20
68.152267
  0
SEQEND
  0
POLYLINE
  8
0
 62
     4
 66
     1
 70
     2
  0
VERTEX
  8
0
 10
156.032639
 20
64.912262
  0
VERTEX
  8
0
 10
163.621948
 20
64.912262
  0
SEQEND
  0
POLYLINE
  8
0
 62
     5
 66
     1
 70
     2
  0
VERTEX
  8
0
 10
163.709686
 20
66.532265
  0
VERTEX
  8
0
 10
175.806458
 20
99.274200
  0
VERTEX
  8
0
 10
164.032257
 20
99.274200
  0
SEQEND
  0
POLYLINE
  8
0
 62
     5
 66
     1
 70
     2
  0
VERTEX
  8
0
 10
163.931412
 20
69.459404
  0
VERTEX
  8
0
 10
163.709686
 20
66.532265
  0
VERTEX
  8
0
 10
165.444351
 20
68.900436
  0
SEQEND
  0
TEXT
  8
0
 62
     7
 10
165.645157
 20
100.080650
 40
3.870968
 41
1.000000
  1
M4
  7
KANJI
 50
0.000000
 51
0.000000
  0
LINE
  8
0
 62
     5
 10
93.387100
 20
74.032265
 11
93.387100
 21
59.032265
  0
POLYLINE
  8
0
 62
     5
 66
     1
 70
     2
  0
VERTEX
  8
0
 10
92.580650
 20
61.854843
  0
VERTEX
  8
0
 10
93.387100
 20
59.032265
  0
VERTEX
  8
0
 10
94.193550
 20
61.854843
  0
SEQEND
  0
LINE
  8
0
 62
     5
 10
77.258072
 20
59.032265
 11
94.596779
 21
59.032265
  0
TEXT
  8
0
 62
     7
 10
92.580650
 20
59.173393
 40
4.032258
 41
1.000000
  1
%%c15H7
  7
KANJI
 50
90.000000
 51
0.000000
  0
POLYLINE
  8
0
 62
     4
 66
     1
 70
     2
  0
VERTEX
  8
0
 10
67.258072
 20
81.532265
  0
VERTEX
  8
0
 10
67.258072
 20
92.225815
  0
VERTEX
  8
0
 10
66.451614
 20
93.032265
  0
VERTEX
  8
0
 10
64.856148
 20
93.032265
  0
SEQEND
  0
POLYLINE
  8
0
 62
     4
 66
     1
 70
     2
  0
VERTEX
  8
0
 10
64.856148
 20
40.032265
  0
VERTEX
  8
0
 10
66.451614
 20
40.032265
  0
VERTEX
  8
0
 10
67.258072
 20
40.838715
  0
VERTEX
  8
0
 10
67.258072
 20
51.532265
  0
SEQEND
  0
POLYLINE
  8
0
 62
     4
 66
     1
 70
     2
  0
VERTEX
  8
0
 10
67.258072
 20
51.532265
  0
VERTEX
  8
0
 10
76.758072
 20
51.532265
  0
VERTEX
  8
0
 10
77.258072
 20
52.032265
  0
VERTEX
  8
0
 10
77.258072
 20
81.032265
  0
VERTEX
  8
0
 10
76.758072
 20
81.532265
  0
VERTEX
  8
0
 10
67.258072
 20
81.532265
  0
SEQEND
  0
CIRCLE
  8
0
 62
     4
 10
148.709686
 20
66.532265
 40
15.000000
  0
LINE
  8
0
 62
     5
 10
72.258072
 20
99.532265
 11
77.258072
 21
99.532265
  0
POLYLINE
  8
0
 62
     5
 66
     1
 70
     2
  0
VERTEX
  8
0
 10
75.080650
 20
100.338715
  0
VERTEX
  8
0
 10
72.258072
 20
99.532265
  0
VERTEX
  8
0
 10
75.080650
 20
98.725815
  0
SEQEND
  0
POLYLINE
  8
0
 62
     5
 66
     1
 70
     2
  0
VERTEX
  8
0
 10
74.435486
 20
98.725815
  0
VERTEX
  8
0
 10
77.258072
 20
99.532265
  0
VERTEX
  8
0
 10
74.435486
 20
100.338715
  0
SEQEND
  0
LINE
  8
0
 62
     5
 10
72.258072
 20
93.032265
 11
72.258072
 21
100.741943
  0
TEXT
  8
0
 62
     7
 10
73.447586
 20
100.177429
 40
4.032258
 41
1.000000
  1
5
  7
KANJI
 50
0.000000
 51
0.000000
  0
LINE
  8
0
 62
     5
 10
72.258072
 20
81.532265
 11
72.258072
 21
93.032265
  0
ENDSEC
  0
EOF
