  0
SECTION
  2
HEADER
  9
$ACADVER
  1
AC1003
  9
$INSBASE
 10
0.000000
 20
0.000000
  9
$EXTMIN
 10
0.000000
 20
0.000000
  9
$EXTMAX
 10
636.774194
 20
440.322581
  9
$LIMMIN
 10
0.000000
 20
0.000000
  9
$LIMMAX
 10
636.774194
 20
440.322581
  9
$VIEWCTR
 10
318.387097
 20
220.161290
  9
$VIEWSIZE
 40
440.322581
  0
ENDSEC
  0
SECTION
  2
TABLES
  0
TABLE
  2
LTYPE
 70
     4
  0
LTYPE
  2
CONTINUOUS
 70
    64
  3
SolidLine
 72
    65
 73
     0
 40
0.0
  0
LTYPE
  2
HIDDEN
 70
    64
  3
------------------------
 72
    65
 73
     2
 40
6.774194
 49
4.516129
 49
-2.258065
  0
LTYPE
  2
DASHDOT
 70
    64
  3
--?--?--?--?--?--?--?--
 72
    65
 73
     4
 40
27.096774
 49
20.322581
 49
-2.258065
 49
2.258065
 49
-2.258065
  0
LTYPE
  2
DIVIDE
 70
    64
  3
--??--??--??--??--??--
 72
    65
 73
     6
 40
33.870968
 49
22.580645
 49
-2.258065
 49
2.258065
 49
-2.258065
 49
2.258065
 49
-2.258065
  0
ENDTAB
  0
TABLE
  2
LAYER
 70
     5
  0
LAYER
  2
0
 70
    64
 62
     7
  6
CONTINUOUS
  0
LAYER
  2
HIDDEN
 70
    64
 62
     2
  6
HIDDEN
  0
LAYER
  2
DASHDOT
 70
    64
 62
     6
  6
DASHDOT
  0
LAYER
  2
DIVIDE
 70
    64
 62
     5
  6
DIVIDE
  0
ENDTAB
  0
TABLE
  2
STYLE
 70
     1
  0
STYLE
  2
STANDARD
 70
    64
 40
0.0
 41
1.0
 50
0.0
 71
     0
 42
0.2
  3
TXT
  4

  0
STYLE
  2
KANJI
 70
    64
 40
0.0
 41
1.0
 50
0.0
 71
     0
 42
0.2
  3
TXT
  4
BIGFONT
  0
ENDTAB
  0
TABLE
  2
VIEW
 70
     0
  0
ENDTAB
  0
ENDSEC
  0
SECTION
  2
BLOCKS
  0
ENDSEC
  0
SECTION
  2
ENTITIES
  0
TEXT
  8
0
 62
     7
 10
22.580645
 20
24.838709
 40
9.032258
 41
1.000000
  1
KHK BG5-20R2
  7
KANJI
 50
0.000000
 51
0.000000
  0
TEXT
  8
0
 62
     7
 10
22.580645
 20
11.290322
 40
9.032258
 41
1.000000
  1

  7
KANJI
 50
0.000000
 51
0.000000
  0
TEXT
  8
0
 62
     7
 10
22.580645
 20
406.451599
 40
10.161290
 41
1.000000
  1

  7
KANJI
 50
0.000000
 51
0.000000
  0
POLYLINE
  8
0
 62
     7
 66
     1
 70
     2
  0
VERTEX
  8
0
 10
541.935486
 20
406.451599
  0
VERTEX
  8
0
 10
533.129028
 20
421.716125
  0
VERTEX
  8
0
 10
568.354858
 20
421.716125
  0
VERTEX
  8
0
 10
559.548401
 20
406.451599
  0
VERTEX
  8
0
 10
550.741943
 20
421.716125
  0
VERTEX
  8
0
 10
541.935486
 20
406.451599
  0
SEQEND
  0
LINE
  8
DASHDOT
 62
     7
 10
167.096771
 20
271.290314
 11
198.548370
 21
271.290314
  0
LINE
  8
DASHDOT
 62
     7
 10
182.822571
 20
278.064514
 11
182.822571
 21
123.016121
  0
LINE
  8
0
 62
     5
 10
324.677399
 20
241.290314
 11
324.677399
 21
131.290314
  0
POLYLINE
  8
0
 62
     5
 66
     1
 70
     2
  0
VERTEX
  8
0
 10
326.935486
 20
233.387085
  0
VERTEX
  8
0
 10
324.677399
 20
241.290314
  0
VERTEX
  8
0
 10
322.419312
 20
233.387085
  0
SEQEND
  0
POLYLINE
  8
0
 62
     5
 66
     1
 70
     2
  0
VERTEX
  8
0
 10
322.419312
 20
139.193542
  0
VERTEX
  8
0
 10
324.677399
 20
131.290314
  0
VERTEX
  8
0
 10
326.935486
 20
139.193542
  0
SEQEND
  0
LINE
  8
0
 62
     5
 10
225.322571
 20
241.290314
 11
328.064514
 21
241.290314
  0
LINE
  8
0
 62
     5
 10
225.322571
 20
131.290314
 11
328.064514
 21
131.290314
  0
TEXT
  8
0
 62
     7
 10
322.419312
 20
169.354828
 40
11.290323
 41
1.000000
  1
%%c110
  7
KANJI
 50
90.000000
 51
0.000000
  0
LINE
  8
0
 62
     5
 10
342.741943
 20
242.790314
 11
342.741943
 21
129.790314
  0
POLYLINE
  8
0
 62
     5
 66
     1
 70
     2
  0
VERTEX
  8
0
 10
345.000000
 20
234.887085
  0
VERTEX
  8
0
 10
342.741943
 20
242.790314
  0
VERTEX
  8
0
 10
340.483856
 20
234.887085
  0
SEQEND
  0
POLYLINE
  8
0
 62
     5
 66
     1
 70
     2
  0
VERTEX
  8
0
 10
340.483856
 20
137.693542
  0
VERTEX
  8
0
 10
342.741943
 20
129.790314
  0
VERTEX
  8
0
 10
345.000000
 20
137.693542
  0
SEQEND
  0
LINE
  8
0
 62
     5
 10
225.322571
 20
242.790314
 11
346.129028
 21
242.790314
  0
LINE
  8
0
 62
     5
 10
225.322571
 20
129.790314
 11
346.129028
 21
129.790314
  0
TEXT
  8
0
 62
     7
 10
340.483856
 20
169.354828
 40
11.290323
 41
1.000000
  1
%%c113
  7
KANJI
 50
90.000000
 51
0.000000
  0
LINE
  8
0
 62
     5
 10
92.580635
 20
186.290314
 11
92.580635
 21
271.290314
  0
POLYLINE
  8
0
 62
     5
 66
     1
 70
     2
  0
VERTEX
  8
0
 10
90.322571
 20
194.193542
  0
VERTEX
  8
0
 10
92.580635
 20
186.290314
  0
VERTEX
  8
0
 10
94.838699
 20
194.193542
  0
SEQEND
  0
POLYLINE
  8
0
 62
     5
 66
     1
 70
     2
  0
VERTEX
  8
0
 10
94.838699
 20
263.387085
  0
VERTEX
  8
0
 10
92.580635
 20
271.290314
  0
VERTEX
  8
0
 10
90.322571
 20
263.387085
  0
SEQEND
  0
LINE
  8
0
 62
     5
 10
160.322571
 20
186.290314
 11
89.193535
 21
186.290314
  0
LINE
  8
0
 62
     5
 10
167.096771
 20
271.290314
 11
89.193542
 21
271.290314
  0
TEXT
  8
0
 62
     7
 10
88.064507
 20
219.193542
 40
11.290323
 41
1.000000
  1
85
  7
KANJI
 50
90.000000
 51
0.000000
  0
LINE
  8
0
 62
     5
 10
238.870956
 20
307.419342
 11
191.774185
 21
307.419342
  0
POLYLINE
  8
0
 62
     5
 66
     1
 70
     2
  0
VERTEX
  8
0
 10
197.419342
 20
305.161285
  0
VERTEX
  8
0
 10
205.322571
 20
307.419342
  0
VERTEX
  8
0
 10
197.419342
 20
309.677429
  0
SEQEND
  0
POLYLINE
  8
0
 62
     5
 66
     1
 70
     2
  0
VERTEX
  8
0
 10
233.225800
 20
309.677429
  0
VERTEX
  8
0
 10
225.322571
 20
307.419342
  0
VERTEX
  8
0
 10
233.225800
 20
305.161285
  0
SEQEND
  0
LINE
  8
0
 62
     5
 10
205.322571
 20
242.790314
 11
205.322571
 21
310.806458
  0
TEXT
  8
0
 62
     7
 10
207.983856
 20
309.225800
 40
11.290323
 41
1.000000
  1
20
  7
KANJI
 50
0.000000
 51
0.000000
  0
LINE
  8
0
 62
     5
 10
196.370956
 20
289.354828
 11
146.774185
 21
289.354828
  0
POLYLINE
  8
0
 62
     5
 66
     1
 70
     2
  0
VERTEX
  8
0
 10
152.419342
 20
287.096771
  0
VERTEX
  8
0
 10
160.322571
 20
289.354828
  0
VERTEX
  8
0
 10
152.419342
 20
291.612885
  0
SEQEND
  0
POLYLINE
  8
0
 62
     5
 66
     1
 70
     2
  0
VERTEX
  8
0
 10
190.725800
 20
291.612885
  0
VERTEX
  8
0
 10
182.822571
 20
289.354828
  0
VERTEX
  8
0
 10
190.725800
 20
287.096771
  0
SEQEND
  0
LINE
  8
0
 62
     5
 10
182.822571
 20
242.790314
 11
182.822571
 21
292.741943
  0
TEXT
  8
0
 62
     7
 10
156.895157
 20
291.161285
 40
11.290323
 41
1.000000
  1
22.5
  7
KANJI
 50
0.000000
 51
0.000000
  0
ARC
  8
DASHDOT
 62
     7
 10
182.822571
 20
271.290314
 40
34.480000
 50
220.0000024894799
 51
319.99999751052013
  0
ARC
  8
DASHDOT
 62
     7
 10
182.822571
 20
101.290314
 40
34.480000
 50
40.00000248947991
 51
139.9999975105201
  0
ARC
  8
0
 62
     4
 10
182.822571
 20
271.290314
 40
41.250000
 50
236.944268039412
 51
303.055731960588
  0
ARC
  8
0
 62
     4
 10
182.822571
 20
101.290314
 40
41.250000
 50
56.94426803941201
 51
123.05573196058799
  0
ARC
  8
0
 62
     4
 10
182.822571
 20
271.290314
 40
30.000000
 50
251.80512637685655
 51
288.19487095936967
  0
ARC
  8
0
 62
     4
 10
182.822571
 20
101.290314
 40
30.000000
 50
71.80512904063035
 51
108.19487362314341
  0
LINE
  8
DASHDOT
 62
     7
 10
160.322571
 20
186.290314
 11
232.096771
 21
186.290314
  0
LINE
  8
0
 62
     5
 10
205.322571
 20
240.532257
 11
205.322571
 21
242.790314
  0
LINE
  8
0
 62
     5
 10
160.322571
 20
240.532257
 11
160.322571
 21
242.790314
  0
LINE
  8
0
 62
     5
 10
225.322571
 20
222.790314
 11
225.322571
 21
242.790314
  0
LINE
  8
0
 62
     5
 10
205.322571
 20
223.790314
 11
225.322571
 21
223.790314
  0
LINE
  8
0
 62
     5
 10
205.322571
 20
148.790314
 11
225.322571
 21
148.790314
  0
LINE
  8
0
 62
     5
 10
203.064514
 20
242.790314
 11
225.322571
 21
242.790314
  0
LINE
  8
0
 62
     5
 10
182.822571
 20
241.290314
 11
225.322571
 21
241.290314
  0
LINE
  8
0
 62
     5
 10
182.822571
 20
131.290314
 11
225.322571
 21
131.290314
  0
LINE
  8
0
 62
     5
 10
203.064514
 20
129.790314
 11
225.322571
 21
129.790314
  0
LINE
  8
0
 62
     4
 10
225.322571
 20
198.290314
 11
224.322571
 21
197.290314
  0
LINE
  8
0
 62
     4
 10
225.322571
 20
174.290314
 11
224.322571
 21
175.290314
  0
LINE
  8
0
 62
     4
 10
160.322571
 20
174.290314
 11
161.322571
 21
175.290314
  0
POLYLINE
  8
0
 62
     4
 66
     1
 70
     2
  0
VERTEX
  8
0
 10
173.455078
 20
242.790314
  0
VERTEX
  8
0
 10
162.580643
 20
242.790314
  0
VERTEX
  8
0
 10
160.322571
 20
240.532257
  0
VERTEX
  8
0
 10
160.322571
 20
174.290314
  0
SEQEND
  0
POLYLINE
  8
0
 62
     4
 66
     1
 70
     2
  0
VERTEX
  8
0
 10
160.322571
 20
174.290314
  0
VERTEX
  8
0
 10
160.322571
 20
132.048370
  0
VERTEX
  8
0
 10
162.580643
 20
129.790314
  0
VERTEX
  8
0
 10
173.455078
 20
129.790314
  0
SEQEND
  0
POLYLINE
  8
0
 62
     4
 66
     1
 70
     2
  0
VERTEX
  8
0
 10
160.322571
 20
198.290314
  0
VERTEX
  8
0
 10
161.322571
 20
197.290314
  0
VERTEX
  8
0
 10
161.322571
 20
175.290314
  0
VERTEX
  8
0
 10
224.322571
 20
175.290314
  0
VERTEX
  8
0
 10
224.322571
 20
197.290314
  0
VERTEX
  8
0
 10
161.322571
 20
197.290314
  0
SEQEND
  0
LINE
  8
0
 62
     5
 10
160.322571
 20
325.483856
 11
225.322571
 21
325.483856
  0
POLYLINE
  8
0
 62
     5
 66
     1
 70
     2
  0
VERTEX
  8
0
 10
168.225800
 20
327.741943
  0
VERTEX
  8
0
 10
160.322571
 20
325.483856
  0
VERTEX
  8
0
 10
168.225800
 20
323.225769
  0
SEQEND
  0
POLYLINE
  8
0
 62
     5
 66
     1
 70
     2
  0
VERTEX
  8
0
 10
217.419342
 20
323.225769
  0
VERTEX
  8
0
 10
225.322571
 20
325.483856
  0
VERTEX
  8
0
 10
217.419342
 20
327.741943
  0
SEQEND
  0
LINE
  8
0
 62
     5
 10
160.322571
 20
242.790314
 11
160.322571
 21
328.870972
  0
LINE
  8
0
 62
     5
 10
225.322571
 20
242.790314
 11
225.322571
 21
328.870972
  0
TEXT
  8
0
 62
     7
 10
185.483856
 20
327.290314
 40
11.290323
 41
1.000000
  1
65
  7
KANJI
 50
0.000000
 51
0.000000
  0
LINE
  8
0
 62
     5
 10
160.322571
 20
307.419342
 11
205.322571
 21
307.419342
  0
POLYLINE
  8
0
 62
     5
 66
     1
 70
     2
  0
VERTEX
  8
0
 10
168.225800
 20
309.677429
  0
VERTEX
  8
0
 10
160.322571
 20
307.419342
  0
VERTEX
  8
0
 10
168.225800
 20
305.161285
  0
SEQEND
  0
POLYLINE
  8
0
 62
     5
 66
     1
 70
     2
  0
VERTEX
  8
0
 10
197.419342
 20
305.161285
  0
VERTEX
  8
0
 10
205.322571
 20
307.419342
  0
VERTEX
  8
0
 10
197.419342
 20
309.677429
  0
SEQEND
  0
TEXT
  8
0
 62
     7
 10
175.483856
 20
309.225800
 40
11.290323
 41
1.000000
  1
45
  7
KANJI
 50
0.000000
 51
0.000000
  0
LINE
  8
0
 62
     5
 10
306.612885
 20
223.790314
 11
306.612885
 21
148.790314
  0
POLYLINE
  8
0
 62
     5
 66
     1
 70
     2
  0
VERTEX
  8
0
 10
308.870972
 20
215.887085
  0
VERTEX
  8
0
 10
306.612885
 20
223.790314
  0
VERTEX
  8
0
 10
304.354797
 20
215.887085
  0
SEQEND
  0
POLYLINE
  8
0
 62
     5
 66
     1
 70
     2
  0
VERTEX
  8
0
 10
304.354797
 20
156.693542
  0
VERTEX
  8
0
 10
306.612885
 20
148.790314
  0
VERTEX
  8
0
 10
308.870972
 20
156.693542
  0
SEQEND
  0
LINE
  8
0
 62
     5
 10
225.322571
 20
223.790314
 11
310.000000
 21
223.790314
  0
LINE
  8
0
 62
     5
 10
225.322571
 20
148.790314
 11
310.000000
 21
148.790314
  0
TEXT
  8
0
 62
     7
 10
304.354797
 20
173.024185
 40
11.290323
 41
1.000000
  1
%%c75
  7
KANJI
 50
90.000000
 51
0.000000
  0
LINE
  8
0
 62
     5
 10
270.483856
 20
161.741928
 11
270.483856
 21
210.838699
  0
POLYLINE
  8
0
 62
     5
 66
     1
 70
     2
  0
VERTEX
  8
0
 10
268.225800
 20
205.193542
  0
VERTEX
  8
0
 10
270.483856
 20
197.290314
  0
VERTEX
  8
0
 10
272.741913
 20
205.193542
  0
SEQEND
  0
POLYLINE
  8
0
 62
     5
 66
     1
 70
     2
  0
VERTEX
  8
0
 10
272.741913
 20
167.387085
  0
VERTEX
  8
0
 10
270.483856
 20
175.290314
  0
VERTEX
  8
0
 10
268.225800
 20
167.387085
  0
SEQEND
  0
LINE
  8
0
 62
     5
 10
225.322571
 20
197.290314
 11
273.870972
 21
197.290314
  0
LINE
  8
0
 62
     5
 10
225.322571
 20
175.290314
 11
273.870972
 21
175.290314
  0
TEXT
  8
0
 62
     7
 10
268.225800
 20
165.685471
 40
11.290323
 41
1.000000
  1
%%c22H7
  7
KANJI
 50
90.000000
 51
0.000000
  0
POLYLINE
  8
0
 62
     4
 66
     1
 70
     2
  0
VERTEX
  8
0
 10
205.322571
 20
223.790314
  0
VERTEX
  8
0
 10
205.322571
 20
240.532257
  0
VERTEX
  8
0
 10
203.064514
 20
242.790314
  0
VERTEX
  8
0
 10
192.190063
 20
242.790314
  0
SEQEND
  0
POLYLINE
  8
0
 62
     4
 66
     1
 70
     2
  0
VERTEX
  8
0
 10
192.190063
 20
129.790314
  0
VERTEX
  8
0
 10
203.064514
 20
129.790314
  0
VERTEX
  8
0
 10
205.322571
 20
132.048370
  0
VERTEX
  8
0
 10
205.322571
 20
148.790314
  0
SEQEND
  0
POLYLINE
  8
0
 62
     4
 66
     1
 70
     2
  0
VERTEX
  8
0
 10
205.322571
 20
148.790314
  0
VERTEX
  8
0
 10
224.322571
 20
148.790314
  0
VERTEX
  8
0
 10
225.322571
 20
149.790314
  0
VERTEX
  8
0
 10
225.322571
 20
222.790314
  0
VERTEX
  8
0
 10
224.322571
 20
223.790314
  0
VERTEX
  8
0
 10
205.322571
 20
223.790314
  0
SEQEND
  0
ENDSEC
  0
EOF
