  0
SECTION
  2
HEADER
  9
$ACADVER
  1
AC1003
  9
$INSBASE
 10
0.000000
 20
0.000000
  9
$EXTMIN
 10
0.000000
 20
0.000000
  9
$EXTMAX
 10
122.608696
 20
84.782609
  9
$LIMMIN
 10
0.000000
 20
0.000000
  9
$LIMMAX
 10
122.608696
 20
84.782609
  9
$VIEWCTR
 10
61.304348
 20
42.391304
  9
$VIEWSIZE
 40
84.782609
  0
ENDSEC
  0
SECTION
  2
TABLES
  0
TABLE
  2
LTYPE
 70
     4
  0
LTYPE
  2
CONTINUOUS
 70
    64
  3
SolidLine
 72
    65
 73
     0
 40
0.0
  0
LTYPE
  2
HIDDEN
 70
    64
  3
------------------------
 72
    65
 73
     2
 40
1.304348
 49
0.869565
 49
-0.434783
  0
LTYPE
  2
DASHDOT
 70
    64
  3
--?--?--?--?--?--?--?--
 72
    65
 73
     4
 40
5.217391
 49
3.913043
 49
-0.434783
 49
0.434783
 49
-0.434783
  0
LTYPE
  2
DIVIDE
 70
    64
  3
--??--??--??--??--??--
 72
    65
 73
     6
 40
6.521739
 49
4.347826
 49
-0.434783
 49
0.434783
 49
-0.434783
 49
0.434783
 49
-0.434783
  0
ENDTAB
  0
TABLE
  2
LAYER
 70
     5
  0
LAYER
  2
0
 70
    64
 62
     7
  6
CONTINUOUS
  0
LAYER
  2
HIDDEN
 70
    64
 62
     2
  6
HIDDEN
  0
LAYER
  2
DASHDOT
 70
    64
 62
     6
  6
DASHDOT
  0
LAYER
  2
DIVIDE
 70
    64
 62
     5
  6
DIVIDE
  0
ENDTAB
  0
TABLE
  2
STYLE
 70
     1
  0
STYLE
  2
STANDARD
 70
    64
 40
0.0
 41
1.0
 50
0.0
 71
     0
 42
0.2
  3
TXT
  4

  0
STYLE
  2
KANJI
 70
    64
 40
0.0
 41
1.0
 50
0.0
 71
     0
 42
0.2
  3
TXT
  4
BIGFONT
  0
ENDTAB
  0
TABLE
  2
VIEW
 70
     0
  0
ENDTAB
  0
ENDSEC
  0
SECTION
  2
BLOCKS
  0
ENDSEC
  0
SECTION
  2
ENTITIES
  0
TEXT
  8
0
 62
     7
 10
4.347826
 20
4.782609
 40
1.739130
 41
1.000000
  1
KHK BSS0.5-24B
  7
KANJI
 50
0.000000
 51
0.000000
  0
TEXT
  8
0
 62
     7
 10
4.347826
 20
2.173913
 40
1.739130
 41
1.000000
  1

  7
KANJI
 50
0.000000
 51
0.000000
  0
TEXT
  8
0
 62
     7
 10
4.347826
 20
78.260872
 40
1.956522
 41
1.000000
  1

  7
KANJI
 50
0.000000
 51
0.000000
  0
POLYLINE
  8
0
 62
     7
 66
     1
 70
     2
  0
VERTEX
  8
0
 10
104.347824
 20
78.260872
  0
VERTEX
  8
0
 10
102.652168
 20
81.200005
  0
VERTEX
  8
0
 10
109.434784
 20
81.200005
  0
VERTEX
  8
0
 10
107.739128
 20
78.260872
  0
VERTEX
  8
0
 10
106.043480
 20
81.200005
  0
VERTEX
  8
0
 10
104.347824
 20
78.260872
  0
SEQEND
  0
LINE
  8
0
 62
     5
 10
66.956520
 20
41.934784
 11
66.956520
 21
28.934784
  0
POLYLINE
  8
0
 62
     5
 66
     1
 70
     2
  0
VERTEX
  8
0
 10
67.391304
 20
40.413044
  0
VERTEX
  8
0
 10
66.956520
 20
41.934784
  0
VERTEX
  8
0
 10
66.521744
 20
40.413044
  0
SEQEND
  0
POLYLINE
  8
0
 62
     5
 66
     1
 70
     2
  0
VERTEX
  8
0
 10
66.521744
 20
30.456524
  0
VERTEX
  8
0
 10
66.956520
 20
28.934784
  0
VERTEX
  8
0
 10
67.391304
 20
30.456524
  0
SEQEND
  0
LINE
  8
0
 62
     5
 10
45.217392
 20
41.934784
 11
67.608696
 21
41.934784
  0
LINE
  8
0
 62
     5
 10
45.217392
 20
28.934784
 11
67.608696
 21
28.934784
  0
TEXT
  8
0
 62
     7
 10
66.521744
 20
32.880436
 40
2.173913
 41
1.000000
  1
%%c13
  7
KANJI
 50
90.000000
 51
0.000000
  0
LINE
  8
DASHDOT
 62
     7
 10
33.913044
 20
41.434784
 11
39.521740
 21
41.434784
  0
LINE
  8
DASHDOT
 62
     7
 10
33.913044
 20
29.434784
 11
39.521740
 21
29.434784
  0
LINE
  8
DASHDOT
 62
     7
 10
33.913044
 20
35.434784
 11
46.521740
 21
35.434784
  0
LINE
  8
0
 62
     5
 10
38.217392
 20
41.634785
 11
38.217392
 21
41.934784
  0
LINE
  8
0
 62
     5
 10
35.217392
 20
41.634785
 11
35.217392
 21
41.934784
  0
LINE
  8
0
 62
     5
 10
38.617393
 20
40.434784
 11
45.217392
 21
40.434784
  0
LINE
  8
0
 62
     5
 10
38.617393
 20
30.434784
 11
45.217392
 21
30.434784
  0
LINE
  8
0
 62
     5
 10
37.917393
 20
41.934784
 11
45.217392
 21
41.934784
  0
LINE
  8
0
 62
     5
 10
37.917393
 20
28.934784
 11
45.217392
 21
28.934784
  0
LINE
  8
0
 62
     4
 10
35.217392
 20
40.809784
 11
38.217392
 21
40.809784
  0
LINE
  8
0
 62
     4
 10
35.217392
 20
30.059784
 11
38.217392
 21
30.059784
  0
LINE
  8
0
 62
     4
 10
44.917393
 20
33.434784
 11
45.217392
 21
33.134785
  0
LINE
  8
0
 62
     4
 10
44.917393
 20
37.434784
 11
45.217392
 21
37.734783
  0
LINE
  8
0
 62
     4
 10
35.517391
 20
37.434784
 11
35.517391
 21
33.434784
  0
POLYLINE
  8
0
 62
     4
 66
     1
 70
     2
  0
VERTEX
  8
0
 10
35.217392
 20
33.134785
  0
VERTEX
  8
0
 10
35.517391
 20
33.434784
  0
VERTEX
  8
0
 10
44.917393
 20
33.434784
  0
VERTEX
  8
0
 10
44.917393
 20
37.434784
  0
VERTEX
  8
0
 10
35.517391
 20
37.434784
  0
VERTEX
  8
0
 10
35.217392
 20
37.734783
  0
SEQEND
  0
ARC
  8
0
 62
     4
 10
38.617393
 20
40.834785
 40
0.400000
 50
180.0
 51
270.0
  0
ARC
  8
0
 62
     4
 10
38.617393
 20
30.034784
 40
0.400000
 50
90.0
 51
180.0
  0
LINE
  8
0
 62
     5
 10
45.217392
 20
40.134785
 11
45.217392
 21
41.934784
  0
LINE
  8
0
 62
     5
 10
35.217392
 20
53.673912
 11
38.217392
 21
53.673912
  0
POLYLINE
  8
0
 62
     5
 66
     1
 70
     2
  0
VERTEX
  8
0
 10
36.739132
 20
54.108696
  0
VERTEX
  8
0
 10
35.217392
 20
53.673912
  0
VERTEX
  8
0
 10
36.739132
 20
53.239132
  0
SEQEND
  0
POLYLINE
  8
0
 62
     5
 66
     1
 70
     2
  0
VERTEX
  8
0
 10
36.695652
 20
53.239132
  0
VERTEX
  8
0
 10
38.217392
 20
53.673912
  0
VERTEX
  8
0
 10
36.695652
 20
54.108696
  0
SEQEND
  0
LINE
  8
0
 62
     5
 10
38.217392
 20
41.934784
 11
38.217392
 21
54.326088
  0
TEXT
  8
0
 62
     7
 10
36.010872
 20
54.021740
 40
2.173913
 41
1.000000
  1
3
  7
KANJI
 50
0.000000
 51
0.000000
  0
LINE
  8
0
 62
     5
 10
35.217392
 20
57.152176
 11
45.217392
 21
57.152176
  0
POLYLINE
  8
0
 62
     5
 66
     1
 70
     2
  0
VERTEX
  8
0
 10
36.739132
 20
57.586960
  0
VERTEX
  8
0
 10
35.217392
 20
57.152176
  0
VERTEX
  8
0
 10
36.739132
 20
56.717392
  0
SEQEND
  0
POLYLINE
  8
0
 62
     5
 66
     1
 70
     2
  0
VERTEX
  8
0
 10
43.695652
 20
56.717392
  0
VERTEX
  8
0
 10
45.217392
 20
57.152176
  0
VERTEX
  8
0
 10
43.695652
 20
57.586960
  0
SEQEND
  0
LINE
  8
0
 62
     5
 10
35.217392
 20
41.934784
 11
35.217392
 21
57.804352
  0
LINE
  8
0
 62
     5
 10
45.217392
 20
41.934784
 11
45.217392
 21
57.804352
  0
TEXT
  8
0
 62
     7
 10
38.804348
 20
57.500000
 40
2.173913
 41
1.000000
  1
10
  7
KANJI
 50
0.000000
 51
0.000000
  0
LINE
  8
0
 62
     5
 10
38.217392
 20
53.673912
 11
45.217392
 21
53.673912
  0
POLYLINE
  8
0
 62
     5
 66
     1
 70
     2
  0
VERTEX
  8
0
 10
39.739132
 20
54.108696
  0
VERTEX
  8
0
 10
38.217392
 20
53.673912
  0
VERTEX
  8
0
 10
39.739132
 20
53.239132
  0
SEQEND
  0
POLYLINE
  8
0
 62
     5
 66
     1
 70
     2
  0
VERTEX
  8
0
 10
43.695652
 20
53.239132
  0
VERTEX
  8
0
 10
45.217392
 20
53.673912
  0
VERTEX
  8
0
 10
43.695652
 20
54.108696
  0
SEQEND
  0
TEXT
  8
0
 62
     7
 10
41.010872
 20
54.021740
 40
2.173913
 41
1.000000
  1
7
  7
KANJI
 50
0.000000
 51
0.000000
  0
LINE
  8
0
 62
     5
 10
63.478264
 20
40.434784
 11
63.478264
 21
30.434784
  0
POLYLINE
  8
0
 62
     5
 66
     1
 70
     2
  0
VERTEX
  8
0
 10
63.913044
 20
38.913044
  0
VERTEX
  8
0
 10
63.478264
 20
40.434784
  0
VERTEX
  8
0
 10
63.043480
 20
38.913044
  0
SEQEND
  0
POLYLINE
  8
0
 62
     5
 66
     1
 70
     2
  0
VERTEX
  8
0
 10
63.043480
 20
31.956524
  0
VERTEX
  8
0
 10
63.478264
 20
30.434784
  0
VERTEX
  8
0
 10
63.913044
 20
31.956524
  0
SEQEND
  0
LINE
  8
0
 62
     5
 10
45.217392
 20
40.434784
 11
64.130432
 21
40.434784
  0
LINE
  8
0
 62
     5
 10
45.217392
 20
30.434784
 11
64.130432
 21
30.434784
  0
TEXT
  8
0
 62
     7
 10
63.043480
 20
32.880436
 40
2.173913
 41
1.000000
  1
%%c10
  7
KANJI
 50
90.000000
 51
0.000000
  0
POLYLINE
  8
DASHDOT
 62
     7
 66
     1
 70
     2
  0
VERTEX
  8
DASHDOT
 10
41.717392
 20
41.739132
  0
VERTEX
  8
DASHDOT
 10
41.717392
 20
36.130436
  0
SEQEND
  0
POLYLINE
  8
0
 62
     4
 66
     1
 70
     2
  0
VERTEX
  8
0
 10
43.217392
 20
40.434784
  0
VERTEX
  8
0
 10
43.217392
 20
37.434784
  0
SEQEND
  0
POLYLINE
  8
0
 62
     4
 66
     1
 70
     2
  0
VERTEX
  8
0
 10
40.217392
 20
40.434784
  0
VERTEX
  8
0
 10
40.217392
 20
37.434784
  0
SEQEND
  0
POLYLINE
  8
0
 62
     4
 66
     1
 70
     2
  0
VERTEX
  8
0
 10
42.947392
 20
40.434784
  0
VERTEX
  8
0
 10
42.947392
 20
37.434784
  0
SEQEND
  0
POLYLINE
  8
0
 62
     4
 66
     1
 70
     2
  0
VERTEX
  8
0
 10
40.487392
 20
40.434784
  0
VERTEX
  8
0
 10
40.487392
 20
37.434784
  0
SEQEND
  0
POLYLINE
  8
0
 62
     4
 66
     1
 70
     2
  0
VERTEX
  8
0
 10
82.630432
 20
36.757660
  0
VERTEX
  8
0
 10
82.630432
 20
40.204479
  0
SEQEND
  0
POLYLINE
  8
0
 62
     4
 66
     1
 70
     2
  0
VERTEX
  8
0
 10
85.630432
 20
36.757660
  0
VERTEX
  8
0
 10
85.630432
 20
40.204479
  0
SEQEND
  0
POLYLINE
  8
0
 62
     4
 66
     1
 70
     2
  0
VERTEX
  8
0
 10
82.900436
 20
37.011837
  0
VERTEX
  8
0
 10
82.900436
 20
40.281132
  0
SEQEND
  0
POLYLINE
  8
0
 62
     4
 66
     1
 70
     2
  0
VERTEX
  8
0
 10
85.360435
 20
37.011837
  0
VERTEX
  8
0
 10
85.360435
 20
40.281132
  0
SEQEND
  0
POLYLINE
  8
0
 62
     5
 66
     1
 70
     2
  0
VERTEX
  8
0
 10
84.130432
 20
40.434784
  0
VERTEX
  8
0
 10
76.304352
 20
53.478264
  0
VERTEX
  8
0
 10
81.086960
 20
53.478264
  0
SEQEND
  0
POLYLINE
  8
0
 62
     5
 66
     1
 70
     2
  0
VERTEX
  8
0
 10
82.974686
 20
41.515972
  0
VERTEX
  8
0
 10
84.130432
 20
40.434784
  0
VERTEX
  8
0
 10
83.720329
 20
41.963360
  0
SEQEND
  0
TEXT
  8
0
 62
     7
 10
76.739136
 20
53.913044
 40
2.086957
 41
1.000000
  1
M3
  7
KANJI
 50
0.000000
 51
0.000000
  0
LINE
  8
0
 62
     5
 10
56.521740
 20
30.826088
 11
56.521740
 21
40.043480
  0
POLYLINE
  8
0
 62
     5
 66
     1
 70
     2
  0
VERTEX
  8
0
 10
56.086960
 20
38.956524
  0
VERTEX
  8
0
 10
56.521740
 20
37.434784
  0
VERTEX
  8
0
 10
56.956520
 20
38.956524
  0
SEQEND
  0
POLYLINE
  8
0
 62
     5
 66
     1
 70
     2
  0
VERTEX
  8
0
 10
56.956520
 20
31.913044
  0
VERTEX
  8
0
 10
56.521740
 20
33.434784
  0
VERTEX
  8
0
 10
56.086960
 20
31.913044
  0
SEQEND
  0
LINE
  8
0
 62
     5
 10
45.217392
 20
37.434784
 11
57.173912
 21
37.434784
  0
LINE
  8
0
 62
     5
 10
45.217392
 20
33.434784
 11
57.173912
 21
33.434784
  0
TEXT
  8
0
 62
     7
 10
56.086960
 20
32.173916
 40
2.173913
 41
1.000000
  1
%%c4H8
  7
KANJI
 50
90.000000
 51
0.000000
  0
POLYLINE
  8
0
 62
     4
 66
     1
 70
     2
  0
VERTEX
  8
0
 10
35.217392
 20
33.134785
  0
VERTEX
  8
0
 10
35.217392
 20
29.234783
  0
VERTEX
  8
0
 10
35.517391
 20
28.934784
  0
VERTEX
  8
0
 10
37.917393
 20
28.934784
  0
VERTEX
  8
0
 10
38.217392
 20
29.234783
  0
VERTEX
  8
0
 10
38.217392
 20
30.034784
  0
SEQEND
  0
POLYLINE
  8
0
 62
     4
 66
     1
 70
     2
  0
VERTEX
  8
0
 10
38.617393
 20
30.434784
  0
VERTEX
  8
0
 10
44.917393
 20
30.434784
  0
VERTEX
  8
0
 10
45.217392
 20
30.734783
  0
VERTEX
  8
0
 10
45.217392
 20
40.134785
  0
VERTEX
  8
0
 10
44.917393
 20
40.434784
  0
VERTEX
  8
0
 10
38.617393
 20
40.434784
  0
SEQEND
  0
POLYLINE
  8
0
 62
     4
 66
     1
 70
     2
  0
VERTEX
  8
0
 10
38.217392
 20
40.834785
  0
VERTEX
  8
0
 10
38.217392
 20
41.634785
  0
VERTEX
  8
0
 10
37.917393
 20
41.934784
  0
VERTEX
  8
0
 10
35.517391
 20
41.934784
  0
VERTEX
  8
0
 10
35.217392
 20
41.634785
  0
VERTEX
  8
0
 10
35.217392
 20
33.134785
  0
SEQEND
  0
CIRCLE
  8
0
 62
     4
 10
84.130432
 20
35.434784
 40
2.000000
  0
LINE
  8
DASHDOT
 62
     7
 10
84.130432
 20
42.608696
 11
84.130432
 21
29.130436
  0
LINE
  8
DASHDOT
 62
     7
 10
77.826088
 20
35.434784
 11
90.434784
 21
35.434784
  0
CIRCLE
  8
0
 62
     4
 10
84.130432
 20
35.434784
 40
5.000000
  0
LINE
  8
0
 62
     5
 10
47.826088
 20
44.108696
 11
39.108696
 21
44.108696
  0
POLYLINE
  8
0
 62
     5
 66
     1
 70
     2
  0
VERTEX
  8
0
 10
40.195652
 20
43.673912
  0
VERTEX
  8
0
 10
41.717392
 20
44.108696
  0
VERTEX
  8
0
 10
40.195652
 20
44.543480
  0
SEQEND
  0
POLYLINE
  8
0
 62
     5
 66
     1
 70
     2
  0
VERTEX
  8
0
 10
46.739132
 20
44.543480
  0
VERTEX
  8
0
 10
45.217392
 20
44.108696
  0
VERTEX
  8
0
 10
46.739132
 20
43.673912
  0
SEQEND
  0
LINE
  8
0
 62
     5
 10
41.717392
 20
41.934784
 11
41.717392
 21
44.760872
  0
TEXT
  8
0
 62
     7
 10
46.521740
 20
44.456524
 40
2.173913
 41
1.000000
  1
3.5
  7
KANJI
 50
0.000000
 51
0.000000
  0
LINE
  8
0
 62
     5
 10
41.717392
 20
40.434784
 11
41.717392
 21
41.934784
  0
ENDSEC
  0
EOF
