  0
SECTION
  2
HEADER
  9
$ACADVER
  1
AC1003
  9
$INSBASE
 10
0.000000
 20
0.000000
  9
$EXTMIN
 10
0.000000
 20
0.000000
  9
$EXTMAX
 10
177.782609
 20
122.934783
  9
$LIMMIN
 10
0.000000
 20
0.000000
  9
$LIMMAX
 10
177.782609
 20
122.934783
  9
$VIEWCTR
 10
88.891304
 20
61.467391
  9
$VIEWSIZE
 40
122.934783
  0
ENDSEC
  0
SECTION
  2
TABLES
  0
TABLE
  2
LTYPE
 70
     4
  0
LTYPE
  2
CONTINUOUS
 70
    64
  3
SolidLine
 72
    65
 73
     0
 40
0.0
  0
LTYPE
  2
HIDDEN
 70
    64
  3
------------------------
 72
    65
 73
     2
 40
1.891304
 49
1.260870
 49
-0.630435
  0
LTYPE
  2
DASHDOT
 70
    64
  3
--?--?--?--?--?--?--?--
 72
    65
 73
     4
 40
7.565217
 49
5.673913
 49
-0.630435
 49
0.630435
 49
-0.630435
  0
LTYPE
  2
DIVIDE
 70
    64
  3
--??--??--??--??--??--
 72
    65
 73
     6
 40
9.456522
 49
6.304348
 49
-0.630435
 49
0.630435
 49
-0.630435
 49
0.630435
 49
-0.630435
  0
ENDTAB
  0
TABLE
  2
LAYER
 70
     5
  0
LAYER
  2
0
 70
    64
 62
     7
  6
CONTINUOUS
  0
LAYER
  2
HIDDEN
 70
    64
 62
     2
  6
HIDDEN
  0
LAYER
  2
DASHDOT
 70
    64
 62
     6
  6
DASHDOT
  0
LAYER
  2
DIVIDE
 70
    64
 62
     5
  6
DIVIDE
  0
ENDTAB
  0
TABLE
  2
STYLE
 70
     1
  0
STYLE
  2
STANDARD
 70
    64
 40
0.0
 41
1.0
 50
0.0
 71
     0
 42
0.2
  3
TXT
  4

  0
STYLE
  2
KANJI
 70
    64
 40
0.0
 41
1.0
 50
0.0
 71
     0
 42
0.2
  3
TXT
  4
BIGFONT
  0
ENDTAB
  0
TABLE
  2
VIEW
 70
     0
  0
ENDTAB
  0
ENDSEC
  0
SECTION
  2
BLOCKS
  0
ENDSEC
  0
SECTION
  2
ENTITIES
  0
TEXT
  8
0
 62
     7
 10
6.304348
 20
6.934783
 40
2.521739
 41
1.000000
  1
KHK BSS1-18B
  7
KANJI
 50
0.000000
 51
0.000000
  0
TEXT
  8
0
 62
     7
 10
6.304348
 20
3.152174
 40
2.521739
 41
1.000000
  1

  7
KANJI
 50
0.000000
 51
0.000000
  0
TEXT
  8
0
 62
     7
 10
6.304348
 20
113.478264
 40
2.836957
 41
1.000000
  1

  7
KANJI
 50
0.000000
 51
0.000000
  0
POLYLINE
  8
0
 62
     7
 66
     1
 70
     2
  0
VERTEX
  8
0
 10
151.304352
 20
113.478264
  0
VERTEX
  8
0
 10
148.845657
 20
117.740005
  0
VERTEX
  8
0
 10
158.680435
 20
117.740005
  0
VERTEX
  8
0
 10
156.221741
 20
113.478264
  0
VERTEX
  8
0
 10
153.763046
 20
117.740005
  0
VERTEX
  8
0
 10
151.304352
 20
113.478264
  0
SEQEND
  0
LINE
  8
0
 62
     5
 10
96.586960
 20
61.380436
 11
96.586960
 21
41.380436
  0
POLYLINE
  8
0
 62
     5
 66
     1
 70
     2
  0
VERTEX
  8
0
 10
97.217392
 20
59.173912
  0
VERTEX
  8
0
 10
96.586960
 20
61.380436
  0
VERTEX
  8
0
 10
95.956520
 20
59.173912
  0
SEQEND
  0
POLYLINE
  8
0
 62
     5
 66
     1
 70
     2
  0
VERTEX
  8
0
 10
95.956520
 20
43.586960
  0
VERTEX
  8
0
 10
96.586960
 20
41.380436
  0
VERTEX
  8
0
 10
97.217392
 20
43.586960
  0
SEQEND
  0
LINE
  8
0
 62
     5
 10
65.065216
 20
61.380436
 11
97.532608
 21
61.380436
  0
LINE
  8
0
 62
     5
 10
65.065216
 20
41.380436
 11
97.532608
 21
41.380436
  0
TEXT
  8
0
 62
     7
 10
95.956520
 20
47.676632
 40
3.152174
 41
1.000000
  1
%%c20
  7
KANJI
 50
90.000000
 51
0.000000
  0
LINE
  8
DASHDOT
 62
     7
 10
49.173912
 20
60.380436
 11
58.956520
 21
60.380436
  0
LINE
  8
DASHDOT
 62
     7
 10
49.173912
 20
42.380436
 11
58.956520
 21
42.380436
  0
LINE
  8
DASHDOT
 62
     7
 10
49.173912
 20
51.380436
 11
66.956520
 21
51.380436
  0
LINE
  8
0
 62
     5
 10
57.065216
 20
60.880436
 11
57.065216
 21
61.380436
  0
LINE
  8
0
 62
     5
 10
51.065216
 20
60.880436
 11
51.065216
 21
61.380436
  0
LINE
  8
0
 62
     5
 10
57.565216
 20
58.880436
 11
65.065216
 21
58.880436
  0
LINE
  8
0
 62
     5
 10
57.565216
 20
43.880436
 11
65.065216
 21
43.880436
  0
LINE
  8
0
 62
     5
 10
56.565216
 20
61.380436
 11
65.065216
 21
61.380436
  0
LINE
  8
0
 62
     5
 10
56.565216
 20
41.380436
 11
65.065216
 21
41.380436
  0
LINE
  8
0
 62
     4
 10
51.065216
 20
59.130436
 11
57.065216
 21
59.130436
  0
LINE
  8
0
 62
     4
 10
51.065216
 20
43.630436
 11
57.065216
 21
43.630436
  0
LINE
  8
0
 62
     4
 10
64.565216
 20
48.380436
 11
65.065216
 21
47.880436
  0
LINE
  8
0
 62
     4
 10
64.565216
 20
54.380436
 11
65.065216
 21
54.880436
  0
LINE
  8
0
 62
     4
 10
51.565216
 20
54.380436
 11
51.565216
 21
48.380436
  0
POLYLINE
  8
0
 62
     4
 66
     1
 70
     2
  0
VERTEX
  8
0
 10
51.065216
 20
47.880436
  0
VERTEX
  8
0
 10
51.565216
 20
48.380436
  0
VERTEX
  8
0
 10
64.565216
 20
48.380436
  0
VERTEX
  8
0
 10
64.565216
 20
54.380436
  0
VERTEX
  8
0
 10
51.565216
 20
54.380436
  0
VERTEX
  8
0
 10
51.065216
 20
54.880436
  0
SEQEND
  0
ARC
  8
0
 62
     4
 10
57.565216
 20
59.380436
 40
0.500000
 50
180.0
 51
270.0
  0
ARC
  8
0
 62
     4
 10
57.565216
 20
43.380436
 40
0.500000
 50
90.0
 51
180.0
  0
LINE
  8
0
 62
     5
 10
65.065216
 20
58.380436
 11
65.065216
 21
61.380436
  0
LINE
  8
0
 62
     5
 10
51.065216
 20
78.402176
 11
57.065216
 21
78.402176
  0
POLYLINE
  8
0
 62
     5
 66
     1
 70
     2
  0
VERTEX
  8
0
 10
53.271736
 20
79.032608
  0
VERTEX
  8
0
 10
51.065216
 20
78.402176
  0
VERTEX
  8
0
 10
53.271736
 20
77.771744
  0
SEQEND
  0
POLYLINE
  8
0
 62
     5
 66
     1
 70
     2
  0
VERTEX
  8
0
 10
54.858696
 20
77.771744
  0
VERTEX
  8
0
 10
57.065216
 20
78.402176
  0
VERTEX
  8
0
 10
54.858696
 20
79.032608
  0
SEQEND
  0
LINE
  8
0
 62
     5
 10
57.065216
 20
61.380436
 11
57.065216
 21
79.347824
  0
TEXT
  8
0
 62
     7
 10
53.040760
 20
78.906525
 40
3.152174
 41
1.000000
  1
6
  7
KANJI
 50
0.000000
 51
0.000000
  0
LINE
  8
0
 62
     5
 10
51.065216
 20
83.445648
 11
65.065216
 21
83.445648
  0
POLYLINE
  8
0
 62
     5
 66
     1
 70
     2
  0
VERTEX
  8
0
 10
53.271736
 20
84.076088
  0
VERTEX
  8
0
 10
51.065216
 20
83.445648
  0
VERTEX
  8
0
 10
53.271736
 20
82.815216
  0
SEQEND
  0
POLYLINE
  8
0
 62
     5
 66
     1
 70
     2
  0
VERTEX
  8
0
 10
62.858696
 20
82.815216
  0
VERTEX
  8
0
 10
65.065216
 20
83.445648
  0
VERTEX
  8
0
 10
62.858696
 20
84.076088
  0
SEQEND
  0
LINE
  8
0
 62
     5
 10
51.065216
 20
61.380436
 11
51.065216
 21
84.391304
  0
LINE
  8
0
 62
     5
 10
65.065216
 20
61.380436
 11
65.065216
 21
84.391304
  0
TEXT
  8
0
 62
     7
 10
56.016304
 20
83.949997
 40
3.152174
 41
1.000000
  1
14
  7
KANJI
 50
0.000000
 51
0.000000
  0
LINE
  8
0
 62
     5
 10
57.065216
 20
78.402176
 11
65.065216
 21
78.402176
  0
POLYLINE
  8
0
 62
     5
 66
     1
 70
     2
  0
VERTEX
  8
0
 10
59.271736
 20
79.032608
  0
VERTEX
  8
0
 10
57.065216
 20
78.402176
  0
VERTEX
  8
0
 10
59.271736
 20
77.771744
  0
SEQEND
  0
POLYLINE
  8
0
 62
     5
 66
     1
 70
     2
  0
VERTEX
  8
0
 10
62.858696
 20
77.771744
  0
VERTEX
  8
0
 10
65.065216
 20
78.402176
  0
VERTEX
  8
0
 10
62.858696
 20
79.032608
  0
SEQEND
  0
TEXT
  8
0
 62
     7
 10
60.040760
 20
78.906525
 40
3.152174
 41
1.000000
  1
8
  7
KANJI
 50
0.000000
 51
0.000000
  0
LINE
  8
0
 62
     5
 10
91.543472
 20
58.880436
 11
91.543472
 21
43.880436
  0
POLYLINE
  8
0
 62
     5
 66
     1
 70
     2
  0
VERTEX
  8
0
 10
92.173912
 20
56.673912
  0
VERTEX
  8
0
 10
91.543472
 20
58.880436
  0
VERTEX
  8
0
 10
90.913040
 20
56.673912
  0
SEQEND
  0
POLYLINE
  8
0
 62
     5
 66
     1
 70
     2
  0
VERTEX
  8
0
 10
90.913040
 20
46.086960
  0
VERTEX
  8
0
 10
91.543472
 20
43.880436
  0
VERTEX
  8
0
 10
92.173912
 20
46.086960
  0
SEQEND
  0
LINE
  8
0
 62
     5
 10
65.065216
 20
58.880436
 11
92.489128
 21
58.880436
  0
LINE
  8
0
 62
     5
 10
65.065216
 20
43.880436
 11
92.489128
 21
43.880436
  0
TEXT
  8
0
 62
     7
 10
90.913040
 20
47.676632
 40
3.152174
 41
1.000000
  1
%%c15
  7
KANJI
 50
90.000000
 51
0.000000
  0
POLYLINE
  8
DASHDOT
 62
     7
 66
     1
 70
     2
  0
VERTEX
  8
DASHDOT
 10
61.065216
 20
60.771740
  0
VERTEX
  8
DASHDOT
 10
61.065216
 20
52.489132
  0
SEQEND
  0
POLYLINE
  8
0
 62
     4
 66
     1
 70
     2
  0
VERTEX
  8
0
 10
63.065216
 20
58.880436
  0
VERTEX
  8
0
 10
63.065216
 20
54.380436
  0
SEQEND
  0
POLYLINE
  8
0
 62
     4
 66
     1
 70
     2
  0
VERTEX
  8
0
 10
59.065216
 20
58.880436
  0
VERTEX
  8
0
 10
59.065216
 20
54.380436
  0
SEQEND
  0
POLYLINE
  8
0
 62
     4
 66
     1
 70
     2
  0
VERTEX
  8
0
 10
62.685215
 20
58.880436
  0
VERTEX
  8
0
 10
62.685215
 20
54.380436
  0
SEQEND
  0
POLYLINE
  8
0
 62
     4
 66
     1
 70
     2
  0
VERTEX
  8
0
 10
59.445217
 20
58.880436
  0
VERTEX
  8
0
 10
59.445217
 20
54.380436
  0
SEQEND
  0
POLYLINE
  8
0
 62
     4
 66
     1
 70
     2
  0
VERTEX
  8
0
 10
119.739128
 20
53.616505
  0
VERTEX
  8
0
 10
119.739128
 20
58.608852
  0
SEQEND
  0
POLYLINE
  8
0
 62
     4
 66
     1
 70
     2
  0
VERTEX
  8
0
 10
123.739128
 20
53.616505
  0
VERTEX
  8
0
 10
123.739128
 20
58.608852
  0
SEQEND
  0
POLYLINE
  8
0
 62
     4
 66
     1
 70
     2
  0
VERTEX
  8
0
 10
120.119125
 20
53.905430
  0
VERTEX
  8
0
 10
120.119125
 20
58.703384
  0
SEQEND
  0
POLYLINE
  8
0
 62
     4
 66
     1
 70
     2
  0
VERTEX
  8
0
 10
123.359131
 20
53.905430
  0
VERTEX
  8
0
 10
123.359131
 20
58.703384
  0
SEQEND
  0
POLYLINE
  8
0
 62
     5
 66
     1
 70
     2
  0
VERTEX
  8
0
 10
121.739128
 20
58.880436
  0
VERTEX
  8
0
 10
110.391304
 20
77.793480
  0
VERTEX
  8
0
 10
117.326088
 20
77.793480
  0
SEQEND
  0
POLYLINE
  8
0
 62
     5
 66
     1
 70
     2
  0
VERTEX
  8
0
 10
120.063286
 20
60.448158
  0
VERTEX
  8
0
 10
121.739128
 20
58.880436
  0
VERTEX
  8
0
 10
121.144478
 20
61.096870
  0
SEQEND
  0
TEXT
  8
0
 62
     7
 10
111.021736
 20
78.423912
 40
3.026087
 41
1.000000
  1
M4
  7
KANJI
 50
0.000000
 51
0.000000
  0
LINE
  8
0
 62
     5
 10
81.456520
 20
44.597828
 11
81.456520
 21
58.163044
  0
POLYLINE
  8
0
 62
     5
 66
     1
 70
     2
  0
VERTEX
  8
0
 10
80.826088
 20
56.586960
  0
VERTEX
  8
0
 10
81.456520
 20
54.380436
  0
VERTEX
  8
0
 10
82.086952
 20
56.586960
  0
SEQEND
  0
POLYLINE
  8
0
 62
     5
 66
     1
 70
     2
  0
VERTEX
  8
0
 10
82.086952
 20
46.173912
  0
VERTEX
  8
0
 10
81.456520
 20
48.380436
  0
VERTEX
  8
0
 10
80.826088
 20
46.173912
  0
SEQEND
  0
LINE
  8
0
 62
     5
 10
65.065216
 20
54.380436
 11
82.402176
 21
54.380436
  0
LINE
  8
0
 62
     5
 10
65.065216
 20
48.380436
 11
82.402176
 21
48.380436
  0
TEXT
  8
0
 62
     7
 10
80.826088
 20
46.652176
 40
3.152174
 41
1.000000
  1
%%c6H7
  7
KANJI
 50
90.000000
 51
0.000000
  0
POLYLINE
  8
0
 62
     4
 66
     1
 70
     2
  0
VERTEX
  8
0
 10
51.065216
 20
47.880436
  0
VERTEX
  8
0
 10
51.065216
 20
41.880436
  0
VERTEX
  8
0
 10
51.565216
 20
41.380436
  0
VERTEX
  8
0
 10
56.565216
 20
41.380436
  0
VERTEX
  8
0
 10
57.065216
 20
41.880436
  0
VERTEX
  8
0
 10
57.065216
 20
43.380436
  0
SEQEND
  0
POLYLINE
  8
0
 62
     4
 66
     1
 70
     2
  0
VERTEX
  8
0
 10
57.565216
 20
43.880436
  0
VERTEX
  8
0
 10
64.565216
 20
43.880436
  0
VERTEX
  8
0
 10
65.065216
 20
44.380436
  0
VERTEX
  8
0
 10
65.065216
 20
58.380436
  0
VERTEX
  8
0
 10
64.565216
 20
58.880436
  0
VERTEX
  8
0
 10
57.565216
 20
58.880436
  0
SEQEND
  0
POLYLINE
  8
0
 62
     4
 66
     1
 70
     2
  0
VERTEX
  8
0
 10
57.065216
 20
59.380436
  0
VERTEX
  8
0
 10
57.065216
 20
60.880436
  0
VERTEX
  8
0
 10
56.565216
 20
61.380436
  0
VERTEX
  8
0
 10
51.565216
 20
61.380436
  0
VERTEX
  8
0
 10
51.065216
 20
60.880436
  0
VERTEX
  8
0
 10
51.065216
 20
47.880436
  0
SEQEND
  0
CIRCLE
  8
0
 62
     4
 10
121.739128
 20
51.380436
 40
3.000000
  0
LINE
  8
DASHDOT
 62
     7
 10
121.739128
 20
62.032608
 11
121.739128
 21
41.989132
  0
LINE
  8
DASHDOT
 62
     7
 10
112.347824
 20
51.380436
 11
131.130432
 21
51.380436
  0
CIRCLE
  8
0
 62
     4
 10
121.739128
 20
51.380436
 40
7.500000
  0
LINE
  8
0
 62
     5
 10
61.065216
 20
64.532608
 11
65.065216
 21
64.532608
  0
POLYLINE
  8
0
 62
     5
 66
     1
 70
     2
  0
VERTEX
  8
0
 10
63.271736
 20
65.163048
  0
VERTEX
  8
0
 10
61.065216
 20
64.532608
  0
VERTEX
  8
0
 10
63.271736
 20
63.902176
  0
SEQEND
  0
POLYLINE
  8
0
 62
     5
 66
     1
 70
     2
  0
VERTEX
  8
0
 10
62.858696
 20
63.902176
  0
VERTEX
  8
0
 10
65.065216
 20
64.532608
  0
VERTEX
  8
0
 10
62.858696
 20
65.163048
  0
SEQEND
  0
LINE
  8
0
 62
     5
 10
61.065216
 20
61.380436
 11
61.065216
 21
65.478264
  0
TEXT
  8
0
 62
     7
 10
62.040760
 20
65.036957
 40
3.152174
 41
1.000000
  1
4
  7
KANJI
 50
0.000000
 51
0.000000
  0
LINE
  8
0
 62
     5
 10
61.065216
 20
58.880436
 11
61.065216
 21
61.380436
  0
ENDSEC
  0
EOF
