  0
SECTION
  2
HEADER
  9
$ACADVER
  1
AC1003
  9
$INSBASE
 10
0.000000
 20
0.000000
  9
$EXTMIN
 10
0.000000
 20
0.000000
  9
$EXTMAX
 10
423.000000
 20
292.500000
  9
$LIMMIN
 10
0.000000
 20
0.000000
  9
$LIMMAX
 10
423.000000
 20
292.500000
  9
$VIEWCTR
 10
211.500000
 20
146.250000
  9
$VIEWSIZE
 40
292.500000
  0
ENDSEC
  0
SECTION
  2
TABLES
  0
TABLE
  2
LTYPE
 70
     4
  0
LTYPE
  2
CONTINUOUS
 70
    64
  3
SolidLine
 72
    65
 73
     0
 40
0.0
  0
LTYPE
  2
HIDDEN
 70
    64
  3
------------------------
 72
    65
 73
     2
 40
4.500000
 49
3.000000
 49
-1.500000
  0
LTYPE
  2
DASHDOT
 70
    64
  3
--?--?--?--?--?--?--?--
 72
    65
 73
     4
 40
18.000000
 49
13.500000
 49
-1.500000
 49
1.500000
 49
-1.500000
  0
LTYPE
  2
DIVIDE
 70
    64
  3
--??--??--??--??--??--
 72
    65
 73
     6
 40
22.500000
 49
15.000000
 49
-1.500000
 49
1.500000
 49
-1.500000
 49
1.500000
 49
-1.500000
  0
ENDTAB
  0
TABLE
  2
LAYER
 70
     5
  0
LAYER
  2
0
 70
    64
 62
     7
  6
CONTINUOUS
  0
LAYER
  2
HIDDEN
 70
    64
 62
     2
  6
HIDDEN
  0
LAYER
  2
DASHDOT
 70
    64
 62
     6
  6
DASHDOT
  0
LAYER
  2
DIVIDE
 70
    64
 62
     5
  6
DIVIDE
  0
ENDTAB
  0
TABLE
  2
STYLE
 70
     1
  0
STYLE
  2
STANDARD
 70
    64
 40
0.0
 41
1.0
 50
0.0
 71
     0
 42
0.2
  3
TXT
  4

  0
STYLE
  2
KANJI
 70
    64
 40
0.0
 41
1.0
 50
0.0
 71
     0
 42
0.2
  3
TXT
  4
BIGFONT
  0
ENDTAB
  0
TABLE
  2
VIEW
 70
     0
  0
ENDTAB
  0
ENDSEC
  0
SECTION
  2
BLOCKS
  0
ENDSEC
  0
SECTION
  2
ENTITIES
  0
TEXT
  8
0
 62
     7
 10
15.000000
 20
16.500000
 40
6.000000
 41
1.000000
  1
KHK CG1-120R1J19
  7
KANJI
 50
0.000000
 51
0.000000
  0
TEXT
  8
0
 62
     7
 10
15.000000
 20
7.500000
 40
6.000000
 41
1.000000
  1
The precision grade of gears after secondary operations is equivalent but not identical to its original grade.
  7
KANJI
 50
0.000000
 51
0.000000
  0
TEXT
  8
0
 62
     7
 10
15.000000
 20
270.000000
 40
6.750000
 41
1.000000
  1

  7
KANJI
 50
0.000000
 51
0.000000
  0
POLYLINE
  8
0
 62
     7
 66
     1
 70
     2
  0
VERTEX
  8
0
 10
360.000000
 20
270.000000
  0
VERTEX
  8
0
 10
354.149994
 20
280.140015
  0
VERTEX
  8
0
 10
377.549988
 20
280.140015
  0
VERTEX
  8
0
 10
371.700012
 20
270.000000
  0
VERTEX
  8
0
 10
365.850006
 20
280.140015
  0
VERTEX
  8
0
 10
360.000000
 20
270.000000
  0
SEQEND
  0
LINE
  8
DASHDOT
 62
     7
 10
127.500000
 20
191.750000
 11
128.500000
 21
191.750000
  0
LINE
  8
DASHDOT
 62
     7
 10
128.000000
 20
196.250000
 11
128.000000
 21
57.750000
  0
LINE
  8
0
 62
     5
 10
209.000000
 20
184.750000
 11
209.000000
 21
62.750000
  0
POLYLINE
  8
0
 62
     5
 66
     1
 70
     2
  0
VERTEX
  8
0
 10
210.500000
 20
179.500000
  0
VERTEX
  8
0
 10
209.000000
 20
184.750000
  0
VERTEX
  8
0
 10
207.500000
 20
179.500000
  0
SEQEND
  0
POLYLINE
  8
0
 62
     5
 66
     1
 70
     2
  0
VERTEX
  8
0
 10
207.500000
 20
68.000000
  0
VERTEX
  8
0
 10
209.000000
 20
62.750000
  0
VERTEX
  8
0
 10
210.500000
 20
68.000000
  0
SEQEND
  0
LINE
  8
0
 62
     5
 10
143.000000
 20
184.750000
 11
211.250000
 21
184.750000
  0
LINE
  8
0
 62
     5
 10
143.000000
 20
62.750000
 11
211.250000
 21
62.750000
  0
TEXT
  8
0
 62
     7
 10
207.500000
 20
112.500000
 40
7.500000
 41
1.000000
  1
%%c122
  7
KANJI
 50
90.000000
 51
0.000000
  0
LINE
  8
0
 62
     5
 10
221.000000
 20
185.250000
 11
221.000000
 21
62.250000
  0
POLYLINE
  8
0
 62
     5
 66
     1
 70
     2
  0
VERTEX
  8
0
 10
222.500000
 20
180.000000
  0
VERTEX
  8
0
 10
221.000000
 20
185.250000
  0
VERTEX
  8
0
 10
219.500000
 20
180.000000
  0
SEQEND
  0
POLYLINE
  8
0
 62
     5
 66
     1
 70
     2
  0
VERTEX
  8
0
 10
219.500000
 20
67.500000
  0
VERTEX
  8
0
 10
221.000000
 20
62.250000
  0
VERTEX
  8
0
 10
222.500000
 20
67.500000
  0
SEQEND
  0
LINE
  8
0
 62
     5
 10
143.000000
 20
185.250000
 11
223.250000
 21
185.250000
  0
LINE
  8
0
 62
     5
 10
143.000000
 20
62.250000
 11
223.250000
 21
62.250000
  0
TEXT
  8
0
 62
     7
 10
219.500000
 20
112.500000
 40
7.500000
 41
1.000000
  1
%%c123
  7
KANJI
 50
90.000000
 51
0.000000
  0
LINE
  8
0
 62
     5
 10
78.000000
 20
123.750000
 11
78.000000
 21
191.750000
  0
POLYLINE
  8
0
 62
     5
 66
     1
 70
     2
  0
VERTEX
  8
0
 10
76.500000
 20
129.000000
  0
VERTEX
  8
0
 10
78.000000
 20
123.750000
  0
VERTEX
  8
0
 10
79.500000
 20
129.000000
  0
SEQEND
  0
POLYLINE
  8
0
 62
     5
 66
     1
 70
     2
  0
VERTEX
  8
0
 10
79.500000
 20
186.500000
  0
VERTEX
  8
0
 10
78.000000
 20
191.750000
  0
VERTEX
  8
0
 10
76.500000
 20
186.500000
  0
SEQEND
  0
LINE
  8
0
 62
     5
 10
123.000000
 20
123.750000
 11
75.750000
 21
123.750000
  0
LINE
  8
0
 62
     5
 10
127.500000
 20
191.750000
 11
75.750000
 21
191.750000
  0
TEXT
  8
0
 62
     7
 10
75.000000
 20
151.375000
 40
7.500000
 41
1.000000
  1
68
  7
KANJI
 50
90.000000
 51
0.000000
  0
LINE
  8
0
 62
     5
 10
152.000000
 20
215.750000
 11
124.000000
 21
215.750000
  0
POLYLINE
  8
0
 62
     5
 66
     1
 70
     2
  0
VERTEX
  8
0
 10
127.750000
 20
214.250000
  0
VERTEX
  8
0
 10
133.000000
 20
215.750000
  0
VERTEX
  8
0
 10
127.750000
 20
217.250000
  0
SEQEND
  0
POLYLINE
  8
0
 62
     5
 66
     1
 70
     2
  0
VERTEX
  8
0
 10
148.250000
 20
217.250000
  0
VERTEX
  8
0
 10
143.000000
 20
215.750000
  0
VERTEX
  8
0
 10
148.250000
 20
214.250000
  0
SEQEND
  0
LINE
  8
0
 62
     5
 10
133.000000
 20
185.250000
 11
133.000000
 21
218.000000
  0
TEXT
  8
0
 62
     7
 10
133.125000
 20
216.949997
 40
7.500000
 41
1.000000
  1
10
  7
KANJI
 50
0.000000
 51
0.000000
  0
LINE
  8
0
 62
     5
 10
137.000000
 20
203.750000
 11
114.000000
 21
203.750000
  0
POLYLINE
  8
0
 62
     5
 66
     1
 70
     2
  0
VERTEX
  8
0
 10
117.750000
 20
202.250000
  0
VERTEX
  8
0
 10
123.000000
 20
203.750000
  0
VERTEX
  8
0
 10
117.750000
 20
205.250000
  0
SEQEND
  0
POLYLINE
  8
0
 62
     5
 66
     1
 70
     2
  0
VERTEX
  8
0
 10
133.250000
 20
205.250000
  0
VERTEX
  8
0
 10
128.000000
 20
203.750000
  0
VERTEX
  8
0
 10
133.250000
 20
202.250000
  0
SEQEND
  0
LINE
  8
0
 62
     5
 10
128.000000
 20
185.250000
 11
128.000000
 21
206.000000
  0
TEXT
  8
0
 62
     7
 10
123.062500
 20
204.949997
 40
7.500000
 41
1.000000
  1
5
  7
KANJI
 50
0.000000
 51
0.000000
  0
ARC
  8
DASHDOT
 62
     7
 10
128.000000
 20
191.750000
 40
7.880000
 50
220.00000048542023
 51
319.99999951457977
  0
ARC
  8
DASHDOT
 62
     7
 10
128.000000
 20
55.750000
 40
7.880000
 50
40.00000048542023
 51
139.99999951457977
  0
ARC
  8
0
 62
     4
 10
128.000000
 20
191.750000
 40
9.250000
 50
237.27956005576118
 51
302.7204399442388
  0
ARC
  8
0
 62
     4
 10
128.000000
 20
55.750000
 40
9.250000
 50
57.27956005576116
 51
122.72043994423883
  0
ARC
  8
0
 62
     4
 10
128.000000
 20
191.750000
 40
7.000000
 50
248.2132119154777
 51
291.7867899663091
  0
ARC
  8
0
 62
     4
 10
128.000000
 20
55.750000
 40
7.000000
 50
68.21321003369091
 51
111.78678808452231
  0
LINE
  8
DASHDOT
 62
     7
 10
123.000000
 20
123.750000
 11
147.500000
 21
123.750000
  0
LINE
  8
0
 62
     5
 10
133.000000
 20
183.750000
 11
133.000000
 21
185.250000
  0
LINE
  8
0
 62
     5
 10
123.000000
 20
183.750000
 11
123.000000
 21
185.250000
  0
LINE
  8
0
 62
     5
 10
143.000000
 20
143.250000
 11
143.000000
 21
185.250000
  0
LINE
  8
0
 62
     5
 10
133.000000
 20
143.750000
 11
143.000000
 21
143.750000
  0
LINE
  8
0
 62
     5
 10
133.000000
 20
103.750000
 11
143.000000
 21
103.750000
  0
LINE
  8
0
 62
     5
 10
131.500000
 20
185.250000
 11
143.000000
 21
185.250000
  0
LINE
  8
0
 62
     5
 10
128.000000
 20
184.750000
 11
143.000000
 21
184.750000
  0
LINE
  8
0
 62
     5
 10
128.000000
 20
62.750000
 11
143.000000
 21
62.750000
  0
LINE
  8
0
 62
     5
 10
131.500000
 20
62.250000
 11
143.000000
 21
62.250000
  0
LINE
  8
0
 62
     4
 10
143.000000
 20
133.750000
 11
142.500000
 21
133.250000
  0
LINE
  8
0
 62
     4
 10
143.000000
 20
113.750000
 11
142.500000
 21
114.250000
  0
LINE
  8
0
 62
     4
 10
123.000000
 20
113.750000
 11
123.500000
 21
114.250000
  0
POLYLINE
  8
0
 62
     4
 66
     1
 70
     2
  0
VERTEX
  8
0
 10
125.401924
 20
185.250000
  0
VERTEX
  8
0
 10
124.500000
 20
185.250000
  0
VERTEX
  8
0
 10
123.000000
 20
183.750000
  0
VERTEX
  8
0
 10
123.000000
 20
113.750000
  0
SEQEND
  0
POLYLINE
  8
0
 62
     4
 66
     1
 70
     2
  0
VERTEX
  8
0
 10
123.000000
 20
113.750000
  0
VERTEX
  8
0
 10
123.000000
 20
63.750000
  0
VERTEX
  8
0
 10
124.500000
 20
62.250000
  0
VERTEX
  8
0
 10
125.401924
 20
62.250000
  0
SEQEND
  0
POLYLINE
  8
0
 62
     4
 66
     1
 70
     2
  0
VERTEX
  8
0
 10
123.000000
 20
133.750000
  0
VERTEX
  8
0
 10
123.500000
 20
133.250000
  0
VERTEX
  8
0
 10
123.500000
 20
114.250000
  0
VERTEX
  8
0
 10
142.500000
 20
114.250000
  0
VERTEX
  8
0
 10
142.500000
 20
133.250000
  0
VERTEX
  8
0
 10
123.500000
 20
133.250000
  0
SEQEND
  0
LINE
  8
0
 62
     5
 10
123.000000
 20
227.750000
 11
143.000000
 21
227.750000
  0
POLYLINE
  8
0
 62
     5
 66
     1
 70
     2
  0
VERTEX
  8
0
 10
128.250000
 20
229.250000
  0
VERTEX
  8
0
 10
123.000000
 20
227.750000
  0
VERTEX
  8
0
 10
128.250000
 20
226.250000
  0
SEQEND
  0
POLYLINE
  8
0
 62
     5
 66
     1
 70
     2
  0
VERTEX
  8
0
 10
137.750000
 20
226.250000
  0
VERTEX
  8
0
 10
143.000000
 20
227.750000
  0
VERTEX
  8
0
 10
137.750000
 20
229.250000
  0
SEQEND
  0
LINE
  8
0
 62
     5
 10
123.000000
 20
185.250000
 11
123.000000
 21
230.000000
  0
LINE
  8
0
 62
     5
 10
143.000000
 20
185.250000
 11
143.000000
 21
230.000000
  0
TEXT
  8
0
 62
     7
 10
128.125000
 20
228.949997
 40
7.500000
 41
1.000000
  1
20
  7
KANJI
 50
0.000000
 51
0.000000
  0
LINE
  8
0
 62
     5
 10
142.000000
 20
215.750000
 11
114.000000
 21
215.750000
  0
POLYLINE
  8
0
 62
     5
 66
     1
 70
     2
  0
VERTEX
  8
0
 10
117.750000
 20
214.250000
  0
VERTEX
  8
0
 10
123.000000
 20
215.750000
  0
VERTEX
  8
0
 10
117.750000
 20
217.250000
  0
SEQEND
  0
POLYLINE
  8
0
 62
     5
 66
     1
 70
     2
  0
VERTEX
  8
0
 10
138.250000
 20
217.250000
  0
VERTEX
  8
0
 10
133.000000
 20
215.750000
  0
VERTEX
  8
0
 10
138.250000
 20
214.250000
  0
SEQEND
  0
TEXT
  8
0
 62
     7
 10
123.125000
 20
216.949997
 40
7.500000
 41
1.000000
  1
10
  7
KANJI
 50
0.000000
 51
0.000000
  0
LINE
  8
0
 62
     5
 10
197.000000
 20
143.750000
 11
197.000000
 21
103.750000
  0
POLYLINE
  8
0
 62
     5
 66
     1
 70
     2
  0
VERTEX
  8
0
 10
198.500000
 20
138.500000
  0
VERTEX
  8
0
 10
197.000000
 20
143.750000
  0
VERTEX
  8
0
 10
195.500000
 20
138.500000
  0
SEQEND
  0
POLYLINE
  8
0
 62
     5
 66
     1
 70
     2
  0
VERTEX
  8
0
 10
195.500000
 20
109.000000
  0
VERTEX
  8
0
 10
197.000000
 20
103.750000
  0
VERTEX
  8
0
 10
198.500000
 20
109.000000
  0
SEQEND
  0
LINE
  8
0
 62
     5
 10
143.000000
 20
143.750000
 11
199.250000
 21
143.750000
  0
LINE
  8
0
 62
     5
 10
143.000000
 20
103.750000
 11
199.250000
 21
103.750000
  0
TEXT
  8
0
 62
     7
 10
195.500000
 20
114.937500
 40
7.500000
 41
1.000000
  1
%%c40
  7
KANJI
 50
90.000000
 51
0.000000
  0
LINE
  8
DASHDOT
 62
     7
 10
268.000000
 20
151.250000
 11
268.000000
 21
99.250000
  0
LINE
  8
DASHDOT
 62
     7
 10
243.500000
 20
123.750000
 11
292.500000
 21
123.750000
  0
LINE
  8
0
 62
     5
 10
280.000000
 20
166.250000
 11
256.000000
 21
166.250000
  0
POLYLINE
  8
0
 62
     5
 66
     1
 70
     2
  0
VERTEX
  8
0
 10
259.750000
 20
164.750000
  0
VERTEX
  8
0
 10
265.000000
 20
166.250000
  0
VERTEX
  8
0
 10
259.750000
 20
167.750000
  0
SEQEND
  0
POLYLINE
  8
0
 62
     5
 66
     1
 70
     2
  0
VERTEX
  8
0
 10
276.250000
 20
167.750000
  0
VERTEX
  8
0
 10
271.000000
 20
166.250000
  0
VERTEX
  8
0
 10
276.250000
 20
164.750000
  0
SEQEND
  0
LINE
  8
0
 62
     5
 10
265.000000
 20
136.050003
 11
265.000000
 21
168.500000
  0
LINE
  8
0
 62
     5
 10
271.000000
 20
136.050003
 11
271.000000
 21
168.500000
  0
TEXT
  8
0
 62
     7
 10
252.518509
 20
167.750000
 40
7.500000
 41
1.000000
  1
6
  7
KANJI
 50
0.000000
 51
0.000000
  0
TEXT
  8
0
 62
     7
 10
259.942596
 20
167.750000
 40
6.000000
 41
1.000000
  1
%%p0.015
  7
KANJI
 50
0.000000
 51
0.000000
  0
LINE
  8
0
 62
     5
 10
318.000000
 20
105.250000
 11
318.000000
 21
145.050003
  0
POLYLINE
  8
0
 62
     5
 66
     1
 70
     2
  0
VERTEX
  8
0
 10
316.500000
 20
141.300003
  0
VERTEX
  8
0
 10
318.000000
 20
136.050003
  0
VERTEX
  8
0
 10
319.500000
 20
141.300003
  0
SEQEND
  0
POLYLINE
  8
0
 62
     5
 66
     1
 70
     2
  0
VERTEX
  8
0
 10
319.500000
 20
109.000000
  0
VERTEX
  8
0
 10
318.000000
 20
114.250000
  0
VERTEX
  8
0
 10
316.500000
 20
109.000000
  0
SEQEND
  0
LINE
  8
0
 62
     5
 10
271.000000
 20
136.050003
 11
320.250000
 21
136.050003
  0
LINE
  8
0
 62
     5
 10
268.000000
 20
114.250000
 11
320.250000
 21
114.250000
  0
TEXT
  8
0
 62
     7
 10
315.750000
 20
101.584808
 40
7.500000
 41
1.000000
  1
21.8
  7
KANJI
 50
90.000000
 51
0.000000
  0
TEXT
  8
0
 62
     7
 10
316.200012
 20
134.047775
 40
3.750000
 41
1.000000
  1
 
  7
KANJI
 50
90.000000
 51
0.000000
  0
TEXT
  8
0
 62
     7
 10
311.549988
 20
134.047775
 40
3.750000
 41
1.000000
  1
+
  7
KANJI
 50
90.000000
 51
0.000000
  0
TEXT
  8
0
 62
     7
 10
316.200012
 20
138.247787
 40
3.750000
 41
1.000000
  1
0
  7
KANJI
 50
90.000000
 51
0.000000
  0
TEXT
  8
0
 62
     7
 10
311.549988
 20
138.247787
 40
3.750000
 41
1.000000
  1
0.1
  7
KANJI
 50
90.000000
 51
0.000000
  0
ARC
  8
0
 62
     4
 10
268.000000
 20
123.750000
 40
9.500000
 50
108.4084803259778
 51
71.5915196740222
  0
POLYLINE
  8
0
 62
     4
 66
     1
 70
     2
  0
VERTEX
  8
0
 10
271.000000
 20
132.763885
  0
VERTEX
  8
0
 10
271.000000
 20
136.050003
  0
VERTEX
  8
0
 10
265.000000
 20
136.050003
  0
VERTEX
  8
0
 10
265.000000
 20
132.763885
  0
SEQEND
  0
LINE
  8
0
 62
     4
 10
123.000000
 20
136.050003
 11
143.000000
 21
136.050003
  0
POLYLINE
  8
DASHDOT
 62
     7
 66
     1
 70
     2
  0
VERTEX
  8
DASHDOT
 10
138.000000
 20
148.250000
  0
VERTEX
  8
DASHDOT
 10
138.000000
 20
131.550003
  0
SEQEND
  0
POLYLINE
  8
0
 62
     4
 66
     1
 70
     2
  0
VERTEX
  8
0
 10
140.500000
 20
143.750000
  0
VERTEX
  8
0
 10
140.500000
 20
136.050003
  0
SEQEND
  0
POLYLINE
  8
0
 62
     4
 66
     1
 70
     2
  0
VERTEX
  8
0
 10
135.500000
 20
143.750000
  0
VERTEX
  8
0
 10
135.500000
 20
136.050003
  0
SEQEND
  0
POLYLINE
  8
0
 62
     4
 66
     1
 70
     2
  0
VERTEX
  8
0
 10
140.065002
 20
143.750000
  0
VERTEX
  8
0
 10
140.065002
 20
136.050003
  0
SEQEND
  0
POLYLINE
  8
0
 62
     4
 66
     1
 70
     2
  0
VERTEX
  8
0
 10
135.934998
 20
143.750000
  0
VERTEX
  8
0
 10
135.934998
 20
136.050003
  0
SEQEND
  0
POLYLINE
  8
0
 62
     4
 66
     1
 70
     2
  0
VERTEX
  8
0
 10
265.500000
 20
136.050003
  0
VERTEX
  8
0
 10
265.500000
 20
143.593140
  0
SEQEND
  0
POLYLINE
  8
0
 62
     4
 66
     1
 70
     2
  0
VERTEX
  8
0
 10
270.500000
 20
136.050003
  0
VERTEX
  8
0
 10
270.500000
 20
143.593140
  0
SEQEND
  0
POLYLINE
  8
0
 62
     4
 66
     1
 70
     2
  0
VERTEX
  8
0
 10
265.934998
 20
136.050003
  0
VERTEX
  8
0
 10
265.934998
 20
143.643112
  0
SEQEND
  0
POLYLINE
  8
0
 62
     4
 66
     1
 70
     2
  0
VERTEX
  8
0
 10
270.065002
 20
136.050003
  0
VERTEX
  8
0
 10
270.065002
 20
143.643112
  0
SEQEND
  0
POLYLINE
  8
0
 62
     5
 66
     1
 70
     2
  0
VERTEX
  8
0
 10
268.000000
 20
143.750000
  0
VERTEX
  8
0
 10
241.000000
 20
188.750000
  0
VERTEX
  8
0
 10
257.500000
 20
188.750000
  0
SEQEND
  0
POLYLINE
  8
0
 62
     5
 66
     1
 70
     2
  0
VERTEX
  8
0
 10
264.012665
 20
147.480103
  0
VERTEX
  8
0
 10
268.000000
 20
143.750000
  0
VERTEX
  8
0
 10
266.585144
 20
149.023590
  0
SEQEND
  0
TEXT
  8
0
 62
     7
 10
242.500000
 20
190.250000
 40
7.200000
 41
1.000000
  1
M5
  7
KANJI
 50
0.000000
 51
0.000000
  0
CIRCLE
  8
0
 62
     7
 10
138.000000
 20
123.750000
 40
2.500000
  0
CIRCLE
  8
0
 62
     4
 10
138.000000
 20
123.750000
 40
2.065000
  0
POLYLINE
  8
DASHDOT
 62
     7
 66
     1
 70
     2
  0
VERTEX
  8
DASHDOT
 10
131.000000
 20
123.750000
  0
VERTEX
  8
DASHDOT
 10
145.000000
 20
123.750000
  0
SEQEND
  0
POLYLINE
  8
DASHDOT
 62
     7
 66
     1
 70
     2
  0
VERTEX
  8
DASHDOT
 10
138.000000
 20
116.750000
  0
VERTEX
  8
DASHDOT
 10
138.000000
 20
130.750000
  0
SEQEND
  0
LINE
  8
0
 62
     5
 10
138.000000
 20
143.750000
 11
138.000000
 21
185.250000
  0
POLYLINE
  8
0
 62
     4
 66
     1
 70
     2
  0
VERTEX
  8
0
 10
277.165161
 20
126.250000
  0
VERTEX
  8
0
 10
287.843140
 20
126.250000
  0
SEQEND
  0
POLYLINE
  8
0
 62
     4
 66
     1
 70
     2
  0
VERTEX
  8
0
 10
277.165161
 20
121.250000
  0
VERTEX
  8
0
 10
287.843140
 20
121.250000
  0
SEQEND
  0
POLYLINE
  8
0
 62
     4
 66
     1
 70
     2
  0
VERTEX
  8
0
 10
277.272858
 20
125.815002
  0
VERTEX
  8
0
 10
287.893127
 20
125.815002
  0
SEQEND
  0
POLYLINE
  8
0
 62
     4
 66
     1
 70
     2
  0
VERTEX
  8
0
 10
277.272858
 20
121.684998
  0
VERTEX
  8
0
 10
287.893127
 20
121.684998
  0
SEQEND
  0
POLYLINE
  8
0
 62
     5
 66
     1
 70
     2
  0
VERTEX
  8
0
 10
288.000000
 20
123.750000
  0
VERTEX
  8
0
 10
310.500000
 20
176.750000
  0
VERTEX
  8
0
 10
288.600006
 20
176.750000
  0
SEQEND
  0
POLYLINE
  8
0
 62
     5
 66
     1
 70
     2
  0
VERTEX
  8
0
 10
288.670837
 20
129.168716
  0
VERTEX
  8
0
 10
288.000000
 20
123.750000
  0
VERTEX
  8
0
 10
291.432281
 20
127.996399
  0
SEQEND
  0
TEXT
  8
0
 62
     7
 10
291.600006
 20
178.250000
 40
7.200000
 41
1.000000
  1
M5
  7
KANJI
 50
0.000000
 51
0.000000
  0
LINE
  8
0
 62
     5
 10
173.000000
 20
133.250000
 11
173.000000
 21
114.250000
  0
POLYLINE
  8
0
 62
     5
 66
     1
 70
     2
  0
VERTEX
  8
0
 10
171.500000
 20
119.500000
  0
VERTEX
  8
0
 10
173.000000
 20
114.250000
  0
VERTEX
  8
0
 10
174.500000
 20
119.500000
  0
SEQEND
  0
LINE
  8
0
 62
     5
 10
143.000000
 20
114.250000
 11
175.250000
 21
114.250000
  0
TEXT
  8
0
 62
     7
 10
171.500000
 20
110.062500
 40
7.500000
 41
1.000000
  1
%%c19H7
  7
KANJI
 50
90.000000
 51
0.000000
  0
POLYLINE
  8
0
 62
     4
 66
     1
 70
     2
  0
VERTEX
  8
0
 10
133.000000
 20
143.750000
  0
VERTEX
  8
0
 10
133.000000
 20
183.750000
  0
VERTEX
  8
0
 10
131.500000
 20
185.250000
  0
VERTEX
  8
0
 10
130.598083
 20
185.250000
  0
SEQEND
  0
POLYLINE
  8
0
 62
     4
 66
     1
 70
     2
  0
VERTEX
  8
0
 10
130.598083
 20
62.250000
  0
VERTEX
  8
0
 10
131.500000
 20
62.250000
  0
VERTEX
  8
0
 10
133.000000
 20
63.750000
  0
VERTEX
  8
0
 10
133.000000
 20
103.750000
  0
SEQEND
  0
POLYLINE
  8
0
 62
     4
 66
     1
 70
     2
  0
VERTEX
  8
0
 10
133.000000
 20
103.750000
  0
VERTEX
  8
0
 10
142.500000
 20
103.750000
  0
VERTEX
  8
0
 10
143.000000
 20
104.250000
  0
VERTEX
  8
0
 10
143.000000
 20
143.250000
  0
VERTEX
  8
0
 10
142.500000
 20
143.750000
  0
VERTEX
  8
0
 10
133.000000
 20
143.750000
  0
SEQEND
  0
CIRCLE
  8
0
 62
     4
 10
268.000000
 20
123.750000
 40
20.000000
  0
LINE
  8
0
 62
     5
 10
152.000000
 20
191.750000
 11
129.000000
 21
191.750000
  0
POLYLINE
  8
0
 62
     5
 66
     1
 70
     2
  0
VERTEX
  8
0
 10
132.750000
 20
190.250000
  0
VERTEX
  8
0
 10
138.000000
 20
191.750000
  0
VERTEX
  8
0
 10
132.750000
 20
193.250000
  0
SEQEND
  0
POLYLINE
  8
0
 62
     5
 66
     1
 70
     2
  0
VERTEX
  8
0
 10
148.250000
 20
193.250000
  0
VERTEX
  8
0
 10
143.000000
 20
191.750000
  0
VERTEX
  8
0
 10
148.250000
 20
190.250000
  0
SEQEND
  0
LINE
  8
0
 62
     5
 10
138.000000
 20
185.250000
 11
138.000000
 21
194.000000
  0
TEXT
  8
0
 62
     7
 10
138.062500
 20
192.949997
 40
7.500000
 41
1.000000
  1
5
  7
KANJI
 50
0.000000
 51
0.000000
  0
LINE
  8
0
 62
     5
 10
138.000000
 20
143.750000
 11
138.000000
 21
185.250000
  0
ENDSEC
  0
EOF
