  0
SECTION
  2
HEADER
  9
$ACADVER
  1
AC1003
  9
$INSBASE
 10
0.000000
 20
0.000000
  9
$EXTMIN
 10
0.000000
 20
0.000000
  9
$EXTMAX
 10
341.129032
 20
235.887097
  9
$LIMMIN
 10
0.000000
 20
0.000000
  9
$LIMMAX
 10
341.129032
 20
235.887097
  9
$VIEWCTR
 10
170.564516
 20
117.943548
  9
$VIEWSIZE
 40
235.887097
  0
ENDSEC
  0
SECTION
  2
TABLES
  0
TABLE
  2
LTYPE
 70
     4
  0
LTYPE
  2
CONTINUOUS
 70
    64
  3
SolidLine
 72
    65
 73
     0
 40
0.0
  0
LTYPE
  2
HIDDEN
 70
    64
  3
------------------------
 72
    65
 73
     2
 40
3.629032
 49
2.419355
 49
-1.209677
  0
LTYPE
  2
DASHDOT
 70
    64
  3
--?--?--?--?--?--?--?--
 72
    65
 73
     4
 40
14.516129
 49
10.887097
 49
-1.209677
 49
1.209677
 49
-1.209677
  0
LTYPE
  2
DIVIDE
 70
    64
  3
--??--??--??--??--??--
 72
    65
 73
     6
 40
18.145161
 49
12.096774
 49
-1.209677
 49
1.209677
 49
-1.209677
 49
1.209677
 49
-1.209677
  0
ENDTAB
  0
TABLE
  2
LAYER
 70
     5
  0
LAYER
  2
0
 70
    64
 62
     7
  6
CONTINUOUS
  0
LAYER
  2
HIDDEN
 70
    64
 62
     2
  6
HIDDEN
  0
LAYER
  2
DASHDOT
 70
    64
 62
     6
  6
DASHDOT
  0
LAYER
  2
DIVIDE
 70
    64
 62
     5
  6
DIVIDE
  0
ENDTAB
  0
TABLE
  2
STYLE
 70
     1
  0
STYLE
  2
STANDARD
 70
    64
 40
0.0
 41
1.0
 50
0.0
 71
     0
 42
0.2
  3
TXT
  4

  0
STYLE
  2
KANJI
 70
    64
 40
0.0
 41
1.0
 50
0.0
 71
     0
 42
0.2
  3
TXT
  4
BIGFONT
  0
ENDTAB
  0
TABLE
  2
VIEW
 70
     0
  0
ENDTAB
  0
ENDSEC
  0
SECTION
  2
BLOCKS
  0
ENDSEC
  0
SECTION
  2
ENTITIES
  0
TEXT
  8
0
 62
     7
 10
12.096774
 20
13.306452
 40
4.838710
 41
1.000000
  1
KHK CG2-30L1
  7
KANJI
 50
0.000000
 51
0.000000
  0
TEXT
  8
0
 62
     7
 10
12.096774
 20
6.048387
 40
4.838710
 41
1.000000
  1

  7
KANJI
 50
0.000000
 51
0.000000
  0
TEXT
  8
0
 62
     7
 10
12.096774
 20
217.741928
 40
5.443548
 41
1.000000
  1

  7
KANJI
 50
0.000000
 51
0.000000
  0
POLYLINE
  8
0
 62
     7
 66
     1
 70
     2
  0
VERTEX
  8
0
 10
290.322571
 20
217.741928
  0
VERTEX
  8
0
 10
285.604828
 20
225.919342
  0
VERTEX
  8
0
 10
304.475800
 20
225.919342
  0
VERTEX
  8
0
 10
299.758057
 20
217.741928
  0
VERTEX
  8
0
 10
295.040314
 20
225.919342
  0
VERTEX
  8
0
 10
290.322571
 20
217.741928
  0
SEQEND
  0
LINE
  8
DASHDOT
 62
     7
 10
89.516136
 20
145.298386
 11
104.258072
 21
145.298386
  0
LINE
  8
DASHDOT
 62
     7
 10
96.887100
 20
148.927414
 11
96.887100
 21
63.169353
  0
LINE
  8
0
 62
     5
 10
174.112915
 20
131.798386
 11
174.112915
 21
67.798386
  0
POLYLINE
  8
0
 62
     5
 66
     1
 70
     2
  0
VERTEX
  8
0
 10
175.322586
 20
127.564514
  0
VERTEX
  8
0
 10
174.112915
 20
131.798386
  0
VERTEX
  8
0
 10
172.903229
 20
127.564514
  0
SEQEND
  0
POLYLINE
  8
0
 62
     5
 66
     1
 70
     2
  0
VERTEX
  8
0
 10
172.903229
 20
72.032257
  0
VERTEX
  8
0
 10
174.112915
 20
67.798386
  0
VERTEX
  8
0
 10
175.322586
 20
72.032257
  0
SEQEND
  0
LINE
  8
0
 62
     5
 10
120.887100
 20
131.798386
 11
175.927429
 21
131.798386
  0
LINE
  8
0
 62
     5
 10
120.887100
 20
67.798386
 11
175.927429
 21
67.798386
  0
TEXT
  8
0
 62
     7
 10
172.903229
 20
92.691528
 40
6.048387
 41
1.000000
  1
%%c64
  7
KANJI
 50
90.000000
 51
0.000000
  0
LINE
  8
0
 62
     5
 10
183.790329
 20
132.798386
 11
183.790329
 21
66.798386
  0
POLYLINE
  8
0
 62
     5
 66
     1
 70
     2
  0
VERTEX
  8
0
 10
185.000000
 20
128.564514
  0
VERTEX
  8
0
 10
183.790329
 20
132.798386
  0
VERTEX
  8
0
 10
182.580658
 20
128.564514
  0
SEQEND
  0
POLYLINE
  8
0
 62
     5
 66
     1
 70
     2
  0
VERTEX
  8
0
 10
182.580658
 20
71.032257
  0
VERTEX
  8
0
 10
183.790329
 20
66.798386
  0
VERTEX
  8
0
 10
185.000000
 20
71.032257
  0
SEQEND
  0
LINE
  8
0
 62
     5
 10
120.887100
 20
132.798386
 11
185.604843
 21
132.798386
  0
LINE
  8
0
 62
     5
 10
120.887100
 20
66.798386
 11
185.604843
 21
66.798386
  0
TEXT
  8
0
 62
     7
 10
182.580658
 20
92.691528
 40
6.048387
 41
1.000000
  1
%%c66
  7
KANJI
 50
90.000000
 51
0.000000
  0
LINE
  8
0
 62
     5
 10
49.596779
 20
99.798386
 11
49.596779
 21
145.298386
  0
POLYLINE
  8
0
 62
     5
 66
     1
 70
     2
  0
VERTEX
  8
0
 10
48.387100
 20
104.032257
  0
VERTEX
  8
0
 10
49.596779
 20
99.798386
  0
VERTEX
  8
0
 10
50.806458
 20
104.032257
  0
SEQEND
  0
POLYLINE
  8
0
 62
     5
 66
     1
 70
     2
  0
VERTEX
  8
0
 10
50.806458
 20
141.064514
  0
VERTEX
  8
0
 10
49.596779
 20
145.298386
  0
VERTEX
  8
0
 10
48.387100
 20
141.064514
  0
SEQEND
  0
LINE
  8
0
 62
     5
 10
85.887100
 20
99.798386
 11
47.782261
 21
99.798386
  0
LINE
  8
0
 62
     5
 10
89.516136
 20
145.298386
 11
47.782265
 21
145.298386
  0
TEXT
  8
0
 62
     7
 10
47.177425
 20
113.475807
 40
6.048387
 41
1.000000
  1
45.5
  7
KANJI
 50
90.000000
 51
0.000000
  0
LINE
  8
0
 62
     5
 10
107.887100
 20
164.653229
 11
120.887100
 21
164.653229
  0
POLYLINE
  8
0
 62
     5
 66
     1
 70
     2
  0
VERTEX
  8
0
 10
112.120972
 20
165.862915
  0
VERTEX
  8
0
 10
107.887100
 20
164.653229
  0
VERTEX
  8
0
 10
112.120972
 20
163.443542
  0
SEQEND
  0
POLYLINE
  8
0
 62
     5
 66
     1
 70
     2
  0
VERTEX
  8
0
 10
116.653229
 20
163.443542
  0
VERTEX
  8
0
 10
120.887100
 20
164.653229
  0
VERTEX
  8
0
 10
116.653229
 20
165.862915
  0
SEQEND
  0
LINE
  8
0
 62
     5
 10
107.887100
 20
132.798386
 11
107.887100
 21
166.467743
  0
TEXT
  8
0
 62
     7
 10
110.455650
 20
165.620972
 40
6.048387
 41
1.000000
  1
13
  7
KANJI
 50
0.000000
 51
0.000000
  0
LINE
  8
0
 62
     5
 10
104.145164
 20
154.975800
 11
78.629036
 21
154.975800
  0
POLYLINE
  8
0
 62
     5
 66
     1
 70
     2
  0
VERTEX
  8
0
 10
81.653229
 20
153.766129
  0
VERTEX
  8
0
 10
85.887100
 20
154.975800
  0
VERTEX
  8
0
 10
81.653229
 20
156.185486
  0
SEQEND
  0
POLYLINE
  8
0
 62
     5
 66
     1
 70
     2
  0
VERTEX
  8
0
 10
101.120972
 20
156.185486
  0
VERTEX
  8
0
 10
96.887100
 20
154.975800
  0
VERTEX
  8
0
 10
101.120972
 20
153.766129
  0
SEQEND
  0
LINE
  8
0
 62
     5
 10
96.887100
 20
132.798386
 11
96.887100
 21
156.790329
  0
TEXT
  8
0
 62
     7
 10
87.455650
 20
155.943542
 40
6.048387
 41
1.000000
  1
11
  7
KANJI
 50
0.000000
 51
0.000000
  0
ARC
  8
DASHDOT
 62
     7
 10
96.887100
 20
145.298386
 40
15.435000
 50
219.99999447324046
 51
320.00000552675954
  0
ARC
  8
DASHDOT
 62
     7
 10
96.887100
 20
54.298386
 40
15.435000
 50
39.99999447324048
 51
140.00000552675954
  0
ARC
  8
0
 62
     4
 10
96.887100
 20
145.298386
 40
18.000000
 50
232.33011338023707
 51
307.6698866197629
  0
ARC
  8
0
 62
     4
 10
96.887100
 20
54.298386
 40
18.000000
 50
52.33011338023703
 51
127.66988661976298
  0
ARC
  8
0
 62
     4
 10
96.887100
 20
145.298386
 40
13.500000
 50
247.80839416271144
 51
292.19160778609427
  0
ARC
  8
0
 62
     4
 10
96.887100
 20
54.298386
 40
13.500000
 50
67.8083922139057
 51
112.19160583728855
  0
LINE
  8
DASHDOT
 62
     7
 10
85.887100
 20
99.798386
 11
124.516129
 21
99.798386
  0
LINE
  8
0
 62
     5
 10
107.887100
 20
131.588715
 11
107.887100
 21
132.798386
  0
LINE
  8
0
 62
     5
 10
85.887100
 20
131.588715
 11
85.887100
 21
132.798386
  0
LINE
  8
0
 62
     5
 10
120.887100
 20
119.298386
 11
120.887100
 21
132.798386
  0
LINE
  8
0
 62
     5
 10
107.887100
 20
119.798386
 11
120.887100
 21
119.798386
  0
LINE
  8
0
 62
     5
 10
107.887100
 20
79.798386
 11
120.887100
 21
79.798386
  0
LINE
  8
0
 62
     5
 10
106.677422
 20
132.798386
 11
120.887100
 21
132.798386
  0
LINE
  8
0
 62
     5
 10
96.887100
 20
131.798386
 11
120.887100
 21
131.798386
  0
LINE
  8
0
 62
     5
 10
96.887100
 20
67.798386
 11
120.887100
 21
67.798386
  0
LINE
  8
0
 62
     5
 10
106.677422
 20
66.798386
 11
120.887100
 21
66.798386
  0
LINE
  8
0
 62
     4
 10
120.887100
 20
106.298386
 11
120.387100
 21
105.798386
  0
LINE
  8
0
 62
     4
 10
120.887100
 20
93.298386
 11
120.387100
 21
93.798386
  0
LINE
  8
0
 62
     4
 10
85.887100
 20
93.298386
 11
86.387100
 21
93.798386
  0
POLYLINE
  8
0
 62
     4
 66
     1
 70
     2
  0
VERTEX
  8
0
 10
91.788078
 20
132.798386
  0
VERTEX
  8
0
 10
87.096779
 20
132.798386
  0
VERTEX
  8
0
 10
85.887100
 20
131.588715
  0
VERTEX
  8
0
 10
85.887100
 20
93.298386
  0
SEQEND
  0
POLYLINE
  8
0
 62
     4
 66
     1
 70
     2
  0
VERTEX
  8
0
 10
85.887100
 20
93.298386
  0
VERTEX
  8
0
 10
85.887100
 20
68.008064
  0
VERTEX
  8
0
 10
87.096779
 20
66.798386
  0
VERTEX
  8
0
 10
91.788078
 20
66.798386
  0
SEQEND
  0
POLYLINE
  8
0
 62
     4
 66
     1
 70
     2
  0
VERTEX
  8
0
 10
85.887100
 20
106.298386
  0
VERTEX
  8
0
 10
86.387100
 20
105.798386
  0
VERTEX
  8
0
 10
86.387100
 20
93.798386
  0
VERTEX
  8
0
 10
120.387100
 20
93.798386
  0
VERTEX
  8
0
 10
120.387100
 20
105.798386
  0
VERTEX
  8
0
 10
86.387100
 20
105.798386
  0
SEQEND
  0
LINE
  8
0
 62
     5
 10
85.887100
 20
174.330643
 11
120.887100
 21
174.330643
  0
POLYLINE
  8
0
 62
     5
 66
     1
 70
     2
  0
VERTEX
  8
0
 10
90.120972
 20
175.540314
  0
VERTEX
  8
0
 10
85.887100
 20
174.330643
  0
VERTEX
  8
0
 10
90.120972
 20
173.120972
  0
SEQEND
  0
POLYLINE
  8
0
 62
     5
 66
     1
 70
     2
  0
VERTEX
  8
0
 10
116.653229
 20
173.120972
  0
VERTEX
  8
0
 10
120.887100
 20
174.330643
  0
VERTEX
  8
0
 10
116.653229
 20
175.540314
  0
SEQEND
  0
LINE
  8
0
 62
     5
 10
85.887100
 20
132.798386
 11
85.887100
 21
176.145157
  0
LINE
  8
0
 62
     5
 10
120.887100
 20
132.798386
 11
120.887100
 21
176.145157
  0
TEXT
  8
0
 62
     7
 10
99.455650
 20
175.298386
 40
6.048387
 41
1.000000
  1
35
  7
KANJI
 50
0.000000
 51
0.000000
  0
LINE
  8
0
 62
     5
 10
85.887100
 20
164.653229
 11
107.887100
 21
164.653229
  0
POLYLINE
  8
0
 62
     5
 66
     1
 70
     2
  0
VERTEX
  8
0
 10
90.120972
 20
165.862915
  0
VERTEX
  8
0
 10
85.887100
 20
164.653229
  0
VERTEX
  8
0
 10
90.120972
 20
163.443542
  0
SEQEND
  0
POLYLINE
  8
0
 62
     5
 66
     1
 70
     2
  0
VERTEX
  8
0
 10
103.653229
 20
163.443542
  0
VERTEX
  8
0
 10
107.887100
 20
164.653229
  0
VERTEX
  8
0
 10
103.653229
 20
165.862915
  0
SEQEND
  0
TEXT
  8
0
 62
     7
 10
92.955650
 20
165.620972
 40
6.048387
 41
1.000000
  1
22
  7
KANJI
 50
0.000000
 51
0.000000
  0
LINE
  8
0
 62
     5
 10
164.435486
 20
119.798386
 11
164.435486
 21
79.798386
  0
POLYLINE
  8
0
 62
     5
 66
     1
 70
     2
  0
VERTEX
  8
0
 10
165.645172
 20
115.564514
  0
VERTEX
  8
0
 10
164.435486
 20
119.798386
  0
VERTEX
  8
0
 10
163.225800
 20
115.564514
  0
SEQEND
  0
POLYLINE
  8
0
 62
     5
 66
     1
 70
     2
  0
VERTEX
  8
0
 10
163.225800
 20
84.032257
  0
VERTEX
  8
0
 10
164.435486
 20
79.798386
  0
VERTEX
  8
0
 10
165.645172
 20
84.032257
  0
SEQEND
  0
LINE
  8
0
 62
     5
 10
120.887100
 20
119.798386
 11
166.250000
 21
119.798386
  0
LINE
  8
0
 62
     5
 10
120.887100
 20
79.798386
 11
166.250000
 21
79.798386
  0
TEXT
  8
0
 62
     7
 10
163.225800
 20
92.691528
 40
6.048387
 41
1.000000
  1
%%c40
  7
KANJI
 50
90.000000
 51
0.000000
  0
LINE
  8
0
 62
     5
 10
145.080658
 20
86.540321
 11
145.080658
 21
113.056450
  0
POLYLINE
  8
0
 62
     5
 66
     1
 70
     2
  0
VERTEX
  8
0
 10
143.870972
 20
110.032257
  0
VERTEX
  8
0
 10
145.080658
 20
105.798386
  0
VERTEX
  8
0
 10
146.290329
 20
110.032257
  0
SEQEND
  0
POLYLINE
  8
0
 62
     5
 66
     1
 70
     2
  0
VERTEX
  8
0
 10
146.290329
 20
89.564514
  0
VERTEX
  8
0
 10
145.080658
 20
93.798386
  0
VERTEX
  8
0
 10
143.870972
 20
89.564514
  0
SEQEND
  0
LINE
  8
0
 62
     5
 10
120.887100
 20
105.798386
 11
146.895172
 21
105.798386
  0
LINE
  8
0
 62
     5
 10
120.887100
 20
93.798386
 11
146.895172
 21
93.798386
  0
TEXT
  8
0
 62
     7
 10
143.870972
 20
88.760078
 40
6.048387
 41
1.000000
  1
%%c12H7
  7
KANJI
 50
90.000000
 51
0.000000
  0
POLYLINE
  8
0
 62
     4
 66
     1
 70
     2
  0
VERTEX
  8
0
 10
107.887100
 20
119.798386
  0
VERTEX
  8
0
 10
107.887100
 20
131.588715
  0
VERTEX
  8
0
 10
106.677422
 20
132.798386
  0
VERTEX
  8
0
 10
101.986122
 20
132.798386
  0
SEQEND
  0
POLYLINE
  8
0
 62
     4
 66
     1
 70
     2
  0
VERTEX
  8
0
 10
101.986122
 20
66.798386
  0
VERTEX
  8
0
 10
106.677422
 20
66.798386
  0
VERTEX
  8
0
 10
107.887100
 20
68.008064
  0
VERTEX
  8
0
 10
107.887100
 20
79.798386
  0
SEQEND
  0
POLYLINE
  8
0
 62
     4
 66
     1
 70
     2
  0
VERTEX
  8
0
 10
107.887100
 20
79.798386
  0
VERTEX
  8
0
 10
120.387100
 20
79.798386
  0
VERTEX
  8
0
 10
120.887100
 20
80.298386
  0
VERTEX
  8
0
 10
120.887100
 20
119.298386
  0
VERTEX
  8
0
 10
120.387100
 20
119.798386
  0
VERTEX
  8
0
 10
107.887100
 20
119.798386
  0
SEQEND
  0
ENDSEC
  0
EOF
