  0
SECTION
  2
HEADER
  9
$ACADVER
  1
AC1003
  9
$INSBASE
 10
0.000000
 20
0.000000
  9
$EXTMIN
 10
0.000000
 20
0.000000
  9
$EXTMAX
 10
309.290323
 20
213.870968
  9
$LIMMIN
 10
0.000000
 20
0.000000
  9
$LIMMAX
 10
309.290323
 20
213.870968
  9
$VIEWCTR
 10
154.645161
 20
106.935484
  9
$VIEWSIZE
 40
213.870968
  0
ENDSEC
  0
SECTION
  2
TABLES
  0
TABLE
  2
LTYPE
 70
     4
  0
LTYPE
  2
CONTINUOUS
 70
    64
  3
SolidLine
 72
    65
 73
     0
 40
0.0
  0
LTYPE
  2
HIDDEN
 70
    64
  3
------------------------
 72
    65
 73
     2
 40
3.290323
 49
2.193548
 49
-1.096774
  0
LTYPE
  2
DASHDOT
 70
    64
  3
--?--?--?--?--?--?--?--
 72
    65
 73
     4
 40
13.161290
 49
9.870968
 49
-1.096774
 49
1.096774
 49
-1.096774
  0
LTYPE
  2
DIVIDE
 70
    64
  3
--??--??--??--??--??--
 72
    65
 73
     6
 40
16.451613
 49
10.967742
 49
-1.096774
 49
1.096774
 49
-1.096774
 49
1.096774
 49
-1.096774
  0
ENDTAB
  0
TABLE
  2
LAYER
 70
     5
  0
LAYER
  2
0
 70
    64
 62
     7
  6
CONTINUOUS
  0
LAYER
  2
HIDDEN
 70
    64
 62
     2
  6
HIDDEN
  0
LAYER
  2
DASHDOT
 70
    64
 62
     6
  6
DASHDOT
  0
LAYER
  2
DIVIDE
 70
    64
 62
     5
  6
DIVIDE
  0
ENDTAB
  0
TABLE
  2
STYLE
 70
     1
  0
STYLE
  2
STANDARD
 70
    64
 40
0.0
 41
1.0
 50
0.0
 71
     0
 42
0.2
  3
TXT
  4

  0
STYLE
  2
KANJI
 70
    64
 40
0.0
 41
1.0
 50
0.0
 71
     0
 42
0.2
  3
TXT
  4
BIGFONT
  0
ENDTAB
  0
TABLE
  2
VIEW
 70
     0
  0
ENDTAB
  0
ENDSEC
  0
SECTION
  2
BLOCKS
  0
ENDSEC
  0
SECTION
  2
ENTITIES
  0
TEXT
  8
0
 62
     7
 10
10.967742
 20
12.064516
 40
4.387097
 41
1.000000
  1
KHK CG2-20R1J14
  7
KANJI
 50
0.000000
 51
0.000000
  0
TEXT
  8
0
 62
     7
 10
10.967742
 20
5.483871
 40
4.387097
 41
1.000000
  1
The precision grade of gears after secondary operations is equivalent but not identical to its original grade.
  7
KANJI
 50
0.000000
 51
0.000000
  0
TEXT
  8
0
 62
     7
 10
10.967742
 20
197.419357
 40
4.935484
 41
1.000000
  1

  7
KANJI
 50
0.000000
 51
0.000000
  0
POLYLINE
  8
0
 62
     7
 66
     1
 70
     2
  0
VERTEX
  8
0
 10
263.225800
 20
197.419357
  0
VERTEX
  8
0
 10
258.948395
 20
204.833557
  0
VERTEX
  8
0
 10
276.058044
 20
204.833557
  0
VERTEX
  8
0
 10
271.780640
 20
197.419357
  0
VERTEX
  8
0
 10
267.503204
 20
204.833557
  0
VERTEX
  8
0
 10
263.225800
 20
197.419357
  0
SEQEND
  0
LINE
  8
DASHDOT
 62
     7
 10
81.161285
 20
125.983871
 11
96.580643
 21
125.983871
  0
LINE
  8
DASHDOT
 62
     7
 10
88.870964
 20
129.274200
 11
88.870964
 21
64.193550
  0
LINE
  8
0
 62
     5
 10
161.129028
 20
112.483871
 11
161.129028
 21
68.483871
  0
POLYLINE
  8
0
 62
     5
 66
     1
 70
     2
  0
VERTEX
  8
0
 10
162.225800
 20
108.645164
  0
VERTEX
  8
0
 10
161.129028
 20
112.483871
  0
VERTEX
  8
0
 10
160.032257
 20
108.645164
  0
SEQEND
  0
POLYLINE
  8
0
 62
     5
 66
     1
 70
     2
  0
VERTEX
  8
0
 10
160.032257
 20
72.322578
  0
VERTEX
  8
0
 10
161.129028
 20
68.483871
  0
VERTEX
  8
0
 10
162.225800
 20
72.322578
  0
SEQEND
  0
LINE
  8
0
 62
     5
 10
112.870964
 20
112.483871
 11
162.774200
 21
112.483871
  0
LINE
  8
0
 62
     5
 10
112.870964
 20
68.483871
 11
162.774200
 21
68.483871
  0
TEXT
  8
0
 62
     7
 10
160.032257
 20
84.040321
 40
5.483871
 41
1.000000
  1
%%c44
  7
KANJI
 50
90.000000
 51
0.000000
  0
LINE
  8
0
 62
     5
 10
169.903229
 20
113.483871
 11
169.903229
 21
67.483871
  0
POLYLINE
  8
0
 62
     5
 66
     1
 70
     2
  0
VERTEX
  8
0
 10
171.000000
 20
109.645164
  0
VERTEX
  8
0
 10
169.903229
 20
113.483871
  0
VERTEX
  8
0
 10
168.806458
 20
109.645164
  0
SEQEND
  0
POLYLINE
  8
0
 62
     5
 66
     1
 70
     2
  0
VERTEX
  8
0
 10
168.806458
 20
71.322578
  0
VERTEX
  8
0
 10
169.903229
 20
67.483871
  0
VERTEX
  8
0
 10
171.000000
 20
71.322578
  0
SEQEND
  0
LINE
  8
0
 62
     5
 10
112.870964
 20
113.483871
 11
171.548386
 21
113.483871
  0
LINE
  8
0
 62
     5
 10
112.870964
 20
67.483871
 11
171.548386
 21
67.483871
  0
TEXT
  8
0
 62
     7
 10
168.806458
 20
84.040321
 40
5.483871
 41
1.000000
  1
%%c46
  7
KANJI
 50
90.000000
 51
0.000000
  0
LINE
  8
0
 62
     5
 10
44.967739
 20
90.483871
 11
44.967739
 21
125.983871
  0
POLYLINE
  8
0
 62
     5
 66
     1
 70
     2
  0
VERTEX
  8
0
 10
43.870964
 20
94.322578
  0
VERTEX
  8
0
 10
44.967739
 20
90.483871
  0
VERTEX
  8
0
 10
46.064514
 20
94.322578
  0
SEQEND
  0
POLYLINE
  8
0
 62
     5
 66
     1
 70
     2
  0
VERTEX
  8
0
 10
46.064514
 20
122.145164
  0
VERTEX
  8
0
 10
44.967739
 20
125.983871
  0
VERTEX
  8
0
 10
43.870964
 20
122.145164
  0
SEQEND
  0
LINE
  8
0
 62
     5
 10
77.870964
 20
90.483871
 11
43.322578
 21
90.483871
  0
LINE
  8
0
 62
     5
 10
81.161285
 20
125.983871
 11
43.322578
 21
125.983871
  0
TEXT
  8
0
 62
     7
 10
42.774189
 20
100.008064
 40
5.483871
 41
1.000000
  1
35.5
  7
KANJI
 50
90.000000
 51
0.000000
  0
LINE
  8
0
 62
     5
 10
99.870964
 20
143.532257
 11
112.870964
 21
143.532257
  0
POLYLINE
  8
0
 62
     5
 66
     1
 70
     2
  0
VERTEX
  8
0
 10
103.709671
 20
144.629028
  0
VERTEX
  8
0
 10
99.870964
 20
143.532257
  0
VERTEX
  8
0
 10
103.709671
 20
142.435486
  0
SEQEND
  0
POLYLINE
  8
0
 62
     5
 66
     1
 70
     2
  0
VERTEX
  8
0
 10
109.032257
 20
142.435486
  0
VERTEX
  8
0
 10
112.870964
 20
143.532257
  0
VERTEX
  8
0
 10
109.032257
 20
144.629028
  0
SEQEND
  0
LINE
  8
0
 62
     5
 10
99.870964
 20
113.483871
 11
99.870964
 21
145.177414
  0
TEXT
  8
0
 62
     7
 10
102.806450
 20
144.409668
 40
5.483871
 41
1.000000
  1
13
  7
KANJI
 50
0.000000
 51
0.000000
  0
LINE
  8
0
 62
     5
 10
77.870964
 20
134.758057
 11
88.870964
 21
134.758057
  0
POLYLINE
  8
0
 62
     5
 66
     1
 70
     2
  0
VERTEX
  8
0
 10
81.709671
 20
135.854843
  0
VERTEX
  8
0
 10
77.870964
 20
134.758057
  0
VERTEX
  8
0
 10
81.709671
 20
133.661285
  0
SEQEND
  0
POLYLINE
  8
0
 62
     5
 66
     1
 70
     2
  0
VERTEX
  8
0
 10
85.032257
 20
133.661285
  0
VERTEX
  8
0
 10
88.870964
 20
134.758057
  0
VERTEX
  8
0
 10
85.032257
 20
135.854843
  0
SEQEND
  0
LINE
  8
0
 62
     5
 10
88.870964
 20
113.483871
 11
88.870964
 21
136.403229
  0
TEXT
  8
0
 62
     7
 10
79.806450
 20
135.635483
 40
5.483871
 41
1.000000
  1
11
  7
KANJI
 50
0.000000
 51
0.000000
  0
ARC
  8
DASHDOT
 62
     7
 10
88.870964
 20
125.983871
 40
15.460000
 50
219.99999848136045
 51
319.99999951457977
  0
ARC
  8
DASHDOT
 62
     7
 10
88.870964
 20
54.983871
 40
15.460000
 50
40.00000048542023
 51
140.00000151863958
  0
ARC
  8
0
 62
     4
 10
88.870964
 20
125.983871
 40
18.000000
 50
232.33011338023707
 51
307.6698866197629
  0
ARC
  8
0
 62
     4
 10
88.870964
 20
54.983871
 40
18.000000
 50
52.33011338023703
 51
127.66988661976298
  0
ARC
  8
0
 62
     4
 10
88.870964
 20
125.983871
 40
13.500000
 50
247.80839416271144
 51
292.19160778609427
  0
ARC
  8
0
 62
     4
 10
88.870964
 20
54.983871
 40
13.500000
 50
67.8083922139057
 51
112.19160583728855
  0
LINE
  8
DASHDOT
 62
     7
 10
77.870964
 20
90.483871
 11
116.161285
 21
90.483871
  0
LINE
  8
0
 62
     5
 10
99.870964
 20
112.387100
 11
99.870964
 21
113.483871
  0
LINE
  8
0
 62
     5
 10
77.870964
 20
112.387100
 11
77.870964
 21
113.483871
  0
LINE
  8
0
 62
     5
 10
112.870964
 20
106.483871
 11
112.870964
 21
113.483871
  0
LINE
  8
0
 62
     5
 10
99.870964
 20
106.983871
 11
112.870964
 21
106.983871
  0
LINE
  8
0
 62
     5
 10
99.870964
 20
73.983871
 11
112.870964
 21
73.983871
  0
LINE
  8
0
 62
     5
 10
98.774185
 20
113.483871
 11
112.870964
 21
113.483871
  0
LINE
  8
0
 62
     5
 10
88.870964
 20
112.483871
 11
112.870964
 21
112.483871
  0
LINE
  8
0
 62
     5
 10
88.870964
 20
68.483871
 11
112.870964
 21
68.483871
  0
LINE
  8
0
 62
     5
 10
98.774185
 20
67.483871
 11
112.870964
 21
67.483871
  0
LINE
  8
0
 62
     4
 10
112.870964
 20
97.983871
 11
112.370964
 21
97.483871
  0
LINE
  8
0
 62
     4
 10
112.870964
 20
82.983871
 11
112.370964
 21
83.483871
  0
LINE
  8
0
 62
     4
 10
77.870964
 20
82.983871
 11
78.370964
 21
83.483871
  0
POLYLINE
  8
0
 62
     4
 66
     1
 70
     2
  0
VERTEX
  8
0
 10
83.771942
 20
113.483871
  0
VERTEX
  8
0
 10
78.967735
 20
113.483871
  0
VERTEX
  8
0
 10
77.870964
 20
112.387100
  0
VERTEX
  8
0
 10
77.870964
 20
82.983871
  0
SEQEND
  0
POLYLINE
  8
0
 62
     4
 66
     1
 70
     2
  0
VERTEX
  8
0
 10
77.870964
 20
82.983871
  0
VERTEX
  8
0
 10
77.870964
 20
68.580643
  0
VERTEX
  8
0
 10
78.967735
 20
67.483871
  0
VERTEX
  8
0
 10
83.771942
 20
67.483871
  0
SEQEND
  0
POLYLINE
  8
0
 62
     4
 66
     1
 70
     2
  0
VERTEX
  8
0
 10
77.870964
 20
97.983871
  0
VERTEX
  8
0
 10
78.370964
 20
97.483871
  0
VERTEX
  8
0
 10
78.370964
 20
83.483871
  0
VERTEX
  8
0
 10
112.370964
 20
83.483871
  0
VERTEX
  8
0
 10
112.370964
 20
97.483871
  0
VERTEX
  8
0
 10
78.370964
 20
97.483871
  0
SEQEND
  0
LINE
  8
0
 62
     5
 10
77.870964
 20
152.306458
 11
112.870964
 21
152.306458
  0
POLYLINE
  8
0
 62
     5
 66
     1
 70
     2
  0
VERTEX
  8
0
 10
81.709671
 20
153.403229
  0
VERTEX
  8
0
 10
77.870964
 20
152.306458
  0
VERTEX
  8
0
 10
81.709671
 20
151.209686
  0
SEQEND
  0
POLYLINE
  8
0
 62
     5
 66
     1
 70
     2
  0
VERTEX
  8
0
 10
109.032257
 20
151.209686
  0
VERTEX
  8
0
 10
112.870964
 20
152.306458
  0
VERTEX
  8
0
 10
109.032257
 20
153.403229
  0
SEQEND
  0
LINE
  8
0
 62
     5
 10
77.870964
 20
113.483871
 11
77.870964
 21
153.951614
  0
LINE
  8
0
 62
     5
 10
112.870964
 20
113.483871
 11
112.870964
 21
153.951614
  0
TEXT
  8
0
 62
     7
 10
91.806450
 20
153.183868
 40
5.483871
 41
1.000000
  1
35
  7
KANJI
 50
0.000000
 51
0.000000
  0
LINE
  8
0
 62
     5
 10
77.870964
 20
143.532257
 11
99.870964
 21
143.532257
  0
POLYLINE
  8
0
 62
     5
 66
     1
 70
     2
  0
VERTEX
  8
0
 10
81.709671
 20
144.629028
  0
VERTEX
  8
0
 10
77.870964
 20
143.532257
  0
VERTEX
  8
0
 10
81.709671
 20
142.435486
  0
SEQEND
  0
POLYLINE
  8
0
 62
     5
 66
     1
 70
     2
  0
VERTEX
  8
0
 10
96.032257
 20
142.435486
  0
VERTEX
  8
0
 10
99.870964
 20
143.532257
  0
VERTEX
  8
0
 10
96.032257
 20
144.629028
  0
SEQEND
  0
TEXT
  8
0
 62
     7
 10
85.306450
 20
144.409668
 40
5.483871
 41
1.000000
  1
22
  7
KANJI
 50
0.000000
 51
0.000000
  0
LINE
  8
0
 62
     5
 10
152.354828
 20
106.983871
 11
152.354828
 21
73.983871
  0
POLYLINE
  8
0
 62
     5
 66
     1
 70
     2
  0
VERTEX
  8
0
 10
153.451599
 20
103.145164
  0
VERTEX
  8
0
 10
152.354828
 20
106.983871
  0
VERTEX
  8
0
 10
151.258057
 20
103.145164
  0
SEQEND
  0
POLYLINE
  8
0
 62
     5
 66
     1
 70
     2
  0
VERTEX
  8
0
 10
151.258057
 20
77.822578
  0
VERTEX
  8
0
 10
152.354828
 20
73.983871
  0
VERTEX
  8
0
 10
153.451599
 20
77.822578
  0
SEQEND
  0
LINE
  8
0
 62
     5
 10
112.870964
 20
106.983871
 11
154.000000
 21
106.983871
  0
LINE
  8
0
 62
     5
 10
112.870964
 20
73.983871
 11
154.000000
 21
73.983871
  0
TEXT
  8
0
 62
     7
 10
151.258057
 20
84.040321
 40
5.483871
 41
1.000000
  1
%%c33
  7
KANJI
 50
90.000000
 51
0.000000
  0
LINE
  8
DASHDOT
 62
     7
 10
206.145172
 20
112.467743
 11
206.145172
 21
70.693550
  0
LINE
  8
DASHDOT
 62
     7
 10
186.354828
 20
90.483871
 11
225.935486
 21
90.483871
  0
LINE
  8
0
 62
     5
 10
215.225800
 20
123.435486
 11
197.064514
 21
123.435486
  0
POLYLINE
  8
0
 62
     5
 66
     1
 70
     2
  0
VERTEX
  8
0
 10
199.806458
 20
122.338715
  0
VERTEX
  8
0
 10
203.645157
 20
123.435486
  0
VERTEX
  8
0
 10
199.806458
 20
124.532257
  0
SEQEND
  0
POLYLINE
  8
0
 62
     5
 66
     1
 70
     2
  0
VERTEX
  8
0
 10
212.483887
 20
124.532257
  0
VERTEX
  8
0
 10
208.645172
 20
123.435486
  0
VERTEX
  8
0
 10
212.483887
 20
122.338715
  0
SEQEND
  0
LINE
  8
0
 62
     5
 10
203.645157
 20
99.783875
 11
203.645157
 21
125.080643
  0
LINE
  8
0
 62
     5
 10
208.645172
 20
99.783875
 11
208.645172
 21
125.080643
  0
TEXT
  8
0
 62
     7
 10
194.825363
 20
124.532257
 40
5.483871
 41
1.000000
  1
5
  7
KANJI
 50
0.000000
 51
0.000000
  0
TEXT
  8
0
 62
     7
 10
200.253723
 20
124.532257
 40
4.387097
 41
1.000000
  1
%%p0.015
  7
KANJI
 50
0.000000
 51
0.000000
  0
LINE
  8
0
 62
     5
 10
244.580658
 20
76.903229
 11
244.580658
 21
106.364517
  0
POLYLINE
  8
0
 62
     5
 66
     1
 70
     2
  0
VERTEX
  8
0
 10
243.483887
 20
103.622581
  0
VERTEX
  8
0
 10
244.580658
 20
99.783875
  0
VERTEX
  8
0
 10
245.677429
 20
103.622581
  0
SEQEND
  0
POLYLINE
  8
0
 62
     5
 66
     1
 70
     2
  0
VERTEX
  8
0
 10
245.677429
 20
79.645164
  0
VERTEX
  8
0
 10
244.580658
 20
83.483871
  0
VERTEX
  8
0
 10
243.483887
 20
79.645164
  0
SEQEND
  0
LINE
  8
0
 62
     5
 10
208.645172
 20
99.783875
 11
246.225800
 21
99.783875
  0
LINE
  8
0
 62
     5
 10
206.145172
 20
83.483871
 11
246.225800
 21
83.483871
  0
TEXT
  8
0
 62
     7
 10
242.935486
 20
74.367386
 40
5.483871
 41
1.000000
  1
16.3
  7
KANJI
 50
90.000000
 51
0.000000
  0
TEXT
  8
0
 62
     7
 10
243.264526
 20
98.103752
 40
2.741935
 41
1.000000
  1
 
  7
KANJI
 50
90.000000
 51
0.000000
  0
TEXT
  8
0
 62
     7
 10
239.864532
 20
98.103752
 40
2.741935
 41
1.000000
  1
+
  7
KANJI
 50
90.000000
 51
0.000000
  0
TEXT
  8
0
 62
     7
 10
243.264526
 20
101.174721
 40
2.741935
 41
1.000000
  1
0
  7
KANJI
 50
90.000000
 51
0.000000
  0
TEXT
  8
0
 62
     7
 10
239.864532
 20
101.174721
 40
2.741935
 41
1.000000
  1
0.1
  7
KANJI
 50
90.000000
 51
0.000000
  0
ARC
  8
0
 62
     4
 10
206.145172
 20
90.483871
 40
7.000000
 50
110.92489056227349
 51
69.07516693692226
  0
POLYLINE
  8
0
 62
     4
 66
     1
 70
     2
  0
VERTEX
  8
0
 10
208.645172
 20
97.022217
  0
VERTEX
  8
0
 10
208.645172
 20
99.783875
  0
VERTEX
  8
0
 10
203.645157
 20
99.783875
  0
VERTEX
  8
0
 10
203.645157
 20
97.022217
  0
SEQEND
  0
LINE
  8
0
 62
     4
 10
77.870964
 20
99.783875
 11
112.870964
 21
99.783875
  0
POLYLINE
  8
DASHDOT
 62
     7
 66
     1
 70
     2
  0
VERTEX
  8
DASHDOT
 10
106.370964
 20
110.274193
  0
VERTEX
  8
DASHDOT
 10
106.370964
 20
96.493546
  0
SEQEND
  0
POLYLINE
  8
0
 62
     4
 66
     1
 70
     2
  0
VERTEX
  8
0
 10
108.370964
 20
106.983871
  0
VERTEX
  8
0
 10
108.370964
 20
99.783875
  0
SEQEND
  0
POLYLINE
  8
0
 62
     4
 66
     1
 70
     2
  0
VERTEX
  8
0
 10
104.370964
 20
106.983871
  0
VERTEX
  8
0
 10
104.370964
 20
99.783875
  0
SEQEND
  0
POLYLINE
  8
0
 62
     4
 66
     1
 70
     2
  0
VERTEX
  8
0
 10
107.990967
 20
106.983871
  0
VERTEX
  8
0
 10
107.990967
 20
99.783875
  0
SEQEND
  0
POLYLINE
  8
0
 62
     4
 66
     1
 70
     2
  0
VERTEX
  8
0
 10
104.750961
 20
106.983871
  0
VERTEX
  8
0
 10
104.750961
 20
99.783875
  0
SEQEND
  0
POLYLINE
  8
0
 62
     4
 66
     1
 70
     2
  0
VERTEX
  8
0
 10
204.145172
 20
99.783875
  0
VERTEX
  8
0
 10
204.145172
 20
106.862213
  0
SEQEND
  0
POLYLINE
  8
0
 62
     4
 66
     1
 70
     2
  0
VERTEX
  8
0
 10
208.145172
 20
99.783875
  0
VERTEX
  8
0
 10
208.145172
 20
106.862213
  0
SEQEND
  0
POLYLINE
  8
0
 62
     4
 66
     1
 70
     2
  0
VERTEX
  8
0
 10
204.525162
 20
99.783875
  0
VERTEX
  8
0
 10
204.525162
 20
106.904152
  0
SEQEND
  0
POLYLINE
  8
0
 62
     4
 66
     1
 70
     2
  0
VERTEX
  8
0
 10
207.765167
 20
99.783875
  0
VERTEX
  8
0
 10
207.765167
 20
106.904152
  0
SEQEND
  0
POLYLINE
  8
0
 62
     5
 66
     1
 70
     2
  0
VERTEX
  8
0
 10
206.145172
 20
106.983871
  0
VERTEX
  8
0
 10
186.403229
 20
139.887100
  0
VERTEX
  8
0
 10
198.467743
 20
139.887100
  0
SEQEND
  0
POLYLINE
  8
0
 62
     5
 66
     1
 70
     2
  0
VERTEX
  8
0
 10
203.229691
 20
109.711250
  0
VERTEX
  8
0
 10
206.145172
 20
106.983871
  0
VERTEX
  8
0
 10
205.110641
 20
110.839821
  0
SEQEND
  0
TEXT
  8
0
 62
     7
 10
187.500000
 20
140.983871
 40
5.264516
 41
1.000000
  1
M4
  7
KANJI
 50
0.000000
 51
0.000000
  0
CIRCLE
  8
0
 62
     7
 10
106.370964
 20
90.483871
 40
2.000000
  0
CIRCLE
  8
0
 62
     4
 10
106.370964
 20
90.483871
 40
1.620000
  0
POLYLINE
  8
DASHDOT
 62
     7
 66
     1
 70
     2
  0
VERTEX
  8
DASHDOT
 10
101.080643
 20
90.483871
  0
VERTEX
  8
DASHDOT
 10
111.661285
 20
90.483871
  0
SEQEND
  0
POLYLINE
  8
DASHDOT
 62
     7
 66
     1
 70
     2
  0
VERTEX
  8
DASHDOT
 10
106.370964
 20
85.193550
  0
VERTEX
  8
DASHDOT
 10
106.370964
 20
95.774193
  0
SEQEND
  0
LINE
  8
0
 62
     5
 10
106.370964
 20
106.983871
 11
106.370964
 21
113.483871
  0
POLYLINE
  8
0
 62
     4
 66
     1
 70
     2
  0
VERTEX
  8
0
 10
212.853363
 20
92.483871
  0
VERTEX
  8
0
 10
222.523499
 20
92.483871
  0
SEQEND
  0
POLYLINE
  8
0
 62
     4
 66
     1
 70
     2
  0
VERTEX
  8
0
 10
212.853363
 20
88.483871
  0
VERTEX
  8
0
 10
222.523499
 20
88.483871
  0
SEQEND
  0
POLYLINE
  8
0
 62
     4
 66
     1
 70
     2
  0
VERTEX
  8
0
 10
212.955139
 20
92.103874
  0
VERTEX
  8
0
 10
222.565460
 20
92.103874
  0
SEQEND
  0
POLYLINE
  8
0
 62
     4
 66
     1
 70
     2
  0
VERTEX
  8
0
 10
212.955139
 20
88.863869
  0
VERTEX
  8
0
 10
222.565460
 20
88.863869
  0
SEQEND
  0
POLYLINE
  8
0
 62
     5
 66
     1
 70
     2
  0
VERTEX
  8
0
 10
222.645172
 20
90.483871
  0
VERTEX
  8
0
 10
239.096771
 20
131.112900
  0
VERTEX
  8
0
 10
223.083862
 20
131.112900
  0
SEQEND
  0
POLYLINE
  8
0
 62
     5
 66
     1
 70
     2
  0
VERTEX
  8
0
 10
223.069305
 20
94.453598
  0
VERTEX
  8
0
 10
222.645172
 20
90.483871
  0
VERTEX
  8
0
 10
225.102509
 20
93.630310
  0
SEQEND
  0
TEXT
  8
0
 62
     7
 10
225.277405
 20
132.209686
 40
5.264516
 41
1.000000
  1
M4
  7
KANJI
 50
0.000000
 51
0.000000
  0
LINE
  8
0
 62
     5
 10
134.806458
 20
97.483871
 11
134.806458
 21
83.483871
  0
POLYLINE
  8
0
 62
     5
 66
     1
 70
     2
  0
VERTEX
  8
0
 10
133.709671
 20
87.322578
  0
VERTEX
  8
0
 10
134.806458
 20
83.483871
  0
VERTEX
  8
0
 10
135.903229
 20
87.322578
  0
SEQEND
  0
LINE
  8
0
 62
     5
 10
112.870964
 20
83.483871
 11
136.451614
 21
83.483871
  0
TEXT
  8
0
 62
     7
 10
133.709671
 20
80.475807
 40
5.483871
 41
1.000000
  1
%%c14H7
  7
KANJI
 50
90.000000
 51
0.000000
  0
POLYLINE
  8
0
 62
     4
 66
     1
 70
     2
  0
VERTEX
  8
0
 10
99.870964
 20
106.983871
  0
VERTEX
  8
0
 10
99.870964
 20
112.387100
  0
VERTEX
  8
0
 10
98.774185
 20
113.483871
  0
VERTEX
  8
0
 10
93.969986
 20
113.483871
  0
SEQEND
  0
POLYLINE
  8
0
 62
     4
 66
     1
 70
     2
  0
VERTEX
  8
0
 10
93.969986
 20
67.483871
  0
VERTEX
  8
0
 10
98.774185
 20
67.483871
  0
VERTEX
  8
0
 10
99.870964
 20
68.580643
  0
VERTEX
  8
0
 10
99.870964
 20
73.983871
  0
SEQEND
  0
POLYLINE
  8
0
 62
     4
 66
     1
 70
     2
  0
VERTEX
  8
0
 10
99.870964
 20
73.983871
  0
VERTEX
  8
0
 10
112.370964
 20
73.983871
  0
VERTEX
  8
0
 10
112.870964
 20
74.483871
  0
VERTEX
  8
0
 10
112.870964
 20
106.483871
  0
VERTEX
  8
0
 10
112.370964
 20
106.983871
  0
VERTEX
  8
0
 10
99.870964
 20
106.983871
  0
SEQEND
  0
CIRCLE
  8
0
 62
     4
 10
206.145172
 20
90.483871
 40
16.500000
  0
LINE
  8
0
 62
     5
 10
119.451614
 20
125.983871
 11
99.790321
 21
125.983871
  0
POLYLINE
  8
0
 62
     5
 66
     1
 70
     2
  0
VERTEX
  8
0
 10
102.532257
 20
124.887100
  0
VERTEX
  8
0
 10
106.370964
 20
125.983871
  0
VERTEX
  8
0
 10
102.532257
 20
127.080643
  0
SEQEND
  0
POLYLINE
  8
0
 62
     5
 66
     1
 70
     2
  0
VERTEX
  8
0
 10
116.709671
 20
127.080643
  0
VERTEX
  8
0
 10
112.870964
 20
125.983871
  0
VERTEX
  8
0
 10
116.709671
 20
124.887100
  0
SEQEND
  0
LINE
  8
0
 62
     5
 10
106.370964
 20
113.483871
 11
106.370964
 21
127.629028
  0
TEXT
  8
0
 62
     7
 10
104.274185
 20
126.861290
 40
5.483871
 41
1.000000
  1
6.5
  7
KANJI
 50
0.000000
 51
0.000000
  0
LINE
  8
0
 62
     5
 10
106.370964
 20
106.983871
 11
106.370964
 21
113.483871
  0
ENDSEC
  0
EOF
