  0
SECTION
  2
HEADER
  9
$ACADVER
  1
AC1003
  9
$INSBASE
 10
0.000000
 20
0.000000
  9
$EXTMIN
 10
0.000000
 20
0.000000
  9
$EXTMAX
 10
65.671233
 20
45.410959
  9
$LIMMIN
 10
0.000000
 20
0.000000
  9
$LIMMAX
 10
65.671233
 20
45.410959
  9
$VIEWCTR
 10
32.835616
 20
22.705479
  9
$VIEWSIZE
 40
45.410959
  0
ENDSEC
  0
SECTION
  2
TABLES
  0
TABLE
  2
LTYPE
 70
     4
  0
LTYPE
  2
CONTINUOUS
 70
    64
  3
SolidLine
 72
    65
 73
     0
 40
0.0
  0
LTYPE
  2
HIDDEN
 70
    64
  3
------------------------
 72
    65
 73
     2
 40
0.698630
 49
0.465753
 49
-0.232877
  0
LTYPE
  2
DASHDOT
 70
    64
  3
--?--?--?--?--?--?--?--
 72
    65
 73
     4
 40
2.794521
 49
2.095890
 49
-0.232877
 49
0.232877
 49
-0.232877
  0
LTYPE
  2
DIVIDE
 70
    64
  3
--??--??--??--??--??--
 72
    65
 73
     6
 40
3.493151
 49
2.328767
 49
-0.232877
 49
0.232877
 49
-0.232877
 49
0.232877
 49
-0.232877
  0
ENDTAB
  0
TABLE
  2
LAYER
 70
     5
  0
LAYER
  2
0
 70
    64
 62
     7
  6
CONTINUOUS
  0
LAYER
  2
HIDDEN
 70
    64
 62
     2
  6
HIDDEN
  0
LAYER
  2
DASHDOT
 70
    64
 62
     6
  6
DASHDOT
  0
LAYER
  2
DIVIDE
 70
    64
 62
     5
  6
DIVIDE
  0
ENDTAB
  0
TABLE
  2
STYLE
 70
     1
  0
STYLE
  2
STANDARD
 70
    64
 40
0.0
 41
1.0
 50
0.0
 71
     0
 42
0.2
  3
TXT
  4

  0
STYLE
  2
KANJI
 70
    64
 40
0.0
 41
1.0
 50
0.0
 71
     0
 42
0.2
  3
TXT
  4
BIGFONT
  0
ENDTAB
  0
TABLE
  2
VIEW
 70
     0
  0
ENDTAB
  0
ENDSEC
  0
SECTION
  2
BLOCKS
  0
ENDSEC
  0
SECTION
  2
ENTITIES
  0
TEXT
  8
0
 62
     7
 10
2.328767
 20
2.561644
 40
0.931507
 41
1.000000
  1
KHK DS0.8-16
  7
KANJI
 50
0.000000
 51
0.000000
  0
TEXT
  8
0
 62
     7
 10
2.328767
 20
1.164384
 40
0.931507
 41
1.000000
  1

  7
KANJI
 50
0.000000
 51
0.000000
  0
TEXT
  8
0
 62
     7
 10
2.328767
 20
41.917809
 40
1.047945
 41
1.000000
  1

  7
KANJI
 50
0.000000
 51
0.000000
  0
ARC
  8
0
 62
     7
 10
55.599316
 20
42.406574
 40
0.873288
 50
10.0
 51
180.0
  0
ARC
  8
0
 62
     7
 10
57.319359
 20
42.709866
 40
0.873288
 50
180.0
 51
10.0
  0
LINE
  8
0
 62
     5
 10
12.808219
 20
15.280821
 11
12.808219
 21
21.280821
  0
POLYLINE
  8
0
 62
     5
 66
     1
 70
     2
  0
VERTEX
  8
0
 10
12.575342
 20
16.095890
  0
VERTEX
  8
0
 10
12.808219
 20
15.280821
  0
VERTEX
  8
0
 10
13.041096
 20
16.095890
  0
SEQEND
  0
POLYLINE
  8
0
 62
     5
 66
     1
 70
     2
  0
VERTEX
  8
0
 10
13.041096
 20
20.465752
  0
VERTEX
  8
0
 10
12.808219
 20
21.280821
  0
VERTEX
  8
0
 10
12.575342
 20
20.465752
  0
SEQEND
  0
LINE
  8
0
 62
     5
 10
19.095890
 20
15.280821
 11
12.458904
 21
15.280821
  0
LINE
  8
0
 62
     5
 10
19.095890
 20
21.280821
 11
12.458904
 21
21.280821
  0
TEXT
  8
0
 62
     7
 10
12.342465
 20
17.291096
 40
1.164384
 41
1.000000
  1
%%c6
  7
KANJI
 50
90.000000
 51
0.000000
  0
LINE
  8
0
 62
     5
 10
10.712328
 20
13.680820
 11
10.712328
 21
22.880821
  0
POLYLINE
  8
0
 62
     5
 66
     1
 70
     2
  0
VERTEX
  8
0
 10
10.479451
 20
14.495890
  0
VERTEX
  8
0
 10
10.712328
 20
13.680820
  0
VERTEX
  8
0
 10
10.945205
 20
14.495890
  0
SEQEND
  0
POLYLINE
  8
0
 62
     5
 66
     1
 70
     2
  0
VERTEX
  8
0
 10
10.945205
 20
22.065752
  0
VERTEX
  8
0
 10
10.712328
 20
22.880821
  0
VERTEX
  8
0
 10
10.479451
 20
22.065752
  0
SEQEND
  0
LINE
  8
0
 62
     5
 10
19.095890
 20
13.680820
 11
10.363013
 21
13.680820
  0
LINE
  8
0
 62
     5
 10
19.095890
 20
22.880821
 11
10.363013
 21
22.880821
  0
TEXT
  8
0
 62
     7
 10
10.246574
 20
15.777396
 40
1.164384
 41
1.000000
  1
(%%c9.2)
  7
KANJI
 50
90.000000
 51
0.000000
  0
LINE
  8
0
 62
     5
 10
36.013699
 20
22.880821
 11
36.013699
 21
13.680820
  0
POLYLINE
  8
0
 62
     5
 66
     1
 70
     2
  0
VERTEX
  8
0
 10
36.246574
 20
22.065752
  0
VERTEX
  8
0
 10
36.013699
 20
22.880821
  0
VERTEX
  8
0
 10
35.780823
 20
22.065752
  0
SEQEND
  0
POLYLINE
  8
0
 62
     5
 66
     1
 70
     2
  0
VERTEX
  8
0
 10
35.780823
 20
14.495890
  0
VERTEX
  8
0
 10
36.013699
 20
13.680820
  0
VERTEX
  8
0
 10
36.246574
 20
14.495890
  0
SEQEND
  0
LINE
  8
0
 62
     5
 10
28.095890
 20
22.880821
 11
36.363014
 21
22.880821
  0
LINE
  8
0
 62
     5
 10
28.095890
 20
13.680820
 11
36.363014
 21
13.680820
  0
TEXT
  8
0
 62
     7
 10
35.780823
 20
15.777396
 40
1.164384
 41
1.000000
  1
(%%c9.2)
  7
KANJI
 50
90.000000
 51
0.000000
  0
LINE
  8
0
 62
     5
 10
37.876713
 20
25.480820
 11
37.876713
 21
11.080821
  0
POLYLINE
  8
0
 62
     5
 66
     1
 70
     2
  0
VERTEX
  8
0
 10
38.109589
 20
24.665752
  0
VERTEX
  8
0
 10
37.876713
 20
25.480820
  0
VERTEX
  8
0
 10
37.643837
 20
24.665752
  0
SEQEND
  0
POLYLINE
  8
0
 62
     5
 66
     1
 70
     2
  0
VERTEX
  8
0
 10
37.643837
 20
11.895889
  0
VERTEX
  8
0
 10
37.876713
 20
11.080821
  0
VERTEX
  8
0
 10
38.109589
 20
11.895889
  0
SEQEND
  0
LINE
  8
0
 62
     5
 10
28.095890
 20
25.480820
 11
38.226028
 21
25.480820
  0
LINE
  8
0
 62
     5
 10
28.095890
 20
11.080821
 11
38.226028
 21
11.080821
  0
TEXT
  8
0
 62
     7
 10
37.643837
 20
16.155821
 40
1.164384
 41
1.000000
  1
%%c14.4
  7
KANJI
 50
90.000000
 51
0.000000
  0
LINE
  8
0
 62
     5
 10
23.493151
 20
27.072601
 11
18.698629
 21
27.072601
  0
POLYLINE
  8
0
 62
     5
 66
     1
 70
     2
  0
VERTEX
  8
0
 10
19.280821
 20
26.839725
  0
VERTEX
  8
0
 10
20.095890
 20
27.072601
  0
VERTEX
  8
0
 10
19.280821
 20
27.305477
  0
SEQEND
  0
POLYLINE
  8
0
 62
     5
 66
     1
 70
     2
  0
VERTEX
  8
0
 10
22.910959
 20
27.305477
  0
VERTEX
  8
0
 10
22.095890
 20
27.072601
  0
VERTEX
  8
0
 10
22.910959
 20
26.839725
  0
SEQEND
  0
LINE
  8
0
 62
     5
 10
20.095890
 20
22.880821
 11
20.095890
 21
27.421917
  0
LINE
  8
0
 62
     5
 10
22.095890
 20
22.880821
 11
22.095890
 21
27.421917
  0
TEXT
  8
0
 62
     7
 10
19.960615
 20
27.258904
 40
1.164384
 41
1.000000
  1
(2)
  7
KANJI
 50
0.000000
 51
0.000000
  0
LINE
  8
DASHDOT
 62
     7
 10
18.397261
 20
24.680820
 11
23.794521
 21
24.680820
  0
LINE
  8
DASHDOT
 62
     7
 10
18.397261
 20
11.880821
 11
23.794521
 21
11.880821
  0
LINE
  8
DASHDOT
 62
     7
 10
18.397261
 20
18.280821
 11
28.794521
 21
18.280821
  0
LINE
  8
0
 62
     5
 10
22.095890
 20
22.880821
 11
22.095890
 21
25.480820
  0
LINE
  8
0
 62
     4
 10
19.095890
 20
23.680820
 11
23.095890
 21
23.680820
  0
LINE
  8
0
 62
     4
 10
19.095890
 20
12.880821
 11
23.095890
 21
12.880821
  0
POLYLINE
  8
0
 62
     4
 66
     1
 70
     2
  0
VERTEX
  8
0
 10
19.095890
 20
22.880821
  0
VERTEX
  8
0
 10
20.095890
 20
22.880821
  0
VERTEX
  8
0
 10
20.095890
 20
21.280821
  0
VERTEX
  8
0
 10
19.095890
 20
21.280821
  0
SEQEND
  0
POLYLINE
  8
0
 62
     4
 66
     1
 70
     2
  0
VERTEX
  8
0
 10
19.095890
 20
15.280821
  0
VERTEX
  8
0
 10
20.095890
 20
15.280821
  0
VERTEX
  8
0
 10
20.095890
 20
13.680820
  0
VERTEX
  8
0
 10
19.095890
 20
13.680820
  0
SEQEND
  0
POLYLINE
  8
0
 62
     4
 66
     1
 70
     2
  0
VERTEX
  8
0
 10
28.095890
 20
20.580820
  0
VERTEX
  8
0
 10
27.795891
 20
20.280821
  0
VERTEX
  8
0
 10
19.395889
 20
20.280821
  0
VERTEX
  8
0
 10
19.095890
 20
20.580820
  0
VERTEX
  8
0
 10
19.395889
 20
20.280821
  0
VERTEX
  8
0
 10
19.395889
 20
16.280821
  0
SEQEND
  0
POLYLINE
  8
0
 62
     4
 66
     1
 70
     2
  0
VERTEX
  8
0
 10
19.095890
 20
15.980821
  0
VERTEX
  8
0
 10
19.395889
 20
16.280821
  0
VERTEX
  8
0
 10
27.795891
 20
16.280821
  0
VERTEX
  8
0
 10
28.095890
 20
15.980821
  0
VERTEX
  8
0
 10
27.795891
 20
16.280821
  0
VERTEX
  8
0
 10
27.795891
 20
20.280821
  0
SEQEND
  0
LINE
  8
0
 62
     5
 10
23.095890
 20
11.080821
 11
28.095890
 21
11.080821
  0
LINE
  8
0
 62
     5
 10
23.095890
 20
13.680820
 11
28.095890
 21
13.680820
  0
LINE
  8
0
 62
     5
 10
23.095890
 20
22.880821
 11
28.095890
 21
22.880821
  0
LINE
  8
0
 62
     5
 10
23.095890
 20
25.480820
 11
28.095890
 21
25.480820
  0
LINE
  8
0
 62
     5
 10
28.095890
 20
21.980822
 11
28.095890
 21
25.480820
  0
LINE
  8
0
 62
     5
 10
19.095890
 20
32.467121
 11
28.095890
 21
32.467121
  0
POLYLINE
  8
0
 62
     5
 66
     1
 70
     2
  0
VERTEX
  8
0
 10
19.910959
 20
32.699997
  0
VERTEX
  8
0
 10
19.095890
 20
32.467121
  0
VERTEX
  8
0
 10
19.910959
 20
32.234245
  0
SEQEND
  0
POLYLINE
  8
0
 62
     5
 66
     1
 70
     2
  0
VERTEX
  8
0
 10
27.280823
 20
32.234245
  0
VERTEX
  8
0
 10
28.095890
 20
32.467121
  0
VERTEX
  8
0
 10
27.280823
 20
32.699997
  0
SEQEND
  0
LINE
  8
0
 62
     5
 10
19.095890
 20
25.480820
 11
19.095890
 21
32.816437
  0
LINE
  8
0
 62
     5
 10
28.095890
 20
25.480820
 11
28.095890
 21
32.816437
  0
TEXT
  8
0
 62
     7
 10
23.217464
 20
32.653423
 40
1.164384
 41
1.000000
  1
9
  7
KANJI
 50
0.000000
 51
0.000000
  0
LINE
  8
0
 62
     5
 10
19.095890
 20
30.604109
 11
23.095890
 21
30.604109
  0
POLYLINE
  8
0
 62
     5
 66
     1
 70
     2
  0
VERTEX
  8
0
 10
19.910959
 20
30.836987
  0
VERTEX
  8
0
 10
19.095890
 20
30.604109
  0
VERTEX
  8
0
 10
19.910959
 20
30.371231
  0
SEQEND
  0
POLYLINE
  8
0
 62
     5
 66
     1
 70
     2
  0
VERTEX
  8
0
 10
22.280821
 20
30.371231
  0
VERTEX
  8
0
 10
23.095890
 20
30.604109
  0
VERTEX
  8
0
 10
22.280821
 20
30.836987
  0
SEQEND
  0
LINE
  8
0
 62
     5
 10
23.095890
 20
25.480820
 11
23.095890
 21
30.953423
  0
TEXT
  8
0
 62
     7
 10
20.717464
 20
30.790409
 40
1.164384
 41
1.000000
  1
4
  7
KANJI
 50
0.000000
 51
0.000000
  0
LINE
  8
0
 62
     5
 10
23.095890
 20
30.604109
 11
28.095890
 21
30.604109
  0
POLYLINE
  8
0
 62
     5
 66
     1
 70
     2
  0
VERTEX
  8
0
 10
23.910957
 20
30.836987
  0
VERTEX
  8
0
 10
23.095890
 20
30.604109
  0
VERTEX
  8
0
 10
23.910957
 20
30.371231
  0
SEQEND
  0
POLYLINE
  8
0
 62
     5
 66
     1
 70
     2
  0
VERTEX
  8
0
 10
27.280823
 20
30.371231
  0
VERTEX
  8
0
 10
28.095890
 20
30.604109
  0
VERTEX
  8
0
 10
27.280823
 20
30.836987
  0
SEQEND
  0
TEXT
  8
0
 62
     7
 10
25.217464
 20
30.790409
 40
1.164384
 41
1.000000
  1
5
  7
KANJI
 50
0.000000
 51
0.000000
  0
LINE
  8
0
 62
     5
 10
30.424656
 20
20.280821
 11
30.424656
 21
16.280821
  0
POLYLINE
  8
0
 62
     5
 66
     1
 70
     2
  0
VERTEX
  8
0
 10
30.657534
 20
19.465752
  0
VERTEX
  8
0
 10
30.424656
 20
20.280821
  0
VERTEX
  8
0
 10
30.191780
 20
19.465752
  0
SEQEND
  0
POLYLINE
  8
0
 62
     5
 66
     1
 70
     2
  0
VERTEX
  8
0
 10
30.191780
 20
17.095890
  0
VERTEX
  8
0
 10
30.424656
 20
16.280821
  0
VERTEX
  8
0
 10
30.657534
 20
17.095890
  0
SEQEND
  0
LINE
  8
0
 62
     5
 10
28.095890
 20
20.280821
 11
30.773972
 21
20.280821
  0
LINE
  8
0
 62
     5
 10
28.095890
 20
16.280821
 11
30.773972
 21
16.280821
  0
TEXT
  8
0
 62
     7
 10
30.191780
 20
17.291096
 40
1.164384
 41
1.000000
  1
%%c4
  7
KANJI
 50
90.000000
 51
0.000000
  0
POLYLINE
  8
0
 62
     4
 66
     1
 70
     2
  0
VERTEX
  8
0
 10
19.095890
 20
16.280821
  0
VERTEX
  8
0
 10
19.095890
 20
11.080821
  0
VERTEX
  8
0
 10
23.095890
 20
11.080821
  0
VERTEX
  8
0
 10
23.095890
 20
14.280821
  0
VERTEX
  8
0
 10
27.795891
 20
14.280821
  0
VERTEX
  8
0
 10
28.095890
 20
14.580821
  0
VERTEX
  8
0
 10
28.095890
 20
21.980822
  0
VERTEX
  8
0
 10
27.795891
 20
22.280821
  0
VERTEX
  8
0
 10
23.095890
 20
22.280821
  0
VERTEX
  8
0
 10
23.095890
 20
25.480820
  0
VERTEX
  8
0
 10
19.095890
 20
25.480820
  0
VERTEX
  8
0
 10
19.095890
 20
16.280821
  0
SEQEND
  0
POLYLINE
  8
0
 62
     4
 66
     1
 70
     2
  0
VERTEX
  8
0
 10
19.095890
 20
16.280821
  0
VERTEX
  8
0
 10
19.095890
 20
11.080821
  0
VERTEX
  8
0
 10
23.095890
 20
11.080821
  0
VERTEX
  8
0
 10
23.095890
 20
14.280821
  0
SEQEND
  0
POLYLINE
  8
0
 62
     4
 66
     1
 70
     2
  0
VERTEX
  8
0
 10
28.095890
 20
14.580821
  0
VERTEX
  8
0
 10
28.095890
 20
21.980822
  0
SEQEND
  0
POLYLINE
  8
0
 62
     4
 66
     1
 70
     2
  0
VERTEX
  8
0
 10
23.095890
 20
22.280821
  0
VERTEX
  8
0
 10
23.095890
 20
25.480820
  0
VERTEX
  8
0
 10
19.095890
 20
25.480820
  0
VERTEX
  8
0
 10
19.095890
 20
16.280821
  0
SEQEND
  0
POLYLINE
  8
0
 62
     4
 66
     1
 70
     2
  0
VERTEX
  8
0
 10
23.095890
 20
13.680820
  0
VERTEX
  8
0
 10
22.095890
 20
13.680820
  0
VERTEX
  8
0
 10
22.095890
 20
14.280821
  0
VERTEX
  8
0
 10
23.095890
 20
14.280821
  0
SEQEND
  0
POLYLINE
  8
0
 62
     4
 66
     1
 70
     2
  0
VERTEX
  8
0
 10
23.095890
 20
22.280821
  0
VERTEX
  8
0
 10
22.095890
 20
22.280821
  0
VERTEX
  8
0
 10
22.095890
 20
22.880821
  0
VERTEX
  8
0
 10
23.095890
 20
22.880821
  0
SEQEND
  0
LINE
  8
0
 62
     5
 10
32.287670
 20
22.280821
 11
32.287670
 21
14.280821
  0
POLYLINE
  8
0
 62
     5
 66
     1
 70
     2
  0
VERTEX
  8
0
 10
32.520546
 20
21.465752
  0
VERTEX
  8
0
 10
32.287670
 20
22.280821
  0
VERTEX
  8
0
 10
32.054794
 20
21.465752
  0
SEQEND
  0
POLYLINE
  8
0
 62
     5
 66
     1
 70
     2
  0
VERTEX
  8
0
 10
32.054794
 20
15.095889
  0
VERTEX
  8
0
 10
32.287670
 20
14.280821
  0
VERTEX
  8
0
 10
32.520546
 20
15.095889
  0
SEQEND
  0
LINE
  8
0
 62
     5
 10
28.095890
 20
22.280821
 11
32.636986
 21
22.280821
  0
LINE
  8
0
 62
     5
 10
28.095890
 20
14.280821
 11
32.636986
 21
14.280821
  0
TEXT
  8
0
 62
     7
 10
32.054794
 20
17.291096
 40
1.164384
 41
1.000000
  1
%%c8
  7
KANJI
 50
90.000000
 51
0.000000
  0
ENDSEC
  0
EOF
