  0
SECTION
  2
HEADER
  9
$ACADVER
  1
AC1003
  9
$INSBASE
 10
0.000000
 20
0.000000
  9
$EXTMIN
 10
0.000000
 20
0.000000
  9
$EXTMAX
 10
98.575221
 20
68.163717
  9
$LIMMIN
 10
0.000000
 20
0.000000
  9
$LIMMAX
 10
98.575221
 20
68.163717
  9
$VIEWCTR
 10
49.287611
 20
34.081858
  9
$VIEWSIZE
 40
68.163717
  0
ENDSEC
  0
SECTION
  2
TABLES
  0
TABLE
  2
LTYPE
 70
     4
  0
LTYPE
  2
CONTINUOUS
 70
    64
  3
SolidLine
 72
    65
 73
     0
 40
0.0
  0
LTYPE
  2
HIDDEN
 70
    64
  3
------------------------
 72
    65
 73
     2
 40
1.048673
 49
0.699115
 49
-0.349558
  0
LTYPE
  2
DASHDOT
 70
    64
  3
--?--?--?--?--?--?--?--
 72
    65
 73
     4
 40
4.194690
 49
3.146018
 49
-0.349558
 49
0.349558
 49
-0.349558
  0
LTYPE
  2
DIVIDE
 70
    64
  3
--??--??--??--??--??--
 72
    65
 73
     6
 40
5.243363
 49
3.495575
 49
-0.349558
 49
0.349558
 49
-0.349558
 49
0.349558
 49
-0.349558
  0
ENDTAB
  0
TABLE
  2
LAYER
 70
     5
  0
LAYER
  2
0
 70
    64
 62
     7
  6
CONTINUOUS
  0
LAYER
  2
HIDDEN
 70
    64
 62
     2
  6
HIDDEN
  0
LAYER
  2
DASHDOT
 70
    64
 62
     6
  6
DASHDOT
  0
LAYER
  2
DIVIDE
 70
    64
 62
     5
  6
DIVIDE
  0
ENDTAB
  0
TABLE
  2
STYLE
 70
     1
  0
STYLE
  2
STANDARD
 70
    64
 40
0.0
 41
1.0
 50
0.0
 71
     0
 42
0.2
  3
TXT
  4

  0
STYLE
  2
KANJI
 70
    64
 40
0.0
 41
1.0
 50
0.0
 71
     0
 42
0.2
  3
TXT
  4
BIGFONT
  0
ENDTAB
  0
TABLE
  2
VIEW
 70
     0
  0
ENDTAB
  0
ENDSEC
  0
SECTION
  2
BLOCKS
  0
ENDSEC
  0
SECTION
  2
ENTITIES
  0
TEXT
  8
0
 62
     7
 10
3.495575
 20
3.845133
 40
1.398230
 41
1.000000
  1
KHK DSF0.5-50
  7
KANJI
 50
0.000000
 51
0.000000
  0
TEXT
  8
0
 62
     7
 10
3.495575
 20
1.747788
 40
1.398230
 41
1.000000
  1

  7
KANJI
 50
0.000000
 51
0.000000
  0
TEXT
  8
0
 62
     7
 10
3.495575
 20
62.920353
 40
1.573009
 41
1.000000
  1

  7
KANJI
 50
0.000000
 51
0.000000
  0
POLYLINE
  8
0
 62
     7
 66
     1
 70
     2
  0
VERTEX
  8
0
 10
83.893806
 20
62.920353
  0
VERTEX
  8
0
 10
82.530533
 20
65.283363
  0
VERTEX
  8
0
 10
87.983627
 20
65.283363
  0
VERTEX
  8
0
 10
86.620354
 20
62.920353
  0
VERTEX
  8
0
 10
85.257080
 20
65.283363
  0
VERTEX
  8
0
 10
83.893806
 20
62.920353
  0
SEQEND
  0
LINE
  8
0
 62
     5
 10
64.046906
 20
42.887169
 11
64.046906
 21
35.331432
  0
LINE
  8
0
 62
     5
 10
31.173450
 20
41.838497
 11
31.173450
 21
35.838497
  0
POLYLINE
  8
0
 62
     5
 66
     1
 70
     2
  0
VERTEX
  8
0
 10
32.222122
 20
33.998497
  0
VERTEX
  8
0
 10
37.969025
 20
48.829647
  0
VERTEX
  8
0
 10
46.078758
 20
48.829647
  0
SEQEND
  0
POLYLINE
  8
0
 62
     5
 66
     1
 70
     2
  0
VERTEX
  8
0
 10
32.338226
 20
35.265598
  0
VERTEX
  8
0
 10
32.222122
 20
33.998497
  0
VERTEX
  8
0
 10
32.990112
 20
35.013000
  0
SEQEND
  0
TEXT
  8
0
 62
     7
 10
38.318581
 20
49.179207
 40
1.677876
 41
1.000000
  1
M2.5
  7
KANJI
 50
0.000000
 51
0.000000
  0
LINE
  8
0
 62
     5
 10
61.949558
 20
48.829647
 11
70.544243
 21
48.829647
  0
POLYLINE
  8
0
 62
     5
 66
     1
 70
     2
  0
VERTEX
  8
0
 10
69.670349
 20
49.179207
  0
VERTEX
  8
0
 10
68.446899
 20
48.829647
  0
VERTEX
  8
0
 10
69.670349
 20
48.480087
  0
SEQEND
  0
POLYLINE
  8
0
 62
     5
 66
     1
 70
     2
  0
VERTEX
  8
0
 10
62.823452
 20
48.480087
  0
VERTEX
  8
0
 10
64.046906
 20
48.829647
  0
VERTEX
  8
0
 10
62.823452
 20
49.179207
  0
SEQEND
  0
LINE
  8
0
 62
     5
 10
68.446899
 20
42.887169
 11
68.446899
 21
49.353981
  0
LINE
  8
0
 62
     5
 10
64.046906
 20
42.887169
 11
64.046906
 21
49.353981
  0
TEXT
  8
0
 62
     7
 10
64.542809
 20
49.179207
 40
1.747788
 41
1.000000
  1
4.4
  7
KANJI
 50
360.000000
 51
0.000000
  0
LINE
  8
0
 62
     5
 10
36.570793
 20
47.780975
 11
29.076103
 21
47.780975
  0
POLYLINE
  8
0
 62
     5
 66
     1
 70
     2
  0
VERTEX
  8
0
 10
29.949997
 20
47.431419
  0
VERTEX
  8
0
 10
31.173450
 20
47.780975
  0
VERTEX
  8
0
 10
29.949997
 20
48.130531
  0
SEQEND
  0
POLYLINE
  8
0
 62
     5
 66
     1
 70
     2
  0
VERTEX
  8
0
 10
35.696899
 20
48.130531
  0
VERTEX
  8
0
 10
34.473450
 20
47.780975
  0
VERTEX
  8
0
 10
35.696899
 20
47.431419
  0
SEQEND
  0
LINE
  8
0
 62
     5
 10
31.173450
 20
41.838497
 11
31.173450
 21
48.305313
  0
TEXT
  8
0
 62
     7
 10
35.522121
 20
48.060623
 40
1.747788
 41
1.000000
  1
3.3
  7
KANJI
 50
0.000000
 51
0.000000
  0
LINE
  8
0
 62
     5
 10
49.154865
 20
35.838497
 11
49.154865
 21
21.838497
  0
POLYLINE
  8
0
 62
     5
 66
     1
 70
     2
  0
VERTEX
  8
0
 10
49.504425
 20
34.615044
  0
VERTEX
  8
0
 10
49.154865
 20
35.838497
  0
VERTEX
  8
0
 10
48.805305
 20
34.615044
  0
SEQEND
  0
POLYLINE
  8
0
 62
     5
 66
     1
 70
     2
  0
VERTEX
  8
0
 10
48.805305
 20
23.061949
  0
VERTEX
  8
0
 10
49.154865
 20
21.838497
  0
VERTEX
  8
0
 10
49.504425
 20
23.061949
  0
SEQEND
  0
LINE
  8
0
 62
     5
 10
34.473450
 20
35.838497
 11
49.679199
 21
35.838497
  0
LINE
  8
0
 62
     5
 10
34.473450
 20
21.838497
 11
49.679199
 21
21.838497
  0
TEXT
  8
0
 62
     7
 10
48.805305
 20
26.784847
 40
1.747788
 41
1.000000
  1
%%c14
  7
KANJI
 50
90.000000
 51
0.000000
  0
LINE
  8
0
 62
     5
 10
25.973450
 20
51.276550
 11
34.473450
 21
51.276550
  0
POLYLINE
  8
0
 62
     5
 66
     1
 70
     2
  0
VERTEX
  8
0
 10
27.196901
 20
51.626106
  0
VERTEX
  8
0
 10
25.973450
 20
51.276550
  0
VERTEX
  8
0
 10
27.196901
 20
50.926994
  0
SEQEND
  0
POLYLINE
  8
0
 62
     5
 66
     1
 70
     2
  0
VERTEX
  8
0
 10
33.250000
 20
50.926994
  0
VERTEX
  8
0
 10
34.473450
 20
51.276550
  0
VERTEX
  8
0
 10
33.250000
 20
51.626106
  0
SEQEND
  0
TEXT
  8
0
 62
     7
 10
28.519356
 20
51.556198
 40
1.747788
 41
1.000000
  1
8.5
  7
KANJI
 50
0.000000
 51
0.000000
  0
LINE
  8
0
 62
     5
 10
20.973450
 20
54.073009
 11
34.473450
 21
54.073009
  0
POLYLINE
  8
0
 62
     5
 66
     1
 70
     2
  0
VERTEX
  8
0
 10
22.196901
 20
54.422569
  0
VERTEX
  8
0
 10
20.973450
 20
54.073009
  0
VERTEX
  8
0
 10
22.196901
 20
53.723450
  0
SEQEND
  0
POLYLINE
  8
0
 62
     5
 66
     1
 70
     2
  0
VERTEX
  8
0
 10
33.250000
 20
53.723450
  0
VERTEX
  8
0
 10
34.473450
 20
54.073009
  0
VERTEX
  8
0
 10
33.250000
 20
54.422569
  0
SEQEND
  0
LINE
  8
0
 62
     5
 10
20.973450
 20
41.838497
 11
20.973450
 21
54.597343
  0
LINE
  8
0
 62
     5
 10
34.473450
 20
41.838497
 11
34.473450
 21
54.597343
  0
TEXT
  8
0
 62
     7
 10
25.451326
 20
54.352654
 40
1.747788
 41
1.000000
  1
13.5
  7
KANJI
 50
0.000000
 51
0.000000
  0
LINE
  8
0
 62
     5
 10
20.973450
 20
51.276550
 11
25.973450
 21
51.276550
  0
POLYLINE
  8
0
 62
     5
 66
     1
 70
     2
  0
VERTEX
  8
0
 10
22.196901
 20
51.626106
  0
VERTEX
  8
0
 10
20.973450
 20
51.276550
  0
VERTEX
  8
0
 10
22.196901
 20
50.926994
  0
SEQEND
  0
POLYLINE
  8
0
 62
     5
 66
     1
 70
     2
  0
VERTEX
  8
0
 10
24.749998
 20
50.926994
  0
VERTEX
  8
0
 10
25.973450
 20
51.276550
  0
VERTEX
  8
0
 10
24.749998
 20
51.626106
  0
SEQEND
  0
LINE
  8
0
 62
     5
 10
25.973450
 20
41.838497
 11
25.973450
 21
51.800888
  0
TEXT
  8
0
 62
     7
 10
22.905418
 20
51.556198
 40
1.747788
 41
1.000000
  1
5
  7
KANJI
 50
0.000000
 51
0.000000
  0
LINE
  8
0
 62
     5
 10
51.951324
 20
41.838497
 11
51.951324
 21
15.838497
  0
POLYLINE
  8
0
 62
     5
 66
     1
 70
     2
  0
VERTEX
  8
0
 10
52.300884
 20
40.615044
  0
VERTEX
  8
0
 10
51.951324
 20
41.838497
  0
VERTEX
  8
0
 10
51.601768
 20
40.615044
  0
SEQEND
  0
POLYLINE
  8
0
 62
     5
 66
     1
 70
     2
  0
VERTEX
  8
0
 10
51.601768
 20
17.061949
  0
VERTEX
  8
0
 10
51.951324
 20
15.838497
  0
VERTEX
  8
0
 10
52.300884
 20
17.061949
  0
SEQEND
  0
LINE
  8
0
 62
     5
 10
34.473450
 20
41.838497
 11
52.475662
 21
41.838497
  0
LINE
  8
0
 62
     5
 10
34.473450
 20
15.838497
 11
52.475662
 21
15.838497
  0
TEXT
  8
0
 62
     7
 10
51.601768
 20
26.784847
 40
1.747788
 41
1.000000
  1
%%c26
  7
KANJI
 50
90.000000
 51
0.000000
  0
LINE
  8
DASHDOT
 62
     7
 10
31.173450
 20
36.887169
 11
31.173450
 21
20.789825
  0
LINE
  8
DASHDOT
 62
     7
 10
64.046906
 20
35.331432
 11
64.046906
 21
22.345562
  0
LINE
  8
DASHDOT
 62
     7
 10
68.446899
 20
42.887169
 11
68.446899
 21
14.789824
  0
LINE
  8
DASHDOT
 62
     7
 10
54.398228
 20
28.838497
 11
82.495575
 21
28.838497
  0
LINE
  8
DASHDOT
 62
     7
 10
19.924778
 20
41.338497
 11
27.022121
 21
41.338497
  0
LINE
  8
DASHDOT
 62
     7
 10
19.924778
 20
16.338497
 11
27.022121
 21
16.338497
  0
LINE
  8
DASHDOT
 62
     7
 10
19.924778
 20
28.838497
 11
35.522121
 21
28.838497
  0
CIRCLE
  8
DASHDOT
 62
     7
 10
68.446899
 20
28.838497
 40
12.500000
  0
LINE
  8
0
 62
     5
 10
34.473450
 20
35.538498
 11
34.473450
 21
41.838497
  0
LINE
  8
0
 62
     5
 10
25.973450
 20
41.838497
 11
25.973450
 21
41.838497
  0
LINE
  8
0
 62
     5
 10
20.973450
 20
41.838497
 11
20.973450
 21
41.838497
  0
LINE
  8
0
 62
     5
 10
25.973450
 20
35.838497
 11
34.473450
 21
35.838497
  0
LINE
  8
0
 62
     5
 10
34.173450
 20
21.838497
 11
34.473450
 21
21.838497
  0
LINE
  8
0
 62
     5
 10
25.973450
 20
41.838497
 11
34.473450
 21
41.838497
  0
LINE
  8
0
 62
     5
 10
25.973450
 20
15.838497
 11
34.473450
 21
15.838497
  0
LINE
  8
HIDDEN
 62
     4
 10
32.423450
 20
31.498497
 11
32.423450
 21
23.646650
  0
LINE
  8
HIDDEN
 62
     4
 10
31.973450
 20
31.498497
 11
31.973450
 21
22.835165
  0
LINE
  8
HIDDEN
 62
     4
 10
30.373449
 20
31.498497
 11
30.373449
 21
22.835165
  0
LINE
  8
HIDDEN
 62
     4
 10
29.923450
 20
31.498497
 11
29.923450
 21
23.646650
  0
POLYLINE
  8
HIDDEN
 62
     4
 66
     1
 70
     2
  0
VERTEX
  8
HIDDEN
 10
67.046906
 20
35.697067
  0
VERTEX
  8
HIDDEN
 10
67.046906
 20
31.498497
  0
VERTEX
  8
HIDDEN
 10
61.796902
 20
31.498497
  0
SEQEND
  0
LINE
  8
HIDDEN
 62
     4
 10
65.296906
 20
31.498497
 11
65.296906
 21
22.587297
  0
LINE
  8
HIDDEN
 62
     4
 10
64.846901
 20
31.498497
 11
64.846901
 21
22.835165
  0
LINE
  8
HIDDEN
 62
     4
 10
63.246902
 20
31.498497
 11
63.246902
 21
24.152348
  0
LINE
  8
HIDDEN
 62
     4
 10
62.796902
 20
31.498497
 11
62.796902
 21
24.706005
  0
LINE
  8
0
 62
     4
 10
29.074165
 20
31.498497
 11
33.272736
 21
31.498497
  0
ARC
  8
0
 62
     4
 10
32.223091
 20
33.316532
 40
2.099286
 50
300.00002093587284
 51
59.99998930942075
  0
ARC
  8
0
 62
     4
 10
30.123806
 20
33.316532
 40
2.099286
 50
119.999988492465
 51
240.0000029698023
  0
ARC
  8
0
 62
     4
 10
31.173450
 20
31.498497
 40
4.198571
 50
59.99999613961294
 51
119.99999361510409
  0
LINE
  8
0
 62
     4
 10
32.423450
 20
23.456005
 11
32.423450
 21
23.837297
  0
LINE
  8
0
 62
     4
 10
29.923450
 20
23.456005
 11
29.923450
 21
23.837297
  0
ARC
  8
0
 62
     4
 10
31.173450
 20
23.837297
 40
1.250000
 50
180.0
 51
0.0
  0
ARC
  8
0
 62
     4
 10
31.173450
 20
23.456005
 40
1.250000
 50
0.0
 51
180.0
  0
LINE
  8
0
 62
     4
 10
63.002640
 20
24.438498
 11
73.891159
 21
24.438498
  0
LINE
  8
0
 62
     4
 10
62.792313
 20
24.712286
 11
74.101486
 21
24.712286
  0
CIRCLE
  8
0
 62
     4
 10
68.446899
 20
28.838497
 40
11.875000
  0
CIRCLE
  8
0
 62
     4
 10
68.446899
 20
28.838497
 40
13.000000
  0
CIRCLE
  8
0
 62
     4
 10
68.446899
 20
28.838497
 40
7.000000
  0
CIRCLE
  8
0
 62
     4
 10
68.446899
 20
28.838497
 40
2.500000
  0
LINE
  8
0
 62
     4
 10
20.973450
 20
40.713497
 11
25.973450
 21
40.713497
  0
LINE
  8
0
 62
     4
 10
20.973450
 20
16.963497
 11
25.973450
 21
16.963497
  0
POLYLINE
  8
HIDDEN
 62
     4
 66
     1
 70
     2
  0
VERTEX
  8
HIDDEN
 10
66.296906
 20
31.498497
  0
VERTEX
  8
HIDDEN
 10
66.296906
 20
33.998497
  0
VERTEX
  8
HIDDEN
 10
61.796902
 20
33.998497
  0
VERTEX
  8
HIDDEN
 10
61.796902
 20
31.498497
  0
SEQEND
  0
POLYLINE
  8
0
 62
     4
 66
     1
 70
     2
  0
VERTEX
  8
0
 10
28.923450
 20
31.498497
  0
VERTEX
  8
0
 10
33.423450
 20
31.498497
  0
VERTEX
  8
0
 10
33.423450
 20
33.998497
  0
VERTEX
  8
0
 10
28.923450
 20
33.998497
  0
VERTEX
  8
0
 10
28.923450
 20
31.498497
  0
SEQEND
  0
POLYLINE
  8
0
 62
     4
 66
     1
 70
     2
  0
VERTEX
  8
0
 10
26.532742
 20
21.838497
  0
VERTEX
  8
0
 10
34.173450
 20
21.838497
  0
VERTEX
  8
0
 10
34.473450
 20
22.138496
  0
VERTEX
  8
0
 10
34.473450
 20
24.438498
  0
VERTEX
  8
0
 10
26.532742
 20
31.101542
  0
VERTEX
  8
0
 10
26.532742
 20
21.838497
  0
SEQEND
  0
POLYLINE
  8
0
 62
     4
 66
     1
 70
     2
  0
VERTEX
  8
0
 10
25.973450
 20
21.838497
  0
VERTEX
  8
0
 10
26.323008
 20
21.838497
  0
VERTEX
  8
0
 10
26.323008
 20
33.238499
  0
VERTEX
  8
0
 10
26.532742
 20
33.238499
  0
VERTEX
  8
0
 10
26.532742
 20
31.375332
  0
VERTEX
  8
0
 10
34.473450
 20
24.712286
  0
VERTEX
  8
0
 10
34.473450
 20
35.538498
  0
VERTEX
  8
0
 10
34.173450
 20
35.838497
  0
VERTEX
  8
0
 10
25.973450
 20
35.838497
  0
SEQEND
  0
POLYLINE
  8
0
 62
     4
 66
     1
 70
     2
  0
VERTEX
  8
0
 10
20.973450
 20
15.838497
  0
VERTEX
  8
0
 10
20.973450
 20
15.838497
  0
VERTEX
  8
0
 10
25.973450
 20
15.838497
  0
VERTEX
  8
0
 10
25.973450
 20
15.838497
  0
VERTEX
  8
0
 10
25.973450
 20
41.838497
  0
VERTEX
  8
0
 10
25.973450
 20
41.838497
  0
VERTEX
  8
0
 10
20.973450
 20
41.838497
  0
VERTEX
  8
0
 10
20.973450
 20
41.838497
  0
VERTEX
  8
0
 10
20.973450
 20
15.838497
  0
SEQEND
  0
POLYLINE
  8
HIDDEN
 62
     4
 66
     1
 70
     2
  0
VERTEX
  8
HIDDEN
 10
20.973450
 20
26.038498
  0
VERTEX
  8
HIDDEN
 10
21.273449
 20
26.338497
  0
VERTEX
  8
HIDDEN
 10
34.173450
 20
26.338497
  0
VERTEX
  8
HIDDEN
 10
34.173450
 20
31.338497
  0
VERTEX
  8
HIDDEN
 10
21.273449
 20
31.338497
  0
VERTEX
  8
HIDDEN
 10
20.973450
 20
31.638496
  0
SEQEND
  0
LINE
  8
HIDDEN
 62
     4
 10
21.273449
 20
31.338497
 11
21.273449
 21
26.338497
  0
LINE
  8
HIDDEN
 62
     4
 10
34.473450
 20
31.638496
 11
34.173450
 21
31.338497
  0
LINE
  8
HIDDEN
 62
     4
 10
34.473450
 20
26.038498
 11
34.173450
 21
26.338497
  0
LINE
  8
0
 62
     5
 10
23.473450
 20
36.775997
 11
18.876104
 21
36.775997
  0
CIRCLE
  8
0
 62
     5
 10
23.473450
 20
36.775997
 40
0.104867
  0
CIRCLE
  8
0
 62
     5
 10
17.477875
 20
36.775997
 40
1.398230
  0
TEXT
  8
0
 62
     7
 10
16.545721
 20
35.843845
 40
1.864307
 41
1.000000
  1
1
  7
KANJI
 50
0.000000
 51
0.000000
  0
LINE
  8
0
 62
     5
 10
33.448448
 20
23.338497
 11
33.448448
 21
14.440268
  0
CIRCLE
  8
0
 62
     5
 10
33.448448
 20
23.338497
 40
0.104867
  0
CIRCLE
  8
0
 62
     5
 10
33.448448
 20
13.042037
 40
1.398230
  0
TEXT
  8
0
 62
     7
 10
32.516296
 20
12.109884
 40
1.864307
 41
1.000000
  1
2
  7
KANJI
 50
0.000000
 51
0.000000
  0
LINE
  8
HIDDEN
 62
     4
 10
20.973450
 20
24.838497
 11
25.973450
 21
24.838497
  0
LINE
  8
HIDDEN
 62
     4
 10
20.973450
 20
32.838497
 11
25.973450
 21
32.838497
  0
LINE
  8
0
 62
     5
 10
43.561943
 20
24.241152
 11
43.561943
 21
33.435844
  0
POLYLINE
  8
0
 62
     5
 66
     1
 70
     2
  0
VERTEX
  8
0
 10
43.212387
 20
32.561947
  0
VERTEX
  8
0
 10
43.561943
 20
31.338497
  0
VERTEX
  8
0
 10
43.911503
 20
32.561947
  0
SEQEND
  0
POLYLINE
  8
0
 62
     5
 66
     1
 70
     2
  0
VERTEX
  8
0
 10
43.911503
 20
25.115046
  0
VERTEX
  8
0
 10
43.561943
 20
26.338497
  0
VERTEX
  8
0
 10
43.212387
 20
25.115046
  0
SEQEND
  0
LINE
  8
0
 62
     5
 10
34.473450
 20
31.338497
 11
44.086281
 21
31.338497
  0
LINE
  8
0
 62
     5
 10
34.473450
 20
26.338497
 11
44.086281
 21
26.338497
  0
TEXT
  8
0
 62
     7
 10
43.212387
 20
26.216816
 40
1.747788
 41
1.000000
  1
%%c5H7
  7
KANJI
 50
90.000000
 51
0.000000
  0
ENDSEC
  0
EOF
