  0
SECTION
  2
HEADER
  9
$ACADVER
  1
AC1003
  9
$INSBASE
 10
0.000000
 20
0.000000
  9
$EXTMIN
 10
0.000000
 20
0.000000
  9
$EXTMAX
 10
91.088496
 20
62.986726
  9
$LIMMIN
 10
0.000000
 20
0.000000
  9
$LIMMAX
 10
91.088496
 20
62.986726
  9
$VIEWCTR
 10
45.544248
 20
31.493363
  9
$VIEWSIZE
 40
62.986726
  0
ENDSEC
  0
SECTION
  2
TABLES
  0
TABLE
  2
LTYPE
 70
     4
  0
LTYPE
  2
CONTINUOUS
 70
    64
  3
SolidLine
 72
    65
 73
     0
 40
0.0
  0
LTYPE
  2
HIDDEN
 70
    64
  3
------------------------
 72
    65
 73
     2
 40
0.969027
 49
0.646018
 49
-0.323009
  0
LTYPE
  2
DASHDOT
 70
    64
  3
--?--?--?--?--?--?--?--
 72
    65
 73
     4
 40
3.876106
 49
2.907080
 49
-0.323009
 49
0.323009
 49
-0.323009
  0
LTYPE
  2
DIVIDE
 70
    64
  3
--??--??--??--??--??--
 72
    65
 73
     6
 40
4.845133
 49
3.230088
 49
-0.323009
 49
0.323009
 49
-0.323009
 49
0.323009
 49
-0.323009
  0
ENDTAB
  0
TABLE
  2
LAYER
 70
     5
  0
LAYER
  2
0
 70
    64
 62
     7
  6
CONTINUOUS
  0
LAYER
  2
HIDDEN
 70
    64
 62
     2
  6
HIDDEN
  0
LAYER
  2
DASHDOT
 70
    64
 62
     6
  6
DASHDOT
  0
LAYER
  2
DIVIDE
 70
    64
 62
     5
  6
DIVIDE
  0
ENDTAB
  0
TABLE
  2
STYLE
 70
     1
  0
STYLE
  2
STANDARD
 70
    64
 40
0.0
 41
1.0
 50
0.0
 71
     0
 42
0.2
  3
TXT
  4

  0
STYLE
  2
KANJI
 70
    64
 40
0.0
 41
1.0
 50
0.0
 71
     0
 42
0.2
  3
TXT
  4
BIGFONT
  0
ENDTAB
  0
TABLE
  2
VIEW
 70
     0
  0
ENDTAB
  0
ENDSEC
  0
SECTION
  2
BLOCKS
  0
ENDSEC
  0
SECTION
  2
ENTITIES
  0
TEXT
  8
0
 62
     7
 10
3.230088
 20
3.553097
 40
1.292035
 41
1.000000
  1
KHK DSF1-20
  7
KANJI
 50
0.000000
 51
0.000000
  0
TEXT
  8
0
 62
     7
 10
3.230088
 20
1.615044
 40
1.292035
 41
1.000000
  1

  7
KANJI
 50
0.000000
 51
0.000000
  0
TEXT
  8
0
 62
     7
 10
3.230088
 20
58.141594
 40
1.453540
 41
1.000000
  1

  7
KANJI
 50
0.000000
 51
0.000000
  0
POLYLINE
  8
0
 62
     7
 66
     1
 70
     2
  0
VERTEX
  8
0
 10
77.522125
 20
58.141594
  0
VERTEX
  8
0
 10
76.262390
 20
60.325134
  0
VERTEX
  8
0
 10
81.301331
 20
60.325134
  0
VERTEX
  8
0
 10
80.041595
 20
58.141594
  0
VERTEX
  8
0
 10
78.781860
 20
60.325134
  0
VERTEX
  8
0
 10
77.522125
 20
58.141594
  0
SEQEND
  0
LINE
  8
0
 62
     5
 10
59.861061
 20
38.617256
 11
59.861061
 21
33.061520
  0
LINE
  8
0
 62
     5
 10
30.580532
 20
37.648232
 11
30.580532
 21
33.648232
  0
POLYLINE
  8
0
 62
     5
 66
     1
 70
     2
  0
VERTEX
  8
0
 10
31.549557
 20
31.808229
  0
VERTEX
  8
0
 10
37.110619
 20
44.108406
  0
VERTEX
  8
0
 10
44.604424
 20
44.108406
  0
SEQEND
  0
POLYLINE
  8
0
 62
     5
 66
     1
 70
     2
  0
VERTEX
  8
0
 10
31.720970
 20
32.971436
  0
VERTEX
  8
0
 10
31.549557
 20
31.808229
  0
VERTEX
  8
0
 10
32.309624
 20
32.705299
  0
SEQEND
  0
TEXT
  8
0
 62
     7
 10
37.433628
 20
44.431416
 40
1.550443
 41
1.000000
  1
M2.5
  7
KANJI
 50
0.000000
 51
0.000000
  0
LINE
  8
0
 62
     5
 10
57.923008
 20
44.108406
 11
66.199112
 21
44.108406
  0
POLYLINE
  8
0
 62
     5
 66
     1
 70
     2
  0
VERTEX
  8
0
 10
65.391594
 20
44.431416
  0
VERTEX
  8
0
 10
64.261063
 20
44.108406
  0
VERTEX
  8
0
 10
65.391594
 20
43.785397
  0
SEQEND
  0
POLYLINE
  8
0
 62
     5
 66
     1
 70
     2
  0
VERTEX
  8
0
 10
58.730530
 20
43.785397
  0
VERTEX
  8
0
 10
59.861061
 20
44.108406
  0
VERTEX
  8
0
 10
58.730530
 20
44.431416
  0
SEQEND
  0
LINE
  8
0
 62
     5
 10
64.261063
 20
38.617256
 11
64.261063
 21
44.592918
  0
LINE
  8
0
 62
     5
 10
59.861061
 20
38.617256
 11
59.861061
 21
44.592918
  0
TEXT
  8
0
 62
     7
 10
60.486393
 20
44.431416
 40
1.615044
 41
1.000000
  1
4.4
  7
KANJI
 50
360.000000
 51
0.000000
  0
LINE
  8
0
 62
     5
 10
35.818584
 20
43.139381
 11
28.642479
 21
43.139381
  0
POLYLINE
  8
0
 62
     5
 66
     1
 70
     2
  0
VERTEX
  8
0
 10
29.450001
 20
42.816368
  0
VERTEX
  8
0
 10
30.580532
 20
43.139381
  0
VERTEX
  8
0
 10
29.450001
 20
43.462387
  0
SEQEND
  0
POLYLINE
  8
0
 62
     5
 66
     1
 70
     2
  0
VERTEX
  8
0
 10
35.011063
 20
43.462387
  0
VERTEX
  8
0
 10
33.880531
 20
43.139381
  0
VERTEX
  8
0
 10
35.011063
 20
42.816368
  0
SEQEND
  0
LINE
  8
0
 62
     5
 10
30.580532
 20
37.648232
 11
30.580532
 21
43.623894
  0
TEXT
  8
0
 62
     7
 10
30.655863
 20
43.397789
 40
1.615044
 41
1.000000
  1
3.3
  7
KANJI
 50
0.000000
 51
0.000000
  0
LINE
  8
0
 62
     5
 10
47.446903
 20
33.648232
 11
47.446903
 21
19.648230
  0
POLYLINE
  8
0
 62
     5
 66
     1
 70
     2
  0
VERTEX
  8
0
 10
47.769913
 20
32.517700
  0
VERTEX
  8
0
 10
47.446903
 20
33.648232
  0
VERTEX
  8
0
 10
47.123894
 20
32.517700
  0
SEQEND
  0
POLYLINE
  8
0
 62
     5
 66
     1
 70
     2
  0
VERTEX
  8
0
 10
47.123894
 20
20.778761
  0
VERTEX
  8
0
 10
47.446903
 20
19.648230
  0
VERTEX
  8
0
 10
47.769913
 20
20.778761
  0
SEQEND
  0
LINE
  8
0
 62
     5
 10
33.880531
 20
33.648232
 11
47.931416
 21
33.648232
  0
LINE
  8
0
 62
     5
 10
33.880531
 20
19.648230
 11
47.931416
 21
19.648230
  0
TEXT
  8
0
 62
     7
 10
47.123894
 20
24.750553
 40
1.615044
 41
1.000000
  1
%%c14
  7
KANJI
 50
90.000000
 51
0.000000
  0
LINE
  8
0
 62
     5
 10
25.380531
 20
46.369469
 11
33.880531
 21
46.369469
  0
POLYLINE
  8
0
 62
     5
 66
     1
 70
     2
  0
VERTEX
  8
0
 10
26.511063
 20
46.692478
  0
VERTEX
  8
0
 10
25.380531
 20
46.369469
  0
VERTEX
  8
0
 10
26.511063
 20
46.046459
  0
SEQEND
  0
POLYLINE
  8
0
 62
     5
 66
     1
 70
     2
  0
VERTEX
  8
0
 10
32.750000
 20
46.046459
  0
VERTEX
  8
0
 10
33.880531
 20
46.369469
  0
VERTEX
  8
0
 10
32.750000
 20
46.692478
  0
SEQEND
  0
TEXT
  8
0
 62
     7
 10
28.055862
 20
46.627876
 40
1.615044
 41
1.000000
  1
8.5
  7
KANJI
 50
0.000000
 51
0.000000
  0
LINE
  8
0
 62
     5
 10
19.380531
 20
48.953537
 11
33.880531
 21
48.953537
  0
POLYLINE
  8
0
 62
     5
 66
     1
 70
     2
  0
VERTEX
  8
0
 10
20.511063
 20
49.276550
  0
VERTEX
  8
0
 10
19.380531
 20
48.953537
  0
VERTEX
  8
0
 10
20.511063
 20
48.630531
  0
SEQEND
  0
POLYLINE
  8
0
 62
     5
 66
     1
 70
     2
  0
VERTEX
  8
0
 10
32.750000
 20
48.630531
  0
VERTEX
  8
0
 10
33.880531
 20
48.953537
  0
VERTEX
  8
0
 10
32.750000
 20
49.276550
  0
SEQEND
  0
LINE
  8
0
 62
     5
 10
19.380531
 20
37.648232
 11
19.380531
 21
49.438049
  0
LINE
  8
0
 62
     5
 10
33.880531
 20
37.648232
 11
33.880531
 21
49.438049
  0
TEXT
  8
0
 62
     7
 10
24.530973
 20
49.211945
 40
1.615044
 41
1.000000
  1
14.5
  7
KANJI
 50
0.000000
 51
0.000000
  0
LINE
  8
0
 62
     5
 10
19.380531
 20
46.369469
 11
25.380531
 21
46.369469
  0
POLYLINE
  8
0
 62
     5
 66
     1
 70
     2
  0
VERTEX
  8
0
 10
20.511063
 20
46.692478
  0
VERTEX
  8
0
 10
19.380531
 20
46.369469
  0
VERTEX
  8
0
 10
20.511063
 20
46.046459
  0
SEQEND
  0
POLYLINE
  8
0
 62
     5
 66
     1
 70
     2
  0
VERTEX
  8
0
 10
24.250000
 20
46.046459
  0
VERTEX
  8
0
 10
25.380531
 20
46.369469
  0
VERTEX
  8
0
 10
24.250000
 20
46.692478
  0
SEQEND
  0
LINE
  8
0
 62
     5
 10
25.380531
 20
37.648232
 11
25.380531
 21
46.853981
  0
TEXT
  8
0
 62
     7
 10
21.855642
 20
46.627876
 40
1.615044
 41
1.000000
  1
6
  7
KANJI
 50
0.000000
 51
0.000000
  0
LINE
  8
0
 62
     5
 10
50.030975
 20
37.648232
 11
50.030975
 21
15.648230
  0
POLYLINE
  8
0
 62
     5
 66
     1
 70
     2
  0
VERTEX
  8
0
 10
50.353981
 20
36.517700
  0
VERTEX
  8
0
 10
50.030975
 20
37.648232
  0
VERTEX
  8
0
 10
49.707962
 20
36.517700
  0
SEQEND
  0
POLYLINE
  8
0
 62
     5
 66
     1
 70
     2
  0
VERTEX
  8
0
 10
49.707962
 20
16.778761
  0
VERTEX
  8
0
 10
50.030975
 20
15.648230
  0
VERTEX
  8
0
 10
50.353981
 20
16.778761
  0
SEQEND
  0
LINE
  8
0
 62
     5
 10
33.880531
 20
37.648232
 11
50.515488
 21
37.648232
  0
LINE
  8
0
 62
     5
 10
33.880531
 20
15.648230
 11
50.515488
 21
15.648230
  0
TEXT
  8
0
 62
     7
 10
49.707962
 20
24.750553
 40
1.615044
 41
1.000000
  1
%%c22
  7
KANJI
 50
90.000000
 51
0.000000
  0
LINE
  8
DASHDOT
 62
     7
 10
30.580532
 20
34.617256
 11
30.580532
 21
18.679203
  0
LINE
  8
DASHDOT
 62
     7
 10
59.861061
 20
33.061520
 11
59.861061
 21
20.234940
  0
LINE
  8
DASHDOT
 62
     7
 10
64.261063
 20
38.617256
 11
64.261063
 21
14.679203
  0
LINE
  8
DASHDOT
 62
     7
 10
52.292034
 20
26.648230
 11
76.230087
 21
26.648230
  0
LINE
  8
DASHDOT
 62
     7
 10
18.411505
 20
36.648232
 11
26.349558
 21
36.648232
  0
LINE
  8
DASHDOT
 62
     7
 10
18.411505
 20
16.648230
 11
26.349558
 21
16.648230
  0
LINE
  8
DASHDOT
 62
     7
 10
18.411505
 20
26.648230
 11
34.849556
 21
26.648230
  0
CIRCLE
  8
DASHDOT
 62
     7
 10
64.261063
 20
26.648230
 40
10.000000
  0
LINE
  8
0
 62
     5
 10
33.880531
 20
33.148232
 11
33.880531
 21
37.648232
  0
LINE
  8
0
 62
     5
 10
25.380531
 20
37.648232
 11
25.380531
 21
37.648232
  0
LINE
  8
0
 62
     5
 10
19.380531
 20
37.648232
 11
19.380531
 21
37.648232
  0
LINE
  8
0
 62
     5
 10
25.380531
 20
33.648232
 11
33.880531
 21
33.648232
  0
LINE
  8
0
 62
     5
 10
33.380531
 20
19.648230
 11
33.880531
 21
19.648230
  0
LINE
  8
0
 62
     5
 10
25.380531
 20
37.648232
 11
33.880531
 21
37.648232
  0
LINE
  8
0
 62
     5
 10
25.380531
 20
15.648230
 11
33.880531
 21
15.648230
  0
LINE
  8
HIDDEN
 62
     4
 10
31.830532
 20
29.308229
 11
31.830532
 21
21.456383
  0
LINE
  8
HIDDEN
 62
     4
 10
31.380531
 20
29.308229
 11
31.380531
 21
20.644897
  0
LINE
  8
HIDDEN
 62
     4
 10
29.780531
 20
29.308229
 11
29.780531
 21
20.644897
  0
LINE
  8
HIDDEN
 62
     4
 10
29.330532
 20
29.308229
 11
29.330532
 21
21.456383
  0
POLYLINE
  8
HIDDEN
 62
     4
 66
     1
 70
     2
  0
VERTEX
  8
HIDDEN
 10
62.861061
 20
33.506802
  0
VERTEX
  8
HIDDEN
 10
62.861061
 20
29.308229
  0
VERTEX
  8
HIDDEN
 10
57.611061
 20
29.308229
  0
SEQEND
  0
LINE
  8
HIDDEN
 62
     4
 10
61.111061
 20
29.308229
 11
61.111061
 21
20.397030
  0
LINE
  8
HIDDEN
 62
     4
 10
60.661064
 20
29.308229
 11
60.661064
 21
20.644897
  0
LINE
  8
HIDDEN
 62
     4
 10
59.061062
 20
29.308229
 11
59.061062
 21
21.962080
  0
LINE
  8
HIDDEN
 62
     4
 10
58.611061
 20
29.308229
 11
58.611061
 21
22.515736
  0
LINE
  8
0
 62
     4
 10
28.481247
 20
29.308229
 11
32.679817
 21
29.308229
  0
ARC
  8
0
 62
     4
 10
31.630173
 20
31.126265
 40
2.099286
 50
300.00002093587284
 51
59.99998930942075
  0
ARC
  8
0
 62
     4
 10
29.530888
 20
31.126265
 40
2.099286
 50
119.999988492465
 51
240.0000029698023
  0
ARC
  8
0
 62
     4
 10
30.580532
 20
29.308229
 40
4.198571
 50
59.99999613961294
 51
119.99999361510409
  0
LINE
  8
0
 62
     4
 10
31.830532
 20
21.265736
 11
31.830532
 21
21.647030
  0
LINE
  8
0
 62
     4
 10
29.330532
 20
21.265736
 11
29.330532
 21
21.647030
  0
ARC
  8
0
 62
     4
 10
30.580532
 20
21.647030
 40
1.250000
 50
180.0
 51
0.0
  0
ARC
  8
0
 62
     4
 10
30.580532
 20
21.265736
 40
1.250000
 50
0.0
 51
180.0
  0
LINE
  8
0
 62
     4
 10
58.816799
 20
22.248230
 11
69.705322
 21
22.248230
  0
LINE
  8
0
 62
     4
 10
58.621704
 20
22.501225
 11
69.900421
 21
22.501225
  0
CIRCLE
  8
0
 62
     4
 10
64.261063
 20
26.648230
 40
8.750000
  0
CIRCLE
  8
0
 62
     4
 10
64.261063
 20
26.648230
 40
11.000000
  0
CIRCLE
  8
0
 62
     4
 10
64.261063
 20
26.648230
 40
7.000000
  0
CIRCLE
  8
0
 62
     4
 10
64.261063
 20
26.648230
 40
2.500000
  0
LINE
  8
0
 62
     4
 10
19.380531
 20
35.398232
 11
25.380531
 21
35.398232
  0
LINE
  8
0
 62
     4
 10
19.380531
 20
17.898230
 11
25.380531
 21
17.898230
  0
POLYLINE
  8
HIDDEN
 62
     4
 66
     1
 70
     2
  0
VERTEX
  8
HIDDEN
 10
62.111061
 20
29.308229
  0
VERTEX
  8
HIDDEN
 10
62.111061
 20
31.808229
  0
VERTEX
  8
HIDDEN
 10
57.611061
 20
31.808229
  0
VERTEX
  8
HIDDEN
 10
57.611061
 20
29.308229
  0
SEQEND
  0
POLYLINE
  8
0
 62
     4
 66
     1
 70
     2
  0
VERTEX
  8
0
 10
28.330532
 20
29.308229
  0
VERTEX
  8
0
 10
32.830532
 20
29.308229
  0
VERTEX
  8
0
 10
32.830532
 20
31.808229
  0
VERTEX
  8
0
 10
28.330532
 20
31.808229
  0
VERTEX
  8
0
 10
28.330532
 20
29.308229
  0
SEQEND
  0
POLYLINE
  8
0
 62
     4
 66
     1
 70
     2
  0
VERTEX
  8
0
 10
25.897346
 20
19.648230
  0
VERTEX
  8
0
 10
33.380531
 20
19.648230
  0
VERTEX
  8
0
 10
33.880531
 20
20.148230
  0
VERTEX
  8
0
 10
33.880531
 20
22.248230
  0
VERTEX
  8
0
 10
25.897346
 20
28.946918
  0
VERTEX
  8
0
 10
25.897346
 20
19.648230
  0
SEQEND
  0
POLYLINE
  8
0
 62
     4
 66
     1
 70
     2
  0
VERTEX
  8
0
 10
25.380531
 20
19.648230
  0
VERTEX
  8
0
 10
25.703541
 20
19.648230
  0
VERTEX
  8
0
 10
25.703541
 20
31.048229
  0
VERTEX
  8
0
 10
25.897346
 20
31.048229
  0
VERTEX
  8
0
 10
25.897346
 20
29.199913
  0
VERTEX
  8
0
 10
33.880531
 20
22.501225
  0
VERTEX
  8
0
 10
33.880531
 20
33.148232
  0
VERTEX
  8
0
 10
33.380531
 20
33.648232
  0
VERTEX
  8
0
 10
25.380531
 20
33.648232
  0
SEQEND
  0
POLYLINE
  8
0
 62
     4
 66
     1
 70
     2
  0
VERTEX
  8
0
 10
19.380531
 20
15.648230
  0
VERTEX
  8
0
 10
19.380531
 20
15.648230
  0
VERTEX
  8
0
 10
25.380531
 20
15.648230
  0
VERTEX
  8
0
 10
25.380531
 20
15.648230
  0
VERTEX
  8
0
 10
25.380531
 20
37.648232
  0
VERTEX
  8
0
 10
25.380531
 20
37.648232
  0
VERTEX
  8
0
 10
19.380531
 20
37.648232
  0
VERTEX
  8
0
 10
19.380531
 20
37.648232
  0
VERTEX
  8
0
 10
19.380531
 20
15.648230
  0
SEQEND
  0
POLYLINE
  8
HIDDEN
 62
     4
 66
     1
 70
     2
  0
VERTEX
  8
HIDDEN
 10
19.380531
 20
23.648230
  0
VERTEX
  8
HIDDEN
 10
19.880531
 20
24.148230
  0
VERTEX
  8
HIDDEN
 10
33.380531
 20
24.148230
  0
VERTEX
  8
HIDDEN
 10
33.380531
 20
29.148230
  0
VERTEX
  8
HIDDEN
 10
19.880531
 20
29.148230
  0
VERTEX
  8
HIDDEN
 10
19.380531
 20
29.648230
  0
SEQEND
  0
LINE
  8
HIDDEN
 62
     4
 10
19.880531
 20
29.148230
 11
19.880531
 21
24.148230
  0
LINE
  8
HIDDEN
 62
     4
 10
33.880531
 20
29.648230
 11
33.380531
 21
29.148230
  0
LINE
  8
HIDDEN
 62
     4
 10
33.880531
 20
23.648230
 11
33.380531
 21
24.148230
  0
LINE
  8
0
 62
     5
 10
22.380531
 20
33.023232
 11
17.442478
 21
33.023232
  0
CIRCLE
  8
0
 62
     5
 10
22.380531
 20
33.023232
 40
0.096903
  0
CIRCLE
  8
0
 62
     5
 10
16.150442
 20
33.023232
 40
1.292035
  0
TEXT
  8
0
 62
     7
 10
15.289085
 20
32.161873
 40
1.722714
 41
1.000000
  1
1
  7
KANJI
 50
0.000000
 51
0.000000
  0
LINE
  8
0
 62
     5
 10
32.855530
 20
21.148230
 11
32.855530
 21
14.356194
  0
CIRCLE
  8
0
 62
     5
 10
32.855530
 20
21.148230
 40
0.096903
  0
CIRCLE
  8
0
 62
     5
 10
32.855530
 20
13.064158
 40
1.292035
  0
TEXT
  8
0
 62
     7
 10
31.994175
 20
12.202802
 40
1.722714
 41
1.000000
  1
2
  7
KANJI
 50
0.000000
 51
0.000000
  0
LINE
  8
HIDDEN
 62
     4
 10
19.380531
 20
22.648230
 11
25.380531
 21
22.648230
  0
LINE
  8
HIDDEN
 62
     4
 10
19.380531
 20
30.648230
 11
25.380531
 21
30.648230
  0
LINE
  8
0
 62
     5
 10
42.278763
 20
22.210176
 11
42.278763
 21
31.086283
  0
POLYLINE
  8
0
 62
     5
 66
     1
 70
     2
  0
VERTEX
  8
0
 10
41.955753
 20
30.278761
  0
VERTEX
  8
0
 10
42.278763
 20
29.148230
  0
VERTEX
  8
0
 10
42.601772
 20
30.278761
  0
SEQEND
  0
POLYLINE
  8
0
 62
     5
 66
     1
 70
     2
  0
VERTEX
  8
0
 10
42.601772
 20
23.017698
  0
VERTEX
  8
0
 10
42.278763
 20
24.148230
  0
VERTEX
  8
0
 10
41.955753
 20
23.017698
  0
SEQEND
  0
LINE
  8
0
 62
     5
 10
33.880531
 20
29.148230
 11
42.763275
 21
29.148230
  0
LINE
  8
0
 62
     5
 10
33.880531
 20
24.148230
 11
42.763275
 21
24.148230
  0
TEXT
  8
0
 62
     7
 10
41.955753
 20
24.225662
 40
1.615044
 41
1.000000
  1
%%c5H7
  7
KANJI
 50
90.000000
 51
0.000000
  0
ENDSEC
  0
EOF
