  0
SECTION
  2
HEADER
  9
$ACADVER
  1
AC1003
  9
$INSBASE
 10
0.000000
 20
0.000000
  9
$EXTMIN
 10
0.000000
 20
0.000000
  9
$EXTMAX
 10
244.566372
 20
169.115044
  9
$LIMMIN
 10
0.000000
 20
0.000000
  9
$LIMMAX
 10
244.566372
 20
169.115044
  9
$VIEWCTR
 10
122.283186
 20
84.557522
  9
$VIEWSIZE
 40
169.115044
  0
ENDSEC
  0
SECTION
  2
TABLES
  0
TABLE
  2
LTYPE
 70
     4
  0
LTYPE
  2
CONTINUOUS
 70
    64
  3
SolidLine
 72
    65
 73
     0
 40
0.0
  0
LTYPE
  2
HIDDEN
 70
    64
  3
------------------------
 72
    65
 73
     2
 40
2.601770
 49
1.734513
 49
-0.867257
  0
LTYPE
  2
DASHDOT
 70
    64
  3
--?--?--?--?--?--?--?--
 72
    65
 73
     4
 40
10.407080
 49
7.805310
 49
-0.867257
 49
0.867257
 49
-0.867257
  0
LTYPE
  2
DIVIDE
 70
    64
  3
--??--??--??--??--??--
 72
    65
 73
     6
 40
13.008850
 49
8.672566
 49
-0.867257
 49
0.867257
 49
-0.867257
 49
0.867257
 49
-0.867257
  0
ENDTAB
  0
TABLE
  2
LAYER
 70
     5
  0
LAYER
  2
0
 70
    64
 62
     7
  6
CONTINUOUS
  0
LAYER
  2
HIDDEN
 70
    64
 62
     2
  6
HIDDEN
  0
LAYER
  2
DASHDOT
 70
    64
 62
     6
  6
DASHDOT
  0
LAYER
  2
DIVIDE
 70
    64
 62
     5
  6
DIVIDE
  0
ENDTAB
  0
TABLE
  2
STYLE
 70
     1
  0
STYLE
  2
STANDARD
 70
    64
 40
0.0
 41
1.0
 50
0.0
 71
     0
 42
0.2
  3
TXT
  4

  0
STYLE
  2
KANJI
 70
    64
 40
0.0
 41
1.0
 50
0.0
 71
     0
 42
0.2
  3
TXT
  4
BIGFONT
  0
ENDTAB
  0
TABLE
  2
VIEW
 70
     0
  0
ENDTAB
  0
ENDSEC
  0
SECTION
  2
BLOCKS
  0
ENDSEC
  0
SECTION
  2
ENTITIES
  0
TEXT
  8
0
 62
     7
 10
8.672566
 20
9.539823
 40
3.469027
 41
1.000000
  1
KHK DSF1-80
  7
KANJI
 50
0.000000
 51
0.000000
  0
TEXT
  8
0
 62
     7
 10
8.672566
 20
4.336283
 40
3.469027
 41
1.000000
  1

  7
KANJI
 50
0.000000
 51
0.000000
  0
TEXT
  8
0
 62
     7
 10
8.672566
 20
156.106201
 40
3.902655
 41
1.000000
  1

  7
KANJI
 50
0.000000
 51
0.000000
  0
POLYLINE
  8
0
 62
     7
 66
     1
 70
     2
  0
VERTEX
  8
0
 10
208.141586
 20
156.106201
  0
VERTEX
  8
0
 10
204.759293
 20
161.968857
  0
VERTEX
  8
0
 10
218.288483
 20
161.968857
  0
VERTEX
  8
0
 10
214.906189
 20
156.106201
  0
VERTEX
  8
0
 10
211.523880
 20
161.968857
  0
VERTEX
  8
0
 10
208.141586
 20
156.106201
  0
SEQEND
  0
LINE
  8
0
 62
     5
 10
155.070801
 20
115.150444
 11
155.070801
 21
81.515907
  0
LINE
  8
0
 62
     5
 10
63.535400
 20
112.548676
 11
63.535400
 21
81.048676
  0
POLYLINE
  8
0
 62
     5
 66
     1
 70
     2
  0
VERTEX
  8
0
 10
66.137169
 20
78.158676
  0
VERTEX
  8
0
 10
76.707962
 20
129.893799
  0
VERTEX
  8
0
 10
88.502655
 20
129.893799
  0
SEQEND
  0
POLYLINE
  8
0
 62
     5
 66
     1
 70
     2
  0
VERTEX
  8
0
 10
65.895126
 20
81.306244
  0
VERTEX
  8
0
 10
66.137169
 20
78.158676
  0
VERTEX
  8
0
 10
67.594528
 20
80.959015
  0
SEQEND
  0
TEXT
  8
0
 62
     7
 10
77.575226
 20
130.761063
 40
4.162832
 41
1.000000
  1
M3
  7
KANJI
 50
0.000000
 51
0.000000
  0
LINE
  8
0
 62
     5
 10
161.070801
 20
129.893799
 11
155.070801
 21
129.893799
  0
POLYLINE
  8
0
 62
     5
 66
     1
 70
     2
  0
VERTEX
  8
0
 10
158.035400
 20
129.026550
  0
VERTEX
  8
0
 10
161.070801
 20
129.893799
  0
VERTEX
  8
0
 10
158.035400
 20
130.761063
  0
SEQEND
  0
POLYLINE
  8
0
 62
     5
 66
     1
 70
     2
  0
VERTEX
  8
0
 10
158.106201
 20
130.761063
  0
VERTEX
  8
0
 10
155.070801
 20
129.893799
  0
VERTEX
  8
0
 10
158.106201
 20
129.026550
  0
SEQEND
  0
LINE
  8
0
 62
     5
 10
161.070801
 20
115.150444
 11
161.070801
 21
131.194687
  0
LINE
  8
0
 62
     5
 10
155.070801
 20
115.150444
 11
155.070801
 21
131.194687
  0
TEXT
  8
0
 62
     7
 10
156.661499
 20
130.761063
 40
4.336283
 41
1.000000
  1
6
  7
KANJI
 50
360.000000
 51
0.000000
  0
LINE
  8
0
 62
     5
 10
73.238937
 20
127.292038
 11
58.331860
 21
127.292038
  0
POLYLINE
  8
0
 62
     5
 66
     1
 70
     2
  0
VERTEX
  8
0
 10
60.500000
 20
126.424782
  0
VERTEX
  8
0
 10
63.535400
 20
127.292038
  0
VERTEX
  8
0
 10
60.500000
 20
128.159302
  0
SEQEND
  0
POLYLINE
  8
0
 62
     5
 66
     1
 70
     2
  0
VERTEX
  8
0
 10
71.070801
 20
128.159302
  0
VERTEX
  8
0
 10
68.035400
 20
127.292038
  0
VERTEX
  8
0
 10
71.070801
 20
126.424782
  0
SEQEND
  0
LINE
  8
0
 62
     5
 10
63.535400
 20
112.548676
 11
63.535400
 21
128.592926
  0
TEXT
  8
0
 62
     7
 10
70.637169
 20
127.985840
 40
4.336283
 41
1.000000
  1
4.5
  7
KANJI
 50
0.000000
 51
0.000000
  0
LINE
  8
0
 62
     5
 10
104.460175
 20
81.048676
 11
104.460175
 21
62.048676
  0
POLYLINE
  8
0
 62
     5
 66
     1
 70
     2
  0
VERTEX
  8
0
 10
105.327438
 20
78.013275
  0
VERTEX
  8
0
 10
104.460175
 20
81.048676
  0
VERTEX
  8
0
 10
103.592926
 20
78.013275
  0
SEQEND
  0
POLYLINE
  8
0
 62
     5
 66
     1
 70
     2
  0
VERTEX
  8
0
 10
103.592926
 20
65.084076
  0
VERTEX
  8
0
 10
104.460175
 20
62.048676
  0
VERTEX
  8
0
 10
105.327438
 20
65.084076
  0
SEQEND
  0
LINE
  8
0
 62
     5
 10
68.035400
 20
81.048676
 11
105.761063
 21
81.048676
  0
LINE
  8
0
 62
     5
 10
68.035400
 20
62.048676
 11
105.761063
 21
62.048676
  0
TEXT
  8
0
 62
     7
 10
103.592926
 20
66.453545
 40
4.336283
 41
1.000000
  1
%%c19
  7
KANJI
 50
90.000000
 51
0.000000
  0
LINE
  8
0
 62
     5
 10
58.035400
 20
135.964600
 11
68.035400
 21
135.964600
  0
POLYLINE
  8
0
 62
     5
 66
     1
 70
     2
  0
VERTEX
  8
0
 10
61.070801
 20
136.831863
  0
VERTEX
  8
0
 10
58.035400
 20
135.964600
  0
VERTEX
  8
0
 10
61.070801
 20
135.097351
  0
SEQEND
  0
POLYLINE
  8
0
 62
     5
 66
     1
 70
     2
  0
VERTEX
  8
0
 10
65.000000
 20
135.097351
  0
VERTEX
  8
0
 10
68.035400
 20
135.964600
  0
VERTEX
  8
0
 10
65.000000
 20
136.831863
  0
SEQEND
  0
TEXT
  8
0
 62
     7
 10
60.216816
 20
136.658417
 40
4.336283
 41
1.000000
  1
10
  7
KANJI
 50
0.000000
 51
0.000000
  0
LINE
  8
0
 62
     5
 10
52.035400
 20
142.902649
 11
68.035400
 21
142.902649
  0
POLYLINE
  8
0
 62
     5
 66
     1
 70
     2
  0
VERTEX
  8
0
 10
55.070797
 20
143.769913
  0
VERTEX
  8
0
 10
52.035400
 20
142.902649
  0
VERTEX
  8
0
 10
55.070797
 20
142.035400
  0
SEQEND
  0
POLYLINE
  8
0
 62
     5
 66
     1
 70
     2
  0
VERTEX
  8
0
 10
65.000000
 20
142.035400
  0
VERTEX
  8
0
 10
68.035400
 20
142.902649
  0
VERTEX
  8
0
 10
65.000000
 20
143.769913
  0
SEQEND
  0
LINE
  8
0
 62
     5
 10
52.035400
 20
112.548676
 11
52.035400
 21
144.203552
  0
LINE
  8
0
 62
     5
 10
68.035400
 20
112.548676
 11
68.035400
 21
144.203552
  0
TEXT
  8
0
 62
     7
 10
57.216816
 20
143.596466
 40
4.336283
 41
1.000000
  1
16
  7
KANJI
 50
0.000000
 51
0.000000
  0
LINE
  8
0
 62
     5
 10
52.035400
 20
135.964600
 11
58.035400
 21
135.964600
  0
POLYLINE
  8
0
 62
     5
 66
     1
 70
     2
  0
VERTEX
  8
0
 10
55.070797
 20
136.831863
  0
VERTEX
  8
0
 10
52.035400
 20
135.964600
  0
VERTEX
  8
0
 10
55.070797
 20
135.097351
  0
SEQEND
  0
POLYLINE
  8
0
 62
     5
 66
     1
 70
     2
  0
VERTEX
  8
0
 10
55.000004
 20
135.097351
  0
VERTEX
  8
0
 10
58.035400
 20
135.964600
  0
VERTEX
  8
0
 10
55.000004
 20
136.831863
  0
SEQEND
  0
LINE
  8
0
 62
     5
 10
58.035400
 20
112.548676
 11
58.035400
 21
137.265503
  0
TEXT
  8
0
 62
     7
 10
53.626110
 20
136.658417
 40
4.336283
 41
1.000000
  1
6
  7
KANJI
 50
0.000000
 51
0.000000
  0
LINE
  8
0
 62
     5
 10
111.398232
 20
112.548676
 11
111.398232
 21
30.548676
  0
POLYLINE
  8
0
 62
     5
 66
     1
 70
     2
  0
VERTEX
  8
0
 10
112.265488
 20
109.513275
  0
VERTEX
  8
0
 10
111.398232
 20
112.548676
  0
VERTEX
  8
0
 10
110.530975
 20
109.513275
  0
SEQEND
  0
POLYLINE
  8
0
 62
     5
 66
     1
 70
     2
  0
VERTEX
  8
0
 10
110.530975
 20
33.584072
  0
VERTEX
  8
0
 10
111.398232
 20
30.548676
  0
VERTEX
  8
0
 10
112.265488
 20
33.584072
  0
SEQEND
  0
LINE
  8
0
 62
     5
 10
68.035400
 20
112.548676
 11
112.699112
 21
112.548676
  0
LINE
  8
0
 62
     5
 10
68.035400
 20
30.548676
 11
112.699112
 21
30.548676
  0
TEXT
  8
0
 62
     7
 10
110.530975
 20
66.453545
 40
4.336283
 41
1.000000
  1
%%c82
  7
KANJI
 50
90.000000
 51
0.000000
  0
LINE
  8
DASHDOT
 62
     7
 10
63.535400
 20
83.650444
 11
63.535400
 21
59.446907
  0
LINE
  8
DASHDOT
 62
     7
 10
155.070801
 20
81.515907
 11
155.070801
 21
61.581444
  0
LINE
  8
DASHDOT
 62
     7
 10
161.070801
 20
115.150444
 11
161.070801
 21
27.946907
  0
LINE
  8
DASHDOT
 62
     7
 10
117.469032
 20
71.548676
 11
204.672562
 21
71.548676
  0
LINE
  8
DASHDOT
 62
     7
 10
49.433632
 20
111.548676
 11
60.637169
 21
111.548676
  0
LINE
  8
DASHDOT
 62
     7
 10
49.433632
 20
31.548676
 11
60.637169
 21
31.548676
  0
LINE
  8
DASHDOT
 62
     7
 10
49.433632
 20
71.548676
 11
70.637169
 21
71.548676
  0
CIRCLE
  8
DASHDOT
 62
     7
 10
161.070801
 20
71.548676
 40
40.000000
  0
LINE
  8
0
 62
     5
 10
68.035400
 20
80.548676
 11
68.035400
 21
112.548676
  0
LINE
  8
0
 62
     5
 10
58.035400
 20
112.548676
 11
58.035400
 21
112.548676
  0
LINE
  8
0
 62
     5
 10
52.035400
 20
112.548676
 11
52.035400
 21
112.548676
  0
LINE
  8
0
 62
     5
 10
58.035400
 20
81.048676
 11
68.035400
 21
81.048676
  0
LINE
  8
0
 62
     5
 10
67.535400
 20
62.048676
 11
68.035400
 21
62.048676
  0
LINE
  8
0
 62
     5
 10
58.035400
 20
112.548676
 11
68.035400
 21
112.548676
  0
LINE
  8
0
 62
     5
 10
58.035400
 20
30.548676
 11
68.035400
 21
30.548676
  0
LINE
  8
HIDDEN
 62
     4
 10
65.035400
 20
75.158676
 11
65.035400
 21
64.449898
  0
LINE
  8
HIDDEN
 62
     4
 10
64.535400
 20
75.158676
 11
64.535400
 21
63.470928
  0
LINE
  8
HIDDEN
 62
     4
 10
62.535400
 20
75.158676
 11
62.535400
 21
63.470928
  0
LINE
  8
HIDDEN
 62
     4
 10
62.035400
 20
75.158676
 11
62.035400
 21
64.449898
  0
POLYLINE
  8
HIDDEN
 62
     4
 66
     1
 70
     2
  0
VERTEX
  8
HIDDEN
 10
158.320801
 20
80.641945
  0
VERTEX
  8
HIDDEN
 10
158.320801
 20
75.158676
  0
VERTEX
  8
HIDDEN
 10
152.320801
 20
75.158676
  0
SEQEND
  0
LINE
  8
HIDDEN
 62
     4
 10
156.570801
 20
75.158676
 11
156.570801
 21
63.182076
  0
LINE
  8
HIDDEN
 62
     4
 10
156.070801
 20
75.158676
 11
156.070801
 21
63.470928
  0
LINE
  8
HIDDEN
 62
     4
 10
154.070801
 20
75.158676
 11
154.070801
 21
65.126060
  0
LINE
  8
HIDDEN
 62
     4
 10
153.570801
 20
75.158676
 11
153.570801
 21
65.717728
  0
LINE
  8
0
 62
     4
 10
60.793766
 20
75.158676
 11
66.277031
 21
75.158676
  0
ARC
  8
0
 62
     4
 10
64.906219
 20
77.532997
 40
2.741633
 50
300.0000089830309
 51
59.99999272451719
  0
ARC
  8
0
 62
     4
 10
62.164585
 20
77.532997
 40
2.741633
 50
120.00000727548283
 51
239.99999101696906
  0
ARC
  8
0
 62
     4
 10
63.535400
 20
75.158676
 40
5.483267
 50
60.0000012622552
 51
119.99999873774478
  0
LINE
  8
0
 62
     4
 10
65.035400
 20
64.217728
 11
65.035400
 21
64.682076
  0
LINE
  8
0
 62
     4
 10
62.035400
 20
64.217728
 11
62.035400
 21
64.682076
  0
ARC
  8
0
 62
     4
 10
63.535400
 20
64.682076
 40
1.500000
 50
180.0
 51
0.0
  0
ARC
  8
0
 62
     4
 10
63.535400
 20
64.217728
 40
1.500000
 50
0.0
 51
180.0
  0
LINE
  8
0
 62
     4
 10
153.705338
 20
65.548676
 11
168.436249
 21
65.548676
  0
LINE
  8
0
 62
     4
 10
153.200607
 20
66.227951
 11
168.940979
 21
66.227951
  0
CIRCLE
  8
0
 62
     4
 10
161.070801
 20
71.548676
 40
38.750000
  0
CIRCLE
  8
0
 62
     4
 10
161.070801
 20
71.548676
 40
41.000000
  0
CIRCLE
  8
0
 62
     4
 10
161.070801
 20
71.548676
 40
9.500000
  0
CIRCLE
  8
0
 62
     4
 10
161.070801
 20
71.548676
 40
4.000000
  0
LINE
  8
0
 62
     4
 10
52.035400
 20
110.298676
 11
58.035400
 21
110.298676
  0
LINE
  8
0
 62
     4
 10
52.035400
 20
32.798676
 11
58.035400
 21
32.798676
  0
POLYLINE
  8
HIDDEN
 62
     4
 66
     1
 70
     2
  0
VERTEX
  8
HIDDEN
 10
157.820801
 20
75.158676
  0
VERTEX
  8
HIDDEN
 10
157.820801
 20
78.158676
  0
VERTEX
  8
HIDDEN
 10
152.320801
 20
78.158676
  0
VERTEX
  8
HIDDEN
 10
152.320801
 20
75.158676
  0
SEQEND
  0
POLYLINE
  8
0
 62
     4
 66
     1
 70
     2
  0
VERTEX
  8
0
 10
60.785400
 20
75.158676
  0
VERTEX
  8
0
 10
66.285400
 20
75.158676
  0
VERTEX
  8
0
 10
66.285400
 20
78.158676
  0
VERTEX
  8
0
 10
60.785400
 20
78.158676
  0
VERTEX
  8
0
 10
60.785400
 20
75.158676
  0
SEQEND
  0
POLYLINE
  8
0
 62
     4
 66
     1
 70
     2
  0
VERTEX
  8
0
 10
59.423012
 20
62.048676
  0
VERTEX
  8
0
 10
67.535400
 20
62.048676
  0
VERTEX
  8
0
 10
68.035400
 20
62.548676
  0
VERTEX
  8
0
 10
68.035400
 20
65.548676
  0
VERTEX
  8
0
 10
59.423012
 20
72.775330
  0
VERTEX
  8
0
 10
59.423012
 20
62.048676
  0
SEQEND
  0
POLYLINE
  8
0
 62
     4
 66
     1
 70
     2
  0
VERTEX
  8
0
 10
58.035400
 20
62.048676
  0
VERTEX
  8
0
 10
58.902657
 20
62.048676
  0
VERTEX
  8
0
 10
58.902657
 20
77.548676
  0
VERTEX
  8
0
 10
59.423012
 20
77.548676
  0
VERTEX
  8
0
 10
59.423012
 20
73.454605
  0
VERTEX
  8
0
 10
68.035400
 20
66.227951
  0
VERTEX
  8
0
 10
68.035400
 20
80.548676
  0
VERTEX
  8
0
 10
67.535400
 20
81.048676
  0
VERTEX
  8
0
 10
58.035400
 20
81.048676
  0
SEQEND
  0
POLYLINE
  8
0
 62
     4
 66
     1
 70
     2
  0
VERTEX
  8
0
 10
52.035400
 20
30.548676
  0
VERTEX
  8
0
 10
52.035400
 20
30.548676
  0
VERTEX
  8
0
 10
58.035400
 20
30.548676
  0
VERTEX
  8
0
 10
58.035400
 20
30.548676
  0
VERTEX
  8
0
 10
58.035400
 20
112.548676
  0
VERTEX
  8
0
 10
58.035400
 20
112.548676
  0
VERTEX
  8
0
 10
52.035400
 20
112.548676
  0
VERTEX
  8
0
 10
52.035400
 20
112.548676
  0
VERTEX
  8
0
 10
52.035400
 20
30.548676
  0
SEQEND
  0
POLYLINE
  8
HIDDEN
 62
     4
 66
     1
 70
     2
  0
VERTEX
  8
HIDDEN
 10
52.035400
 20
67.048676
  0
VERTEX
  8
HIDDEN
 10
52.535400
 20
67.548676
  0
VERTEX
  8
HIDDEN
 10
67.535400
 20
67.548676
  0
VERTEX
  8
HIDDEN
 10
67.535400
 20
75.548676
  0
VERTEX
  8
HIDDEN
 10
52.535400
 20
75.548676
  0
VERTEX
  8
HIDDEN
 10
52.035400
 20
76.048676
  0
SEQEND
  0
LINE
  8
HIDDEN
 62
     4
 10
52.535400
 20
75.548676
 11
52.535400
 21
67.548676
  0
LINE
  8
HIDDEN
 62
     4
 10
68.035400
 20
76.048676
 11
67.535400
 21
75.548676
  0
LINE
  8
HIDDEN
 62
     4
 10
68.035400
 20
67.048676
 11
67.535400
 21
67.548676
  0
LINE
  8
0
 62
     5
 10
55.035400
 20
93.923676
 11
46.831860
 21
93.923676
  0
CIRCLE
  8
0
 62
     5
 10
55.035400
 20
93.923676
 40
0.260177
  0
CIRCLE
  8
0
 62
     5
 10
43.362835
 20
93.923676
 40
3.469027
  0
TEXT
  8
0
 62
     7
 10
41.050148
 20
91.610992
 40
4.625369
 41
1.000000
  1
1
  7
KANJI
 50
0.000000
 51
0.000000
  0
LINE
  8
0
 62
     5
 10
66.535400
 20
63.882008
 11
66.535400
 21
27.079651
  0
CIRCLE
  8
0
 62
     5
 10
66.535400
 20
63.882008
 40
0.260177
  0
CIRCLE
  8
0
 62
     5
 10
66.535400
 20
23.610622
 40
3.469027
  0
TEXT
  8
0
 62
     7
 10
64.222717
 20
21.297939
 40
4.625369
 41
1.000000
  1
2
  7
KANJI
 50
0.000000
 51
0.000000
  0
LINE
  8
HIDDEN
 62
     4
 10
52.035400
 20
65.548676
 11
58.035400
 21
65.548676
  0
LINE
  8
HIDDEN
 62
     4
 10
52.035400
 20
77.548676
 11
58.035400
 21
77.548676
  0
LINE
  8
0
 62
     5
 10
90.584076
 20
62.345135
 11
90.584076
 21
80.752213
  0
POLYLINE
  8
0
 62
     5
 66
     1
 70
     2
  0
VERTEX
  8
0
 10
89.716812
 20
78.584076
  0
VERTEX
  8
0
 10
90.584076
 20
75.548676
  0
VERTEX
  8
0
 10
91.451324
 20
78.584076
  0
SEQEND
  0
POLYLINE
  8
0
 62
     5
 66
     1
 70
     2
  0
VERTEX
  8
0
 10
91.451324
 20
64.513275
  0
VERTEX
  8
0
 10
90.584076
 20
67.548676
  0
VERTEX
  8
0
 10
89.716812
 20
64.513275
  0
SEQEND
  0
LINE
  8
0
 62
     5
 10
68.035400
 20
75.548676
 11
91.884956
 21
75.548676
  0
LINE
  8
0
 62
     5
 10
68.035400
 20
67.548676
 11
91.884956
 21
67.548676
  0
TEXT
  8
0
 62
     7
 10
89.716812
 20
65.044250
 40
4.336283
 41
1.000000
  1
%%c8H7
  7
KANJI
 50
90.000000
 51
0.000000
  0
ENDSEC
  0
EOF
