  0
SECTION
  2
HEADER
  9
$ACADVER
  1
AC1003
  9
$INSBASE
 10
0.000000
 20
0.000000
  9
$EXTMIN
 10
0.000000
 20
0.000000
  9
$EXTMAX
 10
576.260870
 20
398.478261
  9
$LIMMIN
 10
0.000000
 20
0.000000
  9
$LIMMAX
 10
576.260870
 20
398.478261
  9
$VIEWCTR
 10
288.130435
 20
199.239130
  9
$VIEWSIZE
 40
398.478261
  0
ENDSEC
  0
SECTION
  2
TABLES
  0
TABLE
  2
LTYPE
 70
     4
  0
LTYPE
  2
CONTINUOUS
 70
    64
  3
SolidLine
 72
    65
 73
     0
 40
0.0
  0
LTYPE
  2
HIDDEN
 70
    64
  3
------------------------
 72
    65
 73
     2
 40
6.130435
 49
4.086957
 49
-2.043478
  0
LTYPE
  2
DASHDOT
 70
    64
  3
--?--?--?--?--?--?--?--
 72
    65
 73
     4
 40
24.521739
 49
18.391304
 49
-2.043478
 49
2.043478
 49
-2.043478
  0
LTYPE
  2
DIVIDE
 70
    64
  3
--??--??--??--??--??--
 72
    65
 73
     6
 40
30.652174
 49
20.434783
 49
-2.043478
 49
2.043478
 49
-2.043478
 49
2.043478
 49
-2.043478
  0
ENDTAB
  0
TABLE
  2
LAYER
 70
     5
  0
LAYER
  2
0
 70
    64
 62
     7
  6
CONTINUOUS
  0
LAYER
  2
HIDDEN
 70
    64
 62
     2
  6
HIDDEN
  0
LAYER
  2
DASHDOT
 70
    64
 62
     6
  6
DASHDOT
  0
LAYER
  2
DIVIDE
 70
    64
 62
     5
  6
DIVIDE
  0
ENDTAB
  0
TABLE
  2
STYLE
 70
     1
  0
STYLE
  2
STANDARD
 70
    64
 40
0.0
 41
1.0
 50
0.0
 71
     0
 42
0.2
  3
TXT
  4

  0
STYLE
  2
KANJI
 70
    64
 40
0.0
 41
1.0
 50
0.0
 71
     0
 42
0.2
  3
TXT
  4
BIGFONT
  0
ENDTAB
  0
TABLE
  2
VIEW
 70
     0
  0
ENDTAB
  0
ENDSEC
  0
SECTION
  2
BLOCKS
  0
ENDSEC
  0
SECTION
  2
ENTITIES
  0
TEXT
  8
0
 62
     7
 10
20.434782
 20
22.478260
 40
8.173913
 41
1.000000
  1
KHK KHG1.5-90RJ25
  7
KANJI
 50
0.000000
 51
0.000000
  0
TEXT
  8
0
 62
     7
 10
20.434782
 20
10.217391
 40
8.173913
 41
1.000000
  1
The precision grade of gears after secondary operations is equivalent but not identical to its original grade.
  7
KANJI
 50
0.000000
 51
0.000000
  0
TEXT
  8
0
 62
     7
 10
20.434782
 20
367.826080
 40
9.195652
 41
1.000000
  1
For J Series products, without black oxide repeatedly applied on secondary-operated parts.
  7
KANJI
 50
0.000000
 51
0.000000
  0
POLYLINE
  8
0
 62
     7
 66
     1
 70
     2
  0
VERTEX
  8
0
 10
408.695648
 20
367.826080
  0
VERTEX
  8
0
 10
400.726074
 20
381.639984
  0
VERTEX
  8
0
 10
432.604340
 20
381.639984
  0
VERTEX
  8
0
 10
424.634766
 20
367.826080
  0
VERTEX
  8
0
 10
416.665222
 20
381.639984
  0
VERTEX
  8
0
 10
408.695648
 20
367.826080
  0
SEQEND
  0
POLYLINE
  8
0
 62
     7
 66
     1
 70
     2
  0
VERTEX
  8
0
 10
464.482605
 20
367.826080
  0
VERTEX
  8
0
 10
456.513031
 20
381.639984
  0
VERTEX
  8
0
 10
504.330444
 20
381.639984
  0
VERTEX
  8
0
 10
496.360870
 20
367.826080
  0
VERTEX
  8
0
 10
488.391296
 20
381.639984
  0
VERTEX
  8
0
 10
480.421753
 20
367.826080
  0
VERTEX
  8
0
 10
472.452179
 20
381.639984
  0
VERTEX
  8
0
 10
464.482605
 20
367.826080
  0
SEQEND
  0
POLYLINE
  8
0
 62
     7
 66
     1
 70
     2
  0
VERTEX
  8
0
 10
483.078247
 20
388.546936
  0
VERTEX
  8
0
 10
485.734772
 20
388.546936
  0
VERTEX
  8
0
 10
485.734772
 20
386.953033
  0
VERTEX
  8
0
 10
483.078247
 20
384.296509
  0
VERTEX
  8
0
 10
477.765198
 20
384.296509
  0
VERTEX
  8
0
 10
475.108704
 20
386.953033
  0
VERTEX
  8
0
 10
475.108704
 20
394.922607
  0
VERTEX
  8
0
 10
477.765198
 20
397.579132
  0
VERTEX
  8
0
 10
483.078247
 20
397.579132
  0
VERTEX
  8
0
 10
485.734772
 20
394.922607
  0
VERTEX
  8
0
 10
485.734772
 20
393.328674
  0
SEQEND
  0
POLYLINE
  8
0
 62
     7
 66
     1
 70
     2
  0
VERTEX
  8
0
 10
444.824341
 20
381.639984
  0
VERTEX
  8
0
 10
442.699127
 20
379.514771
  0
VERTEX
  8
0
 10
442.699127
 20
369.951294
  0
VERTEX
  8
0
 10
444.824341
 20
367.826080
  0
SEQEND
  0
POLYLINE
  8
0
 62
     7
 66
     1
 70
     2
  0
VERTEX
  8
0
 10
514.425232
 20
381.639984
  0
VERTEX
  8
0
 10
516.550415
 20
379.514771
  0
VERTEX
  8
0
 10
516.550415
 20
369.951294
  0
VERTEX
  8
0
 10
514.425232
 20
367.826080
  0
SEQEND
  0
LINE
  8
0
 62
     5
 10
291.695648
 20
235.543488
 11
291.695648
 21
97.543488
  0
POLYLINE
  8
0
 62
     5
 66
     1
 70
     2
  0
VERTEX
  8
0
 10
293.739136
 20
228.391312
  0
VERTEX
  8
0
 10
291.695648
 20
235.543488
  0
VERTEX
  8
0
 10
289.652161
 20
228.391312
  0
SEQEND
  0
POLYLINE
  8
0
 62
     5
 66
     1
 70
     2
  0
VERTEX
  8
0
 10
289.652161
 20
104.695663
  0
VERTEX
  8
0
 10
291.695648
 20
97.543488
  0
VERTEX
  8
0
 10
293.739136
 20
104.695663
  0
SEQEND
  0
LINE
  8
0
 62
     5
 10
189.521729
 20
235.543488
 11
294.760864
 21
235.543488
  0
LINE
  8
0
 62
     5
 10
189.521729
 20
97.543488
 11
294.760864
 21
97.543488
  0
TEXT
  8
0
 62
     7
 10
289.652161
 20
151.217407
 40
10.217391
 41
1.000000
  1
%%c138
  7
KANJI
 50
90.000000
 51
0.000000
  0
LINE
  8
DASHDOT
 62
     7
 10
159.391296
 20
234.043488
 11
183.652161
 21
234.043488
  0
LINE
  8
DASHDOT
 62
     7
 10
159.391296
 20
99.043488
 11
183.652161
 21
99.043488
  0
LINE
  8
DASHDOT
 62
     7
 10
159.391296
 20
166.543488
 11
195.652161
 21
166.543488
  0
LINE
  8
0
 62
     5
 10
177.521729
 20
235.043488
 11
177.521729
 21
235.543488
  0
LINE
  8
0
 62
     5
 10
165.521729
 20
235.043488
 11
165.521729
 21
235.543488
  0
LINE
  8
0
 62
     5
 10
179.021729
 20
201.543488
 11
189.521729
 21
201.543488
  0
LINE
  8
0
 62
     5
 10
179.021729
 20
131.543488
 11
189.521729
 21
131.543488
  0
LINE
  8
0
 62
     5
 10
177.021729
 20
235.543488
 11
189.521729
 21
235.543488
  0
LINE
  8
0
 62
     5
 10
177.021729
 20
97.543488
 11
189.521729
 21
97.543488
  0
LINE
  8
0
 62
     4
 10
165.521729
 20
232.168488
 11
177.521729
 21
232.168488
  0
LINE
  8
0
 62
     4
 10
165.521729
 20
100.918488
 11
177.521729
 21
100.918488
  0
LINE
  8
0
 62
     4
 10
188.521729
 20
154.043488
 11
189.521729
 21
153.043488
  0
LINE
  8
0
 62
     4
 10
188.521729
 20
179.043488
 11
189.521729
 21
180.043488
  0
LINE
  8
0
 62
     4
 10
166.521729
 20
179.043488
 11
166.521729
 21
154.043488
  0
POLYLINE
  8
0
 62
     4
 66
     1
 70
     2
  0
VERTEX
  8
0
 10
165.521729
 20
153.043488
  0
VERTEX
  8
0
 10
166.521729
 20
154.043488
  0
VERTEX
  8
0
 10
188.521729
 20
154.043488
  0
VERTEX
  8
0
 10
188.521729
 20
179.043488
  0
VERTEX
  8
0
 10
166.521729
 20
179.043488
  0
VERTEX
  8
0
 10
165.521729
 20
180.043488
  0
SEQEND
  0
ARC
  8
0
 62
     4
 10
179.021729
 20
203.043488
 40
1.500000
 50
180.0
 51
270.0
  0
ARC
  8
0
 62
     4
 10
179.021729
 20
130.043488
 40
1.500000
 50
90.0
 51
180.0
  0
LINE
  8
0
 62
     5
 10
189.521729
 20
200.543488
 11
189.521729
 21
235.543488
  0
LINE
  8
0
 62
     5
 10
189.782593
 20
290.717407
 11
153.260864
 21
290.717407
  0
POLYLINE
  8
0
 62
     5
 66
     1
 70
     2
  0
VERTEX
  8
0
 10
158.369553
 20
288.673920
  0
VERTEX
  8
0
 10
165.521729
 20
290.717407
  0
VERTEX
  8
0
 10
158.369553
 20
292.760864
  0
SEQEND
  0
POLYLINE
  8
0
 62
     5
 66
     1
 70
     2
  0
VERTEX
  8
0
 10
184.673904
 20
292.760864
  0
VERTEX
  8
0
 10
177.521729
 20
290.717407
  0
VERTEX
  8
0
 10
184.673904
 20
288.673920
  0
SEQEND
  0
LINE
  8
0
 62
     5
 10
177.521729
 20
235.543488
 11
177.521729
 21
293.782623
  0
TEXT
  8
0
 62
     7
 10
146.108688
 20
292.352173
 40
10.217391
 41
1.000000
  1
12
  7
KANJI
 50
0.000000
 51
0.000000
  0
LINE
  8
0
 62
     5
 10
165.521729
 20
307.065216
 11
189.521729
 21
307.065216
  0
POLYLINE
  8
0
 62
     5
 66
     1
 70
     2
  0
VERTEX
  8
0
 10
172.673904
 20
309.108704
  0
VERTEX
  8
0
 10
165.521729
 20
307.065216
  0
VERTEX
  8
0
 10
172.673904
 20
305.021729
  0
SEQEND
  0
POLYLINE
  8
0
 62
     5
 66
     1
 70
     2
  0
VERTEX
  8
0
 10
182.369553
 20
305.021729
  0
VERTEX
  8
0
 10
189.521729
 20
307.065216
  0
VERTEX
  8
0
 10
182.369553
 20
309.108704
  0
SEQEND
  0
LINE
  8
0
 62
     5
 10
165.521729
 20
235.543488
 11
165.521729
 21
310.130432
  0
LINE
  8
0
 62
     5
 10
189.521729
 20
235.543488
 11
189.521729
 21
310.130432
  0
TEXT
  8
0
 62
     7
 10
170.880417
 20
308.700012
 40
10.217391
 41
1.000000
  1
24
  7
KANJI
 50
0.000000
 51
0.000000
  0
LINE
  8
0
 62
     5
 10
201.782593
 20
290.717407
 11
165.260864
 21
290.717407
  0
POLYLINE
  8
0
 62
     5
 66
     1
 70
     2
  0
VERTEX
  8
0
 10
170.369553
 20
288.673920
  0
VERTEX
  8
0
 10
177.521729
 20
290.717407
  0
VERTEX
  8
0
 10
170.369553
 20
292.760864
  0
SEQEND
  0
POLYLINE
  8
0
 62
     5
 66
     1
 70
     2
  0
VERTEX
  8
0
 10
196.673904
 20
292.760864
  0
VERTEX
  8
0
 10
189.521729
 20
290.717407
  0
VERTEX
  8
0
 10
196.673904
 20
288.673920
  0
SEQEND
  0
TEXT
  8
0
 62
     7
 10
195.652161
 20
292.352173
 40
10.217391
 41
1.000000
  1
12
  7
KANJI
 50
0.000000
 51
0.000000
  0
LINE
  8
0
 62
     5
 10
275.347809
 20
201.543488
 11
275.347809
 21
131.543488
  0
POLYLINE
  8
0
 62
     5
 66
     1
 70
     2
  0
VERTEX
  8
0
 10
277.391296
 20
194.391312
  0
VERTEX
  8
0
 10
275.347809
 20
201.543488
  0
VERTEX
  8
0
 10
273.304321
 20
194.391312
  0
SEQEND
  0
POLYLINE
  8
0
 62
     5
 66
     1
 70
     2
  0
VERTEX
  8
0
 10
273.304321
 20
138.695663
  0
VERTEX
  8
0
 10
275.347809
 20
131.543488
  0
VERTEX
  8
0
 10
277.391296
 20
138.695663
  0
SEQEND
  0
LINE
  8
0
 62
     5
 10
189.521729
 20
201.543488
 11
278.413025
 21
201.543488
  0
LINE
  8
0
 62
     5
 10
189.521729
 20
131.543488
 11
278.413025
 21
131.543488
  0
TEXT
  8
0
 62
     7
 10
273.304321
 20
154.538055
 40
10.217391
 41
1.000000
  1
%%c70
  7
KANJI
 50
90.000000
 51
0.000000
  0
LINE
  8
DASHDOT
 62
     7
 10
383.913025
 20
211.760880
 11
383.913025
 21
125.413055
  0
LINE
  8
DASHDOT
 62
     7
 10
342.782593
 20
166.543488
 11
425.043457
 21
166.543488
  0
LINE
  8
0
 62
     5
 10
400.173889
 20
230.152191
 11
367.652161
 21
230.152191
  0
POLYLINE
  8
0
 62
     5
 66
     1
 70
     2
  0
VERTEX
  8
0
 10
372.760864
 20
228.108704
  0
VERTEX
  8
0
 10
379.913025
 20
230.152191
  0
VERTEX
  8
0
 10
372.760864
 20
232.195663
  0
SEQEND
  0
POLYLINE
  8
0
 62
     5
 66
     1
 70
     2
  0
VERTEX
  8
0
 10
395.065216
 20
232.195663
  0
VERTEX
  8
0
 10
387.913025
 20
230.152191
  0
VERTEX
  8
0
 10
395.065216
 20
228.108704
  0
SEQEND
  0
LINE
  8
0
 62
     5
 10
379.913025
 20
182.343491
 11
379.913025
 21
233.217407
  0
LINE
  8
0
 62
     5
 10
387.913025
 20
182.343491
 11
387.913025
 21
233.217407
  0
TEXT
  8
0
 62
     7
 10
362.822327
 20
232.195663
 40
10.217391
 41
1.000000
  1
8
  7
KANJI
 50
0.000000
 51
0.000000
  0
TEXT
  8
0
 62
     7
 10
372.936279
 20
232.195663
 40
8.173913
 41
1.000000
  1
%%p0.018
  7
KANJI
 50
0.000000
 51
0.000000
  0
LINE
  8
0
 62
     5
 10
449.565216
 20
141.782623
 11
449.565216
 21
194.604355
  0
POLYLINE
  8
0
 62
     5
 66
     1
 70
     2
  0
VERTEX
  8
0
 10
447.521729
 20
189.495667
  0
VERTEX
  8
0
 10
449.565216
 20
182.343491
  0
VERTEX
  8
0
 10
451.608704
 20
189.495667
  0
SEQEND
  0
POLYLINE
  8
0
 62
     5
 66
     1
 70
     2
  0
VERTEX
  8
0
 10
451.608704
 20
146.891312
  0
VERTEX
  8
0
 10
449.565216
 20
154.043488
  0
VERTEX
  8
0
 10
447.521729
 20
146.891312
  0
SEQEND
  0
LINE
  8
0
 62
     5
 10
387.913025
 20
182.343491
 11
452.630432
 21
182.343491
  0
LINE
  8
0
 62
     5
 10
383.913025
 20
154.043488
 11
452.630432
 21
154.043488
  0
TEXT
  8
0
 62
     7
 10
446.500000
 20
136.230042
 40
10.217391
 41
1.000000
  1
28.3
  7
KANJI
 50
90.000000
 51
0.000000
  0
TEXT
  8
0
 62
     7
 10
447.113037
 20
180.454956
 40
5.108696
 41
1.000000
  1
 
  7
KANJI
 50
90.000000
 51
0.000000
  0
TEXT
  8
0
 62
     7
 10
440.778259
 20
180.454956
 40
5.108696
 41
1.000000
  1
+
  7
KANJI
 50
90.000000
 51
0.000000
  0
TEXT
  8
0
 62
     7
 10
447.113037
 20
186.176697
 40
5.108696
 41
1.000000
  1
0
  7
KANJI
 50
90.000000
 51
0.000000
  0
TEXT
  8
0
 62
     7
 10
440.778259
 20
186.176697
 40
5.108696
 41
1.000000
  1
0.2
  7
KANJI
 50
90.000000
 51
0.000000
  0
ARC
  8
0
 62
     4
 10
383.913025
 20
166.543488
 40
12.500000
 50
108.66292518454978
 51
71.33707481545021
  0
POLYLINE
  8
0
 62
     4
 66
     1
 70
     2
  0
VERTEX
  8
0
 10
387.913025
 20
178.386200
  0
VERTEX
  8
0
 10
387.913025
 20
182.343491
  0
VERTEX
  8
0
 10
379.913025
 20
182.343491
  0
VERTEX
  8
0
 10
379.913025
 20
178.386200
  0
SEQEND
  0
LINE
  8
0
 62
     4
 10
165.521729
 20
182.343491
 11
189.521729
 21
182.343491
  0
POLYLINE
  8
DASHDOT
 62
     7
 66
     1
 70
     2
  0
VERTEX
  8
DASHDOT
 10
183.521729
 20
207.673920
  0
VERTEX
  8
DASHDOT
 10
183.521729
 20
176.213058
  0
SEQEND
  0
POLYLINE
  8
0
 62
     4
 66
     1
 70
     2
  0
VERTEX
  8
0
 10
186.521729
 20
201.543488
  0
VERTEX
  8
0
 10
186.521729
 20
182.343491
  0
SEQEND
  0
POLYLINE
  8
0
 62
     4
 66
     1
 70
     2
  0
VERTEX
  8
0
 10
180.521729
 20
201.543488
  0
VERTEX
  8
0
 10
180.521729
 20
182.343491
  0
SEQEND
  0
POLYLINE
  8
0
 62
     4
 66
     1
 70
     2
  0
VERTEX
  8
0
 10
185.981720
 20
201.543488
  0
VERTEX
  8
0
 10
185.981720
 20
182.343491
  0
SEQEND
  0
POLYLINE
  8
0
 62
     4
 66
     1
 70
     2
  0
VERTEX
  8
0
 10
181.061722
 20
201.543488
  0
VERTEX
  8
0
 10
181.061722
 20
182.343491
  0
SEQEND
  0
POLYLINE
  8
0
 62
     4
 66
     1
 70
     2
  0
VERTEX
  8
0
 10
380.913025
 20
182.343491
  0
VERTEX
  8
0
 10
380.913025
 20
201.414673
  0
SEQEND
  0
POLYLINE
  8
0
 62
     4
 66
     1
 70
     2
  0
VERTEX
  8
0
 10
386.913025
 20
182.343491
  0
VERTEX
  8
0
 10
386.913025
 20
201.414673
  0
SEQEND
  0
POLYLINE
  8
0
 62
     4
 66
     1
 70
     2
  0
VERTEX
  8
0
 10
381.453033
 20
182.343491
  0
VERTEX
  8
0
 10
381.453033
 20
201.456924
  0
SEQEND
  0
POLYLINE
  8
0
 62
     4
 66
     1
 70
     2
  0
VERTEX
  8
0
 10
386.373047
 20
182.343491
  0
VERTEX
  8
0
 10
386.373047
 20
201.456924
  0
SEQEND
  0
POLYLINE
  8
0
 62
     5
 66
     1
 70
     2
  0
VERTEX
  8
0
 10
383.913025
 20
201.543488
  0
VERTEX
  8
0
 10
347.130432
 20
262.847839
  0
VERTEX
  8
0
 10
369.608704
 20
262.847839
  0
SEQEND
  0
POLYLINE
  8
0
 62
     5
 66
     1
 70
     2
  0
VERTEX
  8
0
 10
378.481018
 20
206.625061
  0
VERTEX
  8
0
 10
383.913025
 20
201.543488
  0
VERTEX
  8
0
 10
381.985535
 20
208.727783
  0
SEQEND
  0
TEXT
  8
0
 62
     7
 10
349.173889
 20
264.891296
 40
9.808696
 41
1.000000
  1
M6
  7
KANJI
 50
0.000000
 51
0.000000
  0
CIRCLE
  8
0
 62
     7
 10
183.521729
 20
166.543488
 40
3.000000
  0
CIRCLE
  8
0
 62
     4
 10
183.521729
 20
166.543488
 40
2.460000
  0
POLYLINE
  8
DASHDOT
 62
     7
 66
     1
 70
     2
  0
VERTEX
  8
DASHDOT
 10
174.391296
 20
166.543488
  0
VERTEX
  8
DASHDOT
 10
192.652161
 20
166.543488
  0
SEQEND
  0
POLYLINE
  8
DASHDOT
 62
     7
 66
     1
 70
     2
  0
VERTEX
  8
DASHDOT
 10
183.521729
 20
157.413055
  0
VERTEX
  8
DASHDOT
 10
183.521729
 20
175.673920
  0
SEQEND
  0
LINE
  8
DASHDOT
 62
     7
 10
183.521729
 20
201.543488
 11
183.521729
 21
166.543488
  0
LINE
  8
0
 62
     5
 10
183.521729
 20
201.543488
 11
183.521729
 21
235.543488
  0
POLYLINE
  8
0
 62
     4
 66
     1
 70
     2
  0
VERTEX
  8
0
 10
396.047699
 20
169.543488
  0
VERTEX
  8
0
 10
418.784241
 20
169.543488
  0
SEQEND
  0
POLYLINE
  8
0
 62
     4
 66
     1
 70
     2
  0
VERTEX
  8
0
 10
396.047699
 20
163.543488
  0
VERTEX
  8
0
 10
418.784241
 20
163.543488
  0
SEQEND
  0
POLYLINE
  8
0
 62
     4
 66
     1
 70
     2
  0
VERTEX
  8
0
 10
396.168579
 20
169.003494
  0
VERTEX
  8
0
 10
418.826477
 20
169.003494
  0
SEQEND
  0
POLYLINE
  8
0
 62
     4
 66
     1
 70
     2
  0
VERTEX
  8
0
 10
396.168579
 20
164.083481
  0
VERTEX
  8
0
 10
418.826477
 20
164.083481
  0
SEQEND
  0
POLYLINE
  8
0
 62
     5
 66
     1
 70
     2
  0
VERTEX
  8
0
 10
418.913025
 20
166.543488
  0
VERTEX
  8
0
 10
449.565216
 20
246.500000
  0
VERTEX
  8
0
 10
419.730408
 20
246.500000
  0
SEQEND
  0
POLYLINE
  8
0
 62
     5
 66
     1
 70
     2
  0
VERTEX
  8
0
 10
419.565125
 20
173.953217
  0
VERTEX
  8
0
 10
418.913025
 20
166.543488
  0
VERTEX
  8
0
 10
423.381287
 20
172.490265
  0
SEQEND
  0
TEXT
  8
0
 62
     7
 10
423.817383
 20
248.543488
 40
9.808696
 41
1.000000
  1
M6
  7
KANJI
 50
0.000000
 51
0.000000
  0
LINE
  8
DASHDOT
 62
     7
 10
165.521729
 20
168.906952
 11
177.521729
 21
164.180023
  0
LINE
  8
0
 62
     7
 10
171.521729
 20
176.760880
 11
171.521729
 21
156.326096
  0
LINE
  8
0
 62
     5
 10
242.652161
 20
179.043488
 11
242.652161
 21
154.043488
  0
POLYLINE
  8
0
 62
     5
 66
     1
 70
     2
  0
VERTEX
  8
0
 10
240.608673
 20
161.195663
  0
VERTEX
  8
0
 10
242.652161
 20
154.043488
  0
VERTEX
  8
0
 10
244.695648
 20
161.195663
  0
SEQEND
  0
LINE
  8
0
 62
     5
 10
189.521729
 20
154.043488
 11
245.717377
 21
154.043488
  0
TEXT
  8
0
 62
     7
 10
240.608673
 20
147.896744
 40
10.217391
 41
1.000000
  1
%%c25H7
  7
KANJI
 50
90.000000
 51
0.000000
  0
POLYLINE
  8
0
 62
     4
 66
     1
 70
     2
  0
VERTEX
  8
0
 10
165.521729
 20
153.043488
  0
VERTEX
  8
0
 10
165.521729
 20
98.043488
  0
VERTEX
  8
0
 10
166.021729
 20
97.543488
  0
VERTEX
  8
0
 10
177.021729
 20
97.543488
  0
VERTEX
  8
0
 10
177.521729
 20
98.043488
  0
VERTEX
  8
0
 10
177.521729
 20
130.043488
  0
SEQEND
  0
POLYLINE
  8
0
 62
     4
 66
     1
 70
     2
  0
VERTEX
  8
0
 10
179.021729
 20
131.543488
  0
VERTEX
  8
0
 10
188.521729
 20
131.543488
  0
VERTEX
  8
0
 10
189.521729
 20
132.543488
  0
VERTEX
  8
0
 10
189.521729
 20
200.543488
  0
VERTEX
  8
0
 10
188.521729
 20
201.543488
  0
VERTEX
  8
0
 10
179.021729
 20
201.543488
  0
SEQEND
  0
POLYLINE
  8
0
 62
     4
 66
     1
 70
     2
  0
VERTEX
  8
0
 10
177.521729
 20
203.043488
  0
VERTEX
  8
0
 10
177.521729
 20
235.043488
  0
VERTEX
  8
0
 10
177.021729
 20
235.543488
  0
VERTEX
  8
0
 10
166.021729
 20
235.543488
  0
VERTEX
  8
0
 10
165.521729
 20
235.043488
  0
VERTEX
  8
0
 10
165.521729
 20
153.043488
  0
SEQEND
  0
LINE
  8
0
 62
     7
 10
155.304337
 20
234.043488
 11
124.652161
 21
234.043488
  0
POLYLINE
  8
0
 62
     7
 66
     1
 70
     2
  0
VERTEX
  8
0
 10
132.826080
 20
234.043488
  0
VERTEX
  8
0
 10
128.841293
 20
240.950439
  0
VERTEX
  8
0
 10
152.749985
 20
240.950439
  0
VERTEX
  8
0
 10
148.765213
 20
234.043488
  0
VERTEX
  8
0
 10
144.780426
 20
240.950439
  0
VERTEX
  8
0
 10
140.795639
 20
234.043488
  0
VERTEX
  8
0
 10
136.810852
 20
240.950439
  0
VERTEX
  8
0
 10
132.826080
 20
234.043488
  0
SEQEND
  0
POLYLINE
  8
0
 62
     7
 66
     1
 70
     2
  0
VERTEX
  8
0
 10
142.123901
 20
244.403931
  0
VERTEX
  8
0
 10
143.452164
 20
244.403931
  0
VERTEX
  8
0
 10
143.452164
 20
243.606964
  0
VERTEX
  8
0
 10
142.123901
 20
242.278702
  0
VERTEX
  8
0
 10
139.467377
 20
242.278702
  0
VERTEX
  8
0
 10
138.139114
 20
243.606964
  0
VERTEX
  8
0
 10
138.139114
 20
247.591751
  0
VERTEX
  8
0
 10
139.467377
 20
248.920013
  0
VERTEX
  8
0
 10
142.123901
 20
248.920013
  0
VERTEX
  8
0
 10
143.452164
 20
247.591751
  0
VERTEX
  8
0
 10
143.452164
 20
246.794800
  0
SEQEND
  0
CIRCLE
  8
0
 62
     4
 10
383.913025
 20
166.543488
 40
35.000000
  0
LINE
  8
0
 62
     5
 10
201.782593
 20
245.760880
 11
171.260864
 21
245.760880
  0
POLYLINE
  8
0
 62
     5
 66
     1
 70
     2
  0
VERTEX
  8
0
 10
176.369553
 20
243.717407
  0
VERTEX
  8
0
 10
183.521729
 20
245.760880
  0
VERTEX
  8
0
 10
176.369553
 20
247.804352
  0
SEQEND
  0
POLYLINE
  8
0
 62
     5
 66
     1
 70
     2
  0
VERTEX
  8
0
 10
196.673904
 20
247.804352
  0
VERTEX
  8
0
 10
189.521729
 20
245.760880
  0
VERTEX
  8
0
 10
196.673904
 20
243.717407
  0
SEQEND
  0
LINE
  8
0
 62
     5
 10
183.521729
 20
235.543488
 11
183.521729
 21
248.826096
  0
TEXT
  8
0
 62
     7
 10
195.652161
 20
247.395660
 40
10.217391
 41
1.000000
  1
6
  7
KANJI
 50
0.000000
 51
0.000000
  0
LINE
  8
0
 62
     5
 10
183.521729
 20
201.543488
 11
183.521729
 21
235.543488
  0
ENDSEC
  0
EOF
