  0
SECTION
  2
HEADER
  9
$ACADVER
  1
AC1003
  9
$INSBASE
 10
0.000000
 20
0.000000
  9
$EXTMIN
 10
0.000000
 20
0.000000
  9
$EXTMAX
 10
576.260870
 20
398.478261
  9
$LIMMIN
 10
0.000000
 20
0.000000
  9
$LIMMAX
 10
576.260870
 20
398.478261
  9
$VIEWCTR
 10
288.130435
 20
199.239130
  9
$VIEWSIZE
 40
398.478261
  0
ENDSEC
  0
SECTION
  2
TABLES
  0
TABLE
  2
LTYPE
 70
     4
  0
LTYPE
  2
CONTINUOUS
 70
    64
  3
SolidLine
 72
    65
 73
     0
 40
0.0
  0
LTYPE
  2
HIDDEN
 70
    64
  3
------------------------
 72
    65
 73
     2
 40
6.130435
 49
4.086957
 49
-2.043478
  0
LTYPE
  2
DASHDOT
 70
    64
  3
--?--?--?--?--?--?--?--
 72
    65
 73
     4
 40
24.521739
 49
18.391304
 49
-2.043478
 49
2.043478
 49
-2.043478
  0
LTYPE
  2
DIVIDE
 70
    64
  3
--??--??--??--??--??--
 72
    65
 73
     6
 40
30.652174
 49
20.434783
 49
-2.043478
 49
2.043478
 49
-2.043478
 49
2.043478
 49
-2.043478
  0
ENDTAB
  0
TABLE
  2
LAYER
 70
     5
  0
LAYER
  2
0
 70
    64
 62
     7
  6
CONTINUOUS
  0
LAYER
  2
HIDDEN
 70
    64
 62
     2
  6
HIDDEN
  0
LAYER
  2
DASHDOT
 70
    64
 62
     6
  6
DASHDOT
  0
LAYER
  2
DIVIDE
 70
    64
 62
     5
  6
DIVIDE
  0
ENDTAB
  0
TABLE
  2
STYLE
 70
     1
  0
STYLE
  2
STANDARD
 70
    64
 40
0.0
 41
1.0
 50
0.0
 71
     0
 42
0.2
  3
TXT
  4

  0
STYLE
  2
KANJI
 70
    64
 40
0.0
 41
1.0
 50
0.0
 71
     0
 42
0.2
  3
TXT
  4
BIGFONT
  0
ENDTAB
  0
TABLE
  2
VIEW
 70
     0
  0
ENDTAB
  0
ENDSEC
  0
SECTION
  2
BLOCKS
  0
ENDSEC
  0
SECTION
  2
ENTITIES
  0
TEXT
  8
0
 62
     7
 10
20.434782
 20
22.478260
 40
8.173913
 41
1.000000
  1
KHK KHG2.5-28LJ28
  7
KANJI
 50
0.000000
 51
0.000000
  0
TEXT
  8
0
 62
     7
 10
20.434782
 20
10.217391
 40
8.173913
 41
1.000000
  1
The precision grade of gears after secondary operations is equivalent but not identical to its original grade.
  7
KANJI
 50
0.000000
 51
0.000000
  0
TEXT
  8
0
 62
     7
 10
20.434782
 20
367.826080
 40
9.195652
 41
1.000000
  1
For J Series products, without black oxide repeatedly applied on secondary-operated parts.
  7
KANJI
 50
0.000000
 51
0.000000
  0
POLYLINE
  8
0
 62
     7
 66
     1
 70
     2
  0
VERTEX
  8
0
 10
408.695648
 20
367.826080
  0
VERTEX
  8
0
 10
400.726074
 20
381.639984
  0
VERTEX
  8
0
 10
432.604340
 20
381.639984
  0
VERTEX
  8
0
 10
424.634766
 20
367.826080
  0
VERTEX
  8
0
 10
416.665222
 20
381.639984
  0
VERTEX
  8
0
 10
408.695648
 20
367.826080
  0
SEQEND
  0
POLYLINE
  8
0
 62
     7
 66
     1
 70
     2
  0
VERTEX
  8
0
 10
464.482605
 20
367.826080
  0
VERTEX
  8
0
 10
456.513031
 20
381.639984
  0
VERTEX
  8
0
 10
504.330444
 20
381.639984
  0
VERTEX
  8
0
 10
496.360870
 20
367.826080
  0
VERTEX
  8
0
 10
488.391296
 20
381.639984
  0
VERTEX
  8
0
 10
480.421753
 20
367.826080
  0
VERTEX
  8
0
 10
472.452179
 20
381.639984
  0
VERTEX
  8
0
 10
464.482605
 20
367.826080
  0
SEQEND
  0
POLYLINE
  8
0
 62
     7
 66
     1
 70
     2
  0
VERTEX
  8
0
 10
483.078247
 20
388.546936
  0
VERTEX
  8
0
 10
485.734772
 20
388.546936
  0
VERTEX
  8
0
 10
485.734772
 20
386.953033
  0
VERTEX
  8
0
 10
483.078247
 20
384.296509
  0
VERTEX
  8
0
 10
477.765198
 20
384.296509
  0
VERTEX
  8
0
 10
475.108704
 20
386.953033
  0
VERTEX
  8
0
 10
475.108704
 20
394.922607
  0
VERTEX
  8
0
 10
477.765198
 20
397.579132
  0
VERTEX
  8
0
 10
483.078247
 20
397.579132
  0
VERTEX
  8
0
 10
485.734772
 20
394.922607
  0
VERTEX
  8
0
 10
485.734772
 20
393.328674
  0
SEQEND
  0
POLYLINE
  8
0
 62
     7
 66
     1
 70
     2
  0
VERTEX
  8
0
 10
444.824341
 20
381.639984
  0
VERTEX
  8
0
 10
442.699127
 20
379.514771
  0
VERTEX
  8
0
 10
442.699127
 20
369.951294
  0
VERTEX
  8
0
 10
444.824341
 20
367.826080
  0
SEQEND
  0
POLYLINE
  8
0
 62
     7
 66
     1
 70
     2
  0
VERTEX
  8
0
 10
514.425232
 20
381.639984
  0
VERTEX
  8
0
 10
516.550415
 20
379.514771
  0
VERTEX
  8
0
 10
516.550415
 20
369.951294
  0
VERTEX
  8
0
 10
514.425232
 20
367.826080
  0
SEQEND
  0
LINE
  8
0
 62
     5
 10
301.695648
 20
204.043488
 11
301.695648
 21
129.043488
  0
POLYLINE
  8
0
 62
     5
 66
     1
 70
     2
  0
VERTEX
  8
0
 10
303.739136
 20
196.891312
  0
VERTEX
  8
0
 10
301.695648
 20
204.043488
  0
VERTEX
  8
0
 10
299.652161
 20
196.891312
  0
SEQEND
  0
POLYLINE
  8
0
 62
     5
 66
     1
 70
     2
  0
VERTEX
  8
0
 10
299.652161
 20
136.195663
  0
VERTEX
  8
0
 10
301.695648
 20
129.043488
  0
VERTEX
  8
0
 10
303.739136
 20
136.195663
  0
SEQEND
  0
LINE
  8
0
 62
     5
 10
199.521729
 20
204.043488
 11
304.760864
 21
204.043488
  0
LINE
  8
0
 62
     5
 10
199.521729
 20
129.043488
 11
304.760864
 21
129.043488
  0
TEXT
  8
0
 62
     7
 10
299.652161
 20
154.538055
 40
10.217391
 41
1.000000
  1
%%c75
  7
KANJI
 50
90.000000
 51
0.000000
  0
LINE
  8
DASHDOT
 62
     7
 10
159.391296
 20
201.543488
 11
191.652161
 21
201.543488
  0
LINE
  8
DASHDOT
 62
     7
 10
159.391296
 20
131.543488
 11
191.652161
 21
131.543488
  0
LINE
  8
DASHDOT
 62
     7
 10
159.391296
 20
166.543488
 11
205.652161
 21
166.543488
  0
LINE
  8
0
 62
     5
 10
185.521729
 20
203.043488
 11
185.521729
 21
204.043488
  0
LINE
  8
0
 62
     5
 10
165.521729
 20
203.043488
 11
165.521729
 21
204.043488
  0
LINE
  8
0
 62
     5
 10
186.521729
 20
196.543488
 11
199.521729
 21
196.543488
  0
LINE
  8
0
 62
     5
 10
186.521729
 20
136.543488
 11
199.521729
 21
136.543488
  0
LINE
  8
0
 62
     5
 10
184.521729
 20
204.043488
 11
199.521729
 21
204.043488
  0
LINE
  8
0
 62
     5
 10
184.521729
 20
129.043488
 11
199.521729
 21
129.043488
  0
LINE
  8
0
 62
     4
 10
165.521729
 20
198.418488
 11
185.521729
 21
198.418488
  0
LINE
  8
0
 62
     4
 10
165.521729
 20
134.668488
 11
185.521729
 21
134.668488
  0
LINE
  8
0
 62
     4
 10
198.521729
 20
152.543488
 11
199.521729
 21
151.543488
  0
LINE
  8
0
 62
     4
 10
198.521729
 20
180.543488
 11
199.521729
 21
181.543488
  0
LINE
  8
0
 62
     4
 10
166.521729
 20
180.543488
 11
166.521729
 21
152.543488
  0
POLYLINE
  8
0
 62
     4
 66
     1
 70
     2
  0
VERTEX
  8
0
 10
165.521729
 20
151.543488
  0
VERTEX
  8
0
 10
166.521729
 20
152.543488
  0
VERTEX
  8
0
 10
198.521729
 20
152.543488
  0
VERTEX
  8
0
 10
198.521729
 20
180.543488
  0
VERTEX
  8
0
 10
166.521729
 20
180.543488
  0
VERTEX
  8
0
 10
165.521729
 20
181.543488
  0
SEQEND
  0
ARC
  8
0
 62
     4
 10
186.521729
 20
197.543488
 40
1.000000
 50
180.0
 51
270.0
  0
ARC
  8
0
 62
     4
 10
186.521729
 20
135.543488
 40
1.000000
 50
90.0
 51
180.0
  0
LINE
  8
0
 62
     5
 10
199.521729
 20
195.543488
 11
199.521729
 21
204.043488
  0
LINE
  8
0
 62
     5
 10
197.782593
 20
259.217407
 11
153.260864
 21
259.217407
  0
POLYLINE
  8
0
 62
     5
 66
     1
 70
     2
  0
VERTEX
  8
0
 10
158.369553
 20
257.173920
  0
VERTEX
  8
0
 10
165.521729
 20
259.217407
  0
VERTEX
  8
0
 10
158.369553
 20
261.260864
  0
SEQEND
  0
POLYLINE
  8
0
 62
     5
 66
     1
 70
     2
  0
VERTEX
  8
0
 10
192.673904
 20
261.260864
  0
VERTEX
  8
0
 10
185.521729
 20
259.217407
  0
VERTEX
  8
0
 10
192.673904
 20
257.173920
  0
SEQEND
  0
LINE
  8
0
 62
     5
 10
185.521729
 20
204.043488
 11
185.521729
 21
262.282623
  0
TEXT
  8
0
 62
     7
 10
168.880417
 20
260.852173
 40
10.217391
 41
1.000000
  1
20
  7
KANJI
 50
0.000000
 51
0.000000
  0
LINE
  8
0
 62
     5
 10
165.521729
 20
275.565216
 11
199.521729
 21
275.565216
  0
POLYLINE
  8
0
 62
     5
 66
     1
 70
     2
  0
VERTEX
  8
0
 10
172.673904
 20
277.608704
  0
VERTEX
  8
0
 10
165.521729
 20
275.565216
  0
VERTEX
  8
0
 10
172.673904
 20
273.521729
  0
SEQEND
  0
POLYLINE
  8
0
 62
     5
 66
     1
 70
     2
  0
VERTEX
  8
0
 10
192.369553
 20
273.521729
  0
VERTEX
  8
0
 10
199.521729
 20
275.565216
  0
VERTEX
  8
0
 10
192.369553
 20
277.608704
  0
SEQEND
  0
LINE
  8
0
 62
     5
 10
165.521729
 20
204.043488
 11
165.521729
 21
278.630432
  0
LINE
  8
0
 62
     5
 10
199.521729
 20
204.043488
 11
199.521729
 21
278.630432
  0
TEXT
  8
0
 62
     7
 10
175.880432
 20
277.200012
 40
10.217391
 41
1.000000
  1
34
  7
KANJI
 50
0.000000
 51
0.000000
  0
LINE
  8
0
 62
     5
 10
211.782593
 20
259.217407
 11
173.260864
 21
259.217407
  0
POLYLINE
  8
0
 62
     5
 66
     1
 70
     2
  0
VERTEX
  8
0
 10
178.369553
 20
257.173920
  0
VERTEX
  8
0
 10
185.521729
 20
259.217407
  0
VERTEX
  8
0
 10
178.369553
 20
261.260864
  0
SEQEND
  0
POLYLINE
  8
0
 62
     5
 66
     1
 70
     2
  0
VERTEX
  8
0
 10
206.673904
 20
261.260864
  0
VERTEX
  8
0
 10
199.521729
 20
259.217407
  0
VERTEX
  8
0
 10
206.673904
 20
257.173920
  0
SEQEND
  0
TEXT
  8
0
 62
     7
 10
185.880432
 20
260.852173
 40
10.217391
 41
1.000000
  1
14
  7
KANJI
 50
0.000000
 51
0.000000
  0
LINE
  8
0
 62
     5
 10
285.347809
 20
196.543488
 11
285.347809
 21
136.543488
  0
POLYLINE
  8
0
 62
     5
 66
     1
 70
     2
  0
VERTEX
  8
0
 10
287.391296
 20
189.391312
  0
VERTEX
  8
0
 10
285.347809
 20
196.543488
  0
VERTEX
  8
0
 10
283.304321
 20
189.391312
  0
SEQEND
  0
POLYLINE
  8
0
 62
     5
 66
     1
 70
     2
  0
VERTEX
  8
0
 10
283.304321
 20
143.695663
  0
VERTEX
  8
0
 10
285.347809
 20
136.543488
  0
VERTEX
  8
0
 10
287.391296
 20
143.695663
  0
SEQEND
  0
LINE
  8
0
 62
     5
 10
199.521729
 20
196.543488
 11
288.413025
 21
196.543488
  0
LINE
  8
0
 62
     5
 10
199.521729
 20
136.543488
 11
288.413025
 21
136.543488
  0
TEXT
  8
0
 62
     7
 10
283.304321
 20
154.538055
 40
10.217391
 41
1.000000
  1
%%c60
  7
KANJI
 50
90.000000
 51
0.000000
  0
LINE
  8
DASHDOT
 62
     7
 10
388.913025
 20
206.760880
 11
388.913025
 21
130.413055
  0
LINE
  8
DASHDOT
 62
     7
 10
352.782593
 20
166.543488
 11
425.043457
 21
166.543488
  0
LINE
  8
0
 62
     5
 10
405.173889
 20
225.152191
 11
372.652161
 21
225.152191
  0
POLYLINE
  8
0
 62
     5
 66
     1
 70
     2
  0
VERTEX
  8
0
 10
377.760864
 20
223.108704
  0
VERTEX
  8
0
 10
384.913025
 20
225.152191
  0
VERTEX
  8
0
 10
377.760864
 20
227.195663
  0
SEQEND
  0
POLYLINE
  8
0
 62
     5
 66
     1
 70
     2
  0
VERTEX
  8
0
 10
400.065216
 20
227.195663
  0
VERTEX
  8
0
 10
392.913025
 20
225.152191
  0
VERTEX
  8
0
 10
400.065216
 20
223.108704
  0
SEQEND
  0
LINE
  8
0
 62
     5
 10
384.913025
 20
183.843491
 11
384.913025
 21
228.217407
  0
LINE
  8
0
 62
     5
 10
392.913025
 20
183.843491
 11
392.913025
 21
228.217407
  0
TEXT
  8
0
 62
     7
 10
367.822327
 20
227.195663
 40
10.217391
 41
1.000000
  1
8
  7
KANJI
 50
0.000000
 51
0.000000
  0
TEXT
  8
0
 62
     7
 10
377.936279
 20
227.195663
 40
8.173913
 41
1.000000
  1
%%p0.018
  7
KANJI
 50
0.000000
 51
0.000000
  0
LINE
  8
0
 62
     5
 10
449.565216
 20
140.282623
 11
449.565216
 21
196.104355
  0
POLYLINE
  8
0
 62
     5
 66
     1
 70
     2
  0
VERTEX
  8
0
 10
447.521729
 20
190.995667
  0
VERTEX
  8
0
 10
449.565216
 20
183.843491
  0
VERTEX
  8
0
 10
451.608704
 20
190.995667
  0
SEQEND
  0
POLYLINE
  8
0
 62
     5
 66
     1
 70
     2
  0
VERTEX
  8
0
 10
451.608704
 20
145.391312
  0
VERTEX
  8
0
 10
449.565216
 20
152.543488
  0
VERTEX
  8
0
 10
447.521729
 20
145.391312
  0
SEQEND
  0
LINE
  8
0
 62
     5
 10
392.913025
 20
183.843491
 11
452.630432
 21
183.843491
  0
LINE
  8
0
 62
     5
 10
388.913025
 20
152.543488
 11
452.630432
 21
152.543488
  0
TEXT
  8
0
 62
     7
 10
446.500000
 20
135.930038
 40
10.217391
 41
1.000000
  1
31.3
  7
KANJI
 50
90.000000
 51
0.000000
  0
TEXT
  8
0
 62
     7
 10
447.113037
 20
180.154953
 40
5.108696
 41
1.000000
  1
 
  7
KANJI
 50
90.000000
 51
0.000000
  0
TEXT
  8
0
 62
     7
 10
440.778259
 20
180.154953
 40
5.108696
 41
1.000000
  1
+
  7
KANJI
 50
90.000000
 51
0.000000
  0
TEXT
  8
0
 62
     7
 10
447.113037
 20
185.876694
 40
5.108696
 41
1.000000
  1
0
  7
KANJI
 50
90.000000
 51
0.000000
  0
TEXT
  8
0
 62
     7
 10
440.778259
 20
185.876694
 40
5.108696
 41
1.000000
  1
0.2
  7
KANJI
 50
90.000000
 51
0.000000
  0
ARC
  8
0
 62
     4
 10
388.913025
 20
166.543488
 40
14.000000
 50
106.60154992625478
 51
73.39845007374521
  0
POLYLINE
  8
0
 62
     4
 66
     1
 70
     2
  0
VERTEX
  8
0
 10
392.913025
 20
179.959900
  0
VERTEX
  8
0
 10
392.913025
 20
183.843491
  0
VERTEX
  8
0
 10
384.913025
 20
183.843491
  0
VERTEX
  8
0
 10
384.913025
 20
179.959900
  0
SEQEND
  0
LINE
  8
0
 62
     4
 10
165.521729
 20
183.843491
 11
199.521729
 21
183.843491
  0
POLYLINE
  8
DASHDOT
 62
     7
 66
     1
 70
     2
  0
VERTEX
  8
DASHDOT
 10
192.521729
 20
202.673920
  0
VERTEX
  8
DASHDOT
 10
192.521729
 20
177.713058
  0
SEQEND
  0
POLYLINE
  8
0
 62
     4
 66
     1
 70
     2
  0
VERTEX
  8
0
 10
195.521729
 20
196.543488
  0
VERTEX
  8
0
 10
195.521729
 20
183.843491
  0
SEQEND
  0
POLYLINE
  8
0
 62
     4
 66
     1
 70
     2
  0
VERTEX
  8
0
 10
189.521729
 20
196.543488
  0
VERTEX
  8
0
 10
189.521729
 20
183.843491
  0
SEQEND
  0
POLYLINE
  8
0
 62
     4
 66
     1
 70
     2
  0
VERTEX
  8
0
 10
194.981720
 20
196.543488
  0
VERTEX
  8
0
 10
194.981720
 20
183.843491
  0
SEQEND
  0
POLYLINE
  8
0
 62
     4
 66
     1
 70
     2
  0
VERTEX
  8
0
 10
190.061737
 20
196.543488
  0
VERTEX
  8
0
 10
190.061737
 20
183.843491
  0
SEQEND
  0
POLYLINE
  8
0
 62
     4
 66
     1
 70
     2
  0
VERTEX
  8
0
 10
385.913025
 20
183.843491
  0
VERTEX
  8
0
 10
385.913025
 20
196.393112
  0
SEQEND
  0
POLYLINE
  8
0
 62
     4
 66
     1
 70
     2
  0
VERTEX
  8
0
 10
391.913025
 20
183.843491
  0
VERTEX
  8
0
 10
391.913025
 20
196.393112
  0
SEQEND
  0
POLYLINE
  8
0
 62
     4
 66
     1
 70
     2
  0
VERTEX
  8
0
 10
386.453033
 20
183.843491
  0
VERTEX
  8
0
 10
386.453033
 20
196.442459
  0
SEQEND
  0
POLYLINE
  8
0
 62
     4
 66
     1
 70
     2
  0
VERTEX
  8
0
 10
391.373047
 20
183.843491
  0
VERTEX
  8
0
 10
391.373047
 20
196.442459
  0
SEQEND
  0
POLYLINE
  8
0
 62
     5
 66
     1
 70
     2
  0
VERTEX
  8
0
 10
388.913025
 20
196.543488
  0
VERTEX
  8
0
 10
352.130432
 20
257.847839
  0
VERTEX
  8
0
 10
374.608704
 20
257.847839
  0
SEQEND
  0
POLYLINE
  8
0
 62
     5
 66
     1
 70
     2
  0
VERTEX
  8
0
 10
383.481018
 20
201.625061
  0
VERTEX
  8
0
 10
388.913025
 20
196.543488
  0
VERTEX
  8
0
 10
386.985535
 20
203.727783
  0
SEQEND
  0
TEXT
  8
0
 62
     7
 10
354.173889
 20
259.891296
 40
9.808696
 41
1.000000
  1
M6
  7
KANJI
 50
0.000000
 51
0.000000
  0
CIRCLE
  8
0
 62
     7
 10
192.521729
 20
166.543488
 40
3.000000
  0
CIRCLE
  8
0
 62
     4
 10
192.521729
 20
166.543488
 40
2.460000
  0
POLYLINE
  8
DASHDOT
 62
     7
 66
     1
 70
     2
  0
VERTEX
  8
DASHDOT
 10
183.391296
 20
166.543488
  0
VERTEX
  8
DASHDOT
 10
201.652161
 20
166.543488
  0
SEQEND
  0
POLYLINE
  8
DASHDOT
 62
     7
 66
     1
 70
     2
  0
VERTEX
  8
DASHDOT
 10
192.521729
 20
157.413055
  0
VERTEX
  8
DASHDOT
 10
192.521729
 20
175.673920
  0
SEQEND
  0
LINE
  8
DASHDOT
 62
     7
 10
192.521729
 20
196.543488
 11
192.521729
 21
166.543488
  0
LINE
  8
0
 62
     5
 10
192.521729
 20
196.543488
 11
192.521729
 21
204.043488
  0
POLYLINE
  8
0
 62
     4
 66
     1
 70
     2
  0
VERTEX
  8
0
 10
402.587830
 20
169.543488
  0
VERTEX
  8
0
 10
418.762665
 20
169.543488
  0
SEQEND
  0
POLYLINE
  8
0
 62
     4
 66
     1
 70
     2
  0
VERTEX
  8
0
 10
402.587830
 20
163.543488
  0
VERTEX
  8
0
 10
418.762665
 20
163.543488
  0
SEQEND
  0
POLYLINE
  8
0
 62
     4
 66
     1
 70
     2
  0
VERTEX
  8
0
 10
402.695221
 20
169.003494
  0
VERTEX
  8
0
 10
418.812012
 20
169.003494
  0
SEQEND
  0
POLYLINE
  8
0
 62
     4
 66
     1
 70
     2
  0
VERTEX
  8
0
 10
402.695221
 20
164.083481
  0
VERTEX
  8
0
 10
418.812012
 20
164.083481
  0
SEQEND
  0
POLYLINE
  8
0
 62
     5
 66
     1
 70
     2
  0
VERTEX
  8
0
 10
418.913025
 20
166.543488
  0
VERTEX
  8
0
 10
449.565216
 20
241.500000
  0
VERTEX
  8
0
 10
419.730408
 20
241.500000
  0
SEQEND
  0
POLYLINE
  8
0
 62
     5
 66
     1
 70
     2
  0
VERTEX
  8
0
 10
419.728760
 20
173.936996
  0
VERTEX
  8
0
 10
418.913025
 20
166.543488
  0
VERTEX
  8
0
 10
423.511627
 20
172.390060
  0
SEQEND
  0
TEXT
  8
0
 62
     7
 10
423.817383
 20
243.543488
 40
9.808696
 41
1.000000
  1
M6
  7
KANJI
 50
0.000000
 51
0.000000
  0
LINE
  8
DASHDOT
 62
     7
 10
165.521729
 20
162.604385
 11
185.521729
 21
170.482590
  0
LINE
  8
0
 62
     7
 10
175.521729
 20
176.760880
 11
175.521729
 21
156.326096
  0
LINE
  8
0
 62
     5
 10
252.652161
 20
180.543488
 11
252.652161
 21
152.543488
  0
POLYLINE
  8
0
 62
     5
 66
     1
 70
     2
  0
VERTEX
  8
0
 10
250.608673
 20
159.695663
  0
VERTEX
  8
0
 10
252.652161
 20
152.543488
  0
VERTEX
  8
0
 10
254.695648
 20
159.695663
  0
SEQEND
  0
LINE
  8
0
 62
     5
 10
199.521729
 20
152.543488
 11
255.717377
 21
152.543488
  0
TEXT
  8
0
 62
     7
 10
250.608673
 20
147.896744
 40
10.217391
 41
1.000000
  1
%%c28H7
  7
KANJI
 50
90.000000
 51
0.000000
  0
POLYLINE
  8
0
 62
     4
 66
     1
 70
     2
  0
VERTEX
  8
0
 10
165.521729
 20
151.543488
  0
VERTEX
  8
0
 10
165.521729
 20
130.043488
  0
VERTEX
  8
0
 10
166.521729
 20
129.043488
  0
VERTEX
  8
0
 10
184.521729
 20
129.043488
  0
VERTEX
  8
0
 10
185.521729
 20
130.043488
  0
VERTEX
  8
0
 10
185.521729
 20
135.543488
  0
SEQEND
  0
POLYLINE
  8
0
 62
     4
 66
     1
 70
     2
  0
VERTEX
  8
0
 10
186.521729
 20
136.543488
  0
VERTEX
  8
0
 10
198.521729
 20
136.543488
  0
VERTEX
  8
0
 10
199.521729
 20
137.543488
  0
VERTEX
  8
0
 10
199.521729
 20
195.543488
  0
VERTEX
  8
0
 10
198.521729
 20
196.543488
  0
VERTEX
  8
0
 10
186.521729
 20
196.543488
  0
SEQEND
  0
POLYLINE
  8
0
 62
     4
 66
     1
 70
     2
  0
VERTEX
  8
0
 10
185.521729
 20
197.543488
  0
VERTEX
  8
0
 10
185.521729
 20
203.043488
  0
VERTEX
  8
0
 10
184.521729
 20
204.043488
  0
VERTEX
  8
0
 10
166.521729
 20
204.043488
  0
VERTEX
  8
0
 10
165.521729
 20
203.043488
  0
VERTEX
  8
0
 10
165.521729
 20
151.543488
  0
SEQEND
  0
LINE
  8
0
 62
     7
 10
155.304337
 20
201.543488
 11
124.652161
 21
201.543488
  0
POLYLINE
  8
0
 62
     7
 66
     1
 70
     2
  0
VERTEX
  8
0
 10
132.826080
 20
201.543488
  0
VERTEX
  8
0
 10
128.841293
 20
208.450439
  0
VERTEX
  8
0
 10
152.749985
 20
208.450439
  0
VERTEX
  8
0
 10
148.765213
 20
201.543488
  0
VERTEX
  8
0
 10
144.780426
 20
208.450439
  0
VERTEX
  8
0
 10
140.795639
 20
201.543488
  0
VERTEX
  8
0
 10
136.810852
 20
208.450439
  0
VERTEX
  8
0
 10
132.826080
 20
201.543488
  0
SEQEND
  0
POLYLINE
  8
0
 62
     7
 66
     1
 70
     2
  0
VERTEX
  8
0
 10
142.123901
 20
211.903931
  0
VERTEX
  8
0
 10
143.452164
 20
211.903931
  0
VERTEX
  8
0
 10
143.452164
 20
211.106964
  0
VERTEX
  8
0
 10
142.123901
 20
209.778702
  0
VERTEX
  8
0
 10
139.467377
 20
209.778702
  0
VERTEX
  8
0
 10
138.139114
 20
211.106964
  0
VERTEX
  8
0
 10
138.139114
 20
215.091751
  0
VERTEX
  8
0
 10
139.467377
 20
216.420013
  0
VERTEX
  8
0
 10
142.123901
 20
216.420013
  0
VERTEX
  8
0
 10
143.452164
 20
215.091751
  0
VERTEX
  8
0
 10
143.452164
 20
214.294800
  0
SEQEND
  0
CIRCLE
  8
0
 62
     4
 10
388.913025
 20
166.543488
 40
30.000000
  0
LINE
  8
0
 62
     5
 10
211.782593
 20
214.260880
 11
180.260864
 21
214.260880
  0
POLYLINE
  8
0
 62
     5
 66
     1
 70
     2
  0
VERTEX
  8
0
 10
185.369553
 20
212.217407
  0
VERTEX
  8
0
 10
192.521729
 20
214.260880
  0
VERTEX
  8
0
 10
185.369553
 20
216.304352
  0
SEQEND
  0
POLYLINE
  8
0
 62
     5
 66
     1
 70
     2
  0
VERTEX
  8
0
 10
206.673904
 20
216.304352
  0
VERTEX
  8
0
 10
199.521729
 20
214.260880
  0
VERTEX
  8
0
 10
206.673904
 20
212.217407
  0
SEQEND
  0
LINE
  8
0
 62
     5
 10
192.521729
 20
204.043488
 11
192.521729
 21
217.326096
  0
TEXT
  8
0
 62
     7
 10
192.701080
 20
215.895660
 40
10.217391
 41
1.000000
  1
7
  7
KANJI
 50
0.000000
 51
0.000000
  0
LINE
  8
0
 62
     5
 10
192.521729
 20
196.543488
 11
192.521729
 21
204.043488
  0
ENDSEC
  0
EOF
