  0
SECTION
  2
HEADER
  9
$ACADVER
  1
AC1003
  9
$INSBASE
 10
0.000000
 20
0.000000
  9
$EXTMIN
 10
0.000000
 20
0.000000
  9
$EXTMAX
 10
484.304348
 20
334.891304
  9
$LIMMIN
 10
0.000000
 20
0.000000
  9
$LIMMAX
 10
484.304348
 20
334.891304
  9
$VIEWCTR
 10
242.152174
 20
167.445652
  9
$VIEWSIZE
 40
334.891304
  0
ENDSEC
  0
SECTION
  2
TABLES
  0
TABLE
  2
LTYPE
 70
     4
  0
LTYPE
  2
CONTINUOUS
 70
    64
  3
SolidLine
 72
    65
 73
     0
 40
0.0
  0
LTYPE
  2
HIDDEN
 70
    64
  3
------------------------
 72
    65
 73
     2
 40
5.152174
 49
3.434783
 49
-1.717391
  0
LTYPE
  2
DASHDOT
 70
    64
  3
--?--?--?--?--?--?--?--
 72
    65
 73
     4
 40
20.608696
 49
15.456522
 49
-1.717391
 49
1.717391
 49
-1.717391
  0
LTYPE
  2
DIVIDE
 70
    64
  3
--??--??--??--??--??--
 72
    65
 73
     6
 40
25.760870
 49
17.173913
 49
-1.717391
 49
1.717391
 49
-1.717391
 49
1.717391
 49
-1.717391
  0
ENDTAB
  0
TABLE
  2
LAYER
 70
     5
  0
LAYER
  2
0
 70
    64
 62
     7
  6
CONTINUOUS
  0
LAYER
  2
HIDDEN
 70
    64
 62
     2
  6
HIDDEN
  0
LAYER
  2
DASHDOT
 70
    64
 62
     6
  6
DASHDOT
  0
LAYER
  2
DIVIDE
 70
    64
 62
     5
  6
DIVIDE
  0
ENDTAB
  0
TABLE
  2
STYLE
 70
     1
  0
STYLE
  2
STANDARD
 70
    64
 40
0.0
 41
1.0
 50
0.0
 71
     0
 42
0.2
  3
TXT
  4

  0
STYLE
  2
KANJI
 70
    64
 40
0.0
 41
1.0
 50
0.0
 71
     0
 42
0.2
  3
TXT
  4
BIGFONT
  0
ENDTAB
  0
TABLE
  2
VIEW
 70
     0
  0
ENDTAB
  0
ENDSEC
  0
SECTION
  2
BLOCKS
  0
ENDSEC
  0
SECTION
  2
ENTITIES
  0
TEXT
  8
0
 62
     7
 10
17.173914
 20
18.891304
 40
6.869565
 41
1.000000
  1
KHK KHG2-36R
  7
KANJI
 50
0.000000
 51
0.000000
  0
TEXT
  8
0
 62
     7
 10
17.173914
 20
8.586957
 40
6.869565
 41
1.000000
  1

  7
KANJI
 50
0.000000
 51
0.000000
  0
TEXT
  8
0
 62
     7
 10
17.173914
 20
309.130432
 40
7.728261
 41
1.000000
  1
Black oxide except gear tooth
  7
KANJI
 50
0.000000
 51
0.000000
  0
POLYLINE
  8
0
 62
     7
 66
     1
 70
     2
  0
VERTEX
  8
0
 10
343.478271
 20
309.130432
  0
VERTEX
  8
0
 10
336.780457
 20
320.739990
  0
VERTEX
  8
0
 10
363.571747
 20
320.739990
  0
VERTEX
  8
0
 10
356.873932
 20
309.130432
  0
VERTEX
  8
0
 10
350.176086
 20
320.739990
  0
VERTEX
  8
0
 10
343.478271
 20
309.130432
  0
SEQEND
  0
POLYLINE
  8
0
 62
     7
 66
     1
 70
     2
  0
VERTEX
  8
0
 10
390.363037
 20
309.130432
  0
VERTEX
  8
0
 10
383.665222
 20
320.739990
  0
VERTEX
  8
0
 10
423.852173
 20
320.739990
  0
VERTEX
  8
0
 10
417.154358
 20
309.130432
  0
VERTEX
  8
0
 10
410.456543
 20
320.739990
  0
VERTEX
  8
0
 10
403.758698
 20
309.130432
  0
VERTEX
  8
0
 10
397.060883
 20
320.739990
  0
VERTEX
  8
0
 10
390.363037
 20
309.130432
  0
SEQEND
  0
POLYLINE
  8
0
 62
     7
 66
     1
 70
     2
  0
VERTEX
  8
0
 10
405.991333
 20
326.544769
  0
VERTEX
  8
0
 10
408.223938
 20
326.544769
  0
VERTEX
  8
0
 10
408.223938
 20
325.205200
  0
VERTEX
  8
0
 10
405.991333
 20
322.972595
  0
VERTEX
  8
0
 10
401.526093
 20
322.972595
  0
VERTEX
  8
0
 10
399.293488
 20
325.205200
  0
VERTEX
  8
0
 10
399.293488
 20
331.903046
  0
VERTEX
  8
0
 10
401.526093
 20
334.135651
  0
VERTEX
  8
0
 10
405.991333
 20
334.135651
  0
VERTEX
  8
0
 10
408.223938
 20
331.903046
  0
VERTEX
  8
0
 10
408.223938
 20
330.563477
  0
SEQEND
  0
POLYLINE
  8
0
 62
     7
 66
     1
 70
     2
  0
VERTEX
  8
0
 10
373.841736
 20
320.739990
  0
VERTEX
  8
0
 10
372.055664
 20
318.953918
  0
VERTEX
  8
0
 10
372.055664
 20
310.916504
  0
VERTEX
  8
0
 10
373.841736
 20
309.130432
  0
SEQEND
  0
POLYLINE
  8
0
 62
     7
 66
     1
 70
     2
  0
VERTEX
  8
0
 10
432.336090
 20
320.739990
  0
VERTEX
  8
0
 10
434.122192
 20
318.953918
  0
VERTEX
  8
0
 10
434.122192
 20
310.916504
  0
VERTEX
  8
0
 10
432.336090
 20
309.130432
  0
SEQEND
  0
LINE
  8
0
 62
     5
 10
253.978271
 20
177.967392
 11
253.978271
 21
101.967392
  0
POLYLINE
  8
0
 62
     5
 66
     1
 70
     2
  0
VERTEX
  8
0
 10
255.695663
 20
171.956528
  0
VERTEX
  8
0
 10
253.978271
 20
177.967392
  0
VERTEX
  8
0
 10
252.260880
 20
171.956528
  0
SEQEND
  0
POLYLINE
  8
0
 62
     5
 66
     1
 70
     2
  0
VERTEX
  8
0
 10
252.260880
 20
107.978264
  0
VERTEX
  8
0
 10
253.978271
 20
101.967392
  0
VERTEX
  8
0
 10
255.695663
 20
107.978264
  0
SEQEND
  0
LINE
  8
0
 62
     5
 10
168.108704
 20
177.967392
 11
256.554352
 21
177.967392
  0
LINE
  8
0
 62
     5
 10
168.108704
 20
101.967392
 11
256.554352
 21
101.967392
  0
TEXT
  8
0
 62
     7
 10
252.260880
 20
129.877716
 40
8.586957
 41
1.000000
  1
%%c76
  7
KANJI
 50
90.000000
 51
0.000000
  0
LINE
  8
DASHDOT
 62
     7
 10
133.956528
 20
175.967392
 11
160.260880
 21
175.967392
  0
LINE
  8
DASHDOT
 62
     7
 10
133.956528
 20
103.967392
 11
160.260880
 21
103.967392
  0
LINE
  8
DASHDOT
 62
     7
 10
133.956528
 20
139.967392
 11
173.260880
 21
139.967392
  0
LINE
  8
0
 62
     5
 10
155.108704
 20
177.467392
 11
155.108704
 21
177.967392
  0
LINE
  8
0
 62
     5
 10
139.108704
 20
177.467392
 11
139.108704
 21
177.967392
  0
LINE
  8
0
 62
     5
 10
156.108704
 20
164.967392
 11
168.108704
 21
164.967392
  0
LINE
  8
0
 62
     5
 10
156.108704
 20
114.967392
 11
168.108704
 21
114.967392
  0
LINE
  8
0
 62
     5
 10
154.608704
 20
177.967392
 11
168.108704
 21
177.967392
  0
LINE
  8
0
 62
     5
 10
154.608704
 20
101.967392
 11
168.108704
 21
101.967392
  0
LINE
  8
0
 62
     4
 10
139.108704
 20
173.467392
 11
155.108704
 21
173.467392
  0
LINE
  8
0
 62
     4
 10
139.108704
 20
106.467392
 11
155.108704
 21
106.467392
  0
LINE
  8
0
 62
     4
 10
167.608704
 20
130.967392
 11
168.108704
 21
130.467392
  0
LINE
  8
0
 62
     4
 10
167.608704
 20
148.967392
 11
168.108704
 21
149.467392
  0
LINE
  8
0
 62
     4
 10
139.608704
 20
148.967392
 11
139.608704
 21
130.967392
  0
POLYLINE
  8
0
 62
     4
 66
     1
 70
     2
  0
VERTEX
  8
0
 10
139.108704
 20
130.467392
  0
VERTEX
  8
0
 10
139.608704
 20
130.967392
  0
VERTEX
  8
0
 10
167.608704
 20
130.967392
  0
VERTEX
  8
0
 10
167.608704
 20
148.967392
  0
VERTEX
  8
0
 10
139.608704
 20
148.967392
  0
VERTEX
  8
0
 10
139.108704
 20
149.467392
  0
SEQEND
  0
ARC
  8
0
 62
     4
 10
156.108704
 20
165.967392
 40
1.000000
 50
180.0
 51
270.0
  0
ARC
  8
0
 62
     4
 10
156.108704
 20
113.967392
 40
1.000000
 50
90.0
 51
180.0
  0
LINE
  8
0
 62
     5
 10
168.108704
 20
164.467392
 11
168.108704
 21
177.967392
  0
LINE
  8
0
 62
     5
 10
165.413055
 20
224.336960
 11
128.804352
 21
224.336960
  0
POLYLINE
  8
0
 62
     5
 66
     1
 70
     2
  0
VERTEX
  8
0
 10
133.097839
 20
222.619568
  0
VERTEX
  8
0
 10
139.108704
 20
224.336960
  0
VERTEX
  8
0
 10
133.097839
 20
226.054352
  0
SEQEND
  0
POLYLINE
  8
0
 62
     5
 66
     1
 70
     2
  0
VERTEX
  8
0
 10
161.119568
 20
226.054352
  0
VERTEX
  8
0
 10
155.108704
 20
224.336960
  0
VERTEX
  8
0
 10
161.119568
 20
222.619568
  0
SEQEND
  0
LINE
  8
0
 62
     5
 10
155.108704
 20
177.967392
 11
155.108704
 21
226.913055
  0
TEXT
  8
0
 62
     7
 10
141.527176
 20
225.710876
 40
8.586957
 41
1.000000
  1
16
  7
KANJI
 50
0.000000
 51
0.000000
  0
LINE
  8
0
 62
     5
 10
139.108704
 20
238.076080
 11
168.108704
 21
238.076080
  0
POLYLINE
  8
0
 62
     5
 66
     1
 70
     2
  0
VERTEX
  8
0
 10
145.119568
 20
239.793488
  0
VERTEX
  8
0
 10
139.108704
 20
238.076080
  0
VERTEX
  8
0
 10
145.119568
 20
236.358704
  0
SEQEND
  0
POLYLINE
  8
0
 62
     5
 66
     1
 70
     2
  0
VERTEX
  8
0
 10
162.097839
 20
236.358704
  0
VERTEX
  8
0
 10
168.108704
 20
238.076080
  0
VERTEX
  8
0
 10
162.097839
 20
239.793488
  0
SEQEND
  0
LINE
  8
0
 62
     5
 10
139.108704
 20
177.967392
 11
139.108704
 21
240.652176
  0
LINE
  8
0
 62
     5
 10
168.108704
 20
177.967392
 11
168.108704
 21
240.652176
  0
TEXT
  8
0
 62
     7
 10
148.027176
 20
239.450012
 40
8.586957
 41
1.000000
  1
29
  7
KANJI
 50
0.000000
 51
0.000000
  0
LINE
  8
0
 62
     5
 10
178.413055
 20
224.336960
 11
144.804352
 21
224.336960
  0
POLYLINE
  8
0
 62
     5
 66
     1
 70
     2
  0
VERTEX
  8
0
 10
149.097839
 20
222.619568
  0
VERTEX
  8
0
 10
155.108704
 20
224.336960
  0
VERTEX
  8
0
 10
149.097839
 20
226.054352
  0
SEQEND
  0
POLYLINE
  8
0
 62
     5
 66
     1
 70
     2
  0
VERTEX
  8
0
 10
174.119568
 20
226.054352
  0
VERTEX
  8
0
 10
168.108704
 20
224.336960
  0
VERTEX
  8
0
 10
174.119568
 20
222.619568
  0
SEQEND
  0
TEXT
  8
0
 62
     7
 10
156.027176
 20
225.710876
 40
8.586957
 41
1.000000
  1
13
  7
KANJI
 50
0.000000
 51
0.000000
  0
LINE
  8
0
 62
     5
 10
240.239136
 20
164.967392
 11
240.239136
 21
114.967392
  0
POLYLINE
  8
0
 62
     5
 66
     1
 70
     2
  0
VERTEX
  8
0
 10
241.956528
 20
158.956528
  0
VERTEX
  8
0
 10
240.239136
 20
164.967392
  0
VERTEX
  8
0
 10
238.521744
 20
158.956528
  0
SEQEND
  0
POLYLINE
  8
0
 62
     5
 66
     1
 70
     2
  0
VERTEX
  8
0
 10
238.521744
 20
120.978264
  0
VERTEX
  8
0
 10
240.239136
 20
114.967392
  0
VERTEX
  8
0
 10
241.956528
 20
120.978264
  0
SEQEND
  0
LINE
  8
0
 62
     5
 10
168.108704
 20
164.967392
 11
242.815216
 21
164.967392
  0
LINE
  8
0
 62
     5
 10
168.108704
 20
114.967392
 11
242.815216
 21
114.967392
  0
TEXT
  8
0
 62
     7
 10
238.521744
 20
129.877716
 40
8.586957
 41
1.000000
  1
%%c50
  7
KANJI
 50
90.000000
 51
0.000000
  0
LINE
  8
DASHDOT
 62
     7
 10
139.108704
 20
143.118683
 11
155.108704
 21
136.816101
  0
LINE
  8
0
 62
     7
 10
147.108704
 20
148.554352
 11
147.108704
 21
131.380432
  0
LINE
  8
0
 62
     5
 10
212.760880
 20
120.663040
 11
212.760880
 21
159.271744
  0
POLYLINE
  8
0
 62
     5
 66
     1
 70
     2
  0
VERTEX
  8
0
 10
211.043488
 20
154.978256
  0
VERTEX
  8
0
 10
212.760880
 20
148.967392
  0
VERTEX
  8
0
 10
214.478271
 20
154.978256
  0
SEQEND
  0
POLYLINE
  8
0
 62
     5
 66
     1
 70
     2
  0
VERTEX
  8
0
 10
214.478271
 20
124.956520
  0
VERTEX
  8
0
 10
212.760880
 20
130.967392
  0
VERTEX
  8
0
 10
211.043488
 20
124.956520
  0
SEQEND
  0
LINE
  8
0
 62
     5
 10
168.108704
 20
148.967392
 11
215.336975
 21
148.967392
  0
LINE
  8
0
 62
     5
 10
168.108704
 20
130.967392
 11
215.336975
 21
130.967392
  0
TEXT
  8
0
 62
     7
 10
211.043488
 20
124.296196
 40
8.586957
 41
1.000000
  1
%%c18H7
  7
KANJI
 50
90.000000
 51
0.000000
  0
POLYLINE
  8
0
 62
     4
 66
     1
 70
     2
  0
VERTEX
  8
0
 10
139.108704
 20
130.467392
  0
VERTEX
  8
0
 10
139.108704
 20
102.467392
  0
VERTEX
  8
0
 10
139.608704
 20
101.967392
  0
VERTEX
  8
0
 10
154.608704
 20
101.967392
  0
VERTEX
  8
0
 10
155.108704
 20
102.467392
  0
VERTEX
  8
0
 10
155.108704
 20
113.967392
  0
SEQEND
  0
POLYLINE
  8
0
 62
     4
 66
     1
 70
     2
  0
VERTEX
  8
0
 10
156.108704
 20
114.967392
  0
VERTEX
  8
0
 10
167.608704
 20
114.967392
  0
VERTEX
  8
0
 10
168.108704
 20
115.467392
  0
VERTEX
  8
0
 10
168.108704
 20
164.467392
  0
VERTEX
  8
0
 10
167.608704
 20
164.967392
  0
VERTEX
  8
0
 10
156.108704
 20
164.967392
  0
SEQEND
  0
POLYLINE
  8
0
 62
     4
 66
     1
 70
     2
  0
VERTEX
  8
0
 10
155.108704
 20
165.967392
  0
VERTEX
  8
0
 10
155.108704
 20
177.467392
  0
VERTEX
  8
0
 10
154.608704
 20
177.967392
  0
VERTEX
  8
0
 10
139.608704
 20
177.967392
  0
VERTEX
  8
0
 10
139.108704
 20
177.467392
  0
VERTEX
  8
0
 10
139.108704
 20
130.467392
  0
SEQEND
  0
LINE
  8
0
 62
     7
 10
130.521744
 20
175.967392
 11
104.760880
 21
175.967392
  0
POLYLINE
  8
0
 62
     7
 66
     1
 70
     2
  0
VERTEX
  8
0
 10
111.630447
 20
175.967392
  0
VERTEX
  8
0
 10
108.281532
 20
181.772171
  0
VERTEX
  8
0
 10
128.375015
 20
181.772171
  0
VERTEX
  8
0
 10
125.026093
 20
175.967392
  0
VERTEX
  8
0
 10
121.677185
 20
181.772171
  0
VERTEX
  8
0
 10
118.328270
 20
175.967392
  0
VERTEX
  8
0
 10
114.979355
 20
181.772171
  0
VERTEX
  8
0
 10
111.630447
 20
175.967392
  0
SEQEND
  0
POLYLINE
  8
0
 62
     7
 66
     1
 70
     2
  0
VERTEX
  8
0
 10
119.444572
 20
184.674561
  0
VERTEX
  8
0
 10
120.560883
 20
184.674561
  0
VERTEX
  8
0
 10
120.560883
 20
184.004791
  0
VERTEX
  8
0
 10
119.444572
 20
182.888489
  0
VERTEX
  8
0
 10
117.211967
 20
182.888489
  0
VERTEX
  8
0
 10
116.095657
 20
184.004791
  0
VERTEX
  8
0
 10
116.095657
 20
187.353699
  0
VERTEX
  8
0
 10
117.211967
 20
188.470001
  0
VERTEX
  8
0
 10
119.444572
 20
188.470001
  0
VERTEX
  8
0
 10
120.560883
 20
187.353699
  0
VERTEX
  8
0
 10
120.560883
 20
186.683914
  0
SEQEND
  0
ENDSEC
  0
EOF
