  0
SECTION
  2
HEADER
  9
$ACADVER
  1
AC1003
  9
$INSBASE
 10
0.000000
 20
0.000000
  9
$EXTMIN
 10
0.000000
 20
0.000000
  9
$EXTMAX
 10
453.652174
 20
313.695652
  9
$LIMMIN
 10
0.000000
 20
0.000000
  9
$LIMMAX
 10
453.652174
 20
313.695652
  9
$VIEWCTR
 10
226.826087
 20
156.847826
  9
$VIEWSIZE
 40
313.695652
  0
ENDSEC
  0
SECTION
  2
TABLES
  0
TABLE
  2
LTYPE
 70
     4
  0
LTYPE
  2
CONTINUOUS
 70
    64
  3
SolidLine
 72
    65
 73
     0
 40
0.0
  0
LTYPE
  2
HIDDEN
 70
    64
  3
------------------------
 72
    65
 73
     2
 40
4.826087
 49
3.217391
 49
-1.608696
  0
LTYPE
  2
DASHDOT
 70
    64
  3
--?--?--?--?--?--?--?--
 72
    65
 73
     4
 40
19.304348
 49
14.478261
 49
-1.608696
 49
1.608696
 49
-1.608696
  0
LTYPE
  2
DIVIDE
 70
    64
  3
--??--??--??--??--??--
 72
    65
 73
     6
 40
24.130435
 49
16.086957
 49
-1.608696
 49
1.608696
 49
-1.608696
 49
1.608696
 49
-1.608696
  0
ENDTAB
  0
TABLE
  2
LAYER
 70
     5
  0
LAYER
  2
0
 70
    64
 62
     7
  6
CONTINUOUS
  0
LAYER
  2
HIDDEN
 70
    64
 62
     2
  6
HIDDEN
  0
LAYER
  2
DASHDOT
 70
    64
 62
     6
  6
DASHDOT
  0
LAYER
  2
DIVIDE
 70
    64
 62
     5
  6
DIVIDE
  0
ENDTAB
  0
TABLE
  2
STYLE
 70
     1
  0
STYLE
  2
STANDARD
 70
    64
 40
0.0
 41
1.0
 50
0.0
 71
     0
 42
0.2
  3
TXT
  4

  0
STYLE
  2
KANJI
 70
    64
 40
0.0
 41
1.0
 50
0.0
 71
     0
 42
0.2
  3
TXT
  4
BIGFONT
  0
ENDTAB
  0
TABLE
  2
VIEW
 70
     0
  0
ENDTAB
  0
ENDSEC
  0
SECTION
  2
BLOCKS
  0
ENDSEC
  0
SECTION
  2
ENTITIES
  0
TEXT
  8
0
 62
     7
 10
16.086956
 20
17.695652
 40
6.434783
 41
1.000000
  1
KHK KHG2.5-20R
  7
KANJI
 50
0.000000
 51
0.000000
  0
TEXT
  8
0
 62
     7
 10
16.086956
 20
8.043478
 40
6.434783
 41
1.000000
  1

  7
KANJI
 50
0.000000
 51
0.000000
  0
TEXT
  8
0
 62
     7
 10
16.086956
 20
289.565216
 40
7.239130
 41
1.000000
  1
Black oxide except gear tooth
  7
KANJI
 50
0.000000
 51
0.000000
  0
POLYLINE
  8
0
 62
     7
 66
     1
 70
     2
  0
VERTEX
  8
0
 10
321.739136
 20
289.565216
  0
VERTEX
  8
0
 10
315.465210
 20
300.440002
  0
VERTEX
  8
0
 10
340.560883
 20
300.440002
  0
VERTEX
  8
0
 10
334.286957
 20
289.565216
  0
VERTEX
  8
0
 10
328.013062
 20
300.440002
  0
VERTEX
  8
0
 10
321.739136
 20
289.565216
  0
SEQEND
  0
POLYLINE
  8
0
 62
     7
 66
     1
 70
     2
  0
VERTEX
  8
0
 10
365.656525
 20
289.565216
  0
VERTEX
  8
0
 10
359.382629
 20
300.440002
  0
VERTEX
  8
0
 10
397.026093
 20
300.440002
  0
VERTEX
  8
0
 10
390.752197
 20
289.565216
  0
VERTEX
  8
0
 10
384.478271
 20
300.440002
  0
VERTEX
  8
0
 10
378.204346
 20
289.565216
  0
VERTEX
  8
0
 10
371.930450
 20
300.440002
  0
VERTEX
  8
0
 10
365.656525
 20
289.565216
  0
SEQEND
  0
POLYLINE
  8
0
 62
     7
 66
     1
 70
     2
  0
VERTEX
  8
0
 10
380.295654
 20
305.877380
  0
VERTEX
  8
0
 10
382.386963
 20
305.877380
  0
VERTEX
  8
0
 10
382.386963
 20
304.622620
  0
VERTEX
  8
0
 10
380.295654
 20
302.531311
  0
VERTEX
  8
0
 10
376.113037
 20
302.531311
  0
VERTEX
  8
0
 10
374.021759
 20
304.622620
  0
VERTEX
  8
0
 10
374.021759
 20
310.896515
  0
VERTEX
  8
0
 10
376.113037
 20
312.987823
  0
VERTEX
  8
0
 10
380.295654
 20
312.987823
  0
VERTEX
  8
0
 10
382.386963
 20
310.896515
  0
VERTEX
  8
0
 10
382.386963
 20
309.641724
  0
SEQEND
  0
POLYLINE
  8
0
 62
     7
 66
     1
 70
     2
  0
VERTEX
  8
0
 10
350.180878
 20
300.440002
  0
VERTEX
  8
0
 10
348.507843
 20
298.766968
  0
VERTEX
  8
0
 10
348.507843
 20
291.238251
  0
VERTEX
  8
0
 10
350.180878
 20
289.565216
  0
SEQEND
  0
POLYLINE
  8
0
 62
     7
 66
     1
 70
     2
  0
VERTEX
  8
0
 10
404.973053
 20
300.440002
  0
VERTEX
  8
0
 10
406.646088
 20
298.766968
  0
VERTEX
  8
0
 10
406.646088
 20
291.238251
  0
VERTEX
  8
0
 10
404.973053
 20
289.565216
  0
SEQEND
  0
LINE
  8
0
 62
     5
 10
244.739136
 20
158.608704
 11
244.739136
 21
103.608704
  0
POLYLINE
  8
0
 62
     5
 66
     1
 70
     2
  0
VERTEX
  8
0
 10
246.347839
 20
152.978271
  0
VERTEX
  8
0
 10
244.739136
 20
158.608704
  0
VERTEX
  8
0
 10
243.130432
 20
152.978271
  0
SEQEND
  0
POLYLINE
  8
0
 62
     5
 66
     1
 70
     2
  0
VERTEX
  8
0
 10
243.130432
 20
109.239136
  0
VERTEX
  8
0
 10
244.739136
 20
103.608704
  0
VERTEX
  8
0
 10
246.347839
 20
109.239136
  0
SEQEND
  0
LINE
  8
0
 62
     5
 10
164.304352
 20
158.608704
 11
247.152176
 21
158.608704
  0
LINE
  8
0
 62
     5
 10
164.304352
 20
103.608704
 11
247.152176
 21
103.608704
  0
TEXT
  8
0
 62
     7
 10
243.130432
 20
121.657616
 40
8.043478
 41
1.000000
  1
%%c55
  7
KANJI
 50
90.000000
 51
0.000000
  0
LINE
  8
DASHDOT
 62
     7
 10
125.478264
 20
156.108704
 11
155.130432
 21
156.108704
  0
LINE
  8
DASHDOT
 62
     7
 10
125.478264
 20
106.108704
 11
155.130432
 21
106.108704
  0
LINE
  8
DASHDOT
 62
     7
 10
125.478264
 20
131.108704
 11
169.130432
 21
131.108704
  0
LINE
  8
0
 62
     5
 10
150.304352
 20
157.608704
 11
150.304352
 21
158.608704
  0
LINE
  8
0
 62
     5
 10
130.304352
 20
157.608704
 11
130.304352
 21
158.608704
  0
LINE
  8
0
 62
     5
 10
151.304352
 20
151.108704
 11
164.304352
 21
151.108704
  0
LINE
  8
0
 62
     5
 10
151.304352
 20
111.108704
 11
164.304352
 21
111.108704
  0
LINE
  8
0
 62
     5
 10
149.304352
 20
158.608704
 11
164.304352
 21
158.608704
  0
LINE
  8
0
 62
     5
 10
149.304352
 20
103.608704
 11
164.304352
 21
103.608704
  0
LINE
  8
0
 62
     4
 10
130.304352
 20
152.983704
 11
150.304352
 21
152.983704
  0
LINE
  8
0
 62
     4
 10
130.304352
 20
109.233704
 11
150.304352
 21
109.233704
  0
LINE
  8
0
 62
     4
 10
163.804352
 20
122.108704
 11
164.304352
 21
121.608704
  0
LINE
  8
0
 62
     4
 10
163.804352
 20
140.108704
 11
164.304352
 21
140.608704
  0
LINE
  8
0
 62
     4
 10
130.804352
 20
140.108704
 11
130.804352
 21
122.108704
  0
POLYLINE
  8
0
 62
     4
 66
     1
 70
     2
  0
VERTEX
  8
0
 10
130.304352
 20
121.608704
  0
VERTEX
  8
0
 10
130.804352
 20
122.108704
  0
VERTEX
  8
0
 10
163.804352
 20
122.108704
  0
VERTEX
  8
0
 10
163.804352
 20
140.108704
  0
VERTEX
  8
0
 10
130.804352
 20
140.108704
  0
VERTEX
  8
0
 10
130.304352
 20
140.608704
  0
SEQEND
  0
ARC
  8
0
 62
     4
 10
151.304352
 20
152.108704
 40
1.000000
 50
180.0
 51
270.0
  0
ARC
  8
0
 62
     4
 10
151.304352
 20
110.108704
 40
1.000000
 50
90.0
 51
180.0
  0
LINE
  8
0
 62
     5
 10
164.304352
 20
150.108704
 11
164.304352
 21
158.608704
  0
LINE
  8
0
 62
     5
 10
130.304352
 20
202.043488
 11
150.304352
 21
202.043488
  0
POLYLINE
  8
0
 62
     5
 66
     1
 70
     2
  0
VERTEX
  8
0
 10
135.934784
 20
203.652191
  0
VERTEX
  8
0
 10
130.304352
 20
202.043488
  0
VERTEX
  8
0
 10
135.934784
 20
200.434784
  0
SEQEND
  0
POLYLINE
  8
0
 62
     5
 66
     1
 70
     2
  0
VERTEX
  8
0
 10
144.673920
 20
200.434784
  0
VERTEX
  8
0
 10
150.304352
 20
202.043488
  0
VERTEX
  8
0
 10
144.673920
 20
203.652191
  0
SEQEND
  0
LINE
  8
0
 62
     5
 10
150.304352
 20
158.608704
 11
150.304352
 21
204.456528
  0
TEXT
  8
0
 62
     7
 10
135.076096
 20
203.330444
 40
8.043478
 41
1.000000
  1
20
  7
KANJI
 50
0.000000
 51
0.000000
  0
LINE
  8
0
 62
     5
 10
130.304352
 20
214.913055
 11
164.304352
 21
214.913055
  0
POLYLINE
  8
0
 62
     5
 66
     1
 70
     2
  0
VERTEX
  8
0
 10
135.934784
 20
216.521759
  0
VERTEX
  8
0
 10
130.304352
 20
214.913055
  0
VERTEX
  8
0
 10
135.934784
 20
213.304352
  0
SEQEND
  0
POLYLINE
  8
0
 62
     5
 66
     1
 70
     2
  0
VERTEX
  8
0
 10
158.673920
 20
213.304352
  0
VERTEX
  8
0
 10
164.304352
 20
214.913055
  0
VERTEX
  8
0
 10
158.673920
 20
216.521759
  0
SEQEND
  0
LINE
  8
0
 62
     5
 10
130.304352
 20
158.608704
 11
130.304352
 21
217.326096
  0
LINE
  8
0
 62
     5
 10
164.304352
 20
158.608704
 11
164.304352
 21
217.326096
  0
TEXT
  8
0
 62
     7
 10
142.076096
 20
216.200012
 40
8.043478
 41
1.000000
  1
34
  7
KANJI
 50
0.000000
 51
0.000000
  0
LINE
  8
0
 62
     5
 10
173.956528
 20
202.043488
 11
140.652176
 21
202.043488
  0
POLYLINE
  8
0
 62
     5
 66
     1
 70
     2
  0
VERTEX
  8
0
 10
144.673920
 20
200.434784
  0
VERTEX
  8
0
 10
150.304352
 20
202.043488
  0
VERTEX
  8
0
 10
144.673920
 20
203.652191
  0
SEQEND
  0
POLYLINE
  8
0
 62
     5
 66
     1
 70
     2
  0
VERTEX
  8
0
 10
169.934784
 20
203.652191
  0
VERTEX
  8
0
 10
164.304352
 20
202.043488
  0
VERTEX
  8
0
 10
169.934784
 20
200.434784
  0
SEQEND
  0
TEXT
  8
0
 62
     7
 10
152.076096
 20
203.330444
 40
8.043478
 41
1.000000
  1
14
  7
KANJI
 50
0.000000
 51
0.000000
  0
LINE
  8
0
 62
     5
 10
231.869568
 20
151.108704
 11
231.869568
 21
111.108704
  0
POLYLINE
  8
0
 62
     5
 66
     1
 70
     2
  0
VERTEX
  8
0
 10
233.478271
 20
145.478271
  0
VERTEX
  8
0
 10
231.869568
 20
151.108704
  0
VERTEX
  8
0
 10
230.260864
 20
145.478271
  0
SEQEND
  0
POLYLINE
  8
0
 62
     5
 66
     1
 70
     2
  0
VERTEX
  8
0
 10
230.260864
 20
116.739136
  0
VERTEX
  8
0
 10
231.869568
 20
111.108704
  0
VERTEX
  8
0
 10
233.478271
 20
116.739136
  0
SEQEND
  0
LINE
  8
0
 62
     5
 10
164.304352
 20
151.108704
 11
234.282608
 21
151.108704
  0
LINE
  8
0
 62
     5
 10
164.304352
 20
111.108704
 11
234.282608
 21
111.108704
  0
TEXT
  8
0
 62
     7
 10
230.260864
 20
121.657616
 40
8.043478
 41
1.000000
  1
%%c40
  7
KANJI
 50
90.000000
 51
0.000000
  0
LINE
  8
DASHDOT
 62
     7
 10
130.304352
 20
135.047806
 11
150.304352
 21
127.169601
  0
LINE
  8
0
 62
     7
 10
140.304352
 20
139.152176
 11
140.304352
 21
123.065224
  0
LINE
  8
0
 62
     5
 10
206.130432
 20
112.456528
 11
206.130432
 21
149.760880
  0
POLYLINE
  8
0
 62
     5
 66
     1
 70
     2
  0
VERTEX
  8
0
 10
204.521744
 20
145.739136
  0
VERTEX
  8
0
 10
206.130432
 20
140.108704
  0
VERTEX
  8
0
 10
207.739136
 20
145.739136
  0
SEQEND
  0
POLYLINE
  8
0
 62
     5
 66
     1
 70
     2
  0
VERTEX
  8
0
 10
207.739136
 20
116.478271
  0
VERTEX
  8
0
 10
206.130432
 20
122.108704
  0
VERTEX
  8
0
 10
204.521744
 20
116.478271
  0
SEQEND
  0
LINE
  8
0
 62
     5
 10
164.304352
 20
140.108704
 11
208.543488
 21
140.108704
  0
LINE
  8
0
 62
     5
 10
164.304352
 20
122.108704
 11
208.543488
 21
122.108704
  0
TEXT
  8
0
 62
     7
 10
204.521744
 20
116.429352
 40
8.043478
 41
1.000000
  1
%%c18H7
  7
KANJI
 50
90.000000
 51
0.000000
  0
POLYLINE
  8
0
 62
     4
 66
     1
 70
     2
  0
VERTEX
  8
0
 10
130.304352
 20
121.608704
  0
VERTEX
  8
0
 10
130.304352
 20
104.608704
  0
VERTEX
  8
0
 10
131.304352
 20
103.608704
  0
VERTEX
  8
0
 10
149.304352
 20
103.608704
  0
VERTEX
  8
0
 10
150.304352
 20
104.608704
  0
VERTEX
  8
0
 10
150.304352
 20
110.108704
  0
SEQEND
  0
POLYLINE
  8
0
 62
     4
 66
     1
 70
     2
  0
VERTEX
  8
0
 10
151.304352
 20
111.108704
  0
VERTEX
  8
0
 10
163.304352
 20
111.108704
  0
VERTEX
  8
0
 10
164.304352
 20
112.108704
  0
VERTEX
  8
0
 10
164.304352
 20
150.108704
  0
VERTEX
  8
0
 10
163.304352
 20
151.108704
  0
VERTEX
  8
0
 10
151.304352
 20
151.108704
  0
SEQEND
  0
POLYLINE
  8
0
 62
     4
 66
     1
 70
     2
  0
VERTEX
  8
0
 10
150.304352
 20
152.108704
  0
VERTEX
  8
0
 10
150.304352
 20
157.608704
  0
VERTEX
  8
0
 10
149.304352
 20
158.608704
  0
VERTEX
  8
0
 10
131.304352
 20
158.608704
  0
VERTEX
  8
0
 10
130.304352
 20
157.608704
  0
VERTEX
  8
0
 10
130.304352
 20
121.608704
  0
SEQEND
  0
LINE
  8
0
 62
     7
 10
122.260872
 20
156.108704
 11
98.130440
 21
156.108704
  0
POLYLINE
  8
0
 62
     7
 66
     1
 70
     2
  0
VERTEX
  8
0
 10
104.565224
 20
156.108704
  0
VERTEX
  8
0
 10
101.428268
 20
161.546097
  0
VERTEX
  8
0
 10
120.250008
 20
161.546097
  0
VERTEX
  8
0
 10
117.113045
 20
156.108704
  0
VERTEX
  8
0
 10
113.976089
 20
161.546097
  0
VERTEX
  8
0
 10
110.839134
 20
156.108704
  0
VERTEX
  8
0
 10
107.702179
 20
161.546097
  0
VERTEX
  8
0
 10
104.565224
 20
156.108704
  0
SEQEND
  0
POLYLINE
  8
0
 62
     7
 66
     1
 70
     2
  0
VERTEX
  8
0
 10
111.884789
 20
164.264786
  0
VERTEX
  8
0
 10
112.930435
 20
164.264786
  0
VERTEX
  8
0
 10
112.930435
 20
163.637390
  0
VERTEX
  8
0
 10
111.884789
 20
162.591751
  0
VERTEX
  8
0
 10
109.793488
 20
162.591751
  0
VERTEX
  8
0
 10
108.747833
 20
163.637390
  0
VERTEX
  8
0
 10
108.747833
 20
166.774353
  0
VERTEX
  8
0
 10
109.793488
 20
167.820007
  0
VERTEX
  8
0
 10
111.884789
 20
167.820007
  0
VERTEX
  8
0
 10
112.930435
 20
166.774353
  0
VERTEX
  8
0
 10
112.930435
 20
166.146973
  0
SEQEND
  0
ENDSEC
  0
EOF
