  0
SECTION
  2
HEADER
  9
$ACADVER
  1
AC1003
  9
$INSBASE
 10
0.000000
 20
0.000000
  9
$EXTMIN
 10
0.000000
 20
0.000000
  9
$EXTMAX
 10
337.173913
 20
233.152174
  9
$LIMMIN
 10
0.000000
 20
0.000000
  9
$LIMMAX
 10
337.173913
 20
233.152174
  9
$VIEWCTR
 10
168.586957
 20
116.576087
  9
$VIEWSIZE
 40
233.152174
  0
ENDSEC
  0
SECTION
  2
TABLES
  0
TABLE
  2
LTYPE
 70
     4
  0
LTYPE
  2
CONTINUOUS
 70
    64
  3
SolidLine
 72
    65
 73
     0
 40
0.0
  0
LTYPE
  2
HIDDEN
 70
    64
  3
------------------------
 72
    65
 73
     2
 40
3.586957
 49
2.391304
 49
-1.195652
  0
LTYPE
  2
DASHDOT
 70
    64
  3
--?--?--?--?--?--?--?--
 72
    65
 73
     4
 40
14.347826
 49
10.760870
 49
-1.195652
 49
1.195652
 49
-1.195652
  0
LTYPE
  2
DIVIDE
 70
    64
  3
--??--??--??--??--??--
 72
    65
 73
     6
 40
17.934783
 49
11.956522
 49
-1.195652
 49
1.195652
 49
-1.195652
 49
1.195652
 49
-1.195652
  0
ENDTAB
  0
TABLE
  2
LAYER
 70
     5
  0
LAYER
  2
0
 70
    64
 62
     7
  6
CONTINUOUS
  0
LAYER
  2
HIDDEN
 70
    64
 62
     2
  6
HIDDEN
  0
LAYER
  2
DASHDOT
 70
    64
 62
     6
  6
DASHDOT
  0
LAYER
  2
DIVIDE
 70
    64
 62
     5
  6
DIVIDE
  0
ENDTAB
  0
TABLE
  2
STYLE
 70
     1
  0
STYLE
  2
STANDARD
 70
    64
 40
0.0
 41
1.0
 50
0.0
 71
     0
 42
0.2
  3
TXT
  4

  0
STYLE
  2
KANJI
 70
    64
 40
0.0
 41
1.0
 50
0.0
 71
     0
 42
0.2
  3
TXT
  4
BIGFONT
  0
ENDTAB
  0
TABLE
  2
VIEW
 70
     0
  0
ENDTAB
  0
ENDSEC
  0
SECTION
  2
BLOCKS
  0
ENDSEC
  0
SECTION
  2
ENTITIES
  0
TEXT
  8
0
 62
     7
 10
11.956522
 20
13.152174
 40
4.782609
 41
1.000000
  1
KHK MSGB1.5-25
  7
KANJI
 50
0.000000
 51
0.000000
  0
TEXT
  8
0
 62
     7
 10
11.956522
 20
5.978261
 40
4.782609
 41
1.000000
  1

  7
KANJI
 50
0.000000
 51
0.000000
  0
TEXT
  8
0
 62
     7
 10
11.956522
 20
215.217392
 40
5.380435
 41
1.000000
  1

  7
KANJI
 50
0.000000
 51
0.000000
  0
POLYLINE
  8
0
 62
     7
 66
     1
 70
     2
  0
VERTEX
  8
0
 10
239.130432
 20
215.217392
  0
VERTEX
  8
0
 10
234.467392
 20
223.300003
  0
VERTEX
  8
0
 10
253.119568
 20
223.300003
  0
VERTEX
  8
0
 10
248.456512
 20
215.217392
  0
VERTEX
  8
0
 10
243.793472
 20
223.300003
  0
VERTEX
  8
0
 10
239.130432
 20
215.217392
  0
SEQEND
  0
POLYLINE
  8
0
 62
     7
 66
     1
 70
     2
  0
VERTEX
  8
0
 10
271.771729
 20
215.217392
  0
VERTEX
  8
0
 10
267.108704
 20
223.300003
  0
VERTEX
  8
0
 10
295.086945
 20
223.300003
  0
VERTEX
  8
0
 10
290.423920
 20
215.217392
  0
VERTEX
  8
0
 10
285.760864
 20
223.300003
  0
VERTEX
  8
0
 10
281.097839
 20
215.217392
  0
VERTEX
  8
0
 10
276.434784
 20
223.300003
  0
VERTEX
  8
0
 10
271.771729
 20
215.217392
  0
SEQEND
  0
POLYLINE
  8
0
 62
     7
 66
     1
 70
     2
  0
VERTEX
  8
0
 10
282.652161
 20
227.341309
  0
VERTEX
  8
0
 10
284.206512
 20
227.341309
  0
VERTEX
  8
0
 10
284.206512
 20
226.408691
  0
VERTEX
  8
0
 10
282.652161
 20
224.854355
  0
VERTEX
  8
0
 10
279.543488
 20
224.854355
  0
VERTEX
  8
0
 10
277.989136
 20
226.408691
  0
VERTEX
  8
0
 10
277.989136
 20
231.071747
  0
VERTEX
  8
0
 10
279.543488
 20
232.626083
  0
VERTEX
  8
0
 10
282.652161
 20
232.626083
  0
VERTEX
  8
0
 10
284.206512
 20
231.071747
  0
VERTEX
  8
0
 10
284.206512
 20
230.139130
  0
SEQEND
  0
POLYLINE
  8
0
 62
     7
 66
     1
 70
     2
  0
VERTEX
  8
0
 10
260.269562
 20
223.300003
  0
VERTEX
  8
0
 10
259.026093
 20
222.056519
  0
VERTEX
  8
0
 10
259.026093
 20
216.460876
  0
VERTEX
  8
0
 10
260.269562
 20
215.217392
  0
SEQEND
  0
POLYLINE
  8
0
 62
     7
 66
     1
 70
     2
  0
VERTEX
  8
0
 10
300.993469
 20
223.300003
  0
VERTEX
  8
0
 10
302.236938
 20
222.056519
  0
VERTEX
  8
0
 10
302.236938
 20
216.460876
  0
VERTEX
  8
0
 10
300.993469
 20
215.217392
  0
SEQEND
  0
LINE
  8
0
 62
     5
 10
181.630432
 20
117.695656
 11
181.630432
 21
77.195656
  0
POLYLINE
  8
0
 62
     5
 66
     1
 70
     2
  0
VERTEX
  8
0
 10
182.826096
 20
113.510872
  0
VERTEX
  8
0
 10
181.630432
 20
117.695656
  0
VERTEX
  8
0
 10
180.434784
 20
113.510872
  0
SEQEND
  0
POLYLINE
  8
0
 62
     5
 66
     1
 70
     2
  0
VERTEX
  8
0
 10
180.434784
 20
81.380440
  0
VERTEX
  8
0
 10
181.630432
 20
77.195656
  0
VERTEX
  8
0
 10
182.826096
 20
81.380440
  0
SEQEND
  0
LINE
  8
0
 62
     5
 10
121.847832
 20
117.695656
 11
183.423920
 21
117.695656
  0
LINE
  8
0
 62
     5
 10
121.847832
 20
77.195656
 11
183.423920
 21
77.195656
  0
TEXT
  8
0
 62
     7
 10
180.434784
 20
86.535332
 40
5.978261
 41
1.000000
  1
%%c40.5
  7
KANJI
 50
90.000000
 51
0.000000
  0
LINE
  8
DASHDOT
 62
     7
 10
93.260872
 20
116.195656
 11
115.434784
 21
116.195656
  0
LINE
  8
DASHDOT
 62
     7
 10
93.260872
 20
78.695656
 11
115.434784
 21
78.695656
  0
LINE
  8
DASHDOT
 62
     7
 10
93.260872
 20
97.445656
 11
125.434784
 21
97.445656
  0
LINE
  8
0
 62
     5
 10
111.847832
 20
117.195656
 11
111.847832
 21
117.695656
  0
LINE
  8
0
 62
     5
 10
96.847832
 20
117.195656
 11
96.847832
 21
117.695656
  0
LINE
  8
0
 62
     5
 10
112.847832
 20
112.445656
 11
121.847832
 21
112.445656
  0
LINE
  8
0
 62
     5
 10
112.847832
 20
82.445656
 11
121.847832
 21
82.445656
  0
LINE
  8
0
 62
     5
 10
111.347832
 20
117.695656
 11
121.847832
 21
117.695656
  0
LINE
  8
0
 62
     5
 10
111.347832
 20
77.195656
 11
121.847832
 21
77.195656
  0
LINE
  8
0
 62
     4
 10
96.847832
 20
114.320656
 11
111.847832
 21
114.320656
  0
LINE
  8
0
 62
     4
 10
96.847832
 20
80.570656
 11
111.847832
 21
80.570656
  0
LINE
  8
0
 62
     4
 10
121.347832
 20
89.445656
 11
121.847832
 21
88.945656
  0
LINE
  8
0
 62
     4
 10
121.347832
 20
105.445656
 11
121.847832
 21
105.945656
  0
LINE
  8
0
 62
     4
 10
97.347832
 20
105.445656
 11
97.347832
 21
89.445656
  0
POLYLINE
  8
0
 62
     4
 66
     1
 70
     2
  0
VERTEX
  8
0
 10
96.847832
 20
88.945656
  0
VERTEX
  8
0
 10
97.347832
 20
89.445656
  0
VERTEX
  8
0
 10
121.347832
 20
89.445656
  0
VERTEX
  8
0
 10
121.347832
 20
105.445656
  0
VERTEX
  8
0
 10
97.347832
 20
105.445656
  0
VERTEX
  8
0
 10
96.847832
 20
105.945656
  0
SEQEND
  0
TEXT
  8
0
 62
     7
 10
227.608704
 20
155.571747
 40
5.978261
 41
1.000000
  1
Prior to heat treatment
  7
KANJI
 50
0.000000
 51
0.000000
  0
ARC
  8
0
 62
     4
 10
112.847832
 20
113.445656
 40
1.000000
 50
180.0
 51
270.0
  0
ARC
  8
0
 62
     4
 10
112.847832
 20
81.445656
 40
1.000000
 50
90.0
 51
180.0
  0
LINE
  8
0
 62
     5
 10
121.847832
 20
111.945656
 11
121.847832
 21
117.695656
  0
LINE
  8
0
 62
     5
 10
96.847832
 20
149.978271
 11
111.847832
 21
149.978271
  0
POLYLINE
  8
0
 62
     5
 66
     1
 70
     2
  0
VERTEX
  8
0
 10
101.032616
 20
151.173920
  0
VERTEX
  8
0
 10
96.847832
 20
149.978271
  0
VERTEX
  8
0
 10
101.032616
 20
148.782608
  0
SEQEND
  0
POLYLINE
  8
0
 62
     5
 66
     1
 70
     2
  0
VERTEX
  8
0
 10
107.663048
 20
148.782608
  0
VERTEX
  8
0
 10
111.847832
 20
149.978271
  0
VERTEX
  8
0
 10
107.663048
 20
151.173920
  0
SEQEND
  0
LINE
  8
0
 62
     5
 10
111.847832
 20
117.695656
 11
111.847832
 21
151.771744
  0
TEXT
  8
0
 62
     7
 10
100.461960
 20
150.934784
 40
5.978261
 41
1.000000
  1
15
  7
KANJI
 50
0.000000
 51
0.000000
  0
LINE
  8
0
 62
     5
 10
96.847832
 20
159.543488
 11
121.847832
 21
159.543488
  0
POLYLINE
  8
0
 62
     5
 66
     1
 70
     2
  0
VERTEX
  8
0
 10
101.032616
 20
160.739136
  0
VERTEX
  8
0
 10
96.847832
 20
159.543488
  0
VERTEX
  8
0
 10
101.032616
 20
158.347839
  0
SEQEND
  0
POLYLINE
  8
0
 62
     5
 66
     1
 70
     2
  0
VERTEX
  8
0
 10
117.663048
 20
158.347839
  0
VERTEX
  8
0
 10
121.847832
 20
159.543488
  0
VERTEX
  8
0
 10
117.663048
 20
160.739136
  0
SEQEND
  0
LINE
  8
0
 62
     5
 10
96.847832
 20
117.695656
 11
96.847832
 21
161.336960
  0
LINE
  8
0
 62
     5
 10
121.847832
 20
117.695656
 11
121.847832
 21
161.336960
  0
TEXT
  8
0
 62
     7
 10
105.461960
 20
160.500000
 40
5.978261
 41
1.000000
  1
25
  7
KANJI
 50
0.000000
 51
0.000000
  0
LINE
  8
0
 62
     5
 10
129.021744
 20
149.978271
 11
104.673920
 21
149.978271
  0
POLYLINE
  8
0
 62
     5
 66
     1
 70
     2
  0
VERTEX
  8
0
 10
107.663048
 20
148.782608
  0
VERTEX
  8
0
 10
111.847832
 20
149.978271
  0
VERTEX
  8
0
 10
107.663048
 20
151.173920
  0
SEQEND
  0
POLYLINE
  8
0
 62
     5
 66
     1
 70
     2
  0
VERTEX
  8
0
 10
126.032616
 20
151.173920
  0
VERTEX
  8
0
 10
121.847832
 20
149.978271
  0
VERTEX
  8
0
 10
126.032616
 20
148.782608
  0
SEQEND
  0
TEXT
  8
0
 62
     7
 10
112.961960
 20
150.934784
 40
5.978261
 41
1.000000
  1
10
  7
KANJI
 50
0.000000
 51
0.000000
  0
LINE
  8
0
 62
     5
 10
172.065216
 20
112.445656
 11
172.065216
 21
82.445656
  0
POLYLINE
  8
0
 62
     5
 66
     1
 70
     2
  0
VERTEX
  8
0
 10
173.260880
 20
108.260872
  0
VERTEX
  8
0
 10
172.065216
 20
112.445656
  0
VERTEX
  8
0
 10
170.869568
 20
108.260872
  0
SEQEND
  0
POLYLINE
  8
0
 62
     5
 66
     1
 70
     2
  0
VERTEX
  8
0
 10
170.869568
 20
86.630440
  0
VERTEX
  8
0
 10
172.065216
 20
82.445656
  0
VERTEX
  8
0
 10
173.260880
 20
86.630440
  0
SEQEND
  0
LINE
  8
0
 62
     5
 10
121.847832
 20
112.445656
 11
173.858704
 21
112.445656
  0
LINE
  8
0
 62
     5
 10
121.847832
 20
82.445656
 11
173.858704
 21
82.445656
  0
TEXT
  8
0
 62
     7
 10
170.869568
 20
90.421204
 40
5.978261
 41
1.000000
  1
%%c30
  7
KANJI
 50
90.000000
 51
0.000000
  0
ARC
  8
0
 62
     4
 10
230.108704
 20
97.445656
 40
8.000000
 50
108.20995732853793
 51
71.79004267146207
  0
POLYLINE
  8
0
 62
     4
 66
     1
 70
     2
  0
VERTEX
  8
0
 10
232.608704
 20
105.044998
  0
VERTEX
  8
0
 10
232.608704
 20
107.745659
  0
VERTEX
  8
0
 10
227.608704
 20
107.745659
  0
VERTEX
  8
0
 10
227.608704
 20
105.044998
  0
SEQEND
  0
LINE
  8
0
 62
     4
 10
96.847832
 20
107.745659
 11
121.847832
 21
107.745659
  0
LINE
  8
0
 62
     5
 10
152.934784
 20
105.445656
 11
152.934784
 21
89.445656
  0
POLYLINE
  8
0
 62
     5
 66
     1
 70
     2
  0
VERTEX
  8
0
 10
151.739136
 20
93.630440
  0
VERTEX
  8
0
 10
152.934784
 20
89.445656
  0
VERTEX
  8
0
 10
154.130432
 20
93.630440
  0
SEQEND
  0
LINE
  8
0
 62
     5
 10
121.847832
 20
89.445656
 11
154.728271
 21
89.445656
  0
TEXT
  8
0
 62
     7
 10
151.739136
 20
86.535332
 40
5.978261
 41
1.000000
  1
%%c16H7
  7
KANJI
 50
90.000000
 51
0.000000
  0
POLYLINE
  8
0
 62
     4
 66
     1
 70
     2
  0
VERTEX
  8
0
 10
96.847832
 20
88.945656
  0
VERTEX
  8
0
 10
96.847832
 20
77.695656
  0
VERTEX
  8
0
 10
97.347832
 20
77.195656
  0
VERTEX
  8
0
 10
111.347832
 20
77.195656
  0
VERTEX
  8
0
 10
111.847832
 20
77.695656
  0
VERTEX
  8
0
 10
111.847832
 20
81.445656
  0
SEQEND
  0
POLYLINE
  8
0
 62
     4
 66
     1
 70
     2
  0
VERTEX
  8
0
 10
112.847832
 20
82.445656
  0
VERTEX
  8
0
 10
121.347832
 20
82.445656
  0
VERTEX
  8
0
 10
121.847832
 20
82.945656
  0
VERTEX
  8
0
 10
121.847832
 20
111.945656
  0
VERTEX
  8
0
 10
121.347832
 20
112.445656
  0
VERTEX
  8
0
 10
112.847832
 20
112.445656
  0
SEQEND
  0
POLYLINE
  8
0
 62
     4
 66
     1
 70
     2
  0
VERTEX
  8
0
 10
111.847832
 20
113.445656
  0
VERTEX
  8
0
 10
111.847832
 20
117.195656
  0
VERTEX
  8
0
 10
111.347832
 20
117.695656
  0
VERTEX
  8
0
 10
97.347832
 20
117.695656
  0
VERTEX
  8
0
 10
96.847832
 20
117.195656
  0
VERTEX
  8
0
 10
96.847832
 20
88.945656
  0
SEQEND
  0
LINE
  8
DASHDOT
 62
     7
 10
230.108704
 20
111.332611
 11
230.108704
 21
85.858696
  0
LINE
  8
DASHDOT
 62
     7
 10
241.695648
 20
97.445656
 11
218.521744
 21
97.445656
  0
LINE
  8
0
 62
     5
 10
239.782623
 20
125.680435
 11
220.434784
 21
125.680435
  0
POLYLINE
  8
0
 62
     5
 66
     1
 70
     2
  0
VERTEX
  8
0
 10
223.423920
 20
124.484787
  0
VERTEX
  8
0
 10
227.608704
 20
125.680435
  0
VERTEX
  8
0
 10
223.423920
 20
126.876091
  0
SEQEND
  0
POLYLINE
  8
0
 62
     5
 66
     1
 70
     2
  0
VERTEX
  8
0
 10
236.793488
 20
126.876091
  0
VERTEX
  8
0
 10
232.608704
 20
125.680435
  0
VERTEX
  8
0
 10
236.793488
 20
124.484787
  0
SEQEND
  0
LINE
  8
0
 62
     5
 10
227.608704
 20
107.745659
 11
227.608704
 21
127.473923
  0
LINE
  8
0
 62
     5
 10
232.608704
 20
107.745659
 11
232.608704
 21
127.473923
  0
TEXT
  8
0
 62
     7
 10
217.768372
 20
126.876091
 40
5.978261
 41
1.000000
  1
5
  7
KANJI
 50
0.000000
 51
0.000000
  0
TEXT
  8
0
 62
     7
 10
223.686127
 20
126.876091
 40
4.782609
 41
1.000000
  1
%%p0.015
  7
KANJI
 50
0.000000
 51
0.000000
  0
LINE
  8
0
 62
     5
 10
261.304352
 20
82.271744
 11
261.304352
 21
114.919571
  0
POLYLINE
  8
0
 62
     5
 66
     1
 70
     2
  0
VERTEX
  8
0
 10
260.108704
 20
111.930435
  0
VERTEX
  8
0
 10
261.304352
 20
107.745659
  0
VERTEX
  8
0
 10
262.500000
 20
111.930435
  0
SEQEND
  0
POLYLINE
  8
0
 62
     5
 66
     1
 70
     2
  0
VERTEX
  8
0
 10
262.500000
 20
85.260872
  0
VERTEX
  8
0
 10
261.304352
 20
89.445656
  0
VERTEX
  8
0
 10
260.108704
 20
85.260872
  0
SEQEND
  0
LINE
  8
0
 62
     5
 10
232.608704
 20
107.745659
 11
263.097809
 21
107.745659
  0
LINE
  8
0
 62
     5
 10
230.108704
 20
89.445656
 11
263.097809
 21
89.445656
  0
TEXT
  8
0
 62
     7
 10
259.510864
 20
79.719498
 40
5.978261
 41
1.000000
  1
18.3
  7
KANJI
 50
90.000000
 51
0.000000
  0
TEXT
  8
0
 62
     7
 10
259.869568
 20
105.595772
 40
2.989130
 41
1.000000
  1
 
  7
KANJI
 50
90.000000
 51
0.000000
  0
TEXT
  8
0
 62
     7
 10
256.163025
 20
105.595772
 40
2.989130
 41
1.000000
  1
+
  7
KANJI
 50
90.000000
 51
0.000000
  0
TEXT
  8
0
 62
     7
 10
259.869568
 20
108.943596
 40
2.989130
 41
1.000000
  1
0
  7
KANJI
 50
90.000000
 51
0.000000
  0
TEXT
  8
0
 62
     7
 10
256.163025
 20
108.943596
 40
2.989130
 41
1.000000
  1
0.1
  7
KANJI
 50
90.000000
 51
0.000000
  0
POLYLINE
  8
0
 62
     7
 66
     1
 70
     2
  0
VERTEX
  8
0
 10
132.608704
 20
89.445656
  0
VERTEX
  8
0
 10
130.277176
 20
93.486961
  0
VERTEX
  8
0
 10
144.266312
 20
93.486961
  0
VERTEX
  8
0
 10
141.934784
 20
89.445656
  0
VERTEX
  8
0
 10
139.603271
 20
93.486961
  0
VERTEX
  8
0
 10
137.271744
 20
89.445656
  0
VERTEX
  8
0
 10
134.940216
 20
93.486961
  0
VERTEX
  8
0
 10
132.608704
 20
89.445656
  0
SEQEND
  0
POLYLINE
  8
0
 62
     7
 66
     1
 70
     2
  0
VERTEX
  8
0
 10
138.048920
 20
95.507614
  0
VERTEX
  8
0
 10
138.826096
 20
95.507614
  0
VERTEX
  8
0
 10
138.826096
 20
95.041306
  0
VERTEX
  8
0
 10
138.048920
 20
94.264137
  0
VERTEX
  8
0
 10
136.494568
 20
94.264137
  0
VERTEX
  8
0
 10
135.717392
 20
95.041306
  0
VERTEX
  8
0
 10
135.717392
 20
97.372833
  0
VERTEX
  8
0
 10
136.494568
 20
98.150002
  0
VERTEX
  8
0
 10
138.048920
 20
98.150002
  0
VERTEX
  8
0
 10
138.826096
 20
97.372833
  0
VERTEX
  8
0
 10
138.826096
 20
96.906525
  0
SEQEND
  0
LINE
  8
0
 62
     7
 10
90.869568
 20
116.195656
 11
72.934784
 21
116.195656
  0
POLYLINE
  8
0
 62
     7
 66
     1
 70
     2
  0
VERTEX
  8
0
 10
77.717400
 20
116.195656
  0
VERTEX
  8
0
 10
75.385880
 20
120.236961
  0
VERTEX
  8
0
 10
89.375008
 20
120.236961
  0
VERTEX
  8
0
 10
87.043488
 20
116.195656
  0
VERTEX
  8
0
 10
84.711960
 20
120.236961
  0
VERTEX
  8
0
 10
82.380440
 20
116.195656
  0
VERTEX
  8
0
 10
80.048920
 20
120.236961
  0
VERTEX
  8
0
 10
77.717400
 20
116.195656
  0
SEQEND
  0
POLYLINE
  8
0
 62
     7
 66
     1
 70
     2
  0
VERTEX
  8
0
 10
83.157616
 20
122.257614
  0
VERTEX
  8
0
 10
83.934792
 20
122.257614
  0
VERTEX
  8
0
 10
83.934792
 20
121.791306
  0
VERTEX
  8
0
 10
83.157616
 20
121.014130
  0
VERTEX
  8
0
 10
81.603271
 20
121.014130
  0
VERTEX
  8
0
 10
80.826096
 20
121.791306
  0
VERTEX
  8
0
 10
80.826096
 20
124.122833
  0
VERTEX
  8
0
 10
81.603271
 20
124.900002
  0
VERTEX
  8
0
 10
83.157616
 20
124.900002
  0
VERTEX
  8
0
 10
83.934792
 20
124.122833
  0
VERTEX
  8
0
 10
83.934792
 20
123.656525
  0
SEQEND
  0
POLYLINE
  8
0
 62
     7
 66
     1
 70
     2
  0
VERTEX
  8
0
 10
96.847832
 20
134.434784
  0
VERTEX
  8
0
 10
92.806526
 20
132.103271
  0
VERTEX
  8
0
 10
92.806526
 20
146.092392
  0
VERTEX
  8
0
 10
96.847832
 20
143.760880
  0
VERTEX
  8
0
 10
92.806526
 20
141.429352
  0
VERTEX
  8
0
 10
96.847832
 20
139.097839
  0
VERTEX
  8
0
 10
92.806526
 20
136.766312
  0
VERTEX
  8
0
 10
96.847832
 20
134.434784
  0
SEQEND
  0
POLYLINE
  8
0
 62
     7
 66
     1
 70
     2
  0
VERTEX
  8
0
 10
90.785873
 20
139.875000
  0
VERTEX
  8
0
 10
90.785873
 20
140.652176
  0
VERTEX
  8
0
 10
91.252182
 20
140.652176
  0
VERTEX
  8
0
 10
92.029350
 20
139.875000
  0
VERTEX
  8
0
 10
92.029350
 20
138.320648
  0
VERTEX
  8
0
 10
91.252182
 20
137.543488
  0
VERTEX
  8
0
 10
88.920654
 20
137.543488
  0
VERTEX
  8
0
 10
88.143486
 20
138.320648
  0
VERTEX
  8
0
 10
88.143486
 20
139.875000
  0
VERTEX
  8
0
 10
88.920654
 20
140.652176
  0
VERTEX
  8
0
 10
89.386963
 20
140.652176
  0
SEQEND
  0
POLYLINE
  8
0
 62
     7
 66
     1
 70
     2
  0
VERTEX
  8
0
 10
121.847832
 20
144.000000
  0
VERTEX
  8
0
 10
125.889137
 20
146.331528
  0
VERTEX
  8
0
 10
125.889137
 20
132.342392
  0
VERTEX
  8
0
 10
121.847832
 20
134.673920
  0
VERTEX
  8
0
 10
125.889137
 20
137.005432
  0
VERTEX
  8
0
 10
121.847832
 20
139.336960
  0
VERTEX
  8
0
 10
125.889137
 20
141.668488
  0
VERTEX
  8
0
 10
121.847832
 20
144.000000
  0
SEQEND
  0
POLYLINE
  8
0
 62
     7
 66
     1
 70
     2
  0
VERTEX
  8
0
 10
127.909790
 20
140.891312
  0
VERTEX
  8
0
 10
127.443481
 20
140.891312
  0
VERTEX
  8
0
 10
126.666306
 20
140.114136
  0
VERTEX
  8
0
 10
126.666306
 20
138.559784
  0
VERTEX
  8
0
 10
127.443481
 20
137.782608
  0
VERTEX
  8
0
 10
129.775009
 20
137.782608
  0
VERTEX
  8
0
 10
130.552185
 20
138.559784
  0
VERTEX
  8
0
 10
130.552185
 20
140.114136
  0
VERTEX
  8
0
 10
129.775009
 20
140.891312
  0
VERTEX
  8
0
 10
129.308701
 20
140.891312
  0
VERTEX
  8
0
 10
129.308701
 20
140.114136
  0
SEQEND
  0
ENDSEC
  0
EOF
