  0
SECTION
  2
HEADER
  9
$ACADVER
  1
AC1003
  9
$INSBASE
 10
0.000000
 20
0.000000
  9
$EXTMIN
 10
0.000000
 20
0.000000
  9
$EXTMAX
 10
398.478261
 20
275.543478
  9
$LIMMIN
 10
0.000000
 20
0.000000
  9
$LIMMAX
 10
398.478261
 20
275.543478
  9
$VIEWCTR
 10
199.239130
 20
137.771739
  9
$VIEWSIZE
 40
275.543478
  0
ENDSEC
  0
SECTION
  2
TABLES
  0
TABLE
  2
LTYPE
 70
     4
  0
LTYPE
  2
CONTINUOUS
 70
    64
  3
SolidLine
 72
    65
 73
     0
 40
0.0
  0
LTYPE
  2
HIDDEN
 70
    64
  3
------------------------
 72
    65
 73
     2
 40
4.239130
 49
2.826087
 49
-1.413043
  0
LTYPE
  2
DASHDOT
 70
    64
  3
--?--?--?--?--?--?--?--
 72
    65
 73
     4
 40
16.956522
 49
12.717391
 49
-1.413043
 49
1.413043
 49
-1.413043
  0
LTYPE
  2
DIVIDE
 70
    64
  3
--??--??--??--??--??--
 72
    65
 73
     6
 40
21.195652
 49
14.130435
 49
-1.413043
 49
1.413043
 49
-1.413043
 49
1.413043
 49
-1.413043
  0
ENDTAB
  0
TABLE
  2
LAYER
 70
     5
  0
LAYER
  2
0
 70
    64
 62
     7
  6
CONTINUOUS
  0
LAYER
  2
HIDDEN
 70
    64
 62
     2
  6
HIDDEN
  0
LAYER
  2
DASHDOT
 70
    64
 62
     6
  6
DASHDOT
  0
LAYER
  2
DIVIDE
 70
    64
 62
     5
  6
DIVIDE
  0
ENDTAB
  0
TABLE
  2
STYLE
 70
     1
  0
STYLE
  2
STANDARD
 70
    64
 40
0.0
 41
1.0
 50
0.0
 71
     0
 42
0.2
  3
TXT
  4

  0
STYLE
  2
KANJI
 70
    64
 40
0.0
 41
1.0
 50
0.0
 71
     0
 42
0.2
  3
TXT
  4
BIGFONT
  0
ENDTAB
  0
TABLE
  2
VIEW
 70
     0
  0
ENDTAB
  0
ENDSEC
  0
SECTION
  2
BLOCKS
  0
ENDSEC
  0
SECTION
  2
ENTITIES
  0
TEXT
  8
0
 62
     7
 10
14.130435
 20
15.543478
 40
5.652174
 41
1.000000
  1
KHK MSGB2-25
  7
KANJI
 50
0.000000
 51
0.000000
  0
TEXT
  8
0
 62
     7
 10
14.130435
 20
7.065217
 40
5.652174
 41
1.000000
  1

  7
KANJI
 50
0.000000
 51
0.000000
  0
TEXT
  8
0
 62
     7
 10
14.130435
 20
254.347824
 40
6.358696
 41
1.000000
  1

  7
KANJI
 50
0.000000
 51
0.000000
  0
POLYLINE
  8
0
 62
     7
 66
     1
 70
     2
  0
VERTEX
  8
0
 10
282.608704
 20
254.347824
  0
VERTEX
  8
0
 10
277.097839
 20
263.899994
  0
VERTEX
  8
0
 10
299.141296
 20
263.899994
  0
VERTEX
  8
0
 10
293.630432
 20
254.347824
  0
VERTEX
  8
0
 10
288.119568
 20
263.899994
  0
VERTEX
  8
0
 10
282.608704
 20
254.347824
  0
SEQEND
  0
POLYLINE
  8
0
 62
     7
 66
     1
 70
     2
  0
VERTEX
  8
0
 10
321.184784
 20
254.347824
  0
VERTEX
  8
0
 10
315.673920
 20
263.899994
  0
VERTEX
  8
0
 10
348.739136
 20
263.899994
  0
VERTEX
  8
0
 10
343.228271
 20
254.347824
  0
VERTEX
  8
0
 10
337.717407
 20
263.899994
  0
VERTEX
  8
0
 10
332.206543
 20
254.347824
  0
VERTEX
  8
0
 10
326.695648
 20
263.899994
  0
VERTEX
  8
0
 10
321.184784
 20
254.347824
  0
SEQEND
  0
POLYLINE
  8
0
 62
     7
 66
     1
 70
     2
  0
VERTEX
  8
0
 10
334.043488
 20
268.676086
  0
VERTEX
  8
0
 10
335.880432
 20
268.676086
  0
VERTEX
  8
0
 10
335.880432
 20
267.573914
  0
VERTEX
  8
0
 10
334.043488
 20
265.736969
  0
VERTEX
  8
0
 10
330.369568
 20
265.736969
  0
VERTEX
  8
0
 10
328.532623
 20
267.573914
  0
VERTEX
  8
0
 10
328.532623
 20
273.084778
  0
VERTEX
  8
0
 10
330.369568
 20
274.921753
  0
VERTEX
  8
0
 10
334.043488
 20
274.921753
  0
VERTEX
  8
0
 10
335.880432
 20
273.084778
  0
VERTEX
  8
0
 10
335.880432
 20
271.982605
  0
SEQEND
  0
POLYLINE
  8
0
 62
     7
 66
     1
 70
     2
  0
VERTEX
  8
0
 10
307.591309
 20
263.899994
  0
VERTEX
  8
0
 10
306.121735
 20
262.430420
  0
VERTEX
  8
0
 10
306.121735
 20
255.817383
  0
VERTEX
  8
0
 10
307.591309
 20
254.347824
  0
SEQEND
  0
POLYLINE
  8
0
 62
     7
 66
     1
 70
     2
  0
VERTEX
  8
0
 10
355.719574
 20
263.899994
  0
VERTEX
  8
0
 10
357.189148
 20
262.430420
  0
VERTEX
  8
0
 10
357.189148
 20
255.817383
  0
VERTEX
  8
0
 10
355.719574
 20
254.347824
  0
SEQEND
  0
LINE
  8
0
 62
     5
 10
215.108704
 20
142.163055
 11
215.108704
 21
88.163048
  0
POLYLINE
  8
0
 62
     5
 66
     1
 70
     2
  0
VERTEX
  8
0
 10
216.521744
 20
137.217392
  0
VERTEX
  8
0
 10
215.108704
 20
142.163055
  0
VERTEX
  8
0
 10
213.695663
 20
137.217392
  0
SEQEND
  0
POLYLINE
  8
0
 62
     5
 66
     1
 70
     2
  0
VERTEX
  8
0
 10
213.695663
 20
93.108704
  0
VERTEX
  8
0
 10
215.108704
 20
88.163048
  0
VERTEX
  8
0
 10
216.521744
 20
93.108704
  0
SEQEND
  0
LINE
  8
0
 62
     5
 10
144.456528
 20
142.163055
 11
217.228271
 21
142.163055
  0
LINE
  8
0
 62
     5
 10
144.456528
 20
88.163048
 11
217.228271
 21
88.163048
  0
TEXT
  8
0
 62
     7
 10
213.695663
 20
106.861420
 40
7.065217
 41
1.000000
  1
%%c54
  7
KANJI
 50
90.000000
 51
0.000000
  0
LINE
  8
DASHDOT
 62
     7
 10
110.217400
 20
140.163055
 11
138.695663
 21
140.163055
  0
LINE
  8
DASHDOT
 62
     7
 10
110.217400
 20
90.163048
 11
138.695663
 21
90.163048
  0
LINE
  8
DASHDOT
 62
     7
 10
110.217400
 20
115.163048
 11
148.695663
 21
115.163048
  0
LINE
  8
0
 62
     5
 10
134.456528
 20
141.663055
 11
134.456528
 21
142.163055
  0
LINE
  8
0
 62
     5
 10
114.456528
 20
141.663055
 11
114.456528
 21
142.163055
  0
LINE
  8
0
 62
     5
 10
135.456528
 20
132.663055
 11
144.456528
 21
132.663055
  0
LINE
  8
0
 62
     5
 10
135.456528
 20
97.663048
 11
144.456528
 21
97.663048
  0
LINE
  8
0
 62
     5
 10
133.956528
 20
142.163055
 11
144.456528
 21
142.163055
  0
LINE
  8
0
 62
     5
 10
133.956528
 20
88.163048
 11
144.456528
 21
88.163048
  0
LINE
  8
0
 62
     4
 10
114.456528
 20
137.663055
 11
134.456528
 21
137.663055
  0
LINE
  8
0
 62
     4
 10
114.456528
 20
92.663048
 11
134.456528
 21
92.663048
  0
LINE
  8
0
 62
     4
 10
143.456528
 20
105.163048
 11
144.456528
 21
104.163048
  0
LINE
  8
0
 62
     4
 10
143.456528
 20
125.163048
 11
144.456528
 21
126.163048
  0
LINE
  8
0
 62
     4
 10
115.456528
 20
125.163048
 11
115.456528
 21
105.163048
  0
POLYLINE
  8
0
 62
     4
 66
     1
 70
     2
  0
VERTEX
  8
0
 10
114.456528
 20
104.163048
  0
VERTEX
  8
0
 10
115.456528
 20
105.163048
  0
VERTEX
  8
0
 10
143.456528
 20
105.163048
  0
VERTEX
  8
0
 10
143.456528
 20
125.163048
  0
VERTEX
  8
0
 10
115.456528
 20
125.163048
  0
VERTEX
  8
0
 10
114.456528
 20
126.163048
  0
SEQEND
  0
TEXT
  8
0
 62
     7
 10
269.173920
 20
184.484787
 40
7.065217
 41
1.000000
  1
Prior to heat treatment
  7
KANJI
 50
0.000000
 51
0.000000
  0
ARC
  8
0
 62
     4
 10
135.456528
 20
133.663055
 40
1.000000
 50
180.0
 51
270.0
  0
ARC
  8
0
 62
     4
 10
135.456528
 20
96.663048
 40
1.000000
 50
90.0
 51
180.0
  0
LINE
  8
0
 62
     5
 10
144.456528
 20
132.163055
 11
144.456528
 21
142.163055
  0
LINE
  8
0
 62
     5
 10
114.456528
 20
180.315216
 11
134.456528
 21
180.315216
  0
POLYLINE
  8
0
 62
     5
 66
     1
 70
     2
  0
VERTEX
  8
0
 10
119.402176
 20
181.728271
  0
VERTEX
  8
0
 10
114.456528
 20
180.315216
  0
VERTEX
  8
0
 10
119.402176
 20
178.902176
  0
SEQEND
  0
POLYLINE
  8
0
 62
     5
 66
     1
 70
     2
  0
VERTEX
  8
0
 10
129.510880
 20
178.902176
  0
VERTEX
  8
0
 10
134.456528
 20
180.315216
  0
VERTEX
  8
0
 10
129.510880
 20
181.728271
  0
SEQEND
  0
LINE
  8
0
 62
     5
 10
134.456528
 20
142.163055
 11
134.456528
 21
182.434784
  0
TEXT
  8
0
 62
     7
 10
119.864136
 20
181.445648
 40
7.065217
 41
1.000000
  1
20
  7
KANJI
 50
0.000000
 51
0.000000
  0
LINE
  8
0
 62
     5
 10
114.456528
 20
191.619568
 11
144.456528
 21
191.619568
  0
POLYLINE
  8
0
 62
     5
 66
     1
 70
     2
  0
VERTEX
  8
0
 10
119.402176
 20
193.032608
  0
VERTEX
  8
0
 10
114.456528
 20
191.619568
  0
VERTEX
  8
0
 10
119.402176
 20
190.206528
  0
SEQEND
  0
POLYLINE
  8
0
 62
     5
 66
     1
 70
     2
  0
VERTEX
  8
0
 10
139.510880
 20
190.206528
  0
VERTEX
  8
0
 10
144.456528
 20
191.619568
  0
VERTEX
  8
0
 10
139.510880
 20
193.032608
  0
SEQEND
  0
LINE
  8
0
 62
     5
 10
114.456528
 20
142.163055
 11
114.456528
 21
193.739136
  0
LINE
  8
0
 62
     5
 10
144.456528
 20
142.163055
 11
144.456528
 21
193.739136
  0
TEXT
  8
0
 62
     7
 10
124.864136
 20
192.750000
 40
7.065217
 41
1.000000
  1
30
  7
KANJI
 50
0.000000
 51
0.000000
  0
LINE
  8
0
 62
     5
 10
152.934784
 20
180.315216
 11
125.978264
 21
180.315216
  0
POLYLINE
  8
0
 62
     5
 66
     1
 70
     2
  0
VERTEX
  8
0
 10
129.510880
 20
178.902176
  0
VERTEX
  8
0
 10
134.456528
 20
180.315216
  0
VERTEX
  8
0
 10
129.510880
 20
181.728271
  0
SEQEND
  0
POLYLINE
  8
0
 62
     5
 66
     1
 70
     2
  0
VERTEX
  8
0
 10
149.402176
 20
181.728271
  0
VERTEX
  8
0
 10
144.456528
 20
180.315216
  0
VERTEX
  8
0
 10
149.402176
 20
178.902176
  0
SEQEND
  0
TEXT
  8
0
 62
     7
 10
134.864136
 20
181.445648
 40
7.065217
 41
1.000000
  1
10
  7
KANJI
 50
0.000000
 51
0.000000
  0
LINE
  8
0
 62
     5
 10
203.804352
 20
132.663055
 11
203.804352
 21
97.663048
  0
POLYLINE
  8
0
 62
     5
 66
     1
 70
     2
  0
VERTEX
  8
0
 10
205.217392
 20
127.717392
  0
VERTEX
  8
0
 10
203.804352
 20
132.663055
  0
VERTEX
  8
0
 10
202.391312
 20
127.717392
  0
SEQEND
  0
POLYLINE
  8
0
 62
     5
 66
     1
 70
     2
  0
VERTEX
  8
0
 10
202.391312
 20
102.608704
  0
VERTEX
  8
0
 10
203.804352
 20
97.663048
  0
VERTEX
  8
0
 10
205.217392
 20
102.608704
  0
SEQEND
  0
LINE
  8
0
 62
     5
 10
144.456528
 20
132.663055
 11
205.923920
 21
132.663055
  0
LINE
  8
0
 62
     5
 10
144.456528
 20
97.663048
 11
205.923920
 21
97.663048
  0
TEXT
  8
0
 62
     7
 10
202.391312
 20
106.861420
 40
7.065217
 41
1.000000
  1
%%c35
  7
KANJI
 50
90.000000
 51
0.000000
  0
ARC
  8
0
 62
     4
 10
272.173920
 20
115.163048
 40
10.000000
 50
107.45760274776076
 51
72.54239725223924
  0
POLYLINE
  8
0
 62
     4
 66
     1
 70
     2
  0
VERTEX
  8
0
 10
275.173920
 20
124.702438
  0
VERTEX
  8
0
 10
275.173920
 20
127.963051
  0
VERTEX
  8
0
 10
269.173920
 20
127.963051
  0
VERTEX
  8
0
 10
269.173920
 20
124.702438
  0
SEQEND
  0
LINE
  8
0
 62
     4
 10
114.456528
 20
127.963051
 11
144.456528
 21
127.963051
  0
LINE
  8
0
 62
     5
 10
181.195663
 20
125.163048
 11
181.195663
 21
105.163048
  0
POLYLINE
  8
0
 62
     5
 66
     1
 70
     2
  0
VERTEX
  8
0
 10
179.782623
 20
110.108704
  0
VERTEX
  8
0
 10
181.195663
 20
105.163048
  0
VERTEX
  8
0
 10
182.608704
 20
110.108704
  0
SEQEND
  0
LINE
  8
0
 62
     5
 10
144.456528
 20
105.163048
 11
183.315231
 21
105.163048
  0
TEXT
  8
0
 62
     7
 10
179.782623
 20
102.269028
 40
7.065217
 41
1.000000
  1
%%c20H7
  7
KANJI
 50
90.000000
 51
0.000000
  0
POLYLINE
  8
0
 62
     4
 66
     1
 70
     2
  0
VERTEX
  8
0
 10
114.456528
 20
104.163048
  0
VERTEX
  8
0
 10
114.456528
 20
88.663048
  0
VERTEX
  8
0
 10
114.956528
 20
88.163048
  0
VERTEX
  8
0
 10
133.956528
 20
88.163048
  0
VERTEX
  8
0
 10
134.456528
 20
88.663048
  0
VERTEX
  8
0
 10
134.456528
 20
96.663048
  0
SEQEND
  0
POLYLINE
  8
0
 62
     4
 66
     1
 70
     2
  0
VERTEX
  8
0
 10
135.456528
 20
97.663048
  0
VERTEX
  8
0
 10
143.956528
 20
97.663048
  0
VERTEX
  8
0
 10
144.456528
 20
98.163048
  0
VERTEX
  8
0
 10
144.456528
 20
132.163055
  0
VERTEX
  8
0
 10
143.956528
 20
132.663055
  0
VERTEX
  8
0
 10
135.456528
 20
132.663055
  0
SEQEND
  0
POLYLINE
  8
0
 62
     4
 66
     1
 70
     2
  0
VERTEX
  8
0
 10
134.456528
 20
133.663055
  0
VERTEX
  8
0
 10
134.456528
 20
141.663055
  0
VERTEX
  8
0
 10
133.956528
 20
142.163055
  0
VERTEX
  8
0
 10
114.956528
 20
142.163055
  0
VERTEX
  8
0
 10
114.456528
 20
141.663055
  0
VERTEX
  8
0
 10
114.456528
 20
104.163048
  0
SEQEND
  0
LINE
  8
DASHDOT
 62
     7
 10
272.173920
 20
132.202179
 11
272.173920
 21
100.923920
  0
LINE
  8
DASHDOT
 62
     7
 10
286.413055
 20
115.163048
 11
257.934784
 21
115.163048
  0
LINE
  8
0
 62
     5
 10
283.652161
 20
149.158691
 11
260.695679
 21
149.158691
  0
POLYLINE
  8
0
 62
     5
 66
     1
 70
     2
  0
VERTEX
  8
0
 10
264.228271
 20
147.745651
  0
VERTEX
  8
0
 10
269.173920
 20
149.158691
  0
VERTEX
  8
0
 10
264.228271
 20
150.571747
  0
SEQEND
  0
POLYLINE
  8
0
 62
     5
 66
     1
 70
     2
  0
VERTEX
  8
0
 10
280.119568
 20
150.571747
  0
VERTEX
  8
0
 10
275.173920
 20
149.158691
  0
VERTEX
  8
0
 10
280.119568
 20
147.745651
  0
SEQEND
  0
LINE
  8
0
 62
     5
 10
269.173920
 20
127.963051
 11
269.173920
 21
151.278259
  0
LINE
  8
0
 62
     5
 10
275.173920
 20
127.963051
 11
275.173920
 21
151.278259
  0
TEXT
  8
0
 62
     7
 10
257.589905
 20
150.571747
 40
7.065217
 41
1.000000
  1
6
  7
KANJI
 50
0.000000
 51
0.000000
  0
TEXT
  8
0
 62
     7
 10
264.583618
 20
150.571747
 40
5.652174
 41
1.000000
  1
%%p0.015
  7
KANJI
 50
0.000000
 51
0.000000
  0
LINE
  8
0
 62
     5
 10
309.086975
 20
96.684784
 11
309.086975
 21
136.441315
  0
POLYLINE
  8
0
 62
     5
 66
     1
 70
     2
  0
VERTEX
  8
0
 10
307.673920
 20
132.908691
  0
VERTEX
  8
0
 10
309.086975
 20
127.963051
  0
VERTEX
  8
0
 10
310.500000
 20
132.908691
  0
SEQEND
  0
POLYLINE
  8
0
 62
     5
 66
     1
 70
     2
  0
VERTEX
  8
0
 10
310.500000
 20
100.217400
  0
VERTEX
  8
0
 10
309.086975
 20
105.163048
  0
VERTEX
  8
0
 10
307.673920
 20
100.217400
  0
SEQEND
  0
LINE
  8
0
 62
     5
 10
275.173920
 20
127.963051
 11
311.206543
 21
127.963051
  0
LINE
  8
0
 62
     5
 10
272.173920
 20
105.163048
 11
311.206543
 21
105.163048
  0
TEXT
  8
0
 62
     7
 10
306.967407
 20
94.137581
 40
7.065217
 41
1.000000
  1
22.8
  7
KANJI
 50
90.000000
 51
0.000000
  0
TEXT
  8
0
 62
     7
 10
307.391296
 20
124.718643
 40
3.532609
 41
1.000000
  1
 
  7
KANJI
 50
90.000000
 51
0.000000
  0
TEXT
  8
0
 62
     7
 10
303.010864
 20
124.718643
 40
3.532609
 41
1.000000
  1
+
  7
KANJI
 50
90.000000
 51
0.000000
  0
TEXT
  8
0
 62
     7
 10
307.391296
 20
128.675156
 40
3.532609
 41
1.000000
  1
0
  7
KANJI
 50
90.000000
 51
0.000000
  0
TEXT
  8
0
 62
     7
 10
303.010864
 20
128.675156
 40
3.532609
 41
1.000000
  1
0.1
  7
KANJI
 50
90.000000
 51
0.000000
  0
POLYLINE
  8
0
 62
     7
 66
     1
 70
     2
  0
VERTEX
  8
0
 10
157.173920
 20
105.163048
  0
VERTEX
  8
0
 10
154.418488
 20
109.939133
  0
VERTEX
  8
0
 10
170.951096
 20
109.939133
  0
VERTEX
  8
0
 10
168.195663
 20
105.163048
  0
VERTEX
  8
0
 10
165.440216
 20
109.939133
  0
VERTEX
  8
0
 10
162.684784
 20
105.163048
  0
VERTEX
  8
0
 10
159.929352
 20
109.939133
  0
VERTEX
  8
0
 10
157.173920
 20
105.163048
  0
SEQEND
  0
POLYLINE
  8
0
 62
     7
 66
     1
 70
     2
  0
VERTEX
  8
0
 10
163.603271
 20
112.327179
  0
VERTEX
  8
0
 10
164.521744
 20
112.327179
  0
VERTEX
  8
0
 10
164.521744
 20
111.776093
  0
VERTEX
  8
0
 10
163.603271
 20
110.857613
  0
VERTEX
  8
0
 10
161.766312
 20
110.857613
  0
VERTEX
  8
0
 10
160.847839
 20
111.776093
  0
VERTEX
  8
0
 10
160.847839
 20
114.531525
  0
VERTEX
  8
0
 10
161.766312
 20
115.450005
  0
VERTEX
  8
0
 10
163.603271
 20
115.450005
  0
VERTEX
  8
0
 10
164.521744
 20
114.531525
  0
VERTEX
  8
0
 10
164.521744
 20
113.980438
  0
SEQEND
  0
LINE
  8
0
 62
     7
 10
107.391312
 20
140.163055
 11
86.195656
 21
140.163055
  0
POLYLINE
  8
0
 62
     7
 66
     1
 70
     2
  0
VERTEX
  8
0
 10
91.847832
 20
140.163055
  0
VERTEX
  8
0
 10
89.092400
 20
144.939133
  0
VERTEX
  8
0
 10
105.625008
 20
144.939133
  0
VERTEX
  8
0
 10
102.869568
 20
140.163055
  0
VERTEX
  8
0
 10
100.114136
 20
144.939133
  0
VERTEX
  8
0
 10
97.358704
 20
140.163055
  0
VERTEX
  8
0
 10
94.603264
 20
144.939133
  0
VERTEX
  8
0
 10
91.847832
 20
140.163055
  0
SEQEND
  0
POLYLINE
  8
0
 62
     7
 66
     1
 70
     2
  0
VERTEX
  8
0
 10
98.277176
 20
147.327179
  0
VERTEX
  8
0
 10
99.195656
 20
147.327179
  0
VERTEX
  8
0
 10
99.195656
 20
146.776093
  0
VERTEX
  8
0
 10
98.277176
 20
145.857605
  0
VERTEX
  8
0
 10
96.440224
 20
145.857605
  0
VERTEX
  8
0
 10
95.521744
 20
146.776093
  0
VERTEX
  8
0
 10
95.521744
 20
149.531525
  0
VERTEX
  8
0
 10
96.440224
 20
150.450012
  0
VERTEX
  8
0
 10
98.277176
 20
150.450012
  0
VERTEX
  8
0
 10
99.195656
 20
149.531525
  0
VERTEX
  8
0
 10
99.195656
 20
148.980438
  0
SEQEND
  0
POLYLINE
  8
0
 62
     7
 66
     1
 70
     2
  0
VERTEX
  8
0
 10
114.456528
 20
161.945648
  0
VERTEX
  8
0
 10
109.680443
 20
159.190216
  0
VERTEX
  8
0
 10
109.680443
 20
175.722839
  0
VERTEX
  8
0
 10
114.456528
 20
172.967392
  0
VERTEX
  8
0
 10
109.680443
 20
170.211960
  0
VERTEX
  8
0
 10
114.456528
 20
167.456528
  0
VERTEX
  8
0
 10
109.680443
 20
164.701096
  0
VERTEX
  8
0
 10
114.456528
 20
161.945648
  0
SEQEND
  0
POLYLINE
  8
0
 62
     7
 66
     1
 70
     2
  0
VERTEX
  8
0
 10
107.292397
 20
168.375000
  0
VERTEX
  8
0
 10
107.292397
 20
169.293488
  0
VERTEX
  8
0
 10
107.843483
 20
169.293488
  0
VERTEX
  8
0
 10
108.761963
 20
168.375000
  0
VERTEX
  8
0
 10
108.761963
 20
166.538055
  0
VERTEX
  8
0
 10
107.843483
 20
165.619568
  0
VERTEX
  8
0
 10
105.088051
 20
165.619568
  0
VERTEX
  8
0
 10
104.169571
 20
166.538055
  0
VERTEX
  8
0
 10
104.169571
 20
168.375000
  0
VERTEX
  8
0
 10
105.088051
 20
169.293488
  0
VERTEX
  8
0
 10
105.639137
 20
169.293488
  0
SEQEND
  0
POLYLINE
  8
0
 62
     7
 66
     1
 70
     2
  0
VERTEX
  8
0
 10
144.456528
 20
173.250000
  0
VERTEX
  8
0
 10
149.232620
 20
176.005432
  0
VERTEX
  8
0
 10
149.232620
 20
159.472824
  0
VERTEX
  8
0
 10
144.456528
 20
162.228271
  0
VERTEX
  8
0
 10
149.232620
 20
164.983704
  0
VERTEX
  8
0
 10
144.456528
 20
167.739136
  0
VERTEX
  8
0
 10
149.232620
 20
170.494568
  0
VERTEX
  8
0
 10
144.456528
 20
173.250000
  0
SEQEND
  0
POLYLINE
  8
0
 62
     7
 66
     1
 70
     2
  0
VERTEX
  8
0
 10
151.620667
 20
169.576096
  0
VERTEX
  8
0
 10
151.069580
 20
169.576096
  0
VERTEX
  8
0
 10
150.151093
 20
168.657608
  0
VERTEX
  8
0
 10
150.151093
 20
166.820648
  0
VERTEX
  8
0
 10
151.069580
 20
165.902176
  0
VERTEX
  8
0
 10
153.825012
 20
165.902176
  0
VERTEX
  8
0
 10
154.743484
 20
166.820648
  0
VERTEX
  8
0
 10
154.743484
 20
168.657608
  0
VERTEX
  8
0
 10
153.825012
 20
169.576096
  0
VERTEX
  8
0
 10
153.273926
 20
169.576096
  0
VERTEX
  8
0
 10
153.273926
 20
168.657608
  0
SEQEND
  0
ENDSEC
  0
EOF
