  0
SECTION
  2
HEADER
  9
$ACADVER
  1
AC1003
  9
$INSBASE
 10
0.000000
 20
0.000000
  9
$EXTMIN
 10
0.000000
 20
0.000000
  9
$EXTMAX
 10
876.486486
 20
606.081081
  9
$LIMMIN
 10
0.000000
 20
0.000000
  9
$LIMMAX
 10
876.486486
 20
606.081081
  9
$VIEWCTR
 10
438.243243
 20
303.040541
  9
$VIEWSIZE
 40
606.081081
  0
ENDSEC
  0
SECTION
  2
TABLES
  0
TABLE
  2
LTYPE
 70
     4
  0
LTYPE
  2
CONTINUOUS
 70
    64
  3
SolidLine
 72
    65
 73
     0
 40
0.0
  0
LTYPE
  2
HIDDEN
 70
    64
  3
------------------------
 72
    65
 73
     2
 40
9.324324
 49
6.216216
 49
-3.108108
  0
LTYPE
  2
DASHDOT
 70
    64
  3
--?--?--?--?--?--?--?--
 72
    65
 73
     4
 40
37.297297
 49
27.972973
 49
-3.108108
 49
3.108108
 49
-3.108108
  0
LTYPE
  2
DIVIDE
 70
    64
  3
--??--??--??--??--??--
 72
    65
 73
     6
 40
46.621622
 49
31.081081
 49
-3.108108
 49
3.108108
 49
-3.108108
 49
3.108108
 49
-3.108108
  0
ENDTAB
  0
TABLE
  2
LAYER
 70
     5
  0
LAYER
  2
0
 70
    64
 62
     7
  6
CONTINUOUS
  0
LAYER
  2
HIDDEN
 70
    64
 62
     2
  6
HIDDEN
  0
LAYER
  2
DASHDOT
 70
    64
 62
     6
  6
DASHDOT
  0
LAYER
  2
DIVIDE
 70
    64
 62
     5
  6
DIVIDE
  0
ENDTAB
  0
TABLE
  2
STYLE
 70
     1
  0
STYLE
  2
STANDARD
 70
    64
 40
0.0
 41
1.0
 50
0.0
 71
     0
 42
0.2
  3
TXT
  4

  0
STYLE
  2
KANJI
 70
    64
 40
0.0
 41
1.0
 50
0.0
 71
     0
 42
0.2
  3
TXT
  4
BIGFONT
  0
ENDTAB
  0
TABLE
  2
VIEW
 70
     0
  0
ENDTAB
  0
ENDSEC
  0
SECTION
  2
BLOCKS
  0
ENDSEC
  0
SECTION
  2
ENTITIES
  0
TEXT
  8
0
 62
     7
 10
31.081081
 20
34.189190
 40
12.432432
 41
1.000000
  1
KHK MSGB3-50
  7
KANJI
 50
0.000000
 51
0.000000
  0
TEXT
  8
0
 62
     7
 10
31.081081
 20
15.540541
 40
12.432432
 41
1.000000
  1

  7
KANJI
 50
0.000000
 51
0.000000
  0
TEXT
  8
0
 62
     7
 10
31.081081
 20
559.459473
 40
13.986486
 41
1.000000
  1

  7
KANJI
 50
0.000000
 51
0.000000
  0
POLYLINE
  8
0
 62
     7
 66
     1
 70
     2
  0
VERTEX
  8
0
 10
621.621643
 20
559.459473
  0
VERTEX
  8
0
 10
609.500000
 20
580.470276
  0
VERTEX
  8
0
 10
657.986511
 20
580.470276
  0
VERTEX
  8
0
 10
645.864868
 20
559.459473
  0
VERTEX
  8
0
 10
633.743286
 20
580.470276
  0
VERTEX
  8
0
 10
621.621643
 20
559.459473
  0
SEQEND
  0
POLYLINE
  8
0
 62
     7
 66
     1
 70
     2
  0
VERTEX
  8
0
 10
706.473022
 20
559.459473
  0
VERTEX
  8
0
 10
694.351379
 20
580.470276
  0
VERTEX
  8
0
 10
767.081116
 20
580.470276
  0
VERTEX
  8
0
 10
754.959473
 20
559.459473
  0
VERTEX
  8
0
 10
742.837891
 20
580.470276
  0
VERTEX
  8
0
 10
730.716248
 20
559.459473
  0
VERTEX
  8
0
 10
718.594604
 20
580.470276
  0
VERTEX
  8
0
 10
706.473022
 20
559.459473
  0
SEQEND
  0
POLYLINE
  8
0
 62
     7
 66
     1
 70
     2
  0
VERTEX
  8
0
 10
734.756775
 20
590.975708
  0
VERTEX
  8
0
 10
738.797302
 20
590.975708
  0
VERTEX
  8
0
 10
738.797302
 20
588.551392
  0
VERTEX
  8
0
 10
734.756775
 20
584.510803
  0
VERTEX
  8
0
 10
726.675720
 20
584.510803
  0
VERTEX
  8
0
 10
722.635132
 20
588.551392
  0
VERTEX
  8
0
 10
722.635132
 20
600.672974
  0
VERTEX
  8
0
 10
726.675720
 20
604.713501
  0
VERTEX
  8
0
 10
734.756775
 20
604.713501
  0
VERTEX
  8
0
 10
738.797302
 20
600.672974
  0
VERTEX
  8
0
 10
738.797302
 20
598.248657
  0
SEQEND
  0
POLYLINE
  8
0
 62
     7
 66
     1
 70
     2
  0
VERTEX
  8
0
 10
676.572998
 20
580.470276
  0
VERTEX
  8
0
 10
673.340576
 20
577.237854
  0
VERTEX
  8
0
 10
673.340576
 20
562.691895
  0
VERTEX
  8
0
 10
676.572998
 20
559.459473
  0
SEQEND
  0
POLYLINE
  8
0
 62
     7
 66
     1
 70
     2
  0
VERTEX
  8
0
 10
782.435181
 20
580.470276
  0
VERTEX
  8
0
 10
785.667603
 20
577.237854
  0
VERTEX
  8
0
 10
785.667603
 20
562.691895
  0
VERTEX
  8
0
 10
782.435181
 20
559.459473
  0
SEQEND
  0
LINE
  8
0
 62
     5
 10
442.837830
 20
300.770264
 11
442.837830
 21
174.770248
  0
POLYLINE
  8
0
 62
     5
 66
     1
 70
     2
  0
VERTEX
  8
0
 10
445.945953
 20
289.891876
  0
VERTEX
  8
0
 10
442.837830
 20
300.770264
  0
VERTEX
  8
0
 10
439.729736
 20
289.891876
  0
SEQEND
  0
POLYLINE
  8
0
 62
     5
 66
     1
 70
     2
  0
VERTEX
  8
0
 10
439.729736
 20
185.648621
  0
VERTEX
  8
0
 10
442.837830
 20
174.770248
  0
VERTEX
  8
0
 10
445.945953
 20
185.648621
  0
SEQEND
  0
LINE
  8
0
 62
     5
 10
281.216217
 20
300.770264
 11
447.500000
 21
300.770264
  0
LINE
  8
0
 62
     5
 10
281.216217
 20
174.770248
 11
447.500000
 21
174.770248
  0
TEXT
  8
0
 62
     7
 10
439.729736
 20
214.459442
 40
15.540541
 41
1.000000
  1
%%c126
  7
KANJI
 50
90.000000
 51
0.000000
  0
LINE
  8
0
 62
     5
 10
467.702698
 20
315.770264
 11
467.702698
 21
159.770248
  0
POLYLINE
  8
0
 62
     5
 66
     1
 70
     2
  0
VERTEX
  8
0
 10
470.810791
 20
304.891876
  0
VERTEX
  8
0
 10
467.702698
 20
315.770264
  0
VERTEX
  8
0
 10
464.594604
 20
304.891876
  0
SEQEND
  0
POLYLINE
  8
0
 62
     5
 66
     1
 70
     2
  0
VERTEX
  8
0
 10
464.594604
 20
170.648621
  0
VERTEX
  8
0
 10
467.702698
 20
159.770248
  0
VERTEX
  8
0
 10
470.810791
 20
170.648621
  0
SEQEND
  0
LINE
  8
0
 62
     5
 10
281.216217
 20
315.770264
 11
472.364868
 21
315.770264
  0
LINE
  8
0
 62
     5
 10
281.216217
 20
159.770248
 11
472.364868
 21
159.770248
  0
TEXT
  8
0
 62
     7
 10
464.594604
 20
214.459442
 40
15.540541
 41
1.000000
  1
%%c156
  7
KANJI
 50
90.000000
 51
0.000000
  0
LINE
  8
0
 62
     5
 10
279.864868
 20
277.878357
 11
222.567566
 21
277.878357
  0
POLYLINE
  8
0
 62
     5
 66
     1
 70
     2
  0
VERTEX
  8
0
 10
241.216217
 20
277.878357
  0
VERTEX
  8
0
 10
240.283783
 20
278.810791
  0
VERTEX
  8
0
 10
242.148651
 20
278.810791
  0
VERTEX
  8
0
 10
242.148651
 20
276.945923
  0
VERTEX
  8
0
 10
240.283783
 20
276.945923
  0
VERTEX
  8
0
 10
240.283783
 20
278.810791
  0
VERTEX
  8
0
 10
241.216217
 20
277.878357
  0
VERTEX
  8
0
 10
242.148651
 20
276.945923
  0
VERTEX
  8
0
 10
242.148651
 20
278.810791
  0
VERTEX
  8
0
 10
241.216217
 20
277.878357
  0
SEQEND
  0
POLYLINE
  8
0
 62
     5
 66
     1
 70
     2
  0
VERTEX
  8
0
 10
261.216217
 20
277.878357
  0
VERTEX
  8
0
 10
260.283783
 20
278.810791
  0
VERTEX
  8
0
 10
262.148651
 20
278.810791
  0
VERTEX
  8
0
 10
262.148651
 20
276.945923
  0
VERTEX
  8
0
 10
260.283783
 20
276.945923
  0
VERTEX
  8
0
 10
260.283783
 20
278.810791
  0
VERTEX
  8
0
 10
261.216217
 20
277.878357
  0
VERTEX
  8
0
 10
262.148651
 20
276.945923
  0
VERTEX
  8
0
 10
262.148651
 20
278.810791
  0
VERTEX
  8
0
 10
261.216217
 20
277.878357
  0
SEQEND
  0
TEXT
  8
0
 62
     7
 10
241.114868
 20
280.364838
 40
15.540541
 41
1.000000
  1
20
  7
KANJI
 50
0.000000
 51
0.000000
  0
LINE
  8
0
 62
     5
 10
284.864868
 20
277.878357
 11
242.567566
 21
277.878357
  0
POLYLINE
  8
0
 62
     5
 66
     1
 70
     2
  0
VERTEX
  8
0
 10
250.337845
 20
274.770264
  0
VERTEX
  8
0
 10
261.216217
 20
277.878357
  0
VERTEX
  8
0
 10
250.337845
 20
280.986450
  0
SEQEND
  0
POLYLINE
  8
0
 62
     5
 66
     1
 70
     2
  0
VERTEX
  8
0
 10
277.094604
 20
280.986450
  0
VERTEX
  8
0
 10
266.216217
 20
277.878357
  0
VERTEX
  8
0
 10
277.094604
 20
274.770264
  0
SEQEND
  0
TEXT
  8
0
 62
     7
 10
275.540527
 20
280.364838
 40
15.540541
 41
1.000000
  1
5
  7
KANJI
 50
0.000000
 51
0.000000
  0
LINE
  8
0
 62
     5
 10
259.864868
 20
277.878357
 11
217.567566
 21
277.878357
  0
POLYLINE
  8
0
 62
     5
 66
     1
 70
     2
  0
VERTEX
  8
0
 10
225.337845
 20
274.770264
  0
VERTEX
  8
0
 10
236.216217
 20
277.878357
  0
VERTEX
  8
0
 10
225.337845
 20
280.986450
  0
SEQEND
  0
POLYLINE
  8
0
 62
     5
 66
     1
 70
     2
  0
VERTEX
  8
0
 10
252.094589
 20
280.986450
  0
VERTEX
  8
0
 10
241.216217
 20
277.878357
  0
VERTEX
  8
0
 10
252.094589
 20
274.770264
  0
SEQEND
  0
TEXT
  8
0
 62
     7
 10
216.790543
 20
280.364838
 40
15.540541
 41
1.000000
  1
5
  7
KANJI
 50
0.000000
 51
0.000000
  0
ARC
  8
0
 62
     4
 10
239.216217
 20
274.770264
 40
2.000000
 50
270.0
 51
0.0
  0
ARC
  8
0
 62
     4
 10
239.216217
 20
200.770248
 40
2.000000
 50
0.0
 51
90.0
  0
LINE
  8
DASHDOT
 62
     7
 10
226.891891
 20
312.770264
 11
275.540527
 21
312.770264
  0
LINE
  8
DASHDOT
 62
     7
 10
226.891891
 20
162.770248
 11
275.540527
 21
162.770248
  0
LINE
  8
DASHDOT
 62
     7
 10
226.891891
 20
237.770248
 11
290.540527
 21
237.770248
  0
LINE
  8
0
 62
     5
 10
266.216217
 20
314.770264
 11
266.216217
 21
315.770264
  0
LINE
  8
0
 62
     5
 10
236.216217
 20
314.770264
 11
236.216217
 21
315.770264
  0
LINE
  8
0
 62
     5
 10
265.216217
 20
315.770264
 11
281.216217
 21
315.770264
  0
LINE
  8
0
 62
     5
 10
265.216217
 20
159.770248
 11
281.216217
 21
159.770248
  0
LINE
  8
0
 62
     4
 10
236.216217
 20
309.020264
 11
266.216217
 21
309.020264
  0
LINE
  8
0
 62
     4
 10
236.216217
 20
166.520248
 11
266.216217
 21
166.520248
  0
LINE
  8
0
 62
     4
 10
281.216217
 20
258.770264
 11
280.216217
 21
257.770264
  0
LINE
  8
0
 62
     4
 10
281.216217
 20
216.770248
 11
280.216217
 21
217.770248
  0
LINE
  8
0
 62
     4
 10
236.216217
 20
216.770248
 11
237.216217
 21
217.770248
  0
LINE
  8
0
 62
     4
 10
236.216217
 20
272.770264
 11
239.216217
 21
272.770264
  0
LINE
  8
0
 62
     4
 10
236.216217
 20
202.770248
 11
239.216217
 21
202.770248
  0
POLYLINE
  8
0
 62
     4
 66
     1
 70
     2
  0
VERTEX
  8
0
 10
261.216217
 20
274.770264
  0
VERTEX
  8
0
 10
261.216217
 20
290.957184
  0
VERTEX
  8
0
 10
266.216217
 20
300.770264
  0
SEQEND
  0
POLYLINE
  8
0
 62
     4
 66
     1
 70
     2
  0
VERTEX
  8
0
 10
241.216217
 20
274.770264
  0
VERTEX
  8
0
 10
241.216217
 20
290.957184
  0
VERTEX
  8
0
 10
236.216217
 20
300.770264
  0
SEQEND
  0
POLYLINE
  8
0
 62
     4
 66
     1
 70
     2
  0
VERTEX
  8
0
 10
261.216217
 20
200.770248
  0
VERTEX
  8
0
 10
261.216217
 20
184.583298
  0
VERTEX
  8
0
 10
266.216217
 20
174.770248
  0
SEQEND
  0
POLYLINE
  8
0
 62
     4
 66
     1
 70
     2
  0
VERTEX
  8
0
 10
241.216217
 20
200.770248
  0
VERTEX
  8
0
 10
241.216217
 20
184.583298
  0
VERTEX
  8
0
 10
236.216217
 20
174.770248
  0
SEQEND
  0
POLYLINE
  8
0
 62
     4
 66
     1
 70
     2
  0
VERTEX
  8
0
 10
236.216217
 20
258.770264
  0
VERTEX
  8
0
 10
237.216217
 20
257.770264
  0
VERTEX
  8
0
 10
237.216217
 20
217.770248
  0
VERTEX
  8
0
 10
280.216217
 20
217.770248
  0
VERTEX
  8
0
 10
280.216217
 20
257.770264
  0
VERTEX
  8
0
 10
237.216217
 20
257.770264
  0
SEQEND
  0
TEXT
  8
0
 62
     7
 10
617.486450
 20
348.097290
 40
15.540541
 41
1.000000
  1
Prior to heat treatment
  7
KANJI
 50
0.000000
 51
0.000000
  0
LINE
  8
0
 62
     5
 10
266.216217
 20
174.770248
 11
281.216217
 21
174.770248
  0
LINE
  8
0
 62
     5
 10
266.216217
 20
300.770264
 11
281.216217
 21
300.770264
  0
LINE
  8
0
 62
     5
 10
281.216217
 20
271.770264
 11
281.216217
 21
315.770264
  0
LINE
  8
0
 62
     5
 10
236.216217
 20
409.013489
 11
281.216217
 21
409.013489
  0
POLYLINE
  8
0
 62
     5
 66
     1
 70
     2
  0
VERTEX
  8
0
 10
247.094589
 20
412.121582
  0
VERTEX
  8
0
 10
236.216217
 20
409.013489
  0
VERTEX
  8
0
 10
247.094589
 20
405.905396
  0
SEQEND
  0
POLYLINE
  8
0
 62
     5
 66
     1
 70
     2
  0
VERTEX
  8
0
 10
270.337830
 20
405.905396
  0
VERTEX
  8
0
 10
281.216217
 20
409.013489
  0
VERTEX
  8
0
 10
270.337830
 20
412.121582
  0
SEQEND
  0
LINE
  8
0
 62
     5
 10
236.216217
 20
315.770264
 11
236.216217
 21
413.675659
  0
LINE
  8
0
 62
     5
 10
281.216217
 20
315.770264
 11
281.216217
 21
413.675659
  0
TEXT
  8
0
 62
     7
 10
248.614868
 20
411.499969
 40
15.540541
 41
1.000000
  1
45
  7
KANJI
 50
0.000000
 51
0.000000
  0
LINE
  8
0
 62
     5
 10
284.864868
 20
384.148621
 11
217.567566
 21
384.148621
  0
POLYLINE
  8
0
 62
     5
 66
     1
 70
     2
  0
VERTEX
  8
0
 10
225.337845
 20
381.040527
  0
VERTEX
  8
0
 10
236.216217
 20
384.148621
  0
VERTEX
  8
0
 10
225.337845
 20
387.256744
  0
SEQEND
  0
POLYLINE
  8
0
 62
     5
 66
     1
 70
     2
  0
VERTEX
  8
0
 10
277.094604
 20
387.256744
  0
VERTEX
  8
0
 10
266.216217
 20
384.148621
  0
VERTEX
  8
0
 10
277.094604
 20
381.040527
  0
SEQEND
  0
LINE
  8
0
 62
     5
 10
266.216217
 20
315.770264
 11
266.216217
 21
388.810791
  0
TEXT
  8
0
 62
     7
 10
241.114868
 20
386.635132
 40
15.540541
 41
1.000000
  1
30
  7
KANJI
 50
0.000000
 51
0.000000
  0
LINE
  8
0
 62
     5
 10
299.864868
 20
384.148621
 11
247.567566
 21
384.148621
  0
POLYLINE
  8
0
 62
     5
 66
     1
 70
     2
  0
VERTEX
  8
0
 10
255.337845
 20
381.040527
  0
VERTEX
  8
0
 10
266.216217
 20
384.148621
  0
VERTEX
  8
0
 10
255.337845
 20
387.256744
  0
SEQEND
  0
POLYLINE
  8
0
 62
     5
 66
     1
 70
     2
  0
VERTEX
  8
0
 10
292.094604
 20
387.256744
  0
VERTEX
  8
0
 10
281.216217
 20
384.148621
  0
VERTEX
  8
0
 10
292.094604
 20
381.040527
  0
SEQEND
  0
TEXT
  8
0
 62
     7
 10
263.614868
 20
386.635132
 40
15.540541
 41
1.000000
  1
15
  7
KANJI
 50
0.000000
 51
0.000000
  0
ARC
  8
0
 62
     4
 10
611.486450
 20
237.770248
 40
20.000000
 50
107.45760274776076
 51
72.54239725223924
  0
POLYLINE
  8
0
 62
     4
 66
     1
 70
     2
  0
VERTEX
  8
0
 10
617.486450
 20
256.849030
  0
VERTEX
  8
0
 10
617.486450
 20
261.070251
  0
VERTEX
  8
0
 10
605.486450
 20
261.070251
  0
VERTEX
  8
0
 10
605.486450
 20
256.849030
  0
SEQEND
  0
LINE
  8
0
 62
     4
 10
236.216217
 20
261.070251
 11
281.216217
 21
261.070251
  0
LINE
  8
0
 62
     5
 10
368.243225
 20
257.770264
 11
368.243225
 21
217.770248
  0
POLYLINE
  8
0
 62
     5
 66
     1
 70
     2
  0
VERTEX
  8
0
 10
365.135132
 20
228.648621
  0
VERTEX
  8
0
 10
368.243225
 20
217.770248
  0
VERTEX
  8
0
 10
371.351349
 20
228.648621
  0
SEQEND
  0
LINE
  8
0
 62
     5
 10
281.216217
 20
217.770248
 11
372.905396
 21
217.770248
  0
TEXT
  8
0
 62
     7
 10
365.135132
 20
209.408752
 40
15.540541
 41
1.000000
  1
%%c40H7
  7
KANJI
 50
90.000000
 51
0.000000
  0
POLYLINE
  8
0
 62
     4
 66
     1
 70
     2
  0
VERTEX
  8
0
 10
236.216217
 20
216.770248
  0
VERTEX
  8
0
 10
236.216217
 20
160.770248
  0
VERTEX
  8
0
 10
237.216217
 20
159.770248
  0
VERTEX
  8
0
 10
265.216217
 20
159.770248
  0
VERTEX
  8
0
 10
266.216217
 20
160.770248
  0
VERTEX
  8
0
 10
266.216217
 20
202.770248
  0
VERTEX
  8
0
 10
280.216217
 20
202.770248
  0
VERTEX
  8
0
 10
281.216217
 20
203.770248
  0
VERTEX
  8
0
 10
281.216217
 20
271.770264
  0
VERTEX
  8
0
 10
280.216217
 20
272.770264
  0
VERTEX
  8
0
 10
266.216217
 20
272.770264
  0
VERTEX
  8
0
 10
266.216217
 20
314.770264
  0
SEQEND
  0
POLYLINE
  8
0
 62
     4
 66
     1
 70
     2
  0
VERTEX
  8
0
 10
266.216217
 20
314.770264
  0
VERTEX
  8
0
 10
265.216217
 20
315.770264
  0
VERTEX
  8
0
 10
237.216217
 20
315.770264
  0
VERTEX
  8
0
 10
236.216217
 20
314.770264
  0
VERTEX
  8
0
 10
236.216217
 20
216.770248
  0
SEQEND
  0
ARC
  8
0
 62
     4
 10
263.216217
 20
200.770248
 40
2.000000
 50
90.0
 51
180.0
  0
ARC
  8
0
 62
     4
 10
263.216217
 20
274.770264
 40
2.000000
 50
180.0
 51
270.0
  0
LINE
  8
0
 62
     4
 10
266.216217
 20
202.770248
 11
263.216217
 21
202.770248
  0
LINE
  8
0
 62
     4
 10
263.216217
 20
272.770264
 11
266.216217
 21
272.770264
  0
LINE
  8
0
 62
     5
 10
393.108093
 20
272.770264
 11
393.108093
 21
202.770248
  0
POLYLINE
  8
0
 62
     5
 66
     1
 70
     2
  0
VERTEX
  8
0
 10
396.216217
 20
261.891876
  0
VERTEX
  8
0
 10
393.108093
 20
272.770264
  0
VERTEX
  8
0
 10
390.000000
 20
261.891876
  0
SEQEND
  0
POLYLINE
  8
0
 62
     5
 66
     1
 70
     2
  0
VERTEX
  8
0
 10
390.000000
 20
213.648621
  0
VERTEX
  8
0
 10
393.108093
 20
202.770248
  0
VERTEX
  8
0
 10
396.216217
 20
213.648621
  0
SEQEND
  0
LINE
  8
0
 62
     5
 10
281.216217
 20
272.770264
 11
397.770264
 21
272.770264
  0
LINE
  8
0
 62
     5
 10
281.216217
 20
202.770248
 11
397.770264
 21
202.770248
  0
TEXT
  8
0
 62
     7
 10
390.000000
 20
219.510117
 40
15.540541
 41
1.000000
  1
%%c70
  7
KANJI
 50
90.000000
 51
0.000000
  0
LINE
  8
0
 62
     4
 10
261.216217
 20
290.957184
 11
261.216217
 21
274.770264
  0
LINE
  8
0
 62
     4
 10
261.216217
 20
200.770248
 11
261.216217
 21
184.583298
  0
LINE
  8
DASHDOT
 62
     7
 10
611.486450
 20
270.394562
 11
611.486450
 21
208.445923
  0
LINE
  8
DASHDOT
 62
     7
 10
640.810791
 20
237.770248
 11
582.162170
 21
237.770248
  0
LINE
  8
0
 62
     5
 10
636.135132
 20
307.691864
 11
586.837830
 21
307.691864
  0
POLYLINE
  8
0
 62
     5
 66
     1
 70
     2
  0
VERTEX
  8
0
 10
594.608093
 20
304.583740
  0
VERTEX
  8
0
 10
605.486450
 20
307.691864
  0
VERTEX
  8
0
 10
594.608093
 20
310.799988
  0
SEQEND
  0
POLYLINE
  8
0
 62
     5
 66
     1
 70
     2
  0
VERTEX
  8
0
 10
628.364868
 20
310.799988
  0
VERTEX
  8
0
 10
617.486450
 20
307.691864
  0
VERTEX
  8
0
 10
628.364868
 20
304.583740
  0
SEQEND
  0
LINE
  8
0
 62
     5
 10
605.486450
 20
261.070251
 11
605.486450
 21
312.354034
  0
LINE
  8
0
 62
     5
 10
617.486450
 20
261.070251
 11
617.486450
 21
312.354034
  0
TEXT
  8
0
 62
     7
 10
567.752319
 20
310.799988
 40
15.540541
 41
1.000000
  1
12
  7
KANJI
 50
0.000000
 51
0.000000
  0
TEXT
  8
0
 62
     7
 10
594.013916
 20
310.799988
 40
12.432432
 41
1.000000
  1
%%p0.0215
  7
KANJI
 50
0.000000
 51
0.000000
  0
LINE
  8
0
 62
     5
 10
704.513550
 20
199.121597
 11
704.513550
 21
279.718903
  0
POLYLINE
  8
0
 62
     5
 66
     1
 70
     2
  0
VERTEX
  8
0
 10
701.405396
 20
271.948608
  0
VERTEX
  8
0
 10
704.513550
 20
261.070251
  0
VERTEX
  8
0
 10
707.621582
 20
271.948608
  0
SEQEND
  0
POLYLINE
  8
0
 62
     5
 66
     1
 70
     2
  0
VERTEX
  8
0
 10
707.621582
 20
206.891876
  0
VERTEX
  8
0
 10
704.513550
 20
217.770248
  0
VERTEX
  8
0
 10
701.405396
 20
206.891876
  0
SEQEND
  0
LINE
  8
0
 62
     5
 10
617.486450
 20
261.070251
 11
709.175659
 21
261.070251
  0
LINE
  8
0
 62
     5
 10
611.486450
 20
217.770248
 11
709.175659
 21
217.770248
  0
TEXT
  8
0
 62
     7
 10
699.851318
 20
190.778595
 40
15.540541
 41
1.000000
  1
43.3
  7
KANJI
 50
90.000000
 51
0.000000
  0
TEXT
  8
0
 62
     7
 10
700.783813
 20
258.044220
 40
7.770270
 41
1.000000
  1
 
  7
KANJI
 50
90.000000
 51
0.000000
  0
TEXT
  8
0
 62
     7
 10
691.148682
 20
258.044220
 40
7.770270
 41
1.000000
  1
+
  7
KANJI
 50
90.000000
 51
0.000000
  0
TEXT
  8
0
 62
     7
 10
700.783813
 20
266.746918
 40
7.770270
 41
1.000000
  1
0
  7
KANJI
 50
90.000000
 51
0.000000
  0
TEXT
  8
0
 62
     7
 10
691.148682
 20
266.746918
 40
7.770270
 41
1.000000
  1
0.2
  7
KANJI
 50
90.000000
 51
0.000000
  0
POLYLINE
  8
0
 62
     7
 66
     1
 70
     2
  0
VERTEX
  8
0
 10
312.297302
 20
217.770248
  0
VERTEX
  8
0
 10
306.236481
 20
228.275650
  0
VERTEX
  8
0
 10
342.601349
 20
228.275650
  0
VERTEX
  8
0
 10
336.540527
 20
217.770248
  0
VERTEX
  8
0
 10
330.479736
 20
228.275650
  0
VERTEX
  8
0
 10
324.418915
 20
217.770248
  0
VERTEX
  8
0
 10
318.358093
 20
228.275650
  0
VERTEX
  8
0
 10
312.297302
 20
217.770248
  0
SEQEND
  0
POLYLINE
  8
0
 62
     7
 66
     1
 70
     2
  0
VERTEX
  8
0
 10
326.439178
 20
233.528351
  0
VERTEX
  8
0
 10
328.459473
 20
233.528351
  0
VERTEX
  8
0
 10
328.459473
 20
232.316193
  0
VERTEX
  8
0
 10
326.439178
 20
230.295929
  0
VERTEX
  8
0
 10
322.398651
 20
230.295929
  0
VERTEX
  8
0
 10
320.378357
 20
232.316193
  0
VERTEX
  8
0
 10
320.378357
 20
238.377014
  0
VERTEX
  8
0
 10
322.398651
 20
240.397278
  0
VERTEX
  8
0
 10
326.439178
 20
240.397278
  0
VERTEX
  8
0
 10
328.459473
 20
238.377014
  0
VERTEX
  8
0
 10
328.459473
 20
237.164841
  0
SEQEND
  0
POLYLINE
  8
0
 62
     7
 66
     1
 70
     2
  0
VERTEX
  8
0
 10
195.810806
 20
312.770264
  0
VERTEX
  8
0
 10
189.750000
 20
323.275665
  0
VERTEX
  8
0
 10
226.114868
 20
323.275665
  0
VERTEX
  8
0
 10
220.054047
 20
312.770264
  0
VERTEX
  8
0
 10
213.993240
 20
323.275665
  0
VERTEX
  8
0
 10
207.932434
 20
312.770264
  0
VERTEX
  8
0
 10
201.871613
 20
323.275665
  0
VERTEX
  8
0
 10
195.810806
 20
312.770264
  0
SEQEND
  0
POLYLINE
  8
0
 62
     7
 66
     1
 70
     2
  0
VERTEX
  8
0
 10
209.952698
 20
328.528351
  0
VERTEX
  8
0
 10
211.972977
 20
328.528351
  0
VERTEX
  8
0
 10
211.972977
 20
327.316193
  0
VERTEX
  8
0
 10
209.952698
 20
325.295929
  0
VERTEX
  8
0
 10
205.912170
 20
325.295929
  0
VERTEX
  8
0
 10
203.891891
 20
327.316193
  0
VERTEX
  8
0
 10
203.891891
 20
333.377014
  0
VERTEX
  8
0
 10
205.912170
 20
335.397278
  0
VERTEX
  8
0
 10
209.952698
 20
335.397278
  0
VERTEX
  8
0
 10
211.972977
 20
333.377014
  0
VERTEX
  8
0
 10
211.972977
 20
332.164856
  0
SEQEND
  0
POLYLINE
  8
0
 62
     7
 66
     1
 70
     2
  0
VERTEX
  8
0
 10
236.216217
 20
340.635132
  0
VERTEX
  8
0
 10
225.710815
 20
334.574310
  0
VERTEX
  8
0
 10
225.710815
 20
370.939148
  0
VERTEX
  8
0
 10
236.216217
 20
364.878357
  0
VERTEX
  8
0
 10
225.710815
 20
358.817566
  0
VERTEX
  8
0
 10
236.216217
 20
352.756744
  0
VERTEX
  8
0
 10
225.710815
 20
346.695923
  0
VERTEX
  8
0
 10
236.216217
 20
340.635132
  0
SEQEND
  0
POLYLINE
  8
0
 62
     7
 66
     1
 70
     2
  0
VERTEX
  8
0
 10
220.458115
 20
354.777008
  0
VERTEX
  8
0
 10
220.458115
 20
356.797272
  0
VERTEX
  8
0
 10
221.670273
 20
356.797272
  0
VERTEX
  8
0
 10
223.690536
 20
354.777008
  0
VERTEX
  8
0
 10
223.690536
 20
350.736450
  0
VERTEX
  8
0
 10
221.670273
 20
348.716187
  0
VERTEX
  8
0
 10
215.609467
 20
348.716187
  0
VERTEX
  8
0
 10
213.589188
 20
350.736450
  0
VERTEX
  8
0
 10
213.589188
 20
354.777008
  0
VERTEX
  8
0
 10
215.609467
 20
356.797272
  0
VERTEX
  8
0
 10
216.821625
 20
356.797272
  0
SEQEND
  0
POLYLINE
  8
0
 62
     7
 66
     1
 70
     2
  0
VERTEX
  8
0
 10
281.216217
 20
365.499969
  0
VERTEX
  8
0
 10
291.721619
 20
371.560791
  0
VERTEX
  8
0
 10
291.721619
 20
335.195923
  0
VERTEX
  8
0
 10
281.216217
 20
341.256744
  0
VERTEX
  8
0
 10
291.721619
 20
347.317535
  0
VERTEX
  8
0
 10
281.216217
 20
353.378357
  0
VERTEX
  8
0
 10
291.721619
 20
359.439148
  0
VERTEX
  8
0
 10
281.216217
 20
365.499969
  0
SEQEND
  0
POLYLINE
  8
0
 62
     7
 66
     1
 70
     2
  0
VERTEX
  8
0
 10
296.974335
 20
357.418884
  0
VERTEX
  8
0
 10
295.762146
 20
357.418884
  0
VERTEX
  8
0
 10
293.741882
 20
355.398621
  0
VERTEX
  8
0
 10
293.741882
 20
351.358093
  0
VERTEX
  8
0
 10
295.762146
 20
349.337830
  0
VERTEX
  8
0
 10
301.822968
 20
349.337830
  0
VERTEX
  8
0
 10
303.843262
 20
351.358093
  0
VERTEX
  8
0
 10
303.843262
 20
355.398621
  0
VERTEX
  8
0
 10
301.822968
 20
357.418884
  0
VERTEX
  8
0
 10
300.610809
 20
357.418884
  0
VERTEX
  8
0
 10
300.610809
 20
355.398621
  0
SEQEND
  0
ENDSEC
  0
EOF
