  0
SECTION
  2
HEADER
  9
$ACADVER
  1
AC1003
  9
$INSBASE
 10
0.000000
 20
0.000000
  9
$EXTMIN
 10
0.000000
 20
0.000000
  9
$EXTMAX
 10
551.739130
 20
381.521739
  9
$LIMMIN
 10
0.000000
 20
0.000000
  9
$LIMMAX
 10
551.739130
 20
381.521739
  9
$VIEWCTR
 10
275.869565
 20
190.760870
  9
$VIEWSIZE
 40
381.521739
  0
ENDSEC
  0
SECTION
  2
TABLES
  0
TABLE
  2
LTYPE
 70
     4
  0
LTYPE
  2
CONTINUOUS
 70
    64
  3
SolidLine
 72
    65
 73
     0
 40
0.0
  0
LTYPE
  2
HIDDEN
 70
    64
  3
------------------------
 72
    65
 73
     2
 40
5.869565
 49
3.913043
 49
-1.956522
  0
LTYPE
  2
DASHDOT
 70
    64
  3
--?--?--?--?--?--?--?--
 72
    65
 73
     4
 40
23.478261
 49
17.608696
 49
-1.956522
 49
1.956522
 49
-1.956522
  0
LTYPE
  2
DIVIDE
 70
    64
  3
--??--??--??--??--??--
 72
    65
 73
     6
 40
29.347826
 49
19.565217
 49
-1.956522
 49
1.956522
 49
-1.956522
 49
1.956522
 49
-1.956522
  0
ENDTAB
  0
TABLE
  2
LAYER
 70
     5
  0
LAYER
  2
0
 70
    64
 62
     7
  6
CONTINUOUS
  0
LAYER
  2
HIDDEN
 70
    64
 62
     2
  6
HIDDEN
  0
LAYER
  2
DASHDOT
 70
    64
 62
     6
  6
DASHDOT
  0
LAYER
  2
DIVIDE
 70
    64
 62
     5
  6
DIVIDE
  0
ENDTAB
  0
TABLE
  2
STYLE
 70
     1
  0
STYLE
  2
STANDARD
 70
    64
 40
0.0
 41
1.0
 50
0.0
 71
     0
 42
0.2
  3
TXT
  4

  0
STYLE
  2
KANJI
 70
    64
 40
0.0
 41
1.0
 50
0.0
 71
     0
 42
0.2
  3
TXT
  4
BIGFONT
  0
ENDTAB
  0
TABLE
  2
VIEW
 70
     0
  0
ENDTAB
  0
ENDSEC
  0
SECTION
  2
BLOCKS
  0
ENDSEC
  0
SECTION
  2
ENTITIES
  0
TEXT
  8
0
 62
     7
 10
19.565218
 20
21.521740
 40
7.826087
 41
1.000000
  1
KHK MSGB2-80
  7
KANJI
 50
0.000000
 51
0.000000
  0
TEXT
  8
0
 62
     7
 10
19.565218
 20
9.782609
 40
7.826087
 41
1.000000
  1

  7
KANJI
 50
0.000000
 51
0.000000
  0
TEXT
  8
0
 62
     7
 10
19.565218
 20
352.173920
 40
8.804348
 41
1.000000
  1

  7
KANJI
 50
0.000000
 51
0.000000
  0
POLYLINE
  8
0
 62
     7
 66
     1
 70
     2
  0
VERTEX
  8
0
 10
391.304352
 20
352.173920
  0
VERTEX
  8
0
 10
383.673920
 20
365.399994
  0
VERTEX
  8
0
 10
414.195648
 20
365.399994
  0
VERTEX
  8
0
 10
406.565216
 20
352.173920
  0
VERTEX
  8
0
 10
398.934784
 20
365.399994
  0
VERTEX
  8
0
 10
391.304352
 20
352.173920
  0
SEQEND
  0
POLYLINE
  8
0
 62
     7
 66
     1
 70
     2
  0
VERTEX
  8
0
 10
444.717407
 20
352.173920
  0
VERTEX
  8
0
 10
437.086975
 20
365.399994
  0
VERTEX
  8
0
 10
482.869568
 20
365.399994
  0
VERTEX
  8
0
 10
475.239136
 20
352.173920
  0
VERTEX
  8
0
 10
467.608704
 20
365.399994
  0
VERTEX
  8
0
 10
459.978271
 20
352.173920
  0
VERTEX
  8
0
 10
452.347839
 20
365.399994
  0
VERTEX
  8
0
 10
444.717407
 20
352.173920
  0
SEQEND
  0
POLYLINE
  8
0
 62
     7
 66
     1
 70
     2
  0
VERTEX
  8
0
 10
462.521729
 20
372.013062
  0
VERTEX
  8
0
 10
465.065216
 20
372.013062
  0
VERTEX
  8
0
 10
465.065216
 20
370.486969
  0
VERTEX
  8
0
 10
462.521729
 20
367.943481
  0
VERTEX
  8
0
 10
457.434784
 20
367.943481
  0
VERTEX
  8
0
 10
454.891296
 20
370.486969
  0
VERTEX
  8
0
 10
454.891296
 20
378.117401
  0
VERTEX
  8
0
 10
457.434784
 20
380.660889
  0
VERTEX
  8
0
 10
462.521729
 20
380.660889
  0
VERTEX
  8
0
 10
465.065216
 20
378.117401
  0
VERTEX
  8
0
 10
465.065216
 20
376.591309
  0
SEQEND
  0
POLYLINE
  8
0
 62
     7
 66
     1
 70
     2
  0
VERTEX
  8
0
 10
425.895660
 20
365.399994
  0
VERTEX
  8
0
 10
423.860870
 20
363.365234
  0
VERTEX
  8
0
 10
423.860870
 20
354.208710
  0
VERTEX
  8
0
 10
425.895660
 20
352.173920
  0
SEQEND
  0
POLYLINE
  8
0
 62
     7
 66
     1
 70
     2
  0
VERTEX
  8
0
 10
492.534790
 20
365.399994
  0
VERTEX
  8
0
 10
494.569580
 20
363.365234
  0
VERTEX
  8
0
 10
494.569580
 20
354.208710
  0
VERTEX
  8
0
 10
492.534790
 20
352.173920
  0
SEQEND
  0
LINE
  8
0
 62
     5
 10
286.304352
 20
241.456512
 11
286.304352
 21
77.456512
  0
POLYLINE
  8
0
 62
     5
 66
     1
 70
     2
  0
VERTEX
  8
0
 10
288.260864
 20
234.608688
  0
VERTEX
  8
0
 10
286.304352
 20
241.456512
  0
VERTEX
  8
0
 10
284.347839
 20
234.608688
  0
SEQEND
  0
POLYLINE
  8
0
 62
     5
 66
     1
 70
     2
  0
VERTEX
  8
0
 10
284.347839
 20
84.304337
  0
VERTEX
  8
0
 10
286.304352
 20
77.456512
  0
VERTEX
  8
0
 10
288.260864
 20
84.304337
  0
SEQEND
  0
LINE
  8
0
 62
     5
 10
188.478271
 20
241.456512
 11
289.239136
 21
241.456512
  0
LINE
  8
0
 62
     5
 10
188.478271
 20
77.456512
 11
289.239136
 21
77.456512
  0
TEXT
  8
0
 62
     7
 10
284.347839
 20
144.782593
 40
9.782609
 41
1.000000
  1
%%c164
  7
KANJI
 50
90.000000
 51
0.000000
  0
LINE
  8
DASHDOT
 62
     7
 10
152.608704
 20
239.456512
 11
184.347839
 21
239.456512
  0
LINE
  8
DASHDOT
 62
     7
 10
152.608704
 20
79.456512
 11
184.347839
 21
79.456512
  0
LINE
  8
DASHDOT
 62
     7
 10
152.608704
 20
159.456512
 11
194.347839
 21
159.456512
  0
LINE
  8
0
 62
     5
 10
178.478271
 20
240.956512
 11
178.478271
 21
241.456512
  0
LINE
  8
0
 62
     5
 10
158.478271
 20
240.956512
 11
158.478271
 21
241.456512
  0
LINE
  8
0
 62
     5
 10
179.478271
 20
189.456512
 11
188.478271
 21
189.456512
  0
LINE
  8
0
 62
     5
 10
179.478271
 20
129.456512
 11
188.478271
 21
129.456512
  0
LINE
  8
0
 62
     5
 10
177.978271
 20
241.456512
 11
188.478271
 21
241.456512
  0
LINE
  8
0
 62
     5
 10
177.978271
 20
77.456512
 11
188.478271
 21
77.456512
  0
LINE
  8
0
 62
     4
 10
158.478271
 20
236.956512
 11
178.478271
 21
236.956512
  0
LINE
  8
0
 62
     4
 10
158.478271
 20
81.956512
 11
178.478271
 21
81.956512
  0
LINE
  8
0
 62
     4
 10
187.478271
 20
141.956512
 11
188.478271
 21
140.956512
  0
LINE
  8
0
 62
     4
 10
187.478271
 20
176.956512
 11
188.478271
 21
177.956512
  0
LINE
  8
0
 62
     4
 10
159.478271
 20
176.956512
 11
159.478271
 21
141.956512
  0
POLYLINE
  8
0
 62
     4
 66
     1
 70
     2
  0
VERTEX
  8
0
 10
158.478271
 20
140.956512
  0
VERTEX
  8
0
 10
159.478271
 20
141.956512
  0
VERTEX
  8
0
 10
187.478271
 20
141.956512
  0
VERTEX
  8
0
 10
187.478271
 20
176.956512
  0
VERTEX
  8
0
 10
159.478271
 20
176.956512
  0
VERTEX
  8
0
 10
158.478271
 20
177.956512
  0
SEQEND
  0
TEXT
  8
0
 62
     7
 10
366.086975
 20
258.517395
 40
9.782609
 41
1.000000
  1
Prior to heat treatment
  7
KANJI
 50
0.000000
 51
0.000000
  0
ARC
  8
0
 62
     4
 10
179.478271
 20
190.456512
 40
1.000000
 50
180.0
 51
270.0
  0
ARC
  8
0
 62
     4
 10
179.478271
 20
128.456512
 40
1.000000
 50
90.0
 51
180.0
  0
LINE
  8
0
 62
     5
 10
188.478271
 20
188.956512
 11
188.478271
 21
241.456512
  0
LINE
  8
0
 62
     5
 10
158.478271
 20
294.282593
 11
178.478271
 21
294.282593
  0
POLYLINE
  8
0
 62
     5
 66
     1
 70
     2
  0
VERTEX
  8
0
 10
165.326096
 20
296.239136
  0
VERTEX
  8
0
 10
158.478271
 20
294.282593
  0
VERTEX
  8
0
 10
165.326096
 20
292.326050
  0
SEQEND
  0
POLYLINE
  8
0
 62
     5
 66
     1
 70
     2
  0
VERTEX
  8
0
 10
171.630447
 20
292.326050
  0
VERTEX
  8
0
 10
178.478271
 20
294.282593
  0
VERTEX
  8
0
 10
171.630447
 20
296.239136
  0
SEQEND
  0
LINE
  8
0
 62
     5
 10
178.478271
 20
241.456512
 11
178.478271
 21
297.217377
  0
TEXT
  8
0
 62
     7
 10
162.119583
 20
295.847809
 40
9.782609
 41
1.000000
  1
20
  7
KANJI
 50
0.000000
 51
0.000000
  0
LINE
  8
0
 62
     5
 10
158.478271
 20
309.934784
 11
188.478271
 21
309.934784
  0
POLYLINE
  8
0
 62
     5
 66
     1
 70
     2
  0
VERTEX
  8
0
 10
165.326096
 20
311.891296
  0
VERTEX
  8
0
 10
158.478271
 20
309.934784
  0
VERTEX
  8
0
 10
165.326096
 20
307.978271
  0
SEQEND
  0
POLYLINE
  8
0
 62
     5
 66
     1
 70
     2
  0
VERTEX
  8
0
 10
181.630447
 20
307.978271
  0
VERTEX
  8
0
 10
188.478271
 20
309.934784
  0
VERTEX
  8
0
 10
181.630447
 20
311.891296
  0
SEQEND
  0
LINE
  8
0
 62
     5
 10
158.478271
 20
241.456512
 11
158.478271
 21
312.869568
  0
LINE
  8
0
 62
     5
 10
188.478271
 20
241.456512
 11
188.478271
 21
312.869568
  0
TEXT
  8
0
 62
     7
 10
167.119568
 20
311.500000
 40
9.782609
 41
1.000000
  1
30
  7
KANJI
 50
0.000000
 51
0.000000
  0
LINE
  8
0
 62
     5
 10
200.217407
 20
294.282593
 11
166.739136
 21
294.282593
  0
POLYLINE
  8
0
 62
     5
 66
     1
 70
     2
  0
VERTEX
  8
0
 10
171.630447
 20
292.326050
  0
VERTEX
  8
0
 10
178.478271
 20
294.282593
  0
VERTEX
  8
0
 10
171.630447
 20
296.239136
  0
SEQEND
  0
POLYLINE
  8
0
 62
     5
 66
     1
 70
     2
  0
VERTEX
  8
0
 10
195.326096
 20
296.239136
  0
VERTEX
  8
0
 10
188.478271
 20
294.282593
  0
VERTEX
  8
0
 10
195.326096
 20
292.326050
  0
SEQEND
  0
TEXT
  8
0
 62
     7
 10
194.347839
 20
295.847809
 40
9.782609
 41
1.000000
  1
10
  7
KANJI
 50
0.000000
 51
0.000000
  0
LINE
  8
0
 62
     5
 10
270.652191
 20
189.456512
 11
270.652191
 21
129.456512
  0
POLYLINE
  8
0
 62
     5
 66
     1
 70
     2
  0
VERTEX
  8
0
 10
272.608704
 20
182.608688
  0
VERTEX
  8
0
 10
270.652191
 20
189.456512
  0
VERTEX
  8
0
 10
268.695679
 20
182.608688
  0
SEQEND
  0
POLYLINE
  8
0
 62
     5
 66
     1
 70
     2
  0
VERTEX
  8
0
 10
268.695679
 20
136.304337
  0
VERTEX
  8
0
 10
270.652191
 20
129.456512
  0
VERTEX
  8
0
 10
272.608704
 20
136.304337
  0
SEQEND
  0
LINE
  8
0
 62
     5
 10
188.478271
 20
189.456512
 11
273.586975
 21
189.456512
  0
LINE
  8
0
 62
     5
 10
188.478271
 20
129.456512
 11
273.586975
 21
129.456512
  0
TEXT
  8
0
 62
     7
 10
268.695679
 20
147.961945
 40
9.782609
 41
1.000000
  1
%%c60
  7
KANJI
 50
90.000000
 51
0.000000
  0
ARC
  8
0
 62
     4
 10
371.086975
 20
159.456512
 40
17.500000
 50
106.60154992625478
 51
73.39845007374521
  0
POLYLINE
  8
0
 62
     4
 66
     1
 70
     2
  0
VERTEX
  8
0
 10
376.086975
 20
176.227020
  0
VERTEX
  8
0
 10
376.086975
 20
180.256516
  0
VERTEX
  8
0
 10
366.086975
 20
180.256516
  0
VERTEX
  8
0
 10
366.086975
 20
176.227020
  0
SEQEND
  0
LINE
  8
0
 62
     4
 10
158.478271
 20
180.256516
 11
188.478271
 21
180.256516
  0
LINE
  8
0
 62
     5
 10
239.347839
 20
176.956512
 11
239.347839
 21
141.956512
  0
POLYLINE
  8
0
 62
     5
 66
     1
 70
     2
  0
VERTEX
  8
0
 10
237.391327
 20
148.804337
  0
VERTEX
  8
0
 10
239.347839
 20
141.956512
  0
VERTEX
  8
0
 10
241.304352
 20
148.804337
  0
SEQEND
  0
LINE
  8
0
 62
     5
 10
188.478271
 20
141.956512
 11
242.282623
 21
141.956512
  0
TEXT
  8
0
 62
     7
 10
237.391327
 20
141.603256
 40
9.782609
 41
1.000000
  1
%%c35H7
  7
KANJI
 50
90.000000
 51
0.000000
  0
POLYLINE
  8
0
 62
     4
 66
     1
 70
     2
  0
VERTEX
  8
0
 10
158.478271
 20
140.956512
  0
VERTEX
  8
0
 10
158.478271
 20
77.956512
  0
VERTEX
  8
0
 10
158.978271
 20
77.456512
  0
VERTEX
  8
0
 10
177.978271
 20
77.456512
  0
VERTEX
  8
0
 10
178.478271
 20
77.956512
  0
VERTEX
  8
0
 10
178.478271
 20
128.456512
  0
SEQEND
  0
POLYLINE
  8
0
 62
     4
 66
     1
 70
     2
  0
VERTEX
  8
0
 10
179.478271
 20
129.456512
  0
VERTEX
  8
0
 10
187.978271
 20
129.456512
  0
VERTEX
  8
0
 10
188.478271
 20
129.956512
  0
VERTEX
  8
0
 10
188.478271
 20
188.956512
  0
VERTEX
  8
0
 10
187.978271
 20
189.456512
  0
VERTEX
  8
0
 10
179.478271
 20
189.456512
  0
SEQEND
  0
POLYLINE
  8
0
 62
     4
 66
     1
 70
     2
  0
VERTEX
  8
0
 10
178.478271
 20
190.456512
  0
VERTEX
  8
0
 10
178.478271
 20
240.956512
  0
VERTEX
  8
0
 10
177.978271
 20
241.456512
  0
VERTEX
  8
0
 10
158.978271
 20
241.456512
  0
VERTEX
  8
0
 10
158.478271
 20
240.956512
  0
VERTEX
  8
0
 10
158.478271
 20
140.956512
  0
SEQEND
  0
LINE
  8
DASHDOT
 62
     7
 10
371.086975
 20
186.126083
 11
371.086975
 21
136.086945
  0
LINE
  8
DASHDOT
 62
     7
 10
394.456543
 20
159.456512
 11
347.717407
 21
159.456512
  0
LINE
  8
0
 62
     5
 10
387.826111
 20
209.604340
 11
354.347839
 21
209.604340
  0
POLYLINE
  8
0
 62
     5
 66
     1
 70
     2
  0
VERTEX
  8
0
 10
359.239136
 20
207.647827
  0
VERTEX
  8
0
 10
366.086975
 20
209.604340
  0
VERTEX
  8
0
 10
359.239136
 20
211.560852
  0
SEQEND
  0
POLYLINE
  8
0
 62
     5
 66
     1
 70
     2
  0
VERTEX
  8
0
 10
382.934784
 20
211.560852
  0
VERTEX
  8
0
 10
376.086975
 20
209.604340
  0
VERTEX
  8
0
 10
382.934784
 20
207.647827
  0
SEQEND
  0
LINE
  8
0
 62
     5
 10
366.086975
 20
180.256516
 11
366.086975
 21
212.539124
  0
LINE
  8
0
 62
     5
 10
376.086975
 20
180.256516
 11
376.086975
 21
212.539124
  0
TEXT
  8
0
 62
     7
 10
346.002411
 20
211.560852
 40
9.782609
 41
1.000000
  1
10
  7
KANJI
 50
0.000000
 51
0.000000
  0
TEXT
  8
0
 62
     7
 10
362.533813
 20
211.560852
 40
7.826087
 41
1.000000
  1
%%p0.018
  7
KANJI
 50
0.000000
 51
0.000000
  0
LINE
  8
0
 62
     5
 10
423.043488
 20
130.217377
 11
423.043488
 21
191.995636
  0
POLYLINE
  8
0
 62
     5
 66
     1
 70
     2
  0
VERTEX
  8
0
 10
421.086975
 20
187.104340
  0
VERTEX
  8
0
 10
423.043488
 20
180.256516
  0
VERTEX
  8
0
 10
425.000000
 20
187.104340
  0
SEQEND
  0
POLYLINE
  8
0
 62
     5
 66
     1
 70
     2
  0
VERTEX
  8
0
 10
425.000000
 20
135.108688
  0
VERTEX
  8
0
 10
423.043488
 20
141.956512
  0
VERTEX
  8
0
 10
421.086975
 20
135.108688
  0
SEQEND
  0
LINE
  8
0
 62
     5
 10
376.086975
 20
180.256516
 11
425.978271
 21
180.256516
  0
LINE
  8
0
 62
     5
 10
371.086975
 20
141.956512
 11
425.978271
 21
141.956512
  0
TEXT
  8
0
 62
     7
 10
420.108704
 20
129.382782
 40
9.782609
 41
1.000000
  1
38.3
  7
KANJI
 50
90.000000
 51
0.000000
  0
TEXT
  8
0
 62
     7
 10
420.695648
 20
171.725800
 40
4.891304
 41
1.000000
  1
 
  7
KANJI
 50
90.000000
 51
0.000000
  0
TEXT
  8
0
 62
     7
 10
414.630432
 20
171.725800
 40
4.891304
 41
1.000000
  1
+
  7
KANJI
 50
90.000000
 51
0.000000
  0
TEXT
  8
0
 62
     7
 10
420.695648
 20
177.204056
 40
4.891304
 41
1.000000
  1
0
  7
KANJI
 50
90.000000
 51
0.000000
  0
TEXT
  8
0
 62
     7
 10
414.630432
 20
177.204056
 40
4.891304
 41
1.000000
  1
0.2
  7
KANJI
 50
90.000000
 51
0.000000
  0
POLYLINE
  8
0
 62
     7
 66
     1
 70
     2
  0
VERTEX
  8
0
 10
206.086975
 20
141.956512
  0
VERTEX
  8
0
 10
202.271759
 20
148.569550
  0
VERTEX
  8
0
 10
225.163055
 20
148.569550
  0
VERTEX
  8
0
 10
221.347839
 20
141.956512
  0
VERTEX
  8
0
 10
217.532623
 20
148.569550
  0
VERTEX
  8
0
 10
213.717407
 20
141.956512
  0
VERTEX
  8
0
 10
209.902191
 20
148.569550
  0
VERTEX
  8
0
 10
206.086975
 20
141.956512
  0
SEQEND
  0
POLYLINE
  8
0
 62
     7
 66
     1
 70
     2
  0
VERTEX
  8
0
 10
214.989136
 20
151.876083
  0
VERTEX
  8
0
 10
216.260880
 20
151.876083
  0
VERTEX
  8
0
 10
216.260880
 20
151.113037
  0
VERTEX
  8
0
 10
214.989136
 20
149.841293
  0
VERTEX
  8
0
 10
212.445663
 20
149.841293
  0
VERTEX
  8
0
 10
211.173920
 20
151.113037
  0
VERTEX
  8
0
 10
211.173920
 20
154.928253
  0
VERTEX
  8
0
 10
212.445663
 20
156.199997
  0
VERTEX
  8
0
 10
214.989136
 20
156.199997
  0
VERTEX
  8
0
 10
216.260880
 20
154.928253
  0
VERTEX
  8
0
 10
216.260880
 20
154.165207
  0
SEQEND
  0
LINE
  8
0
 62
     7
 10
148.695663
 20
239.456512
 11
119.347839
 21
239.456512
  0
POLYLINE
  8
0
 62
     7
 66
     1
 70
     2
  0
VERTEX
  8
0
 10
127.173920
 20
239.456512
  0
VERTEX
  8
0
 10
123.358704
 20
246.069550
  0
VERTEX
  8
0
 10
146.250015
 20
246.069550
  0
VERTEX
  8
0
 10
142.434799
 20
239.456512
  0
VERTEX
  8
0
 10
138.619568
 20
246.069550
  0
VERTEX
  8
0
 10
134.804352
 20
239.456512
  0
VERTEX
  8
0
 10
130.989136
 20
246.069550
  0
VERTEX
  8
0
 10
127.173920
 20
239.456512
  0
SEQEND
  0
POLYLINE
  8
0
 62
     7
 66
     1
 70
     2
  0
VERTEX
  8
0
 10
136.076096
 20
249.376068
  0
VERTEX
  8
0
 10
137.347839
 20
249.376068
  0
VERTEX
  8
0
 10
137.347839
 20
248.613037
  0
VERTEX
  8
0
 10
136.076096
 20
247.341293
  0
VERTEX
  8
0
 10
133.532623
 20
247.341293
  0
VERTEX
  8
0
 10
132.260880
 20
248.613037
  0
VERTEX
  8
0
 10
132.260880
 20
252.428253
  0
VERTEX
  8
0
 10
133.532623
 20
253.699982
  0
VERTEX
  8
0
 10
136.076096
 20
253.699982
  0
VERTEX
  8
0
 10
137.347839
 20
252.428253
  0
VERTEX
  8
0
 10
137.347839
 20
251.665207
  0
SEQEND
  0
POLYLINE
  8
0
 62
     7
 66
     1
 70
     2
  0
VERTEX
  8
0
 10
158.478271
 20
268.847809
  0
VERTEX
  8
0
 10
151.865234
 20
265.032593
  0
VERTEX
  8
0
 10
151.865234
 20
287.923889
  0
VERTEX
  8
0
 10
158.478271
 20
284.108704
  0
VERTEX
  8
0
 10
151.865234
 20
280.293457
  0
VERTEX
  8
0
 10
158.478271
 20
276.478241
  0
VERTEX
  8
0
 10
151.865234
 20
272.663025
  0
VERTEX
  8
0
 10
158.478271
 20
268.847809
  0
SEQEND
  0
POLYLINE
  8
0
 62
     7
 66
     1
 70
     2
  0
VERTEX
  8
0
 10
148.558701
 20
277.750000
  0
VERTEX
  8
0
 10
148.558701
 20
279.021729
  0
VERTEX
  8
0
 10
149.321747
 20
279.021729
  0
VERTEX
  8
0
 10
150.593491
 20
277.750000
  0
VERTEX
  8
0
 10
150.593491
 20
275.206512
  0
VERTEX
  8
0
 10
149.321747
 20
273.934784
  0
VERTEX
  8
0
 10
145.506531
 20
273.934784
  0
VERTEX
  8
0
 10
144.234787
 20
275.206512
  0
VERTEX
  8
0
 10
144.234787
 20
277.750000
  0
VERTEX
  8
0
 10
145.506531
 20
279.021729
  0
VERTEX
  8
0
 10
146.269577
 20
279.021729
  0
SEQEND
  0
POLYLINE
  8
0
 62
     7
 66
     1
 70
     2
  0
VERTEX
  8
0
 10
188.478271
 20
284.500000
  0
VERTEX
  8
0
 10
195.091309
 20
288.315216
  0
VERTEX
  8
0
 10
195.091309
 20
265.423889
  0
VERTEX
  8
0
 10
188.478271
 20
269.239136
  0
VERTEX
  8
0
 10
195.091309
 20
273.054321
  0
VERTEX
  8
0
 10
188.478271
 20
276.869568
  0
VERTEX
  8
0
 10
195.091309
 20
280.684784
  0
VERTEX
  8
0
 10
188.478271
 20
284.500000
  0
SEQEND
  0
POLYLINE
  8
0
 62
     7
 66
     1
 70
     2
  0
VERTEX
  8
0
 10
198.397827
 20
279.413025
  0
VERTEX
  8
0
 10
197.634796
 20
279.413025
  0
VERTEX
  8
0
 10
196.363052
 20
278.141296
  0
VERTEX
  8
0
 10
196.363052
 20
275.597809
  0
VERTEX
  8
0
 10
197.634796
 20
274.326080
  0
VERTEX
  8
0
 10
201.450012
 20
274.326080
  0
VERTEX
  8
0
 10
202.721741
 20
275.597809
  0
VERTEX
  8
0
 10
202.721741
 20
278.141296
  0
VERTEX
  8
0
 10
201.450012
 20
279.413025
  0
VERTEX
  8
0
 10
200.686966
 20
279.413025
  0
VERTEX
  8
0
 10
200.686966
 20
278.141296
  0
SEQEND
  0
ENDSEC
  0
EOF
