  0
SECTION
  2
HEADER
  9
$ACADVER
  1
AC1003
  9
$INSBASE
 10
0.000000
 20
0.000000
  9
$EXTMIN
 10
0.000000
 20
0.000000
  9
$EXTMAX
 10
472.043478
 20
326.413043
  9
$LIMMIN
 10
0.000000
 20
0.000000
  9
$LIMMAX
 10
472.043478
 20
326.413043
  9
$VIEWCTR
 10
236.021739
 20
163.206522
  9
$VIEWSIZE
 40
326.413043
  0
ENDSEC
  0
SECTION
  2
TABLES
  0
TABLE
  2
LTYPE
 70
     4
  0
LTYPE
  2
CONTINUOUS
 70
    64
  3
SolidLine
 72
    65
 73
     0
 40
0.0
  0
LTYPE
  2
HIDDEN
 70
    64
  3
------------------------
 72
    65
 73
     2
 40
5.021739
 49
3.347826
 49
-1.673913
  0
LTYPE
  2
DASHDOT
 70
    64
  3
--?--?--?--?--?--?--?--
 72
    65
 73
     4
 40
20.086957
 49
15.065217
 49
-1.673913
 49
1.673913
 49
-1.673913
  0
LTYPE
  2
DIVIDE
 70
    64
  3
--??--??--??--??--??--
 72
    65
 73
     6
 40
25.108696
 49
16.739130
 49
-1.673913
 49
1.673913
 49
-1.673913
 49
1.673913
 49
-1.673913
  0
ENDTAB
  0
TABLE
  2
LAYER
 70
     5
  0
LAYER
  2
0
 70
    64
 62
     7
  6
CONTINUOUS
  0
LAYER
  2
HIDDEN
 70
    64
 62
     2
  6
HIDDEN
  0
LAYER
  2
DASHDOT
 70
    64
 62
     6
  6
DASHDOT
  0
LAYER
  2
DIVIDE
 70
    64
 62
     5
  6
DIVIDE
  0
ENDTAB
  0
TABLE
  2
STYLE
 70
     1
  0
STYLE
  2
STANDARD
 70
    64
 40
0.0
 41
1.0
 50
0.0
 71
     0
 42
0.2
  3
TXT
  4

  0
STYLE
  2
KANJI
 70
    64
 40
0.0
 41
1.0
 50
0.0
 71
     0
 42
0.2
  3
TXT
  4
BIGFONT
  0
ENDTAB
  0
TABLE
  2
VIEW
 70
     0
  0
ENDTAB
  0
ENDSEC
  0
SECTION
  2
BLOCKS
  0
ENDSEC
  0
SECTION
  2
ENTITIES
  0
TEXT
  8
0
 62
     7
 10
16.739130
 20
18.413044
 40
6.695652
 41
1.000000
  1
KHK NSU1.5-56J25
  7
KANJI
 50
0.000000
 51
0.000000
  0
TEXT
  8
0
 62
     7
 10
16.739130
 20
8.369565
 40
6.695652
 41
1.000000
  1
The precision grade of gears after secondary operations is equivalent but not identical to its original grade.
  7
KANJI
 50
0.000000
 51
0.000000
  0
TEXT
  8
0
 62
     7
 10
16.739130
 20
301.304352
 40
7.532609
 41
1.000000
  1

  7
KANJI
 50
0.000000
 51
0.000000
  0
POLYLINE
  8
0
 62
     7
 66
     1
 70
     2
  0
VERTEX
  8
0
 10
401.739136
 20
301.304352
  0
VERTEX
  8
0
 10
395.210876
 20
312.619995
  0
VERTEX
  8
0
 10
421.323914
 20
312.619995
  0
VERTEX
  8
0
 10
414.795654
 20
301.304352
  0
VERTEX
  8
0
 10
408.267395
 20
312.619995
  0
VERTEX
  8
0
 10
401.739136
 20
301.304352
  0
SEQEND
  0
LINE
  8
0
 62
     5
 10
246.282623
 20
179.923920
 11
246.282623
 21
92.923920
  0
POLYLINE
  8
0
 62
     5
 66
     1
 70
     2
  0
VERTEX
  8
0
 10
247.956543
 20
174.065216
  0
VERTEX
  8
0
 10
246.282623
 20
179.923920
  0
VERTEX
  8
0
 10
244.608719
 20
174.065216
  0
SEQEND
  0
POLYLINE
  8
0
 62
     5
 66
     1
 70
     2
  0
VERTEX
  8
0
 10
244.608719
 20
98.782616
  0
VERTEX
  8
0
 10
246.282623
 20
92.923920
  0
VERTEX
  8
0
 10
247.956543
 20
98.782616
  0
SEQEND
  0
LINE
  8
0
 62
     5
 10
162.586975
 20
179.923920
 11
248.793503
 21
179.923920
  0
LINE
  8
0
 62
     5
 10
162.586975
 20
92.923920
 11
248.793503
 21
92.923920
  0
TEXT
  8
0
 62
     7
 10
244.608719
 20
126.589676
 40
8.369565
 41
1.000000
  1
%%c87
  7
KANJI
 50
90.000000
 51
0.000000
  0
LINE
  8
DASHDOT
 62
     7
 10
130.565231
 20
178.423920
 11
155.608719
 21
178.423920
  0
LINE
  8
DASHDOT
 62
     7
 10
130.565231
 20
94.423920
 11
155.608719
 21
94.423920
  0
LINE
  8
DASHDOT
 62
     7
 10
130.565231
 20
136.423920
 11
167.608719
 21
136.423920
  0
LINE
  8
0
 62
     5
 10
150.586975
 20
179.423920
 11
150.586975
 21
179.923920
  0
LINE
  8
0
 62
     5
 10
135.586975
 20
179.423920
 11
135.586975
 21
179.923920
  0
LINE
  8
0
 62
     5
 10
151.586975
 20
161.423920
 11
162.586975
 21
161.423920
  0
LINE
  8
0
 62
     5
 10
151.586975
 20
111.423920
 11
162.586975
 21
111.423920
  0
LINE
  8
0
 62
     5
 10
150.086975
 20
179.923920
 11
162.586975
 21
179.923920
  0
LINE
  8
0
 62
     5
 10
150.086975
 20
92.923920
 11
162.586975
 21
92.923920
  0
LINE
  8
0
 62
     4
 10
135.586975
 20
176.548920
 11
150.586975
 21
176.548920
  0
LINE
  8
0
 62
     4
 10
135.586975
 20
96.298920
 11
150.586975
 21
96.298920
  0
LINE
  8
0
 62
     4
 10
161.586975
 20
123.923920
 11
162.586975
 21
122.923920
  0
LINE
  8
0
 62
     4
 10
161.586975
 20
148.923920
 11
162.586975
 21
149.923920
  0
LINE
  8
0
 62
     4
 10
136.586975
 20
148.923920
 11
136.586975
 21
123.923920
  0
POLYLINE
  8
0
 62
     4
 66
     1
 70
     2
  0
VERTEX
  8
0
 10
135.586975
 20
122.923920
  0
VERTEX
  8
0
 10
136.586975
 20
123.923920
  0
VERTEX
  8
0
 10
161.586975
 20
123.923920
  0
VERTEX
  8
0
 10
161.586975
 20
148.923920
  0
VERTEX
  8
0
 10
136.586975
 20
148.923920
  0
VERTEX
  8
0
 10
135.586975
 20
149.923920
  0
SEQEND
  0
LINE
  8
0
 62
     5
 10
143.086975
 20
170.236420
 11
107.062325
 21
202.997345
  0
CIRCLE
  8
0
 62
     5
 10
143.086975
 20
170.236420
 40
0.502174
  0
CIRCLE
  8
0
 62
     5
 10
102.108719
 20
207.502182
 40
6.695652
  0
TEXT
  8
0
 62
     7
 10
97.644943
 20
203.038422
 40
8.927536
 41
1.000000
  1
1
  7
KANJI
 50
0.000000
 51
0.000000
  0
LINE
  8
0
 62
     5
 10
143.086975
 20
116.423920
 11
107.140259
 21
84.863274
  0
CIRCLE
  8
0
 62
     5
 10
143.086975
 20
116.423920
 40
0.502174
  0
CIRCLE
  8
0
 62
     5
 10
102.108719
 20
80.445663
 40
6.695652
  0
TEXT
  8
0
 62
     7
 10
97.644943
 20
75.981888
 40
8.927536
 41
1.000000
  1
2
  7
KANJI
 50
0.000000
 51
0.000000
  0
LINE
  8
0
 62
     4
 10
135.586975
 20
108.923920
 11
150.586975
 21
108.923920
  0
LINE
  8
0
 62
     4
 10
135.586975
 20
163.923920
 11
150.586975
 21
163.923920
  0
LINE
  8
0
 62
     5
 10
61.934799
 20
108.923920
 11
61.934799
 21
163.923920
  0
POLYLINE
  8
0
 62
     5
 66
     1
 70
     2
  0
VERTEX
  8
0
 10
60.260887
 20
114.782616
  0
VERTEX
  8
0
 10
61.934799
 20
108.923920
  0
VERTEX
  8
0
 10
63.608711
 20
114.782616
  0
SEQEND
  0
POLYLINE
  8
0
 62
     5
 66
     1
 70
     2
  0
VERTEX
  8
0
 10
63.608711
 20
158.065216
  0
VERTEX
  8
0
 10
61.934799
 20
163.923920
  0
VERTEX
  8
0
 10
60.260887
 20
158.065216
  0
SEQEND
  0
LINE
  8
0
 62
     5
 10
135.586975
 20
108.923920
 11
59.423927
 21
108.923920
  0
LINE
  8
0
 62
     5
 10
135.586975
 20
163.923920
 11
59.423927
 21
163.923920
  0
TEXT
  8
0
 62
     7
 10
58.586975
 20
126.589676
 40
8.369565
 41
1.000000
  1
%%c55
  7
KANJI
 50
90.000000
 51
0.000000
  0
ARC
  8
0
 62
     4
 10
151.586975
 20
162.423920
 40
1.000000
 50
180.0
 51
270.0
  0
ARC
  8
0
 62
     4
 10
151.586975
 20
110.423920
 40
1.000000
 50
90.0
 51
180.0
  0
LINE
  8
0
 62
     5
 10
162.586975
 20
160.923920
 11
162.586975
 21
179.923920
  0
LINE
  8
0
 62
     5
 10
160.630447
 20
225.119568
 11
125.543495
 21
225.119568
  0
POLYLINE
  8
0
 62
     5
 66
     1
 70
     2
  0
VERTEX
  8
0
 10
129.728287
 20
223.445648
  0
VERTEX
  8
0
 10
135.586975
 20
225.119568
  0
VERTEX
  8
0
 10
129.728287
 20
226.793488
  0
SEQEND
  0
POLYLINE
  8
0
 62
     5
 66
     1
 70
     2
  0
VERTEX
  8
0
 10
156.445679
 20
226.793488
  0
VERTEX
  8
0
 10
150.586975
 20
225.119568
  0
VERTEX
  8
0
 10
156.445679
 20
223.445648
  0
SEQEND
  0
LINE
  8
0
 62
     5
 10
150.586975
 20
179.923920
 11
150.586975
 21
227.630432
  0
TEXT
  8
0
 62
     7
 10
137.646759
 20
226.458694
 40
8.369565
 41
1.000000
  1
15
  7
KANJI
 50
0.000000
 51
0.000000
  0
LINE
  8
0
 62
     5
 10
135.586975
 20
238.510880
 11
162.586975
 21
238.510880
  0
POLYLINE
  8
0
 62
     5
 66
     1
 70
     2
  0
VERTEX
  8
0
 10
141.445663
 20
240.184784
  0
VERTEX
  8
0
 10
135.586975
 20
238.510880
  0
VERTEX
  8
0
 10
141.445663
 20
236.836975
  0
SEQEND
  0
POLYLINE
  8
0
 62
     5
 66
     1
 70
     2
  0
VERTEX
  8
0
 10
156.728271
 20
236.836975
  0
VERTEX
  8
0
 10
162.586975
 20
238.510880
  0
VERTEX
  8
0
 10
156.728271
 20
240.184784
  0
SEQEND
  0
LINE
  8
0
 62
     5
 10
135.586975
 20
179.923920
 11
135.586975
 21
241.021759
  0
LINE
  8
0
 62
     5
 10
162.586975
 20
179.923920
 11
162.586975
 21
241.021759
  0
TEXT
  8
0
 62
     7
 10
143.646759
 20
239.850006
 40
8.369565
 41
1.000000
  1
27
  7
KANJI
 50
0.000000
 51
0.000000
  0
LINE
  8
0
 62
     5
 10
172.630463
 20
225.119568
 11
140.543503
 21
225.119568
  0
POLYLINE
  8
0
 62
     5
 66
     1
 70
     2
  0
VERTEX
  8
0
 10
144.728271
 20
223.445648
  0
VERTEX
  8
0
 10
150.586975
 20
225.119568
  0
VERTEX
  8
0
 10
144.728271
 20
226.793488
  0
SEQEND
  0
POLYLINE
  8
0
 62
     5
 66
     1
 70
     2
  0
VERTEX
  8
0
 10
168.445679
 20
226.793488
  0
VERTEX
  8
0
 10
162.586975
 20
225.119568
  0
VERTEX
  8
0
 10
168.445679
 20
223.445648
  0
SEQEND
  0
TEXT
  8
0
 62
     7
 10
151.146759
 20
226.458694
 40
8.369565
 41
1.000000
  1
12
  7
KANJI
 50
0.000000
 51
0.000000
  0
LINE
  8
0
 62
     5
 10
232.891327
 20
161.423920
 11
232.891327
 21
111.423920
  0
POLYLINE
  8
0
 62
     5
 66
     1
 70
     2
  0
VERTEX
  8
0
 10
234.565231
 20
155.565216
  0
VERTEX
  8
0
 10
232.891327
 20
161.423920
  0
VERTEX
  8
0
 10
231.217407
 20
155.565216
  0
SEQEND
  0
POLYLINE
  8
0
 62
     5
 66
     1
 70
     2
  0
VERTEX
  8
0
 10
231.217407
 20
117.282616
  0
VERTEX
  8
0
 10
232.891327
 20
111.423920
  0
VERTEX
  8
0
 10
234.565231
 20
117.282616
  0
SEQEND
  0
LINE
  8
0
 62
     5
 10
162.586975
 20
161.423920
 11
235.402191
 21
161.423920
  0
LINE
  8
0
 62
     5
 10
162.586975
 20
111.423920
 11
235.402191
 21
111.423920
  0
TEXT
  8
0
 62
     7
 10
231.217407
 20
126.589676
 40
8.369565
 41
1.000000
  1
%%c50
  7
KANJI
 50
90.000000
 51
0.000000
  0
LINE
  8
DASHDOT
 62
     7
 10
318.152191
 20
169.793488
 11
318.152191
 21
106.402176
  0
LINE
  8
DASHDOT
 62
     7
 10
288.130432
 20
136.423920
 11
348.173950
 21
136.423920
  0
LINE
  8
0
 62
     5
 10
332.195679
 20
184.858704
 11
304.108704
 21
184.858704
  0
POLYLINE
  8
0
 62
     5
 66
     1
 70
     2
  0
VERTEX
  8
0
 10
308.293518
 20
183.184784
  0
VERTEX
  8
0
 10
314.152191
 20
184.858704
  0
VERTEX
  8
0
 10
308.293518
 20
186.532608
  0
SEQEND
  0
POLYLINE
  8
0
 62
     5
 66
     1
 70
     2
  0
VERTEX
  8
0
 10
328.010864
 20
186.532608
  0
VERTEX
  8
0
 10
322.152191
 20
184.858704
  0
VERTEX
  8
0
 10
328.010864
 20
183.184784
  0
SEQEND
  0
LINE
  8
0
 62
     5
 10
314.152191
 20
152.223923
 11
314.152191
 21
187.369568
  0
LINE
  8
0
 62
     5
 10
322.152191
 20
152.223923
 11
322.152191
 21
187.369568
  0
TEXT
  8
0
 62
     7
 10
300.875732
 20
186.532608
 40
8.369565
 41
1.000000
  1
8
  7
KANJI
 50
0.000000
 51
0.000000
  0
TEXT
  8
0
 62
     7
 10
309.160583
 20
186.532608
 40
6.695652
 41
1.000000
  1
%%p0.018
  7
KANJI
 50
0.000000
 51
0.000000
  0
LINE
  8
0
 62
     5
 10
368.260895
 20
113.880440
 11
368.260895
 21
162.267395
  0
POLYLINE
  8
0
 62
     5
 66
     1
 70
     2
  0
VERTEX
  8
0
 10
366.586975
 20
158.082611
  0
VERTEX
  8
0
 10
368.260895
 20
152.223923
  0
VERTEX
  8
0
 10
369.934814
 20
158.082611
  0
SEQEND
  0
POLYLINE
  8
0
 62
     5
 66
     1
 70
     2
  0
VERTEX
  8
0
 10
369.934814
 20
118.065224
  0
VERTEX
  8
0
 10
368.260895
 20
123.923920
  0
VERTEX
  8
0
 10
366.586975
 20
118.065224
  0
SEQEND
  0
LINE
  8
0
 62
     5
 10
322.152191
 20
152.223923
 11
370.771759
 21
152.223923
  0
LINE
  8
0
 62
     5
 10
318.152191
 20
123.923920
 11
370.771759
 21
123.923920
  0
TEXT
  8
0
 62
     7
 10
365.750031
 20
111.379288
 40
8.369565
 41
1.000000
  1
28.3
  7
KANJI
 50
90.000000
 51
0.000000
  0
TEXT
  8
0
 62
     7
 10
366.252197
 20
147.606079
 40
4.184783
 41
1.000000
  1
 
  7
KANJI
 50
90.000000
 51
0.000000
  0
TEXT
  8
0
 62
     7
 10
361.063049
 20
147.606079
 40
4.184783
 41
1.000000
  1
+
  7
KANJI
 50
90.000000
 51
0.000000
  0
TEXT
  8
0
 62
     7
 10
366.252197
 20
152.293045
 40
4.184783
 41
1.000000
  1
0
  7
KANJI
 50
90.000000
 51
0.000000
  0
TEXT
  8
0
 62
     7
 10
361.063049
 20
152.293045
 40
4.184783
 41
1.000000
  1
0.2
  7
KANJI
 50
90.000000
 51
0.000000
  0
ARC
  8
0
 62
     4
 10
318.152191
 20
136.423920
 40
12.500000
 50
108.66292518454978
 51
71.33707481545021
  0
POLYLINE
  8
0
 62
     4
 66
     1
 70
     2
  0
VERTEX
  8
0
 10
322.152191
 20
148.266632
  0
VERTEX
  8
0
 10
322.152191
 20
152.223923
  0
VERTEX
  8
0
 10
314.152191
 20
152.223923
  0
VERTEX
  8
0
 10
314.152191
 20
148.266632
  0
SEQEND
  0
LINE
  8
0
 62
     4
 10
135.586975
 20
152.223923
 11
162.586975
 21
152.223923
  0
POLYLINE
  8
DASHDOT
 62
     7
 66
     1
 70
     2
  0
VERTEX
  8
DASHDOT
 10
156.586975
 20
166.445663
  0
VERTEX
  8
DASHDOT
 10
156.586975
 20
147.202179
  0
SEQEND
  0
POLYLINE
  8
0
 62
     4
 66
     1
 70
     2
  0
VERTEX
  8
0
 10
159.586975
 20
161.423920
  0
VERTEX
  8
0
 10
159.586975
 20
152.223923
  0
SEQEND
  0
POLYLINE
  8
0
 62
     4
 66
     1
 70
     2
  0
VERTEX
  8
0
 10
153.586975
 20
161.423920
  0
VERTEX
  8
0
 10
153.586975
 20
152.223923
  0
SEQEND
  0
POLYLINE
  8
0
 62
     4
 66
     1
 70
     2
  0
VERTEX
  8
0
 10
159.046967
 20
161.423920
  0
VERTEX
  8
0
 10
159.046967
 20
152.223923
  0
SEQEND
  0
POLYLINE
  8
0
 62
     4
 66
     1
 70
     2
  0
VERTEX
  8
0
 10
154.126984
 20
161.423920
  0
VERTEX
  8
0
 10
154.126984
 20
152.223923
  0
SEQEND
  0
POLYLINE
  8
0
 62
     4
 66
     1
 70
     2
  0
VERTEX
  8
0
 10
315.152191
 20
152.223923
  0
VERTEX
  8
0
 10
315.152191
 20
161.243271
  0
SEQEND
  0
POLYLINE
  8
0
 62
     4
 66
     1
 70
     2
  0
VERTEX
  8
0
 10
321.152191
 20
152.223923
  0
VERTEX
  8
0
 10
321.152191
 20
161.243271
  0
SEQEND
  0
POLYLINE
  8
0
 62
     4
 66
     1
 70
     2
  0
VERTEX
  8
0
 10
315.692200
 20
152.223923
  0
VERTEX
  8
0
 10
315.692200
 20
161.302597
  0
SEQEND
  0
POLYLINE
  8
0
 62
     4
 66
     1
 70
     2
  0
VERTEX
  8
0
 10
320.612183
 20
152.223923
  0
VERTEX
  8
0
 10
320.612183
 20
161.302597
  0
SEQEND
  0
POLYLINE
  8
0
 62
     5
 66
     1
 70
     2
  0
VERTEX
  8
0
 10
318.152191
 20
161.423920
  0
VERTEX
  8
0
 10
288.021759
 20
211.641312
  0
VERTEX
  8
0
 10
306.434814
 20
211.641312
  0
SEQEND
  0
POLYLINE
  8
0
 62
     5
 66
     1
 70
     2
  0
VERTEX
  8
0
 10
313.702545
 20
165.586487
  0
VERTEX
  8
0
 10
318.152191
 20
161.423920
  0
VERTEX
  8
0
 10
316.573303
 20
167.308929
  0
SEQEND
  0
TEXT
  8
0
 62
     7
 10
289.695679
 20
213.315216
 40
8.034783
 41
1.000000
  1
M6
  7
KANJI
 50
0.000000
 51
0.000000
  0
CIRCLE
  8
0
 62
     7
 10
156.586975
 20
136.423920
 40
3.000000
  0
CIRCLE
  8
0
 62
     4
 10
156.586975
 20
136.423920
 40
2.460000
  0
POLYLINE
  8
DASHDOT
 62
     7
 66
     1
 70
     2
  0
VERTEX
  8
DASHDOT
 10
148.565231
 20
136.423920
  0
VERTEX
  8
DASHDOT
 10
164.608719
 20
136.423920
  0
SEQEND
  0
POLYLINE
  8
DASHDOT
 62
     7
 66
     1
 70
     2
  0
VERTEX
  8
DASHDOT
 10
156.586975
 20
128.402176
  0
VERTEX
  8
DASHDOT
 10
156.586975
 20
144.445663
  0
SEQEND
  0
LINE
  8
DASHDOT
 62
     7
 10
156.586975
 20
161.423920
 11
156.586975
 21
136.423920
  0
LINE
  8
0
 62
     5
 10
156.586975
 20
161.423920
 11
156.586975
 21
179.923920
  0
POLYLINE
  8
0
 62
     4
 66
     1
 70
     2
  0
VERTEX
  8
0
 10
330.286865
 20
139.423920
  0
VERTEX
  8
0
 10
342.971558
 20
139.423920
  0
SEQEND
  0
POLYLINE
  8
0
 62
     4
 66
     1
 70
     2
  0
VERTEX
  8
0
 10
330.286865
 20
133.423920
  0
VERTEX
  8
0
 10
342.971558
 20
133.423920
  0
SEQEND
  0
POLYLINE
  8
0
 62
     4
 66
     1
 70
     2
  0
VERTEX
  8
0
 10
330.407715
 20
138.883926
  0
VERTEX
  8
0
 10
343.030884
 20
138.883926
  0
SEQEND
  0
POLYLINE
  8
0
 62
     4
 66
     1
 70
     2
  0
VERTEX
  8
0
 10
330.407715
 20
133.963913
  0
VERTEX
  8
0
 10
343.030884
 20
133.963913
  0
SEQEND
  0
POLYLINE
  8
0
 62
     5
 66
     1
 70
     2
  0
VERTEX
  8
0
 10
343.152191
 20
136.423920
  0
VERTEX
  8
0
 10
368.260895
 20
198.250000
  0
VERTEX
  8
0
 10
343.821777
 20
198.250000
  0
SEQEND
  0
POLYLINE
  8
0
 62
     5
 66
     1
 70
     2
  0
VERTEX
  8
0
 10
343.805756
 20
142.481903
  0
VERTEX
  8
0
 10
343.152191
 20
136.423920
  0
VERTEX
  8
0
 10
346.907532
 20
141.222214
  0
SEQEND
  0
TEXT
  8
0
 62
     7
 10
347.169586
 20
199.923920
 40
8.034783
 41
1.000000
  1
M6
  7
KANJI
 50
0.000000
 51
0.000000
  0
LINE
  8
0
 62
     5
 10
206.108719
 20
148.923920
 11
206.108719
 21
123.923920
  0
POLYLINE
  8
0
 62
     5
 66
     1
 70
     2
  0
VERTEX
  8
0
 10
204.434814
 20
129.782608
  0
VERTEX
  8
0
 10
206.108719
 20
123.923920
  0
VERTEX
  8
0
 10
207.782623
 20
129.782608
  0
SEQEND
  0
LINE
  8
0
 62
     5
 10
162.586975
 20
123.923920
 11
208.619598
 21
123.923920
  0
TEXT
  8
0
 62
     7
 10
204.434814
 20
121.149460
 40
8.369565
 41
1.000000
  1
%%c25H7
  7
KANJI
 50
90.000000
 51
0.000000
  0
POLYLINE
  8
0
 62
     4
 66
     1
 70
     2
  0
VERTEX
  8
0
 10
135.586975
 20
122.923920
  0
VERTEX
  8
0
 10
135.586975
 20
93.423920
  0
VERTEX
  8
0
 10
136.086975
 20
92.923920
  0
VERTEX
  8
0
 10
150.086975
 20
92.923920
  0
VERTEX
  8
0
 10
150.586975
 20
93.423920
  0
VERTEX
  8
0
 10
150.586975
 20
110.423920
  0
SEQEND
  0
POLYLINE
  8
0
 62
     4
 66
     1
 70
     2
  0
VERTEX
  8
0
 10
151.586975
 20
111.423920
  0
VERTEX
  8
0
 10
162.086975
 20
111.423920
  0
VERTEX
  8
0
 10
162.586975
 20
111.923920
  0
VERTEX
  8
0
 10
162.586975
 20
160.923920
  0
VERTEX
  8
0
 10
162.086975
 20
161.423920
  0
VERTEX
  8
0
 10
151.586975
 20
161.423920
  0
SEQEND
  0
POLYLINE
  8
0
 62
     4
 66
     1
 70
     2
  0
VERTEX
  8
0
 10
150.586975
 20
162.423920
  0
VERTEX
  8
0
 10
150.586975
 20
179.423920
  0
VERTEX
  8
0
 10
150.086975
 20
179.923920
  0
VERTEX
  8
0
 10
136.086975
 20
179.923920
  0
VERTEX
  8
0
 10
135.586975
 20
179.423920
  0
VERTEX
  8
0
 10
135.586975
 20
122.923920
  0
SEQEND
  0
CIRCLE
  8
0
 62
     4
 10
318.152191
 20
136.423920
 40
25.000000
  0
LINE
  8
0
 62
     5
 10
172.630463
 20
188.293488
 11
146.543503
 21
188.293488
  0
POLYLINE
  8
0
 62
     5
 66
     1
 70
     2
  0
VERTEX
  8
0
 10
150.728271
 20
186.619568
  0
VERTEX
  8
0
 10
156.586975
 20
188.293488
  0
VERTEX
  8
0
 10
150.728271
 20
189.967392
  0
SEQEND
  0
POLYLINE
  8
0
 62
     5
 66
     1
 70
     2
  0
VERTEX
  8
0
 10
168.445679
 20
189.967392
  0
VERTEX
  8
0
 10
162.586975
 20
188.293488
  0
VERTEX
  8
0
 10
168.445679
 20
186.619568
  0
SEQEND
  0
LINE
  8
0
 62
     5
 10
156.586975
 20
179.923920
 11
156.586975
 21
190.804352
  0
TEXT
  8
0
 62
     7
 10
156.866867
 20
189.632614
 40
8.369565
 41
1.000000
  1
6
  7
KANJI
 50
0.000000
 51
0.000000
  0
LINE
  8
0
 62
     5
 10
156.586975
 20
161.423920
 11
156.586975
 21
179.923920
  0
ENDSEC
  0
EOF
