  0
SECTION
  2
HEADER
  9
$ACADVER
  1
AC1003
  9
$INSBASE
 10
0.000000
 20
0.000000
  9
$EXTMIN
 10
0.000000
 20
0.000000
  9
$EXTMAX
 10
349.434783
 20
241.630435
  9
$LIMMIN
 10
0.000000
 20
0.000000
  9
$LIMMAX
 10
349.434783
 20
241.630435
  9
$VIEWCTR
 10
174.717391
 20
120.815217
  9
$VIEWSIZE
 40
241.630435
  0
ENDSEC
  0
SECTION
  2
TABLES
  0
TABLE
  2
LTYPE
 70
     4
  0
LTYPE
  2
CONTINUOUS
 70
    64
  3
SolidLine
 72
    65
 73
     0
 40
0.0
  0
LTYPE
  2
HIDDEN
 70
    64
  3
------------------------
 72
    65
 73
     2
 40
3.717391
 49
2.478261
 49
-1.239130
  0
LTYPE
  2
DASHDOT
 70
    64
  3
--?--?--?--?--?--?--?--
 72
    65
 73
     4
 40
14.869565
 49
11.152174
 49
-1.239130
 49
1.239130
 49
-1.239130
  0
LTYPE
  2
DIVIDE
 70
    64
  3
--??--??--??--??--??--
 72
    65
 73
     6
 40
18.586957
 49
12.391304
 49
-1.239130
 49
1.239130
 49
-1.239130
 49
1.239130
 49
-1.239130
  0
ENDTAB
  0
TABLE
  2
LAYER
 70
     5
  0
LAYER
  2
0
 70
    64
 62
     7
  6
CONTINUOUS
  0
LAYER
  2
HIDDEN
 70
    64
 62
     2
  6
HIDDEN
  0
LAYER
  2
DASHDOT
 70
    64
 62
     6
  6
DASHDOT
  0
LAYER
  2
DIVIDE
 70
    64
 62
     5
  6
DIVIDE
  0
ENDTAB
  0
TABLE
  2
STYLE
 70
     1
  0
STYLE
  2
STANDARD
 70
    64
 40
0.0
 41
1.0
 50
0.0
 71
     0
 42
0.2
  3
TXT
  4

  0
STYLE
  2
KANJI
 70
    64
 40
0.0
 41
1.0
 50
0.0
 71
     0
 42
0.2
  3
TXT
  4
BIGFONT
  0
ENDTAB
  0
TABLE
  2
VIEW
 70
     0
  0
ENDTAB
  0
ENDSEC
  0
SECTION
  2
BLOCKS
  0
ENDSEC
  0
SECTION
  2
ENTITIES
  0
TEXT
  8
0
 62
     7
 10
12.391304
 20
13.630435
 40
4.956522
 41
1.000000
  1
KHK NSU1.5-28J10
  7
KANJI
 50
0.000000
 51
0.000000
  0
TEXT
  8
0
 62
     7
 10
12.391304
 20
6.195652
 40
4.956522
 41
1.000000
  1
The precision grade of gears after secondary operations is equivalent but not identical to its original grade.
  7
KANJI
 50
0.000000
 51
0.000000
  0
TEXT
  8
0
 62
     7
 10
12.391304
 20
223.043472
 40
5.576087
 41
1.000000
  1

  7
KANJI
 50
0.000000
 51
0.000000
  0
POLYLINE
  8
0
 62
     7
 66
     1
 70
     2
  0
VERTEX
  8
0
 10
297.391296
 20
223.043472
  0
VERTEX
  8
0
 10
292.558685
 20
231.419998
  0
VERTEX
  8
0
 10
311.889130
 20
231.419998
  0
VERTEX
  8
0
 10
307.056519
 20
223.043472
  0
VERTEX
  8
0
 10
302.223907
 20
231.419998
  0
VERTEX
  8
0
 10
297.391296
 20
223.043472
  0
SEQEND
  0
LINE
  8
0
 62
     5
 10
189.326080
 20
123.489128
 11
189.326080
 21
78.489128
  0
POLYLINE
  8
0
 62
     5
 66
     1
 70
     2
  0
VERTEX
  8
0
 10
190.565216
 20
119.152176
  0
VERTEX
  8
0
 10
189.326080
 20
123.489128
  0
VERTEX
  8
0
 10
188.086960
 20
119.152176
  0
SEQEND
  0
POLYLINE
  8
0
 62
     5
 66
     1
 70
     2
  0
VERTEX
  8
0
 10
188.086960
 20
82.826080
  0
VERTEX
  8
0
 10
189.326080
 20
78.489128
  0
VERTEX
  8
0
 10
190.565216
 20
82.826080
  0
SEQEND
  0
LINE
  8
0
 62
     5
 10
127.369568
 20
123.489128
 11
191.184784
 21
123.489128
  0
LINE
  8
0
 62
     5
 10
127.369568
 20
78.489128
 11
191.184784
 21
78.489128
  0
TEXT
  8
0
 62
     7
 10
188.086960
 20
93.709236
 40
6.195652
 41
1.000000
  1
%%c45
  7
KANJI
 50
90.000000
 51
0.000000
  0
LINE
  8
DASHDOT
 62
     7
 10
96.652176
 20
121.989128
 11
119.086960
 21
121.989128
  0
LINE
  8
DASHDOT
 62
     7
 10
96.652176
 20
79.989128
 11
119.086960
 21
79.989128
  0
LINE
  8
DASHDOT
 62
     7
 10
96.652176
 20
100.989128
 11
131.086960
 21
100.989128
  0
LINE
  8
0
 62
     5
 10
115.369568
 20
122.989128
 11
115.369568
 21
123.489128
  0
LINE
  8
0
 62
     5
 10
100.369568
 20
122.989128
 11
100.369568
 21
123.489128
  0
LINE
  8
0
 62
     5
 10
116.369568
 20
115.989128
 11
127.369568
 21
115.989128
  0
LINE
  8
0
 62
     5
 10
116.369568
 20
85.989128
 11
127.369568
 21
85.989128
  0
LINE
  8
0
 62
     5
 10
114.869568
 20
123.489128
 11
127.369568
 21
123.489128
  0
LINE
  8
0
 62
     5
 10
114.869568
 20
78.489128
 11
127.369568
 21
78.489128
  0
LINE
  8
0
 62
     4
 10
100.369568
 20
120.114128
 11
115.369568
 21
120.114128
  0
LINE
  8
0
 62
     4
 10
100.369568
 20
81.864128
 11
115.369568
 21
81.864128
  0
LINE
  8
0
 62
     4
 10
126.869568
 20
95.989128
 11
127.369568
 21
95.489128
  0
LINE
  8
0
 62
     4
 10
126.869568
 20
105.989128
 11
127.369568
 21
106.489128
  0
LINE
  8
0
 62
     4
 10
100.869568
 20
105.989128
 11
100.869568
 21
95.989128
  0
POLYLINE
  8
0
 62
     4
 66
     1
 70
     2
  0
VERTEX
  8
0
 10
100.369568
 20
95.489128
  0
VERTEX
  8
0
 10
100.869568
 20
95.989128
  0
VERTEX
  8
0
 10
126.869568
 20
95.989128
  0
VERTEX
  8
0
 10
126.869568
 20
105.989128
  0
VERTEX
  8
0
 10
100.869568
 20
105.989128
  0
VERTEX
  8
0
 10
100.369568
 20
106.489128
  0
SEQEND
  0
LINE
  8
0
 62
     5
 10
107.869568
 20
118.051628
 11
79.446014
 21
140.961304
  0
CIRCLE
  8
0
 62
     5
 10
107.869568
 20
118.051628
 40
0.371739
  0
CIRCLE
  8
0
 62
     5
 10
75.586960
 20
144.071732
 40
4.956522
  0
TEXT
  8
0
 62
     7
 10
72.282608
 20
140.767395
 40
6.608696
 41
1.000000
  1
1
  7
KANJI
 50
0.000000
 51
0.000000
  0
LINE
  8
0
 62
     5
 10
107.869568
 20
90.989128
 11
79.343796
 21
66.439674
  0
CIRCLE
  8
0
 62
     5
 10
107.869568
 20
90.989128
 40
0.371739
  0
CIRCLE
  8
0
 62
     5
 10
75.586960
 20
63.206520
 40
4.956522
  0
TEXT
  8
0
 62
     7
 10
72.282608
 20
59.902172
 40
6.608696
 41
1.000000
  1
2
  7
KANJI
 50
0.000000
 51
0.000000
  0
LINE
  8
0
 62
     4
 10
100.369568
 20
85.989128
 11
115.369568
 21
85.989128
  0
LINE
  8
0
 62
     4
 10
100.369568
 20
115.989128
 11
115.369568
 21
115.989128
  0
LINE
  8
0
 62
     5
 10
45.847828
 20
85.989128
 11
45.847828
 21
115.989128
  0
POLYLINE
  8
0
 62
     5
 66
     1
 70
     2
  0
VERTEX
  8
0
 10
44.608696
 20
90.326080
  0
VERTEX
  8
0
 10
45.847828
 20
85.989128
  0
VERTEX
  8
0
 10
47.086960
 20
90.326080
  0
SEQEND
  0
POLYLINE
  8
0
 62
     5
 66
     1
 70
     2
  0
VERTEX
  8
0
 10
47.086960
 20
111.652176
  0
VERTEX
  8
0
 10
45.847828
 20
115.989128
  0
VERTEX
  8
0
 10
44.608696
 20
111.652176
  0
SEQEND
  0
LINE
  8
0
 62
     5
 10
100.369568
 20
85.989128
 11
43.989132
 21
85.989128
  0
LINE
  8
0
 62
     5
 10
100.369568
 20
115.989128
 11
43.989132
 21
115.989128
  0
TEXT
  8
0
 62
     7
 10
43.369568
 20
93.709236
 40
6.195652
 41
1.000000
  1
%%c30
  7
KANJI
 50
90.000000
 51
0.000000
  0
ARC
  8
0
 62
     4
 10
116.369568
 20
116.989128
 40
1.000000
 50
180.0
 51
270.0
  0
ARC
  8
0
 62
     4
 10
116.369568
 20
84.989128
 40
1.000000
 50
90.0
 51
180.0
  0
LINE
  8
0
 62
     5
 10
127.369568
 20
115.489128
 11
127.369568
 21
123.489128
  0
LINE
  8
0
 62
     5
 10
100.369568
 20
156.945648
 11
115.369568
 21
156.945648
  0
POLYLINE
  8
0
 62
     5
 66
     1
 70
     2
  0
VERTEX
  8
0
 10
104.706528
 20
158.184784
  0
VERTEX
  8
0
 10
100.369568
 20
156.945648
  0
VERTEX
  8
0
 10
104.706528
 20
155.706512
  0
SEQEND
  0
POLYLINE
  8
0
 62
     5
 66
     1
 70
     2
  0
VERTEX
  8
0
 10
111.032608
 20
155.706512
  0
VERTEX
  8
0
 10
115.369568
 20
156.945648
  0
VERTEX
  8
0
 10
111.032608
 20
158.184784
  0
SEQEND
  0
LINE
  8
0
 62
     5
 10
115.369568
 20
123.489128
 11
115.369568
 21
158.804352
  0
TEXT
  8
0
 62
     7
 10
103.842392
 20
157.936951
 40
6.195652
 41
1.000000
  1
15
  7
KANJI
 50
0.000000
 51
0.000000
  0
LINE
  8
0
 62
     5
 10
100.369568
 20
166.858704
 11
127.369568
 21
166.858704
  0
POLYLINE
  8
0
 62
     5
 66
     1
 70
     2
  0
VERTEX
  8
0
 10
104.706528
 20
168.097824
  0
VERTEX
  8
0
 10
100.369568
 20
166.858704
  0
VERTEX
  8
0
 10
104.706528
 20
165.619568
  0
SEQEND
  0
POLYLINE
  8
0
 62
     5
 66
     1
 70
     2
  0
VERTEX
  8
0
 10
123.032608
 20
165.619568
  0
VERTEX
  8
0
 10
127.369568
 20
166.858704
  0
VERTEX
  8
0
 10
123.032608
 20
168.097824
  0
SEQEND
  0
LINE
  8
0
 62
     5
 10
100.369568
 20
123.489128
 11
100.369568
 21
168.717392
  0
LINE
  8
0
 62
     5
 10
127.369568
 20
123.489128
 11
127.369568
 21
168.717392
  0
TEXT
  8
0
 62
     7
 10
109.842392
 20
167.850006
 40
6.195652
 41
1.000000
  1
27
  7
KANJI
 50
0.000000
 51
0.000000
  0
LINE
  8
0
 62
     5
 10
134.804352
 20
156.945648
 11
107.934784
 21
156.945648
  0
POLYLINE
  8
0
 62
     5
 66
     1
 70
     2
  0
VERTEX
  8
0
 10
111.032608
 20
155.706512
  0
VERTEX
  8
0
 10
115.369568
 20
156.945648
  0
VERTEX
  8
0
 10
111.032608
 20
158.184784
  0
SEQEND
  0
POLYLINE
  8
0
 62
     5
 66
     1
 70
     2
  0
VERTEX
  8
0
 10
131.706528
 20
158.184784
  0
VERTEX
  8
0
 10
127.369568
 20
156.945648
  0
VERTEX
  8
0
 10
131.706528
 20
155.706512
  0
SEQEND
  0
TEXT
  8
0
 62
     7
 10
117.342392
 20
157.936951
 40
6.195652
 41
1.000000
  1
12
  7
KANJI
 50
0.000000
 51
0.000000
  0
LINE
  8
0
 62
     5
 10
179.413055
 20
115.989128
 11
179.413055
 21
85.989128
  0
POLYLINE
  8
0
 62
     5
 66
     1
 70
     2
  0
VERTEX
  8
0
 10
180.652176
 20
111.652176
  0
VERTEX
  8
0
 10
179.413055
 20
115.989128
  0
VERTEX
  8
0
 10
178.173920
 20
111.652176
  0
SEQEND
  0
POLYLINE
  8
0
 62
     5
 66
     1
 70
     2
  0
VERTEX
  8
0
 10
178.173920
 20
90.326080
  0
VERTEX
  8
0
 10
179.413055
 20
85.989128
  0
VERTEX
  8
0
 10
180.652176
 20
90.326080
  0
SEQEND
  0
LINE
  8
0
 62
     5
 10
127.369568
 20
115.989128
 11
181.271744
 21
115.989128
  0
LINE
  8
0
 62
     5
 10
127.369568
 20
85.989128
 11
181.271744
 21
85.989128
  0
TEXT
  8
0
 62
     7
 10
178.173920
 20
93.709236
 40
6.195652
 41
1.000000
  1
%%c30
  7
KANJI
 50
90.000000
 51
0.000000
  0
LINE
  8
DASHDOT
 62
     7
 10
239.021744
 20
122.184784
 11
239.021744
 21
82.271736
  0
LINE
  8
DASHDOT
 62
     7
 10
220.304352
 20
100.989128
 11
257.739136
 21
100.989128
  0
LINE
  8
0
 62
     5
 10
248.456528
 20
133.336960
 11
229.586960
 21
133.336960
  0
POLYLINE
  8
0
 62
     5
 66
     1
 70
     2
  0
VERTEX
  8
0
 10
232.684784
 20
132.097824
  0
VERTEX
  8
0
 10
237.021744
 20
133.336960
  0
VERTEX
  8
0
 10
232.684784
 20
134.576080
  0
SEQEND
  0
POLYLINE
  8
0
 62
     5
 66
     1
 70
     2
  0
VERTEX
  8
0
 10
245.358704
 20
134.576080
  0
VERTEX
  8
0
 10
241.021744
 20
133.336960
  0
VERTEX
  8
0
 10
245.358704
 20
132.097824
  0
SEQEND
  0
LINE
  8
0
 62
     5
 10
237.021744
 20
107.789131
 11
237.021744
 21
135.195648
  0
LINE
  8
0
 62
     5
 10
241.021744
 20
107.789131
 11
241.021744
 21
135.195648
  0
TEXT
  8
0
 62
     7
 10
226.232697
 20
134.576080
 40
6.195652
 41
1.000000
  1
4
  7
KANJI
 50
0.000000
 51
0.000000
  0
TEXT
  8
0
 62
     7
 10
232.365631
 20
134.576080
 40
4.956522
 41
1.000000
  1
%%p0.015
  7
KANJI
 50
0.000000
 51
0.000000
  0
LINE
  8
0
 62
     5
 10
272.608704
 20
88.554344
 11
272.608704
 21
115.223907
  0
POLYLINE
  8
0
 62
     5
 66
     1
 70
     2
  0
VERTEX
  8
0
 10
271.369568
 20
112.126083
  0
VERTEX
  8
0
 10
272.608704
 20
107.789131
  0
VERTEX
  8
0
 10
273.847839
 20
112.126083
  0
SEQEND
  0
POLYLINE
  8
0
 62
     5
 66
     1
 70
     2
  0
VERTEX
  8
0
 10
273.847839
 20
91.652176
  0
VERTEX
  8
0
 10
272.608704
 20
95.989128
  0
VERTEX
  8
0
 10
271.369568
 20
91.652176
  0
SEQEND
  0
LINE
  8
0
 62
     5
 10
241.021744
 20
107.789131
 11
274.467407
 21
107.789131
  0
LINE
  8
0
 62
     5
 10
239.021744
 20
95.989128
 11
274.467407
 21
95.989128
  0
TEXT
  8
0
 62
     7
 10
270.750000
 20
83.043106
 40
6.195652
 41
1.000000
  1
11.8
  7
KANJI
 50
90.000000
 51
0.000000
  0
TEXT
  8
0
 62
     7
 10
271.121765
 20
109.860336
 40
3.097826
 41
1.000000
  1
 
  7
KANJI
 50
90.000000
 51
0.000000
  0
TEXT
  8
0
 62
     7
 10
267.280457
 20
109.860336
 40
3.097826
 41
1.000000
  1
+
  7
KANJI
 50
90.000000
 51
0.000000
  0
TEXT
  8
0
 62
     7
 10
271.121765
 20
113.329903
 40
3.097826
 41
1.000000
  1
0
  7
KANJI
 50
90.000000
 51
0.000000
  0
TEXT
  8
0
 62
     7
 10
267.280457
 20
113.329903
 40
3.097826
 41
1.000000
  1
0.1
  7
KANJI
 50
90.000000
 51
0.000000
  0
ARC
  8
0
 62
     4
 10
239.021744
 20
100.989128
 40
5.000000
 50
113.5781780057233
 51
66.4218219942767
  0
POLYLINE
  8
0
 62
     4
 66
     1
 70
     2
  0
VERTEX
  8
0
 10
241.021744
 20
105.571701
  0
VERTEX
  8
0
 10
241.021744
 20
107.789131
  0
VERTEX
  8
0
 10
237.021744
 20
107.789131
  0
VERTEX
  8
0
 10
237.021744
 20
105.571701
  0
SEQEND
  0
LINE
  8
0
 62
     4
 10
100.369568
 20
107.789131
 11
127.369568
 21
107.789131
  0
POLYLINE
  8
DASHDOT
 62
     7
 66
     1
 70
     2
  0
VERTEX
  8
DASHDOT
 10
121.369568
 20
119.706520
  0
VERTEX
  8
DASHDOT
 10
121.369568
 20
104.071739
  0
SEQEND
  0
POLYLINE
  8
0
 62
     4
 66
     1
 70
     2
  0
VERTEX
  8
0
 10
123.369568
 20
115.989128
  0
VERTEX
  8
0
 10
123.369568
 20
107.789131
  0
SEQEND
  0
POLYLINE
  8
0
 62
     4
 66
     1
 70
     2
  0
VERTEX
  8
0
 10
119.369568
 20
115.989128
  0
VERTEX
  8
0
 10
119.369568
 20
107.789131
  0
SEQEND
  0
POLYLINE
  8
0
 62
     4
 66
     1
 70
     2
  0
VERTEX
  8
0
 10
122.989571
 20
115.989128
  0
VERTEX
  8
0
 10
122.989571
 20
107.789131
  0
SEQEND
  0
POLYLINE
  8
0
 62
     4
 66
     1
 70
     2
  0
VERTEX
  8
0
 10
119.749565
 20
115.989128
  0
VERTEX
  8
0
 10
119.749565
 20
107.789131
  0
SEQEND
  0
POLYLINE
  8
0
 62
     4
 66
     1
 70
     2
  0
VERTEX
  8
0
 10
237.021744
 20
105.571701
  0
VERTEX
  8
0
 10
237.021744
 20
115.855194
  0
SEQEND
  0
POLYLINE
  8
0
 62
     4
 66
     1
 70
     2
  0
VERTEX
  8
0
 10
241.021744
 20
105.571701
  0
VERTEX
  8
0
 10
241.021744
 20
115.855194
  0
SEQEND
  0
POLYLINE
  8
0
 62
     4
 66
     1
 70
     2
  0
VERTEX
  8
0
 10
237.401749
 20
107.789131
  0
VERTEX
  8
0
 10
237.401749
 20
115.901390
  0
SEQEND
  0
POLYLINE
  8
0
 62
     4
 66
     1
 70
     2
  0
VERTEX
  8
0
 10
240.641739
 20
107.789131
  0
VERTEX
  8
0
 10
240.641739
 20
115.901390
  0
SEQEND
  0
POLYLINE
  8
0
 62
     5
 66
     1
 70
     2
  0
VERTEX
  8
0
 10
239.021744
 20
115.989128
  0
VERTEX
  8
0
 10
216.717392
 20
153.163040
  0
VERTEX
  8
0
 10
230.347824
 20
153.163040
  0
SEQEND
  0
POLYLINE
  8
0
 62
     5
 66
     1
 70
     2
  0
VERTEX
  8
0
 10
235.727859
 20
119.070511
  0
VERTEX
  8
0
 10
239.021744
 20
115.989128
  0
VERTEX
  8
0
 10
237.852936
 20
120.345566
  0
SEQEND
  0
TEXT
  8
0
 62
     7
 10
217.956528
 20
154.402176
 40
5.947826
 41
1.000000
  1
M4
  7
KANJI
 50
0.000000
 51
0.000000
  0
CIRCLE
  8
0
 62
     7
 10
121.369568
 20
100.989128
 40
2.000000
  0
CIRCLE
  8
0
 62
     4
 10
121.369568
 20
100.989128
 40
1.620000
  0
POLYLINE
  8
DASHDOT
 62
     7
 66
     1
 70
     2
  0
VERTEX
  8
DASHDOT
 10
115.652176
 20
100.989128
  0
VERTEX
  8
DASHDOT
 10
127.086960
 20
100.989128
  0
SEQEND
  0
POLYLINE
  8
DASHDOT
 62
     7
 66
     1
 70
     2
  0
VERTEX
  8
DASHDOT
 10
121.369568
 20
95.271736
  0
VERTEX
  8
DASHDOT
 10
121.369568
 20
106.706520
  0
SEQEND
  0
LINE
  8
DASHDOT
 62
     7
 10
121.369568
 20
115.989128
 11
121.369568
 21
100.989128
  0
LINE
  8
0
 62
     5
 10
121.369568
 20
115.989128
 11
121.369568
 21
123.489128
  0
POLYLINE
  8
0
 62
     4
 66
     1
 70
     2
  0
VERTEX
  8
0
 10
243.604324
 20
102.989128
  0
VERTEX
  8
0
 10
253.887817
 20
102.989128
  0
SEQEND
  0
POLYLINE
  8
0
 62
     4
 66
     1
 70
     2
  0
VERTEX
  8
0
 10
243.604324
 20
98.989128
  0
VERTEX
  8
0
 10
253.887817
 20
98.989128
  0
SEQEND
  0
POLYLINE
  8
0
 62
     4
 66
     1
 70
     2
  0
VERTEX
  8
0
 10
243.752029
 20
102.609131
  0
VERTEX
  8
0
 10
253.934006
 20
102.609131
  0
SEQEND
  0
POLYLINE
  8
0
 62
     4
 66
     1
 70
     2
  0
VERTEX
  8
0
 10
243.752029
 20
99.369125
  0
VERTEX
  8
0
 10
253.934006
 20
99.369125
  0
SEQEND
  0
POLYLINE
  8
0
 62
     5
 66
     1
 70
     2
  0
VERTEX
  8
0
 10
254.021744
 20
100.989128
  0
VERTEX
  8
0
 10
272.608704
 20
143.250000
  0
VERTEX
  8
0
 10
254.517395
 20
143.250000
  0
SEQEND
  0
POLYLINE
  8
0
 62
     5
 66
     1
 70
     2
  0
VERTEX
  8
0
 10
254.633514
 20
105.457947
  0
VERTEX
  8
0
 10
254.021744
 20
100.989128
  0
VERTEX
  8
0
 10
256.902039
 20
104.460213
  0
SEQEND
  0
TEXT
  8
0
 62
     7
 10
256.995667
 20
144.489136
 40
5.947826
 41
1.000000
  1
M4
  7
KANJI
 50
0.000000
 51
0.000000
  0
LINE
  8
0
 62
     5
 10
159.586960
 20
105.989128
 11
159.586960
 21
95.989128
  0
POLYLINE
  8
0
 62
     5
 66
     1
 70
     2
  0
VERTEX
  8
0
 10
158.347824
 20
100.326088
  0
VERTEX
  8
0
 10
159.586960
 20
95.989128
  0
VERTEX
  8
0
 10
160.826096
 20
100.326088
  0
SEQEND
  0
LINE
  8
0
 62
     5
 10
127.369568
 20
95.989128
 11
161.445648
 21
95.989128
  0
TEXT
  8
0
 62
     7
 10
158.347824
 20
89.682060
 40
6.195652
 41
1.000000
  1
%%c10H7
  7
KANJI
 50
90.000000
 51
0.000000
  0
POLYLINE
  8
0
 62
     4
 66
     1
 70
     2
  0
VERTEX
  8
0
 10
100.369568
 20
95.489128
  0
VERTEX
  8
0
 10
100.369568
 20
78.989128
  0
VERTEX
  8
0
 10
100.869568
 20
78.489128
  0
VERTEX
  8
0
 10
114.869568
 20
78.489128
  0
VERTEX
  8
0
 10
115.369568
 20
78.989128
  0
VERTEX
  8
0
 10
115.369568
 20
84.989128
  0
SEQEND
  0
POLYLINE
  8
0
 62
     4
 66
     1
 70
     2
  0
VERTEX
  8
0
 10
116.369568
 20
85.989128
  0
VERTEX
  8
0
 10
126.869568
 20
85.989128
  0
VERTEX
  8
0
 10
127.369568
 20
86.489128
  0
VERTEX
  8
0
 10
127.369568
 20
115.489128
  0
VERTEX
  8
0
 10
126.869568
 20
115.989128
  0
VERTEX
  8
0
 10
116.369568
 20
115.989128
  0
SEQEND
  0
POLYLINE
  8
0
 62
     4
 66
     1
 70
     2
  0
VERTEX
  8
0
 10
115.369568
 20
116.989128
  0
VERTEX
  8
0
 10
115.369568
 20
122.989128
  0
VERTEX
  8
0
 10
114.869568
 20
123.489128
  0
VERTEX
  8
0
 10
100.869568
 20
123.489128
  0
VERTEX
  8
0
 10
100.369568
 20
122.989128
  0
VERTEX
  8
0
 10
100.369568
 20
95.489128
  0
SEQEND
  0
CIRCLE
  8
0
 62
     4
 10
239.021744
 20
100.989128
 40
15.000000
  0
LINE
  8
0
 62
     5
 10
134.804352
 20
129.684784
 11
113.934784
 21
129.684784
  0
POLYLINE
  8
0
 62
     5
 66
     1
 70
     2
  0
VERTEX
  8
0
 10
117.032608
 20
128.445648
  0
VERTEX
  8
0
 10
121.369568
 20
129.684784
  0
VERTEX
  8
0
 10
117.032608
 20
130.923904
  0
SEQEND
  0
POLYLINE
  8
0
 62
     5
 66
     1
 70
     2
  0
VERTEX
  8
0
 10
131.706528
 20
130.923904
  0
VERTEX
  8
0
 10
127.369568
 20
129.684784
  0
VERTEX
  8
0
 10
131.706528
 20
128.445648
  0
SEQEND
  0
LINE
  8
0
 62
     5
 10
121.369568
 20
123.489128
 11
121.369568
 21
131.543472
  0
TEXT
  8
0
 62
     7
 10
122.355980
 20
130.676086
 40
6.195652
 41
1.000000
  1
6
  7
KANJI
 50
0.000000
 51
0.000000
  0
LINE
  8
0
 62
     5
 10
121.369568
 20
115.989128
 11
121.369568
 21
123.489128
  0
ENDSEC
  0
EOF
