  0
SECTION
  2
HEADER
  9
$ACADVER
  1
AC1003
  9
$INSBASE
 10
0.000000
 20
0.000000
  9
$EXTMIN
 10
0.000000
 20
0.000000
  9
$EXTMAX
 10
245.217391
 20
169.565217
  9
$LIMMIN
 10
0.000000
 20
0.000000
  9
$LIMMAX
 10
245.217391
 20
169.565217
  9
$VIEWCTR
 10
122.608696
 20
84.782609
  9
$VIEWSIZE
 40
169.565217
  0
ENDSEC
  0
SECTION
  2
TABLES
  0
TABLE
  2
LTYPE
 70
     4
  0
LTYPE
  2
CONTINUOUS
 70
    64
  3
SolidLine
 72
    65
 73
     0
 40
0.0
  0
LTYPE
  2
HIDDEN
 70
    64
  3
------------------------
 72
    65
 73
     2
 40
2.608696
 49
1.739130
 49
-0.869565
  0
LTYPE
  2
DASHDOT
 70
    64
  3
--?--?--?--?--?--?--?--
 72
    65
 73
     4
 40
10.434783
 49
7.826087
 49
-0.869565
 49
0.869565
 49
-0.869565
  0
LTYPE
  2
DIVIDE
 70
    64
  3
--??--??--??--??--??--
 72
    65
 73
     6
 40
13.043478
 49
8.695652
 49
-0.869565
 49
0.869565
 49
-0.869565
 49
0.869565
 49
-0.869565
  0
ENDTAB
  0
TABLE
  2
LAYER
 70
     5
  0
LAYER
  2
0
 70
    64
 62
     7
  6
CONTINUOUS
  0
LAYER
  2
HIDDEN
 70
    64
 62
     2
  6
HIDDEN
  0
LAYER
  2
DASHDOT
 70
    64
 62
     6
  6
DASHDOT
  0
LAYER
  2
DIVIDE
 70
    64
 62
     5
  6
DIVIDE
  0
ENDTAB
  0
TABLE
  2
STYLE
 70
     1
  0
STYLE
  2
STANDARD
 70
    64
 40
0.0
 41
1.0
 50
0.0
 71
     0
 42
0.2
  3
TXT
  4

  0
STYLE
  2
KANJI
 70
    64
 40
0.0
 41
1.0
 50
0.0
 71
     0
 42
0.2
  3
TXT
  4
BIGFONT
  0
ENDTAB
  0
TABLE
  2
VIEW
 70
     0
  0
ENDTAB
  0
ENDSEC
  0
SECTION
  2
BLOCKS
  0
ENDSEC
  0
SECTION
  2
ENTITIES
  0
TEXT
  8
0
 62
     7
 10
8.695652
 20
9.565217
 40
3.478261
 41
1.000000
  1
KHK NSU1-30
  7
KANJI
 50
0.000000
 51
0.000000
  0
TEXT
  8
0
 62
     7
 10
8.695652
 20
4.347826
 40
3.478261
 41
1.000000
  1

  7
KANJI
 50
0.000000
 51
0.000000
  0
TEXT
  8
0
 62
     7
 10
8.695652
 20
156.521744
 40
3.913043
 41
1.000000
  1

  7
KANJI
 50
0.000000
 51
0.000000
  0
POLYLINE
  8
0
 62
     7
 66
     1
 70
     2
  0
VERTEX
  8
0
 10
208.695648
 20
156.521744
  0
VERTEX
  8
0
 10
205.304337
 20
162.400009
  0
VERTEX
  8
0
 10
218.869568
 20
162.400009
  0
VERTEX
  8
0
 10
215.478256
 20
156.521744
  0
VERTEX
  8
0
 10
212.086960
 20
162.400009
  0
VERTEX
  8
0
 10
208.695648
 20
156.521744
  0
SEQEND
  0
LINE
  8
0
 62
     5
 10
133.913040
 20
86.869568
 11
133.913040
 21
54.869568
  0
POLYLINE
  8
0
 62
     5
 66
     1
 70
     2
  0
VERTEX
  8
0
 10
134.782608
 20
83.826088
  0
VERTEX
  8
0
 10
133.913040
 20
86.869568
  0
VERTEX
  8
0
 10
133.043488
 20
83.826088
  0
SEQEND
  0
POLYLINE
  8
0
 62
     5
 66
     1
 70
     2
  0
VERTEX
  8
0
 10
133.043488
 20
57.913048
  0
VERTEX
  8
0
 10
133.913040
 20
54.869568
  0
VERTEX
  8
0
 10
134.782608
 20
57.913048
  0
SEQEND
  0
LINE
  8
0
 62
     5
 10
90.434784
 20
86.869568
 11
135.217392
 21
86.869568
  0
LINE
  8
0
 62
     5
 10
90.434784
 20
54.869568
 11
135.217392
 21
54.869568
  0
TEXT
  8
0
 62
     7
 10
133.043488
 20
65.760872
 40
4.347826
 41
1.000000
  1
%%c32
  7
KANJI
 50
90.000000
 51
0.000000
  0
LINE
  8
DASHDOT
 62
     7
 10
67.826088
 20
85.869568
 11
83.043480
 21
85.869568
  0
LINE
  8
DASHDOT
 62
     7
 10
67.826088
 20
55.869568
 11
83.043480
 21
55.869568
  0
LINE
  8
DASHDOT
 62
     7
 10
67.826088
 20
70.869568
 11
93.043480
 21
70.869568
  0
LINE
  8
0
 62
     5
 10
80.434784
 20
86.369568
 11
80.434784
 21
86.869568
  0
LINE
  8
0
 62
     5
 10
70.434784
 20
86.369568
 11
70.434784
 21
86.869568
  0
LINE
  8
0
 62
     5
 10
81.434784
 20
80.869568
 11
90.434784
 21
80.869568
  0
LINE
  8
0
 62
     5
 10
81.434784
 20
60.869568
 11
90.434784
 21
60.869568
  0
LINE
  8
0
 62
     5
 10
79.934784
 20
86.869568
 11
90.434784
 21
86.869568
  0
LINE
  8
0
 62
     5
 10
79.934784
 20
54.869568
 11
90.434784
 21
54.869568
  0
LINE
  8
0
 62
     4
 10
70.434784
 20
84.619568
 11
80.434784
 21
84.619568
  0
LINE
  8
0
 62
     4
 10
70.434784
 20
57.119568
 11
80.434784
 21
57.119568
  0
LINE
  8
0
 62
     4
 10
89.934784
 20
66.869568
 11
90.434784
 21
66.369568
  0
LINE
  8
0
 62
     4
 10
89.934784
 20
74.869568
 11
90.434784
 21
75.369568
  0
LINE
  8
0
 62
     4
 10
70.934784
 20
74.869568
 11
70.934784
 21
66.869568
  0
POLYLINE
  8
0
 62
     4
 66
     1
 70
     2
  0
VERTEX
  8
0
 10
70.434784
 20
66.369568
  0
VERTEX
  8
0
 10
70.934784
 20
66.869568
  0
VERTEX
  8
0
 10
89.934784
 20
66.869568
  0
VERTEX
  8
0
 10
89.934784
 20
74.869568
  0
VERTEX
  8
0
 10
70.934784
 20
74.869568
  0
VERTEX
  8
0
 10
70.434784
 20
75.369568
  0
SEQEND
  0
LINE
  8
0
 62
     5
 10
75.434784
 20
82.744568
 11
55.723961
 21
99.044266
  0
CIRCLE
  8
0
 62
     5
 10
75.434784
 20
82.744568
 40
0.260870
  0
CIRCLE
  8
0
 62
     5
 10
53.043480
 20
101.260872
 40
3.478261
  0
TEXT
  8
0
 62
     7
 10
50.724640
 20
98.942032
 40
4.637681
 41
1.000000
  1
1
  7
KANJI
 50
0.000000
 51
0.000000
  0
LINE
  8
0
 62
     5
 10
75.434784
 20
63.869568
 11
55.684444
 21
46.941803
  0
CIRCLE
  8
0
 62
     5
 10
75.434784
 20
63.869568
 40
0.260870
  0
CIRCLE
  8
0
 62
     5
 10
53.043480
 20
44.678261
 40
3.478261
  0
TEXT
  8
0
 62
     7
 10
50.724640
 20
42.359421
 40
4.637681
 41
1.000000
  1
2
  7
KANJI
 50
0.000000
 51
0.000000
  0
LINE
  8
0
 62
     4
 10
70.434784
 20
60.869568
 11
80.434784
 21
60.869568
  0
LINE
  8
0
 62
     4
 10
70.434784
 20
80.869568
 11
80.434784
 21
80.869568
  0
LINE
  8
0
 62
     5
 10
32.173916
 20
60.869568
 11
32.173916
 21
80.869568
  0
POLYLINE
  8
0
 62
     5
 66
     1
 70
     2
  0
VERTEX
  8
0
 10
31.304352
 20
63.913048
  0
VERTEX
  8
0
 10
32.173916
 20
60.869568
  0
VERTEX
  8
0
 10
33.043480
 20
63.913048
  0
SEQEND
  0
POLYLINE
  8
0
 62
     5
 66
     1
 70
     2
  0
VERTEX
  8
0
 10
33.043480
 20
77.826088
  0
VERTEX
  8
0
 10
32.173916
 20
80.869568
  0
VERTEX
  8
0
 10
31.304352
 20
77.826088
  0
SEQEND
  0
LINE
  8
0
 62
     5
 10
70.434784
 20
60.869568
 11
30.869568
 21
60.869568
  0
LINE
  8
0
 62
     5
 10
70.434784
 20
80.869568
 11
30.869568
 21
80.869568
  0
TEXT
  8
0
 62
     7
 10
30.434784
 20
65.760872
 40
4.347826
 41
1.000000
  1
%%c20
  7
KANJI
 50
90.000000
 51
0.000000
  0
ARC
  8
0
 62
     4
 10
81.434784
 20
81.869568
 40
1.000000
 50
180.0
 51
270.0
  0
ARC
  8
0
 62
     4
 10
81.434784
 20
59.869568
 40
1.000000
 50
90.0
 51
180.0
  0
LINE
  8
0
 62
     5
 10
90.434784
 20
80.369568
 11
90.434784
 21
86.869568
  0
LINE
  8
0
 62
     5
 10
70.434784
 20
110.347824
 11
80.434784
 21
110.347824
  0
POLYLINE
  8
0
 62
     5
 66
     1
 70
     2
  0
VERTEX
  8
0
 10
73.478264
 20
111.217392
  0
VERTEX
  8
0
 10
70.434784
 20
110.347824
  0
VERTEX
  8
0
 10
73.478264
 20
109.478264
  0
SEQEND
  0
POLYLINE
  8
0
 62
     5
 66
     1
 70
     2
  0
VERTEX
  8
0
 10
77.391304
 20
109.478264
  0
VERTEX
  8
0
 10
80.434784
 20
110.347824
  0
VERTEX
  8
0
 10
77.391304
 20
111.217392
  0
SEQEND
  0
LINE
  8
0
 62
     5
 10
80.434784
 20
86.869568
 11
80.434784
 21
111.652176
  0
TEXT
  8
0
 62
     7
 10
72.608696
 20
111.043480
 40
4.347826
 41
1.000000
  1
10
  7
KANJI
 50
0.000000
 51
0.000000
  0
LINE
  8
0
 62
     5
 10
70.434784
 20
117.304352
 11
90.434784
 21
117.304352
  0
POLYLINE
  8
0
 62
     5
 66
     1
 70
     2
  0
VERTEX
  8
0
 10
73.478264
 20
118.173920
  0
VERTEX
  8
0
 10
70.434784
 20
117.304352
  0
VERTEX
  8
0
 10
73.478264
 20
116.434784
  0
SEQEND
  0
POLYLINE
  8
0
 62
     5
 66
     1
 70
     2
  0
VERTEX
  8
0
 10
87.391304
 20
116.434784
  0
VERTEX
  8
0
 10
90.434784
 20
117.304352
  0
VERTEX
  8
0
 10
87.391304
 20
118.173920
  0
SEQEND
  0
LINE
  8
0
 62
     5
 10
70.434784
 20
86.869568
 11
70.434784
 21
118.608704
  0
LINE
  8
0
 62
     5
 10
90.434784
 20
86.869568
 11
90.434784
 21
118.608704
  0
TEXT
  8
0
 62
     7
 10
77.608696
 20
118.000000
 40
4.347826
 41
1.000000
  1
20
  7
KANJI
 50
0.000000
 51
0.000000
  0
LINE
  8
0
 62
     5
 10
80.434784
 20
110.347824
 11
90.434784
 21
110.347824
  0
POLYLINE
  8
0
 62
     5
 66
     1
 70
     2
  0
VERTEX
  8
0
 10
83.478264
 20
111.217392
  0
VERTEX
  8
0
 10
80.434784
 20
110.347824
  0
VERTEX
  8
0
 10
83.478264
 20
109.478264
  0
SEQEND
  0
POLYLINE
  8
0
 62
     5
 66
     1
 70
     2
  0
VERTEX
  8
0
 10
87.391304
 20
109.478264
  0
VERTEX
  8
0
 10
90.434784
 20
110.347824
  0
VERTEX
  8
0
 10
87.391304
 20
111.217392
  0
SEQEND
  0
TEXT
  8
0
 62
     7
 10
82.608696
 20
111.043480
 40
4.347826
 41
1.000000
  1
10
  7
KANJI
 50
0.000000
 51
0.000000
  0
LINE
  8
0
 62
     5
 10
126.956528
 20
80.869568
 11
126.956528
 21
60.869568
  0
POLYLINE
  8
0
 62
     5
 66
     1
 70
     2
  0
VERTEX
  8
0
 10
127.826088
 20
77.826088
  0
VERTEX
  8
0
 10
126.956528
 20
80.869568
  0
VERTEX
  8
0
 10
126.086960
 20
77.826088
  0
SEQEND
  0
POLYLINE
  8
0
 62
     5
 66
     1
 70
     2
  0
VERTEX
  8
0
 10
126.086960
 20
63.913048
  0
VERTEX
  8
0
 10
126.956528
 20
60.869568
  0
VERTEX
  8
0
 10
127.826088
 20
63.913048
  0
SEQEND
  0
LINE
  8
0
 62
     5
 10
90.434784
 20
80.869568
 11
128.260864
 21
80.869568
  0
LINE
  8
0
 62
     5
 10
90.434784
 20
60.869568
 11
128.260864
 21
60.869568
  0
TEXT
  8
0
 62
     7
 10
126.086960
 20
65.760872
 40
4.347826
 41
1.000000
  1
%%c20
  7
KANJI
 50
90.000000
 51
0.000000
  0
LINE
  8
0
 62
     5
 10
113.043480
 20
61.652176
 11
113.043480
 21
80.086960
  0
POLYLINE
  8
0
 62
     5
 66
     1
 70
     2
  0
VERTEX
  8
0
 10
112.173920
 20
77.913048
  0
VERTEX
  8
0
 10
113.043480
 20
74.869568
  0
VERTEX
  8
0
 10
113.913040
 20
77.913048
  0
SEQEND
  0
POLYLINE
  8
0
 62
     5
 66
     1
 70
     2
  0
VERTEX
  8
0
 10
113.913040
 20
63.826088
  0
VERTEX
  8
0
 10
113.043480
 20
66.869568
  0
VERTEX
  8
0
 10
112.173920
 20
63.826088
  0
SEQEND
  0
LINE
  8
0
 62
     5
 10
90.434784
 20
74.869568
 11
114.347824
 21
74.869568
  0
LINE
  8
0
 62
     5
 10
90.434784
 20
66.869568
 11
114.347824
 21
66.869568
  0
TEXT
  8
0
 62
     7
 10
112.173920
 20
64.347832
 40
4.347826
 41
1.000000
  1
%%c8H7
  7
KANJI
 50
90.000000
 51
0.000000
  0
POLYLINE
  8
0
 62
     4
 66
     1
 70
     2
  0
VERTEX
  8
0
 10
70.434784
 20
66.369568
  0
VERTEX
  8
0
 10
70.434784
 20
55.369568
  0
VERTEX
  8
0
 10
70.934784
 20
54.869568
  0
VERTEX
  8
0
 10
79.934784
 20
54.869568
  0
VERTEX
  8
0
 10
80.434784
 20
55.369568
  0
VERTEX
  8
0
 10
80.434784
 20
59.869568
  0
SEQEND
  0
POLYLINE
  8
0
 62
     4
 66
     1
 70
     2
  0
VERTEX
  8
0
 10
81.434784
 20
60.869568
  0
VERTEX
  8
0
 10
89.934784
 20
60.869568
  0
VERTEX
  8
0
 10
90.434784
 20
61.369568
  0
VERTEX
  8
0
 10
90.434784
 20
80.369568
  0
VERTEX
  8
0
 10
89.934784
 20
80.869568
  0
VERTEX
  8
0
 10
81.434784
 20
80.869568
  0
SEQEND
  0
POLYLINE
  8
0
 62
     4
 66
     1
 70
     2
  0
VERTEX
  8
0
 10
80.434784
 20
81.869568
  0
VERTEX
  8
0
 10
80.434784
 20
86.369568
  0
VERTEX
  8
0
 10
79.934784
 20
86.869568
  0
VERTEX
  8
0
 10
70.934784
 20
86.869568
  0
VERTEX
  8
0
 10
70.434784
 20
86.369568
  0
VERTEX
  8
0
 10
70.434784
 20
66.369568
  0
SEQEND
  0
ENDSEC
  0
EOF
