  0
SECTION
  2
HEADER
  9
$ACADVER
  1
AC1003
  9
$INSBASE
 10
0.000000
 20
0.000000
  9
$EXTMIN
 10
0.000000
 20
0.000000
  9
$EXTMAX
 10
410.739130
 20
284.021739
  9
$LIMMIN
 10
0.000000
 20
0.000000
  9
$LIMMAX
 10
410.739130
 20
284.021739
  9
$VIEWCTR
 10
205.369565
 20
142.010870
  9
$VIEWSIZE
 40
284.021739
  0
ENDSEC
  0
SECTION
  2
TABLES
  0
TABLE
  2
LTYPE
 70
     4
  0
LTYPE
  2
CONTINUOUS
 70
    64
  3
SolidLine
 72
    65
 73
     0
 40
0.0
  0
LTYPE
  2
HIDDEN
 70
    64
  3
------------------------
 72
    65
 73
     2
 40
4.369565
 49
2.913043
 49
-1.456522
  0
LTYPE
  2
DASHDOT
 70
    64
  3
--?--?--?--?--?--?--?--
 72
    65
 73
     4
 40
17.478261
 49
13.108696
 49
-1.456522
 49
1.456522
 49
-1.456522
  0
LTYPE
  2
DIVIDE
 70
    64
  3
--??--??--??--??--??--
 72
    65
 73
     6
 40
21.847826
 49
14.565217
 49
-1.456522
 49
1.456522
 49
-1.456522
 49
1.456522
 49
-1.456522
  0
ENDTAB
  0
TABLE
  2
LAYER
 70
     5
  0
LAYER
  2
0
 70
    64
 62
     7
  6
CONTINUOUS
  0
LAYER
  2
HIDDEN
 70
    64
 62
     2
  6
HIDDEN
  0
LAYER
  2
DASHDOT
 70
    64
 62
     6
  6
DASHDOT
  0
LAYER
  2
DIVIDE
 70
    64
 62
     5
  6
DIVIDE
  0
ENDTAB
  0
TABLE
  2
STYLE
 70
     1
  0
STYLE
  2
STANDARD
 70
    64
 40
0.0
 41
1.0
 50
0.0
 71
     0
 42
0.2
  3
TXT
  4

  0
STYLE
  2
KANJI
 70
    64
 40
0.0
 41
1.0
 50
0.0
 71
     0
 42
0.2
  3
TXT
  4
BIGFONT
  0
ENDTAB
  0
TABLE
  2
VIEW
 70
     0
  0
ENDTAB
  0
ENDSEC
  0
SECTION
  2
BLOCKS
  0
ENDSEC
  0
SECTION
  2
ENTITIES
  0
TEXT
  8
0
 62
     7
 10
14.565217
 20
16.021740
 40
5.826087
 41
1.000000
  1
KHK NSU1.5-50
  7
KANJI
 50
0.000000
 51
0.000000
  0
TEXT
  8
0
 62
     7
 10
14.565217
 20
7.282609
 40
5.826087
 41
1.000000
  1

  7
KANJI
 50
0.000000
 51
0.000000
  0
TEXT
  8
0
 62
     7
 10
14.565217
 20
262.173920
 40
6.554348
 41
1.000000
  1

  7
KANJI
 50
0.000000
 51
0.000000
  0
POLYLINE
  8
0
 62
     7
 66
     1
 70
     2
  0
VERTEX
  8
0
 10
349.565216
 20
262.173920
  0
VERTEX
  8
0
 10
343.884796
 20
272.020020
  0
VERTEX
  8
0
 10
366.606506
 20
272.020020
  0
VERTEX
  8
0
 10
360.926086
 20
262.173920
  0
VERTEX
  8
0
 10
355.245636
 20
272.020020
  0
VERTEX
  8
0
 10
349.565216
 20
262.173920
  0
SEQEND
  0
LINE
  8
0
 62
     5
 10
217.804352
 20
157.706512
 11
217.804352
 21
79.706512
  0
POLYLINE
  8
0
 62
     5
 66
     1
 70
     2
  0
VERTEX
  8
0
 10
219.260864
 20
152.608688
  0
VERTEX
  8
0
 10
217.804352
 20
157.706512
  0
VERTEX
  8
0
 10
216.347839
 20
152.608688
  0
SEQEND
  0
POLYLINE
  8
0
 62
     5
 66
     1
 70
     2
  0
VERTEX
  8
0
 10
216.347839
 20
84.804337
  0
VERTEX
  8
0
 10
217.804352
 20
79.706512
  0
VERTEX
  8
0
 10
219.260864
 20
84.804337
  0
SEQEND
  0
LINE
  8
0
 62
     5
 10
144.978271
 20
157.706512
 11
219.989136
 21
157.706512
  0
LINE
  8
0
 62
     5
 10
144.978271
 20
79.706512
 11
219.989136
 21
79.706512
  0
TEXT
  8
0
 62
     7
 10
216.347839
 20
110.149445
 40
7.282609
 41
1.000000
  1
%%c78
  7
KANJI
 50
90.000000
 51
0.000000
  0
LINE
  8
DASHDOT
 62
     7
 10
113.608696
 20
156.206512
 11
137.347824
 21
156.206512
  0
LINE
  8
DASHDOT
 62
     7
 10
113.608696
 20
81.206512
 11
137.347824
 21
81.206512
  0
LINE
  8
DASHDOT
 62
     7
 10
113.608696
 20
118.706512
 11
149.347824
 21
118.706512
  0
LINE
  8
0
 62
     5
 10
132.978271
 20
157.206512
 11
132.978271
 21
157.706512
  0
LINE
  8
0
 62
     5
 10
117.978264
 20
157.206512
 11
117.978264
 21
157.706512
  0
LINE
  8
0
 62
     5
 10
133.978271
 20
138.706512
 11
144.978271
 21
138.706512
  0
LINE
  8
0
 62
     5
 10
133.978271
 20
98.706512
 11
144.978271
 21
98.706512
  0
LINE
  8
0
 62
     5
 10
132.478271
 20
157.706512
 11
144.978271
 21
157.706512
  0
LINE
  8
0
 62
     5
 10
132.478271
 20
79.706512
 11
144.978271
 21
79.706512
  0
LINE
  8
0
 62
     4
 10
117.978264
 20
154.331512
 11
132.978271
 21
154.331512
  0
LINE
  8
0
 62
     4
 10
117.978264
 20
83.081512
 11
132.978271
 21
83.081512
  0
LINE
  8
0
 62
     4
 10
144.478271
 20
112.706512
 11
144.978271
 21
112.206512
  0
LINE
  8
0
 62
     4
 10
144.478271
 20
124.706512
 11
144.978271
 21
125.206512
  0
LINE
  8
0
 62
     4
 10
118.478264
 20
124.706512
 11
118.478264
 21
112.706512
  0
POLYLINE
  8
0
 62
     4
 66
     1
 70
     2
  0
VERTEX
  8
0
 10
117.978264
 20
112.206512
  0
VERTEX
  8
0
 10
118.478264
 20
112.706512
  0
VERTEX
  8
0
 10
144.478271
 20
112.706512
  0
VERTEX
  8
0
 10
144.478271
 20
124.706512
  0
VERTEX
  8
0
 10
118.478264
 20
124.706512
  0
VERTEX
  8
0
 10
117.978264
 20
125.206512
  0
SEQEND
  0
LINE
  8
0
 62
     5
 10
125.478264
 20
147.769012
 11
93.172417
 21
176.932953
  0
CIRCLE
  8
0
 62
     5
 10
125.478264
 20
147.769012
 40
0.436957
  0
CIRCLE
  8
0
 62
     5
 10
88.847832
 20
180.836945
 40
5.826087
  0
TEXT
  8
0
 62
     7
 10
84.963776
 20
176.952896
 40
7.768116
 41
1.000000
  1
1
  7
KANJI
 50
0.000000
 51
0.000000
  0
LINE
  8
0
 62
     5
 10
125.478264
 20
104.456512
 11
93.230698
 21
76.214539
  0
CIRCLE
  8
0
 62
     5
 10
125.478264
 20
104.456512
 40
0.436957
  0
CIRCLE
  8
0
 62
     5
 10
88.847832
 20
72.376083
 40
5.826087
  0
TEXT
  8
0
 62
     7
 10
84.963776
 20
68.492020
 40
7.768116
 41
1.000000
  1
2
  7
KANJI
 50
0.000000
 51
0.000000
  0
LINE
  8
0
 62
     4
 10
117.978264
 20
96.206512
 11
132.978271
 21
96.206512
  0
LINE
  8
0
 62
     4
 10
117.978264
 20
141.206512
 11
132.978271
 21
141.206512
  0
LINE
  8
0
 62
     5
 10
53.891304
 20
96.206512
 11
53.891304
 21
141.206512
  0
POLYLINE
  8
0
 62
     5
 66
     1
 70
     2
  0
VERTEX
  8
0
 10
52.434784
 20
101.304337
  0
VERTEX
  8
0
 10
53.891304
 20
96.206512
  0
VERTEX
  8
0
 10
55.347824
 20
101.304337
  0
SEQEND
  0
POLYLINE
  8
0
 62
     5
 66
     1
 70
     2
  0
VERTEX
  8
0
 10
55.347824
 20
136.108688
  0
VERTEX
  8
0
 10
53.891304
 20
141.206512
  0
VERTEX
  8
0
 10
52.434784
 20
136.108688
  0
SEQEND
  0
LINE
  8
0
 62
     5
 10
117.978264
 20
96.206512
 11
51.706520
 21
96.206512
  0
LINE
  8
0
 62
     5
 10
117.978264
 20
141.206512
 11
51.706520
 21
141.206512
  0
TEXT
  8
0
 62
     7
 10
50.978264
 20
110.149445
 40
7.282609
 41
1.000000
  1
%%c45
  7
KANJI
 50
90.000000
 51
0.000000
  0
ARC
  8
0
 62
     4
 10
133.978271
 20
139.706512
 40
1.000000
 50
180.0
 51
270.0
  0
ARC
  8
0
 62
     4
 10
133.978271
 20
97.706512
 40
1.000000
 50
90.0
 51
180.0
  0
LINE
  8
0
 62
     5
 10
144.978271
 20
138.206512
 11
144.978271
 21
157.706512
  0
LINE
  8
0
 62
     5
 10
117.978264
 20
197.032593
 11
132.978271
 21
197.032593
  0
POLYLINE
  8
0
 62
     5
 66
     1
 70
     2
  0
VERTEX
  8
0
 10
123.076088
 20
198.489120
  0
VERTEX
  8
0
 10
117.978264
 20
197.032593
  0
VERTEX
  8
0
 10
123.076088
 20
195.576080
  0
SEQEND
  0
POLYLINE
  8
0
 62
     5
 66
     1
 70
     2
  0
VERTEX
  8
0
 10
127.880440
 20
195.576080
  0
VERTEX
  8
0
 10
132.978271
 20
197.032593
  0
VERTEX
  8
0
 10
127.880440
 20
198.489120
  0
SEQEND
  0
LINE
  8
0
 62
     5
 10
132.978271
 20
157.706512
 11
132.978271
 21
199.217377
  0
TEXT
  8
0
 62
     7
 10
120.744568
 20
198.197815
 40
7.282609
 41
1.000000
  1
15
  7
KANJI
 50
0.000000
 51
0.000000
  0
LINE
  8
0
 62
     5
 10
117.978264
 20
208.684769
 11
144.978271
 21
208.684769
  0
POLYLINE
  8
0
 62
     5
 66
     1
 70
     2
  0
VERTEX
  8
0
 10
123.076088
 20
210.141296
  0
VERTEX
  8
0
 10
117.978264
 20
208.684769
  0
VERTEX
  8
0
 10
123.076088
 20
207.228241
  0
SEQEND
  0
POLYLINE
  8
0
 62
     5
 66
     1
 70
     2
  0
VERTEX
  8
0
 10
139.880432
 20
207.228241
  0
VERTEX
  8
0
 10
144.978271
 20
208.684769
  0
VERTEX
  8
0
 10
139.880432
 20
210.141296
  0
SEQEND
  0
LINE
  8
0
 62
     5
 10
117.978264
 20
157.706512
 11
117.978264
 21
210.869553
  0
LINE
  8
0
 62
     5
 10
144.978271
 20
157.706512
 11
144.978271
 21
210.869553
  0
TEXT
  8
0
 62
     7
 10
126.744568
 20
209.849976
 40
7.282609
 41
1.000000
  1
27
  7
KANJI
 50
0.000000
 51
0.000000
  0
LINE
  8
0
 62
     5
 10
153.717392
 20
197.032593
 11
124.239136
 21
197.032593
  0
POLYLINE
  8
0
 62
     5
 66
     1
 70
     2
  0
VERTEX
  8
0
 10
127.880440
 20
195.576080
  0
VERTEX
  8
0
 10
132.978271
 20
197.032593
  0
VERTEX
  8
0
 10
127.880440
 20
198.489120
  0
SEQEND
  0
POLYLINE
  8
0
 62
     5
 66
     1
 70
     2
  0
VERTEX
  8
0
 10
150.076080
 20
198.489120
  0
VERTEX
  8
0
 10
144.978271
 20
197.032593
  0
VERTEX
  8
0
 10
150.076080
 20
195.576080
  0
SEQEND
  0
TEXT
  8
0
 62
     7
 10
134.244568
 20
198.197815
 40
7.282609
 41
1.000000
  1
12
  7
KANJI
 50
0.000000
 51
0.000000
  0
LINE
  8
0
 62
     5
 10
206.152176
 20
138.706512
 11
206.152176
 21
98.706512
  0
POLYLINE
  8
0
 62
     5
 66
     1
 70
     2
  0
VERTEX
  8
0
 10
207.608704
 20
133.608688
  0
VERTEX
  8
0
 10
206.152176
 20
138.706512
  0
VERTEX
  8
0
 10
204.695648
 20
133.608688
  0
SEQEND
  0
POLYLINE
  8
0
 62
     5
 66
     1
 70
     2
  0
VERTEX
  8
0
 10
204.695648
 20
103.804337
  0
VERTEX
  8
0
 10
206.152176
 20
98.706512
  0
VERTEX
  8
0
 10
207.608704
 20
103.804337
  0
SEQEND
  0
LINE
  8
0
 62
     5
 10
144.978271
 20
138.706512
 11
208.336960
 21
138.706512
  0
LINE
  8
0
 62
     5
 10
144.978271
 20
98.706512
 11
208.336960
 21
98.706512
  0
TEXT
  8
0
 62
     7
 10
204.695648
 20
110.149445
 40
7.282609
 41
1.000000
  1
%%c40
  7
KANJI
 50
90.000000
 51
0.000000
  0
LINE
  8
0
 62
     5
 10
182.847839
 20
103.967384
 11
182.847839
 21
133.445648
  0
POLYLINE
  8
0
 62
     5
 66
     1
 70
     2
  0
VERTEX
  8
0
 10
181.391312
 20
129.804337
  0
VERTEX
  8
0
 10
182.847839
 20
124.706512
  0
VERTEX
  8
0
 10
184.304352
 20
129.804337
  0
SEQEND
  0
POLYLINE
  8
0
 62
     5
 66
     1
 70
     2
  0
VERTEX
  8
0
 10
184.304352
 20
107.608688
  0
VERTEX
  8
0
 10
182.847839
 20
112.706512
  0
VERTEX
  8
0
 10
181.391312
 20
107.608688
  0
SEQEND
  0
LINE
  8
0
 62
     5
 10
144.978271
 20
124.706512
 11
185.032623
 21
124.706512
  0
LINE
  8
0
 62
     5
 10
144.978271
 20
112.706512
 11
185.032623
 21
112.706512
  0
TEXT
  8
0
 62
     7
 10
181.391312
 20
105.415756
 40
7.282609
 41
1.000000
  1
%%c12H7
  7
KANJI
 50
90.000000
 51
0.000000
  0
POLYLINE
  8
0
 62
     4
 66
     1
 70
     2
  0
VERTEX
  8
0
 10
117.978264
 20
112.206512
  0
VERTEX
  8
0
 10
117.978264
 20
80.206512
  0
VERTEX
  8
0
 10
118.478264
 20
79.706512
  0
VERTEX
  8
0
 10
132.478271
 20
79.706512
  0
VERTEX
  8
0
 10
132.978271
 20
80.206512
  0
VERTEX
  8
0
 10
132.978271
 20
97.706512
  0
SEQEND
  0
POLYLINE
  8
0
 62
     4
 66
     1
 70
     2
  0
VERTEX
  8
0
 10
133.978271
 20
98.706512
  0
VERTEX
  8
0
 10
144.478271
 20
98.706512
  0
VERTEX
  8
0
 10
144.978271
 20
99.206512
  0
VERTEX
  8
0
 10
144.978271
 20
138.206512
  0
VERTEX
  8
0
 10
144.478271
 20
138.706512
  0
VERTEX
  8
0
 10
133.978271
 20
138.706512
  0
SEQEND
  0
POLYLINE
  8
0
 62
     4
 66
     1
 70
     2
  0
VERTEX
  8
0
 10
132.978271
 20
139.706512
  0
VERTEX
  8
0
 10
132.978271
 20
157.206512
  0
VERTEX
  8
0
 10
132.478271
 20
157.706512
  0
VERTEX
  8
0
 10
118.478264
 20
157.706512
  0
VERTEX
  8
0
 10
117.978264
 20
157.206512
  0
VERTEX
  8
0
 10
117.978264
 20
112.206512
  0
SEQEND
  0
ENDSEC
  0
EOF
