  0
SECTION
  2
HEADER
  9
$ACADVER
  1
AC1003
  9
$INSBASE
 10
0.000000
 20
0.000000
  9
$EXTMIN
 10
0.000000
 20
0.000000
  9
$EXTMAX
 10
521.086957
 20
360.326087
  9
$LIMMIN
 10
0.000000
 20
0.000000
  9
$LIMMAX
 10
521.086957
 20
360.326087
  9
$VIEWCTR
 10
260.543478
 20
180.163043
  9
$VIEWSIZE
 40
360.326087
  0
ENDSEC
  0
SECTION
  2
TABLES
  0
TABLE
  2
LTYPE
 70
     4
  0
LTYPE
  2
CONTINUOUS
 70
    64
  3
SolidLine
 72
    65
 73
     0
 40
0.0
  0
LTYPE
  2
HIDDEN
 70
    64
  3
------------------------
 72
    65
 73
     2
 40
5.543478
 49
3.695652
 49
-1.847826
  0
LTYPE
  2
DASHDOT
 70
    64
  3
--?--?--?--?--?--?--?--
 72
    65
 73
     4
 40
22.173913
 49
16.630435
 49
-1.847826
 49
1.847826
 49
-1.847826
  0
LTYPE
  2
DIVIDE
 70
    64
  3
--??--??--??--??--??--
 72
    65
 73
     6
 40
27.717391
 49
18.478261
 49
-1.847826
 49
1.847826
 49
-1.847826
 49
1.847826
 49
-1.847826
  0
ENDTAB
  0
TABLE
  2
LAYER
 70
     5
  0
LAYER
  2
0
 70
    64
 62
     7
  6
CONTINUOUS
  0
LAYER
  2
HIDDEN
 70
    64
 62
     2
  6
HIDDEN
  0
LAYER
  2
DASHDOT
 70
    64
 62
     6
  6
DASHDOT
  0
LAYER
  2
DIVIDE
 70
    64
 62
     5
  6
DIVIDE
  0
ENDTAB
  0
TABLE
  2
STYLE
 70
     1
  0
STYLE
  2
STANDARD
 70
    64
 40
0.0
 41
1.0
 50
0.0
 71
     0
 42
0.2
  3
TXT
  4

  0
STYLE
  2
KANJI
 70
    64
 40
0.0
 41
1.0
 50
0.0
 71
     0
 42
0.2
  3
TXT
  4
BIGFONT
  0
ENDTAB
  0
TABLE
  2
VIEW
 70
     0
  0
ENDTAB
  0
ENDSEC
  0
SECTION
  2
BLOCKS
  0
ENDSEC
  0
SECTION
  2
ENTITIES
  0
TEXT
  8
0
 62
     7
 10
18.478260
 20
20.326086
 40
7.391304
 41
1.000000
  1
KHK NSU2.5-30
  7
KANJI
 50
0.000000
 51
0.000000
  0
TEXT
  8
0
 62
     7
 10
18.478260
 20
9.239130
 40
7.391304
 41
1.000000
  1

  7
KANJI
 50
0.000000
 51
0.000000
  0
TEXT
  8
0
 62
     7
 10
18.478260
 20
332.608704
 40
8.315217
 41
1.000000
  1

  7
KANJI
 50
0.000000
 51
0.000000
  0
POLYLINE
  8
0
 62
     7
 66
     1
 70
     2
  0
VERTEX
  8
0
 10
443.478271
 20
332.608704
  0
VERTEX
  8
0
 10
436.271759
 20
345.100006
  0
VERTEX
  8
0
 10
465.097839
 20
345.100006
  0
VERTEX
  8
0
 10
457.891327
 20
332.608704
  0
VERTEX
  8
0
 10
450.684784
 20
345.100006
  0
VERTEX
  8
0
 10
443.478271
 20
332.608704
  0
SEQEND
  0
LINE
  8
0
 62
     5
 10
282.065216
 20
190.597824
 11
282.065216
 21
110.597824
  0
POLYLINE
  8
0
 62
     5
 66
     1
 70
     2
  0
VERTEX
  8
0
 10
283.913025
 20
184.130432
  0
VERTEX
  8
0
 10
282.065216
 20
190.597824
  0
VERTEX
  8
0
 10
280.217407
 20
184.130432
  0
SEQEND
  0
POLYLINE
  8
0
 62
     5
 66
     1
 70
     2
  0
VERTEX
  8
0
 10
280.217407
 20
117.065216
  0
VERTEX
  8
0
 10
282.065216
 20
110.597824
  0
VERTEX
  8
0
 10
283.913025
 20
117.065216
  0
SEQEND
  0
LINE
  8
0
 62
     5
 10
189.673920
 20
190.597824
 11
284.836975
 21
190.597824
  0
LINE
  8
0
 62
     5
 10
189.673920
 20
110.597824
 11
284.836975
 21
110.597824
  0
TEXT
  8
0
 62
     7
 10
280.217407
 20
139.741852
 40
9.239130
 41
1.000000
  1
%%c80
  7
KANJI
 50
90.000000
 51
0.000000
  0
LINE
  8
DASHDOT
 62
     7
 10
144.130447
 20
188.097824
 11
180.217392
 21
188.097824
  0
LINE
  8
DASHDOT
 62
     7
 10
144.130447
 20
113.097824
 11
180.217392
 21
113.097824
  0
LINE
  8
DASHDOT
 62
     7
 10
144.130447
 20
150.597824
 11
195.217407
 21
150.597824
  0
LINE
  8
0
 62
     5
 10
174.673920
 20
189.597824
 11
174.673920
 21
190.597824
  0
LINE
  8
0
 62
     5
 10
149.673920
 20
189.597824
 11
149.673920
 21
190.597824
  0
LINE
  8
0
 62
     5
 10
175.673920
 20
173.097824
 11
189.673920
 21
173.097824
  0
LINE
  8
0
 62
     5
 10
175.673920
 20
128.097824
 11
189.673920
 21
128.097824
  0
LINE
  8
0
 62
     5
 10
173.673920
 20
190.597824
 11
189.673920
 21
190.597824
  0
LINE
  8
0
 62
     5
 10
173.673920
 20
110.597824
 11
189.673920
 21
110.597824
  0
LINE
  8
0
 62
     4
 10
149.673920
 20
184.972824
 11
174.673920
 21
184.972824
  0
LINE
  8
0
 62
     4
 10
149.673920
 20
116.222824
 11
174.673920
 21
116.222824
  0
LINE
  8
0
 62
     4
 10
189.173920
 20
144.597824
 11
189.673920
 21
144.097824
  0
LINE
  8
0
 62
     4
 10
189.173920
 20
156.597824
 11
189.673920
 21
157.097824
  0
LINE
  8
0
 62
     4
 10
150.173920
 20
156.597824
 11
150.173920
 21
144.597824
  0
POLYLINE
  8
0
 62
     4
 66
     1
 70
     2
  0
VERTEX
  8
0
 10
149.673920
 20
144.097824
  0
VERTEX
  8
0
 10
150.173920
 20
144.597824
  0
VERTEX
  8
0
 10
189.173920
 20
144.597824
  0
VERTEX
  8
0
 10
189.173920
 20
156.597824
  0
VERTEX
  8
0
 10
150.173920
 20
156.597824
  0
VERTEX
  8
0
 10
149.673920
 20
157.097824
  0
SEQEND
  0
LINE
  8
0
 62
     5
 10
162.173920
 20
180.285324
 11
118.477440
 21
215.422577
  0
CIRCLE
  8
0
 62
     5
 10
162.173920
 20
180.285324
 40
0.554348
  0
CIRCLE
  8
0
 62
     5
 10
112.717400
 20
220.054352
 40
7.391304
  0
TEXT
  8
0
 62
     7
 10
107.789864
 20
215.126801
 40
9.855072
 41
1.000000
  1
1
  7
KANJI
 50
0.000000
 51
0.000000
  0
LINE
  8
0
 62
     5
 10
162.173920
 20
135.097824
 11
118.427071
 21
99.135025
  0
CIRCLE
  8
0
 62
     5
 10
162.173920
 20
135.097824
 40
0.554348
  0
CIRCLE
  8
0
 62
     5
 10
112.717400
 20
94.441299
 40
7.391304
  0
TEXT
  8
0
 62
     7
 10
107.789864
 20
89.513763
 40
9.855072
 41
1.000000
  1
2
  7
KANJI
 50
0.000000
 51
0.000000
  0
LINE
  8
0
 62
     4
 10
149.673920
 20
125.597824
 11
174.673920
 21
125.597824
  0
LINE
  8
0
 62
     4
 10
149.673920
 20
175.597824
 11
174.673920
 21
175.597824
  0
LINE
  8
0
 62
     5
 10
68.369576
 20
125.597824
 11
68.369576
 21
175.597824
  0
POLYLINE
  8
0
 62
     5
 66
     1
 70
     2
  0
VERTEX
  8
0
 10
66.521751
 20
132.065216
  0
VERTEX
  8
0
 10
68.369576
 20
125.597824
  0
VERTEX
  8
0
 10
70.217400
 20
132.065216
  0
SEQEND
  0
POLYLINE
  8
0
 62
     5
 66
     1
 70
     2
  0
VERTEX
  8
0
 10
70.217400
 20
169.130432
  0
VERTEX
  8
0
 10
68.369576
 20
175.597824
  0
VERTEX
  8
0
 10
66.521751
 20
169.130432
  0
SEQEND
  0
LINE
  8
0
 62
     5
 10
149.673920
 20
125.597824
 11
65.597839
 21
125.597824
  0
LINE
  8
0
 62
     5
 10
149.673920
 20
175.597824
 11
65.597839
 21
175.597824
  0
TEXT
  8
0
 62
     7
 10
64.673920
 20
139.741852
 40
9.239130
 41
1.000000
  1
%%c50
  7
KANJI
 50
90.000000
 51
0.000000
  0
ARC
  8
0
 62
     4
 10
175.673920
 20
174.097824
 40
1.000000
 50
180.0
 51
270.0
  0
ARC
  8
0
 62
     4
 10
175.673920
 20
127.097824
 40
1.000000
 50
90.0
 51
180.0
  0
LINE
  8
0
 62
     5
 10
189.673920
 20
172.097824
 11
189.673920
 21
190.597824
  0
LINE
  8
0
 62
     5
 10
149.673920
 20
240.489136
 11
174.673920
 21
240.489136
  0
POLYLINE
  8
0
 62
     5
 66
     1
 70
     2
  0
VERTEX
  8
0
 10
156.141312
 20
242.336945
  0
VERTEX
  8
0
 10
149.673920
 20
240.489136
  0
VERTEX
  8
0
 10
156.141312
 20
238.641296
  0
SEQEND
  0
POLYLINE
  8
0
 62
     5
 66
     1
 70
     2
  0
VERTEX
  8
0
 10
168.206528
 20
238.641296
  0
VERTEX
  8
0
 10
174.673920
 20
240.489136
  0
VERTEX
  8
0
 10
168.206528
 20
242.336945
  0
SEQEND
  0
LINE
  8
0
 62
     5
 10
174.673920
 20
190.597824
 11
174.673920
 21
243.260864
  0
TEXT
  8
0
 62
     7
 10
156.168488
 20
241.967392
 40
9.239130
 41
1.000000
  1
25
  7
KANJI
 50
0.000000
 51
0.000000
  0
LINE
  8
0
 62
     5
 10
149.673920
 20
255.271729
 11
189.673920
 21
255.271729
  0
POLYLINE
  8
0
 62
     5
 66
     1
 70
     2
  0
VERTEX
  8
0
 10
156.141312
 20
257.119568
  0
VERTEX
  8
0
 10
149.673920
 20
255.271729
  0
VERTEX
  8
0
 10
156.141312
 20
253.423920
  0
SEQEND
  0
POLYLINE
  8
0
 62
     5
 66
     1
 70
     2
  0
VERTEX
  8
0
 10
183.206528
 20
253.423920
  0
VERTEX
  8
0
 10
189.673920
 20
255.271729
  0
VERTEX
  8
0
 10
183.206528
 20
257.119568
  0
SEQEND
  0
LINE
  8
0
 62
     5
 10
149.673920
 20
190.597824
 11
149.673920
 21
258.043457
  0
LINE
  8
0
 62
     5
 10
189.673920
 20
190.597824
 11
189.673920
 21
258.043457
  0
TEXT
  8
0
 62
     7
 10
163.668488
 20
256.750000
 40
9.239130
 41
1.000000
  1
40
  7
KANJI
 50
0.000000
 51
0.000000
  0
LINE
  8
0
 62
     5
 10
200.760880
 20
240.489136
 11
163.586960
 21
240.489136
  0
POLYLINE
  8
0
 62
     5
 66
     1
 70
     2
  0
VERTEX
  8
0
 10
168.206528
 20
238.641296
  0
VERTEX
  8
0
 10
174.673920
 20
240.489136
  0
VERTEX
  8
0
 10
168.206528
 20
242.336945
  0
SEQEND
  0
POLYLINE
  8
0
 62
     5
 66
     1
 70
     2
  0
VERTEX
  8
0
 10
196.141312
 20
242.336945
  0
VERTEX
  8
0
 10
189.673920
 20
240.489136
  0
VERTEX
  8
0
 10
196.141312
 20
238.641296
  0
SEQEND
  0
TEXT
  8
0
 62
     7
 10
176.168488
 20
241.967392
 40
9.239130
 41
1.000000
  1
15
  7
KANJI
 50
0.000000
 51
0.000000
  0
LINE
  8
0
 62
     5
 10
267.282623
 20
173.097824
 11
267.282623
 21
128.097824
  0
POLYLINE
  8
0
 62
     5
 66
     1
 70
     2
  0
VERTEX
  8
0
 10
269.130432
 20
166.630432
  0
VERTEX
  8
0
 10
267.282623
 20
173.097824
  0
VERTEX
  8
0
 10
265.434784
 20
166.630432
  0
SEQEND
  0
POLYLINE
  8
0
 62
     5
 66
     1
 70
     2
  0
VERTEX
  8
0
 10
265.434784
 20
134.565216
  0
VERTEX
  8
0
 10
267.282623
 20
128.097824
  0
VERTEX
  8
0
 10
269.130432
 20
134.565216
  0
SEQEND
  0
LINE
  8
0
 62
     5
 10
189.673920
 20
173.097824
 11
270.054352
 21
173.097824
  0
LINE
  8
0
 62
     5
 10
189.673920
 20
128.097824
 11
270.054352
 21
128.097824
  0
TEXT
  8
0
 62
     7
 10
265.434784
 20
139.741852
 40
9.239130
 41
1.000000
  1
%%c45
  7
KANJI
 50
90.000000
 51
0.000000
  0
LINE
  8
0
 62
     5
 10
237.717407
 20
133.510864
 11
237.717407
 21
167.684784
  0
POLYLINE
  8
0
 62
     5
 66
     1
 70
     2
  0
VERTEX
  8
0
 10
235.869568
 20
163.065216
  0
VERTEX
  8
0
 10
237.717407
 20
156.597824
  0
VERTEX
  8
0
 10
239.565216
 20
163.065216
  0
SEQEND
  0
POLYLINE
  8
0
 62
     5
 66
     1
 70
     2
  0
VERTEX
  8
0
 10
239.565216
 20
138.130432
  0
VERTEX
  8
0
 10
237.717407
 20
144.597824
  0
VERTEX
  8
0
 10
235.869568
 20
138.130432
  0
SEQEND
  0
LINE
  8
0
 62
     5
 10
189.673920
 20
156.597824
 11
240.489136
 21
156.597824
  0
LINE
  8
0
 62
     5
 10
189.673920
 20
144.597824
 11
240.489136
 21
144.597824
  0
TEXT
  8
0
 62
     7
 10
235.869568
 20
133.736404
 40
9.239130
 41
1.000000
  1
%%c12H7
  7
KANJI
 50
90.000000
 51
0.000000
  0
POLYLINE
  8
0
 62
     4
 66
     1
 70
     2
  0
VERTEX
  8
0
 10
149.673920
 20
144.097824
  0
VERTEX
  8
0
 10
149.673920
 20
111.597824
  0
VERTEX
  8
0
 10
150.673920
 20
110.597824
  0
VERTEX
  8
0
 10
173.673920
 20
110.597824
  0
VERTEX
  8
0
 10
174.673920
 20
111.597824
  0
VERTEX
  8
0
 10
174.673920
 20
127.097824
  0
SEQEND
  0
POLYLINE
  8
0
 62
     4
 66
     1
 70
     2
  0
VERTEX
  8
0
 10
175.673920
 20
128.097824
  0
VERTEX
  8
0
 10
188.673920
 20
128.097824
  0
VERTEX
  8
0
 10
189.673920
 20
129.097824
  0
VERTEX
  8
0
 10
189.673920
 20
172.097824
  0
VERTEX
  8
0
 10
188.673920
 20
173.097824
  0
VERTEX
  8
0
 10
175.673920
 20
173.097824
  0
SEQEND
  0
POLYLINE
  8
0
 62
     4
 66
     1
 70
     2
  0
VERTEX
  8
0
 10
174.673920
 20
174.097824
  0
VERTEX
  8
0
 10
174.673920
 20
189.597824
  0
VERTEX
  8
0
 10
173.673920
 20
190.597824
  0
VERTEX
  8
0
 10
150.673920
 20
190.597824
  0
VERTEX
  8
0
 10
149.673920
 20
189.597824
  0
VERTEX
  8
0
 10
149.673920
 20
144.097824
  0
SEQEND
  0
ENDSEC
  0
EOF
