  0
SECTION
  2
HEADER
  9
$ACADVER
  1
AC1003
  9
$INSBASE
 10
0.000000
 20
0.000000
  9
$EXTMIN
 10
0.000000
 20
0.000000
  9
$EXTMAX
 10
674.347826
 20
466.304348
  9
$LIMMIN
 10
0.000000
 20
0.000000
  9
$LIMMAX
 10
674.347826
 20
466.304348
  9
$VIEWCTR
 10
337.173913
 20
233.152174
  9
$VIEWSIZE
 40
466.304348
  0
ENDSEC
  0
SECTION
  2
TABLES
  0
TABLE
  2
LTYPE
 70
     4
  0
LTYPE
  2
CONTINUOUS
 70
    64
  3
SolidLine
 72
    65
 73
     0
 40
0.0
  0
LTYPE
  2
HIDDEN
 70
    64
  3
------------------------
 72
    65
 73
     2
 40
7.173913
 49
4.782609
 49
-2.391304
  0
LTYPE
  2
DASHDOT
 70
    64
  3
--?--?--?--?--?--?--?--
 72
    65
 73
     4
 40
28.695652
 49
21.521739
 49
-2.391304
 49
2.391304
 49
-2.391304
  0
LTYPE
  2
DIVIDE
 70
    64
  3
--??--??--??--??--??--
 72
    65
 73
     6
 40
35.869565
 49
23.913043
 49
-2.391304
 49
2.391304
 49
-2.391304
 49
2.391304
 49
-2.391304
  0
ENDTAB
  0
TABLE
  2
LAYER
 70
     5
  0
LAYER
  2
0
 70
    64
 62
     7
  6
CONTINUOUS
  0
LAYER
  2
HIDDEN
 70
    64
 62
     2
  6
HIDDEN
  0
LAYER
  2
DASHDOT
 70
    64
 62
     6
  6
DASHDOT
  0
LAYER
  2
DIVIDE
 70
    64
 62
     5
  6
DIVIDE
  0
ENDTAB
  0
TABLE
  2
STYLE
 70
     1
  0
STYLE
  2
STANDARD
 70
    64
 40
0.0
 41
1.0
 50
0.0
 71
     0
 42
0.2
  3
TXT
  4

  0
STYLE
  2
KANJI
 70
    64
 40
0.0
 41
1.0
 50
0.0
 71
     0
 42
0.2
  3
TXT
  4
BIGFONT
  0
ENDTAB
  0
TABLE
  2
VIEW
 70
     0
  0
ENDTAB
  0
ENDSEC
  0
SECTION
  2
BLOCKS
  0
ENDSEC
  0
SECTION
  2
ENTITIES
  0
TEXT
  8
0
 62
     7
 10
23.913044
 20
26.304348
 40
9.565217
 41
1.000000
  1
KHK NSU2.5-70J35
  7
KANJI
 50
0.000000
 51
0.000000
  0
TEXT
  8
0
 62
     7
 10
23.913044
 20
11.956522
 40
9.565217
 41
1.000000
  1
The precision grade of gears after secondary operations is equivalent but not identical to its original grade.
  7
KANJI
 50
0.000000
 51
0.000000
  0
TEXT
  8
0
 62
     7
 10
23.913044
 20
430.434784
 40
10.760870
 41
1.000000
  1

  7
KANJI
 50
0.000000
 51
0.000000
  0
POLYLINE
  8
0
 62
     7
 66
     1
 70
     2
  0
VERTEX
  8
0
 10
573.913025
 20
430.434784
  0
VERTEX
  8
0
 10
564.586914
 20
446.600006
  0
VERTEX
  8
0
 10
601.891296
 20
446.600006
  0
VERTEX
  8
0
 10
592.565186
 20
430.434784
  0
VERTEX
  8
0
 10
583.239136
 20
446.600006
  0
VERTEX
  8
0
 10
573.913025
 20
430.434784
  0
SEQEND
  0
LINE
  8
0
 62
     5
 10
353.260864
 20
284.891296
 11
353.260864
 21
104.891312
  0
POLYLINE
  8
0
 62
     5
 66
     1
 70
     2
  0
VERTEX
  8
0
 10
355.652191
 20
276.521729
  0
VERTEX
  8
0
 10
353.260864
 20
284.891296
  0
VERTEX
  8
0
 10
350.869568
 20
276.521729
  0
SEQEND
  0
POLYLINE
  8
0
 62
     5
 66
     1
 70
     2
  0
VERTEX
  8
0
 10
350.869568
 20
113.260880
  0
VERTEX
  8
0
 10
353.260864
 20
104.891312
  0
VERTEX
  8
0
 10
355.652191
 20
113.260880
  0
SEQEND
  0
LINE
  8
0
 62
     5
 10
233.695663
 20
284.891296
 11
356.847839
 21
284.891296
  0
LINE
  8
0
 62
     5
 10
233.695663
 20
104.891312
 11
356.847839
 21
104.891312
  0
TEXT
  8
0
 62
     7
 10
350.869568
 20
176.956528
 40
11.956522
 41
1.000000
  1
%%c180
  7
KANJI
 50
90.000000
 51
0.000000
  0
LINE
  8
DASHDOT
 62
     7
 10
186.521744
 20
282.391296
 11
225.869568
 21
282.391296
  0
LINE
  8
DASHDOT
 62
     7
 10
186.521744
 20
107.391312
 11
225.869568
 21
107.391312
  0
LINE
  8
DASHDOT
 62
     7
 10
186.521744
 20
194.891312
 11
240.869568
 21
194.891312
  0
LINE
  8
0
 62
     5
 10
218.695663
 20
283.891296
 11
218.695663
 21
284.891296
  0
LINE
  8
0
 62
     5
 10
193.695663
 20
283.891296
 11
193.695663
 21
284.891296
  0
LINE
  8
0
 62
     5
 10
220.195663
 20
229.891312
 11
233.695663
 21
229.891312
  0
LINE
  8
0
 62
     5
 10
220.195663
 20
159.891312
 11
233.695663
 21
159.891312
  0
LINE
  8
0
 62
     5
 10
217.695663
 20
284.891296
 11
233.695663
 21
284.891296
  0
LINE
  8
0
 62
     5
 10
217.695663
 20
104.891312
 11
233.695663
 21
104.891312
  0
LINE
  8
0
 62
     4
 10
193.695663
 20
279.266296
 11
218.695663
 21
279.266296
  0
LINE
  8
0
 62
     4
 10
193.695663
 20
110.516312
 11
218.695663
 21
110.516312
  0
LINE
  8
0
 62
     4
 10
232.695663
 20
177.391312
 11
233.695663
 21
176.391312
  0
LINE
  8
0
 62
     4
 10
232.695663
 20
212.391312
 11
233.695663
 21
213.391312
  0
LINE
  8
0
 62
     4
 10
194.695663
 20
212.391312
 11
194.695663
 21
177.391312
  0
POLYLINE
  8
0
 62
     4
 66
     1
 70
     2
  0
VERTEX
  8
0
 10
193.695663
 20
176.391312
  0
VERTEX
  8
0
 10
194.695663
 20
177.391312
  0
VERTEX
  8
0
 10
232.695663
 20
177.391312
  0
VERTEX
  8
0
 10
232.695663
 20
212.391312
  0
VERTEX
  8
0
 10
194.695663
 20
212.391312
  0
VERTEX
  8
0
 10
193.695663
 20
213.391312
  0
SEQEND
  0
LINE
  8
0
 62
     5
 10
206.195663
 20
272.078796
 11
153.106445
 21
317.962708
  0
CIRCLE
  8
0
 62
     5
 10
206.195663
 20
272.078796
 40
0.717391
  0
CIRCLE
  8
0
 62
     5
 10
145.869568
 20
324.217407
 40
9.565217
  0
TEXT
  8
0
 62
     7
 10
139.492767
 20
317.840576
 40
12.753623
 41
1.000000
  1
1
  7
KANJI
 50
0.000000
 51
0.000000
  0
LINE
  8
0
 62
     5
 10
206.195663
 20
151.141312
 11
154.108780
 21
120.424126
  0
CIRCLE
  8
0
 62
     5
 10
206.195663
 20
151.141312
 40
0.717391
  0
CIRCLE
  8
0
 62
     5
 10
145.869568
 20
115.565224
 40
9.565217
  0
TEXT
  8
0
 62
     7
 10
139.492767
 20
109.188416
 40
12.753623
 41
1.000000
  1
2
  7
KANJI
 50
0.000000
 51
0.000000
  0
LINE
  8
0
 62
     4
 10
193.695663
 20
124.891312
 11
218.695663
 21
124.891312
  0
LINE
  8
0
 62
     4
 10
193.695663
 20
264.891296
 11
218.695663
 21
264.891296
  0
LINE
  8
0
 62
     5
 10
88.478271
 20
124.891312
 11
88.478271
 21
264.891296
  0
POLYLINE
  8
0
 62
     5
 66
     1
 70
     2
  0
VERTEX
  8
0
 10
86.086967
 20
133.260880
  0
VERTEX
  8
0
 10
88.478271
 20
124.891312
  0
VERTEX
  8
0
 10
90.869576
 20
133.260880
  0
SEQEND
  0
POLYLINE
  8
0
 62
     5
 66
     1
 70
     2
  0
VERTEX
  8
0
 10
90.869576
 20
256.521759
  0
VERTEX
  8
0
 10
88.478271
 20
264.891296
  0
VERTEX
  8
0
 10
86.086967
 20
256.521759
  0
SEQEND
  0
LINE
  8
0
 62
     5
 10
193.695663
 20
124.891312
 11
84.891312
 21
124.891312
  0
LINE
  8
0
 62
     5
 10
193.695663
 20
264.891296
 11
84.891312
 21
264.891296
  0
TEXT
  8
0
 62
     7
 10
83.695663
 20
176.956528
 40
11.956522
 41
1.000000
  1
%%c140
  7
KANJI
 50
90.000000
 51
0.000000
  0
ARC
  8
0
 62
     4
 10
220.195663
 20
231.391312
 40
1.500000
 50
180.0
 51
270.0
  0
ARC
  8
0
 62
     4
 10
220.195663
 20
158.391312
 40
1.500000
 50
90.0
 51
180.0
  0
LINE
  8
0
 62
     5
 10
233.695663
 20
228.891312
 11
233.695663
 21
284.891296
  0
LINE
  8
0
 62
     5
 10
193.695663
 20
349.456543
 11
218.695663
 21
349.456543
  0
POLYLINE
  8
0
 62
     5
 66
     1
 70
     2
  0
VERTEX
  8
0
 10
202.065231
 20
351.847839
  0
VERTEX
  8
0
 10
193.695663
 20
349.456543
  0
VERTEX
  8
0
 10
202.065231
 20
347.065216
  0
SEQEND
  0
POLYLINE
  8
0
 62
     5
 66
     1
 70
     2
  0
VERTEX
  8
0
 10
210.326096
 20
347.065216
  0
VERTEX
  8
0
 10
218.695663
 20
349.456543
  0
VERTEX
  8
0
 10
210.326096
 20
351.847839
  0
SEQEND
  0
LINE
  8
0
 62
     5
 10
218.695663
 20
284.891296
 11
218.695663
 21
353.043488
  0
TEXT
  8
0
 62
     7
 10
198.423920
 20
351.369568
 40
11.956522
 41
1.000000
  1
25
  7
KANJI
 50
0.000000
 51
0.000000
  0
LINE
  8
0
 62
     5
 10
193.695663
 20
368.586975
 11
233.695663
 21
368.586975
  0
POLYLINE
  8
0
 62
     5
 66
     1
 70
     2
  0
VERTEX
  8
0
 10
202.065231
 20
370.978271
  0
VERTEX
  8
0
 10
193.695663
 20
368.586975
  0
VERTEX
  8
0
 10
202.065231
 20
366.195648
  0
SEQEND
  0
POLYLINE
  8
0
 62
     5
 66
     1
 70
     2
  0
VERTEX
  8
0
 10
225.326096
 20
366.195648
  0
VERTEX
  8
0
 10
233.695663
 20
368.586975
  0
VERTEX
  8
0
 10
225.326096
 20
370.978271
  0
SEQEND
  0
LINE
  8
0
 62
     5
 10
193.695663
 20
284.891296
 11
193.695663
 21
372.173920
  0
LINE
  8
0
 62
     5
 10
233.695663
 20
284.891296
 11
233.695663
 21
372.173920
  0
TEXT
  8
0
 62
     7
 10
205.923920
 20
370.500000
 40
11.956522
 41
1.000000
  1
40
  7
KANJI
 50
0.000000
 51
0.000000
  0
LINE
  8
0
 62
     5
 10
248.043488
 20
349.456543
 11
204.347839
 21
349.456543
  0
POLYLINE
  8
0
 62
     5
 66
     1
 70
     2
  0
VERTEX
  8
0
 10
210.326096
 20
347.065216
  0
VERTEX
  8
0
 10
218.695663
 20
349.456543
  0
VERTEX
  8
0
 10
210.326096
 20
351.847839
  0
SEQEND
  0
POLYLINE
  8
0
 62
     5
 66
     1
 70
     2
  0
VERTEX
  8
0
 10
242.065231
 20
351.847839
  0
VERTEX
  8
0
 10
233.695663
 20
349.456543
  0
VERTEX
  8
0
 10
242.065231
 20
347.065216
  0
SEQEND
  0
TEXT
  8
0
 62
     7
 10
240.869568
 20
351.369568
 40
11.956522
 41
1.000000
  1
15
  7
KANJI
 50
0.000000
 51
0.000000
  0
LINE
  8
0
 62
     5
 10
334.130432
 20
229.891312
 11
334.130432
 21
159.891312
  0
POLYLINE
  8
0
 62
     5
 66
     1
 70
     2
  0
VERTEX
  8
0
 10
336.521759
 20
221.521744
  0
VERTEX
  8
0
 10
334.130432
 20
229.891312
  0
VERTEX
  8
0
 10
331.739136
 20
221.521744
  0
SEQEND
  0
POLYLINE
  8
0
 62
     5
 66
     1
 70
     2
  0
VERTEX
  8
0
 10
331.739136
 20
168.260880
  0
VERTEX
  8
0
 10
334.130432
 20
159.891312
  0
VERTEX
  8
0
 10
336.521759
 20
168.260880
  0
SEQEND
  0
LINE
  8
0
 62
     5
 10
233.695663
 20
229.891312
 11
337.717407
 21
229.891312
  0
LINE
  8
0
 62
     5
 10
233.695663
 20
159.891312
 11
337.717407
 21
159.891312
  0
TEXT
  8
0
 62
     7
 10
331.739136
 20
180.842407
 40
11.956522
 41
1.000000
  1
%%c70
  7
KANJI
 50
90.000000
 51
0.000000
  0
LINE
  8
DASHDOT
 62
     7
 10
455.217407
 20
241.847839
 11
455.217407
 21
152.717407
  0
LINE
  8
DASHDOT
 62
     7
 10
413.043488
 20
194.891312
 11
497.391296
 21
194.891312
  0
LINE
  8
0
 62
     5
 10
474.565247
 20
263.369568
 11
435.869568
 21
263.369568
  0
POLYLINE
  8
0
 62
     5
 66
     1
 70
     2
  0
VERTEX
  8
0
 10
441.847839
 20
260.978271
  0
VERTEX
  8
0
 10
450.217407
 20
263.369568
  0
VERTEX
  8
0
 10
441.847839
 20
265.760864
  0
SEQEND
  0
POLYLINE
  8
0
 62
     5
 66
     1
 70
     2
  0
VERTEX
  8
0
 10
468.586975
 20
265.760864
  0
VERTEX
  8
0
 10
460.217407
 20
263.369568
  0
VERTEX
  8
0
 10
468.586975
 20
260.978271
  0
SEQEND
  0
LINE
  8
0
 62
     5
 10
450.217407
 20
215.691315
 11
450.217407
 21
266.956543
  0
LINE
  8
0
 62
     5
 10
460.217407
 20
215.691315
 11
460.217407
 21
266.956543
  0
TEXT
  8
0
 62
     7
 10
424.558502
 20
265.760864
 40
11.956522
 41
1.000000
  1
10
  7
KANJI
 50
0.000000
 51
0.000000
  0
TEXT
  8
0
 62
     7
 10
444.763550
 20
265.760864
 40
9.565217
 41
1.000000
  1
%%p0.018
  7
KANJI
 50
0.000000
 51
0.000000
  0
LINE
  8
0
 62
     5
 10
526.086975
 20
163.043488
 11
526.086975
 21
230.039139
  0
POLYLINE
  8
0
 62
     5
 66
     1
 70
     2
  0
VERTEX
  8
0
 10
523.695679
 20
224.060883
  0
VERTEX
  8
0
 10
526.086975
 20
215.691315
  0
VERTEX
  8
0
 10
528.478271
 20
224.060883
  0
SEQEND
  0
POLYLINE
  8
0
 62
     5
 66
     1
 70
     2
  0
VERTEX
  8
0
 10
528.478271
 20
169.021744
  0
VERTEX
  8
0
 10
526.086975
 20
177.391312
  0
VERTEX
  8
0
 10
523.695679
 20
169.021744
  0
SEQEND
  0
LINE
  8
0
 62
     5
 10
460.217407
 20
215.691315
 11
529.673889
 21
215.691315
  0
LINE
  8
0
 62
     5
 10
455.217407
 20
177.391312
 11
529.673889
 21
177.391312
  0
TEXT
  8
0
 62
     7
 10
522.500000
 20
158.618988
 40
11.956522
 41
1.000000
  1
38.3
  7
KANJI
 50
90.000000
 51
0.000000
  0
TEXT
  8
0
 62
     7
 10
523.217407
 20
210.371536
 40
5.978261
 41
1.000000
  1
 
  7
KANJI
 50
90.000000
 51
0.000000
  0
TEXT
  8
0
 62
     7
 10
515.804321
 20
210.371536
 40
5.978261
 41
1.000000
  1
+
  7
KANJI
 50
90.000000
 51
0.000000
  0
TEXT
  8
0
 62
     7
 10
523.217407
 20
217.067200
 40
5.978261
 41
1.000000
  1
0
  7
KANJI
 50
90.000000
 51
0.000000
  0
TEXT
  8
0
 62
     7
 10
515.804321
 20
217.067200
 40
5.978261
 41
1.000000
  1
0.2
  7
KANJI
 50
90.000000
 51
0.000000
  0
ARC
  8
0
 62
     4
 10
455.217407
 20
194.891312
 40
17.500000
 50
106.60154992625478
 51
73.39845007374521
  0
POLYLINE
  8
0
 62
     4
 66
     1
 70
     2
  0
VERTEX
  8
0
 10
460.217407
 20
211.661819
  0
VERTEX
  8
0
 10
460.217407
 20
215.691315
  0
VERTEX
  8
0
 10
450.217407
 20
215.691315
  0
VERTEX
  8
0
 10
450.217407
 20
211.661819
  0
SEQEND
  0
LINE
  8
0
 62
     4
 10
193.695663
 20
215.691315
 11
233.695663
 21
215.691315
  0
POLYLINE
  8
DASHDOT
 62
     7
 66
     1
 70
     2
  0
VERTEX
  8
DASHDOT
 10
226.195663
 20
237.065216
  0
VERTEX
  8
DASHDOT
 10
226.195663
 20
208.517395
  0
SEQEND
  0
POLYLINE
  8
0
 62
     4
 66
     1
 70
     2
  0
VERTEX
  8
0
 10
230.195663
 20
229.891312
  0
VERTEX
  8
0
 10
230.195663
 20
215.691315
  0
SEQEND
  0
POLYLINE
  8
0
 62
     4
 66
     1
 70
     2
  0
VERTEX
  8
0
 10
222.195663
 20
229.891312
  0
VERTEX
  8
0
 10
222.195663
 20
215.691315
  0
SEQEND
  0
POLYLINE
  8
0
 62
     4
 66
     1
 70
     2
  0
VERTEX
  8
0
 10
229.520660
 20
229.891312
  0
VERTEX
  8
0
 10
229.520660
 20
215.691315
  0
SEQEND
  0
POLYLINE
  8
0
 62
     4
 66
     1
 70
     2
  0
VERTEX
  8
0
 10
222.870667
 20
229.891312
  0
VERTEX
  8
0
 10
222.870667
 20
215.691315
  0
SEQEND
  0
POLYLINE
  8
0
 62
     4
 66
     1
 70
     2
  0
VERTEX
  8
0
 10
451.217407
 20
215.691315
  0
VERTEX
  8
0
 10
451.217407
 20
229.661987
  0
SEQEND
  0
POLYLINE
  8
0
 62
     4
 66
     1
 70
     2
  0
VERTEX
  8
0
 10
459.217407
 20
215.691315
  0
VERTEX
  8
0
 10
459.217407
 20
229.661987
  0
SEQEND
  0
POLYLINE
  8
0
 62
     4
 66
     1
 70
     2
  0
VERTEX
  8
0
 10
451.892395
 20
215.691315
  0
VERTEX
  8
0
 10
451.892395
 20
229.733017
  0
SEQEND
  0
POLYLINE
  8
0
 62
     4
 66
     1
 70
     2
  0
VERTEX
  8
0
 10
458.542419
 20
215.691315
  0
VERTEX
  8
0
 10
458.542419
 20
229.733017
  0
SEQEND
  0
POLYLINE
  8
0
 62
     5
 66
     1
 70
     2
  0
VERTEX
  8
0
 10
455.217407
 20
229.891312
  0
VERTEX
  8
0
 10
412.173920
 20
301.630432
  0
VERTEX
  8
0
 10
438.478271
 20
301.630432
  0
SEQEND
  0
POLYLINE
  8
0
 62
     5
 66
     1
 70
     2
  0
VERTEX
  8
0
 10
448.860779
 20
235.837830
  0
VERTEX
  8
0
 10
455.217407
 20
229.891312
  0
VERTEX
  8
0
 10
452.961792
 20
238.298462
  0
SEQEND
  0
TEXT
  8
0
 62
     7
 10
414.565247
 20
304.021729
 40
11.478261
 41
1.000000
  1
M8
  7
KANJI
 50
0.000000
 51
0.000000
  0
CIRCLE
  8
0
 62
     7
 10
226.195663
 20
194.891312
 40
4.000000
  0
CIRCLE
  8
0
 62
     4
 10
226.195663
 20
194.891312
 40
3.325000
  0
POLYLINE
  8
DASHDOT
 62
     7
 66
     1
 70
     2
  0
VERTEX
  8
DASHDOT
 10
215.021759
 20
194.891312
  0
VERTEX
  8
DASHDOT
 10
237.369568
 20
194.891312
  0
SEQEND
  0
POLYLINE
  8
DASHDOT
 62
     7
 66
     1
 70
     2
  0
VERTEX
  8
DASHDOT
 10
226.195663
 20
183.717392
  0
VERTEX
  8
DASHDOT
 10
226.195663
 20
206.065231
  0
SEQEND
  0
LINE
  8
DASHDOT
 62
     7
 10
226.195663
 20
229.891312
 11
226.195663
 21
194.891312
  0
LINE
  8
0
 62
     5
 10
226.195663
 20
229.891312
 11
226.195663
 21
284.891296
  0
POLYLINE
  8
0
 62
     4
 66
     1
 70
     2
  0
VERTEX
  8
0
 10
472.254089
 20
198.891312
  0
VERTEX
  8
0
 10
489.988098
 20
198.891312
  0
SEQEND
  0
POLYLINE
  8
0
 62
     4
 66
     1
 70
     2
  0
VERTEX
  8
0
 10
472.254089
 20
190.891312
  0
VERTEX
  8
0
 10
489.988098
 20
190.891312
  0
SEQEND
  0
POLYLINE
  8
0
 62
     4
 66
     1
 70
     2
  0
VERTEX
  8
0
 10
472.398621
 20
198.216309
  0
VERTEX
  8
0
 10
490.059082
 20
198.216309
  0
SEQEND
  0
POLYLINE
  8
0
 62
     4
 66
     1
 70
     2
  0
VERTEX
  8
0
 10
472.398621
 20
191.566315
  0
VERTEX
  8
0
 10
490.059082
 20
191.566315
  0
SEQEND
  0
POLYLINE
  8
0
 62
     5
 66
     1
 70
     2
  0
VERTEX
  8
0
 10
490.217407
 20
194.891312
  0
VERTEX
  8
0
 10
526.086975
 20
282.500000
  0
VERTEX
  8
0
 10
491.173889
 20
282.500000
  0
SEQEND
  0
POLYLINE
  8
0
 62
     5
 66
     1
 70
     2
  0
VERTEX
  8
0
 10
491.175598
 20
203.542892
  0
VERTEX
  8
0
 10
490.217407
 20
194.891312
  0
VERTEX
  8
0
 10
495.601624
 20
201.730743
  0
SEQEND
  0
TEXT
  8
0
 62
     7
 10
495.956543
 20
284.891296
 40
11.478261
 41
1.000000
  1
M8
  7
KANJI
 50
0.000000
 51
0.000000
  0
LINE
  8
0
 62
     5
 10
295.869568
 20
212.391312
 11
295.869568
 21
177.391312
  0
POLYLINE
  8
0
 62
     5
 66
     1
 70
     2
  0
VERTEX
  8
0
 10
293.478271
 20
185.760880
  0
VERTEX
  8
0
 10
295.869568
 20
177.391312
  0
VERTEX
  8
0
 10
298.260864
 20
185.760880
  0
SEQEND
  0
LINE
  8
0
 62
     5
 10
233.695663
 20
177.391312
 11
299.456543
 21
177.391312
  0
TEXT
  8
0
 62
     7
 10
293.478271
 20
173.070663
 40
11.956522
 41
1.000000
  1
%%c35H7
  7
KANJI
 50
90.000000
 51
0.000000
  0
POLYLINE
  8
0
 62
     4
 66
     1
 70
     2
  0
VERTEX
  8
0
 10
193.695663
 20
176.391312
  0
VERTEX
  8
0
 10
193.695663
 20
105.891312
  0
VERTEX
  8
0
 10
194.695663
 20
104.891312
  0
VERTEX
  8
0
 10
217.695663
 20
104.891312
  0
VERTEX
  8
0
 10
218.695663
 20
105.891312
  0
VERTEX
  8
0
 10
218.695663
 20
158.391312
  0
SEQEND
  0
POLYLINE
  8
0
 62
     4
 66
     1
 70
     2
  0
VERTEX
  8
0
 10
220.195663
 20
159.891312
  0
VERTEX
  8
0
 10
232.695663
 20
159.891312
  0
VERTEX
  8
0
 10
233.695663
 20
160.891312
  0
VERTEX
  8
0
 10
233.695663
 20
228.891312
  0
VERTEX
  8
0
 10
232.695663
 20
229.891312
  0
VERTEX
  8
0
 10
220.195663
 20
229.891312
  0
SEQEND
  0
POLYLINE
  8
0
 62
     4
 66
     1
 70
     2
  0
VERTEX
  8
0
 10
218.695663
 20
231.391312
  0
VERTEX
  8
0
 10
218.695663
 20
283.891296
  0
VERTEX
  8
0
 10
217.695663
 20
284.891296
  0
VERTEX
  8
0
 10
194.695663
 20
284.891296
  0
VERTEX
  8
0
 10
193.695663
 20
283.891296
  0
VERTEX
  8
0
 10
193.695663
 20
176.391312
  0
SEQEND
  0
CIRCLE
  8
0
 62
     4
 10
455.217407
 20
194.891312
 40
35.000000
  0
LINE
  8
0
 62
     5
 10
248.043488
 20
296.847839
 11
211.847839
 21
296.847839
  0
POLYLINE
  8
0
 62
     5
 66
     1
 70
     2
  0
VERTEX
  8
0
 10
217.826096
 20
294.456543
  0
VERTEX
  8
0
 10
226.195663
 20
296.847839
  0
VERTEX
  8
0
 10
217.826096
 20
299.239136
  0
SEQEND
  0
POLYLINE
  8
0
 62
     5
 66
     1
 70
     2
  0
VERTEX
  8
0
 10
242.065231
 20
299.239136
  0
VERTEX
  8
0
 10
233.695663
 20
296.847839
  0
VERTEX
  8
0
 10
242.065231
 20
294.456543
  0
SEQEND
  0
LINE
  8
0
 62
     5
 10
226.195663
 20
284.891296
 11
226.195663
 21
300.434784
  0
TEXT
  8
0
 62
     7
 10
240.869568
 20
298.760864
 40
11.956522
 41
1.000000
  1
7.5
  7
KANJI
 50
0.000000
 51
0.000000
  0
LINE
  8
0
 62
     5
 10
226.195663
 20
229.891312
 11
226.195663
 21
284.891296
  0
ENDSEC
  0
EOF
