  0
SECTION
  2
HEADER
  9
$ACADVER
  1
AC1003
  9
$INSBASE
 10
0.000000
 20
0.000000
  9
$EXTMIN
 10
0.000000
 20
0.000000
  9
$EXTMAX
 10
324.913043
 20
224.673913
  9
$LIMMIN
 10
0.000000
 20
0.000000
  9
$LIMMAX
 10
324.913043
 20
224.673913
  9
$VIEWCTR
 10
162.456522
 20
112.336957
  9
$VIEWSIZE
 40
224.673913
  0
ENDSEC
  0
SECTION
  2
TABLES
  0
TABLE
  2
LTYPE
 70
     4
  0
LTYPE
  2
CONTINUOUS
 70
    64
  3
SolidLine
 72
    65
 73
     0
 40
0.0
  0
LTYPE
  2
HIDDEN
 70
    64
  3
------------------------
 72
    65
 73
     2
 40
3.456522
 49
2.304348
 49
-1.152174
  0
LTYPE
  2
DASHDOT
 70
    64
  3
--?--?--?--?--?--?--?--
 72
    65
 73
     4
 40
13.826087
 49
10.369565
 49
-1.152174
 49
1.152174
 49
-1.152174
  0
LTYPE
  2
DIVIDE
 70
    64
  3
--??--??--??--??--??--
 72
    65
 73
     6
 40
17.282609
 49
11.521739
 49
-1.152174
 49
1.152174
 49
-1.152174
 49
1.152174
 49
-1.152174
  0
ENDTAB
  0
TABLE
  2
LAYER
 70
     5
  0
LAYER
  2
0
 70
    64
 62
     7
  6
CONTINUOUS
  0
LAYER
  2
HIDDEN
 70
    64
 62
     2
  6
HIDDEN
  0
LAYER
  2
DASHDOT
 70
    64
 62
     6
  6
DASHDOT
  0
LAYER
  2
DIVIDE
 70
    64
 62
     5
  6
DIVIDE
  0
ENDTAB
  0
TABLE
  2
STYLE
 70
     1
  0
STYLE
  2
STANDARD
 70
    64
 40
0.0
 41
1.0
 50
0.0
 71
     0
 42
0.2
  3
TXT
  4

  0
STYLE
  2
KANJI
 70
    64
 40
0.0
 41
1.0
 50
0.0
 71
     0
 42
0.2
  3
TXT
  4
BIGFONT
  0
ENDTAB
  0
TABLE
  2
VIEW
 70
     0
  0
ENDTAB
  0
ENDSEC
  0
SECTION
  2
BLOCKS
  0
ENDSEC
  0
SECTION
  2
ENTITIES
  0
TEXT
  8
0
 62
     7
 10
11.521739
 20
12.673913
 40
4.608696
 41
1.000000
  1
KHK PS1.5-24J10
  7
KANJI
 50
0.000000
 51
0.000000
  0
TEXT
  8
0
 62
     7
 10
11.521739
 20
5.760870
 40
4.608696
 41
1.000000
  1
The precision grade of gears after secondary operations is equivalent but not identical to its original grade.
  7
KANJI
 50
0.000000
 51
0.000000
  0
TEXT
  8
0
 62
     7
 10
11.521739
 20
207.391312
 40
5.184783
 41
1.000000
  1

  7
KANJI
 50
0.000000
 51
0.000000
  0
POLYLINE
  8
0
 62
     7
 66
     1
 70
     2
  0
VERTEX
  8
0
 10
276.521729
 20
207.391312
  0
VERTEX
  8
0
 10
272.028259
 20
215.180008
  0
VERTEX
  8
0
 10
290.002167
 20
215.180008
  0
VERTEX
  8
0
 10
285.508698
 20
207.391312
  0
VERTEX
  8
0
 10
281.015198
 20
215.180008
  0
VERTEX
  8
0
 10
276.521729
 20
207.391312
  0
SEQEND
  0
LINE
  8
0
 62
     5
 10
175.934784
 20
113.402176
 11
175.934784
 21
74.402176
  0
POLYLINE
  8
0
 62
     5
 66
     1
 70
     2
  0
VERTEX
  8
0
 10
177.086975
 20
109.369568
  0
VERTEX
  8
0
 10
175.934784
 20
113.402176
  0
VERTEX
  8
0
 10
174.782623
 20
109.369568
  0
SEQEND
  0
POLYLINE
  8
0
 62
     5
 66
     1
 70
     2
  0
VERTEX
  8
0
 10
174.782623
 20
78.434784
  0
VERTEX
  8
0
 10
175.934784
 20
74.402176
  0
VERTEX
  8
0
 10
177.086975
 20
78.434784
  0
SEQEND
  0
LINE
  8
0
 62
     5
 10
118.326096
 20
113.402176
 11
177.663055
 21
113.402176
  0
LINE
  8
0
 62
     5
 10
118.326096
 20
74.402176
 11
177.663055
 21
74.402176
  0
TEXT
  8
0
 62
     7
 10
174.782623
 20
87.133156
 40
5.760870
 41
1.000000
  1
%%c39
  7
KANJI
 50
90.000000
 51
0.000000
  0
LINE
  8
DASHDOT
 62
     7
 10
89.869576
 20
111.902176
 11
111.782616
 21
111.902176
  0
LINE
  8
DASHDOT
 62
     7
 10
89.869576
 20
75.902176
 11
111.782616
 21
75.902176
  0
LINE
  8
DASHDOT
 62
     7
 10
89.869576
 20
93.902176
 11
121.782616
 21
93.902176
  0
LINE
  8
0
 62
     5
 10
108.326096
 20
113.302177
 11
108.326096
 21
113.402176
  0
LINE
  8
0
 62
     5
 10
93.326096
 20
113.302177
 11
93.326096
 21
113.402176
  0
LINE
  8
0
 62
     5
 10
109.326096
 20
107.902176
 11
118.326096
 21
107.902176
  0
LINE
  8
0
 62
     5
 10
109.326096
 20
79.902176
 11
118.326096
 21
79.902176
  0
LINE
  8
0
 62
     5
 10
108.226097
 20
113.402176
 11
118.326096
 21
113.402176
  0
LINE
  8
0
 62
     5
 10
108.226097
 20
74.402176
 11
118.326096
 21
74.402176
  0
LINE
  8
0
 62
     4
 10
93.326096
 20
110.027176
 11
108.326096
 21
110.027176
  0
LINE
  8
0
 62
     4
 10
93.326096
 20
77.777176
 11
108.326096
 21
77.777176
  0
LINE
  8
0
 62
     4
 10
117.826096
 20
88.902176
 11
118.326096
 21
88.402176
  0
LINE
  8
0
 62
     4
 10
117.826096
 20
98.902176
 11
118.326096
 21
99.402176
  0
LINE
  8
0
 62
     4
 10
93.826096
 20
98.902176
 11
93.826096
 21
88.902176
  0
POLYLINE
  8
0
 62
     4
 66
     1
 70
     2
  0
VERTEX
  8
0
 10
93.326096
 20
88.402176
  0
VERTEX
  8
0
 10
93.826096
 20
88.902176
  0
VERTEX
  8
0
 10
117.826096
 20
88.902176
  0
VERTEX
  8
0
 10
117.826096
 20
98.902176
  0
VERTEX
  8
0
 10
93.826096
 20
98.902176
  0
VERTEX
  8
0
 10
93.326096
 20
99.402176
  0
SEQEND
  0
ARC
  8
0
 62
     4
 10
109.326096
 20
108.902176
 40
1.000000
 50
180.0
 51
270.0
  0
ARC
  8
0
 62
     4
 10
109.326096
 20
78.902176
 40
1.000000
 50
90.0
 51
180.0
  0
LINE
  8
0
 62
     5
 10
118.326096
 20
107.402176
 11
118.326096
 21
113.402176
  0
LINE
  8
0
 62
     5
 10
93.326096
 20
144.510864
 11
108.326096
 21
144.510864
  0
POLYLINE
  8
0
 62
     5
 66
     1
 70
     2
  0
VERTEX
  8
0
 10
97.358704
 20
145.663040
  0
VERTEX
  8
0
 10
93.326096
 20
144.510864
  0
VERTEX
  8
0
 10
97.358704
 20
143.358704
  0
SEQEND
  0
POLYLINE
  8
0
 62
     5
 66
     1
 70
     2
  0
VERTEX
  8
0
 10
104.293488
 20
143.358704
  0
VERTEX
  8
0
 10
108.326096
 20
144.510864
  0
VERTEX
  8
0
 10
104.293488
 20
145.663040
  0
SEQEND
  0
LINE
  8
0
 62
     5
 10
108.326096
 20
113.402176
 11
108.326096
 21
146.239136
  0
TEXT
  8
0
 62
     7
 10
97.081528
 20
145.432617
 40
5.760870
 41
1.000000
  1
15
  7
KANJI
 50
0.000000
 51
0.000000
  0
LINE
  8
0
 62
     5
 10
93.326096
 20
153.728271
 11
118.326096
 21
153.728271
  0
POLYLINE
  8
0
 62
     5
 66
     1
 70
     2
  0
VERTEX
  8
0
 10
97.358704
 20
154.880432
  0
VERTEX
  8
0
 10
93.326096
 20
153.728271
  0
VERTEX
  8
0
 10
97.358704
 20
152.576096
  0
SEQEND
  0
POLYLINE
  8
0
 62
     5
 66
     1
 70
     2
  0
VERTEX
  8
0
 10
114.293488
 20
152.576096
  0
VERTEX
  8
0
 10
118.326096
 20
153.728271
  0
VERTEX
  8
0
 10
114.293488
 20
154.880432
  0
SEQEND
  0
LINE
  8
0
 62
     5
 10
93.326096
 20
113.402176
 11
93.326096
 21
155.456528
  0
LINE
  8
0
 62
     5
 10
118.326096
 20
113.402176
 11
118.326096
 21
155.456528
  0
TEXT
  8
0
 62
     7
 10
102.081528
 20
154.649994
 40
5.760870
 41
1.000000
  1
25
  7
KANJI
 50
0.000000
 51
0.000000
  0
LINE
  8
0
 62
     5
 10
125.239136
 20
144.510864
 11
101.413055
 21
144.510864
  0
POLYLINE
  8
0
 62
     5
 66
     1
 70
     2
  0
VERTEX
  8
0
 10
104.293488
 20
143.358704
  0
VERTEX
  8
0
 10
108.326096
 20
144.510864
  0
VERTEX
  8
0
 10
104.293488
 20
145.663040
  0
SEQEND
  0
POLYLINE
  8
0
 62
     5
 66
     1
 70
     2
  0
VERTEX
  8
0
 10
122.358704
 20
145.663040
  0
VERTEX
  8
0
 10
118.326096
 20
144.510864
  0
VERTEX
  8
0
 10
122.358704
 20
143.358704
  0
SEQEND
  0
TEXT
  8
0
 62
     7
 10
109.581528
 20
145.432617
 40
5.760870
 41
1.000000
  1
10
  7
KANJI
 50
0.000000
 51
0.000000
  0
LINE
  8
0
 62
     5
 10
166.717407
 20
107.902176
 11
166.717407
 21
79.902176
  0
POLYLINE
  8
0
 62
     5
 66
     1
 70
     2
  0
VERTEX
  8
0
 10
167.869568
 20
103.869568
  0
VERTEX
  8
0
 10
166.717407
 20
107.902176
  0
VERTEX
  8
0
 10
165.565216
 20
103.869568
  0
SEQEND
  0
POLYLINE
  8
0
 62
     5
 66
     1
 70
     2
  0
VERTEX
  8
0
 10
165.565216
 20
83.934784
  0
VERTEX
  8
0
 10
166.717407
 20
79.902176
  0
VERTEX
  8
0
 10
167.869568
 20
83.934784
  0
SEQEND
  0
LINE
  8
0
 62
     5
 10
118.326096
 20
107.902176
 11
168.445663
 21
107.902176
  0
LINE
  8
0
 62
     5
 10
118.326096
 20
79.902176
 11
168.445663
 21
79.902176
  0
TEXT
  8
0
 62
     7
 10
165.565216
 20
87.133156
 40
5.760870
 41
1.000000
  1
%%c28
  7
KANJI
 50
90.000000
 51
0.000000
  0
LINE
  8
DASHDOT
 62
     7
 10
222.195663
 20
113.663048
 11
222.195663
 21
76.445656
  0
LINE
  8
DASHDOT
 62
     7
 10
204.739136
 20
93.902176
 11
239.652176
 21
93.902176
  0
LINE
  8
0
 62
     5
 10
231.108704
 20
124.032608
 11
213.282623
 21
124.032608
  0
POLYLINE
  8
0
 62
     5
 66
     1
 70
     2
  0
VERTEX
  8
0
 10
216.163055
 20
122.880440
  0
VERTEX
  8
0
 10
220.195663
 20
124.032608
  0
VERTEX
  8
0
 10
216.163055
 20
125.184784
  0
SEQEND
  0
POLYLINE
  8
0
 62
     5
 66
     1
 70
     2
  0
VERTEX
  8
0
 10
228.228271
 20
125.184784
  0
VERTEX
  8
0
 10
224.195663
 20
124.032608
  0
VERTEX
  8
0
 10
228.228271
 20
122.880440
  0
SEQEND
  0
LINE
  8
0
 62
     5
 10
220.195663
 20
100.702179
 11
220.195663
 21
125.760872
  0
LINE
  8
0
 62
     5
 10
224.195663
 20
100.702179
 11
224.195663
 21
125.760872
  0
TEXT
  8
0
 62
     7
 10
210.304092
 20
125.184784
 40
5.760870
 41
1.000000
  1
4
  7
KANJI
 50
0.000000
 51
0.000000
  0
TEXT
  8
0
 62
     7
 10
216.006638
 20
125.184784
 40
4.608696
 41
1.000000
  1
%%p0.015
  7
KANJI
 50
0.000000
 51
0.000000
  0
LINE
  8
0
 62
     5
 10
253.478271
 20
81.989136
 11
253.478271
 21
107.615219
  0
POLYLINE
  8
0
 62
     5
 66
     1
 70
     2
  0
VERTEX
  8
0
 10
252.326096
 20
104.734787
  0
VERTEX
  8
0
 10
253.478271
 20
100.702179
  0
VERTEX
  8
0
 10
254.630447
 20
104.734787
  0
SEQEND
  0
POLYLINE
  8
0
 62
     5
 66
     1
 70
     2
  0
VERTEX
  8
0
 10
254.630447
 20
84.869568
  0
VERTEX
  8
0
 10
253.478271
 20
88.902176
  0
VERTEX
  8
0
 10
252.326096
 20
84.869568
  0
SEQEND
  0
LINE
  8
0
 62
     5
 10
224.195663
 20
100.702179
 11
255.206528
 21
100.702179
  0
LINE
  8
0
 62
     5
 10
222.195663
 20
88.902176
 11
255.206528
 21
88.902176
  0
TEXT
  8
0
 62
     7
 10
251.750015
 20
77.195877
 40
5.760870
 41
1.000000
  1
11.8
  7
KANJI
 50
90.000000
 51
0.000000
  0
TEXT
  8
0
 62
     7
 10
252.095657
 20
102.131195
 40
2.880435
 41
1.000000
  1
 
  7
KANJI
 50
90.000000
 51
0.000000
  0
TEXT
  8
0
 62
     7
 10
248.523926
 20
102.131195
 40
2.880435
 41
1.000000
  1
+
  7
KANJI
 50
90.000000
 51
0.000000
  0
TEXT
  8
0
 62
     7
 10
252.095657
 20
105.357285
 40
2.880435
 41
1.000000
  1
0
  7
KANJI
 50
90.000000
 51
0.000000
  0
TEXT
  8
0
 62
     7
 10
248.523926
 20
105.357285
 40
2.880435
 41
1.000000
  1
0.1
  7
KANJI
 50
90.000000
 51
0.000000
  0
ARC
  8
0
 62
     4
 10
222.195663
 20
93.902176
 40
5.000000
 50
113.5781780057233
 51
66.4218219942767
  0
POLYLINE
  8
0
 62
     4
 66
     1
 70
     2
  0
VERTEX
  8
0
 10
224.195663
 20
98.484749
  0
VERTEX
  8
0
 10
224.195663
 20
100.702179
  0
VERTEX
  8
0
 10
220.195663
 20
100.702179
  0
VERTEX
  8
0
 10
220.195663
 20
98.484749
  0
SEQEND
  0
LINE
  8
0
 62
     4
 10
93.326096
 20
100.702179
 11
118.326096
 21
100.702179
  0
POLYLINE
  8
DASHDOT
 62
     7
 66
     1
 70
     2
  0
VERTEX
  8
DASHDOT
 10
113.326096
 20
111.358696
  0
VERTEX
  8
DASHDOT
 10
113.326096
 20
97.245651
  0
SEQEND
  0
POLYLINE
  8
0
 62
     4
 66
     1
 70
     2
  0
VERTEX
  8
0
 10
115.326096
 20
107.902176
  0
VERTEX
  8
0
 10
115.326096
 20
100.702179
  0
SEQEND
  0
POLYLINE
  8
0
 62
     4
 66
     1
 70
     2
  0
VERTEX
  8
0
 10
111.326096
 20
107.902176
  0
VERTEX
  8
0
 10
111.326096
 20
100.702179
  0
SEQEND
  0
POLYLINE
  8
0
 62
     4
 66
     1
 70
     2
  0
VERTEX
  8
0
 10
114.946098
 20
107.902176
  0
VERTEX
  8
0
 10
114.946098
 20
100.702179
  0
SEQEND
  0
POLYLINE
  8
0
 62
     4
 66
     1
 70
     2
  0
VERTEX
  8
0
 10
111.706093
 20
107.902176
  0
VERTEX
  8
0
 10
111.706093
 20
100.702179
  0
SEQEND
  0
POLYLINE
  8
0
 62
     4
 66
     1
 70
     2
  0
VERTEX
  8
0
 10
220.195663
 20
98.484749
  0
VERTEX
  8
0
 10
220.195663
 20
107.758583
  0
SEQEND
  0
POLYLINE
  8
0
 62
     4
 66
     1
 70
     2
  0
VERTEX
  8
0
 10
224.195663
 20
98.484749
  0
VERTEX
  8
0
 10
224.195663
 20
107.758583
  0
SEQEND
  0
POLYLINE
  8
0
 62
     4
 66
     1
 70
     2
  0
VERTEX
  8
0
 10
220.575653
 20
100.702179
  0
VERTEX
  8
0
 10
220.575653
 20
107.808128
  0
SEQEND
  0
POLYLINE
  8
0
 62
     4
 66
     1
 70
     2
  0
VERTEX
  8
0
 10
223.815659
 20
100.702179
  0
VERTEX
  8
0
 10
223.815659
 20
107.808128
  0
SEQEND
  0
POLYLINE
  8
0
 62
     5
 66
     1
 70
     2
  0
VERTEX
  8
0
 10
222.195663
 20
107.902176
  0
VERTEX
  8
0
 10
201.456528
 20
142.467392
  0
VERTEX
  8
0
 10
214.130432
 20
142.467392
  0
SEQEND
  0
POLYLINE
  8
0
 62
     5
 66
     1
 70
     2
  0
VERTEX
  8
0
 10
219.132919
 20
110.767319
  0
VERTEX
  8
0
 10
222.195663
 20
107.902176
  0
VERTEX
  8
0
 10
221.108887
 20
111.952896
  0
SEQEND
  0
TEXT
  8
0
 62
     7
 10
202.608704
 20
143.619568
 40
5.530435
 41
1.000000
  1
M4
  7
KANJI
 50
0.000000
 51
0.000000
  0
CIRCLE
  8
0
 62
     7
 10
113.326096
 20
93.902176
 40
2.000000
  0
CIRCLE
  8
0
 62
     4
 10
113.326096
 20
93.902176
 40
1.620000
  0
POLYLINE
  8
DASHDOT
 62
     7
 66
     1
 70
     2
  0
VERTEX
  8
DASHDOT
 10
107.869576
 20
93.902176
  0
VERTEX
  8
DASHDOT
 10
118.782616
 20
93.902176
  0
SEQEND
  0
POLYLINE
  8
DASHDOT
 62
     7
 66
     1
 70
     2
  0
VERTEX
  8
DASHDOT
 10
113.326096
 20
88.445656
  0
VERTEX
  8
DASHDOT
 10
113.326096
 20
99.358696
  0
SEQEND
  0
LINE
  8
DASHDOT
 62
     7
 10
113.326096
 20
107.902176
 11
113.326096
 21
93.902176
  0
LINE
  8
0
 62
     5
 10
113.326096
 20
107.902176
 11
113.326096
 21
113.402176
  0
POLYLINE
  8
0
 62
     4
 66
     1
 70
     2
  0
VERTEX
  8
0
 10
226.778244
 20
95.902176
  0
VERTEX
  8
0
 10
236.052063
 20
95.902176
  0
SEQEND
  0
POLYLINE
  8
0
 62
     4
 66
     1
 70
     2
  0
VERTEX
  8
0
 10
226.778244
 20
91.902176
  0
VERTEX
  8
0
 10
236.052063
 20
91.902176
  0
SEQEND
  0
POLYLINE
  8
0
 62
     4
 66
     1
 70
     2
  0
VERTEX
  8
0
 10
226.925949
 20
95.522179
  0
VERTEX
  8
0
 10
236.101624
 20
95.522179
  0
SEQEND
  0
POLYLINE
  8
0
 62
     4
 66
     1
 70
     2
  0
VERTEX
  8
0
 10
226.925949
 20
92.282173
  0
VERTEX
  8
0
 10
236.101624
 20
92.282173
  0
SEQEND
  0
POLYLINE
  8
0
 62
     5
 66
     1
 70
     2
  0
VERTEX
  8
0
 10
236.195663
 20
93.902176
  0
VERTEX
  8
0
 10
253.478271
 20
133.250000
  0
VERTEX
  8
0
 10
236.656525
 20
133.250000
  0
SEQEND
  0
POLYLINE
  8
0
 62
     5
 66
     1
 70
     2
  0
VERTEX
  8
0
 10
236.762451
 20
98.057678
  0
VERTEX
  8
0
 10
236.195663
 20
93.902176
  0
VERTEX
  8
0
 10
238.872253
 20
97.130997
  0
SEQEND
  0
TEXT
  8
0
 62
     7
 10
238.960876
 20
134.402176
 40
5.530435
 41
1.000000
  1
M4
  7
KANJI
 50
0.000000
 51
0.000000
  0
LINE
  8
0
 62
     5
 10
148.282623
 20
98.902176
 11
148.282623
 21
88.902176
  0
POLYLINE
  8
0
 62
     5
 66
     1
 70
     2
  0
VERTEX
  8
0
 10
147.130447
 20
92.934784
  0
VERTEX
  8
0
 10
148.282623
 20
88.902176
  0
VERTEX
  8
0
 10
149.434784
 20
92.934784
  0
SEQEND
  0
LINE
  8
0
 62
     5
 10
118.326096
 20
88.902176
 11
150.010880
 21
88.902176
  0
TEXT
  8
0
 62
     7
 10
147.130447
 20
87.133156
 40
5.760870
 41
1.000000
  1
%%c10
  7
KANJI
 50
90.000000
 51
0.000000
  0
POLYLINE
  8
0
 62
     4
 66
     1
 70
     2
  0
VERTEX
  8
0
 10
93.326096
 20
88.402176
  0
VERTEX
  8
0
 10
93.326096
 20
74.502174
  0
VERTEX
  8
0
 10
93.426094
 20
74.402176
  0
VERTEX
  8
0
 10
108.226097
 20
74.402176
  0
VERTEX
  8
0
 10
108.326096
 20
74.502174
  0
VERTEX
  8
0
 10
108.326096
 20
78.902176
  0
SEQEND
  0
POLYLINE
  8
0
 62
     4
 66
     1
 70
     2
  0
VERTEX
  8
0
 10
109.326096
 20
79.902176
  0
VERTEX
  8
0
 10
117.826096
 20
79.902176
  0
VERTEX
  8
0
 10
118.326096
 20
80.402176
  0
VERTEX
  8
0
 10
118.326096
 20
107.402176
  0
VERTEX
  8
0
 10
117.826096
 20
107.902176
  0
VERTEX
  8
0
 10
109.326096
 20
107.902176
  0
SEQEND
  0
POLYLINE
  8
0
 62
     4
 66
     1
 70
     2
  0
VERTEX
  8
0
 10
108.326096
 20
108.902176
  0
VERTEX
  8
0
 10
108.326096
 20
113.302177
  0
VERTEX
  8
0
 10
108.226097
 20
113.402176
  0
VERTEX
  8
0
 10
93.426094
 20
113.402176
  0
VERTEX
  8
0
 10
93.326096
 20
113.302177
  0
VERTEX
  8
0
 10
93.326096
 20
88.402176
  0
SEQEND
  0
CIRCLE
  8
0
 62
     4
 10
222.195663
 20
93.902176
 40
14.000000
  0
LINE
  8
0
 62
     5
 10
125.239136
 20
119.163048
 11
106.413055
 21
119.163048
  0
POLYLINE
  8
0
 62
     5
 66
     1
 70
     2
  0
VERTEX
  8
0
 10
109.293488
 20
118.010872
  0
VERTEX
  8
0
 10
113.326096
 20
119.163048
  0
VERTEX
  8
0
 10
109.293488
 20
120.315216
  0
SEQEND
  0
POLYLINE
  8
0
 62
     5
 66
     1
 70
     2
  0
VERTEX
  8
0
 10
122.358704
 20
120.315216
  0
VERTEX
  8
0
 10
118.326096
 20
119.163048
  0
VERTEX
  8
0
 10
122.358704
 20
118.010872
  0
SEQEND
  0
LINE
  8
0
 62
     5
 10
113.326096
 20
113.402176
 11
113.326096
 21
120.891304
  0
TEXT
  8
0
 62
     7
 10
113.953812
 20
120.084785
 40
5.760870
 41
1.000000
  1
5
  7
KANJI
 50
0.000000
 51
0.000000
  0
LINE
  8
0
 62
     5
 10
113.326096
 20
107.902176
 11
113.326096
 21
113.402176
  0
ENDSEC
  0
EOF
