  0
SECTION
  2
HEADER
  9
$ACADVER
  1
AC1003
  9
$INSBASE
 10
0.000000
 20
0.000000
  9
$EXTMIN
 10
0.000000
 20
0.000000
  9
$EXTMAX
 10
429.130435
 20
296.739130
  9
$LIMMIN
 10
0.000000
 20
0.000000
  9
$LIMMAX
 10
429.130435
 20
296.739130
  9
$VIEWCTR
 10
214.565217
 20
148.369565
  9
$VIEWSIZE
 40
296.739130
  0
ENDSEC
  0
SECTION
  2
TABLES
  0
TABLE
  2
LTYPE
 70
     4
  0
LTYPE
  2
CONTINUOUS
 70
    64
  3
SolidLine
 72
    65
 73
     0
 40
0.0
  0
LTYPE
  2
HIDDEN
 70
    64
  3
------------------------
 72
    65
 73
     2
 40
4.565217
 49
3.043478
 49
-1.521739
  0
LTYPE
  2
DASHDOT
 70
    64
  3
--?--?--?--?--?--?--?--
 72
    65
 73
     4
 40
18.260870
 49
13.695652
 49
-1.521739
 49
1.521739
 49
-1.521739
  0
LTYPE
  2
DIVIDE
 70
    64
  3
--??--??--??--??--??--
 72
    65
 73
     6
 40
22.826087
 49
15.217391
 49
-1.521739
 49
1.521739
 49
-1.521739
 49
1.521739
 49
-1.521739
  0
ENDTAB
  0
TABLE
  2
LAYER
 70
     5
  0
LAYER
  2
0
 70
    64
 62
     7
  6
CONTINUOUS
  0
LAYER
  2
HIDDEN
 70
    64
 62
     2
  6
HIDDEN
  0
LAYER
  2
DASHDOT
 70
    64
 62
     6
  6
DASHDOT
  0
LAYER
  2
DIVIDE
 70
    64
 62
     5
  6
DIVIDE
  0
ENDTAB
  0
TABLE
  2
STYLE
 70
     1
  0
STYLE
  2
STANDARD
 70
    64
 40
0.0
 41
1.0
 50
0.0
 71
     0
 42
0.2
  3
TXT
  4

  0
STYLE
  2
KANJI
 70
    64
 40
0.0
 41
1.0
 50
0.0
 71
     0
 42
0.2
  3
TXT
  4
BIGFONT
  0
ENDTAB
  0
TABLE
  2
VIEW
 70
     0
  0
ENDTAB
  0
ENDSEC
  0
SECTION
  2
BLOCKS
  0
ENDSEC
  0
SECTION
  2
ENTITIES
  0
TEXT
  8
0
 62
     7
 10
15.217391
 20
16.739130
 40
6.086957
 41
1.000000
  1
KHK PS1.5-48
  7
KANJI
 50
0.000000
 51
0.000000
  0
TEXT
  8
0
 62
     7
 10
15.217391
 20
7.608696
 40
6.086957
 41
1.000000
  1

  7
KANJI
 50
0.000000
 51
0.000000
  0
TEXT
  8
0
 62
     7
 10
15.217391
 20
273.913055
 40
6.847826
 41
1.000000
  1

  7
KANJI
 50
0.000000
 51
0.000000
  0
POLYLINE
  8
0
 62
     7
 66
     1
 70
     2
  0
VERTEX
  8
0
 10
365.217377
 20
273.913055
  0
VERTEX
  8
0
 10
359.282593
 20
284.200012
  0
VERTEX
  8
0
 10
383.021729
 20
284.200012
  0
VERTEX
  8
0
 10
377.086945
 20
273.913055
  0
VERTEX
  8
0
 10
371.152161
 20
284.200012
  0
VERTEX
  8
0
 10
365.217377
 20
273.913055
  0
SEQEND
  0
LINE
  8
0
 62
     5
 10
224.347824
 20
161.521744
 11
224.347824
 21
86.521744
  0
POLYLINE
  8
0
 62
     5
 66
     1
 70
     2
  0
VERTEX
  8
0
 10
225.869568
 20
156.195648
  0
VERTEX
  8
0
 10
224.347824
 20
161.521744
  0
VERTEX
  8
0
 10
222.826080
 20
156.195648
  0
SEQEND
  0
POLYLINE
  8
0
 62
     5
 66
     1
 70
     2
  0
VERTEX
  8
0
 10
222.826080
 20
91.847832
  0
VERTEX
  8
0
 10
224.347824
 20
86.521744
  0
VERTEX
  8
0
 10
225.869568
 20
91.847832
  0
SEQEND
  0
LINE
  8
0
 62
     5
 10
148.260864
 20
161.521744
 11
226.630432
 21
161.521744
  0
LINE
  8
0
 62
     5
 10
148.260864
 20
86.521744
 11
226.630432
 21
86.521744
  0
TEXT
  8
0
 62
     7
 10
222.826080
 20
115.081528
 40
7.608696
 41
1.000000
  1
%%c75
  7
KANJI
 50
90.000000
 51
0.000000
  0
LINE
  8
DASHDOT
 62
     7
 10
118.695648
 20
160.021744
 11
142.826080
 21
160.021744
  0
LINE
  8
DASHDOT
 62
     7
 10
118.695648
 20
88.021744
 11
142.826080
 21
88.021744
  0
LINE
  8
DASHDOT
 62
     7
 10
118.695648
 20
124.021744
 11
152.826080
 21
124.021744
  0
LINE
  8
0
 62
     5
 10
138.260864
 20
161.421753
 11
138.260864
 21
161.521744
  0
LINE
  8
0
 62
     5
 10
123.260864
 20
161.421753
 11
123.260864
 21
161.521744
  0
LINE
  8
0
 62
     5
 10
139.260864
 20
146.521744
 11
148.260864
 21
146.521744
  0
LINE
  8
0
 62
     5
 10
139.260864
 20
101.521744
 11
148.260864
 21
101.521744
  0
LINE
  8
0
 62
     5
 10
138.160858
 20
161.521744
 11
148.260864
 21
161.521744
  0
LINE
  8
0
 62
     5
 10
138.160858
 20
86.521744
 11
148.260864
 21
86.521744
  0
LINE
  8
0
 62
     4
 10
123.260864
 20
158.146744
 11
138.260864
 21
158.146744
  0
LINE
  8
0
 62
     4
 10
123.260864
 20
89.896744
 11
138.260864
 21
89.896744
  0
LINE
  8
0
 62
     4
 10
147.760864
 20
119.021744
 11
148.260864
 21
118.521744
  0
LINE
  8
0
 62
     4
 10
147.760864
 20
129.021744
 11
148.260864
 21
129.521744
  0
LINE
  8
0
 62
     4
 10
123.760864
 20
129.021744
 11
123.760864
 21
119.021744
  0
POLYLINE
  8
0
 62
     4
 66
     1
 70
     2
  0
VERTEX
  8
0
 10
123.260864
 20
118.521744
  0
VERTEX
  8
0
 10
123.760864
 20
119.021744
  0
VERTEX
  8
0
 10
147.760864
 20
119.021744
  0
VERTEX
  8
0
 10
147.760864
 20
129.021744
  0
VERTEX
  8
0
 10
123.760864
 20
129.021744
  0
VERTEX
  8
0
 10
123.260864
 20
129.521744
  0
SEQEND
  0
ARC
  8
0
 62
     4
 10
139.260864
 20
147.521744
 40
1.000000
 50
180.0
 51
270.0
  0
ARC
  8
0
 62
     4
 10
139.260864
 20
100.521744
 40
1.000000
 50
90.0
 51
180.0
  0
LINE
  8
0
 62
     5
 10
148.260864
 20
146.021744
 11
148.260864
 21
161.521744
  0
LINE
  8
0
 62
     5
 10
147.391296
 20
202.608704
 11
114.130432
 21
202.608704
  0
POLYLINE
  8
0
 62
     5
 66
     1
 70
     2
  0
VERTEX
  8
0
 10
117.934776
 20
201.086975
  0
VERTEX
  8
0
 10
123.260864
 20
202.608704
  0
VERTEX
  8
0
 10
117.934776
 20
204.130432
  0
SEQEND
  0
POLYLINE
  8
0
 62
     5
 66
     1
 70
     2
  0
VERTEX
  8
0
 10
143.586945
 20
204.130432
  0
VERTEX
  8
0
 10
138.260864
 20
202.608704
  0
VERTEX
  8
0
 10
143.586945
 20
201.086975
  0
SEQEND
  0
LINE
  8
0
 62
     5
 10
138.260864
 20
161.521744
 11
138.260864
 21
204.891312
  0
TEXT
  8
0
 62
     7
 10
125.815208
 20
203.826096
 40
7.608696
 41
1.000000
  1
15
  7
KANJI
 50
0.000000
 51
0.000000
  0
LINE
  8
0
 62
     5
 10
123.260864
 20
214.782608
 11
148.260864
 21
214.782608
  0
POLYLINE
  8
0
 62
     5
 66
     1
 70
     2
  0
VERTEX
  8
0
 10
128.586945
 20
216.304352
  0
VERTEX
  8
0
 10
123.260864
 20
214.782608
  0
VERTEX
  8
0
 10
128.586945
 20
213.260864
  0
SEQEND
  0
POLYLINE
  8
0
 62
     5
 66
     1
 70
     2
  0
VERTEX
  8
0
 10
142.934784
 20
213.260864
  0
VERTEX
  8
0
 10
148.260864
 20
214.782608
  0
VERTEX
  8
0
 10
142.934784
 20
216.304352
  0
SEQEND
  0
LINE
  8
0
 62
     5
 10
123.260864
 20
161.521744
 11
123.260864
 21
217.065216
  0
LINE
  8
0
 62
     5
 10
148.260864
 20
161.521744
 11
148.260864
 21
217.065216
  0
TEXT
  8
0
 62
     7
 10
130.815216
 20
216.000000
 40
7.608696
 41
1.000000
  1
25
  7
KANJI
 50
0.000000
 51
0.000000
  0
LINE
  8
0
 62
     5
 10
157.391296
 20
202.608704
 11
129.130432
 21
202.608704
  0
POLYLINE
  8
0
 62
     5
 66
     1
 70
     2
  0
VERTEX
  8
0
 10
132.934784
 20
201.086975
  0
VERTEX
  8
0
 10
138.260864
 20
202.608704
  0
VERTEX
  8
0
 10
132.934784
 20
204.130432
  0
SEQEND
  0
POLYLINE
  8
0
 62
     5
 66
     1
 70
     2
  0
VERTEX
  8
0
 10
153.586945
 20
204.130432
  0
VERTEX
  8
0
 10
148.260864
 20
202.608704
  0
VERTEX
  8
0
 10
153.586945
 20
201.086975
  0
SEQEND
  0
TEXT
  8
0
 62
     7
 10
138.315216
 20
203.826096
 40
7.608696
 41
1.000000
  1
10
  7
KANJI
 50
0.000000
 51
0.000000
  0
LINE
  8
0
 62
     5
 10
212.173904
 20
146.521744
 11
212.173904
 21
101.521744
  0
POLYLINE
  8
0
 62
     5
 66
     1
 70
     2
  0
VERTEX
  8
0
 10
213.695648
 20
141.195648
  0
VERTEX
  8
0
 10
212.173904
 20
146.521744
  0
VERTEX
  8
0
 10
210.652161
 20
141.195648
  0
SEQEND
  0
POLYLINE
  8
0
 62
     5
 66
     1
 70
     2
  0
VERTEX
  8
0
 10
210.652161
 20
106.847832
  0
VERTEX
  8
0
 10
212.173904
 20
101.521744
  0
VERTEX
  8
0
 10
213.695648
 20
106.847832
  0
SEQEND
  0
LINE
  8
0
 62
     5
 10
148.260864
 20
146.521744
 11
214.456512
 21
146.521744
  0
LINE
  8
0
 62
     5
 10
148.260864
 20
101.521744
 11
214.456512
 21
101.521744
  0
TEXT
  8
0
 62
     7
 10
210.652161
 20
115.081528
 40
7.608696
 41
1.000000
  1
%%c45
  7
KANJI
 50
90.000000
 51
0.000000
  0
LINE
  8
0
 62
     5
 10
187.826080
 20
109.891312
 11
187.826080
 21
138.152176
  0
POLYLINE
  8
0
 62
     5
 66
     1
 70
     2
  0
VERTEX
  8
0
 10
186.304337
 20
134.347824
  0
VERTEX
  8
0
 10
187.826080
 20
129.021744
  0
VERTEX
  8
0
 10
189.347809
 20
134.347824
  0
SEQEND
  0
POLYLINE
  8
0
 62
     5
 66
     1
 70
     2
  0
VERTEX
  8
0
 10
189.347809
 20
113.695656
  0
VERTEX
  8
0
 10
187.826080
 20
119.021744
  0
VERTEX
  8
0
 10
186.304337
 20
113.695656
  0
SEQEND
  0
LINE
  8
0
 62
     5
 10
148.260864
 20
129.021744
 11
190.108688
 21
129.021744
  0
LINE
  8
0
 62
     5
 10
148.260864
 20
119.021744
 11
190.108688
 21
119.021744
  0
TEXT
  8
0
 62
     7
 10
186.304337
 20
115.081528
 40
7.608696
 41
1.000000
  1
%%c10
  7
KANJI
 50
90.000000
 51
0.000000
  0
POLYLINE
  8
0
 62
     4
 66
     1
 70
     2
  0
VERTEX
  8
0
 10
123.260864
 20
118.521744
  0
VERTEX
  8
0
 10
123.260864
 20
86.621742
  0
VERTEX
  8
0
 10
123.360863
 20
86.521744
  0
VERTEX
  8
0
 10
138.160858
 20
86.521744
  0
VERTEX
  8
0
 10
138.260864
 20
86.621742
  0
VERTEX
  8
0
 10
138.260864
 20
100.521744
  0
SEQEND
  0
POLYLINE
  8
0
 62
     4
 66
     1
 70
     2
  0
VERTEX
  8
0
 10
139.260864
 20
101.521744
  0
VERTEX
  8
0
 10
147.760864
 20
101.521744
  0
VERTEX
  8
0
 10
148.260864
 20
102.021744
  0
VERTEX
  8
0
 10
148.260864
 20
146.021744
  0
VERTEX
  8
0
 10
147.760864
 20
146.521744
  0
VERTEX
  8
0
 10
139.260864
 20
146.521744
  0
SEQEND
  0
POLYLINE
  8
0
 62
     4
 66
     1
 70
     2
  0
VERTEX
  8
0
 10
138.260864
 20
147.521744
  0
VERTEX
  8
0
 10
138.260864
 20
161.421753
  0
VERTEX
  8
0
 10
138.160858
 20
161.521744
  0
VERTEX
  8
0
 10
123.360863
 20
161.521744
  0
VERTEX
  8
0
 10
123.260864
 20
161.421753
  0
VERTEX
  8
0
 10
123.260864
 20
118.521744
  0
SEQEND
  0
ENDSEC
  0
EOF
