  0
SECTION
  2
HEADER
  9
$ACADVER
  1
AC1003
  9
$INSBASE
 10
0.000000
 20
0.000000
  9
$EXTMIN
 10
0.000000
 20
0.000000
  9
$EXTMAX
 10
398.478261
 20
275.543478
  9
$LIMMIN
 10
0.000000
 20
0.000000
  9
$LIMMAX
 10
398.478261
 20
275.543478
  9
$VIEWCTR
 10
199.239130
 20
137.771739
  9
$VIEWSIZE
 40
275.543478
  0
ENDSEC
  0
SECTION
  2
TABLES
  0
TABLE
  2
LTYPE
 70
     4
  0
LTYPE
  2
CONTINUOUS
 70
    64
  3
SolidLine
 72
    65
 73
     0
 40
0.0
  0
LTYPE
  2
HIDDEN
 70
    64
  3
------------------------
 72
    65
 73
     2
 40
4.239130
 49
2.826087
 49
-1.413043
  0
LTYPE
  2
DASHDOT
 70
    64
  3
--?--?--?--?--?--?--?--
 72
    65
 73
     4
 40
16.956522
 49
12.717391
 49
-1.413043
 49
1.413043
 49
-1.413043
  0
LTYPE
  2
DIVIDE
 70
    64
  3
--??--??--??--??--??--
 72
    65
 73
     6
 40
21.195652
 49
14.130435
 49
-1.413043
 49
1.413043
 49
-1.413043
 49
1.413043
 49
-1.413043
  0
ENDTAB
  0
TABLE
  2
LAYER
 70
     5
  0
LAYER
  2
0
 70
    64
 62
     7
  6
CONTINUOUS
  0
LAYER
  2
HIDDEN
 70
    64
 62
     2
  6
HIDDEN
  0
LAYER
  2
DASHDOT
 70
    64
 62
     6
  6
DASHDOT
  0
LAYER
  2
DIVIDE
 70
    64
 62
     5
  6
DIVIDE
  0
ENDTAB
  0
TABLE
  2
STYLE
 70
     1
  0
STYLE
  2
STANDARD
 70
    64
 40
0.0
 41
1.0
 50
0.0
 71
     0
 42
0.2
  3
TXT
  4

  0
STYLE
  2
KANJI
 70
    64
 40
0.0
 41
1.0
 50
0.0
 71
     0
 42
0.2
  3
TXT
  4
BIGFONT
  0
ENDTAB
  0
TABLE
  2
VIEW
 70
     0
  0
ENDTAB
  0
ENDSEC
  0
SECTION
  2
BLOCKS
  0
ENDSEC
  0
SECTION
  2
ENTITIES
  0
TEXT
  8
0
 62
     7
 10
14.130435
 20
15.543478
 40
5.652174
 41
1.000000
  1
KHK PS2-22J14
  7
KANJI
 50
0.000000
 51
0.000000
  0
TEXT
  8
0
 62
     7
 10
14.130435
 20
7.065217
 40
5.652174
 41
1.000000
  1
The precision grade of gears after secondary operations is equivalent but not identical to its original grade.
  7
KANJI
 50
0.000000
 51
0.000000
  0
TEXT
  8
0
 62
     7
 10
14.130435
 20
254.347824
 40
6.358696
 41
1.000000
  1

  7
KANJI
 50
0.000000
 51
0.000000
  0
POLYLINE
  8
0
 62
     7
 66
     1
 70
     2
  0
VERTEX
  8
0
 10
339.130432
 20
254.347824
  0
VERTEX
  8
0
 10
333.619568
 20
263.899994
  0
VERTEX
  8
0
 10
355.663025
 20
263.899994
  0
VERTEX
  8
0
 10
350.152161
 20
254.347824
  0
VERTEX
  8
0
 10
344.641296
 20
263.899994
  0
VERTEX
  8
0
 10
339.130432
 20
254.347824
  0
SEQEND
  0
LINE
  8
0
 62
     5
 10
215.108704
 20
139.163055
 11
215.108704
 21
91.163048
  0
POLYLINE
  8
0
 62
     5
 66
     1
 70
     2
  0
VERTEX
  8
0
 10
216.521744
 20
134.217392
  0
VERTEX
  8
0
 10
215.108704
 20
139.163055
  0
VERTEX
  8
0
 10
213.695663
 20
134.217392
  0
SEQEND
  0
POLYLINE
  8
0
 62
     5
 66
     1
 70
     2
  0
VERTEX
  8
0
 10
213.695663
 20
96.108704
  0
VERTEX
  8
0
 10
215.108704
 20
91.163048
  0
VERTEX
  8
0
 10
216.521744
 20
96.108704
  0
SEQEND
  0
LINE
  8
0
 62
     5
 10
144.456528
 20
139.163055
 11
217.228271
 21
139.163055
  0
LINE
  8
0
 62
     5
 10
144.456528
 20
91.163048
 11
217.228271
 21
91.163048
  0
TEXT
  8
0
 62
     7
 10
213.695663
 20
106.861420
 40
7.065217
 41
1.000000
  1
%%c48
  7
KANJI
 50
90.000000
 51
0.000000
  0
LINE
  8
DASHDOT
 62
     7
 10
110.217400
 20
137.163055
 11
138.695663
 21
137.163055
  0
LINE
  8
DASHDOT
 62
     7
 10
110.217400
 20
93.163048
 11
138.695663
 21
93.163048
  0
LINE
  8
DASHDOT
 62
     7
 10
110.217400
 20
115.163048
 11
148.695663
 21
115.163048
  0
LINE
  8
0
 62
     5
 10
134.456528
 20
139.063049
 11
134.456528
 21
139.163055
  0
LINE
  8
0
 62
     5
 10
114.456528
 20
139.063049
 11
114.456528
 21
139.163055
  0
LINE
  8
0
 62
     5
 10
135.456528
 20
132.663055
 11
144.456528
 21
132.663055
  0
LINE
  8
0
 62
     5
 10
135.456528
 20
97.663048
 11
144.456528
 21
97.663048
  0
LINE
  8
0
 62
     5
 10
134.356522
 20
139.163055
 11
144.456528
 21
139.163055
  0
LINE
  8
0
 62
     5
 10
134.356522
 20
91.163048
 11
144.456528
 21
91.163048
  0
LINE
  8
0
 62
     4
 10
114.456528
 20
134.663055
 11
134.456528
 21
134.663055
  0
LINE
  8
0
 62
     4
 10
114.456528
 20
95.663048
 11
134.456528
 21
95.663048
  0
LINE
  8
0
 62
     4
 10
143.956528
 20
108.163048
 11
144.456528
 21
107.663048
  0
LINE
  8
0
 62
     4
 10
143.956528
 20
122.163048
 11
144.456528
 21
122.663048
  0
LINE
  8
0
 62
     4
 10
114.956528
 20
122.163048
 11
114.956528
 21
108.163048
  0
POLYLINE
  8
0
 62
     4
 66
     1
 70
     2
  0
VERTEX
  8
0
 10
114.456528
 20
107.663048
  0
VERTEX
  8
0
 10
114.956528
 20
108.163048
  0
VERTEX
  8
0
 10
143.956528
 20
108.163048
  0
VERTEX
  8
0
 10
143.956528
 20
122.163048
  0
VERTEX
  8
0
 10
114.956528
 20
122.163048
  0
VERTEX
  8
0
 10
114.456528
 20
122.663048
  0
SEQEND
  0
ARC
  8
0
 62
     4
 10
135.456528
 20
133.663055
 40
1.000000
 50
180.0
 51
270.0
  0
ARC
  8
0
 62
     4
 10
135.456528
 20
96.663048
 40
1.000000
 50
90.0
 51
180.0
  0
LINE
  8
0
 62
     5
 10
144.456528
 20
132.163055
 11
144.456528
 21
139.163055
  0
LINE
  8
0
 62
     5
 10
114.456528
 20
177.315216
 11
134.456528
 21
177.315216
  0
POLYLINE
  8
0
 62
     5
 66
     1
 70
     2
  0
VERTEX
  8
0
 10
119.402176
 20
178.728271
  0
VERTEX
  8
0
 10
114.456528
 20
177.315216
  0
VERTEX
  8
0
 10
119.402176
 20
175.902176
  0
SEQEND
  0
POLYLINE
  8
0
 62
     5
 66
     1
 70
     2
  0
VERTEX
  8
0
 10
129.510880
 20
175.902176
  0
VERTEX
  8
0
 10
134.456528
 20
177.315216
  0
VERTEX
  8
0
 10
129.510880
 20
178.728271
  0
SEQEND
  0
LINE
  8
0
 62
     5
 10
134.456528
 20
139.163055
 11
134.456528
 21
179.434784
  0
TEXT
  8
0
 62
     7
 10
119.864136
 20
178.445648
 40
7.065217
 41
1.000000
  1
20
  7
KANJI
 50
0.000000
 51
0.000000
  0
LINE
  8
0
 62
     5
 10
114.456528
 20
188.619568
 11
144.456528
 21
188.619568
  0
POLYLINE
  8
0
 62
     5
 66
     1
 70
     2
  0
VERTEX
  8
0
 10
119.402176
 20
190.032608
  0
VERTEX
  8
0
 10
114.456528
 20
188.619568
  0
VERTEX
  8
0
 10
119.402176
 20
187.206528
  0
SEQEND
  0
POLYLINE
  8
0
 62
     5
 66
     1
 70
     2
  0
VERTEX
  8
0
 10
139.510880
 20
187.206528
  0
VERTEX
  8
0
 10
144.456528
 20
188.619568
  0
VERTEX
  8
0
 10
139.510880
 20
190.032608
  0
SEQEND
  0
LINE
  8
0
 62
     5
 10
114.456528
 20
139.163055
 11
114.456528
 21
190.739136
  0
LINE
  8
0
 62
     5
 10
144.456528
 20
139.163055
 11
144.456528
 21
190.739136
  0
TEXT
  8
0
 62
     7
 10
124.864136
 20
189.750000
 40
7.065217
 41
1.000000
  1
30
  7
KANJI
 50
0.000000
 51
0.000000
  0
LINE
  8
0
 62
     5
 10
152.934784
 20
177.315216
 11
125.978264
 21
177.315216
  0
POLYLINE
  8
0
 62
     5
 66
     1
 70
     2
  0
VERTEX
  8
0
 10
129.510880
 20
175.902176
  0
VERTEX
  8
0
 10
134.456528
 20
177.315216
  0
VERTEX
  8
0
 10
129.510880
 20
178.728271
  0
SEQEND
  0
POLYLINE
  8
0
 62
     5
 66
     1
 70
     2
  0
VERTEX
  8
0
 10
149.402176
 20
178.728271
  0
VERTEX
  8
0
 10
144.456528
 20
177.315216
  0
VERTEX
  8
0
 10
149.402176
 20
175.902176
  0
SEQEND
  0
TEXT
  8
0
 62
     7
 10
134.864136
 20
178.445648
 40
7.065217
 41
1.000000
  1
10
  7
KANJI
 50
0.000000
 51
0.000000
  0
LINE
  8
0
 62
     5
 10
203.804352
 20
132.663055
 11
203.804352
 21
97.663048
  0
POLYLINE
  8
0
 62
     5
 66
     1
 70
     2
  0
VERTEX
  8
0
 10
205.217392
 20
127.717392
  0
VERTEX
  8
0
 10
203.804352
 20
132.663055
  0
VERTEX
  8
0
 10
202.391312
 20
127.717392
  0
SEQEND
  0
POLYLINE
  8
0
 62
     5
 66
     1
 70
     2
  0
VERTEX
  8
0
 10
202.391312
 20
102.608704
  0
VERTEX
  8
0
 10
203.804352
 20
97.663048
  0
VERTEX
  8
0
 10
205.217392
 20
102.608704
  0
SEQEND
  0
LINE
  8
0
 62
     5
 10
144.456528
 20
132.663055
 11
205.923920
 21
132.663055
  0
LINE
  8
0
 62
     5
 10
144.456528
 20
97.663048
 11
205.923920
 21
97.663048
  0
TEXT
  8
0
 62
     7
 10
202.391312
 20
106.861420
 40
7.065217
 41
1.000000
  1
%%c35
  7
KANJI
 50
90.000000
 51
0.000000
  0
LINE
  8
DASHDOT
 62
     7
 10
272.173920
 20
139.728271
 11
272.173920
 21
93.423920
  0
LINE
  8
DASHDOT
 62
     7
 10
250.434784
 20
115.163048
 11
293.913055
 21
115.163048
  0
LINE
  8
0
 62
     5
 10
283.152161
 20
152.445663
 11
261.195679
 21
152.445663
  0
POLYLINE
  8
0
 62
     5
 66
     1
 70
     2
  0
VERTEX
  8
0
 10
264.728271
 20
151.032623
  0
VERTEX
  8
0
 10
269.673920
 20
152.445663
  0
VERTEX
  8
0
 10
264.728271
 20
153.858704
  0
SEQEND
  0
POLYLINE
  8
0
 62
     5
 66
     1
 70
     2
  0
VERTEX
  8
0
 10
279.619568
 20
153.858704
  0
VERTEX
  8
0
 10
274.673920
 20
152.445663
  0
VERTEX
  8
0
 10
279.619568
 20
151.032623
  0
SEQEND
  0
LINE
  8
0
 62
     5
 10
269.673920
 20
124.463051
 11
269.673920
 21
154.565231
  0
LINE
  8
0
 62
     5
 10
274.673920
 20
124.463051
 11
274.673920
 21
154.565231
  0
TEXT
  8
0
 62
     7
 10
257.589905
 20
153.858704
 40
7.065217
 41
1.000000
  1
5
  7
KANJI
 50
0.000000
 51
0.000000
  0
TEXT
  8
0
 62
     7
 10
264.583618
 20
153.858704
 40
5.652174
 41
1.000000
  1
%%p0.015
  7
KANJI
 50
0.000000
 51
0.000000
  0
LINE
  8
0
 62
     5
 10
310.869568
 20
99.684784
 11
310.869568
 21
132.941315
  0
POLYLINE
  8
0
 62
     5
 66
     1
 70
     2
  0
VERTEX
  8
0
 10
309.456543
 20
129.408707
  0
VERTEX
  8
0
 10
310.869568
 20
124.463051
  0
VERTEX
  8
0
 10
312.282593
 20
129.408707
  0
SEQEND
  0
POLYLINE
  8
0
 62
     5
 66
     1
 70
     2
  0
VERTEX
  8
0
 10
312.282593
 20
103.217400
  0
VERTEX
  8
0
 10
310.869568
 20
108.163048
  0
VERTEX
  8
0
 10
309.456543
 20
103.217400
  0
SEQEND
  0
LINE
  8
0
 62
     5
 10
274.673920
 20
124.463051
 11
312.989136
 21
124.463051
  0
LINE
  8
0
 62
     5
 10
272.173920
 20
108.163048
 11
312.989136
 21
108.163048
  0
TEXT
  8
0
 62
     7
 10
308.750000
 20
94.537582
 40
7.065217
 41
1.000000
  1
16.3
  7
KANJI
 50
90.000000
 51
0.000000
  0
TEXT
  8
0
 62
     7
 10
309.173920
 20
125.118637
 40
3.532609
 41
1.000000
  1
 
  7
KANJI
 50
90.000000
 51
0.000000
  0
TEXT
  8
0
 62
     7
 10
304.793488
 20
125.118637
 40
3.532609
 41
1.000000
  1
+
  7
KANJI
 50
90.000000
 51
0.000000
  0
TEXT
  8
0
 62
     7
 10
309.173920
 20
129.075165
 40
3.532609
 41
1.000000
  1
0
  7
KANJI
 50
90.000000
 51
0.000000
  0
TEXT
  8
0
 62
     7
 10
304.793488
 20
129.075165
 40
3.532609
 41
1.000000
  1
0.1
  7
KANJI
 50
90.000000
 51
0.000000
  0
ARC
  8
0
 62
     4
 10
272.173920
 20
115.163048
 40
7.000000
 50
110.92483306307776
 51
69.07516693692226
  0
POLYLINE
  8
0
 62
     4
 66
     1
 70
     2
  0
VERTEX
  8
0
 10
274.673920
 20
121.701393
  0
VERTEX
  8
0
 10
274.673920
 20
124.463051
  0
VERTEX
  8
0
 10
269.673920
 20
124.463051
  0
VERTEX
  8
0
 10
269.673920
 20
121.701393
  0
SEQEND
  0
LINE
  8
0
 62
     4
 10
114.456528
 20
124.463051
 11
144.456528
 21
124.463051
  0
POLYLINE
  8
DASHDOT
 62
     7
 66
     1
 70
     2
  0
VERTEX
  8
DASHDOT
 10
139.456528
 20
136.902176
  0
VERTEX
  8
DASHDOT
 10
139.456528
 20
120.223915
  0
SEQEND
  0
POLYLINE
  8
0
 62
     4
 66
     1
 70
     2
  0
VERTEX
  8
0
 10
141.456528
 20
132.663055
  0
VERTEX
  8
0
 10
141.456528
 20
124.463051
  0
SEQEND
  0
POLYLINE
  8
0
 62
     4
 66
     1
 70
     2
  0
VERTEX
  8
0
 10
137.456528
 20
132.663055
  0
VERTEX
  8
0
 10
137.456528
 20
124.463051
  0
SEQEND
  0
POLYLINE
  8
0
 62
     4
 66
     1
 70
     2
  0
VERTEX
  8
0
 10
141.076523
 20
132.663055
  0
VERTEX
  8
0
 10
141.076523
 20
124.463051
  0
SEQEND
  0
POLYLINE
  8
0
 62
     4
 66
     1
 70
     2
  0
VERTEX
  8
0
 10
137.836533
 20
132.663055
  0
VERTEX
  8
0
 10
137.836533
 20
124.463051
  0
SEQEND
  0
POLYLINE
  8
0
 62
     4
 66
     1
 70
     2
  0
VERTEX
  8
0
 10
270.173920
 20
124.463051
  0
VERTEX
  8
0
 10
270.173920
 20
132.548386
  0
SEQEND
  0
POLYLINE
  8
0
 62
     4
 66
     1
 70
     2
  0
VERTEX
  8
0
 10
274.173920
 20
124.463051
  0
VERTEX
  8
0
 10
274.173920
 20
132.548386
  0
SEQEND
  0
POLYLINE
  8
0
 62
     4
 66
     1
 70
     2
  0
VERTEX
  8
0
 10
270.553925
 20
124.463051
  0
VERTEX
  8
0
 10
270.553925
 20
132.587906
  0
SEQEND
  0
POLYLINE
  8
0
 62
     4
 66
     1
 70
     2
  0
VERTEX
  8
0
 10
273.793915
 20
124.463051
  0
VERTEX
  8
0
 10
273.793915
 20
132.587906
  0
SEQEND
  0
POLYLINE
  8
0
 62
     5
 66
     1
 70
     2
  0
VERTEX
  8
0
 10
272.173920
 20
132.663055
  0
VERTEX
  8
0
 10
246.739136
 20
175.054352
  0
VERTEX
  8
0
 10
262.282593
 20
175.054352
  0
SEQEND
  0
POLYLINE
  8
0
 62
     5
 66
     1
 70
     2
  0
VERTEX
  8
0
 10
268.417725
 20
136.176910
  0
VERTEX
  8
0
 10
272.173920
 20
132.663055
  0
VERTEX
  8
0
 10
270.841064
 20
137.630920
  0
SEQEND
  0
TEXT
  8
0
 62
     7
 10
248.152176
 20
176.467392
 40
6.782609
 41
1.000000
  1
M4
  7
KANJI
 50
0.000000
 51
0.000000
  0
CIRCLE
  8
0
 62
     7
 10
139.456528
 20
115.163048
 40
2.000000
  0
CIRCLE
  8
0
 62
     4
 10
139.456528
 20
115.163048
 40
1.620000
  0
POLYLINE
  8
DASHDOT
 62
     7
 66
     1
 70
     2
  0
VERTEX
  8
DASHDOT
 10
133.217392
 20
115.163048
  0
VERTEX
  8
DASHDOT
 10
145.695663
 20
115.163048
  0
SEQEND
  0
POLYLINE
  8
DASHDOT
 62
     7
 66
     1
 70
     2
  0
VERTEX
  8
DASHDOT
 10
139.456528
 20
108.923920
  0
VERTEX
  8
DASHDOT
 10
139.456528
 20
121.402176
  0
SEQEND
  0
LINE
  8
DASHDOT
 62
     7
 10
139.456528
 20
132.663055
 11
139.456528
 21
115.163048
  0
LINE
  8
0
 62
     5
 10
139.456528
 20
132.663055
 11
139.456528
 21
139.163055
  0
POLYLINE
  8
0
 62
     4
 66
     1
 70
     2
  0
VERTEX
  8
0
 10
278.882141
 20
117.163048
  0
VERTEX
  8
0
 10
289.559265
 20
117.163048
  0
SEQEND
  0
POLYLINE
  8
0
 62
     4
 66
     1
 70
     2
  0
VERTEX
  8
0
 10
278.882141
 20
113.163048
  0
VERTEX
  8
0
 10
289.559265
 20
113.163048
  0
SEQEND
  0
POLYLINE
  8
0
 62
     4
 66
     1
 70
     2
  0
VERTEX
  8
0
 10
278.983887
 20
116.783051
  0
VERTEX
  8
0
 10
289.598755
 20
116.783051
  0
SEQEND
  0
POLYLINE
  8
0
 62
     4
 66
     1
 70
     2
  0
VERTEX
  8
0
 10
278.983887
 20
113.543045
  0
VERTEX
  8
0
 10
289.598755
 20
113.543045
  0
SEQEND
  0
POLYLINE
  8
0
 62
     5
 66
     1
 70
     2
  0
VERTEX
  8
0
 10
289.673920
 20
115.163048
  0
VERTEX
  8
0
 10
310.869568
 20
163.750000
  0
VERTEX
  8
0
 10
290.239136
 20
163.750000
  0
SEQEND
  0
POLYLINE
  8
0
 62
     5
 66
     1
 70
     2
  0
VERTEX
  8
0
 10
290.356262
 20
120.261139
  0
VERTEX
  8
0
 10
289.673920
 20
115.163048
  0
VERTEX
  8
0
 10
292.946594
 20
119.131126
  0
SEQEND
  0
TEXT
  8
0
 62
     7
 10
293.065216
 20
165.163055
 40
6.782609
 41
1.000000
  1
M4
  7
KANJI
 50
0.000000
 51
0.000000
  0
LINE
  8
0
 62
     5
 10
181.195663
 20
122.163048
 11
181.195663
 21
108.163048
  0
POLYLINE
  8
0
 62
     5
 66
     1
 70
     2
  0
VERTEX
  8
0
 10
179.782623
 20
113.108704
  0
VERTEX
  8
0
 10
181.195663
 20
108.163048
  0
VERTEX
  8
0
 10
182.608704
 20
113.108704
  0
SEQEND
  0
LINE
  8
0
 62
     5
 10
144.456528
 20
108.163048
 11
183.315231
 21
108.163048
  0
TEXT
  8
0
 62
     7
 10
179.782623
 20
106.861420
 40
7.065217
 41
1.000000
  1
%%c14
  7
KANJI
 50
90.000000
 51
0.000000
  0
POLYLINE
  8
0
 62
     4
 66
     1
 70
     2
  0
VERTEX
  8
0
 10
114.456528
 20
107.663048
  0
VERTEX
  8
0
 10
114.456528
 20
91.263046
  0
VERTEX
  8
0
 10
114.556526
 20
91.163048
  0
VERTEX
  8
0
 10
134.356522
 20
91.163048
  0
VERTEX
  8
0
 10
134.456528
 20
91.263046
  0
VERTEX
  8
0
 10
134.456528
 20
96.663048
  0
SEQEND
  0
POLYLINE
  8
0
 62
     4
 66
     1
 70
     2
  0
VERTEX
  8
0
 10
135.456528
 20
97.663048
  0
VERTEX
  8
0
 10
143.956528
 20
97.663048
  0
VERTEX
  8
0
 10
144.456528
 20
98.163048
  0
VERTEX
  8
0
 10
144.456528
 20
132.163055
  0
VERTEX
  8
0
 10
143.956528
 20
132.663055
  0
VERTEX
  8
0
 10
135.456528
 20
132.663055
  0
SEQEND
  0
POLYLINE
  8
0
 62
     4
 66
     1
 70
     2
  0
VERTEX
  8
0
 10
134.456528
 20
133.663055
  0
VERTEX
  8
0
 10
134.456528
 20
139.063049
  0
VERTEX
  8
0
 10
134.356522
 20
139.163055
  0
VERTEX
  8
0
 10
114.556526
 20
139.163055
  0
VERTEX
  8
0
 10
114.456528
 20
139.063049
  0
VERTEX
  8
0
 10
114.456528
 20
107.663048
  0
SEQEND
  0
CIRCLE
  8
0
 62
     4
 10
272.173920
 20
115.163048
 40
17.500000
  0
LINE
  8
0
 62
     5
 10
152.934784
 20
146.228271
 11
130.978271
 21
146.228271
  0
POLYLINE
  8
0
 62
     5
 66
     1
 70
     2
  0
VERTEX
  8
0
 10
134.510880
 20
144.815216
  0
VERTEX
  8
0
 10
139.456528
 20
146.228271
  0
VERTEX
  8
0
 10
134.510880
 20
147.641312
  0
SEQEND
  0
POLYLINE
  8
0
 62
     5
 66
     1
 70
     2
  0
VERTEX
  8
0
 10
149.402176
 20
147.641312
  0
VERTEX
  8
0
 10
144.456528
 20
146.228271
  0
VERTEX
  8
0
 10
149.402176
 20
144.815216
  0
SEQEND
  0
LINE
  8
0
 62
     5
 10
139.456528
 20
139.163055
 11
139.456528
 21
148.347839
  0
TEXT
  8
0
 62
     7
 10
139.660339
 20
147.358704
 40
7.065217
 41
1.000000
  1
5
  7
KANJI
 50
0.000000
 51
0.000000
  0
LINE
  8
0
 62
     5
 10
139.456528
 20
132.663055
 11
139.456528
 21
139.163055
  0
ENDSEC
  0
EOF
