  0
SECTION
  2
HEADER
  9
$ACADVER
  1
AC1003
  9
$INSBASE
 10
0.000000
 20
0.000000
  9
$EXTMIN
 10
0.000000
 20
0.000000
  9
$EXTMAX
 10
490.434783
 20
339.130435
  9
$LIMMIN
 10
0.000000
 20
0.000000
  9
$LIMMAX
 10
490.434783
 20
339.130435
  9
$VIEWCTR
 10
245.217391
 20
169.565217
  9
$VIEWSIZE
 40
339.130435
  0
ENDSEC
  0
SECTION
  2
TABLES
  0
TABLE
  2
LTYPE
 70
     4
  0
LTYPE
  2
CONTINUOUS
 70
    64
  3
SolidLine
 72
    65
 73
     0
 40
0.0
  0
LTYPE
  2
HIDDEN
 70
    64
  3
------------------------
 72
    65
 73
     2
 40
5.217391
 49
3.478261
 49
-1.739130
  0
LTYPE
  2
DASHDOT
 70
    64
  3
--?--?--?--?--?--?--?--
 72
    65
 73
     4
 40
20.869565
 49
15.652174
 49
-1.739130
 49
1.739130
 49
-1.739130
  0
LTYPE
  2
DIVIDE
 70
    64
  3
--??--??--??--??--??--
 72
    65
 73
     6
 40
26.086957
 49
17.391304
 49
-1.739130
 49
1.739130
 49
-1.739130
 49
1.739130
 49
-1.739130
  0
ENDTAB
  0
TABLE
  2
LAYER
 70
     5
  0
LAYER
  2
0
 70
    64
 62
     7
  6
CONTINUOUS
  0
LAYER
  2
HIDDEN
 70
    64
 62
     2
  6
HIDDEN
  0
LAYER
  2
DASHDOT
 70
    64
 62
     6
  6
DASHDOT
  0
LAYER
  2
DIVIDE
 70
    64
 62
     5
  6
DIVIDE
  0
ENDTAB
  0
TABLE
  2
STYLE
 70
     1
  0
STYLE
  2
STANDARD
 70
    64
 40
0.0
 41
1.0
 50
0.0
 71
     0
 42
0.2
  3
TXT
  4

  0
STYLE
  2
KANJI
 70
    64
 40
0.0
 41
1.0
 50
0.0
 71
     0
 42
0.2
  3
TXT
  4
BIGFONT
  0
ENDTAB
  0
TABLE
  2
VIEW
 70
     0
  0
ENDTAB
  0
ENDSEC
  0
SECTION
  2
BLOCKS
  0
ENDSEC
  0
SECTION
  2
ENTITIES
  0
TEXT
  8
0
 62
     7
 10
17.391304
 20
19.130434
 40
6.956522
 41
1.000000
  1
KHK PS2-30J17
  7
KANJI
 50
0.000000
 51
0.000000
  0
TEXT
  8
0
 62
     7
 10
17.391304
 20
8.695652
 40
6.956522
 41
1.000000
  1
The precision grade of gears after secondary operations is equivalent but not identical to its original grade.
  7
KANJI
 50
0.000000
 51
0.000000
  0
TEXT
  8
0
 62
     7
 10
17.391304
 20
313.043488
 40
7.826087
 41
1.000000
  1

  7
KANJI
 50
0.000000
 51
0.000000
  0
POLYLINE
  8
0
 62
     7
 66
     1
 70
     2
  0
VERTEX
  8
0
 10
417.391296
 20
313.043488
  0
VERTEX
  8
0
 10
410.608673
 20
324.800018
  0
VERTEX
  8
0
 10
437.739136
 20
324.800018
  0
VERTEX
  8
0
 10
430.956512
 20
313.043488
  0
VERTEX
  8
0
 10
424.173920
 20
324.800018
  0
VERTEX
  8
0
 10
417.391296
 20
313.043488
  0
SEQEND
  0
LINE
  8
0
 62
     5
 10
257.826080
 20
173.739136
 11
257.826080
 21
109.739136
  0
POLYLINE
  8
0
 62
     5
 66
     1
 70
     2
  0
VERTEX
  8
0
 10
259.565216
 20
167.652176
  0
VERTEX
  8
0
 10
257.826080
 20
173.739136
  0
VERTEX
  8
0
 10
256.086975
 20
167.652176
  0
SEQEND
  0
POLYLINE
  8
0
 62
     5
 66
     1
 70
     2
  0
VERTEX
  8
0
 10
256.086975
 20
115.826096
  0
VERTEX
  8
0
 10
257.826080
 20
109.739136
  0
VERTEX
  8
0
 10
259.565216
 20
115.826096
  0
SEQEND
  0
LINE
  8
0
 62
     5
 10
170.869568
 20
173.739136
 11
260.434784
 21
173.739136
  0
LINE
  8
0
 62
     5
 10
170.869568
 20
109.739136
 11
260.434784
 21
109.739136
  0
TEXT
  8
0
 62
     7
 10
256.086975
 20
131.521744
 40
8.695652
 41
1.000000
  1
%%c64
  7
KANJI
 50
90.000000
 51
0.000000
  0
LINE
  8
DASHDOT
 62
     7
 10
135.652176
 20
171.739136
 11
166.086960
 21
171.739136
  0
LINE
  8
DASHDOT
 62
     7
 10
135.652176
 20
111.739136
 11
166.086960
 21
111.739136
  0
LINE
  8
DASHDOT
 62
     7
 10
135.652176
 20
141.739136
 11
176.086960
 21
141.739136
  0
LINE
  8
0
 62
     5
 10
160.869568
 20
173.639130
 11
160.869568
 21
173.739136
  0
LINE
  8
0
 62
     5
 10
140.869568
 20
173.639130
 11
140.869568
 21
173.739136
  0
LINE
  8
0
 62
     5
 10
161.869568
 20
166.739136
 11
170.869568
 21
166.739136
  0
LINE
  8
0
 62
     5
 10
161.869568
 20
116.739136
 11
170.869568
 21
116.739136
  0
LINE
  8
0
 62
     5
 10
160.769562
 20
173.739136
 11
170.869568
 21
173.739136
  0
LINE
  8
0
 62
     5
 10
160.769562
 20
109.739136
 11
170.869568
 21
109.739136
  0
LINE
  8
0
 62
     4
 10
140.869568
 20
169.239136
 11
160.869568
 21
169.239136
  0
LINE
  8
0
 62
     4
 10
140.869568
 20
114.239136
 11
160.869568
 21
114.239136
  0
LINE
  8
0
 62
     4
 10
170.369568
 20
133.239136
 11
170.869568
 21
132.739136
  0
LINE
  8
0
 62
     4
 10
170.369568
 20
150.239136
 11
170.869568
 21
150.739136
  0
LINE
  8
0
 62
     4
 10
141.369568
 20
150.239136
 11
141.369568
 21
133.239136
  0
POLYLINE
  8
0
 62
     4
 66
     1
 70
     2
  0
VERTEX
  8
0
 10
140.869568
 20
132.739136
  0
VERTEX
  8
0
 10
141.369568
 20
133.239136
  0
VERTEX
  8
0
 10
170.369568
 20
133.239136
  0
VERTEX
  8
0
 10
170.369568
 20
150.239136
  0
VERTEX
  8
0
 10
141.369568
 20
150.239136
  0
VERTEX
  8
0
 10
140.869568
 20
150.739136
  0
SEQEND
  0
ARC
  8
0
 62
     4
 10
161.869568
 20
167.739136
 40
1.000000
 50
180.0
 51
270.0
  0
ARC
  8
0
 62
     4
 10
161.869568
 20
115.739136
 40
1.000000
 50
90.0
 51
180.0
  0
LINE
  8
0
 62
     5
 10
170.869568
 20
166.239136
 11
170.869568
 21
173.739136
  0
LINE
  8
0
 62
     5
 10
140.869568
 20
220.695648
 11
160.869568
 21
220.695648
  0
POLYLINE
  8
0
 62
     5
 66
     1
 70
     2
  0
VERTEX
  8
0
 10
146.956528
 20
222.434784
  0
VERTEX
  8
0
 10
140.869568
 20
220.695648
  0
VERTEX
  8
0
 10
146.956528
 20
218.956528
  0
SEQEND
  0
POLYLINE
  8
0
 62
     5
 66
     1
 70
     2
  0
VERTEX
  8
0
 10
154.782608
 20
218.956528
  0
VERTEX
  8
0
 10
160.869568
 20
220.695648
  0
VERTEX
  8
0
 10
154.782608
 20
222.434784
  0
SEQEND
  0
LINE
  8
0
 62
     5
 10
160.869568
 20
173.739136
 11
160.869568
 21
223.304352
  0
TEXT
  8
0
 62
     7
 10
145.217392
 20
222.086960
 40
8.695652
 41
1.000000
  1
20
  7
KANJI
 50
0.000000
 51
0.000000
  0
LINE
  8
0
 62
     5
 10
140.869568
 20
234.608704
 11
170.869568
 21
234.608704
  0
POLYLINE
  8
0
 62
     5
 66
     1
 70
     2
  0
VERTEX
  8
0
 10
146.956528
 20
236.347839
  0
VERTEX
  8
0
 10
140.869568
 20
234.608704
  0
VERTEX
  8
0
 10
146.956528
 20
232.869568
  0
SEQEND
  0
POLYLINE
  8
0
 62
     5
 66
     1
 70
     2
  0
VERTEX
  8
0
 10
164.782608
 20
232.869568
  0
VERTEX
  8
0
 10
170.869568
 20
234.608704
  0
VERTEX
  8
0
 10
164.782608
 20
236.347839
  0
SEQEND
  0
LINE
  8
0
 62
     5
 10
140.869568
 20
173.739136
 11
140.869568
 21
237.217407
  0
LINE
  8
0
 62
     5
 10
170.869568
 20
173.739136
 11
170.869568
 21
237.217407
  0
TEXT
  8
0
 62
     7
 10
150.217392
 20
236.000000
 40
8.695652
 41
1.000000
  1
30
  7
KANJI
 50
0.000000
 51
0.000000
  0
LINE
  8
0
 62
     5
 10
181.304352
 20
220.695648
 11
150.434784
 21
220.695648
  0
POLYLINE
  8
0
 62
     5
 66
     1
 70
     2
  0
VERTEX
  8
0
 10
154.782608
 20
218.956528
  0
VERTEX
  8
0
 10
160.869568
 20
220.695648
  0
VERTEX
  8
0
 10
154.782608
 20
222.434784
  0
SEQEND
  0
POLYLINE
  8
0
 62
     5
 66
     1
 70
     2
  0
VERTEX
  8
0
 10
176.956528
 20
222.434784
  0
VERTEX
  8
0
 10
170.869568
 20
220.695648
  0
VERTEX
  8
0
 10
176.956528
 20
218.956528
  0
SEQEND
  0
TEXT
  8
0
 62
     7
 10
176.086960
 20
222.086960
 40
8.695652
 41
1.000000
  1
10
  7
KANJI
 50
0.000000
 51
0.000000
  0
LINE
  8
0
 62
     5
 10
243.913055
 20
166.739136
 11
243.913055
 21
116.739136
  0
POLYLINE
  8
0
 62
     5
 66
     1
 70
     2
  0
VERTEX
  8
0
 10
245.652176
 20
160.652176
  0
VERTEX
  8
0
 10
243.913055
 20
166.739136
  0
VERTEX
  8
0
 10
242.173920
 20
160.652176
  0
SEQEND
  0
POLYLINE
  8
0
 62
     5
 66
     1
 70
     2
  0
VERTEX
  8
0
 10
242.173920
 20
122.826096
  0
VERTEX
  8
0
 10
243.913055
 20
116.739136
  0
VERTEX
  8
0
 10
245.652176
 20
122.826096
  0
SEQEND
  0
LINE
  8
0
 62
     5
 10
170.869568
 20
166.739136
 11
246.521744
 21
166.739136
  0
LINE
  8
0
 62
     5
 10
170.869568
 20
116.739136
 11
246.521744
 21
116.739136
  0
TEXT
  8
0
 62
     7
 10
242.173920
 20
131.521744
 40
8.695652
 41
1.000000
  1
%%c50
  7
KANJI
 50
90.000000
 51
0.000000
  0
LINE
  8
DASHDOT
 62
     7
 10
331.521729
 20
175.434784
 11
331.521729
 21
111.521744
  0
LINE
  8
DASHDOT
 62
     7
 10
301.304352
 20
141.739136
 11
361.739136
 21
141.739136
  0
LINE
  8
0
 62
     5
 10
344.456543
 20
191.086960
 11
318.586975
 21
191.086960
  0
POLYLINE
  8
0
 62
     5
 66
     1
 70
     2
  0
VERTEX
  8
0
 10
322.934784
 20
189.347839
  0
VERTEX
  8
0
 10
329.021729
 20
191.086960
  0
VERTEX
  8
0
 10
322.934784
 20
192.826096
  0
SEQEND
  0
POLYLINE
  8
0
 62
     5
 66
     1
 70
     2
  0
VERTEX
  8
0
 10
340.108704
 20
192.826096
  0
VERTEX
  8
0
 10
334.021729
 20
191.086960
  0
VERTEX
  8
0
 10
340.108704
 20
189.347839
  0
SEQEND
  0
LINE
  8
0
 62
     5
 10
329.021729
 20
152.539139
 11
329.021729
 21
193.695663
  0
LINE
  8
0
 62
     5
 10
334.021729
 20
152.539139
 11
334.021729
 21
193.695663
  0
TEXT
  8
0
 62
     7
 10
313.572205
 20
192.826096
 40
8.695652
 41
1.000000
  1
5
  7
KANJI
 50
0.000000
 51
0.000000
  0
TEXT
  8
0
 62
     7
 10
322.179810
 20
192.826096
 40
6.956522
 41
1.000000
  1
%%p0.015
  7
KANJI
 50
0.000000
 51
0.000000
  0
LINE
  8
0
 62
     5
 10
382.608704
 20
122.804352
 11
382.608704
 21
162.973923
  0
POLYLINE
  8
0
 62
     5
 66
     1
 70
     2
  0
VERTEX
  8
0
 10
380.869568
 20
158.626099
  0
VERTEX
  8
0
 10
382.608704
 20
152.539139
  0
VERTEX
  8
0
 10
384.347839
 20
158.626099
  0
SEQEND
  0
POLYLINE
  8
0
 62
     5
 66
     1
 70
     2
  0
VERTEX
  8
0
 10
384.347839
 20
127.152176
  0
VERTEX
  8
0
 10
382.608704
 20
133.239136
  0
VERTEX
  8
0
 10
380.869568
 20
127.152176
  0
SEQEND
  0
LINE
  8
0
 62
     5
 10
334.021729
 20
152.539139
 11
385.217407
 21
152.539139
  0
LINE
  8
0
 62
     5
 10
331.521729
 20
133.239136
 11
385.217407
 21
133.239136
  0
TEXT
  8
0
 62
     7
 10
380.000000
 20
116.164719
 40
8.695652
 41
1.000000
  1
19.3
  7
KANJI
 50
90.000000
 51
0.000000
  0
TEXT
  8
0
 62
     7
 10
380.521729
 20
153.802948
 40
4.347826
 41
1.000000
  1
 
  7
KANJI
 50
90.000000
 51
0.000000
  0
TEXT
  8
0
 62
     7
 10
375.130432
 20
153.802948
 40
4.347826
 41
1.000000
  1
+
  7
KANJI
 50
90.000000
 51
0.000000
  0
TEXT
  8
0
 62
     7
 10
380.521729
 20
158.672501
 40
4.347826
 41
1.000000
  1
0
  7
KANJI
 50
90.000000
 51
0.000000
  0
TEXT
  8
0
 62
     7
 10
375.130432
 20
158.672501
 40
4.347826
 41
1.000000
  1
0.1
  7
KANJI
 50
90.000000
 51
0.000000
  0
ARC
  8
0
 62
     4
 10
331.521729
 20
141.739136
 40
8.500000
 50
107.10463483476482
 51
72.89536516523518
  0
POLYLINE
  8
0
 62
     4
 66
     1
 70
     2
  0
VERTEX
  8
0
 10
334.021729
 20
149.863174
  0
VERTEX
  8
0
 10
334.021729
 20
152.539139
  0
VERTEX
  8
0
 10
329.021729
 20
152.539139
  0
VERTEX
  8
0
 10
329.021729
 20
149.863174
  0
SEQEND
  0
LINE
  8
0
 62
     4
 10
140.869568
 20
152.539139
 11
170.869568
 21
152.539139
  0
POLYLINE
  8
DASHDOT
 62
     7
 66
     1
 70
     2
  0
VERTEX
  8
DASHDOT
 10
165.869568
 20
171.956528
  0
VERTEX
  8
DASHDOT
 10
165.869568
 20
147.321747
  0
SEQEND
  0
POLYLINE
  8
0
 62
     4
 66
     1
 70
     2
  0
VERTEX
  8
0
 10
167.869568
 20
166.739136
  0
VERTEX
  8
0
 10
167.869568
 20
152.539139
  0
SEQEND
  0
POLYLINE
  8
0
 62
     4
 66
     1
 70
     2
  0
VERTEX
  8
0
 10
163.869568
 20
166.739136
  0
VERTEX
  8
0
 10
163.869568
 20
152.539139
  0
SEQEND
  0
POLYLINE
  8
0
 62
     4
 66
     1
 70
     2
  0
VERTEX
  8
0
 10
167.489563
 20
166.739136
  0
VERTEX
  8
0
 10
167.489563
 20
152.539139
  0
SEQEND
  0
POLYLINE
  8
0
 62
     4
 66
     1
 70
     2
  0
VERTEX
  8
0
 10
164.249573
 20
166.739136
  0
VERTEX
  8
0
 10
164.249573
 20
152.539139
  0
SEQEND
  0
POLYLINE
  8
0
 62
     4
 66
     1
 70
     2
  0
VERTEX
  8
0
 10
329.521729
 20
152.539139
  0
VERTEX
  8
0
 10
329.521729
 20
166.659012
  0
SEQEND
  0
POLYLINE
  8
0
 62
     4
 66
     1
 70
     2
  0
VERTEX
  8
0
 10
333.521729
 20
152.539139
  0
VERTEX
  8
0
 10
333.521729
 20
166.659012
  0
SEQEND
  0
POLYLINE
  8
0
 62
     4
 66
     1
 70
     2
  0
VERTEX
  8
0
 10
329.901733
 20
152.539139
  0
VERTEX
  8
0
 10
329.901733
 20
166.686584
  0
SEQEND
  0
POLYLINE
  8
0
 62
     4
 66
     1
 70
     2
  0
VERTEX
  8
0
 10
333.141724
 20
152.539139
  0
VERTEX
  8
0
 10
333.141724
 20
166.686584
  0
SEQEND
  0
POLYLINE
  8
0
 62
     5
 66
     1
 70
     2
  0
VERTEX
  8
0
 10
331.521729
 20
166.739136
  0
VERTEX
  8
0
 10
300.217407
 20
218.913055
  0
VERTEX
  8
0
 10
319.347839
 20
218.913055
  0
SEQEND
  0
POLYLINE
  8
0
 62
     5
 66
     1
 70
     2
  0
VERTEX
  8
0
 10
326.898743
 20
171.063889
  0
VERTEX
  8
0
 10
331.521729
 20
166.739136
  0
VERTEX
  8
0
 10
329.881317
 20
172.853439
  0
SEQEND
  0
TEXT
  8
0
 62
     7
 10
301.956543
 20
220.652176
 40
8.347826
 41
1.000000
  1
M4
  7
KANJI
 50
0.000000
 51
0.000000
  0
CIRCLE
  8
0
 62
     7
 10
165.869568
 20
141.739136
 40
2.000000
  0
CIRCLE
  8
0
 62
     4
 10
165.869568
 20
141.739136
 40
1.620000
  0
POLYLINE
  8
DASHDOT
 62
     7
 66
     1
 70
     2
  0
VERTEX
  8
DASHDOT
 10
158.652176
 20
141.739136
  0
VERTEX
  8
DASHDOT
 10
173.086960
 20
141.739136
  0
SEQEND
  0
POLYLINE
  8
DASHDOT
 62
     7
 66
     1
 70
     2
  0
VERTEX
  8
DASHDOT
 10
165.869568
 20
134.521744
  0
VERTEX
  8
DASHDOT
 10
165.869568
 20
148.956528
  0
SEQEND
  0
LINE
  8
DASHDOT
 62
     7
 10
165.869568
 20
166.739136
 11
165.869568
 21
141.739136
  0
LINE
  8
0
 62
     5
 10
165.869568
 20
166.739136
 11
165.869568
 21
173.739136
  0
POLYLINE
  8
0
 62
     4
 66
     1
 70
     2
  0
VERTEX
  8
0
 10
339.783081
 20
143.739136
  0
VERTEX
  8
0
 10
356.441620
 20
143.739136
  0
SEQEND
  0
POLYLINE
  8
0
 62
     4
 66
     1
 70
     2
  0
VERTEX
  8
0
 10
339.783081
 20
139.739136
  0
VERTEX
  8
0
 10
356.441620
 20
139.739136
  0
SEQEND
  0
POLYLINE
  8
0
 62
     4
 66
     1
 70
     2
  0
VERTEX
  8
0
 10
339.865936
 20
143.359131
  0
VERTEX
  8
0
 10
356.469208
 20
143.359131
  0
SEQEND
  0
POLYLINE
  8
0
 62
     4
 66
     1
 70
     2
  0
VERTEX
  8
0
 10
339.865936
 20
140.119141
  0
VERTEX
  8
0
 10
356.469208
 20
140.119141
  0
SEQEND
  0
POLYLINE
  8
0
 62
     5
 66
     1
 70
     2
  0
VERTEX
  8
0
 10
356.521729
 20
141.739136
  0
VERTEX
  8
0
 10
382.608704
 20
205.000000
  0
VERTEX
  8
0
 10
357.217407
 20
205.000000
  0
SEQEND
  0
POLYLINE
  8
0
 62
     5
 66
     1
 70
     2
  0
VERTEX
  8
0
 10
357.234497
 20
148.029419
  0
VERTEX
  8
0
 10
356.521729
 20
141.739136
  0
VERTEX
  8
0
 10
360.450073
 20
146.703400
  0
SEQEND
  0
TEXT
  8
0
 62
     7
 10
360.695679
 20
206.739136
 40
8.347826
 41
1.000000
  1
M4
  7
KANJI
 50
0.000000
 51
0.000000
  0
LINE
  8
0
 62
     5
 10
216.086960
 20
150.239136
 11
216.086960
 21
133.239136
  0
POLYLINE
  8
0
 62
     5
 66
     1
 70
     2
  0
VERTEX
  8
0
 10
214.347839
 20
139.326096
  0
VERTEX
  8
0
 10
216.086960
 20
133.239136
  0
VERTEX
  8
0
 10
217.826080
 20
139.326096
  0
SEQEND
  0
LINE
  8
0
 62
     5
 10
170.869568
 20
133.239136
 11
218.695648
 21
133.239136
  0
TEXT
  8
0
 62
     7
 10
214.347839
 20
131.521744
 40
8.695652
 41
1.000000
  1
%%c17
  7
KANJI
 50
90.000000
 51
0.000000
  0
POLYLINE
  8
0
 62
     4
 66
     1
 70
     2
  0
VERTEX
  8
0
 10
140.869568
 20
132.739136
  0
VERTEX
  8
0
 10
140.869568
 20
109.839134
  0
VERTEX
  8
0
 10
140.969574
 20
109.739136
  0
VERTEX
  8
0
 10
160.769562
 20
109.739136
  0
VERTEX
  8
0
 10
160.869568
 20
109.839134
  0
VERTEX
  8
0
 10
160.869568
 20
115.739136
  0
SEQEND
  0
POLYLINE
  8
0
 62
     4
 66
     1
 70
     2
  0
VERTEX
  8
0
 10
161.869568
 20
116.739136
  0
VERTEX
  8
0
 10
170.369568
 20
116.739136
  0
VERTEX
  8
0
 10
170.869568
 20
117.239136
  0
VERTEX
  8
0
 10
170.869568
 20
166.239136
  0
VERTEX
  8
0
 10
170.369568
 20
166.739136
  0
VERTEX
  8
0
 10
161.869568
 20
166.739136
  0
SEQEND
  0
POLYLINE
  8
0
 62
     4
 66
     1
 70
     2
  0
VERTEX
  8
0
 10
160.869568
 20
167.739136
  0
VERTEX
  8
0
 10
160.869568
 20
173.639130
  0
VERTEX
  8
0
 10
160.769562
 20
173.739136
  0
VERTEX
  8
0
 10
140.969574
 20
173.739136
  0
VERTEX
  8
0
 10
140.869568
 20
173.639130
  0
VERTEX
  8
0
 10
140.869568
 20
132.739136
  0
SEQEND
  0
CIRCLE
  8
0
 62
     4
 10
331.521729
 20
141.739136
 40
25.000000
  0
LINE
  8
0
 62
     5
 10
181.304352
 20
182.434784
 11
155.434784
 21
182.434784
  0
POLYLINE
  8
0
 62
     5
 66
     1
 70
     2
  0
VERTEX
  8
0
 10
159.782608
 20
180.695648
  0
VERTEX
  8
0
 10
165.869568
 20
182.434784
  0
VERTEX
  8
0
 10
159.782608
 20
184.173920
  0
SEQEND
  0
POLYLINE
  8
0
 62
     5
 66
     1
 70
     2
  0
VERTEX
  8
0
 10
176.956528
 20
184.173920
  0
VERTEX
  8
0
 10
170.869568
 20
182.434784
  0
VERTEX
  8
0
 10
176.956528
 20
180.695648
  0
SEQEND
  0
LINE
  8
0
 62
     5
 10
165.869568
 20
173.739136
 11
165.869568
 21
185.043488
  0
TEXT
  8
0
 62
     7
 10
176.086960
 20
183.826096
 40
8.695652
 41
1.000000
  1
5
  7
KANJI
 50
0.000000
 51
0.000000
  0
LINE
  8
0
 62
     5
 10
165.869568
 20
166.739136
 11
165.869568
 21
173.739136
  0
ENDSEC
  0
EOF
