  0
SECTION
  2
HEADER
  9
$ACADVER
  1
AC1003
  9
$INSBASE
 10
0.000000
 20
0.000000
  9
$EXTMIN
 10
0.000000
 20
0.000000
  9
$EXTMAX
 10
423.000000
 20
292.500000
  9
$LIMMIN
 10
0.000000
 20
0.000000
  9
$LIMMAX
 10
423.000000
 20
292.500000
  9
$VIEWCTR
 10
211.500000
 20
146.250000
  9
$VIEWSIZE
 40
292.500000
  0
ENDSEC
  0
SECTION
  2
TABLES
  0
TABLE
  2
LTYPE
 70
     4
  0
LTYPE
  2
CONTINUOUS
 70
    64
  3
SolidLine
 72
    65
 73
     0
 40
0.0
  0
LTYPE
  2
HIDDEN
 70
    64
  3
------------------------
 72
    65
 73
     2
 40
4.500000
 49
3.000000
 49
-1.500000
  0
LTYPE
  2
DASHDOT
 70
    64
  3
--?--?--?--?--?--?--?--
 72
    65
 73
     4
 40
18.000000
 49
13.500000
 49
-1.500000
 49
1.500000
 49
-1.500000
  0
LTYPE
  2
DIVIDE
 70
    64
  3
--??--??--??--??--??--
 72
    65
 73
     6
 40
22.500000
 49
15.000000
 49
-1.500000
 49
1.500000
 49
-1.500000
 49
1.500000
 49
-1.500000
  0
ENDTAB
  0
TABLE
  2
LAYER
 70
     5
  0
LAYER
  2
0
 70
    64
 62
     7
  6
CONTINUOUS
  0
LAYER
  2
HIDDEN
 70
    64
 62
     2
  6
HIDDEN
  0
LAYER
  2
DASHDOT
 70
    64
 62
     6
  6
DASHDOT
  0
LAYER
  2
DIVIDE
 70
    64
 62
     5
  6
DIVIDE
  0
ENDTAB
  0
TABLE
  2
STYLE
 70
     1
  0
STYLE
  2
STANDARD
 70
    64
 40
0.0
 41
1.0
 50
0.0
 71
     0
 42
0.2
  3
TXT
  4

  0
STYLE
  2
KANJI
 70
    64
 40
0.0
 41
1.0
 50
0.0
 71
     0
 42
0.2
  3
TXT
  4
BIGFONT
  0
ENDTAB
  0
TABLE
  2
VIEW
 70
     0
  0
ENDTAB
  0
ENDSEC
  0
SECTION
  2
BLOCKS
  0
ENDSEC
  0
SECTION
  2
ENTITIES
  0
TEXT
  8
0
 62
     7
 10
15.000000
 20
16.500000
 40
6.000000
 41
1.000000
  1
KHK PS2.5-16
  7
KANJI
 50
0.000000
 51
0.000000
  0
TEXT
  8
0
 62
     7
 10
15.000000
 20
7.500000
 40
6.000000
 41
1.000000
  1

  7
KANJI
 50
0.000000
 51
0.000000
  0
TEXT
  8
0
 62
     7
 10
15.000000
 20
270.000000
 40
6.750000
 41
1.000000
  1

  7
KANJI
 50
0.000000
 51
0.000000
  0
POLYLINE
  8
0
 62
     7
 66
     1
 70
     2
  0
VERTEX
  8
0
 10
360.000000
 20
270.000000
  0
VERTEX
  8
0
 10
354.149994
 20
280.140015
  0
VERTEX
  8
0
 10
377.549988
 20
280.140015
  0
VERTEX
  8
0
 10
371.700012
 20
270.000000
  0
VERTEX
  8
0
 10
365.850006
 20
280.140015
  0
VERTEX
  8
0
 10
360.000000
 20
270.000000
  0
SEQEND
  0
LINE
  8
0
 62
     5
 10
233.500000
 20
144.750000
 11
233.500000
 21
99.750000
  0
POLYLINE
  8
0
 62
     5
 66
     1
 70
     2
  0
VERTEX
  8
0
 10
235.000000
 20
139.500000
  0
VERTEX
  8
0
 10
233.500000
 20
144.750000
  0
VERTEX
  8
0
 10
232.000000
 20
139.500000
  0
SEQEND
  0
POLYLINE
  8
0
 62
     5
 66
     1
 70
     2
  0
VERTEX
  8
0
 10
232.000000
 20
105.000000
  0
VERTEX
  8
0
 10
233.500000
 20
99.750000
  0
VERTEX
  8
0
 10
235.000000
 20
105.000000
  0
SEQEND
  0
LINE
  8
0
 62
     5
 10
158.500000
 20
144.750000
 11
235.750000
 21
144.750000
  0
LINE
  8
0
 62
     5
 10
158.500000
 20
99.750000
 11
235.750000
 21
99.750000
  0
TEXT
  8
0
 62
     7
 10
232.000000
 20
113.437500
 40
7.500000
 41
1.000000
  1
%%c45
  7
KANJI
 50
90.000000
 51
0.000000
  0
LINE
  8
DASHDOT
 62
     7
 10
117.000000
 20
142.250000
 11
151.000000
 21
142.250000
  0
LINE
  8
DASHDOT
 62
     7
 10
117.000000
 20
102.250000
 11
151.000000
 21
102.250000
  0
LINE
  8
DASHDOT
 62
     7
 10
117.000000
 20
122.250000
 11
163.000000
 21
122.250000
  0
LINE
  8
0
 62
     5
 10
146.500000
 20
144.649994
 11
146.500000
 21
144.750000
  0
LINE
  8
0
 62
     5
 10
121.500000
 20
144.649994
 11
121.500000
 21
144.750000
  0
LINE
  8
0
 62
     5
 10
147.500000
 20
138.250000
 11
158.500000
 21
138.250000
  0
LINE
  8
0
 62
     5
 10
147.500000
 20
106.250000
 11
158.500000
 21
106.250000
  0
LINE
  8
0
 62
     5
 10
146.399994
 20
144.750000
 11
158.500000
 21
144.750000
  0
LINE
  8
0
 62
     5
 10
146.399994
 20
99.750000
 11
158.500000
 21
99.750000
  0
LINE
  8
0
 62
     4
 10
121.500000
 20
139.125000
 11
146.500000
 21
139.125000
  0
LINE
  8
0
 62
     4
 10
121.500000
 20
105.375000
 11
146.500000
 21
105.375000
  0
LINE
  8
0
 62
     4
 10
158.000000
 20
116.250000
 11
158.500000
 21
115.750000
  0
LINE
  8
0
 62
     4
 10
158.000000
 20
128.250000
 11
158.500000
 21
128.750000
  0
LINE
  8
0
 62
     4
 10
122.000000
 20
128.250000
 11
122.000000
 21
116.250000
  0
POLYLINE
  8
0
 62
     4
 66
     1
 70
     2
  0
VERTEX
  8
0
 10
121.500000
 20
115.750000
  0
VERTEX
  8
0
 10
122.000000
 20
116.250000
  0
VERTEX
  8
0
 10
158.000000
 20
116.250000
  0
VERTEX
  8
0
 10
158.000000
 20
128.250000
  0
VERTEX
  8
0
 10
122.000000
 20
128.250000
  0
VERTEX
  8
0
 10
121.500000
 20
128.750000
  0
SEQEND
  0
ARC
  8
0
 62
     4
 10
147.500000
 20
139.250000
 40
1.000000
 50
180.0
 51
270.0
  0
ARC
  8
0
 62
     4
 10
147.500000
 20
105.250000
 40
1.000000
 50
90.0
 51
180.0
  0
LINE
  8
0
 62
     5
 10
158.500000
 20
137.250000
 11
158.500000
 21
144.750000
  0
LINE
  8
0
 62
     5
 10
121.500000
 20
185.250000
 11
146.500000
 21
185.250000
  0
POLYLINE
  8
0
 62
     5
 66
     1
 70
     2
  0
VERTEX
  8
0
 10
126.750000
 20
186.750000
  0
VERTEX
  8
0
 10
121.500000
 20
185.250000
  0
VERTEX
  8
0
 10
126.750000
 20
183.750000
  0
SEQEND
  0
POLYLINE
  8
0
 62
     5
 66
     1
 70
     2
  0
VERTEX
  8
0
 10
141.250000
 20
183.750000
  0
VERTEX
  8
0
 10
146.500000
 20
185.250000
  0
VERTEX
  8
0
 10
141.250000
 20
186.750000
  0
SEQEND
  0
LINE
  8
0
 62
     5
 10
146.500000
 20
144.750000
 11
146.500000
 21
187.500000
  0
TEXT
  8
0
 62
     7
 10
129.125000
 20
186.449997
 40
7.500000
 41
1.000000
  1
25
  7
KANJI
 50
0.000000
 51
0.000000
  0
LINE
  8
0
 62
     5
 10
121.500000
 20
197.250000
 11
158.500000
 21
197.250000
  0
POLYLINE
  8
0
 62
     5
 66
     1
 70
     2
  0
VERTEX
  8
0
 10
126.750000
 20
198.750000
  0
VERTEX
  8
0
 10
121.500000
 20
197.250000
  0
VERTEX
  8
0
 10
126.750000
 20
195.750000
  0
SEQEND
  0
POLYLINE
  8
0
 62
     5
 66
     1
 70
     2
  0
VERTEX
  8
0
 10
153.250000
 20
195.750000
  0
VERTEX
  8
0
 10
158.500000
 20
197.250000
  0
VERTEX
  8
0
 10
153.250000
 20
198.750000
  0
SEQEND
  0
LINE
  8
0
 62
     5
 10
121.500000
 20
144.750000
 11
121.500000
 21
199.500000
  0
LINE
  8
0
 62
     5
 10
158.500000
 20
144.750000
 11
158.500000
 21
199.500000
  0
TEXT
  8
0
 62
     7
 10
135.125000
 20
198.449997
 40
7.500000
 41
1.000000
  1
37
  7
KANJI
 50
0.000000
 51
0.000000
  0
LINE
  8
0
 62
     5
 10
167.500000
 20
185.250000
 11
137.500000
 21
185.250000
  0
POLYLINE
  8
0
 62
     5
 66
     1
 70
     2
  0
VERTEX
  8
0
 10
141.250000
 20
183.750000
  0
VERTEX
  8
0
 10
146.500000
 20
185.250000
  0
VERTEX
  8
0
 10
141.250000
 20
186.750000
  0
SEQEND
  0
POLYLINE
  8
0
 62
     5
 66
     1
 70
     2
  0
VERTEX
  8
0
 10
163.750000
 20
186.750000
  0
VERTEX
  8
0
 10
158.500000
 20
185.250000
  0
VERTEX
  8
0
 10
163.750000
 20
183.750000
  0
SEQEND
  0
TEXT
  8
0
 62
     7
 10
147.625000
 20
186.449997
 40
7.500000
 41
1.000000
  1
12
  7
KANJI
 50
0.000000
 51
0.000000
  0
LINE
  8
0
 62
     5
 10
221.500000
 20
138.250000
 11
221.500000
 21
106.250000
  0
POLYLINE
  8
0
 62
     5
 66
     1
 70
     2
  0
VERTEX
  8
0
 10
223.000000
 20
133.000000
  0
VERTEX
  8
0
 10
221.500000
 20
138.250000
  0
VERTEX
  8
0
 10
220.000000
 20
133.000000
  0
SEQEND
  0
POLYLINE
  8
0
 62
     5
 66
     1
 70
     2
  0
VERTEX
  8
0
 10
220.000000
 20
111.500000
  0
VERTEX
  8
0
 10
221.500000
 20
106.250000
  0
VERTEX
  8
0
 10
223.000000
 20
111.500000
  0
SEQEND
  0
LINE
  8
0
 62
     5
 10
158.500000
 20
138.250000
 11
223.750000
 21
138.250000
  0
LINE
  8
0
 62
     5
 10
158.500000
 20
106.250000
 11
223.750000
 21
106.250000
  0
TEXT
  8
0
 62
     7
 10
220.000000
 20
113.437500
 40
7.500000
 41
1.000000
  1
%%c32
  7
KANJI
 50
90.000000
 51
0.000000
  0
LINE
  8
0
 62
     5
 10
197.500000
 20
107.250000
 11
197.500000
 21
137.250000
  0
POLYLINE
  8
0
 62
     5
 66
     1
 70
     2
  0
VERTEX
  8
0
 10
196.000000
 20
133.500000
  0
VERTEX
  8
0
 10
197.500000
 20
128.250000
  0
VERTEX
  8
0
 10
199.000000
 20
133.500000
  0
SEQEND
  0
POLYLINE
  8
0
 62
     5
 66
     1
 70
     2
  0
VERTEX
  8
0
 10
199.000000
 20
111.000000
  0
VERTEX
  8
0
 10
197.500000
 20
116.250000
  0
VERTEX
  8
0
 10
196.000000
 20
111.000000
  0
SEQEND
  0
LINE
  8
0
 62
     5
 10
158.500000
 20
128.250000
 11
199.750000
 21
128.250000
  0
LINE
  8
0
 62
     5
 10
158.500000
 20
116.250000
 11
199.750000
 21
116.250000
  0
TEXT
  8
0
 62
     7
 10
196.000000
 20
113.437500
 40
7.500000
 41
1.000000
  1
%%c12
  7
KANJI
 50
90.000000
 51
0.000000
  0
POLYLINE
  8
0
 62
     4
 66
     1
 70
     2
  0
VERTEX
  8
0
 10
121.500000
 20
115.750000
  0
VERTEX
  8
0
 10
121.500000
 20
99.849998
  0
VERTEX
  8
0
 10
121.599998
 20
99.750000
  0
VERTEX
  8
0
 10
146.399994
 20
99.750000
  0
VERTEX
  8
0
 10
146.500000
 20
99.849998
  0
VERTEX
  8
0
 10
146.500000
 20
105.250000
  0
SEQEND
  0
POLYLINE
  8
0
 62
     4
 66
     1
 70
     2
  0
VERTEX
  8
0
 10
147.500000
 20
106.250000
  0
VERTEX
  8
0
 10
157.500000
 20
106.250000
  0
VERTEX
  8
0
 10
158.500000
 20
107.250000
  0
VERTEX
  8
0
 10
158.500000
 20
137.250000
  0
VERTEX
  8
0
 10
157.500000
 20
138.250000
  0
VERTEX
  8
0
 10
147.500000
 20
138.250000
  0
SEQEND
  0
POLYLINE
  8
0
 62
     4
 66
     1
 70
     2
  0
VERTEX
  8
0
 10
146.500000
 20
139.250000
  0
VERTEX
  8
0
 10
146.500000
 20
144.649994
  0
VERTEX
  8
0
 10
146.399994
 20
144.750000
  0
VERTEX
  8
0
 10
121.599998
 20
144.750000
  0
VERTEX
  8
0
 10
121.500000
 20
144.649994
  0
VERTEX
  8
0
 10
121.500000
 20
115.750000
  0
SEQEND
  0
ENDSEC
  0
EOF
