  0
SECTION
  2
HEADER
  9
$ACADVER
  1
AC1003
  9
$INSBASE
 10
0.000000
 20
0.000000
  9
$EXTMIN
 10
0.000000
 20
0.000000
  9
$EXTMAX
 10
472.043478
 20
326.413043
  9
$LIMMIN
 10
0.000000
 20
0.000000
  9
$LIMMAX
 10
472.043478
 20
326.413043
  9
$VIEWCTR
 10
236.021739
 20
163.206522
  9
$VIEWSIZE
 40
326.413043
  0
ENDSEC
  0
SECTION
  2
TABLES
  0
TABLE
  2
LTYPE
 70
     4
  0
LTYPE
  2
CONTINUOUS
 70
    64
  3
SolidLine
 72
    65
 73
     0
 40
0.0
  0
LTYPE
  2
HIDDEN
 70
    64
  3
------------------------
 72
    65
 73
     2
 40
5.021739
 49
3.347826
 49
-1.673913
  0
LTYPE
  2
DASHDOT
 70
    64
  3
--?--?--?--?--?--?--?--
 72
    65
 73
     4
 40
20.086957
 49
15.065217
 49
-1.673913
 49
1.673913
 49
-1.673913
  0
LTYPE
  2
DIVIDE
 70
    64
  3
--??--??--??--??--??--
 72
    65
 73
     6
 40
25.108696
 49
16.739130
 49
-1.673913
 49
1.673913
 49
-1.673913
 49
1.673913
 49
-1.673913
  0
ENDTAB
  0
TABLE
  2
LAYER
 70
     5
  0
LAYER
  2
0
 70
    64
 62
     7
  6
CONTINUOUS
  0
LAYER
  2
HIDDEN
 70
    64
 62
     2
  6
HIDDEN
  0
LAYER
  2
DASHDOT
 70
    64
 62
     6
  6
DASHDOT
  0
LAYER
  2
DIVIDE
 70
    64
 62
     5
  6
DIVIDE
  0
ENDTAB
  0
TABLE
  2
STYLE
 70
     1
  0
STYLE
  2
STANDARD
 70
    64
 40
0.0
 41
1.0
 50
0.0
 71
     0
 42
0.2
  3
TXT
  4

  0
STYLE
  2
KANJI
 70
    64
 40
0.0
 41
1.0
 50
0.0
 71
     0
 42
0.2
  3
TXT
  4
BIGFONT
  0
ENDTAB
  0
TABLE
  2
VIEW
 70
     0
  0
ENDTAB
  0
ENDSEC
  0
SECTION
  2
BLOCKS
  0
ENDSEC
  0
SECTION
  2
ENTITIES
  0
TEXT
  8
0
 62
     7
 10
16.739130
 20
18.413044
 40
6.695652
 41
1.000000
  1
KHK PS2.5-20
  7
KANJI
 50
0.000000
 51
0.000000
  0
TEXT
  8
0
 62
     7
 10
16.739130
 20
8.369565
 40
6.695652
 41
1.000000
  1

  7
KANJI
 50
0.000000
 51
0.000000
  0
TEXT
  8
0
 62
     7
 10
16.739130
 20
301.304352
 40
7.532609
 41
1.000000
  1

  7
KANJI
 50
0.000000
 51
0.000000
  0
POLYLINE
  8
0
 62
     7
 66
     1
 70
     2
  0
VERTEX
  8
0
 10
401.739136
 20
301.304352
  0
VERTEX
  8
0
 10
395.210876
 20
312.619995
  0
VERTEX
  8
0
 10
421.323914
 20
312.619995
  0
VERTEX
  8
0
 10
414.795654
 20
301.304352
  0
VERTEX
  8
0
 10
408.267395
 20
312.619995
  0
VERTEX
  8
0
 10
401.739136
 20
301.304352
  0
SEQEND
  0
LINE
  8
0
 62
     5
 10
256.282623
 20
163.923920
 11
256.282623
 21
108.923920
  0
POLYLINE
  8
0
 62
     5
 66
     1
 70
     2
  0
VERTEX
  8
0
 10
257.956543
 20
158.065216
  0
VERTEX
  8
0
 10
256.282623
 20
163.923920
  0
VERTEX
  8
0
 10
254.608719
 20
158.065216
  0
SEQEND
  0
POLYLINE
  8
0
 62
     5
 66
     1
 70
     2
  0
VERTEX
  8
0
 10
254.608719
 20
114.782616
  0
VERTEX
  8
0
 10
256.282623
 20
108.923920
  0
VERTEX
  8
0
 10
257.956543
 20
114.782616
  0
SEQEND
  0
LINE
  8
0
 62
     5
 10
172.586975
 20
163.923920
 11
258.793518
 21
163.923920
  0
LINE
  8
0
 62
     5
 10
172.586975
 20
108.923920
 11
258.793518
 21
108.923920
  0
TEXT
  8
0
 62
     7
 10
254.608719
 20
126.589676
 40
8.369565
 41
1.000000
  1
%%c55
  7
KANJI
 50
90.000000
 51
0.000000
  0
LINE
  8
DASHDOT
 62
     7
 10
130.565231
 20
161.423920
 11
165.608719
 21
161.423920
  0
LINE
  8
DASHDOT
 62
     7
 10
130.565231
 20
111.423920
 11
165.608719
 21
111.423920
  0
LINE
  8
DASHDOT
 62
     7
 10
130.565231
 20
136.423920
 11
177.608719
 21
136.423920
  0
LINE
  8
0
 62
     5
 10
160.586975
 20
163.823914
 11
160.586975
 21
163.923920
  0
LINE
  8
0
 62
     5
 10
135.586975
 20
163.823914
 11
135.586975
 21
163.923920
  0
LINE
  8
0
 62
     5
 10
161.586975
 20
156.423920
 11
172.586975
 21
156.423920
  0
LINE
  8
0
 62
     5
 10
161.586975
 20
116.423920
 11
172.586975
 21
116.423920
  0
LINE
  8
0
 62
     5
 10
160.486969
 20
163.923920
 11
172.586975
 21
163.923920
  0
LINE
  8
0
 62
     5
 10
160.486969
 20
108.923920
 11
172.586975
 21
108.923920
  0
LINE
  8
0
 62
     4
 10
135.586975
 20
158.298920
 11
160.586975
 21
158.298920
  0
LINE
  8
0
 62
     4
 10
135.586975
 20
114.548920
 11
160.586975
 21
114.548920
  0
LINE
  8
0
 62
     4
 10
172.086975
 20
130.423920
 11
172.586975
 21
129.923920
  0
LINE
  8
0
 62
     4
 10
172.086975
 20
142.423920
 11
172.586975
 21
142.923920
  0
LINE
  8
0
 62
     4
 10
136.086975
 20
142.423920
 11
136.086975
 21
130.423920
  0
POLYLINE
  8
0
 62
     4
 66
     1
 70
     2
  0
VERTEX
  8
0
 10
135.586975
 20
129.923920
  0
VERTEX
  8
0
 10
136.086975
 20
130.423920
  0
VERTEX
  8
0
 10
172.086975
 20
130.423920
  0
VERTEX
  8
0
 10
172.086975
 20
142.423920
  0
VERTEX
  8
0
 10
136.086975
 20
142.423920
  0
VERTEX
  8
0
 10
135.586975
 20
142.923920
  0
SEQEND
  0
ARC
  8
0
 62
     4
 10
161.586975
 20
157.423920
 40
1.000000
 50
180.0
 51
270.0
  0
ARC
  8
0
 62
     4
 10
161.586975
 20
115.423920
 40
1.000000
 50
90.0
 51
180.0
  0
LINE
  8
0
 62
     5
 10
172.586975
 20
155.423920
 11
172.586975
 21
163.923920
  0
LINE
  8
0
 62
     5
 10
135.586975
 20
209.119568
 11
160.586975
 21
209.119568
  0
POLYLINE
  8
0
 62
     5
 66
     1
 70
     2
  0
VERTEX
  8
0
 10
141.445663
 20
210.793488
  0
VERTEX
  8
0
 10
135.586975
 20
209.119568
  0
VERTEX
  8
0
 10
141.445663
 20
207.445648
  0
SEQEND
  0
POLYLINE
  8
0
 62
     5
 66
     1
 70
     2
  0
VERTEX
  8
0
 10
154.728271
 20
207.445648
  0
VERTEX
  8
0
 10
160.586975
 20
209.119568
  0
VERTEX
  8
0
 10
154.728271
 20
210.793488
  0
SEQEND
  0
LINE
  8
0
 62
     5
 10
160.586975
 20
163.923920
 11
160.586975
 21
211.630432
  0
TEXT
  8
0
 62
     7
 10
142.646759
 20
210.458694
 40
8.369565
 41
1.000000
  1
25
  7
KANJI
 50
0.000000
 51
0.000000
  0
LINE
  8
0
 62
     5
 10
135.586975
 20
222.510880
 11
172.586975
 21
222.510880
  0
POLYLINE
  8
0
 62
     5
 66
     1
 70
     2
  0
VERTEX
  8
0
 10
141.445663
 20
224.184784
  0
VERTEX
  8
0
 10
135.586975
 20
222.510880
  0
VERTEX
  8
0
 10
141.445663
 20
220.836975
  0
SEQEND
  0
POLYLINE
  8
0
 62
     5
 66
     1
 70
     2
  0
VERTEX
  8
0
 10
166.728271
 20
220.836975
  0
VERTEX
  8
0
 10
172.586975
 20
222.510880
  0
VERTEX
  8
0
 10
166.728271
 20
224.184784
  0
SEQEND
  0
LINE
  8
0
 62
     5
 10
135.586975
 20
163.923920
 11
135.586975
 21
225.021759
  0
LINE
  8
0
 62
     5
 10
172.586975
 20
163.923920
 11
172.586975
 21
225.021759
  0
TEXT
  8
0
 62
     7
 10
148.646759
 20
223.850006
 40
8.369565
 41
1.000000
  1
37
  7
KANJI
 50
0.000000
 51
0.000000
  0
LINE
  8
0
 62
     5
 10
182.630463
 20
209.119568
 11
150.543503
 21
209.119568
  0
POLYLINE
  8
0
 62
     5
 66
     1
 70
     2
  0
VERTEX
  8
0
 10
154.728271
 20
207.445648
  0
VERTEX
  8
0
 10
160.586975
 20
209.119568
  0
VERTEX
  8
0
 10
154.728271
 20
210.793488
  0
SEQEND
  0
POLYLINE
  8
0
 62
     5
 66
     1
 70
     2
  0
VERTEX
  8
0
 10
178.445679
 20
210.793488
  0
VERTEX
  8
0
 10
172.586975
 20
209.119568
  0
VERTEX
  8
0
 10
178.445679
 20
207.445648
  0
SEQEND
  0
TEXT
  8
0
 62
     7
 10
161.146759
 20
210.458694
 40
8.369565
 41
1.000000
  1
12
  7
KANJI
 50
0.000000
 51
0.000000
  0
LINE
  8
0
 62
     5
 10
242.891327
 20
156.423920
 11
242.891327
 21
116.423920
  0
POLYLINE
  8
0
 62
     5
 66
     1
 70
     2
  0
VERTEX
  8
0
 10
244.565231
 20
150.565216
  0
VERTEX
  8
0
 10
242.891327
 20
156.423920
  0
VERTEX
  8
0
 10
241.217407
 20
150.565216
  0
SEQEND
  0
POLYLINE
  8
0
 62
     5
 66
     1
 70
     2
  0
VERTEX
  8
0
 10
241.217407
 20
122.282616
  0
VERTEX
  8
0
 10
242.891327
 20
116.423920
  0
VERTEX
  8
0
 10
244.565231
 20
122.282616
  0
SEQEND
  0
LINE
  8
0
 62
     5
 10
172.586975
 20
156.423920
 11
245.402191
 21
156.423920
  0
LINE
  8
0
 62
     5
 10
172.586975
 20
116.423920
 11
245.402191
 21
116.423920
  0
TEXT
  8
0
 62
     7
 10
241.217407
 20
126.589676
 40
8.369565
 41
1.000000
  1
%%c40
  7
KANJI
 50
90.000000
 51
0.000000
  0
LINE
  8
0
 62
     5
 10
216.108719
 20
120.380440
 11
216.108719
 21
152.467392
  0
POLYLINE
  8
0
 62
     5
 66
     1
 70
     2
  0
VERTEX
  8
0
 10
214.434814
 20
148.282623
  0
VERTEX
  8
0
 10
216.108719
 20
142.423920
  0
VERTEX
  8
0
 10
217.782623
 20
148.282623
  0
SEQEND
  0
POLYLINE
  8
0
 62
     5
 66
     1
 70
     2
  0
VERTEX
  8
0
 10
217.782623
 20
124.565224
  0
VERTEX
  8
0
 10
216.108719
 20
130.423920
  0
VERTEX
  8
0
 10
214.434814
 20
124.565224
  0
SEQEND
  0
LINE
  8
0
 62
     5
 10
172.586975
 20
142.423920
 11
218.619598
 21
142.423920
  0
LINE
  8
0
 62
     5
 10
172.586975
 20
130.423920
 11
218.619598
 21
130.423920
  0
TEXT
  8
0
 62
     7
 10
214.434814
 20
126.589684
 40
8.369565
 41
1.000000
  1
%%c12
  7
KANJI
 50
90.000000
 51
0.000000
  0
POLYLINE
  8
0
 62
     4
 66
     1
 70
     2
  0
VERTEX
  8
0
 10
135.586975
 20
129.923920
  0
VERTEX
  8
0
 10
135.586975
 20
109.023918
  0
VERTEX
  8
0
 10
135.686981
 20
108.923920
  0
VERTEX
  8
0
 10
160.486969
 20
108.923920
  0
VERTEX
  8
0
 10
160.586975
 20
109.023918
  0
VERTEX
  8
0
 10
160.586975
 20
115.423920
  0
SEQEND
  0
POLYLINE
  8
0
 62
     4
 66
     1
 70
     2
  0
VERTEX
  8
0
 10
161.586975
 20
116.423920
  0
VERTEX
  8
0
 10
171.586975
 20
116.423920
  0
VERTEX
  8
0
 10
172.586975
 20
117.423920
  0
VERTEX
  8
0
 10
172.586975
 20
155.423920
  0
VERTEX
  8
0
 10
171.586975
 20
156.423920
  0
VERTEX
  8
0
 10
161.586975
 20
156.423920
  0
SEQEND
  0
POLYLINE
  8
0
 62
     4
 66
     1
 70
     2
  0
VERTEX
  8
0
 10
160.586975
 20
157.423920
  0
VERTEX
  8
0
 10
160.586975
 20
163.823914
  0
VERTEX
  8
0
 10
160.486969
 20
163.923920
  0
VERTEX
  8
0
 10
135.686981
 20
163.923920
  0
VERTEX
  8
0
 10
135.586975
 20
163.823914
  0
VERTEX
  8
0
 10
135.586975
 20
129.923920
  0
SEQEND
  0
ENDSEC
  0
EOF
