  0
SECTION
  2
HEADER
  9
$ACADVER
  1
AC1003
  9
$INSBASE
 10
0.000000
 20
0.000000
  9
$EXTMIN
 10
0.000000
 20
0.000000
  9
$EXTMAX
 10
564.000000
 20
390.000000
  9
$LIMMIN
 10
0.000000
 20
0.000000
  9
$LIMMAX
 10
564.000000
 20
390.000000
  9
$VIEWCTR
 10
282.000000
 20
195.000000
  9
$VIEWSIZE
 40
390.000000
  0
ENDSEC
  0
SECTION
  2
TABLES
  0
TABLE
  2
LTYPE
 70
     4
  0
LTYPE
  2
CONTINUOUS
 70
    64
  3
SolidLine
 72
    65
 73
     0
 40
0.0
  0
LTYPE
  2
HIDDEN
 70
    64
  3
------------------------
 72
    65
 73
     2
 40
6.000000
 49
4.000000
 49
-2.000000
  0
LTYPE
  2
DASHDOT
 70
    64
  3
--?--?--?--?--?--?--?--
 72
    65
 73
     4
 40
24.000000
 49
18.000000
 49
-2.000000
 49
2.000000
 49
-2.000000
  0
LTYPE
  2
DIVIDE
 70
    64
  3
--??--??--??--??--??--
 72
    65
 73
     6
 40
30.000000
 49
20.000000
 49
-2.000000
 49
2.000000
 49
-2.000000
 49
2.000000
 49
-2.000000
  0
ENDTAB
  0
TABLE
  2
LAYER
 70
     5
  0
LAYER
  2
0
 70
    64
 62
     7
  6
CONTINUOUS
  0
LAYER
  2
HIDDEN
 70
    64
 62
     2
  6
HIDDEN
  0
LAYER
  2
DASHDOT
 70
    64
 62
     6
  6
DASHDOT
  0
LAYER
  2
DIVIDE
 70
    64
 62
     5
  6
DIVIDE
  0
ENDTAB
  0
TABLE
  2
STYLE
 70
     1
  0
STYLE
  2
STANDARD
 70
    64
 40
0.0
 41
1.0
 50
0.0
 71
     0
 42
0.2
  3
TXT
  4

  0
STYLE
  2
KANJI
 70
    64
 40
0.0
 41
1.0
 50
0.0
 71
     0
 42
0.2
  3
TXT
  4
BIGFONT
  0
ENDTAB
  0
TABLE
  2
VIEW
 70
     0
  0
ENDTAB
  0
ENDSEC
  0
SECTION
  2
BLOCKS
  0
ENDSEC
  0
SECTION
  2
ENTITIES
  0
TEXT
  8
0
 62
     7
 10
20.000000
 20
22.000000
 40
8.000000
 41
1.000000
  1
KHK PS2.5-26J20
  7
KANJI
 50
0.000000
 51
0.000000
  0
TEXT
  8
0
 62
     7
 10
20.000000
 20
10.000000
 40
8.000000
 41
1.000000
  1
The precision grade of gears after secondary operations is equivalent but not identical to its original grade.
  7
KANJI
 50
0.000000
 51
0.000000
  0
TEXT
  8
0
 62
     7
 10
20.000000
 20
360.000000
 40
9.000000
 41
1.000000
  1

  7
KANJI
 50
0.000000
 51
0.000000
  0
POLYLINE
  8
0
 62
     7
 66
     1
 70
     2
  0
VERTEX
  8
0
 10
480.000000
 20
360.000000
  0
VERTEX
  8
0
 10
472.200012
 20
373.519989
  0
VERTEX
  8
0
 10
503.399994
 20
373.519989
  0
VERTEX
  8
0
 10
495.600006
 20
360.000000
  0
VERTEX
  8
0
 10
487.799988
 20
373.519989
  0
VERTEX
  8
0
 10
480.000000
 20
360.000000
  0
SEQEND
  0
LINE
  8
0
 62
     5
 10
299.000000
 20
198.000000
 11
299.000000
 21
128.000000
  0
POLYLINE
  8
0
 62
     5
 66
     1
 70
     2
  0
VERTEX
  8
0
 10
301.000000
 20
191.000000
  0
VERTEX
  8
0
 10
299.000000
 20
198.000000
  0
VERTEX
  8
0
 10
297.000000
 20
191.000000
  0
SEQEND
  0
POLYLINE
  8
0
 62
     5
 66
     1
 70
     2
  0
VERTEX
  8
0
 10
297.000000
 20
135.000000
  0
VERTEX
  8
0
 10
299.000000
 20
128.000000
  0
VERTEX
  8
0
 10
301.000000
 20
135.000000
  0
SEQEND
  0
LINE
  8
0
 62
     5
 10
199.000000
 20
198.000000
 11
302.000000
 21
198.000000
  0
LINE
  8
0
 62
     5
 10
199.000000
 20
128.000000
 11
302.000000
 21
128.000000
  0
TEXT
  8
0
 62
     7
 10
297.000000
 20
151.250000
 40
10.000000
 41
1.000000
  1
%%c70
  7
KANJI
 50
90.000000
 51
0.000000
  0
LINE
  8
DASHDOT
 62
     7
 10
156.000000
 20
195.500000
 11
193.000000
 21
195.500000
  0
LINE
  8
DASHDOT
 62
     7
 10
156.000000
 20
130.500000
 11
193.000000
 21
130.500000
  0
LINE
  8
DASHDOT
 62
     7
 10
156.000000
 20
163.000000
 11
205.000000
 21
163.000000
  0
LINE
  8
0
 62
     5
 10
187.000000
 20
197.899994
 11
187.000000
 21
198.000000
  0
LINE
  8
0
 62
     5
 10
162.000000
 20
197.899994
 11
162.000000
 21
198.000000
  0
LINE
  8
0
 62
     5
 10
188.000000
 20
190.500000
 11
199.000000
 21
190.500000
  0
LINE
  8
0
 62
     5
 10
188.000000
 20
135.500000
 11
199.000000
 21
135.500000
  0
LINE
  8
0
 62
     5
 10
186.899994
 20
198.000000
 11
199.000000
 21
198.000000
  0
LINE
  8
0
 62
     5
 10
186.899994
 20
128.000000
 11
199.000000
 21
128.000000
  0
LINE
  8
0
 62
     4
 10
162.000000
 20
192.375000
 11
187.000000
 21
192.375000
  0
LINE
  8
0
 62
     4
 10
162.000000
 20
133.625000
 11
187.000000
 21
133.625000
  0
LINE
  8
0
 62
     4
 10
198.500000
 20
153.000000
 11
199.000000
 21
152.500000
  0
LINE
  8
0
 62
     4
 10
198.500000
 20
173.000000
 11
199.000000
 21
173.500000
  0
LINE
  8
0
 62
     4
 10
162.500000
 20
173.000000
 11
162.500000
 21
153.000000
  0
POLYLINE
  8
0
 62
     4
 66
     1
 70
     2
  0
VERTEX
  8
0
 10
162.000000
 20
152.500000
  0
VERTEX
  8
0
 10
162.500000
 20
153.000000
  0
VERTEX
  8
0
 10
198.500000
 20
153.000000
  0
VERTEX
  8
0
 10
198.500000
 20
173.000000
  0
VERTEX
  8
0
 10
162.500000
 20
173.000000
  0
VERTEX
  8
0
 10
162.000000
 20
173.500000
  0
SEQEND
  0
ARC
  8
0
 62
     4
 10
188.000000
 20
191.500000
 40
1.000000
 50
180.0
 51
270.0
  0
ARC
  8
0
 62
     4
 10
188.000000
 20
134.500000
 40
1.000000
 50
90.0
 51
180.0
  0
LINE
  8
0
 62
     5
 10
199.000000
 20
189.500000
 11
199.000000
 21
198.000000
  0
LINE
  8
0
 62
     5
 10
162.000000
 20
252.000000
 11
187.000000
 21
252.000000
  0
POLYLINE
  8
0
 62
     5
 66
     1
 70
     2
  0
VERTEX
  8
0
 10
169.000000
 20
254.000000
  0
VERTEX
  8
0
 10
162.000000
 20
252.000000
  0
VERTEX
  8
0
 10
169.000000
 20
250.000000
  0
SEQEND
  0
POLYLINE
  8
0
 62
     5
 66
     1
 70
     2
  0
VERTEX
  8
0
 10
180.000000
 20
250.000000
  0
VERTEX
  8
0
 10
187.000000
 20
252.000000
  0
VERTEX
  8
0
 10
180.000000
 20
254.000000
  0
SEQEND
  0
LINE
  8
0
 62
     5
 10
187.000000
 20
198.000000
 11
187.000000
 21
255.000000
  0
TEXT
  8
0
 62
     7
 10
168.000000
 20
253.600006
 40
10.000000
 41
1.000000
  1
25
  7
KANJI
 50
0.000000
 51
0.000000
  0
LINE
  8
0
 62
     5
 10
162.000000
 20
268.000000
 11
199.000000
 21
268.000000
  0
POLYLINE
  8
0
 62
     5
 66
     1
 70
     2
  0
VERTEX
  8
0
 10
169.000000
 20
270.000000
  0
VERTEX
  8
0
 10
162.000000
 20
268.000000
  0
VERTEX
  8
0
 10
169.000000
 20
266.000000
  0
SEQEND
  0
POLYLINE
  8
0
 62
     5
 66
     1
 70
     2
  0
VERTEX
  8
0
 10
192.000000
 20
266.000000
  0
VERTEX
  8
0
 10
199.000000
 20
268.000000
  0
VERTEX
  8
0
 10
192.000000
 20
270.000000
  0
SEQEND
  0
LINE
  8
0
 62
     5
 10
162.000000
 20
198.000000
 11
162.000000
 21
271.000000
  0
LINE
  8
0
 62
     5
 10
199.000000
 20
198.000000
 11
199.000000
 21
271.000000
  0
TEXT
  8
0
 62
     7
 10
174.000000
 20
269.600006
 40
10.000000
 41
1.000000
  1
37
  7
KANJI
 50
0.000000
 51
0.000000
  0
LINE
  8
0
 62
     5
 10
211.000000
 20
252.000000
 11
175.000000
 21
252.000000
  0
POLYLINE
  8
0
 62
     5
 66
     1
 70
     2
  0
VERTEX
  8
0
 10
180.000000
 20
250.000000
  0
VERTEX
  8
0
 10
187.000000
 20
252.000000
  0
VERTEX
  8
0
 10
180.000000
 20
254.000000
  0
SEQEND
  0
POLYLINE
  8
0
 62
     5
 66
     1
 70
     2
  0
VERTEX
  8
0
 10
206.000000
 20
254.000000
  0
VERTEX
  8
0
 10
199.000000
 20
252.000000
  0
VERTEX
  8
0
 10
206.000000
 20
250.000000
  0
SEQEND
  0
TEXT
  8
0
 62
     7
 10
205.000000
 20
253.600006
 40
10.000000
 41
1.000000
  1
12
  7
KANJI
 50
0.000000
 51
0.000000
  0
LINE
  8
0
 62
     5
 10
283.000000
 20
190.500000
 11
283.000000
 21
135.500000
  0
POLYLINE
  8
0
 62
     5
 66
     1
 70
     2
  0
VERTEX
  8
0
 10
285.000000
 20
183.500000
  0
VERTEX
  8
0
 10
283.000000
 20
190.500000
  0
VERTEX
  8
0
 10
281.000000
 20
183.500000
  0
SEQEND
  0
POLYLINE
  8
0
 62
     5
 66
     1
 70
     2
  0
VERTEX
  8
0
 10
281.000000
 20
142.500000
  0
VERTEX
  8
0
 10
283.000000
 20
135.500000
  0
VERTEX
  8
0
 10
285.000000
 20
142.500000
  0
SEQEND
  0
LINE
  8
0
 62
     5
 10
199.000000
 20
190.500000
 11
286.000000
 21
190.500000
  0
LINE
  8
0
 62
     5
 10
199.000000
 20
135.500000
 11
286.000000
 21
135.500000
  0
TEXT
  8
0
 62
     7
 10
281.000000
 20
151.250000
 40
10.000000
 41
1.000000
  1
%%c55
  7
KANJI
 50
90.000000
 51
0.000000
  0
LINE
  8
DASHDOT
 62
     7
 10
382.500000
 20
200.500000
 11
382.500000
 21
129.500000
  0
LINE
  8
DASHDOT
 62
     7
 10
349.000000
 20
163.000000
 11
416.000000
 21
163.000000
  0
LINE
  8
0
 62
     5
 10
397.500000
 20
218.500000
 11
367.500000
 21
218.500000
  0
POLYLINE
  8
0
 62
     5
 66
     1
 70
     2
  0
VERTEX
  8
0
 10
372.500000
 20
216.500000
  0
VERTEX
  8
0
 10
379.500000
 20
218.500000
  0
VERTEX
  8
0
 10
372.500000
 20
220.500000
  0
SEQEND
  0
POLYLINE
  8
0
 62
     5
 66
     1
 70
     2
  0
VERTEX
  8
0
 10
392.500000
 20
220.500000
  0
VERTEX
  8
0
 10
385.500000
 20
218.500000
  0
VERTEX
  8
0
 10
392.500000
 20
216.500000
  0
SEQEND
  0
LINE
  8
0
 62
     5
 10
379.500000
 20
175.800003
 11
379.500000
 21
221.500000
  0
LINE
  8
0
 62
     5
 10
385.500000
 20
175.800003
 11
385.500000
 21
221.500000
  0
TEXT
  8
0
 62
     7
 10
361.858032
 20
220.500000
 40
10.000000
 41
1.000000
  1
6
  7
KANJI
 50
0.000000
 51
0.000000
  0
TEXT
  8
0
 62
     7
 10
371.756775
 20
220.500000
 40
8.000000
 41
1.000000
  1
%%p0.015
  7
KANJI
 50
0.000000
 51
0.000000
  0
LINE
  8
0
 62
     5
 10
440.000000
 20
141.000000
 11
440.000000
 21
187.800003
  0
POLYLINE
  8
0
 62
     5
 66
     1
 70
     2
  0
VERTEX
  8
0
 10
438.000000
 20
182.800003
  0
VERTEX
  8
0
 10
440.000000
 20
175.800003
  0
VERTEX
  8
0
 10
442.000000
 20
182.800003
  0
SEQEND
  0
POLYLINE
  8
0
 62
     5
 66
     1
 70
     2
  0
VERTEX
  8
0
 10
442.000000
 20
146.000000
  0
VERTEX
  8
0
 10
440.000000
 20
153.000000
  0
VERTEX
  8
0
 10
438.000000
 20
146.000000
  0
SEQEND
  0
LINE
  8
0
 62
     5
 10
385.500000
 20
175.800003
 11
443.000000
 21
175.800003
  0
LINE
  8
0
 62
     5
 10
382.500000
 20
153.000000
 11
443.000000
 21
153.000000
  0
TEXT
  8
0
 62
     7
 10
437.000000
 20
133.606415
 40
10.000000
 41
1.000000
  1
22.8
  7
KANJI
 50
90.000000
 51
0.000000
  0
TEXT
  8
0
 62
     7
 10
437.600006
 20
176.890381
 40
5.000000
 41
1.000000
  1
 
  7
KANJI
 50
90.000000
 51
0.000000
  0
TEXT
  8
0
 62
     7
 10
431.399994
 20
176.890381
 40
5.000000
 41
1.000000
  1
+
  7
KANJI
 50
90.000000
 51
0.000000
  0
TEXT
  8
0
 62
     7
 10
437.600006
 20
182.490372
 40
5.000000
 41
1.000000
  1
0
  7
KANJI
 50
90.000000
 51
0.000000
  0
TEXT
  8
0
 62
     7
 10
431.399994
 20
182.490372
 40
5.000000
 41
1.000000
  1
0.1
  7
KANJI
 50
90.000000
 51
0.000000
  0
ARC
  8
0
 62
     4
 10
382.500000
 20
163.000000
 40
10.000000
 50
107.45760274776076
 51
72.54239725223924
  0
POLYLINE
  8
0
 62
     4
 66
     1
 70
     2
  0
VERTEX
  8
0
 10
385.500000
 20
172.539398
  0
VERTEX
  8
0
 10
385.500000
 20
175.800003
  0
VERTEX
  8
0
 10
379.500000
 20
175.800003
  0
VERTEX
  8
0
 10
379.500000
 20
172.539398
  0
SEQEND
  0
LINE
  8
0
 62
     4
 10
162.000000
 20
175.800003
 11
199.000000
 21
175.800003
  0
POLYLINE
  8
DASHDOT
 62
     7
 66
     1
 70
     2
  0
VERTEX
  8
DASHDOT
 10
193.000000
 20
196.500000
  0
VERTEX
  8
DASHDOT
 10
193.000000
 20
169.800003
  0
SEQEND
  0
POLYLINE
  8
0
 62
     4
 66
     1
 70
     2
  0
VERTEX
  8
0
 10
195.500000
 20
190.500000
  0
VERTEX
  8
0
 10
195.500000
 20
175.800003
  0
SEQEND
  0
POLYLINE
  8
0
 62
     4
 66
     1
 70
     2
  0
VERTEX
  8
0
 10
190.500000
 20
190.500000
  0
VERTEX
  8
0
 10
190.500000
 20
175.800003
  0
SEQEND
  0
POLYLINE
  8
0
 62
     4
 66
     1
 70
     2
  0
VERTEX
  8
0
 10
195.065002
 20
190.500000
  0
VERTEX
  8
0
 10
195.065002
 20
175.800003
  0
SEQEND
  0
POLYLINE
  8
0
 62
     4
 66
     1
 70
     2
  0
VERTEX
  8
0
 10
190.934998
 20
190.500000
  0
VERTEX
  8
0
 10
190.934998
 20
175.800003
  0
SEQEND
  0
POLYLINE
  8
0
 62
     4
 66
     1
 70
     2
  0
VERTEX
  8
0
 10
380.000000
 20
175.800003
  0
VERTEX
  8
0
 10
380.000000
 20
190.386124
  0
SEQEND
  0
POLYLINE
  8
0
 62
     4
 66
     1
 70
     2
  0
VERTEX
  8
0
 10
385.000000
 20
175.800003
  0
VERTEX
  8
0
 10
385.000000
 20
190.386124
  0
SEQEND
  0
POLYLINE
  8
0
 62
     4
 66
     1
 70
     2
  0
VERTEX
  8
0
 10
380.434998
 20
175.800003
  0
VERTEX
  8
0
 10
380.434998
 20
190.422363
  0
SEQEND
  0
POLYLINE
  8
0
 62
     4
 66
     1
 70
     2
  0
VERTEX
  8
0
 10
384.565002
 20
175.800003
  0
VERTEX
  8
0
 10
384.565002
 20
190.422363
  0
SEQEND
  0
POLYLINE
  8
0
 62
     5
 66
     1
 70
     2
  0
VERTEX
  8
0
 10
382.500000
 20
190.500000
  0
VERTEX
  8
0
 10
346.500000
 20
250.500000
  0
VERTEX
  8
0
 10
368.500000
 20
250.500000
  0
SEQEND
  0
POLYLINE
  8
0
 62
     5
 66
     1
 70
     2
  0
VERTEX
  8
0
 10
377.183533
 20
195.473450
  0
VERTEX
  8
0
 10
382.500000
 20
190.500000
  0
VERTEX
  8
0
 10
380.613525
 20
197.531433
  0
SEQEND
  0
TEXT
  8
0
 62
     7
 10
348.500000
 20
252.500000
 40
9.600000
 41
1.000000
  1
M5
  7
KANJI
 50
0.000000
 51
0.000000
  0
CIRCLE
  8
0
 62
     7
 10
193.000000
 20
163.000000
 40
2.500000
  0
CIRCLE
  8
0
 62
     4
 10
193.000000
 20
163.000000
 40
2.065000
  0
POLYLINE
  8
DASHDOT
 62
     7
 66
     1
 70
     2
  0
VERTEX
  8
DASHDOT
 10
184.500000
 20
163.000000
  0
VERTEX
  8
DASHDOT
 10
201.500000
 20
163.000000
  0
SEQEND
  0
POLYLINE
  8
DASHDOT
 62
     7
 66
     1
 70
     2
  0
VERTEX
  8
DASHDOT
 10
193.000000
 20
154.500000
  0
VERTEX
  8
DASHDOT
 10
193.000000
 20
171.500000
  0
SEQEND
  0
LINE
  8
DASHDOT
 62
     7
 10
193.000000
 20
190.500000
 11
193.000000
 21
163.000000
  0
LINE
  8
0
 62
     5
 10
193.000000
 20
190.500000
 11
193.000000
 21
198.000000
  0
POLYLINE
  8
0
 62
     4
 66
     1
 70
     2
  0
VERTEX
  8
0
 10
392.182465
 20
165.500000
  0
VERTEX
  8
0
 10
409.886108
 20
165.500000
  0
SEQEND
  0
POLYLINE
  8
0
 62
     4
 66
     1
 70
     2
  0
VERTEX
  8
0
 10
392.182465
 20
160.500000
  0
VERTEX
  8
0
 10
409.886108
 20
160.500000
  0
SEQEND
  0
POLYLINE
  8
0
 62
     4
 66
     1
 70
     2
  0
VERTEX
  8
0
 10
392.284485
 20
165.065002
  0
VERTEX
  8
0
 10
409.922363
 20
165.065002
  0
SEQEND
  0
POLYLINE
  8
0
 62
     4
 66
     1
 70
     2
  0
VERTEX
  8
0
 10
392.284485
 20
160.934998
  0
VERTEX
  8
0
 10
409.922363
 20
160.934998
  0
SEQEND
  0
POLYLINE
  8
0
 62
     5
 66
     1
 70
     2
  0
VERTEX
  8
0
 10
410.000000
 20
163.000000
  0
VERTEX
  8
0
 10
440.000000
 20
234.500000
  0
VERTEX
  8
0
 10
410.799988
 20
234.500000
  0
SEQEND
  0
POLYLINE
  8
0
 62
     5
 66
     1
 70
     2
  0
VERTEX
  8
0
 10
410.864075
 20
170.228653
  0
VERTEX
  8
0
 10
410.000000
 20
163.000000
  0
VERTEX
  8
0
 10
414.552551
 20
168.681030
  0
SEQEND
  0
TEXT
  8
0
 62
     7
 10
414.799988
 20
236.500000
 40
9.600000
 41
1.000000
  1
M5
  7
KANJI
 50
0.000000
 51
0.000000
  0
LINE
  8
0
 62
     5
 10
251.000000
 20
173.000000
 11
251.000000
 21
153.000000
  0
POLYLINE
  8
0
 62
     5
 66
     1
 70
     2
  0
VERTEX
  8
0
 10
249.000000
 20
160.000000
  0
VERTEX
  8
0
 10
251.000000
 20
153.000000
  0
VERTEX
  8
0
 10
253.000000
 20
160.000000
  0
SEQEND
  0
LINE
  8
0
 62
     5
 10
199.000000
 20
153.000000
 11
254.000000
 21
153.000000
  0
TEXT
  8
0
 62
     7
 10
249.000000
 20
151.250000
 40
10.000000
 41
1.000000
  1
%%c20
  7
KANJI
 50
90.000000
 51
0.000000
  0
POLYLINE
  8
0
 62
     4
 66
     1
 70
     2
  0
VERTEX
  8
0
 10
162.000000
 20
152.500000
  0
VERTEX
  8
0
 10
162.000000
 20
128.100006
  0
VERTEX
  8
0
 10
162.100006
 20
128.000000
  0
VERTEX
  8
0
 10
186.899994
 20
128.000000
  0
VERTEX
  8
0
 10
187.000000
 20
128.100006
  0
VERTEX
  8
0
 10
187.000000
 20
134.500000
  0
SEQEND
  0
POLYLINE
  8
0
 62
     4
 66
     1
 70
     2
  0
VERTEX
  8
0
 10
188.000000
 20
135.500000
  0
VERTEX
  8
0
 10
198.000000
 20
135.500000
  0
VERTEX
  8
0
 10
199.000000
 20
136.500000
  0
VERTEX
  8
0
 10
199.000000
 20
189.500000
  0
VERTEX
  8
0
 10
198.000000
 20
190.500000
  0
VERTEX
  8
0
 10
188.000000
 20
190.500000
  0
SEQEND
  0
POLYLINE
  8
0
 62
     4
 66
     1
 70
     2
  0
VERTEX
  8
0
 10
187.000000
 20
191.500000
  0
VERTEX
  8
0
 10
187.000000
 20
197.899994
  0
VERTEX
  8
0
 10
186.899994
 20
198.000000
  0
VERTEX
  8
0
 10
162.100006
 20
198.000000
  0
VERTEX
  8
0
 10
162.000000
 20
197.899994
  0
VERTEX
  8
0
 10
162.000000
 20
152.500000
  0
SEQEND
  0
CIRCLE
  8
0
 62
     4
 10
382.500000
 20
163.000000
 40
27.500000
  0
LINE
  8
0
 62
     5
 10
211.000000
 20
208.000000
 11
181.000000
 21
208.000000
  0
POLYLINE
  8
0
 62
     5
 66
     1
 70
     2
  0
VERTEX
  8
0
 10
186.000000
 20
206.000000
  0
VERTEX
  8
0
 10
193.000000
 20
208.000000
  0
VERTEX
  8
0
 10
186.000000
 20
210.000000
  0
SEQEND
  0
POLYLINE
  8
0
 62
     5
 66
     1
 70
     2
  0
VERTEX
  8
0
 10
206.000000
 20
210.000000
  0
VERTEX
  8
0
 10
199.000000
 20
208.000000
  0
VERTEX
  8
0
 10
206.000000
 20
206.000000
  0
SEQEND
  0
LINE
  8
0
 62
     5
 10
193.000000
 20
198.000000
 11
193.000000
 21
211.000000
  0
TEXT
  8
0
 62
     7
 10
205.000000
 20
209.600006
 40
10.000000
 41
1.000000
  1
6
  7
KANJI
 50
0.000000
 51
0.000000
  0
LINE
  8
0
 62
     5
 10
193.000000
 20
190.500000
 11
193.000000
 21
198.000000
  0
ENDSEC
  0
EOF
