  0
SECTION
  2
HEADER
  9
$ACADVER
  1
AC1003
  9
$INSBASE
 10
0.000000
 20
0.000000
  9
$EXTMIN
 10
0.000000
 20
0.000000
  9
$EXTMAX
 10
274.336957
 20
189.701087
  9
$LIMMIN
 10
0.000000
 20
0.000000
  9
$LIMMAX
 10
274.336957
 20
189.701087
  9
$VIEWCTR
 10
137.168478
 20
94.850543
  9
$VIEWSIZE
 40
189.701087
  0
ENDSEC
  0
SECTION
  2
TABLES
  0
TABLE
  2
LTYPE
 70
     4
  0
LTYPE
  2
CONTINUOUS
 70
    64
  3
SolidLine
 72
    65
 73
     0
 40
0.0
  0
LTYPE
  2
HIDDEN
 70
    64
  3
------------------------
 72
    65
 73
     2
 40
2.918478
 49
1.945652
 49
-0.972826
  0
LTYPE
  2
DASHDOT
 70
    64
  3
--?--?--?--?--?--?--?--
 72
    65
 73
     4
 40
11.673913
 49
8.755435
 49
-0.972826
 49
0.972826
 49
-0.972826
  0
LTYPE
  2
DIVIDE
 70
    64
  3
--??--??--??--??--??--
 72
    65
 73
     6
 40
14.592391
 49
9.728261
 49
-0.972826
 49
0.972826
 49
-0.972826
 49
0.972826
 49
-0.972826
  0
ENDTAB
  0
TABLE
  2
LAYER
 70
     5
  0
LAYER
  2
0
 70
    64
 62
     7
  6
CONTINUOUS
  0
LAYER
  2
HIDDEN
 70
    64
 62
     2
  6
HIDDEN
  0
LAYER
  2
DASHDOT
 70
    64
 62
     6
  6
DASHDOT
  0
LAYER
  2
DIVIDE
 70
    64
 62
     5
  6
DIVIDE
  0
ENDTAB
  0
TABLE
  2
STYLE
 70
     1
  0
STYLE
  2
STANDARD
 70
    64
 40
0.0
 41
1.0
 50
0.0
 71
     0
 42
0.2
  3
TXT
  4

  0
STYLE
  2
KANJI
 70
    64
 40
0.0
 41
1.0
 50
0.0
 71
     0
 42
0.2
  3
TXT
  4
BIGFONT
  0
ENDTAB
  0
TABLE
  2
VIEW
 70
     0
  0
ENDTAB
  0
ENDSEC
  0
SECTION
  2
BLOCKS
  0
ENDSEC
  0
SECTION
  2
ENTITIES
  0
TEXT
  8
0
 62
     7
 10
9.728261
 20
10.701087
 40
3.891304
 41
1.000000
  1
KHK PSA2-45
  7
KANJI
 50
0.000000
 51
0.000000
  0
TEXT
  8
0
 62
     7
 10
9.728261
 20
4.864130
 40
3.891304
 41
1.000000
  1

  7
KANJI
 50
0.000000
 51
0.000000
  0
TEXT
  8
0
 62
     7
 10
9.728261
 20
175.108688
 40
4.377717
 41
1.000000
  1

  7
KANJI
 50
0.000000
 51
0.000000
  0
POLYLINE
  8
0
 62
     7
 66
     1
 70
     2
  0
VERTEX
  8
0
 10
233.478256
 20
175.108688
  0
VERTEX
  8
0
 10
229.684235
 20
181.684998
  0
VERTEX
  8
0
 10
244.860321
 20
181.684998
  0
VERTEX
  8
0
 10
241.066299
 20
175.108688
  0
VERTEX
  8
0
 10
237.272278
 20
181.684998
  0
VERTEX
  8
0
 10
233.478256
 20
175.108688
  0
SEQEND
  0
LINE
  8
0
 62
     5
 10
146.114120
 20
127.926620
 11
146.114120
 21
33.926620
  0
POLYLINE
  8
0
 62
     5
 66
     1
 70
     2
  0
VERTEX
  8
0
 10
147.086945
 20
124.521729
  0
VERTEX
  8
0
 10
146.114120
 20
127.926620
  0
VERTEX
  8
0
 10
145.141296
 20
124.521729
  0
SEQEND
  0
POLYLINE
  8
0
 62
     5
 66
     1
 70
     2
  0
VERTEX
  8
0
 10
145.141296
 20
37.331512
  0
VERTEX
  8
0
 10
146.114120
 20
33.926620
  0
VERTEX
  8
0
 10
147.086945
 20
37.331512
  0
SEQEND
  0
LINE
  8
0
 62
     5
 10
111.092384
 20
127.926620
 11
147.573364
 21
127.926620
  0
LINE
  8
0
 62
     5
 10
111.092384
 20
33.926620
 11
147.573364
 21
33.926620
  0
TEXT
  8
0
 62
     7
 10
145.141296
 20
75.211266
 40
4.864130
 41
1.000000
  1
%%c94
  7
KANJI
 50
90.000000
 51
0.000000
  0
LINE
  8
0
 62
     5
 10
91.092384
 20
147.383148
 11
111.092384
 21
147.383148
  0
POLYLINE
  8
0
 62
     5
 66
     1
 70
     2
  0
VERTEX
  8
0
 10
94.497276
 20
148.355957
  0
VERTEX
  8
0
 10
91.092384
 20
147.383148
  0
VERTEX
  8
0
 10
94.497276
 20
146.410309
  0
SEQEND
  0
POLYLINE
  8
0
 62
     5
 66
     1
 70
     2
  0
VERTEX
  8
0
 10
107.687492
 20
146.410309
  0
VERTEX
  8
0
 10
111.092384
 20
147.383148
  0
VERTEX
  8
0
 10
107.687492
 20
148.355957
  0
SEQEND
  0
LINE
  8
0
 62
     5
 10
91.092384
 20
127.926620
 11
91.092384
 21
148.842377
  0
LINE
  8
0
 62
     5
 10
111.092384
 20
127.926620
 11
111.092384
 21
148.842377
  0
TEXT
  8
0
 62
     7
 10
97.930702
 20
148.161407
 40
4.864130
 41
1.000000
  1
20
  7
KANJI
 50
0.000000
 51
0.000000
  0
LINE
  8
DASHDOT
 62
     7
 10
88.173904
 20
125.926620
 11
114.010864
 21
125.926620
  0
LINE
  8
DASHDOT
 62
     7
 10
88.173904
 20
35.926620
 11
114.010864
 21
35.926620
  0
LINE
  8
DASHDOT
 62
     7
 10
88.173904
 20
80.926620
 11
114.010864
 21
80.926620
  0
LINE
  8
0
 62
     5
 10
110.992386
 20
33.926620
 11
111.092384
 21
33.926620
  0
LINE
  8
0
 62
     5
 10
110.992386
 20
127.926620
 11
111.092384
 21
127.926620
  0
LINE
  8
0
 62
     5
 10
111.092384
 20
127.826622
 11
111.092384
 21
127.926620
  0
LINE
  8
0
 62
     5
 10
91.092384
 20
127.826622
 11
91.092384
 21
127.926620
  0
LINE
  8
0
 62
     4
 10
91.092384
 20
123.426620
 11
111.092384
 21
123.426620
  0
LINE
  8
0
 62
     4
 10
91.092384
 20
38.426620
 11
111.092384
 21
38.426620
  0
LINE
  8
0
 62
     4
 10
111.092384
 20
87.426620
 11
110.592384
 21
86.926620
  0
LINE
  8
0
 62
     4
 10
111.092384
 20
74.426620
 11
110.592384
 21
74.926620
  0
LINE
  8
0
 62
     4
 10
91.092384
 20
74.426620
 11
91.592384
 21
74.926620
  0
POLYLINE
  8
0
 62
     4
 66
     1
 70
     2
  0
VERTEX
  8
0
 10
91.092384
 20
74.426620
  0
VERTEX
  8
0
 10
91.092384
 20
34.026619
  0
VERTEX
  8
0
 10
91.192383
 20
33.926620
  0
VERTEX
  8
0
 10
110.992386
 20
33.926620
  0
VERTEX
  8
0
 10
111.092384
 20
34.026619
  0
VERTEX
  8
0
 10
111.092384
 20
127.826622
  0
VERTEX
  8
0
 10
110.992386
 20
127.926620
  0
VERTEX
  8
0
 10
91.192383
 20
127.926620
  0
VERTEX
  8
0
 10
91.092384
 20
127.826622
  0
VERTEX
  8
0
 10
91.092384
 20
74.426620
  0
SEQEND
  0
POLYLINE
  8
0
 62
     4
 66
     1
 70
     2
  0
VERTEX
  8
0
 10
91.092384
 20
87.426620
  0
VERTEX
  8
0
 10
91.592384
 20
86.926620
  0
VERTEX
  8
0
 10
91.592384
 20
74.926620
  0
VERTEX
  8
0
 10
110.592384
 20
74.926620
  0
VERTEX
  8
0
 10
110.592384
 20
86.926620
  0
VERTEX
  8
0
 10
91.592384
 20
86.926620
  0
SEQEND
  0
LINE
  8
0
 62
     5
 10
130.548904
 20
69.089661
 11
130.548904
 21
92.763580
  0
POLYLINE
  8
0
 62
     5
 66
     1
 70
     2
  0
VERTEX
  8
0
 10
129.576080
 20
90.331512
  0
VERTEX
  8
0
 10
130.548904
 20
86.926620
  0
VERTEX
  8
0
 10
131.521729
 20
90.331512
  0
SEQEND
  0
POLYLINE
  8
0
 62
     5
 66
     1
 70
     2
  0
VERTEX
  8
0
 10
131.521729
 20
71.521729
  0
VERTEX
  8
0
 10
130.548904
 20
74.926620
  0
VERTEX
  8
0
 10
129.576080
 20
71.521729
  0
SEQEND
  0
LINE
  8
0
 62
     5
 10
111.092384
 20
86.926620
 11
132.008148
 21
86.926620
  0
LINE
  8
0
 62
     5
 10
111.092384
 20
74.926620
 11
132.008148
 21
74.926620
  0
TEXT
  8
0
 62
     7
 10
129.576080
 20
75.211266
 40
4.864130
 41
1.000000
  1
%%c12
  7
KANJI
 50
90.000000
 51
0.000000
  0
ENDSEC
  0
EOF
