  0
SECTION
  2
HEADER
  9
$ACADVER
  1
AC1003
  9
$INSBASE
 10
0.000000
 20
0.000000
  9
$EXTMIN
 10
0.000000
 20
0.000000
  9
$EXTMAX
 10
292.728261
 20
202.418478
  9
$LIMMIN
 10
0.000000
 20
0.000000
  9
$LIMMAX
 10
292.728261
 20
202.418478
  9
$VIEWCTR
 10
146.364130
 20
101.209239
  9
$VIEWSIZE
 40
202.418478
  0
ENDSEC
  0
SECTION
  2
TABLES
  0
TABLE
  2
LTYPE
 70
     4
  0
LTYPE
  2
CONTINUOUS
 70
    64
  3
SolidLine
 72
    65
 73
     0
 40
0.0
  0
LTYPE
  2
HIDDEN
 70
    64
  3
------------------------
 72
    65
 73
     2
 40
3.114130
 49
2.076087
 49
-1.038043
  0
LTYPE
  2
DASHDOT
 70
    64
  3
--?--?--?--?--?--?--?--
 72
    65
 73
     4
 40
12.456522
 49
9.342391
 49
-1.038043
 49
1.038043
 49
-1.038043
  0
LTYPE
  2
DIVIDE
 70
    64
  3
--??--??--??--??--??--
 72
    65
 73
     6
 40
15.570652
 49
10.380435
 49
-1.038043
 49
1.038043
 49
-1.038043
 49
1.038043
 49
-1.038043
  0
ENDTAB
  0
TABLE
  2
LAYER
 70
     5
  0
LAYER
  2
0
 70
    64
 62
     7
  6
CONTINUOUS
  0
LAYER
  2
HIDDEN
 70
    64
 62
     2
  6
HIDDEN
  0
LAYER
  2
DASHDOT
 70
    64
 62
     6
  6
DASHDOT
  0
LAYER
  2
DIVIDE
 70
    64
 62
     5
  6
DIVIDE
  0
ENDTAB
  0
TABLE
  2
STYLE
 70
     1
  0
STYLE
  2
STANDARD
 70
    64
 40
0.0
 41
1.0
 50
0.0
 71
     0
 42
0.2
  3
TXT
  4

  0
STYLE
  2
KANJI
 70
    64
 40
0.0
 41
1.0
 50
0.0
 71
     0
 42
0.2
  3
TXT
  4
BIGFONT
  0
ENDTAB
  0
TABLE
  2
VIEW
 70
     0
  0
ENDTAB
  0
ENDSEC
  0
SECTION
  2
BLOCKS
  0
ENDSEC
  0
SECTION
  2
ENTITIES
  0
TEXT
  8
0
 62
     7
 10
10.380435
 20
11.418478
 40
4.152174
 41
1.000000
  1
KHK PSA2-48J14
  7
KANJI
 50
0.000000
 51
0.000000
  0
TEXT
  8
0
 62
     7
 10
10.380435
 20
5.190217
 40
4.152174
 41
1.000000
  1
The precision grade of gears after secondary operations is equivalent but not identical to its original grade.
  7
KANJI
 50
0.000000
 51
0.000000
  0
TEXT
  8
0
 62
     7
 10
10.380435
 20
186.847824
 40
4.671196
 41
1.000000
  1

  7
KANJI
 50
0.000000
 51
0.000000
  0
POLYLINE
  8
0
 62
     7
 66
     1
 70
     2
  0
VERTEX
  8
0
 10
249.130432
 20
186.847824
  0
VERTEX
  8
0
 10
245.082062
 20
193.864990
  0
VERTEX
  8
0
 10
261.275543
 20
193.864990
  0
VERTEX
  8
0
 10
257.227173
 20
186.847824
  0
VERTEX
  8
0
 10
253.178802
 20
193.864990
  0
VERTEX
  8
0
 10
249.130432
 20
186.847824
  0
SEQEND
  0
LINE
  8
0
 62
     5
 10
153.690231
 20
136.502716
 11
153.690231
 21
36.502716
  0
POLYLINE
  8
0
 62
     5
 66
     1
 70
     2
  0
VERTEX
  8
0
 10
154.728271
 20
132.869568
  0
VERTEX
  8
0
 10
153.690231
 20
136.502716
  0
VERTEX
  8
0
 10
152.652191
 20
132.869568
  0
SEQEND
  0
POLYLINE
  8
0
 62
     5
 66
     1
 70
     2
  0
VERTEX
  8
0
 10
152.652191
 20
40.135868
  0
VERTEX
  8
0
 10
153.690231
 20
36.502716
  0
VERTEX
  8
0
 10
154.728271
 20
40.135868
  0
SEQEND
  0
LINE
  8
0
 62
     5
 10
116.320663
 20
136.502716
 11
155.247284
 21
136.502716
  0
LINE
  8
0
 62
     5
 10
116.320663
 20
36.502716
 11
155.247284
 21
36.502716
  0
TEXT
  8
0
 62
     7
 10
152.652191
 20
78.717392
 40
5.190217
 41
1.000000
  1
%%c100
  7
KANJI
 50
90.000000
 51
0.000000
  0
LINE
  8
0
 62
     5
 10
96.320663
 20
157.263580
 11
116.320663
 21
157.263580
  0
POLYLINE
  8
0
 62
     5
 66
     1
 70
     2
  0
VERTEX
  8
0
 10
99.953819
 20
158.301636
  0
VERTEX
  8
0
 10
96.320663
 20
157.263580
  0
VERTEX
  8
0
 10
99.953819
 20
156.225555
  0
SEQEND
  0
POLYLINE
  8
0
 62
     5
 66
     1
 70
     2
  0
VERTEX
  8
0
 10
112.687515
 20
156.225555
  0
VERTEX
  8
0
 10
116.320663
 20
157.263580
  0
VERTEX
  8
0
 10
112.687515
 20
158.301636
  0
SEQEND
  0
LINE
  8
0
 62
     5
 10
96.320663
 20
136.502716
 11
96.320663
 21
158.820648
  0
LINE
  8
0
 62
     5
 10
116.320663
 20
136.502716
 11
116.320663
 21
158.820648
  0
TEXT
  8
0
 62
     7
 10
102.947021
 20
158.094025
 40
5.190217
 41
1.000000
  1
20
  7
KANJI
 50
0.000000
 51
0.000000
  0
LINE
  8
DASHDOT
 62
     7
 10
93.206535
 20
134.502716
 11
119.434792
 21
134.502716
  0
LINE
  8
DASHDOT
 62
     7
 10
93.206535
 20
38.502716
 11
119.434792
 21
38.502716
  0
LINE
  8
DASHDOT
 62
     7
 10
93.206535
 20
86.502716
 11
119.434792
 21
86.502716
  0
LINE
  8
0
 62
     5
 10
116.220665
 20
36.502716
 11
116.320663
 21
36.502716
  0
LINE
  8
0
 62
     5
 10
116.220665
 20
136.502716
 11
116.320663
 21
136.502716
  0
LINE
  8
0
 62
     5
 10
116.320663
 20
136.402710
 11
116.320663
 21
136.502716
  0
LINE
  8
0
 62
     5
 10
96.320663
 20
136.402710
 11
96.320663
 21
136.502716
  0
LINE
  8
0
 62
     4
 10
96.320663
 20
132.002716
 11
116.320663
 21
132.002716
  0
LINE
  8
0
 62
     4
 10
96.320663
 20
41.002716
 11
116.320663
 21
41.002716
  0
LINE
  8
0
 62
     4
 10
116.320663
 20
94.002716
 11
115.820663
 21
93.502716
  0
LINE
  8
0
 62
     4
 10
116.320663
 20
79.002716
 11
115.820663
 21
79.502716
  0
LINE
  8
0
 62
     4
 10
96.320663
 20
79.002716
 11
96.820663
 21
79.502716
  0
POLYLINE
  8
0
 62
     4
 66
     1
 70
     2
  0
VERTEX
  8
0
 10
96.320663
 20
79.002716
  0
VERTEX
  8
0
 10
96.320663
 20
36.602715
  0
VERTEX
  8
0
 10
96.420662
 20
36.502716
  0
VERTEX
  8
0
 10
116.220665
 20
36.502716
  0
VERTEX
  8
0
 10
116.320663
 20
36.602715
  0
VERTEX
  8
0
 10
116.320663
 20
136.402710
  0
VERTEX
  8
0
 10
116.220665
 20
136.502716
  0
VERTEX
  8
0
 10
96.420662
 20
136.502716
  0
VERTEX
  8
0
 10
96.320663
 20
136.402710
  0
VERTEX
  8
0
 10
96.320663
 20
79.002716
  0
SEQEND
  0
POLYLINE
  8
0
 62
     4
 66
     1
 70
     2
  0
VERTEX
  8
0
 10
96.320663
 20
94.002716
  0
VERTEX
  8
0
 10
96.820663
 20
93.502716
  0
VERTEX
  8
0
 10
96.820663
 20
79.502716
  0
VERTEX
  8
0
 10
115.820663
 20
79.502716
  0
VERTEX
  8
0
 10
115.820663
 20
93.502716
  0
VERTEX
  8
0
 10
96.820663
 20
93.502716
  0
SEQEND
  0
ARC
  8
0
 62
     4
 10
175.222839
 20
86.502716
 40
7.000000
 50
110.92483306307776
 51
69.07516693692226
  0
POLYLINE
  8
0
 62
     4
 66
     1
 70
     2
  0
VERTEX
  8
0
 10
177.722839
 20
93.041061
  0
VERTEX
  8
0
 10
177.722839
 20
95.802719
  0
VERTEX
  8
0
 10
172.722839
 20
95.802719
  0
VERTEX
  8
0
 10
172.722839
 20
93.041061
  0
SEQEND
  0
LINE
  8
0
 62
     4
 10
96.320663
 20
95.802719
 11
116.320663
 21
95.802719
  0
LINE
  8
DASHDOT
 62
     7
 10
175.222839
 20
98.916847
 11
175.222839
 21
76.388588
  0
LINE
  8
DASHDOT
 62
     7
 10
185.336975
 20
86.502716
 11
165.108704
 21
86.502716
  0
LINE
  8
0
 62
     5
 10
183.951111
 20
103.069023
 11
166.494568
 21
103.069023
  0
POLYLINE
  8
0
 62
     5
 66
     1
 70
     2
  0
VERTEX
  8
0
 10
169.089691
 20
102.030975
  0
VERTEX
  8
0
 10
172.722839
 20
103.069023
  0
VERTEX
  8
0
 10
169.089691
 20
104.107063
  0
SEQEND
  0
POLYLINE
  8
0
 62
     5
 66
     1
 70
     2
  0
VERTEX
  8
0
 10
181.355988
 20
104.107063
  0
VERTEX
  8
0
 10
177.722839
 20
103.069023
  0
VERTEX
  8
0
 10
181.355988
 20
102.030975
  0
SEQEND
  0
LINE
  8
0
 62
     5
 10
172.722839
 20
95.802719
 11
172.722839
 21
104.626083
  0
LINE
  8
0
 62
     5
 10
177.722839
 20
95.802719
 11
177.722839
 21
104.626083
  0
TEXT
  8
0
 62
     7
 10
164.509201
 20
104.107063
 40
5.190217
 41
1.000000
  1
5
  7
KANJI
 50
0.000000
 51
0.000000
  0
TEXT
  8
0
 62
     7
 10
169.646881
 20
104.107063
 40
4.152174
 41
1.000000
  1
%%p0.015
  7
KANJI
 50
0.000000
 51
0.000000
  0
LINE
  8
0
 62
     5
 10
214.054352
 20
73.274460
 11
214.054352
 21
102.030975
  0
POLYLINE
  8
0
 62
     5
 66
     1
 70
     2
  0
VERTEX
  8
0
 10
213.016327
 20
99.435867
  0
VERTEX
  8
0
 10
214.054352
 20
95.802719
  0
VERTEX
  8
0
 10
215.092407
 20
99.435867
  0
SEQEND
  0
POLYLINE
  8
0
 62
     5
 66
     1
 70
     2
  0
VERTEX
  8
0
 10
215.092407
 20
75.869568
  0
VERTEX
  8
0
 10
214.054352
 20
79.502716
  0
VERTEX
  8
0
 10
213.016327
 20
75.869568
  0
SEQEND
  0
LINE
  8
0
 62
     5
 10
177.722839
 20
95.802719
 11
215.611420
 21
95.802719
  0
LINE
  8
0
 62
     5
 10
175.222839
 20
79.502716
 11
215.611420
 21
79.502716
  0
TEXT
  8
0
 62
     7
 10
212.497284
 20
71.223549
 40
5.190217
 41
1.000000
  1
16.3
  7
KANJI
 50
90.000000
 51
0.000000
  0
TEXT
  8
0
 62
     7
 10
212.808716
 20
93.688866
 40
2.595109
 41
1.000000
  1
 
  7
KANJI
 50
90.000000
 51
0.000000
  0
TEXT
  8
0
 62
     7
 10
209.590775
 20
93.688866
 40
2.595109
 41
1.000000
  1
+
  7
KANJI
 50
90.000000
 51
0.000000
  0
TEXT
  8
0
 62
     7
 10
212.808716
 20
96.595383
 40
2.595109
 41
1.000000
  1
0
  7
KANJI
 50
90.000000
 51
0.000000
  0
TEXT
  8
0
 62
     7
 10
209.590775
 20
96.595383
 40
2.595109
 41
1.000000
  1
0.1
  7
KANJI
 50
90.000000
 51
0.000000
  0
LINE
  8
0
 62
     5
 10
137.081543
 20
93.502716
 11
137.081543
 21
79.502716
  0
POLYLINE
  8
0
 62
     5
 66
     1
 70
     2
  0
VERTEX
  8
0
 10
136.043488
 20
83.135872
  0
VERTEX
  8
0
 10
137.081543
 20
79.502716
  0
VERTEX
  8
0
 10
138.119583
 20
83.135872
  0
SEQEND
  0
LINE
  8
0
 62
     5
 10
116.320663
 20
79.502716
 11
138.638596
 21
79.502716
  0
TEXT
  8
0
 62
     7
 10
136.043488
 20
80.404213
 40
5.190217
 41
1.000000
  1
%%c14
  7
KANJI
 50
90.000000
 51
0.000000
  0
ENDSEC
  0
EOF
