  0
SECTION
  2
HEADER
  9
$ACADVER
  1
AC1003
  9
$INSBASE
 10
0.000000
 20
0.000000
  9
$EXTMIN
 10
0.000000
 20
0.000000
  9
$EXTMAX
 10
580.858696
 20
401.657609
  9
$LIMMIN
 10
0.000000
 20
0.000000
  9
$LIMMAX
 10
580.858696
 20
401.657609
  9
$VIEWCTR
 10
290.429348
 20
200.828804
  9
$VIEWSIZE
 40
401.657609
  0
ENDSEC
  0
SECTION
  2
TABLES
  0
TABLE
  2
LTYPE
 70
     4
  0
LTYPE
  2
CONTINUOUS
 70
    64
  3
SolidLine
 72
    65
 73
     0
 40
0.0
  0
LTYPE
  2
HIDDEN
 70
    64
  3
------------------------
 72
    65
 73
     2
 40
6.179348
 49
4.119565
 49
-2.059783
  0
LTYPE
  2
DASHDOT
 70
    64
  3
--?--?--?--?--?--?--?--
 72
    65
 73
     4
 40
24.717391
 49
18.538043
 49
-2.059783
 49
2.059783
 49
-2.059783
  0
LTYPE
  2
DIVIDE
 70
    64
  3
--??--??--??--??--??--
 72
    65
 73
     6
 40
30.896739
 49
20.597826
 49
-2.059783
 49
2.059783
 49
-2.059783
 49
2.059783
 49
-2.059783
  0
ENDTAB
  0
TABLE
  2
LAYER
 70
     5
  0
LAYER
  2
0
 70
    64
 62
     7
  6
CONTINUOUS
  0
LAYER
  2
HIDDEN
 70
    64
 62
     2
  6
HIDDEN
  0
LAYER
  2
DASHDOT
 70
    64
 62
     6
  6
DASHDOT
  0
LAYER
  2
DIVIDE
 70
    64
 62
     5
  6
DIVIDE
  0
ENDTAB
  0
TABLE
  2
STYLE
 70
     1
  0
STYLE
  2
STANDARD
 70
    64
 40
0.0
 41
1.0
 50
0.0
 71
     0
 42
0.2
  3
TXT
  4

  0
STYLE
  2
KANJI
 70
    64
 40
0.0
 41
1.0
 50
0.0
 71
     0
 42
0.2
  3
TXT
  4
BIGFONT
  0
ENDTAB
  0
TABLE
  2
VIEW
 70
     0
  0
ENDTAB
  0
ENDSEC
  0
SECTION
  2
BLOCKS
  0
ENDSEC
  0
SECTION
  2
ENTITIES
  0
TEXT
  8
0
 62
     7
 10
20.597826
 20
22.657608
 40
8.239130
 41
1.000000
  1
KHK PSA2-95J40
  7
KANJI
 50
0.000000
 51
0.000000
  0
TEXT
  8
0
 62
     7
 10
20.597826
 20
10.298913
 40
8.239130
 41
1.000000
  1
The precision grade of gears after secondary operations is equivalent but not identical to its original grade.
  7
KANJI
 50
0.000000
 51
0.000000
  0
TEXT
  8
0
 62
     7
 10
20.597826
 20
370.760864
 40
9.269022
 41
1.000000
  1

  7
KANJI
 50
0.000000
 51
0.000000
  0
POLYLINE
  8
0
 62
     7
 66
     1
 70
     2
  0
VERTEX
  8
0
 10
494.347839
 20
370.760864
  0
VERTEX
  8
0
 10
486.314697
 20
384.684998
  0
VERTEX
  8
0
 10
518.447266
 20
384.684998
  0
VERTEX
  8
0
 10
510.414154
 20
370.760864
  0
VERTEX
  8
0
 10
502.380981
 20
384.684998
  0
VERTEX
  8
0
 10
494.347839
 20
370.760864
  0
SEQEND
  0
LINE
  8
0
 62
     5
 10
291.548920
 20
270.861420
 11
291.548920
 21
76.861420
  0
POLYLINE
  8
0
 62
     5
 66
     1
 70
     2
  0
VERTEX
  8
0
 10
293.608704
 20
263.652191
  0
VERTEX
  8
0
 10
291.548920
 20
270.861420
  0
VERTEX
  8
0
 10
289.489136
 20
263.652191
  0
SEQEND
  0
POLYLINE
  8
0
 62
     5
 66
     1
 70
     2
  0
VERTEX
  8
0
 10
289.489136
 20
84.070656
  0
VERTEX
  8
0
 10
291.548920
 20
76.861420
  0
VERTEX
  8
0
 10
293.608704
 20
84.070656
  0
SEQEND
  0
LINE
  8
0
 62
     5
 10
217.396744
 20
270.861420
 11
294.638611
 21
270.861420
  0
LINE
  8
0
 62
     5
 10
217.396744
 20
76.861420
 11
294.638611
 21
76.861420
  0
TEXT
  8
0
 62
     7
 10
289.489136
 20
158.413055
 40
10.298913
 41
1.000000
  1
%%c194
  7
KANJI
 50
90.000000
 51
0.000000
  0
LINE
  8
0
 62
     5
 10
229.755432
 20
312.057068
 11
185.038055
 21
312.057068
  0
POLYLINE
  8
0
 62
     5
 66
     1
 70
     2
  0
VERTEX
  8
0
 10
190.187500
 20
309.997284
  0
VERTEX
  8
0
 10
197.396744
 20
312.057068
  0
VERTEX
  8
0
 10
190.187500
 20
314.116852
  0
SEQEND
  0
POLYLINE
  8
0
 62
     5
 66
     1
 70
     2
  0
VERTEX
  8
0
 10
224.605988
 20
314.116852
  0
VERTEX
  8
0
 10
217.396744
 20
312.057068
  0
VERTEX
  8
0
 10
224.605988
 20
309.997284
  0
SEQEND
  0
LINE
  8
0
 62
     5
 10
197.396744
 20
270.861420
 11
197.396744
 21
315.146729
  0
LINE
  8
0
 62
     5
 10
217.396744
 20
270.861420
 11
217.396744
 21
315.146729
  0
TEXT
  8
0
 62
     7
 10
200.702454
 20
313.704895
 40
10.298913
 41
1.000000
  1
20
  7
KANJI
 50
0.000000
 51
0.000000
  0
LINE
  8
DASHDOT
 62
     7
 10
191.217392
 20
268.861420
 11
223.576096
 21
268.861420
  0
LINE
  8
DASHDOT
 62
     7
 10
191.217392
 20
78.861420
 11
223.576096
 21
78.861420
  0
LINE
  8
DASHDOT
 62
     7
 10
191.217392
 20
173.861420
 11
223.576096
 21
173.861420
  0
LINE
  8
0
 62
     5
 10
217.296738
 20
76.861420
 11
217.396744
 21
76.861420
  0
LINE
  8
0
 62
     5
 10
217.296738
 20
270.861420
 11
217.396744
 21
270.861420
  0
LINE
  8
0
 62
     5
 10
217.396744
 20
270.761414
 11
217.396744
 21
270.861420
  0
LINE
  8
0
 62
     5
 10
197.396744
 20
270.761414
 11
197.396744
 21
270.861420
  0
LINE
  8
0
 62
     4
 10
197.396744
 20
266.361420
 11
217.396744
 21
266.361420
  0
LINE
  8
0
 62
     4
 10
197.396744
 20
81.361420
 11
217.396744
 21
81.361420
  0
LINE
  8
0
 62
     4
 10
217.396744
 20
194.361420
 11
216.896744
 21
193.861420
  0
LINE
  8
0
 62
     4
 10
217.396744
 20
153.361420
 11
216.896744
 21
153.861420
  0
LINE
  8
0
 62
     4
 10
197.396744
 20
153.361420
 11
197.896744
 21
153.861420
  0
POLYLINE
  8
0
 62
     4
 66
     1
 70
     2
  0
VERTEX
  8
0
 10
197.396744
 20
153.361420
  0
VERTEX
  8
0
 10
197.396744
 20
76.961418
  0
VERTEX
  8
0
 10
197.496750
 20
76.861420
  0
VERTEX
  8
0
 10
217.296738
 20
76.861420
  0
VERTEX
  8
0
 10
217.396744
 20
76.961418
  0
VERTEX
  8
0
 10
217.396744
 20
270.761414
  0
VERTEX
  8
0
 10
217.296738
 20
270.861420
  0
VERTEX
  8
0
 10
197.496750
 20
270.861420
  0
VERTEX
  8
0
 10
197.396744
 20
270.761414
  0
VERTEX
  8
0
 10
197.396744
 20
153.361420
  0
SEQEND
  0
POLYLINE
  8
0
 62
     4
 66
     1
 70
     2
  0
VERTEX
  8
0
 10
197.396744
 20
194.361420
  0
VERTEX
  8
0
 10
197.896744
 20
193.861420
  0
VERTEX
  8
0
 10
197.896744
 20
153.861420
  0
VERTEX
  8
0
 10
216.896744
 20
153.861420
  0
VERTEX
  8
0
 10
216.896744
 20
193.861420
  0
VERTEX
  8
0
 10
197.896744
 20
193.861420
  0
SEQEND
  0
ARC
  8
0
 62
     4
 10
340.385864
 20
173.861420
 40
20.000000
 50
107.45760274776076
 51
72.54239725223924
  0
POLYLINE
  8
0
 62
     4
 66
     1
 70
     2
  0
VERTEX
  8
0
 10
346.385864
 20
192.940201
  0
VERTEX
  8
0
 10
346.385864
 20
197.161423
  0
VERTEX
  8
0
 10
334.385864
 20
197.161423
  0
VERTEX
  8
0
 10
334.385864
 20
192.940201
  0
SEQEND
  0
LINE
  8
0
 62
     4
 10
197.396744
 20
197.161423
 11
217.396744
 21
197.161423
  0
LINE
  8
DASHDOT
 62
     7
 10
340.385864
 20
203.340759
 11
340.385864
 21
147.682068
  0
LINE
  8
DASHDOT
 62
     7
 10
366.565216
 20
173.861420
 11
314.206543
 21
173.861420
  0
LINE
  8
0
 62
     5
 10
358.744568
 20
211.579895
 11
322.027191
 21
211.579895
  0
POLYLINE
  8
0
 62
     5
 66
     1
 70
     2
  0
VERTEX
  8
0
 10
327.176636
 20
209.520111
  0
VERTEX
  8
0
 10
334.385864
 20
211.579895
  0
VERTEX
  8
0
 10
327.176636
 20
213.639679
  0
SEQEND
  0
POLYLINE
  8
0
 62
     5
 66
     1
 70
     2
  0
VERTEX
  8
0
 10
353.595123
 20
213.639679
  0
VERTEX
  8
0
 10
346.385864
 20
211.579895
  0
VERTEX
  8
0
 10
353.595123
 20
209.520111
  0
SEQEND
  0
LINE
  8
0
 62
     5
 10
334.385864
 20
197.161423
 11
334.385864
 21
214.669571
  0
LINE
  8
0
 62
     5
 10
346.385864
 20
197.161423
 11
346.385864
 21
214.669571
  0
TEXT
  8
0
 62
     7
 10
311.402710
 20
213.639679
 40
10.298913
 41
1.000000
  1
12
  7
KANJI
 50
0.000000
 51
0.000000
  0
TEXT
  8
0
 62
     7
 10
328.806580
 20
213.639679
 40
8.239130
 41
1.000000
  1
%%p0.0215
  7
KANJI
 50
0.000000
 51
0.000000
  0
LINE
  8
0
 62
     5
 10
418.478271
 20
197.161423
 11
418.478271
 21
153.861420
  0
POLYLINE
  8
0
 62
     5
 66
     1
 70
     2
  0
VERTEX
  8
0
 10
420.538055
 20
189.952179
  0
VERTEX
  8
0
 10
418.478271
 20
197.161423
  0
VERTEX
  8
0
 10
416.418488
 20
189.952179
  0
SEQEND
  0
POLYLINE
  8
0
 62
     5
 66
     1
 70
     2
  0
VERTEX
  8
0
 10
416.418488
 20
161.070663
  0
VERTEX
  8
0
 10
418.478271
 20
153.861420
  0
VERTEX
  8
0
 10
420.538055
 20
161.070663
  0
SEQEND
  0
LINE
  8
0
 62
     5
 10
346.385864
 20
197.161423
 11
421.567932
 21
197.161423
  0
LINE
  8
0
 62
     5
 10
340.385864
 20
153.861420
 11
421.567932
 21
153.861420
  0
TEXT
  8
0
 62
     7
 10
415.388611
 20
141.815521
 40
10.298913
 41
1.000000
  1
43.3
  7
KANJI
 50
90.000000
 51
0.000000
  0
TEXT
  8
0
 62
     7
 10
416.006531
 20
186.393295
 40
5.149457
 41
1.000000
  1
 
  7
KANJI
 50
90.000000
 51
0.000000
  0
TEXT
  8
0
 62
     7
 10
409.621216
 20
186.393295
 40
5.149457
 41
1.000000
  1
+
  7
KANJI
 50
90.000000
 51
0.000000
  0
TEXT
  8
0
 62
     7
 10
416.006531
 20
192.160690
 40
5.149457
 41
1.000000
  1
0
  7
KANJI
 50
90.000000
 51
0.000000
  0
TEXT
  8
0
 62
     7
 10
409.621216
 20
192.160690
 40
5.149457
 41
1.000000
  1
0.2
  7
KANJI
 50
90.000000
 51
0.000000
  0
LINE
  8
0
 62
     5
 10
258.592407
 20
193.861420
 11
258.592407
 21
153.861420
  0
POLYLINE
  8
0
 62
     5
 66
     1
 70
     2
  0
VERTEX
  8
0
 10
256.532623
 20
161.070663
  0
VERTEX
  8
0
 10
258.592407
 20
153.861420
  0
VERTEX
  8
0
 10
260.652191
 20
161.070663
  0
SEQEND
  0
LINE
  8
0
 62
     5
 10
217.396744
 20
153.861420
 11
261.682068
 21
153.861420
  0
TEXT
  8
0
 62
     7
 10
256.532623
 20
161.760193
 40
10.298913
 41
1.000000
  1
%%c40
  7
KANJI
 50
90.000000
 51
0.000000
  0
ENDSEC
  0
EOF
