  0
SECTION
  2
HEADER
  9
$ACADVER
  1
AC1003
  9
$INSBASE
 10
0.000000
 20
0.000000
  9
$EXTMIN
 10
0.000000
 20
0.000000
  9
$EXTMAX
 10
580.858696
 20
401.657609
  9
$LIMMIN
 10
0.000000
 20
0.000000
  9
$LIMMAX
 10
580.858696
 20
401.657609
  9
$VIEWCTR
 10
290.429348
 20
200.828804
  9
$VIEWSIZE
 40
401.657609
  0
ENDSEC
  0
SECTION
  2
TABLES
  0
TABLE
  2
LTYPE
 70
     4
  0
LTYPE
  2
CONTINUOUS
 70
    64
  3
SolidLine
 72
    65
 73
     0
 40
0.0
  0
LTYPE
  2
HIDDEN
 70
    64
  3
------------------------
 72
    65
 73
     2
 40
6.179348
 49
4.119565
 49
-2.059783
  0
LTYPE
  2
DASHDOT
 70
    64
  3
--?--?--?--?--?--?--?--
 72
    65
 73
     4
 40
24.717391
 49
18.538043
 49
-2.059783
 49
2.059783
 49
-2.059783
  0
LTYPE
  2
DIVIDE
 70
    64
  3
--??--??--??--??--??--
 72
    65
 73
     6
 40
30.896739
 49
20.597826
 49
-2.059783
 49
2.059783
 49
-2.059783
 49
2.059783
 49
-2.059783
  0
ENDTAB
  0
TABLE
  2
LAYER
 70
     5
  0
LAYER
  2
0
 70
    64
 62
     7
  6
CONTINUOUS
  0
LAYER
  2
HIDDEN
 70
    64
 62
     2
  6
HIDDEN
  0
LAYER
  2
DASHDOT
 70
    64
 62
     6
  6
DASHDOT
  0
LAYER
  2
DIVIDE
 70
    64
 62
     5
  6
DIVIDE
  0
ENDTAB
  0
TABLE
  2
STYLE
 70
     1
  0
STYLE
  2
STANDARD
 70
    64
 40
0.0
 41
1.0
 50
0.0
 71
     0
 42
0.2
  3
TXT
  4

  0
STYLE
  2
KANJI
 70
    64
 40
0.0
 41
1.0
 50
0.0
 71
     0
 42
0.2
  3
TXT
  4
BIGFONT
  0
ENDTAB
  0
TABLE
  2
VIEW
 70
     0
  0
ENDTAB
  0
ENDSEC
  0
SECTION
  2
BLOCKS
  0
ENDSEC
  0
SECTION
  2
ENTITIES
  0
TEXT
  8
0
 62
     7
 10
20.597826
 20
22.657608
 40
8.239130
 41
1.000000
  1
KHK PSA2-95J20
  7
KANJI
 50
0.000000
 51
0.000000
  0
TEXT
  8
0
 62
     7
 10
20.597826
 20
10.298913
 40
8.239130
 41
1.000000
  1
The precision grade of gears after secondary operations is equivalent but not identical to its original grade.
  7
KANJI
 50
0.000000
 51
0.000000
  0
TEXT
  8
0
 62
     7
 10
20.597826
 20
370.760864
 40
9.269022
 41
1.000000
  1

  7
KANJI
 50
0.000000
 51
0.000000
  0
POLYLINE
  8
0
 62
     7
 66
     1
 70
     2
  0
VERTEX
  8
0
 10
494.347839
 20
370.760864
  0
VERTEX
  8
0
 10
486.314697
 20
384.684998
  0
VERTEX
  8
0
 10
518.447266
 20
384.684998
  0
VERTEX
  8
0
 10
510.414154
 20
370.760864
  0
VERTEX
  8
0
 10
502.380981
 20
384.684998
  0
VERTEX
  8
0
 10
494.347839
 20
370.760864
  0
SEQEND
  0
LINE
  8
0
 62
     5
 10
298.048920
 20
270.861420
 11
298.048920
 21
76.861420
  0
POLYLINE
  8
0
 62
     5
 66
     1
 70
     2
  0
VERTEX
  8
0
 10
300.108704
 20
263.652191
  0
VERTEX
  8
0
 10
298.048920
 20
270.861420
  0
VERTEX
  8
0
 10
295.989136
 20
263.652191
  0
SEQEND
  0
POLYLINE
  8
0
 62
     5
 66
     1
 70
     2
  0
VERTEX
  8
0
 10
295.989136
 20
84.070656
  0
VERTEX
  8
0
 10
298.048920
 20
76.861420
  0
VERTEX
  8
0
 10
300.108704
 20
84.070656
  0
SEQEND
  0
LINE
  8
0
 62
     5
 10
223.896744
 20
270.861420
 11
301.138611
 21
270.861420
  0
LINE
  8
0
 62
     5
 10
223.896744
 20
76.861420
 11
301.138611
 21
76.861420
  0
TEXT
  8
0
 62
     7
 10
295.989136
 20
158.413055
 40
10.298913
 41
1.000000
  1
%%c194
  7
KANJI
 50
90.000000
 51
0.000000
  0
LINE
  8
0
 62
     5
 10
236.255432
 20
312.057068
 11
191.538055
 21
312.057068
  0
POLYLINE
  8
0
 62
     5
 66
     1
 70
     2
  0
VERTEX
  8
0
 10
196.687500
 20
309.997284
  0
VERTEX
  8
0
 10
203.896744
 20
312.057068
  0
VERTEX
  8
0
 10
196.687500
 20
314.116852
  0
SEQEND
  0
POLYLINE
  8
0
 62
     5
 66
     1
 70
     2
  0
VERTEX
  8
0
 10
231.105988
 20
314.116852
  0
VERTEX
  8
0
 10
223.896744
 20
312.057068
  0
VERTEX
  8
0
 10
231.105988
 20
309.997284
  0
SEQEND
  0
LINE
  8
0
 62
     5
 10
203.896744
 20
270.861420
 11
203.896744
 21
315.146729
  0
LINE
  8
0
 62
     5
 10
223.896744
 20
270.861420
 11
223.896744
 21
315.146729
  0
TEXT
  8
0
 62
     7
 10
207.202454
 20
313.704895
 40
10.298913
 41
1.000000
  1
20
  7
KANJI
 50
0.000000
 51
0.000000
  0
LINE
  8
DASHDOT
 62
     7
 10
197.717392
 20
268.861420
 11
230.076096
 21
268.861420
  0
LINE
  8
DASHDOT
 62
     7
 10
197.717392
 20
78.861420
 11
230.076096
 21
78.861420
  0
LINE
  8
DASHDOT
 62
     7
 10
197.717392
 20
173.861420
 11
230.076096
 21
173.861420
  0
LINE
  8
0
 62
     5
 10
223.796738
 20
76.861420
 11
223.896744
 21
76.861420
  0
LINE
  8
0
 62
     5
 10
223.796738
 20
270.861420
 11
223.896744
 21
270.861420
  0
LINE
  8
0
 62
     5
 10
223.896744
 20
270.761414
 11
223.896744
 21
270.861420
  0
LINE
  8
0
 62
     5
 10
203.896744
 20
270.761414
 11
203.896744
 21
270.861420
  0
LINE
  8
0
 62
     4
 10
203.896744
 20
266.361420
 11
223.896744
 21
266.361420
  0
LINE
  8
0
 62
     4
 10
203.896744
 20
81.361420
 11
223.896744
 21
81.361420
  0
LINE
  8
0
 62
     4
 10
223.896744
 20
184.361420
 11
223.396744
 21
183.861420
  0
LINE
  8
0
 62
     4
 10
223.896744
 20
163.361420
 11
223.396744
 21
163.861420
  0
LINE
  8
0
 62
     4
 10
203.896744
 20
163.361420
 11
204.396744
 21
163.861420
  0
POLYLINE
  8
0
 62
     4
 66
     1
 70
     2
  0
VERTEX
  8
0
 10
203.896744
 20
163.361420
  0
VERTEX
  8
0
 10
203.896744
 20
76.961418
  0
VERTEX
  8
0
 10
203.996750
 20
76.861420
  0
VERTEX
  8
0
 10
223.796738
 20
76.861420
  0
VERTEX
  8
0
 10
223.896744
 20
76.961418
  0
VERTEX
  8
0
 10
223.896744
 20
270.761414
  0
VERTEX
  8
0
 10
223.796738
 20
270.861420
  0
VERTEX
  8
0
 10
203.996750
 20
270.861420
  0
VERTEX
  8
0
 10
203.896744
 20
270.761414
  0
VERTEX
  8
0
 10
203.896744
 20
163.361420
  0
SEQEND
  0
POLYLINE
  8
0
 62
     4
 66
     1
 70
     2
  0
VERTEX
  8
0
 10
203.896744
 20
184.361420
  0
VERTEX
  8
0
 10
204.396744
 20
183.861420
  0
VERTEX
  8
0
 10
204.396744
 20
163.861420
  0
VERTEX
  8
0
 10
223.396744
 20
163.861420
  0
VERTEX
  8
0
 10
223.396744
 20
183.861420
  0
VERTEX
  8
0
 10
204.396744
 20
183.861420
  0
SEQEND
  0
ARC
  8
0
 62
     4
 10
336.885864
 20
173.861420
 40
10.000000
 50
107.45760274776076
 51
72.54239725223924
  0
POLYLINE
  8
0
 62
     4
 66
     1
 70
     2
  0
VERTEX
  8
0
 10
339.885864
 20
183.400818
  0
VERTEX
  8
0
 10
339.885864
 20
186.661423
  0
VERTEX
  8
0
 10
333.885864
 20
186.661423
  0
VERTEX
  8
0
 10
333.885864
 20
183.400818
  0
SEQEND
  0
LINE
  8
0
 62
     4
 10
203.896744
 20
186.661423
 11
223.896744
 21
186.661423
  0
LINE
  8
DASHDOT
 62
     7
 10
336.885864
 20
192.840759
 11
336.885864
 21
157.682068
  0
LINE
  8
DASHDOT
 62
     7
 10
353.065216
 20
173.861420
 11
320.706543
 21
173.861420
  0
LINE
  8
0
 62
     5
 10
352.244568
 20
201.079895
 11
321.527191
 21
201.079895
  0
POLYLINE
  8
0
 62
     5
 66
     1
 70
     2
  0
VERTEX
  8
0
 10
326.676636
 20
199.020111
  0
VERTEX
  8
0
 10
333.885864
 20
201.079895
  0
VERTEX
  8
0
 10
326.676636
 20
203.139679
  0
SEQEND
  0
POLYLINE
  8
0
 62
     5
 66
     1
 70
     2
  0
VERTEX
  8
0
 10
347.095123
 20
203.139679
  0
VERTEX
  8
0
 10
339.885864
 20
201.079895
  0
VERTEX
  8
0
 10
347.095123
 20
199.020111
  0
SEQEND
  0
LINE
  8
0
 62
     5
 10
333.885864
 20
186.661423
 11
333.885864
 21
204.169571
  0
LINE
  8
0
 62
     5
 10
339.885864
 20
186.661423
 11
339.885864
 21
204.169571
  0
TEXT
  8
0
 62
     7
 10
315.626892
 20
203.139679
 40
10.298913
 41
1.000000
  1
6
  7
KANJI
 50
0.000000
 51
0.000000
  0
TEXT
  8
0
 62
     7
 10
325.821533
 20
203.139679
 40
8.239130
 41
1.000000
  1
%%p0.015
  7
KANJI
 50
0.000000
 51
0.000000
  0
LINE
  8
0
 62
     5
 10
411.978271
 20
151.502731
 11
411.978271
 21
199.020111
  0
POLYLINE
  8
0
 62
     5
 66
     1
 70
     2
  0
VERTEX
  8
0
 10
409.918488
 20
193.870667
  0
VERTEX
  8
0
 10
411.978271
 20
186.661423
  0
VERTEX
  8
0
 10
414.038055
 20
193.870667
  0
SEQEND
  0
POLYLINE
  8
0
 62
     5
 66
     1
 70
     2
  0
VERTEX
  8
0
 10
414.038055
 20
156.652176
  0
VERTEX
  8
0
 10
411.978271
 20
163.861420
  0
VERTEX
  8
0
 10
409.918488
 20
156.652176
  0
SEQEND
  0
LINE
  8
0
 62
     5
 10
339.885864
 20
186.661423
 11
415.067932
 21
186.661423
  0
LINE
  8
0
 62
     5
 10
336.885864
 20
163.861420
 11
415.067932
 21
163.861420
  0
TEXT
  8
0
 62
     7
 10
408.888611
 20
143.615524
 40
10.298913
 41
1.000000
  1
22.8
  7
KANJI
 50
90.000000
 51
0.000000
  0
TEXT
  8
0
 62
     7
 10
409.506531
 20
188.193298
 40
5.149457
 41
1.000000
  1
 
  7
KANJI
 50
90.000000
 51
0.000000
  0
TEXT
  8
0
 62
     7
 10
403.121216
 20
188.193298
 40
5.149457
 41
1.000000
  1
+
  7
KANJI
 50
90.000000
 51
0.000000
  0
TEXT
  8
0
 62
     7
 10
409.506531
 20
193.960693
 40
5.149457
 41
1.000000
  1
0
  7
KANJI
 50
90.000000
 51
0.000000
  0
TEXT
  8
0
 62
     7
 10
403.121216
 20
193.960693
 40
5.149457
 41
1.000000
  1
0.1
  7
KANJI
 50
90.000000
 51
0.000000
  0
LINE
  8
0
 62
     5
 10
265.092407
 20
183.861420
 11
265.092407
 21
163.861420
  0
POLYLINE
  8
0
 62
     5
 66
     1
 70
     2
  0
VERTEX
  8
0
 10
263.032623
 20
171.070663
  0
VERTEX
  8
0
 10
265.092407
 20
163.861420
  0
VERTEX
  8
0
 10
267.152191
 20
171.070663
  0
SEQEND
  0
LINE
  8
0
 62
     5
 10
223.896744
 20
163.861420
 11
268.182068
 21
163.861420
  0
TEXT
  8
0
 62
     7
 10
263.032623
 20
161.760193
 40
10.298913
 41
1.000000
  1
%%c20
  7
KANJI
 50
90.000000
 51
0.000000
  0
ENDSEC
  0
EOF
