  0
SECTION
  2
HEADER
  9
$ACADVER
  1
AC1003
  9
$INSBASE
 10
0.000000
 20
0.000000
  9
$EXTMIN
 10
0.000000
 20
0.000000
  9
$EXTMAX
 10
550.206522
 20
380.461957
  9
$LIMMIN
 10
0.000000
 20
0.000000
  9
$LIMMAX
 10
550.206522
 20
380.461957
  9
$VIEWCTR
 10
275.103261
 20
190.230978
  9
$VIEWSIZE
 40
380.461957
  0
ENDSEC
  0
SECTION
  2
TABLES
  0
TABLE
  2
LTYPE
 70
     4
  0
LTYPE
  2
CONTINUOUS
 70
    64
  3
SolidLine
 72
    65
 73
     0
 40
0.0
  0
LTYPE
  2
HIDDEN
 70
    64
  3
------------------------
 72
    65
 73
     2
 40
5.853261
 49
3.902174
 49
-1.951087
  0
LTYPE
  2
DASHDOT
 70
    64
  3
--?--?--?--?--?--?--?--
 72
    65
 73
     4
 40
23.413043
 49
17.559783
 49
-1.951087
 49
1.951087
 49
-1.951087
  0
LTYPE
  2
DIVIDE
 70
    64
  3
--??--??--??--??--??--
 72
    65
 73
     6
 40
29.266304
 49
19.510870
 49
-1.951087
 49
1.951087
 49
-1.951087
 49
1.951087
 49
-1.951087
  0
ENDTAB
  0
TABLE
  2
LAYER
 70
     5
  0
LAYER
  2
0
 70
    64
 62
     7
  6
CONTINUOUS
  0
LAYER
  2
HIDDEN
 70
    64
 62
     2
  6
HIDDEN
  0
LAYER
  2
DASHDOT
 70
    64
 62
     6
  6
DASHDOT
  0
LAYER
  2
DIVIDE
 70
    64
 62
     5
  6
DIVIDE
  0
ENDTAB
  0
TABLE
  2
STYLE
 70
     1
  0
STYLE
  2
STANDARD
 70
    64
 40
0.0
 41
1.0
 50
0.0
 71
     0
 42
0.2
  3
TXT
  4

  0
STYLE
  2
KANJI
 70
    64
 40
0.0
 41
1.0
 50
0.0
 71
     0
 42
0.2
  3
TXT
  4
BIGFONT
  0
ENDTAB
  0
TABLE
  2
VIEW
 70
     0
  0
ENDTAB
  0
ENDSEC
  0
SECTION
  2
BLOCKS
  0
ENDSEC
  0
SECTION
  2
ENTITIES
  0
TEXT
  8
0
 62
     7
 10
19.510870
 20
21.461956
 40
7.804348
 41
1.000000
  1
KHK PSA2-90J28
  7
KANJI
 50
0.000000
 51
0.000000
  0
TEXT
  8
0
 62
     7
 10
19.510870
 20
9.755435
 40
7.804348
 41
1.000000
  1
The precision grade of gears after secondary operations is equivalent but not identical to its original grade.
  7
KANJI
 50
0.000000
 51
0.000000
  0
TEXT
  8
0
 62
     7
 10
19.510870
 20
351.195648
 40
8.779891
 41
1.000000
  1

  7
KANJI
 50
0.000000
 51
0.000000
  0
POLYLINE
  8
0
 62
     7
 66
     1
 70
     2
  0
VERTEX
  8
0
 10
468.260864
 20
351.195648
  0
VERTEX
  8
0
 10
460.651611
 20
364.385010
  0
VERTEX
  8
0
 10
491.088593
 20
364.385010
  0
VERTEX
  8
0
 10
483.479340
 20
351.195648
  0
VERTEX
  8
0
 10
475.870117
 20
364.385010
  0
VERTEX
  8
0
 10
468.260864
 20
351.195648
  0
SEQEND
  0
LINE
  8
0
 62
     5
 10
280.005463
 20
256.567932
 11
280.005463
 21
72.567932
  0
POLYLINE
  8
0
 62
     5
 66
     1
 70
     2
  0
VERTEX
  8
0
 10
281.956543
 20
249.739136
  0
VERTEX
  8
0
 10
280.005463
 20
256.567932
  0
VERTEX
  8
0
 10
278.054382
 20
249.739136
  0
SEQEND
  0
POLYLINE
  8
0
 62
     5
 66
     1
 70
     2
  0
VERTEX
  8
0
 10
278.054382
 20
79.396736
  0
VERTEX
  8
0
 10
280.005463
 20
72.567932
  0
VERTEX
  8
0
 10
281.956543
 20
79.396736
  0
SEQEND
  0
LINE
  8
0
 62
     5
 10
209.766327
 20
256.567932
 11
282.932068
 21
256.567932
  0
LINE
  8
0
 62
     5
 10
209.766327
 20
72.567932
 11
282.932068
 21
72.567932
  0
TEXT
  8
0
 62
     7
 10
278.054382
 20
149.934784
 40
9.755435
 41
1.000000
  1
%%c184
  7
KANJI
 50
90.000000
 51
0.000000
  0
LINE
  8
0
 62
     5
 10
189.766327
 20
295.589661
 11
209.766327
 21
295.589661
  0
POLYLINE
  8
0
 62
     5
 66
     1
 70
     2
  0
VERTEX
  8
0
 10
196.595139
 20
297.540771
  0
VERTEX
  8
0
 10
189.766327
 20
295.589661
  0
VERTEX
  8
0
 10
196.595139
 20
293.638611
  0
SEQEND
  0
POLYLINE
  8
0
 62
     5
 66
     1
 70
     2
  0
VERTEX
  8
0
 10
202.937531
 20
293.638611
  0
VERTEX
  8
0
 10
209.766327
 20
295.589661
  0
VERTEX
  8
0
 10
202.937531
 20
297.540771
  0
SEQEND
  0
LINE
  8
0
 62
     5
 10
189.766327
 20
256.567932
 11
189.766327
 21
298.516296
  0
LINE
  8
0
 62
     5
 10
209.766327
 20
256.567932
 11
209.766327
 21
298.516296
  0
TEXT
  8
0
 62
     7
 10
193.425293
 20
297.150543
 40
9.755435
 41
1.000000
  1
20
  7
KANJI
 50
0.000000
 51
0.000000
  0
LINE
  8
DASHDOT
 62
     7
 10
183.913071
 20
254.567932
 11
215.619583
 21
254.567932
  0
LINE
  8
DASHDOT
 62
     7
 10
183.913071
 20
74.567932
 11
215.619583
 21
74.567932
  0
LINE
  8
DASHDOT
 62
     7
 10
183.913071
 20
164.567932
 11
215.619583
 21
164.567932
  0
LINE
  8
0
 62
     5
 10
209.666321
 20
72.567932
 11
209.766327
 21
72.567932
  0
LINE
  8
0
 62
     5
 10
209.666321
 20
256.567932
 11
209.766327
 21
256.567932
  0
LINE
  8
0
 62
     5
 10
209.766327
 20
256.467926
 11
209.766327
 21
256.567932
  0
LINE
  8
0
 62
     5
 10
189.766327
 20
256.467926
 11
189.766327
 21
256.567932
  0
LINE
  8
0
 62
     4
 10
189.766327
 20
252.067932
 11
209.766327
 21
252.067932
  0
LINE
  8
0
 62
     4
 10
189.766327
 20
77.067932
 11
209.766327
 21
77.067932
  0
LINE
  8
0
 62
     4
 10
209.766327
 20
179.067932
 11
209.266327
 21
178.567932
  0
LINE
  8
0
 62
     4
 10
209.766327
 20
150.067932
 11
209.266327
 21
150.567932
  0
LINE
  8
0
 62
     4
 10
189.766327
 20
150.067932
 11
190.266327
 21
150.567932
  0
POLYLINE
  8
0
 62
     4
 66
     1
 70
     2
  0
VERTEX
  8
0
 10
189.766327
 20
150.067932
  0
VERTEX
  8
0
 10
189.766327
 20
72.667931
  0
VERTEX
  8
0
 10
189.866333
 20
72.567932
  0
VERTEX
  8
0
 10
209.666321
 20
72.567932
  0
VERTEX
  8
0
 10
209.766327
 20
72.667931
  0
VERTEX
  8
0
 10
209.766327
 20
256.467926
  0
VERTEX
  8
0
 10
209.666321
 20
256.567932
  0
VERTEX
  8
0
 10
189.866333
 20
256.567932
  0
VERTEX
  8
0
 10
189.766327
 20
256.467926
  0
VERTEX
  8
0
 10
189.766327
 20
150.067932
  0
SEQEND
  0
POLYLINE
  8
0
 62
     4
 66
     1
 70
     2
  0
VERTEX
  8
0
 10
189.766327
 20
179.067932
  0
VERTEX
  8
0
 10
190.266327
 20
178.567932
  0
VERTEX
  8
0
 10
190.266327
 20
150.567932
  0
VERTEX
  8
0
 10
209.266327
 20
150.567932
  0
VERTEX
  8
0
 10
209.266327
 20
178.567932
  0
VERTEX
  8
0
 10
190.266327
 20
178.567932
  0
SEQEND
  0
ARC
  8
0
 62
     4
 10
321.320679
 20
164.567932
 40
14.000000
 50
106.60158003489799
 51
73.39845007374521
  0
POLYLINE
  8
0
 62
     4
 66
     1
 70
     2
  0
VERTEX
  8
0
 10
325.320679
 20
177.984344
  0
VERTEX
  8
0
 10
325.320679
 20
181.867935
  0
VERTEX
  8
0
 10
317.320679
 20
181.867935
  0
VERTEX
  8
0
 10
317.320679
 20
177.984344
  0
SEQEND
  0
LINE
  8
0
 62
     4
 10
189.766327
 20
181.867935
 11
209.766327
 21
181.867935
  0
LINE
  8
DASHDOT
 62
     7
 10
321.320679
 20
187.721191
 11
321.320679
 21
144.714676
  0
LINE
  8
DASHDOT
 62
     7
 10
341.173950
 20
164.567932
 11
301.467407
 21
164.567932
  0
LINE
  8
0
 62
     5
 10
337.027222
 20
195.525543
 11
305.614136
 21
195.525543
  0
POLYLINE
  8
0
 62
     5
 66
     1
 70
     2
  0
VERTEX
  8
0
 10
310.491882
 20
193.574448
  0
VERTEX
  8
0
 10
317.320679
 20
195.525543
  0
VERTEX
  8
0
 10
310.491882
 20
197.476624
  0
SEQEND
  0
POLYLINE
  8
0
 62
     5
 66
     1
 70
     2
  0
VERTEX
  8
0
 10
332.149475
 20
197.476624
  0
VERTEX
  8
0
 10
325.320679
 20
195.525543
  0
VERTEX
  8
0
 10
332.149475
 20
193.574448
  0
SEQEND
  0
LINE
  8
0
 62
     5
 10
317.320679
 20
181.867935
 11
317.320679
 21
198.452179
  0
LINE
  8
0
 62
     5
 10
325.320679
 20
181.867935
 11
325.320679
 21
198.452179
  0
TEXT
  8
0
 62
     7
 10
301.183533
 20
197.476624
 40
9.755435
 41
1.000000
  1
8
  7
KANJI
 50
0.000000
 51
0.000000
  0
TEXT
  8
0
 62
     7
 10
310.840210
 20
197.476624
 40
7.804348
 41
1.000000
  1
%%p0.018
  7
KANJI
 50
0.000000
 51
0.000000
  0
LINE
  8
0
 62
     5
 10
393.608704
 20
138.861404
 11
393.608704
 21
193.574448
  0
POLYLINE
  8
0
 62
     5
 66
     1
 70
     2
  0
VERTEX
  8
0
 10
391.657654
 20
188.696732
  0
VERTEX
  8
0
 10
393.608704
 20
181.867935
  0
VERTEX
  8
0
 10
395.559814
 20
188.696732
  0
SEQEND
  0
POLYLINE
  8
0
 62
     5
 66
     1
 70
     2
  0
VERTEX
  8
0
 10
395.559814
 20
143.739136
  0
VERTEX
  8
0
 10
393.608704
 20
150.567932
  0
VERTEX
  8
0
 10
391.657654
 20
143.739136
  0
SEQEND
  0
LINE
  8
0
 62
     5
 10
325.320679
 20
181.867935
 11
396.535339
 21
181.867935
  0
LINE
  8
0
 62
     5
 10
321.320679
 20
150.567932
 11
396.535339
 21
150.567932
  0
TEXT
  8
0
 62
     7
 10
390.682068
 20
135.271698
 40
9.755435
 41
1.000000
  1
31.3
  7
KANJI
 50
90.000000
 51
0.000000
  0
TEXT
  8
0
 62
     7
 10
391.267395
 20
177.497070
 40
4.877717
 41
1.000000
  1
 
  7
KANJI
 50
90.000000
 51
0.000000
  0
TEXT
  8
0
 62
     7
 10
385.219055
 20
177.497070
 40
4.877717
 41
1.000000
  1
+
  7
KANJI
 50
90.000000
 51
0.000000
  0
TEXT
  8
0
 62
     7
 10
391.267395
 20
182.960114
 40
4.877717
 41
1.000000
  1
0
  7
KANJI
 50
90.000000
 51
0.000000
  0
TEXT
  8
0
 62
     7
 10
385.219055
 20
182.960114
 40
4.877717
 41
1.000000
  1
0.2
  7
KANJI
 50
90.000000
 51
0.000000
  0
LINE
  8
0
 62
     5
 10
248.788071
 20
178.567932
 11
248.788071
 21
150.567932
  0
POLYLINE
  8
0
 62
     5
 66
     1
 70
     2
  0
VERTEX
  8
0
 10
246.836975
 20
157.396744
  0
VERTEX
  8
0
 10
248.788071
 20
150.567932
  0
VERTEX
  8
0
 10
250.739151
 20
157.396744
  0
SEQEND
  0
LINE
  8
0
 62
     5
 10
209.766327
 20
150.567932
 11
251.714691
 21
150.567932
  0
TEXT
  8
0
 62
     7
 10
246.836975
 20
153.105301
 40
9.755435
 41
1.000000
  1
%%c28
  7
KANJI
 50
90.000000
 51
0.000000
  0
ENDSEC
  0
EOF
