  0
SECTION
  2
HEADER
  9
$ACADVER
  1
AC1003
  9
$INSBASE
 10
0.000000
 20
0.000000
  9
$EXTMIN
 10
0.000000
 20
0.000000
  9
$EXTMAX
 10
396.945652
 20
274.483696
  9
$LIMMIN
 10
0.000000
 20
0.000000
  9
$LIMMAX
 10
396.945652
 20
274.483696
  9
$VIEWCTR
 10
198.472826
 20
137.241848
  9
$VIEWSIZE
 40
274.483696
  0
ENDSEC
  0
SECTION
  2
TABLES
  0
TABLE
  2
LTYPE
 70
     4
  0
LTYPE
  2
CONTINUOUS
 70
    64
  3
SolidLine
 72
    65
 73
     0
 40
0.0
  0
LTYPE
  2
HIDDEN
 70
    64
  3
------------------------
 72
    65
 73
     2
 40
4.222826
 49
2.815217
 49
-1.407609
  0
LTYPE
  2
DASHDOT
 70
    64
  3
--?--?--?--?--?--?--?--
 72
    65
 73
     4
 40
16.891304
 49
12.668478
 49
-1.407609
 49
1.407609
 49
-1.407609
  0
LTYPE
  2
DIVIDE
 70
    64
  3
--??--??--??--??--??--
 72
    65
 73
     6
 40
21.114130
 49
14.076087
 49
-1.407609
 49
1.407609
 49
-1.407609
 49
1.407609
 49
-1.407609
  0
ENDTAB
  0
TABLE
  2
LAYER
 70
     5
  0
LAYER
  2
0
 70
    64
 62
     7
  6
CONTINUOUS
  0
LAYER
  2
HIDDEN
 70
    64
 62
     2
  6
HIDDEN
  0
LAYER
  2
DASHDOT
 70
    64
 62
     6
  6
DASHDOT
  0
LAYER
  2
DIVIDE
 70
    64
 62
     5
  6
DIVIDE
  0
ENDTAB
  0
TABLE
  2
STYLE
 70
     1
  0
STYLE
  2
STANDARD
 70
    64
 40
0.0
 41
1.0
 50
0.0
 71
     0
 42
0.2
  3
TXT
  4

  0
STYLE
  2
KANJI
 70
    64
 40
0.0
 41
1.0
 50
0.0
 71
     0
 42
0.2
  3
TXT
  4
BIGFONT
  0
ENDTAB
  0
TABLE
  2
VIEW
 70
     0
  0
ENDTAB
  0
ENDSEC
  0
SECTION
  2
BLOCKS
  0
ENDSEC
  0
SECTION
  2
ENTITIES
  0
TEXT
  8
0
 62
     7
 10
14.076087
 20
15.483696
 40
5.630435
 41
1.000000
  1
KHK PSA2-65
  7
KANJI
 50
0.000000
 51
0.000000
  0
TEXT
  8
0
 62
     7
 10
14.076087
 20
7.038043
 40
5.630435
 41
1.000000
  1

  7
KANJI
 50
0.000000
 51
0.000000
  0
TEXT
  8
0
 62
     7
 10
14.076087
 20
253.369568
 40
6.334239
 41
1.000000
  1

  7
KANJI
 50
0.000000
 51
0.000000
  0
POLYLINE
  8
0
 62
     7
 66
     1
 70
     2
  0
VERTEX
  8
0
 10
337.826080
 20
253.369568
  0
VERTEX
  8
0
 10
332.336395
 20
262.885010
  0
VERTEX
  8
0
 10
354.295105
 20
262.885010
  0
VERTEX
  8
0
 10
348.805420
 20
253.369568
  0
VERTEX
  8
0
 10
343.315765
 20
262.885010
  0
VERTEX
  8
0
 10
337.826080
 20
253.369568
  0
SEQEND
  0
LINE
  8
0
 62
     5
 10
207.538055
 20
185.100555
 11
207.538055
 21
51.100555
  0
POLYLINE
  8
0
 62
     5
 66
     1
 70
     2
  0
VERTEX
  8
0
 10
208.945648
 20
180.173920
  0
VERTEX
  8
0
 10
207.538055
 20
185.100555
  0
VERTEX
  8
0
 10
206.130432
 20
180.173920
  0
SEQEND
  0
POLYLINE
  8
0
 62
     5
 66
     1
 70
     2
  0
VERTEX
  8
0
 10
206.130432
 20
56.027187
  0
VERTEX
  8
0
 10
207.538055
 20
51.100555
  0
VERTEX
  8
0
 10
208.945648
 20
56.027187
  0
SEQEND
  0
LINE
  8
0
 62
     5
 10
156.864136
 20
185.100555
 11
209.649460
 21
185.100555
  0
LINE
  8
0
 62
     5
 10
156.864136
 20
51.100555
 11
209.649460
 21
51.100555
  0
TEXT
  8
0
 62
     7
 10
206.130432
 20
107.543488
 40
7.038043
 41
1.000000
  1
%%c134
  7
KANJI
 50
90.000000
 51
0.000000
  0
LINE
  8
0
 62
     5
 10
136.864136
 20
213.252731
 11
156.864136
 21
213.252731
  0
POLYLINE
  8
0
 62
     5
 66
     1
 70
     2
  0
VERTEX
  8
0
 10
141.790771
 20
214.660339
  0
VERTEX
  8
0
 10
136.864136
 20
213.252731
  0
VERTEX
  8
0
 10
141.790771
 20
211.845123
  0
SEQEND
  0
POLYLINE
  8
0
 62
     5
 66
     1
 70
     2
  0
VERTEX
  8
0
 10
151.937500
 20
211.845123
  0
VERTEX
  8
0
 10
156.864136
 20
213.252731
  0
VERTEX
  8
0
 10
151.937500
 20
214.660339
  0
SEQEND
  0
LINE
  8
0
 62
     5
 10
136.864136
 20
185.100555
 11
136.864136
 21
215.364136
  0
LINE
  8
0
 62
     5
 10
156.864136
 20
185.100555
 11
156.864136
 21
215.364136
  0
TEXT
  8
0
 62
     7
 10
142.289413
 20
214.378815
 40
7.038043
 41
1.000000
  1
20
  7
KANJI
 50
0.000000
 51
0.000000
  0
LINE
  8
DASHDOT
 62
     7
 10
132.641312
 20
183.100555
 11
161.086960
 21
183.100555
  0
LINE
  8
DASHDOT
 62
     7
 10
132.641312
 20
53.100555
 11
161.086960
 21
53.100555
  0
LINE
  8
DASHDOT
 62
     7
 10
132.641312
 20
118.100555
 11
161.086960
 21
118.100555
  0
LINE
  8
0
 62
     5
 10
156.764130
 20
51.100555
 11
156.864136
 21
51.100555
  0
LINE
  8
0
 62
     5
 10
156.764130
 20
185.100555
 11
156.864136
 21
185.100555
  0
LINE
  8
0
 62
     5
 10
156.864136
 20
185.000549
 11
156.864136
 21
185.100555
  0
LINE
  8
0
 62
     5
 10
136.864136
 20
185.000549
 11
136.864136
 21
185.100555
  0
LINE
  8
0
 62
     4
 10
136.864136
 20
180.600555
 11
156.864136
 21
180.600555
  0
LINE
  8
0
 62
     4
 10
136.864136
 20
55.600555
 11
156.864136
 21
55.600555
  0
LINE
  8
0
 62
     4
 10
156.864136
 20
126.100555
 11
156.364136
 21
125.600555
  0
LINE
  8
0
 62
     4
 10
156.864136
 20
110.100555
 11
156.364136
 21
110.600555
  0
LINE
  8
0
 62
     4
 10
136.864136
 20
110.100555
 11
137.364136
 21
110.600555
  0
POLYLINE
  8
0
 62
     4
 66
     1
 70
     2
  0
VERTEX
  8
0
 10
136.864136
 20
110.100555
  0
VERTEX
  8
0
 10
136.864136
 20
51.200554
  0
VERTEX
  8
0
 10
136.964142
 20
51.100555
  0
VERTEX
  8
0
 10
156.764130
 20
51.100555
  0
VERTEX
  8
0
 10
156.864136
 20
51.200554
  0
VERTEX
  8
0
 10
156.864136
 20
185.000549
  0
VERTEX
  8
0
 10
156.764130
 20
185.100555
  0
VERTEX
  8
0
 10
136.964142
 20
185.100555
  0
VERTEX
  8
0
 10
136.864136
 20
185.000549
  0
VERTEX
  8
0
 10
136.864136
 20
110.100555
  0
SEQEND
  0
POLYLINE
  8
0
 62
     4
 66
     1
 70
     2
  0
VERTEX
  8
0
 10
136.864136
 20
126.100555
  0
VERTEX
  8
0
 10
137.364136
 20
125.600555
  0
VERTEX
  8
0
 10
137.364136
 20
110.600555
  0
VERTEX
  8
0
 10
156.364136
 20
110.600555
  0
VERTEX
  8
0
 10
156.364136
 20
125.600555
  0
VERTEX
  8
0
 10
137.364136
 20
125.600555
  0
SEQEND
  0
LINE
  8
0
 62
     5
 10
185.016312
 20
102.154907
 11
185.016312
 21
134.046204
  0
POLYLINE
  8
0
 62
     5
 66
     1
 70
     2
  0
VERTEX
  8
0
 10
183.608704
 20
130.527191
  0
VERTEX
  8
0
 10
185.016312
 20
125.600555
  0
VERTEX
  8
0
 10
186.423920
 20
130.527191
  0
SEQEND
  0
POLYLINE
  8
0
 62
     5
 66
     1
 70
     2
  0
VERTEX
  8
0
 10
186.423920
 20
105.673927
  0
VERTEX
  8
0
 10
185.016312
 20
110.600555
  0
VERTEX
  8
0
 10
183.608704
 20
105.673927
  0
SEQEND
  0
LINE
  8
0
 62
     5
 10
156.864136
 20
125.600555
 11
187.127716
 21
125.600555
  0
LINE
  8
0
 62
     5
 10
156.864136
 20
110.600555
 11
187.127716
 21
110.600555
  0
TEXT
  8
0
 62
     7
 10
183.608704
 20
109.830856
 40
7.038043
 41
1.000000
  1
%%c15
  7
KANJI
 50
90.000000
 51
0.000000
  0
ENDSEC
  0
EOF
