  0
SECTION
  2
HEADER
  9
$ACADVER
  1
AC1003
  9
$INSBASE
 10
0.000000
 20
0.000000
  9
$EXTMIN
 10
0.000000
 20
0.000000
  9
$EXTMAX
 10
519.554348
 20
359.266304
  9
$LIMMIN
 10
0.000000
 20
0.000000
  9
$LIMMAX
 10
519.554348
 20
359.266304
  9
$VIEWCTR
 10
259.777174
 20
179.633152
  9
$VIEWSIZE
 40
359.266304
  0
ENDSEC
  0
SECTION
  2
TABLES
  0
TABLE
  2
LTYPE
 70
     4
  0
LTYPE
  2
CONTINUOUS
 70
    64
  3
SolidLine
 72
    65
 73
     0
 40
0.0
  0
LTYPE
  2
HIDDEN
 70
    64
  3
------------------------
 72
    65
 73
     2
 40
5.527174
 49
3.684783
 49
-1.842391
  0
LTYPE
  2
DASHDOT
 70
    64
  3
--?--?--?--?--?--?--?--
 72
    65
 73
     4
 40
22.108696
 49
16.581522
 49
-1.842391
 49
1.842391
 49
-1.842391
  0
LTYPE
  2
DIVIDE
 70
    64
  3
--??--??--??--??--??--
 72
    65
 73
     6
 40
27.635870
 49
18.423913
 49
-1.842391
 49
1.842391
 49
-1.842391
 49
1.842391
 49
-1.842391
  0
ENDTAB
  0
TABLE
  2
LAYER
 70
     5
  0
LAYER
  2
0
 70
    64
 62
     7
  6
CONTINUOUS
  0
LAYER
  2
HIDDEN
 70
    64
 62
     2
  6
HIDDEN
  0
LAYER
  2
DASHDOT
 70
    64
 62
     6
  6
DASHDOT
  0
LAYER
  2
DIVIDE
 70
    64
 62
     5
  6
DIVIDE
  0
ENDTAB
  0
TABLE
  2
STYLE
 70
     1
  0
STYLE
  2
STANDARD
 70
    64
 40
0.0
 41
1.0
 50
0.0
 71
     0
 42
0.2
  3
TXT
  4

  0
STYLE
  2
KANJI
 70
    64
 40
0.0
 41
1.0
 50
0.0
 71
     0
 42
0.2
  3
TXT
  4
BIGFONT
  0
ENDTAB
  0
TABLE
  2
VIEW
 70
     0
  0
ENDTAB
  0
ENDSEC
  0
SECTION
  2
BLOCKS
  0
ENDSEC
  0
SECTION
  2
ENTITIES
  0
TEXT
  8
0
 62
     7
 10
18.423914
 20
20.266304
 40
7.369565
 41
1.000000
  1
KHK PSA2-85J45
  7
KANJI
 50
0.000000
 51
0.000000
  0
TEXT
  8
0
 62
     7
 10
18.423914
 20
9.211957
 40
7.369565
 41
1.000000
  1
The precision grade of gears after secondary operations is equivalent but not identical to its original grade.
  7
KANJI
 50
0.000000
 51
0.000000
  0
TEXT
  8
0
 62
     7
 10
18.423914
 20
331.630432
 40
8.290761
 41
1.000000
  1

  7
KANJI
 50
0.000000
 51
0.000000
  0
POLYLINE
  8
0
 62
     7
 66
     1
 70
     2
  0
VERTEX
  8
0
 10
442.173920
 20
331.630432
  0
VERTEX
  8
0
 10
434.988586
 20
344.084991
  0
VERTEX
  8
0
 10
463.729889
 20
344.084991
  0
VERTEX
  8
0
 10
456.544586
 20
331.630432
  0
VERTEX
  8
0
 10
449.359253
 20
344.084991
  0
VERTEX
  8
0
 10
442.173920
 20
331.630432
  0
SEQEND
  0
LINE
  8
0
 62
     5
 10
258.711945
 20
242.274445
 11
258.711945
 21
68.274445
  0
POLYLINE
  8
0
 62
     5
 66
     1
 70
     2
  0
VERTEX
  8
0
 10
260.554352
 20
235.826080
  0
VERTEX
  8
0
 10
258.711945
 20
242.274445
  0
VERTEX
  8
0
 10
256.869568
 20
235.826080
  0
SEQEND
  0
POLYLINE
  8
0
 62
     5
 66
     1
 70
     2
  0
VERTEX
  8
0
 10
256.869568
 20
74.722816
  0
VERTEX
  8
0
 10
258.711945
 20
68.274445
  0
VERTEX
  8
0
 10
260.554352
 20
74.722816
  0
SEQEND
  0
LINE
  8
0
 62
     5
 10
192.385864
 20
242.274445
 11
261.475525
 21
242.274445
  0
LINE
  8
0
 62
     5
 10
192.385864
 20
68.274445
 11
261.475525
 21
68.274445
  0
TEXT
  8
0
 62
     7
 10
256.869568
 20
141.456512
 40
9.211957
 41
1.000000
  1
%%c174
  7
KANJI
 50
90.000000
 51
0.000000
  0
LINE
  8
0
 62
     5
 10
172.385864
 20
279.122253
 11
192.385864
 21
279.122253
  0
POLYLINE
  8
0
 62
     5
 66
     1
 70
     2
  0
VERTEX
  8
0
 10
178.834229
 20
280.964661
  0
VERTEX
  8
0
 10
172.385864
 20
279.122253
  0
VERTEX
  8
0
 10
178.834229
 20
277.279877
  0
SEQEND
  0
POLYLINE
  8
0
 62
     5
 66
     1
 70
     2
  0
VERTEX
  8
0
 10
185.937500
 20
277.279877
  0
VERTEX
  8
0
 10
192.385864
 20
279.122253
  0
VERTEX
  8
0
 10
185.937500
 20
280.964661
  0
SEQEND
  0
LINE
  8
0
 62
     5
 10
172.385864
 20
242.274445
 11
172.385864
 21
281.885864
  0
LINE
  8
0
 62
     5
 10
192.385864
 20
242.274445
 11
192.385864
 21
281.885864
  0
TEXT
  8
0
 62
     7
 10
176.398087
 20
280.596191
 40
9.211957
 41
1.000000
  1
20
  7
KANJI
 50
0.000000
 51
0.000000
  0
LINE
  8
DASHDOT
 62
     7
 10
166.858688
 20
240.274445
 11
197.913040
 21
240.274445
  0
LINE
  8
DASHDOT
 62
     7
 10
166.858688
 20
70.274445
 11
197.913040
 21
70.274445
  0
LINE
  8
DASHDOT
 62
     7
 10
166.858688
 20
155.274445
 11
197.913040
 21
155.274445
  0
LINE
  8
0
 62
     5
 10
192.285858
 20
68.274445
 11
192.385864
 21
68.274445
  0
LINE
  8
0
 62
     5
 10
192.285858
 20
242.274445
 11
192.385864
 21
242.274445
  0
LINE
  8
0
 62
     5
 10
192.385864
 20
242.174438
 11
192.385864
 21
242.274445
  0
LINE
  8
0
 62
     5
 10
172.385864
 20
242.174438
 11
172.385864
 21
242.274445
  0
LINE
  8
0
 62
     4
 10
172.385864
 20
237.774445
 11
192.385864
 21
237.774445
  0
LINE
  8
0
 62
     4
 10
172.385864
 20
72.774445
 11
192.385864
 21
72.774445
  0
LINE
  8
0
 62
     4
 10
192.385864
 20
178.274445
 11
191.885864
 21
177.774445
  0
LINE
  8
0
 62
     4
 10
192.385864
 20
132.274445
 11
191.885864
 21
132.774445
  0
LINE
  8
0
 62
     4
 10
172.385864
 20
132.274445
 11
172.885864
 21
132.774445
  0
POLYLINE
  8
0
 62
     4
 66
     1
 70
     2
  0
VERTEX
  8
0
 10
172.385864
 20
132.274445
  0
VERTEX
  8
0
 10
172.385864
 20
68.374443
  0
VERTEX
  8
0
 10
172.485870
 20
68.274445
  0
VERTEX
  8
0
 10
192.285858
 20
68.274445
  0
VERTEX
  8
0
 10
192.385864
 20
68.374443
  0
VERTEX
  8
0
 10
192.385864
 20
242.174438
  0
VERTEX
  8
0
 10
192.285858
 20
242.274445
  0
VERTEX
  8
0
 10
172.485870
 20
242.274445
  0
VERTEX
  8
0
 10
172.385864
 20
242.174438
  0
VERTEX
  8
0
 10
172.385864
 20
132.274445
  0
SEQEND
  0
POLYLINE
  8
0
 62
     4
 66
     1
 70
     2
  0
VERTEX
  8
0
 10
172.385864
 20
178.274445
  0
VERTEX
  8
0
 10
172.885864
 20
177.774445
  0
VERTEX
  8
0
 10
172.885864
 20
132.774445
  0
VERTEX
  8
0
 10
191.885864
 20
132.774445
  0
VERTEX
  8
0
 10
191.885864
 20
177.774445
  0
VERTEX
  8
0
 10
172.885864
 20
177.774445
  0
SEQEND
  0
ARC
  8
0
 62
     4
 10
307.005432
 20
155.274445
 40
22.500000
 50
108.1262038101694
 51
71.87379618983061
  0
POLYLINE
  8
0
 62
     4
 66
     1
 70
     2
  0
VERTEX
  8
0
 10
314.005432
 20
176.657852
  0
VERTEX
  8
0
 10
314.005432
 20
181.574448
  0
VERTEX
  8
0
 10
300.005432
 20
181.574448
  0
VERTEX
  8
0
 10
300.005432
 20
176.657852
  0
SEQEND
  0
LINE
  8
0
 62
     4
 10
172.385864
 20
181.574448
 11
192.385864
 21
181.574448
  0
LINE
  8
DASHDOT
 62
     7
 10
307.005432
 20
187.101624
 11
307.005432
 21
127.247269
  0
LINE
  8
DASHDOT
 62
     7
 10
335.032593
 20
155.274445
 11
278.978271
 21
155.274445
  0
LINE
  8
0
 62
     5
 10
325.059784
 20
194.471191
 11
288.951080
 21
194.471191
  0
POLYLINE
  8
0
 62
     5
 66
     1
 70
     2
  0
VERTEX
  8
0
 10
293.557068
 20
192.628784
  0
VERTEX
  8
0
 10
300.005432
 20
194.471191
  0
VERTEX
  8
0
 10
293.557068
 20
196.313568
  0
SEQEND
  0
POLYLINE
  8
0
 62
     5
 66
     1
 70
     2
  0
VERTEX
  8
0
 10
320.453796
 20
196.313568
  0
VERTEX
  8
0
 10
314.005432
 20
194.471191
  0
VERTEX
  8
0
 10
320.453796
 20
192.628784
  0
SEQEND
  0
LINE
  8
0
 62
     5
 10
300.005432
 20
181.574448
 11
300.005432
 21
197.234772
  0
LINE
  8
0
 62
     5
 10
314.005432
 20
181.574448
 11
314.005432
 21
197.234772
  0
TEXT
  8
0
 62
     7
 10
281.081177
 20
196.313568
 40
9.211957
 41
1.000000
  1
14
  7
KANJI
 50
0.000000
 51
0.000000
  0
TEXT
  8
0
 62
     7
 10
296.648254
 20
196.313568
 40
7.369565
 41
1.000000
  1
%%p0.0215
  7
KANJI
 50
0.000000
 51
0.000000
  0
LINE
  8
0
 62
     5
 10
378.489136
 20
181.574448
 11
378.489136
 21
132.774445
  0
POLYLINE
  8
0
 62
     5
 66
     1
 70
     2
  0
VERTEX
  8
0
 10
380.331543
 20
175.126068
  0
VERTEX
  8
0
 10
378.489136
 20
181.574448
  0
VERTEX
  8
0
 10
376.646729
 20
175.126068
  0
SEQEND
  0
POLYLINE
  8
0
 62
     5
 66
     1
 70
     2
  0
VERTEX
  8
0
 10
376.646729
 20
139.222809
  0
VERTEX
  8
0
 10
378.489136
 20
132.774445
  0
VERTEX
  8
0
 10
380.331543
 20
139.222809
  0
SEQEND
  0
LINE
  8
0
 62
     5
 10
314.005432
 20
181.574448
 11
381.252716
 21
181.574448
  0
LINE
  8
0
 62
     5
 10
307.005432
 20
132.774445
 11
381.252716
 21
132.774445
  0
TEXT
  8
0
 62
     7
 10
375.725555
 20
126.027855
 40
9.211957
 41
1.000000
  1
48.8
  7
KANJI
 50
90.000000
 51
0.000000
  0
TEXT
  8
0
 62
     7
 10
376.278259
 20
165.900848
 40
4.605978
 41
1.000000
  1
 
  7
KANJI
 50
90.000000
 51
0.000000
  0
TEXT
  8
0
 62
     7
 10
370.566833
 20
165.900848
 40
4.605978
 41
1.000000
  1
+
  7
KANJI
 50
90.000000
 51
0.000000
  0
TEXT
  8
0
 62
     7
 10
376.278259
 20
171.059540
 40
4.605978
 41
1.000000
  1
0
  7
KANJI
 50
90.000000
 51
0.000000
  0
TEXT
  8
0
 62
     7
 10
370.566833
 20
171.059540
 40
4.605978
 41
1.000000
  1
0.2
  7
KANJI
 50
90.000000
 51
0.000000
  0
LINE
  8
0
 62
     5
 10
229.233688
 20
177.774445
 11
229.233688
 21
132.774445
  0
POLYLINE
  8
0
 62
     5
 66
     1
 70
     2
  0
VERTEX
  8
0
 10
227.391296
 20
139.222809
  0
VERTEX
  8
0
 10
229.233688
 20
132.774445
  0
VERTEX
  8
0
 10
231.076080
 20
139.222809
  0
SEQEND
  0
LINE
  8
0
 62
     5
 10
192.385864
 20
132.774445
 11
231.997284
 21
132.774445
  0
TEXT
  8
0
 62
     7
 10
227.391296
 20
144.450394
 40
9.211957
 41
1.000000
  1
%%c45
  7
KANJI
 50
90.000000
 51
0.000000
  0
ENDSEC
  0
EOF
