  0
SECTION
  2
HEADER
  9
$ACADVER
  1
AC1003
  9
$INSBASE
 10
0.000000
 20
0.000000
  9
$EXTMIN
 10
0.000000
 20
0.000000
  9
$EXTMAX
 10
611.510870
 20
422.853261
  9
$LIMMIN
 10
0.000000
 20
0.000000
  9
$LIMMAX
 10
611.510870
 20
422.853261
  9
$VIEWCTR
 10
305.755435
 20
211.426630
  9
$VIEWSIZE
 40
422.853261
  0
ENDSEC
  0
SECTION
  2
TABLES
  0
TABLE
  2
LTYPE
 70
     4
  0
LTYPE
  2
CONTINUOUS
 70
    64
  3
SolidLine
 72
    65
 73
     0
 40
0.0
  0
LTYPE
  2
HIDDEN
 70
    64
  3
------------------------
 72
    65
 73
     2
 40
6.505435
 49
4.336957
 49
-2.168478
  0
LTYPE
  2
DASHDOT
 70
    64
  3
--?--?--?--?--?--?--?--
 72
    65
 73
     4
 40
26.021739
 49
19.516304
 49
-2.168478
 49
2.168478
 49
-2.168478
  0
LTYPE
  2
DIVIDE
 70
    64
  3
--??--??--??--??--??--
 72
    65
 73
     6
 40
32.527174
 49
21.684783
 49
-2.168478
 49
2.168478
 49
-2.168478
 49
2.168478
 49
-2.168478
  0
ENDTAB
  0
TABLE
  2
LAYER
 70
     5
  0
LAYER
  2
0
 70
    64
 62
     7
  6
CONTINUOUS
  0
LAYER
  2
HIDDEN
 70
    64
 62
     2
  6
HIDDEN
  0
LAYER
  2
DASHDOT
 70
    64
 62
     6
  6
DASHDOT
  0
LAYER
  2
DIVIDE
 70
    64
 62
     5
  6
DIVIDE
  0
ENDTAB
  0
TABLE
  2
STYLE
 70
     1
  0
STYLE
  2
STANDARD
 70
    64
 40
0.0
 41
1.0
 50
0.0
 71
     0
 42
0.2
  3
TXT
  4

  0
STYLE
  2
KANJI
 70
    64
 40
0.0
 41
1.0
 50
0.0
 71
     0
 42
0.2
  3
TXT
  4
BIGFONT
  0
ENDTAB
  0
TABLE
  2
VIEW
 70
     0
  0
ENDTAB
  0
ENDSEC
  0
SECTION
  2
BLOCKS
  0
ENDSEC
  0
SECTION
  2
ENTITIES
  0
TEXT
  8
0
 62
     7
 10
21.684782
 20
23.853260
 40
8.673913
 41
1.000000
  1
KHK PSA2-100J17
  7
KANJI
 50
0.000000
 51
0.000000
  0
TEXT
  8
0
 62
     7
 10
21.684782
 20
10.842391
 40
8.673913
 41
1.000000
  1
The precision grade of gears after secondary operations is equivalent but not identical to its original grade.
  7
KANJI
 50
0.000000
 51
0.000000
  0
TEXT
  8
0
 62
     7
 10
21.684782
 20
390.326080
 40
9.758152
 41
1.000000
  1

  7
KANJI
 50
0.000000
 51
0.000000
  0
POLYLINE
  8
0
 62
     7
 66
     1
 70
     2
  0
VERTEX
  8
0
 10
520.434753
 20
390.326080
  0
VERTEX
  8
0
 10
511.977692
 20
404.984985
  0
VERTEX
  8
0
 10
545.805969
 20
404.984985
  0
VERTEX
  8
0
 10
537.348877
 20
390.326080
  0
VERTEX
  8
0
 10
528.891846
 20
404.984985
  0
VERTEX
  8
0
 10
520.434753
 20
390.326080
  0
SEQEND
  0
LINE
  8
0
 62
     5
 10
314.592407
 20
285.154907
 11
314.592407
 21
81.154907
  0
POLYLINE
  8
0
 62
     5
 66
     1
 70
     2
  0
VERTEX
  8
0
 10
316.760864
 20
277.565247
  0
VERTEX
  8
0
 10
314.592407
 20
285.154907
  0
VERTEX
  8
0
 10
312.423920
 20
277.565247
  0
SEQEND
  0
POLYLINE
  8
0
 62
     5
 66
     1
 70
     2
  0
VERTEX
  8
0
 10
312.423920
 20
88.744583
  0
VERTEX
  8
0
 10
314.592407
 20
81.154907
  0
VERTEX
  8
0
 10
316.760864
 20
88.744583
  0
SEQEND
  0
LINE
  8
0
 62
     5
 10
236.527176
 20
285.154907
 11
317.845093
 21
285.154907
  0
LINE
  8
0
 62
     5
 10
236.527176
 20
81.154907
 11
317.845093
 21
81.154907
  0
TEXT
  8
0
 62
     7
 10
312.423920
 20
166.891327
 40
10.842391
 41
1.000000
  1
%%c204
  7
KANJI
 50
90.000000
 51
0.000000
  0
LINE
  8
0
 62
     5
 10
249.538040
 20
328.524475
 11
203.516312
 21
328.524475
  0
POLYLINE
  8
0
 62
     5
 66
     1
 70
     2
  0
VERTEX
  8
0
 10
208.937500
 20
326.356018
  0
VERTEX
  8
0
 10
216.527176
 20
328.524475
  0
VERTEX
  8
0
 10
208.937500
 20
330.692932
  0
SEQEND
  0
POLYLINE
  8
0
 62
     5
 66
     1
 70
     2
  0
VERTEX
  8
0
 10
244.116852
 20
330.692932
  0
VERTEX
  8
0
 10
236.527176
 20
328.524475
  0
VERTEX
  8
0
 10
244.116852
 20
326.356018
  0
SEQEND
  0
LINE
  8
0
 62
     5
 10
216.527176
 20
285.154907
 11
216.527176
 21
331.777191
  0
LINE
  8
0
 62
     5
 10
236.527176
 20
285.154907
 11
236.527176
 21
331.777191
  0
TEXT
  8
0
 62
     7
 10
219.479614
 20
330.259277
 40
10.842391
 41
1.000000
  1
20
  7
KANJI
 50
0.000000
 51
0.000000
  0
LINE
  8
DASHDOT
 62
     7
 10
210.021744
 20
283.154907
 11
243.032608
 21
283.154907
  0
LINE
  8
DASHDOT
 62
     7
 10
210.021744
 20
83.154907
 11
243.032608
 21
83.154907
  0
LINE
  8
DASHDOT
 62
     7
 10
210.021744
 20
183.154907
 11
243.032608
 21
183.154907
  0
LINE
  8
0
 62
     5
 10
236.427170
 20
81.154907
 11
236.527176
 21
81.154907
  0
LINE
  8
0
 62
     5
 10
236.427170
 20
285.154907
 11
236.527176
 21
285.154907
  0
LINE
  8
0
 62
     5
 10
236.527176
 20
285.054901
 11
236.527176
 21
285.154907
  0
LINE
  8
0
 62
     5
 10
216.527176
 20
285.054901
 11
216.527176
 21
285.154907
  0
LINE
  8
0
 62
     4
 10
216.527176
 20
280.654907
 11
236.527176
 21
280.654907
  0
LINE
  8
0
 62
     4
 10
216.527176
 20
85.654907
 11
236.527176
 21
85.654907
  0
LINE
  8
0
 62
     4
 10
236.527176
 20
192.154907
 11
236.027176
 21
191.654907
  0
LINE
  8
0
 62
     4
 10
236.527176
 20
174.154907
 11
236.027176
 21
174.654907
  0
LINE
  8
0
 62
     4
 10
216.527176
 20
174.154907
 11
217.027176
 21
174.654907
  0
POLYLINE
  8
0
 62
     4
 66
     1
 70
     2
  0
VERTEX
  8
0
 10
216.527176
 20
174.154907
  0
VERTEX
  8
0
 10
216.527176
 20
81.254906
  0
VERTEX
  8
0
 10
216.627182
 20
81.154907
  0
VERTEX
  8
0
 10
236.427170
 20
81.154907
  0
VERTEX
  8
0
 10
236.527176
 20
81.254906
  0
VERTEX
  8
0
 10
236.527176
 20
285.054901
  0
VERTEX
  8
0
 10
236.427170
 20
285.154907
  0
VERTEX
  8
0
 10
216.627182
 20
285.154907
  0
VERTEX
  8
0
 10
216.527176
 20
285.054901
  0
VERTEX
  8
0
 10
216.527176
 20
174.154907
  0
SEQEND
  0
POLYLINE
  8
0
 62
     4
 66
     1
 70
     2
  0
VERTEX
  8
0
 10
216.527176
 20
192.154907
  0
VERTEX
  8
0
 10
217.027176
 20
191.654907
  0
VERTEX
  8
0
 10
217.027176
 20
174.654907
  0
VERTEX
  8
0
 10
236.027176
 20
174.654907
  0
VERTEX
  8
0
 10
236.027176
 20
191.654907
  0
VERTEX
  8
0
 10
217.027176
 20
191.654907
  0
SEQEND
  0
ARC
  8
0
 62
     4
 10
353.451111
 20
183.154907
 40
8.500000
 50
107.10463483476482
 51
72.89536516523518
  0
POLYLINE
  8
0
 62
     4
 66
     1
 70
     2
  0
VERTEX
  8
0
 10
355.951111
 20
191.278946
  0
VERTEX
  8
0
 10
355.951111
 20
193.954910
  0
VERTEX
  8
0
 10
350.951111
 20
193.954910
  0
VERTEX
  8
0
 10
350.951111
 20
191.278946
  0
SEQEND
  0
LINE
  8
0
 62
     4
 10
216.527176
 20
193.954910
 11
236.527176
 21
193.954910
  0
LINE
  8
DASHDOT
 62
     7
 10
353.451111
 20
200.460342
 11
353.451111
 21
168.149475
  0
LINE
  8
DASHDOT
 62
     7
 10
368.456543
 20
183.154907
 11
338.445648
 21
183.154907
  0
LINE
  8
0
 62
     5
 10
368.961975
 20
209.134247
 11
337.940216
 21
209.134247
  0
POLYLINE
  8
0
 62
     5
 66
     1
 70
     2
  0
VERTEX
  8
0
 10
343.361420
 20
206.965775
  0
VERTEX
  8
0
 10
350.951111
 20
209.134247
  0
VERTEX
  8
0
 10
343.361420
 20
211.302734
  0
SEQEND
  0
POLYLINE
  8
0
 62
     5
 66
     1
 70
     2
  0
VERTEX
  8
0
 10
363.540771
 20
211.302734
  0
VERTEX
  8
0
 10
355.951111
 20
209.134247
  0
VERTEX
  8
0
 10
363.540771
 20
206.965775
  0
SEQEND
  0
LINE
  8
0
 62
     5
 10
350.951111
 20
193.954910
 11
350.951111
 21
212.386978
  0
LINE
  8
0
 62
     5
 10
355.951111
 20
193.954910
 11
355.951111
 21
212.386978
  0
TEXT
  8
0
 62
     7
 10
331.070251
 20
211.302734
 40
10.842391
 41
1.000000
  1
5
  7
KANJI
 50
0.000000
 51
0.000000
  0
TEXT
  8
0
 62
     7
 10
341.802887
 20
211.302734
 40
8.673913
 41
1.000000
  1
%%p0.015
  7
KANJI
 50
0.000000
 51
0.000000
  0
LINE
  8
0
 62
     5
 10
431.847839
 20
161.644043
 11
431.847839
 21
206.965775
  0
POLYLINE
  8
0
 62
     5
 66
     1
 70
     2
  0
VERTEX
  8
0
 10
429.679352
 20
201.544586
  0
VERTEX
  8
0
 10
431.847839
 20
193.954910
  0
VERTEX
  8
0
 10
434.016296
 20
201.544586
  0
SEQEND
  0
POLYLINE
  8
0
 62
     5
 66
     1
 70
     2
  0
VERTEX
  8
0
 10
434.016296
 20
167.065231
  0
VERTEX
  8
0
 10
431.847839
 20
174.654907
  0
VERTEX
  8
0
 10
429.679352
 20
167.065231
  0
SEQEND
  0
LINE
  8
0
 62
     5
 10
355.951111
 20
193.954910
 11
435.100525
 21
193.954910
  0
LINE
  8
0
 62
     5
 10
353.451111
 20
174.654907
 11
435.100525
 21
174.654907
  0
TEXT
  8
0
 62
     7
 10
428.595093
 20
151.459366
 40
10.842391
 41
1.000000
  1
19.3
  7
KANJI
 50
90.000000
 51
0.000000
  0
TEXT
  8
0
 62
     7
 10
429.245667
 20
198.389526
 40
5.421196
 41
1.000000
  1
 
  7
KANJI
 50
90.000000
 51
0.000000
  0
TEXT
  8
0
 62
     7
 10
422.523376
 20
198.389526
 40
5.421196
 41
1.000000
  1
+
  7
KANJI
 50
90.000000
 51
0.000000
  0
TEXT
  8
0
 62
     7
 10
429.245667
 20
204.461273
 40
5.421196
 41
1.000000
  1
0
  7
KANJI
 50
90.000000
 51
0.000000
  0
TEXT
  8
0
 62
     7
 10
422.523376
 20
204.461273
 40
5.421196
 41
1.000000
  1
0.1
  7
KANJI
 50
90.000000
 51
0.000000
  0
LINE
  8
0
 62
     5
 10
279.896729
 20
191.654907
 11
279.896729
 21
174.654907
  0
POLYLINE
  8
0
 62
     5
 66
     1
 70
     2
  0
VERTEX
  8
0
 10
277.728271
 20
182.244583
  0
VERTEX
  8
0
 10
279.896729
 20
174.654907
  0
VERTEX
  8
0
 10
282.065216
 20
182.244583
  0
SEQEND
  0
LINE
  8
0
 62
     5
 10
236.527176
 20
174.654907
 11
283.149475
 21
174.654907
  0
TEXT
  8
0
 62
     7
 10
277.728271
 20
170.415100
 40
10.842391
 41
1.000000
  1
%%c17
  7
KANJI
 50
90.000000
 51
0.000000
  0
ENDSEC
  0
EOF
