  0
SECTION
  2
HEADER
  9
$ACADVER
  1
AC1003
  9
$INSBASE
 10
0.000000
 20
0.000000
  9
$EXTMIN
 10
0.000000
 20
0.000000
  9
$EXTMAX
 10
457.866848
 20
316.610054
  9
$LIMMIN
 10
0.000000
 20
0.000000
  9
$LIMMAX
 10
457.866848
 20
316.610054
  9
$VIEWCTR
 10
228.933424
 20
158.305027
  9
$VIEWSIZE
 40
316.610054
  0
ENDSEC
  0
SECTION
  2
TABLES
  0
TABLE
  2
LTYPE
 70
     4
  0
LTYPE
  2
CONTINUOUS
 70
    64
  3
SolidLine
 72
    65
 73
     0
 40
0.0
  0
LTYPE
  2
HIDDEN
 70
    64
  3
------------------------
 72
    65
 73
     2
 40
4.870924
 49
3.247283
 49
-1.623641
  0
LTYPE
  2
DASHDOT
 70
    64
  3
--?--?--?--?--?--?--?--
 72
    65
 73
     4
 40
19.483696
 49
14.612772
 49
-1.623641
 49
1.623641
 49
-1.623641
  0
LTYPE
  2
DIVIDE
 70
    64
  3
--??--??--??--??--??--
 72
    65
 73
     6
 40
24.354620
 49
16.236413
 49
-1.623641
 49
1.623641
 49
-1.623641
 49
1.623641
 49
-1.623641
  0
ENDTAB
  0
TABLE
  2
LAYER
 70
     5
  0
LAYER
  2
0
 70
    64
 62
     7
  6
CONTINUOUS
  0
LAYER
  2
HIDDEN
 70
    64
 62
     2
  6
HIDDEN
  0
LAYER
  2
DASHDOT
 70
    64
 62
     6
  6
DASHDOT
  0
LAYER
  2
DIVIDE
 70
    64
 62
     5
  6
DIVIDE
  0
ENDTAB
  0
TABLE
  2
STYLE
 70
     1
  0
STYLE
  2
STANDARD
 70
    64
 40
0.0
 41
1.0
 50
0.0
 71
     0
 42
0.2
  3
TXT
  4

  0
STYLE
  2
KANJI
 70
    64
 40
0.0
 41
1.0
 50
0.0
 71
     0
 42
0.2
  3
TXT
  4
BIGFONT
  0
ENDTAB
  0
TABLE
  2
VIEW
 70
     0
  0
ENDTAB
  0
ENDSEC
  0
SECTION
  2
BLOCKS
  0
ENDSEC
  0
SECTION
  2
ENTITIES
  0
TEXT
  8
0
 62
     7
 10
16.236414
 20
17.860054
 40
6.494565
 41
1.000000
  1
KHK PSA2.5-60
  7
KANJI
 50
0.000000
 51
0.000000
  0
TEXT
  8
0
 62
     7
 10
16.236414
 20
8.118207
 40
6.494565
 41
1.000000
  1

  7
KANJI
 50
0.000000
 51
0.000000
  0
TEXT
  8
0
 62
     7
 10
16.236414
 20
292.255432
 40
7.306386
 41
1.000000
  1

  7
KANJI
 50
0.000000
 51
0.000000
  0
POLYLINE
  8
0
 62
     7
 66
     1
 70
     2
  0
VERTEX
  8
0
 10
389.673920
 20
292.255432
  0
VERTEX
  8
0
 10
383.341705
 20
303.231262
  0
VERTEX
  8
0
 10
408.670532
 20
303.231262
  0
VERTEX
  8
0
 10
402.338318
 20
292.255432
  0
VERTEX
  8
0
 10
396.006134
 20
303.231262
  0
VERTEX
  8
0
 10
389.673920
 20
292.255432
  0
SEQEND
  0
LINE
  8
0
 62
     5
 10
240.930695
 20
213.508820
 11
240.930695
 21
58.508820
  0
POLYLINE
  8
0
 62
     5
 66
     1
 70
     2
  0
VERTEX
  8
0
 10
242.554352
 20
207.826080
  0
VERTEX
  8
0
 10
240.930695
 20
213.508820
  0
VERTEX
  8
0
 10
239.307068
 20
207.826080
  0
SEQEND
  0
POLYLINE
  8
0
 62
     5
 66
     1
 70
     2
  0
VERTEX
  8
0
 10
239.307068
 20
64.191566
  0
VERTEX
  8
0
 10
240.930695
 20
58.508820
  0
VERTEX
  8
0
 10
242.554352
 20
64.191566
  0
SEQEND
  0
LINE
  8
0
 62
     5
 10
182.479614
 20
213.508820
 11
243.366165
 21
213.508820
  0
LINE
  8
0
 62
     5
 10
182.479614
 20
58.508820
 11
243.366165
 21
58.508820
  0
TEXT
  8
0
 62
     7
 10
239.307068
 20
123.831512
 40
8.118207
 41
1.000000
  1
%%c155
  7
KANJI
 50
90.000000
 51
0.000000
  0
LINE
  8
0
 62
     5
 10
157.479614
 20
245.981644
 11
182.479614
 21
245.981644
  0
POLYLINE
  8
0
 62
     5
 66
     1
 70
     2
  0
VERTEX
  8
0
 10
163.162354
 20
247.605286
  0
VERTEX
  8
0
 10
157.479614
 20
245.981644
  0
VERTEX
  8
0
 10
163.162354
 20
244.358002
  0
SEQEND
  0
POLYLINE
  8
0
 62
     5
 66
     1
 70
     2
  0
VERTEX
  8
0
 10
176.796875
 20
244.358002
  0
VERTEX
  8
0
 10
182.479614
 20
245.981644
  0
VERTEX
  8
0
 10
176.796875
 20
247.605286
  0
SEQEND
  0
LINE
  8
0
 62
     5
 10
157.479614
 20
213.508820
 11
157.479614
 21
248.417114
  0
LINE
  8
0
 62
     5
 10
182.479614
 20
213.508820
 11
182.479614
 21
248.417114
  0
TEXT
  8
0
 62
     7
 10
164.702774
 20
247.280548
 40
8.118207
 41
1.000000
  1
25
  7
KANJI
 50
0.000000
 51
0.000000
  0
LINE
  8
DASHDOT
 62
     7
 10
152.608688
 20
211.008820
 11
187.350540
 21
211.008820
  0
LINE
  8
DASHDOT
 62
     7
 10
152.608688
 20
61.008820
 11
187.350540
 21
61.008820
  0
LINE
  8
DASHDOT
 62
     7
 10
152.608688
 20
136.008820
 11
187.350540
 21
136.008820
  0
LINE
  8
0
 62
     5
 10
182.379608
 20
58.508820
 11
182.479614
 21
58.508820
  0
LINE
  8
0
 62
     5
 10
182.379608
 20
213.508820
 11
182.479614
 21
213.508820
  0
LINE
  8
0
 62
     5
 10
182.479614
 20
213.408813
 11
182.479614
 21
213.508820
  0
LINE
  8
0
 62
     5
 10
157.479614
 20
213.408813
 11
157.479614
 21
213.508820
  0
LINE
  8
0
 62
     4
 10
157.479614
 20
207.883820
 11
182.479614
 21
207.883820
  0
LINE
  8
0
 62
     4
 10
157.479614
 20
64.133820
 11
182.479614
 21
64.133820
  0
LINE
  8
0
 62
     4
 10
182.479614
 20
144.008820
 11
181.979614
 21
143.508820
  0
LINE
  8
0
 62
     4
 10
182.479614
 20
128.008820
 11
181.979614
 21
128.508820
  0
LINE
  8
0
 62
     4
 10
157.479614
 20
128.008820
 11
157.979614
 21
128.508820
  0
POLYLINE
  8
0
 62
     4
 66
     1
 70
     2
  0
VERTEX
  8
0
 10
157.479614
 20
128.008820
  0
VERTEX
  8
0
 10
157.479614
 20
58.608818
  0
VERTEX
  8
0
 10
157.579620
 20
58.508820
  0
VERTEX
  8
0
 10
182.379608
 20
58.508820
  0
VERTEX
  8
0
 10
182.479614
 20
58.608818
  0
VERTEX
  8
0
 10
182.479614
 20
213.408813
  0
VERTEX
  8
0
 10
182.379608
 20
213.508820
  0
VERTEX
  8
0
 10
157.579620
 20
213.508820
  0
VERTEX
  8
0
 10
157.479614
 20
213.408813
  0
VERTEX
  8
0
 10
157.479614
 20
128.008820
  0
SEQEND
  0
POLYLINE
  8
0
 62
     4
 66
     1
 70
     2
  0
VERTEX
  8
0
 10
157.479614
 20
144.008820
  0
VERTEX
  8
0
 10
157.979614
 20
143.508820
  0
VERTEX
  8
0
 10
157.979614
 20
128.508820
  0
VERTEX
  8
0
 10
181.979614
 20
128.508820
  0
VERTEX
  8
0
 10
181.979614
 20
143.508820
  0
VERTEX
  8
0
 10
157.979614
 20
143.508820
  0
SEQEND
  0
LINE
  8
0
 62
     5
 10
214.952438
 20
118.766968
 11
214.952438
 21
153.250671
  0
POLYLINE
  8
0
 62
     5
 66
     1
 70
     2
  0
VERTEX
  8
0
 10
213.328796
 20
149.191559
  0
VERTEX
  8
0
 10
214.952438
 20
143.508820
  0
VERTEX
  8
0
 10
216.576080
 20
149.191559
  0
SEQEND
  0
POLYLINE
  8
0
 62
     5
 66
     1
 70
     2
  0
VERTEX
  8
0
 10
216.576080
 20
122.826073
  0
VERTEX
  8
0
 10
214.952438
 20
128.508820
  0
VERTEX
  8
0
 10
213.328796
 20
122.826073
  0
SEQEND
  0
LINE
  8
0
 62
     5
 10
182.479614
 20
143.508820
 11
217.387909
 21
143.508820
  0
LINE
  8
0
 62
     5
 10
182.479614
 20
128.508820
 11
217.387909
 21
128.508820
  0
TEXT
  8
0
 62
     7
 10
213.328796
 20
126.469925
 40
8.118207
 41
1.000000
  1
%%c15
  7
KANJI
 50
90.000000
 51
0.000000
  0
ENDSEC
  0
EOF
