  0
SECTION
  2
HEADER
  9
$ACADVER
  1
AC1003
  9
$INSBASE
 10
0.000000
 20
0.000000
  9
$EXTMIN
 10
0.000000
 20
0.000000
  9
$EXTMAX
 10
458.250000
 20
316.875000
  9
$LIMMIN
 10
0.000000
 20
0.000000
  9
$LIMMAX
 10
458.250000
 20
316.875000
  9
$VIEWCTR
 10
229.125000
 20
158.437500
  9
$VIEWSIZE
 40
316.875000
  0
ENDSEC
  0
SECTION
  2
TABLES
  0
TABLE
  2
LTYPE
 70
     4
  0
LTYPE
  2
CONTINUOUS
 70
    64
  3
SolidLine
 72
    65
 73
     0
 40
0.0
  0
LTYPE
  2
HIDDEN
 70
    64
  3
------------------------
 72
    65
 73
     2
 40
4.875000
 49
3.250000
 49
-1.625000
  0
LTYPE
  2
DASHDOT
 70
    64
  3
--?--?--?--?--?--?--?--
 72
    65
 73
     4
 40
19.500000
 49
14.625000
 49
-1.625000
 49
1.625000
 49
-1.625000
  0
LTYPE
  2
DIVIDE
 70
    64
  3
--??--??--??--??--??--
 72
    65
 73
     6
 40
24.375000
 49
16.250000
 49
-1.625000
 49
1.625000
 49
-1.625000
 49
1.625000
 49
-1.625000
  0
ENDTAB
  0
TABLE
  2
LAYER
 70
     5
  0
LAYER
  2
0
 70
    64
 62
     7
  6
CONTINUOUS
  0
LAYER
  2
HIDDEN
 70
    64
 62
     2
  6
HIDDEN
  0
LAYER
  2
DASHDOT
 70
    64
 62
     6
  6
DASHDOT
  0
LAYER
  2
DIVIDE
 70
    64
 62
     5
  6
DIVIDE
  0
ENDTAB
  0
TABLE
  2
STYLE
 70
     1
  0
STYLE
  2
STANDARD
 70
    64
 40
0.0
 41
1.0
 50
0.0
 71
     0
 42
0.2
  3
TXT
  4

  0
STYLE
  2
KANJI
 70
    64
 40
0.0
 41
1.0
 50
0.0
 71
     0
 42
0.2
  3
TXT
  4
BIGFONT
  0
ENDTAB
  0
TABLE
  2
VIEW
 70
     0
  0
ENDTAB
  0
ENDSEC
  0
SECTION
  2
BLOCKS
  0
ENDSEC
  0
SECTION
  2
ENTITIES
  0
TEXT
  8
0
 62
     7
 10
16.250000
 20
17.875000
 40
6.500000
 41
1.000000
  1
KHK PSA2-75J28
  7
KANJI
 50
0.000000
 51
0.000000
  0
TEXT
  8
0
 62
     7
 10
16.250000
 20
8.125000
 40
6.500000
 41
1.000000
  1
The precision grade of gears after secondary operations is equivalent but not identical to its original grade.
  7
KANJI
 50
0.000000
 51
0.000000
  0
TEXT
  8
0
 62
     7
 10
16.250000
 20
292.500000
 40
7.312500
 41
1.000000
  1

  7
KANJI
 50
0.000000
 51
0.000000
  0
POLYLINE
  8
0
 62
     7
 66
     1
 70
     2
  0
VERTEX
  8
0
 10
390.000000
 20
292.500000
  0
VERTEX
  8
0
 10
383.662506
 20
303.484985
  0
VERTEX
  8
0
 10
409.012512
 20
303.484985
  0
VERTEX
  8
0
 10
402.674988
 20
292.500000
  0
VERTEX
  8
0
 10
396.337494
 20
303.484985
  0
VERTEX
  8
0
 10
390.000000
 20
292.500000
  0
SEQEND
  0
LINE
  8
0
 62
     5
 10
233.375000
 20
213.687500
 11
233.375000
 21
59.687500
  0
POLYLINE
  8
0
 62
     5
 66
     1
 70
     2
  0
VERTEX
  8
0
 10
235.000000
 20
208.000000
  0
VERTEX
  8
0
 10
233.375000
 20
213.687500
  0
VERTEX
  8
0
 10
231.750000
 20
208.000000
  0
SEQEND
  0
POLYLINE
  8
0
 62
     5
 66
     1
 70
     2
  0
VERTEX
  8
0
 10
231.750000
 20
65.375000
  0
VERTEX
  8
0
 10
233.375000
 20
59.687500
  0
VERTEX
  8
0
 10
235.000000
 20
65.375000
  0
SEQEND
  0
LINE
  8
0
 62
     5
 10
174.875000
 20
213.687500
 11
235.812500
 21
213.687500
  0
LINE
  8
0
 62
     5
 10
174.875000
 20
59.687500
 11
235.812500
 21
59.687500
  0
TEXT
  8
0
 62
     7
 10
231.750000
 20
124.500000
 40
8.125000
 41
1.000000
  1
%%c154
  7
KANJI
 50
90.000000
 51
0.000000
  0
LINE
  8
0
 62
     5
 10
154.875000
 20
246.187500
 11
174.875000
 21
246.187500
  0
POLYLINE
  8
0
 62
     5
 66
     1
 70
     2
  0
VERTEX
  8
0
 10
160.562500
 20
247.812500
  0
VERTEX
  8
0
 10
154.875000
 20
246.187500
  0
VERTEX
  8
0
 10
160.562500
 20
244.562500
  0
SEQEND
  0
POLYLINE
  8
0
 62
     5
 66
     1
 70
     2
  0
VERTEX
  8
0
 10
169.187500
 20
244.562500
  0
VERTEX
  8
0
 10
174.875000
 20
246.187500
  0
VERTEX
  8
0
 10
169.187500
 20
247.812500
  0
SEQEND
  0
LINE
  8
0
 62
     5
 10
154.875000
 20
213.687500
 11
154.875000
 21
248.625000
  0
LINE
  8
0
 62
     5
 10
174.875000
 20
213.687500
 11
174.875000
 21
248.625000
  0
TEXT
  8
0
 62
     7
 10
159.593750
 20
247.487503
 40
8.125000
 41
1.000000
  1
20
  7
KANJI
 50
0.000000
 51
0.000000
  0
LINE
  8
DASHDOT
 62
     7
 10
150.000000
 20
211.687500
 11
179.750000
 21
211.687500
  0
LINE
  8
DASHDOT
 62
     7
 10
150.000000
 20
61.687500
 11
179.750000
 21
61.687500
  0
LINE
  8
DASHDOT
 62
     7
 10
150.000000
 20
136.687500
 11
179.750000
 21
136.687500
  0
LINE
  8
0
 62
     5
 10
174.774994
 20
59.687500
 11
174.875000
 21
59.687500
  0
LINE
  8
0
 62
     5
 10
174.774994
 20
213.687500
 11
174.875000
 21
213.687500
  0
LINE
  8
0
 62
     5
 10
174.875000
 20
213.587494
 11
174.875000
 21
213.687500
  0
LINE
  8
0
 62
     5
 10
154.875000
 20
213.587494
 11
154.875000
 21
213.687500
  0
LINE
  8
0
 62
     4
 10
154.875000
 20
209.187500
 11
174.875000
 21
209.187500
  0
LINE
  8
0
 62
     4
 10
154.875000
 20
64.187500
 11
174.875000
 21
64.187500
  0
LINE
  8
0
 62
     4
 10
174.875000
 20
151.187500
 11
174.375000
 21
150.687500
  0
LINE
  8
0
 62
     4
 10
174.875000
 20
122.187500
 11
174.375000
 21
122.687500
  0
LINE
  8
0
 62
     4
 10
154.875000
 20
122.187500
 11
155.375000
 21
122.687500
  0
POLYLINE
  8
0
 62
     4
 66
     1
 70
     2
  0
VERTEX
  8
0
 10
154.875000
 20
122.187500
  0
VERTEX
  8
0
 10
154.875000
 20
59.787498
  0
VERTEX
  8
0
 10
154.975006
 20
59.687500
  0
VERTEX
  8
0
 10
174.774994
 20
59.687500
  0
VERTEX
  8
0
 10
174.875000
 20
59.787498
  0
VERTEX
  8
0
 10
174.875000
 20
213.587494
  0
VERTEX
  8
0
 10
174.774994
 20
213.687500
  0
VERTEX
  8
0
 10
154.975006
 20
213.687500
  0
VERTEX
  8
0
 10
154.875000
 20
213.587494
  0
VERTEX
  8
0
 10
154.875000
 20
122.187500
  0
SEQEND
  0
POLYLINE
  8
0
 62
     4
 66
     1
 70
     2
  0
VERTEX
  8
0
 10
154.875000
 20
151.187500
  0
VERTEX
  8
0
 10
155.375000
 20
150.687500
  0
VERTEX
  8
0
 10
155.375000
 20
122.687500
  0
VERTEX
  8
0
 10
174.375000
 20
122.687500
  0
VERTEX
  8
0
 10
174.375000
 20
150.687500
  0
VERTEX
  8
0
 10
155.375000
 20
150.687500
  0
SEQEND
  0
ARC
  8
0
 62
     4
 10
270.125000
 20
136.687500
 40
14.000000
 50
106.60154992625478
 51
73.39845007374521
  0
POLYLINE
  8
0
 62
     4
 66
     1
 70
     2
  0
VERTEX
  8
0
 10
274.125000
 20
150.103912
  0
VERTEX
  8
0
 10
274.125000
 20
153.987503
  0
VERTEX
  8
0
 10
266.125000
 20
153.987503
  0
VERTEX
  8
0
 10
266.125000
 20
150.103912
  0
SEQEND
  0
LINE
  8
0
 62
     4
 10
154.875000
 20
153.987503
 11
174.875000
 21
153.987503
  0
LINE
  8
DASHDOT
 62
     7
 10
270.125000
 20
158.862503
 11
270.125000
 21
117.812500
  0
LINE
  8
DASHDOT
 62
     7
 10
289.000000
 20
136.687500
 11
251.250000
 21
136.687500
  0
LINE
  8
0
 62
     5
 10
283.875000
 20
165.362503
 11
256.375000
 21
165.362503
  0
POLYLINE
  8
0
 62
     5
 66
     1
 70
     2
  0
VERTEX
  8
0
 10
260.437500
 20
163.737503
  0
VERTEX
  8
0
 10
266.125000
 20
165.362503
  0
VERTEX
  8
0
 10
260.437500
 20
166.987503
  0
SEQEND
  0
POLYLINE
  8
0
 62
     5
 66
     1
 70
     2
  0
VERTEX
  8
0
 10
279.812500
 20
166.987503
  0
VERTEX
  8
0
 10
274.125000
 20
165.362503
  0
VERTEX
  8
0
 10
279.812500
 20
163.737503
  0
SEQEND
  0
LINE
  8
0
 62
     5
 10
266.125000
 20
153.987503
 11
266.125000
 21
167.800003
  0
LINE
  8
0
 62
     5
 10
274.125000
 20
153.987503
 11
274.125000
 21
167.800003
  0
TEXT
  8
0
 62
     7
 10
253.353394
 20
166.987503
 40
8.125000
 41
1.000000
  1
8
  7
KANJI
 50
0.000000
 51
0.000000
  0
TEXT
  8
0
 62
     7
 10
261.396149
 20
166.987503
 40
6.500000
 41
1.000000
  1
%%p0.018
  7
KANJI
 50
0.000000
 51
0.000000
  0
LINE
  8
0
 62
     5
 10
331.000000
 20
112.937500
 11
331.000000
 21
163.737503
  0
POLYLINE
  8
0
 62
     5
 66
     1
 70
     2
  0
VERTEX
  8
0
 10
329.375000
 20
159.675003
  0
VERTEX
  8
0
 10
331.000000
 20
153.987503
  0
VERTEX
  8
0
 10
332.625000
 20
159.675003
  0
SEQEND
  0
POLYLINE
  8
0
 62
     5
 66
     1
 70
     2
  0
VERTEX
  8
0
 10
332.625000
 20
117.000000
  0
VERTEX
  8
0
 10
331.000000
 20
122.687500
  0
VERTEX
  8
0
 10
329.375000
 20
117.000000
  0
SEQEND
  0
LINE
  8
0
 62
     5
 10
274.125000
 20
153.987503
 11
333.437500
 21
153.987503
  0
LINE
  8
0
 62
     5
 10
270.125000
 20
122.687500
 11
333.437500
 21
122.687500
  0
TEXT
  8
0
 62
     7
 10
328.562500
 20
112.040215
 40
8.125000
 41
1.000000
  1
31.3
  7
KANJI
 50
90.000000
 51
0.000000
  0
TEXT
  8
0
 62
     7
 10
329.049988
 20
147.208435
 40
4.062500
 41
1.000000
  1
 
  7
KANJI
 50
90.000000
 51
0.000000
  0
TEXT
  8
0
 62
     7
 10
324.012512
 20
147.208435
 40
4.062500
 41
1.000000
  1
+
  7
KANJI
 50
90.000000
 51
0.000000
  0
TEXT
  8
0
 62
     7
 10
329.049988
 20
151.758423
 40
4.062500
 41
1.000000
  1
0
  7
KANJI
 50
90.000000
 51
0.000000
  0
TEXT
  8
0
 62
     7
 10
324.012512
 20
151.758423
 40
4.062500
 41
1.000000
  1
0.2
  7
KANJI
 50
90.000000
 51
0.000000
  0
LINE
  8
0
 62
     5
 10
207.375000
 20
150.687500
 11
207.375000
 21
122.687500
  0
POLYLINE
  8
0
 62
     5
 66
     1
 70
     2
  0
VERTEX
  8
0
 10
205.750000
 20
128.375000
  0
VERTEX
  8
0
 10
207.375000
 20
122.687500
  0
VERTEX
  8
0
 10
209.000000
 20
128.375000
  0
SEQEND
  0
LINE
  8
0
 62
     5
 10
174.875000
 20
122.687500
 11
209.812500
 21
122.687500
  0
TEXT
  8
0
 62
     7
 10
205.750000
 20
127.140625
 40
8.125000
 41
1.000000
  1
%%c28
  7
KANJI
 50
90.000000
 51
0.000000
  0
ENDSEC
  0
EOF
