  0
SECTION
  2
HEADER
  9
$ACADVER
  1
AC1003
  9
$INSBASE
 10
0.000000
 20
0.000000
  9
$EXTMIN
 10
0.000000
 20
0.000000
  9
$EXTMAX
 10
457.866848
 20
316.610054
  9
$LIMMIN
 10
0.000000
 20
0.000000
  9
$LIMMAX
 10
457.866848
 20
316.610054
  9
$VIEWCTR
 10
228.933424
 20
158.305027
  9
$VIEWSIZE
 40
316.610054
  0
ENDSEC
  0
SECTION
  2
TABLES
  0
TABLE
  2
LTYPE
 70
     4
  0
LTYPE
  2
CONTINUOUS
 70
    64
  3
SolidLine
 72
    65
 73
     0
 40
0.0
  0
LTYPE
  2
HIDDEN
 70
    64
  3
------------------------
 72
    65
 73
     2
 40
4.870924
 49
3.247283
 49
-1.623641
  0
LTYPE
  2
DASHDOT
 70
    64
  3
--?--?--?--?--?--?--?--
 72
    65
 73
     4
 40
19.483696
 49
14.612772
 49
-1.623641
 49
1.623641
 49
-1.623641
  0
LTYPE
  2
DIVIDE
 70
    64
  3
--??--??--??--??--??--
 72
    65
 73
     6
 40
24.354620
 49
16.236413
 49
-1.623641
 49
1.623641
 49
-1.623641
 49
1.623641
 49
-1.623641
  0
ENDTAB
  0
TABLE
  2
LAYER
 70
     5
  0
LAYER
  2
0
 70
    64
 62
     7
  6
CONTINUOUS
  0
LAYER
  2
HIDDEN
 70
    64
 62
     2
  6
HIDDEN
  0
LAYER
  2
DASHDOT
 70
    64
 62
     6
  6
DASHDOT
  0
LAYER
  2
DIVIDE
 70
    64
 62
     5
  6
DIVIDE
  0
ENDTAB
  0
TABLE
  2
STYLE
 70
     1
  0
STYLE
  2
STANDARD
 70
    64
 40
0.0
 41
1.0
 50
0.0
 71
     0
 42
0.2
  3
TXT
  4

  0
STYLE
  2
KANJI
 70
    64
 40
0.0
 41
1.0
 50
0.0
 71
     0
 42
0.2
  3
TXT
  4
BIGFONT
  0
ENDTAB
  0
TABLE
  2
VIEW
 70
     0
  0
ENDTAB
  0
ENDSEC
  0
SECTION
  2
BLOCKS
  0
ENDSEC
  0
SECTION
  2
ENTITIES
  0
TEXT
  8
0
 62
     7
 10
16.236414
 20
17.860054
 40
6.494565
 41
1.000000
  1
KHK PSA2.5-60J16
  7
KANJI
 50
0.000000
 51
0.000000
  0
TEXT
  8
0
 62
     7
 10
16.236414
 20
8.118207
 40
6.494565
 41
1.000000
  1
The precision grade of gears after secondary operations is equivalent but not identical to its original grade.
  7
KANJI
 50
0.000000
 51
0.000000
  0
TEXT
  8
0
 62
     7
 10
16.236414
 20
292.255432
 40
7.306386
 41
1.000000
  1

  7
KANJI
 50
0.000000
 51
0.000000
  0
POLYLINE
  8
0
 62
     7
 66
     1
 70
     2
  0
VERTEX
  8
0
 10
389.673920
 20
292.255432
  0
VERTEX
  8
0
 10
383.341705
 20
303.231262
  0
VERTEX
  8
0
 10
408.670532
 20
303.231262
  0
VERTEX
  8
0
 10
402.338318
 20
292.255432
  0
VERTEX
  8
0
 10
396.006134
 20
303.231262
  0
VERTEX
  8
0
 10
389.673920
 20
292.255432
  0
SEQEND
  0
LINE
  8
0
 62
     5
 10
239.430695
 20
213.508820
 11
239.430695
 21
58.508820
  0
POLYLINE
  8
0
 62
     5
 66
     1
 70
     2
  0
VERTEX
  8
0
 10
241.054352
 20
207.826080
  0
VERTEX
  8
0
 10
239.430695
 20
213.508820
  0
VERTEX
  8
0
 10
237.807068
 20
207.826080
  0
SEQEND
  0
POLYLINE
  8
0
 62
     5
 66
     1
 70
     2
  0
VERTEX
  8
0
 10
237.807068
 20
64.191566
  0
VERTEX
  8
0
 10
239.430695
 20
58.508820
  0
VERTEX
  8
0
 10
241.054352
 20
64.191566
  0
SEQEND
  0
LINE
  8
0
 62
     5
 10
180.979614
 20
213.508820
 11
241.866165
 21
213.508820
  0
LINE
  8
0
 62
     5
 10
180.979614
 20
58.508820
 11
241.866165
 21
58.508820
  0
TEXT
  8
0
 62
     7
 10
237.807068
 20
123.831512
 40
8.118207
 41
1.000000
  1
%%c155
  7
KANJI
 50
90.000000
 51
0.000000
  0
LINE
  8
0
 62
     5
 10
155.979614
 20
245.981644
 11
180.979614
 21
245.981644
  0
POLYLINE
  8
0
 62
     5
 66
     1
 70
     2
  0
VERTEX
  8
0
 10
161.662354
 20
247.605286
  0
VERTEX
  8
0
 10
155.979614
 20
245.981644
  0
VERTEX
  8
0
 10
161.662354
 20
244.358002
  0
SEQEND
  0
POLYLINE
  8
0
 62
     5
 66
     1
 70
     2
  0
VERTEX
  8
0
 10
175.296875
 20
244.358002
  0
VERTEX
  8
0
 10
180.979614
 20
245.981644
  0
VERTEX
  8
0
 10
175.296875
 20
247.605286
  0
SEQEND
  0
LINE
  8
0
 62
     5
 10
155.979614
 20
213.508820
 11
155.979614
 21
248.417114
  0
LINE
  8
0
 62
     5
 10
180.979614
 20
213.508820
 11
180.979614
 21
248.417114
  0
TEXT
  8
0
 62
     7
 10
163.202774
 20
247.280548
 40
8.118207
 41
1.000000
  1
25
  7
KANJI
 50
0.000000
 51
0.000000
  0
LINE
  8
DASHDOT
 62
     7
 10
151.108688
 20
211.008820
 11
185.850540
 21
211.008820
  0
LINE
  8
DASHDOT
 62
     7
 10
151.108688
 20
61.008820
 11
185.850540
 21
61.008820
  0
LINE
  8
DASHDOT
 62
     7
 10
151.108688
 20
136.008820
 11
185.850540
 21
136.008820
  0
LINE
  8
0
 62
     5
 10
180.879608
 20
58.508820
 11
180.979614
 21
58.508820
  0
LINE
  8
0
 62
     5
 10
180.879608
 20
213.508820
 11
180.979614
 21
213.508820
  0
LINE
  8
0
 62
     5
 10
180.979614
 20
213.408813
 11
180.979614
 21
213.508820
  0
LINE
  8
0
 62
     5
 10
155.979614
 20
213.408813
 11
155.979614
 21
213.508820
  0
LINE
  8
0
 62
     4
 10
155.979614
 20
207.883820
 11
180.979614
 21
207.883820
  0
LINE
  8
0
 62
     4
 10
155.979614
 20
64.133820
 11
180.979614
 21
64.133820
  0
LINE
  8
0
 62
     4
 10
180.979614
 20
144.508820
 11
180.479614
 21
144.008820
  0
LINE
  8
0
 62
     4
 10
180.979614
 20
127.508820
 11
180.479614
 21
128.008820
  0
LINE
  8
0
 62
     4
 10
155.979614
 20
127.508820
 11
156.479614
 21
128.008820
  0
POLYLINE
  8
0
 62
     4
 66
     1
 70
     2
  0
VERTEX
  8
0
 10
155.979614
 20
127.508820
  0
VERTEX
  8
0
 10
155.979614
 20
58.608818
  0
VERTEX
  8
0
 10
156.079620
 20
58.508820
  0
VERTEX
  8
0
 10
180.879608
 20
58.508820
  0
VERTEX
  8
0
 10
180.979614
 20
58.608818
  0
VERTEX
  8
0
 10
180.979614
 20
213.408813
  0
VERTEX
  8
0
 10
180.879608
 20
213.508820
  0
VERTEX
  8
0
 10
156.079620
 20
213.508820
  0
VERTEX
  8
0
 10
155.979614
 20
213.408813
  0
VERTEX
  8
0
 10
155.979614
 20
127.508820
  0
SEQEND
  0
POLYLINE
  8
0
 62
     4
 66
     1
 70
     2
  0
VERTEX
  8
0
 10
155.979614
 20
144.508820
  0
VERTEX
  8
0
 10
156.479614
 20
144.008820
  0
VERTEX
  8
0
 10
156.479614
 20
128.008820
  0
VERTEX
  8
0
 10
180.479614
 20
128.008820
  0
VERTEX
  8
0
 10
180.479614
 20
144.008820
  0
VERTEX
  8
0
 10
156.479614
 20
144.008820
  0
SEQEND
  0
ARC
  8
0
 62
     4
 10
270.161682
 20
136.008820
 40
8.000000
 50
108.20995732853793
 51
71.79004267146207
  0
POLYLINE
  8
0
 62
     4
 66
     1
 70
     2
  0
VERTEX
  8
0
 10
272.661682
 20
143.608154
  0
VERTEX
  8
0
 10
272.661682
 20
146.308823
  0
VERTEX
  8
0
 10
267.661682
 20
146.308823
  0
VERTEX
  8
0
 10
267.661682
 20
143.608154
  0
SEQEND
  0
LINE
  8
0
 62
     4
 10
155.979614
 20
146.308823
 11
180.979614
 21
146.308823
  0
LINE
  8
DASHDOT
 62
     7
 10
270.161682
 20
151.179749
 11
270.161682
 21
123.137894
  0
LINE
  8
DASHDOT
 62
     7
 10
283.032593
 20
136.008820
 11
257.290771
 21
136.008820
  0
LINE
  8
0
 62
     5
 10
282.403534
 20
157.674316
 11
257.919830
 21
157.674316
  0
POLYLINE
  8
0
 62
     5
 66
     1
 70
     2
  0
VERTEX
  8
0
 10
261.978943
 20
156.050659
  0
VERTEX
  8
0
 10
267.661682
 20
157.674316
  0
VERTEX
  8
0
 10
261.978943
 20
159.297943
  0
SEQEND
  0
POLYLINE
  8
0
 62
     5
 66
     1
 70
     2
  0
VERTEX
  8
0
 10
278.344421
 20
159.297943
  0
VERTEX
  8
0
 10
272.661682
 20
157.674316
  0
VERTEX
  8
0
 10
278.344421
 20
156.050659
  0
SEQEND
  0
LINE
  8
0
 62
     5
 10
267.661682
 20
146.308823
 11
267.661682
 21
160.109772
  0
LINE
  8
0
 62
     5
 10
272.661682
 20
146.308823
 11
272.661682
 21
160.109772
  0
TEXT
  8
0
 62
     7
 10
253.404099
 20
159.297943
 40
8.118207
 41
1.000000
  1
5
  7
KANJI
 50
0.000000
 51
0.000000
  0
TEXT
  8
0
 62
     7
 10
261.440125
 20
159.297943
 40
6.494565
 41
1.000000
  1
%%p0.015
  7
KANJI
 50
0.000000
 51
0.000000
  0
LINE
  8
0
 62
     5
 10
329.489136
 20
118.266975
 11
329.489136
 21
156.050659
  0
POLYLINE
  8
0
 62
     5
 66
     1
 70
     2
  0
VERTEX
  8
0
 10
327.865479
 20
151.991562
  0
VERTEX
  8
0
 10
329.489136
 20
146.308823
  0
VERTEX
  8
0
 10
331.112793
 20
151.991562
  0
SEQEND
  0
POLYLINE
  8
0
 62
     5
 66
     1
 70
     2
  0
VERTEX
  8
0
 10
331.112793
 20
122.326080
  0
VERTEX
  8
0
 10
329.489136
 20
128.008820
  0
VERTEX
  8
0
 10
327.865479
 20
122.326080
  0
SEQEND
  0
LINE
  8
0
 62
     5
 10
272.661682
 20
146.308823
 11
331.924591
 21
146.308823
  0
LINE
  8
0
 62
     5
 10
270.161682
 20
128.008820
 11
331.924591
 21
128.008820
  0
TEXT
  8
0
 62
     7
 10
327.053680
 20
112.180908
 40
8.118207
 41
1.000000
  1
18.3
  7
KANJI
 50
90.000000
 51
0.000000
  0
TEXT
  8
0
 62
     7
 10
327.540771
 20
147.319717
 40
4.059103
 41
1.000000
  1
 
  7
KANJI
 50
90.000000
 51
0.000000
  0
TEXT
  8
0
 62
     7
 10
322.507477
 20
147.319717
 40
4.059103
 41
1.000000
  1
+
  7
KANJI
 50
90.000000
 51
0.000000
  0
TEXT
  8
0
 62
     7
 10
327.540771
 20
151.865906
 40
4.059103
 41
1.000000
  1
0
  7
KANJI
 50
90.000000
 51
0.000000
  0
TEXT
  8
0
 62
     7
 10
322.507477
 20
151.865906
 40
4.059103
 41
1.000000
  1
0.1
  7
KANJI
 50
90.000000
 51
0.000000
  0
LINE
  8
0
 62
     5
 10
213.452438
 20
144.008820
 11
213.452438
 21
128.008820
  0
POLYLINE
  8
0
 62
     5
 66
     1
 70
     2
  0
VERTEX
  8
0
 10
211.828796
 20
133.691559
  0
VERTEX
  8
0
 10
213.452438
 20
128.008820
  0
VERTEX
  8
0
 10
215.076080
 20
133.691559
  0
SEQEND
  0
LINE
  8
0
 62
     5
 10
180.979614
 20
128.008820
 11
215.887909
 21
128.008820
  0
TEXT
  8
0
 62
     7
 10
211.828796
 20
126.469925
 40
8.118207
 41
1.000000
  1
%%c16
  7
KANJI
 50
90.000000
 51
0.000000
  0
ENDSEC
  0
EOF
