  0
SECTION
  2
HEADER
  9
$ACADVER
  1
AC1003
  9
$INSBASE
 10
0.000000
 20
0.000000
  9
$EXTMIN
 10
0.000000
 20
0.000000
  9
$EXTMAX
 10
457.866848
 20
316.610054
  9
$LIMMIN
 10
0.000000
 20
0.000000
  9
$LIMMAX
 10
457.866848
 20
316.610054
  9
$VIEWCTR
 10
228.933424
 20
158.305027
  9
$VIEWSIZE
 40
316.610054
  0
ENDSEC
  0
SECTION
  2
TABLES
  0
TABLE
  2
LTYPE
 70
     4
  0
LTYPE
  2
CONTINUOUS
 70
    64
  3
SolidLine
 72
    65
 73
     0
 40
0.0
  0
LTYPE
  2
HIDDEN
 70
    64
  3
------------------------
 72
    65
 73
     2
 40
4.870924
 49
3.247283
 49
-1.623641
  0
LTYPE
  2
DASHDOT
 70
    64
  3
--?--?--?--?--?--?--?--
 72
    65
 73
     4
 40
19.483696
 49
14.612772
 49
-1.623641
 49
1.623641
 49
-1.623641
  0
LTYPE
  2
DIVIDE
 70
    64
  3
--??--??--??--??--??--
 72
    65
 73
     6
 40
24.354620
 49
16.236413
 49
-1.623641
 49
1.623641
 49
-1.623641
 49
1.623641
 49
-1.623641
  0
ENDTAB
  0
TABLE
  2
LAYER
 70
     5
  0
LAYER
  2
0
 70
    64
 62
     7
  6
CONTINUOUS
  0
LAYER
  2
HIDDEN
 70
    64
 62
     2
  6
HIDDEN
  0
LAYER
  2
DASHDOT
 70
    64
 62
     6
  6
DASHDOT
  0
LAYER
  2
DIVIDE
 70
    64
 62
     5
  6
DIVIDE
  0
ENDTAB
  0
TABLE
  2
STYLE
 70
     1
  0
STYLE
  2
STANDARD
 70
    64
 40
0.0
 41
1.0
 50
0.0
 71
     0
 42
0.2
  3
TXT
  4

  0
STYLE
  2
KANJI
 70
    64
 40
0.0
 41
1.0
 50
0.0
 71
     0
 42
0.2
  3
TXT
  4
BIGFONT
  0
ENDTAB
  0
TABLE
  2
VIEW
 70
     0
  0
ENDTAB
  0
ENDSEC
  0
SECTION
  2
BLOCKS
  0
ENDSEC
  0
SECTION
  2
ENTITIES
  0
TEXT
  8
0
 62
     7
 10
16.236414
 20
17.860054
 40
6.494565
 41
1.000000
  1
KHK PSA2.5-60J18
  7
KANJI
 50
0.000000
 51
0.000000
  0
TEXT
  8
0
 62
     7
 10
16.236414
 20
8.118207
 40
6.494565
 41
1.000000
  1
The precision grade of gears after secondary operations is equivalent but not identical to its original grade.
  7
KANJI
 50
0.000000
 51
0.000000
  0
TEXT
  8
0
 62
     7
 10
16.236414
 20
292.255432
 40
7.306386
 41
1.000000
  1

  7
KANJI
 50
0.000000
 51
0.000000
  0
POLYLINE
  8
0
 62
     7
 66
     1
 70
     2
  0
VERTEX
  8
0
 10
389.673920
 20
292.255432
  0
VERTEX
  8
0
 10
383.341705
 20
303.231262
  0
VERTEX
  8
0
 10
408.670532
 20
303.231262
  0
VERTEX
  8
0
 10
402.338318
 20
292.255432
  0
VERTEX
  8
0
 10
396.006134
 20
303.231262
  0
VERTEX
  8
0
 10
389.673920
 20
292.255432
  0
SEQEND
  0
LINE
  8
0
 62
     5
 10
238.680695
 20
213.508820
 11
238.680695
 21
58.508820
  0
POLYLINE
  8
0
 62
     5
 66
     1
 70
     2
  0
VERTEX
  8
0
 10
240.304352
 20
207.826080
  0
VERTEX
  8
0
 10
238.680695
 20
213.508820
  0
VERTEX
  8
0
 10
237.057068
 20
207.826080
  0
SEQEND
  0
POLYLINE
  8
0
 62
     5
 66
     1
 70
     2
  0
VERTEX
  8
0
 10
237.057068
 20
64.191566
  0
VERTEX
  8
0
 10
238.680695
 20
58.508820
  0
VERTEX
  8
0
 10
240.304352
 20
64.191566
  0
SEQEND
  0
LINE
  8
0
 62
     5
 10
180.229614
 20
213.508820
 11
241.116165
 21
213.508820
  0
LINE
  8
0
 62
     5
 10
180.229614
 20
58.508820
 11
241.116165
 21
58.508820
  0
TEXT
  8
0
 62
     7
 10
237.057068
 20
123.831512
 40
8.118207
 41
1.000000
  1
%%c155
  7
KANJI
 50
90.000000
 51
0.000000
  0
LINE
  8
0
 62
     5
 10
155.229614
 20
245.981644
 11
180.229614
 21
245.981644
  0
POLYLINE
  8
0
 62
     5
 66
     1
 70
     2
  0
VERTEX
  8
0
 10
160.912354
 20
247.605286
  0
VERTEX
  8
0
 10
155.229614
 20
245.981644
  0
VERTEX
  8
0
 10
160.912354
 20
244.358002
  0
SEQEND
  0
POLYLINE
  8
0
 62
     5
 66
     1
 70
     2
  0
VERTEX
  8
0
 10
174.546875
 20
244.358002
  0
VERTEX
  8
0
 10
180.229614
 20
245.981644
  0
VERTEX
  8
0
 10
174.546875
 20
247.605286
  0
SEQEND
  0
LINE
  8
0
 62
     5
 10
155.229614
 20
213.508820
 11
155.229614
 21
248.417114
  0
LINE
  8
0
 62
     5
 10
180.229614
 20
213.508820
 11
180.229614
 21
248.417114
  0
TEXT
  8
0
 62
     7
 10
162.452774
 20
247.280548
 40
8.118207
 41
1.000000
  1
25
  7
KANJI
 50
0.000000
 51
0.000000
  0
LINE
  8
DASHDOT
 62
     7
 10
150.358688
 20
211.008820
 11
185.100540
 21
211.008820
  0
LINE
  8
DASHDOT
 62
     7
 10
150.358688
 20
61.008820
 11
185.100540
 21
61.008820
  0
LINE
  8
DASHDOT
 62
     7
 10
150.358688
 20
136.008820
 11
185.100540
 21
136.008820
  0
LINE
  8
0
 62
     5
 10
180.129608
 20
58.508820
 11
180.229614
 21
58.508820
  0
LINE
  8
0
 62
     5
 10
180.129608
 20
213.508820
 11
180.229614
 21
213.508820
  0
LINE
  8
0
 62
     5
 10
180.229614
 20
213.408813
 11
180.229614
 21
213.508820
  0
LINE
  8
0
 62
     5
 10
155.229614
 20
213.408813
 11
155.229614
 21
213.508820
  0
LINE
  8
0
 62
     4
 10
155.229614
 20
207.883820
 11
180.229614
 21
207.883820
  0
LINE
  8
0
 62
     4
 10
155.229614
 20
64.133820
 11
180.229614
 21
64.133820
  0
LINE
  8
0
 62
     4
 10
180.229614
 20
145.508820
 11
179.729614
 21
145.008820
  0
LINE
  8
0
 62
     4
 10
180.229614
 20
126.508820
 11
179.729614
 21
127.008820
  0
LINE
  8
0
 62
     4
 10
155.229614
 20
126.508820
 11
155.729614
 21
127.008820
  0
POLYLINE
  8
0
 62
     4
 66
     1
 70
     2
  0
VERTEX
  8
0
 10
155.229614
 20
126.508820
  0
VERTEX
  8
0
 10
155.229614
 20
58.608818
  0
VERTEX
  8
0
 10
155.329620
 20
58.508820
  0
VERTEX
  8
0
 10
180.129608
 20
58.508820
  0
VERTEX
  8
0
 10
180.229614
 20
58.608818
  0
VERTEX
  8
0
 10
180.229614
 20
213.408813
  0
VERTEX
  8
0
 10
180.129608
 20
213.508820
  0
VERTEX
  8
0
 10
155.329620
 20
213.508820
  0
VERTEX
  8
0
 10
155.229614
 20
213.408813
  0
VERTEX
  8
0
 10
155.229614
 20
126.508820
  0
SEQEND
  0
POLYLINE
  8
0
 62
     4
 66
     1
 70
     2
  0
VERTEX
  8
0
 10
155.229614
 20
145.508820
  0
VERTEX
  8
0
 10
155.729614
 20
145.008820
  0
VERTEX
  8
0
 10
155.729614
 20
127.008820
  0
VERTEX
  8
0
 10
179.729614
 20
127.008820
  0
VERTEX
  8
0
 10
179.729614
 20
145.008820
  0
VERTEX
  8
0
 10
155.729614
 20
145.008820
  0
SEQEND
  0
ARC
  8
0
 62
     4
 10
270.411682
 20
136.008820
 40
9.000000
 50
109.47122094265586
 51
70.52877905734415
  0
POLYLINE
  8
0
 62
     4
 66
     1
 70
     2
  0
VERTEX
  8
0
 10
273.411682
 20
144.494095
  0
VERTEX
  8
0
 10
273.411682
 20
147.808823
  0
VERTEX
  8
0
 10
267.411682
 20
147.808823
  0
VERTEX
  8
0
 10
267.411682
 20
144.494095
  0
SEQEND
  0
LINE
  8
0
 62
     4
 10
155.229614
 20
147.808823
 11
180.229614
 21
147.808823
  0
LINE
  8
DASHDOT
 62
     7
 10
270.411682
 20
152.679749
 11
270.411682
 21
122.137894
  0
LINE
  8
DASHDOT
 62
     7
 10
284.282593
 20
136.008820
 11
256.540771
 21
136.008820
  0
LINE
  8
0
 62
     5
 10
283.153534
 20
159.174316
 11
257.669830
 21
159.174316
  0
POLYLINE
  8
0
 62
     5
 66
     1
 70
     2
  0
VERTEX
  8
0
 10
261.728943
 20
157.550659
  0
VERTEX
  8
0
 10
267.411682
 20
159.174316
  0
VERTEX
  8
0
 10
261.728943
 20
160.797943
  0
SEQEND
  0
POLYLINE
  8
0
 62
     5
 66
     1
 70
     2
  0
VERTEX
  8
0
 10
279.094421
 20
160.797943
  0
VERTEX
  8
0
 10
273.411682
 20
159.174316
  0
VERTEX
  8
0
 10
279.094421
 20
157.550659
  0
SEQEND
  0
LINE
  8
0
 62
     5
 10
267.411682
 20
147.808823
 11
267.411682
 21
161.609772
  0
LINE
  8
0
 62
     5
 10
273.411682
 20
147.808823
 11
273.411682
 21
161.609772
  0
TEXT
  8
0
 62
     7
 10
253.654099
 20
160.797943
 40
8.118207
 41
1.000000
  1
6
  7
KANJI
 50
0.000000
 51
0.000000
  0
TEXT
  8
0
 62
     7
 10
261.690125
 20
160.797943
 40
6.494565
 41
1.000000
  1
%%p0.015
  7
KANJI
 50
0.000000
 51
0.000000
  0
LINE
  8
0
 62
     5
 10
330.239136
 20
117.266975
 11
330.239136
 21
157.550659
  0
POLYLINE
  8
0
 62
     5
 66
     1
 70
     2
  0
VERTEX
  8
0
 10
328.615479
 20
153.491562
  0
VERTEX
  8
0
 10
330.239136
 20
147.808823
  0
VERTEX
  8
0
 10
331.862793
 20
153.491562
  0
SEQEND
  0
POLYLINE
  8
0
 62
     5
 66
     1
 70
     2
  0
VERTEX
  8
0
 10
331.862793
 20
121.326080
  0
VERTEX
  8
0
 10
330.239136
 20
127.008820
  0
VERTEX
  8
0
 10
328.615479
 20
121.326080
  0
SEQEND
  0
LINE
  8
0
 62
     5
 10
273.411682
 20
147.808823
 11
332.674591
 21
147.808823
  0
LINE
  8
0
 62
     5
 10
270.411682
 20
127.008820
 11
332.674591
 21
127.008820
  0
TEXT
  8
0
 62
     7
 10
327.803680
 20
112.180908
 40
8.118207
 41
1.000000
  1
20.8
  7
KANJI
 50
90.000000
 51
0.000000
  0
TEXT
  8
0
 62
     7
 10
328.290771
 20
147.319717
 40
4.059103
 41
1.000000
  1
 
  7
KANJI
 50
90.000000
 51
0.000000
  0
TEXT
  8
0
 62
     7
 10
323.257477
 20
147.319717
 40
4.059103
 41
1.000000
  1
+
  7
KANJI
 50
90.000000
 51
0.000000
  0
TEXT
  8
0
 62
     7
 10
328.290771
 20
151.865906
 40
4.059103
 41
1.000000
  1
0
  7
KANJI
 50
90.000000
 51
0.000000
  0
TEXT
  8
0
 62
     7
 10
323.257477
 20
151.865906
 40
4.059103
 41
1.000000
  1
0.1
  7
KANJI
 50
90.000000
 51
0.000000
  0
LINE
  8
0
 62
     5
 10
212.702438
 20
145.008820
 11
212.702438
 21
127.008820
  0
POLYLINE
  8
0
 62
     5
 66
     1
 70
     2
  0
VERTEX
  8
0
 10
211.078796
 20
132.691559
  0
VERTEX
  8
0
 10
212.702438
 20
127.008820
  0
VERTEX
  8
0
 10
214.326080
 20
132.691559
  0
SEQEND
  0
LINE
  8
0
 62
     5
 10
180.229614
 20
127.008820
 11
215.137909
 21
127.008820
  0
TEXT
  8
0
 62
     7
 10
211.078796
 20
126.469925
 40
8.118207
 41
1.000000
  1
%%c18
  7
KANJI
 50
90.000000
 51
0.000000
  0
ENDSEC
  0
EOF
