  0
SECTION
  2
HEADER
  9
$ACADVER
  1
AC1003
  9
$INSBASE
 10
0.000000
 20
0.000000
  9
$EXTMIN
 10
0.000000
 20
0.000000
  9
$EXTMAX
 10
396.945652
 20
274.483696
  9
$LIMMIN
 10
0.000000
 20
0.000000
  9
$LIMMAX
 10
396.945652
 20
274.483696
  9
$VIEWCTR
 10
198.472826
 20
137.241848
  9
$VIEWSIZE
 40
274.483696
  0
ENDSEC
  0
SECTION
  2
TABLES
  0
TABLE
  2
LTYPE
 70
     4
  0
LTYPE
  2
CONTINUOUS
 70
    64
  3
SolidLine
 72
    65
 73
     0
 40
0.0
  0
LTYPE
  2
HIDDEN
 70
    64
  3
------------------------
 72
    65
 73
     2
 40
4.222826
 49
2.815217
 49
-1.407609
  0
LTYPE
  2
DASHDOT
 70
    64
  3
--?--?--?--?--?--?--?--
 72
    65
 73
     4
 40
16.891304
 49
12.668478
 49
-1.407609
 49
1.407609
 49
-1.407609
  0
LTYPE
  2
DIVIDE
 70
    64
  3
--??--??--??--??--??--
 72
    65
 73
     6
 40
21.114130
 49
14.076087
 49
-1.407609
 49
1.407609
 49
-1.407609
 49
1.407609
 49
-1.407609
  0
ENDTAB
  0
TABLE
  2
LAYER
 70
     5
  0
LAYER
  2
0
 70
    64
 62
     7
  6
CONTINUOUS
  0
LAYER
  2
HIDDEN
 70
    64
 62
     2
  6
HIDDEN
  0
LAYER
  2
DASHDOT
 70
    64
 62
     6
  6
DASHDOT
  0
LAYER
  2
DIVIDE
 70
    64
 62
     5
  6
DIVIDE
  0
ENDTAB
  0
TABLE
  2
STYLE
 70
     1
  0
STYLE
  2
STANDARD
 70
    64
 40
0.0
 41
1.0
 50
0.0
 71
     0
 42
0.2
  3
TXT
  4

  0
STYLE
  2
KANJI
 70
    64
 40
0.0
 41
1.0
 50
0.0
 71
     0
 42
0.2
  3
TXT
  4
BIGFONT
  0
ENDTAB
  0
TABLE
  2
VIEW
 70
     0
  0
ENDTAB
  0
ENDSEC
  0
SECTION
  2
BLOCKS
  0
ENDSEC
  0
SECTION
  2
ENTITIES
  0
TEXT
  8
0
 62
     7
 10
14.076087
 20
15.483696
 40
5.630435
 41
1.000000
  1
KHK PSA2-65J15
  7
KANJI
 50
0.000000
 51
0.000000
  0
TEXT
  8
0
 62
     7
 10
14.076087
 20
7.038043
 40
5.630435
 41
1.000000
  1
The precision grade of gears after secondary operations is equivalent but not identical to its original grade.
  7
KANJI
 50
0.000000
 51
0.000000
  0
TEXT
  8
0
 62
     7
 10
14.076087
 20
253.369568
 40
6.334239
 41
1.000000
  1

  7
KANJI
 50
0.000000
 51
0.000000
  0
POLYLINE
  8
0
 62
     7
 66
     1
 70
     2
  0
VERTEX
  8
0
 10
337.826080
 20
253.369568
  0
VERTEX
  8
0
 10
332.336395
 20
262.885010
  0
VERTEX
  8
0
 10
354.295105
 20
262.885010
  0
VERTEX
  8
0
 10
348.805420
 20
253.369568
  0
VERTEX
  8
0
 10
343.315765
 20
262.885010
  0
VERTEX
  8
0
 10
337.826080
 20
253.369568
  0
SEQEND
  0
LINE
  8
0
 62
     5
 10
206.288055
 20
185.100555
 11
206.288055
 21
51.100555
  0
POLYLINE
  8
0
 62
     5
 66
     1
 70
     2
  0
VERTEX
  8
0
 10
207.695648
 20
180.173920
  0
VERTEX
  8
0
 10
206.288055
 20
185.100555
  0
VERTEX
  8
0
 10
204.880432
 20
180.173920
  0
SEQEND
  0
POLYLINE
  8
0
 62
     5
 66
     1
 70
     2
  0
VERTEX
  8
0
 10
204.880432
 20
56.027187
  0
VERTEX
  8
0
 10
206.288055
 20
51.100555
  0
VERTEX
  8
0
 10
207.695648
 20
56.027187
  0
SEQEND
  0
LINE
  8
0
 62
     5
 10
155.614136
 20
185.100555
 11
208.399460
 21
185.100555
  0
LINE
  8
0
 62
     5
 10
155.614136
 20
51.100555
 11
208.399460
 21
51.100555
  0
TEXT
  8
0
 62
     7
 10
204.880432
 20
107.543488
 40
7.038043
 41
1.000000
  1
%%c134
  7
KANJI
 50
90.000000
 51
0.000000
  0
LINE
  8
0
 62
     5
 10
135.614136
 20
213.252731
 11
155.614136
 21
213.252731
  0
POLYLINE
  8
0
 62
     5
 66
     1
 70
     2
  0
VERTEX
  8
0
 10
140.540771
 20
214.660339
  0
VERTEX
  8
0
 10
135.614136
 20
213.252731
  0
VERTEX
  8
0
 10
140.540771
 20
211.845123
  0
SEQEND
  0
POLYLINE
  8
0
 62
     5
 66
     1
 70
     2
  0
VERTEX
  8
0
 10
150.687500
 20
211.845123
  0
VERTEX
  8
0
 10
155.614136
 20
213.252731
  0
VERTEX
  8
0
 10
150.687500
 20
214.660339
  0
SEQEND
  0
LINE
  8
0
 62
     5
 10
135.614136
 20
185.100555
 11
135.614136
 21
215.364136
  0
LINE
  8
0
 62
     5
 10
155.614136
 20
185.100555
 11
155.614136
 21
215.364136
  0
TEXT
  8
0
 62
     7
 10
141.039413
 20
214.378815
 40
7.038043
 41
1.000000
  1
20
  7
KANJI
 50
0.000000
 51
0.000000
  0
LINE
  8
DASHDOT
 62
     7
 10
131.391312
 20
183.100555
 11
159.836960
 21
183.100555
  0
LINE
  8
DASHDOT
 62
     7
 10
131.391312
 20
53.100555
 11
159.836960
 21
53.100555
  0
LINE
  8
DASHDOT
 62
     7
 10
131.391312
 20
118.100555
 11
159.836960
 21
118.100555
  0
LINE
  8
0
 62
     5
 10
155.514130
 20
51.100555
 11
155.614136
 21
51.100555
  0
LINE
  8
0
 62
     5
 10
155.514130
 20
185.100555
 11
155.614136
 21
185.100555
  0
LINE
  8
0
 62
     5
 10
155.614136
 20
185.000549
 11
155.614136
 21
185.100555
  0
LINE
  8
0
 62
     5
 10
135.614136
 20
185.000549
 11
135.614136
 21
185.100555
  0
LINE
  8
0
 62
     4
 10
135.614136
 20
180.600555
 11
155.614136
 21
180.600555
  0
LINE
  8
0
 62
     4
 10
135.614136
 20
55.600555
 11
155.614136
 21
55.600555
  0
LINE
  8
0
 62
     4
 10
155.614136
 20
126.100555
 11
155.114136
 21
125.600555
  0
LINE
  8
0
 62
     4
 10
155.614136
 20
110.100555
 11
155.114136
 21
110.600555
  0
LINE
  8
0
 62
     4
 10
135.614136
 20
110.100555
 11
136.114136
 21
110.600555
  0
POLYLINE
  8
0
 62
     4
 66
     1
 70
     2
  0
VERTEX
  8
0
 10
135.614136
 20
110.100555
  0
VERTEX
  8
0
 10
135.614136
 20
51.200554
  0
VERTEX
  8
0
 10
135.714142
 20
51.100555
  0
VERTEX
  8
0
 10
155.514130
 20
51.100555
  0
VERTEX
  8
0
 10
155.614136
 20
51.200554
  0
VERTEX
  8
0
 10
155.614136
 20
185.000549
  0
VERTEX
  8
0
 10
155.514130
 20
185.100555
  0
VERTEX
  8
0
 10
135.714142
 20
185.100555
  0
VERTEX
  8
0
 10
135.614136
 20
185.000549
  0
VERTEX
  8
0
 10
135.614136
 20
110.100555
  0
SEQEND
  0
POLYLINE
  8
0
 62
     4
 66
     1
 70
     2
  0
VERTEX
  8
0
 10
135.614136
 20
126.100555
  0
VERTEX
  8
0
 10
136.114136
 20
125.600555
  0
VERTEX
  8
0
 10
136.114136
 20
110.600555
  0
VERTEX
  8
0
 10
155.114136
 20
110.600555
  0
VERTEX
  8
0
 10
155.114136
 20
125.600555
  0
VERTEX
  8
0
 10
136.114136
 20
125.600555
  0
SEQEND
  0
ARC
  8
0
 62
     4
 10
233.494568
 20
118.100555
 40
7.500000
 50
109.47122094265586
 51
70.52877905734415
  0
POLYLINE
  8
0
 62
     4
 66
     1
 70
     2
  0
VERTEX
  8
0
 10
235.994568
 20
125.171623
  0
VERTEX
  8
0
 10
235.994568
 20
127.900558
  0
VERTEX
  8
0
 10
230.994568
 20
127.900558
  0
VERTEX
  8
0
 10
230.994568
 20
125.171623
  0
SEQEND
  0
LINE
  8
0
 62
     4
 10
135.614136
 20
127.900558
 11
155.614136
 21
127.900558
  0
LINE
  8
DASHDOT
 62
     7
 10
233.494568
 20
132.123383
 11
233.494568
 21
106.377731
  0
LINE
  8
DASHDOT
 62
     7
 10
245.217407
 20
118.100555
 11
221.771744
 21
118.100555
  0
LINE
  8
0
 62
     5
 10
244.440216
 20
137.753815
 11
222.548920
 21
137.753815
  0
POLYLINE
  8
0
 62
     5
 66
     1
 70
     2
  0
VERTEX
  8
0
 10
226.067932
 20
136.346207
  0
VERTEX
  8
0
 10
230.994568
 20
137.753815
  0
VERTEX
  8
0
 10
226.067932
 20
139.161423
  0
SEQEND
  0
POLYLINE
  8
0
 62
     5
 66
     1
 70
     2
  0
VERTEX
  8
0
 10
240.921204
 20
139.161423
  0
VERTEX
  8
0
 10
235.994568
 20
137.753815
  0
VERTEX
  8
0
 10
240.921204
 20
136.346207
  0
SEQEND
  0
LINE
  8
0
 62
     5
 10
230.994568
 20
127.900558
 11
230.994568
 21
139.865234
  0
LINE
  8
0
 62
     5
 10
235.994568
 20
127.900558
 11
235.994568
 21
139.865234
  0
TEXT
  8
0
 62
     7
 10
218.966644
 20
139.161423
 40
7.038043
 41
1.000000
  1
5
  7
KANJI
 50
0.000000
 51
0.000000
  0
TEXT
  8
0
 62
     7
 10
225.933441
 20
139.161423
 40
5.630435
 41
1.000000
  1
%%p0.015
  7
KANJI
 50
0.000000
 51
0.000000
  0
LINE
  8
0
 62
     5
 10
285.260864
 20
102.154907
 11
285.260864
 21
136.346207
  0
POLYLINE
  8
0
 62
     5
 66
     1
 70
     2
  0
VERTEX
  8
0
 10
283.853271
 20
132.827179
  0
VERTEX
  8
0
 10
285.260864
 20
127.900558
  0
VERTEX
  8
0
 10
286.668457
 20
132.827179
  0
SEQEND
  0
POLYLINE
  8
0
 62
     5
 66
     1
 70
     2
  0
VERTEX
  8
0
 10
286.668457
 20
105.673927
  0
VERTEX
  8
0
 10
285.260864
 20
110.600555
  0
VERTEX
  8
0
 10
283.853271
 20
105.673927
  0
SEQEND
  0
LINE
  8
0
 62
     5
 10
235.994568
 20
127.900558
 11
287.372284
 21
127.900558
  0
LINE
  8
0
 62
     5
 10
233.494568
 20
110.600555
 11
287.372284
 21
110.600555
  0
TEXT
  8
0
 62
     7
 10
283.149445
 20
97.452576
 40
7.038043
 41
1.000000
  1
17.3
  7
KANJI
 50
90.000000
 51
0.000000
  0
TEXT
  8
0
 62
     7
 10
283.571716
 20
127.916008
 40
3.519022
 41
1.000000
  1
 
  7
KANJI
 50
90.000000
 51
0.000000
  0
TEXT
  8
0
 62
     7
 10
279.208130
 20
127.916008
 40
3.519022
 41
1.000000
  1
+
  7
KANJI
 50
90.000000
 51
0.000000
  0
TEXT
  8
0
 62
     7
 10
283.571716
 20
131.857315
 40
3.519022
 41
1.000000
  1
0
  7
KANJI
 50
90.000000
 51
0.000000
  0
TEXT
  8
0
 62
     7
 10
279.208130
 20
131.857315
 40
3.519022
 41
1.000000
  1
0.1
  7
KANJI
 50
90.000000
 51
0.000000
  0
LINE
  8
0
 62
     5
 10
183.766312
 20
125.600555
 11
183.766312
 21
110.600555
  0
POLYLINE
  8
0
 62
     5
 66
     1
 70
     2
  0
VERTEX
  8
0
 10
182.358704
 20
115.527184
  0
VERTEX
  8
0
 10
183.766312
 20
110.600555
  0
VERTEX
  8
0
 10
185.173920
 20
115.527184
  0
SEQEND
  0
LINE
  8
0
 62
     5
 10
155.614136
 20
110.600555
 11
185.877716
 21
110.600555
  0
TEXT
  8
0
 62
     7
 10
182.358704
 20
109.830856
 40
7.038043
 41
1.000000
  1
%%c15
  7
KANJI
 50
90.000000
 51
0.000000
  0
ENDSEC
  0
EOF
