  0
SECTION
  2
HEADER
  9
$ACADVER
  1
AC1003
  9
$INSBASE
 10
0.000000
 20
0.000000
  9
$EXTMIN
 10
0.000000
 20
0.000000
  9
$EXTMAX
 10
243.684783
 20
168.505435
  9
$LIMMIN
 10
0.000000
 20
0.000000
  9
$LIMMAX
 10
243.684783
 20
168.505435
  9
$VIEWCTR
 10
121.842391
 20
84.252717
  9
$VIEWSIZE
 40
168.505435
  0
ENDSEC
  0
SECTION
  2
TABLES
  0
TABLE
  2
LTYPE
 70
     4
  0
LTYPE
  2
CONTINUOUS
 70
    64
  3
SolidLine
 72
    65
 73
     0
 40
0.0
  0
LTYPE
  2
HIDDEN
 70
    64
  3
------------------------
 72
    65
 73
     2
 40
2.592391
 49
1.728261
 49
-0.864130
  0
LTYPE
  2
DASHDOT
 70
    64
  3
--?--?--?--?--?--?--?--
 72
    65
 73
     4
 40
10.369565
 49
7.777174
 49
-0.864130
 49
0.864130
 49
-0.864130
  0
LTYPE
  2
DIVIDE
 70
    64
  3
--??--??--??--??--??--
 72
    65
 73
     6
 40
12.961957
 49
8.641304
 49
-0.864130
 49
0.864130
 49
-0.864130
 49
0.864130
 49
-0.864130
  0
ENDTAB
  0
TABLE
  2
LAYER
 70
     5
  0
LAYER
  2
0
 70
    64
 62
     7
  6
CONTINUOUS
  0
LAYER
  2
HIDDEN
 70
    64
 62
     2
  6
HIDDEN
  0
LAYER
  2
DASHDOT
 70
    64
 62
     6
  6
DASHDOT
  0
LAYER
  2
DIVIDE
 70
    64
 62
     5
  6
DIVIDE
  0
ENDTAB
  0
TABLE
  2
STYLE
 70
     1
  0
STYLE
  2
STANDARD
 70
    64
 40
0.0
 41
1.0
 50
0.0
 71
     0
 42
0.2
  3
TXT
  4

  0
STYLE
  2
KANJI
 70
    64
 40
0.0
 41
1.0
 50
0.0
 71
     0
 42
0.2
  3
TXT
  4
BIGFONT
  0
ENDTAB
  0
TABLE
  2
VIEW
 70
     0
  0
ENDTAB
  0
ENDSEC
  0
SECTION
  2
BLOCKS
  0
ENDSEC
  0
SECTION
  2
ENTITIES
  0
TEXT
  8
0
 62
     7
 10
8.641304
 20
9.505435
 40
3.456522
 41
1.000000
  1
KHK PSA2-40J35
  7
KANJI
 50
0.000000
 51
0.000000
  0
TEXT
  8
0
 62
     7
 10
8.641304
 20
4.320652
 40
3.456522
 41
1.000000
  1
The precision grade of gears after secondary operations is equivalent but not identical to its original grade.
  7
KANJI
 50
0.000000
 51
0.000000
  0
TEXT
  8
0
 62
     7
 10
8.641304
 20
155.543472
 40
3.888587
 41
1.000000
  1

  7
KANJI
 50
0.000000
 51
0.000000
  0
POLYLINE
  8
0
 62
     7
 66
     1
 70
     2
  0
VERTEX
  8
0
 10
207.391312
 20
155.543472
  0
VERTEX
  8
0
 10
204.021210
 20
161.384995
  0
VERTEX
  8
0
 10
217.501633
 20
161.384995
  0
VERTEX
  8
0
 10
214.131531
 20
155.543472
  0
VERTEX
  8
0
 10
210.761414
 20
161.384995
  0
VERTEX
  8
0
 10
207.391312
 20
155.543472
  0
SEQEND
  0
LINE
  8
0
 62
     5
 10
122.320656
 20
113.633148
 11
122.320656
 21
29.633148
  0
POLYLINE
  8
0
 62
     5
 66
     1
 70
     2
  0
VERTEX
  8
0
 10
123.184784
 20
110.608688
  0
VERTEX
  8
0
 10
122.320656
 20
113.633148
  0
VERTEX
  8
0
 10
121.456528
 20
110.608688
  0
SEQEND
  0
POLYLINE
  8
0
 62
     5
 66
     1
 70
     2
  0
VERTEX
  8
0
 10
121.456528
 20
32.657604
  0
VERTEX
  8
0
 10
122.320656
 20
29.633148
  0
VERTEX
  8
0
 10
123.184784
 20
32.657604
  0
SEQEND
  0
LINE
  8
0
 62
     5
 10
91.211960
 20
113.633148
 11
123.616852
 21
113.633148
  0
LINE
  8
0
 62
     5
 10
91.211960
 20
29.633148
 11
123.616852
 21
29.633148
  0
TEXT
  8
0
 62
     7
 10
121.456528
 20
66.556381
 40
4.320652
 41
1.000000
  1
%%c84
  7
KANJI
 50
90.000000
 51
0.000000
  0
LINE
  8
0
 62
     5
 10
71.211960
 20
130.915756
 11
91.211960
 21
130.915756
  0
POLYLINE
  8
0
 62
     5
 66
     1
 70
     2
  0
VERTEX
  8
0
 10
74.236420
 20
131.779892
  0
VERTEX
  8
0
 10
71.211960
 20
130.915756
  0
VERTEX
  8
0
 10
74.236420
 20
130.051620
  0
SEQEND
  0
POLYLINE
  8
0
 62
     5
 66
     1
 70
     2
  0
VERTEX
  8
0
 10
88.187500
 20
130.051620
  0
VERTEX
  8
0
 10
91.211960
 20
130.915756
  0
VERTEX
  8
0
 10
88.187500
 20
131.779892
  0
SEQEND
  0
LINE
  8
0
 62
     5
 10
71.211960
 20
113.633148
 11
71.211960
 21
132.211945
  0
LINE
  8
0
 62
     5
 10
91.211960
 20
113.633148
 11
91.211960
 21
132.211945
  0
TEXT
  8
0
 62
     7
 10
78.403534
 20
131.607056
 40
4.320652
 41
1.000000
  1
20
  7
KANJI
 50
0.000000
 51
0.000000
  0
LINE
  8
DASHDOT
 62
     7
 10
68.619568
 20
111.633148
 11
93.804352
 21
111.633148
  0
LINE
  8
DASHDOT
 62
     7
 10
68.619568
 20
31.633148
 11
93.804352
 21
31.633148
  0
LINE
  8
DASHDOT
 62
     7
 10
68.619568
 20
71.633148
 11
93.804352
 21
71.633148
  0
LINE
  8
0
 62
     5
 10
91.111961
 20
29.633148
 11
91.211960
 21
29.633148
  0
LINE
  8
0
 62
     5
 10
91.111961
 20
113.633148
 11
91.211960
 21
113.633148
  0
LINE
  8
0
 62
     5
 10
91.211960
 20
113.533150
 11
91.211960
 21
113.633148
  0
LINE
  8
0
 62
     5
 10
71.211960
 20
113.533150
 11
71.211960
 21
113.633148
  0
LINE
  8
0
 62
     4
 10
71.211960
 20
109.133148
 11
91.211960
 21
109.133148
  0
LINE
  8
0
 62
     4
 10
71.211960
 20
34.133148
 11
91.211960
 21
34.133148
  0
LINE
  8
0
 62
     4
 10
91.211960
 20
89.633148
 11
90.711960
 21
89.133148
  0
LINE
  8
0
 62
     4
 10
91.211960
 20
53.633148
 11
90.711960
 21
54.133148
  0
LINE
  8
0
 62
     4
 10
71.211960
 20
53.633148
 11
71.711960
 21
54.133148
  0
POLYLINE
  8
0
 62
     4
 66
     1
 70
     2
  0
VERTEX
  8
0
 10
71.211960
 20
53.633148
  0
VERTEX
  8
0
 10
71.211960
 20
29.733147
  0
VERTEX
  8
0
 10
71.311958
 20
29.633148
  0
VERTEX
  8
0
 10
91.111961
 20
29.633148
  0
VERTEX
  8
0
 10
91.211960
 20
29.733147
  0
VERTEX
  8
0
 10
91.211960
 20
113.533150
  0
VERTEX
  8
0
 10
91.111961
 20
113.633148
  0
VERTEX
  8
0
 10
71.311958
 20
113.633148
  0
VERTEX
  8
0
 10
71.211960
 20
113.533150
  0
VERTEX
  8
0
 10
71.211960
 20
53.633148
  0
SEQEND
  0
POLYLINE
  8
0
 62
     4
 66
     1
 70
     2
  0
VERTEX
  8
0
 10
71.211960
 20
89.633148
  0
VERTEX
  8
0
 10
71.711960
 20
89.133148
  0
VERTEX
  8
0
 10
71.711960
 20
54.133148
  0
VERTEX
  8
0
 10
90.711960
 20
54.133148
  0
VERTEX
  8
0
 10
90.711960
 20
89.133148
  0
VERTEX
  8
0
 10
71.711960
 20
89.133148
  0
SEQEND
  0
ARC
  8
0
 62
     4
 10
151.918488
 20
71.633148
 40
17.500000
 50
106.60154992625478
 51
73.39845007374521
  0
POLYLINE
  8
0
 62
     4
 66
     1
 70
     2
  0
VERTEX
  8
0
 10
156.918488
 20
88.403656
  0
VERTEX
  8
0
 10
156.918488
 20
92.433151
  0
VERTEX
  8
0
 10
146.918488
 20
92.433151
  0
VERTEX
  8
0
 10
146.918488
 20
88.403656
  0
SEQEND
  0
LINE
  8
0
 62
     4
 10
71.211960
 20
92.433151
 11
91.211960
 21
92.433151
  0
LINE
  8
DASHDOT
 62
     7
 10
151.918488
 20
95.025543
 11
151.918488
 21
51.540756
  0
LINE
  8
DASHDOT
 62
     7
 10
172.010864
 20
71.633148
 11
131.826096
 21
71.633148
  0
LINE
  8
0
 62
     5
 10
162.103271
 20
98.482056
 11
141.733704
 21
98.482056
  0
POLYLINE
  8
0
 62
     5
 66
     1
 70
     2
  0
VERTEX
  8
0
 10
143.894012
 20
97.617928
  0
VERTEX
  8
0
 10
146.918488
 20
98.482056
  0
VERTEX
  8
0
 10
143.894012
 20
99.346191
  0
SEQEND
  0
POLYLINE
  8
0
 62
     5
 66
     1
 70
     2
  0
VERTEX
  8
0
 10
159.942932
 20
99.346191
  0
VERTEX
  8
0
 10
156.918488
 20
98.482056
  0
VERTEX
  8
0
 10
159.942932
 20
97.617928
  0
SEQEND
  0
LINE
  8
0
 62
     5
 10
146.918488
 20
92.433151
 11
146.918488
 21
99.778259
  0
LINE
  8
0
 62
     5
 10
156.918488
 20
92.433151
 11
156.918488
 21
99.778259
  0
TEXT
  8
0
 62
     7
 10
140.839478
 20
99.346191
 40
4.320652
 41
1.000000
  1
10
  7
KANJI
 50
0.000000
 51
0.000000
  0
TEXT
  8
0
 62
     7
 10
148.140839
 20
99.346191
 40
3.456522
 41
1.000000
  1
%%p0.018
  7
KANJI
 50
0.000000
 51
0.000000
  0
LINE
  8
0
 62
     5
 10
187.163055
 20
92.433151
 11
187.163055
 21
54.133148
  0
POLYLINE
  8
0
 62
     5
 66
     1
 70
     2
  0
VERTEX
  8
0
 10
188.027176
 20
89.408691
  0
VERTEX
  8
0
 10
187.163055
 20
92.433151
  0
VERTEX
  8
0
 10
186.298920
 20
89.408691
  0
SEQEND
  0
POLYLINE
  8
0
 62
     5
 66
     1
 70
     2
  0
VERTEX
  8
0
 10
186.298920
 20
57.157604
  0
VERTEX
  8
0
 10
187.163055
 20
54.133148
  0
VERTEX
  8
0
 10
188.027176
 20
57.157604
  0
SEQEND
  0
LINE
  8
0
 62
     5
 10
156.918488
 20
92.433151
 11
188.459244
 21
92.433151
  0
LINE
  8
0
 62
     5
 10
151.918488
 20
54.133148
 11
188.459244
 21
54.133148
  0
TEXT
  8
0
 62
     7
 10
185.866852
 20
57.133419
 40
4.320652
 41
1.000000
  1
38.3
  7
KANJI
 50
90.000000
 51
0.000000
  0
TEXT
  8
0
 62
     7
 10
186.126099
 20
75.834915
 40
2.160326
 41
1.000000
  1
 
  7
KANJI
 50
90.000000
 51
0.000000
  0
TEXT
  8
0
 62
     7
 10
183.447296
 20
75.834915
 40
2.160326
 41
1.000000
  1
+
  7
KANJI
 50
90.000000
 51
0.000000
  0
TEXT
  8
0
 62
     7
 10
186.126099
 20
78.254478
 40
2.160326
 41
1.000000
  1
0
  7
KANJI
 50
90.000000
 51
0.000000
  0
TEXT
  8
0
 62
     7
 10
183.447296
 20
78.254478
 40
2.160326
 41
1.000000
  1
0.2
  7
KANJI
 50
90.000000
 51
0.000000
  0
LINE
  8
0
 62
     5
 10
108.494568
 20
89.133148
 11
108.494568
 21
54.133148
  0
POLYLINE
  8
0
 62
     5
 66
     1
 70
     2
  0
VERTEX
  8
0
 10
107.630432
 20
57.157604
  0
VERTEX
  8
0
 10
108.494568
 20
54.133148
  0
VERTEX
  8
0
 10
109.358704
 20
57.157604
  0
SEQEND
  0
LINE
  8
0
 62
     5
 10
91.211960
 20
54.133148
 11
109.790764
 21
54.133148
  0
TEXT
  8
0
 62
     7
 10
107.630432
 20
66.556381
 40
4.320652
 41
1.000000
  1
%%c35
  7
KANJI
 50
90.000000
 51
0.000000
  0
ENDSEC
  0
EOF
