  0
SECTION
  2
HEADER
  9
$ACADVER
  1
AC1003
  9
$INSBASE
 10
0.000000
 20
0.000000
  9
$EXTMIN
 10
0.000000
 20
0.000000
  9
$EXTMAX
 10
410.739130
 20
284.021739
  9
$LIMMIN
 10
0.000000
 20
0.000000
  9
$LIMMAX
 10
410.739130
 20
284.021739
  9
$VIEWCTR
 10
205.369565
 20
142.010870
  9
$VIEWSIZE
 40
284.021739
  0
ENDSEC
  0
SECTION
  2
TABLES
  0
TABLE
  2
LTYPE
 70
     4
  0
LTYPE
  2
CONTINUOUS
 70
    64
  3
SolidLine
 72
    65
 73
     0
 40
0.0
  0
LTYPE
  2
HIDDEN
 70
    64
  3
------------------------
 72
    65
 73
     2
 40
4.369565
 49
2.913043
 49
-1.456522
  0
LTYPE
  2
DASHDOT
 70
    64
  3
--?--?--?--?--?--?--?--
 72
    65
 73
     4
 40
17.478261
 49
13.108696
 49
-1.456522
 49
1.456522
 49
-1.456522
  0
LTYPE
  2
DIVIDE
 70
    64
  3
--??--??--??--??--??--
 72
    65
 73
     6
 40
21.847826
 49
14.565217
 49
-1.456522
 49
1.456522
 49
-1.456522
 49
1.456522
 49
-1.456522
  0
ENDTAB
  0
TABLE
  2
LAYER
 70
     5
  0
LAYER
  2
0
 70
    64
 62
     7
  6
CONTINUOUS
  0
LAYER
  2
HIDDEN
 70
    64
 62
     2
  6
HIDDEN
  0
LAYER
  2
DASHDOT
 70
    64
 62
     6
  6
DASHDOT
  0
LAYER
  2
DIVIDE
 70
    64
 62
     5
  6
DIVIDE
  0
ENDTAB
  0
TABLE
  2
STYLE
 70
     1
  0
STYLE
  2
STANDARD
 70
    64
 40
0.0
 41
1.0
 50
0.0
 71
     0
 42
0.2
  3
TXT
  4

  0
STYLE
  2
KANJI
 70
    64
 40
0.0
 41
1.0
 50
0.0
 71
     0
 42
0.2
  3
TXT
  4
BIGFONT
  0
ENDTAB
  0
TABLE
  2
VIEW
 70
     0
  0
ENDTAB
  0
ENDSEC
  0
SECTION
  2
BLOCKS
  0
ENDSEC
  0
SECTION
  2
ENTITIES
  0
TEXT
  8
0
 62
     7
 10
14.565217
 20
16.021740
 40
5.826087
 41
1.000000
  1
KHK PU1.5-50J19
  7
KANJI
 50
0.000000
 51
0.000000
  0
TEXT
  8
0
 62
     7
 10
14.565217
 20
7.282609
 40
5.826087
 41
1.000000
  1
The precision grade of gears after secondary operations is equivalent but not identical to its original grade.
  7
KANJI
 50
0.000000
 51
0.000000
  0
TEXT
  8
0
 62
     7
 10
14.565217
 20
262.173920
 40
6.554348
 41
1.000000
  1

  7
KANJI
 50
0.000000
 51
0.000000
  0
POLYLINE
  8
0
 62
     7
 66
     1
 70
     2
  0
VERTEX
  8
0
 10
349.565216
 20
262.173920
  0
VERTEX
  8
0
 10
343.884796
 20
272.020020
  0
VERTEX
  8
0
 10
366.606506
 20
272.020020
  0
VERTEX
  8
0
 10
360.926086
 20
262.173920
  0
VERTEX
  8
0
 10
355.245636
 20
272.020020
  0
VERTEX
  8
0
 10
349.565216
 20
262.173920
  0
SEQEND
  0
LINE
  8
0
 62
     5
 10
217.804352
 20
157.706512
 11
217.804352
 21
79.706512
  0
POLYLINE
  8
0
 62
     5
 66
     1
 70
     2
  0
VERTEX
  8
0
 10
219.260864
 20
152.608688
  0
VERTEX
  8
0
 10
217.804352
 20
157.706512
  0
VERTEX
  8
0
 10
216.347839
 20
152.608688
  0
SEQEND
  0
POLYLINE
  8
0
 62
     5
 66
     1
 70
     2
  0
VERTEX
  8
0
 10
216.347839
 20
84.804337
  0
VERTEX
  8
0
 10
217.804352
 20
79.706512
  0
VERTEX
  8
0
 10
219.260864
 20
84.804337
  0
SEQEND
  0
LINE
  8
0
 62
     5
 10
144.978271
 20
157.706512
 11
219.989136
 21
157.706512
  0
LINE
  8
0
 62
     5
 10
144.978271
 20
79.706512
 11
219.989136
 21
79.706512
  0
TEXT
  8
0
 62
     7
 10
216.347839
 20
110.149445
 40
7.282609
 41
1.000000
  1
%%c78
  7
KANJI
 50
90.000000
 51
0.000000
  0
LINE
  8
DASHDOT
 62
     7
 10
113.608696
 20
156.206512
 11
137.347824
 21
156.206512
  0
LINE
  8
DASHDOT
 62
     7
 10
113.608696
 20
81.206512
 11
137.347824
 21
81.206512
  0
LINE
  8
DASHDOT
 62
     7
 10
113.608696
 20
118.706512
 11
149.347824
 21
118.706512
  0
LINE
  8
0
 62
     5
 10
132.978271
 20
157.606506
 11
132.978271
 21
157.706512
  0
LINE
  8
0
 62
     5
 10
117.978264
 20
157.606506
 11
117.978264
 21
157.706512
  0
LINE
  8
0
 62
     5
 10
133.978271
 20
138.706512
 11
144.978271
 21
138.706512
  0
LINE
  8
0
 62
     5
 10
133.978271
 20
98.706512
 11
144.978271
 21
98.706512
  0
LINE
  8
0
 62
     5
 10
132.878265
 20
157.706512
 11
144.978271
 21
157.706512
  0
LINE
  8
0
 62
     5
 10
132.878265
 20
79.706512
 11
144.978271
 21
79.706512
  0
LINE
  8
0
 62
     4
 10
117.978264
 20
154.331512
 11
132.978271
 21
154.331512
  0
LINE
  8
0
 62
     4
 10
117.978264
 20
83.081512
 11
132.978271
 21
83.081512
  0
LINE
  8
0
 62
     4
 10
144.478271
 20
109.206512
 11
144.978271
 21
108.706512
  0
LINE
  8
0
 62
     4
 10
144.478271
 20
128.206512
 11
144.978271
 21
128.706512
  0
LINE
  8
0
 62
     4
 10
118.478264
 20
128.206512
 11
118.478264
 21
109.206512
  0
POLYLINE
  8
0
 62
     4
 66
     1
 70
     2
  0
VERTEX
  8
0
 10
117.978264
 20
108.706512
  0
VERTEX
  8
0
 10
118.478264
 20
109.206512
  0
VERTEX
  8
0
 10
144.478271
 20
109.206512
  0
VERTEX
  8
0
 10
144.478271
 20
128.206512
  0
VERTEX
  8
0
 10
118.478264
 20
128.206512
  0
VERTEX
  8
0
 10
117.978264
 20
128.706512
  0
SEQEND
  0
LINE
  8
0
 62
     5
 10
125.478264
 20
147.769012
 11
93.172417
 21
176.932953
  0
CIRCLE
  8
0
 62
     5
 10
125.478264
 20
147.769012
 40
0.436957
  0
CIRCLE
  8
0
 62
     5
 10
88.847832
 20
180.836945
 40
5.826087
  0
TEXT
  8
0
 62
     7
 10
84.963776
 20
176.952896
 40
7.768116
 41
1.000000
  1
1
  7
KANJI
 50
0.000000
 51
0.000000
  0
LINE
  8
0
 62
     5
 10
125.478264
 20
102.706512
 11
93.293259
 21
75.441902
  0
CIRCLE
  8
0
 62
     5
 10
125.478264
 20
102.706512
 40
0.436957
  0
CIRCLE
  8
0
 62
     5
 10
88.847832
 20
71.676079
 40
5.826087
  0
TEXT
  8
0
 62
     7
 10
84.963776
 20
67.792023
 40
7.768116
 41
1.000000
  1
2
  7
KANJI
 50
0.000000
 51
0.000000
  0
LINE
  8
0
 62
     4
 10
117.978264
 20
96.206512
 11
132.978271
 21
96.206512
  0
LINE
  8
0
 62
     4
 10
117.978264
 20
141.206512
 11
132.978271
 21
141.206512
  0
LINE
  8
0
 62
     5
 10
53.891304
 20
96.206512
 11
53.891304
 21
141.206512
  0
POLYLINE
  8
0
 62
     5
 66
     1
 70
     2
  0
VERTEX
  8
0
 10
52.434784
 20
101.304337
  0
VERTEX
  8
0
 10
53.891304
 20
96.206512
  0
VERTEX
  8
0
 10
55.347824
 20
101.304337
  0
SEQEND
  0
POLYLINE
  8
0
 62
     5
 66
     1
 70
     2
  0
VERTEX
  8
0
 10
55.347824
 20
136.108688
  0
VERTEX
  8
0
 10
53.891304
 20
141.206512
  0
VERTEX
  8
0
 10
52.434784
 20
136.108688
  0
SEQEND
  0
LINE
  8
0
 62
     5
 10
117.978264
 20
96.206512
 11
51.706520
 21
96.206512
  0
LINE
  8
0
 62
     5
 10
117.978264
 20
141.206512
 11
51.706520
 21
141.206512
  0
TEXT
  8
0
 62
     7
 10
50.978264
 20
110.149445
 40
7.282609
 41
1.000000
  1
%%c45
  7
KANJI
 50
90.000000
 51
0.000000
  0
ARC
  8
0
 62
     4
 10
133.978271
 20
139.706512
 40
1.000000
 50
180.0
 51
270.0
  0
ARC
  8
0
 62
     4
 10
133.978271
 20
97.706512
 40
1.000000
 50
90.0
 51
180.0
  0
LINE
  8
0
 62
     5
 10
144.978271
 20
138.206512
 11
144.978271
 21
157.706512
  0
LINE
  8
0
 62
     5
 10
117.978264
 20
197.032593
 11
132.978271
 21
197.032593
  0
POLYLINE
  8
0
 62
     5
 66
     1
 70
     2
  0
VERTEX
  8
0
 10
123.076088
 20
198.489120
  0
VERTEX
  8
0
 10
117.978264
 20
197.032593
  0
VERTEX
  8
0
 10
123.076088
 20
195.576080
  0
SEQEND
  0
POLYLINE
  8
0
 62
     5
 66
     1
 70
     2
  0
VERTEX
  8
0
 10
127.880440
 20
195.576080
  0
VERTEX
  8
0
 10
132.978271
 20
197.032593
  0
VERTEX
  8
0
 10
127.880440
 20
198.489120
  0
SEQEND
  0
LINE
  8
0
 62
     5
 10
132.978271
 20
157.706512
 11
132.978271
 21
199.217377
  0
TEXT
  8
0
 62
     7
 10
120.744568
 20
198.197815
 40
7.282609
 41
1.000000
  1
15
  7
KANJI
 50
0.000000
 51
0.000000
  0
LINE
  8
0
 62
     5
 10
117.978264
 20
208.684769
 11
144.978271
 21
208.684769
  0
POLYLINE
  8
0
 62
     5
 66
     1
 70
     2
  0
VERTEX
  8
0
 10
123.076088
 20
210.141296
  0
VERTEX
  8
0
 10
117.978264
 20
208.684769
  0
VERTEX
  8
0
 10
123.076088
 20
207.228241
  0
SEQEND
  0
POLYLINE
  8
0
 62
     5
 66
     1
 70
     2
  0
VERTEX
  8
0
 10
139.880432
 20
207.228241
  0
VERTEX
  8
0
 10
144.978271
 20
208.684769
  0
VERTEX
  8
0
 10
139.880432
 20
210.141296
  0
SEQEND
  0
LINE
  8
0
 62
     5
 10
117.978264
 20
157.706512
 11
117.978264
 21
210.869553
  0
LINE
  8
0
 62
     5
 10
144.978271
 20
157.706512
 11
144.978271
 21
210.869553
  0
TEXT
  8
0
 62
     7
 10
126.744568
 20
209.849976
 40
7.282609
 41
1.000000
  1
27
  7
KANJI
 50
0.000000
 51
0.000000
  0
LINE
  8
0
 62
     5
 10
153.717392
 20
197.032593
 11
124.239136
 21
197.032593
  0
POLYLINE
  8
0
 62
     5
 66
     1
 70
     2
  0
VERTEX
  8
0
 10
127.880440
 20
195.576080
  0
VERTEX
  8
0
 10
132.978271
 20
197.032593
  0
VERTEX
  8
0
 10
127.880440
 20
198.489120
  0
SEQEND
  0
POLYLINE
  8
0
 62
     5
 66
     1
 70
     2
  0
VERTEX
  8
0
 10
150.076080
 20
198.489120
  0
VERTEX
  8
0
 10
144.978271
 20
197.032593
  0
VERTEX
  8
0
 10
150.076080
 20
195.576080
  0
SEQEND
  0
TEXT
  8
0
 62
     7
 10
134.244568
 20
198.197815
 40
7.282609
 41
1.000000
  1
12
  7
KANJI
 50
0.000000
 51
0.000000
  0
LINE
  8
0
 62
     5
 10
206.152176
 20
138.706512
 11
206.152176
 21
98.706512
  0
POLYLINE
  8
0
 62
     5
 66
     1
 70
     2
  0
VERTEX
  8
0
 10
207.608704
 20
133.608688
  0
VERTEX
  8
0
 10
206.152176
 20
138.706512
  0
VERTEX
  8
0
 10
204.695648
 20
133.608688
  0
SEQEND
  0
POLYLINE
  8
0
 62
     5
 66
     1
 70
     2
  0
VERTEX
  8
0
 10
204.695648
 20
103.804337
  0
VERTEX
  8
0
 10
206.152176
 20
98.706512
  0
VERTEX
  8
0
 10
207.608704
 20
103.804337
  0
SEQEND
  0
LINE
  8
0
 62
     5
 10
144.978271
 20
138.706512
 11
208.336960
 21
138.706512
  0
LINE
  8
0
 62
     5
 10
144.978271
 20
98.706512
 11
208.336960
 21
98.706512
  0
TEXT
  8
0
 62
     7
 10
204.695648
 20
110.149445
 40
7.282609
 41
1.000000
  1
%%c40
  7
KANJI
 50
90.000000
 51
0.000000
  0
LINE
  8
DASHDOT
 62
     7
 10
278.586945
 20
145.989120
 11
278.586945
 21
94.336945
  0
LINE
  8
DASHDOT
 62
     7
 10
254.217407
 20
118.706512
 11
302.956512
 21
118.706512
  0
LINE
  8
0
 62
     5
 10
290.326080
 20
159.097809
 11
266.847809
 21
159.097809
  0
POLYLINE
  8
0
 62
     5
 66
     1
 70
     2
  0
VERTEX
  8
0
 10
270.489136
 20
157.641296
  0
VERTEX
  8
0
 10
275.586945
 20
159.097809
  0
VERTEX
  8
0
 10
270.489136
 20
160.554337
  0
SEQEND
  0
POLYLINE
  8
0
 62
     5
 66
     1
 70
     2
  0
VERTEX
  8
0
 10
286.684784
 20
160.554337
  0
VERTEX
  8
0
 10
281.586945
 20
159.097809
  0
VERTEX
  8
0
 10
286.684784
 20
157.641296
  0
SEQEND
  0
LINE
  8
0
 62
     5
 10
275.586945
 20
131.006516
 11
275.586945
 21
161.282593
  0
LINE
  8
0
 62
     5
 10
281.586945
 20
131.006516
 11
281.586945
 21
161.282593
  0
TEXT
  8
0
 62
     7
 10
263.554199
 20
160.554337
 40
7.282609
 41
1.000000
  1
6
  7
KANJI
 50
0.000000
 51
0.000000
  0
TEXT
  8
0
 62
     7
 10
270.763092
 20
160.554337
 40
5.826087
 41
1.000000
  1
%%p0.015
  7
KANJI
 50
0.000000
 51
0.000000
  0
LINE
  8
0
 62
     5
 10
320.434784
 20
100.467384
 11
320.434784
 21
139.745636
  0
POLYLINE
  8
0
 62
     5
 66
     1
 70
     2
  0
VERTEX
  8
0
 10
318.978241
 20
136.104340
  0
VERTEX
  8
0
 10
320.434784
 20
131.006516
  0
VERTEX
  8
0
 10
321.891296
 20
136.104340
  0
SEQEND
  0
POLYLINE
  8
0
 62
     5
 66
     1
 70
     2
  0
VERTEX
  8
0
 10
321.891296
 20
104.108688
  0
VERTEX
  8
0
 10
320.434784
 20
109.206512
  0
VERTEX
  8
0
 10
318.978241
 20
104.108688
  0
SEQEND
  0
LINE
  8
0
 62
     5
 10
281.586945
 20
131.006516
 11
322.619568
 21
131.006516
  0
LINE
  8
0
 62
     5
 10
278.586945
 20
109.206512
 11
322.619568
 21
109.206512
  0
TEXT
  8
0
 62
     7
 10
318.250000
 20
97.161186
 40
7.282609
 41
1.000000
  1
21.8
  7
KANJI
 50
90.000000
 51
0.000000
  0
TEXT
  8
0
 62
     7
 10
318.686951
 20
128.683197
 40
3.641304
 41
1.000000
  1
 
  7
KANJI
 50
90.000000
 51
0.000000
  0
TEXT
  8
0
 62
     7
 10
314.171722
 20
128.683197
 40
3.641304
 41
1.000000
  1
+
  7
KANJI
 50
90.000000
 51
0.000000
  0
TEXT
  8
0
 62
     7
 10
318.686951
 20
132.761459
 40
3.641304
 41
1.000000
  1
0
  7
KANJI
 50
90.000000
 51
0.000000
  0
TEXT
  8
0
 62
     7
 10
314.171722
 20
132.761459
 40
3.641304
 41
1.000000
  1
0.1
  7
KANJI
 50
90.000000
 51
0.000000
  0
ARC
  8
0
 62
     4
 10
278.586945
 20
118.706512
 40
9.500000
 50
108.4084803259778
 51
71.5915196740222
  0
POLYLINE
  8
0
 62
     4
 66
     1
 70
     2
  0
VERTEX
  8
0
 10
281.586945
 20
127.720390
  0
VERTEX
  8
0
 10
281.586945
 20
131.006516
  0
VERTEX
  8
0
 10
275.586945
 20
131.006516
  0
VERTEX
  8
0
 10
275.586945
 20
127.720390
  0
SEQEND
  0
LINE
  8
0
 62
     4
 10
117.978264
 20
131.006516
 11
144.978271
 21
131.006516
  0
POLYLINE
  8
DASHDOT
 62
     7
 66
     1
 70
     2
  0
VERTEX
  8
DASHDOT
 10
138.978271
 20
143.076080
  0
VERTEX
  8
DASHDOT
 10
138.978271
 20
126.636948
  0
SEQEND
  0
POLYLINE
  8
0
 62
     4
 66
     1
 70
     2
  0
VERTEX
  8
0
 10
141.478271
 20
138.706512
  0
VERTEX
  8
0
 10
141.478271
 20
131.006516
  0
SEQEND
  0
POLYLINE
  8
0
 62
     4
 66
     1
 70
     2
  0
VERTEX
  8
0
 10
136.478271
 20
138.706512
  0
VERTEX
  8
0
 10
136.478271
 20
131.006516
  0
SEQEND
  0
POLYLINE
  8
0
 62
     4
 66
     1
 70
     2
  0
VERTEX
  8
0
 10
141.043259
 20
138.706512
  0
VERTEX
  8
0
 10
141.043259
 20
131.006516
  0
SEQEND
  0
POLYLINE
  8
0
 62
     4
 66
     1
 70
     2
  0
VERTEX
  8
0
 10
136.913269
 20
138.706512
  0
VERTEX
  8
0
 10
136.913269
 20
131.006516
  0
SEQEND
  0
POLYLINE
  8
0
 62
     4
 66
     1
 70
     2
  0
VERTEX
  8
0
 10
276.086945
 20
131.006516
  0
VERTEX
  8
0
 10
276.086945
 20
138.549652
  0
SEQEND
  0
POLYLINE
  8
0
 62
     4
 66
     1
 70
     2
  0
VERTEX
  8
0
 10
281.086945
 20
131.006516
  0
VERTEX
  8
0
 10
281.086945
 20
138.549652
  0
SEQEND
  0
POLYLINE
  8
0
 62
     4
 66
     1
 70
     2
  0
VERTEX
  8
0
 10
276.521942
 20
131.006516
  0
VERTEX
  8
0
 10
276.521942
 20
138.599625
  0
SEQEND
  0
POLYLINE
  8
0
 62
     4
 66
     1
 70
     2
  0
VERTEX
  8
0
 10
280.651947
 20
131.006516
  0
VERTEX
  8
0
 10
280.651947
 20
138.599625
  0
SEQEND
  0
POLYLINE
  8
0
 62
     5
 66
     1
 70
     2
  0
VERTEX
  8
0
 10
278.586945
 20
138.706512
  0
VERTEX
  8
0
 10
252.369568
 20
182.402161
  0
VERTEX
  8
0
 10
268.391296
 20
182.402161
  0
SEQEND
  0
POLYLINE
  8
0
 62
     5
 66
     1
 70
     2
  0
VERTEX
  8
0
 10
274.715179
 20
142.328491
  0
VERTEX
  8
0
 10
278.586945
 20
138.706512
  0
VERTEX
  8
0
 10
277.213104
 20
143.827240
  0
SEQEND
  0
TEXT
  8
0
 62
     7
 10
253.826080
 20
183.858688
 40
6.991305
 41
1.000000
  1
M5
  7
KANJI
 50
0.000000
 51
0.000000
  0
CIRCLE
  8
0
 62
     7
 10
138.978271
 20
118.706512
 40
2.500000
  0
CIRCLE
  8
0
 62
     4
 10
138.978271
 20
118.706512
 40
2.065000
  0
POLYLINE
  8
DASHDOT
 62
     7
 66
     1
 70
     2
  0
VERTEX
  8
DASHDOT
 10
132.108704
 20
118.706512
  0
VERTEX
  8
DASHDOT
 10
145.847824
 20
118.706512
  0
SEQEND
  0
POLYLINE
  8
DASHDOT
 62
     7
 66
     1
 70
     2
  0
VERTEX
  8
DASHDOT
 10
138.978271
 20
111.836945
  0
VERTEX
  8
DASHDOT
 10
138.978271
 20
125.576080
  0
SEQEND
  0
LINE
  8
DASHDOT
 62
     7
 10
138.978271
 20
138.706512
 11
138.978271
 21
118.706512
  0
LINE
  8
0
 62
     5
 10
138.978271
 20
138.706512
 11
138.978271
 21
157.706512
  0
POLYLINE
  8
0
 62
     4
 66
     1
 70
     2
  0
VERTEX
  8
0
 10
287.752106
 20
121.206512
  0
VERTEX
  8
0
 10
298.430084
 20
121.206512
  0
SEQEND
  0
POLYLINE
  8
0
 62
     4
 66
     1
 70
     2
  0
VERTEX
  8
0
 10
287.752106
 20
116.206512
  0
VERTEX
  8
0
 10
298.430084
 20
116.206512
  0
SEQEND
  0
POLYLINE
  8
0
 62
     4
 66
     1
 70
     2
  0
VERTEX
  8
0
 10
287.859802
 20
120.771515
  0
VERTEX
  8
0
 10
298.480072
 20
120.771515
  0
SEQEND
  0
POLYLINE
  8
0
 62
     4
 66
     1
 70
     2
  0
VERTEX
  8
0
 10
287.859802
 20
116.641510
  0
VERTEX
  8
0
 10
298.480072
 20
116.641510
  0
SEQEND
  0
POLYLINE
  8
0
 62
     5
 66
     1
 70
     2
  0
VERTEX
  8
0
 10
298.586945
 20
118.706512
  0
VERTEX
  8
0
 10
320.434784
 20
170.750000
  0
VERTEX
  8
0
 10
299.169586
 20
170.750000
  0
SEQEND
  0
POLYLINE
  8
0
 62
     5
 66
     1
 70
     2
  0
VERTEX
  8
0
 10
299.217224
 20
123.970734
  0
VERTEX
  8
0
 10
298.586945
 20
118.706512
  0
VERTEX
  8
0
 10
301.903168
 20
122.843170
  0
SEQEND
  0
TEXT
  8
0
 62
     7
 10
302.082611
 20
172.206512
 40
6.991305
 41
1.000000
  1
M5
  7
KANJI
 50
0.000000
 51
0.000000
  0
LINE
  8
0
 62
     5
 10
182.847839
 20
128.206512
 11
182.847839
 21
109.206512
  0
POLYLINE
  8
0
 62
     5
 66
     1
 70
     2
  0
VERTEX
  8
0
 10
181.391312
 20
114.304337
  0
VERTEX
  8
0
 10
182.847839
 20
109.206512
  0
VERTEX
  8
0
 10
184.304352
 20
114.304337
  0
SEQEND
  0
LINE
  8
0
 62
     5
 10
144.978271
 20
109.206512
 11
185.032623
 21
109.206512
  0
TEXT
  8
0
 62
     7
 10
181.391312
 20
105.415756
 40
7.282609
 41
1.000000
  1
%%c19H7
  7
KANJI
 50
90.000000
 51
0.000000
  0
POLYLINE
  8
0
 62
     4
 66
     1
 70
     2
  0
VERTEX
  8
0
 10
117.978264
 20
108.706512
  0
VERTEX
  8
0
 10
117.978264
 20
79.806511
  0
VERTEX
  8
0
 10
118.078262
 20
79.706512
  0
VERTEX
  8
0
 10
132.878265
 20
79.706512
  0
VERTEX
  8
0
 10
132.978271
 20
79.806511
  0
VERTEX
  8
0
 10
132.978271
 20
97.706512
  0
SEQEND
  0
POLYLINE
  8
0
 62
     4
 66
     1
 70
     2
  0
VERTEX
  8
0
 10
133.978271
 20
98.706512
  0
VERTEX
  8
0
 10
144.478271
 20
98.706512
  0
VERTEX
  8
0
 10
144.978271
 20
99.206512
  0
VERTEX
  8
0
 10
144.978271
 20
138.206512
  0
VERTEX
  8
0
 10
144.478271
 20
138.706512
  0
VERTEX
  8
0
 10
133.978271
 20
138.706512
  0
SEQEND
  0
POLYLINE
  8
0
 62
     4
 66
     1
 70
     2
  0
VERTEX
  8
0
 10
132.978271
 20
139.706512
  0
VERTEX
  8
0
 10
132.978271
 20
157.606506
  0
VERTEX
  8
0
 10
132.878265
 20
157.706512
  0
VERTEX
  8
0
 10
118.078262
 20
157.706512
  0
VERTEX
  8
0
 10
117.978264
 20
157.606506
  0
VERTEX
  8
0
 10
117.978264
 20
108.706512
  0
SEQEND
  0
CIRCLE
  8
0
 62
     4
 10
278.586945
 20
118.706512
 40
20.000000
  0
LINE
  8
0
 62
     5
 10
153.717392
 20
164.989120
 11
130.239136
 21
164.989120
  0
POLYLINE
  8
0
 62
     5
 66
     1
 70
     2
  0
VERTEX
  8
0
 10
133.880432
 20
163.532593
  0
VERTEX
  8
0
 10
138.978271
 20
164.989120
  0
VERTEX
  8
0
 10
133.880432
 20
166.445648
  0
SEQEND
  0
POLYLINE
  8
0
 62
     5
 66
     1
 70
     2
  0
VERTEX
  8
0
 10
150.076080
 20
166.445648
  0
VERTEX
  8
0
 10
144.978271
 20
164.989120
  0
VERTEX
  8
0
 10
150.076080
 20
163.532593
  0
SEQEND
  0
LINE
  8
0
 62
     5
 10
138.978271
 20
157.706512
 11
138.978271
 21
167.173904
  0
TEXT
  8
0
 62
     7
 10
139.611420
 20
166.154343
 40
7.282609
 41
1.000000
  1
6
  7
KANJI
 50
0.000000
 51
0.000000
  0
LINE
  8
0
 62
     5
 10
138.978271
 20
138.706512
 11
138.978271
 21
157.706512
  0
ENDSEC
  0
EOF
