  0
SECTION
  2
HEADER
  9
$ACADVER
  1
AC1003
  9
$INSBASE
 10
0.000000
 20
0.000000
  9
$EXTMIN
 10
0.000000
 20
0.000000
  9
$EXTMAX
 10
171.486486
 20
118.581081
  9
$LIMMIN
 10
0.000000
 20
0.000000
  9
$LIMMAX
 10
171.486486
 20
118.581081
  9
$VIEWCTR
 10
85.743243
 20
59.290541
  9
$VIEWSIZE
 40
118.581081
  0
ENDSEC
  0
SECTION
  2
TABLES
  0
TABLE
  2
LTYPE
 70
     4
  0
LTYPE
  2
CONTINUOUS
 70
    64
  3
SolidLine
 72
    65
 73
     0
 40
0.0
  0
LTYPE
  2
HIDDEN
 70
    64
  3
------------------------
 72
    65
 73
     2
 40
1.824324
 49
1.216216
 49
-0.608108
  0
LTYPE
  2
DASHDOT
 70
    64
  3
--?--?--?--?--?--?--?--
 72
    65
 73
     4
 40
7.297297
 49
5.472973
 49
-0.608108
 49
0.608108
 49
-0.608108
  0
LTYPE
  2
DIVIDE
 70
    64
  3
--??--??--??--??--??--
 72
    65
 73
     6
 40
9.121622
 49
6.081081
 49
-0.608108
 49
0.608108
 49
-0.608108
 49
0.608108
 49
-0.608108
  0
ENDTAB
  0
TABLE
  2
LAYER
 70
     5
  0
LAYER
  2
0
 70
    64
 62
     7
  6
CONTINUOUS
  0
LAYER
  2
HIDDEN
 70
    64
 62
     2
  6
HIDDEN
  0
LAYER
  2
DASHDOT
 70
    64
 62
     6
  6
DASHDOT
  0
LAYER
  2
DIVIDE
 70
    64
 62
     5
  6
DIVIDE
  0
ENDTAB
  0
TABLE
  2
STYLE
 70
     1
  0
STYLE
  2
STANDARD
 70
    64
 40
0.0
 41
1.0
 50
0.0
 71
     0
 42
0.2
  3
TXT
  4

  0
STYLE
  2
KANJI
 70
    64
 40
0.0
 41
1.0
 50
0.0
 71
     0
 42
0.2
  3
TXT
  4
BIGFONT
  0
ENDTAB
  0
TABLE
  2
VIEW
 70
     0
  0
ENDTAB
  0
ENDSEC
  0
SECTION
  2
BLOCKS
  0
ENDSEC
  0
SECTION
  2
ENTITIES
  0
TEXT
  8
0
 62
     7
 10
6.081081
 20
6.689189
 40
2.432432
 41
1.000000
  1
KHK SI0.8-80
  7
KANJI
 50
0.000000
 51
0.000000
  0
TEXT
  8
0
 62
     7
 10
6.081081
 20
3.040540
 40
2.432432
 41
1.000000
  1

  7
KANJI
 50
0.000000
 51
0.000000
  0
TEXT
  8
0
 62
     7
 10
6.081081
 20
109.459457
 40
2.736486
 41
1.000000
  1
Black oxide
  7
KANJI
 50
0.000000
 51
0.000000
  0
POLYLINE
  8
0
 62
     7
 66
     1
 70
     2
  0
VERTEX
  8
0
 10
145.945953
 20
109.459457
  0
VERTEX
  8
0
 10
143.574326
 20
113.570267
  0
VERTEX
  8
0
 10
153.060822
 20
113.570267
  0
VERTEX
  8
0
 10
150.689194
 20
109.459457
  0
VERTEX
  8
0
 10
148.317581
 20
113.570267
  0
VERTEX
  8
0
 10
145.945953
 20
109.459457
  0
SEQEND
  0
LINE
  8
0
 62
     5
 10
87.310806
 20
86.841888
 11
87.310806
 21
24.441891
  0
POLYLINE
  8
0
 62
     5
 66
     1
 70
     2
  0
VERTEX
  8
0
 10
87.918915
 20
84.713516
  0
VERTEX
  8
0
 10
87.310806
 20
86.841888
  0
VERTEX
  8
0
 10
86.702698
 20
84.713516
  0
SEQEND
  0
POLYLINE
  8
0
 62
     5
 66
     1
 70
     2
  0
VERTEX
  8
0
 10
86.702698
 20
26.570269
  0
VERTEX
  8
0
 10
87.310806
 20
24.441891
  0
VERTEX
  8
0
 10
87.918915
 20
26.570269
  0
SEQEND
  0
LINE
  8
0
 62
     5
 10
70.891891
 20
86.841888
 11
88.222977
 21
86.841888
  0
LINE
  8
0
 62
     5
 10
70.891891
 20
24.441891
 11
88.222977
 21
24.441891
  0
TEXT
  8
0
 62
     7
 10
86.702698
 20
50.092903
 40
3.040541
 41
1.000000
  1
%%c62.4
  7
KANJI
 50
90.000000
 51
0.000000
  0
LINE
  8
0
 62
     5
 10
62.891891
 20
109.463516
 11
70.891891
 21
109.463516
  0
POLYLINE
  8
0
 62
     5
 66
     1
 70
     2
  0
VERTEX
  8
0
 10
65.020271
 20
110.071625
  0
VERTEX
  8
0
 10
62.891891
 20
109.463516
  0
VERTEX
  8
0
 10
65.020271
 20
108.855408
  0
SEQEND
  0
POLYLINE
  8
0
 62
     5
 66
     1
 70
     2
  0
VERTEX
  8
0
 10
68.763512
 20
108.855408
  0
VERTEX
  8
0
 10
70.891891
 20
109.463516
  0
VERTEX
  8
0
 10
68.763512
 20
110.071625
  0
SEQEND
  0
LINE
  8
0
 62
     5
 10
62.891891
 20
100.341888
 11
62.891891
 21
110.375679
  0
LINE
  8
0
 62
     5
 10
70.891891
 20
100.341888
 11
70.891891
 21
110.375679
  0
TEXT
  8
0
 62
     7
 10
65.903717
 20
109.950005
 40
3.040541
 41
1.000000
  1
8
  7
KANJI
 50
0.000000
 51
0.000000
  0
LINE
  8
DASHDOT
 62
     7
 10
61.067566
 20
55.641891
 11
72.716217
 21
55.641891
  0
LINE
  8
0
 62
     4
 10
62.891891
 20
88.641891
 11
70.891891
 21
88.641891
  0
LINE
  8
0
 62
     4
 10
62.891891
 20
22.641891
 11
70.891891
 21
22.641891
  0
LINE
  8
0
 62
     4
 10
70.891891
 20
87.141891
 11
70.591888
 21
86.841888
  0
LINE
  8
0
 62
     4
 10
70.891891
 20
24.141891
 11
70.591888
 21
24.441891
  0
LINE
  8
0
 62
     4
 10
62.891891
 20
24.141891
 11
63.191891
 21
24.441891
  0
POLYLINE
  8
0
 62
     4
 66
     1
 70
     2
  0
VERTEX
  8
0
 10
62.891891
 20
87.141891
  0
VERTEX
  8
0
 10
63.191891
 20
86.841888
  0
VERTEX
  8
0
 10
63.191891
 20
24.441891
  0
VERTEX
  8
0
 10
70.591888
 20
24.441891
  0
VERTEX
  8
0
 10
70.591888
 20
86.841888
  0
VERTEX
  8
0
 10
63.191891
 20
86.841888
  0
SEQEND
  0
POLYLINE
  8
0
 62
     4
 66
     1
 70
     2
  0
VERTEX
  8
0
 10
62.891891
 20
24.141891
  0
VERTEX
  8
0
 10
62.891891
 20
10.941891
  0
VERTEX
  8
0
 10
63.191891
 20
10.641891
  0
VERTEX
  8
0
 10
70.591888
 20
10.641891
  0
VERTEX
  8
0
 10
70.891891
 20
10.941891
  0
VERTEX
  8
0
 10
70.891891
 20
100.341888
  0
VERTEX
  8
0
 10
70.591888
 20
100.641891
  0
VERTEX
  8
0
 10
63.191891
 20
100.641891
  0
VERTEX
  8
0
 10
62.891891
 20
100.341888
  0
VERTEX
  8
0
 10
62.891891
 20
24.141891
  0
SEQEND
  0
LINE
  8
DASHDOT
 62
     7
 10
61.067566
 20
87.641891
 11
72.716217
 21
87.641891
  0
LINE
  8
DASHDOT
 62
     7
 10
61.067566
 20
23.641891
 11
72.716217
 21
23.641891
  0
LINE
  8
0
 62
     5
 10
101.605408
 20
100.641891
 11
101.605408
 21
10.641891
  0
POLYLINE
  8
0
 62
     5
 66
     1
 70
     2
  0
VERTEX
  8
0
 10
102.213516
 20
98.513512
  0
VERTEX
  8
0
 10
101.605408
 20
100.641891
  0
VERTEX
  8
0
 10
100.997299
 20
98.513512
  0
SEQEND
  0
POLYLINE
  8
0
 62
     5
 66
     1
 70
     2
  0
VERTEX
  8
0
 10
100.997299
 20
12.770271
  0
VERTEX
  8
0
 10
101.605408
 20
10.641891
  0
VERTEX
  8
0
 10
102.213516
 20
12.770271
  0
SEQEND
  0
LINE
  8
0
 62
     5
 10
70.591888
 20
100.641891
 11
102.517563
 21
100.641891
  0
LINE
  8
0
 62
     5
 10
70.591888
 20
10.641891
 11
102.517563
 21
10.641891
  0
TEXT
  8
0
 62
     7
 10
100.997299
 20
52.069256
 40
3.040541
 41
1.000000
  1
%%c90
  7
KANJI
 50
90.000000
 51
0.000000
  0
ENDSEC
  0
EOF
