  0
SECTION
  2
HEADER
  9
$ACADVER
  1
AC1003
  9
$INSBASE
 10
0.000000
 20
0.000000
  9
$EXTMIN
 10
0.000000
 20
0.000000
  9
$EXTMAX
 10
285.810811
 20
197.635135
  9
$LIMMIN
 10
0.000000
 20
0.000000
  9
$LIMMAX
 10
285.810811
 20
197.635135
  9
$VIEWCTR
 10
142.905405
 20
98.817568
  9
$VIEWSIZE
 40
197.635135
  0
ENDSEC
  0
SECTION
  2
TABLES
  0
TABLE
  2
LTYPE
 70
     4
  0
LTYPE
  2
CONTINUOUS
 70
    64
  3
SolidLine
 72
    65
 73
     0
 40
0.0
  0
LTYPE
  2
HIDDEN
 70
    64
  3
------------------------
 72
    65
 73
     2
 40
3.040541
 49
2.027027
 49
-1.013514
  0
LTYPE
  2
DASHDOT
 70
    64
  3
--?--?--?--?--?--?--?--
 72
    65
 73
     4
 40
12.162162
 49
9.121622
 49
-1.013514
 49
1.013514
 49
-1.013514
  0
LTYPE
  2
DIVIDE
 70
    64
  3
--??--??--??--??--??--
 72
    65
 73
     6
 40
15.202703
 49
10.135135
 49
-1.013514
 49
1.013514
 49
-1.013514
 49
1.013514
 49
-1.013514
  0
ENDTAB
  0
TABLE
  2
LAYER
 70
     5
  0
LAYER
  2
0
 70
    64
 62
     7
  6
CONTINUOUS
  0
LAYER
  2
HIDDEN
 70
    64
 62
     2
  6
HIDDEN
  0
LAYER
  2
DASHDOT
 70
    64
 62
     6
  6
DASHDOT
  0
LAYER
  2
DIVIDE
 70
    64
 62
     5
  6
DIVIDE
  0
ENDTAB
  0
TABLE
  2
STYLE
 70
     1
  0
STYLE
  2
STANDARD
 70
    64
 40
0.0
 41
1.0
 50
0.0
 71
     0
 42
0.2
  3
TXT
  4

  0
STYLE
  2
KANJI
 70
    64
 40
0.0
 41
1.0
 50
0.0
 71
     0
 42
0.2
  3
TXT
  4
BIGFONT
  0
ENDTAB
  0
TABLE
  2
VIEW
 70
     0
  0
ENDTAB
  0
ENDSEC
  0
SECTION
  2
BLOCKS
  0
ENDSEC
  0
SECTION
  2
ENTITIES
  0
TEXT
  8
0
 62
     7
 10
10.135135
 20
11.148648
 40
4.054054
 41
1.000000
  1
KHK SI2-50
  7
KANJI
 50
0.000000
 51
0.000000
  0
TEXT
  8
0
 62
     7
 10
10.135135
 20
5.067567
 40
4.054054
 41
1.000000
  1

  7
KANJI
 50
0.000000
 51
0.000000
  0
TEXT
  8
0
 62
     7
 10
10.135135
 20
182.432434
 40
4.560811
 41
1.000000
  1
Black oxide
  7
KANJI
 50
0.000000
 51
0.000000
  0
POLYLINE
  8
0
 62
     7
 66
     1
 70
     2
  0
VERTEX
  8
0
 10
243.243240
 20
182.432434
  0
VERTEX
  8
0
 10
239.290543
 20
189.283783
  0
VERTEX
  8
0
 10
255.101349
 20
189.283783
  0
VERTEX
  8
0
 10
251.148651
 20
182.432434
  0
VERTEX
  8
0
 10
247.195938
 20
189.283783
  0
VERTEX
  8
0
 10
243.243240
 20
182.432434
  0
SEQEND
  0
LINE
  8
0
 62
     5
 10
148.851364
 20
140.736481
 11
148.851364
 21
44.736481
  0
POLYLINE
  8
0
 62
     5
 66
     1
 70
     2
  0
VERTEX
  8
0
 10
149.864868
 20
137.189178
  0
VERTEX
  8
0
 10
148.851364
 20
140.736481
  0
VERTEX
  8
0
 10
147.837845
 20
137.189178
  0
SEQEND
  0
POLYLINE
  8
0
 62
     5
 66
     1
 70
     2
  0
VERTEX
  8
0
 10
147.837845
 20
48.283779
  0
VERTEX
  8
0
 10
148.851364
 20
44.736481
  0
VERTEX
  8
0
 10
149.864868
 20
48.283779
  0
SEQEND
  0
LINE
  8
0
 62
     5
 10
121.486496
 20
140.736481
 11
150.371628
 21
140.736481
  0
LINE
  8
0
 62
     5
 10
121.486496
 20
44.736481
 11
150.371628
 21
44.736481
  0
TEXT
  8
0
 62
     7
 10
147.837845
 20
86.782089
 40
5.067568
 41
1.000000
  1
%%c96
  7
KANJI
 50
90.000000
 51
0.000000
  0
LINE
  8
0
 62
     5
 10
101.486496
 20
182.139191
 11
121.486496
 21
182.139191
  0
POLYLINE
  8
0
 62
     5
 66
     1
 70
     2
  0
VERTEX
  8
0
 10
105.033791
 20
183.152695
  0
VERTEX
  8
0
 10
101.486496
 20
182.139191
  0
VERTEX
  8
0
 10
105.033791
 20
181.125671
  0
SEQEND
  0
POLYLINE
  8
0
 62
     5
 66
     1
 70
     2
  0
VERTEX
  8
0
 10
117.939201
 20
181.125671
  0
VERTEX
  8
0
 10
121.486496
 20
182.139191
  0
VERTEX
  8
0
 10
117.939201
 20
183.152695
  0
SEQEND
  0
LINE
  8
0
 62
     5
 10
101.486496
 20
166.936478
 11
101.486496
 21
183.659454
  0
LINE
  8
0
 62
     5
 10
121.486496
 20
166.936478
 11
121.486496
 21
183.659454
  0
TEXT
  8
0
 62
     7
 10
108.192574
 20
182.949997
 40
5.067568
 41
1.000000
  1
20
  7
KANJI
 50
0.000000
 51
0.000000
  0
LINE
  8
DASHDOT
 62
     7
 10
98.445953
 20
92.736481
 11
124.527039
 21
92.736481
  0
LINE
  8
0
 62
     4
 10
101.486496
 20
145.236481
 11
121.486496
 21
145.236481
  0
LINE
  8
0
 62
     4
 10
101.486496
 20
40.236481
 11
121.486496
 21
40.236481
  0
LINE
  8
0
 62
     4
 10
121.486496
 20
141.536484
 11
120.686493
 21
140.736481
  0
LINE
  8
0
 62
     4
 10
121.486496
 20
43.936481
 11
120.686493
 21
44.736481
  0
LINE
  8
0
 62
     4
 10
101.486496
 20
43.936481
 11
102.286499
 21
44.736481
  0
POLYLINE
  8
0
 62
     4
 66
     1
 70
     2
  0
VERTEX
  8
0
 10
101.486496
 20
141.536484
  0
VERTEX
  8
0
 10
102.286499
 20
140.736481
  0
VERTEX
  8
0
 10
102.286499
 20
44.736481
  0
VERTEX
  8
0
 10
120.686493
 20
44.736481
  0
VERTEX
  8
0
 10
120.686493
 20
140.736481
  0
VERTEX
  8
0
 10
102.286499
 20
140.736481
  0
SEQEND
  0
POLYLINE
  8
0
 62
     4
 66
     1
 70
     2
  0
VERTEX
  8
0
 10
101.486496
 20
43.936481
  0
VERTEX
  8
0
 10
101.486496
 20
18.536484
  0
VERTEX
  8
0
 10
102.286499
 20
17.736481
  0
VERTEX
  8
0
 10
120.686493
 20
17.736481
  0
VERTEX
  8
0
 10
121.486496
 20
18.536484
  0
VERTEX
  8
0
 10
121.486496
 20
166.936478
  0
VERTEX
  8
0
 10
120.686493
 20
167.736481
  0
VERTEX
  8
0
 10
102.286499
 20
167.736481
  0
VERTEX
  8
0
 10
101.486496
 20
166.936478
  0
VERTEX
  8
0
 10
101.486496
 20
43.936481
  0
SEQEND
  0
LINE
  8
DASHDOT
 62
     7
 10
98.445953
 20
142.736481
 11
124.527039
 21
142.736481
  0
LINE
  8
DASHDOT
 62
     7
 10
98.445953
 20
42.736481
 11
124.527039
 21
42.736481
  0
LINE
  8
0
 62
     5
 10
172.375687
 20
167.736481
 11
172.375687
 21
17.736481
  0
POLYLINE
  8
0
 62
     5
 66
     1
 70
     2
  0
VERTEX
  8
0
 10
173.389191
 20
164.189178
  0
VERTEX
  8
0
 10
172.375687
 20
167.736481
  0
VERTEX
  8
0
 10
171.362183
 20
164.189178
  0
SEQEND
  0
POLYLINE
  8
0
 62
     5
 66
     1
 70
     2
  0
VERTEX
  8
0
 10
171.362183
 20
21.283775
  0
VERTEX
  8
0
 10
172.375687
 20
17.736481
  0
VERTEX
  8
0
 10
173.389191
 20
21.283775
  0
SEQEND
  0
LINE
  8
0
 62
     5
 10
120.686493
 20
167.736481
 11
173.895966
 21
167.736481
  0
LINE
  8
0
 62
     5
 10
120.686493
 20
17.736481
 11
173.895966
 21
17.736481
  0
TEXT
  8
0
 62
     7
 10
171.362183
 20
85.135132
 40
5.067568
 41
1.000000
  1
%%c150
  7
KANJI
 50
90.000000
 51
0.000000
  0
ENDSEC
  0
EOF
