  0
SECTION
  2
HEADER
  9
$ACADVER
  1
AC1003
  9
$INSBASE
 10
0.000000
 20
0.000000
  9
$EXTMIN
 10
0.000000
 20
0.000000
  9
$EXTMAX
 10
495.405405
 20
342.567568
  9
$LIMMIN
 10
0.000000
 20
0.000000
  9
$LIMMAX
 10
495.405405
 20
342.567568
  9
$VIEWCTR
 10
247.702703
 20
171.283784
  9
$VIEWSIZE
 40
342.567568
  0
ENDSEC
  0
SECTION
  2
TABLES
  0
TABLE
  2
LTYPE
 70
     4
  0
LTYPE
  2
CONTINUOUS
 70
    64
  3
SolidLine
 72
    65
 73
     0
 40
0.0
  0
LTYPE
  2
HIDDEN
 70
    64
  3
------------------------
 72
    65
 73
     2
 40
5.270270
 49
3.513514
 49
-1.756757
  0
LTYPE
  2
DASHDOT
 70
    64
  3
--?--?--?--?--?--?--?--
 72
    65
 73
     4
 40
21.081081
 49
15.810811
 49
-1.756757
 49
1.756757
 49
-1.756757
  0
LTYPE
  2
DIVIDE
 70
    64
  3
--??--??--??--??--??--
 72
    65
 73
     6
 40
26.351351
 49
17.567568
 49
-1.756757
 49
1.756757
 49
-1.756757
 49
1.756757
 49
-1.756757
  0
ENDTAB
  0
TABLE
  2
LAYER
 70
     5
  0
LAYER
  2
0
 70
    64
 62
     7
  6
CONTINUOUS
  0
LAYER
  2
HIDDEN
 70
    64
 62
     2
  6
HIDDEN
  0
LAYER
  2
DASHDOT
 70
    64
 62
     6
  6
DASHDOT
  0
LAYER
  2
DIVIDE
 70
    64
 62
     5
  6
DIVIDE
  0
ENDTAB
  0
TABLE
  2
STYLE
 70
     1
  0
STYLE
  2
STANDARD
 70
    64
 40
0.0
 41
1.0
 50
0.0
 71
     0
 42
0.2
  3
TXT
  4

  0
STYLE
  2
KANJI
 70
    64
 40
0.0
 41
1.0
 50
0.0
 71
     0
 42
0.2
  3
TXT
  4
BIGFONT
  0
ENDTAB
  0
TABLE
  2
VIEW
 70
     0
  0
ENDTAB
  0
ENDSEC
  0
SECTION
  2
BLOCKS
  0
ENDSEC
  0
SECTION
  2
ENTITIES
  0
TEXT
  8
0
 62
     7
 10
17.567568
 20
19.324324
 40
7.027027
 41
1.000000
  1
KHK SI2.5-80
  7
KANJI
 50
0.000000
 51
0.000000
  0
TEXT
  8
0
 62
     7
 10
17.567568
 20
8.783784
 40
7.027027
 41
1.000000
  1

  7
KANJI
 50
0.000000
 51
0.000000
  0
TEXT
  8
0
 62
     7
 10
17.567568
 20
316.216217
 40
7.905405
 41
1.000000
  1
Black oxide
  7
KANJI
 50
0.000000
 51
0.000000
  0
POLYLINE
  8
0
 62
     7
 66
     1
 70
     2
  0
VERTEX
  8
0
 10
421.621613
 20
316.216217
  0
VERTEX
  8
0
 10
414.770264
 20
328.091888
  0
VERTEX
  8
0
 10
442.175659
 20
328.091888
  0
VERTEX
  8
0
 10
435.324310
 20
316.216217
  0
VERTEX
  8
0
 10
428.472961
 20
328.091888
  0
VERTEX
  8
0
 10
421.621613
 20
316.216217
  0
SEQEND
  0
LINE
  8
0
 62
     5
 10
253.175659
 20
258.243225
 11
253.175659
 21
63.243240
  0
POLYLINE
  8
0
 62
     5
 66
     1
 70
     2
  0
VERTEX
  8
0
 10
254.932419
 20
252.094589
  0
VERTEX
  8
0
 10
253.175659
 20
258.243225
  0
VERTEX
  8
0
 10
251.418900
 20
252.094589
  0
SEQEND
  0
POLYLINE
  8
0
 62
     5
 66
     1
 70
     2
  0
VERTEX
  8
0
 10
251.418900
 20
69.391891
  0
VERTEX
  8
0
 10
253.175659
 20
63.243240
  0
VERTEX
  8
0
 10
254.932419
 20
69.391891
  0
SEQEND
  0
LINE
  8
0
 62
     5
 10
205.743225
 20
258.243225
 11
255.810791
 21
258.243225
  0
LINE
  8
0
 62
     5
 10
205.743225
 20
63.243240
 11
255.810791
 21
63.243240
  0
TEXT
  8
0
 62
     7
 10
251.418900
 20
147.567566
 40
8.783784
 41
1.000000
  1
%%c195
  7
KANJI
 50
90.000000
 51
0.000000
  0
LINE
  8
0
 62
     5
 10
180.743225
 20
316.094604
 11
205.743225
 21
316.094604
  0
POLYLINE
  8
0
 62
     5
 66
     1
 70
     2
  0
VERTEX
  8
0
 10
186.891876
 20
317.851349
  0
VERTEX
  8
0
 10
180.743225
 20
316.094604
  0
VERTEX
  8
0
 10
186.891876
 20
314.337830
  0
SEQEND
  0
POLYLINE
  8
0
 62
     5
 66
     1
 70
     2
  0
VERTEX
  8
0
 10
199.594574
 20
314.337830
  0
VERTEX
  8
0
 10
205.743225
 20
316.094604
  0
VERTEX
  8
0
 10
199.594574
 20
317.851349
  0
SEQEND
  0
LINE
  8
0
 62
     5
 10
180.743225
 20
289.743225
 11
180.743225
 21
318.729736
  0
LINE
  8
0
 62
     5
 10
205.743225
 20
289.743225
 11
205.743225
 21
318.729736
  0
TEXT
  8
0
 62
     7
 10
187.533768
 20
317.500000
 40
8.783784
 41
1.000000
  1
25
  7
KANJI
 50
0.000000
 51
0.000000
  0
LINE
  8
DASHDOT
 62
     7
 10
175.472961
 20
160.743240
 11
211.013489
 21
160.743240
  0
LINE
  8
0
 62
     4
 10
180.743225
 20
263.868225
 11
205.743225
 21
263.868225
  0
LINE
  8
0
 62
     4
 10
180.743225
 20
57.618240
 11
205.743225
 21
57.618240
  0
LINE
  8
0
 62
     4
 10
205.743225
 20
259.243225
 11
204.743225
 21
258.243225
  0
LINE
  8
0
 62
     4
 10
205.743225
 20
62.243240
 11
204.743225
 21
63.243240
  0
LINE
  8
0
 62
     4
 10
180.743225
 20
62.243240
 11
181.743225
 21
63.243240
  0
POLYLINE
  8
0
 62
     4
 66
     1
 70
     2
  0
VERTEX
  8
0
 10
180.743225
 20
259.243225
  0
VERTEX
  8
0
 10
181.743225
 20
258.243225
  0
VERTEX
  8
0
 10
181.743225
 20
63.243240
  0
VERTEX
  8
0
 10
204.743225
 20
63.243240
  0
VERTEX
  8
0
 10
204.743225
 20
258.243225
  0
VERTEX
  8
0
 10
181.743225
 20
258.243225
  0
SEQEND
  0
POLYLINE
  8
0
 62
     4
 66
     1
 70
     2
  0
VERTEX
  8
0
 10
180.743225
 20
62.243240
  0
VERTEX
  8
0
 10
180.743225
 20
31.743240
  0
VERTEX
  8
0
 10
181.743225
 20
30.743240
  0
VERTEX
  8
0
 10
204.743225
 20
30.743240
  0
VERTEX
  8
0
 10
205.743225
 20
31.743240
  0
VERTEX
  8
0
 10
205.743225
 20
289.743225
  0
VERTEX
  8
0
 10
204.743225
 20
290.743225
  0
VERTEX
  8
0
 10
181.743225
 20
290.743225
  0
VERTEX
  8
0
 10
180.743225
 20
289.743225
  0
VERTEX
  8
0
 10
180.743225
 20
62.243240
  0
SEQEND
  0
LINE
  8
DASHDOT
 62
     7
 10
175.472961
 20
260.743225
 11
211.013489
 21
260.743225
  0
LINE
  8
DASHDOT
 62
     7
 10
175.472961
 20
60.743240
 11
211.013489
 21
60.743240
  0
LINE
  8
0
 62
     5
 10
294.337830
 20
290.743225
 11
294.337830
 21
30.743240
  0
POLYLINE
  8
0
 62
     5
 66
     1
 70
     2
  0
VERTEX
  8
0
 10
296.094574
 20
284.594604
  0
VERTEX
  8
0
 10
294.337830
 20
290.743225
  0
VERTEX
  8
0
 10
292.581055
 20
284.594604
  0
SEQEND
  0
POLYLINE
  8
0
 62
     5
 66
     1
 70
     2
  0
VERTEX
  8
0
 10
292.581055
 20
36.891891
  0
VERTEX
  8
0
 10
294.337830
 20
30.743240
  0
VERTEX
  8
0
 10
296.094574
 20
36.891891
  0
SEQEND
  0
LINE
  8
0
 62
     5
 10
204.743225
 20
290.743225
 11
296.972961
 21
290.743225
  0
LINE
  8
0
 62
     5
 10
204.743225
 20
30.743240
 11
296.972961
 21
30.743240
  0
TEXT
  8
0
 62
     7
 10
292.581055
 20
147.567566
 40
8.783784
 41
1.000000
  1
%%c260
  7
KANJI
 50
90.000000
 51
0.000000
  0
ENDSEC
  0
EOF
