  0
SECTION
  2
HEADER
  9
$ACADVER
  1
AC1003
  9
$INSBASE
 10
0.000000
 20
0.000000
  9
$EXTMIN
 10
0.000000
 20
0.000000
  9
$EXTMAX
 10
398.478261
 20
275.543478
  9
$LIMMIN
 10
0.000000
 20
0.000000
  9
$LIMMAX
 10
398.478261
 20
275.543478
  9
$VIEWCTR
 10
199.239130
 20
137.771739
  9
$VIEWSIZE
 40
275.543478
  0
ENDSEC
  0
SECTION
  2
TABLES
  0
TABLE
  2
LTYPE
 70
     4
  0
LTYPE
  2
CONTINUOUS
 70
    64
  3
SolidLine
 72
    65
 73
     0
 40
0.0
  0
LTYPE
  2
HIDDEN
 70
    64
  3
------------------------
 72
    65
 73
     2
 40
4.239130
 49
2.826087
 49
-1.413043
  0
LTYPE
  2
DASHDOT
 70
    64
  3
--?--?--?--?--?--?--?--
 72
    65
 73
     4
 40
16.956522
 49
12.717391
 49
-1.413043
 49
1.413043
 49
-1.413043
  0
LTYPE
  2
DIVIDE
 70
    64
  3
--??--??--??--??--??--
 72
    65
 73
     6
 40
21.195652
 49
14.130435
 49
-1.413043
 49
1.413043
 49
-1.413043
 49
1.413043
 49
-1.413043
  0
ENDTAB
  0
TABLE
  2
LAYER
 70
     5
  0
LAYER
  2
0
 70
    64
 62
     7
  6
CONTINUOUS
  0
LAYER
  2
HIDDEN
 70
    64
 62
     2
  6
HIDDEN
  0
LAYER
  2
DASHDOT
 70
    64
 62
     6
  6
DASHDOT
  0
LAYER
  2
DIVIDE
 70
    64
 62
     5
  6
DIVIDE
  0
ENDTAB
  0
TABLE
  2
STYLE
 70
     1
  0
STYLE
  2
STANDARD
 70
    64
 40
0.0
 41
1.0
 50
0.0
 71
     0
 42
0.2
  3
TXT
  4

  0
STYLE
  2
KANJI
 70
    64
 40
0.0
 41
1.0
 50
0.0
 71
     0
 42
0.2
  3
TXT
  4
BIGFONT
  0
ENDTAB
  0
TABLE
  2
VIEW
 70
     0
  0
ENDTAB
  0
ENDSEC
  0
SECTION
  2
BLOCKS
  0
ENDSEC
  0
SECTION
  2
ENTITIES
  0
TEXT
  8
0
 62
     7
 10
14.130435
 20
15.543478
 40
5.652174
 41
1.000000
  1
KHK SN1.5-26LJ12
  7
KANJI
 50
0.000000
 51
0.000000
  0
TEXT
  8
0
 62
     7
 10
14.130435
 20
7.065217
 40
5.652174
 41
1.000000
  1
The precision grade of gears after secondary operations is equivalent but not identical to its original grade.
  7
KANJI
 50
0.000000
 51
0.000000
  0
TEXT
  8
0
 62
     7
 10
14.130435
 20
254.347824
 40
6.358696
 41
1.000000
  1
For J Series products, without black oxide repeatedly applied on secondary-operated parts.
  7
KANJI
 50
0.000000
 51
0.000000
  0
POLYLINE
  8
0
 62
     7
 66
     1
 70
     2
  0
VERTEX
  8
0
 10
339.130432
 20
254.347824
  0
VERTEX
  8
0
 10
333.619568
 20
263.899994
  0
VERTEX
  8
0
 10
355.663025
 20
263.899994
  0
VERTEX
  8
0
 10
350.152161
 20
254.347824
  0
VERTEX
  8
0
 10
344.641296
 20
263.899994
  0
VERTEX
  8
0
 10
339.130432
 20
254.347824
  0
SEQEND
  0
LINE
  8
0
 62
     5
 10
210.108704
 20
144.240219
 11
210.108704
 21
86.085884
  0
POLYLINE
  8
0
 62
     5
 66
     1
 70
     2
  0
VERTEX
  8
0
 10
211.521744
 20
139.294556
  0
VERTEX
  8
0
 10
210.108704
 20
144.240219
  0
VERTEX
  8
0
 10
208.695663
 20
139.294556
  0
SEQEND
  0
POLYLINE
  8
0
 62
     5
 66
     1
 70
     2
  0
VERTEX
  8
0
 10
208.695663
 20
91.031532
  0
VERTEX
  8
0
 10
210.108704
 20
86.085884
  0
VERTEX
  8
0
 10
211.521744
 20
91.031532
  0
SEQEND
  0
LINE
  8
0
 62
     5
 10
139.456528
 20
144.240219
 11
212.228271
 21
144.240219
  0
LINE
  8
0
 62
     5
 10
139.456528
 20
86.085884
 11
212.228271
 21
86.085884
  0
TEXT
  8
0
 62
     7
 10
208.695663
 20
99.972832
 40
7.065217
 41
1.000000
  1
%%c58.15
  7
KANJI
 50
90.000000
 51
0.000000
  0
LINE
  8
DASHDOT
 62
     7
 10
110.217400
 20
142.740219
 11
133.695663
 21
142.740219
  0
LINE
  8
DASHDOT
 62
     7
 10
110.217400
 20
87.585884
 11
133.695663
 21
87.585884
  0
LINE
  8
DASHDOT
 62
     7
 10
110.217400
 20
115.163048
 11
143.695663
 21
115.163048
  0
LINE
  8
0
 62
     5
 10
129.456528
 20
143.740219
 11
129.456528
 21
144.240219
  0
LINE
  8
0
 62
     5
 10
114.456528
 20
143.740219
 11
114.456528
 21
144.240219
  0
LINE
  8
0
 62
     5
 10
130.456528
 20
135.163055
 11
139.456528
 21
135.163055
  0
LINE
  8
0
 62
     5
 10
130.456528
 20
95.163048
 11
139.456528
 21
95.163048
  0
LINE
  8
0
 62
     5
 10
128.956528
 20
144.240219
 11
139.456528
 21
144.240219
  0
LINE
  8
0
 62
     5
 10
128.956528
 20
86.085884
 11
139.456528
 21
86.085884
  0
LINE
  8
0
 62
     4
 10
114.456528
 20
140.865219
 11
129.456528
 21
140.865219
  0
LINE
  8
0
 62
     4
 10
114.456528
 20
89.460884
 11
129.456528
 21
89.460884
  0
LINE
  8
0
 62
     4
 10
138.956528
 20
109.163048
 11
139.456528
 21
108.663048
  0
LINE
  8
0
 62
     4
 10
138.956528
 20
121.163048
 11
139.456528
 21
121.663048
  0
LINE
  8
0
 62
     4
 10
114.956528
 20
121.163048
 11
114.956528
 21
109.163048
  0
POLYLINE
  8
0
 62
     4
 66
     1
 70
     2
  0
VERTEX
  8
0
 10
114.456528
 20
108.663048
  0
VERTEX
  8
0
 10
114.956528
 20
109.163048
  0
VERTEX
  8
0
 10
138.956528
 20
109.163048
  0
VERTEX
  8
0
 10
138.956528
 20
121.163048
  0
VERTEX
  8
0
 10
114.956528
 20
121.163048
  0
VERTEX
  8
0
 10
114.456528
 20
121.663048
  0
SEQEND
  0
ARC
  8
0
 62
     4
 10
130.456528
 20
136.163055
 40
1.000000
 50
180.0
 51
270.0
  0
ARC
  8
0
 62
     4
 10
130.456528
 20
94.163048
 40
1.000000
 50
90.0
 51
180.0
  0
LINE
  8
0
 62
     5
 10
139.456528
 20
134.663055
 11
139.456528
 21
144.240219
  0
LINE
  8
0
 62
     5
 10
114.456528
 20
182.392395
 11
129.456528
 21
182.392395
  0
POLYLINE
  8
0
 62
     5
 66
     1
 70
     2
  0
VERTEX
  8
0
 10
119.402176
 20
183.805420
  0
VERTEX
  8
0
 10
114.456528
 20
182.392395
  0
VERTEX
  8
0
 10
119.402176
 20
180.979340
  0
SEQEND
  0
POLYLINE
  8
0
 62
     5
 66
     1
 70
     2
  0
VERTEX
  8
0
 10
124.510880
 20
180.979340
  0
VERTEX
  8
0
 10
129.456528
 20
182.392395
  0
VERTEX
  8
0
 10
124.510880
 20
183.805420
  0
SEQEND
  0
LINE
  8
0
 62
     5
 10
129.456528
 20
144.240219
 11
129.456528
 21
184.511963
  0
TEXT
  8
0
 62
     7
 10
117.364136
 20
183.522827
 40
7.065217
 41
1.000000
  1
15
  7
KANJI
 50
0.000000
 51
0.000000
  0
LINE
  8
0
 62
     5
 10
114.456528
 20
193.696732
 11
139.456528
 21
193.696732
  0
POLYLINE
  8
0
 62
     5
 66
     1
 70
     2
  0
VERTEX
  8
0
 10
119.402176
 20
195.109772
  0
VERTEX
  8
0
 10
114.456528
 20
193.696732
  0
VERTEX
  8
0
 10
119.402176
 20
192.283691
  0
SEQEND
  0
POLYLINE
  8
0
 62
     5
 66
     1
 70
     2
  0
VERTEX
  8
0
 10
134.510880
 20
192.283691
  0
VERTEX
  8
0
 10
139.456528
 20
193.696732
  0
VERTEX
  8
0
 10
134.510880
 20
195.109772
  0
SEQEND
  0
LINE
  8
0
 62
     5
 10
114.456528
 20
144.240219
 11
114.456528
 21
195.816299
  0
LINE
  8
0
 62
     5
 10
139.456528
 20
144.240219
 11
139.456528
 21
195.816299
  0
TEXT
  8
0
 62
     7
 10
122.364136
 20
194.827164
 40
7.065217
 41
1.000000
  1
25
  7
KANJI
 50
0.000000
 51
0.000000
  0
LINE
  8
0
 62
     5
 10
147.934784
 20
182.392395
 11
120.978264
 21
182.392395
  0
POLYLINE
  8
0
 62
     5
 66
     1
 70
     2
  0
VERTEX
  8
0
 10
124.510880
 20
180.979340
  0
VERTEX
  8
0
 10
129.456528
 20
182.392395
  0
VERTEX
  8
0
 10
124.510880
 20
183.805420
  0
SEQEND
  0
POLYLINE
  8
0
 62
     5
 66
     1
 70
     2
  0
VERTEX
  8
0
 10
144.402176
 20
183.805420
  0
VERTEX
  8
0
 10
139.456528
 20
182.392395
  0
VERTEX
  8
0
 10
144.402176
 20
180.979340
  0
SEQEND
  0
TEXT
  8
0
 62
     7
 10
129.864136
 20
183.522827
 40
7.065217
 41
1.000000
  1
10
  7
KANJI
 50
0.000000
 51
0.000000
  0
LINE
  8
0
 62
     5
 10
198.804352
 20
135.163055
 11
198.804352
 21
95.163048
  0
POLYLINE
  8
0
 62
     5
 66
     1
 70
     2
  0
VERTEX
  8
0
 10
200.217392
 20
130.217392
  0
VERTEX
  8
0
 10
198.804352
 20
135.163055
  0
VERTEX
  8
0
 10
197.391312
 20
130.217392
  0
SEQEND
  0
POLYLINE
  8
0
 62
     5
 66
     1
 70
     2
  0
VERTEX
  8
0
 10
197.391312
 20
100.108704
  0
VERTEX
  8
0
 10
198.804352
 20
95.163048
  0
VERTEX
  8
0
 10
200.217392
 20
100.108704
  0
SEQEND
  0
LINE
  8
0
 62
     5
 10
139.456528
 20
135.163055
 11
200.923920
 21
135.163055
  0
LINE
  8
0
 62
     5
 10
139.456528
 20
95.163048
 11
200.923920
 21
95.163048
  0
TEXT
  8
0
 62
     7
 10
197.391312
 20
106.861420
 40
7.065217
 41
1.000000
  1
%%c40
  7
KANJI
 50
90.000000
 51
0.000000
  0
ARC
  8
0
 62
     4
 10
269.673920
 20
115.163048
 40
6.000000
 50
109.47122094265586
 51
70.52877905734415
  0
POLYLINE
  8
0
 62
     4
 66
     1
 70
     2
  0
VERTEX
  8
0
 10
271.673920
 20
120.819901
  0
VERTEX
  8
0
 10
271.673920
 20
122.963051
  0
VERTEX
  8
0
 10
267.673920
 20
122.963051
  0
VERTEX
  8
0
 10
267.673920
 20
120.819901
  0
SEQEND
  0
LINE
  8
0
 62
     4
 10
114.456528
 20
122.963051
 11
139.456528
 21
122.963051
  0
POLYLINE
  8
DASHDOT
 62
     7
 66
     1
 70
     2
  0
VERTEX
  8
DASHDOT
 10
134.456528
 20
139.402176
  0
VERTEX
  8
DASHDOT
 10
134.456528
 20
118.723915
  0
SEQEND
  0
POLYLINE
  8
0
 62
     4
 66
     1
 70
     2
  0
VERTEX
  8
0
 10
136.456528
 20
135.163055
  0
VERTEX
  8
0
 10
136.456528
 20
122.963051
  0
SEQEND
  0
POLYLINE
  8
0
 62
     4
 66
     1
 70
     2
  0
VERTEX
  8
0
 10
132.456528
 20
135.163055
  0
VERTEX
  8
0
 10
132.456528
 20
122.963051
  0
SEQEND
  0
POLYLINE
  8
0
 62
     4
 66
     1
 70
     2
  0
VERTEX
  8
0
 10
136.076523
 20
135.163055
  0
VERTEX
  8
0
 10
136.076523
 20
122.963051
  0
SEQEND
  0
POLYLINE
  8
0
 62
     4
 66
     1
 70
     2
  0
VERTEX
  8
0
 10
132.836533
 20
135.163055
  0
VERTEX
  8
0
 10
132.836533
 20
122.963051
  0
SEQEND
  0
POLYLINE
  8
0
 62
     4
 66
     1
 70
     2
  0
VERTEX
  8
0
 10
267.673920
 20
120.819901
  0
VERTEX
  8
0
 10
267.673920
 20
135.062790
  0
SEQEND
  0
POLYLINE
  8
0
 62
     4
 66
     1
 70
     2
  0
VERTEX
  8
0
 10
271.673920
 20
120.819901
  0
VERTEX
  8
0
 10
271.673920
 20
135.062790
  0
SEQEND
  0
POLYLINE
  8
0
 62
     4
 66
     1
 70
     2
  0
VERTEX
  8
0
 10
268.053925
 20
122.963051
  0
VERTEX
  8
0
 10
268.053925
 20
135.097336
  0
SEQEND
  0
POLYLINE
  8
0
 62
     4
 66
     1
 70
     2
  0
VERTEX
  8
0
 10
271.293915
 20
122.963051
  0
VERTEX
  8
0
 10
271.293915
 20
135.097336
  0
SEQEND
  0
POLYLINE
  8
0
 62
     5
 66
     1
 70
     2
  0
VERTEX
  8
0
 10
269.673920
 20
135.163055
  0
VERTEX
  8
0
 10
244.239136
 20
177.554352
  0
VERTEX
  8
0
 10
259.782593
 20
177.554352
  0
SEQEND
  0
POLYLINE
  8
0
 62
     5
 66
     1
 70
     2
  0
VERTEX
  8
0
 10
265.917725
 20
138.676910
  0
VERTEX
  8
0
 10
269.673920
 20
135.163055
  0
VERTEX
  8
0
 10
268.341064
 20
140.130920
  0
SEQEND
  0
TEXT
  8
0
 62
     7
 10
245.652176
 20
178.967392
 40
6.782609
 41
1.000000
  1
M4
  7
KANJI
 50
0.000000
 51
0.000000
  0
CIRCLE
  8
0
 62
     7
 10
134.456528
 20
115.163048
 40
2.000000
  0
CIRCLE
  8
0
 62
     4
 10
134.456528
 20
115.163048
 40
1.620000
  0
POLYLINE
  8
DASHDOT
 62
     7
 66
     1
 70
     2
  0
VERTEX
  8
DASHDOT
 10
128.217392
 20
115.163048
  0
VERTEX
  8
DASHDOT
 10
140.695663
 20
115.163048
  0
SEQEND
  0
POLYLINE
  8
DASHDOT
 62
     7
 66
     1
 70
     2
  0
VERTEX
  8
DASHDOT
 10
134.456528
 20
108.923920
  0
VERTEX
  8
DASHDOT
 10
134.456528
 20
121.402176
  0
SEQEND
  0
LINE
  8
DASHDOT
 62
     7
 10
134.456528
 20
135.163055
 11
134.456528
 21
115.163048
  0
LINE
  8
0
 62
     5
 10
134.456528
 20
135.163055
 11
134.456528
 21
144.240219
  0
POLYLINE
  8
0
 62
     4
 66
     1
 70
     2
  0
VERTEX
  8
0
 10
275.330780
 20
117.163048
  0
VERTEX
  8
0
 10
289.573669
 20
117.163048
  0
SEQEND
  0
POLYLINE
  8
0
 62
     4
 66
     1
 70
     2
  0
VERTEX
  8
0
 10
275.330780
 20
113.163048
  0
VERTEX
  8
0
 10
289.573669
 20
113.163048
  0
SEQEND
  0
POLYLINE
  8
0
 62
     4
 66
     1
 70
     2
  0
VERTEX
  8
0
 10
275.451080
 20
116.783051
  0
VERTEX
  8
0
 10
289.608215
 20
116.783051
  0
SEQEND
  0
POLYLINE
  8
0
 62
     4
 66
     1
 70
     2
  0
VERTEX
  8
0
 10
275.451080
 20
113.543045
  0
VERTEX
  8
0
 10
289.608215
 20
113.543045
  0
SEQEND
  0
POLYLINE
  8
0
 62
     5
 66
     1
 70
     2
  0
VERTEX
  8
0
 10
289.673920
 20
115.163048
  0
VERTEX
  8
0
 10
310.869568
 20
166.250000
  0
VERTEX
  8
0
 10
290.239136
 20
166.250000
  0
SEQEND
  0
POLYLINE
  8
0
 62
     5
 66
     1
 70
     2
  0
VERTEX
  8
0
 10
290.264038
 20
120.272644
  0
VERTEX
  8
0
 10
289.673920
 20
115.163048
  0
VERTEX
  8
0
 10
292.874359
 20
119.189629
  0
SEQEND
  0
TEXT
  8
0
 62
     7
 10
293.065216
 20
167.663055
 40
6.782609
 41
1.000000
  1
M4
  7
KANJI
 50
0.000000
 51
0.000000
  0
LINE
  8
DASHDOT
 62
     7
 10
114.456528
 20
107.663048
 11
129.456528
 21
122.663048
  0
LINE
  8
0
 62
     7
 10
121.956528
 20
122.228264
 11
121.956528
 21
108.097832
  0
LINE
  8
0
 62
     5
 10
176.195663
 20
121.163048
 11
176.195663
 21
109.163048
  0
POLYLINE
  8
0
 62
     5
 66
     1
 70
     2
  0
VERTEX
  8
0
 10
174.782623
 20
114.108704
  0
VERTEX
  8
0
 10
176.195663
 20
109.163048
  0
VERTEX
  8
0
 10
177.608704
 20
114.108704
  0
SEQEND
  0
LINE
  8
0
 62
     5
 10
139.456528
 20
109.163048
 11
178.315216
 21
109.163048
  0
TEXT
  8
0
 62
     7
 10
174.782623
 20
102.269028
 40
7.065217
 41
1.000000
  1
%%c12H7
  7
KANJI
 50
90.000000
 51
0.000000
  0
POLYLINE
  8
0
 62
     4
 66
     1
 70
     2
  0
VERTEX
  8
0
 10
114.456528
 20
108.663048
  0
VERTEX
  8
0
 10
114.456528
 20
86.585884
  0
VERTEX
  8
0
 10
114.956528
 20
86.085884
  0
VERTEX
  8
0
 10
128.956528
 20
86.085884
  0
VERTEX
  8
0
 10
129.456528
 20
86.585884
  0
VERTEX
  8
0
 10
129.456528
 20
94.163048
  0
SEQEND
  0
POLYLINE
  8
0
 62
     4
 66
     1
 70
     2
  0
VERTEX
  8
0
 10
130.456528
 20
95.163048
  0
VERTEX
  8
0
 10
138.956528
 20
95.163048
  0
VERTEX
  8
0
 10
139.456528
 20
95.663048
  0
VERTEX
  8
0
 10
139.456528
 20
134.663055
  0
VERTEX
  8
0
 10
138.956528
 20
135.163055
  0
VERTEX
  8
0
 10
130.456528
 20
135.163055
  0
SEQEND
  0
POLYLINE
  8
0
 62
     4
 66
     1
 70
     2
  0
VERTEX
  8
0
 10
129.456528
 20
136.163055
  0
VERTEX
  8
0
 10
129.456528
 20
143.740219
  0
VERTEX
  8
0
 10
128.956528
 20
144.240219
  0
VERTEX
  8
0
 10
114.956528
 20
144.240219
  0
VERTEX
  8
0
 10
114.456528
 20
143.740219
  0
VERTEX
  8
0
 10
114.456528
 20
108.663048
  0
SEQEND
  0
LINE
  8
DASHDOT
 62
     7
 10
269.673920
 20
127.202179
 11
269.673920
 21
104.923920
  0
LINE
  8
DASHDOT
 62
     7
 10
279.913055
 20
115.163048
 11
259.434784
 21
115.163048
  0
LINE
  8
0
 62
     5
 10
280.152161
 20
144.158691
 11
259.195679
 21
144.158691
  0
POLYLINE
  8
0
 62
     5
 66
     1
 70
     2
  0
VERTEX
  8
0
 10
262.728271
 20
142.745651
  0
VERTEX
  8
0
 10
267.673920
 20
144.158691
  0
VERTEX
  8
0
 10
262.728271
 20
145.571747
  0
SEQEND
  0
POLYLINE
  8
0
 62
     5
 66
     1
 70
     2
  0
VERTEX
  8
0
 10
276.619568
 20
145.571747
  0
VERTEX
  8
0
 10
271.673920
 20
144.158691
  0
VERTEX
  8
0
 10
276.619568
 20
142.745651
  0
SEQEND
  0
LINE
  8
0
 62
     5
 10
267.673920
 20
122.963051
 11
267.673920
 21
146.278259
  0
LINE
  8
0
 62
     5
 10
271.673920
 20
122.963051
 11
271.673920
 21
146.278259
  0
TEXT
  8
0
 62
     7
 10
255.089920
 20
145.571747
 40
7.065217
 41
1.000000
  1
4
  7
KANJI
 50
0.000000
 51
0.000000
  0
TEXT
  8
0
 62
     7
 10
262.083618
 20
145.571747
 40
5.652174
 41
1.000000
  1
%%p0.015
  7
KANJI
 50
0.000000
 51
0.000000
  0
LINE
  8
0
 62
     5
 10
305.586975
 20
100.684784
 11
305.586975
 21
131.441315
  0
POLYLINE
  8
0
 62
     5
 66
     1
 70
     2
  0
VERTEX
  8
0
 10
304.173920
 20
127.908699
  0
VERTEX
  8
0
 10
305.586975
 20
122.963051
  0
VERTEX
  8
0
 10
307.000000
 20
127.908699
  0
SEQEND
  0
POLYLINE
  8
0
 62
     5
 66
     1
 70
     2
  0
VERTEX
  8
0
 10
307.000000
 20
104.217392
  0
VERTEX
  8
0
 10
305.586975
 20
109.163048
  0
VERTEX
  8
0
 10
304.173920
 20
104.217392
  0
SEQEND
  0
LINE
  8
0
 62
     5
 10
271.673920
 20
122.963051
 11
307.706543
 21
122.963051
  0
LINE
  8
0
 62
     5
 10
269.673920
 20
109.163048
 11
307.706543
 21
109.163048
  0
TEXT
  8
0
 62
     7
 10
303.467407
 20
94.537582
 40
7.065217
 41
1.000000
  1
13.8
  7
KANJI
 50
90.000000
 51
0.000000
  0
TEXT
  8
0
 62
     7
 10
303.891296
 20
125.118637
 40
3.532609
 41
1.000000
  1
 
  7
KANJI
 50
90.000000
 51
0.000000
  0
TEXT
  8
0
 62
     7
 10
299.510864
 20
125.118637
 40
3.532609
 41
1.000000
  1
+
  7
KANJI
 50
90.000000
 51
0.000000
  0
TEXT
  8
0
 62
     7
 10
303.891296
 20
129.075165
 40
3.532609
 41
1.000000
  1
0
  7
KANJI
 50
90.000000
 51
0.000000
  0
TEXT
  8
0
 62
     7
 10
299.510864
 20
129.075165
 40
3.532609
 41
1.000000
  1
0.1
  7
KANJI
 50
90.000000
 51
0.000000
  0
CIRCLE
  8
0
 62
     4
 10
269.673920
 20
115.163048
 40
20.000000
  0
LINE
  8
0
 62
     5
 10
147.934784
 20
151.305435
 11
125.978264
 21
151.305435
  0
POLYLINE
  8
0
 62
     5
 66
     1
 70
     2
  0
VERTEX
  8
0
 10
129.510880
 20
149.892395
  0
VERTEX
  8
0
 10
134.456528
 20
151.305435
  0
VERTEX
  8
0
 10
129.510880
 20
152.718475
  0
SEQEND
  0
POLYLINE
  8
0
 62
     5
 66
     1
 70
     2
  0
VERTEX
  8
0
 10
144.402176
 20
152.718475
  0
VERTEX
  8
0
 10
139.456528
 20
151.305435
  0
VERTEX
  8
0
 10
144.402176
 20
149.892395
  0
SEQEND
  0
LINE
  8
0
 62
     5
 10
134.456528
 20
144.240219
 11
134.456528
 21
153.424988
  0
TEXT
  8
0
 62
     7
 10
134.660339
 20
152.435867
 40
7.065217
 41
1.000000
  1
5
  7
KANJI
 50
0.000000
 51
0.000000
  0
LINE
  8
0
 62
     5
 10
134.456528
 20
135.163055
 11
134.456528
 21
144.240219
  0
ENDSEC
  0
EOF
