  0
SECTION
  2
HEADER
  9
$ACADVER
  1
AC1003
  9
$INSBASE
 10
0.000000
 20
0.000000
  9
$EXTMIN
 10
0.000000
 20
0.000000
  9
$EXTMAX
 10
447.521739
 20
309.456522
  9
$LIMMIN
 10
0.000000
 20
0.000000
  9
$LIMMAX
 10
447.521739
 20
309.456522
  9
$VIEWCTR
 10
223.760870
 20
154.728261
  9
$VIEWSIZE
 40
309.456522
  0
ENDSEC
  0
SECTION
  2
TABLES
  0
TABLE
  2
LTYPE
 70
     4
  0
LTYPE
  2
CONTINUOUS
 70
    64
  3
SolidLine
 72
    65
 73
     0
 40
0.0
  0
LTYPE
  2
HIDDEN
 70
    64
  3
------------------------
 72
    65
 73
     2
 40
4.760870
 49
3.173913
 49
-1.586957
  0
LTYPE
  2
DASHDOT
 70
    64
  3
--?--?--?--?--?--?--?--
 72
    65
 73
     4
 40
19.043478
 49
14.282609
 49
-1.586957
 49
1.586957
 49
-1.586957
  0
LTYPE
  2
DIVIDE
 70
    64
  3
--??--??--??--??--??--
 72
    65
 73
     6
 40
23.804348
 49
15.869565
 49
-1.586957
 49
1.586957
 49
-1.586957
 49
1.586957
 49
-1.586957
  0
ENDTAB
  0
TABLE
  2
LAYER
 70
     5
  0
LAYER
  2
0
 70
    64
 62
     7
  6
CONTINUOUS
  0
LAYER
  2
HIDDEN
 70
    64
 62
     2
  6
HIDDEN
  0
LAYER
  2
DASHDOT
 70
    64
 62
     6
  6
DASHDOT
  0
LAYER
  2
DIVIDE
 70
    64
 62
     5
  6
DIVIDE
  0
ENDTAB
  0
TABLE
  2
STYLE
 70
     1
  0
STYLE
  2
STANDARD
 70
    64
 40
0.0
 41
1.0
 50
0.0
 71
     0
 42
0.2
  3
TXT
  4

  0
STYLE
  2
KANJI
 70
    64
 40
0.0
 41
1.0
 50
0.0
 71
     0
 42
0.2
  3
TXT
  4
BIGFONT
  0
ENDTAB
  0
TABLE
  2
VIEW
 70
     0
  0
ENDTAB
  0
ENDSEC
  0
SECTION
  2
BLOCKS
  0
ENDSEC
  0
SECTION
  2
ENTITIES
  0
TEXT
  8
0
 62
     7
 10
15.869565
 20
17.456522
 40
6.347826
 41
1.000000
  1
KHK SN2.5-13RJ16
  7
KANJI
 50
0.000000
 51
0.000000
  0
TEXT
  8
0
 62
     7
 10
15.869565
 20
7.934783
 40
6.347826
 41
1.000000
  1
The precision grade of gears after secondary operations is equivalent but not identical to its original grade.
  7
KANJI
 50
0.000000
 51
0.000000
  0
TEXT
  8
0
 62
     7
 10
15.869565
 20
285.652161
 40
7.141304
 41
1.000000
  1
For J Series products, without black oxide repeatedly applied on secondary-operated parts.
  7
KANJI
 50
0.000000
 51
0.000000
  0
POLYLINE
  8
0
 62
     7
 66
     1
 70
     2
  0
VERTEX
  8
0
 10
380.869568
 20
285.652161
  0
VERTEX
  8
0
 10
374.680450
 20
296.379974
  0
VERTEX
  8
0
 10
399.436951
 20
296.379974
  0
VERTEX
  8
0
 10
393.247833
 20
285.652161
  0
VERTEX
  8
0
 10
387.058685
 20
296.379974
  0
VERTEX
  8
0
 10
380.869568
 20
285.652161
  0
SEQEND
  0
LINE
  8
0
 62
     5
 10
245.891296
 20
154.817917
 11
245.891296
 21
103.855972
  0
POLYLINE
  8
0
 62
     5
 66
     1
 70
     2
  0
VERTEX
  8
0
 10
247.478256
 20
149.263565
  0
VERTEX
  8
0
 10
245.891296
 20
154.817917
  0
VERTEX
  8
0
 10
244.304337
 20
149.263565
  0
SEQEND
  0
POLYLINE
  8
0
 62
     5
 66
     1
 70
     2
  0
VERTEX
  8
0
 10
244.304337
 20
109.410324
  0
VERTEX
  8
0
 10
245.891296
 20
103.855972
  0
VERTEX
  8
0
 10
247.478256
 20
109.410324
  0
SEQEND
  0
LINE
  8
0
 62
     5
 10
166.543472
 20
154.817917
 11
248.271729
 21
154.817917
  0
LINE
  8
0
 62
     5
 10
166.543472
 20
103.855972
 11
248.271729
 21
103.855972
  0
TEXT
  8
0
 62
     7
 10
244.304337
 20
112.277161
 40
7.934783
 41
1.000000
  1
%%c50.96
  7
KANJI
 50
90.000000
 51
0.000000
  0
LINE
  8
DASHDOT
 62
     7
 10
123.782600
 20
152.317917
 11
155.304337
 21
152.317917
  0
LINE
  8
DASHDOT
 62
     7
 10
123.782600
 20
106.355972
 11
155.304337
 21
106.355972
  0
LINE
  8
DASHDOT
 62
     7
 10
123.782600
 20
129.336945
 11
171.304337
 21
129.336945
  0
LINE
  8
0
 62
     5
 10
150.543472
 20
153.817917
 11
150.543472
 21
154.817917
  0
LINE
  8
0
 62
     5
 10
128.543472
 20
153.817917
 11
128.543472
 21
154.817917
  0
LINE
  8
0
 62
     5
 10
151.543472
 20
146.836945
 11
166.543472
 21
146.836945
  0
LINE
  8
0
 62
     5
 10
151.543472
 20
111.836945
 11
166.543472
 21
111.836945
  0
LINE
  8
0
 62
     5
 10
149.543472
 20
154.817917
 11
166.543472
 21
154.817917
  0
LINE
  8
0
 62
     5
 10
149.543472
 20
103.855972
 11
166.543472
 21
103.855972
  0
LINE
  8
0
 62
     4
 10
128.543472
 20
149.192917
 11
150.543472
 21
149.192917
  0
LINE
  8
0
 62
     4
 10
128.543472
 20
109.480972
 11
150.543472
 21
109.480972
  0
LINE
  8
0
 62
     4
 10
166.043472
 20
121.336945
 11
166.543472
 21
120.836945
  0
LINE
  8
0
 62
     4
 10
166.043472
 20
137.336945
 11
166.543472
 21
137.836945
  0
LINE
  8
0
 62
     4
 10
129.043472
 20
137.336945
 11
129.043472
 21
121.336945
  0
POLYLINE
  8
0
 62
     4
 66
     1
 70
     2
  0
VERTEX
  8
0
 10
128.543472
 20
120.836945
  0
VERTEX
  8
0
 10
129.043472
 20
121.336945
  0
VERTEX
  8
0
 10
166.043472
 20
121.336945
  0
VERTEX
  8
0
 10
166.043472
 20
137.336945
  0
VERTEX
  8
0
 10
129.043472
 20
137.336945
  0
VERTEX
  8
0
 10
128.543472
 20
137.836945
  0
SEQEND
  0
ARC
  8
0
 62
     4
 10
151.543472
 20
147.836945
 40
1.000000
 50
180.0
 51
270.0
  0
ARC
  8
0
 62
     4
 10
151.543472
 20
110.836945
 40
1.000000
 50
90.0
 51
180.0
  0
LINE
  8
0
 62
     5
 10
166.543472
 20
145.836945
 11
166.543472
 21
154.817917
  0
LINE
  8
0
 62
     5
 10
128.543472
 20
197.665741
 11
150.543472
 21
197.665741
  0
POLYLINE
  8
0
 62
     5
 66
     1
 70
     2
  0
VERTEX
  8
0
 10
134.097824
 20
199.252701
  0
VERTEX
  8
0
 10
128.543472
 20
197.665741
  0
VERTEX
  8
0
 10
134.097824
 20
196.078781
  0
SEQEND
  0
POLYLINE
  8
0
 62
     5
 66
     1
 70
     2
  0
VERTEX
  8
0
 10
144.989120
 20
196.078781
  0
VERTEX
  8
0
 10
150.543472
 20
197.665741
  0
VERTEX
  8
0
 10
144.989120
 20
199.252701
  0
SEQEND
  0
LINE
  8
0
 62
     5
 10
150.543472
 20
154.817917
 11
150.543472
 21
200.046173
  0
TEXT
  8
0
 62
     7
 10
134.385864
 20
198.935303
 40
7.934783
 41
1.000000
  1
22
  7
KANJI
 50
0.000000
 51
0.000000
  0
LINE
  8
0
 62
     5
 10
128.543472
 20
210.361389
 11
166.543472
 21
210.361389
  0
POLYLINE
  8
0
 62
     5
 66
     1
 70
     2
  0
VERTEX
  8
0
 10
134.097824
 20
211.948364
  0
VERTEX
  8
0
 10
128.543472
 20
210.361389
  0
VERTEX
  8
0
 10
134.097824
 20
208.774445
  0
SEQEND
  0
POLYLINE
  8
0
 62
     5
 66
     1
 70
     2
  0
VERTEX
  8
0
 10
160.989120
 20
208.774445
  0
VERTEX
  8
0
 10
166.543472
 20
210.361389
  0
VERTEX
  8
0
 10
160.989120
 20
211.948364
  0
SEQEND
  0
LINE
  8
0
 62
     5
 10
128.543472
 20
154.817917
 11
128.543472
 21
212.741821
  0
LINE
  8
0
 62
     5
 10
166.543472
 20
154.817917
 11
166.543472
 21
212.741821
  0
TEXT
  8
0
 62
     7
 10
142.385864
 20
211.630951
 40
7.934783
 41
1.000000
  1
38
  7
KANJI
 50
0.000000
 51
0.000000
  0
LINE
  8
0
 62
     5
 10
150.543472
 20
197.665741
 11
166.543472
 21
197.665741
  0
POLYLINE
  8
0
 62
     5
 66
     1
 70
     2
  0
VERTEX
  8
0
 10
156.097824
 20
199.252701
  0
VERTEX
  8
0
 10
150.543472
 20
197.665741
  0
VERTEX
  8
0
 10
156.097824
 20
196.078781
  0
SEQEND
  0
POLYLINE
  8
0
 62
     5
 66
     1
 70
     2
  0
VERTEX
  8
0
 10
160.989120
 20
196.078781
  0
VERTEX
  8
0
 10
166.543472
 20
197.665741
  0
VERTEX
  8
0
 10
160.989120
 20
199.252701
  0
SEQEND
  0
TEXT
  8
0
 62
     7
 10
153.385864
 20
198.935303
 40
7.934783
 41
1.000000
  1
16
  7
KANJI
 50
0.000000
 51
0.000000
  0
LINE
  8
0
 62
     5
 10
233.195648
 20
146.836945
 11
233.195648
 21
111.836945
  0
POLYLINE
  8
0
 62
     5
 66
     1
 70
     2
  0
VERTEX
  8
0
 10
234.782608
 20
141.282593
  0
VERTEX
  8
0
 10
233.195648
 20
146.836945
  0
VERTEX
  8
0
 10
231.608688
 20
141.282593
  0
SEQEND
  0
POLYLINE
  8
0
 62
     5
 66
     1
 70
     2
  0
VERTEX
  8
0
 10
231.608688
 20
117.391296
  0
VERTEX
  8
0
 10
233.195648
 20
111.836945
  0
VERTEX
  8
0
 10
234.782608
 20
117.391296
  0
SEQEND
  0
LINE
  8
0
 62
     5
 10
166.543472
 20
146.836945
 11
235.576080
 21
146.836945
  0
LINE
  8
0
 62
     5
 10
166.543472
 20
111.836945
 11
235.576080
 21
111.836945
  0
TEXT
  8
0
 62
     7
 10
231.608688
 20
120.013573
 40
7.934783
 41
1.000000
  1
%%c35
  7
KANJI
 50
90.000000
 51
0.000000
  0
ARC
  8
0
 62
     4
 10
307.826080
 20
129.336945
 40
8.000000
 50
108.20995732853793
 51
71.79004267146207
  0
POLYLINE
  8
0
 62
     4
 66
     1
 70
     2
  0
VERTEX
  8
0
 10
310.326080
 20
136.936279
  0
VERTEX
  8
0
 10
310.326080
 20
139.636948
  0
VERTEX
  8
0
 10
305.326080
 20
139.636948
  0
VERTEX
  8
0
 10
305.326080
 20
136.936279
  0
SEQEND
  0
LINE
  8
0
 62
     4
 10
128.543472
 20
139.636948
 11
166.543472
 21
139.636948
  0
POLYLINE
  8
DASHDOT
 62
     7
 66
     1
 70
     2
  0
VERTEX
  8
DASHDOT
 10
158.543472
 20
151.597809
  0
VERTEX
  8
DASHDOT
 10
158.543472
 20
134.876068
  0
SEQEND
  0
POLYLINE
  8
0
 62
     4
 66
     1
 70
     2
  0
VERTEX
  8
0
 10
160.543472
 20
146.836945
  0
VERTEX
  8
0
 10
160.543472
 20
139.636948
  0
SEQEND
  0
POLYLINE
  8
0
 62
     4
 66
     1
 70
     2
  0
VERTEX
  8
0
 10
156.543472
 20
146.836945
  0
VERTEX
  8
0
 10
156.543472
 20
139.636948
  0
SEQEND
  0
POLYLINE
  8
0
 62
     4
 66
     1
 70
     2
  0
VERTEX
  8
0
 10
160.163467
 20
146.836945
  0
VERTEX
  8
0
 10
160.163467
 20
139.636948
  0
SEQEND
  0
POLYLINE
  8
0
 62
     4
 66
     1
 70
     2
  0
VERTEX
  8
0
 10
156.923477
 20
146.836945
  0
VERTEX
  8
0
 10
156.923477
 20
139.636948
  0
SEQEND
  0
POLYLINE
  8
0
 62
     4
 66
     1
 70
     2
  0
VERTEX
  8
0
 10
305.826080
 20
139.636948
  0
VERTEX
  8
0
 10
305.826080
 20
146.722290
  0
SEQEND
  0
POLYLINE
  8
0
 62
     4
 66
     1
 70
     2
  0
VERTEX
  8
0
 10
309.826080
 20
139.636948
  0
VERTEX
  8
0
 10
309.826080
 20
146.722290
  0
SEQEND
  0
POLYLINE
  8
0
 62
     4
 66
     1
 70
     2
  0
VERTEX
  8
0
 10
306.206085
 20
139.636948
  0
VERTEX
  8
0
 10
306.206085
 20
146.761795
  0
SEQEND
  0
POLYLINE
  8
0
 62
     4
 66
     1
 70
     2
  0
VERTEX
  8
0
 10
309.446075
 20
139.636948
  0
VERTEX
  8
0
 10
309.446075
 20
146.761795
  0
SEQEND
  0
POLYLINE
  8
0
 62
     5
 66
     1
 70
     2
  0
VERTEX
  8
0
 10
307.826080
 20
146.836945
  0
VERTEX
  8
0
 10
279.260864
 20
194.445648
  0
VERTEX
  8
0
 10
296.717407
 20
194.445648
  0
SEQEND
  0
POLYLINE
  8
0
 62
     5
 66
     1
 70
     2
  0
VERTEX
  8
0
 10
303.607605
 20
150.783279
  0
VERTEX
  8
0
 10
307.826080
 20
146.836945
  0
VERTEX
  8
0
 10
306.329193
 20
152.416245
  0
SEQEND
  0
TEXT
  8
0
 62
     7
 10
280.847839
 20
196.032593
 40
7.617392
 41
1.000000
  1
M4
  7
KANJI
 50
0.000000
 51
0.000000
  0
CIRCLE
  8
0
 62
     7
 10
158.543472
 20
129.336945
 40
2.000000
  0
CIRCLE
  8
0
 62
     4
 10
158.543472
 20
129.336945
 40
1.620000
  0
POLYLINE
  8
DASHDOT
 62
     7
 66
     1
 70
     2
  0
VERTEX
  8
DASHDOT
 10
151.782608
 20
129.336945
  0
VERTEX
  8
DASHDOT
 10
165.304337
 20
129.336945
  0
SEQEND
  0
POLYLINE
  8
DASHDOT
 62
     7
 66
     1
 70
     2
  0
VERTEX
  8
DASHDOT
 10
158.543472
 20
122.576073
  0
VERTEX
  8
DASHDOT
 10
158.543472
 20
136.097809
  0
SEQEND
  0
LINE
  8
DASHDOT
 62
     7
 10
158.543472
 20
146.836945
 11
158.543472
 21
129.336945
  0
LINE
  8
0
 62
     5
 10
158.543472
 20
146.836945
 11
158.543472
 21
154.817917
  0
POLYLINE
  8
0
 62
     4
 66
     1
 70
     2
  0
VERTEX
  8
0
 10
315.572052
 20
131.336945
  0
VERTEX
  8
0
 10
325.211426
 20
131.336945
  0
SEQEND
  0
POLYLINE
  8
0
 62
     4
 66
     1
 70
     2
  0
VERTEX
  8
0
 10
315.572052
 20
127.336945
  0
VERTEX
  8
0
 10
325.211426
 20
127.336945
  0
SEQEND
  0
POLYLINE
  8
0
 62
     4
 66
     1
 70
     2
  0
VERTEX
  8
0
 10
315.660339
 20
130.956940
  0
VERTEX
  8
0
 10
325.250916
 20
130.956940
  0
SEQEND
  0
POLYLINE
  8
0
 62
     4
 66
     1
 70
     2
  0
VERTEX
  8
0
 10
315.660339
 20
127.716942
  0
VERTEX
  8
0
 10
325.250916
 20
127.716942
  0
SEQEND
  0
POLYLINE
  8
0
 62
     5
 66
     1
 70
     2
  0
VERTEX
  8
0
 10
325.326080
 20
129.336945
  0
VERTEX
  8
0
 10
349.130432
 20
181.749985
  0
VERTEX
  8
0
 10
325.960876
 20
181.749985
  0
SEQEND
  0
POLYLINE
  8
0
 62
     5
 66
     1
 70
     2
  0
VERTEX
  8
0
 10
326.177979
 20
135.050385
  0
VERTEX
  8
0
 10
325.326080
 20
129.336945
  0
VERTEX
  8
0
 10
329.067810
 20
133.737915
  0
SEQEND
  0
TEXT
  8
0
 62
     7
 10
329.134766
 20
183.336945
 40
7.617392
 41
1.000000
  1
M4
  7
KANJI
 50
0.000000
 51
0.000000
  0
LINE
  8
DASHDOT
 62
     7
 10
128.543472
 20
140.336945
 11
150.543472
 21
118.336945
  0
LINE
  8
0
 62
     7
 10
139.543472
 20
137.271729
 11
139.543472
 21
121.402161
  0
LINE
  8
0
 62
     5
 10
207.804337
 20
137.336945
 11
207.804337
 21
121.336945
  0
POLYLINE
  8
0
 62
     5
 66
     1
 70
     2
  0
VERTEX
  8
0
 10
206.217377
 20
126.891296
  0
VERTEX
  8
0
 10
207.804337
 20
121.336945
  0
VERTEX
  8
0
 10
209.391296
 20
126.891296
  0
SEQEND
  0
LINE
  8
0
 62
     5
 10
166.543472
 20
121.336945
 11
210.184769
 21
121.336945
  0
TEXT
  8
0
 62
     7
 10
206.217377
 20
114.855965
 40
7.934783
 41
1.000000
  1
%%c16H7
  7
KANJI
 50
90.000000
 51
0.000000
  0
POLYLINE
  8
0
 62
     4
 66
     1
 70
     2
  0
VERTEX
  8
0
 10
128.543472
 20
120.836945
  0
VERTEX
  8
0
 10
128.543472
 20
104.855972
  0
VERTEX
  8
0
 10
129.543472
 20
103.855972
  0
VERTEX
  8
0
 10
149.543472
 20
103.855972
  0
VERTEX
  8
0
 10
150.543472
 20
104.855972
  0
VERTEX
  8
0
 10
150.543472
 20
110.836945
  0
SEQEND
  0
POLYLINE
  8
0
 62
     4
 66
     1
 70
     2
  0
VERTEX
  8
0
 10
151.543472
 20
111.836945
  0
VERTEX
  8
0
 10
165.543472
 20
111.836945
  0
VERTEX
  8
0
 10
166.543472
 20
112.836945
  0
VERTEX
  8
0
 10
166.543472
 20
145.836945
  0
VERTEX
  8
0
 10
165.543472
 20
146.836945
  0
VERTEX
  8
0
 10
151.543472
 20
146.836945
  0
SEQEND
  0
POLYLINE
  8
0
 62
     4
 66
     1
 70
     2
  0
VERTEX
  8
0
 10
150.543472
 20
147.836945
  0
VERTEX
  8
0
 10
150.543472
 20
153.817917
  0
VERTEX
  8
0
 10
149.543472
 20
154.817917
  0
VERTEX
  8
0
 10
129.543472
 20
154.817917
  0
VERTEX
  8
0
 10
128.543472
 20
153.817917
  0
VERTEX
  8
0
 10
128.543472
 20
120.836945
  0
SEQEND
  0
LINE
  8
DASHDOT
 62
     7
 10
307.826080
 20
144.397812
 11
307.826080
 21
116.576073
  0
LINE
  8
DASHDOT
 62
     7
 10
320.586945
 20
129.336945
 11
295.065216
 21
129.336945
  0
LINE
  8
0
 62
     5
 10
319.847839
 20
163.441284
 11
295.804321
 21
163.441284
  0
POLYLINE
  8
0
 62
     5
 66
     1
 70
     2
  0
VERTEX
  8
0
 10
299.771729
 20
161.854340
  0
VERTEX
  8
0
 10
305.326080
 20
163.441284
  0
VERTEX
  8
0
 10
299.771729
 20
165.028244
  0
SEQEND
  0
POLYLINE
  8
0
 62
     5
 66
     1
 70
     2
  0
VERTEX
  8
0
 10
315.880432
 20
165.028244
  0
VERTEX
  8
0
 10
310.326080
 20
163.441284
  0
VERTEX
  8
0
 10
315.880432
 20
161.854340
  0
SEQEND
  0
LINE
  8
0
 62
     5
 10
305.326080
 20
139.636948
 11
305.326080
 21
165.821732
  0
LINE
  8
0
 62
     5
 10
310.326080
 20
139.636948
 11
310.326080
 21
165.821732
  0
TEXT
  8
0
 62
     7
 10
291.447113
 20
165.028244
 40
7.934783
 41
1.000000
  1
5
  7
KANJI
 50
0.000000
 51
0.000000
  0
TEXT
  8
0
 62
     7
 10
299.301575
 20
165.028244
 40
6.347826
 41
1.000000
  1
%%p0.015
  7
KANJI
 50
0.000000
 51
0.000000
  0
LINE
  8
0
 62
     5
 10
348.413025
 20
111.815208
 11
348.413025
 21
149.158691
  0
POLYLINE
  8
0
 62
     5
 66
     1
 70
     2
  0
VERTEX
  8
0
 10
346.826080
 20
145.191299
  0
VERTEX
  8
0
 10
348.413025
 20
139.636948
  0
VERTEX
  8
0
 10
350.000000
 20
145.191299
  0
SEQEND
  0
POLYLINE
  8
0
 62
     5
 66
     1
 70
     2
  0
VERTEX
  8
0
 10
350.000000
 20
115.782600
  0
VERTEX
  8
0
 10
348.413025
 20
121.336945
  0
VERTEX
  8
0
 10
346.826080
 20
115.782600
  0
SEQEND
  0
LINE
  8
0
 62
     5
 10
310.326080
 20
139.636948
 11
350.793457
 21
139.636948
  0
LINE
  8
0
 62
     5
 10
307.826080
 20
121.336945
 11
350.793457
 21
121.336945
  0
TEXT
  8
0
 62
     7
 10
346.032593
 20
106.032036
 40
7.934783
 41
1.000000
  1
18.3
  7
KANJI
 50
90.000000
 51
0.000000
  0
TEXT
  8
0
 62
     7
 10
346.508698
 20
140.376923
 40
3.967391
 41
1.000000
  1
 
  7
KANJI
 50
90.000000
 51
0.000000
  0
TEXT
  8
0
 62
     7
 10
341.589111
 20
140.376923
 40
3.967391
 41
1.000000
  1
+
  7
KANJI
 50
90.000000
 51
0.000000
  0
TEXT
  8
0
 62
     7
 10
346.508698
 20
144.820389
 40
3.967391
 41
1.000000
  1
0
  7
KANJI
 50
90.000000
 51
0.000000
  0
TEXT
  8
0
 62
     7
 10
341.589111
 20
144.820389
 40
3.967391
 41
1.000000
  1
0.1
  7
KANJI
 50
90.000000
 51
0.000000
  0
CIRCLE
  8
0
 62
     4
 10
307.826080
 20
129.336945
 40
17.500000
  0
LINE
  8
0
 62
     5
 10
158.543472
 20
162.752701
 11
166.543472
 21
162.752701
  0
POLYLINE
  8
0
 62
     5
 66
     1
 70
     2
  0
VERTEX
  8
0
 10
164.097824
 20
164.339661
  0
VERTEX
  8
0
 10
158.543472
 20
162.752701
  0
VERTEX
  8
0
 10
164.097824
 20
161.165741
  0
SEQEND
  0
POLYLINE
  8
0
 62
     5
 66
     1
 70
     2
  0
VERTEX
  8
0
 10
160.989120
 20
161.165741
  0
VERTEX
  8
0
 10
166.543472
 20
162.752701
  0
VERTEX
  8
0
 10
160.989120
 20
164.339661
  0
SEQEND
  0
LINE
  8
0
 62
     5
 10
158.543472
 20
154.817917
 11
158.543472
 21
165.133133
  0
TEXT
  8
0
 62
     7
 10
159.964661
 20
164.022263
 40
7.934783
 41
1.000000
  1
8
  7
KANJI
 50
0.000000
 51
0.000000
  0
LINE
  8
0
 62
     5
 10
158.543472
 20
146.836945
 11
158.543472
 21
154.817917
  0
ENDSEC
  0
EOF
