  0
SECTION
  2
HEADER
  9
$ACADVER
  1
AC1003
  9
$INSBASE
 10
0.000000
 20
0.000000
  9
$EXTMIN
 10
0.000000
 20
0.000000
  9
$EXTMAX
 10
674.347826
 20
466.304348
  9
$LIMMIN
 10
0.000000
 20
0.000000
  9
$LIMMAX
 10
674.347826
 20
466.304348
  9
$VIEWCTR
 10
337.173913
 20
233.152174
  9
$VIEWSIZE
 40
466.304348
  0
ENDSEC
  0
SECTION
  2
TABLES
  0
TABLE
  2
LTYPE
 70
     4
  0
LTYPE
  2
CONTINUOUS
 70
    64
  3
SolidLine
 72
    65
 73
     0
 40
0.0
  0
LTYPE
  2
HIDDEN
 70
    64
  3
------------------------
 72
    65
 73
     2
 40
7.173913
 49
4.782609
 49
-2.391304
  0
LTYPE
  2
DASHDOT
 70
    64
  3
--?--?--?--?--?--?--?--
 72
    65
 73
     4
 40
28.695652
 49
21.521739
 49
-2.391304
 49
2.391304
 49
-2.391304
  0
LTYPE
  2
DIVIDE
 70
    64
  3
--??--??--??--??--??--
 72
    65
 73
     6
 40
35.869565
 49
23.913043
 49
-2.391304
 49
2.391304
 49
-2.391304
 49
2.391304
 49
-2.391304
  0
ENDTAB
  0
TABLE
  2
LAYER
 70
     5
  0
LAYER
  2
0
 70
    64
 62
     7
  6
CONTINUOUS
  0
LAYER
  2
HIDDEN
 70
    64
 62
     2
  6
HIDDEN
  0
LAYER
  2
DASHDOT
 70
    64
 62
     6
  6
DASHDOT
  0
LAYER
  2
DIVIDE
 70
    64
 62
     5
  6
DIVIDE
  0
ENDTAB
  0
TABLE
  2
STYLE
 70
     1
  0
STYLE
  2
STANDARD
 70
    64
 40
0.0
 41
1.0
 50
0.0
 71
     0
 42
0.2
  3
TXT
  4

  0
STYLE
  2
KANJI
 70
    64
 40
0.0
 41
1.0
 50
0.0
 71
     0
 42
0.2
  3
TXT
  4
BIGFONT
  0
ENDTAB
  0
TABLE
  2
VIEW
 70
     0
  0
ENDTAB
  0
ENDSEC
  0
SECTION
  2
BLOCKS
  0
ENDSEC
  0
SECTION
  2
ENTITIES
  0
TEXT
  8
0
 62
     7
 10
23.913044
 20
26.304348
 40
9.565217
 41
1.000000
  1
KHK SN4-13RJ22
  7
KANJI
 50
0.000000
 51
0.000000
  0
TEXT
  8
0
 62
     7
 10
23.913044
 20
11.956522
 40
9.565217
 41
1.000000
  1
The precision grade of gears after secondary operations is equivalent but not identical to its original grade.
  7
KANJI
 50
0.000000
 51
0.000000
  0
TEXT
  8
0
 62
     7
 10
23.913044
 20
430.434784
 40
10.760870
 41
1.000000
  1
For J Series products, without black oxide repeatedly applied on secondary-operated parts.
  7
KANJI
 50
0.000000
 51
0.000000
  0
POLYLINE
  8
0
 62
     7
 66
     1
 70
     2
  0
VERTEX
  8
0
 10
573.913025
 20
430.434784
  0
VERTEX
  8
0
 10
564.586914
 20
446.600006
  0
VERTEX
  8
0
 10
601.891296
 20
446.600006
  0
VERTEX
  8
0
 10
592.565186
 20
430.434784
  0
VERTEX
  8
0
 10
583.239136
 20
446.600006
  0
VERTEX
  8
0
 10
573.913025
 20
430.434784
  0
SEQEND
  0
LINE
  8
0
 62
     5
 10
363.260864
 20
235.660858
 11
363.260864
 21
154.121735
  0
POLYLINE
  8
0
 62
     5
 66
     1
 70
     2
  0
VERTEX
  8
0
 10
365.652191
 20
227.291290
  0
VERTEX
  8
0
 10
363.260864
 20
235.660858
  0
VERTEX
  8
0
 10
360.869568
 20
227.291290
  0
SEQEND
  0
POLYLINE
  8
0
 62
     5
 66
     1
 70
     2
  0
VERTEX
  8
0
 10
360.869568
 20
162.491302
  0
VERTEX
  8
0
 10
363.260864
 20
154.121735
  0
VERTEX
  8
0
 10
365.652191
 20
162.491302
  0
SEQEND
  0
LINE
  8
0
 62
     5
 10
243.695663
 20
235.660858
 11
366.847839
 21
235.660858
  0
LINE
  8
0
 62
     5
 10
243.695663
 20
154.121735
 11
366.847839
 21
154.121735
  0
TEXT
  8
0
 62
     7
 10
360.869568
 20
169.184784
 40
11.956522
 41
1.000000
  1
%%c81.54
  7
KANJI
 50
90.000000
 51
0.000000
  0
LINE
  8
DASHDOT
 62
     7
 10
186.521744
 20
231.660858
 11
230.869568
 21
231.660858
  0
LINE
  8
DASHDOT
 62
     7
 10
186.521744
 20
158.121735
 11
230.869568
 21
158.121735
  0
LINE
  8
DASHDOT
 62
     7
 10
186.521744
 20
194.891296
 11
250.869568
 21
194.891296
  0
LINE
  8
0
 62
     5
 10
223.695663
 20
234.660858
 11
223.695663
 21
235.660858
  0
LINE
  8
0
 62
     5
 10
193.695663
 20
234.660858
 11
193.695663
 21
235.660858
  0
LINE
  8
0
 62
     5
 10
224.695663
 20
224.891296
 11
243.695663
 21
224.891296
  0
LINE
  8
0
 62
     5
 10
224.695663
 20
164.891296
 11
243.695663
 21
164.891296
  0
LINE
  8
0
 62
     5
 10
222.695663
 20
235.660858
 11
243.695663
 21
235.660858
  0
LINE
  8
0
 62
     5
 10
222.695663
 20
154.121735
 11
243.695663
 21
154.121735
  0
LINE
  8
0
 62
     4
 10
193.695663
 20
226.660858
 11
223.695663
 21
226.660858
  0
LINE
  8
0
 62
     4
 10
193.695663
 20
163.121735
 11
223.695663
 21
163.121735
  0
LINE
  8
0
 62
     4
 10
242.695663
 20
183.891296
 11
243.695663
 21
182.891296
  0
LINE
  8
0
 62
     4
 10
242.695663
 20
205.891296
 11
243.695663
 21
206.891296
  0
LINE
  8
0
 62
     4
 10
194.695663
 20
205.891296
 11
194.695663
 21
183.891296
  0
POLYLINE
  8
0
 62
     4
 66
     1
 70
     2
  0
VERTEX
  8
0
 10
193.695663
 20
182.891296
  0
VERTEX
  8
0
 10
194.695663
 20
183.891296
  0
VERTEX
  8
0
 10
242.695663
 20
183.891296
  0
VERTEX
  8
0
 10
242.695663
 20
205.891296
  0
VERTEX
  8
0
 10
194.695663
 20
205.891296
  0
VERTEX
  8
0
 10
193.695663
 20
206.891296
  0
SEQEND
  0
ARC
  8
0
 62
     4
 10
224.695663
 20
225.891296
 40
1.000000
 50
180.0
 51
270.0
  0
ARC
  8
0
 62
     4
 10
224.695663
 20
163.891296
 40
1.000000
 50
90.0
 51
180.0
  0
LINE
  8
0
 62
     5
 10
243.695663
 20
223.891296
 11
243.695663
 21
235.660858
  0
LINE
  8
0
 62
     5
 10
193.695663
 20
300.226074
 11
223.695663
 21
300.226074
  0
POLYLINE
  8
0
 62
     5
 66
     1
 70
     2
  0
VERTEX
  8
0
 10
202.065231
 20
302.617371
  0
VERTEX
  8
0
 10
193.695663
 20
300.226074
  0
VERTEX
  8
0
 10
202.065231
 20
297.834778
  0
SEQEND
  0
POLYLINE
  8
0
 62
     5
 66
     1
 70
     2
  0
VERTEX
  8
0
 10
215.326096
 20
297.834778
  0
VERTEX
  8
0
 10
223.695663
 20
300.226074
  0
VERTEX
  8
0
 10
215.326096
 20
302.617371
  0
SEQEND
  0
LINE
  8
0
 62
     5
 10
223.695663
 20
235.660858
 11
223.695663
 21
303.813019
  0
TEXT
  8
0
 62
     7
 10
200.923920
 20
302.139099
 40
11.956522
 41
1.000000
  1
30
  7
KANJI
 50
0.000000
 51
0.000000
  0
LINE
  8
0
 62
     5
 10
193.695663
 20
319.356506
 11
243.695663
 21
319.356506
  0
POLYLINE
  8
0
 62
     5
 66
     1
 70
     2
  0
VERTEX
  8
0
 10
202.065231
 20
321.747803
  0
VERTEX
  8
0
 10
193.695663
 20
319.356506
  0
VERTEX
  8
0
 10
202.065231
 20
316.965210
  0
SEQEND
  0
POLYLINE
  8
0
 62
     5
 66
     1
 70
     2
  0
VERTEX
  8
0
 10
235.326096
 20
316.965210
  0
VERTEX
  8
0
 10
243.695663
 20
319.356506
  0
VERTEX
  8
0
 10
235.326096
 20
321.747803
  0
SEQEND
  0
LINE
  8
0
 62
     5
 10
193.695663
 20
235.660858
 11
193.695663
 21
322.943481
  0
LINE
  8
0
 62
     5
 10
243.695663
 20
235.660858
 11
243.695663
 21
322.943481
  0
TEXT
  8
0
 62
     7
 10
210.923920
 20
321.269531
 40
11.956522
 41
1.000000
  1
50
  7
KANJI
 50
0.000000
 51
0.000000
  0
LINE
  8
0
 62
     5
 10
258.043488
 20
300.226074
 11
209.347839
 21
300.226074
  0
POLYLINE
  8
0
 62
     5
 66
     1
 70
     2
  0
VERTEX
  8
0
 10
215.326096
 20
297.834778
  0
VERTEX
  8
0
 10
223.695663
 20
300.226074
  0
VERTEX
  8
0
 10
215.326096
 20
302.617371
  0
SEQEND
  0
POLYLINE
  8
0
 62
     5
 66
     1
 70
     2
  0
VERTEX
  8
0
 10
252.065231
 20
302.617371
  0
VERTEX
  8
0
 10
243.695663
 20
300.226074
  0
VERTEX
  8
0
 10
252.065231
 20
297.834778
  0
SEQEND
  0
TEXT
  8
0
 62
     7
 10
225.923920
 20
302.139099
 40
11.956522
 41
1.000000
  1
20
  7
KANJI
 50
0.000000
 51
0.000000
  0
LINE
  8
0
 62
     5
 10
344.130432
 20
224.891296
 11
344.130432
 21
164.891296
  0
POLYLINE
  8
0
 62
     5
 66
     1
 70
     2
  0
VERTEX
  8
0
 10
346.521759
 20
216.521729
  0
VERTEX
  8
0
 10
344.130432
 20
224.891296
  0
VERTEX
  8
0
 10
341.739136
 20
216.521729
  0
SEQEND
  0
POLYLINE
  8
0
 62
     5
 66
     1
 70
     2
  0
VERTEX
  8
0
 10
341.739136
 20
173.260864
  0
VERTEX
  8
0
 10
344.130432
 20
164.891296
  0
VERTEX
  8
0
 10
346.521759
 20
173.260864
  0
SEQEND
  0
LINE
  8
0
 62
     5
 10
243.695663
 20
224.891296
 11
347.717407
 21
224.891296
  0
LINE
  8
0
 62
     5
 10
243.695663
 20
164.891296
 11
347.717407
 21
164.891296
  0
TEXT
  8
0
 62
     7
 10
341.739136
 20
180.842377
 40
11.956522
 41
1.000000
  1
%%c60
  7
KANJI
 50
90.000000
 51
0.000000
  0
ARC
  8
0
 62
     4
 10
460.217407
 20
194.891296
 40
11.000000
 50
105.82662088647183
 51
74.17337911352817
  0
POLYLINE
  8
0
 62
     4
 66
     1
 70
     2
  0
VERTEX
  8
0
 10
463.217407
 20
205.474304
  0
VERTEX
  8
0
 10
463.217407
 20
208.691299
  0
VERTEX
  8
0
 10
457.217407
 20
208.691299
  0
VERTEX
  8
0
 10
457.217407
 20
205.474304
  0
SEQEND
  0
LINE
  8
0
 62
     4
 10
193.695663
 20
208.691299
 11
243.695663
 21
208.691299
  0
POLYLINE
  8
DASHDOT
 62
     7
 66
     1
 70
     2
  0
VERTEX
  8
DASHDOT
 10
233.695663
 20
232.065216
  0
VERTEX
  8
DASHDOT
 10
233.695663
 20
201.517380
  0
SEQEND
  0
POLYLINE
  8
0
 62
     4
 66
     1
 70
     2
  0
VERTEX
  8
0
 10
236.195663
 20
224.891296
  0
VERTEX
  8
0
 10
236.195663
 20
208.691299
  0
SEQEND
  0
POLYLINE
  8
0
 62
     4
 66
     1
 70
     2
  0
VERTEX
  8
0
 10
231.195663
 20
224.891296
  0
VERTEX
  8
0
 10
231.195663
 20
208.691299
  0
SEQEND
  0
POLYLINE
  8
0
 62
     4
 66
     1
 70
     2
  0
VERTEX
  8
0
 10
235.760666
 20
224.891296
  0
VERTEX
  8
0
 10
235.760666
 20
208.691299
  0
SEQEND
  0
POLYLINE
  8
0
 62
     4
 66
     1
 70
     2
  0
VERTEX
  8
0
 10
231.630661
 20
224.891296
  0
VERTEX
  8
0
 10
231.630661
 20
208.691299
  0
SEQEND
  0
POLYLINE
  8
0
 62
     4
 66
     1
 70
     2
  0
VERTEX
  8
0
 10
457.717407
 20
208.691299
  0
VERTEX
  8
0
 10
457.717407
 20
224.786957
  0
SEQEND
  0
POLYLINE
  8
0
 62
     4
 66
     1
 70
     2
  0
VERTEX
  8
0
 10
462.717407
 20
208.691299
  0
VERTEX
  8
0
 10
462.717407
 20
224.786957
  0
SEQEND
  0
POLYLINE
  8
0
 62
     4
 66
     1
 70
     2
  0
VERTEX
  8
0
 10
458.152405
 20
208.691299
  0
VERTEX
  8
0
 10
458.152405
 20
224.820145
  0
SEQEND
  0
POLYLINE
  8
0
 62
     4
 66
     1
 70
     2
  0
VERTEX
  8
0
 10
462.282410
 20
208.691299
  0
VERTEX
  8
0
 10
462.282410
 20
224.820145
  0
SEQEND
  0
POLYLINE
  8
0
 62
     5
 66
     1
 70
     2
  0
VERTEX
  8
0
 10
460.217407
 20
224.891296
  0
VERTEX
  8
0
 10
417.173920
 20
296.630432
  0
VERTEX
  8
0
 10
443.478271
 20
296.630432
  0
SEQEND
  0
POLYLINE
  8
0
 62
     5
 66
     1
 70
     2
  0
VERTEX
  8
0
 10
453.860779
 20
230.837830
  0
VERTEX
  8
0
 10
460.217407
 20
224.891296
  0
VERTEX
  8
0
 10
457.961792
 20
233.298462
  0
SEQEND
  0
TEXT
  8
0
 62
     7
 10
419.565247
 20
299.021729
 40
11.478261
 41
1.000000
  1
M5
  7
KANJI
 50
0.000000
 51
0.000000
  0
CIRCLE
  8
0
 62
     7
 10
233.695663
 20
194.891296
 40
2.500000
  0
CIRCLE
  8
0
 62
     4
 10
233.695663
 20
194.891296
 40
2.065000
  0
POLYLINE
  8
DASHDOT
 62
     7
 66
     1
 70
     2
  0
VERTEX
  8
DASHDOT
 10
224.021759
 20
194.891296
  0
VERTEX
  8
DASHDOT
 10
243.369568
 20
194.891296
  0
SEQEND
  0
POLYLINE
  8
DASHDOT
 62
     7
 66
     1
 70
     2
  0
VERTEX
  8
DASHDOT
 10
233.695663
 20
185.217377
  0
VERTEX
  8
DASHDOT
 10
233.695663
 20
204.565216
  0
SEQEND
  0
LINE
  8
DASHDOT
 62
     7
 10
233.695663
 20
224.891296
 11
233.695663
 21
194.891296
  0
LINE
  8
0
 62
     5
 10
233.695663
 20
224.891296
 11
233.695663
 21
235.660858
  0
POLYLINE
  8
0
 62
     4
 66
     1
 70
     2
  0
VERTEX
  8
0
 10
470.929565
 20
197.391296
  0
VERTEX
  8
0
 10
490.113037
 20
197.391296
  0
SEQEND
  0
POLYLINE
  8
0
 62
     4
 66
     1
 70
     2
  0
VERTEX
  8
0
 10
470.929565
 20
192.391296
  0
VERTEX
  8
0
 10
490.113037
 20
192.391296
  0
SEQEND
  0
POLYLINE
  8
0
 62
     4
 66
     1
 70
     2
  0
VERTEX
  8
0
 10
471.021851
 20
196.956299
  0
VERTEX
  8
0
 10
490.146240
 20
196.956299
  0
SEQEND
  0
POLYLINE
  8
0
 62
     4
 66
     1
 70
     2
  0
VERTEX
  8
0
 10
471.021851
 20
192.826294
  0
VERTEX
  8
0
 10
490.146240
 20
192.826294
  0
SEQEND
  0
POLYLINE
  8
0
 62
     5
 66
     1
 70
     2
  0
VERTEX
  8
0
 10
490.217407
 20
194.891296
  0
VERTEX
  8
0
 10
526.086975
 20
277.500000
  0
VERTEX
  8
0
 10
491.173889
 20
277.500000
  0
SEQEND
  0
POLYLINE
  8
0
 62
     5
 66
     1
 70
     2
  0
VERTEX
  8
0
 10
491.357422
 20
203.520798
  0
VERTEX
  8
0
 10
490.217407
 20
194.891296
  0
VERTEX
  8
0
 10
495.744324
 20
201.615967
  0
SEQEND
  0
TEXT
  8
0
 62
     7
 10
495.956543
 20
279.891296
 40
11.478261
 41
1.000000
  1
M5
  7
KANJI
 50
0.000000
 51
0.000000
  0
LINE
  8
DASHDOT
 62
     7
 10
193.695663
 20
209.891296
 11
223.695663
 21
179.891296
  0
LINE
  8
0
 62
     7
 10
208.695663
 20
206.847824
 11
208.695663
 21
182.934769
  0
LINE
  8
0
 62
     5
 10
305.869568
 20
205.891296
 11
305.869568
 21
183.891296
  0
POLYLINE
  8
0
 62
     5
 66
     1
 70
     2
  0
VERTEX
  8
0
 10
303.478271
 20
192.260864
  0
VERTEX
  8
0
 10
305.869568
 20
183.891296
  0
VERTEX
  8
0
 10
308.260864
 20
192.260864
  0
SEQEND
  0
LINE
  8
0
 62
     5
 10
243.695663
 20
183.891296
 11
309.456543
 21
183.891296
  0
TEXT
  8
0
 62
     7
 10
303.478271
 20
173.070648
 40
11.956522
 41
1.000000
  1
%%c22H7
  7
KANJI
 50
90.000000
 51
0.000000
  0
POLYLINE
  8
0
 62
     4
 66
     1
 70
     2
  0
VERTEX
  8
0
 10
193.695663
 20
182.891296
  0
VERTEX
  8
0
 10
193.695663
 20
155.121735
  0
VERTEX
  8
0
 10
194.695663
 20
154.121735
  0
VERTEX
  8
0
 10
222.695663
 20
154.121735
  0
VERTEX
  8
0
 10
223.695663
 20
155.121735
  0
VERTEX
  8
0
 10
223.695663
 20
163.891296
  0
SEQEND
  0
POLYLINE
  8
0
 62
     4
 66
     1
 70
     2
  0
VERTEX
  8
0
 10
224.695663
 20
164.891296
  0
VERTEX
  8
0
 10
242.695663
 20
164.891296
  0
VERTEX
  8
0
 10
243.695663
 20
165.891296
  0
VERTEX
  8
0
 10
243.695663
 20
223.891296
  0
VERTEX
  8
0
 10
242.695663
 20
224.891296
  0
VERTEX
  8
0
 10
224.695663
 20
224.891296
  0
SEQEND
  0
POLYLINE
  8
0
 62
     4
 66
     1
 70
     2
  0
VERTEX
  8
0
 10
223.695663
 20
225.891296
  0
VERTEX
  8
0
 10
223.695663
 20
234.660858
  0
VERTEX
  8
0
 10
222.695663
 20
235.660858
  0
VERTEX
  8
0
 10
194.695663
 20
235.660858
  0
VERTEX
  8
0
 10
193.695663
 20
234.660858
  0
VERTEX
  8
0
 10
193.695663
 20
182.891296
  0
SEQEND
  0
LINE
  8
DASHDOT
 62
     7
 10
460.217407
 20
215.865204
 11
460.217407
 21
176.717377
  0
LINE
  8
DASHDOT
 62
     7
 10
478.391296
 20
194.891296
 11
442.043488
 21
194.891296
  0
LINE
  8
0
 62
     5
 10
477.565247
 20
244.560852
 11
442.869568
 21
244.560852
  0
POLYLINE
  8
0
 62
     5
 66
     1
 70
     2
  0
VERTEX
  8
0
 10
448.847839
 20
242.169556
  0
VERTEX
  8
0
 10
457.217407
 20
244.560852
  0
VERTEX
  8
0
 10
448.847839
 20
246.952164
  0
SEQEND
  0
POLYLINE
  8
0
 62
     5
 66
     1
 70
     2
  0
VERTEX
  8
0
 10
471.586975
 20
246.952164
  0
VERTEX
  8
0
 10
463.217407
 20
244.560852
  0
VERTEX
  8
0
 10
471.586975
 20
242.169556
  0
SEQEND
  0
LINE
  8
0
 62
     5
 10
457.217407
 20
208.691299
 11
457.217407
 21
248.147812
  0
LINE
  8
0
 62
     5
 10
463.217407
 20
208.691299
 11
463.217407
 21
248.147812
  0
TEXT
  8
0
 62
     7
 10
435.536743
 20
246.952164
 40
11.956522
 41
1.000000
  1
6
  7
KANJI
 50
0.000000
 51
0.000000
  0
TEXT
  8
0
 62
     7
 10
447.372253
 20
246.952164
 40
9.565217
 41
1.000000
  1
%%p0.015
  7
KANJI
 50
0.000000
 51
0.000000
  0
LINE
  8
0
 62
     5
 10
520.608704
 20
169.543472
 11
520.608704
 21
223.039124
  0
POLYLINE
  8
0
 62
     5
 66
     1
 70
     2
  0
VERTEX
  8
0
 10
518.217407
 20
217.060867
  0
VERTEX
  8
0
 10
520.608704
 20
208.691299
  0
VERTEX
  8
0
 10
523.000000
 20
217.060867
  0
SEQEND
  0
POLYLINE
  8
0
 62
     5
 66
     1
 70
     2
  0
VERTEX
  8
0
 10
523.000000
 20
175.521729
  0
VERTEX
  8
0
 10
520.608704
 20
183.891296
  0
VERTEX
  8
0
 10
518.217407
 20
175.521729
  0
SEQEND
  0
LINE
  8
0
 62
     5
 10
463.217407
 20
208.691299
 11
524.195618
 21
208.691299
  0
LINE
  8
0
 62
     5
 10
460.217407
 20
183.891296
 11
524.195618
 21
183.891296
  0
TEXT
  8
0
 62
     7
 10
517.021729
 20
159.718964
 40
11.956522
 41
1.000000
  1
24.8
  7
KANJI
 50
90.000000
 51
0.000000
  0
TEXT
  8
0
 62
     7
 10
517.739136
 20
211.471527
 40
5.978261
 41
1.000000
  1
 
  7
KANJI
 50
90.000000
 51
0.000000
  0
TEXT
  8
0
 62
     7
 10
510.326050
 20
211.471527
 40
5.978261
 41
1.000000
  1
+
  7
KANJI
 50
90.000000
 51
0.000000
  0
TEXT
  8
0
 62
     7
 10
517.739136
 20
218.167175
 40
5.978261
 41
1.000000
  1
0
  7
KANJI
 50
90.000000
 51
0.000000
  0
TEXT
  8
0
 62
     7
 10
510.326050
 20
218.167175
 40
5.978261
 41
1.000000
  1
0.1
  7
KANJI
 50
90.000000
 51
0.000000
  0
CIRCLE
  8
0
 62
     4
 10
460.217407
 20
194.891296
 40
30.000000
  0
LINE
  8
0
 62
     5
 10
258.043488
 20
247.617371
 11
219.347839
 21
247.617371
  0
POLYLINE
  8
0
 62
     5
 66
     1
 70
     2
  0
VERTEX
  8
0
 10
225.326096
 20
245.226074
  0
VERTEX
  8
0
 10
233.695663
 20
247.617371
  0
VERTEX
  8
0
 10
225.326096
 20
250.008667
  0
SEQEND
  0
POLYLINE
  8
0
 62
     5
 66
     1
 70
     2
  0
VERTEX
  8
0
 10
252.065231
 20
250.008667
  0
VERTEX
  8
0
 10
243.695663
 20
247.617371
  0
VERTEX
  8
0
 10
252.065231
 20
245.226074
  0
SEQEND
  0
LINE
  8
0
 62
     5
 10
233.695663
 20
235.660858
 11
233.695663
 21
251.204330
  0
TEXT
  8
0
 62
     7
 10
250.869568
 20
249.530411
 40
11.956522
 41
1.000000
  1
10
  7
KANJI
 50
0.000000
 51
0.000000
  0
LINE
  8
0
 62
     5
 10
233.695663
 20
224.891296
 11
233.695663
 21
235.660858
  0
ENDSEC
  0
EOF
