  0
SECTION
  2
HEADER
  9
$ACADVER
  1
AC1003
  9
$INSBASE
 10
0.000000
 20
0.000000
  9
$EXTMIN
 10
0.000000
 20
0.000000
  9
$EXTMAX
 10
84.887755
 20
58.698980
  9
$LIMMIN
 10
0.000000
 20
0.000000
  9
$LIMMAX
 10
84.887755
 20
58.698980
  9
$VIEWCTR
 10
42.443878
 20
29.349490
  9
$VIEWSIZE
 40
58.698980
  0
ENDSEC
  0
SECTION
  2
TABLES
  0
TABLE
  2
LTYPE
 70
     4
  0
LTYPE
  2
CONTINUOUS
 70
    64
  3
SolidLine
 72
    65
 73
     0
 40
0.0
  0
LTYPE
  2
HIDDEN
 70
    64
  3
------------------------
 72
    65
 73
     2
 40
0.903061
 49
0.602041
 49
-0.301020
  0
LTYPE
  2
DASHDOT
 70
    64
  3
--?--?--?--?--?--?--?--
 72
    65
 73
     4
 40
3.612245
 49
2.709184
 49
-0.301020
 49
0.301020
 49
-0.301020
  0
LTYPE
  2
DIVIDE
 70
    64
  3
--??--??--??--??--??--
 72
    65
 73
     6
 40
4.515306
 49
3.010204
 49
-0.301020
 49
0.301020
 49
-0.301020
 49
0.301020
 49
-0.301020
  0
ENDTAB
  0
TABLE
  2
LAYER
 70
     5
  0
LAYER
  2
0
 70
    64
 62
     7
  6
CONTINUOUS
  0
LAYER
  2
HIDDEN
 70
    64
 62
     2
  6
HIDDEN
  0
LAYER
  2
DASHDOT
 70
    64
 62
     6
  6
DASHDOT
  0
LAYER
  2
DIVIDE
 70
    64
 62
     5
  6
DIVIDE
  0
ENDTAB
  0
TABLE
  2
STYLE
 70
     1
  0
STYLE
  2
STANDARD
 70
    64
 40
0.0
 41
1.0
 50
0.0
 71
     0
 42
0.2
  3
TXT
  4

  0
STYLE
  2
KANJI
 70
    64
 40
0.0
 41
1.0
 50
0.0
 71
     0
 42
0.2
  3
TXT
  4
BIGFONT
  0
ENDTAB
  0
TABLE
  2
VIEW
 70
     0
  0
ENDTAB
  0
ENDSEC
  0
SECTION
  2
BLOCKS
  0
ENDSEC
  0
SECTION
  2
ENTITIES
  0
TEXT
  8
0
 62
     7
 10
3.010204
 20
3.311224
 40
1.204082
 41
1.000000
  1
KHK SS0.5-25B
  7
KANJI
 50
0.000000
 51
0.000000
  0
TEXT
  8
0
 62
     7
 10
3.010204
 20
1.505102
 40
1.204082
 41
1.000000
  1

  7
KANJI
 50
0.000000
 51
0.000000
  0
TEXT
  8
0
 62
     7
 10
3.010204
 20
54.183674
 40
1.354592
 41
1.000000
  1
Black oxide
  7
KANJI
 50
0.000000
 51
0.000000
  0
POLYLINE
  8
0
 62
     7
 66
     1
 70
     2
  0
VERTEX
  8
0
 10
72.244896
 20
54.183674
  0
VERTEX
  8
0
 10
71.070915
 20
56.218571
  0
VERTEX
  8
0
 10
75.766838
 20
56.218571
  0
VERTEX
  8
0
 10
74.592857
 20
54.183674
  0
VERTEX
  8
0
 10
73.418877
 20
56.218571
  0
VERTEX
  8
0
 10
72.244896
 20
54.183674
  0
SEQEND
  0
LINE
  8
0
 62
     5
 10
46.704082
 20
26.466835
 11
46.704082
 21
12.966835
  0
POLYLINE
  8
0
 62
     5
 66
     1
 70
     2
  0
VERTEX
  8
0
 10
47.005104
 20
25.413263
  0
VERTEX
  8
0
 10
46.704082
 20
26.466835
  0
VERTEX
  8
0
 10
46.403061
 20
25.413263
  0
SEQEND
  0
POLYLINE
  8
0
 62
     5
 66
     1
 70
     2
  0
VERTEX
  8
0
 10
46.403061
 20
14.020407
  0
VERTEX
  8
0
 10
46.704082
 20
12.966835
  0
VERTEX
  8
0
 10
47.005104
 20
14.020407
  0
SEQEND
  0
LINE
  8
0
 62
     5
 10
34.663265
 20
26.466835
 11
47.155613
 21
26.466835
  0
LINE
  8
0
 62
     5
 10
34.663265
 20
12.966835
 11
47.155613
 21
12.966835
  0
TEXT
  8
0
 62
     7
 10
46.403061
 20
16.970024
 40
1.505102
 41
1.000000
  1
%%c13.5
  7
KANJI
 50
90.000000
 51
0.000000
  0
LINE
  8
0
 62
     5
 10
23.663265
 20
33.089283
 11
34.663265
 21
33.089283
  0
POLYLINE
  8
0
 62
     5
 66
     1
 70
     2
  0
VERTEX
  8
0
 10
24.716837
 20
33.390305
  0
VERTEX
  8
0
 10
23.663265
 20
33.089283
  0
VERTEX
  8
0
 10
24.716837
 20
32.788261
  0
SEQEND
  0
POLYLINE
  8
0
 62
     5
 66
     1
 70
     2
  0
VERTEX
  8
0
 10
33.609695
 20
32.788261
  0
VERTEX
  8
0
 10
34.663265
 20
33.089283
  0
VERTEX
  8
0
 10
33.609695
 20
33.390305
  0
SEQEND
  0
TEXT
  8
0
 62
     7
 10
28.184948
 20
33.330101
 40
1.505102
 41
1.000000
  1
11
  7
KANJI
 50
0.000000
 51
0.000000
  0
LINE
  8
0
 62
     5
 10
18.663265
 20
35.497448
 11
34.663265
 21
35.497448
  0
POLYLINE
  8
0
 62
     5
 66
     1
 70
     2
  0
VERTEX
  8
0
 10
19.716837
 20
35.798470
  0
VERTEX
  8
0
 10
18.663265
 20
35.497448
  0
VERTEX
  8
0
 10
19.716837
 20
35.196426
  0
SEQEND
  0
POLYLINE
  8
0
 62
     5
 66
     1
 70
     2
  0
VERTEX
  8
0
 10
33.609695
 20
35.196426
  0
VERTEX
  8
0
 10
34.663265
 20
35.497448
  0
VERTEX
  8
0
 10
33.609695
 20
35.798470
  0
SEQEND
  0
LINE
  8
0
 62
     5
 10
18.663265
 20
26.466835
 11
18.663265
 21
35.948978
  0
LINE
  8
0
 62
     5
 10
34.663265
 20
26.466835
 11
34.663265
 21
35.948978
  0
TEXT
  8
0
 62
     7
 10
25.684948
 20
35.738266
 40
1.505102
 41
1.000000
  1
16
  7
KANJI
 50
0.000000
 51
0.000000
  0
LINE
  8
DASHDOT
 62
     7
 10
17.760204
 20
25.966835
 11
23.663265
 21
25.966835
  0
LINE
  8
DASHDOT
 62
     7
 10
17.760204
 20
13.466835
 11
23.663265
 21
13.466835
  0
LINE
  8
DASHDOT
 62
     7
 10
17.760204
 20
19.716835
 11
35.566326
 21
19.716835
  0
LINE
  8
0
 62
     5
 10
18.663265
 20
26.166836
 11
18.663265
 21
26.466835
  0
LINE
  8
0
 62
     5
 10
34.663265
 20
26.166836
 11
34.663265
 21
26.466835
  0
LINE
  8
0
 62
     5
 10
23.663265
 20
26.466835
 11
34.663265
 21
26.466835
  0
LINE
  8
0
 62
     5
 10
23.663265
 20
12.966835
 11
34.663265
 21
12.966835
  0
LINE
  8
0
 62
     4
 10
18.663265
 20
25.341835
 11
23.663265
 21
25.341835
  0
LINE
  8
0
 62
     4
 10
18.663265
 20
14.091835
 11
23.663265
 21
14.091835
  0
LINE
  8
0
 62
     4
 10
34.663265
 20
22.516834
 11
34.363266
 21
22.216835
  0
LINE
  8
0
 62
     4
 10
34.663265
 20
16.916836
 11
34.363266
 21
17.216835
  0
LINE
  8
0
 62
     4
 10
18.663265
 20
16.916836
 11
18.963264
 21
17.216835
  0
POLYLINE
  8
0
 62
     4
 66
     1
 70
     2
  0
VERTEX
  8
0
 10
23.663265
 20
26.466835
  0
VERTEX
  8
0
 10
23.663265
 20
26.466835
  0
VERTEX
  8
0
 10
18.963264
 20
26.466835
  0
VERTEX
  8
0
 10
18.663265
 20
26.166836
  0
VERTEX
  8
0
 10
18.663265
 20
16.916836
  0
SEQEND
  0
POLYLINE
  8
0
 62
     4
 66
     1
 70
     2
  0
VERTEX
  8
0
 10
18.663265
 20
16.916836
  0
VERTEX
  8
0
 10
18.663265
 20
13.266835
  0
VERTEX
  8
0
 10
18.963264
 20
12.966835
  0
VERTEX
  8
0
 10
23.663265
 20
12.966835
  0
VERTEX
  8
0
 10
23.663265
 20
12.966835
  0
VERTEX
  8
0
 10
23.663265
 20
12.966835
  0
VERTEX
  8
0
 10
34.363266
 20
12.966835
  0
VERTEX
  8
0
 10
34.663265
 20
13.266835
  0
VERTEX
  8
0
 10
34.663265
 20
26.166836
  0
VERTEX
  8
0
 10
34.363266
 20
26.466835
  0
VERTEX
  8
0
 10
23.663265
 20
26.466835
  0
VERTEX
  8
0
 10
23.663265
 20
26.466835
  0
SEQEND
  0
POLYLINE
  8
0
 62
     4
 66
     1
 70
     2
  0
VERTEX
  8
0
 10
18.663265
 20
22.516834
  0
VERTEX
  8
0
 10
18.963264
 20
22.216835
  0
VERTEX
  8
0
 10
18.963264
 20
17.216835
  0
VERTEX
  8
0
 10
34.363266
 20
17.216835
  0
VERTEX
  8
0
 10
34.363266
 20
22.216835
  0
VERTEX
  8
0
 10
18.963264
 20
22.216835
  0
SEQEND
  0
LINE
  8
0
 62
     5
 10
18.663265
 20
33.089283
 11
23.663265
 21
33.089283
  0
POLYLINE
  8
0
 62
     5
 66
     1
 70
     2
  0
VERTEX
  8
0
 10
19.716837
 20
33.390305
  0
VERTEX
  8
0
 10
18.663265
 20
33.089283
  0
VERTEX
  8
0
 10
19.716837
 20
32.788261
  0
SEQEND
  0
POLYLINE
  8
0
 62
     5
 66
     1
 70
     2
  0
VERTEX
  8
0
 10
22.609694
 20
32.788261
  0
VERTEX
  8
0
 10
23.663265
 20
33.089283
  0
VERTEX
  8
0
 10
22.609694
 20
33.390305
  0
SEQEND
  0
LINE
  8
0
 62
     5
 10
23.663265
 20
26.466835
 11
23.663265
 21
33.540813
  0
TEXT
  8
0
 62
     7
 10
20.674107
 20
33.330101
 40
1.505102
 41
1.000000
  1
5
  7
KANJI
 50
0.000000
 51
0.000000
  0
ARC
  8
0
 62
     4
 10
23.663265
 20
-5.908165
 40
20.000000
 50
70.69116924575835
 51
90.0
  0
ARC
  8
0
 62
     4
 10
23.663265
 20
45.341835
 40
20.000000
 50
270.0
 51
289.3088307542416
  0
ARC
  8
DASHDOT
 62
     7
 10
23.663265
 20
-5.908165
 40
19.375000
 50
60.0000012622552
 51
90.0
  0
ARC
  8
DASHDOT
 62
     7
 10
23.663265
 20
45.341835
 40
19.375000
 50
270.0
 51
299.99999873774476
  0
POLYLINE
  8
DASHDOT
 62
     7
 66
     1
 70
     2
  0
VERTEX
  8
DASHDOT
 10
31.663265
 20
27.369896
  0
VERTEX
  8
DASHDOT
 10
31.663265
 20
21.313774
  0
SEQEND
  0
POLYLINE
  8
0
 62
     4
 66
     1
 70
     2
  0
VERTEX
  8
0
 10
33.663265
 20
26.466835
  0
VERTEX
  8
0
 10
33.663265
 20
22.216835
  0
SEQEND
  0
POLYLINE
  8
0
 62
     4
 66
     1
 70
     2
  0
VERTEX
  8
0
 10
29.663265
 20
26.466835
  0
VERTEX
  8
0
 10
29.663265
 20
22.216835
  0
SEQEND
  0
POLYLINE
  8
0
 62
     4
 66
     1
 70
     2
  0
VERTEX
  8
0
 10
33.283264
 20
26.466835
  0
VERTEX
  8
0
 10
33.283264
 20
22.216835
  0
SEQEND
  0
POLYLINE
  8
0
 62
     4
 66
     1
 70
     2
  0
VERTEX
  8
0
 10
30.043266
 20
26.466835
  0
VERTEX
  8
0
 10
30.043266
 20
22.216835
  0
SEQEND
  0
LINE
  8
0
 62
     5
 10
31.663265
 20
26.466835
 11
31.663265
 21
26.466835
  0
POLYLINE
  8
0
 62
     5
 66
     1
 70
     2
  0
VERTEX
  8
0
 10
57.969387
 20
26.466835
  0
VERTEX
  8
0
 10
52.551022
 20
33.691326
  0
VERTEX
  8
0
 10
55.862244
 20
33.691326
  0
SEQEND
  0
POLYLINE
  8
0
 62
     5
 66
     1
 70
     2
  0
VERTEX
  8
0
 10
57.096428
 20
27.129080
  0
VERTEX
  8
0
 10
57.969387
 20
26.466835
  0
VERTEX
  8
0
 10
57.578060
 20
27.490305
  0
SEQEND
  0
TEXT
  8
0
 62
     7
 10
52.852039
 20
33.992344
 40
1.444898
 41
1.000000
  1
M4
  7
KANJI
 50
0.000000
 51
0.000000
  0
POLYLINE
  8
0
 62
     4
 66
     1
 70
     2
  0
VERTEX
  8
0
 10
55.969387
 20
21.216835
  0
VERTEX
  8
0
 10
55.969387
 20
26.163734
  0
SEQEND
  0
POLYLINE
  8
0
 62
     4
 66
     1
 70
     2
  0
VERTEX
  8
0
 10
59.969387
 20
21.216835
  0
VERTEX
  8
0
 10
59.969387
 20
26.163734
  0
SEQEND
  0
POLYLINE
  8
0
 62
     4
 66
     1
 70
     2
  0
VERTEX
  8
0
 10
56.349388
 20
21.620935
  0
VERTEX
  8
0
 10
56.349388
 20
26.269552
  0
SEQEND
  0
POLYLINE
  8
0
 62
     4
 66
     1
 70
     2
  0
VERTEX
  8
0
 10
59.589386
 20
21.620935
  0
VERTEX
  8
0
 10
59.589386
 20
26.269552
  0
SEQEND
  0
LINE
  8
0
 62
     5
 10
41.887756
 20
15.410713
 11
41.887756
 21
24.022957
  0
POLYLINE
  8
0
 62
     5
 66
     1
 70
     2
  0
VERTEX
  8
0
 10
41.586735
 20
23.270407
  0
VERTEX
  8
0
 10
41.887756
 20
22.216835
  0
VERTEX
  8
0
 10
42.188774
 20
23.270407
  0
SEQEND
  0
POLYLINE
  8
0
 62
     5
 66
     1
 70
     2
  0
VERTEX
  8
0
 10
42.188774
 20
16.163263
  0
VERTEX
  8
0
 10
41.887756
 20
17.216835
  0
VERTEX
  8
0
 10
41.586735
 20
16.163263
  0
SEQEND
  0
LINE
  8
0
 62
     5
 10
34.663265
 20
22.216835
 11
42.339287
 21
22.216835
  0
LINE
  8
0
 62
     5
 10
34.663265
 20
17.216835
 11
42.339287
 21
17.216835
  0
TEXT
  8
0
 62
     7
 10
41.586735
 20
17.459183
 40
1.505102
 41
1.000000
  1
%%c5H8
  7
KANJI
 50
90.000000
 51
0.000000
  0
CIRCLE
  8
0
 62
     4
 10
57.969387
 20
19.716835
 40
2.500000
  0
LINE
  8
DASHDOT
 62
     7
 10
57.969387
 20
27.971937
 11
57.969387
 21
12.063774
  0
LINE
  8
DASHDOT
 62
     7
 10
50.316326
 20
19.716835
 11
65.622452
 21
19.716835
  0
CIRCLE
  8
0
 62
     4
 10
57.969387
 20
19.716835
 40
6.750000
  0
LINE
  8
0
 62
     5
 10
31.663265
 20
28.272957
 11
34.663265
 21
28.272957
  0
POLYLINE
  8
0
 62
     5
 66
     1
 70
     2
  0
VERTEX
  8
0
 10
32.716835
 20
28.573978
  0
VERTEX
  8
0
 10
31.663265
 20
28.272957
  0
VERTEX
  8
0
 10
32.716835
 20
27.971937
  0
SEQEND
  0
POLYLINE
  8
0
 62
     5
 66
     1
 70
     2
  0
VERTEX
  8
0
 10
33.609695
 20
27.971937
  0
VERTEX
  8
0
 10
34.663265
 20
28.272957
  0
VERTEX
  8
0
 10
33.609695
 20
28.573978
  0
SEQEND
  0
LINE
  8
0
 62
     5
 10
31.663265
 20
26.466835
 11
31.663265
 21
28.724487
  0
TEXT
  8
0
 62
     7
 10
32.674107
 20
28.513775
 40
1.505102
 41
1.000000
  1
3
  7
KANJI
 50
0.000000
 51
0.000000
  0
LINE
  8
0
 62
     5
 10
31.663265
 20
26.466835
 11
31.663265
 21
26.466835
  0
ENDSEC
  0
EOF
