  0
SECTION
  2
HEADER
  9
$ACADVER
  1
AC1003
  9
$INSBASE
 10
0.000000
 20
0.000000
  9
$EXTMIN
 10
0.000000
 20
0.000000
  9
$EXTMAX
 10
337.173913
 20
233.152174
  9
$LIMMIN
 10
0.000000
 20
0.000000
  9
$LIMMAX
 10
337.173913
 20
233.152174
  9
$VIEWCTR
 10
168.586957
 20
116.576087
  9
$VIEWSIZE
 40
233.152174
  0
ENDSEC
  0
SECTION
  2
TABLES
  0
TABLE
  2
LTYPE
 70
     4
  0
LTYPE
  2
CONTINUOUS
 70
    64
  3
SolidLine
 72
    65
 73
     0
 40
0.0
  0
LTYPE
  2
HIDDEN
 70
    64
  3
------------------------
 72
    65
 73
     2
 40
3.586957
 49
2.391304
 49
-1.195652
  0
LTYPE
  2
DASHDOT
 70
    64
  3
--?--?--?--?--?--?--?--
 72
    65
 73
     4
 40
14.347826
 49
10.760870
 49
-1.195652
 49
1.195652
 49
-1.195652
  0
LTYPE
  2
DIVIDE
 70
    64
  3
--??--??--??--??--??--
 72
    65
 73
     6
 40
17.934783
 49
11.956522
 49
-1.195652
 49
1.195652
 49
-1.195652
 49
1.195652
 49
-1.195652
  0
ENDTAB
  0
TABLE
  2
LAYER
 70
     5
  0
LAYER
  2
0
 70
    64
 62
     7
  6
CONTINUOUS
  0
LAYER
  2
HIDDEN
 70
    64
 62
     2
  6
HIDDEN
  0
LAYER
  2
DASHDOT
 70
    64
 62
     6
  6
DASHDOT
  0
LAYER
  2
DIVIDE
 70
    64
 62
     5
  6
DIVIDE
  0
ENDTAB
  0
TABLE
  2
STYLE
 70
     1
  0
STYLE
  2
STANDARD
 70
    64
 40
0.0
 41
1.0
 50
0.0
 71
     0
 42
0.2
  3
TXT
  4

  0
STYLE
  2
KANJI
 70
    64
 40
0.0
 41
1.0
 50
0.0
 71
     0
 42
0.2
  3
TXT
  4
BIGFONT
  0
ENDTAB
  0
TABLE
  2
VIEW
 70
     0
  0
ENDTAB
  0
ENDSEC
  0
SECTION
  2
BLOCKS
  0
ENDSEC
  0
SECTION
  2
ENTITIES
  0
TEXT
  8
0
 62
     7
 10
11.956522
 20
13.152174
 40
4.782609
 41
1.000000
  1
KHK SS1-50A
  7
KANJI
 50
0.000000
 51
0.000000
  0
TEXT
  8
0
 62
     7
 10
11.956522
 20
5.978261
 40
4.782609
 41
1.000000
  1

  7
KANJI
 50
0.000000
 51
0.000000
  0
TEXT
  8
0
 62
     7
 10
11.956522
 20
215.217392
 40
5.380435
 41
1.000000
  1
Black oxide
  7
KANJI
 50
0.000000
 51
0.000000
  0
POLYLINE
  8
0
 62
     7
 66
     1
 70
     2
  0
VERTEX
  8
0
 10
286.956512
 20
215.217392
  0
VERTEX
  8
0
 10
282.293457
 20
223.300003
  0
VERTEX
  8
0
 10
300.945648
 20
223.300003
  0
VERTEX
  8
0
 10
296.282593
 20
215.217392
  0
VERTEX
  8
0
 10
291.619568
 20
223.300003
  0
VERTEX
  8
0
 10
286.956512
 20
215.217392
  0
SEQEND
  0
LINE
  8
0
 62
     5
 10
176.630432
 20
123.445656
 11
176.630432
 21
71.445656
  0
POLYLINE
  8
0
 62
     5
 66
     1
 70
     2
  0
VERTEX
  8
0
 10
177.826096
 20
119.260872
  0
VERTEX
  8
0
 10
176.630432
 20
123.445656
  0
VERTEX
  8
0
 10
175.434784
 20
119.260872
  0
SEQEND
  0
POLYLINE
  8
0
 62
     5
 66
     1
 70
     2
  0
VERTEX
  8
0
 10
175.434784
 20
75.630440
  0
VERTEX
  8
0
 10
176.630432
 20
71.445656
  0
VERTEX
  8
0
 10
177.826096
 20
75.630440
  0
SEQEND
  0
LINE
  8
0
 62
     5
 10
116.847832
 20
123.445656
 11
178.423920
 21
123.445656
  0
LINE
  8
0
 62
     5
 10
116.847832
 20
71.445656
 11
178.423920
 21
71.445656
  0
TEXT
  8
0
 62
     7
 10
175.434784
 20
90.421204
 40
5.978261
 41
1.000000
  1
%%c52
  7
KANJI
 50
90.000000
 51
0.000000
  0
LINE
  8
DASHDOT
 62
     7
 10
93.260872
 20
122.445656
 11
110.434792
 21
122.445656
  0
LINE
  8
DASHDOT
 62
     7
 10
93.260872
 20
72.445656
 11
110.434792
 21
72.445656
  0
LINE
  8
DASHDOT
 62
     7
 10
93.260872
 20
97.445656
 11
120.434784
 21
97.445656
  0
LINE
  8
0
 62
     5
 10
106.847832
 20
122.945656
 11
106.847832
 21
123.445656
  0
LINE
  8
0
 62
     5
 10
96.847832
 20
122.945656
 11
96.847832
 21
123.445656
  0
LINE
  8
0
 62
     5
 10
107.847832
 20
114.945656
 11
116.847832
 21
114.945656
  0
LINE
  8
0
 62
     5
 10
107.847832
 20
79.945656
 11
116.847832
 21
79.945656
  0
LINE
  8
0
 62
     5
 10
106.347832
 20
123.445656
 11
116.847832
 21
123.445656
  0
LINE
  8
0
 62
     5
 10
106.347832
 20
71.445656
 11
116.847832
 21
71.445656
  0
LINE
  8
0
 62
     4
 10
96.847832
 20
121.195656
 11
106.847832
 21
121.195656
  0
LINE
  8
0
 62
     4
 10
96.847832
 20
73.695656
 11
106.847832
 21
73.695656
  0
LINE
  8
0
 62
     4
 10
116.347832
 20
93.445656
 11
116.847832
 21
92.945656
  0
LINE
  8
0
 62
     4
 10
116.347832
 20
101.445656
 11
116.847832
 21
101.945656
  0
LINE
  8
0
 62
     4
 10
97.347832
 20
101.445656
 11
97.347832
 21
93.445656
  0
POLYLINE
  8
0
 62
     4
 66
     1
 70
     2
  0
VERTEX
  8
0
 10
96.847832
 20
92.945656
  0
VERTEX
  8
0
 10
97.347832
 20
93.445656
  0
VERTEX
  8
0
 10
116.347832
 20
93.445656
  0
VERTEX
  8
0
 10
116.347832
 20
101.445656
  0
VERTEX
  8
0
 10
97.347832
 20
101.445656
  0
VERTEX
  8
0
 10
96.847832
 20
101.945656
  0
SEQEND
  0
ARC
  8
0
 62
     4
 10
107.847832
 20
115.945656
 40
1.000000
 50
180.0
 51
270.0
  0
ARC
  8
0
 62
     4
 10
107.847832
 20
78.945656
 40
1.000000
 50
90.0
 51
180.0
  0
LINE
  8
0
 62
     5
 10
116.847832
 20
114.445656
 11
116.847832
 21
123.445656
  0
LINE
  8
0
 62
     5
 10
114.021744
 20
155.728271
 11
89.673920
 21
155.728271
  0
POLYLINE
  8
0
 62
     5
 66
     1
 70
     2
  0
VERTEX
  8
0
 10
92.663048
 20
154.532608
  0
VERTEX
  8
0
 10
96.847832
 20
155.728271
  0
VERTEX
  8
0
 10
92.663048
 20
156.923920
  0
SEQEND
  0
POLYLINE
  8
0
 62
     5
 66
     1
 70
     2
  0
VERTEX
  8
0
 10
111.032616
 20
156.923920
  0
VERTEX
  8
0
 10
106.847832
 20
155.728271
  0
VERTEX
  8
0
 10
111.032616
 20
154.532608
  0
SEQEND
  0
LINE
  8
0
 62
     5
 10
106.847832
 20
123.445656
 11
106.847832
 21
157.521744
  0
TEXT
  8
0
 62
     7
 10
97.961960
 20
156.684784
 40
5.978261
 41
1.000000
  1
10
  7
KANJI
 50
0.000000
 51
0.000000
  0
LINE
  8
0
 62
     5
 10
96.847832
 20
165.293488
 11
116.847832
 21
165.293488
  0
POLYLINE
  8
0
 62
     5
 66
     1
 70
     2
  0
VERTEX
  8
0
 10
101.032616
 20
166.489136
  0
VERTEX
  8
0
 10
96.847832
 20
165.293488
  0
VERTEX
  8
0
 10
101.032616
 20
164.097824
  0
SEQEND
  0
POLYLINE
  8
0
 62
     5
 66
     1
 70
     2
  0
VERTEX
  8
0
 10
112.663048
 20
164.097824
  0
VERTEX
  8
0
 10
116.847832
 20
165.293488
  0
VERTEX
  8
0
 10
112.663048
 20
166.489136
  0
SEQEND
  0
LINE
  8
0
 62
     5
 10
96.847832
 20
123.445656
 11
96.847832
 21
167.086960
  0
LINE
  8
0
 62
     5
 10
116.847832
 20
123.445656
 11
116.847832
 21
167.086960
  0
TEXT
  8
0
 62
     7
 10
102.961960
 20
166.250000
 40
5.978261
 41
1.000000
  1
20
  7
KANJI
 50
0.000000
 51
0.000000
  0
LINE
  8
0
 62
     5
 10
124.021744
 20
155.728271
 11
99.673920
 21
155.728271
  0
POLYLINE
  8
0
 62
     5
 66
     1
 70
     2
  0
VERTEX
  8
0
 10
102.663048
 20
154.532608
  0
VERTEX
  8
0
 10
106.847832
 20
155.728271
  0
VERTEX
  8
0
 10
102.663048
 20
156.923920
  0
SEQEND
  0
POLYLINE
  8
0
 62
     5
 66
     1
 70
     2
  0
VERTEX
  8
0
 10
121.032616
 20
156.923920
  0
VERTEX
  8
0
 10
116.847832
 20
155.728271
  0
VERTEX
  8
0
 10
121.032616
 20
154.532608
  0
SEQEND
  0
TEXT
  8
0
 62
     7
 10
107.961960
 20
156.684784
 40
5.978261
 41
1.000000
  1
10
  7
KANJI
 50
0.000000
 51
0.000000
  0
LINE
  8
0
 62
     5
 10
167.065216
 20
114.945656
 11
167.065216
 21
79.945656
  0
POLYLINE
  8
0
 62
     5
 66
     1
 70
     2
  0
VERTEX
  8
0
 10
168.260880
 20
110.760872
  0
VERTEX
  8
0
 10
167.065216
 20
114.945656
  0
VERTEX
  8
0
 10
165.869568
 20
110.760872
  0
SEQEND
  0
POLYLINE
  8
0
 62
     5
 66
     1
 70
     2
  0
VERTEX
  8
0
 10
165.869568
 20
84.130440
  0
VERTEX
  8
0
 10
167.065216
 20
79.945656
  0
VERTEX
  8
0
 10
168.260880
 20
84.130440
  0
SEQEND
  0
LINE
  8
0
 62
     5
 10
116.847832
 20
114.945656
 11
168.858704
 21
114.945656
  0
LINE
  8
0
 62
     5
 10
116.847832
 20
79.945656
 11
168.858704
 21
79.945656
  0
TEXT
  8
0
 62
     7
 10
165.869568
 20
90.421204
 40
5.978261
 41
1.000000
  1
%%c35
  7
KANJI
 50
90.000000
 51
0.000000
  0
POLYLINE
  8
DASHDOT
 62
     7
 66
     1
 70
     2
  0
VERTEX
  8
DASHDOT
 10
111.847832
 20
118.532608
  0
VERTEX
  8
DASHDOT
 10
111.847832
 20
97.858704
  0
SEQEND
  0
POLYLINE
  8
0
 62
     4
 66
     1
 70
     2
  0
VERTEX
  8
0
 10
114.347832
 20
114.945656
  0
VERTEX
  8
0
 10
114.347832
 20
101.445656
  0
SEQEND
  0
POLYLINE
  8
0
 62
     4
 66
     1
 70
     2
  0
VERTEX
  8
0
 10
109.347832
 20
114.945656
  0
VERTEX
  8
0
 10
109.347832
 20
101.445656
  0
SEQEND
  0
POLYLINE
  8
0
 62
     4
 66
     1
 70
     2
  0
VERTEX
  8
0
 10
113.912834
 20
114.945656
  0
VERTEX
  8
0
 10
113.912834
 20
101.445656
  0
SEQEND
  0
POLYLINE
  8
0
 62
     4
 66
     1
 70
     2
  0
VERTEX
  8
0
 10
109.782829
 20
114.945656
  0
VERTEX
  8
0
 10
109.782829
 20
101.445656
  0
SEQEND
  0
POLYLINE
  8
0
 62
     4
 66
     1
 70
     2
  0
VERTEX
  8
0
 10
225.108704
 20
100.568153
  0
VERTEX
  8
0
 10
225.108704
 20
114.766167
  0
SEQEND
  0
POLYLINE
  8
0
 62
     4
 66
     1
 70
     2
  0
VERTEX
  8
0
 10
230.108704
 20
100.568153
  0
VERTEX
  8
0
 10
230.108704
 20
114.766167
  0
SEQEND
  0
POLYLINE
  8
0
 62
     4
 66
     1
 70
     2
  0
VERTEX
  8
0
 10
225.543701
 20
100.871407
  0
VERTEX
  8
0
 10
225.543701
 20
114.823395
  0
SEQEND
  0
POLYLINE
  8
0
 62
     4
 66
     1
 70
     2
  0
VERTEX
  8
0
 10
229.673706
 20
100.871407
  0
VERTEX
  8
0
 10
229.673706
 20
114.823395
  0
SEQEND
  0
POLYLINE
  8
0
 62
     5
 66
     1
 70
     2
  0
VERTEX
  8
0
 10
227.608704
 20
114.945656
  0
VERTEX
  8
0
 10
206.086960
 20
150.815216
  0
VERTEX
  8
0
 10
219.239136
 20
150.815216
  0
SEQEND
  0
POLYLINE
  8
0
 62
     5
 66
     1
 70
     2
  0
VERTEX
  8
0
 10
224.430389
 20
117.918915
  0
VERTEX
  8
0
 10
227.608704
 20
114.945656
  0
VERTEX
  8
0
 10
226.480896
 20
119.149231
  0
SEQEND
  0
TEXT
  8
0
 62
     7
 10
207.282623
 20
152.010864
 40
5.739131
 41
1.000000
  1
M5
  7
KANJI
 50
0.000000
 51
0.000000
  0
LINE
  8
0
 62
     5
 10
147.934784
 20
86.271744
 11
147.934784
 21
108.619568
  0
POLYLINE
  8
0
 62
     5
 66
     1
 70
     2
  0
VERTEX
  8
0
 10
146.739136
 20
105.630440
  0
VERTEX
  8
0
 10
147.934784
 20
101.445656
  0
VERTEX
  8
0
 10
149.130432
 20
105.630440
  0
SEQEND
  0
POLYLINE
  8
0
 62
     5
 66
     1
 70
     2
  0
VERTEX
  8
0
 10
149.130432
 20
89.260872
  0
VERTEX
  8
0
 10
147.934784
 20
93.445656
  0
VERTEX
  8
0
 10
146.739136
 20
89.260872
  0
SEQEND
  0
LINE
  8
0
 62
     5
 10
116.847832
 20
101.445656
 11
149.728271
 21
101.445656
  0
LINE
  8
0
 62
     5
 10
116.847832
 20
93.445656
 11
149.728271
 21
93.445656
  0
TEXT
  8
0
 62
     7
 10
146.739136
 20
88.478264
 40
5.978261
 41
1.000000
  1
%%c8H7
  7
KANJI
 50
90.000000
 51
0.000000
  0
POLYLINE
  8
0
 62
     4
 66
     1
 70
     2
  0
VERTEX
  8
0
 10
96.847832
 20
92.945656
  0
VERTEX
  8
0
 10
96.847832
 20
71.945656
  0
VERTEX
  8
0
 10
97.347832
 20
71.445656
  0
VERTEX
  8
0
 10
106.347832
 20
71.445656
  0
VERTEX
  8
0
 10
106.847832
 20
71.945656
  0
VERTEX
  8
0
 10
106.847832
 20
78.945656
  0
SEQEND
  0
POLYLINE
  8
0
 62
     4
 66
     1
 70
     2
  0
VERTEX
  8
0
 10
107.847832
 20
79.945656
  0
VERTEX
  8
0
 10
116.347832
 20
79.945656
  0
VERTEX
  8
0
 10
116.847832
 20
80.445656
  0
VERTEX
  8
0
 10
116.847832
 20
114.445656
  0
VERTEX
  8
0
 10
116.347832
 20
114.945656
  0
VERTEX
  8
0
 10
107.847832
 20
114.945656
  0
SEQEND
  0
POLYLINE
  8
0
 62
     4
 66
     1
 70
     2
  0
VERTEX
  8
0
 10
106.847832
 20
115.945656
  0
VERTEX
  8
0
 10
106.847832
 20
122.945656
  0
VERTEX
  8
0
 10
106.347832
 20
123.445656
  0
VERTEX
  8
0
 10
97.347832
 20
123.445656
  0
VERTEX
  8
0
 10
96.847832
 20
122.945656
  0
VERTEX
  8
0
 10
96.847832
 20
92.945656
  0
SEQEND
  0
CIRCLE
  8
0
 62
     4
 10
227.608704
 20
97.445656
 40
4.000000
  0
LINE
  8
DASHDOT
 62
     7
 10
227.608704
 20
120.923920
 11
227.608704
 21
76.358704
  0
LINE
  8
DASHDOT
 62
     7
 10
206.521744
 20
97.445656
 11
248.695648
 21
97.445656
  0
CIRCLE
  8
0
 62
     4
 10
227.608704
 20
97.445656
 40
17.500000
  0
LINE
  8
0
 62
     5
 10
124.021744
 20
129.423920
 11
104.673920
 21
129.423920
  0
POLYLINE
  8
0
 62
     5
 66
     1
 70
     2
  0
VERTEX
  8
0
 10
107.663048
 20
128.228271
  0
VERTEX
  8
0
 10
111.847832
 20
129.423920
  0
VERTEX
  8
0
 10
107.663048
 20
130.619568
  0
SEQEND
  0
POLYLINE
  8
0
 62
     5
 66
     1
 70
     2
  0
VERTEX
  8
0
 10
121.032616
 20
130.619568
  0
VERTEX
  8
0
 10
116.847832
 20
129.423920
  0
VERTEX
  8
0
 10
121.032616
 20
128.228271
  0
SEQEND
  0
LINE
  8
0
 62
     5
 10
111.847832
 20
123.445656
 11
111.847832
 21
131.217392
  0
TEXT
  8
0
 62
     7
 10
112.404900
 20
130.380432
 40
5.978261
 41
1.000000
  1
5
  7
KANJI
 50
0.000000
 51
0.000000
  0
LINE
  8
0
 62
     5
 10
111.847832
 20
114.945656
 11
111.847832
 21
123.445656
  0
ENDSEC
  0
EOF
