  0
SECTION
  2
HEADER
  9
$ACADVER
  1
AC1003
  9
$INSBASE
 10
0.000000
 20
0.000000
  9
$EXTMIN
 10
0.000000
 20
0.000000
  9
$EXTMAX
 10
151.071429
 20
104.464286
  9
$LIMMIN
 10
0.000000
 20
0.000000
  9
$LIMMAX
 10
151.071429
 20
104.464286
  9
$VIEWCTR
 10
75.535714
 20
52.232143
  9
$VIEWSIZE
 40
104.464286
  0
ENDSEC
  0
SECTION
  2
TABLES
  0
TABLE
  2
LTYPE
 70
     4
  0
LTYPE
  2
CONTINUOUS
 70
    64
  3
SolidLine
 72
    65
 73
     0
 40
0.0
  0
LTYPE
  2
HIDDEN
 70
    64
  3
------------------------
 72
    65
 73
     2
 40
1.607143
 49
1.071429
 49
-0.535714
  0
LTYPE
  2
DASHDOT
 70
    64
  3
--?--?--?--?--?--?--?--
 72
    65
 73
     4
 40
6.428571
 49
4.821429
 49
-0.535714
 49
0.535714
 49
-0.535714
  0
LTYPE
  2
DIVIDE
 70
    64
  3
--??--??--??--??--??--
 72
    65
 73
     6
 40
8.035714
 49
5.357143
 49
-0.535714
 49
0.535714
 49
-0.535714
 49
0.535714
 49
-0.535714
  0
ENDTAB
  0
TABLE
  2
LAYER
 70
     5
  0
LAYER
  2
0
 70
    64
 62
     7
  6
CONTINUOUS
  0
LAYER
  2
HIDDEN
 70
    64
 62
     2
  6
HIDDEN
  0
LAYER
  2
DASHDOT
 70
    64
 62
     6
  6
DASHDOT
  0
LAYER
  2
DIVIDE
 70
    64
 62
     5
  6
DIVIDE
  0
ENDTAB
  0
TABLE
  2
STYLE
 70
     1
  0
STYLE
  2
STANDARD
 70
    64
 40
0.0
 41
1.0
 50
0.0
 71
     0
 42
0.2
  3
TXT
  4

  0
STYLE
  2
KANJI
 70
    64
 40
0.0
 41
1.0
 50
0.0
 71
     0
 42
0.2
  3
TXT
  4
BIGFONT
  0
ENDTAB
  0
TABLE
  2
VIEW
 70
     0
  0
ENDTAB
  0
ENDSEC
  0
SECTION
  2
BLOCKS
  0
ENDSEC
  0
SECTION
  2
ENTITIES
  0
TEXT
  8
0
 62
     7
 10
5.357143
 20
5.892857
 40
2.142857
 41
1.000000
  1
KHK SS1.5-13
  7
KANJI
 50
0.000000
 51
0.000000
  0
TEXT
  8
0
 62
     7
 10
5.357143
 20
2.678571
 40
2.142857
 41
1.000000
  1

  7
KANJI
 50
0.000000
 51
0.000000
  0
TEXT
  8
0
 62
     7
 10
5.357143
 20
96.428574
 40
2.410714
 41
1.000000
  1
Black oxide
  7
KANJI
 50
0.000000
 51
0.000000
  0
POLYLINE
  8
0
 62
     7
 66
     1
 70
     2
  0
VERTEX
  8
0
 10
128.571426
 20
96.428574
  0
VERTEX
  8
0
 10
126.482140
 20
100.050003
  0
VERTEX
  8
0
 10
134.839279
 20
100.050003
  0
VERTEX
  8
0
 10
132.750000
 20
96.428574
  0
VERTEX
  8
0
 10
130.660706
 20
100.050003
  0
VERTEX
  8
0
 10
128.571426
 20
96.428574
  0
SEQEND
  0
LINE
  8
0
 62
     5
 10
84.642853
 20
46.339287
 11
84.642853
 21
23.839287
  0
POLYLINE
  8
0
 62
     5
 66
     1
 70
     2
  0
VERTEX
  8
0
 10
85.178574
 20
44.464287
  0
VERTEX
  8
0
 10
84.642853
 20
46.339287
  0
VERTEX
  8
0
 10
84.107147
 20
44.464287
  0
SEQEND
  0
POLYLINE
  8
0
 62
     5
 66
     1
 70
     2
  0
VERTEX
  8
0
 10
84.107147
 20
25.714287
  0
VERTEX
  8
0
 10
84.642853
 20
23.839287
  0
VERTEX
  8
0
 10
85.178574
 20
25.714287
  0
SEQEND
  0
LINE
  8
0
 62
     5
 10
63.214283
 20
46.339287
 11
85.446426
 21
46.339287
  0
LINE
  8
0
 62
     5
 10
63.214283
 20
23.839287
 11
85.446426
 21
23.839287
  0
TEXT
  8
0
 62
     7
 10
84.107147
 20
30.200893
 40
2.678571
 41
1.000000
  1
%%c22.5
  7
KANJI
 50
90.000000
 51
0.000000
  0
LINE
  8
0
 62
     5
 10
48.214283
 20
58.125000
 11
63.214283
 21
58.125000
  0
POLYLINE
  8
0
 62
     5
 66
     1
 70
     2
  0
VERTEX
  8
0
 10
50.089283
 20
58.660713
  0
VERTEX
  8
0
 10
48.214283
 20
58.125000
  0
VERTEX
  8
0
 10
50.089283
 20
57.589287
  0
SEQEND
  0
POLYLINE
  8
0
 62
     5
 66
     1
 70
     2
  0
VERTEX
  8
0
 10
61.339283
 20
57.589287
  0
VERTEX
  8
0
 10
63.214283
 20
58.125000
  0
VERTEX
  8
0
 10
61.339283
 20
58.660713
  0
SEQEND
  0
TEXT
  8
0
 62
     7
 10
53.973213
 20
58.553574
 40
2.678571
 41
1.000000
  1
15
  7
KANJI
 50
0.000000
 51
0.000000
  0
LINE
  8
0
 62
     5
 10
33.214283
 20
62.410713
 11
63.214283
 21
62.410713
  0
POLYLINE
  8
0
 62
     5
 66
     1
 70
     2
  0
VERTEX
  8
0
 10
35.089283
 20
62.946430
  0
VERTEX
  8
0
 10
33.214283
 20
62.410713
  0
VERTEX
  8
0
 10
35.089283
 20
61.875000
  0
SEQEND
  0
POLYLINE
  8
0
 62
     5
 66
     1
 70
     2
  0
VERTEX
  8
0
 10
61.339283
 20
61.875000
  0
VERTEX
  8
0
 10
63.214283
 20
62.410713
  0
VERTEX
  8
0
 10
61.339283
 20
62.946430
  0
SEQEND
  0
LINE
  8
0
 62
     5
 10
33.214283
 20
46.339287
 11
33.214283
 21
63.214287
  0
LINE
  8
0
 62
     5
 10
63.214283
 20
46.339287
 11
63.214283
 21
63.214287
  0
TEXT
  8
0
 62
     7
 10
46.473213
 20
62.839287
 40
2.678571
 41
1.000000
  1
30
  7
KANJI
 50
0.000000
 51
0.000000
  0
LINE
  8
DASHDOT
 62
     7
 10
31.607140
 20
44.839287
 11
48.214283
 21
44.839287
  0
LINE
  8
DASHDOT
 62
     7
 10
31.607140
 20
25.339287
 11
48.214283
 21
25.339287
  0
LINE
  8
DASHDOT
 62
     7
 10
31.607140
 20
35.089287
 11
64.821426
 21
35.089287
  0
LINE
  8
0
 62
     5
 10
33.214283
 20
45.839287
 11
33.214283
 21
46.339287
  0
LINE
  8
0
 62
     5
 10
63.214283
 20
45.839287
 11
63.214283
 21
46.339287
  0
LINE
  8
0
 62
     5
 10
48.214283
 20
46.339287
 11
63.214283
 21
46.339287
  0
LINE
  8
0
 62
     5
 10
48.214283
 20
23.839287
 11
63.214283
 21
23.839287
  0
LINE
  8
0
 62
     4
 10
33.214283
 20
42.964287
 11
48.214283
 21
42.964287
  0
LINE
  8
0
 62
     4
 10
33.214283
 20
27.214287
 11
48.214283
 21
27.214287
  0
LINE
  8
0
 62
     4
 10
63.214283
 20
39.589287
 11
62.714283
 21
39.089287
  0
LINE
  8
0
 62
     4
 10
63.214283
 20
30.589287
 11
62.714283
 21
31.089287
  0
LINE
  8
0
 62
     4
 10
33.214283
 20
30.589287
 11
33.714283
 21
31.089287
  0
POLYLINE
  8
0
 62
     4
 66
     1
 70
     2
  0
VERTEX
  8
0
 10
48.214283
 20
46.339287
  0
VERTEX
  8
0
 10
48.214283
 20
46.339287
  0
VERTEX
  8
0
 10
33.714283
 20
46.339287
  0
VERTEX
  8
0
 10
33.214283
 20
45.839287
  0
VERTEX
  8
0
 10
33.214283
 20
30.589287
  0
SEQEND
  0
POLYLINE
  8
0
 62
     4
 66
     1
 70
     2
  0
VERTEX
  8
0
 10
33.214283
 20
30.589287
  0
VERTEX
  8
0
 10
33.214283
 20
24.339287
  0
VERTEX
  8
0
 10
33.714283
 20
23.839287
  0
VERTEX
  8
0
 10
48.214283
 20
23.839287
  0
VERTEX
  8
0
 10
48.214283
 20
23.839287
  0
VERTEX
  8
0
 10
48.214283
 20
23.839287
  0
VERTEX
  8
0
 10
62.714283
 20
23.839287
  0
VERTEX
  8
0
 10
63.214283
 20
24.339287
  0
VERTEX
  8
0
 10
63.214283
 20
45.839287
  0
VERTEX
  8
0
 10
62.714283
 20
46.339287
  0
VERTEX
  8
0
 10
48.214283
 20
46.339287
  0
VERTEX
  8
0
 10
48.214283
 20
46.339287
  0
SEQEND
  0
POLYLINE
  8
0
 62
     4
 66
     1
 70
     2
  0
VERTEX
  8
0
 10
33.214283
 20
39.589287
  0
VERTEX
  8
0
 10
33.714283
 20
39.089287
  0
VERTEX
  8
0
 10
33.714283
 20
31.089287
  0
VERTEX
  8
0
 10
62.714283
 20
31.089287
  0
VERTEX
  8
0
 10
62.714283
 20
39.089287
  0
VERTEX
  8
0
 10
33.714283
 20
39.089287
  0
SEQEND
  0
LINE
  8
0
 62
     5
 10
33.214283
 20
58.125000
 11
48.214283
 21
58.125000
  0
POLYLINE
  8
0
 62
     5
 66
     1
 70
     2
  0
VERTEX
  8
0
 10
35.089283
 20
58.660713
  0
VERTEX
  8
0
 10
33.214283
 20
58.125000
  0
VERTEX
  8
0
 10
35.089283
 20
57.589287
  0
SEQEND
  0
POLYLINE
  8
0
 62
     5
 66
     1
 70
     2
  0
VERTEX
  8
0
 10
46.339283
 20
57.589287
  0
VERTEX
  8
0
 10
48.214283
 20
58.125000
  0
VERTEX
  8
0
 10
46.339283
 20
58.660713
  0
SEQEND
  0
LINE
  8
0
 62
     5
 10
48.214283
 20
46.339287
 11
48.214283
 21
58.928574
  0
TEXT
  8
0
 62
     7
 10
38.973213
 20
58.553574
 40
2.678571
 41
1.000000
  1
15
  7
KANJI
 50
0.000000
 51
0.000000
  0
ARC
  8
0
 62
     4
 10
48.214283
 20
7.214287
 40
20.000000
 50
56.227359213225824
 51
90.0
  0
ARC
  8
0
 62
     4
 10
48.214283
 20
62.964287
 40
20.000000
 50
270.0
 51
303.77264078677416
  0
ARC
  8
DASHDOT
 62
     7
 10
48.214283
 20
7.214287
 40
18.125000
 50
59.999999554707955
 51
90.0
  0
ARC
  8
DASHDOT
 62
     7
 10
48.214283
 20
62.964287
 40
18.125000
 50
270.0
 51
300.0000004452921
  0
LINE
  8
0
 62
     5
 10
76.071426
 20
27.875000
 11
76.071426
 21
42.303574
  0
POLYLINE
  8
0
 62
     5
 66
     1
 70
     2
  0
VERTEX
  8
0
 10
75.535713
 20
40.964287
  0
VERTEX
  8
0
 10
76.071426
 20
39.089287
  0
VERTEX
  8
0
 10
76.607140
 20
40.964287
  0
SEQEND
  0
POLYLINE
  8
0
 62
     5
 66
     1
 70
     2
  0
VERTEX
  8
0
 10
76.607140
 20
29.214287
  0
VERTEX
  8
0
 10
76.071426
 20
31.089287
  0
VERTEX
  8
0
 10
75.535713
 20
29.214287
  0
SEQEND
  0
LINE
  8
0
 62
     5
 10
63.214283
 20
39.089287
 11
76.875000
 21
39.089287
  0
LINE
  8
0
 62
     5
 10
63.214283
 20
31.089287
 11
76.875000
 21
31.089287
  0
TEXT
  8
0
 62
     7
 10
75.535713
 20
31.071430
 40
2.678571
 41
1.000000
  1
%%c8H7
  7
KANJI
 50
90.000000
 51
0.000000
  0
ENDSEC
  0
EOF
