  0
SECTION
  2
HEADER
  9
$ACADVER
  1
AC1003
  9
$INSBASE
 10
0.000000
 20
0.000000
  9
$EXTMIN
 10
0.000000
 20
0.000000
  9
$EXTMAX
 10
398.478261
 20
275.543478
  9
$LIMMIN
 10
0.000000
 20
0.000000
  9
$LIMMAX
 10
398.478261
 20
275.543478
  9
$VIEWCTR
 10
199.239130
 20
137.771739
  9
$VIEWSIZE
 40
275.543478
  0
ENDSEC
  0
SECTION
  2
TABLES
  0
TABLE
  2
LTYPE
 70
     4
  0
LTYPE
  2
CONTINUOUS
 70
    64
  3
SolidLine
 72
    65
 73
     0
 40
0.0
  0
LTYPE
  2
HIDDEN
 70
    64
  3
------------------------
 72
    65
 73
     2
 40
4.239130
 49
2.826087
 49
-1.413043
  0
LTYPE
  2
DASHDOT
 70
    64
  3
--?--?--?--?--?--?--?--
 72
    65
 73
     4
 40
16.956522
 49
12.717391
 49
-1.413043
 49
1.413043
 49
-1.413043
  0
LTYPE
  2
DIVIDE
 70
    64
  3
--??--??--??--??--??--
 72
    65
 73
     6
 40
21.195652
 49
14.130435
 49
-1.413043
 49
1.413043
 49
-1.413043
 49
1.413043
 49
-1.413043
  0
ENDTAB
  0
TABLE
  2
LAYER
 70
     5
  0
LAYER
  2
0
 70
    64
 62
     7
  6
CONTINUOUS
  0
LAYER
  2
HIDDEN
 70
    64
 62
     2
  6
HIDDEN
  0
LAYER
  2
DASHDOT
 70
    64
 62
     6
  6
DASHDOT
  0
LAYER
  2
DIVIDE
 70
    64
 62
     5
  6
DIVIDE
  0
ENDTAB
  0
TABLE
  2
STYLE
 70
     1
  0
STYLE
  2
STANDARD
 70
    64
 40
0.0
 41
1.0
 50
0.0
 71
     0
 42
0.2
  3
TXT
  4

  0
STYLE
  2
KANJI
 70
    64
 40
0.0
 41
1.0
 50
0.0
 71
     0
 42
0.2
  3
TXT
  4
BIGFONT
  0
ENDTAB
  0
TABLE
  2
VIEW
 70
     0
  0
ENDTAB
  0
ENDSEC
  0
SECTION
  2
BLOCKS
  0
ENDSEC
  0
SECTION
  2
ENTITIES
  0
TEXT
  8
0
 62
     7
 10
14.130435
 20
15.543478
 40
5.652174
 41
1.000000
  1
KHK SS1.5-34
  7
KANJI
 50
0.000000
 51
0.000000
  0
TEXT
  8
0
 62
     7
 10
14.130435
 20
7.065217
 40
5.652174
 41
1.000000
  1

  7
KANJI
 50
0.000000
 51
0.000000
  0
TEXT
  8
0
 62
     7
 10
14.130435
 20
254.347824
 40
6.358696
 41
1.000000
  1
Black oxide
  7
KANJI
 50
0.000000
 51
0.000000
  0
POLYLINE
  8
0
 62
     7
 66
     1
 70
     2
  0
VERTEX
  8
0
 10
339.130432
 20
254.347824
  0
VERTEX
  8
0
 10
333.619568
 20
263.899994
  0
VERTEX
  8
0
 10
355.663025
 20
263.899994
  0
VERTEX
  8
0
 10
350.152161
 20
254.347824
  0
VERTEX
  8
0
 10
344.641296
 20
263.899994
  0
VERTEX
  8
0
 10
339.130432
 20
254.347824
  0
SEQEND
  0
LINE
  8
0
 62
     5
 10
210.108704
 20
142.163055
 11
210.108704
 21
88.163048
  0
POLYLINE
  8
0
 62
     5
 66
     1
 70
     2
  0
VERTEX
  8
0
 10
211.521744
 20
137.217392
  0
VERTEX
  8
0
 10
210.108704
 20
142.163055
  0
VERTEX
  8
0
 10
208.695663
 20
137.217392
  0
SEQEND
  0
POLYLINE
  8
0
 62
     5
 66
     1
 70
     2
  0
VERTEX
  8
0
 10
208.695663
 20
93.108704
  0
VERTEX
  8
0
 10
210.108704
 20
88.163048
  0
VERTEX
  8
0
 10
211.521744
 20
93.108704
  0
SEQEND
  0
LINE
  8
0
 62
     5
 10
139.456528
 20
142.163055
 11
212.228271
 21
142.163055
  0
LINE
  8
0
 62
     5
 10
139.456528
 20
88.163048
 11
212.228271
 21
88.163048
  0
TEXT
  8
0
 62
     7
 10
208.695663
 20
106.861420
 40
7.065217
 41
1.000000
  1
%%c54
  7
KANJI
 50
90.000000
 51
0.000000
  0
LINE
  8
DASHDOT
 62
     7
 10
110.217400
 20
140.663055
 11
133.695663
 21
140.663055
  0
LINE
  8
DASHDOT
 62
     7
 10
110.217400
 20
89.663048
 11
133.695663
 21
89.663048
  0
LINE
  8
DASHDOT
 62
     7
 10
110.217400
 20
115.163048
 11
143.695663
 21
115.163048
  0
LINE
  8
0
 62
     5
 10
129.456528
 20
141.663055
 11
129.456528
 21
142.163055
  0
LINE
  8
0
 62
     5
 10
114.456528
 20
141.663055
 11
114.456528
 21
142.163055
  0
LINE
  8
0
 62
     5
 10
130.456528
 20
135.163055
 11
139.456528
 21
135.163055
  0
LINE
  8
0
 62
     5
 10
130.456528
 20
95.163048
 11
139.456528
 21
95.163048
  0
LINE
  8
0
 62
     5
 10
128.956528
 20
142.163055
 11
139.456528
 21
142.163055
  0
LINE
  8
0
 62
     5
 10
128.956528
 20
88.163048
 11
139.456528
 21
88.163048
  0
LINE
  8
0
 62
     4
 10
114.456528
 20
138.788055
 11
129.456528
 21
138.788055
  0
LINE
  8
0
 62
     4
 10
114.456528
 20
91.538048
 11
129.456528
 21
91.538048
  0
LINE
  8
0
 62
     4
 10
138.956528
 20
110.163048
 11
139.456528
 21
109.663048
  0
LINE
  8
0
 62
     4
 10
138.956528
 20
120.163048
 11
139.456528
 21
120.663048
  0
LINE
  8
0
 62
     4
 10
114.956528
 20
120.163048
 11
114.956528
 21
110.163048
  0
POLYLINE
  8
0
 62
     4
 66
     1
 70
     2
  0
VERTEX
  8
0
 10
114.456528
 20
109.663048
  0
VERTEX
  8
0
 10
114.956528
 20
110.163048
  0
VERTEX
  8
0
 10
138.956528
 20
110.163048
  0
VERTEX
  8
0
 10
138.956528
 20
120.163048
  0
VERTEX
  8
0
 10
114.956528
 20
120.163048
  0
VERTEX
  8
0
 10
114.456528
 20
120.663048
  0
SEQEND
  0
ARC
  8
0
 62
     4
 10
130.456528
 20
136.163055
 40
1.000000
 50
180.0
 51
270.0
  0
ARC
  8
0
 62
     4
 10
130.456528
 20
94.163048
 40
1.000000
 50
90.0
 51
180.0
  0
LINE
  8
0
 62
     5
 10
139.456528
 20
134.663055
 11
139.456528
 21
142.163055
  0
LINE
  8
0
 62
     5
 10
114.456528
 20
180.315216
 11
129.456528
 21
180.315216
  0
POLYLINE
  8
0
 62
     5
 66
     1
 70
     2
  0
VERTEX
  8
0
 10
119.402176
 20
181.728271
  0
VERTEX
  8
0
 10
114.456528
 20
180.315216
  0
VERTEX
  8
0
 10
119.402176
 20
178.902176
  0
SEQEND
  0
POLYLINE
  8
0
 62
     5
 66
     1
 70
     2
  0
VERTEX
  8
0
 10
124.510880
 20
178.902176
  0
VERTEX
  8
0
 10
129.456528
 20
180.315216
  0
VERTEX
  8
0
 10
124.510880
 20
181.728271
  0
SEQEND
  0
LINE
  8
0
 62
     5
 10
129.456528
 20
142.163055
 11
129.456528
 21
182.434784
  0
TEXT
  8
0
 62
     7
 10
117.364136
 20
181.445648
 40
7.065217
 41
1.000000
  1
15
  7
KANJI
 50
0.000000
 51
0.000000
  0
LINE
  8
0
 62
     5
 10
114.456528
 20
191.619568
 11
139.456528
 21
191.619568
  0
POLYLINE
  8
0
 62
     5
 66
     1
 70
     2
  0
VERTEX
  8
0
 10
119.402176
 20
193.032608
  0
VERTEX
  8
0
 10
114.456528
 20
191.619568
  0
VERTEX
  8
0
 10
119.402176
 20
190.206528
  0
SEQEND
  0
POLYLINE
  8
0
 62
     5
 66
     1
 70
     2
  0
VERTEX
  8
0
 10
134.510880
 20
190.206528
  0
VERTEX
  8
0
 10
139.456528
 20
191.619568
  0
VERTEX
  8
0
 10
134.510880
 20
193.032608
  0
SEQEND
  0
LINE
  8
0
 62
     5
 10
114.456528
 20
142.163055
 11
114.456528
 21
193.739136
  0
LINE
  8
0
 62
     5
 10
139.456528
 20
142.163055
 11
139.456528
 21
193.739136
  0
TEXT
  8
0
 62
     7
 10
122.364136
 20
192.750000
 40
7.065217
 41
1.000000
  1
25
  7
KANJI
 50
0.000000
 51
0.000000
  0
LINE
  8
0
 62
     5
 10
147.934784
 20
180.315216
 11
120.978264
 21
180.315216
  0
POLYLINE
  8
0
 62
     5
 66
     1
 70
     2
  0
VERTEX
  8
0
 10
124.510880
 20
178.902176
  0
VERTEX
  8
0
 10
129.456528
 20
180.315216
  0
VERTEX
  8
0
 10
124.510880
 20
181.728271
  0
SEQEND
  0
POLYLINE
  8
0
 62
     5
 66
     1
 70
     2
  0
VERTEX
  8
0
 10
144.402176
 20
181.728271
  0
VERTEX
  8
0
 10
139.456528
 20
180.315216
  0
VERTEX
  8
0
 10
144.402176
 20
178.902176
  0
SEQEND
  0
TEXT
  8
0
 62
     7
 10
129.864136
 20
181.445648
 40
7.065217
 41
1.000000
  1
10
  7
KANJI
 50
0.000000
 51
0.000000
  0
LINE
  8
0
 62
     5
 10
198.804352
 20
135.163055
 11
198.804352
 21
95.163048
  0
POLYLINE
  8
0
 62
     5
 66
     1
 70
     2
  0
VERTEX
  8
0
 10
200.217392
 20
130.217392
  0
VERTEX
  8
0
 10
198.804352
 20
135.163055
  0
VERTEX
  8
0
 10
197.391312
 20
130.217392
  0
SEQEND
  0
POLYLINE
  8
0
 62
     5
 66
     1
 70
     2
  0
VERTEX
  8
0
 10
197.391312
 20
100.108704
  0
VERTEX
  8
0
 10
198.804352
 20
95.163048
  0
VERTEX
  8
0
 10
200.217392
 20
100.108704
  0
SEQEND
  0
LINE
  8
0
 62
     5
 10
139.456528
 20
135.163055
 11
200.923920
 21
135.163055
  0
LINE
  8
0
 62
     5
 10
139.456528
 20
95.163048
 11
200.923920
 21
95.163048
  0
TEXT
  8
0
 62
     7
 10
197.391312
 20
106.861420
 40
7.065217
 41
1.000000
  1
%%c40
  7
KANJI
 50
90.000000
 51
0.000000
  0
LINE
  8
0
 62
     5
 10
176.195663
 20
101.684784
 11
176.195663
 21
128.641312
  0
POLYLINE
  8
0
 62
     5
 66
     1
 70
     2
  0
VERTEX
  8
0
 10
174.782623
 20
125.108704
  0
VERTEX
  8
0
 10
176.195663
 20
120.163048
  0
VERTEX
  8
0
 10
177.608704
 20
125.108704
  0
SEQEND
  0
POLYLINE
  8
0
 62
     5
 66
     1
 70
     2
  0
VERTEX
  8
0
 10
177.608704
 20
105.217392
  0
VERTEX
  8
0
 10
176.195663
 20
110.163048
  0
VERTEX
  8
0
 10
174.782623
 20
105.217392
  0
SEQEND
  0
LINE
  8
0
 62
     5
 10
139.456528
 20
120.163048
 11
178.315216
 21
120.163048
  0
LINE
  8
0
 62
     5
 10
139.456528
 20
110.163048
 11
178.315216
 21
110.163048
  0
TEXT
  8
0
 62
     7
 10
174.782623
 20
102.269028
 40
7.065217
 41
1.000000
  1
%%c10H7
  7
KANJI
 50
90.000000
 51
0.000000
  0
POLYLINE
  8
0
 62
     4
 66
     1
 70
     2
  0
VERTEX
  8
0
 10
114.456528
 20
109.663048
  0
VERTEX
  8
0
 10
114.456528
 20
88.663048
  0
VERTEX
  8
0
 10
114.956528
 20
88.163048
  0
VERTEX
  8
0
 10
128.956528
 20
88.163048
  0
VERTEX
  8
0
 10
129.456528
 20
88.663048
  0
VERTEX
  8
0
 10
129.456528
 20
94.163048
  0
SEQEND
  0
POLYLINE
  8
0
 62
     4
 66
     1
 70
     2
  0
VERTEX
  8
0
 10
130.456528
 20
95.163048
  0
VERTEX
  8
0
 10
138.956528
 20
95.163048
  0
VERTEX
  8
0
 10
139.456528
 20
95.663048
  0
VERTEX
  8
0
 10
139.456528
 20
134.663055
  0
VERTEX
  8
0
 10
138.956528
 20
135.163055
  0
VERTEX
  8
0
 10
130.456528
 20
135.163055
  0
SEQEND
  0
POLYLINE
  8
0
 62
     4
 66
     1
 70
     2
  0
VERTEX
  8
0
 10
129.456528
 20
136.163055
  0
VERTEX
  8
0
 10
129.456528
 20
141.663055
  0
VERTEX
  8
0
 10
128.956528
 20
142.163055
  0
VERTEX
  8
0
 10
114.956528
 20
142.163055
  0
VERTEX
  8
0
 10
114.456528
 20
141.663055
  0
VERTEX
  8
0
 10
114.456528
 20
109.663048
  0
SEQEND
  0
ENDSEC
  0
EOF
