  0
SECTION
  2
HEADER
  9
$ACADVER
  1
AC1003
  9
$INSBASE
 10
0.000000
 20
0.000000
  9
$EXTMIN
 10
0.000000
 20
0.000000
  9
$EXTMAX
 10
459.782609
 20
317.934783
  9
$LIMMIN
 10
0.000000
 20
0.000000
  9
$LIMMAX
 10
459.782609
 20
317.934783
  9
$VIEWCTR
 10
229.891304
 20
158.967391
  9
$VIEWSIZE
 40
317.934783
  0
ENDSEC
  0
SECTION
  2
TABLES
  0
TABLE
  2
LTYPE
 70
     4
  0
LTYPE
  2
CONTINUOUS
 70
    64
  3
SolidLine
 72
    65
 73
     0
 40
0.0
  0
LTYPE
  2
HIDDEN
 70
    64
  3
------------------------
 72
    65
 73
     2
 40
4.891304
 49
3.260870
 49
-1.630435
  0
LTYPE
  2
DASHDOT
 70
    64
  3
--?--?--?--?--?--?--?--
 72
    65
 73
     4
 40
19.565217
 49
14.673913
 49
-1.630435
 49
1.630435
 49
-1.630435
  0
LTYPE
  2
DIVIDE
 70
    64
  3
--??--??--??--??--??--
 72
    65
 73
     6
 40
24.456522
 49
16.304348
 49
-1.630435
 49
1.630435
 49
-1.630435
 49
1.630435
 49
-1.630435
  0
ENDTAB
  0
TABLE
  2
LAYER
 70
     5
  0
LAYER
  2
0
 70
    64
 62
     7
  6
CONTINUOUS
  0
LAYER
  2
HIDDEN
 70
    64
 62
     2
  6
HIDDEN
  0
LAYER
  2
DASHDOT
 70
    64
 62
     6
  6
DASHDOT
  0
LAYER
  2
DIVIDE
 70
    64
 62
     5
  6
DIVIDE
  0
ENDTAB
  0
TABLE
  2
STYLE
 70
     1
  0
STYLE
  2
STANDARD
 70
    64
 40
0.0
 41
1.0
 50
0.0
 71
     0
 42
0.2
  3
TXT
  4

  0
STYLE
  2
KANJI
 70
    64
 40
0.0
 41
1.0
 50
0.0
 71
     0
 42
0.2
  3
TXT
  4
BIGFONT
  0
ENDTAB
  0
TABLE
  2
VIEW
 70
     0
  0
ENDTAB
  0
ENDSEC
  0
SECTION
  2
BLOCKS
  0
ENDSEC
  0
SECTION
  2
ENTITIES
  0
TEXT
  8
0
 62
     7
 10
16.304348
 20
17.934782
 40
6.521739
 41
1.000000
  1
KHK SS2-27J18
  7
KANJI
 50
0.000000
 51
0.000000
  0
TEXT
  8
0
 62
     7
 10
16.304348
 20
8.152174
 40
6.521739
 41
1.000000
  1
The precision grade of gears after secondary operations is equivalent but not identical to its original grade.
  7
KANJI
 50
0.000000
 51
0.000000
  0
TEXT
  8
0
 62
     7
 10
16.304348
 20
293.478271
 40
7.336957
 41
1.000000
  1
For J Series products, without black oxide repeatedly applied on secondary-operated parts.
  7
KANJI
 50
0.000000
 51
0.000000
  0
POLYLINE
  8
0
 62
     7
 66
     1
 70
     2
  0
VERTEX
  8
0
 10
391.304352
 20
293.478271
  0
VERTEX
  8
0
 10
384.945648
 20
304.500000
  0
VERTEX
  8
0
 10
410.380432
 20
304.500000
  0
VERTEX
  8
0
 10
404.021729
 20
293.478271
  0
VERTEX
  8
0
 10
397.663055
 20
304.500000
  0
VERTEX
  8
0
 10
391.304352
 20
293.478271
  0
SEQEND
  0
LINE
  8
0
 62
     5
 10
243.586945
 20
161.880432
 11
243.586945
 21
103.880432
  0
POLYLINE
  8
0
 62
     5
 66
     1
 70
     2
  0
VERTEX
  8
0
 10
245.217377
 20
156.173904
  0
VERTEX
  8
0
 10
243.586945
 20
161.880432
  0
VERTEX
  8
0
 10
241.956512
 20
156.173904
  0
SEQEND
  0
POLYLINE
  8
0
 62
     5
 66
     1
 70
     2
  0
VERTEX
  8
0
 10
241.956512
 20
109.586952
  0
VERTEX
  8
0
 10
243.586945
 20
103.880432
  0
VERTEX
  8
0
 10
245.217377
 20
109.586952
  0
SEQEND
  0
LINE
  8
0
 62
     5
 10
162.065216
 20
161.880432
 11
246.032608
 21
161.880432
  0
LINE
  8
0
 62
     5
 10
162.065216
 20
103.880432
 11
246.032608
 21
103.880432
  0
TEXT
  8
0
 62
     7
 10
241.956512
 20
123.301628
 40
8.152174
 41
1.000000
  1
%%c58
  7
KANJI
 50
90.000000
 51
0.000000
  0
LINE
  8
DASHDOT
 62
     7
 10
127.173912
 20
159.880432
 11
156.956512
 21
159.880432
  0
LINE
  8
DASHDOT
 62
     7
 10
127.173912
 20
105.880432
 11
156.956512
 21
105.880432
  0
LINE
  8
DASHDOT
 62
     7
 10
127.173912
 20
132.880432
 11
166.956512
 21
132.880432
  0
LINE
  8
0
 62
     5
 10
152.065216
 20
161.380432
 11
152.065216
 21
161.880432
  0
LINE
  8
0
 62
     5
 10
132.065216
 20
161.380432
 11
132.065216
 21
161.880432
  0
LINE
  8
0
 62
     5
 10
153.065216
 20
155.380432
 11
162.065216
 21
155.380432
  0
LINE
  8
0
 62
     5
 10
153.065216
 20
110.380432
 11
162.065216
 21
110.380432
  0
LINE
  8
0
 62
     5
 10
151.565216
 20
161.880432
 11
162.065216
 21
161.880432
  0
LINE
  8
0
 62
     5
 10
151.565216
 20
103.880432
 11
162.065216
 21
103.880432
  0
LINE
  8
0
 62
     4
 10
132.065216
 20
157.380432
 11
152.065216
 21
157.380432
  0
LINE
  8
0
 62
     4
 10
132.065216
 20
108.380432
 11
152.065216
 21
108.380432
  0
LINE
  8
0
 62
     4
 10
161.565216
 20
123.880432
 11
162.065216
 21
123.380432
  0
LINE
  8
0
 62
     4
 10
161.565216
 20
141.880432
 11
162.065216
 21
142.380432
  0
LINE
  8
0
 62
     4
 10
132.565216
 20
141.880432
 11
132.565216
 21
123.880432
  0
POLYLINE
  8
0
 62
     4
 66
     1
 70
     2
  0
VERTEX
  8
0
 10
132.065216
 20
123.380432
  0
VERTEX
  8
0
 10
132.565216
 20
123.880432
  0
VERTEX
  8
0
 10
161.565216
 20
123.880432
  0
VERTEX
  8
0
 10
161.565216
 20
141.880432
  0
VERTEX
  8
0
 10
132.565216
 20
141.880432
  0
VERTEX
  8
0
 10
132.065216
 20
142.380432
  0
SEQEND
  0
ARC
  8
0
 62
     4
 10
153.065216
 20
156.380432
 40
1.000000
 50
180.0
 51
270.0
  0
ARC
  8
0
 62
     4
 10
153.065216
 20
109.380432
 40
1.000000
 50
90.0
 51
180.0
  0
LINE
  8
0
 62
     5
 10
162.065216
 20
154.880432
 11
162.065216
 21
161.880432
  0
LINE
  8
0
 62
     5
 10
132.065216
 20
205.902176
 11
152.065216
 21
205.902176
  0
POLYLINE
  8
0
 62
     5
 66
     1
 70
     2
  0
VERTEX
  8
0
 10
137.771744
 20
207.532608
  0
VERTEX
  8
0
 10
132.065216
 20
205.902176
  0
VERTEX
  8
0
 10
137.771744
 20
204.271744
  0
SEQEND
  0
POLYLINE
  8
0
 62
     5
 66
     1
 70
     2
  0
VERTEX
  8
0
 10
146.358688
 20
204.271744
  0
VERTEX
  8
0
 10
152.065216
 20
205.902176
  0
VERTEX
  8
0
 10
146.358688
 20
207.532608
  0
SEQEND
  0
LINE
  8
0
 62
     5
 10
152.065216
 20
161.880432
 11
152.065216
 21
208.347839
  0
TEXT
  8
0
 62
     7
 10
136.766296
 20
207.206512
 40
8.152174
 41
1.000000
  1
20
  7
KANJI
 50
0.000000
 51
0.000000
  0
LINE
  8
0
 62
     5
 10
132.065216
 20
218.945648
 11
162.065216
 21
218.945648
  0
POLYLINE
  8
0
 62
     5
 66
     1
 70
     2
  0
VERTEX
  8
0
 10
137.771744
 20
220.576080
  0
VERTEX
  8
0
 10
132.065216
 20
218.945648
  0
VERTEX
  8
0
 10
137.771744
 20
217.315216
  0
SEQEND
  0
POLYLINE
  8
0
 62
     5
 66
     1
 70
     2
  0
VERTEX
  8
0
 10
156.358688
 20
217.315216
  0
VERTEX
  8
0
 10
162.065216
 20
218.945648
  0
VERTEX
  8
0
 10
156.358688
 20
220.576080
  0
SEQEND
  0
LINE
  8
0
 62
     5
 10
132.065216
 20
161.880432
 11
132.065216
 21
221.391296
  0
LINE
  8
0
 62
     5
 10
162.065216
 20
161.880432
 11
162.065216
 21
221.391296
  0
TEXT
  8
0
 62
     7
 10
141.766296
 20
220.250000
 40
8.152174
 41
1.000000
  1
30
  7
KANJI
 50
0.000000
 51
0.000000
  0
LINE
  8
0
 62
     5
 10
171.847824
 20
205.902176
 11
142.282608
 21
205.902176
  0
POLYLINE
  8
0
 62
     5
 66
     1
 70
     2
  0
VERTEX
  8
0
 10
146.358688
 20
204.271744
  0
VERTEX
  8
0
 10
152.065216
 20
205.902176
  0
VERTEX
  8
0
 10
146.358688
 20
207.532608
  0
SEQEND
  0
POLYLINE
  8
0
 62
     5
 66
     1
 70
     2
  0
VERTEX
  8
0
 10
167.771729
 20
207.532608
  0
VERTEX
  8
0
 10
162.065216
 20
205.902176
  0
VERTEX
  8
0
 10
167.771729
 20
204.271744
  0
SEQEND
  0
TEXT
  8
0
 62
     7
 10
166.956512
 20
207.206512
 40
8.152174
 41
1.000000
  1
10
  7
KANJI
 50
0.000000
 51
0.000000
  0
LINE
  8
0
 62
     5
 10
230.543488
 20
155.380432
 11
230.543488
 21
110.380432
  0
POLYLINE
  8
0
 62
     5
 66
     1
 70
     2
  0
VERTEX
  8
0
 10
232.173920
 20
149.673904
  0
VERTEX
  8
0
 10
230.543488
 20
155.380432
  0
VERTEX
  8
0
 10
228.913055
 20
149.673904
  0
SEQEND
  0
POLYLINE
  8
0
 62
     5
 66
     1
 70
     2
  0
VERTEX
  8
0
 10
228.913055
 20
116.086952
  0
VERTEX
  8
0
 10
230.543488
 20
110.380432
  0
VERTEX
  8
0
 10
232.173920
 20
116.086952
  0
SEQEND
  0
LINE
  8
0
 62
     5
 10
162.065216
 20
155.380432
 11
232.989136
 21
155.380432
  0
LINE
  8
0
 62
     5
 10
162.065216
 20
110.380432
 11
232.989136
 21
110.380432
  0
TEXT
  8
0
 62
     7
 10
228.913055
 20
123.301628
 40
8.152174
 41
1.000000
  1
%%c45
  7
KANJI
 50
90.000000
 51
0.000000
  0
LINE
  8
DASHDOT
 62
     7
 10
311.739136
 20
163.532608
 11
311.739136
 21
105.489128
  0
LINE
  8
DASHDOT
 62
     7
 10
284.347839
 20
132.880432
 11
339.130432
 21
132.880432
  0
LINE
  8
0
 62
     5
 10
324.521729
 20
178.206512
 11
298.956543
 21
178.206512
  0
POLYLINE
  8
0
 62
     5
 66
     1
 70
     2
  0
VERTEX
  8
0
 10
303.032593
 20
176.576080
  0
VERTEX
  8
0
 10
308.739136
 20
178.206512
  0
VERTEX
  8
0
 10
303.032593
 20
179.836945
  0
SEQEND
  0
POLYLINE
  8
0
 62
     5
 66
     1
 70
     2
  0
VERTEX
  8
0
 10
320.445679
 20
179.836945
  0
VERTEX
  8
0
 10
314.739136
 20
178.206512
  0
VERTEX
  8
0
 10
320.445679
 20
176.576080
  0
SEQEND
  0
LINE
  8
0
 62
     5
 10
308.739136
 20
144.680435
 11
308.739136
 21
180.652161
  0
LINE
  8
0
 62
     5
 10
314.739136
 20
144.680435
 11
314.739136
 21
180.652161
  0
TEXT
  8
0
 62
     7
 10
294.911438
 20
179.836945
 40
8.152174
 41
1.000000
  1
6
  7
KANJI
 50
0.000000
 51
0.000000
  0
TEXT
  8
0
 62
     7
 10
302.981079
 20
179.836945
 40
6.521739
 41
1.000000
  1
%%p0.015
  7
KANJI
 50
0.000000
 51
0.000000
  0
LINE
  8
0
 62
     5
 10
358.695648
 20
114.097824
 11
358.695648
 21
154.463043
  0
POLYLINE
  8
0
 62
     5
 66
     1
 70
     2
  0
VERTEX
  8
0
 10
357.065216
 20
150.386948
  0
VERTEX
  8
0
 10
358.695648
 20
144.680435
  0
VERTEX
  8
0
 10
360.326080
 20
150.386948
  0
SEQEND
  0
POLYLINE
  8
0
 62
     5
 66
     1
 70
     2
  0
VERTEX
  8
0
 10
360.326080
 20
118.173912
  0
VERTEX
  8
0
 10
358.695648
 20
123.880432
  0
VERTEX
  8
0
 10
357.065216
 20
118.173912
  0
SEQEND
  0
LINE
  8
0
 62
     5
 10
314.739136
 20
144.680435
 11
361.141296
 21
144.680435
  0
LINE
  8
0
 62
     5
 10
311.739136
 20
123.880432
 11
361.141296
 21
123.880432
  0
TEXT
  8
0
 62
     7
 10
356.250000
 20
108.955658
 40
8.152174
 41
1.000000
  1
20.8
  7
KANJI
 50
90.000000
 51
0.000000
  0
TEXT
  8
0
 62
     7
 10
356.739136
 20
144.241501
 40
4.076087
 41
1.000000
  1
 
  7
KANJI
 50
90.000000
 51
0.000000
  0
TEXT
  8
0
 62
     7
 10
351.684784
 20
144.241501
 40
4.076087
 41
1.000000
  1
+
  7
KANJI
 50
90.000000
 51
0.000000
  0
TEXT
  8
0
 62
     7
 10
356.739136
 20
148.806717
 40
4.076087
 41
1.000000
  1
0
  7
KANJI
 50
90.000000
 51
0.000000
  0
TEXT
  8
0
 62
     7
 10
351.684784
 20
148.806717
 40
4.076087
 41
1.000000
  1
0.1
  7
KANJI
 50
90.000000
 51
0.000000
  0
ARC
  8
0
 62
     4
 10
311.739136
 20
132.880432
 40
9.000000
 50
109.47122094265586
 51
70.52877905734415
  0
POLYLINE
  8
0
 62
     4
 66
     1
 70
     2
  0
VERTEX
  8
0
 10
314.739136
 20
141.365707
  0
VERTEX
  8
0
 10
314.739136
 20
144.680435
  0
VERTEX
  8
0
 10
308.739136
 20
144.680435
  0
VERTEX
  8
0
 10
308.739136
 20
141.365707
  0
SEQEND
  0
LINE
  8
0
 62
     4
 10
132.065216
 20
144.680435
 11
162.065216
 21
144.680435
  0
POLYLINE
  8
DASHDOT
 62
     7
 66
     1
 70
     2
  0
VERTEX
  8
DASHDOT
 10
157.065216
 20
160.271729
  0
VERTEX
  8
DASHDOT
 10
157.065216
 20
139.789124
  0
SEQEND
  0
POLYLINE
  8
0
 62
     4
 66
     1
 70
     2
  0
VERTEX
  8
0
 10
159.565216
 20
155.380432
  0
VERTEX
  8
0
 10
159.565216
 20
144.680435
  0
SEQEND
  0
POLYLINE
  8
0
 62
     4
 66
     1
 70
     2
  0
VERTEX
  8
0
 10
154.565216
 20
155.380432
  0
VERTEX
  8
0
 10
154.565216
 20
144.680435
  0
SEQEND
  0
POLYLINE
  8
0
 62
     4
 66
     1
 70
     2
  0
VERTEX
  8
0
 10
159.130219
 20
155.380432
  0
VERTEX
  8
0
 10
159.130219
 20
144.680435
  0
SEQEND
  0
POLYLINE
  8
0
 62
     4
 66
     1
 70
     2
  0
VERTEX
  8
0
 10
155.000214
 20
155.380432
  0
VERTEX
  8
0
 10
155.000214
 20
144.680435
  0
SEQEND
  0
POLYLINE
  8
0
 62
     4
 66
     1
 70
     2
  0
VERTEX
  8
0
 10
309.239136
 20
144.680435
  0
VERTEX
  8
0
 10
309.239136
 20
155.241119
  0
SEQEND
  0
POLYLINE
  8
0
 62
     4
 66
     1
 70
     2
  0
VERTEX
  8
0
 10
314.239136
 20
144.680435
  0
VERTEX
  8
0
 10
314.239136
 20
155.241119
  0
SEQEND
  0
POLYLINE
  8
0
 62
     4
 66
     1
 70
     2
  0
VERTEX
  8
0
 10
309.674133
 20
144.680435
  0
VERTEX
  8
0
 10
309.674133
 20
155.285477
  0
SEQEND
  0
POLYLINE
  8
0
 62
     4
 66
     1
 70
     2
  0
VERTEX
  8
0
 10
313.804138
 20
144.680435
  0
VERTEX
  8
0
 10
313.804138
 20
155.285477
  0
SEQEND
  0
POLYLINE
  8
0
 62
     5
 66
     1
 70
     2
  0
VERTEX
  8
0
 10
311.739136
 20
155.380432
  0
VERTEX
  8
0
 10
282.391296
 20
204.293472
  0
VERTEX
  8
0
 10
300.326080
 20
204.293472
  0
SEQEND
  0
POLYLINE
  8
0
 62
     5
 66
     1
 70
     2
  0
VERTEX
  8
0
 10
307.405060
 20
159.434875
  0
VERTEX
  8
0
 10
311.739136
 20
155.380432
  0
VERTEX
  8
0
 10
310.201233
 20
161.112579
  0
SEQEND
  0
TEXT
  8
0
 62
     7
 10
284.021729
 20
205.923920
 40
7.826087
 41
1.000000
  1
M5
  7
KANJI
 50
0.000000
 51
0.000000
  0
CIRCLE
  8
0
 62
     7
 10
157.065216
 20
132.880432
 40
2.500000
  0
CIRCLE
  8
0
 62
     4
 10
157.065216
 20
132.880432
 40
2.065000
  0
POLYLINE
  8
DASHDOT
 62
     7
 66
     1
 70
     2
  0
VERTEX
  8
DASHDOT
 10
149.673920
 20
132.880432
  0
VERTEX
  8
DASHDOT
 10
164.456512
 20
132.880432
  0
SEQEND
  0
POLYLINE
  8
DASHDOT
 62
     7
 66
     1
 70
     2
  0
VERTEX
  8
DASHDOT
 10
157.065216
 20
125.489128
  0
VERTEX
  8
DASHDOT
 10
157.065216
 20
140.271744
  0
SEQEND
  0
LINE
  8
DASHDOT
 62
     7
 10
157.065216
 20
155.380432
 11
157.065216
 21
132.880432
  0
LINE
  8
0
 62
     5
 10
157.065216
 20
155.380432
 11
157.065216
 21
161.880432
  0
POLYLINE
  8
0
 62
     4
 66
     1
 70
     2
  0
VERTEX
  8
0
 10
320.384949
 20
135.380432
  0
VERTEX
  8
0
 10
334.099823
 20
135.380432
  0
SEQEND
  0
POLYLINE
  8
0
 62
     4
 66
     1
 70
     2
  0
VERTEX
  8
0
 10
320.384949
 20
130.380432
  0
VERTEX
  8
0
 10
334.099823
 20
130.380432
  0
SEQEND
  0
POLYLINE
  8
0
 62
     4
 66
     1
 70
     2
  0
VERTEX
  8
0
 10
320.499023
 20
134.945435
  0
VERTEX
  8
0
 10
334.144165
 20
134.945435
  0
SEQEND
  0
POLYLINE
  8
0
 62
     4
 66
     1
 70
     2
  0
VERTEX
  8
0
 10
320.499023
 20
130.815430
  0
VERTEX
  8
0
 10
334.144165
 20
130.815430
  0
SEQEND
  0
POLYLINE
  8
0
 62
     5
 66
     1
 70
     2
  0
VERTEX
  8
0
 10
334.239136
 20
132.880432
  0
VERTEX
  8
0
 10
358.695648
 20
191.250000
  0
VERTEX
  8
0
 10
334.891296
 20
191.250000
  0
SEQEND
  0
POLYLINE
  8
0
 62
     5
 66
     1
 70
     2
  0
VERTEX
  8
0
 10
334.940613
 20
138.773697
  0
VERTEX
  8
0
 10
334.239136
 20
132.880432
  0
VERTEX
  8
0
 10
337.948151
 20
137.513565
  0
SEQEND
  0
TEXT
  8
0
 62
     7
 10
338.152161
 20
192.880432
 40
7.826087
 41
1.000000
  1
M5
  7
KANJI
 50
0.000000
 51
0.000000
  0
LINE
  8
0
 62
     5
 10
204.456512
 20
141.880432
 11
204.456512
 21
123.880432
  0
POLYLINE
  8
0
 62
     5
 66
     1
 70
     2
  0
VERTEX
  8
0
 10
202.826080
 20
129.586960
  0
VERTEX
  8
0
 10
204.456512
 20
123.880432
  0
VERTEX
  8
0
 10
206.086945
 20
129.586960
  0
SEQEND
  0
LINE
  8
0
 62
     5
 10
162.065216
 20
123.880432
 11
206.902176
 21
123.880432
  0
TEXT
  8
0
 62
     7
 10
202.826080
 20
118.002716
 40
8.152174
 41
1.000000
  1
%%c18H7
  7
KANJI
 50
90.000000
 51
0.000000
  0
POLYLINE
  8
0
 62
     4
 66
     1
 70
     2
  0
VERTEX
  8
0
 10
132.065216
 20
123.380432
  0
VERTEX
  8
0
 10
132.065216
 20
104.380432
  0
VERTEX
  8
0
 10
132.565216
 20
103.880432
  0
VERTEX
  8
0
 10
151.565216
 20
103.880432
  0
VERTEX
  8
0
 10
152.065216
 20
104.380432
  0
VERTEX
  8
0
 10
152.065216
 20
109.380432
  0
SEQEND
  0
POLYLINE
  8
0
 62
     4
 66
     1
 70
     2
  0
VERTEX
  8
0
 10
153.065216
 20
110.380432
  0
VERTEX
  8
0
 10
161.565216
 20
110.380432
  0
VERTEX
  8
0
 10
162.065216
 20
110.880432
  0
VERTEX
  8
0
 10
162.065216
 20
154.880432
  0
VERTEX
  8
0
 10
161.565216
 20
155.380432
  0
VERTEX
  8
0
 10
153.065216
 20
155.380432
  0
SEQEND
  0
POLYLINE
  8
0
 62
     4
 66
     1
 70
     2
  0
VERTEX
  8
0
 10
152.065216
 20
156.380432
  0
VERTEX
  8
0
 10
152.065216
 20
161.380432
  0
VERTEX
  8
0
 10
151.565216
 20
161.880432
  0
VERTEX
  8
0
 10
132.565216
 20
161.880432
  0
VERTEX
  8
0
 10
132.065216
 20
161.380432
  0
VERTEX
  8
0
 10
132.065216
 20
123.380432
  0
SEQEND
  0
CIRCLE
  8
0
 62
     4
 10
311.739136
 20
132.880432
 40
22.500000
  0
LINE
  8
0
 62
     5
 10
171.847824
 20
170.032608
 11
147.282608
 21
170.032608
  0
POLYLINE
  8
0
 62
     5
 66
     1
 70
     2
  0
VERTEX
  8
0
 10
151.358688
 20
168.402176
  0
VERTEX
  8
0
 10
157.065216
 20
170.032608
  0
VERTEX
  8
0
 10
151.358688
 20
171.663040
  0
SEQEND
  0
POLYLINE
  8
0
 62
     5
 66
     1
 70
     2
  0
VERTEX
  8
0
 10
167.771729
 20
171.663040
  0
VERTEX
  8
0
 10
162.065216
 20
170.032608
  0
VERTEX
  8
0
 10
167.771729
 20
168.402176
  0
SEQEND
  0
LINE
  8
0
 62
     5
 10
157.065216
 20
161.880432
 11
157.065216
 21
172.478256
  0
TEXT
  8
0
 62
     7
 10
166.956512
 20
171.336960
 40
8.152174
 41
1.000000
  1
5
  7
KANJI
 50
0.000000
 51
0.000000
  0
LINE
  8
0
 62
     5
 10
157.065216
 20
155.380432
 11
157.065216
 21
161.880432
  0
ENDSEC
  0
EOF
