  0
SECTION
  2
HEADER
  9
$ACADVER
  1
AC1003
  9
$INSBASE
 10
0.000000
 20
0.000000
  9
$EXTMIN
 10
0.000000
 20
0.000000
  9
$EXTMAX
 10
459.782609
 20
317.934783
  9
$LIMMIN
 10
0.000000
 20
0.000000
  9
$LIMMAX
 10
459.782609
 20
317.934783
  9
$VIEWCTR
 10
229.891304
 20
158.967391
  9
$VIEWSIZE
 40
317.934783
  0
ENDSEC
  0
SECTION
  2
TABLES
  0
TABLE
  2
LTYPE
 70
     4
  0
LTYPE
  2
CONTINUOUS
 70
    64
  3
SolidLine
 72
    65
 73
     0
 40
0.0
  0
LTYPE
  2
HIDDEN
 70
    64
  3
------------------------
 72
    65
 73
     2
 40
4.891304
 49
3.260870
 49
-1.630435
  0
LTYPE
  2
DASHDOT
 70
    64
  3
--?--?--?--?--?--?--?--
 72
    65
 73
     4
 40
19.565217
 49
14.673913
 49
-1.630435
 49
1.630435
 49
-1.630435
  0
LTYPE
  2
DIVIDE
 70
    64
  3
--??--??--??--??--??--
 72
    65
 73
     6
 40
24.456522
 49
16.304348
 49
-1.630435
 49
1.630435
 49
-1.630435
 49
1.630435
 49
-1.630435
  0
ENDTAB
  0
TABLE
  2
LAYER
 70
     5
  0
LAYER
  2
0
 70
    64
 62
     7
  6
CONTINUOUS
  0
LAYER
  2
HIDDEN
 70
    64
 62
     2
  6
HIDDEN
  0
LAYER
  2
DASHDOT
 70
    64
 62
     6
  6
DASHDOT
  0
LAYER
  2
DIVIDE
 70
    64
 62
     5
  6
DIVIDE
  0
ENDTAB
  0
TABLE
  2
STYLE
 70
     1
  0
STYLE
  2
STANDARD
 70
    64
 40
0.0
 41
1.0
 50
0.0
 71
     0
 42
0.2
  3
TXT
  4

  0
STYLE
  2
KANJI
 70
    64
 40
0.0
 41
1.0
 50
0.0
 71
     0
 42
0.2
  3
TXT
  4
BIGFONT
  0
ENDTAB
  0
TABLE
  2
VIEW
 70
     0
  0
ENDTAB
  0
ENDSEC
  0
SECTION
  2
BLOCKS
  0
ENDSEC
  0
SECTION
  2
ENTITIES
  0
TEXT
  8
0
 62
     7
 10
16.304348
 20
17.934782
 40
6.521739
 41
1.000000
  1
KHK SS2-28
  7
KANJI
 50
0.000000
 51
0.000000
  0
TEXT
  8
0
 62
     7
 10
16.304348
 20
8.152174
 40
6.521739
 41
1.000000
  1

  7
KANJI
 50
0.000000
 51
0.000000
  0
TEXT
  8
0
 62
     7
 10
16.304348
 20
293.478271
 40
7.336957
 41
1.000000
  1
Black oxide
  7
KANJI
 50
0.000000
 51
0.000000
  0
POLYLINE
  8
0
 62
     7
 66
     1
 70
     2
  0
VERTEX
  8
0
 10
391.304352
 20
293.478271
  0
VERTEX
  8
0
 10
384.945648
 20
304.500000
  0
VERTEX
  8
0
 10
410.380432
 20
304.500000
  0
VERTEX
  8
0
 10
404.021729
 20
293.478271
  0
VERTEX
  8
0
 10
397.663055
 20
304.500000
  0
VERTEX
  8
0
 10
391.304352
 20
293.478271
  0
SEQEND
  0
LINE
  8
0
 62
     5
 10
243.586945
 20
162.880432
 11
243.586945
 21
102.880432
  0
POLYLINE
  8
0
 62
     5
 66
     1
 70
     2
  0
VERTEX
  8
0
 10
245.217377
 20
157.173904
  0
VERTEX
  8
0
 10
243.586945
 20
162.880432
  0
VERTEX
  8
0
 10
241.956512
 20
157.173904
  0
SEQEND
  0
POLYLINE
  8
0
 62
     5
 66
     1
 70
     2
  0
VERTEX
  8
0
 10
241.956512
 20
108.586952
  0
VERTEX
  8
0
 10
243.586945
 20
102.880432
  0
VERTEX
  8
0
 10
245.217377
 20
108.586952
  0
SEQEND
  0
LINE
  8
0
 62
     5
 10
162.065216
 20
162.880432
 11
246.032608
 21
162.880432
  0
LINE
  8
0
 62
     5
 10
162.065216
 20
102.880432
 11
246.032608
 21
102.880432
  0
TEXT
  8
0
 62
     7
 10
241.956512
 20
123.301628
 40
8.152174
 41
1.000000
  1
%%c60
  7
KANJI
 50
90.000000
 51
0.000000
  0
LINE
  8
DASHDOT
 62
     7
 10
127.173912
 20
160.880432
 11
156.956512
 21
160.880432
  0
LINE
  8
DASHDOT
 62
     7
 10
127.173912
 20
104.880432
 11
156.956512
 21
104.880432
  0
LINE
  8
DASHDOT
 62
     7
 10
127.173912
 20
132.880432
 11
166.956512
 21
132.880432
  0
LINE
  8
0
 62
     5
 10
152.065216
 20
162.380432
 11
152.065216
 21
162.880432
  0
LINE
  8
0
 62
     5
 10
132.065216
 20
162.380432
 11
132.065216
 21
162.880432
  0
LINE
  8
0
 62
     5
 10
153.065216
 20
155.380432
 11
162.065216
 21
155.380432
  0
LINE
  8
0
 62
     5
 10
153.065216
 20
110.380432
 11
162.065216
 21
110.380432
  0
LINE
  8
0
 62
     5
 10
151.565216
 20
162.880432
 11
162.065216
 21
162.880432
  0
LINE
  8
0
 62
     5
 10
151.565216
 20
102.880432
 11
162.065216
 21
102.880432
  0
LINE
  8
0
 62
     4
 10
132.065216
 20
158.380432
 11
152.065216
 21
158.380432
  0
LINE
  8
0
 62
     4
 10
132.065216
 20
107.380432
 11
152.065216
 21
107.380432
  0
LINE
  8
0
 62
     4
 10
161.565216
 20
126.880432
 11
162.065216
 21
126.380432
  0
LINE
  8
0
 62
     4
 10
161.565216
 20
138.880432
 11
162.065216
 21
139.380432
  0
LINE
  8
0
 62
     4
 10
132.565216
 20
138.880432
 11
132.565216
 21
126.880432
  0
POLYLINE
  8
0
 62
     4
 66
     1
 70
     2
  0
VERTEX
  8
0
 10
132.065216
 20
126.380432
  0
VERTEX
  8
0
 10
132.565216
 20
126.880432
  0
VERTEX
  8
0
 10
161.565216
 20
126.880432
  0
VERTEX
  8
0
 10
161.565216
 20
138.880432
  0
VERTEX
  8
0
 10
132.565216
 20
138.880432
  0
VERTEX
  8
0
 10
132.065216
 20
139.380432
  0
SEQEND
  0
ARC
  8
0
 62
     4
 10
153.065216
 20
156.380432
 40
1.000000
 50
180.0
 51
270.0
  0
ARC
  8
0
 62
     4
 10
153.065216
 20
109.380432
 40
1.000000
 50
90.0
 51
180.0
  0
LINE
  8
0
 62
     5
 10
162.065216
 20
154.880432
 11
162.065216
 21
162.880432
  0
LINE
  8
0
 62
     5
 10
132.065216
 20
206.902176
 11
152.065216
 21
206.902176
  0
POLYLINE
  8
0
 62
     5
 66
     1
 70
     2
  0
VERTEX
  8
0
 10
137.771744
 20
208.532608
  0
VERTEX
  8
0
 10
132.065216
 20
206.902176
  0
VERTEX
  8
0
 10
137.771744
 20
205.271744
  0
SEQEND
  0
POLYLINE
  8
0
 62
     5
 66
     1
 70
     2
  0
VERTEX
  8
0
 10
146.358688
 20
205.271744
  0
VERTEX
  8
0
 10
152.065216
 20
206.902176
  0
VERTEX
  8
0
 10
146.358688
 20
208.532608
  0
SEQEND
  0
LINE
  8
0
 62
     5
 10
152.065216
 20
162.880432
 11
152.065216
 21
209.347839
  0
TEXT
  8
0
 62
     7
 10
136.766296
 20
208.206512
 40
8.152174
 41
1.000000
  1
20
  7
KANJI
 50
0.000000
 51
0.000000
  0
LINE
  8
0
 62
     5
 10
132.065216
 20
219.945648
 11
162.065216
 21
219.945648
  0
POLYLINE
  8
0
 62
     5
 66
     1
 70
     2
  0
VERTEX
  8
0
 10
137.771744
 20
221.576080
  0
VERTEX
  8
0
 10
132.065216
 20
219.945648
  0
VERTEX
  8
0
 10
137.771744
 20
218.315216
  0
SEQEND
  0
POLYLINE
  8
0
 62
     5
 66
     1
 70
     2
  0
VERTEX
  8
0
 10
156.358688
 20
218.315216
  0
VERTEX
  8
0
 10
162.065216
 20
219.945648
  0
VERTEX
  8
0
 10
156.358688
 20
221.576080
  0
SEQEND
  0
LINE
  8
0
 62
     5
 10
132.065216
 20
162.880432
 11
132.065216
 21
222.391296
  0
LINE
  8
0
 62
     5
 10
162.065216
 20
162.880432
 11
162.065216
 21
222.391296
  0
TEXT
  8
0
 62
     7
 10
141.766296
 20
221.250000
 40
8.152174
 41
1.000000
  1
30
  7
KANJI
 50
0.000000
 51
0.000000
  0
LINE
  8
0
 62
     5
 10
171.847824
 20
206.902176
 11
142.282608
 21
206.902176
  0
POLYLINE
  8
0
 62
     5
 66
     1
 70
     2
  0
VERTEX
  8
0
 10
146.358688
 20
205.271744
  0
VERTEX
  8
0
 10
152.065216
 20
206.902176
  0
VERTEX
  8
0
 10
146.358688
 20
208.532608
  0
SEQEND
  0
POLYLINE
  8
0
 62
     5
 66
     1
 70
     2
  0
VERTEX
  8
0
 10
167.771729
 20
208.532608
  0
VERTEX
  8
0
 10
162.065216
 20
206.902176
  0
VERTEX
  8
0
 10
167.771729
 20
205.271744
  0
SEQEND
  0
TEXT
  8
0
 62
     7
 10
166.956512
 20
208.206512
 40
8.152174
 41
1.000000
  1
10
  7
KANJI
 50
0.000000
 51
0.000000
  0
LINE
  8
0
 62
     5
 10
230.543488
 20
155.380432
 11
230.543488
 21
110.380432
  0
POLYLINE
  8
0
 62
     5
 66
     1
 70
     2
  0
VERTEX
  8
0
 10
232.173920
 20
149.673904
  0
VERTEX
  8
0
 10
230.543488
 20
155.380432
  0
VERTEX
  8
0
 10
228.913055
 20
149.673904
  0
SEQEND
  0
POLYLINE
  8
0
 62
     5
 66
     1
 70
     2
  0
VERTEX
  8
0
 10
228.913055
 20
116.086952
  0
VERTEX
  8
0
 10
230.543488
 20
110.380432
  0
VERTEX
  8
0
 10
232.173920
 20
116.086952
  0
SEQEND
  0
LINE
  8
0
 62
     5
 10
162.065216
 20
155.380432
 11
232.989136
 21
155.380432
  0
LINE
  8
0
 62
     5
 10
162.065216
 20
110.380432
 11
232.989136
 21
110.380432
  0
TEXT
  8
0
 62
     7
 10
228.913055
 20
123.301628
 40
8.152174
 41
1.000000
  1
%%c45
  7
KANJI
 50
90.000000
 51
0.000000
  0
LINE
  8
0
 62
     5
 10
204.456512
 20
117.097824
 11
204.456512
 21
148.663040
  0
POLYLINE
  8
0
 62
     5
 66
     1
 70
     2
  0
VERTEX
  8
0
 10
202.826080
 20
144.586960
  0
VERTEX
  8
0
 10
204.456512
 20
138.880432
  0
VERTEX
  8
0
 10
206.086945
 20
144.586960
  0
SEQEND
  0
POLYLINE
  8
0
 62
     5
 66
     1
 70
     2
  0
VERTEX
  8
0
 10
206.086945
 20
121.173912
  0
VERTEX
  8
0
 10
204.456512
 20
126.880432
  0
VERTEX
  8
0
 10
202.826080
 20
121.173912
  0
SEQEND
  0
LINE
  8
0
 62
     5
 10
162.065216
 20
138.880432
 11
206.902176
 21
138.880432
  0
LINE
  8
0
 62
     5
 10
162.065216
 20
126.880432
 11
206.902176
 21
126.880432
  0
TEXT
  8
0
 62
     7
 10
202.826080
 20
118.002716
 40
8.152174
 41
1.000000
  1
%%c12H7
  7
KANJI
 50
90.000000
 51
0.000000
  0
POLYLINE
  8
0
 62
     4
 66
     1
 70
     2
  0
VERTEX
  8
0
 10
132.065216
 20
126.380432
  0
VERTEX
  8
0
 10
132.065216
 20
103.380432
  0
VERTEX
  8
0
 10
132.565216
 20
102.880432
  0
VERTEX
  8
0
 10
151.565216
 20
102.880432
  0
VERTEX
  8
0
 10
152.065216
 20
103.380432
  0
VERTEX
  8
0
 10
152.065216
 20
109.380432
  0
SEQEND
  0
POLYLINE
  8
0
 62
     4
 66
     1
 70
     2
  0
VERTEX
  8
0
 10
153.065216
 20
110.380432
  0
VERTEX
  8
0
 10
161.565216
 20
110.380432
  0
VERTEX
  8
0
 10
162.065216
 20
110.880432
  0
VERTEX
  8
0
 10
162.065216
 20
154.880432
  0
VERTEX
  8
0
 10
161.565216
 20
155.380432
  0
VERTEX
  8
0
 10
153.065216
 20
155.380432
  0
SEQEND
  0
POLYLINE
  8
0
 62
     4
 66
     1
 70
     2
  0
VERTEX
  8
0
 10
152.065216
 20
156.380432
  0
VERTEX
  8
0
 10
152.065216
 20
162.380432
  0
VERTEX
  8
0
 10
151.565216
 20
162.880432
  0
VERTEX
  8
0
 10
132.565216
 20
162.880432
  0
VERTEX
  8
0
 10
132.065216
 20
162.380432
  0
VERTEX
  8
0
 10
132.065216
 20
126.380432
  0
SEQEND
  0
ENDSEC
  0
EOF
