  0
SECTION
  2
HEADER
  9
$ACADVER
  1
AC1003
  9
$INSBASE
 10
0.000000
 20
0.000000
  9
$EXTMIN
 10
0.000000
 20
0.000000
  9
$EXTMAX
 10
891.729730
 20
616.621622
  9
$LIMMIN
 10
0.000000
 20
0.000000
  9
$LIMMAX
 10
891.729730
 20
616.621622
  9
$VIEWCTR
 10
445.864865
 20
308.310811
  9
$VIEWSIZE
 40
616.621622
  0
ENDSEC
  0
SECTION
  2
TABLES
  0
TABLE
  2
LTYPE
 70
     4
  0
LTYPE
  2
CONTINUOUS
 70
    64
  3
SolidLine
 72
    65
 73
     0
 40
0.0
  0
LTYPE
  2
HIDDEN
 70
    64
  3
------------------------
 72
    65
 73
     2
 40
9.486486
 49
6.324324
 49
-3.162162
  0
LTYPE
  2
DASHDOT
 70
    64
  3
--?--?--?--?--?--?--?--
 72
    65
 73
     4
 40
37.945946
 49
28.459459
 49
-3.162162
 49
3.162162
 49
-3.162162
  0
LTYPE
  2
DIVIDE
 70
    64
  3
--??--??--??--??--??--
 72
    65
 73
     6
 40
47.432432
 49
31.621622
 49
-3.162162
 49
3.162162
 49
-3.162162
 49
3.162162
 49
-3.162162
  0
ENDTAB
  0
TABLE
  2
LAYER
 70
     5
  0
LAYER
  2
0
 70
    64
 62
     7
  6
CONTINUOUS
  0
LAYER
  2
HIDDEN
 70
    64
 62
     2
  6
HIDDEN
  0
LAYER
  2
DASHDOT
 70
    64
 62
     6
  6
DASHDOT
  0
LAYER
  2
DIVIDE
 70
    64
 62
     5
  6
DIVIDE
  0
ENDTAB
  0
TABLE
  2
STYLE
 70
     1
  0
STYLE
  2
STANDARD
 70
    64
 40
0.0
 41
1.0
 50
0.0
 71
     0
 42
0.2
  3
TXT
  4

  0
STYLE
  2
KANJI
 70
    64
 40
0.0
 41
1.0
 50
0.0
 71
     0
 42
0.2
  3
TXT
  4
BIGFONT
  0
ENDTAB
  0
TABLE
  2
VIEW
 70
     0
  0
ENDTAB
  0
ENDSEC
  0
SECTION
  2
BLOCKS
  0
ENDSEC
  0
SECTION
  2
ENTITIES
  0
TEXT
  8
0
 62
     7
 10
31.621622
 20
34.783783
 40
12.648649
 41
1.000000
  1
KHK SS2.5-64J30
  7
KANJI
 50
0.000000
 51
0.000000
  0
TEXT
  8
0
 62
     7
 10
31.621622
 20
15.810811
 40
12.648649
 41
1.000000
  1
The precision grade of gears after secondary operations is equivalent but not identical to its original grade.
  7
KANJI
 50
0.000000
 51
0.000000
  0
TEXT
  8
0
 62
     7
 10
31.621622
 20
569.189209
 40
14.229730
 41
1.000000
  1
For J Series products, without black oxide repeatedly applied on secondary-operated parts.
  7
KANJI
 50
0.000000
 51
0.000000
  0
POLYLINE
  8
0
 62
     7
 66
     1
 70
     2
  0
VERTEX
  8
0
 10
758.918945
 20
569.189209
  0
VERTEX
  8
0
 10
746.586487
 20
590.565430
  0
VERTEX
  8
0
 10
795.916260
 20
590.565430
  0
VERTEX
  8
0
 10
783.583801
 20
569.189209
  0
VERTEX
  8
0
 10
771.251404
 20
590.565430
  0
VERTEX
  8
0
 10
758.918945
 20
569.189209
  0
SEQEND
  0
LINE
  8
0
 62
     5
 10
441.756775
 20
307.405396
 11
441.756775
 21
176.405411
  0
POLYLINE
  8
0
 62
     5
 66
     1
 70
     2
  0
VERTEX
  8
0
 10
444.918915
 20
296.337830
  0
VERTEX
  8
0
 10
441.756775
 20
307.405396
  0
VERTEX
  8
0
 10
438.594604
 20
296.337830
  0
SEQEND
  0
POLYLINE
  8
0
 62
     5
 66
     1
 70
     2
  0
VERTEX
  8
0
 10
438.594604
 20
187.472977
  0
VERTEX
  8
0
 10
441.756775
 20
176.405411
  0
VERTEX
  8
0
 10
444.918915
 20
187.472977
  0
SEQEND
  0
LINE
  8
0
 62
     5
 10
277.324341
 20
307.405396
 11
446.500000
 21
307.405396
  0
LINE
  8
0
 62
     5
 10
277.324341
 20
176.405411
 11
446.500000
 21
176.405411
  0
TEXT
  8
0
 62
     7
 10
438.594604
 20
218.189194
 40
15.810811
 41
1.000000
  1
%%c131
  7
KANJI
 50
90.000000
 51
0.000000
  0
LINE
  8
0
 62
     5
 10
467.054077
 20
324.405396
 11
467.054077
 21
159.405411
  0
POLYLINE
  8
0
 62
     5
 66
     1
 70
     2
  0
VERTEX
  8
0
 10
470.216217
 20
313.337830
  0
VERTEX
  8
0
 10
467.054077
 20
324.405396
  0
VERTEX
  8
0
 10
463.891907
 20
313.337830
  0
SEQEND
  0
POLYLINE
  8
0
 62
     5
 66
     1
 70
     2
  0
VERTEX
  8
0
 10
463.891907
 20
170.472977
  0
VERTEX
  8
0
 10
467.054077
 20
159.405411
  0
VERTEX
  8
0
 10
470.216217
 20
170.472977
  0
SEQEND
  0
LINE
  8
0
 62
     5
 10
277.324341
 20
324.405396
 11
471.797302
 21
324.405396
  0
LINE
  8
0
 62
     5
 10
277.324341
 20
159.405411
 11
471.797302
 21
159.405411
  0
TEXT
  8
0
 62
     7
 10
463.891907
 20
218.189194
 40
15.810811
 41
1.000000
  1
%%c165
  7
KANJI
 50
90.000000
 51
0.000000
  0
LINE
  8
0
 62
     5
 10
279.297302
 20
287.067566
 11
226.351349
 21
287.067566
  0
POLYLINE
  8
0
 62
     5
 66
     1
 70
     2
  0
VERTEX
  8
0
 10
245.324326
 20
287.067566
  0
VERTEX
  8
0
 10
244.375671
 20
288.016235
  0
VERTEX
  8
0
 10
246.272980
 20
288.016235
  0
VERTEX
  8
0
 10
246.272980
 20
286.118927
  0
VERTEX
  8
0
 10
244.375671
 20
286.118927
  0
VERTEX
  8
0
 10
244.375671
 20
288.016235
  0
VERTEX
  8
0
 10
245.324326
 20
287.067566
  0
VERTEX
  8
0
 10
246.272980
 20
286.118927
  0
VERTEX
  8
0
 10
246.272980
 20
288.016235
  0
VERTEX
  8
0
 10
245.324326
 20
287.067566
  0
SEQEND
  0
POLYLINE
  8
0
 62
     5
 66
     1
 70
     2
  0
VERTEX
  8
0
 10
260.324341
 20
287.067566
  0
VERTEX
  8
0
 10
259.375671
 20
288.016235
  0
VERTEX
  8
0
 10
261.272980
 20
288.016235
  0
VERTEX
  8
0
 10
261.272980
 20
286.118927
  0
VERTEX
  8
0
 10
259.375671
 20
286.118927
  0
VERTEX
  8
0
 10
259.375671
 20
288.016235
  0
VERTEX
  8
0
 10
260.324341
 20
287.067566
  0
VERTEX
  8
0
 10
261.272980
 20
286.118927
  0
VERTEX
  8
0
 10
261.272980
 20
288.016235
  0
VERTEX
  8
0
 10
260.324341
 20
287.067566
  0
SEQEND
  0
TEXT
  8
0
 62
     7
 10
242.547302
 20
289.597290
 40
15.810811
 41
1.000000
  1
15
  7
KANJI
 50
0.000000
 51
0.000000
  0
LINE
  8
0
 62
     5
 10
284.297302
 20
287.067566
 11
241.351349
 21
287.067566
  0
POLYLINE
  8
0
 62
     5
 66
     1
 70
     2
  0
VERTEX
  8
0
 10
249.256760
 20
283.905396
  0
VERTEX
  8
0
 10
260.324341
 20
287.067566
  0
VERTEX
  8
0
 10
249.256760
 20
290.229736
  0
SEQEND
  0
POLYLINE
  8
0
 62
     5
 66
     1
 70
     2
  0
VERTEX
  8
0
 10
276.391907
 20
290.229736
  0
VERTEX
  8
0
 10
265.324341
 20
287.067566
  0
VERTEX
  8
0
 10
276.391907
 20
283.905396
  0
SEQEND
  0
TEXT
  8
0
 62
     7
 10
274.810822
 20
289.597290
 40
15.810811
 41
1.000000
  1
5
  7
KANJI
 50
0.000000
 51
0.000000
  0
LINE
  8
0
 62
     5
 10
264.297302
 20
287.067566
 11
221.351349
 21
287.067566
  0
POLYLINE
  8
0
 62
     5
 66
     1
 70
     2
  0
VERTEX
  8
0
 10
229.256760
 20
283.905396
  0
VERTEX
  8
0
 10
240.324326
 20
287.067566
  0
VERTEX
  8
0
 10
229.256760
 20
290.229736
  0
SEQEND
  0
POLYLINE
  8
0
 62
     5
 66
     1
 70
     2
  0
VERTEX
  8
0
 10
256.391907
 20
290.229736
  0
VERTEX
  8
0
 10
245.324326
 20
287.067566
  0
VERTEX
  8
0
 10
256.391907
 20
283.905396
  0
SEQEND
  0
TEXT
  8
0
 62
     7
 10
220.560806
 20
289.597290
 40
15.810811
 41
1.000000
  1
5
  7
KANJI
 50
0.000000
 51
0.000000
  0
ARC
  8
0
 62
     4
 10
243.324326
 20
283.905396
 40
2.000000
 50
270.0
 51
0.0
  0
ARC
  8
0
 62
     4
 10
243.324326
 20
199.905411
 40
2.000000
 50
0.0
 51
90.0
  0
LINE
  8
DASHDOT
 62
     7
 10
230.837845
 20
321.905396
 11
274.810822
 21
321.905396
  0
LINE
  8
DASHDOT
 62
     7
 10
230.837845
 20
161.905411
 11
274.810822
 21
161.905411
  0
LINE
  8
DASHDOT
 62
     7
 10
230.837845
 20
241.905411
 11
286.810822
 21
241.905411
  0
LINE
  8
0
 62
     5
 10
265.324341
 20
323.405396
 11
265.324341
 21
324.405396
  0
LINE
  8
0
 62
     5
 10
240.324326
 20
323.405396
 11
240.324326
 21
324.405396
  0
LINE
  8
0
 62
     5
 10
264.324341
 20
324.405396
 11
277.324341
 21
324.405396
  0
LINE
  8
0
 62
     5
 10
264.324341
 20
159.405411
 11
277.324341
 21
159.405411
  0
LINE
  8
0
 62
     4
 10
240.324326
 20
318.780396
 11
265.324341
 21
318.780396
  0
LINE
  8
0
 62
     4
 10
240.324326
 20
165.030411
 11
265.324341
 21
165.030411
  0
LINE
  8
0
 62
     4
 10
277.324341
 20
257.905396
 11
276.324341
 21
256.905396
  0
LINE
  8
0
 62
     4
 10
277.324341
 20
225.905411
 11
276.324341
 21
226.905411
  0
LINE
  8
0
 62
     4
 10
240.324326
 20
225.905411
 11
241.324326
 21
226.905411
  0
LINE
  8
0
 62
     4
 10
240.324326
 20
281.905396
 11
243.324326
 21
281.905396
  0
LINE
  8
0
 62
     4
 10
240.324326
 20
201.905411
 11
243.324326
 21
201.905411
  0
POLYLINE
  8
0
 62
     4
 66
     1
 70
     2
  0
VERTEX
  8
0
 10
260.324341
 20
283.905396
  0
VERTEX
  8
0
 10
260.324341
 20
297.592346
  0
VERTEX
  8
0
 10
265.324341
 20
307.405396
  0
SEQEND
  0
POLYLINE
  8
0
 62
     4
 66
     1
 70
     2
  0
VERTEX
  8
0
 10
245.324326
 20
283.905396
  0
VERTEX
  8
0
 10
245.324326
 20
297.592346
  0
VERTEX
  8
0
 10
240.324326
 20
307.405396
  0
SEQEND
  0
POLYLINE
  8
0
 62
     4
 66
     1
 70
     2
  0
VERTEX
  8
0
 10
260.324341
 20
199.905411
  0
VERTEX
  8
0
 10
260.324341
 20
186.218460
  0
VERTEX
  8
0
 10
265.324341
 20
176.405411
  0
SEQEND
  0
POLYLINE
  8
0
 62
     4
 66
     1
 70
     2
  0
VERTEX
  8
0
 10
245.324326
 20
199.905411
  0
VERTEX
  8
0
 10
245.324326
 20
186.218460
  0
VERTEX
  8
0
 10
240.324326
 20
176.405411
  0
SEQEND
  0
POLYLINE
  8
0
 62
     4
 66
     1
 70
     2
  0
VERTEX
  8
0
 10
240.324326
 20
257.905396
  0
VERTEX
  8
0
 10
241.324326
 20
256.905396
  0
VERTEX
  8
0
 10
241.324326
 20
226.905411
  0
VERTEX
  8
0
 10
276.324341
 20
226.905411
  0
VERTEX
  8
0
 10
276.324341
 20
256.905396
  0
VERTEX
  8
0
 10
241.324326
 20
256.905396
  0
SEQEND
  0
LINE
  8
0
 62
     5
 10
265.324341
 20
176.405411
 11
277.324341
 21
176.405411
  0
LINE
  8
0
 62
     5
 10
265.324341
 20
307.405396
 11
277.324341
 21
307.405396
  0
LINE
  8
0
 62
     5
 10
277.324341
 20
280.905396
 11
277.324341
 21
324.405396
  0
LINE
  8
0
 62
     5
 10
240.324326
 20
419.270264
 11
277.324341
 21
419.270264
  0
POLYLINE
  8
0
 62
     5
 66
     1
 70
     2
  0
VERTEX
  8
0
 10
251.391891
 20
422.432434
  0
VERTEX
  8
0
 10
240.324326
 20
419.270264
  0
VERTEX
  8
0
 10
251.391891
 20
416.108124
  0
SEQEND
  0
POLYLINE
  8
0
 62
     5
 66
     1
 70
     2
  0
VERTEX
  8
0
 10
266.256744
 20
416.108124
  0
VERTEX
  8
0
 10
277.324341
 20
419.270264
  0
VERTEX
  8
0
 10
266.256744
 20
422.432434
  0
SEQEND
  0
LINE
  8
0
 62
     5
 10
240.324326
 20
324.405396
 11
240.324326
 21
424.013519
  0
LINE
  8
0
 62
     5
 10
277.324341
 20
324.405396
 11
277.324341
 21
424.013519
  0
TEXT
  8
0
 62
     7
 10
248.547302
 20
421.799988
 40
15.810811
 41
1.000000
  1
37
  7
KANJI
 50
0.000000
 51
0.000000
  0
LINE
  8
0
 62
     5
 10
284.297302
 20
393.972961
 11
221.351349
 21
393.972961
  0
POLYLINE
  8
0
 62
     5
 66
     1
 70
     2
  0
VERTEX
  8
0
 10
229.256760
 20
390.810822
  0
VERTEX
  8
0
 10
240.324326
 20
393.972961
  0
VERTEX
  8
0
 10
229.256760
 20
397.135132
  0
SEQEND
  0
POLYLINE
  8
0
 62
     5
 66
     1
 70
     2
  0
VERTEX
  8
0
 10
276.391907
 20
397.135132
  0
VERTEX
  8
0
 10
265.324341
 20
393.972961
  0
VERTEX
  8
0
 10
276.391907
 20
390.810822
  0
SEQEND
  0
LINE
  8
0
 62
     5
 10
265.324341
 20
324.405396
 11
265.324341
 21
398.716217
  0
TEXT
  8
0
 62
     7
 10
242.547302
 20
396.502686
 40
15.810811
 41
1.000000
  1
25
  7
KANJI
 50
0.000000
 51
0.000000
  0
LINE
  8
0
 62
     5
 10
296.297302
 20
393.972961
 11
246.351349
 21
393.972961
  0
POLYLINE
  8
0
 62
     5
 66
     1
 70
     2
  0
VERTEX
  8
0
 10
254.256760
 20
390.810822
  0
VERTEX
  8
0
 10
265.324341
 20
393.972961
  0
VERTEX
  8
0
 10
254.256760
 20
397.135132
  0
SEQEND
  0
POLYLINE
  8
0
 62
     5
 66
     1
 70
     2
  0
VERTEX
  8
0
 10
288.391907
 20
397.135132
  0
VERTEX
  8
0
 10
277.324341
 20
393.972961
  0
VERTEX
  8
0
 10
288.391907
 20
390.810822
  0
SEQEND
  0
TEXT
  8
0
 62
     7
 10
261.047302
 20
396.502686
 40
15.810811
 41
1.000000
  1
12
  7
KANJI
 50
0.000000
 51
0.000000
  0
LINE
  8
DASHDOT
 62
     7
 10
617.729736
 20
297.716217
 11
617.729736
 21
192.418915
  0
LINE
  8
DASHDOT
 62
     7
 10
568.243225
 20
241.905411
 11
667.216248
 21
241.905411
  0
LINE
  8
0
 62
     5
 10
640.702698
 20
326.175659
 11
594.756775
 21
326.175659
  0
POLYLINE
  8
0
 62
     5
 66
     1
 70
     2
  0
VERTEX
  8
0
 10
602.662170
 20
323.013519
  0
VERTEX
  8
0
 10
613.729736
 20
326.175659
  0
VERTEX
  8
0
 10
602.662170
 20
329.337830
  0
SEQEND
  0
POLYLINE
  8
0
 62
     5
 66
     1
 70
     2
  0
VERTEX
  8
0
 10
632.797302
 20
329.337830
  0
VERTEX
  8
0
 10
621.729736
 20
326.175659
  0
VERTEX
  8
0
 10
632.797302
 20
323.013519
  0
SEQEND
  0
LINE
  8
0
 62
     5
 10
613.729736
 20
260.205414
 11
613.729736
 21
330.918915
  0
LINE
  8
0
 62
     5
 10
621.729736
 20
260.205414
 11
621.729736
 21
330.918915
  0
TEXT
  8
0
 62
     7
 10
585.093079
 20
329.337830
 40
15.810811
 41
1.000000
  1
8
  7
KANJI
 50
0.000000
 51
0.000000
  0
TEXT
  8
0
 62
     7
 10
600.743835
 20
329.337830
 40
12.648649
 41
1.000000
  1
%%p0.018
  7
KANJI
 50
0.000000
 51
0.000000
  0
LINE
  8
0
 62
     5
 10
720.972961
 20
207.932434
 11
720.972961
 21
279.178375
  0
POLYLINE
  8
0
 62
     5
 66
     1
 70
     2
  0
VERTEX
  8
0
 10
717.810791
 20
271.272980
  0
VERTEX
  8
0
 10
720.972961
 20
260.205414
  0
VERTEX
  8
0
 10
724.135132
 20
271.272980
  0
SEQEND
  0
POLYLINE
  8
0
 62
     5
 66
     1
 70
     2
  0
VERTEX
  8
0
 10
724.135132
 20
215.837845
  0
VERTEX
  8
0
 10
720.972961
 20
226.905411
  0
VERTEX
  8
0
 10
717.810791
 20
215.837845
  0
SEQEND
  0
LINE
  8
0
 62
     5
 10
621.729736
 20
260.205414
 11
725.716187
 21
260.205414
  0
LINE
  8
0
 62
     5
 10
617.729736
 20
226.905411
 11
725.716187
 21
226.905411
  0
TEXT
  8
0
 62
     7
 10
716.229675
 20
195.143127
 40
15.810811
 41
1.000000
  1
33.3
  7
KANJI
 50
90.000000
 51
0.000000
  0
TEXT
  8
0
 62
     7
 10
717.178345
 20
263.578583
 40
7.905405
 41
1.000000
  1
 
  7
KANJI
 50
90.000000
 51
0.000000
  0
TEXT
  8
0
 62
     7
 10
707.375671
 20
263.578583
 40
7.905405
 41
1.000000
  1
+
  7
KANJI
 50
90.000000
 51
0.000000
  0
TEXT
  8
0
 62
     7
 10
717.178345
 20
272.432617
 40
7.905405
 41
1.000000
  1
0
  7
KANJI
 50
90.000000
 51
0.000000
  0
TEXT
  8
0
 62
     7
 10
707.375671
 20
272.432617
 40
7.905405
 41
1.000000
  1
0.2
  7
KANJI
 50
90.000000
 51
0.000000
  0
ARC
  8
0
 62
     4
 10
617.729736
 20
241.905411
 40
15.000000
 50
105.46601032289746
 51
74.53398967710255
  0
POLYLINE
  8
0
 62
     4
 66
     1
 70
     2
  0
VERTEX
  8
0
 10
621.729736
 20
256.362244
  0
VERTEX
  8
0
 10
621.729736
 20
260.205414
  0
VERTEX
  8
0
 10
613.729736
 20
260.205414
  0
VERTEX
  8
0
 10
613.729736
 20
256.362244
  0
SEQEND
  0
LINE
  8
0
 62
     4
 10
240.324326
 20
260.205414
 11
277.324341
 21
260.205414
  0
POLYLINE
  8
DASHDOT
 62
     7
 66
     1
 70
     2
  0
VERTEX
  8
DASHDOT
 10
271.324341
 20
291.391907
  0
VERTEX
  8
DASHDOT
 10
271.324341
 20
250.718918
  0
SEQEND
  0
POLYLINE
  8
0
 62
     4
 66
     1
 70
     2
  0
VERTEX
  8
0
 10
274.324341
 20
281.905396
  0
VERTEX
  8
0
 10
274.324341
 20
260.205414
  0
SEQEND
  0
POLYLINE
  8
0
 62
     4
 66
     1
 70
     2
  0
VERTEX
  8
0
 10
268.324341
 20
281.905396
  0
VERTEX
  8
0
 10
268.324341
 20
260.205414
  0
SEQEND
  0
POLYLINE
  8
0
 62
     4
 66
     1
 70
     2
  0
VERTEX
  8
0
 10
273.784332
 20
281.905396
  0
VERTEX
  8
0
 10
273.784332
 20
260.205414
  0
SEQEND
  0
POLYLINE
  8
0
 62
     4
 66
     1
 70
     2
  0
VERTEX
  8
0
 10
268.864319
 20
281.905396
  0
VERTEX
  8
0
 10
268.864319
 20
260.205414
  0
SEQEND
  0
POLYLINE
  8
0
 62
     5
 66
     1
 70
     2
  0
VERTEX
  8
0
 10
617.729736
 20
281.905396
  0
VERTEX
  8
0
 10
560.810791
 20
376.770264
  0
VERTEX
  8
0
 10
595.594604
 20
376.770264
  0
SEQEND
  0
POLYLINE
  8
0
 62
     5
 66
     1
 70
     2
  0
VERTEX
  8
0
 10
609.323975
 20
289.768860
  0
VERTEX
  8
0
 10
617.729736
 20
281.905396
  0
VERTEX
  8
0
 10
614.747009
 20
293.022705
  0
SEQEND
  0
TEXT
  8
0
 62
     7
 10
563.972961
 20
379.932434
 40
15.178379
 41
1.000000
  1
M6
  7
KANJI
 50
0.000000
 51
0.000000
  0
POLYLINE
  8
0
 62
     4
 66
     1
 70
     2
  0
VERTEX
  8
0
 10
614.729736
 20
260.205414
  0
VERTEX
  8
0
 10
614.729736
 20
281.792755
  0
SEQEND
  0
POLYLINE
  8
0
 62
     4
 66
     1
 70
     2
  0
VERTEX
  8
0
 10
620.729736
 20
260.205414
  0
VERTEX
  8
0
 10
620.729736
 20
281.792755
  0
SEQEND
  0
POLYLINE
  8
0
 62
     4
 66
     1
 70
     2
  0
VERTEX
  8
0
 10
615.269714
 20
260.205414
  0
VERTEX
  8
0
 10
615.269714
 20
281.829681
  0
SEQEND
  0
POLYLINE
  8
0
 62
     4
 66
     1
 70
     2
  0
VERTEX
  8
0
 10
620.189697
 20
260.205414
  0
VERTEX
  8
0
 10
620.189697
 20
281.829681
  0
SEQEND
  0
CIRCLE
  8
0
 62
     7
 10
271.324341
 20
241.905411
 40
3.000000
  0
CIRCLE
  8
0
 62
     4
 10
271.324341
 20
241.905411
 40
2.460000
  0
POLYLINE
  8
DASHDOT
 62
     7
 66
     1
 70
     2
  0
VERTEX
  8
DASHDOT
 10
258.837830
 20
241.905411
  0
VERTEX
  8
DASHDOT
 10
283.810822
 20
241.905411
  0
SEQEND
  0
POLYLINE
  8
DASHDOT
 62
     7
 66
     1
 70
     2
  0
VERTEX
  8
DASHDOT
 10
271.324341
 20
229.418930
  0
VERTEX
  8
DASHDOT
 10
271.324341
 20
254.391891
  0
SEQEND
  0
LINE
  8
DASHDOT
 62
     7
 10
271.324341
 20
281.905396
 11
271.324341
 21
241.905411
  0
LINE
  8
0
 62
     5
 10
271.324341
 20
281.905396
 11
271.324341
 21
324.405396
  0
POLYLINE
  8
0
 62
     5
 66
     1
 70
     2
  0
VERTEX
  8
0
 10
657.729736
 20
241.905411
  0
VERTEX
  8
0
 10
705.162170
 20
351.472961
  0
VERTEX
  8
0
 10
670.378357
 20
351.472961
  0
SEQEND
  0
POLYLINE
  8
0
 62
     5
 66
     1
 70
     2
  0
VERTEX
  8
0
 10
659.224670
 20
253.318359
  0
VERTEX
  8
0
 10
657.729736
 20
241.905411
  0
VERTEX
  8
0
 10
665.028503
 20
250.805847
  0
SEQEND
  0
TEXT
  8
0
 62
     7
 10
673.540527
 20
354.635132
 40
15.178379
 41
1.000000
  1
M6
  7
KANJI
 50
0.000000
 51
0.000000
  0
POLYLINE
  8
0
 62
     4
 66
     1
 70
     2
  0
VERTEX
  8
0
 10
632.426636
 20
244.905411
  0
VERTEX
  8
0
 10
657.617065
 20
244.905411
  0
SEQEND
  0
POLYLINE
  8
0
 62
     4
 66
     1
 70
     2
  0
VERTEX
  8
0
 10
632.426636
 20
238.905411
  0
VERTEX
  8
0
 10
657.617065
 20
238.905411
  0
SEQEND
  0
POLYLINE
  8
0
 62
     4
 66
     1
 70
     2
  0
VERTEX
  8
0
 10
632.526611
 20
244.365417
  0
VERTEX
  8
0
 10
657.653992
 20
244.365417
  0
SEQEND
  0
POLYLINE
  8
0
 62
     4
 66
     1
 70
     2
  0
VERTEX
  8
0
 10
632.526611
 20
239.445404
  0
VERTEX
  8
0
 10
657.653992
 20
239.445404
  0
SEQEND
  0
LINE
  8
0
 62
     5
 10
365.864868
 20
256.905396
 11
365.864868
 21
226.905411
  0
POLYLINE
  8
0
 62
     5
 66
     1
 70
     2
  0
VERTEX
  8
0
 10
362.702698
 20
237.972977
  0
VERTEX
  8
0
 10
365.864868
 20
226.905411
  0
VERTEX
  8
0
 10
369.027039
 20
237.972977
  0
SEQEND
  0
LINE
  8
0
 62
     5
 10
277.324341
 20
226.905411
 11
370.608093
 21
226.905411
  0
TEXT
  8
0
 62
     7
 10
362.702698
 20
213.050690
 40
15.810811
 41
1.000000
  1
%%c30H7
  7
KANJI
 50
90.000000
 51
0.000000
  0
POLYLINE
  8
0
 62
     4
 66
     1
 70
     2
  0
VERTEX
  8
0
 10
240.324326
 20
225.905411
  0
VERTEX
  8
0
 10
240.324326
 20
160.405411
  0
VERTEX
  8
0
 10
241.324326
 20
159.405411
  0
VERTEX
  8
0
 10
264.324341
 20
159.405411
  0
VERTEX
  8
0
 10
265.324341
 20
160.405411
  0
VERTEX
  8
0
 10
265.324341
 20
201.905411
  0
VERTEX
  8
0
 10
276.324341
 20
201.905411
  0
VERTEX
  8
0
 10
277.324341
 20
202.905411
  0
VERTEX
  8
0
 10
277.324341
 20
280.905396
  0
VERTEX
  8
0
 10
276.324341
 20
281.905396
  0
VERTEX
  8
0
 10
265.324341
 20
281.905396
  0
VERTEX
  8
0
 10
265.324341
 20
323.405396
  0
SEQEND
  0
POLYLINE
  8
0
 62
     4
 66
     1
 70
     2
  0
VERTEX
  8
0
 10
265.324341
 20
323.405396
  0
VERTEX
  8
0
 10
264.324341
 20
324.405396
  0
VERTEX
  8
0
 10
241.324326
 20
324.405396
  0
VERTEX
  8
0
 10
240.324326
 20
323.405396
  0
VERTEX
  8
0
 10
240.324326
 20
225.905411
  0
SEQEND
  0
ARC
  8
0
 62
     4
 10
262.324341
 20
199.905411
 40
2.000000
 50
90.0
 51
180.0
  0
ARC
  8
0
 62
     4
 10
262.324341
 20
283.905396
 40
2.000000
 50
180.0
 51
270.0
  0
LINE
  8
0
 62
     4
 10
265.324341
 20
201.905411
 11
262.324341
 21
201.905411
  0
LINE
  8
0
 62
     4
 10
262.324341
 20
281.905396
 11
265.324341
 21
281.905396
  0
LINE
  8
0
 62
     5
 10
391.162170
 20
281.905396
 11
391.162170
 21
201.905411
  0
POLYLINE
  8
0
 62
     5
 66
     1
 70
     2
  0
VERTEX
  8
0
 10
394.324310
 20
270.837830
  0
VERTEX
  8
0
 10
391.162170
 20
281.905396
  0
VERTEX
  8
0
 10
388.000000
 20
270.837830
  0
SEQEND
  0
POLYLINE
  8
0
 62
     5
 66
     1
 70
     2
  0
VERTEX
  8
0
 10
388.000000
 20
212.972977
  0
VERTEX
  8
0
 10
391.162170
 20
201.905411
  0
VERTEX
  8
0
 10
394.324310
 20
212.972977
  0
SEQEND
  0
LINE
  8
0
 62
     5
 10
277.324341
 20
281.905396
 11
395.905396
 21
281.905396
  0
LINE
  8
0
 62
     5
 10
277.324341
 20
201.905411
 11
395.905396
 21
201.905411
  0
TEXT
  8
0
 62
     7
 10
388.000000
 20
223.327713
 40
15.810811
 41
1.000000
  1
%%c80
  7
KANJI
 50
90.000000
 51
0.000000
  0
LINE
  8
0
 62
     4
 10
260.324341
 20
297.592346
 11
260.324341
 21
283.905396
  0
LINE
  8
0
 62
     4
 10
260.324341
 20
199.905411
 11
260.324341
 21
186.218460
  0
CIRCLE
  8
0
 62
     4
 10
617.729736
 20
241.905411
 40
40.000000
  0
LINE
  8
0
 62
     5
 10
296.297302
 20
343.378387
 11
252.351349
 21
343.378387
  0
POLYLINE
  8
0
 62
     5
 66
     1
 70
     2
  0
VERTEX
  8
0
 10
260.256744
 20
340.216217
  0
VERTEX
  8
0
 10
271.324341
 20
343.378387
  0
VERTEX
  8
0
 10
260.256744
 20
346.540558
  0
SEQEND
  0
POLYLINE
  8
0
 62
     5
 66
     1
 70
     2
  0
VERTEX
  8
0
 10
288.391907
 20
346.540558
  0
VERTEX
  8
0
 10
277.324341
 20
343.378387
  0
VERTEX
  8
0
 10
288.391907
 20
340.216217
  0
SEQEND
  0
LINE
  8
0
 62
     5
 10
271.324341
 20
324.405396
 11
271.324341
 21
348.121643
  0
TEXT
  8
0
 62
     7
 10
269.185822
 20
345.908112
 40
15.810811
 41
1.000000
  1
6
  7
KANJI
 50
0.000000
 51
0.000000
  0
LINE
  8
0
 62
     5
 10
271.324341
 20
281.905396
 11
271.324341
 21
324.405396
  0
ENDSEC
  0
EOF
