  0
SECTION
  2
HEADER
  9
$ACADVER
  1
AC1003
  9
$INSBASE
 10
0.000000
 20
0.000000
  9
$EXTMIN
 10
0.000000
 20
0.000000
  9
$EXTMAX
 10
594.652174
 20
411.195652
  9
$LIMMIN
 10
0.000000
 20
0.000000
  9
$LIMMAX
 10
594.652174
 20
411.195652
  9
$VIEWCTR
 10
297.326087
 20
205.597826
  9
$VIEWSIZE
 40
411.195652
  0
ENDSEC
  0
SECTION
  2
TABLES
  0
TABLE
  2
LTYPE
 70
     4
  0
LTYPE
  2
CONTINUOUS
 70
    64
  3
SolidLine
 72
    65
 73
     0
 40
0.0
  0
LTYPE
  2
HIDDEN
 70
    64
  3
------------------------
 72
    65
 73
     2
 40
6.326087
 49
4.217391
 49
-2.108696
  0
LTYPE
  2
DASHDOT
 70
    64
  3
--?--?--?--?--?--?--?--
 72
    65
 73
     4
 40
25.304348
 49
18.978261
 49
-2.108696
 49
2.108696
 49
-2.108696
  0
LTYPE
  2
DIVIDE
 70
    64
  3
--??--??--??--??--??--
 72
    65
 73
     6
 40
31.630435
 49
21.086957
 49
-2.108696
 49
2.108696
 49
-2.108696
 49
2.108696
 49
-2.108696
  0
ENDTAB
  0
TABLE
  2
LAYER
 70
     5
  0
LAYER
  2
0
 70
    64
 62
     7
  6
CONTINUOUS
  0
LAYER
  2
HIDDEN
 70
    64
 62
     2
  6
HIDDEN
  0
LAYER
  2
DASHDOT
 70
    64
 62
     6
  6
DASHDOT
  0
LAYER
  2
DIVIDE
 70
    64
 62
     5
  6
DIVIDE
  0
ENDTAB
  0
TABLE
  2
STYLE
 70
     1
  0
STYLE
  2
STANDARD
 70
    64
 40
0.0
 41
1.0
 50
0.0
 71
     0
 42
0.2
  3
TXT
  4

  0
STYLE
  2
KANJI
 70
    64
 40
0.0
 41
1.0
 50
0.0
 71
     0
 42
0.2
  3
TXT
  4
BIGFONT
  0
ENDTAB
  0
TABLE
  2
VIEW
 70
     0
  0
ENDTAB
  0
ENDSEC
  0
SECTION
  2
BLOCKS
  0
ENDSEC
  0
SECTION
  2
ENTITIES
  0
TEXT
  8
0
 62
     7
 10
21.086956
 20
23.195652
 40
8.434783
 41
1.000000
  1
KHK SS2.5-27J28
  7
KANJI
 50
0.000000
 51
0.000000
  0
TEXT
  8
0
 62
     7
 10
21.086956
 20
10.543478
 40
8.434783
 41
1.000000
  1
The precision grade of gears after secondary operations is equivalent but not identical to its original grade.
  7
KANJI
 50
0.000000
 51
0.000000
  0
TEXT
  8
0
 62
     7
 10
21.086956
 20
379.565216
 40
9.489130
 41
1.000000
  1
For J Series products, without black oxide repeatedly applied on secondary-operated parts.
  7
KANJI
 50
0.000000
 51
0.000000
  0
POLYLINE
  8
0
 62
     7
 66
     1
 70
     2
  0
VERTEX
  8
0
 10
506.086945
 20
379.565216
  0
VERTEX
  8
0
 10
497.863037
 20
393.820007
  0
VERTEX
  8
0
 10
530.758667
 20
393.820007
  0
VERTEX
  8
0
 10
522.534790
 20
379.565216
  0
VERTEX
  8
0
 10
514.310852
 20
393.820007
  0
VERTEX
  8
0
 10
506.086945
 20
379.565216
  0
SEQEND
  0
LINE
  8
0
 62
     5
 10
313.239136
 20
208.108688
 11
313.239136
 21
135.608688
  0
POLYLINE
  8
0
 62
     5
 66
     1
 70
     2
  0
VERTEX
  8
0
 10
315.347809
 20
200.728256
  0
VERTEX
  8
0
 10
313.239136
 20
208.108688
  0
VERTEX
  8
0
 10
311.130432
 20
200.728256
  0
SEQEND
  0
POLYLINE
  8
0
 62
     5
 66
     1
 70
     2
  0
VERTEX
  8
0
 10
311.130432
 20
142.989120
  0
VERTEX
  8
0
 10
313.239136
 20
135.608688
  0
VERTEX
  8
0
 10
315.347809
 20
142.989120
  0
SEQEND
  0
LINE
  8
0
 62
     5
 10
207.804337
 20
208.108688
 11
316.402161
 21
208.108688
  0
LINE
  8
0
 62
     5
 10
207.804337
 20
135.608688
 11
316.402161
 21
135.608688
  0
TEXT
  8
0
 62
     7
 10
311.130432
 20
152.616837
 40
10.543478
 41
1.000000
  1
%%c72.5
  7
KANJI
 50
90.000000
 51
0.000000
  0
LINE
  8
DASHDOT
 62
     7
 10
164.478256
 20
205.608688
 11
202.130417
 21
205.608688
  0
LINE
  8
DASHDOT
 62
     7
 10
164.478256
 20
138.108688
 11
202.130417
 21
138.108688
  0
LINE
  8
DASHDOT
 62
     7
 10
164.478256
 20
171.858688
 11
214.130432
 21
171.858688
  0
LINE
  8
0
 62
     5
 10
195.804337
 20
207.108688
 11
195.804337
 21
208.108688
  0
LINE
  8
0
 62
     5
 10
170.804337
 20
207.108688
 11
170.804337
 21
208.108688
  0
LINE
  8
0
 62
     5
 10
196.804337
 20
201.858688
 11
207.804337
 21
201.858688
  0
LINE
  8
0
 62
     5
 10
196.804337
 20
141.858688
 11
207.804337
 21
141.858688
  0
LINE
  8
0
 62
     5
 10
194.804337
 20
208.108688
 11
207.804337
 21
208.108688
  0
LINE
  8
0
 62
     5
 10
194.804337
 20
135.608688
 11
207.804337
 21
135.608688
  0
LINE
  8
0
 62
     4
 10
170.804337
 20
202.483688
 11
195.804337
 21
202.483688
  0
LINE
  8
0
 62
     4
 10
170.804337
 20
141.233688
 11
195.804337
 21
141.233688
  0
LINE
  8
0
 62
     4
 10
206.804337
 20
157.858688
 11
207.804337
 21
156.858688
  0
LINE
  8
0
 62
     4
 10
206.804337
 20
185.858688
 11
207.804337
 21
186.858688
  0
LINE
  8
0
 62
     4
 10
171.804337
 20
185.858688
 11
171.804337
 21
157.858688
  0
POLYLINE
  8
0
 62
     4
 66
     1
 70
     2
  0
VERTEX
  8
0
 10
170.804337
 20
156.858688
  0
VERTEX
  8
0
 10
171.804337
 20
157.858688
  0
VERTEX
  8
0
 10
206.804337
 20
157.858688
  0
VERTEX
  8
0
 10
206.804337
 20
185.858688
  0
VERTEX
  8
0
 10
171.804337
 20
185.858688
  0
VERTEX
  8
0
 10
170.804337
 20
186.858688
  0
SEQEND
  0
ARC
  8
0
 62
     4
 10
196.804337
 20
202.858688
 40
1.000000
 50
180.0
 51
270.0
  0
ARC
  8
0
 62
     4
 10
196.804337
 20
140.858688
 40
1.000000
 50
90.0
 51
180.0
  0
LINE
  8
0
 62
     5
 10
207.804337
 20
200.858688
 11
207.804337
 21
208.108688
  0
LINE
  8
0
 62
     5
 10
170.804337
 20
265.043457
 11
195.804337
 21
265.043457
  0
POLYLINE
  8
0
 62
     5
 66
     1
 70
     2
  0
VERTEX
  8
0
 10
178.184769
 20
267.152161
  0
VERTEX
  8
0
 10
170.804337
 20
265.043457
  0
VERTEX
  8
0
 10
178.184769
 20
262.934784
  0
SEQEND
  0
POLYLINE
  8
0
 62
     5
 66
     1
 70
     2
  0
VERTEX
  8
0
 10
188.423904
 20
262.934784
  0
VERTEX
  8
0
 10
195.804337
 20
265.043457
  0
VERTEX
  8
0
 10
188.423904
 20
267.152161
  0
SEQEND
  0
LINE
  8
0
 62
     5
 10
195.804337
 20
208.108688
 11
195.804337
 21
268.206512
  0
TEXT
  8
0
 62
     7
 10
176.451080
 20
266.730438
 40
10.543478
 41
1.000000
  1
25
  7
KANJI
 50
0.000000
 51
0.000000
  0
LINE
  8
0
 62
     5
 10
170.804337
 20
281.913025
 11
207.804337
 21
281.913025
  0
POLYLINE
  8
0
 62
     5
 66
     1
 70
     2
  0
VERTEX
  8
0
 10
178.184769
 20
284.021729
  0
VERTEX
  8
0
 10
170.804337
 20
281.913025
  0
VERTEX
  8
0
 10
178.184769
 20
279.804321
  0
SEQEND
  0
POLYLINE
  8
0
 62
     5
 66
     1
 70
     2
  0
VERTEX
  8
0
 10
200.423904
 20
279.804321
  0
VERTEX
  8
0
 10
207.804337
 20
281.913025
  0
VERTEX
  8
0
 10
200.423904
 20
284.021729
  0
SEQEND
  0
LINE
  8
0
 62
     5
 10
170.804337
 20
208.108688
 11
170.804337
 21
285.076080
  0
LINE
  8
0
 62
     5
 10
207.804337
 20
208.108688
 11
207.804337
 21
285.076080
  0
TEXT
  8
0
 62
     7
 10
182.451080
 20
283.599976
 40
10.543478
 41
1.000000
  1
37
  7
KANJI
 50
0.000000
 51
0.000000
  0
LINE
  8
0
 62
     5
 10
220.456512
 20
265.043457
 11
183.152161
 21
265.043457
  0
POLYLINE
  8
0
 62
     5
 66
     1
 70
     2
  0
VERTEX
  8
0
 10
188.423904
 20
262.934784
  0
VERTEX
  8
0
 10
195.804337
 20
265.043457
  0
VERTEX
  8
0
 10
188.423904
 20
267.152161
  0
SEQEND
  0
POLYLINE
  8
0
 62
     5
 66
     1
 70
     2
  0
VERTEX
  8
0
 10
215.184769
 20
267.152161
  0
VERTEX
  8
0
 10
207.804337
 20
265.043457
  0
VERTEX
  8
0
 10
215.184769
 20
262.934784
  0
SEQEND
  0
TEXT
  8
0
 62
     7
 10
214.130432
 20
266.730438
 40
10.543478
 41
1.000000
  1
12
  7
KANJI
 50
0.000000
 51
0.000000
  0
LINE
  8
0
 62
     5
 10
296.369568
 20
201.858688
 11
296.369568
 21
141.858688
  0
POLYLINE
  8
0
 62
     5
 66
     1
 70
     2
  0
VERTEX
  8
0
 10
298.478241
 20
194.478256
  0
VERTEX
  8
0
 10
296.369568
 20
201.858688
  0
VERTEX
  8
0
 10
294.260864
 20
194.478256
  0
SEQEND
  0
POLYLINE
  8
0
 62
     5
 66
     1
 70
     2
  0
VERTEX
  8
0
 10
294.260864
 20
149.239120
  0
VERTEX
  8
0
 10
296.369568
 20
141.858688
  0
VERTEX
  8
0
 10
298.478241
 20
149.239120
  0
SEQEND
  0
LINE
  8
0
 62
     5
 10
207.804337
 20
201.858688
 11
299.532593
 21
201.858688
  0
LINE
  8
0
 62
     5
 10
207.804337
 20
141.858688
 11
299.532593
 21
141.858688
  0
TEXT
  8
0
 62
     7
 10
294.260864
 20
159.470093
 40
10.543478
 41
1.000000
  1
%%c60
  7
KANJI
 50
90.000000
 51
0.000000
  0
LINE
  8
DASHDOT
 62
     7
 10
402.282593
 20
212.402161
 11
402.282593
 21
135.532593
  0
LINE
  8
DASHDOT
 62
     7
 10
365.956512
 20
171.858688
 11
438.608704
 21
171.858688
  0
LINE
  8
0
 62
     5
 10
418.934753
 20
231.380432
 11
385.630432
 21
231.380432
  0
POLYLINE
  8
0
 62
     5
 66
     1
 70
     2
  0
VERTEX
  8
0
 10
390.902161
 20
229.271729
  0
VERTEX
  8
0
 10
398.282593
 20
231.380432
  0
VERTEX
  8
0
 10
390.902161
 20
233.489120
  0
SEQEND
  0
POLYLINE
  8
0
 62
     5
 66
     1
 70
     2
  0
VERTEX
  8
0
 10
413.663025
 20
233.489120
  0
VERTEX
  8
0
 10
406.282593
 20
231.380432
  0
VERTEX
  8
0
 10
413.663025
 20
229.271729
  0
SEQEND
  0
LINE
  8
0
 62
     5
 10
398.282593
 20
189.158691
 11
398.282593
 21
234.543472
  0
LINE
  8
0
 62
     5
 10
406.282593
 20
189.158691
 11
406.282593
 21
234.543472
  0
TEXT
  8
0
 62
     7
 10
380.518768
 20
233.489120
 40
10.543478
 41
1.000000
  1
8
  7
KANJI
 50
0.000000
 51
0.000000
  0
TEXT
  8
0
 62
     7
 10
390.955505
 20
233.489120
 40
8.434783
 41
1.000000
  1
%%p0.018
  7
KANJI
 50
0.000000
 51
0.000000
  0
LINE
  8
0
 62
     5
 10
463.913025
 20
145.206512
 11
463.913025
 21
201.810867
  0
POLYLINE
  8
0
 62
     5
 66
     1
 70
     2
  0
VERTEX
  8
0
 10
461.804321
 20
196.539124
  0
VERTEX
  8
0
 10
463.913025
 20
189.158691
  0
VERTEX
  8
0
 10
466.021729
 20
196.539124
  0
SEQEND
  0
POLYLINE
  8
0
 62
     5
 66
     1
 70
     2
  0
VERTEX
  8
0
 10
466.021729
 20
150.478256
  0
VERTEX
  8
0
 10
463.913025
 20
157.858688
  0
VERTEX
  8
0
 10
461.804321
 20
150.478256
  0
SEQEND
  0
LINE
  8
0
 62
     5
 10
406.282593
 20
189.158691
 11
467.076111
 21
189.158691
  0
LINE
  8
0
 62
     5
 10
402.282593
 20
157.858688
 11
467.076111
 21
157.858688
  0
TEXT
  8
0
 62
     7
 10
460.750000
 20
140.315460
 40
10.543478
 41
1.000000
  1
31.3
  7
KANJI
 50
90.000000
 51
0.000000
  0
TEXT
  8
0
 62
     7
 10
461.382629
 20
185.951797
 40
5.271739
 41
1.000000
  1
 
  7
KANJI
 50
90.000000
 51
0.000000
  0
TEXT
  8
0
 62
     7
 10
454.845642
 20
185.951797
 40
5.271739
 41
1.000000
  1
+
  7
KANJI
 50
90.000000
 51
0.000000
  0
TEXT
  8
0
 62
     7
 10
461.382629
 20
191.856140
 40
5.271739
 41
1.000000
  1
0
  7
KANJI
 50
90.000000
 51
0.000000
  0
TEXT
  8
0
 62
     7
 10
454.845642
 20
191.856140
 40
5.271739
 41
1.000000
  1
0.2
  7
KANJI
 50
90.000000
 51
0.000000
  0
ARC
  8
0
 62
     4
 10
402.282593
 20
171.858688
 40
14.000000
 50
106.60154992625478
 51
73.39845007374521
  0
POLYLINE
  8
0
 62
     4
 66
     1
 70
     2
  0
VERTEX
  8
0
 10
406.282593
 20
185.275101
  0
VERTEX
  8
0
 10
406.282593
 20
189.158691
  0
VERTEX
  8
0
 10
398.282593
 20
189.158691
  0
VERTEX
  8
0
 10
398.282593
 20
185.275101
  0
SEQEND
  0
LINE
  8
0
 62
     4
 10
170.804337
 20
189.158691
 11
207.804337
 21
189.158691
  0
POLYLINE
  8
DASHDOT
 62
     7
 66
     1
 70
     2
  0
VERTEX
  8
DASHDOT
 10
201.804337
 20
208.184784
  0
VERTEX
  8
DASHDOT
 10
201.804337
 20
182.832596
  0
SEQEND
  0
POLYLINE
  8
0
 62
     4
 66
     1
 70
     2
  0
VERTEX
  8
0
 10
204.804337
 20
201.858688
  0
VERTEX
  8
0
 10
204.804337
 20
189.158691
  0
SEQEND
  0
POLYLINE
  8
0
 62
     4
 66
     1
 70
     2
  0
VERTEX
  8
0
 10
198.804337
 20
201.858688
  0
VERTEX
  8
0
 10
198.804337
 20
189.158691
  0
SEQEND
  0
POLYLINE
  8
0
 62
     4
 66
     1
 70
     2
  0
VERTEX
  8
0
 10
204.264343
 20
201.858688
  0
VERTEX
  8
0
 10
204.264343
 20
189.158691
  0
SEQEND
  0
POLYLINE
  8
0
 62
     4
 66
     1
 70
     2
  0
VERTEX
  8
0
 10
199.344330
 20
201.858688
  0
VERTEX
  8
0
 10
199.344330
 20
189.158691
  0
SEQEND
  0
POLYLINE
  8
0
 62
     4
 66
     1
 70
     2
  0
VERTEX
  8
0
 10
399.282593
 20
189.158691
  0
VERTEX
  8
0
 10
399.282593
 20
201.708313
  0
SEQEND
  0
POLYLINE
  8
0
 62
     4
 66
     1
 70
     2
  0
VERTEX
  8
0
 10
405.282593
 20
189.158691
  0
VERTEX
  8
0
 10
405.282593
 20
201.708313
  0
SEQEND
  0
POLYLINE
  8
0
 62
     4
 66
     1
 70
     2
  0
VERTEX
  8
0
 10
399.822571
 20
189.158691
  0
VERTEX
  8
0
 10
399.822571
 20
201.757660
  0
SEQEND
  0
POLYLINE
  8
0
 62
     4
 66
     1
 70
     2
  0
VERTEX
  8
0
 10
404.742615
 20
189.158691
  0
VERTEX
  8
0
 10
404.742615
 20
201.757660
  0
SEQEND
  0
POLYLINE
  8
0
 62
     5
 66
     1
 70
     2
  0
VERTEX
  8
0
 10
402.282593
 20
201.858688
  0
VERTEX
  8
0
 10
364.326080
 20
265.119568
  0
VERTEX
  8
0
 10
387.521729
 20
265.119568
  0
SEQEND
  0
POLYLINE
  8
0
 62
     5
 66
     1
 70
     2
  0
VERTEX
  8
0
 10
396.677185
 20
207.102448
  0
VERTEX
  8
0
 10
402.282593
 20
201.858688
  0
VERTEX
  8
0
 10
400.293579
 20
209.272278
  0
SEQEND
  0
TEXT
  8
0
 62
     7
 10
366.434753
 20
267.228271
 40
10.121740
 41
1.000000
  1
M6
  7
KANJI
 50
0.000000
 51
0.000000
  0
CIRCLE
  8
0
 62
     7
 10
201.804337
 20
171.858688
 40
3.000000
  0
CIRCLE
  8
0
 62
     4
 10
201.804337
 20
171.858688
 40
2.460000
  0
POLYLINE
  8
DASHDOT
 62
     7
 66
     1
 70
     2
  0
VERTEX
  8
DASHDOT
 10
192.478241
 20
171.858688
  0
VERTEX
  8
DASHDOT
 10
211.130432
 20
171.858688
  0
SEQEND
  0
POLYLINE
  8
DASHDOT
 62
     7
 66
     1
 70
     2
  0
VERTEX
  8
DASHDOT
 10
201.804337
 20
162.532608
  0
VERTEX
  8
DASHDOT
 10
201.804337
 20
181.184769
  0
SEQEND
  0
LINE
  8
DASHDOT
 62
     7
 10
201.804337
 20
201.858688
 11
201.804337
 21
171.858688
  0
LINE
  8
0
 62
     5
 10
201.804337
 20
201.858688
 11
201.804337
 21
208.108688
  0
POLYLINE
  8
0
 62
     4
 66
     1
 70
     2
  0
VERTEX
  8
0
 10
415.957397
 20
174.858688
  0
VERTEX
  8
0
 10
432.132202
 20
174.858688
  0
SEQEND
  0
POLYLINE
  8
0
 62
     4
 66
     1
 70
     2
  0
VERTEX
  8
0
 10
415.957397
 20
168.858688
  0
VERTEX
  8
0
 10
432.132202
 20
168.858688
  0
SEQEND
  0
POLYLINE
  8
0
 62
     4
 66
     1
 70
     2
  0
VERTEX
  8
0
 10
416.064758
 20
174.318695
  0
VERTEX
  8
0
 10
432.181580
 20
174.318695
  0
SEQEND
  0
POLYLINE
  8
0
 62
     4
 66
     1
 70
     2
  0
VERTEX
  8
0
 10
416.064758
 20
169.398682
  0
VERTEX
  8
0
 10
432.181580
 20
169.398682
  0
SEQEND
  0
POLYLINE
  8
0
 62
     5
 66
     1
 70
     2
  0
VERTEX
  8
0
 10
432.282593
 20
171.858688
  0
VERTEX
  8
0
 10
463.913025
 20
248.250000
  0
VERTEX
  8
0
 10
433.126099
 20
248.250000
  0
SEQEND
  0
POLYLINE
  8
0
 62
     5
 66
     1
 70
     2
  0
VERTEX
  8
0
 10
433.157776
 20
179.484406
  0
VERTEX
  8
0
 10
432.282593
 20
171.858688
  0
VERTEX
  8
0
 10
437.054382
 20
177.870987
  0
SEQEND
  0
TEXT
  8
0
 62
     7
 10
437.343506
 20
250.358688
 40
10.121740
 41
1.000000
  1
M6
  7
KANJI
 50
0.000000
 51
0.000000
  0
LINE
  8
0
 62
     5
 10
262.630432
 20
185.858688
 11
262.630432
 21
157.858688
  0
POLYLINE
  8
0
 62
     5
 66
     1
 70
     2
  0
VERTEX
  8
0
 10
260.521729
 20
165.239120
  0
VERTEX
  8
0
 10
262.630432
 20
157.858688
  0
VERTEX
  8
0
 10
264.739136
 20
165.239120
  0
SEQEND
  0
LINE
  8
0
 62
     5
 10
207.804337
 20
157.858688
 11
265.793457
 21
157.858688
  0
TEXT
  8
0
 62
     7
 10
260.521729
 20
152.616837
 40
10.543478
 41
1.000000
  1
%%c28H7
  7
KANJI
 50
90.000000
 51
0.000000
  0
POLYLINE
  8
0
 62
     4
 66
     1
 70
     2
  0
VERTEX
  8
0
 10
170.804337
 20
156.858688
  0
VERTEX
  8
0
 10
170.804337
 20
136.608688
  0
VERTEX
  8
0
 10
171.804337
 20
135.608688
  0
VERTEX
  8
0
 10
194.804337
 20
135.608688
  0
VERTEX
  8
0
 10
195.804337
 20
136.608688
  0
VERTEX
  8
0
 10
195.804337
 20
140.858688
  0
SEQEND
  0
POLYLINE
  8
0
 62
     4
 66
     1
 70
     2
  0
VERTEX
  8
0
 10
196.804337
 20
141.858688
  0
VERTEX
  8
0
 10
206.804337
 20
141.858688
  0
VERTEX
  8
0
 10
207.804337
 20
142.858688
  0
VERTEX
  8
0
 10
207.804337
 20
200.858688
  0
VERTEX
  8
0
 10
206.804337
 20
201.858688
  0
VERTEX
  8
0
 10
196.804337
 20
201.858688
  0
SEQEND
  0
POLYLINE
  8
0
 62
     4
 66
     1
 70
     2
  0
VERTEX
  8
0
 10
195.804337
 20
202.858688
  0
VERTEX
  8
0
 10
195.804337
 20
207.108688
  0
VERTEX
  8
0
 10
194.804337
 20
208.108688
  0
VERTEX
  8
0
 10
171.804337
 20
208.108688
  0
VERTEX
  8
0
 10
170.804337
 20
207.108688
  0
VERTEX
  8
0
 10
170.804337
 20
156.858688
  0
SEQEND
  0
CIRCLE
  8
0
 62
     4
 10
402.282593
 20
171.858688
 40
30.000000
  0
LINE
  8
0
 62
     5
 10
220.456512
 20
218.652161
 11
189.152161
 21
218.652161
  0
POLYLINE
  8
0
 62
     5
 66
     1
 70
     2
  0
VERTEX
  8
0
 10
194.423904
 20
216.543472
  0
VERTEX
  8
0
 10
201.804337
 20
218.652161
  0
VERTEX
  8
0
 10
194.423904
 20
220.760864
  0
SEQEND
  0
POLYLINE
  8
0
 62
     5
 66
     1
 70
     2
  0
VERTEX
  8
0
 10
215.184769
 20
220.760864
  0
VERTEX
  8
0
 10
207.804337
 20
218.652161
  0
VERTEX
  8
0
 10
215.184769
 20
216.543472
  0
SEQEND
  0
LINE
  8
0
 62
     5
 10
201.804337
 20
208.108688
 11
201.804337
 21
221.815216
  0
TEXT
  8
0
 62
     7
 10
214.130432
 20
220.339127
 40
10.543478
 41
1.000000
  1
6
  7
KANJI
 50
0.000000
 51
0.000000
  0
LINE
  8
0
 62
     5
 10
201.804337
 20
201.858688
 11
201.804337
 21
208.108688
  0
ENDSEC
  0
EOF
