  0
SECTION
  2
HEADER
  9
$ACADVER
  1
AC1003
  9
$INSBASE
 10
0.000000
 20
0.000000
  9
$EXTMIN
 10
0.000000
 20
0.000000
  9
$EXTMAX
 10
594.652174
 20
411.195652
  9
$LIMMIN
 10
0.000000
 20
0.000000
  9
$LIMMAX
 10
594.652174
 20
411.195652
  9
$VIEWCTR
 10
297.326087
 20
205.597826
  9
$VIEWSIZE
 40
411.195652
  0
ENDSEC
  0
SECTION
  2
TABLES
  0
TABLE
  2
LTYPE
 70
     4
  0
LTYPE
  2
CONTINUOUS
 70
    64
  3
SolidLine
 72
    65
 73
     0
 40
0.0
  0
LTYPE
  2
HIDDEN
 70
    64
  3
------------------------
 72
    65
 73
     2
 40
6.326087
 49
4.217391
 49
-2.108696
  0
LTYPE
  2
DASHDOT
 70
    64
  3
--?--?--?--?--?--?--?--
 72
    65
 73
     4
 40
25.304348
 49
18.978261
 49
-2.108696
 49
2.108696
 49
-2.108696
  0
LTYPE
  2
DIVIDE
 70
    64
  3
--??--??--??--??--??--
 72
    65
 73
     6
 40
31.630435
 49
21.086957
 49
-2.108696
 49
2.108696
 49
-2.108696
 49
2.108696
 49
-2.108696
  0
ENDTAB
  0
TABLE
  2
LAYER
 70
     5
  0
LAYER
  2
0
 70
    64
 62
     7
  6
CONTINUOUS
  0
LAYER
  2
HIDDEN
 70
    64
 62
     2
  6
HIDDEN
  0
LAYER
  2
DASHDOT
 70
    64
 62
     6
  6
DASHDOT
  0
LAYER
  2
DIVIDE
 70
    64
 62
     5
  6
DIVIDE
  0
ENDTAB
  0
TABLE
  2
STYLE
 70
     1
  0
STYLE
  2
STANDARD
 70
    64
 40
0.0
 41
1.0
 50
0.0
 71
     0
 42
0.2
  3
TXT
  4

  0
STYLE
  2
KANJI
 70
    64
 40
0.0
 41
1.0
 50
0.0
 71
     0
 42
0.2
  3
TXT
  4
BIGFONT
  0
ENDTAB
  0
TABLE
  2
VIEW
 70
     0
  0
ENDTAB
  0
ENDSEC
  0
SECTION
  2
BLOCKS
  0
ENDSEC
  0
SECTION
  2
ENTITIES
  0
TEXT
  8
0
 62
     7
 10
21.086956
 20
23.195652
 40
8.434783
 41
1.000000
  1
KHK SS2.5-28
  7
KANJI
 50
0.000000
 51
0.000000
  0
TEXT
  8
0
 62
     7
 10
21.086956
 20
10.543478
 40
8.434783
 41
1.000000
  1

  7
KANJI
 50
0.000000
 51
0.000000
  0
TEXT
  8
0
 62
     7
 10
21.086956
 20
379.565216
 40
9.489130
 41
1.000000
  1
Black oxide
  7
KANJI
 50
0.000000
 51
0.000000
  0
POLYLINE
  8
0
 62
     7
 66
     1
 70
     2
  0
VERTEX
  8
0
 10
506.086945
 20
379.565216
  0
VERTEX
  8
0
 10
497.863037
 20
393.820007
  0
VERTEX
  8
0
 10
530.758667
 20
393.820007
  0
VERTEX
  8
0
 10
522.534790
 20
379.565216
  0
VERTEX
  8
0
 10
514.310852
 20
393.820007
  0
VERTEX
  8
0
 10
506.086945
 20
379.565216
  0
SEQEND
  0
LINE
  8
0
 62
     5
 10
313.239136
 20
209.358688
 11
313.239136
 21
134.358688
  0
POLYLINE
  8
0
 62
     5
 66
     1
 70
     2
  0
VERTEX
  8
0
 10
315.347809
 20
201.978256
  0
VERTEX
  8
0
 10
313.239136
 20
209.358688
  0
VERTEX
  8
0
 10
311.130432
 20
201.978256
  0
SEQEND
  0
POLYLINE
  8
0
 62
     5
 66
     1
 70
     2
  0
VERTEX
  8
0
 10
311.130432
 20
141.739120
  0
VERTEX
  8
0
 10
313.239136
 20
134.358688
  0
VERTEX
  8
0
 10
315.347809
 20
141.739120
  0
SEQEND
  0
LINE
  8
0
 62
     5
 10
207.804337
 20
209.358688
 11
316.402161
 21
209.358688
  0
LINE
  8
0
 62
     5
 10
207.804337
 20
134.358688
 11
316.402161
 21
134.358688
  0
TEXT
  8
0
 62
     7
 10
311.130432
 20
159.470093
 40
10.543478
 41
1.000000
  1
%%c75
  7
KANJI
 50
90.000000
 51
0.000000
  0
LINE
  8
DASHDOT
 62
     7
 10
164.478256
 20
206.858688
 11
202.130417
 21
206.858688
  0
LINE
  8
DASHDOT
 62
     7
 10
164.478256
 20
136.858688
 11
202.130417
 21
136.858688
  0
LINE
  8
DASHDOT
 62
     7
 10
164.478256
 20
171.858688
 11
214.130432
 21
171.858688
  0
LINE
  8
0
 62
     5
 10
195.804337
 20
208.358688
 11
195.804337
 21
209.358688
  0
LINE
  8
0
 62
     5
 10
170.804337
 20
208.358688
 11
170.804337
 21
209.358688
  0
LINE
  8
0
 62
     5
 10
196.804337
 20
201.858688
 11
207.804337
 21
201.858688
  0
LINE
  8
0
 62
     5
 10
196.804337
 20
141.858688
 11
207.804337
 21
141.858688
  0
LINE
  8
0
 62
     5
 10
194.804337
 20
209.358688
 11
207.804337
 21
209.358688
  0
LINE
  8
0
 62
     5
 10
194.804337
 20
134.358688
 11
207.804337
 21
134.358688
  0
LINE
  8
0
 62
     4
 10
170.804337
 20
203.733688
 11
195.804337
 21
203.733688
  0
LINE
  8
0
 62
     4
 10
170.804337
 20
139.983688
 11
195.804337
 21
139.983688
  0
LINE
  8
0
 62
     4
 10
207.304337
 20
164.358688
 11
207.804337
 21
163.858688
  0
LINE
  8
0
 62
     4
 10
207.304337
 20
179.358688
 11
207.804337
 21
179.858688
  0
LINE
  8
0
 62
     4
 10
171.304337
 20
179.358688
 11
171.304337
 21
164.358688
  0
POLYLINE
  8
0
 62
     4
 66
     1
 70
     2
  0
VERTEX
  8
0
 10
170.804337
 20
163.858688
  0
VERTEX
  8
0
 10
171.304337
 20
164.358688
  0
VERTEX
  8
0
 10
207.304337
 20
164.358688
  0
VERTEX
  8
0
 10
207.304337
 20
179.358688
  0
VERTEX
  8
0
 10
171.304337
 20
179.358688
  0
VERTEX
  8
0
 10
170.804337
 20
179.858688
  0
SEQEND
  0
ARC
  8
0
 62
     4
 10
196.804337
 20
202.858688
 40
1.000000
 50
180.0
 51
270.0
  0
ARC
  8
0
 62
     4
 10
196.804337
 20
140.858688
 40
1.000000
 50
90.0
 51
180.0
  0
LINE
  8
0
 62
     5
 10
207.804337
 20
200.858688
 11
207.804337
 21
209.358688
  0
LINE
  8
0
 62
     5
 10
170.804337
 20
266.293457
 11
195.804337
 21
266.293457
  0
POLYLINE
  8
0
 62
     5
 66
     1
 70
     2
  0
VERTEX
  8
0
 10
178.184769
 20
268.402161
  0
VERTEX
  8
0
 10
170.804337
 20
266.293457
  0
VERTEX
  8
0
 10
178.184769
 20
264.184784
  0
SEQEND
  0
POLYLINE
  8
0
 62
     5
 66
     1
 70
     2
  0
VERTEX
  8
0
 10
188.423904
 20
264.184784
  0
VERTEX
  8
0
 10
195.804337
 20
266.293457
  0
VERTEX
  8
0
 10
188.423904
 20
268.402161
  0
SEQEND
  0
LINE
  8
0
 62
     5
 10
195.804337
 20
209.358688
 11
195.804337
 21
269.456512
  0
TEXT
  8
0
 62
     7
 10
176.451080
 20
267.980438
 40
10.543478
 41
1.000000
  1
25
  7
KANJI
 50
0.000000
 51
0.000000
  0
LINE
  8
0
 62
     5
 10
170.804337
 20
283.163025
 11
207.804337
 21
283.163025
  0
POLYLINE
  8
0
 62
     5
 66
     1
 70
     2
  0
VERTEX
  8
0
 10
178.184769
 20
285.271729
  0
VERTEX
  8
0
 10
170.804337
 20
283.163025
  0
VERTEX
  8
0
 10
178.184769
 20
281.054321
  0
SEQEND
  0
POLYLINE
  8
0
 62
     5
 66
     1
 70
     2
  0
VERTEX
  8
0
 10
200.423904
 20
281.054321
  0
VERTEX
  8
0
 10
207.804337
 20
283.163025
  0
VERTEX
  8
0
 10
200.423904
 20
285.271729
  0
SEQEND
  0
LINE
  8
0
 62
     5
 10
170.804337
 20
209.358688
 11
170.804337
 21
286.326080
  0
LINE
  8
0
 62
     5
 10
207.804337
 20
209.358688
 11
207.804337
 21
286.326080
  0
TEXT
  8
0
 62
     7
 10
182.451080
 20
284.849976
 40
10.543478
 41
1.000000
  1
37
  7
KANJI
 50
0.000000
 51
0.000000
  0
LINE
  8
0
 62
     5
 10
220.456512
 20
266.293457
 11
183.152161
 21
266.293457
  0
POLYLINE
  8
0
 62
     5
 66
     1
 70
     2
  0
VERTEX
  8
0
 10
188.423904
 20
264.184784
  0
VERTEX
  8
0
 10
195.804337
 20
266.293457
  0
VERTEX
  8
0
 10
188.423904
 20
268.402161
  0
SEQEND
  0
POLYLINE
  8
0
 62
     5
 66
     1
 70
     2
  0
VERTEX
  8
0
 10
215.184769
 20
268.402161
  0
VERTEX
  8
0
 10
207.804337
 20
266.293457
  0
VERTEX
  8
0
 10
215.184769
 20
264.184784
  0
SEQEND
  0
TEXT
  8
0
 62
     7
 10
214.130432
 20
267.980438
 40
10.543478
 41
1.000000
  1
12
  7
KANJI
 50
0.000000
 51
0.000000
  0
LINE
  8
0
 62
     5
 10
296.369568
 20
201.858688
 11
296.369568
 21
141.858688
  0
POLYLINE
  8
0
 62
     5
 66
     1
 70
     2
  0
VERTEX
  8
0
 10
298.478241
 20
194.478256
  0
VERTEX
  8
0
 10
296.369568
 20
201.858688
  0
VERTEX
  8
0
 10
294.260864
 20
194.478256
  0
SEQEND
  0
POLYLINE
  8
0
 62
     5
 66
     1
 70
     2
  0
VERTEX
  8
0
 10
294.260864
 20
149.239120
  0
VERTEX
  8
0
 10
296.369568
 20
141.858688
  0
VERTEX
  8
0
 10
298.478241
 20
149.239120
  0
SEQEND
  0
LINE
  8
0
 62
     5
 10
207.804337
 20
201.858688
 11
299.532593
 21
201.858688
  0
LINE
  8
0
 62
     5
 10
207.804337
 20
141.858688
 11
299.532593
 21
141.858688
  0
TEXT
  8
0
 62
     7
 10
294.260864
 20
159.470093
 40
10.543478
 41
1.000000
  1
%%c60
  7
KANJI
 50
90.000000
 51
0.000000
  0
LINE
  8
0
 62
     5
 10
262.630432
 20
151.706512
 11
262.630432
 21
192.010864
  0
POLYLINE
  8
0
 62
     5
 66
     1
 70
     2
  0
VERTEX
  8
0
 10
260.521729
 20
186.739120
  0
VERTEX
  8
0
 10
262.630432
 20
179.358688
  0
VERTEX
  8
0
 10
264.739136
 20
186.739120
  0
SEQEND
  0
POLYLINE
  8
0
 62
     5
 66
     1
 70
     2
  0
VERTEX
  8
0
 10
264.739136
 20
156.978256
  0
VERTEX
  8
0
 10
262.630432
 20
164.358688
  0
VERTEX
  8
0
 10
260.521729
 20
156.978256
  0
SEQEND
  0
LINE
  8
0
 62
     5
 10
207.804337
 20
179.358688
 11
265.793457
 21
179.358688
  0
LINE
  8
0
 62
     5
 10
207.804337
 20
164.358688
 11
265.793457
 21
164.358688
  0
TEXT
  8
0
 62
     7
 10
260.521729
 20
152.616837
 40
10.543478
 41
1.000000
  1
%%c15H7
  7
KANJI
 50
90.000000
 51
0.000000
  0
POLYLINE
  8
0
 62
     4
 66
     1
 70
     2
  0
VERTEX
  8
0
 10
170.804337
 20
163.858688
  0
VERTEX
  8
0
 10
170.804337
 20
135.358688
  0
VERTEX
  8
0
 10
171.804337
 20
134.358688
  0
VERTEX
  8
0
 10
194.804337
 20
134.358688
  0
VERTEX
  8
0
 10
195.804337
 20
135.358688
  0
VERTEX
  8
0
 10
195.804337
 20
140.858688
  0
SEQEND
  0
POLYLINE
  8
0
 62
     4
 66
     1
 70
     2
  0
VERTEX
  8
0
 10
196.804337
 20
141.858688
  0
VERTEX
  8
0
 10
206.804337
 20
141.858688
  0
VERTEX
  8
0
 10
207.804337
 20
142.858688
  0
VERTEX
  8
0
 10
207.804337
 20
200.858688
  0
VERTEX
  8
0
 10
206.804337
 20
201.858688
  0
VERTEX
  8
0
 10
196.804337
 20
201.858688
  0
SEQEND
  0
POLYLINE
  8
0
 62
     4
 66
     1
 70
     2
  0
VERTEX
  8
0
 10
195.804337
 20
202.858688
  0
VERTEX
  8
0
 10
195.804337
 20
208.358688
  0
VERTEX
  8
0
 10
194.804337
 20
209.358688
  0
VERTEX
  8
0
 10
171.804337
 20
209.358688
  0
VERTEX
  8
0
 10
170.804337
 20
208.358688
  0
VERTEX
  8
0
 10
170.804337
 20
163.858688
  0
SEQEND
  0
ENDSEC
  0
EOF
