  0
SECTION
  2
HEADER
  9
$ACADVER
  1
AC1003
  9
$INSBASE
 10
0.000000
 20
0.000000
  9
$EXTMIN
 10
0.000000
 20
0.000000
  9
$EXTMAX
 10
1105.135135
 20
764.189189
  9
$LIMMIN
 10
0.000000
 20
0.000000
  9
$LIMMAX
 10
1105.135135
 20
764.189189
  9
$VIEWCTR
 10
552.567568
 20
382.094595
  9
$VIEWSIZE
 40
764.189189
  0
ENDSEC
  0
SECTION
  2
TABLES
  0
TABLE
  2
LTYPE
 70
     4
  0
LTYPE
  2
CONTINUOUS
 70
    64
  3
SolidLine
 72
    65
 73
     0
 40
0.0
  0
LTYPE
  2
HIDDEN
 70
    64
  3
------------------------
 72
    65
 73
     2
 40
11.756757
 49
7.837838
 49
-3.918919
  0
LTYPE
  2
DASHDOT
 70
    64
  3
--?--?--?--?--?--?--?--
 72
    65
 73
     4
 40
47.027027
 49
35.270270
 49
-3.918919
 49
3.918919
 49
-3.918919
  0
LTYPE
  2
DIVIDE
 70
    64
  3
--??--??--??--??--??--
 72
    65
 73
     6
 40
58.783784
 49
39.189189
 49
-3.918919
 49
3.918919
 49
-3.918919
 49
3.918919
 49
-3.918919
  0
ENDTAB
  0
TABLE
  2
LAYER
 70
     5
  0
LAYER
  2
0
 70
    64
 62
     7
  6
CONTINUOUS
  0
LAYER
  2
HIDDEN
 70
    64
 62
     2
  6
HIDDEN
  0
LAYER
  2
DASHDOT
 70
    64
 62
     6
  6
DASHDOT
  0
LAYER
  2
DIVIDE
 70
    64
 62
     5
  6
DIVIDE
  0
ENDTAB
  0
TABLE
  2
STYLE
 70
     1
  0
STYLE
  2
STANDARD
 70
    64
 40
0.0
 41
1.0
 50
0.0
 71
     0
 42
0.2
  3
TXT
  4

  0
STYLE
  2
KANJI
 70
    64
 40
0.0
 41
1.0
 50
0.0
 71
     0
 42
0.2
  3
TXT
  4
BIGFONT
  0
ENDTAB
  0
TABLE
  2
VIEW
 70
     0
  0
ENDTAB
  0
ENDSEC
  0
SECTION
  2
BLOCKS
  0
ENDSEC
  0
SECTION
  2
ENTITIES
  0
TEXT
  8
0
 62
     7
 10
39.189190
 20
43.108109
 40
15.675676
 41
1.000000
  1
KHK SS3-100J35
  7
KANJI
 50
0.000000
 51
0.000000
  0
TEXT
  8
0
 62
     7
 10
39.189190
 20
19.594595
 40
15.675676
 41
1.000000
  1
The precision grade of gears after secondary operations is equivalent but not identical to its original grade.
  7
KANJI
 50
0.000000
 51
0.000000
  0
TEXT
  8
0
 62
     7
 10
39.189190
 20
705.405396
 40
17.635135
 41
1.000000
  1
For J Series products, without black oxide repeatedly applied on secondary-operated parts.
  7
KANJI
 50
0.000000
 51
0.000000
  0
POLYLINE
  8
0
 62
     7
 66
     1
 70
     2
  0
VERTEX
  8
0
 10
940.540527
 20
705.405396
  0
VERTEX
  8
0
 10
925.256714
 20
731.897278
  0
VERTEX
  8
0
 10
986.391907
 20
731.897278
  0
VERTEX
  8
0
 10
971.108093
 20
705.405396
  0
VERTEX
  8
0
 10
955.824341
 20
731.897278
  0
VERTEX
  8
0
 10
940.540527
 20
705.405396
  0
SEQEND
  0
LINE
  8
0
 62
     5
 10
546.621582
 20
434.797302
 11
546.621582
 21
164.797302
  0
POLYLINE
  8
0
 62
     5
 66
     1
 70
     2
  0
VERTEX
  8
0
 10
550.540527
 20
421.081085
  0
VERTEX
  8
0
 10
546.621582
 20
434.797302
  0
VERTEX
  8
0
 10
542.702698
 20
421.081085
  0
SEQEND
  0
POLYLINE
  8
0
 62
     5
 66
     1
 70
     2
  0
VERTEX
  8
0
 10
542.702698
 20
178.513519
  0
VERTEX
  8
0
 10
546.621582
 20
164.797302
  0
VERTEX
  8
0
 10
550.540527
 20
178.513519
  0
SEQEND
  0
LINE
  8
0
 62
     5
 10
342.837830
 20
434.797302
 11
552.500000
 21
434.797302
  0
LINE
  8
0
 62
     5
 10
342.837830
 20
164.797302
 11
552.500000
 21
164.797302
  0
TEXT
  8
0
 62
     7
 10
542.702698
 20
270.405396
 40
19.594595
 41
1.000000
  1
%%c270
  7
KANJI
 50
90.000000
 51
0.000000
  0
LINE
  8
0
 62
     5
 10
577.972961
 20
452.797302
 11
577.972961
 21
146.797302
  0
POLYLINE
  8
0
 62
     5
 66
     1
 70
     2
  0
VERTEX
  8
0
 10
581.891846
 20
439.081085
  0
VERTEX
  8
0
 10
577.972961
 20
452.797302
  0
VERTEX
  8
0
 10
574.054077
 20
439.081085
  0
SEQEND
  0
POLYLINE
  8
0
 62
     5
 66
     1
 70
     2
  0
VERTEX
  8
0
 10
574.054077
 20
160.513519
  0
VERTEX
  8
0
 10
577.972961
 20
146.797302
  0
VERTEX
  8
0
 10
581.891846
 20
160.513519
  0
SEQEND
  0
LINE
  8
0
 62
     5
 10
342.837830
 20
452.797302
 11
583.851318
 21
452.797302
  0
LINE
  8
0
 62
     5
 10
342.837830
 20
146.797302
 11
583.851318
 21
146.797302
  0
TEXT
  8
0
 62
     7
 10
574.054077
 20
270.405396
 40
19.594595
 41
1.000000
  1
%%c306
  7
KANJI
 50
90.000000
 51
0.000000
  0
LINE
  8
0
 62
     5
 10
344.351349
 20
355.716217
 11
281.324310
 21
355.716217
  0
POLYLINE
  8
0
 62
     5
 66
     1
 70
     2
  0
VERTEX
  8
0
 10
304.837830
 20
355.716217
  0
VERTEX
  8
0
 10
303.662140
 20
356.891907
  0
VERTEX
  8
0
 10
306.013519
 20
356.891907
  0
VERTEX
  8
0
 10
306.013519
 20
354.540558
  0
VERTEX
  8
0
 10
303.662140
 20
354.540558
  0
VERTEX
  8
0
 10
303.662140
 20
356.891907
  0
VERTEX
  8
0
 10
304.837830
 20
355.716217
  0
VERTEX
  8
0
 10
306.013519
 20
354.540558
  0
VERTEX
  8
0
 10
306.013519
 20
356.891907
  0
VERTEX
  8
0
 10
304.837830
 20
355.716217
  0
SEQEND
  0
POLYLINE
  8
0
 62
     5
 66
     1
 70
     2
  0
VERTEX
  8
0
 10
320.837830
 20
355.716217
  0
VERTEX
  8
0
 10
319.662140
 20
356.891907
  0
VERTEX
  8
0
 10
322.013519
 20
356.891907
  0
VERTEX
  8
0
 10
322.013519
 20
354.540558
  0
VERTEX
  8
0
 10
319.662140
 20
354.540558
  0
VERTEX
  8
0
 10
319.662140
 20
356.891907
  0
VERTEX
  8
0
 10
320.837830
 20
355.716217
  0
VERTEX
  8
0
 10
322.013519
 20
354.540558
  0
VERTEX
  8
0
 10
322.013519
 20
356.891907
  0
VERTEX
  8
0
 10
320.837830
 20
355.716217
  0
SEQEND
  0
TEXT
  8
0
 62
     7
 10
300.101349
 20
358.851349
 40
19.594595
 41
1.000000
  1
16
  7
KANJI
 50
0.000000
 51
0.000000
  0
LINE
  8
0
 62
     5
 10
351.351349
 20
355.716217
 11
297.324310
 21
355.716217
  0
POLYLINE
  8
0
 62
     5
 66
     1
 70
     2
  0
VERTEX
  8
0
 10
307.121613
 20
351.797302
  0
VERTEX
  8
0
 10
320.837830
 20
355.716217
  0
VERTEX
  8
0
 10
307.121613
 20
359.635132
  0
SEQEND
  0
POLYLINE
  8
0
 62
     5
 66
     1
 70
     2
  0
VERTEX
  8
0
 10
341.554047
 20
359.635132
  0
VERTEX
  8
0
 10
327.837830
 20
355.716217
  0
VERTEX
  8
0
 10
341.554047
 20
351.797302
  0
SEQEND
  0
TEXT
  8
0
 62
     7
 10
339.594604
 20
358.851349
 40
19.594595
 41
1.000000
  1
7
  7
KANJI
 50
0.000000
 51
0.000000
  0
LINE
  8
0
 62
     5
 10
328.351349
 20
355.716217
 11
274.324310
 21
355.716217
  0
POLYLINE
  8
0
 62
     5
 66
     1
 70
     2
  0
VERTEX
  8
0
 10
284.121613
 20
351.797302
  0
VERTEX
  8
0
 10
297.837830
 20
355.716217
  0
VERTEX
  8
0
 10
284.121613
 20
359.635132
  0
SEQEND
  0
POLYLINE
  8
0
 62
     5
 66
     1
 70
     2
  0
VERTEX
  8
0
 10
318.554047
 20
359.635132
  0
VERTEX
  8
0
 10
304.837830
 20
355.716217
  0
VERTEX
  8
0
 10
318.554047
 20
351.797302
  0
SEQEND
  0
TEXT
  8
0
 62
     7
 10
273.344574
 20
358.851349
 40
19.594595
 41
1.000000
  1
7
  7
KANJI
 50
0.000000
 51
0.000000
  0
ARC
  8
0
 62
     4
 10
302.837830
 20
351.797302
 40
2.000000
 50
270.0
 51
0.0
  0
ARC
  8
0
 62
     4
 10
302.837830
 20
247.797302
 40
2.000000
 50
0.0
 51
90.0
  0
LINE
  8
DASHDOT
 62
     7
 10
286.081085
 20
449.797302
 11
339.594574
 21
449.797302
  0
LINE
  8
DASHDOT
 62
     7
 10
286.081085
 20
149.797302
 11
339.594574
 21
149.797302
  0
LINE
  8
DASHDOT
 62
     7
 10
286.081085
 20
299.797302
 11
354.594574
 21
299.797302
  0
LINE
  8
0
 62
     5
 10
327.837830
 20
451.797302
 11
327.837830
 21
452.797302
  0
LINE
  8
0
 62
     5
 10
297.837830
 20
451.797302
 11
297.837830
 21
452.797302
  0
LINE
  8
0
 62
     5
 10
326.837830
 20
452.797302
 11
342.837830
 21
452.797302
  0
LINE
  8
0
 62
     5
 10
326.837830
 20
146.797302
 11
342.837830
 21
146.797302
  0
LINE
  8
0
 62
     4
 10
297.837830
 20
446.047302
 11
327.837830
 21
446.047302
  0
LINE
  8
0
 62
     4
 10
297.837830
 20
153.547302
 11
327.837830
 21
153.547302
  0
LINE
  8
0
 62
     4
 10
342.837830
 20
318.297302
 11
341.837830
 21
317.297302
  0
LINE
  8
0
 62
     4
 10
342.837830
 20
281.297302
 11
341.837830
 21
282.297302
  0
LINE
  8
0
 62
     4
 10
297.837830
 20
281.297302
 11
298.837830
 21
282.297302
  0
LINE
  8
0
 62
     4
 10
297.837830
 20
349.797302
 11
302.837830
 21
349.797302
  0
LINE
  8
0
 62
     4
 10
297.837830
 20
249.797302
 11
302.837830
 21
249.797302
  0
POLYLINE
  8
0
 62
     4
 66
     1
 70
     2
  0
VERTEX
  8
0
 10
320.837830
 20
351.797302
  0
VERTEX
  8
0
 10
320.837830
 20
421.059021
  0
VERTEX
  8
0
 10
327.837830
 20
434.797302
  0
SEQEND
  0
POLYLINE
  8
0
 62
     4
 66
     1
 70
     2
  0
VERTEX
  8
0
 10
304.837830
 20
351.797302
  0
VERTEX
  8
0
 10
304.837830
 20
421.059021
  0
VERTEX
  8
0
 10
297.837830
 20
434.797302
  0
SEQEND
  0
POLYLINE
  8
0
 62
     4
 66
     1
 70
     2
  0
VERTEX
  8
0
 10
320.837830
 20
247.797302
  0
VERTEX
  8
0
 10
320.837830
 20
178.535583
  0
VERTEX
  8
0
 10
327.837830
 20
164.797302
  0
SEQEND
  0
POLYLINE
  8
0
 62
     4
 66
     1
 70
     2
  0
VERTEX
  8
0
 10
304.837830
 20
247.797302
  0
VERTEX
  8
0
 10
304.837830
 20
178.535583
  0
VERTEX
  8
0
 10
297.837830
 20
164.797302
  0
SEQEND
  0
POLYLINE
  8
0
 62
     4
 66
     1
 70
     2
  0
VERTEX
  8
0
 10
297.837830
 20
318.297302
  0
VERTEX
  8
0
 10
298.837830
 20
317.297302
  0
VERTEX
  8
0
 10
298.837830
 20
282.297302
  0
VERTEX
  8
0
 10
341.837830
 20
282.297302
  0
VERTEX
  8
0
 10
341.837830
 20
317.297302
  0
VERTEX
  8
0
 10
298.837830
 20
317.297302
  0
SEQEND
  0
LINE
  8
0
 62
     5
 10
327.837830
 20
164.797302
 11
342.837830
 21
164.797302
  0
LINE
  8
0
 62
     5
 10
327.837830
 20
434.797302
 11
342.837830
 21
434.797302
  0
LINE
  8
0
 62
     5
 10
342.837830
 20
348.797302
 11
342.837830
 21
452.797302
  0
LINE
  8
0
 62
     5
 10
297.837830
 20
570.364868
 11
342.837830
 21
570.364868
  0
POLYLINE
  8
0
 62
     5
 66
     1
 70
     2
  0
VERTEX
  8
0
 10
311.554047
 20
574.283813
  0
VERTEX
  8
0
 10
297.837830
 20
570.364868
  0
VERTEX
  8
0
 10
311.554047
 20
566.445923
  0
SEQEND
  0
POLYLINE
  8
0
 62
     5
 66
     1
 70
     2
  0
VERTEX
  8
0
 10
329.121613
 20
566.445923
  0
VERTEX
  8
0
 10
342.837830
 20
570.364868
  0
VERTEX
  8
0
 10
329.121613
 20
574.283813
  0
SEQEND
  0
LINE
  8
0
 62
     5
 10
297.837830
 20
452.797302
 11
297.837830
 21
576.243286
  0
LINE
  8
0
 62
     5
 10
342.837830
 20
452.797302
 11
342.837830
 21
576.243286
  0
TEXT
  8
0
 62
     7
 10
307.601349
 20
573.500000
 40
19.594595
 41
1.000000
  1
45
  7
KANJI
 50
0.000000
 51
0.000000
  0
LINE
  8
0
 62
     5
 10
351.351349
 20
539.013550
 11
274.324310
 21
539.013550
  0
POLYLINE
  8
0
 62
     5
 66
     1
 70
     2
  0
VERTEX
  8
0
 10
284.121613
 20
535.094604
  0
VERTEX
  8
0
 10
297.837830
 20
539.013550
  0
VERTEX
  8
0
 10
284.121613
 20
542.932434
  0
SEQEND
  0
POLYLINE
  8
0
 62
     5
 66
     1
 70
     2
  0
VERTEX
  8
0
 10
341.554047
 20
542.932434
  0
VERTEX
  8
0
 10
327.837830
 20
539.013550
  0
VERTEX
  8
0
 10
341.554047
 20
535.094604
  0
SEQEND
  0
LINE
  8
0
 62
     5
 10
327.837830
 20
452.797302
 11
327.837830
 21
544.891907
  0
TEXT
  8
0
 62
     7
 10
300.101349
 20
542.148682
 40
19.594595
 41
1.000000
  1
30
  7
KANJI
 50
0.000000
 51
0.000000
  0
LINE
  8
0
 62
     5
 10
366.351349
 20
539.013550
 11
304.324310
 21
539.013550
  0
POLYLINE
  8
0
 62
     5
 66
     1
 70
     2
  0
VERTEX
  8
0
 10
314.121613
 20
535.094604
  0
VERTEX
  8
0
 10
327.837830
 20
539.013550
  0
VERTEX
  8
0
 10
314.121613
 20
542.932434
  0
SEQEND
  0
POLYLINE
  8
0
 62
     5
 66
     1
 70
     2
  0
VERTEX
  8
0
 10
356.554047
 20
542.932434
  0
VERTEX
  8
0
 10
342.837830
 20
539.013550
  0
VERTEX
  8
0
 10
356.554047
 20
535.094604
  0
SEQEND
  0
TEXT
  8
0
 62
     7
 10
322.601349
 20
542.148682
 40
19.594595
 41
1.000000
  1
15
  7
KANJI
 50
0.000000
 51
0.000000
  0
LINE
  8
DASHDOT
 62
     7
 10
765.135132
 20
369.391907
 11
765.135132
 21
238.040543
  0
LINE
  8
DASHDOT
 62
     7
 10
703.378357
 20
299.797302
 11
826.891907
 21
299.797302
  0
LINE
  8
0
 62
     5
 10
793.648682
 20
404.662170
 11
736.621582
 21
404.662170
  0
POLYLINE
  8
0
 62
     5
 66
     1
 70
     2
  0
VERTEX
  8
0
 10
746.418945
 20
400.743256
  0
VERTEX
  8
0
 10
760.135132
 20
404.662170
  0
VERTEX
  8
0
 10
746.418945
 20
408.581085
  0
SEQEND
  0
POLYLINE
  8
0
 62
     5
 66
     1
 70
     2
  0
VERTEX
  8
0
 10
783.851318
 20
408.581085
  0
VERTEX
  8
0
 10
770.135132
 20
404.662170
  0
VERTEX
  8
0
 10
783.851318
 20
400.743256
  0
SEQEND
  0
LINE
  8
0
 62
     5
 10
760.135132
 20
320.597290
 11
760.135132
 21
410.540527
  0
LINE
  8
0
 62
     5
 10
770.135132
 20
320.597290
 11
770.135132
 21
410.540527
  0
TEXT
  8
0
 62
     7
 10
714.890747
 20
408.581085
 40
19.594595
 41
1.000000
  1
10
  7
KANJI
 50
0.000000
 51
0.000000
  0
TEXT
  8
0
 62
     7
 10
748.003174
 20
408.581085
 40
15.675676
 41
1.000000
  1
%%p0.018
  7
KANJI
 50
0.000000
 51
0.000000
  0
LINE
  8
0
 62
     5
 10
893.513489
 20
258.783783
 11
893.513489
 21
344.110809
  0
POLYLINE
  8
0
 62
     5
 66
     1
 70
     2
  0
VERTEX
  8
0
 10
889.594543
 20
334.313507
  0
VERTEX
  8
0
 10
893.513489
 20
320.597290
  0
VERTEX
  8
0
 10
897.432434
 20
334.313507
  0
SEQEND
  0
POLYLINE
  8
0
 62
     5
 66
     1
 70
     2
  0
VERTEX
  8
0
 10
897.432434
 20
268.581085
  0
VERTEX
  8
0
 10
893.513489
 20
282.297302
  0
VERTEX
  8
0
 10
889.594543
 20
268.581085
  0
SEQEND
  0
LINE
  8
0
 62
     5
 10
770.135132
 20
320.597290
 11
899.391846
 21
320.597290
  0
LINE
  8
0
 62
     5
 10
765.135132
 20
282.297302
 11
899.391846
 21
282.297302
  0
TEXT
  8
0
 62
     7
 10
887.635132
 20
241.746094
 40
19.594595
 41
1.000000
  1
38.3
  7
KANJI
 50
90.000000
 51
0.000000
  0
TEXT
  8
0
 62
     7
 10
888.810791
 20
326.559265
 40
9.797297
 41
1.000000
  1
 
  7
KANJI
 50
90.000000
 51
0.000000
  0
TEXT
  8
0
 62
     7
 10
876.662109
 20
326.559265
 40
9.797297
 41
1.000000
  1
+
  7
KANJI
 50
90.000000
 51
0.000000
  0
TEXT
  8
0
 62
     7
 10
888.810791
 20
337.532227
 40
9.797297
 41
1.000000
  1
0
  7
KANJI
 50
90.000000
 51
0.000000
  0
TEXT
  8
0
 62
     7
 10
876.662109
 20
337.532227
 40
9.797297
 41
1.000000
  1
0.2
  7
KANJI
 50
90.000000
 51
0.000000
  0
ARC
  8
0
 62
     4
 10
765.135132
 20
299.797302
 40
17.500000
 50
106.60154992625478
 51
73.39845007374521
  0
POLYLINE
  8
0
 62
     4
 66
     1
 70
     2
  0
VERTEX
  8
0
 10
770.135132
 20
316.567810
  0
VERTEX
  8
0
 10
770.135132
 20
320.597290
  0
VERTEX
  8
0
 10
760.135132
 20
320.597290
  0
VERTEX
  8
0
 10
760.135132
 20
316.567810
  0
SEQEND
  0
LINE
  8
0
 62
     4
 10
297.837830
 20
320.597290
 11
342.837830
 21
320.597290
  0
POLYLINE
  8
DASHDOT
 62
     7
 66
     1
 70
     2
  0
VERTEX
  8
DASHDOT
 10
335.337830
 20
361.554047
  0
VERTEX
  8
DASHDOT
 10
335.337830
 20
308.840546
  0
SEQEND
  0
POLYLINE
  8
0
 62
     4
 66
     1
 70
     2
  0
VERTEX
  8
0
 10
339.337830
 20
349.797302
  0
VERTEX
  8
0
 10
339.337830
 20
320.597290
  0
SEQEND
  0
POLYLINE
  8
0
 62
     4
 66
     1
 70
     2
  0
VERTEX
  8
0
 10
331.337830
 20
349.797302
  0
VERTEX
  8
0
 10
331.337830
 20
320.597290
  0
SEQEND
  0
POLYLINE
  8
0
 62
     4
 66
     1
 70
     2
  0
VERTEX
  8
0
 10
338.662842
 20
349.797302
  0
VERTEX
  8
0
 10
338.662842
 20
320.597290
  0
SEQEND
  0
POLYLINE
  8
0
 62
     4
 66
     1
 70
     2
  0
VERTEX
  8
0
 10
332.012817
 20
349.797302
  0
VERTEX
  8
0
 10
332.012817
 20
320.597290
  0
SEQEND
  0
POLYLINE
  8
0
 62
     5
 66
     1
 70
     2
  0
VERTEX
  8
0
 10
765.135132
 20
349.797302
  0
VERTEX
  8
0
 10
694.594604
 20
467.364868
  0
VERTEX
  8
0
 10
737.702698
 20
467.364868
  0
SEQEND
  0
POLYLINE
  8
0
 62
     5
 66
     1
 70
     2
  0
VERTEX
  8
0
 10
754.717773
 20
359.542603
  0
VERTEX
  8
0
 10
765.135132
 20
349.797302
  0
VERTEX
  8
0
 10
761.438599
 20
363.575134
  0
SEQEND
  0
TEXT
  8
0
 62
     7
 10
698.513550
 20
471.283783
 40
18.810812
 41
1.000000
  1
M8
  7
KANJI
 50
0.000000
 51
0.000000
  0
POLYLINE
  8
0
 62
     4
 66
     1
 70
     2
  0
VERTEX
  8
0
 10
761.135132
 20
320.597290
  0
VERTEX
  8
0
 10
761.135132
 20
349.637054
  0
SEQEND
  0
POLYLINE
  8
0
 62
     4
 66
     1
 70
     2
  0
VERTEX
  8
0
 10
769.135132
 20
320.597290
  0
VERTEX
  8
0
 10
769.135132
 20
349.637054
  0
SEQEND
  0
POLYLINE
  8
0
 62
     4
 66
     1
 70
     2
  0
VERTEX
  8
0
 10
761.810120
 20
320.597290
  0
VERTEX
  8
0
 10
761.810120
 20
349.686615
  0
SEQEND
  0
POLYLINE
  8
0
 62
     4
 66
     1
 70
     2
  0
VERTEX
  8
0
 10
768.460144
 20
320.597290
  0
VERTEX
  8
0
 10
768.460144
 20
349.686615
  0
SEQEND
  0
CIRCLE
  8
0
 62
     7
 10
335.337830
 20
299.797302
 40
4.000000
  0
CIRCLE
  8
0
 62
     4
 10
335.337830
 20
299.797302
 40
3.325000
  0
POLYLINE
  8
DASHDOT
 62
     7
 66
     1
 70
     2
  0
VERTEX
  8
DASHDOT
 10
319.581085
 20
299.797302
  0
VERTEX
  8
DASHDOT
 10
351.094574
 20
299.797302
  0
SEQEND
  0
POLYLINE
  8
DASHDOT
 62
     7
 66
     1
 70
     2
  0
VERTEX
  8
DASHDOT
 10
335.337830
 20
284.040558
  0
VERTEX
  8
DASHDOT
 10
335.337830
 20
315.554047
  0
SEQEND
  0
LINE
  8
DASHDOT
 62
     7
 10
335.337830
 20
349.797302
 11
335.337830
 21
299.797302
  0
LINE
  8
0
 62
     5
 10
335.337830
 20
349.797302
 11
335.337830
 21
452.797302
  0
POLYLINE
  8
0
 62
     5
 66
     1
 70
     2
  0
VERTEX
  8
0
 10
815.135132
 20
299.797302
  0
VERTEX
  8
0
 10
873.918884
 20
436.013519
  0
VERTEX
  8
0
 10
830.810791
 20
436.013519
  0
SEQEND
  0
POLYLINE
  8
0
 62
     5
 66
     1
 70
     2
  0
VERTEX
  8
0
 10
816.971680
 20
313.943665
  0
VERTEX
  8
0
 10
815.135132
 20
299.797302
  0
VERTEX
  8
0
 10
824.168030
 20
310.838104
  0
SEQEND
  0
TEXT
  8
0
 62
     7
 10
834.729736
 20
439.932434
 40
18.810812
 41
1.000000
  1
M8
  7
KANJI
 50
0.000000
 51
0.000000
  0
POLYLINE
  8
0
 62
     4
 66
     1
 70
     2
  0
VERTEX
  8
0
 10
782.171875
 20
303.797302
  0
VERTEX
  8
0
 10
814.974854
 20
303.797302
  0
SEQEND
  0
POLYLINE
  8
0
 62
     4
 66
     1
 70
     2
  0
VERTEX
  8
0
 10
782.171875
 20
295.797302
  0
VERTEX
  8
0
 10
814.974854
 20
295.797302
  0
SEQEND
  0
POLYLINE
  8
0
 62
     4
 66
     1
 70
     2
  0
VERTEX
  8
0
 10
782.316345
 20
303.122314
  0
VERTEX
  8
0
 10
815.024475
 20
303.122314
  0
SEQEND
  0
POLYLINE
  8
0
 62
     4
 66
     1
 70
     2
  0
VERTEX
  8
0
 10
782.316345
 20
296.472290
  0
VERTEX
  8
0
 10
815.024475
 20
296.472290
  0
SEQEND
  0
LINE
  8
0
 62
     5
 10
452.567566
 20
317.297302
 11
452.567566
 21
282.297302
  0
POLYLINE
  8
0
 62
     5
 66
     1
 70
     2
  0
VERTEX
  8
0
 10
448.648651
 20
296.013519
  0
VERTEX
  8
0
 10
452.567566
 20
282.297302
  0
VERTEX
  8
0
 10
456.486481
 20
296.013519
  0
SEQEND
  0
LINE
  8
0
 62
     5
 10
342.837830
 20
282.297302
 11
458.445923
 21
282.297302
  0
TEXT
  8
0
 62
     7
 10
448.648651
 20
264.037170
 40
19.594595
 41
1.000000
  1
%%c35H7
  7
KANJI
 50
90.000000
 51
0.000000
  0
POLYLINE
  8
0
 62
     4
 66
     1
 70
     2
  0
VERTEX
  8
0
 10
297.837830
 20
281.297302
  0
VERTEX
  8
0
 10
297.837830
 20
147.797302
  0
VERTEX
  8
0
 10
298.837830
 20
146.797302
  0
VERTEX
  8
0
 10
326.837830
 20
146.797302
  0
VERTEX
  8
0
 10
327.837830
 20
147.797302
  0
VERTEX
  8
0
 10
327.837830
 20
249.797302
  0
VERTEX
  8
0
 10
341.837830
 20
249.797302
  0
VERTEX
  8
0
 10
342.837830
 20
250.797302
  0
VERTEX
  8
0
 10
342.837830
 20
348.797302
  0
VERTEX
  8
0
 10
341.837830
 20
349.797302
  0
VERTEX
  8
0
 10
327.837830
 20
349.797302
  0
VERTEX
  8
0
 10
327.837830
 20
451.797302
  0
SEQEND
  0
POLYLINE
  8
0
 62
     4
 66
     1
 70
     2
  0
VERTEX
  8
0
 10
327.837830
 20
451.797302
  0
VERTEX
  8
0
 10
326.837830
 20
452.797302
  0
VERTEX
  8
0
 10
298.837830
 20
452.797302
  0
VERTEX
  8
0
 10
297.837830
 20
451.797302
  0
VERTEX
  8
0
 10
297.837830
 20
281.297302
  0
SEQEND
  0
ARC
  8
0
 62
     4
 10
322.837830
 20
247.797302
 40
2.000000
 50
90.0
 51
180.0
  0
ARC
  8
0
 62
     4
 10
322.837830
 20
351.797302
 40
2.000000
 50
180.0
 51
270.0
  0
LINE
  8
0
 62
     4
 10
327.837830
 20
249.797302
 11
322.837830
 21
249.797302
  0
LINE
  8
0
 62
     4
 10
322.837830
 20
349.797302
 11
327.837830
 21
349.797302
  0
LINE
  8
0
 62
     5
 10
483.918915
 20
349.797302
 11
483.918915
 21
249.797302
  0
POLYLINE
  8
0
 62
     5
 66
     1
 70
     2
  0
VERTEX
  8
0
 10
487.837830
 20
336.081085
  0
VERTEX
  8
0
 10
483.918915
 20
349.797302
  0
VERTEX
  8
0
 10
480.000000
 20
336.081085
  0
SEQEND
  0
POLYLINE
  8
0
 62
     5
 66
     1
 70
     2
  0
VERTEX
  8
0
 10
480.000000
 20
263.513519
  0
VERTEX
  8
0
 10
483.918915
 20
249.797302
  0
VERTEX
  8
0
 10
487.837830
 20
263.513519
  0
SEQEND
  0
LINE
  8
0
 62
     5
 10
342.837830
 20
349.797302
 11
489.797302
 21
349.797302
  0
LINE
  8
0
 62
     5
 10
342.837830
 20
249.797302
 11
489.797302
 21
249.797302
  0
TEXT
  8
0
 62
     7
 10
480.000000
 20
270.405396
 40
19.594595
 41
1.000000
  1
%%c100
  7
KANJI
 50
90.000000
 51
0.000000
  0
LINE
  8
0
 62
     4
 10
320.837830
 20
421.059021
 11
320.837830
 21
351.797302
  0
LINE
  8
0
 62
     4
 10
320.837830
 20
247.797302
 11
320.837830
 21
178.535583
  0
CIRCLE
  8
0
 62
     4
 10
765.135132
 20
299.797302
 40
50.000000
  0
LINE
  8
0
 62
     5
 10
366.351349
 20
476.310822
 11
311.824310
 21
476.310822
  0
POLYLINE
  8
0
 62
     5
 66
     1
 70
     2
  0
VERTEX
  8
0
 10
321.621613
 20
472.391907
  0
VERTEX
  8
0
 10
335.337830
 20
476.310822
  0
VERTEX
  8
0
 10
321.621613
 20
480.229736
  0
SEQEND
  0
POLYLINE
  8
0
 62
     5
 66
     1
 70
     2
  0
VERTEX
  8
0
 10
356.554047
 20
480.229736
  0
VERTEX
  8
0
 10
342.837830
 20
476.310822
  0
VERTEX
  8
0
 10
356.554047
 20
472.391907
  0
SEQEND
  0
LINE
  8
0
 62
     5
 10
335.337830
 20
452.797302
 11
335.337830
 21
482.189209
  0
TEXT
  8
0
 62
     7
 10
319.983093
 20
479.445953
 40
19.594595
 41
1.000000
  1
7.5
  7
KANJI
 50
0.000000
 51
0.000000
  0
LINE
  8
0
 62
     5
 10
335.337830
 20
349.797302
 11
335.337830
 21
452.797302
  0
ENDSEC
  0
EOF
