  0
SECTION
  2
HEADER
  9
$ACADVER
  1
AC1003
  9
$INSBASE
 10
0.000000
 20
0.000000
  9
$EXTMIN
 10
0.000000
 20
0.000000
  9
$EXTMAX
 10
447.521739
 20
309.456522
  9
$LIMMIN
 10
0.000000
 20
0.000000
  9
$LIMMAX
 10
447.521739
 20
309.456522
  9
$VIEWCTR
 10
223.760870
 20
154.728261
  9
$VIEWSIZE
 40
309.456522
  0
ENDSEC
  0
SECTION
  2
TABLES
  0
TABLE
  2
LTYPE
 70
     4
  0
LTYPE
  2
CONTINUOUS
 70
    64
  3
SolidLine
 72
    65
 73
     0
 40
0.0
  0
LTYPE
  2
HIDDEN
 70
    64
  3
------------------------
 72
    65
 73
     2
 40
4.760870
 49
3.173913
 49
-1.586957
  0
LTYPE
  2
DASHDOT
 70
    64
  3
--?--?--?--?--?--?--?--
 72
    65
 73
     4
 40
19.043478
 49
14.282609
 49
-1.586957
 49
1.586957
 49
-1.586957
  0
LTYPE
  2
DIVIDE
 70
    64
  3
--??--??--??--??--??--
 72
    65
 73
     6
 40
23.804348
 49
15.869565
 49
-1.586957
 49
1.586957
 49
-1.586957
 49
1.586957
 49
-1.586957
  0
ENDTAB
  0
TABLE
  2
LAYER
 70
     5
  0
LAYER
  2
0
 70
    64
 62
     7
  6
CONTINUOUS
  0
LAYER
  2
HIDDEN
 70
    64
 62
     2
  6
HIDDEN
  0
LAYER
  2
DASHDOT
 70
    64
 62
     6
  6
DASHDOT
  0
LAYER
  2
DIVIDE
 70
    64
 62
     5
  6
DIVIDE
  0
ENDTAB
  0
TABLE
  2
STYLE
 70
     1
  0
STYLE
  2
STANDARD
 70
    64
 40
0.0
 41
1.0
 50
0.0
 71
     0
 42
0.2
  3
TXT
  4

  0
STYLE
  2
KANJI
 70
    64
 40
0.0
 41
1.0
 50
0.0
 71
     0
 42
0.2
  3
TXT
  4
BIGFONT
  0
ENDTAB
  0
TABLE
  2
VIEW
 70
     0
  0
ENDTAB
  0
ENDSEC
  0
SECTION
  2
BLOCKS
  0
ENDSEC
  0
SECTION
  2
ENTITIES
  0
TEXT
  8
0
 62
     7
 10
15.869565
 20
17.456522
 40
6.347826
 41
1.000000
  1
KHK SS3-12J15
  7
KANJI
 50
0.000000
 51
0.000000
  0
TEXT
  8
0
 62
     7
 10
15.869565
 20
7.934783
 40
6.347826
 41
1.000000
  1
The precision grade of gears after secondary operations is equivalent but not identical to its original grade.
  7
KANJI
 50
0.000000
 51
0.000000
  0
TEXT
  8
0
 62
     7
 10
15.869565
 20
285.652161
 40
7.141304
 41
1.000000
  1
For J Series products, without black oxide repeatedly applied on secondary-operated parts.
  7
KANJI
 50
0.000000
 51
0.000000
  0
POLYLINE
  8
0
 62
     7
 66
     1
 70
     2
  0
VERTEX
  8
0
 10
380.869568
 20
285.652161
  0
VERTEX
  8
0
 10
374.680450
 20
296.379974
  0
VERTEX
  8
0
 10
399.436951
 20
296.379974
  0
VERTEX
  8
0
 10
393.247833
 20
285.652161
  0
VERTEX
  8
0
 10
387.058685
 20
296.379974
  0
VERTEX
  8
0
 10
380.869568
 20
285.652161
  0
SEQEND
  0
LINE
  8
0
 62
     5
 10
252.891296
 20
150.336945
 11
252.891296
 21
108.336945
  0
POLYLINE
  8
0
 62
     5
 66
     1
 70
     2
  0
VERTEX
  8
0
 10
254.478256
 20
144.782593
  0
VERTEX
  8
0
 10
252.891296
 20
150.336945
  0
VERTEX
  8
0
 10
251.304337
 20
144.782593
  0
SEQEND
  0
POLYLINE
  8
0
 62
     5
 66
     1
 70
     2
  0
VERTEX
  8
0
 10
251.304337
 20
113.891296
  0
VERTEX
  8
0
 10
252.891296
 20
108.336945
  0
VERTEX
  8
0
 10
254.478256
 20
113.891296
  0
SEQEND
  0
LINE
  8
0
 62
     5
 10
173.543472
 20
150.336945
 11
255.271729
 21
150.336945
  0
LINE
  8
0
 62
     5
 10
173.543472
 20
108.336945
 11
255.271729
 21
108.336945
  0
TEXT
  8
0
 62
     7
 10
251.304337
 20
120.013573
 40
7.934783
 41
1.000000
  1
%%c42
  7
KANJI
 50
90.000000
 51
0.000000
  0
LINE
  8
DASHDOT
 62
     7
 10
123.782600
 20
147.336945
 11
163.304337
 21
147.336945
  0
LINE
  8
DASHDOT
 62
     7
 10
123.782600
 20
111.336945
 11
163.304337
 21
111.336945
  0
LINE
  8
DASHDOT
 62
     7
 10
123.782600
 20
129.336945
 11
178.304337
 21
129.336945
  0
LINE
  8
0
 62
     5
 10
158.543472
 20
149.336945
 11
158.543472
 21
150.336945
  0
LINE
  8
0
 62
     5
 10
128.543472
 20
149.336945
 11
128.543472
 21
150.336945
  0
LINE
  8
0
 62
     5
 10
159.543472
 20
143.336945
 11
173.543472
 21
143.336945
  0
LINE
  8
0
 62
     5
 10
159.543472
 20
115.336945
 11
173.543472
 21
115.336945
  0
LINE
  8
0
 62
     5
 10
157.543472
 20
150.336945
 11
173.543472
 21
150.336945
  0
LINE
  8
0
 62
     5
 10
157.543472
 20
108.336945
 11
173.543472
 21
108.336945
  0
LINE
  8
0
 62
     4
 10
128.543472
 20
143.586945
 11
158.543472
 21
143.586945
  0
LINE
  8
0
 62
     4
 10
128.543472
 20
115.086945
 11
158.543472
 21
115.086945
  0
LINE
  8
0
 62
     4
 10
173.043472
 20
121.836945
 11
173.543472
 21
121.336945
  0
LINE
  8
0
 62
     4
 10
173.043472
 20
136.836945
 11
173.543472
 21
137.336945
  0
LINE
  8
0
 62
     4
 10
129.043472
 20
136.836945
 11
129.043472
 21
121.836945
  0
POLYLINE
  8
0
 62
     4
 66
     1
 70
     2
  0
VERTEX
  8
0
 10
128.543472
 20
121.336945
  0
VERTEX
  8
0
 10
129.043472
 20
121.836945
  0
VERTEX
  8
0
 10
173.043472
 20
121.836945
  0
VERTEX
  8
0
 10
173.043472
 20
136.836945
  0
VERTEX
  8
0
 10
129.043472
 20
136.836945
  0
VERTEX
  8
0
 10
128.543472
 20
137.336945
  0
SEQEND
  0
ARC
  8
0
 62
     4
 10
159.543472
 20
144.336945
 40
1.000000
 50
180.0
 51
270.0
  0
ARC
  8
0
 62
     4
 10
159.543472
 20
114.336945
 40
1.000000
 50
90.0
 51
180.0
  0
LINE
  8
0
 62
     5
 10
173.543472
 20
142.336945
 11
173.543472
 21
150.336945
  0
LINE
  8
0
 62
     5
 10
128.543472
 20
193.184769
 11
158.543472
 21
193.184769
  0
POLYLINE
  8
0
 62
     5
 66
     1
 70
     2
  0
VERTEX
  8
0
 10
134.097824
 20
194.771729
  0
VERTEX
  8
0
 10
128.543472
 20
193.184769
  0
VERTEX
  8
0
 10
134.097824
 20
191.597809
  0
SEQEND
  0
POLYLINE
  8
0
 62
     5
 66
     1
 70
     2
  0
VERTEX
  8
0
 10
152.989120
 20
191.597809
  0
VERTEX
  8
0
 10
158.543472
 20
193.184769
  0
VERTEX
  8
0
 10
152.989120
 20
194.771729
  0
SEQEND
  0
LINE
  8
0
 62
     5
 10
158.543472
 20
150.336945
 11
158.543472
 21
195.565216
  0
TEXT
  8
0
 62
     7
 10
138.385864
 20
194.454346
 40
7.934783
 41
1.000000
  1
30
  7
KANJI
 50
0.000000
 51
0.000000
  0
LINE
  8
0
 62
     5
 10
128.543472
 20
205.880432
 11
173.543472
 21
205.880432
  0
POLYLINE
  8
0
 62
     5
 66
     1
 70
     2
  0
VERTEX
  8
0
 10
134.097824
 20
207.467377
  0
VERTEX
  8
0
 10
128.543472
 20
205.880432
  0
VERTEX
  8
0
 10
134.097824
 20
204.293457
  0
SEQEND
  0
POLYLINE
  8
0
 62
     5
 66
     1
 70
     2
  0
VERTEX
  8
0
 10
167.989120
 20
204.293457
  0
VERTEX
  8
0
 10
173.543472
 20
205.880432
  0
VERTEX
  8
0
 10
167.989120
 20
207.467377
  0
SEQEND
  0
LINE
  8
0
 62
     5
 10
128.543472
 20
150.336945
 11
128.543472
 21
208.260864
  0
LINE
  8
0
 62
     5
 10
173.543472
 20
150.336945
 11
173.543472
 21
208.260864
  0
TEXT
  8
0
 62
     7
 10
145.885864
 20
207.149994
 40
7.934783
 41
1.000000
  1
45
  7
KANJI
 50
0.000000
 51
0.000000
  0
LINE
  8
0
 62
     5
 10
183.065216
 20
193.184769
 11
149.021729
 21
193.184769
  0
POLYLINE
  8
0
 62
     5
 66
     1
 70
     2
  0
VERTEX
  8
0
 10
152.989120
 20
191.597809
  0
VERTEX
  8
0
 10
158.543472
 20
193.184769
  0
VERTEX
  8
0
 10
152.989120
 20
194.771729
  0
SEQEND
  0
POLYLINE
  8
0
 62
     5
 66
     1
 70
     2
  0
VERTEX
  8
0
 10
179.097824
 20
194.771729
  0
VERTEX
  8
0
 10
173.543472
 20
193.184769
  0
VERTEX
  8
0
 10
179.097824
 20
191.597809
  0
SEQEND
  0
TEXT
  8
0
 62
     7
 10
160.885864
 20
194.454346
 40
7.934783
 41
1.000000
  1
15
  7
KANJI
 50
0.000000
 51
0.000000
  0
LINE
  8
0
 62
     5
 10
240.195648
 20
143.336945
 11
240.195648
 21
115.336945
  0
POLYLINE
  8
0
 62
     5
 66
     1
 70
     2
  0
VERTEX
  8
0
 10
241.782608
 20
137.782593
  0
VERTEX
  8
0
 10
240.195648
 20
143.336945
  0
VERTEX
  8
0
 10
238.608688
 20
137.782593
  0
SEQEND
  0
POLYLINE
  8
0
 62
     5
 66
     1
 70
     2
  0
VERTEX
  8
0
 10
238.608688
 20
120.891296
  0
VERTEX
  8
0
 10
240.195648
 20
115.336945
  0
VERTEX
  8
0
 10
241.782608
 20
120.891296
  0
SEQEND
  0
LINE
  8
0
 62
     5
 10
173.543472
 20
143.336945
 11
242.576080
 21
143.336945
  0
LINE
  8
0
 62
     5
 10
173.543472
 20
115.336945
 11
242.576080
 21
115.336945
  0
TEXT
  8
0
 62
     7
 10
238.608688
 20
120.013573
 40
7.934783
 41
1.000000
  1
%%c28
  7
KANJI
 50
90.000000
 51
0.000000
  0
POLYLINE
  8
DASHDOT
 62
     7
 66
     1
 70
     2
  0
VERTEX
  8
DASHDOT
 10
166.043472
 20
148.097809
  0
VERTEX
  8
DASHDOT
 10
166.043472
 20
132.076080
  0
SEQEND
  0
POLYLINE
  8
0
 62
     4
 66
     1
 70
     2
  0
VERTEX
  8
0
 10
168.043472
 20
143.336945
  0
VERTEX
  8
0
 10
168.043472
 20
136.836945
  0
SEQEND
  0
POLYLINE
  8
0
 62
     4
 66
     1
 70
     2
  0
VERTEX
  8
0
 10
164.043472
 20
143.336945
  0
VERTEX
  8
0
 10
164.043472
 20
136.836945
  0
SEQEND
  0
POLYLINE
  8
0
 62
     4
 66
     1
 70
     2
  0
VERTEX
  8
0
 10
167.663467
 20
143.336945
  0
VERTEX
  8
0
 10
167.663467
 20
136.836945
  0
SEQEND
  0
POLYLINE
  8
0
 62
     4
 66
     1
 70
     2
  0
VERTEX
  8
0
 10
164.423477
 20
143.336945
  0
VERTEX
  8
0
 10
164.423477
 20
136.836945
  0
SEQEND
  0
POLYLINE
  8
0
 62
     4
 66
     1
 70
     2
  0
VERTEX
  8
0
 10
309.326080
 20
136.565353
  0
VERTEX
  8
0
 10
309.326080
 20
143.193344
  0
SEQEND
  0
POLYLINE
  8
0
 62
     4
 66
     1
 70
     2
  0
VERTEX
  8
0
 10
313.326080
 20
136.565353
  0
VERTEX
  8
0
 10
313.326080
 20
143.193344
  0
SEQEND
  0
POLYLINE
  8
0
 62
     4
 66
     1
 70
     2
  0
VERTEX
  8
0
 10
309.706085
 20
136.659897
  0
VERTEX
  8
0
 10
309.706085
 20
143.242905
  0
SEQEND
  0
POLYLINE
  8
0
 62
     4
 66
     1
 70
     2
  0
VERTEX
  8
0
 10
312.946075
 20
136.659897
  0
VERTEX
  8
0
 10
312.946075
 20
143.242905
  0
SEQEND
  0
POLYLINE
  8
0
 62
     5
 66
     1
 70
     2
  0
VERTEX
  8
0
 10
311.326080
 20
143.336945
  0
VERTEX
  8
0
 10
282.760864
 20
190.945648
  0
VERTEX
  8
0
 10
300.217407
 20
190.945648
  0
SEQEND
  0
POLYLINE
  8
0
 62
     5
 66
     1
 70
     2
  0
VERTEX
  8
0
 10
307.107605
 20
147.283279
  0
VERTEX
  8
0
 10
311.326080
 20
143.336945
  0
VERTEX
  8
0
 10
309.829193
 20
148.916245
  0
SEQEND
  0
TEXT
  8
0
 62
     7
 10
284.347839
 20
192.532593
 40
7.617392
 41
1.000000
  1
M4
  7
KANJI
 50
0.000000
 51
0.000000
  0
CIRCLE
  8
0
 62
     7
 10
166.043472
 20
129.336945
 40
2.000000
  0
CIRCLE
  8
0
 62
     4
 10
166.043472
 20
129.336945
 40
1.620000
  0
POLYLINE
  8
DASHDOT
 62
     7
 66
     1
 70
     2
  0
VERTEX
  8
DASHDOT
 10
159.282608
 20
129.336945
  0
VERTEX
  8
DASHDOT
 10
172.804337
 20
129.336945
  0
SEQEND
  0
POLYLINE
  8
DASHDOT
 62
     7
 66
     1
 70
     2
  0
VERTEX
  8
DASHDOT
 10
166.043472
 20
122.576073
  0
VERTEX
  8
DASHDOT
 10
166.043472
 20
136.097809
  0
SEQEND
  0
LINE
  8
DASHDOT
 62
     7
 10
166.043472
 20
143.336945
 11
166.043472
 21
129.336945
  0
LINE
  8
0
 62
     5
 10
166.043472
 20
143.336945
 11
166.043472
 21
150.336945
  0
POLYLINE
  8
0
 62
     4
 66
     1
 70
     2
  0
VERTEX
  8
0
 10
318.554504
 20
131.336945
  0
VERTEX
  8
0
 10
325.182495
 20
131.336945
  0
SEQEND
  0
POLYLINE
  8
0
 62
     4
 66
     1
 70
     2
  0
VERTEX
  8
0
 10
318.554504
 20
127.336945
  0
VERTEX
  8
0
 10
325.182495
 20
127.336945
  0
SEQEND
  0
POLYLINE
  8
0
 62
     4
 66
     1
 70
     2
  0
VERTEX
  8
0
 10
318.649048
 20
130.956940
  0
VERTEX
  8
0
 10
325.232056
 20
130.956940
  0
SEQEND
  0
POLYLINE
  8
0
 62
     4
 66
     1
 70
     2
  0
VERTEX
  8
0
 10
318.649048
 20
127.716942
  0
VERTEX
  8
0
 10
325.232056
 20
127.716942
  0
SEQEND
  0
POLYLINE
  8
0
 62
     5
 66
     1
 70
     2
  0
VERTEX
  8
0
 10
325.326080
 20
129.336945
  0
VERTEX
  8
0
 10
349.130432
 20
178.249985
  0
VERTEX
  8
0
 10
325.960876
 20
178.249985
  0
SEQEND
  0
POLYLINE
  8
0
 62
     5
 66
     1
 70
     2
  0
VERTEX
  8
0
 10
326.329712
 20
135.025696
  0
VERTEX
  8
0
 10
325.326080
 20
129.336945
  0
VERTEX
  8
0
 10
329.183594
 20
133.636810
  0
SEQEND
  0
TEXT
  8
0
 62
     7
 10
329.134766
 20
179.836945
 40
7.617392
 41
1.000000
  1
M4
  7
KANJI
 50
0.000000
 51
0.000000
  0
LINE
  8
0
 62
     5
 10
214.804337
 20
112.315201
 11
214.804337
 21
146.358688
  0
POLYLINE
  8
0
 62
     5
 66
     1
 70
     2
  0
VERTEX
  8
0
 10
213.217377
 20
142.391296
  0
VERTEX
  8
0
 10
214.804337
 20
136.836945
  0
VERTEX
  8
0
 10
216.391296
 20
142.391296
  0
SEQEND
  0
POLYLINE
  8
0
 62
     5
 66
     1
 70
     2
  0
VERTEX
  8
0
 10
216.391296
 20
116.282593
  0
VERTEX
  8
0
 10
214.804337
 20
121.836945
  0
VERTEX
  8
0
 10
213.217377
 20
116.282593
  0
SEQEND
  0
LINE
  8
0
 62
     5
 10
173.543472
 20
136.836945
 11
217.184769
 21
136.836945
  0
LINE
  8
0
 62
     5
 10
173.543472
 20
121.836945
 11
217.184769
 21
121.836945
  0
TEXT
  8
0
 62
     7
 10
213.217377
 20
114.855965
 40
7.934783
 41
1.000000
  1
%%c15H7
  7
KANJI
 50
90.000000
 51
0.000000
  0
POLYLINE
  8
0
 62
     4
 66
     1
 70
     2
  0
VERTEX
  8
0
 10
128.543472
 20
121.336945
  0
VERTEX
  8
0
 10
128.543472
 20
109.336945
  0
VERTEX
  8
0
 10
129.543472
 20
108.336945
  0
VERTEX
  8
0
 10
157.543472
 20
108.336945
  0
VERTEX
  8
0
 10
158.543472
 20
109.336945
  0
VERTEX
  8
0
 10
158.543472
 20
114.336945
  0
SEQEND
  0
POLYLINE
  8
0
 62
     4
 66
     1
 70
     2
  0
VERTEX
  8
0
 10
159.543472
 20
115.336945
  0
VERTEX
  8
0
 10
172.543472
 20
115.336945
  0
VERTEX
  8
0
 10
173.543472
 20
116.336945
  0
VERTEX
  8
0
 10
173.543472
 20
142.336945
  0
VERTEX
  8
0
 10
172.543472
 20
143.336945
  0
VERTEX
  8
0
 10
159.543472
 20
143.336945
  0
SEQEND
  0
POLYLINE
  8
0
 62
     4
 66
     1
 70
     2
  0
VERTEX
  8
0
 10
158.543472
 20
144.336945
  0
VERTEX
  8
0
 10
158.543472
 20
149.336945
  0
VERTEX
  8
0
 10
157.543472
 20
150.336945
  0
VERTEX
  8
0
 10
129.543472
 20
150.336945
  0
VERTEX
  8
0
 10
128.543472
 20
149.336945
  0
VERTEX
  8
0
 10
128.543472
 20
121.336945
  0
SEQEND
  0
CIRCLE
  8
0
 62
     4
 10
311.326080
 20
129.336945
 40
7.500000
  0
LINE
  8
DASHDOT
 62
     7
 10
311.326080
 20
151.271729
 11
311.326080
 21
110.576073
  0
LINE
  8
DASHDOT
 62
     7
 10
292.565216
 20
129.336945
 11
330.086945
 21
129.336945
  0
CIRCLE
  8
0
 62
     4
 10
311.326080
 20
129.336945
 40
14.000000
  0
LINE
  8
0
 62
     5
 10
183.065216
 20
158.271729
 11
156.521729
 21
158.271729
  0
POLYLINE
  8
0
 62
     5
 66
     1
 70
     2
  0
VERTEX
  8
0
 10
160.489120
 20
156.684769
  0
VERTEX
  8
0
 10
166.043472
 20
158.271729
  0
VERTEX
  8
0
 10
160.489120
 20
159.858688
  0
SEQEND
  0
POLYLINE
  8
0
 62
     5
 66
     1
 70
     2
  0
VERTEX
  8
0
 10
179.097824
 20
159.858688
  0
VERTEX
  8
0
 10
173.543472
 20
158.271729
  0
VERTEX
  8
0
 10
179.097824
 20
156.684769
  0
SEQEND
  0
LINE
  8
0
 62
     5
 10
166.043472
 20
150.336945
 11
166.043472
 21
160.652161
  0
TEXT
  8
0
 62
     7
 10
178.304352
 20
159.541290
 40
7.934783
 41
1.000000
  1
7.5
  7
KANJI
 50
0.000000
 51
0.000000
  0
LINE
  8
0
 62
     5
 10
166.043472
 20
143.336945
 11
166.043472
 21
150.336945
  0
ENDSEC
  0
EOF
