  0
SECTION
  2
HEADER
  9
$ACADVER
  1
AC1003
  9
$INSBASE
 10
0.000000
 20
0.000000
  9
$EXTMIN
 10
0.000000
 20
0.000000
  9
$EXTMAX
 10
582.391304
 20
402.717391
  9
$LIMMIN
 10
0.000000
 20
0.000000
  9
$LIMMAX
 10
582.391304
 20
402.717391
  9
$VIEWCTR
 10
291.195652
 20
201.358696
  9
$VIEWSIZE
 40
402.717391
  0
ENDSEC
  0
SECTION
  2
TABLES
  0
TABLE
  2
LTYPE
 70
     4
  0
LTYPE
  2
CONTINUOUS
 70
    64
  3
SolidLine
 72
    65
 73
     0
 40
0.0
  0
LTYPE
  2
HIDDEN
 70
    64
  3
------------------------
 72
    65
 73
     2
 40
6.195652
 49
4.130435
 49
-2.065217
  0
LTYPE
  2
DASHDOT
 70
    64
  3
--?--?--?--?--?--?--?--
 72
    65
 73
     4
 40
24.782609
 49
18.586957
 49
-2.065217
 49
2.065217
 49
-2.065217
  0
LTYPE
  2
DIVIDE
 70
    64
  3
--??--??--??--??--??--
 72
    65
 73
     6
 40
30.978261
 49
20.652174
 49
-2.065217
 49
2.065217
 49
-2.065217
 49
2.065217
 49
-2.065217
  0
ENDTAB
  0
TABLE
  2
LAYER
 70
     5
  0
LAYER
  2
0
 70
    64
 62
     7
  6
CONTINUOUS
  0
LAYER
  2
HIDDEN
 70
    64
 62
     2
  6
HIDDEN
  0
LAYER
  2
DASHDOT
 70
    64
 62
     6
  6
DASHDOT
  0
LAYER
  2
DIVIDE
 70
    64
 62
     5
  6
DIVIDE
  0
ENDTAB
  0
TABLE
  2
STYLE
 70
     1
  0
STYLE
  2
STANDARD
 70
    64
 40
0.0
 41
1.0
 50
0.0
 71
     0
 42
0.2
  3
TXT
  4

  0
STYLE
  2
KANJI
 70
    64
 40
0.0
 41
1.0
 50
0.0
 71
     0
 42
0.2
  3
TXT
  4
BIGFONT
  0
ENDTAB
  0
TABLE
  2
VIEW
 70
     0
  0
ENDTAB
  0
ENDSEC
  0
SECTION
  2
BLOCKS
  0
ENDSEC
  0
SECTION
  2
ENTITIES
  0
TEXT
  8
0
 62
     7
 10
20.652174
 20
22.717392
 40
8.260870
 41
1.000000
  1
KHK SS3-20J19
  7
KANJI
 50
0.000000
 51
0.000000
  0
TEXT
  8
0
 62
     7
 10
20.652174
 20
10.326087
 40
8.260870
 41
1.000000
  1
The precision grade of gears after secondary operations is equivalent but not identical to its original grade.
  7
KANJI
 50
0.000000
 51
0.000000
  0
TEXT
  8
0
 62
     7
 10
20.652174
 20
371.739136
 40
9.293478
 41
1.000000
  1
For J Series products, without black oxide repeatedly applied on secondary-operated parts.
  7
KANJI
 50
0.000000
 51
0.000000
  0
POLYLINE
  8
0
 62
     7
 66
     1
 70
     2
  0
VERTEX
  8
0
 10
495.652161
 20
371.739136
  0
VERTEX
  8
0
 10
487.597809
 20
385.700012
  0
VERTEX
  8
0
 10
519.815186
 20
385.700012
  0
VERTEX
  8
0
 10
511.760864
 20
371.739136
  0
VERTEX
  8
0
 10
503.706512
 20
385.700012
  0
VERTEX
  8
0
 10
495.652161
 20
371.739136
  0
SEQEND
  0
LINE
  8
0
 62
     5
 10
315.543457
 20
201.315216
 11
315.543457
 21
135.315216
  0
POLYLINE
  8
0
 62
     5
 66
     1
 70
     2
  0
VERTEX
  8
0
 10
317.608673
 20
194.086960
  0
VERTEX
  8
0
 10
315.543457
 20
201.315216
  0
VERTEX
  8
0
 10
313.478241
 20
194.086960
  0
SEQEND
  0
POLYLINE
  8
0
 62
     5
 66
     1
 70
     2
  0
VERTEX
  8
0
 10
313.478241
 20
142.543472
  0
VERTEX
  8
0
 10
315.543457
 20
135.315216
  0
VERTEX
  8
0
 10
317.608673
 20
142.543472
  0
SEQEND
  0
LINE
  8
0
 62
     5
 10
212.282593
 20
201.315216
 11
318.641296
 21
201.315216
  0
LINE
  8
0
 62
     5
 10
212.282593
 20
135.315216
 11
318.641296
 21
135.315216
  0
TEXT
  8
0
 62
     7
 10
313.478241
 20
156.182068
 40
10.326087
 41
1.000000
  1
%%c66
  7
KANJI
 50
90.000000
 51
0.000000
  0
LINE
  8
DASHDOT
 62
     7
 10
161.086945
 20
198.315216
 11
203.478241
 21
198.315216
  0
LINE
  8
DASHDOT
 62
     7
 10
161.086945
 20
138.315216
 11
203.478241
 21
138.315216
  0
LINE
  8
DASHDOT
 62
     7
 10
161.086945
 20
168.315216
 11
218.478241
 21
168.315216
  0
LINE
  8
0
 62
     5
 10
197.282593
 20
200.315216
 11
197.282593
 21
201.315216
  0
LINE
  8
0
 62
     5
 10
167.282593
 20
200.315216
 11
167.282593
 21
201.315216
  0
LINE
  8
0
 62
     5
 10
198.282593
 20
193.315216
 11
212.282593
 21
193.315216
  0
LINE
  8
0
 62
     5
 10
198.282593
 20
143.315216
 11
212.282593
 21
143.315216
  0
LINE
  8
0
 62
     5
 10
196.282593
 20
201.315216
 11
212.282593
 21
201.315216
  0
LINE
  8
0
 62
     5
 10
196.282593
 20
135.315216
 11
212.282593
 21
135.315216
  0
LINE
  8
0
 62
     4
 10
167.282593
 20
194.565216
 11
197.282593
 21
194.565216
  0
LINE
  8
0
 62
     4
 10
167.282593
 20
142.065216
 11
197.282593
 21
142.065216
  0
LINE
  8
0
 62
     4
 10
211.782593
 20
158.815216
 11
212.282593
 21
158.315216
  0
LINE
  8
0
 62
     4
 10
211.782593
 20
177.815216
 11
212.282593
 21
178.315216
  0
LINE
  8
0
 62
     4
 10
167.782593
 20
177.815216
 11
167.782593
 21
158.815216
  0
POLYLINE
  8
0
 62
     4
 66
     1
 70
     2
  0
VERTEX
  8
0
 10
167.282593
 20
158.315216
  0
VERTEX
  8
0
 10
167.782593
 20
158.815216
  0
VERTEX
  8
0
 10
211.782593
 20
158.815216
  0
VERTEX
  8
0
 10
211.782593
 20
177.815216
  0
VERTEX
  8
0
 10
167.782593
 20
177.815216
  0
VERTEX
  8
0
 10
167.282593
 20
178.315216
  0
SEQEND
  0
ARC
  8
0
 62
     4
 10
198.282593
 20
194.315216
 40
1.000000
 50
180.0
 51
270.0
  0
ARC
  8
0
 62
     4
 10
198.282593
 20
142.315216
 40
1.000000
 50
90.0
 51
180.0
  0
LINE
  8
0
 62
     5
 10
212.282593
 20
192.315216
 11
212.282593
 21
201.315216
  0
LINE
  8
0
 62
     5
 10
167.282593
 20
257.076080
 11
197.282593
 21
257.076080
  0
POLYLINE
  8
0
 62
     5
 66
     1
 70
     2
  0
VERTEX
  8
0
 10
174.510849
 20
259.141296
  0
VERTEX
  8
0
 10
167.282593
 20
257.076080
  0
VERTEX
  8
0
 10
174.510849
 20
255.010864
  0
SEQEND
  0
POLYLINE
  8
0
 62
     5
 66
     1
 70
     2
  0
VERTEX
  8
0
 10
190.054337
 20
255.010864
  0
VERTEX
  8
0
 10
197.282593
 20
257.076080
  0
VERTEX
  8
0
 10
190.054337
 20
259.141296
  0
SEQEND
  0
LINE
  8
0
 62
     5
 10
197.282593
 20
201.315216
 11
197.282593
 21
260.173889
  0
TEXT
  8
0
 62
     7
 10
175.570633
 20
258.728271
 40
10.326087
 41
1.000000
  1
30
  7
KANJI
 50
0.000000
 51
0.000000
  0
LINE
  8
0
 62
     5
 10
167.282593
 20
273.597839
 11
212.282593
 21
273.597839
  0
POLYLINE
  8
0
 62
     5
 66
     1
 70
     2
  0
VERTEX
  8
0
 10
174.510849
 20
275.663025
  0
VERTEX
  8
0
 10
167.282593
 20
273.597839
  0
VERTEX
  8
0
 10
174.510849
 20
271.532593
  0
SEQEND
  0
POLYLINE
  8
0
 62
     5
 66
     1
 70
     2
  0
VERTEX
  8
0
 10
205.054337
 20
271.532593
  0
VERTEX
  8
0
 10
212.282593
 20
273.597839
  0
VERTEX
  8
0
 10
205.054337
 20
275.663025
  0
SEQEND
  0
LINE
  8
0
 62
     5
 10
167.282593
 20
201.315216
 11
167.282593
 21
276.695648
  0
LINE
  8
0
 62
     5
 10
212.282593
 20
201.315216
 11
212.282593
 21
276.695648
  0
TEXT
  8
0
 62
     7
 10
183.070633
 20
275.250000
 40
10.326087
 41
1.000000
  1
45
  7
KANJI
 50
0.000000
 51
0.000000
  0
LINE
  8
0
 62
     5
 10
224.673889
 20
257.076080
 11
184.891296
 21
257.076080
  0
POLYLINE
  8
0
 62
     5
 66
     1
 70
     2
  0
VERTEX
  8
0
 10
190.054337
 20
255.010864
  0
VERTEX
  8
0
 10
197.282593
 20
257.076080
  0
VERTEX
  8
0
 10
190.054337
 20
259.141296
  0
SEQEND
  0
POLYLINE
  8
0
 62
     5
 66
     1
 70
     2
  0
VERTEX
  8
0
 10
219.510849
 20
259.141296
  0
VERTEX
  8
0
 10
212.282593
 20
257.076080
  0
VERTEX
  8
0
 10
219.510849
 20
255.010864
  0
SEQEND
  0
TEXT
  8
0
 62
     7
 10
198.070633
 20
258.728271
 40
10.326087
 41
1.000000
  1
15
  7
KANJI
 50
0.000000
 51
0.000000
  0
LINE
  8
0
 62
     5
 10
299.021729
 20
193.315216
 11
299.021729
 21
143.315216
  0
POLYLINE
  8
0
 62
     5
 66
     1
 70
     2
  0
VERTEX
  8
0
 10
301.086945
 20
186.086960
  0
VERTEX
  8
0
 10
299.021729
 20
193.315216
  0
VERTEX
  8
0
 10
296.956512
 20
186.086960
  0
SEQEND
  0
POLYLINE
  8
0
 62
     5
 66
     1
 70
     2
  0
VERTEX
  8
0
 10
296.956512
 20
150.543472
  0
VERTEX
  8
0
 10
299.021729
 20
143.315216
  0
VERTEX
  8
0
 10
301.086945
 20
150.543472
  0
SEQEND
  0
LINE
  8
0
 62
     5
 10
212.282593
 20
193.315216
 11
302.119568
 21
193.315216
  0
LINE
  8
0
 62
     5
 10
212.282593
 20
143.315216
 11
302.119568
 21
143.315216
  0
TEXT
  8
0
 62
     7
 10
296.956512
 20
156.182068
 40
10.326087
 41
1.000000
  1
%%c50
  7
KANJI
 50
90.000000
 51
0.000000
  0
LINE
  8
DASHDOT
 62
     7
 10
398.369568
 20
203.641296
 11
398.369568
 21
137.119568
  0
LINE
  8
DASHDOT
 62
     7
 10
367.173889
 20
168.315216
 11
429.565216
 21
168.315216
  0
LINE
  8
0
 62
     5
 10
413.760864
 20
222.228256
 11
382.978241
 21
222.228256
  0
POLYLINE
  8
0
 62
     5
 66
     1
 70
     2
  0
VERTEX
  8
0
 10
388.141296
 20
220.163040
  0
VERTEX
  8
0
 10
395.369568
 20
222.228256
  0
VERTEX
  8
0
 10
388.141296
 20
224.293472
  0
SEQEND
  0
POLYLINE
  8
0
 62
     5
 66
     1
 70
     2
  0
VERTEX
  8
0
 10
408.597809
 20
224.293472
  0
VERTEX
  8
0
 10
401.369568
 20
222.228256
  0
VERTEX
  8
0
 10
408.597809
 20
220.163040
  0
SEQEND
  0
LINE
  8
0
 62
     5
 10
395.369568
 20
180.615219
 11
395.369568
 21
225.326080
  0
LINE
  8
0
 62
     5
 10
401.369568
 20
180.615219
 11
401.369568
 21
225.326080
  0
TEXT
  8
0
 62
     7
 10
377.054474
 20
224.293472
 40
10.326087
 41
1.000000
  1
6
  7
KANJI
 50
0.000000
 51
0.000000
  0
TEXT
  8
0
 62
     7
 10
387.276001
 20
224.293472
 40
8.260870
 41
1.000000
  1
%%p0.015
  7
KANJI
 50
0.000000
 51
0.000000
  0
LINE
  8
0
 62
     5
 10
454.347809
 20
146.423920
 11
454.347809
 21
193.006516
  0
POLYLINE
  8
0
 62
     5
 66
     1
 70
     2
  0
VERTEX
  8
0
 10
452.282593
 20
187.843475
  0
VERTEX
  8
0
 10
454.347809
 20
180.615219
  0
VERTEX
  8
0
 10
456.413025
 20
187.843475
  0
SEQEND
  0
POLYLINE
  8
0
 62
     5
 66
     1
 70
     2
  0
VERTEX
  8
0
 10
456.413025
 20
151.586960
  0
VERTEX
  8
0
 10
454.347809
 20
158.815216
  0
VERTEX
  8
0
 10
452.282593
 20
151.586960
  0
SEQEND
  0
LINE
  8
0
 62
     5
 10
401.369568
 20
180.615219
 11
457.445648
 21
180.615219
  0
LINE
  8
0
 62
     5
 10
398.369568
 20
158.815216
 11
457.445648
 21
158.815216
  0
TEXT
  8
0
 62
     7
 10
451.249969
 20
138.091843
 40
10.326087
 41
1.000000
  1
21.8
  7
KANJI
 50
90.000000
 51
0.000000
  0
TEXT
  8
0
 62
     7
 10
451.869537
 20
182.787231
 40
5.163043
 41
1.000000
  1
 
  7
KANJI
 50
90.000000
 51
0.000000
  0
TEXT
  8
0
 62
     7
 10
445.467377
 20
182.787231
 40
5.163043
 41
1.000000
  1
+
  7
KANJI
 50
90.000000
 51
0.000000
  0
TEXT
  8
0
 62
     7
 10
451.869537
 20
188.569839
 40
5.163043
 41
1.000000
  1
0
  7
KANJI
 50
90.000000
 51
0.000000
  0
TEXT
  8
0
 62
     7
 10
445.467377
 20
188.569839
 40
5.163043
 41
1.000000
  1
0.1
  7
KANJI
 50
90.000000
 51
0.000000
  0
ARC
  8
0
 62
     4
 10
398.369568
 20
168.315216
 40
9.500000
 50
108.4084803259778
 51
71.5915196740222
  0
POLYLINE
  8
0
 62
     4
 66
     1
 70
     2
  0
VERTEX
  8
0
 10
401.369568
 20
177.329102
  0
VERTEX
  8
0
 10
401.369568
 20
180.615219
  0
VERTEX
  8
0
 10
395.369568
 20
180.615219
  0
VERTEX
  8
0
 10
395.369568
 20
177.329102
  0
SEQEND
  0
LINE
  8
0
 62
     4
 10
167.282593
 20
180.615219
 11
212.282593
 21
180.615219
  0
POLYLINE
  8
DASHDOT
 62
     7
 66
     1
 70
     2
  0
VERTEX
  8
DASHDOT
 10
204.782593
 20
199.510864
  0
VERTEX
  8
DASHDOT
 10
204.782593
 20
174.419556
  0
SEQEND
  0
POLYLINE
  8
0
 62
     4
 66
     1
 70
     2
  0
VERTEX
  8
0
 10
207.282593
 20
193.315216
  0
VERTEX
  8
0
 10
207.282593
 20
180.615219
  0
SEQEND
  0
POLYLINE
  8
0
 62
     4
 66
     1
 70
     2
  0
VERTEX
  8
0
 10
202.282593
 20
193.315216
  0
VERTEX
  8
0
 10
202.282593
 20
180.615219
  0
SEQEND
  0
POLYLINE
  8
0
 62
     4
 66
     1
 70
     2
  0
VERTEX
  8
0
 10
206.847595
 20
193.315216
  0
VERTEX
  8
0
 10
206.847595
 20
180.615219
  0
SEQEND
  0
POLYLINE
  8
0
 62
     4
 66
     1
 70
     2
  0
VERTEX
  8
0
 10
202.717590
 20
193.315216
  0
VERTEX
  8
0
 10
202.717590
 20
180.615219
  0
SEQEND
  0
POLYLINE
  8
0
 62
     4
 66
     1
 70
     2
  0
VERTEX
  8
0
 10
395.869568
 20
180.615219
  0
VERTEX
  8
0
 10
395.869568
 20
193.189896
  0
SEQEND
  0
POLYLINE
  8
0
 62
     4
 66
     1
 70
     2
  0
VERTEX
  8
0
 10
400.869568
 20
180.615219
  0
VERTEX
  8
0
 10
400.869568
 20
193.189896
  0
SEQEND
  0
POLYLINE
  8
0
 62
     4
 66
     1
 70
     2
  0
VERTEX
  8
0
 10
396.304565
 20
180.615219
  0
VERTEX
  8
0
 10
396.304565
 20
193.229782
  0
SEQEND
  0
POLYLINE
  8
0
 62
     4
 66
     1
 70
     2
  0
VERTEX
  8
0
 10
400.434570
 20
180.615219
  0
VERTEX
  8
0
 10
400.434570
 20
193.229782
  0
SEQEND
  0
POLYLINE
  8
0
 62
     5
 66
     1
 70
     2
  0
VERTEX
  8
0
 10
398.369568
 20
193.315216
  0
VERTEX
  8
0
 10
361.195618
 20
255.271729
  0
VERTEX
  8
0
 10
383.913025
 20
255.271729
  0
SEQEND
  0
POLYLINE
  8
0
 62
     5
 66
     1
 70
     2
  0
VERTEX
  8
0
 10
392.879730
 20
198.450851
  0
VERTEX
  8
0
 10
398.369568
 20
193.315216
  0
VERTEX
  8
0
 10
396.421570
 20
200.575943
  0
SEQEND
  0
TEXT
  8
0
 62
     7
 10
363.260864
 20
257.336945
 40
9.913044
 41
1.000000
  1
M5
  7
KANJI
 50
0.000000
 51
0.000000
  0
CIRCLE
  8
0
 62
     7
 10
204.782593
 20
168.315216
 40
2.500000
  0
CIRCLE
  8
0
 62
     4
 10
204.782593
 20
168.315216
 40
2.065000
  0
POLYLINE
  8
DASHDOT
 62
     7
 66
     1
 70
     2
  0
VERTEX
  8
DASHDOT
 10
196.086945
 20
168.315216
  0
VERTEX
  8
DASHDOT
 10
213.478241
 20
168.315216
  0
SEQEND
  0
POLYLINE
  8
DASHDOT
 62
     7
 66
     1
 70
     2
  0
VERTEX
  8
DASHDOT
 10
204.782593
 20
159.619568
  0
VERTEX
  8
DASHDOT
 10
204.782593
 20
177.010864
  0
SEQEND
  0
LINE
  8
DASHDOT
 62
     7
 10
204.782593
 20
193.315216
 11
204.782593
 21
168.315216
  0
LINE
  8
0
 62
     5
 10
204.782593
 20
193.315216
 11
204.782593
 21
201.315216
  0
POLYLINE
  8
0
 62
     4
 66
     1
 70
     2
  0
VERTEX
  8
0
 10
407.534698
 20
170.815216
  0
VERTEX
  8
0
 10
423.244232
 20
170.815216
  0
SEQEND
  0
POLYLINE
  8
0
 62
     4
 66
     1
 70
     2
  0
VERTEX
  8
0
 10
407.534698
 20
165.815216
  0
VERTEX
  8
0
 10
423.244232
 20
165.815216
  0
SEQEND
  0
POLYLINE
  8
0
 62
     4
 66
     1
 70
     2
  0
VERTEX
  8
0
 10
407.642395
 20
170.380219
  0
VERTEX
  8
0
 10
423.284119
 20
170.380219
  0
SEQEND
  0
POLYLINE
  8
0
 62
     4
 66
     1
 70
     2
  0
VERTEX
  8
0
 10
407.642395
 20
166.250214
  0
VERTEX
  8
0
 10
423.284119
 20
166.250214
  0
SEQEND
  0
POLYLINE
  8
0
 62
     5
 66
     1
 70
     2
  0
VERTEX
  8
0
 10
423.369537
 20
168.315216
  0
VERTEX
  8
0
 10
454.347809
 20
238.750000
  0
VERTEX
  8
0
 10
424.195648
 20
238.750000
  0
SEQEND
  0
POLYLINE
  8
0
 62
     5
 66
     1
 70
     2
  0
VERTEX
  8
0
 10
424.389160
 20
175.763260
  0
VERTEX
  8
0
 10
423.369537
 20
168.315216
  0
VERTEX
  8
0
 10
428.170074
 20
174.100357
  0
SEQEND
  0
TEXT
  8
0
 62
     7
 10
428.326080
 20
240.815216
 40
9.913044
 41
1.000000
  1
M5
  7
KANJI
 50
0.000000
 51
0.000000
  0
LINE
  8
0
 62
     5
 10
265.978241
 20
177.815216
 11
265.978241
 21
158.815216
  0
POLYLINE
  8
0
 62
     5
 66
     1
 70
     2
  0
VERTEX
  8
0
 10
263.913025
 20
166.043472
  0
VERTEX
  8
0
 10
265.978241
 20
158.815216
  0
VERTEX
  8
0
 10
268.043457
 20
166.043472
  0
SEQEND
  0
LINE
  8
0
 62
     5
 10
212.282593
 20
158.815216
 11
269.076050
 21
158.815216
  0
TEXT
  8
0
 62
     7
 10
263.913025
 20
149.470108
 40
10.326087
 41
1.000000
  1
%%c19H7
  7
KANJI
 50
90.000000
 51
0.000000
  0
POLYLINE
  8
0
 62
     4
 66
     1
 70
     2
  0
VERTEX
  8
0
 10
167.282593
 20
158.315216
  0
VERTEX
  8
0
 10
167.282593
 20
136.315216
  0
VERTEX
  8
0
 10
168.282593
 20
135.315216
  0
VERTEX
  8
0
 10
196.282593
 20
135.315216
  0
VERTEX
  8
0
 10
197.282593
 20
136.315216
  0
VERTEX
  8
0
 10
197.282593
 20
142.315216
  0
SEQEND
  0
POLYLINE
  8
0
 62
     4
 66
     1
 70
     2
  0
VERTEX
  8
0
 10
198.282593
 20
143.315216
  0
VERTEX
  8
0
 10
211.282593
 20
143.315216
  0
VERTEX
  8
0
 10
212.282593
 20
144.315216
  0
VERTEX
  8
0
 10
212.282593
 20
192.315216
  0
VERTEX
  8
0
 10
211.282593
 20
193.315216
  0
VERTEX
  8
0
 10
198.282593
 20
193.315216
  0
SEQEND
  0
POLYLINE
  8
0
 62
     4
 66
     1
 70
     2
  0
VERTEX
  8
0
 10
197.282593
 20
194.315216
  0
VERTEX
  8
0
 10
197.282593
 20
200.315216
  0
VERTEX
  8
0
 10
196.282593
 20
201.315216
  0
VERTEX
  8
0
 10
168.282593
 20
201.315216
  0
VERTEX
  8
0
 10
167.282593
 20
200.315216
  0
VERTEX
  8
0
 10
167.282593
 20
158.315216
  0
SEQEND
  0
CIRCLE
  8
0
 62
     4
 10
398.369568
 20
168.315216
 40
25.000000
  0
LINE
  8
0
 62
     5
 10
224.673889
 20
211.641296
 11
192.391296
 21
211.641296
  0
POLYLINE
  8
0
 62
     5
 66
     1
 70
     2
  0
VERTEX
  8
0
 10
197.554337
 20
209.576080
  0
VERTEX
  8
0
 10
204.782593
 20
211.641296
  0
VERTEX
  8
0
 10
197.554337
 20
213.706512
  0
SEQEND
  0
POLYLINE
  8
0
 62
     5
 66
     1
 70
     2
  0
VERTEX
  8
0
 10
219.510849
 20
213.706512
  0
VERTEX
  8
0
 10
212.282593
 20
211.641296
  0
VERTEX
  8
0
 10
219.510849
 20
209.576080
  0
SEQEND
  0
LINE
  8
0
 62
     5
 10
204.782593
 20
201.315216
 11
204.782593
 21
214.739136
  0
TEXT
  8
0
 62
     7
 10
218.478241
 20
213.293488
 40
10.326087
 41
1.000000
  1
7.5
  7
KANJI
 50
0.000000
 51
0.000000
  0
LINE
  8
0
 62
     5
 10
204.782593
 20
193.315216
 11
204.782593
 21
201.315216
  0
ENDSEC
  0
EOF
