  0
SECTION
  2
HEADER
  9
$ACADVER
  1
AC1003
  9
$INSBASE
 10
0.000000
 20
0.000000
  9
$EXTMIN
 10
0.000000
 20
0.000000
  9
$EXTMAX
 10
766.304348
 20
529.891304
  9
$LIMMIN
 10
0.000000
 20
0.000000
  9
$LIMMAX
 10
766.304348
 20
529.891304
  9
$VIEWCTR
 10
383.152174
 20
264.945652
  9
$VIEWSIZE
 40
529.891304
  0
ENDSEC
  0
SECTION
  2
TABLES
  0
TABLE
  2
LTYPE
 70
     4
  0
LTYPE
  2
CONTINUOUS
 70
    64
  3
SolidLine
 72
    65
 73
     0
 40
0.0
  0
LTYPE
  2
HIDDEN
 70
    64
  3
------------------------
 72
    65
 73
     2
 40
8.152174
 49
5.434783
 49
-2.717391
  0
LTYPE
  2
DASHDOT
 70
    64
  3
--?--?--?--?--?--?--?--
 72
    65
 73
     4
 40
32.608696
 49
24.456522
 49
-2.717391
 49
2.717391
 49
-2.717391
  0
LTYPE
  2
DIVIDE
 70
    64
  3
--??--??--??--??--??--
 72
    65
 73
     6
 40
40.760870
 49
27.173913
 49
-2.717391
 49
2.717391
 49
-2.717391
 49
2.717391
 49
-2.717391
  0
ENDTAB
  0
TABLE
  2
LAYER
 70
     5
  0
LAYER
  2
0
 70
    64
 62
     7
  6
CONTINUOUS
  0
LAYER
  2
HIDDEN
 70
    64
 62
     2
  6
HIDDEN
  0
LAYER
  2
DASHDOT
 70
    64
 62
     6
  6
DASHDOT
  0
LAYER
  2
DIVIDE
 70
    64
 62
     5
  6
DIVIDE
  0
ENDTAB
  0
TABLE
  2
STYLE
 70
     1
  0
STYLE
  2
STANDARD
 70
    64
 40
0.0
 41
1.0
 50
0.0
 71
     0
 42
0.2
  3
TXT
  4

  0
STYLE
  2
KANJI
 70
    64
 40
0.0
 41
1.0
 50
0.0
 71
     0
 42
0.2
  3
TXT
  4
BIGFONT
  0
ENDTAB
  0
TABLE
  2
VIEW
 70
     0
  0
ENDTAB
  0
ENDSEC
  0
SECTION
  2
BLOCKS
  0
ENDSEC
  0
SECTION
  2
ENTITIES
  0
TEXT
  8
0
 62
     7
 10
27.173914
 20
29.891304
 40
10.869565
 41
1.000000
  1
KHK SS3-40J25
  7
KANJI
 50
0.000000
 51
0.000000
  0
TEXT
  8
0
 62
     7
 10
27.173914
 20
13.586957
 40
10.869565
 41
1.000000
  1
The precision grade of gears after secondary operations is equivalent but not identical to its original grade.
  7
KANJI
 50
0.000000
 51
0.000000
  0
TEXT
  8
0
 62
     7
 10
27.173914
 20
489.130432
 40
12.228261
 41
1.000000
  1
For J Series products, without black oxide repeatedly applied on secondary-operated parts.
  7
KANJI
 50
0.000000
 51
0.000000
  0
POLYLINE
  8
0
 62
     7
 66
     1
 70
     2
  0
VERTEX
  8
0
 10
652.173889
 20
489.130432
  0
VERTEX
  8
0
 10
641.576050
 20
507.500000
  0
VERTEX
  8
0
 10
683.967346
 20
507.500000
  0
VERTEX
  8
0
 10
673.369568
 20
489.130432
  0
VERTEX
  8
0
 10
662.771729
 20
507.500000
  0
VERTEX
  8
0
 10
652.173889
 20
489.130432
  0
SEQEND
  0
LINE
  8
0
 62
     5
 10
400.978271
 20
284.467407
 11
400.978271
 21
158.467392
  0
POLYLINE
  8
0
 62
     5
 66
     1
 70
     2
  0
VERTEX
  8
0
 10
403.695648
 20
274.956512
  0
VERTEX
  8
0
 10
400.978271
 20
284.467407
  0
VERTEX
  8
0
 10
398.260864
 20
274.956512
  0
SEQEND
  0
POLYLINE
  8
0
 62
     5
 66
     1
 70
     2
  0
VERTEX
  8
0
 10
398.260864
 20
167.978271
  0
VERTEX
  8
0
 10
400.978271
 20
158.467392
  0
VERTEX
  8
0
 10
403.695648
 20
167.978271
  0
SEQEND
  0
LINE
  8
0
 62
     5
 10
265.108704
 20
284.467407
 11
405.054321
 21
284.467407
  0
LINE
  8
0
 62
     5
 10
265.108704
 20
158.467392
 11
405.054321
 21
158.467392
  0
TEXT
  8
0
 62
     7
 10
398.260864
 20
201.086960
 40
13.586957
 41
1.000000
  1
%%c126
  7
KANJI
 50
90.000000
 51
0.000000
  0
LINE
  8
DASHDOT
 62
     7
 10
211.956512
 20
281.467407
 11
258.260864
 21
281.467407
  0
LINE
  8
DASHDOT
 62
     7
 10
211.956512
 20
161.467392
 11
258.260864
 21
161.467392
  0
LINE
  8
DASHDOT
 62
     7
 10
211.956512
 20
221.467392
 11
273.260864
 21
221.467392
  0
LINE
  8
0
 62
     5
 10
250.108688
 20
283.467407
 11
250.108688
 21
284.467407
  0
LINE
  8
0
 62
     5
 10
220.108688
 20
283.467407
 11
220.108688
 21
284.467407
  0
LINE
  8
0
 62
     5
 10
251.608688
 20
261.467407
 11
265.108704
 21
261.467407
  0
LINE
  8
0
 62
     5
 10
251.608688
 20
181.467392
 11
265.108704
 21
181.467392
  0
LINE
  8
0
 62
     5
 10
249.108688
 20
284.467407
 11
265.108704
 21
284.467407
  0
LINE
  8
0
 62
     5
 10
249.108688
 20
158.467392
 11
265.108704
 21
158.467392
  0
LINE
  8
0
 62
     4
 10
220.108688
 20
277.717407
 11
250.108688
 21
277.717407
  0
LINE
  8
0
 62
     4
 10
220.108688
 20
165.217392
 11
250.108688
 21
165.217392
  0
LINE
  8
0
 62
     4
 10
264.108704
 20
208.967392
 11
265.108704
 21
207.967392
  0
LINE
  8
0
 62
     4
 10
264.108704
 20
233.967392
 11
265.108704
 21
234.967392
  0
LINE
  8
0
 62
     4
 10
221.108688
 20
233.967392
 11
221.108688
 21
208.967392
  0
POLYLINE
  8
0
 62
     4
 66
     1
 70
     2
  0
VERTEX
  8
0
 10
220.108688
 20
207.967392
  0
VERTEX
  8
0
 10
221.108688
 20
208.967392
  0
VERTEX
  8
0
 10
264.108704
 20
208.967392
  0
VERTEX
  8
0
 10
264.108704
 20
233.967392
  0
VERTEX
  8
0
 10
221.108688
 20
233.967392
  0
VERTEX
  8
0
 10
220.108688
 20
234.967392
  0
SEQEND
  0
ARC
  8
0
 62
     4
 10
251.608688
 20
262.967407
 40
1.500000
 50
180.0
 51
270.0
  0
ARC
  8
0
 62
     4
 10
251.608688
 20
179.967392
 40
1.500000
 50
90.0
 51
180.0
  0
LINE
  8
0
 62
     5
 10
265.108704
 20
260.467407
 11
265.108704
 21
284.467407
  0
LINE
  8
0
 62
     5
 10
220.108688
 20
357.836975
 11
250.108688
 21
357.836975
  0
POLYLINE
  8
0
 62
     5
 66
     1
 70
     2
  0
VERTEX
  8
0
 10
229.619553
 20
360.554352
  0
VERTEX
  8
0
 10
220.108688
 20
357.836975
  0
VERTEX
  8
0
 10
229.619553
 20
355.119568
  0
SEQEND
  0
POLYLINE
  8
0
 62
     5
 66
     1
 70
     2
  0
VERTEX
  8
0
 10
240.597824
 20
355.119568
  0
VERTEX
  8
0
 10
250.108688
 20
357.836975
  0
VERTEX
  8
0
 10
240.597824
 20
360.554352
  0
SEQEND
  0
LINE
  8
0
 62
     5
 10
250.108688
 20
284.467407
 11
250.108688
 21
361.913025
  0
TEXT
  8
0
 62
     7
 10
226.277161
 20
360.010864
 40
13.586957
 41
1.000000
  1
30
  7
KANJI
 50
0.000000
 51
0.000000
  0
LINE
  8
0
 62
     5
 10
220.108688
 20
379.576111
 11
265.108704
 21
379.576111
  0
POLYLINE
  8
0
 62
     5
 66
     1
 70
     2
  0
VERTEX
  8
0
 10
229.619553
 20
382.293488
  0
VERTEX
  8
0
 10
220.108688
 20
379.576111
  0
VERTEX
  8
0
 10
229.619553
 20
376.858704
  0
SEQEND
  0
POLYLINE
  8
0
 62
     5
 66
     1
 70
     2
  0
VERTEX
  8
0
 10
255.597809
 20
376.858704
  0
VERTEX
  8
0
 10
265.108704
 20
379.576111
  0
VERTEX
  8
0
 10
255.597809
 20
382.293488
  0
SEQEND
  0
LINE
  8
0
 62
     5
 10
220.108688
 20
284.467407
 11
220.108688
 21
383.652161
  0
LINE
  8
0
 62
     5
 10
265.108704
 20
284.467407
 11
265.108704
 21
383.652161
  0
TEXT
  8
0
 62
     7
 10
233.777161
 20
381.750000
 40
13.586957
 41
1.000000
  1
45
  7
KANJI
 50
0.000000
 51
0.000000
  0
LINE
  8
0
 62
     5
 10
281.413025
 20
357.836975
 11
233.804337
 21
357.836975
  0
POLYLINE
  8
0
 62
     5
 66
     1
 70
     2
  0
VERTEX
  8
0
 10
240.597824
 20
355.119568
  0
VERTEX
  8
0
 10
250.108688
 20
357.836975
  0
VERTEX
  8
0
 10
240.597824
 20
360.554352
  0
SEQEND
  0
POLYLINE
  8
0
 62
     5
 66
     1
 70
     2
  0
VERTEX
  8
0
 10
274.619568
 20
360.554352
  0
VERTEX
  8
0
 10
265.108704
 20
357.836975
  0
VERTEX
  8
0
 10
274.619568
 20
355.119568
  0
SEQEND
  0
TEXT
  8
0
 62
     7
 10
273.260864
 20
360.010864
 40
13.586957
 41
1.000000
  1
15
  7
KANJI
 50
0.000000
 51
0.000000
  0
LINE
  8
0
 62
     5
 10
379.239136
 20
261.467407
 11
379.239136
 21
181.467392
  0
POLYLINE
  8
0
 62
     5
 66
     1
 70
     2
  0
VERTEX
  8
0
 10
381.956512
 20
251.956528
  0
VERTEX
  8
0
 10
379.239136
 20
261.467407
  0
VERTEX
  8
0
 10
376.521729
 20
251.956528
  0
SEQEND
  0
POLYLINE
  8
0
 62
     5
 66
     1
 70
     2
  0
VERTEX
  8
0
 10
376.521729
 20
190.978256
  0
VERTEX
  8
0
 10
379.239136
 20
181.467392
  0
VERTEX
  8
0
 10
381.956512
 20
190.978256
  0
SEQEND
  0
LINE
  8
0
 62
     5
 10
265.108704
 20
261.467407
 11
383.315186
 21
261.467407
  0
LINE
  8
0
 62
     5
 10
265.108704
 20
181.467392
 11
383.315186
 21
181.467392
  0
TEXT
  8
0
 62
     7
 10
376.521729
 20
205.502716
 40
13.586957
 41
1.000000
  1
%%c80
  7
KANJI
 50
90.000000
 51
0.000000
  0
LINE
  8
DASHDOT
 62
     7
 10
517.065186
 20
275.054352
 11
517.065186
 21
173.315216
  0
LINE
  8
DASHDOT
 62
     7
 10
468.913025
 20
221.467392
 11
565.217407
 21
221.467392
  0
LINE
  8
0
 62
     5
 10
537.369568
 20
299.510864
 11
496.760864
 21
299.510864
  0
POLYLINE
  8
0
 62
     5
 66
     1
 70
     2
  0
VERTEX
  8
0
 10
503.554321
 20
296.793488
  0
VERTEX
  8
0
 10
513.065186
 20
299.510864
  0
VERTEX
  8
0
 10
503.554321
 20
302.228271
  0
SEQEND
  0
POLYLINE
  8
0
 62
     5
 66
     1
 70
     2
  0
VERTEX
  8
0
 10
530.576050
 20
302.228271
  0
VERTEX
  8
0
 10
521.065186
 20
299.510864
  0
VERTEX
  8
0
 10
530.576050
 20
296.793488
  0
SEQEND
  0
LINE
  8
0
 62
     5
 10
513.065186
 20
237.267395
 11
513.065186
 21
303.586975
  0
LINE
  8
0
 62
     5
 10
521.065186
 20
237.267395
 11
521.065186
 21
303.586975
  0
TEXT
  8
0
 62
     7
 10
489.019043
 20
302.228271
 40
13.586957
 41
1.000000
  1
8
  7
KANJI
 50
0.000000
 51
0.000000
  0
TEXT
  8
0
 62
     7
 10
502.468445
 20
302.228271
 40
10.869565
 41
1.000000
  1
%%p0.018
  7
KANJI
 50
0.000000
 51
0.000000
  0
LINE
  8
0
 62
     5
 10
597.826050
 20
192.663040
 11
597.826050
 21
253.571747
  0
POLYLINE
  8
0
 62
     5
 66
     1
 70
     2
  0
VERTEX
  8
0
 10
595.108704
 20
246.778259
  0
VERTEX
  8
0
 10
597.826050
 20
237.267395
  0
VERTEX
  8
0
 10
600.543457
 20
246.778259
  0
SEQEND
  0
POLYLINE
  8
0
 62
     5
 66
     1
 70
     2
  0
VERTEX
  8
0
 10
600.543457
 20
199.456528
  0
VERTEX
  8
0
 10
597.826050
 20
208.967392
  0
VERTEX
  8
0
 10
595.108704
 20
199.456528
  0
SEQEND
  0
LINE
  8
0
 62
     5
 10
521.065186
 20
237.267395
 11
601.902161
 21
237.267395
  0
LINE
  8
0
 62
     5
 10
517.065186
 20
208.967392
 11
601.902161
 21
208.967392
  0
TEXT
  8
0
 62
     7
 10
593.750000
 20
181.546112
 40
13.586957
 41
1.000000
  1
28.3
  7
KANJI
 50
90.000000
 51
0.000000
  0
TEXT
  8
0
 62
     7
 10
594.565186
 20
240.355835
 40
6.793478
 41
1.000000
  1
 
  7
KANJI
 50
90.000000
 51
0.000000
  0
TEXT
  8
0
 62
     7
 10
586.141296
 20
240.355835
 40
6.793478
 41
1.000000
  1
+
  7
KANJI
 50
90.000000
 51
0.000000
  0
TEXT
  8
0
 62
     7
 10
594.565186
 20
247.964539
 40
6.793478
 41
1.000000
  1
0
  7
KANJI
 50
90.000000
 51
0.000000
  0
TEXT
  8
0
 62
     7
 10
586.141296
 20
247.964539
 40
6.793478
 41
1.000000
  1
0.2
  7
KANJI
 50
90.000000
 51
0.000000
  0
ARC
  8
0
 62
     4
 10
517.065186
 20
221.467392
 40
12.500000
 50
108.66292518454978
 51
71.33707481545021
  0
POLYLINE
  8
0
 62
     4
 66
     1
 70
     2
  0
VERTEX
  8
0
 10
521.065186
 20
233.310104
  0
VERTEX
  8
0
 10
521.065186
 20
237.267395
  0
VERTEX
  8
0
 10
513.065186
 20
237.267395
  0
VERTEX
  8
0
 10
513.065186
 20
233.310104
  0
SEQEND
  0
LINE
  8
0
 62
     4
 10
220.108688
 20
237.267395
 11
265.108704
 21
237.267395
  0
POLYLINE
  8
DASHDOT
 62
     7
 66
     1
 70
     2
  0
VERTEX
  8
DASHDOT
 10
257.608704
 20
269.619568
  0
VERTEX
  8
DASHDOT
 10
257.608704
 20
229.115219
  0
SEQEND
  0
POLYLINE
  8
0
 62
     4
 66
     1
 70
     2
  0
VERTEX
  8
0
 10
260.608704
 20
261.467407
  0
VERTEX
  8
0
 10
260.608704
 20
237.267395
  0
SEQEND
  0
POLYLINE
  8
0
 62
     4
 66
     1
 70
     2
  0
VERTEX
  8
0
 10
254.608688
 20
261.467407
  0
VERTEX
  8
0
 10
254.608688
 20
237.267395
  0
SEQEND
  0
POLYLINE
  8
0
 62
     4
 66
     1
 70
     2
  0
VERTEX
  8
0
 10
260.068695
 20
261.467407
  0
VERTEX
  8
0
 10
260.068695
 20
237.267395
  0
SEQEND
  0
POLYLINE
  8
0
 62
     4
 66
     1
 70
     2
  0
VERTEX
  8
0
 10
255.148682
 20
261.467407
  0
VERTEX
  8
0
 10
255.148682
 20
237.267395
  0
SEQEND
  0
POLYLINE
  8
0
 62
     4
 66
     1
 70
     2
  0
VERTEX
  8
0
 10
514.065186
 20
237.267395
  0
VERTEX
  8
0
 10
514.065186
 20
261.354736
  0
SEQEND
  0
POLYLINE
  8
0
 62
     4
 66
     1
 70
     2
  0
VERTEX
  8
0
 10
520.065186
 20
237.267395
  0
VERTEX
  8
0
 10
520.065186
 20
261.354736
  0
SEQEND
  0
POLYLINE
  8
0
 62
     4
 66
     1
 70
     2
  0
VERTEX
  8
0
 10
514.605225
 20
237.267395
  0
VERTEX
  8
0
 10
514.605225
 20
261.391663
  0
SEQEND
  0
POLYLINE
  8
0
 62
     4
 66
     1
 70
     2
  0
VERTEX
  8
0
 10
519.525208
 20
237.267395
  0
VERTEX
  8
0
 10
519.525208
 20
261.391663
  0
SEQEND
  0
POLYLINE
  8
0
 62
     5
 66
     1
 70
     2
  0
VERTEX
  8
0
 10
517.065186
 20
261.467407
  0
VERTEX
  8
0
 10
468.152161
 20
342.989136
  0
VERTEX
  8
0
 10
498.043457
 20
342.989136
  0
SEQEND
  0
POLYLINE
  8
0
 62
     5
 66
     1
 70
     2
  0
VERTEX
  8
0
 10
509.841736
 20
268.224792
  0
VERTEX
  8
0
 10
517.065186
 20
261.467407
  0
VERTEX
  8
0
 10
514.502014
 20
271.020996
  0
SEQEND
  0
TEXT
  8
0
 62
     7
 10
470.869568
 20
345.706512
 40
13.043479
 41
1.000000
  1
M6
  7
KANJI
 50
0.000000
 51
0.000000
  0
CIRCLE
  8
0
 62
     7
 10
257.608704
 20
221.467392
 40
3.000000
  0
CIRCLE
  8
0
 62
     4
 10
257.608704
 20
221.467392
 40
2.460000
  0
POLYLINE
  8
DASHDOT
 62
     7
 66
     1
 70
     2
  0
VERTEX
  8
DASHDOT
 10
246.456512
 20
221.467392
  0
VERTEX
  8
DASHDOT
 10
268.760864
 20
221.467392
  0
SEQEND
  0
POLYLINE
  8
DASHDOT
 62
     7
 66
     1
 70
     2
  0
VERTEX
  8
DASHDOT
 10
257.608704
 20
210.315216
  0
VERTEX
  8
DASHDOT
 10
257.608704
 20
232.619568
  0
SEQEND
  0
LINE
  8
DASHDOT
 62
     7
 10
257.608704
 20
261.467407
 11
257.608704
 21
221.467392
  0
LINE
  8
0
 62
     5
 10
257.608704
 20
261.467407
 11
257.608704
 21
284.467407
  0
POLYLINE
  8
0
 62
     4
 66
     1
 70
     2
  0
VERTEX
  8
0
 10
529.199890
 20
224.467392
  0
VERTEX
  8
0
 10
556.952515
 20
224.467392
  0
SEQEND
  0
POLYLINE
  8
0
 62
     4
 66
     1
 70
     2
  0
VERTEX
  8
0
 10
529.199890
 20
218.467392
  0
VERTEX
  8
0
 10
556.952515
 20
218.467392
  0
SEQEND
  0
POLYLINE
  8
0
 62
     4
 66
     1
 70
     2
  0
VERTEX
  8
0
 10
529.320740
 20
223.927399
  0
VERTEX
  8
0
 10
556.989502
 20
223.927399
  0
SEQEND
  0
POLYLINE
  8
0
 62
     4
 66
     1
 70
     2
  0
VERTEX
  8
0
 10
529.320740
 20
219.007385
  0
VERTEX
  8
0
 10
556.989502
 20
219.007385
  0
SEQEND
  0
POLYLINE
  8
0
 62
     5
 66
     1
 70
     2
  0
VERTEX
  8
0
 10
557.065186
 20
221.467392
  0
VERTEX
  8
0
 10
597.826050
 20
321.250000
  0
VERTEX
  8
0
 10
558.152161
 20
321.250000
  0
SEQEND
  0
POLYLINE
  8
0
 62
     5
 66
     1
 70
     2
  0
VERTEX
  8
0
 10
558.146240
 20
231.299591
  0
VERTEX
  8
0
 10
557.065186
 20
221.467392
  0
VERTEX
  8
0
 10
563.177429
 20
229.244370
  0
SEQEND
  0
TEXT
  8
0
 62
     7
 10
563.586975
 20
323.967407
 40
13.043479
 41
1.000000
  1
M6
  7
KANJI
 50
0.000000
 51
0.000000
  0
LINE
  8
0
 62
     5
 10
335.760864
 20
233.967392
 11
335.760864
 21
208.967392
  0
POLYLINE
  8
0
 62
     5
 66
     1
 70
     2
  0
VERTEX
  8
0
 10
333.043457
 20
218.478256
  0
VERTEX
  8
0
 10
335.760864
 20
208.967392
  0
VERTEX
  8
0
 10
338.478271
 20
218.478256
  0
SEQEND
  0
LINE
  8
0
 62
     5
 10
265.108704
 20
208.967392
 11
339.836945
 21
208.967392
  0
TEXT
  8
0
 62
     7
 10
333.043457
 20
196.671204
 40
13.586957
 41
1.000000
  1
%%c25H7
  7
KANJI
 50
90.000000
 51
0.000000
  0
POLYLINE
  8
0
 62
     4
 66
     1
 70
     2
  0
VERTEX
  8
0
 10
220.108688
 20
207.967392
  0
VERTEX
  8
0
 10
220.108688
 20
159.467392
  0
VERTEX
  8
0
 10
221.108688
 20
158.467392
  0
VERTEX
  8
0
 10
249.108688
 20
158.467392
  0
VERTEX
  8
0
 10
250.108688
 20
159.467392
  0
VERTEX
  8
0
 10
250.108688
 20
179.967392
  0
SEQEND
  0
POLYLINE
  8
0
 62
     4
 66
     1
 70
     2
  0
VERTEX
  8
0
 10
251.608688
 20
181.467392
  0
VERTEX
  8
0
 10
264.108704
 20
181.467392
  0
VERTEX
  8
0
 10
265.108704
 20
182.467392
  0
VERTEX
  8
0
 10
265.108704
 20
260.467407
  0
VERTEX
  8
0
 10
264.108704
 20
261.467407
  0
VERTEX
  8
0
 10
251.608688
 20
261.467407
  0
SEQEND
  0
POLYLINE
  8
0
 62
     4
 66
     1
 70
     2
  0
VERTEX
  8
0
 10
250.108688
 20
262.967407
  0
VERTEX
  8
0
 10
250.108688
 20
283.467407
  0
VERTEX
  8
0
 10
249.108688
 20
284.467407
  0
VERTEX
  8
0
 10
221.108688
 20
284.467407
  0
VERTEX
  8
0
 10
220.108688
 20
283.467407
  0
VERTEX
  8
0
 10
220.108688
 20
207.967392
  0
SEQEND
  0
CIRCLE
  8
0
 62
     4
 10
517.065186
 20
221.467392
 40
40.000000
  0
LINE
  8
0
 62
     5
 10
281.413025
 20
298.054352
 11
241.304337
 21
298.054352
  0
POLYLINE
  8
0
 62
     5
 66
     1
 70
     2
  0
VERTEX
  8
0
 10
248.097824
 20
295.336975
  0
VERTEX
  8
0
 10
257.608704
 20
298.054352
  0
VERTEX
  8
0
 10
248.097824
 20
300.771729
  0
SEQEND
  0
POLYLINE
  8
0
 62
     5
 66
     1
 70
     2
  0
VERTEX
  8
0
 10
274.619568
 20
300.771729
  0
VERTEX
  8
0
 10
265.108704
 20
298.054352
  0
VERTEX
  8
0
 10
274.619568
 20
295.336975
  0
SEQEND
  0
LINE
  8
0
 62
     5
 10
257.608704
 20
284.467407
 11
257.608704
 21
302.130432
  0
TEXT
  8
0
 62
     7
 10
273.260864
 20
300.228271
 40
13.586957
 41
1.000000
  1
7.5
  7
KANJI
 50
0.000000
 51
0.000000
  0
LINE
  8
0
 62
     5
 10
257.608704
 20
261.467407
 11
257.608704
 21
284.467407
  0
ENDSEC
  0
EOF
