  0
SECTION
  2
HEADER
  9
$ACADVER
  1
AC1003
  9
$INSBASE
 10
0.000000
 20
0.000000
  9
$EXTMIN
 10
0.000000
 20
0.000000
  9
$EXTMAX
 10
459.782609
 20
317.934783
  9
$LIMMIN
 10
0.000000
 20
0.000000
  9
$LIMMAX
 10
459.782609
 20
317.934783
  9
$VIEWCTR
 10
229.891304
 20
158.967391
  9
$VIEWSIZE
 40
317.934783
  0
ENDSEC
  0
SECTION
  2
TABLES
  0
TABLE
  2
LTYPE
 70
     4
  0
LTYPE
  2
CONTINUOUS
 70
    64
  3
SolidLine
 72
    65
 73
     0
 40
0.0
  0
LTYPE
  2
HIDDEN
 70
    64
  3
------------------------
 72
    65
 73
     2
 40
4.891304
 49
3.260870
 49
-1.630435
  0
LTYPE
  2
DASHDOT
 70
    64
  3
--?--?--?--?--?--?--?--
 72
    65
 73
     4
 40
19.565217
 49
14.673913
 49
-1.630435
 49
1.630435
 49
-1.630435
  0
LTYPE
  2
DIVIDE
 70
    64
  3
--??--??--??--??--??--
 72
    65
 73
     6
 40
24.456522
 49
16.304348
 49
-1.630435
 49
1.630435
 49
-1.630435
 49
1.630435
 49
-1.630435
  0
ENDTAB
  0
TABLE
  2
LAYER
 70
     5
  0
LAYER
  2
0
 70
    64
 62
     7
  6
CONTINUOUS
  0
LAYER
  2
HIDDEN
 70
    64
 62
     2
  6
HIDDEN
  0
LAYER
  2
DASHDOT
 70
    64
 62
     6
  6
DASHDOT
  0
LAYER
  2
DIVIDE
 70
    64
 62
     5
  6
DIVIDE
  0
ENDTAB
  0
TABLE
  2
STYLE
 70
     1
  0
STYLE
  2
STANDARD
 70
    64
 40
0.0
 41
1.0
 50
0.0
 71
     0
 42
0.2
  3
TXT
  4

  0
STYLE
  2
KANJI
 70
    64
 40
0.0
 41
1.0
 50
0.0
 71
     0
 42
0.2
  3
TXT
  4
BIGFONT
  0
ENDTAB
  0
TABLE
  2
VIEW
 70
     0
  0
ENDTAB
  0
ENDSEC
  0
SECTION
  2
BLOCKS
  0
ENDSEC
  0
SECTION
  2
ENTITIES
  0
TEXT
  8
0
 62
     7
 10
16.304348
 20
17.934782
 40
6.521739
 41
1.000000
  1
KHK SS3-13
  7
KANJI
 50
0.000000
 51
0.000000
  0
TEXT
  8
0
 62
     7
 10
16.304348
 20
8.152174
 40
6.521739
 41
1.000000
  1

  7
KANJI
 50
0.000000
 51
0.000000
  0
TEXT
  8
0
 62
     7
 10
16.304348
 20
293.478271
 40
7.336957
 41
1.000000
  1
Black oxide
  7
KANJI
 50
0.000000
 51
0.000000
  0
POLYLINE
  8
0
 62
     7
 66
     1
 70
     2
  0
VERTEX
  8
0
 10
391.304352
 20
293.478271
  0
VERTEX
  8
0
 10
384.945648
 20
304.500000
  0
VERTEX
  8
0
 10
410.380432
 20
304.500000
  0
VERTEX
  8
0
 10
404.021729
 20
293.478271
  0
VERTEX
  8
0
 10
397.663055
 20
304.500000
  0
VERTEX
  8
0
 10
391.304352
 20
293.478271
  0
SEQEND
  0
LINE
  8
0
 62
     5
 10
258.586945
 20
155.380432
 11
258.586945
 21
110.380432
  0
POLYLINE
  8
0
 62
     5
 66
     1
 70
     2
  0
VERTEX
  8
0
 10
260.217407
 20
149.673904
  0
VERTEX
  8
0
 10
258.586945
 20
155.380432
  0
VERTEX
  8
0
 10
256.956512
 20
149.673904
  0
SEQEND
  0
POLYLINE
  8
0
 62
     5
 66
     1
 70
     2
  0
VERTEX
  8
0
 10
256.956512
 20
116.086952
  0
VERTEX
  8
0
 10
258.586945
 20
110.380432
  0
VERTEX
  8
0
 10
260.217407
 20
116.086952
  0
SEQEND
  0
LINE
  8
0
 62
     5
 10
177.065216
 20
155.380432
 11
261.032593
 21
155.380432
  0
LINE
  8
0
 62
     5
 10
177.065216
 20
110.380432
 11
261.032593
 21
110.380432
  0
TEXT
  8
0
 62
     7
 10
256.956512
 20
123.301628
 40
8.152174
 41
1.000000
  1
%%c45
  7
KANJI
 50
90.000000
 51
0.000000
  0
LINE
  8
DASHDOT
 62
     7
 10
127.173912
 20
152.380432
 11
166.956512
 21
152.380432
  0
LINE
  8
DASHDOT
 62
     7
 10
127.173912
 20
113.380432
 11
166.956512
 21
113.380432
  0
LINE
  8
DASHDOT
 62
     7
 10
127.173912
 20
132.880432
 11
181.956512
 21
132.880432
  0
LINE
  8
0
 62
     5
 10
162.065216
 20
154.380432
 11
162.065216
 21
155.380432
  0
LINE
  8
0
 62
     5
 10
132.065216
 20
154.380432
 11
132.065216
 21
155.380432
  0
LINE
  8
0
 62
     5
 10
163.065216
 20
147.880432
 11
177.065216
 21
147.880432
  0
LINE
  8
0
 62
     5
 10
163.065216
 20
117.880432
 11
177.065216
 21
117.880432
  0
LINE
  8
0
 62
     5
 10
161.065216
 20
155.380432
 11
177.065216
 21
155.380432
  0
LINE
  8
0
 62
     5
 10
161.065216
 20
110.380432
 11
177.065216
 21
110.380432
  0
LINE
  8
0
 62
     4
 10
132.065216
 20
148.630432
 11
162.065216
 21
148.630432
  0
LINE
  8
0
 62
     4
 10
132.065216
 20
117.130432
 11
162.065216
 21
117.130432
  0
LINE
  8
0
 62
     4
 10
176.565216
 20
125.380432
 11
177.065216
 21
124.880432
  0
LINE
  8
0
 62
     4
 10
176.565216
 20
140.380432
 11
177.065216
 21
140.880432
  0
LINE
  8
0
 62
     4
 10
132.565216
 20
140.380432
 11
132.565216
 21
125.380432
  0
POLYLINE
  8
0
 62
     4
 66
     1
 70
     2
  0
VERTEX
  8
0
 10
132.065216
 20
124.880432
  0
VERTEX
  8
0
 10
132.565216
 20
125.380432
  0
VERTEX
  8
0
 10
176.565216
 20
125.380432
  0
VERTEX
  8
0
 10
176.565216
 20
140.380432
  0
VERTEX
  8
0
 10
132.565216
 20
140.380432
  0
VERTEX
  8
0
 10
132.065216
 20
140.880432
  0
SEQEND
  0
ARC
  8
0
 62
     4
 10
163.065216
 20
148.880432
 40
1.000000
 50
180.0
 51
270.0
  0
ARC
  8
0
 62
     4
 10
163.065216
 20
116.880432
 40
1.000000
 50
90.0
 51
180.0
  0
LINE
  8
0
 62
     5
 10
177.065216
 20
146.880432
 11
177.065216
 21
155.380432
  0
LINE
  8
0
 62
     5
 10
132.065216
 20
199.402176
 11
162.065216
 21
199.402176
  0
POLYLINE
  8
0
 62
     5
 66
     1
 70
     2
  0
VERTEX
  8
0
 10
137.771744
 20
201.032608
  0
VERTEX
  8
0
 10
132.065216
 20
199.402176
  0
VERTEX
  8
0
 10
137.771744
 20
197.771744
  0
SEQEND
  0
POLYLINE
  8
0
 62
     5
 66
     1
 70
     2
  0
VERTEX
  8
0
 10
156.358688
 20
197.771744
  0
VERTEX
  8
0
 10
162.065216
 20
199.402176
  0
VERTEX
  8
0
 10
156.358688
 20
201.032608
  0
SEQEND
  0
LINE
  8
0
 62
     5
 10
162.065216
 20
155.380432
 11
162.065216
 21
201.847839
  0
TEXT
  8
0
 62
     7
 10
141.766296
 20
200.706512
 40
8.152174
 41
1.000000
  1
30
  7
KANJI
 50
0.000000
 51
0.000000
  0
LINE
  8
0
 62
     5
 10
132.065216
 20
212.445648
 11
177.065216
 21
212.445648
  0
POLYLINE
  8
0
 62
     5
 66
     1
 70
     2
  0
VERTEX
  8
0
 10
137.771744
 20
214.076080
  0
VERTEX
  8
0
 10
132.065216
 20
212.445648
  0
VERTEX
  8
0
 10
137.771744
 20
210.815216
  0
SEQEND
  0
POLYLINE
  8
0
 62
     5
 66
     1
 70
     2
  0
VERTEX
  8
0
 10
171.358704
 20
210.815216
  0
VERTEX
  8
0
 10
177.065216
 20
212.445648
  0
VERTEX
  8
0
 10
171.358704
 20
214.076080
  0
SEQEND
  0
LINE
  8
0
 62
     5
 10
132.065216
 20
155.380432
 11
132.065216
 21
214.891296
  0
LINE
  8
0
 62
     5
 10
177.065216
 20
155.380432
 11
177.065216
 21
214.891296
  0
TEXT
  8
0
 62
     7
 10
149.266296
 20
213.750000
 40
8.152174
 41
1.000000
  1
45
  7
KANJI
 50
0.000000
 51
0.000000
  0
LINE
  8
0
 62
     5
 10
186.847824
 20
199.402176
 11
152.282608
 21
199.402176
  0
POLYLINE
  8
0
 62
     5
 66
     1
 70
     2
  0
VERTEX
  8
0
 10
156.358688
 20
197.771744
  0
VERTEX
  8
0
 10
162.065216
 20
199.402176
  0
VERTEX
  8
0
 10
156.358688
 20
201.032608
  0
SEQEND
  0
POLYLINE
  8
0
 62
     5
 66
     1
 70
     2
  0
VERTEX
  8
0
 10
182.771729
 20
201.032608
  0
VERTEX
  8
0
 10
177.065216
 20
199.402176
  0
VERTEX
  8
0
 10
182.771729
 20
197.771744
  0
SEQEND
  0
TEXT
  8
0
 62
     7
 10
164.266296
 20
200.706512
 40
8.152174
 41
1.000000
  1
15
  7
KANJI
 50
0.000000
 51
0.000000
  0
LINE
  8
0
 62
     5
 10
245.543488
 20
147.880432
 11
245.543488
 21
117.880432
  0
POLYLINE
  8
0
 62
     5
 66
     1
 70
     2
  0
VERTEX
  8
0
 10
247.173920
 20
142.173904
  0
VERTEX
  8
0
 10
245.543488
 20
147.880432
  0
VERTEX
  8
0
 10
243.913055
 20
142.173904
  0
SEQEND
  0
POLYLINE
  8
0
 62
     5
 66
     1
 70
     2
  0
VERTEX
  8
0
 10
243.913055
 20
123.586952
  0
VERTEX
  8
0
 10
245.543488
 20
117.880432
  0
VERTEX
  8
0
 10
247.173920
 20
123.586952
  0
SEQEND
  0
LINE
  8
0
 62
     5
 10
177.065216
 20
147.880432
 11
247.989136
 21
147.880432
  0
LINE
  8
0
 62
     5
 10
177.065216
 20
117.880432
 11
247.989136
 21
117.880432
  0
TEXT
  8
0
 62
     7
 10
243.913055
 20
123.301628
 40
8.152174
 41
1.000000
  1
%%c30
  7
KANJI
 50
90.000000
 51
0.000000
  0
LINE
  8
0
 62
     5
 10
219.456512
 20
115.597824
 11
219.456512
 21
150.163040
  0
POLYLINE
  8
0
 62
     5
 66
     1
 70
     2
  0
VERTEX
  8
0
 10
217.826080
 20
146.086960
  0
VERTEX
  8
0
 10
219.456512
 20
140.380432
  0
VERTEX
  8
0
 10
221.086945
 20
146.086960
  0
SEQEND
  0
POLYLINE
  8
0
 62
     5
 66
     1
 70
     2
  0
VERTEX
  8
0
 10
221.086945
 20
119.673912
  0
VERTEX
  8
0
 10
219.456512
 20
125.380432
  0
VERTEX
  8
0
 10
217.826080
 20
119.673912
  0
SEQEND
  0
LINE
  8
0
 62
     5
 10
177.065216
 20
140.380432
 11
221.902176
 21
140.380432
  0
LINE
  8
0
 62
     5
 10
177.065216
 20
125.380432
 11
221.902176
 21
125.380432
  0
TEXT
  8
0
 62
     7
 10
217.826080
 20
118.002716
 40
8.152174
 41
1.000000
  1
%%c15H7
  7
KANJI
 50
90.000000
 51
0.000000
  0
POLYLINE
  8
0
 62
     4
 66
     1
 70
     2
  0
VERTEX
  8
0
 10
132.065216
 20
124.880432
  0
VERTEX
  8
0
 10
132.065216
 20
111.380432
  0
VERTEX
  8
0
 10
133.065216
 20
110.380432
  0
VERTEX
  8
0
 10
161.065216
 20
110.380432
  0
VERTEX
  8
0
 10
162.065216
 20
111.380432
  0
VERTEX
  8
0
 10
162.065216
 20
116.880432
  0
SEQEND
  0
POLYLINE
  8
0
 62
     4
 66
     1
 70
     2
  0
VERTEX
  8
0
 10
163.065216
 20
117.880432
  0
VERTEX
  8
0
 10
176.065216
 20
117.880432
  0
VERTEX
  8
0
 10
177.065216
 20
118.880432
  0
VERTEX
  8
0
 10
177.065216
 20
146.880432
  0
VERTEX
  8
0
 10
176.065216
 20
147.880432
  0
VERTEX
  8
0
 10
163.065216
 20
147.880432
  0
SEQEND
  0
POLYLINE
  8
0
 62
     4
 66
     1
 70
     2
  0
VERTEX
  8
0
 10
162.065216
 20
148.880432
  0
VERTEX
  8
0
 10
162.065216
 20
154.380432
  0
VERTEX
  8
0
 10
161.065216
 20
155.380432
  0
VERTEX
  8
0
 10
133.065216
 20
155.380432
  0
VERTEX
  8
0
 10
132.065216
 20
154.380432
  0
VERTEX
  8
0
 10
132.065216
 20
124.880432
  0
SEQEND
  0
ENDSEC
  0
EOF
