  0
SECTION
  2
HEADER
  9
$ACADVER
  1
AC1003
  9
$INSBASE
 10
0.000000
 20
0.000000
  9
$EXTMIN
 10
0.000000
 20
0.000000
  9
$EXTMAX
 10
514.956522
 20
356.086957
  9
$LIMMIN
 10
0.000000
 20
0.000000
  9
$LIMMAX
 10
514.956522
 20
356.086957
  9
$VIEWCTR
 10
257.478261
 20
178.043478
  9
$VIEWSIZE
 40
356.086957
  0
ENDSEC
  0
SECTION
  2
TABLES
  0
TABLE
  2
LTYPE
 70
     4
  0
LTYPE
  2
CONTINUOUS
 70
    64
  3
SolidLine
 72
    65
 73
     0
 40
0.0
  0
LTYPE
  2
HIDDEN
 70
    64
  3
------------------------
 72
    65
 73
     2
 40
5.478261
 49
3.652174
 49
-1.826087
  0
LTYPE
  2
DASHDOT
 70
    64
  3
--?--?--?--?--?--?--?--
 72
    65
 73
     4
 40
21.913043
 49
16.434783
 49
-1.826087
 49
1.826087
 49
-1.826087
  0
LTYPE
  2
DIVIDE
 70
    64
  3
--??--??--??--??--??--
 72
    65
 73
     6
 40
27.391304
 49
18.260870
 49
-1.826087
 49
1.826087
 49
-1.826087
 49
1.826087
 49
-1.826087
  0
ENDTAB
  0
TABLE
  2
LAYER
 70
     5
  0
LAYER
  2
0
 70
    64
 62
     7
  6
CONTINUOUS
  0
LAYER
  2
HIDDEN
 70
    64
 62
     2
  6
HIDDEN
  0
LAYER
  2
DASHDOT
 70
    64
 62
     6
  6
DASHDOT
  0
LAYER
  2
DIVIDE
 70
    64
 62
     5
  6
DIVIDE
  0
ENDTAB
  0
TABLE
  2
STYLE
 70
     1
  0
STYLE
  2
STANDARD
 70
    64
 40
0.0
 41
1.0
 50
0.0
 71
     0
 42
0.2
  3
TXT
  4

  0
STYLE
  2
KANJI
 70
    64
 40
0.0
 41
1.0
 50
0.0
 71
     0
 42
0.2
  3
TXT
  4
BIGFONT
  0
ENDTAB
  0
TABLE
  2
VIEW
 70
     0
  0
ENDTAB
  0
ENDSEC
  0
SECTION
  2
BLOCKS
  0
ENDSEC
  0
SECTION
  2
ENTITIES
  0
TEXT
  8
0
 62
     7
 10
18.260870
 20
20.086956
 40
7.304348
 41
1.000000
  1
KHK SS3-17
  7
KANJI
 50
0.000000
 51
0.000000
  0
TEXT
  8
0
 62
     7
 10
18.260870
 20
9.130435
 40
7.304348
 41
1.000000
  1

  7
KANJI
 50
0.000000
 51
0.000000
  0
TEXT
  8
0
 62
     7
 10
18.260870
 20
328.695648
 40
8.217391
 41
1.000000
  1
Black oxide
  7
KANJI
 50
0.000000
 51
0.000000
  0
POLYLINE
  8
0
 62
     7
 66
     1
 70
     2
  0
VERTEX
  8
0
 10
438.260864
 20
328.695648
  0
VERTEX
  8
0
 10
431.139130
 20
341.040009
  0
VERTEX
  8
0
 10
459.626068
 20
341.040009
  0
VERTEX
  8
0
 10
452.504333
 20
328.695648
  0
VERTEX
  8
0
 10
445.382599
 20
341.040009
  0
VERTEX
  8
0
 10
438.260864
 20
328.695648
  0
SEQEND
  0
LINE
  8
0
 62
     5
 10
284.217407
 20
177.326080
 11
284.217407
 21
120.326080
  0
POLYLINE
  8
0
 62
     5
 66
     1
 70
     2
  0
VERTEX
  8
0
 10
286.043488
 20
170.934784
  0
VERTEX
  8
0
 10
284.217407
 20
177.326080
  0
VERTEX
  8
0
 10
282.391327
 20
170.934784
  0
SEQEND
  0
POLYLINE
  8
0
 62
     5
 66
     1
 70
     2
  0
VERTEX
  8
0
 10
282.391327
 20
126.717384
  0
VERTEX
  8
0
 10
284.217407
 20
120.326080
  0
VERTEX
  8
0
 10
286.043488
 20
126.717384
  0
SEQEND
  0
LINE
  8
0
 62
     5
 10
192.913055
 20
177.326080
 11
286.956543
 21
177.326080
  0
LINE
  8
0
 62
     5
 10
192.913055
 20
120.326080
 11
286.956543
 21
120.326080
  0
TEXT
  8
0
 62
     7
 10
282.391327
 20
138.097824
 40
9.130435
 41
1.000000
  1
%%c57
  7
KANJI
 50
90.000000
 51
0.000000
  0
LINE
  8
DASHDOT
 62
     7
 10
142.434799
 20
174.326080
 11
183.391312
 21
174.326080
  0
LINE
  8
DASHDOT
 62
     7
 10
142.434799
 20
123.326080
 11
183.391312
 21
123.326080
  0
LINE
  8
DASHDOT
 62
     7
 10
142.434799
 20
148.826080
 11
198.391312
 21
148.826080
  0
LINE
  8
0
 62
     5
 10
177.913055
 20
176.326080
 11
177.913055
 21
177.326080
  0
LINE
  8
0
 62
     5
 10
147.913055
 20
176.326080
 11
147.913055
 21
177.326080
  0
LINE
  8
0
 62
     5
 10
178.913055
 20
168.326080
 11
192.913055
 21
168.326080
  0
LINE
  8
0
 62
     5
 10
178.913055
 20
129.326080
 11
192.913055
 21
129.326080
  0
LINE
  8
0
 62
     5
 10
176.913055
 20
177.326080
 11
192.913055
 21
177.326080
  0
LINE
  8
0
 62
     5
 10
176.913055
 20
120.326080
 11
192.913055
 21
120.326080
  0
LINE
  8
0
 62
     4
 10
147.913055
 20
170.576080
 11
177.913055
 21
170.576080
  0
LINE
  8
0
 62
     4
 10
147.913055
 20
127.076080
 11
177.913055
 21
127.076080
  0
LINE
  8
0
 62
     4
 10
192.413055
 20
141.326080
 11
192.913055
 21
140.826080
  0
LINE
  8
0
 62
     4
 10
192.413055
 20
156.326080
 11
192.913055
 21
156.826080
  0
LINE
  8
0
 62
     4
 10
148.413055
 20
156.326080
 11
148.413055
 21
141.326080
  0
POLYLINE
  8
0
 62
     4
 66
     1
 70
     2
  0
VERTEX
  8
0
 10
147.913055
 20
140.826080
  0
VERTEX
  8
0
 10
148.413055
 20
141.326080
  0
VERTEX
  8
0
 10
192.413055
 20
141.326080
  0
VERTEX
  8
0
 10
192.413055
 20
156.326080
  0
VERTEX
  8
0
 10
148.413055
 20
156.326080
  0
VERTEX
  8
0
 10
147.913055
 20
156.826080
  0
SEQEND
  0
ARC
  8
0
 62
     4
 10
178.913055
 20
169.326080
 40
1.000000
 50
180.0
 51
270.0
  0
ARC
  8
0
 62
     4
 10
178.913055
 20
128.326080
 40
1.000000
 50
90.0
 51
180.0
  0
LINE
  8
0
 62
     5
 10
192.913055
 20
167.326080
 11
192.913055
 21
177.326080
  0
LINE
  8
0
 62
     5
 10
147.913055
 20
226.630432
 11
177.913055
 21
226.630432
  0
POLYLINE
  8
0
 62
     5
 66
     1
 70
     2
  0
VERTEX
  8
0
 10
154.304367
 20
228.456512
  0
VERTEX
  8
0
 10
147.913055
 20
226.630432
  0
VERTEX
  8
0
 10
154.304367
 20
224.804352
  0
SEQEND
  0
POLYLINE
  8
0
 62
     5
 66
     1
 70
     2
  0
VERTEX
  8
0
 10
171.521759
 20
224.804352
  0
VERTEX
  8
0
 10
177.913055
 20
226.630432
  0
VERTEX
  8
0
 10
171.521759
 20
228.456512
  0
SEQEND
  0
LINE
  8
0
 62
     5
 10
177.913055
 20
177.326080
 11
177.913055
 21
229.369568
  0
TEXT
  8
0
 62
     7
 10
156.978271
 20
228.091309
 40
9.130435
 41
1.000000
  1
30
  7
KANJI
 50
0.000000
 51
0.000000
  0
LINE
  8
0
 62
     5
 10
147.913055
 20
241.239120
 11
192.913055
 21
241.239120
  0
POLYLINE
  8
0
 62
     5
 66
     1
 70
     2
  0
VERTEX
  8
0
 10
154.304367
 20
243.065216
  0
VERTEX
  8
0
 10
147.913055
 20
241.239120
  0
VERTEX
  8
0
 10
154.304367
 20
239.413025
  0
SEQEND
  0
POLYLINE
  8
0
 62
     5
 66
     1
 70
     2
  0
VERTEX
  8
0
 10
186.521759
 20
239.413025
  0
VERTEX
  8
0
 10
192.913055
 20
241.239120
  0
VERTEX
  8
0
 10
186.521759
 20
243.065216
  0
SEQEND
  0
LINE
  8
0
 62
     5
 10
147.913055
 20
177.326080
 11
147.913055
 21
243.978241
  0
LINE
  8
0
 62
     5
 10
192.913055
 20
177.326080
 11
192.913055
 21
243.978241
  0
TEXT
  8
0
 62
     7
 10
164.478271
 20
242.699982
 40
9.130435
 41
1.000000
  1
45
  7
KANJI
 50
0.000000
 51
0.000000
  0
LINE
  8
0
 62
     5
 10
203.869568
 20
226.630432
 11
166.956528
 21
226.630432
  0
POLYLINE
  8
0
 62
     5
 66
     1
 70
     2
  0
VERTEX
  8
0
 10
171.521759
 20
224.804352
  0
VERTEX
  8
0
 10
177.913055
 20
226.630432
  0
VERTEX
  8
0
 10
171.521759
 20
228.456512
  0
SEQEND
  0
POLYLINE
  8
0
 62
     5
 66
     1
 70
     2
  0
VERTEX
  8
0
 10
199.304352
 20
228.456512
  0
VERTEX
  8
0
 10
192.913055
 20
226.630432
  0
VERTEX
  8
0
 10
199.304352
 20
224.804352
  0
SEQEND
  0
TEXT
  8
0
 62
     7
 10
179.478271
 20
228.091309
 40
9.130435
 41
1.000000
  1
15
  7
KANJI
 50
0.000000
 51
0.000000
  0
LINE
  8
0
 62
     5
 10
269.608704
 20
168.326080
 11
269.608704
 21
129.326080
  0
POLYLINE
  8
0
 62
     5
 66
     1
 70
     2
  0
VERTEX
  8
0
 10
271.434814
 20
161.934784
  0
VERTEX
  8
0
 10
269.608704
 20
168.326080
  0
VERTEX
  8
0
 10
267.782623
 20
161.934784
  0
SEQEND
  0
POLYLINE
  8
0
 62
     5
 66
     1
 70
     2
  0
VERTEX
  8
0
 10
267.782623
 20
135.717377
  0
VERTEX
  8
0
 10
269.608704
 20
129.326080
  0
VERTEX
  8
0
 10
271.434814
 20
135.717377
  0
SEQEND
  0
LINE
  8
0
 62
     5
 10
192.913055
 20
168.326080
 11
272.347839
 21
168.326080
  0
LINE
  8
0
 62
     5
 10
192.913055
 20
129.326080
 11
272.347839
 21
129.326080
  0
TEXT
  8
0
 62
     7
 10
267.782623
 20
138.097824
 40
9.130435
 41
1.000000
  1
%%c39
  7
KANJI
 50
90.000000
 51
0.000000
  0
LINE
  8
0
 62
     5
 10
240.391312
 20
130.369553
 11
240.391312
 21
167.282608
  0
POLYLINE
  8
0
 62
     5
 66
     1
 70
     2
  0
VERTEX
  8
0
 10
238.565216
 20
162.717377
  0
VERTEX
  8
0
 10
240.391312
 20
156.326080
  0
VERTEX
  8
0
 10
242.217407
 20
162.717377
  0
SEQEND
  0
POLYLINE
  8
0
 62
     5
 66
     1
 70
     2
  0
VERTEX
  8
0
 10
242.217407
 20
134.934784
  0
VERTEX
  8
0
 10
240.391312
 20
141.326080
  0
VERTEX
  8
0
 10
238.565216
 20
134.934784
  0
SEQEND
  0
LINE
  8
0
 62
     5
 10
192.913055
 20
156.326080
 11
243.130432
 21
156.326080
  0
LINE
  8
0
 62
     5
 10
192.913055
 20
141.326080
 11
243.130432
 21
141.326080
  0
TEXT
  8
0
 62
     7
 10
238.565216
 20
132.163040
 40
9.130435
 41
1.000000
  1
%%c15H7
  7
KANJI
 50
90.000000
 51
0.000000
  0
POLYLINE
  8
0
 62
     4
 66
     1
 70
     2
  0
VERTEX
  8
0
 10
147.913055
 20
140.826080
  0
VERTEX
  8
0
 10
147.913055
 20
121.326080
  0
VERTEX
  8
0
 10
148.913055
 20
120.326080
  0
VERTEX
  8
0
 10
176.913055
 20
120.326080
  0
VERTEX
  8
0
 10
177.913055
 20
121.326080
  0
VERTEX
  8
0
 10
177.913055
 20
128.326080
  0
SEQEND
  0
POLYLINE
  8
0
 62
     4
 66
     1
 70
     2
  0
VERTEX
  8
0
 10
178.913055
 20
129.326080
  0
VERTEX
  8
0
 10
191.913055
 20
129.326080
  0
VERTEX
  8
0
 10
192.913055
 20
130.326080
  0
VERTEX
  8
0
 10
192.913055
 20
167.326080
  0
VERTEX
  8
0
 10
191.913055
 20
168.326080
  0
VERTEX
  8
0
 10
178.913055
 20
168.326080
  0
SEQEND
  0
POLYLINE
  8
0
 62
     4
 66
     1
 70
     2
  0
VERTEX
  8
0
 10
177.913055
 20
169.326080
  0
VERTEX
  8
0
 10
177.913055
 20
176.326080
  0
VERTEX
  8
0
 10
176.913055
 20
177.326080
  0
VERTEX
  8
0
 10
148.913055
 20
177.326080
  0
VERTEX
  8
0
 10
147.913055
 20
176.326080
  0
VERTEX
  8
0
 10
147.913055
 20
140.826080
  0
SEQEND
  0
ENDSEC
  0
EOF
