  0
SECTION
  2
HEADER
  9
$ACADVER
  1
AC1003
  9
$INSBASE
 10
0.000000
 20
0.000000
  9
$EXTMIN
 10
0.000000
 20
0.000000
  9
$EXTMAX
 10
839.869565
 20
580.760870
  9
$LIMMIN
 10
0.000000
 20
0.000000
  9
$LIMMAX
 10
839.869565
 20
580.760870
  9
$VIEWCTR
 10
419.934783
 20
290.380435
  9
$VIEWSIZE
 40
580.760870
  0
ENDSEC
  0
SECTION
  2
TABLES
  0
TABLE
  2
LTYPE
 70
     4
  0
LTYPE
  2
CONTINUOUS
 70
    64
  3
SolidLine
 72
    65
 73
     0
 40
0.0
  0
LTYPE
  2
HIDDEN
 70
    64
  3
------------------------
 72
    65
 73
     2
 40
8.934783
 49
5.956522
 49
-2.978261
  0
LTYPE
  2
DASHDOT
 70
    64
  3
--?--?--?--?--?--?--?--
 72
    65
 73
     4
 40
35.739130
 49
26.804348
 49
-2.978261
 49
2.978261
 49
-2.978261
  0
LTYPE
  2
DIVIDE
 70
    64
  3
--??--??--??--??--??--
 72
    65
 73
     6
 40
44.673913
 49
29.782609
 49
-2.978261
 49
2.978261
 49
-2.978261
 49
2.978261
 49
-2.978261
  0
ENDTAB
  0
TABLE
  2
LAYER
 70
     5
  0
LAYER
  2
0
 70
    64
 62
     7
  6
CONTINUOUS
  0
LAYER
  2
HIDDEN
 70
    64
 62
     2
  6
HIDDEN
  0
LAYER
  2
DASHDOT
 70
    64
 62
     6
  6
DASHDOT
  0
LAYER
  2
DIVIDE
 70
    64
 62
     5
  6
DIVIDE
  0
ENDTAB
  0
TABLE
  2
STYLE
 70
     1
  0
STYLE
  2
STANDARD
 70
    64
 40
0.0
 41
1.0
 50
0.0
 71
     0
 42
0.2
  3
TXT
  4

  0
STYLE
  2
KANJI
 70
    64
 40
0.0
 41
1.0
 50
0.0
 71
     0
 42
0.2
  3
TXT
  4
BIGFONT
  0
ENDTAB
  0
TABLE
  2
VIEW
 70
     0
  0
ENDTAB
  0
ENDSEC
  0
SECTION
  2
BLOCKS
  0
ENDSEC
  0
SECTION
  2
ENTITIES
  0
TEXT
  8
0
 62
     7
 10
29.782608
 20
32.760868
 40
11.913043
 41
1.000000
  1
KHK SS4-23
  7
KANJI
 50
0.000000
 51
0.000000
  0
TEXT
  8
0
 62
     7
 10
29.782608
 20
14.891304
 40
11.913043
 41
1.000000
  1

  7
KANJI
 50
0.000000
 51
0.000000
  0
TEXT
  8
0
 62
     7
 10
29.782608
 20
536.086975
 40
13.402174
 41
1.000000
  1
Black oxide
  7
KANJI
 50
0.000000
 51
0.000000
  0
POLYLINE
  8
0
 62
     7
 66
     1
 70
     2
  0
VERTEX
  8
0
 10
714.782593
 20
536.086975
  0
VERTEX
  8
0
 10
703.167358
 20
556.220032
  0
VERTEX
  8
0
 10
749.628235
 20
556.220032
  0
VERTEX
  8
0
 10
738.013000
 20
536.086975
  0
VERTEX
  8
0
 10
726.397827
 20
556.220032
  0
VERTEX
  8
0
 10
714.782593
 20
536.086975
  0
SEQEND
  0
LINE
  8
0
 62
     5
 10
450.152161
 20
292.728271
 11
450.152161
 21
192.728256
  0
POLYLINE
  8
0
 62
     5
 66
     1
 70
     2
  0
VERTEX
  8
0
 10
453.130432
 20
282.304352
  0
VERTEX
  8
0
 10
450.152161
 20
292.728271
  0
VERTEX
  8
0
 10
447.173920
 20
282.304352
  0
SEQEND
  0
POLYLINE
  8
0
 62
     5
 66
     1
 70
     2
  0
VERTEX
  8
0
 10
447.173920
 20
203.152161
  0
VERTEX
  8
0
 10
450.152161
 20
192.728256
  0
VERTEX
  8
0
 10
453.130432
 20
203.152161
  0
SEQEND
  0
LINE
  8
0
 62
     5
 10
301.239136
 20
292.728271
 11
454.619568
 21
292.728271
  0
LINE
  8
0
 62
     5
 10
301.239136
 20
192.728256
 11
454.619568
 21
192.728256
  0
TEXT
  8
0
 62
     7
 10
447.173920
 20
220.391296
 40
14.891304
 41
1.000000
  1
%%c100
  7
KANJI
 50
90.000000
 51
0.000000
  0
LINE
  8
DASHDOT
 62
     7
 10
232.304352
 20
288.728271
 11
290.173920
 21
288.728271
  0
LINE
  8
DASHDOT
 62
     7
 10
232.304352
 20
196.728256
 11
290.173920
 21
196.728256
  0
LINE
  8
DASHDOT
 62
     7
 10
232.304352
 20
242.728256
 11
310.173920
 21
242.728256
  0
LINE
  8
0
 62
     5
 10
281.239136
 20
291.728271
 11
281.239136
 21
292.728271
  0
LINE
  8
0
 62
     5
 10
241.239136
 20
291.728271
 11
241.239136
 21
292.728271
  0
LINE
  8
0
 62
     5
 10
282.739136
 20
281.228271
 11
301.239136
 21
281.228271
  0
LINE
  8
0
 62
     5
 10
282.739136
 20
204.228256
 11
301.239136
 21
204.228256
  0
LINE
  8
0
 62
     5
 10
280.239136
 20
292.728271
 11
301.239136
 21
292.728271
  0
LINE
  8
0
 62
     5
 10
280.239136
 20
192.728256
 11
301.239136
 21
192.728256
  0
LINE
  8
0
 62
     4
 10
241.239136
 20
283.728271
 11
281.239136
 21
283.728271
  0
LINE
  8
0
 62
     4
 10
241.239136
 20
201.728256
 11
281.239136
 21
201.728256
  0
LINE
  8
0
 62
     4
 10
300.239136
 20
232.728256
 11
301.239136
 21
231.728256
  0
LINE
  8
0
 62
     4
 10
300.239136
 20
252.728256
 11
301.239136
 21
253.728256
  0
LINE
  8
0
 62
     4
 10
242.239136
 20
252.728256
 11
242.239136
 21
232.728256
  0
POLYLINE
  8
0
 62
     4
 66
     1
 70
     2
  0
VERTEX
  8
0
 10
241.239136
 20
231.728256
  0
VERTEX
  8
0
 10
242.239136
 20
232.728256
  0
VERTEX
  8
0
 10
300.239136
 20
232.728256
  0
VERTEX
  8
0
 10
300.239136
 20
252.728256
  0
VERTEX
  8
0
 10
242.239136
 20
252.728256
  0
VERTEX
  8
0
 10
241.239136
 20
253.728256
  0
SEQEND
  0
ARC
  8
0
 62
     4
 10
282.739136
 20
282.728271
 40
1.500000
 50
180.0
 51
270.0
  0
ARC
  8
0
 62
     4
 10
282.739136
 20
202.728256
 40
1.500000
 50
90.0
 51
180.0
  0
LINE
  8
0
 62
     5
 10
301.239136
 20
280.228271
 11
301.239136
 21
292.728271
  0
LINE
  8
0
 62
     5
 10
241.239136
 20
373.141296
 11
281.239136
 21
373.141296
  0
POLYLINE
  8
0
 62
     5
 66
     1
 70
     2
  0
VERTEX
  8
0
 10
251.663055
 20
376.119568
  0
VERTEX
  8
0
 10
241.239136
 20
373.141296
  0
VERTEX
  8
0
 10
251.663055
 20
370.163025
  0
SEQEND
  0
POLYLINE
  8
0
 62
     5
 66
     1
 70
     2
  0
VERTEX
  8
0
 10
270.815216
 20
370.163025
  0
VERTEX
  8
0
 10
281.239136
 20
373.141296
  0
VERTEX
  8
0
 10
270.815216
 20
376.119568
  0
SEQEND
  0
LINE
  8
0
 62
     5
 10
281.239136
 20
292.728271
 11
281.239136
 21
377.608704
  0
TEXT
  8
0
 62
     7
 10
251.559784
 20
375.523926
 40
14.891304
 41
1.000000
  1
40
  7
KANJI
 50
0.000000
 51
0.000000
  0
LINE
  8
0
 62
     5
 10
241.239136
 20
396.967407
 11
301.239136
 21
396.967407
  0
POLYLINE
  8
0
 62
     5
 66
     1
 70
     2
  0
VERTEX
  8
0
 10
251.663055
 20
399.945648
  0
VERTEX
  8
0
 10
241.239136
 20
396.967407
  0
VERTEX
  8
0
 10
251.663055
 20
393.989136
  0
SEQEND
  0
POLYLINE
  8
0
 62
     5
 66
     1
 70
     2
  0
VERTEX
  8
0
 10
290.815216
 20
393.989136
  0
VERTEX
  8
0
 10
301.239136
 20
396.967407
  0
VERTEX
  8
0
 10
290.815216
 20
399.945648
  0
SEQEND
  0
LINE
  8
0
 62
     5
 10
241.239136
 20
292.728271
 11
241.239136
 21
401.434784
  0
LINE
  8
0
 62
     5
 10
301.239136
 20
292.728271
 11
301.239136
 21
401.434784
  0
TEXT
  8
0
 62
     7
 10
261.559784
 20
399.350006
 40
14.891304
 41
1.000000
  1
60
  7
KANJI
 50
0.000000
 51
0.000000
  0
LINE
  8
0
 62
     5
 10
319.108704
 20
373.141296
 11
263.369568
 21
373.141296
  0
POLYLINE
  8
0
 62
     5
 66
     1
 70
     2
  0
VERTEX
  8
0
 10
270.815216
 20
370.163025
  0
VERTEX
  8
0
 10
281.239136
 20
373.141296
  0
VERTEX
  8
0
 10
270.815216
 20
376.119568
  0
SEQEND
  0
POLYLINE
  8
0
 62
     5
 66
     1
 70
     2
  0
VERTEX
  8
0
 10
311.663055
 20
376.119568
  0
VERTEX
  8
0
 10
301.239136
 20
373.141296
  0
VERTEX
  8
0
 10
311.663055
 20
370.163025
  0
SEQEND
  0
TEXT
  8
0
 62
     7
 10
281.559784
 20
375.523926
 40
14.891304
 41
1.000000
  1
20
  7
KANJI
 50
0.000000
 51
0.000000
  0
LINE
  8
0
 62
     5
 10
426.326111
 20
281.228271
 11
426.326111
 21
204.228256
  0
POLYLINE
  8
0
 62
     5
 66
     1
 70
     2
  0
VERTEX
  8
0
 10
429.304352
 20
270.804352
  0
VERTEX
  8
0
 10
426.326111
 20
281.228271
  0
VERTEX
  8
0
 10
423.347839
 20
270.804352
  0
SEQEND
  0
POLYLINE
  8
0
 62
     5
 66
     1
 70
     2
  0
VERTEX
  8
0
 10
423.347839
 20
214.652161
  0
VERTEX
  8
0
 10
426.326111
 20
204.228256
  0
VERTEX
  8
0
 10
429.304352
 20
214.652161
  0
SEQEND
  0
LINE
  8
0
 62
     5
 10
301.239136
 20
281.228271
 11
430.793488
 21
281.228271
  0
LINE
  8
0
 62
     5
 10
301.239136
 20
204.228256
 11
430.793488
 21
204.228256
  0
TEXT
  8
0
 62
     7
 10
423.347839
 20
225.230972
 40
14.891304
 41
1.000000
  1
%%c77
  7
KANJI
 50
90.000000
 51
0.000000
  0
LINE
  8
0
 62
     5
 10
378.673920
 20
214.858688
 11
378.673920
 21
270.597809
  0
POLYLINE
  8
0
 62
     5
 66
     1
 70
     2
  0
VERTEX
  8
0
 10
375.695679
 20
263.152161
  0
VERTEX
  8
0
 10
378.673920
 20
252.728256
  0
VERTEX
  8
0
 10
381.652161
 20
263.152161
  0
SEQEND
  0
POLYLINE
  8
0
 62
     5
 66
     1
 70
     2
  0
VERTEX
  8
0
 10
381.652161
 20
222.304352
  0
VERTEX
  8
0
 10
378.673920
 20
232.728256
  0
VERTEX
  8
0
 10
375.695679
 20
222.304352
  0
SEQEND
  0
LINE
  8
0
 62
     5
 10
301.239136
 20
252.728256
 11
383.141296
 21
252.728256
  0
LINE
  8
0
 62
     5
 10
301.239136
 20
232.728256
 11
383.141296
 21
232.728256
  0
TEXT
  8
0
 62
     7
 10
375.695679
 20
215.551620
 40
14.891304
 41
1.000000
  1
%%c20H7
  7
KANJI
 50
90.000000
 51
0.000000
  0
POLYLINE
  8
0
 62
     4
 66
     1
 70
     2
  0
VERTEX
  8
0
 10
241.239136
 20
231.728256
  0
VERTEX
  8
0
 10
241.239136
 20
193.728256
  0
VERTEX
  8
0
 10
242.239136
 20
192.728256
  0
VERTEX
  8
0
 10
280.239136
 20
192.728256
  0
VERTEX
  8
0
 10
281.239136
 20
193.728256
  0
VERTEX
  8
0
 10
281.239136
 20
202.728256
  0
SEQEND
  0
POLYLINE
  8
0
 62
     4
 66
     1
 70
     2
  0
VERTEX
  8
0
 10
282.739136
 20
204.228256
  0
VERTEX
  8
0
 10
300.239136
 20
204.228256
  0
VERTEX
  8
0
 10
301.239136
 20
205.228256
  0
VERTEX
  8
0
 10
301.239136
 20
280.228271
  0
VERTEX
  8
0
 10
300.239136
 20
281.228271
  0
VERTEX
  8
0
 10
282.739136
 20
281.228271
  0
SEQEND
  0
POLYLINE
  8
0
 62
     4
 66
     1
 70
     2
  0
VERTEX
  8
0
 10
281.239136
 20
282.728271
  0
VERTEX
  8
0
 10
281.239136
 20
291.728271
  0
VERTEX
  8
0
 10
280.239136
 20
292.728271
  0
VERTEX
  8
0
 10
242.239136
 20
292.728271
  0
VERTEX
  8
0
 10
241.239136
 20
291.728271
  0
VERTEX
  8
0
 10
241.239136
 20
231.728256
  0
SEQEND
  0
ENDSEC
  0
EOF
