  0
SECTION
  2
HEADER
  9
$ACADVER
  1
AC1003
  9
$INSBASE
 10
0.000000
 20
0.000000
  9
$EXTMIN
 10
0.000000
 20
0.000000
  9
$EXTMAX
 10
735.652174
 20
508.695652
  9
$LIMMIN
 10
0.000000
 20
0.000000
  9
$LIMMAX
 10
735.652174
 20
508.695652
  9
$VIEWCTR
 10
367.826087
 20
254.347826
  9
$VIEWSIZE
 40
508.695652
  0
ENDSEC
  0
SECTION
  2
TABLES
  0
TABLE
  2
LTYPE
 70
     4
  0
LTYPE
  2
CONTINUOUS
 70
    64
  3
SolidLine
 72
    65
 73
     0
 40
0.0
  0
LTYPE
  2
HIDDEN
 70
    64
  3
------------------------
 72
    65
 73
     2
 40
7.826087
 49
5.217391
 49
-2.608696
  0
LTYPE
  2
DASHDOT
 70
    64
  3
--?--?--?--?--?--?--?--
 72
    65
 73
     4
 40
31.304348
 49
23.478261
 49
-2.608696
 49
2.608696
 49
-2.608696
  0
LTYPE
  2
DIVIDE
 70
    64
  3
--??--??--??--??--??--
 72
    65
 73
     6
 40
39.130435
 49
26.086957
 49
-2.608696
 49
2.608696
 49
-2.608696
 49
2.608696
 49
-2.608696
  0
ENDTAB
  0
TABLE
  2
LAYER
 70
     5
  0
LAYER
  2
0
 70
    64
 62
     7
  6
CONTINUOUS
  0
LAYER
  2
HIDDEN
 70
    64
 62
     2
  6
HIDDEN
  0
LAYER
  2
DASHDOT
 70
    64
 62
     6
  6
DASHDOT
  0
LAYER
  2
DIVIDE
 70
    64
 62
     5
  6
DIVIDE
  0
ENDTAB
  0
TABLE
  2
STYLE
 70
     1
  0
STYLE
  2
STANDARD
 70
    64
 40
0.0
 41
1.0
 50
0.0
 71
     0
 42
0.2
  3
TXT
  4

  0
STYLE
  2
KANJI
 70
    64
 40
0.0
 41
1.0
 50
0.0
 71
     0
 42
0.2
  3
TXT
  4
BIGFONT
  0
ENDTAB
  0
TABLE
  2
VIEW
 70
     0
  0
ENDTAB
  0
ENDSEC
  0
SECTION
  2
BLOCKS
  0
ENDSEC
  0
SECTION
  2
ENTITIES
  0
TEXT
  8
0
 62
     7
 10
26.086956
 20
28.695652
 40
10.434783
 41
1.000000
  1
KHK SS4-19
  7
KANJI
 50
0.000000
 51
0.000000
  0
TEXT
  8
0
 62
     7
 10
26.086956
 20
13.043478
 40
10.434783
 41
1.000000
  1

  7
KANJI
 50
0.000000
 51
0.000000
  0
TEXT
  8
0
 62
     7
 10
26.086956
 20
469.565216
 40
11.739130
 41
1.000000
  1
Black oxide
  7
KANJI
 50
0.000000
 51
0.000000
  0
POLYLINE
  8
0
 62
     7
 66
     1
 70
     2
  0
VERTEX
  8
0
 10
626.086975
 20
469.565216
  0
VERTEX
  8
0
 10
615.913086
 20
487.200012
  0
VERTEX
  8
0
 10
656.608704
 20
487.200012
  0
VERTEX
  8
0
 10
646.434814
 20
469.565216
  0
VERTEX
  8
0
 10
636.260864
 20
487.200012
  0
VERTEX
  8
0
 10
626.086975
 20
469.565216
  0
SEQEND
  0
LINE
  8
0
 62
     5
 10
401.739136
 20
254.608688
 11
401.739136
 21
170.608688
  0
POLYLINE
  8
0
 62
     5
 66
     1
 70
     2
  0
VERTEX
  8
0
 10
404.347809
 20
245.478256
  0
VERTEX
  8
0
 10
401.739136
 20
254.608688
  0
VERTEX
  8
0
 10
399.130432
 20
245.478256
  0
SEQEND
  0
POLYLINE
  8
0
 62
     5
 66
     1
 70
     2
  0
VERTEX
  8
0
 10
399.130432
 20
179.739120
  0
VERTEX
  8
0
 10
401.739136
 20
170.608688
  0
VERTEX
  8
0
 10
404.347809
 20
179.739120
  0
SEQEND
  0
LINE
  8
0
 62
     5
 10
271.304321
 20
254.608688
 11
405.652161
 21
254.608688
  0
LINE
  8
0
 62
     5
 10
271.304321
 20
170.608688
 11
405.652161
 21
170.608688
  0
TEXT
  8
0
 62
     7
 10
399.130432
 20
197.282593
 40
13.043478
 41
1.000000
  1
%%c84
  7
KANJI
 50
90.000000
 51
0.000000
  0
LINE
  8
DASHDOT
 62
     7
 10
203.478256
 20
250.608688
 11
259.130432
 21
250.608688
  0
LINE
  8
DASHDOT
 62
     7
 10
203.478256
 20
174.608688
 11
259.130432
 21
174.608688
  0
LINE
  8
DASHDOT
 62
     7
 10
203.478256
 20
212.608688
 11
279.130432
 21
212.608688
  0
LINE
  8
0
 62
     5
 10
251.304337
 20
253.608688
 11
251.304337
 21
254.608688
  0
LINE
  8
0
 62
     5
 10
211.304337
 20
253.608688
 11
211.304337
 21
254.608688
  0
LINE
  8
0
 62
     5
 10
252.304337
 20
242.608688
 11
271.304321
 21
242.608688
  0
LINE
  8
0
 62
     5
 10
252.304337
 20
182.608688
 11
271.304321
 21
182.608688
  0
LINE
  8
0
 62
     5
 10
250.304337
 20
254.608688
 11
271.304321
 21
254.608688
  0
LINE
  8
0
 62
     5
 10
250.304337
 20
170.608688
 11
271.304321
 21
170.608688
  0
LINE
  8
0
 62
     4
 10
211.304337
 20
245.608688
 11
251.304337
 21
245.608688
  0
LINE
  8
0
 62
     4
 10
211.304337
 20
179.608688
 11
251.304337
 21
179.608688
  0
LINE
  8
0
 62
     4
 10
270.304321
 20
202.608688
 11
271.304321
 21
201.608688
  0
LINE
  8
0
 62
     4
 10
270.304321
 20
222.608688
 11
271.304321
 21
223.608688
  0
LINE
  8
0
 62
     4
 10
212.304337
 20
222.608688
 11
212.304337
 21
202.608688
  0
POLYLINE
  8
0
 62
     4
 66
     1
 70
     2
  0
VERTEX
  8
0
 10
211.304337
 20
201.608688
  0
VERTEX
  8
0
 10
212.304337
 20
202.608688
  0
VERTEX
  8
0
 10
270.304321
 20
202.608688
  0
VERTEX
  8
0
 10
270.304321
 20
222.608688
  0
VERTEX
  8
0
 10
212.304337
 20
222.608688
  0
VERTEX
  8
0
 10
211.304337
 20
223.608688
  0
SEQEND
  0
ARC
  8
0
 62
     4
 10
252.304337
 20
243.608688
 40
1.000000
 50
180.0
 51
270.0
  0
ARC
  8
0
 62
     4
 10
252.304337
 20
181.608688
 40
1.000000
 50
90.0
 51
180.0
  0
LINE
  8
0
 62
     5
 10
271.304321
 20
241.608688
 11
271.304321
 21
254.608688
  0
LINE
  8
0
 62
     5
 10
211.304337
 20
325.043457
 11
251.304337
 21
325.043457
  0
POLYLINE
  8
0
 62
     5
 66
     1
 70
     2
  0
VERTEX
  8
0
 10
220.434769
 20
327.652161
  0
VERTEX
  8
0
 10
211.304337
 20
325.043457
  0
VERTEX
  8
0
 10
220.434769
 20
322.434784
  0
SEQEND
  0
POLYLINE
  8
0
 62
     5
 66
     1
 70
     2
  0
VERTEX
  8
0
 10
242.173904
 20
322.434784
  0
VERTEX
  8
0
 10
251.304337
 20
325.043457
  0
VERTEX
  8
0
 10
242.173904
 20
327.652161
  0
SEQEND
  0
LINE
  8
0
 62
     5
 10
251.304337
 20
254.608688
 11
251.304337
 21
328.956512
  0
TEXT
  8
0
 62
     7
 10
222.826080
 20
327.130432
 40
13.043478
 41
1.000000
  1
40
  7
KANJI
 50
0.000000
 51
0.000000
  0
LINE
  8
0
 62
     5
 10
211.304337
 20
345.913025
 11
271.304321
 21
345.913025
  0
POLYLINE
  8
0
 62
     5
 66
     1
 70
     2
  0
VERTEX
  8
0
 10
220.434769
 20
348.521729
  0
VERTEX
  8
0
 10
211.304337
 20
345.913025
  0
VERTEX
  8
0
 10
220.434769
 20
343.304352
  0
SEQEND
  0
POLYLINE
  8
0
 62
     5
 66
     1
 70
     2
  0
VERTEX
  8
0
 10
262.173889
 20
343.304352
  0
VERTEX
  8
0
 10
271.304321
 20
345.913025
  0
VERTEX
  8
0
 10
262.173889
 20
348.521729
  0
SEQEND
  0
LINE
  8
0
 62
     5
 10
211.304337
 20
254.608688
 11
211.304337
 21
349.826080
  0
LINE
  8
0
 62
     5
 10
271.304321
 20
254.608688
 11
271.304321
 21
349.826080
  0
TEXT
  8
0
 62
     7
 10
232.826080
 20
348.000000
 40
13.043478
 41
1.000000
  1
60
  7
KANJI
 50
0.000000
 51
0.000000
  0
LINE
  8
0
 62
     5
 10
286.956512
 20
325.043457
 11
235.652161
 21
325.043457
  0
POLYLINE
  8
0
 62
     5
 66
     1
 70
     2
  0
VERTEX
  8
0
 10
242.173904
 20
322.434784
  0
VERTEX
  8
0
 10
251.304337
 20
325.043457
  0
VERTEX
  8
0
 10
242.173904
 20
327.652161
  0
SEQEND
  0
POLYLINE
  8
0
 62
     5
 66
     1
 70
     2
  0
VERTEX
  8
0
 10
280.434753
 20
327.652161
  0
VERTEX
  8
0
 10
271.304321
 20
325.043457
  0
VERTEX
  8
0
 10
280.434753
 20
322.434784
  0
SEQEND
  0
TEXT
  8
0
 62
     7
 10
252.826080
 20
327.130432
 40
13.043478
 41
1.000000
  1
20
  7
KANJI
 50
0.000000
 51
0.000000
  0
LINE
  8
0
 62
     5
 10
380.869568
 20
242.608688
 11
380.869568
 21
182.608688
  0
POLYLINE
  8
0
 62
     5
 66
     1
 70
     2
  0
VERTEX
  8
0
 10
383.478241
 20
233.478256
  0
VERTEX
  8
0
 10
380.869568
 20
242.608688
  0
VERTEX
  8
0
 10
378.260864
 20
233.478256
  0
SEQEND
  0
POLYLINE
  8
0
 62
     5
 66
     1
 70
     2
  0
VERTEX
  8
0
 10
378.260864
 20
191.739120
  0
VERTEX
  8
0
 10
380.869568
 20
182.608688
  0
VERTEX
  8
0
 10
383.478241
 20
191.739120
  0
SEQEND
  0
LINE
  8
0
 62
     5
 10
271.304321
 20
242.608688
 11
384.782593
 21
242.608688
  0
LINE
  8
0
 62
     5
 10
271.304321
 20
182.608688
 11
384.782593
 21
182.608688
  0
TEXT
  8
0
 62
     7
 10
378.260864
 20
197.282593
 40
13.043478
 41
1.000000
  1
%%c60
  7
KANJI
 50
90.000000
 51
0.000000
  0
LINE
  8
0
 62
     5
 10
339.130432
 20
186.956512
 11
339.130432
 21
238.260864
  0
POLYLINE
  8
0
 62
     5
 66
     1
 70
     2
  0
VERTEX
  8
0
 10
336.521729
 20
231.739120
  0
VERTEX
  8
0
 10
339.130432
 20
222.608688
  0
VERTEX
  8
0
 10
341.739136
 20
231.739120
  0
SEQEND
  0
POLYLINE
  8
0
 62
     5
 66
     1
 70
     2
  0
VERTEX
  8
0
 10
341.739136
 20
193.478256
  0
VERTEX
  8
0
 10
339.130432
 20
202.608688
  0
VERTEX
  8
0
 10
336.521729
 20
193.478256
  0
SEQEND
  0
LINE
  8
0
 62
     5
 10
271.304321
 20
222.608688
 11
343.043457
 21
222.608688
  0
LINE
  8
0
 62
     5
 10
271.304321
 20
202.608688
 11
343.043457
 21
202.608688
  0
TEXT
  8
0
 62
     7
 10
336.521729
 20
188.804337
 40
13.043478
 41
1.000000
  1
%%c20H7
  7
KANJI
 50
90.000000
 51
0.000000
  0
POLYLINE
  8
0
 62
     4
 66
     1
 70
     2
  0
VERTEX
  8
0
 10
211.304337
 20
201.608688
  0
VERTEX
  8
0
 10
211.304337
 20
171.608688
  0
VERTEX
  8
0
 10
212.304337
 20
170.608688
  0
VERTEX
  8
0
 10
250.304337
 20
170.608688
  0
VERTEX
  8
0
 10
251.304337
 20
171.608688
  0
VERTEX
  8
0
 10
251.304337
 20
181.608688
  0
SEQEND
  0
POLYLINE
  8
0
 62
     4
 66
     1
 70
     2
  0
VERTEX
  8
0
 10
252.304337
 20
182.608688
  0
VERTEX
  8
0
 10
270.304321
 20
182.608688
  0
VERTEX
  8
0
 10
271.304321
 20
183.608688
  0
VERTEX
  8
0
 10
271.304321
 20
241.608688
  0
VERTEX
  8
0
 10
270.304321
 20
242.608688
  0
VERTEX
  8
0
 10
252.304337
 20
242.608688
  0
SEQEND
  0
POLYLINE
  8
0
 62
     4
 66
     1
 70
     2
  0
VERTEX
  8
0
 10
251.304337
 20
243.608688
  0
VERTEX
  8
0
 10
251.304337
 20
253.608688
  0
VERTEX
  8
0
 10
250.304337
 20
254.608688
  0
VERTEX
  8
0
 10
212.304337
 20
254.608688
  0
VERTEX
  8
0
 10
211.304337
 20
253.608688
  0
VERTEX
  8
0
 10
211.304337
 20
201.608688
  0
SEQEND
  0
ENDSEC
  0
EOF
