  0
SECTION
  2
HEADER
  9
$ACADVER
  1
AC1003
  9
$INSBASE
 10
0.000000
 20
0.000000
  9
$EXTMIN
 10
0.000000
 20
0.000000
  9
$EXTMAX
 10
980.869565
 20
678.260870
  9
$LIMMIN
 10
0.000000
 20
0.000000
  9
$LIMMAX
 10
980.869565
 20
678.260870
  9
$VIEWCTR
 10
490.434783
 20
339.130435
  9
$VIEWSIZE
 40
678.260870
  0
ENDSEC
  0
SECTION
  2
TABLES
  0
TABLE
  2
LTYPE
 70
     4
  0
LTYPE
  2
CONTINUOUS
 70
    64
  3
SolidLine
 72
    65
 73
     0
 40
0.0
  0
LTYPE
  2
HIDDEN
 70
    64
  3
------------------------
 72
    65
 73
     2
 40
10.434783
 49
6.956522
 49
-3.478261
  0
LTYPE
  2
DASHDOT
 70
    64
  3
--?--?--?--?--?--?--?--
 72
    65
 73
     4
 40
41.739130
 49
31.304348
 49
-3.478261
 49
3.478261
 49
-3.478261
  0
LTYPE
  2
DIVIDE
 70
    64
  3
--??--??--??--??--??--
 72
    65
 73
     6
 40
52.173913
 49
34.782609
 49
-3.478261
 49
3.478261
 49
-3.478261
 49
3.478261
 49
-3.478261
  0
ENDTAB
  0
TABLE
  2
LAYER
 70
     5
  0
LAYER
  2
0
 70
    64
 62
     7
  6
CONTINUOUS
  0
LAYER
  2
HIDDEN
 70
    64
 62
     2
  6
HIDDEN
  0
LAYER
  2
DASHDOT
 70
    64
 62
     6
  6
DASHDOT
  0
LAYER
  2
DIVIDE
 70
    64
 62
     5
  6
DIVIDE
  0
ENDTAB
  0
TABLE
  2
STYLE
 70
     1
  0
STYLE
  2
STANDARD
 70
    64
 40
0.0
 41
1.0
 50
0.0
 71
     0
 42
0.2
  3
TXT
  4

  0
STYLE
  2
KANJI
 70
    64
 40
0.0
 41
1.0
 50
0.0
 71
     0
 42
0.2
  3
TXT
  4
BIGFONT
  0
ENDTAB
  0
TABLE
  2
VIEW
 70
     0
  0
ENDTAB
  0
ENDSEC
  0
SECTION
  2
BLOCKS
  0
ENDSEC
  0
SECTION
  2
ENTITIES
  0
TEXT
  8
0
 62
     7
 10
34.782608
 20
38.260868
 40
13.913043
 41
1.000000
  1
KHK SS4-30
  7
KANJI
 50
0.000000
 51
0.000000
  0
TEXT
  8
0
 62
     7
 10
34.782608
 20
17.391304
 40
13.913043
 41
1.000000
  1

  7
KANJI
 50
0.000000
 51
0.000000
  0
TEXT
  8
0
 62
     7
 10
34.782608
 20
626.086975
 40
15.652174
 41
1.000000
  1
Black oxide
  7
KANJI
 50
0.000000
 51
0.000000
  0
POLYLINE
  8
0
 62
     7
 66
     1
 70
     2
  0
VERTEX
  8
0
 10
834.782593
 20
626.086975
  0
VERTEX
  8
0
 10
821.217346
 20
649.600037
  0
VERTEX
  8
0
 10
875.478271
 20
649.600037
  0
VERTEX
  8
0
 10
861.913025
 20
626.086975
  0
VERTEX
  8
0
 10
848.347839
 20
649.600037
  0
VERTEX
  8
0
 10
834.782593
 20
626.086975
  0
SEQEND
  0
LINE
  8
0
 62
     5
 10
515.652161
 20
347.478271
 11
515.652161
 21
219.478271
  0
POLYLINE
  8
0
 62
     5
 66
     1
 70
     2
  0
VERTEX
  8
0
 10
519.130432
 20
335.304352
  0
VERTEX
  8
0
 10
515.652161
 20
347.478271
  0
VERTEX
  8
0
 10
512.173950
 20
335.304352
  0
SEQEND
  0
POLYLINE
  8
0
 62
     5
 66
     1
 70
     2
  0
VERTEX
  8
0
 10
512.173950
 20
231.652191
  0
VERTEX
  8
0
 10
515.652161
 20
219.478271
  0
VERTEX
  8
0
 10
519.130432
 20
231.652191
  0
SEQEND
  0
LINE
  8
0
 62
     5
 10
341.739136
 20
347.478271
 11
520.869568
 21
347.478271
  0
LINE
  8
0
 62
     5
 10
341.739136
 20
219.478271
 11
520.869568
 21
219.478271
  0
TEXT
  8
0
 62
     7
 10
512.173950
 20
257.391296
 40
17.391304
 41
1.000000
  1
%%c128
  7
KANJI
 50
90.000000
 51
0.000000
  0
LINE
  8
DASHDOT
 62
     7
 10
271.304352
 20
343.478271
 11
332.173920
 21
343.478271
  0
LINE
  8
DASHDOT
 62
     7
 10
271.304352
 20
223.478271
 11
332.173920
 21
223.478271
  0
LINE
  8
DASHDOT
 62
     7
 10
271.304352
 20
283.478271
 11
352.173920
 21
283.478271
  0
LINE
  8
0
 62
     5
 10
321.739136
 20
346.478271
 11
321.739136
 21
347.478271
  0
LINE
  8
0
 62
     5
 10
281.739136
 20
346.478271
 11
281.739136
 21
347.478271
  0
LINE
  8
0
 62
     5
 10
323.239136
 20
333.478271
 11
341.739136
 21
333.478271
  0
LINE
  8
0
 62
     5
 10
323.239136
 20
233.478271
 11
341.739136
 21
233.478271
  0
LINE
  8
0
 62
     5
 10
320.739136
 20
347.478271
 11
341.739136
 21
347.478271
  0
LINE
  8
0
 62
     5
 10
320.739136
 20
219.478271
 11
341.739136
 21
219.478271
  0
LINE
  8
0
 62
     4
 10
281.739136
 20
338.478271
 11
321.739136
 21
338.478271
  0
LINE
  8
0
 62
     4
 10
281.739136
 20
228.478271
 11
321.739136
 21
228.478271
  0
LINE
  8
0
 62
     4
 10
340.739136
 20
273.478271
 11
341.739136
 21
272.478271
  0
LINE
  8
0
 62
     4
 10
340.739136
 20
293.478271
 11
341.739136
 21
294.478271
  0
LINE
  8
0
 62
     4
 10
282.739136
 20
293.478271
 11
282.739136
 21
273.478271
  0
POLYLINE
  8
0
 62
     4
 66
     1
 70
     2
  0
VERTEX
  8
0
 10
281.739136
 20
272.478271
  0
VERTEX
  8
0
 10
282.739136
 20
273.478271
  0
VERTEX
  8
0
 10
340.739136
 20
273.478271
  0
VERTEX
  8
0
 10
340.739136
 20
293.478271
  0
VERTEX
  8
0
 10
282.739136
 20
293.478271
  0
VERTEX
  8
0
 10
281.739136
 20
294.478271
  0
SEQEND
  0
ARC
  8
0
 62
     4
 10
323.239136
 20
334.978271
 40
1.500000
 50
180.0
 51
270.0
  0
ARC
  8
0
 62
     4
 10
323.239136
 20
231.978271
 40
1.500000
 50
90.0
 51
180.0
  0
LINE
  8
0
 62
     5
 10
341.739136
 20
332.478271
 11
341.739136
 21
347.478271
  0
LINE
  8
0
 62
     5
 10
281.739136
 20
441.391296
 11
321.739136
 21
441.391296
  0
POLYLINE
  8
0
 62
     5
 66
     1
 70
     2
  0
VERTEX
  8
0
 10
293.913055
 20
444.869568
  0
VERTEX
  8
0
 10
281.739136
 20
441.391296
  0
VERTEX
  8
0
 10
293.913055
 20
437.913055
  0
SEQEND
  0
POLYLINE
  8
0
 62
     5
 66
     1
 70
     2
  0
VERTEX
  8
0
 10
309.565216
 20
437.913055
  0
VERTEX
  8
0
 10
321.739136
 20
441.391296
  0
VERTEX
  8
0
 10
309.565216
 20
444.869568
  0
SEQEND
  0
LINE
  8
0
 62
     5
 10
321.739136
 20
347.478271
 11
321.739136
 21
446.608704
  0
TEXT
  8
0
 62
     7
 10
290.434784
 20
444.173920
 40
17.391304
 41
1.000000
  1
40
  7
KANJI
 50
0.000000
 51
0.000000
  0
LINE
  8
0
 62
     5
 10
281.739136
 20
469.217407
 11
341.739136
 21
469.217407
  0
POLYLINE
  8
0
 62
     5
 66
     1
 70
     2
  0
VERTEX
  8
0
 10
293.913055
 20
472.695679
  0
VERTEX
  8
0
 10
281.739136
 20
469.217407
  0
VERTEX
  8
0
 10
293.913055
 20
465.739136
  0
SEQEND
  0
POLYLINE
  8
0
 62
     5
 66
     1
 70
     2
  0
VERTEX
  8
0
 10
329.565216
 20
465.739136
  0
VERTEX
  8
0
 10
341.739136
 20
469.217407
  0
VERTEX
  8
0
 10
329.565216
 20
472.695679
  0
SEQEND
  0
LINE
  8
0
 62
     5
 10
281.739136
 20
347.478271
 11
281.739136
 21
474.434814
  0
LINE
  8
0
 62
     5
 10
341.739136
 20
347.478271
 11
341.739136
 21
474.434814
  0
TEXT
  8
0
 62
     7
 10
300.434784
 20
472.000000
 40
17.391304
 41
1.000000
  1
60
  7
KANJI
 50
0.000000
 51
0.000000
  0
LINE
  8
0
 62
     5
 10
362.608704
 20
441.391296
 11
300.869568
 21
441.391296
  0
POLYLINE
  8
0
 62
     5
 66
     1
 70
     2
  0
VERTEX
  8
0
 10
309.565216
 20
437.913055
  0
VERTEX
  8
0
 10
321.739136
 20
441.391296
  0
VERTEX
  8
0
 10
309.565216
 20
444.869568
  0
SEQEND
  0
POLYLINE
  8
0
 62
     5
 66
     1
 70
     2
  0
VERTEX
  8
0
 10
353.913055
 20
444.869568
  0
VERTEX
  8
0
 10
341.739136
 20
441.391296
  0
VERTEX
  8
0
 10
353.913055
 20
437.913055
  0
SEQEND
  0
TEXT
  8
0
 62
     7
 10
352.173920
 20
444.173920
 40
17.391304
 41
1.000000
  1
20
  7
KANJI
 50
0.000000
 51
0.000000
  0
LINE
  8
0
 62
     5
 10
487.826111
 20
333.478271
 11
487.826111
 21
233.478271
  0
POLYLINE
  8
0
 62
     5
 66
     1
 70
     2
  0
VERTEX
  8
0
 10
491.304352
 20
321.304352
  0
VERTEX
  8
0
 10
487.826111
 20
333.478271
  0
VERTEX
  8
0
 10
484.347839
 20
321.304352
  0
SEQEND
  0
POLYLINE
  8
0
 62
     5
 66
     1
 70
     2
  0
VERTEX
  8
0
 10
484.347839
 20
245.652191
  0
VERTEX
  8
0
 10
487.826111
 20
233.478271
  0
VERTEX
  8
0
 10
491.304352
 20
245.652191
  0
SEQEND
  0
LINE
  8
0
 62
     5
 10
341.739136
 20
333.478271
 11
493.043488
 21
333.478271
  0
LINE
  8
0
 62
     5
 10
341.739136
 20
233.478271
 11
493.043488
 21
233.478271
  0
TEXT
  8
0
 62
     7
 10
484.347839
 20
257.391296
 40
17.391304
 41
1.000000
  1
%%c100
  7
KANJI
 50
90.000000
 51
0.000000
  0
LINE
  8
0
 62
     5
 10
432.173920
 20
252.608704
 11
432.173920
 21
314.347839
  0
POLYLINE
  8
0
 62
     5
 66
     1
 70
     2
  0
VERTEX
  8
0
 10
428.695679
 20
305.652191
  0
VERTEX
  8
0
 10
432.173920
 20
293.478271
  0
VERTEX
  8
0
 10
435.652161
 20
305.652191
  0
SEQEND
  0
POLYLINE
  8
0
 62
     5
 66
     1
 70
     2
  0
VERTEX
  8
0
 10
435.652161
 20
261.304352
  0
VERTEX
  8
0
 10
432.173920
 20
273.478271
  0
VERTEX
  8
0
 10
428.695679
 20
261.304352
  0
SEQEND
  0
LINE
  8
0
 62
     5
 10
341.739136
 20
293.478271
 11
437.391296
 21
293.478271
  0
LINE
  8
0
 62
     5
 10
341.739136
 20
273.478271
 11
437.391296
 21
273.478271
  0
TEXT
  8
0
 62
     7
 10
428.695679
 20
251.739136
 40
17.391304
 41
1.000000
  1
%%c20H7
  7
KANJI
 50
90.000000
 51
0.000000
  0
POLYLINE
  8
0
 62
     4
 66
     1
 70
     2
  0
VERTEX
  8
0
 10
281.739136
 20
272.478271
  0
VERTEX
  8
0
 10
281.739136
 20
220.478271
  0
VERTEX
  8
0
 10
282.739136
 20
219.478271
  0
VERTEX
  8
0
 10
320.739136
 20
219.478271
  0
VERTEX
  8
0
 10
321.739136
 20
220.478271
  0
VERTEX
  8
0
 10
321.739136
 20
231.978271
  0
SEQEND
  0
POLYLINE
  8
0
 62
     4
 66
     1
 70
     2
  0
VERTEX
  8
0
 10
323.239136
 20
233.478271
  0
VERTEX
  8
0
 10
340.739136
 20
233.478271
  0
VERTEX
  8
0
 10
341.739136
 20
234.478271
  0
VERTEX
  8
0
 10
341.739136
 20
332.478271
  0
VERTEX
  8
0
 10
340.739136
 20
333.478271
  0
VERTEX
  8
0
 10
323.239136
 20
333.478271
  0
SEQEND
  0
POLYLINE
  8
0
 62
     4
 66
     1
 70
     2
  0
VERTEX
  8
0
 10
321.739136
 20
334.978271
  0
VERTEX
  8
0
 10
321.739136
 20
346.478271
  0
VERTEX
  8
0
 10
320.739136
 20
347.478271
  0
VERTEX
  8
0
 10
282.739136
 20
347.478271
  0
VERTEX
  8
0
 10
281.739136
 20
346.478271
  0
VERTEX
  8
0
 10
281.739136
 20
272.478271
  0
SEQEND
  0
ENDSEC
  0
EOF
