  0
SECTION
  2
HEADER
  9
$ACADVER
  1
AC1003
  9
$INSBASE
 10
0.000000
 20
0.000000
  9
$EXTMIN
 10
0.000000
 20
0.000000
  9
$EXTMAX
 10
919.565217
 20
635.869565
  9
$LIMMIN
 10
0.000000
 20
0.000000
  9
$LIMMAX
 10
919.565217
 20
635.869565
  9
$VIEWCTR
 10
459.782609
 20
317.934783
  9
$VIEWSIZE
 40
635.869565
  0
ENDSEC
  0
SECTION
  2
TABLES
  0
TABLE
  2
LTYPE
 70
     4
  0
LTYPE
  2
CONTINUOUS
 70
    64
  3
SolidLine
 72
    65
 73
     0
 40
0.0
  0
LTYPE
  2
HIDDEN
 70
    64
  3
------------------------
 72
    65
 73
     2
 40
9.782609
 49
6.521739
 49
-3.260870
  0
LTYPE
  2
DASHDOT
 70
    64
  3
--?--?--?--?--?--?--?--
 72
    65
 73
     4
 40
39.130435
 49
29.347826
 49
-3.260870
 49
3.260870
 49
-3.260870
  0
LTYPE
  2
DIVIDE
 70
    64
  3
--??--??--??--??--??--
 72
    65
 73
     6
 40
48.913043
 49
32.608696
 49
-3.260870
 49
3.260870
 49
-3.260870
 49
3.260870
 49
-3.260870
  0
ENDTAB
  0
TABLE
  2
LAYER
 70
     5
  0
LAYER
  2
0
 70
    64
 62
     7
  6
CONTINUOUS
  0
LAYER
  2
HIDDEN
 70
    64
 62
     2
  6
HIDDEN
  0
LAYER
  2
DASHDOT
 70
    64
 62
     6
  6
DASHDOT
  0
LAYER
  2
DIVIDE
 70
    64
 62
     5
  6
DIVIDE
  0
ENDTAB
  0
TABLE
  2
STYLE
 70
     1
  0
STYLE
  2
STANDARD
 70
    64
 40
0.0
 41
1.0
 50
0.0
 71
     0
 42
0.2
  3
TXT
  4

  0
STYLE
  2
KANJI
 70
    64
 40
0.0
 41
1.0
 50
0.0
 71
     0
 42
0.2
  3
TXT
  4
BIGFONT
  0
ENDTAB
  0
TABLE
  2
VIEW
 70
     0
  0
ENDTAB
  0
ENDSEC
  0
SECTION
  2
BLOCKS
  0
ENDSEC
  0
SECTION
  2
ENTITIES
  0
TEXT
  8
0
 62
     7
 10
32.608696
 20
35.869564
 40
13.043478
 41
1.000000
  1
KHK SS4-27
  7
KANJI
 50
0.000000
 51
0.000000
  0
TEXT
  8
0
 62
     7
 10
32.608696
 20
16.304348
 40
13.043478
 41
1.000000
  1

  7
KANJI
 50
0.000000
 51
0.000000
  0
TEXT
  8
0
 62
     7
 10
32.608696
 20
586.956543
 40
14.673913
 41
1.000000
  1
Black oxide
  7
KANJI
 50
0.000000
 51
0.000000
  0
POLYLINE
  8
0
 62
     7
 66
     1
 70
     2
  0
VERTEX
  8
0
 10
782.608704
 20
586.956543
  0
VERTEX
  8
0
 10
769.891296
 20
609.000000
  0
VERTEX
  8
0
 10
820.760864
 20
609.000000
  0
VERTEX
  8
0
 10
808.043457
 20
586.956543
  0
VERTEX
  8
0
 10
795.326111
 20
609.000000
  0
VERTEX
  8
0
 10
782.608704
 20
586.956543
  0
SEQEND
  0
LINE
  8
0
 62
     5
 10
487.173889
 20
323.760864
 11
487.173889
 21
207.760864
  0
POLYLINE
  8
0
 62
     5
 66
     1
 70
     2
  0
VERTEX
  8
0
 10
490.434753
 20
312.347809
  0
VERTEX
  8
0
 10
487.173889
 20
323.760864
  0
VERTEX
  8
0
 10
483.913025
 20
312.347809
  0
SEQEND
  0
POLYLINE
  8
0
 62
     5
 66
     1
 70
     2
  0
VERTEX
  8
0
 10
483.913025
 20
219.173904
  0
VERTEX
  8
0
 10
487.173889
 20
207.760864
  0
VERTEX
  8
0
 10
490.434753
 20
219.173904
  0
SEQEND
  0
LINE
  8
0
 62
     5
 10
324.130432
 20
323.760864
 11
492.065216
 21
323.760864
  0
LINE
  8
0
 62
     5
 10
324.130432
 20
207.760864
 11
492.065216
 21
207.760864
  0
TEXT
  8
0
 62
     7
 10
483.913025
 20
241.304352
 40
16.304348
 41
1.000000
  1
%%c116
  7
KANJI
 50
90.000000
 51
0.000000
  0
LINE
  8
DASHDOT
 62
     7
 10
254.347824
 20
319.760864
 11
313.913025
 21
319.760864
  0
LINE
  8
DASHDOT
 62
     7
 10
254.347824
 20
211.760864
 11
313.913025
 21
211.760864
  0
LINE
  8
DASHDOT
 62
     7
 10
254.347824
 20
265.760864
 11
333.913025
 21
265.760864
  0
LINE
  8
0
 62
     5
 10
304.130432
 20
322.760864
 11
304.130432
 21
323.760864
  0
LINE
  8
0
 62
     5
 10
264.130432
 20
322.760864
 11
264.130432
 21
323.760864
  0
LINE
  8
0
 62
     5
 10
305.630432
 20
310.760864
 11
324.130432
 21
310.760864
  0
LINE
  8
0
 62
     5
 10
305.630432
 20
220.760864
 11
324.130432
 21
220.760864
  0
LINE
  8
0
 62
     5
 10
303.130432
 20
323.760864
 11
324.130432
 21
323.760864
  0
LINE
  8
0
 62
     5
 10
303.130432
 20
207.760864
 11
324.130432
 21
207.760864
  0
LINE
  8
0
 62
     4
 10
264.130432
 20
314.760864
 11
304.130432
 21
314.760864
  0
LINE
  8
0
 62
     4
 10
264.130432
 20
216.760864
 11
304.130432
 21
216.760864
  0
LINE
  8
0
 62
     4
 10
323.130432
 20
255.760864
 11
324.130432
 21
254.760864
  0
LINE
  8
0
 62
     4
 10
323.130432
 20
275.760864
 11
324.130432
 21
276.760864
  0
LINE
  8
0
 62
     4
 10
265.130432
 20
275.760864
 11
265.130432
 21
255.760864
  0
POLYLINE
  8
0
 62
     4
 66
     1
 70
     2
  0
VERTEX
  8
0
 10
264.130432
 20
254.760864
  0
VERTEX
  8
0
 10
265.130432
 20
255.760864
  0
VERTEX
  8
0
 10
323.130432
 20
255.760864
  0
VERTEX
  8
0
 10
323.130432
 20
275.760864
  0
VERTEX
  8
0
 10
265.130432
 20
275.760864
  0
VERTEX
  8
0
 10
264.130432
 20
276.760864
  0
SEQEND
  0
ARC
  8
0
 62
     4
 10
305.630432
 20
312.260864
 40
1.500000
 50
180.0
 51
270.0
  0
ARC
  8
0
 62
     4
 10
305.630432
 20
219.260864
 40
1.500000
 50
90.0
 51
180.0
  0
LINE
  8
0
 62
     5
 10
324.130432
 20
309.760864
 11
324.130432
 21
323.760864
  0
LINE
  8
0
 62
     5
 10
264.130432
 20
411.804352
 11
304.130432
 21
411.804352
  0
POLYLINE
  8
0
 62
     5
 66
     1
 70
     2
  0
VERTEX
  8
0
 10
275.543488
 20
415.065216
  0
VERTEX
  8
0
 10
264.130432
 20
411.804352
  0
VERTEX
  8
0
 10
275.543488
 20
408.543488
  0
SEQEND
  0
POLYLINE
  8
0
 62
     5
 66
     1
 70
     2
  0
VERTEX
  8
0
 10
292.717377
 20
408.543488
  0
VERTEX
  8
0
 10
304.130432
 20
411.804352
  0
VERTEX
  8
0
 10
292.717377
 20
415.065216
  0
SEQEND
  0
LINE
  8
0
 62
     5
 10
304.130432
 20
323.760864
 11
304.130432
 21
416.695679
  0
TEXT
  8
0
 62
     7
 10
273.532593
 20
414.413025
 40
16.304348
 41
1.000000
  1
40
  7
KANJI
 50
0.000000
 51
0.000000
  0
LINE
  8
0
 62
     5
 10
264.130432
 20
437.891296
 11
324.130432
 21
437.891296
  0
POLYLINE
  8
0
 62
     5
 66
     1
 70
     2
  0
VERTEX
  8
0
 10
275.543488
 20
441.152161
  0
VERTEX
  8
0
 10
264.130432
 20
437.891296
  0
VERTEX
  8
0
 10
275.543488
 20
434.630432
  0
SEQEND
  0
POLYLINE
  8
0
 62
     5
 66
     1
 70
     2
  0
VERTEX
  8
0
 10
312.717377
 20
434.630432
  0
VERTEX
  8
0
 10
324.130432
 20
437.891296
  0
VERTEX
  8
0
 10
312.717377
 20
441.152161
  0
SEQEND
  0
LINE
  8
0
 62
     5
 10
264.130432
 20
323.760864
 11
264.130432
 21
442.782593
  0
LINE
  8
0
 62
     5
 10
324.130432
 20
323.760864
 11
324.130432
 21
442.782593
  0
TEXT
  8
0
 62
     7
 10
283.532593
 20
440.500000
 40
16.304348
 41
1.000000
  1
60
  7
KANJI
 50
0.000000
 51
0.000000
  0
LINE
  8
0
 62
     5
 10
343.695648
 20
411.804352
 11
284.565216
 21
411.804352
  0
POLYLINE
  8
0
 62
     5
 66
     1
 70
     2
  0
VERTEX
  8
0
 10
292.717377
 20
408.543488
  0
VERTEX
  8
0
 10
304.130432
 20
411.804352
  0
VERTEX
  8
0
 10
292.717377
 20
415.065216
  0
SEQEND
  0
POLYLINE
  8
0
 62
     5
 66
     1
 70
     2
  0
VERTEX
  8
0
 10
335.543457
 20
415.065216
  0
VERTEX
  8
0
 10
324.130432
 20
411.804352
  0
VERTEX
  8
0
 10
335.543457
 20
408.543488
  0
SEQEND
  0
TEXT
  8
0
 62
     7
 10
333.913025
 20
414.413025
 40
16.304348
 41
1.000000
  1
20
  7
KANJI
 50
0.000000
 51
0.000000
  0
LINE
  8
0
 62
     5
 10
461.086975
 20
310.760864
 11
461.086975
 21
220.760864
  0
POLYLINE
  8
0
 62
     5
 66
     1
 70
     2
  0
VERTEX
  8
0
 10
464.347839
 20
299.347809
  0
VERTEX
  8
0
 10
461.086975
 20
310.760864
  0
VERTEX
  8
0
 10
457.826111
 20
299.347809
  0
SEQEND
  0
POLYLINE
  8
0
 62
     5
 66
     1
 70
     2
  0
VERTEX
  8
0
 10
457.826111
 20
232.173904
  0
VERTEX
  8
0
 10
461.086975
 20
220.760864
  0
VERTEX
  8
0
 10
464.347839
 20
232.173904
  0
SEQEND
  0
LINE
  8
0
 62
     5
 10
324.130432
 20
310.760864
 11
465.978271
 21
310.760864
  0
LINE
  8
0
 62
     5
 10
324.130432
 20
220.760864
 11
465.978271
 21
220.760864
  0
TEXT
  8
0
 62
     7
 10
457.826111
 20
246.603256
 40
16.304348
 41
1.000000
  1
%%c90
  7
KANJI
 50
90.000000
 51
0.000000
  0
LINE
  8
0
 62
     5
 10
408.913025
 20
236.195648
 11
408.913025
 21
295.326080
  0
POLYLINE
  8
0
 62
     5
 66
     1
 70
     2
  0
VERTEX
  8
0
 10
405.652161
 20
287.173920
  0
VERTEX
  8
0
 10
408.913025
 20
275.760864
  0
VERTEX
  8
0
 10
412.173889
 20
287.173920
  0
SEQEND
  0
POLYLINE
  8
0
 62
     5
 66
     1
 70
     2
  0
VERTEX
  8
0
 10
412.173889
 20
244.347824
  0
VERTEX
  8
0
 10
408.913025
 20
255.760864
  0
VERTEX
  8
0
 10
405.652161
 20
244.347824
  0
SEQEND
  0
LINE
  8
0
 62
     5
 10
324.130432
 20
275.760864
 11
413.804352
 21
275.760864
  0
LINE
  8
0
 62
     5
 10
324.130432
 20
255.760864
 11
413.804352
 21
255.760864
  0
TEXT
  8
0
 62
     7
 10
405.652161
 20
236.005432
 40
16.304348
 41
1.000000
  1
%%c20H7
  7
KANJI
 50
90.000000
 51
0.000000
  0
POLYLINE
  8
0
 62
     4
 66
     1
 70
     2
  0
VERTEX
  8
0
 10
264.130432
 20
254.760864
  0
VERTEX
  8
0
 10
264.130432
 20
208.760864
  0
VERTEX
  8
0
 10
265.130432
 20
207.760864
  0
VERTEX
  8
0
 10
303.130432
 20
207.760864
  0
VERTEX
  8
0
 10
304.130432
 20
208.760864
  0
VERTEX
  8
0
 10
304.130432
 20
219.260864
  0
SEQEND
  0
POLYLINE
  8
0
 62
     4
 66
     1
 70
     2
  0
VERTEX
  8
0
 10
305.630432
 20
220.760864
  0
VERTEX
  8
0
 10
323.130432
 20
220.760864
  0
VERTEX
  8
0
 10
324.130432
 20
221.760864
  0
VERTEX
  8
0
 10
324.130432
 20
309.760864
  0
VERTEX
  8
0
 10
323.130432
 20
310.760864
  0
VERTEX
  8
0
 10
305.630432
 20
310.760864
  0
SEQEND
  0
POLYLINE
  8
0
 62
     4
 66
     1
 70
     2
  0
VERTEX
  8
0
 10
304.130432
 20
312.260864
  0
VERTEX
  8
0
 10
304.130432
 20
322.760864
  0
VERTEX
  8
0
 10
303.130432
 20
323.760864
  0
VERTEX
  8
0
 10
265.130432
 20
323.760864
  0
VERTEX
  8
0
 10
264.130432
 20
322.760864
  0
VERTEX
  8
0
 10
264.130432
 20
254.760864
  0
SEQEND
  0
ENDSEC
  0
EOF
