  0
SECTION
  2
HEADER
  9
$ACADVER
  1
AC1003
  9
$INSBASE
 10
0.000000
 20
0.000000
  9
$EXTMIN
 10
0.000000
 20
0.000000
  9
$EXTMAX
 10
1056.000000
 20
730.212766
  9
$LIMMIN
 10
0.000000
 20
0.000000
  9
$LIMMAX
 10
1056.000000
 20
730.212766
  9
$VIEWCTR
 10
528.000000
 20
365.106383
  9
$VIEWSIZE
 40
730.212766
  0
ENDSEC
  0
SECTION
  2
TABLES
  0
TABLE
  2
LTYPE
 70
     4
  0
LTYPE
  2
CONTINUOUS
 70
    64
  3
SolidLine
 72
    65
 73
     0
 40
0.0
  0
LTYPE
  2
HIDDEN
 70
    64
  3
------------------------
 72
    65
 73
     2
 40
11.234043
 49
7.489362
 49
-3.744681
  0
LTYPE
  2
DASHDOT
 70
    64
  3
--?--?--?--?--?--?--?--
 72
    65
 73
     4
 40
44.936170
 49
33.702128
 49
-3.744681
 49
3.744681
 49
-3.744681
  0
LTYPE
  2
DIVIDE
 70
    64
  3
--??--??--??--??--??--
 72
    65
 73
     6
 40
56.170213
 49
37.446809
 49
-3.744681
 49
3.744681
 49
-3.744681
 49
3.744681
 49
-3.744681
  0
ENDTAB
  0
TABLE
  2
LAYER
 70
     5
  0
LAYER
  2
0
 70
    64
 62
     7
  6
CONTINUOUS
  0
LAYER
  2
HIDDEN
 70
    64
 62
     2
  6
HIDDEN
  0
LAYER
  2
DASHDOT
 70
    64
 62
     6
  6
DASHDOT
  0
LAYER
  2
DIVIDE
 70
    64
 62
     5
  6
DIVIDE
  0
ENDTAB
  0
TABLE
  2
STYLE
 70
     1
  0
STYLE
  2
STANDARD
 70
    64
 40
0.0
 41
1.0
 50
0.0
 71
     0
 42
0.2
  3
TXT
  4

  0
STYLE
  2
KANJI
 70
    64
 40
0.0
 41
1.0
 50
0.0
 71
     0
 42
0.2
  3
TXT
  4
BIGFONT
  0
ENDTAB
  0
TABLE
  2
VIEW
 70
     0
  0
ENDTAB
  0
ENDSEC
  0
SECTION
  2
BLOCKS
  0
ENDSEC
  0
SECTION
  2
ENTITIES
  0
TEXT
  8
0
 62
     7
 10
37.446808
 20
41.191490
 40
14.978723
 41
1.000000
  1
KHK SS4-80
  7
KANJI
 50
0.000000
 51
0.000000
  0
TEXT
  8
0
 62
     7
 10
37.446808
 20
18.723404
 40
14.978723
 41
1.000000
  1

  7
KANJI
 50
0.000000
 51
0.000000
  0
TEXT
  8
0
 62
     7
 10
37.446808
 20
674.042542
 40
16.851064
 41
1.000000
  1
Black oxide
  7
KANJI
 50
0.000000
 51
0.000000
  0
POLYLINE
  8
0
 62
     7
 66
     1
 70
     2
  0
VERTEX
  8
0
 10
786.382996
 20
674.042542
  0
VERTEX
  8
0
 10
771.778748
 20
699.356567
  0
VERTEX
  8
0
 10
830.195740
 20
699.356567
  0
VERTEX
  8
0
 10
815.591492
 20
674.042542
  0
VERTEX
  8
0
 10
800.987244
 20
699.356567
  0
VERTEX
  8
0
 10
786.382996
 20
674.042542
  0
SEQEND
  0
ARC
  8
0
 62
     7
 10
875.225525
 20
682.363525
 40
10.953192
 50
10.0
 51
180.0
  0
ARC
  8
0
 62
     7
 10
896.799133
 20
686.167542
 40
10.953192
 50
180.0
 51
10.0
  0
POLYLINE
  8
0
 62
     7
 66
     1
 70
     2
  0
VERTEX
  8
0
 10
852.588928
 20
699.356567
  0
VERTEX
  8
0
 10
848.694458
 20
695.462097
  0
VERTEX
  8
0
 10
848.694458
 20
677.937012
  0
VERTEX
  8
0
 10
852.588928
 20
674.042542
  0
SEQEND
  0
POLYLINE
  8
0
 62
     7
 66
     1
 70
     2
  0
VERTEX
  8
0
 10
921.715759
 20
699.356567
  0
VERTEX
  8
0
 10
925.610229
 20
695.462097
  0
VERTEX
  8
0
 10
925.610229
 20
677.937012
  0
VERTEX
  8
0
 10
921.715759
 20
674.042542
  0
SEQEND
  0
LINE
  8
0
 62
     5
 10
497.872314
 20
449.191467
 11
497.872314
 21
161.191467
  0
POLYLINE
  8
0
 62
     5
 66
     1
 70
     2
  0
VERTEX
  8
0
 10
501.617004
 20
436.085083
  0
VERTEX
  8
0
 10
497.872314
 20
449.191467
  0
VERTEX
  8
0
 10
494.127655
 20
436.085083
  0
SEQEND
  0
POLYLINE
  8
0
 62
     5
 66
     1
 70
     2
  0
VERTEX
  8
0
 10
494.127655
 20
174.297852
  0
VERTEX
  8
0
 10
497.872314
 20
161.191467
  0
VERTEX
  8
0
 10
501.617004
 20
174.297852
  0
SEQEND
  0
LINE
  8
0
 62
     5
 10
303.148926
 20
449.191467
 11
503.489349
 21
449.191467
  0
LINE
  8
0
 62
     5
 10
303.148926
 20
161.191467
 11
503.489349
 21
161.191467
  0
TEXT
  8
0
 62
     7
 10
494.127655
 20
264.936157
 40
18.723404
 41
1.000000
  1
(%%c288)
  7
KANJI
 50
90.000000
 51
0.000000
  0
LINE
  8
0
 62
     5
 10
527.829773
 20
469.191467
 11
527.829773
 21
141.191467
  0
POLYLINE
  8
0
 62
     5
 66
     1
 70
     2
  0
VERTEX
  8
0
 10
531.574463
 20
456.085083
  0
VERTEX
  8
0
 10
527.829773
 20
469.191467
  0
VERTEX
  8
0
 10
524.085083
 20
456.085083
  0
SEQEND
  0
POLYLINE
  8
0
 62
     5
 66
     1
 70
     2
  0
VERTEX
  8
0
 10
524.085083
 20
154.297852
  0
VERTEX
  8
0
 10
527.829773
 20
141.191467
  0
VERTEX
  8
0
 10
531.574463
 20
154.297852
  0
SEQEND
  0
LINE
  8
0
 62
     5
 10
303.148926
 20
469.191467
 11
533.446777
 21
469.191467
  0
LINE
  8
0
 62
     5
 10
303.148926
 20
141.191467
 11
533.446777
 21
141.191467
  0
TEXT
  8
0
 62
     7
 10
524.085083
 20
277.106354
 40
18.723404
 41
1.000000
  1
%%c328
  7
KANJI
 50
90.000000
 51
0.000000
  0
LINE
  8
0
 62
     5
 10
295.617004
 20
370.936157
 11
238.680847
 21
370.936157
  0
POLYLINE
  8
0
 62
     5
 66
     1
 70
     2
  0
VERTEX
  8
0
 10
248.042542
 20
367.191467
  0
VERTEX
  8
0
 10
261.148926
 20
370.936157
  0
VERTEX
  8
0
 10
248.042542
 20
374.680847
  0
SEQEND
  0
POLYLINE
  8
0
 62
     5
 66
     1
 70
     2
  0
VERTEX
  8
0
 10
286.255310
 20
374.680847
  0
VERTEX
  8
0
 10
273.148926
 20
370.936157
  0
VERTEX
  8
0
 10
286.255310
 20
367.191467
  0
SEQEND
  0
TEXT
  8
0
 62
     7
 10
242.808502
 20
373.931885
 40
18.723404
 41
1.000000
  1
(12)
  7
KANJI
 50
0.000000
 51
0.000000
  0
ARC
  8
0
 62
     4
 10
259.148926
 20
367.191467
 40
2.000000
 50
270.0
 51
0.0
  0
ARC
  8
0
 62
     4
 10
259.148926
 20
447.191467
 40
2.000000
 50
0.0
 51
90.0
  0
ARC
  8
0
 62
     4
 10
275.148926
 20
447.191467
 40
2.000000
 50
90.0
 51
180.0
  0
ARC
  8
0
 62
     4
 10
275.148926
 20
163.191467
 40
2.000000
 50
180.0
 51
270.0
  0
ARC
  8
0
 62
     4
 10
259.148926
 20
163.191467
 40
2.000000
 50
270.0
 51
0.0
  0
ARC
  8
0
 62
     4
 10
259.148926
 20
243.191467
 40
2.000000
 50
0.0
 51
90.0
  0
LINE
  8
DASHDOT
 62
     7
 10
235.914886
 20
465.191467
 11
298.382965
 21
465.191467
  0
LINE
  8
DASHDOT
 62
     7
 10
235.914886
 20
145.191467
 11
298.382965
 21
145.191467
  0
LINE
  8
DASHDOT
 62
     7
 10
235.914886
 20
305.191467
 11
314.382965
 21
305.191467
  0
LINE
  8
0
 62
     5
 10
287.148926
 20
468.191467
 11
287.148926
 21
469.191467
  0
LINE
  8
0
 62
     5
 10
247.148926
 20
469.191467
 11
247.148926
 21
468.191467
  0
LINE
  8
0
 62
     5
 10
286.148926
 20
469.191467
 11
303.148926
 21
469.191467
  0
LINE
  8
0
 62
     5
 10
286.148926
 20
141.191467
 11
303.148926
 21
141.191467
  0
LINE
  8
0
 62
     4
 10
247.148926
 20
460.191467
 11
287.148926
 21
460.191467
  0
LINE
  8
0
 62
     4
 10
247.148926
 20
150.191467
 11
287.148926
 21
150.191467
  0
LINE
  8
0
 62
     4
 10
303.148926
 20
321.191467
 11
302.148926
 21
320.191467
  0
LINE
  8
0
 62
     4
 10
303.148926
 20
289.191467
 11
302.148926
 21
290.191467
  0
LINE
  8
0
 62
     4
 10
247.148926
 20
289.191467
 11
248.148926
 21
290.191467
  0
LINE
  8
0
 62
     4
 10
259.148926
 20
365.191467
 11
247.148926
 21
365.191467
  0
LINE
  8
0
 62
     4
 10
261.148926
 20
447.191467
 11
261.148926
 21
367.191467
  0
LINE
  8
0
 62
     4
 10
247.148926
 20
449.191467
 11
259.148926
 21
449.191467
  0
LINE
  8
0
 62
     4
 10
287.148926
 20
449.191467
 11
275.148926
 21
449.191467
  0
LINE
  8
0
 62
     4
 10
275.148926
 20
161.191467
 11
287.148926
 21
161.191467
  0
LINE
  8
0
 62
     4
 10
259.148926
 20
161.191467
 11
247.148926
 21
161.191467
  0
LINE
  8
0
 62
     4
 10
261.148926
 20
243.191467
 11
261.148926
 21
163.191467
  0
LINE
  8
0
 62
     4
 10
247.148926
 20
245.191467
 11
259.148926
 21
245.191467
  0
POLYLINE
  8
0
 62
     4
 66
     1
 70
     2
  0
VERTEX
  8
0
 10
247.148926
 20
321.191467
  0
VERTEX
  8
0
 10
248.148926
 20
320.191467
  0
VERTEX
  8
0
 10
248.148926
 20
290.191467
  0
VERTEX
  8
0
 10
302.148926
 20
290.191467
  0
VERTEX
  8
0
 10
302.148926
 20
320.191467
  0
VERTEX
  8
0
 10
248.148926
 20
320.191467
  0
SEQEND
  0
LINE
  8
0
 62
     5
 10
287.148926
 20
161.191467
 11
303.148926
 21
161.191467
  0
LINE
  8
0
 62
     5
 10
287.148926
 20
449.191467
 11
303.148926
 21
449.191467
  0
LINE
  8
0
 62
     5
 10
303.148926
 20
364.191467
 11
303.148926
 21
469.191467
  0
LINE
  8
0
 62
     5
 10
247.148926
 20
581.531860
 11
303.148926
 21
581.531860
  0
POLYLINE
  8
0
 62
     5
 66
     1
 70
     2
  0
VERTEX
  8
0
 10
260.255310
 20
585.276611
  0
VERTEX
  8
0
 10
247.148926
 20
581.531860
  0
VERTEX
  8
0
 10
260.255310
 20
577.787231
  0
SEQEND
  0
POLYLINE
  8
0
 62
     5
 66
     1
 70
     2
  0
VERTEX
  8
0
 10
290.042542
 20
577.787231
  0
VERTEX
  8
0
 10
303.148926
 20
581.531860
  0
VERTEX
  8
0
 10
290.042542
 20
585.276611
  0
SEQEND
  0
LINE
  8
0
 62
     5
 10
247.148926
 20
469.191467
 11
247.148926
 21
587.148926
  0
LINE
  8
0
 62
     5
 10
303.148926
 20
469.191467
 11
303.148926
 21
587.148926
  0
TEXT
  8
0
 62
     7
 10
262.978699
 20
584.527649
 40
18.723404
 41
1.000000
  1
56
  7
KANJI
 50
0.000000
 51
0.000000
  0
LINE
  8
0
 62
     5
 10
247.148926
 20
551.574463
 11
287.148926
 21
551.574463
  0
POLYLINE
  8
0
 62
     5
 66
     1
 70
     2
  0
VERTEX
  8
0
 10
260.255310
 20
555.319092
  0
VERTEX
  8
0
 10
247.148926
 20
551.574463
  0
VERTEX
  8
0
 10
260.255310
 20
547.829773
  0
SEQEND
  0
POLYLINE
  8
0
 62
     5
 66
     1
 70
     2
  0
VERTEX
  8
0
 10
274.042542
 20
547.829773
  0
VERTEX
  8
0
 10
287.148926
 20
551.574463
  0
VERTEX
  8
0
 10
274.042542
 20
555.319092
  0
SEQEND
  0
LINE
  8
0
 62
     5
 10
287.148926
 20
469.191467
 11
287.148926
 21
557.191467
  0
TEXT
  8
0
 62
     7
 10
254.978714
 20
554.570190
 40
18.723404
 41
1.000000
  1
40
  7
KANJI
 50
0.000000
 51
0.000000
  0
LINE
  8
0
 62
     5
 10
325.617004
 20
551.574463
 11
264.680847
 21
551.574463
  0
POLYLINE
  8
0
 62
     5
 66
     1
 70
     2
  0
VERTEX
  8
0
 10
274.042542
 20
547.829773
  0
VERTEX
  8
0
 10
287.148926
 20
551.574463
  0
VERTEX
  8
0
 10
274.042542
 20
555.319092
  0
SEQEND
  0
POLYLINE
  8
0
 62
     5
 66
     1
 70
     2
  0
VERTEX
  8
0
 10
316.255310
 20
555.319092
  0
VERTEX
  8
0
 10
303.148926
 20
551.574463
  0
VERTEX
  8
0
 10
316.255310
 20
547.829773
  0
SEQEND
  0
TEXT
  8
0
 62
     7
 10
282.978699
 20
554.570190
 40
18.723404
 41
1.000000
  1
16
  7
KANJI
 50
0.000000
 51
0.000000
  0
LINE
  8
0
 62
     5
 10
408.000000
 20
267.723389
 11
408.000000
 21
342.659546
  0
POLYLINE
  8
0
 62
     5
 66
     1
 70
     2
  0
VERTEX
  8
0
 10
404.255310
 20
333.297852
  0
VERTEX
  8
0
 10
408.000000
 20
320.191467
  0
VERTEX
  8
0
 10
411.744690
 20
333.297852
  0
SEQEND
  0
POLYLINE
  8
0
 62
     5
 66
     1
 70
     2
  0
VERTEX
  8
0
 10
411.744690
 20
277.085083
  0
VERTEX
  8
0
 10
408.000000
 20
290.191467
  0
VERTEX
  8
0
 10
404.255310
 20
277.085083
  0
SEQEND
  0
LINE
  8
0
 62
     5
 10
303.148926
 20
320.191467
 11
413.617004
 21
320.191467
  0
LINE
  8
0
 62
     5
 10
303.148926
 20
290.191467
 11
413.617004
 21
290.191467
  0
TEXT
  8
0
 62
     7
 10
404.255310
 20
271.021240
 40
18.723404
 41
1.000000
  1
%%c30H7
  7
KANJI
 50
90.000000
 51
0.000000
  0
POLYLINE
  8
0
 62
     4
 66
     1
 70
     2
  0
VERTEX
  8
0
 10
247.148926
 20
289.191467
  0
VERTEX
  8
0
 10
247.148926
 20
142.191467
  0
VERTEX
  8
0
 10
248.148926
 20
141.191467
  0
VERTEX
  8
0
 10
286.148926
 20
141.191467
  0
VERTEX
  8
0
 10
287.148926
 20
142.191467
  0
VERTEX
  8
0
 10
287.148926
 20
245.191467
  0
VERTEX
  8
0
 10
302.148926
 20
245.191467
  0
VERTEX
  8
0
 10
303.148926
 20
246.191467
  0
VERTEX
  8
0
 10
303.148926
 20
364.191467
  0
VERTEX
  8
0
 10
302.148926
 20
365.191467
  0
VERTEX
  8
0
 10
287.148926
 20
365.191467
  0
VERTEX
  8
0
 10
287.148926
 20
468.191467
  0
SEQEND
  0
POLYLINE
  8
0
 62
     4
 66
     1
 70
     2
  0
VERTEX
  8
0
 10
287.148926
 20
468.191467
  0
VERTEX
  8
0
 10
286.148926
 20
469.191467
  0
VERTEX
  8
0
 10
248.148926
 20
469.191467
  0
VERTEX
  8
0
 10
247.148926
 20
468.191467
  0
VERTEX
  8
0
 10
247.148926
 20
289.191467
  0
SEQEND
  0
ARC
  8
0
 62
     4
 10
275.148926
 20
243.191467
 40
2.000000
 50
90.0
 51
180.0
  0
ARC
  8
0
 62
     4
 10
275.148926
 20
367.191467
 40
2.000000
 50
180.0
 51
270.0
  0
LINE
  8
0
 62
     4
 10
287.148926
 20
245.191467
 11
275.148926
 21
245.191467
  0
LINE
  8
0
 62
     4
 10
275.148926
 20
365.191467
 11
287.148926
 21
365.191467
  0
LINE
  8
0
 62
     5
 10
437.957458
 20
365.191467
 11
437.957458
 21
245.191467
  0
POLYLINE
  8
0
 62
     5
 66
     1
 70
     2
  0
VERTEX
  8
0
 10
441.702118
 20
352.085083
  0
VERTEX
  8
0
 10
437.957458
 20
365.191467
  0
VERTEX
  8
0
 10
434.212769
 20
352.085083
  0
SEQEND
  0
POLYLINE
  8
0
 62
     5
 66
     1
 70
     2
  0
VERTEX
  8
0
 10
434.212769
 20
258.297852
  0
VERTEX
  8
0
 10
437.957458
 20
245.191467
  0
VERTEX
  8
0
 10
441.702118
 20
258.297852
  0
SEQEND
  0
LINE
  8
0
 62
     5
 10
303.148926
 20
365.191467
 11
443.574463
 21
365.191467
  0
LINE
  8
0
 62
     5
 10
303.148926
 20
245.191467
 11
443.574463
 21
245.191467
  0
TEXT
  8
0
 62
     7
 10
434.212769
 20
277.106354
 40
18.723404
 41
1.000000
  1
%%c120
  7
KANJI
 50
90.000000
 51
0.000000
  0
LINE
  8
0
 62
     4
 10
273.148926
 20
447.191467
 11
273.148926
 21
367.191467
  0
LINE
  8
0
 62
     4
 10
273.148926
 20
243.191467
 11
273.148926
 21
163.191467
  0
ARC
  8
0
 62
     7
 10
275.566833
 20
220.540405
 40
3.651064
 50
280.0
 51
90.0
  0
ARC
  8
0
 62
     7
 10
276.834839
 20
213.349213
 40
3.651064
 50
90.0
 51
280.0
  0
ARC
  8
0
 62
     7
 10
256.826416
 20
220.540405
 40
3.651064
 50
280.0
 51
90.0
  0
ARC
  8
0
 62
     7
 10
258.094421
 20
213.349213
 40
3.651064
 50
90.0
 51
280.0
  0
ENDSEC
  0
EOF
