  0
SECTION
  2
HEADER
  9
$ACADVER
  1
AC1003
  9
$INSBASE
 10
0.000000
 20
0.000000
  9
$EXTMIN
 10
0.000000
 20
0.000000
  9
$EXTMAX
 10
858.260870
 20
593.478261
  9
$LIMMIN
 10
0.000000
 20
0.000000
  9
$LIMMAX
 10
858.260870
 20
593.478261
  9
$VIEWCTR
 10
429.130435
 20
296.739130
  9
$VIEWSIZE
 40
593.478261
  0
ENDSEC
  0
SECTION
  2
TABLES
  0
TABLE
  2
LTYPE
 70
     4
  0
LTYPE
  2
CONTINUOUS
 70
    64
  3
SolidLine
 72
    65
 73
     0
 40
0.0
  0
LTYPE
  2
HIDDEN
 70
    64
  3
------------------------
 72
    65
 73
     2
 40
9.130435
 49
6.086957
 49
-3.043478
  0
LTYPE
  2
DASHDOT
 70
    64
  3
--?--?--?--?--?--?--?--
 72
    65
 73
     4
 40
36.521739
 49
27.391304
 49
-3.043478
 49
3.043478
 49
-3.043478
  0
LTYPE
  2
DIVIDE
 70
    64
  3
--??--??--??--??--??--
 72
    65
 73
     6
 40
45.652174
 49
30.434783
 49
-3.043478
 49
3.043478
 49
-3.043478
 49
3.043478
 49
-3.043478
  0
ENDTAB
  0
TABLE
  2
LAYER
 70
     5
  0
LAYER
  2
0
 70
    64
 62
     7
  6
CONTINUOUS
  0
LAYER
  2
HIDDEN
 70
    64
 62
     2
  6
HIDDEN
  0
LAYER
  2
DASHDOT
 70
    64
 62
     6
  6
DASHDOT
  0
LAYER
  2
DIVIDE
 70
    64
 62
     5
  6
DIVIDE
  0
ENDTAB
  0
TABLE
  2
STYLE
 70
     1
  0
STYLE
  2
STANDARD
 70
    64
 40
0.0
 41
1.0
 50
0.0
 71
     0
 42
0.2
  3
TXT
  4

  0
STYLE
  2
KANJI
 70
    64
 40
0.0
 41
1.0
 50
0.0
 71
     0
 42
0.2
  3
TXT
  4
BIGFONT
  0
ENDTAB
  0
TABLE
  2
VIEW
 70
     0
  0
ENDTAB
  0
ENDSEC
  0
SECTION
  2
BLOCKS
  0
ENDSEC
  0
SECTION
  2
ENTITIES
  0
TEXT
  8
0
 62
     7
 10
30.434782
 20
33.478260
 40
12.173913
 41
1.000000
  1
KHK SS5-16
  7
KANJI
 50
0.000000
 51
0.000000
  0
TEXT
  8
0
 62
     7
 10
30.434782
 20
15.217391
 40
12.173913
 41
1.000000
  1

  7
KANJI
 50
0.000000
 51
0.000000
  0
TEXT
  8
0
 62
     7
 10
30.434782
 20
547.826111
 40
13.695652
 41
1.000000
  1
Black oxide
  7
KANJI
 50
0.000000
 51
0.000000
  0
POLYLINE
  8
0
 62
     7
 66
     1
 70
     2
  0
VERTEX
  8
0
 10
730.434753
 20
547.826111
  0
VERTEX
  8
0
 10
718.565186
 20
568.400024
  0
VERTEX
  8
0
 10
766.043457
 20
568.400024
  0
VERTEX
  8
0
 10
754.173889
 20
547.826111
  0
VERTEX
  8
0
 10
742.304321
 20
568.400024
  0
VERTEX
  8
0
 10
730.434753
 20
547.826111
  0
SEQEND
  0
LINE
  8
0
 62
     5
 10
473.695648
 20
293.043488
 11
473.695648
 21
203.043488
  0
POLYLINE
  8
0
 62
     5
 66
     1
 70
     2
  0
VERTEX
  8
0
 10
476.739136
 20
282.391296
  0
VERTEX
  8
0
 10
473.695648
 20
293.043488
  0
VERTEX
  8
0
 10
470.652161
 20
282.391296
  0
SEQEND
  0
POLYLINE
  8
0
 62
     5
 66
     1
 70
     2
  0
VERTEX
  8
0
 10
470.652161
 20
213.695663
  0
VERTEX
  8
0
 10
473.695648
 20
203.043488
  0
VERTEX
  8
0
 10
476.739136
 20
213.695663
  0
SEQEND
  0
LINE
  8
0
 62
     5
 10
321.521729
 20
293.043488
 11
478.260864
 21
293.043488
  0
LINE
  8
0
 62
     5
 10
321.521729
 20
203.043488
 11
478.260864
 21
203.043488
  0
TEXT
  8
0
 62
     7
 10
470.652161
 20
230.163055
 40
15.217391
 41
1.000000
  1
%%c90
  7
KANJI
 50
90.000000
 51
0.000000
  0
LINE
  8
DASHDOT
 62
     7
 10
237.391296
 20
288.043488
 11
305.652161
 21
288.043488
  0
LINE
  8
DASHDOT
 62
     7
 10
237.391296
 20
208.043488
 11
305.652161
 21
208.043488
  0
LINE
  8
DASHDOT
 62
     7
 10
237.391296
 20
248.043488
 11
330.652161
 21
248.043488
  0
LINE
  8
0
 62
     5
 10
296.521729
 20
291.543488
 11
296.521729
 21
293.043488
  0
LINE
  8
0
 62
     5
 10
246.521729
 20
291.543488
 11
246.521729
 21
293.043488
  0
LINE
  8
0
 62
     5
 10
298.021729
 20
280.543488
 11
321.521729
 21
280.543488
  0
LINE
  8
0
 62
     5
 10
298.021729
 20
215.543488
 11
321.521729
 21
215.543488
  0
LINE
  8
0
 62
     5
 10
295.021729
 20
293.043488
 11
321.521729
 21
293.043488
  0
LINE
  8
0
 62
     5
 10
295.021729
 20
203.043488
 11
321.521729
 21
203.043488
  0
LINE
  8
0
 62
     4
 10
246.521729
 20
281.793488
 11
296.521729
 21
281.793488
  0
LINE
  8
0
 62
     4
 10
246.521729
 20
214.293488
 11
296.521729
 21
214.293488
  0
LINE
  8
0
 62
     4
 10
320.521729
 20
237.043488
 11
321.521729
 21
236.043488
  0
LINE
  8
0
 62
     4
 10
320.521729
 20
259.043488
 11
321.521729
 21
260.043488
  0
LINE
  8
0
 62
     4
 10
247.521729
 20
259.043488
 11
247.521729
 21
237.043488
  0
POLYLINE
  8
0
 62
     4
 66
     1
 70
     2
  0
VERTEX
  8
0
 10
246.521729
 20
236.043488
  0
VERTEX
  8
0
 10
247.521729
 20
237.043488
  0
VERTEX
  8
0
 10
320.521729
 20
237.043488
  0
VERTEX
  8
0
 10
320.521729
 20
259.043488
  0
VERTEX
  8
0
 10
247.521729
 20
259.043488
  0
VERTEX
  8
0
 10
246.521729
 20
260.043488
  0
SEQEND
  0
ARC
  8
0
 62
     4
 10
298.021729
 20
282.043488
 40
1.500000
 50
180.0
 51
270.0
  0
ARC
  8
0
 62
     4
 10
298.021729
 20
214.043488
 40
1.500000
 50
90.0
 51
180.0
  0
LINE
  8
0
 62
     5
 10
321.521729
 20
279.543488
 11
321.521729
 21
293.043488
  0
LINE
  8
0
 62
     5
 10
246.521729
 20
375.217407
 11
296.521729
 21
375.217407
  0
POLYLINE
  8
0
 62
     5
 66
     1
 70
     2
  0
VERTEX
  8
0
 10
257.173889
 20
378.260864
  0
VERTEX
  8
0
 10
246.521729
 20
375.217407
  0
VERTEX
  8
0
 10
257.173889
 20
372.173920
  0
SEQEND
  0
POLYLINE
  8
0
 62
     5
 66
     1
 70
     2
  0
VERTEX
  8
0
 10
285.869568
 20
372.173920
  0
VERTEX
  8
0
 10
296.521729
 20
375.217407
  0
VERTEX
  8
0
 10
285.869568
 20
378.260864
  0
SEQEND
  0
LINE
  8
0
 62
     5
 10
296.521729
 20
293.043488
 11
296.521729
 21
379.782623
  0
TEXT
  8
0
 62
     7
 10
261.630432
 20
377.652161
 40
15.217391
 41
1.000000
  1
50
  7
KANJI
 50
0.000000
 51
0.000000
  0
LINE
  8
0
 62
     5
 10
246.521729
 20
399.565216
 11
321.521729
 21
399.565216
  0
POLYLINE
  8
0
 62
     5
 66
     1
 70
     2
  0
VERTEX
  8
0
 10
257.173889
 20
402.608704
  0
VERTEX
  8
0
 10
246.521729
 20
399.565216
  0
VERTEX
  8
0
 10
257.173889
 20
396.521729
  0
SEQEND
  0
POLYLINE
  8
0
 62
     5
 66
     1
 70
     2
  0
VERTEX
  8
0
 10
310.869568
 20
396.521729
  0
VERTEX
  8
0
 10
321.521729
 20
399.565216
  0
VERTEX
  8
0
 10
310.869568
 20
402.608704
  0
SEQEND
  0
LINE
  8
0
 62
     5
 10
246.521729
 20
293.043488
 11
246.521729
 21
404.130432
  0
LINE
  8
0
 62
     5
 10
321.521729
 20
293.043488
 11
321.521729
 21
404.130432
  0
TEXT
  8
0
 62
     7
 10
274.130432
 20
402.000000
 40
15.217391
 41
1.000000
  1
75
  7
KANJI
 50
0.000000
 51
0.000000
  0
LINE
  8
0
 62
     5
 10
339.782593
 20
375.217407
 11
278.260864
 21
375.217407
  0
POLYLINE
  8
0
 62
     5
 66
     1
 70
     2
  0
VERTEX
  8
0
 10
285.869568
 20
372.173920
  0
VERTEX
  8
0
 10
296.521729
 20
375.217407
  0
VERTEX
  8
0
 10
285.869568
 20
378.260864
  0
SEQEND
  0
POLYLINE
  8
0
 62
     5
 66
     1
 70
     2
  0
VERTEX
  8
0
 10
332.173889
 20
378.260864
  0
VERTEX
  8
0
 10
321.521729
 20
375.217407
  0
VERTEX
  8
0
 10
332.173889
 20
372.173920
  0
SEQEND
  0
TEXT
  8
0
 62
     7
 10
299.130432
 20
377.652161
 40
15.217391
 41
1.000000
  1
25
  7
KANJI
 50
0.000000
 51
0.000000
  0
LINE
  8
0
 62
     5
 10
449.347809
 20
280.543488
 11
449.347809
 21
215.543488
  0
POLYLINE
  8
0
 62
     5
 66
     1
 70
     2
  0
VERTEX
  8
0
 10
452.391296
 20
269.891327
  0
VERTEX
  8
0
 10
449.347809
 20
280.543488
  0
VERTEX
  8
0
 10
446.304321
 20
269.891327
  0
SEQEND
  0
POLYLINE
  8
0
 62
     5
 66
     1
 70
     2
  0
VERTEX
  8
0
 10
446.304321
 20
226.195663
  0
VERTEX
  8
0
 10
449.347809
 20
215.543488
  0
VERTEX
  8
0
 10
452.391296
 20
226.195663
  0
SEQEND
  0
LINE
  8
0
 62
     5
 10
321.521729
 20
280.543488
 11
453.913025
 21
280.543488
  0
LINE
  8
0
 62
     5
 10
321.521729
 20
215.543488
 11
453.913025
 21
215.543488
  0
TEXT
  8
0
 62
     7
 10
446.304321
 20
230.163055
 40
15.217391
 41
1.000000
  1
%%c65
  7
KANJI
 50
90.000000
 51
0.000000
  0
LINE
  8
0
 62
     5
 10
400.652161
 20
218.782623
 11
400.652161
 21
277.304352
  0
POLYLINE
  8
0
 62
     5
 66
     1
 70
     2
  0
VERTEX
  8
0
 10
397.608704
 20
269.695648
  0
VERTEX
  8
0
 10
400.652161
 20
259.043488
  0
VERTEX
  8
0
 10
403.695618
 20
269.695648
  0
SEQEND
  0
POLYLINE
  8
0
 62
     5
 66
     1
 70
     2
  0
VERTEX
  8
0
 10
403.695618
 20
226.391312
  0
VERTEX
  8
0
 10
400.652161
 20
237.043488
  0
VERTEX
  8
0
 10
397.608704
 20
226.391312
  0
SEQEND
  0
LINE
  8
0
 62
     5
 10
321.521729
 20
259.043488
 11
405.217377
 21
259.043488
  0
LINE
  8
0
 62
     5
 10
321.521729
 20
237.043488
 11
405.217377
 21
237.043488
  0
TEXT
  8
0
 62
     7
 10
397.608704
 20
220.271744
 40
15.217391
 41
1.000000
  1
%%c22H7
  7
KANJI
 50
90.000000
 51
0.000000
  0
POLYLINE
  8
0
 62
     4
 66
     1
 70
     2
  0
VERTEX
  8
0
 10
246.521729
 20
236.043488
  0
VERTEX
  8
0
 10
246.521729
 20
204.543488
  0
VERTEX
  8
0
 10
248.021729
 20
203.043488
  0
VERTEX
  8
0
 10
295.021729
 20
203.043488
  0
VERTEX
  8
0
 10
296.521729
 20
204.543488
  0
VERTEX
  8
0
 10
296.521729
 20
214.043488
  0
SEQEND
  0
POLYLINE
  8
0
 62
     4
 66
     1
 70
     2
  0
VERTEX
  8
0
 10
298.021729
 20
215.543488
  0
VERTEX
  8
0
 10
320.521729
 20
215.543488
  0
VERTEX
  8
0
 10
321.521729
 20
216.543488
  0
VERTEX
  8
0
 10
321.521729
 20
279.543488
  0
VERTEX
  8
0
 10
320.521729
 20
280.543488
  0
VERTEX
  8
0
 10
298.021729
 20
280.543488
  0
SEQEND
  0
POLYLINE
  8
0
 62
     4
 66
     1
 70
     2
  0
VERTEX
  8
0
 10
296.521729
 20
282.043488
  0
VERTEX
  8
0
 10
296.521729
 20
291.543488
  0
VERTEX
  8
0
 10
295.021729
 20
293.043488
  0
VERTEX
  8
0
 10
248.021729
 20
293.043488
  0
VERTEX
  8
0
 10
246.521729
 20
291.543488
  0
VERTEX
  8
0
 10
246.521729
 20
236.043488
  0
SEQEND
  0
ENDSEC
  0
EOF
