  0
SECTION
  2
HEADER
  9
$ACADVER
  1
AC1003
  9
$INSBASE
 10
0.000000
 20
0.000000
  9
$EXTMIN
 10
0.000000
 20
0.000000
  9
$EXTMAX
 10
1531.945946
 20
1059.324324
  9
$LIMMIN
 10
0.000000
 20
0.000000
  9
$LIMMAX
 10
1531.945946
 20
1059.324324
  9
$VIEWCTR
 10
765.972973
 20
529.662162
  9
$VIEWSIZE
 40
1059.324324
  0
ENDSEC
  0
SECTION
  2
TABLES
  0
TABLE
  2
LTYPE
 70
     4
  0
LTYPE
  2
CONTINUOUS
 70
    64
  3
SolidLine
 72
    65
 73
     0
 40
0.0
  0
LTYPE
  2
HIDDEN
 70
    64
  3
------------------------
 72
    65
 73
     2
 40
16.297297
 49
10.864865
 49
-5.432432
  0
LTYPE
  2
DASHDOT
 70
    64
  3
--?--?--?--?--?--?--?--
 72
    65
 73
     4
 40
65.189189
 49
48.891892
 49
-5.432432
 49
5.432432
 49
-5.432432
  0
LTYPE
  2
DIVIDE
 70
    64
  3
--??--??--??--??--??--
 72
    65
 73
     6
 40
81.486486
 49
54.324324
 49
-5.432432
 49
5.432432
 49
-5.432432
 49
5.432432
 49
-5.432432
  0
ENDTAB
  0
TABLE
  2
LAYER
 70
     5
  0
LAYER
  2
0
 70
    64
 62
     7
  6
CONTINUOUS
  0
LAYER
  2
HIDDEN
 70
    64
 62
     2
  6
HIDDEN
  0
LAYER
  2
DASHDOT
 70
    64
 62
     6
  6
DASHDOT
  0
LAYER
  2
DIVIDE
 70
    64
 62
     5
  6
DIVIDE
  0
ENDTAB
  0
TABLE
  2
STYLE
 70
     1
  0
STYLE
  2
STANDARD
 70
    64
 40
0.0
 41
1.0
 50
0.0
 71
     0
 42
0.2
  3
TXT
  4

  0
STYLE
  2
KANJI
 70
    64
 40
0.0
 41
1.0
 50
0.0
 71
     0
 42
0.2
  3
TXT
  4
BIGFONT
  0
ENDTAB
  0
TABLE
  2
VIEW
 70
     0
  0
ENDTAB
  0
ENDSEC
  0
SECTION
  2
BLOCKS
  0
ENDSEC
  0
SECTION
  2
ENTITIES
  0
TEXT
  8
0
 62
     7
 10
54.324326
 20
59.756756
 40
21.729730
 41
1.000000
  1
KHK SS5-54
  7
KANJI
 50
0.000000
 51
0.000000
  0
TEXT
  8
0
 62
     7
 10
54.324326
 20
27.162163
 40
21.729730
 41
1.000000
  1

  7
KANJI
 50
0.000000
 51
0.000000
  0
TEXT
  8
0
 62
     7
 10
54.324326
 20
977.837830
 40
24.445946
 41
1.000000
  1
Black oxide
  7
KANJI
 50
0.000000
 51
0.000000
  0
POLYLINE
  8
0
 62
     7
 66
     1
 70
     2
  0
VERTEX
  8
0
 10
1303.783813
 20
977.837830
  0
VERTEX
  8
0
 10
1282.597290
 20
1014.561096
  0
VERTEX
  8
0
 10
1367.343262
 20
1014.561096
  0
VERTEX
  8
0
 10
1346.156738
 20
977.837830
  0
VERTEX
  8
0
 10
1324.970337
 20
1014.561096
  0
VERTEX
  8
0
 10
1303.783813
 20
977.837830
  0
SEQEND
  0
LINE
  8
0
 62
     5
 10
766.351318
 20
530.581116
 11
766.351318
 21
300.581116
  0
POLYLINE
  8
0
 62
     5
 66
     1
 70
     2
  0
VERTEX
  8
0
 10
771.783752
 20
511.567596
  0
VERTEX
  8
0
 10
766.351318
 20
530.581116
  0
VERTEX
  8
0
 10
760.918884
 20
511.567596
  0
SEQEND
  0
POLYLINE
  8
0
 62
     5
 66
     1
 70
     2
  0
VERTEX
  8
0
 10
760.918884
 20
319.594635
  0
VERTEX
  8
0
 10
766.351318
 20
300.581116
  0
VERTEX
  8
0
 10
771.783752
 20
319.594635
  0
SEQEND
  0
LINE
  8
0
 62
     5
 10
483.864838
 20
530.581116
 11
774.500000
 21
530.581116
  0
LINE
  8
0
 62
     5
 10
483.864838
 20
300.581116
 11
774.500000
 21
300.581116
  0
TEXT
  8
0
 62
     7
 10
760.918884
 20
374.837891
 40
27.162162
 41
1.000000
  1
%%c230
  7
KANJI
 50
90.000000
 51
0.000000
  0
LINE
  8
0
 62
     5
 10
809.810791
 20
555.581116
 11
809.810791
 21
275.581116
  0
POLYLINE
  8
0
 62
     5
 66
     1
 70
     2
  0
VERTEX
  8
0
 10
815.243225
 20
536.567627
  0
VERTEX
  8
0
 10
809.810791
 20
555.581116
  0
VERTEX
  8
0
 10
804.378357
 20
536.567627
  0
SEQEND
  0
POLYLINE
  8
0
 62
     5
 66
     1
 70
     2
  0
VERTEX
  8
0
 10
804.378357
 20
294.594635
  0
VERTEX
  8
0
 10
809.810791
 20
275.581116
  0
VERTEX
  8
0
 10
815.243225
 20
294.594635
  0
SEQEND
  0
LINE
  8
0
 62
     5
 10
483.864838
 20
555.581116
 11
817.959473
 21
555.581116
  0
LINE
  8
0
 62
     5
 10
483.864838
 20
275.581116
 11
817.959473
 21
275.581116
  0
TEXT
  8
0
 62
     7
 10
804.378357
 20
374.837891
 40
27.162162
 41
1.000000
  1
%%c280
  7
KANJI
 50
90.000000
 51
0.000000
  0
LINE
  8
0
 62
     5
 10
485.459442
 20
488.013550
 11
390.270233
 21
488.013550
  0
POLYLINE
  8
0
 62
     5
 66
     1
 70
     2
  0
VERTEX
  8
0
 10
422.864838
 20
488.013550
  0
VERTEX
  8
0
 10
421.235107
 20
489.643280
  0
VERTEX
  8
0
 10
424.494568
 20
489.643280
  0
VERTEX
  8
0
 10
424.494568
 20
486.383820
  0
VERTEX
  8
0
 10
421.235107
 20
486.383820
  0
VERTEX
  8
0
 10
421.235107
 20
489.643280
  0
VERTEX
  8
0
 10
422.864838
 20
488.013550
  0
VERTEX
  8
0
 10
424.494568
 20
486.383820
  0
VERTEX
  8
0
 10
424.494568
 20
489.643280
  0
VERTEX
  8
0
 10
422.864838
 20
488.013550
  0
SEQEND
  0
POLYLINE
  8
0
 62
     5
 66
     1
 70
     2
  0
VERTEX
  8
0
 10
452.864838
 20
488.013550
  0
VERTEX
  8
0
 10
451.235107
 20
489.643280
  0
VERTEX
  8
0
 10
454.494568
 20
489.643280
  0
VERTEX
  8
0
 10
454.494568
 20
486.383820
  0
VERTEX
  8
0
 10
451.235107
 20
486.383820
  0
VERTEX
  8
0
 10
451.235107
 20
489.643280
  0
VERTEX
  8
0
 10
452.864838
 20
488.013550
  0
VERTEX
  8
0
 10
454.494568
 20
486.383820
  0
VERTEX
  8
0
 10
454.494568
 20
489.643280
  0
VERTEX
  8
0
 10
452.864838
 20
488.013550
  0
SEQEND
  0
TEXT
  8
0
 62
     7
 10
420.209442
 20
492.359497
 40
27.162162
 41
1.000000
  1
30
  7
KANJI
 50
0.000000
 51
0.000000
  0
LINE
  8
0
 62
     5
 10
495.459442
 20
488.013550
 11
420.270233
 21
488.013550
  0
POLYLINE
  8
0
 62
     5
 66
     1
 70
     2
  0
VERTEX
  8
0
 10
433.851318
 20
482.581116
  0
VERTEX
  8
0
 10
452.864838
 20
488.013550
  0
VERTEX
  8
0
 10
433.851318
 20
493.445984
  0
SEQEND
  0
POLYLINE
  8
0
 62
     5
 66
     1
 70
     2
  0
VERTEX
  8
0
 10
481.878357
 20
493.445984
  0
VERTEX
  8
0
 10
462.864838
 20
488.013550
  0
VERTEX
  8
0
 10
481.878357
 20
482.581116
  0
SEQEND
  0
TEXT
  8
0
 62
     7
 10
479.162140
 20
492.359497
 40
27.162162
 41
1.000000
  1
10
  7
KANJI
 50
0.000000
 51
0.000000
  0
LINE
  8
0
 62
     5
 10
455.459442
 20
488.013550
 11
380.270233
 21
488.013550
  0
POLYLINE
  8
0
 62
     5
 66
     1
 70
     2
  0
VERTEX
  8
0
 10
393.851318
 20
482.581116
  0
VERTEX
  8
0
 10
412.864838
 20
488.013550
  0
VERTEX
  8
0
 10
393.851318
 20
493.445984
  0
SEQEND
  0
POLYLINE
  8
0
 62
     5
 66
     1
 70
     2
  0
VERTEX
  8
0
 10
441.878357
 20
493.445984
  0
VERTEX
  8
0
 10
422.864838
 20
488.013550
  0
VERTEX
  8
0
 10
441.878357
 20
482.581116
  0
SEQEND
  0
TEXT
  8
0
 62
     7
 10
361.256714
 20
492.359497
 40
27.162162
 41
1.000000
  1
10
  7
KANJI
 50
0.000000
 51
0.000000
  0
ARC
  8
0
 62
     4
 10
420.864838
 20
482.581116
 40
2.000000
 50
270.0
 51
0.0
  0
ARC
  8
0
 62
     4
 10
420.864838
 20
348.581116
 40
2.000000
 50
0.0
 51
90.0
  0
LINE
  8
DASHDOT
 62
     7
 10
396.567535
 20
550.581116
 11
479.162140
 21
550.581116
  0
LINE
  8
DASHDOT
 62
     7
 10
396.567535
 20
280.581116
 11
479.162140
 21
280.581116
  0
LINE
  8
DASHDOT
 62
     7
 10
396.567535
 20
415.581116
 11
500.162140
 21
415.581116
  0
LINE
  8
0
 62
     5
 10
462.864838
 20
554.081116
 11
462.864838
 21
555.581116
  0
LINE
  8
0
 62
     5
 10
412.864838
 20
554.081116
 11
412.864838
 21
555.581116
  0
LINE
  8
0
 62
     5
 10
461.364838
 20
555.581116
 11
483.864838
 21
555.581116
  0
LINE
  8
0
 62
     5
 10
461.364838
 20
275.581116
 11
483.864838
 21
275.581116
  0
LINE
  8
0
 62
     4
 10
412.864838
 20
544.331116
 11
462.864838
 21
544.331116
  0
LINE
  8
0
 62
     4
 10
412.864838
 20
286.831116
 11
462.864838
 21
286.831116
  0
LINE
  8
0
 62
     4
 10
483.864838
 20
431.581116
 11
482.864838
 21
430.581116
  0
LINE
  8
0
 62
     4
 10
483.864838
 20
399.581116
 11
482.864838
 21
400.581116
  0
LINE
  8
0
 62
     4
 10
412.864838
 20
399.581116
 11
413.864838
 21
400.581116
  0
LINE
  8
0
 62
     4
 10
412.864838
 20
480.581116
 11
420.864838
 21
480.581116
  0
LINE
  8
0
 62
     4
 10
412.864838
 20
350.581116
 11
420.864838
 21
350.581116
  0
POLYLINE
  8
0
 62
     4
 66
     1
 70
     2
  0
VERTEX
  8
0
 10
452.864838
 20
482.581116
  0
VERTEX
  8
0
 10
452.864838
 20
510.955017
  0
VERTEX
  8
0
 10
462.864838
 20
530.581116
  0
SEQEND
  0
POLYLINE
  8
0
 62
     4
 66
     1
 70
     2
  0
VERTEX
  8
0
 10
422.864838
 20
482.581116
  0
VERTEX
  8
0
 10
422.864838
 20
510.955017
  0
VERTEX
  8
0
 10
412.864838
 20
530.581116
  0
SEQEND
  0
POLYLINE
  8
0
 62
     4
 66
     1
 70
     2
  0
VERTEX
  8
0
 10
452.864838
 20
348.581116
  0
VERTEX
  8
0
 10
452.864838
 20
320.207214
  0
VERTEX
  8
0
 10
462.864838
 20
300.581116
  0
SEQEND
  0
POLYLINE
  8
0
 62
     4
 66
     1
 70
     2
  0
VERTEX
  8
0
 10
422.864838
 20
348.581116
  0
VERTEX
  8
0
 10
422.864838
 20
320.207214
  0
VERTEX
  8
0
 10
412.864838
 20
300.581116
  0
SEQEND
  0
POLYLINE
  8
0
 62
     4
 66
     1
 70
     2
  0
VERTEX
  8
0
 10
412.864838
 20
431.581116
  0
VERTEX
  8
0
 10
413.864838
 20
430.581116
  0
VERTEX
  8
0
 10
413.864838
 20
400.581116
  0
VERTEX
  8
0
 10
482.864838
 20
400.581116
  0
VERTEX
  8
0
 10
482.864838
 20
430.581116
  0
VERTEX
  8
0
 10
413.864838
 20
430.581116
  0
SEQEND
  0
LINE
  8
0
 62
     5
 10
462.864838
 20
300.581116
 11
483.864838
 21
300.581116
  0
LINE
  8
0
 62
     5
 10
462.864838
 20
530.581116
 11
483.864838
 21
530.581116
  0
LINE
  8
0
 62
     5
 10
483.864838
 20
479.581116
 11
483.864838
 21
555.581116
  0
LINE
  8
0
 62
     5
 10
412.864838
 20
718.554077
 11
483.864838
 21
718.554077
  0
POLYLINE
  8
0
 62
     5
 66
     1
 70
     2
  0
VERTEX
  8
0
 10
431.878357
 20
723.986511
  0
VERTEX
  8
0
 10
412.864838
 20
718.554077
  0
VERTEX
  8
0
 10
431.878357
 20
713.121643
  0
SEQEND
  0
POLYLINE
  8
0
 62
     5
 66
     1
 70
     2
  0
VERTEX
  8
0
 10
464.851318
 20
713.121643
  0
VERTEX
  8
0
 10
483.864838
 20
718.554077
  0
VERTEX
  8
0
 10
464.851318
 20
723.986511
  0
SEQEND
  0
LINE
  8
0
 62
     5
 10
412.864838
 20
555.581116
 11
412.864838
 21
726.702759
  0
LINE
  8
0
 62
     5
 10
483.864838
 20
555.581116
 11
483.864838
 21
726.702759
  0
TEXT
  8
0
 62
     7
 10
430.709442
 20
722.900024
 40
27.162162
 41
1.000000
  1
71
  7
KANJI
 50
0.000000
 51
0.000000
  0
LINE
  8
0
 62
     5
 10
495.459442
 20
675.094604
 11
380.270233
 21
675.094604
  0
POLYLINE
  8
0
 62
     5
 66
     1
 70
     2
  0
VERTEX
  8
0
 10
393.851318
 20
669.662231
  0
VERTEX
  8
0
 10
412.864838
 20
675.094604
  0
VERTEX
  8
0
 10
393.851318
 20
680.527100
  0
SEQEND
  0
POLYLINE
  8
0
 62
     5
 66
     1
 70
     2
  0
VERTEX
  8
0
 10
481.878357
 20
680.527100
  0
VERTEX
  8
0
 10
462.864838
 20
675.094604
  0
VERTEX
  8
0
 10
481.878357
 20
669.662231
  0
SEQEND
  0
LINE
  8
0
 62
     5
 10
462.864838
 20
555.581116
 11
462.864838
 21
683.243286
  0
TEXT
  8
0
 62
     7
 10
420.209442
 20
679.440552
 40
27.162162
 41
1.000000
  1
50
  7
KANJI
 50
0.000000
 51
0.000000
  0
LINE
  8
0
 62
     5
 10
516.459412
 20
675.094604
 11
430.270233
 21
675.094604
  0
POLYLINE
  8
0
 62
     5
 66
     1
 70
     2
  0
VERTEX
  8
0
 10
443.851318
 20
669.662231
  0
VERTEX
  8
0
 10
462.864838
 20
675.094604
  0
VERTEX
  8
0
 10
443.851318
 20
680.527100
  0
SEQEND
  0
POLYLINE
  8
0
 62
     5
 66
     1
 70
     2
  0
VERTEX
  8
0
 10
502.878357
 20
680.527100
  0
VERTEX
  8
0
 10
483.864838
 20
675.094604
  0
VERTEX
  8
0
 10
502.878357
 20
669.662231
  0
SEQEND
  0
TEXT
  8
0
 62
     7
 10
455.709442
 20
679.440552
 40
27.162162
 41
1.000000
  1
21
  7
KANJI
 50
0.000000
 51
0.000000
  0
LINE
  8
0
 62
     5
 10
635.972961
 20
367.986511
 11
635.972961
 21
463.175720
  0
POLYLINE
  8
0
 62
     5
 66
     1
 70
     2
  0
VERTEX
  8
0
 10
630.540527
 20
449.594635
  0
VERTEX
  8
0
 10
635.972961
 20
430.581116
  0
VERTEX
  8
0
 10
641.405396
 20
449.594635
  0
SEQEND
  0
POLYLINE
  8
0
 62
     5
 66
     1
 70
     2
  0
VERTEX
  8
0
 10
641.405396
 20
381.567596
  0
VERTEX
  8
0
 10
635.972961
 20
400.581116
  0
VERTEX
  8
0
 10
630.540527
 20
381.567596
  0
SEQEND
  0
LINE
  8
0
 62
     5
 10
483.864838
 20
430.581116
 11
644.121582
 21
430.581116
  0
LINE
  8
0
 62
     5
 10
483.864838
 20
400.581116
 11
644.121582
 21
400.581116
  0
TEXT
  8
0
 62
     7
 10
630.540527
 20
366.010162
 40
27.162162
 41
1.000000
  1
%%c30H7
  7
KANJI
 50
90.000000
 51
0.000000
  0
POLYLINE
  8
0
 62
     4
 66
     1
 70
     2
  0
VERTEX
  8
0
 10
412.864838
 20
399.581116
  0
VERTEX
  8
0
 10
412.864838
 20
277.081116
  0
VERTEX
  8
0
 10
414.364838
 20
275.581116
  0
VERTEX
  8
0
 10
461.364838
 20
275.581116
  0
VERTEX
  8
0
 10
462.864838
 20
277.081116
  0
VERTEX
  8
0
 10
462.864838
 20
350.581116
  0
VERTEX
  8
0
 10
482.864838
 20
350.581116
  0
VERTEX
  8
0
 10
483.864838
 20
351.581116
  0
VERTEX
  8
0
 10
483.864838
 20
479.581116
  0
VERTEX
  8
0
 10
482.864838
 20
480.581116
  0
VERTEX
  8
0
 10
462.864838
 20
480.581116
  0
VERTEX
  8
0
 10
462.864838
 20
554.081116
  0
SEQEND
  0
POLYLINE
  8
0
 62
     4
 66
     1
 70
     2
  0
VERTEX
  8
0
 10
462.864838
 20
554.081116
  0
VERTEX
  8
0
 10
461.364838
 20
555.581116
  0
VERTEX
  8
0
 10
414.364838
 20
555.581116
  0
VERTEX
  8
0
 10
412.864838
 20
554.081116
  0
VERTEX
  8
0
 10
412.864838
 20
399.581116
  0
SEQEND
  0
ARC
  8
0
 62
     4
 10
454.864838
 20
348.581116
 40
2.000000
 50
90.0
 51
180.0
  0
ARC
  8
0
 62
     4
 10
454.864838
 20
482.581116
 40
2.000000
 50
180.0
 51
270.0
  0
LINE
  8
0
 62
     4
 10
462.864838
 20
350.581116
 11
454.864838
 21
350.581116
  0
LINE
  8
0
 62
     4
 10
454.864838
 20
480.581116
 11
462.864838
 21
480.581116
  0
LINE
  8
0
 62
     5
 10
679.432373
 20
480.581116
 11
679.432373
 21
350.581116
  0
POLYLINE
  8
0
 62
     5
 66
     1
 70
     2
  0
VERTEX
  8
0
 10
684.864868
 20
461.567596
  0
VERTEX
  8
0
 10
679.432373
 20
480.581116
  0
VERTEX
  8
0
 10
674.000000
 20
461.567596
  0
SEQEND
  0
POLYLINE
  8
0
 62
     5
 66
     1
 70
     2
  0
VERTEX
  8
0
 10
674.000000
 20
369.594635
  0
VERTEX
  8
0
 10
679.432373
 20
350.581116
  0
VERTEX
  8
0
 10
684.864868
 20
369.594635
  0
SEQEND
  0
LINE
  8
0
 62
     5
 10
483.864838
 20
480.581116
 11
687.581055
 21
480.581116
  0
LINE
  8
0
 62
     5
 10
483.864838
 20
350.581116
 11
687.581055
 21
350.581116
  0
TEXT
  8
0
 62
     7
 10
674.000000
 20
374.837891
 40
27.162162
 41
1.000000
  1
%%c130
  7
KANJI
 50
90.000000
 51
0.000000
  0
LINE
  8
0
 62
     4
 10
452.864838
 20
510.955017
 11
452.864838
 21
482.581116
  0
LINE
  8
0
 62
     4
 10
452.864838
 20
348.581116
 11
452.864838
 21
320.207214
  0
ENDSEC
  0
EOF
