  0
SECTION
  2
HEADER
  9
$ACADVER
  1
AC1003
  9
$INSBASE
 10
0.000000
 20
0.000000
  9
$EXTMIN
 10
0.000000
 20
0.000000
  9
$EXTMAX
 10
766.304348
 20
529.891304
  9
$LIMMIN
 10
0.000000
 20
0.000000
  9
$LIMMAX
 10
766.304348
 20
529.891304
  9
$VIEWCTR
 10
383.152174
 20
264.945652
  9
$VIEWSIZE
 40
529.891304
  0
ENDSEC
  0
SECTION
  2
TABLES
  0
TABLE
  2
LTYPE
 70
     4
  0
LTYPE
  2
CONTINUOUS
 70
    64
  3
SolidLine
 72
    65
 73
     0
 40
0.0
  0
LTYPE
  2
HIDDEN
 70
    64
  3
------------------------
 72
    65
 73
     2
 40
8.152174
 49
5.434783
 49
-2.717391
  0
LTYPE
  2
DASHDOT
 70
    64
  3
--?--?--?--?--?--?--?--
 72
    65
 73
     4
 40
32.608696
 49
24.456522
 49
-2.717391
 49
2.717391
 49
-2.717391
  0
LTYPE
  2
DIVIDE
 70
    64
  3
--??--??--??--??--??--
 72
    65
 73
     6
 40
40.760870
 49
27.173913
 49
-2.717391
 49
2.717391
 49
-2.717391
 49
2.717391
 49
-2.717391
  0
ENDTAB
  0
TABLE
  2
LAYER
 70
     5
  0
LAYER
  2
0
 70
    64
 62
     7
  6
CONTINUOUS
  0
LAYER
  2
HIDDEN
 70
    64
 62
     2
  6
HIDDEN
  0
LAYER
  2
DASHDOT
 70
    64
 62
     6
  6
DASHDOT
  0
LAYER
  2
DIVIDE
 70
    64
 62
     5
  6
DIVIDE
  0
ENDTAB
  0
TABLE
  2
STYLE
 70
     1
  0
STYLE
  2
STANDARD
 70
    64
 40
0.0
 41
1.0
 50
0.0
 71
     0
 42
0.2
  3
TXT
  4

  0
STYLE
  2
KANJI
 70
    64
 40
0.0
 41
1.0
 50
0.0
 71
     0
 42
0.2
  3
TXT
  4
BIGFONT
  0
ENDTAB
  0
TABLE
  2
VIEW
 70
     0
  0
ENDTAB
  0
ENDSEC
  0
SECTION
  2
BLOCKS
  0
ENDSEC
  0
SECTION
  2
ENTITIES
  0
TEXT
  8
0
 62
     7
 10
27.173914
 20
29.891304
 40
10.869565
 41
1.000000
  1
KHK SS5-13
  7
KANJI
 50
0.000000
 51
0.000000
  0
TEXT
  8
0
 62
     7
 10
27.173914
 20
13.586957
 40
10.869565
 41
1.000000
  1

  7
KANJI
 50
0.000000
 51
0.000000
  0
TEXT
  8
0
 62
     7
 10
27.173914
 20
489.130432
 40
12.228261
 41
1.000000
  1
Black oxide
  7
KANJI
 50
0.000000
 51
0.000000
  0
POLYLINE
  8
0
 62
     7
 66
     1
 70
     2
  0
VERTEX
  8
0
 10
652.173889
 20
489.130432
  0
VERTEX
  8
0
 10
641.576050
 20
507.500000
  0
VERTEX
  8
0
 10
683.967346
 20
507.500000
  0
VERTEX
  8
0
 10
673.369568
 20
489.130432
  0
VERTEX
  8
0
 10
662.771729
 20
507.500000
  0
VERTEX
  8
0
 10
652.173889
 20
489.130432
  0
SEQEND
  0
LINE
  8
0
 62
     5
 10
430.978271
 20
258.967407
 11
430.978271
 21
183.967392
  0
POLYLINE
  8
0
 62
     5
 66
     1
 70
     2
  0
VERTEX
  8
0
 10
433.695648
 20
249.456528
  0
VERTEX
  8
0
 10
430.978271
 20
258.967407
  0
VERTEX
  8
0
 10
428.260864
 20
249.456528
  0
SEQEND
  0
POLYLINE
  8
0
 62
     5
 66
     1
 70
     2
  0
VERTEX
  8
0
 10
428.260864
 20
193.478256
  0
VERTEX
  8
0
 10
430.978271
 20
183.967392
  0
VERTEX
  8
0
 10
433.695648
 20
193.478256
  0
SEQEND
  0
LINE
  8
0
 62
     5
 10
295.108704
 20
258.967407
 11
435.054321
 21
258.967407
  0
LINE
  8
0
 62
     5
 10
295.108704
 20
183.967392
 11
435.054321
 21
183.967392
  0
TEXT
  8
0
 62
     7
 10
428.260864
 20
205.502716
 40
13.586957
 41
1.000000
  1
%%c75
  7
KANJI
 50
90.000000
 51
0.000000
  0
LINE
  8
DASHDOT
 62
     7
 10
211.956512
 20
253.967392
 11
278.260864
 21
253.967392
  0
LINE
  8
DASHDOT
 62
     7
 10
211.956512
 20
188.967392
 11
278.260864
 21
188.967392
  0
LINE
  8
DASHDOT
 62
     7
 10
211.956512
 20
221.467392
 11
303.260864
 21
221.467392
  0
LINE
  8
0
 62
     5
 10
270.108704
 20
257.467407
 11
270.108704
 21
258.967407
  0
LINE
  8
0
 62
     5
 10
220.108688
 20
257.467407
 11
220.108688
 21
258.967407
  0
LINE
  8
0
 62
     5
 10
271.108704
 20
246.467392
 11
295.108704
 21
246.467392
  0
LINE
  8
0
 62
     5
 10
271.108704
 20
196.467392
 11
295.108704
 21
196.467392
  0
LINE
  8
0
 62
     5
 10
268.608704
 20
258.967407
 11
295.108704
 21
258.967407
  0
LINE
  8
0
 62
     5
 10
268.608704
 20
183.967392
 11
295.108704
 21
183.967392
  0
LINE
  8
0
 62
     4
 10
220.108688
 20
247.717392
 11
270.108704
 21
247.717392
  0
LINE
  8
0
 62
     4
 10
220.108688
 20
195.217392
 11
270.108704
 21
195.217392
  0
LINE
  8
0
 62
     4
 10
294.108704
 20
210.467392
 11
295.108704
 21
209.467392
  0
LINE
  8
0
 62
     4
 10
294.108704
 20
232.467392
 11
295.108704
 21
233.467392
  0
LINE
  8
0
 62
     4
 10
221.108688
 20
232.467392
 11
221.108688
 21
210.467392
  0
POLYLINE
  8
0
 62
     4
 66
     1
 70
     2
  0
VERTEX
  8
0
 10
220.108688
 20
209.467392
  0
VERTEX
  8
0
 10
221.108688
 20
210.467392
  0
VERTEX
  8
0
 10
294.108704
 20
210.467392
  0
VERTEX
  8
0
 10
294.108704
 20
232.467392
  0
VERTEX
  8
0
 10
221.108688
 20
232.467392
  0
VERTEX
  8
0
 10
220.108688
 20
233.467392
  0
SEQEND
  0
ARC
  8
0
 62
     4
 10
271.108704
 20
247.467392
 40
1.000000
 50
180.0
 51
270.0
  0
ARC
  8
0
 62
     4
 10
271.108704
 20
195.467392
 40
1.000000
 50
90.0
 51
180.0
  0
LINE
  8
0
 62
     5
 10
295.108704
 20
245.467392
 11
295.108704
 21
258.967407
  0
LINE
  8
0
 62
     5
 10
220.108688
 20
332.336975
 11
270.108704
 21
332.336975
  0
POLYLINE
  8
0
 62
     5
 66
     1
 70
     2
  0
VERTEX
  8
0
 10
229.619553
 20
335.054352
  0
VERTEX
  8
0
 10
220.108688
 20
332.336975
  0
VERTEX
  8
0
 10
229.619553
 20
329.619568
  0
SEQEND
  0
POLYLINE
  8
0
 62
     5
 66
     1
 70
     2
  0
VERTEX
  8
0
 10
260.597809
 20
329.619568
  0
VERTEX
  8
0
 10
270.108704
 20
332.336975
  0
VERTEX
  8
0
 10
260.597809
 20
335.054352
  0
SEQEND
  0
LINE
  8
0
 62
     5
 10
270.108704
 20
258.967407
 11
270.108704
 21
336.413055
  0
TEXT
  8
0
 62
     7
 10
236.277161
 20
334.510864
 40
13.586957
 41
1.000000
  1
50
  7
KANJI
 50
0.000000
 51
0.000000
  0
LINE
  8
0
 62
     5
 10
220.108688
 20
354.076111
 11
295.108704
 21
354.076111
  0
POLYLINE
  8
0
 62
     5
 66
     1
 70
     2
  0
VERTEX
  8
0
 10
229.619553
 20
356.793488
  0
VERTEX
  8
0
 10
220.108688
 20
354.076111
  0
VERTEX
  8
0
 10
229.619553
 20
351.358704
  0
SEQEND
  0
POLYLINE
  8
0
 62
     5
 66
     1
 70
     2
  0
VERTEX
  8
0
 10
285.597809
 20
351.358704
  0
VERTEX
  8
0
 10
295.108704
 20
354.076111
  0
VERTEX
  8
0
 10
285.597809
 20
356.793488
  0
SEQEND
  0
LINE
  8
0
 62
     5
 10
220.108688
 20
258.967407
 11
220.108688
 21
358.152161
  0
LINE
  8
0
 62
     5
 10
295.108704
 20
258.967407
 11
295.108704
 21
358.152161
  0
TEXT
  8
0
 62
     7
 10
248.777161
 20
356.250000
 40
13.586957
 41
1.000000
  1
75
  7
KANJI
 50
0.000000
 51
0.000000
  0
LINE
  8
0
 62
     5
 10
311.413025
 20
332.336975
 11
253.804337
 21
332.336975
  0
POLYLINE
  8
0
 62
     5
 66
     1
 70
     2
  0
VERTEX
  8
0
 10
260.597809
 20
329.619568
  0
VERTEX
  8
0
 10
270.108704
 20
332.336975
  0
VERTEX
  8
0
 10
260.597809
 20
335.054352
  0
SEQEND
  0
POLYLINE
  8
0
 62
     5
 66
     1
 70
     2
  0
VERTEX
  8
0
 10
304.619568
 20
335.054352
  0
VERTEX
  8
0
 10
295.108704
 20
332.336975
  0
VERTEX
  8
0
 10
304.619568
 20
329.619568
  0
SEQEND
  0
TEXT
  8
0
 62
     7
 10
273.777161
 20
334.510864
 40
13.586957
 41
1.000000
  1
25
  7
KANJI
 50
0.000000
 51
0.000000
  0
LINE
  8
0
 62
     5
 10
409.239136
 20
246.467392
 11
409.239136
 21
196.467392
  0
POLYLINE
  8
0
 62
     5
 66
     1
 70
     2
  0
VERTEX
  8
0
 10
411.956512
 20
236.956528
  0
VERTEX
  8
0
 10
409.239136
 20
246.467392
  0
VERTEX
  8
0
 10
406.521729
 20
236.956528
  0
SEQEND
  0
POLYLINE
  8
0
 62
     5
 66
     1
 70
     2
  0
VERTEX
  8
0
 10
406.521729
 20
205.978256
  0
VERTEX
  8
0
 10
409.239136
 20
196.467392
  0
VERTEX
  8
0
 10
411.956512
 20
205.978256
  0
SEQEND
  0
LINE
  8
0
 62
     5
 10
295.108704
 20
246.467392
 11
413.315186
 21
246.467392
  0
LINE
  8
0
 62
     5
 10
295.108704
 20
196.467392
 11
413.315186
 21
196.467392
  0
TEXT
  8
0
 62
     7
 10
406.521729
 20
205.502716
 40
13.586957
 41
1.000000
  1
%%c50
  7
KANJI
 50
90.000000
 51
0.000000
  0
LINE
  8
0
 62
     5
 10
365.760864
 20
194.163040
 11
365.760864
 21
248.771744
  0
POLYLINE
  8
0
 62
     5
 66
     1
 70
     2
  0
VERTEX
  8
0
 10
363.043457
 20
241.978256
  0
VERTEX
  8
0
 10
365.760864
 20
232.467392
  0
VERTEX
  8
0
 10
368.478271
 20
241.978256
  0
SEQEND
  0
POLYLINE
  8
0
 62
     5
 66
     1
 70
     2
  0
VERTEX
  8
0
 10
368.478271
 20
200.956528
  0
VERTEX
  8
0
 10
365.760864
 20
210.467392
  0
VERTEX
  8
0
 10
363.043457
 20
200.956528
  0
SEQEND
  0
LINE
  8
0
 62
     5
 10
295.108704
 20
232.467392
 11
369.836945
 21
232.467392
  0
LINE
  8
0
 62
     5
 10
295.108704
 20
210.467392
 11
369.836945
 21
210.467392
  0
TEXT
  8
0
 62
     7
 10
363.043457
 20
196.671204
 40
13.586957
 41
1.000000
  1
%%c22H7
  7
KANJI
 50
90.000000
 51
0.000000
  0
POLYLINE
  8
0
 62
     4
 66
     1
 70
     2
  0
VERTEX
  8
0
 10
220.108688
 20
209.467392
  0
VERTEX
  8
0
 10
220.108688
 20
185.467392
  0
VERTEX
  8
0
 10
221.608688
 20
183.967392
  0
VERTEX
  8
0
 10
268.608704
 20
183.967392
  0
VERTEX
  8
0
 10
270.108704
 20
185.467392
  0
VERTEX
  8
0
 10
270.108704
 20
195.467392
  0
SEQEND
  0
POLYLINE
  8
0
 62
     4
 66
     1
 70
     2
  0
VERTEX
  8
0
 10
271.108704
 20
196.467392
  0
VERTEX
  8
0
 10
294.108704
 20
196.467392
  0
VERTEX
  8
0
 10
295.108704
 20
197.467392
  0
VERTEX
  8
0
 10
295.108704
 20
245.467392
  0
VERTEX
  8
0
 10
294.108704
 20
246.467392
  0
VERTEX
  8
0
 10
271.108704
 20
246.467392
  0
SEQEND
  0
POLYLINE
  8
0
 62
     4
 66
     1
 70
     2
  0
VERTEX
  8
0
 10
270.108704
 20
247.467392
  0
VERTEX
  8
0
 10
270.108704
 20
257.467407
  0
VERTEX
  8
0
 10
268.608704
 20
258.967407
  0
VERTEX
  8
0
 10
221.608688
 20
258.967407
  0
VERTEX
  8
0
 10
220.108688
 20
257.467407
  0
VERTEX
  8
0
 10
220.108688
 20
209.467392
  0
SEQEND
  0
ENDSEC
  0
EOF
