  0
SECTION
  2
HEADER
  9
$ACADVER
  1
AC1003
  9
$INSBASE
 10
0.000000
 20
0.000000
  9
$EXTMIN
 10
0.000000
 20
0.000000
  9
$EXTMAX
 10
1455.729730
 20
1006.621622
  9
$LIMMIN
 10
0.000000
 20
0.000000
  9
$LIMMAX
 10
1455.729730
 20
1006.621622
  9
$VIEWCTR
 10
727.864865
 20
503.310811
  9
$VIEWSIZE
 40
1006.621622
  0
ENDSEC
  0
SECTION
  2
TABLES
  0
TABLE
  2
LTYPE
 70
     4
  0
LTYPE
  2
CONTINUOUS
 70
    64
  3
SolidLine
 72
    65
 73
     0
 40
0.0
  0
LTYPE
  2
HIDDEN
 70
    64
  3
------------------------
 72
    65
 73
     2
 40
15.486486
 49
10.324324
 49
-5.162162
  0
LTYPE
  2
DASHDOT
 70
    64
  3
--?--?--?--?--?--?--?--
 72
    65
 73
     4
 40
61.945946
 49
46.459459
 49
-5.162162
 49
5.162162
 49
-5.162162
  0
LTYPE
  2
DIVIDE
 70
    64
  3
--??--??--??--??--??--
 72
    65
 73
     6
 40
77.432432
 49
51.621622
 49
-5.162162
 49
5.162162
 49
-5.162162
 49
5.162162
 49
-5.162162
  0
ENDTAB
  0
TABLE
  2
LAYER
 70
     5
  0
LAYER
  2
0
 70
    64
 62
     7
  6
CONTINUOUS
  0
LAYER
  2
HIDDEN
 70
    64
 62
     2
  6
HIDDEN
  0
LAYER
  2
DASHDOT
 70
    64
 62
     6
  6
DASHDOT
  0
LAYER
  2
DIVIDE
 70
    64
 62
     5
  6
DIVIDE
  0
ENDTAB
  0
TABLE
  2
STYLE
 70
     1
  0
STYLE
  2
STANDARD
 70
    64
 40
0.0
 41
1.0
 50
0.0
 71
     0
 42
0.2
  3
TXT
  4

  0
STYLE
  2
KANJI
 70
    64
 40
0.0
 41
1.0
 50
0.0
 71
     0
 42
0.2
  3
TXT
  4
BIGFONT
  0
ENDTAB
  0
TABLE
  2
VIEW
 70
     0
  0
ENDTAB
  0
ENDSEC
  0
SECTION
  2
BLOCKS
  0
ENDSEC
  0
SECTION
  2
ENTITIES
  0
TEXT
  8
0
 62
     7
 10
51.621620
 20
56.783783
 40
20.648649
 41
1.000000
  1
KHK SS5-46
  7
KANJI
 50
0.000000
 51
0.000000
  0
TEXT
  8
0
 62
     7
 10
51.621620
 20
25.810810
 40
20.648649
 41
1.000000
  1

  7
KANJI
 50
0.000000
 51
0.000000
  0
TEXT
  8
0
 62
     7
 10
51.621620
 20
929.189209
 40
23.229730
 41
1.000000
  1
Black oxide
  7
KANJI
 50
0.000000
 51
0.000000
  0
POLYLINE
  8
0
 62
     7
 66
     1
 70
     2
  0
VERTEX
  8
0
 10
1238.918945
 20
929.189209
  0
VERTEX
  8
0
 10
1218.786499
 20
964.085449
  0
VERTEX
  8
0
 10
1299.316284
 20
964.085449
  0
VERTEX
  8
0
 10
1279.183838
 20
929.189209
  0
VERTEX
  8
0
 10
1259.051392
 20
964.085449
  0
VERTEX
  8
0
 10
1238.918945
 20
929.189209
  0
SEQEND
  0
LINE
  8
0
 62
     5
 10
731.756775
 20
487.405396
 11
731.756775
 21
302.405396
  0
POLYLINE
  8
0
 62
     5
 66
     1
 70
     2
  0
VERTEX
  8
0
 10
736.918945
 20
469.337830
  0
VERTEX
  8
0
 10
731.756775
 20
487.405396
  0
VERTEX
  8
0
 10
726.594604
 20
469.337830
  0
SEQEND
  0
POLYLINE
  8
0
 62
     5
 66
     1
 70
     2
  0
VERTEX
  8
0
 10
726.594604
 20
320.472961
  0
VERTEX
  8
0
 10
731.756775
 20
302.405396
  0
VERTEX
  8
0
 10
736.918945
 20
320.472961
  0
SEQEND
  0
LINE
  8
0
 62
     5
 10
463.324341
 20
487.405396
 11
739.500000
 21
487.405396
  0
LINE
  8
0
 62
     5
 10
463.324341
 20
302.405396
 11
739.500000
 21
302.405396
  0
TEXT
  8
0
 62
     7
 10
726.594604
 20
356.189178
 40
25.810811
 41
1.000000
  1
%%c185
  7
KANJI
 50
90.000000
 51
0.000000
  0
LINE
  8
0
 62
     5
 10
773.054077
 20
514.905396
 11
773.054077
 21
274.905396
  0
POLYLINE
  8
0
 62
     5
 66
     1
 70
     2
  0
VERTEX
  8
0
 10
778.216248
 20
496.837830
  0
VERTEX
  8
0
 10
773.054077
 20
514.905396
  0
VERTEX
  8
0
 10
767.891907
 20
496.837830
  0
SEQEND
  0
POLYLINE
  8
0
 62
     5
 66
     1
 70
     2
  0
VERTEX
  8
0
 10
767.891907
 20
292.972961
  0
VERTEX
  8
0
 10
773.054077
 20
274.905396
  0
VERTEX
  8
0
 10
778.216248
 20
292.972961
  0
SEQEND
  0
LINE
  8
0
 62
     5
 10
463.324341
 20
514.905396
 11
780.797363
 21
514.905396
  0
LINE
  8
0
 62
     5
 10
463.324341
 20
274.905396
 11
780.797363
 21
274.905396
  0
TEXT
  8
0
 62
     7
 10
767.891907
 20
356.189178
 40
25.810811
 41
1.000000
  1
%%c240
  7
KANJI
 50
90.000000
 51
0.000000
  0
LINE
  8
0
 62
     5
 10
463.297302
 20
462.067566
 11
371.351379
 21
462.067566
  0
POLYLINE
  8
0
 62
     5
 66
     1
 70
     2
  0
VERTEX
  8
0
 10
402.324341
 20
462.067566
  0
VERTEX
  8
0
 10
400.775696
 20
463.616211
  0
VERTEX
  8
0
 10
403.872986
 20
463.616211
  0
VERTEX
  8
0
 10
403.872986
 20
460.518921
  0
VERTEX
  8
0
 10
400.775696
 20
460.518921
  0
VERTEX
  8
0
 10
400.775696
 20
463.616211
  0
VERTEX
  8
0
 10
402.324341
 20
462.067566
  0
VERTEX
  8
0
 10
403.872986
 20
460.518921
  0
VERTEX
  8
0
 10
403.872986
 20
463.616211
  0
VERTEX
  8
0
 10
402.324341
 20
462.067566
  0
SEQEND
  0
POLYLINE
  8
0
 62
     5
 66
     1
 70
     2
  0
VERTEX
  8
0
 10
432.324341
 20
462.067566
  0
VERTEX
  8
0
 10
430.775696
 20
463.616211
  0
VERTEX
  8
0
 10
433.872986
 20
463.616211
  0
VERTEX
  8
0
 10
433.872986
 20
460.518921
  0
VERTEX
  8
0
 10
430.775696
 20
460.518921
  0
VERTEX
  8
0
 10
430.775696
 20
463.616211
  0
VERTEX
  8
0
 10
432.324341
 20
462.067566
  0
VERTEX
  8
0
 10
433.872986
 20
460.518921
  0
VERTEX
  8
0
 10
433.872986
 20
463.616211
  0
VERTEX
  8
0
 10
432.324341
 20
462.067566
  0
SEQEND
  0
TEXT
  8
0
 62
     7
 10
400.547302
 20
466.197296
 40
25.810811
 41
1.000000
  1
30
  7
KANJI
 50
0.000000
 51
0.000000
  0
LINE
  8
0
 62
     5
 10
473.297302
 20
462.067566
 11
401.351379
 21
462.067566
  0
POLYLINE
  8
0
 62
     5
 66
     1
 70
     2
  0
VERTEX
  8
0
 10
414.256775
 20
456.905396
  0
VERTEX
  8
0
 10
432.324341
 20
462.067566
  0
VERTEX
  8
0
 10
414.256775
 20
467.229736
  0
SEQEND
  0
POLYLINE
  8
0
 62
     5
 66
     1
 70
     2
  0
VERTEX
  8
0
 10
460.391907
 20
467.229736
  0
VERTEX
  8
0
 10
442.324341
 20
462.067566
  0
VERTEX
  8
0
 10
460.391907
 20
456.905396
  0
SEQEND
  0
TEXT
  8
0
 62
     7
 10
457.810822
 20
466.197296
 40
25.810811
 41
1.000000
  1
10
  7
KANJI
 50
0.000000
 51
0.000000
  0
LINE
  8
0
 62
     5
 10
433.297302
 20
462.067566
 11
361.351379
 21
462.067566
  0
POLYLINE
  8
0
 62
     5
 66
     1
 70
     2
  0
VERTEX
  8
0
 10
374.256775
 20
456.905396
  0
VERTEX
  8
0
 10
392.324341
 20
462.067566
  0
VERTEX
  8
0
 10
374.256775
 20
467.229736
  0
SEQEND
  0
POLYLINE
  8
0
 62
     5
 66
     1
 70
     2
  0
VERTEX
  8
0
 10
420.391907
 20
467.229736
  0
VERTEX
  8
0
 10
402.324341
 20
462.067566
  0
VERTEX
  8
0
 10
420.391907
 20
456.905396
  0
SEQEND
  0
TEXT
  8
0
 62
     7
 10
343.283813
 20
466.197296
 40
25.810811
 41
1.000000
  1
10
  7
KANJI
 50
0.000000
 51
0.000000
  0
ARC
  8
0
 62
     4
 10
400.324341
 20
456.905396
 40
2.000000
 50
270.0
 51
0.0
  0
ARC
  8
0
 62
     4
 10
400.324341
 20
332.905396
 40
2.000000
 50
0.0
 51
90.0
  0
LINE
  8
DASHDOT
 62
     7
 10
376.837860
 20
509.905396
 11
457.810822
 21
509.905396
  0
LINE
  8
DASHDOT
 62
     7
 10
376.837860
 20
279.905396
 11
457.810822
 21
279.905396
  0
LINE
  8
DASHDOT
 62
     7
 10
376.837860
 20
394.905396
 11
478.810822
 21
394.905396
  0
LINE
  8
0
 62
     5
 10
442.324341
 20
513.405396
 11
442.324341
 21
514.905396
  0
LINE
  8
0
 62
     5
 10
392.324341
 20
513.405396
 11
392.324341
 21
514.905396
  0
LINE
  8
0
 62
     5
 10
440.824341
 20
514.905396
 11
463.324341
 21
514.905396
  0
LINE
  8
0
 62
     5
 10
440.824341
 20
274.905396
 11
463.324341
 21
274.905396
  0
LINE
  8
0
 62
     4
 10
392.324341
 20
503.655396
 11
442.324341
 21
503.655396
  0
LINE
  8
0
 62
     4
 10
392.324341
 20
286.155396
 11
442.324341
 21
286.155396
  0
LINE
  8
0
 62
     4
 10
463.324341
 20
410.905396
 11
462.324341
 21
409.905396
  0
LINE
  8
0
 62
     4
 10
463.324341
 20
378.905396
 11
462.324341
 21
379.905396
  0
LINE
  8
0
 62
     4
 10
392.324341
 20
378.905396
 11
393.324341
 21
379.905396
  0
LINE
  8
0
 62
     4
 10
392.324341
 20
454.905396
 11
400.324341
 21
454.905396
  0
LINE
  8
0
 62
     4
 10
392.324341
 20
334.905396
 11
400.324341
 21
334.905396
  0
POLYLINE
  8
0
 62
     4
 66
     1
 70
     2
  0
VERTEX
  8
0
 10
432.324341
 20
456.905396
  0
VERTEX
  8
0
 10
432.324341
 20
467.779297
  0
VERTEX
  8
0
 10
442.324341
 20
487.405396
  0
SEQEND
  0
POLYLINE
  8
0
 62
     4
 66
     1
 70
     2
  0
VERTEX
  8
0
 10
402.324341
 20
456.905396
  0
VERTEX
  8
0
 10
402.324341
 20
467.779297
  0
VERTEX
  8
0
 10
392.324341
 20
487.405396
  0
SEQEND
  0
POLYLINE
  8
0
 62
     4
 66
     1
 70
     2
  0
VERTEX
  8
0
 10
432.324341
 20
332.905396
  0
VERTEX
  8
0
 10
432.324341
 20
322.031494
  0
VERTEX
  8
0
 10
442.324341
 20
302.405396
  0
SEQEND
  0
POLYLINE
  8
0
 62
     4
 66
     1
 70
     2
  0
VERTEX
  8
0
 10
402.324341
 20
332.905396
  0
VERTEX
  8
0
 10
402.324341
 20
322.031494
  0
VERTEX
  8
0
 10
392.324341
 20
302.405396
  0
SEQEND
  0
POLYLINE
  8
0
 62
     4
 66
     1
 70
     2
  0
VERTEX
  8
0
 10
392.324341
 20
410.905396
  0
VERTEX
  8
0
 10
393.324341
 20
409.905396
  0
VERTEX
  8
0
 10
393.324341
 20
379.905396
  0
VERTEX
  8
0
 10
462.324341
 20
379.905396
  0
VERTEX
  8
0
 10
462.324341
 20
409.905396
  0
VERTEX
  8
0
 10
393.324341
 20
409.905396
  0
SEQEND
  0
LINE
  8
0
 62
     5
 10
442.324341
 20
302.405396
 11
463.324341
 21
302.405396
  0
LINE
  8
0
 62
     5
 10
442.324341
 20
487.405396
 11
463.324341
 21
487.405396
  0
LINE
  8
0
 62
     5
 10
463.324341
 20
453.905396
 11
463.324341
 21
514.905396
  0
LINE
  8
0
 62
     5
 10
392.324341
 20
669.770264
 11
463.324341
 21
669.770264
  0
POLYLINE
  8
0
 62
     5
 66
     1
 70
     2
  0
VERTEX
  8
0
 10
410.391907
 20
674.932434
  0
VERTEX
  8
0
 10
392.324341
 20
669.770264
  0
VERTEX
  8
0
 10
410.391907
 20
664.608093
  0
SEQEND
  0
POLYLINE
  8
0
 62
     5
 66
     1
 70
     2
  0
VERTEX
  8
0
 10
445.256775
 20
664.608093
  0
VERTEX
  8
0
 10
463.324341
 20
669.770264
  0
VERTEX
  8
0
 10
445.256775
 20
674.932434
  0
SEQEND
  0
LINE
  8
0
 62
     5
 10
392.324341
 20
514.905396
 11
392.324341
 21
677.513550
  0
LINE
  8
0
 62
     5
 10
463.324341
 20
514.905396
 11
463.324341
 21
677.513550
  0
TEXT
  8
0
 62
     7
 10
411.047302
 20
673.900024
 40
25.810811
 41
1.000000
  1
71
  7
KANJI
 50
0.000000
 51
0.000000
  0
LINE
  8
0
 62
     5
 10
473.297302
 20
628.472961
 11
361.351379
 21
628.472961
  0
POLYLINE
  8
0
 62
     5
 66
     1
 70
     2
  0
VERTEX
  8
0
 10
374.256775
 20
623.310791
  0
VERTEX
  8
0
 10
392.324341
 20
628.472961
  0
VERTEX
  8
0
 10
374.256775
 20
633.635132
  0
SEQEND
  0
POLYLINE
  8
0
 62
     5
 66
     1
 70
     2
  0
VERTEX
  8
0
 10
460.391907
 20
633.635132
  0
VERTEX
  8
0
 10
442.324341
 20
628.472961
  0
VERTEX
  8
0
 10
460.391907
 20
623.310791
  0
SEQEND
  0
LINE
  8
0
 62
     5
 10
442.324341
 20
514.905396
 11
442.324341
 21
636.216187
  0
TEXT
  8
0
 62
     7
 10
400.547302
 20
632.602661
 40
25.810811
 41
1.000000
  1
50
  7
KANJI
 50
0.000000
 51
0.000000
  0
LINE
  8
0
 62
     5
 10
494.297302
 20
628.472961
 11
411.351379
 21
628.472961
  0
POLYLINE
  8
0
 62
     5
 66
     1
 70
     2
  0
VERTEX
  8
0
 10
424.256775
 20
623.310791
  0
VERTEX
  8
0
 10
442.324341
 20
628.472961
  0
VERTEX
  8
0
 10
424.256775
 20
633.635132
  0
SEQEND
  0
POLYLINE
  8
0
 62
     5
 66
     1
 70
     2
  0
VERTEX
  8
0
 10
481.391907
 20
633.635132
  0
VERTEX
  8
0
 10
463.324341
 20
628.472961
  0
VERTEX
  8
0
 10
481.391907
 20
623.310791
  0
SEQEND
  0
TEXT
  8
0
 62
     7
 10
436.047302
 20
632.602661
 40
25.810811
 41
1.000000
  1
21
  7
KANJI
 50
0.000000
 51
0.000000
  0
LINE
  8
0
 62
     5
 10
607.864868
 20
348.932434
 11
607.864868
 21
440.878357
  0
POLYLINE
  8
0
 62
     5
 66
     1
 70
     2
  0
VERTEX
  8
0
 10
602.702759
 20
427.972961
  0
VERTEX
  8
0
 10
607.864868
 20
409.905396
  0
VERTEX
  8
0
 10
613.027039
 20
427.972961
  0
SEQEND
  0
POLYLINE
  8
0
 62
     5
 66
     1
 70
     2
  0
VERTEX
  8
0
 10
613.027039
 20
361.837830
  0
VERTEX
  8
0
 10
607.864868
 20
379.905396
  0
VERTEX
  8
0
 10
602.702759
 20
361.837830
  0
SEQEND
  0
LINE
  8
0
 62
     5
 10
463.324341
 20
409.905396
 11
615.608154
 21
409.905396
  0
LINE
  8
0
 62
     5
 10
463.324341
 20
379.905396
 11
615.608154
 21
379.905396
  0
TEXT
  8
0
 62
     7
 10
602.702759
 20
347.800659
 40
25.810811
 41
1.000000
  1
%%c30H7
  7
KANJI
 50
90.000000
 51
0.000000
  0
POLYLINE
  8
0
 62
     4
 66
     1
 70
     2
  0
VERTEX
  8
0
 10
392.324341
 20
378.905396
  0
VERTEX
  8
0
 10
392.324341
 20
276.405396
  0
VERTEX
  8
0
 10
393.824341
 20
274.905396
  0
VERTEX
  8
0
 10
440.824341
 20
274.905396
  0
VERTEX
  8
0
 10
442.324341
 20
276.405396
  0
VERTEX
  8
0
 10
442.324341
 20
334.905396
  0
VERTEX
  8
0
 10
462.324341
 20
334.905396
  0
VERTEX
  8
0
 10
463.324341
 20
335.905396
  0
VERTEX
  8
0
 10
463.324341
 20
453.905396
  0
VERTEX
  8
0
 10
462.324341
 20
454.905396
  0
VERTEX
  8
0
 10
442.324341
 20
454.905396
  0
VERTEX
  8
0
 10
442.324341
 20
513.405396
  0
SEQEND
  0
POLYLINE
  8
0
 62
     4
 66
     1
 70
     2
  0
VERTEX
  8
0
 10
442.324341
 20
513.405396
  0
VERTEX
  8
0
 10
440.824341
 20
514.905396
  0
VERTEX
  8
0
 10
393.824341
 20
514.905396
  0
VERTEX
  8
0
 10
392.324341
 20
513.405396
  0
VERTEX
  8
0
 10
392.324341
 20
378.905396
  0
SEQEND
  0
ARC
  8
0
 62
     4
 10
434.324341
 20
332.905396
 40
2.000000
 50
90.0
 51
180.0
  0
ARC
  8
0
 62
     4
 10
434.324341
 20
456.905396
 40
2.000000
 50
180.0
 51
270.0
  0
LINE
  8
0
 62
     4
 10
442.324341
 20
334.905396
 11
434.324341
 21
334.905396
  0
LINE
  8
0
 62
     4
 10
434.324341
 20
454.905396
 11
442.324341
 21
454.905396
  0
LINE
  8
0
 62
     5
 10
649.162170
 20
454.905396
 11
649.162170
 21
334.905396
  0
POLYLINE
  8
0
 62
     5
 66
     1
 70
     2
  0
VERTEX
  8
0
 10
654.324341
 20
436.837830
  0
VERTEX
  8
0
 10
649.162170
 20
454.905396
  0
VERTEX
  8
0
 10
644.000000
 20
436.837830
  0
SEQEND
  0
POLYLINE
  8
0
 62
     5
 66
     1
 70
     2
  0
VERTEX
  8
0
 10
644.000000
 20
352.972961
  0
VERTEX
  8
0
 10
649.162170
 20
334.905396
  0
VERTEX
  8
0
 10
654.324341
 20
352.972961
  0
SEQEND
  0
LINE
  8
0
 62
     5
 10
463.324341
 20
454.905396
 11
656.905396
 21
454.905396
  0
LINE
  8
0
 62
     5
 10
463.324341
 20
334.905396
 11
656.905396
 21
334.905396
  0
TEXT
  8
0
 62
     7
 10
644.000000
 20
356.189178
 40
25.810811
 41
1.000000
  1
%%c120
  7
KANJI
 50
90.000000
 51
0.000000
  0
LINE
  8
0
 62
     4
 10
432.324341
 20
467.779297
 11
432.324341
 21
456.905396
  0
LINE
  8
0
 62
     4
 10
432.324341
 20
332.905396
 11
432.324341
 21
322.031494
  0
ENDSEC
  0
EOF
