  0
SECTION
  2
HEADER
  9
$ACADVER
  1
AC1003
  9
$INSBASE
 10
0.000000
 20
0.000000
  9
$EXTMIN
 10
0.000000
 20
0.000000
  9
$EXTMAX
 10
1305.782609
 20
902.934783
  9
$LIMMIN
 10
0.000000
 20
0.000000
  9
$LIMMAX
 10
1305.782609
 20
902.934783
  9
$VIEWCTR
 10
652.891304
 20
451.467391
  9
$VIEWSIZE
 40
902.934783
  0
ENDSEC
  0
SECTION
  2
TABLES
  0
TABLE
  2
LTYPE
 70
     4
  0
LTYPE
  2
CONTINUOUS
 70
    64
  3
SolidLine
 72
    65
 73
     0
 40
0.0
  0
LTYPE
  2
HIDDEN
 70
    64
  3
------------------------
 72
    65
 73
     2
 40
13.891304
 49
9.260870
 49
-4.630435
  0
LTYPE
  2
DASHDOT
 70
    64
  3
--?--?--?--?--?--?--?--
 72
    65
 73
     4
 40
55.565217
 49
41.673913
 49
-4.630435
 49
4.630435
 49
-4.630435
  0
LTYPE
  2
DIVIDE
 70
    64
  3
--??--??--??--??--??--
 72
    65
 73
     6
 40
69.456522
 49
46.304348
 49
-4.630435
 49
4.630435
 49
-4.630435
 49
4.630435
 49
-4.630435
  0
ENDTAB
  0
TABLE
  2
LAYER
 70
     5
  0
LAYER
  2
0
 70
    64
 62
     7
  6
CONTINUOUS
  0
LAYER
  2
HIDDEN
 70
    64
 62
     2
  6
HIDDEN
  0
LAYER
  2
DASHDOT
 70
    64
 62
     6
  6
DASHDOT
  0
LAYER
  2
DIVIDE
 70
    64
 62
     5
  6
DIVIDE
  0
ENDTAB
  0
TABLE
  2
STYLE
 70
     1
  0
STYLE
  2
STANDARD
 70
    64
 40
0.0
 41
1.0
 50
0.0
 71
     0
 42
0.2
  3
TXT
  4

  0
STYLE
  2
KANJI
 70
    64
 40
0.0
 41
1.0
 50
0.0
 71
     0
 42
0.2
  3
TXT
  4
BIGFONT
  0
ENDTAB
  0
TABLE
  2
VIEW
 70
     0
  0
ENDTAB
  0
ENDSEC
  0
SECTION
  2
BLOCKS
  0
ENDSEC
  0
SECTION
  2
ENTITIES
  0
TEXT
  8
0
 62
     7
 10
46.304348
 20
50.934784
 40
18.521739
 41
1.000000
  1
KHK SS6-25
  7
KANJI
 50
0.000000
 51
0.000000
  0
TEXT
  8
0
 62
     7
 10
46.304348
 20
23.152174
 40
18.521739
 41
1.000000
  1

  7
KANJI
 50
0.000000
 51
0.000000
  0
TEXT
  8
0
 62
     7
 10
46.304348
 20
833.478271
 40
20.836957
 41
1.000000
  1
Black oxide
  7
KANJI
 50
0.000000
 51
0.000000
  0
POLYLINE
  8
0
 62
     7
 66
     1
 70
     2
  0
VERTEX
  8
0
 10
1111.304321
 20
833.478271
  0
VERTEX
  8
0
 10
1093.245605
 20
864.780029
  0
VERTEX
  8
0
 10
1165.480469
 20
864.780029
  0
VERTEX
  8
0
 10
1147.421753
 20
833.478271
  0
VERTEX
  8
0
 10
1129.363037
 20
864.780029
  0
VERTEX
  8
0
 10
1111.304321
 20
833.478271
  0
SEQEND
  0
LINE
  8
0
 62
     5
 10
694.586914
 20
458.380432
 11
694.586914
 21
296.380432
  0
POLYLINE
  8
0
 62
     5
 66
     1
 70
     2
  0
VERTEX
  8
0
 10
699.217346
 20
442.173920
  0
VERTEX
  8
0
 10
694.586914
 20
458.380432
  0
VERTEX
  8
0
 10
689.956482
 20
442.173920
  0
SEQEND
  0
POLYLINE
  8
0
 62
     5
 66
     1
 70
     2
  0
VERTEX
  8
0
 10
689.956482
 20
312.586945
  0
VERTEX
  8
0
 10
694.586914
 20
296.380432
  0
VERTEX
  8
0
 10
699.217346
 20
312.586945
  0
SEQEND
  0
LINE
  8
0
 62
     5
 10
463.065186
 20
458.380432
 11
701.532593
 21
458.380432
  0
LINE
  8
0
 62
     5
 10
463.065186
 20
296.380432
 11
701.532593
 21
296.380432
  0
TEXT
  8
0
 62
     7
 10
689.956482
 20
342.652161
 40
23.152174
 41
1.000000
  1
%%c162
  7
KANJI
 50
90.000000
 51
0.000000
  0
LINE
  8
DASHDOT
 62
     7
 10
361.173889
 20
452.380432
 11
448.956482
 21
452.380432
  0
LINE
  8
DASHDOT
 62
     7
 10
361.173889
 20
302.380432
 11
448.956482
 21
302.380432
  0
LINE
  8
DASHDOT
 62
     7
 10
361.173889
 20
377.380432
 11
476.956482
 21
377.380432
  0
LINE
  8
0
 62
     5
 10
435.065186
 20
456.880432
 11
435.065186
 21
458.380432
  0
LINE
  8
0
 62
     5
 10
375.065186
 20
456.880432
 11
375.065186
 21
458.380432
  0
LINE
  8
0
 62
     5
 10
436.565186
 20
439.880432
 11
463.065186
 21
439.880432
  0
LINE
  8
0
 62
     5
 10
436.565186
 20
314.880432
 11
463.065186
 21
314.880432
  0
LINE
  8
0
 62
     5
 10
433.565186
 20
458.380432
 11
463.065186
 21
458.380432
  0
LINE
  8
0
 62
     5
 10
433.565186
 20
296.380432
 11
463.065186
 21
296.380432
  0
LINE
  8
0
 62
     4
 10
375.065186
 20
444.880432
 11
435.065186
 21
444.880432
  0
LINE
  8
0
 62
     4
 10
375.065186
 20
309.880432
 11
435.065186
 21
309.880432
  0
LINE
  8
0
 62
     4
 10
462.065186
 20
363.380432
 11
463.065186
 21
362.380432
  0
LINE
  8
0
 62
     4
 10
462.065186
 20
391.380432
 11
463.065186
 21
392.380432
  0
LINE
  8
0
 62
     4
 10
376.065186
 20
391.380432
 11
376.065186
 21
363.380432
  0
POLYLINE
  8
0
 62
     4
 66
     1
 70
     2
  0
VERTEX
  8
0
 10
375.065186
 20
362.380432
  0
VERTEX
  8
0
 10
376.065186
 20
363.380432
  0
VERTEX
  8
0
 10
462.065186
 20
363.380432
  0
VERTEX
  8
0
 10
462.065186
 20
391.380432
  0
VERTEX
  8
0
 10
376.065186
 20
391.380432
  0
VERTEX
  8
0
 10
375.065186
 20
392.380432
  0
SEQEND
  0
ARC
  8
0
 62
     4
 10
436.565186
 20
441.380432
 40
1.500000
 50
180.0
 51
270.0
  0
ARC
  8
0
 62
     4
 10
436.565186
 20
313.380432
 40
1.500000
 50
90.0
 51
180.0
  0
LINE
  8
0
 62
     5
 10
463.065186
 20
438.880432
 11
463.065186
 21
458.380432
  0
LINE
  8
0
 62
     5
 10
375.065186
 20
583.402161
 11
435.065186
 21
583.402161
  0
POLYLINE
  8
0
 62
     5
 66
     1
 70
     2
  0
VERTEX
  8
0
 10
391.271698
 20
588.032593
  0
VERTEX
  8
0
 10
375.065186
 20
583.402161
  0
VERTEX
  8
0
 10
391.271698
 20
578.771729
  0
SEQEND
  0
POLYLINE
  8
0
 62
     5
 66
     1
 70
     2
  0
VERTEX
  8
0
 10
418.858673
 20
578.771729
  0
VERTEX
  8
0
 10
435.065186
 20
583.402161
  0
VERTEX
  8
0
 10
418.858673
 20
588.032593
  0
SEQEND
  0
LINE
  8
0
 62
     5
 10
435.065186
 20
458.380432
 11
435.065186
 21
590.347778
  0
TEXT
  8
0
 62
     7
 10
390.016266
 20
587.106506
 40
23.152174
 41
1.000000
  1
60
  7
KANJI
 50
0.000000
 51
0.000000
  0
LINE
  8
0
 62
     5
 10
375.065186
 20
620.445679
 11
463.065186
 21
620.445679
  0
POLYLINE
  8
0
 62
     5
 66
     1
 70
     2
  0
VERTEX
  8
0
 10
391.271698
 20
625.076050
  0
VERTEX
  8
0
 10
375.065186
 20
620.445679
  0
VERTEX
  8
0
 10
391.271698
 20
615.815186
  0
SEQEND
  0
POLYLINE
  8
0
 62
     5
 66
     1
 70
     2
  0
VERTEX
  8
0
 10
446.858673
 20
615.815186
  0
VERTEX
  8
0
 10
463.065186
 20
620.445679
  0
VERTEX
  8
0
 10
446.858673
 20
625.076050
  0
SEQEND
  0
LINE
  8
0
 62
     5
 10
375.065186
 20
458.380432
 11
375.065186
 21
627.391296
  0
LINE
  8
0
 62
     5
 10
463.065186
 20
458.380432
 11
463.065186
 21
627.391296
  0
TEXT
  8
0
 62
     7
 10
404.016266
 20
624.150024
 40
23.152174
 41
1.000000
  1
88
  7
KANJI
 50
0.000000
 51
0.000000
  0
LINE
  8
0
 62
     5
 10
490.847778
 20
583.402161
 11
407.282593
 21
583.402161
  0
POLYLINE
  8
0
 62
     5
 66
     1
 70
     2
  0
VERTEX
  8
0
 10
418.858673
 20
578.771729
  0
VERTEX
  8
0
 10
435.065186
 20
583.402161
  0
VERTEX
  8
0
 10
418.858673
 20
588.032593
  0
SEQEND
  0
POLYLINE
  8
0
 62
     5
 66
     1
 70
     2
  0
VERTEX
  8
0
 10
479.271698
 20
588.032593
  0
VERTEX
  8
0
 10
463.065186
 20
583.402161
  0
VERTEX
  8
0
 10
479.271698
 20
578.771729
  0
SEQEND
  0
TEXT
  8
0
 62
     7
 10
476.956482
 20
587.106506
 40
23.152174
 41
1.000000
  1
28
  7
KANJI
 50
0.000000
 51
0.000000
  0
LINE
  8
0
 62
     5
 10
657.543457
 20
439.880432
 11
657.543457
 21
314.880432
  0
POLYLINE
  8
0
 62
     5
 66
     1
 70
     2
  0
VERTEX
  8
0
 10
662.173889
 20
423.673920
  0
VERTEX
  8
0
 10
657.543457
 20
439.880432
  0
VERTEX
  8
0
 10
652.913025
 20
423.673920
  0
SEQEND
  0
POLYLINE
  8
0
 62
     5
 66
     1
 70
     2
  0
VERTEX
  8
0
 10
652.913025
 20
331.086945
  0
VERTEX
  8
0
 10
657.543457
 20
314.880432
  0
VERTEX
  8
0
 10
662.173889
 20
331.086945
  0
SEQEND
  0
LINE
  8
0
 62
     5
 10
463.065186
 20
439.880432
 11
664.489136
 21
439.880432
  0
LINE
  8
0
 62
     5
 10
463.065186
 20
314.880432
 11
664.489136
 21
314.880432
  0
TEXT
  8
0
 62
     7
 10
652.913025
 20
342.652161
 40
23.152174
 41
1.000000
  1
%%c125
  7
KANJI
 50
90.000000
 51
0.000000
  0
LINE
  8
0
 62
     5
 10
583.456482
 20
335.597839
 11
583.456482
 21
419.163025
  0
POLYLINE
  8
0
 62
     5
 66
     1
 70
     2
  0
VERTEX
  8
0
 10
578.826050
 20
407.586945
  0
VERTEX
  8
0
 10
583.456482
 20
391.380432
  0
VERTEX
  8
0
 10
588.086914
 20
407.586945
  0
SEQEND
  0
POLYLINE
  8
0
 62
     5
 66
     1
 70
     2
  0
VERTEX
  8
0
 10
588.086914
 20
347.173920
  0
VERTEX
  8
0
 10
583.456482
 20
363.380432
  0
VERTEX
  8
0
 10
578.826050
 20
347.173920
  0
SEQEND
  0
LINE
  8
0
 62
     5
 10
463.065186
 20
391.380432
 11
590.402100
 21
391.380432
  0
LINE
  8
0
 62
     5
 10
463.065186
 20
363.380432
 11
590.402100
 21
363.380432
  0
TEXT
  8
0
 62
     7
 10
578.826050
 20
335.127716
 40
23.152174
 41
1.000000
  1
%%c28H7
  7
KANJI
 50
90.000000
 51
0.000000
  0
POLYLINE
  8
0
 62
     4
 66
     1
 70
     2
  0
VERTEX
  8
0
 10
375.065186
 20
362.380432
  0
VERTEX
  8
0
 10
375.065186
 20
297.880432
  0
VERTEX
  8
0
 10
376.565186
 20
296.380432
  0
VERTEX
  8
0
 10
433.565186
 20
296.380432
  0
VERTEX
  8
0
 10
435.065186
 20
297.880432
  0
VERTEX
  8
0
 10
435.065186
 20
313.380432
  0
SEQEND
  0
POLYLINE
  8
0
 62
     4
 66
     1
 70
     2
  0
VERTEX
  8
0
 10
436.565186
 20
314.880432
  0
VERTEX
  8
0
 10
462.065186
 20
314.880432
  0
VERTEX
  8
0
 10
463.065186
 20
315.880432
  0
VERTEX
  8
0
 10
463.065186
 20
438.880432
  0
VERTEX
  8
0
 10
462.065186
 20
439.880432
  0
VERTEX
  8
0
 10
436.565186
 20
439.880432
  0
SEQEND
  0
POLYLINE
  8
0
 62
     4
 66
     1
 70
     2
  0
VERTEX
  8
0
 10
435.065186
 20
441.380432
  0
VERTEX
  8
0
 10
435.065186
 20
456.880432
  0
VERTEX
  8
0
 10
433.565186
 20
458.380432
  0
VERTEX
  8
0
 10
376.565186
 20
458.380432
  0
VERTEX
  8
0
 10
375.065186
 20
456.880432
  0
VERTEX
  8
0
 10
375.065186
 20
362.380432
  0
SEQEND
  0
ENDSEC
  0
EOF
