  0
SECTION
  2
HEADER
  9
$ACADVER
  1
AC1003
  9
$INSBASE
 10
0.000000
 20
0.000000
  9
$EXTMIN
 10
0.000000
 20
0.000000
  9
$EXTMAX
 10
1532.608696
 20
1059.782609
  9
$LIMMIN
 10
0.000000
 20
0.000000
  9
$LIMMAX
 10
1532.608696
 20
1059.782609
  9
$VIEWCTR
 10
766.304348
 20
529.891304
  9
$VIEWSIZE
 40
1059.782609
  0
ENDSEC
  0
SECTION
  2
TABLES
  0
TABLE
  2
LTYPE
 70
     4
  0
LTYPE
  2
CONTINUOUS
 70
    64
  3
SolidLine
 72
    65
 73
     0
 40
0.0
  0
LTYPE
  2
HIDDEN
 70
    64
  3
------------------------
 72
    65
 73
     2
 40
16.304348
 49
10.869565
 49
-5.434783
  0
LTYPE
  2
DASHDOT
 70
    64
  3
--?--?--?--?--?--?--?--
 72
    65
 73
     4
 40
65.217391
 49
48.913043
 49
-5.434783
 49
5.434783
 49
-5.434783
  0
LTYPE
  2
DIVIDE
 70
    64
  3
--??--??--??--??--??--
 72
    65
 73
     6
 40
81.521739
 49
54.347826
 49
-5.434783
 49
5.434783
 49
-5.434783
 49
5.434783
 49
-5.434783
  0
ENDTAB
  0
TABLE
  2
LAYER
 70
     5
  0
LAYER
  2
0
 70
    64
 62
     7
  6
CONTINUOUS
  0
LAYER
  2
HIDDEN
 70
    64
 62
     2
  6
HIDDEN
  0
LAYER
  2
DASHDOT
 70
    64
 62
     6
  6
DASHDOT
  0
LAYER
  2
DIVIDE
 70
    64
 62
     5
  6
DIVIDE
  0
ENDTAB
  0
TABLE
  2
STYLE
 70
     1
  0
STYLE
  2
STANDARD
 70
    64
 40
0.0
 41
1.0
 50
0.0
 71
     0
 42
0.2
  3
TXT
  4

  0
STYLE
  2
KANJI
 70
    64
 40
0.0
 41
1.0
 50
0.0
 71
     0
 42
0.2
  3
TXT
  4
BIGFONT
  0
ENDTAB
  0
TABLE
  2
VIEW
 70
     0
  0
ENDTAB
  0
ENDSEC
  0
SECTION
  2
BLOCKS
  0
ENDSEC
  0
SECTION
  2
ENTITIES
  0
TEXT
  8
0
 62
     7
 10
54.347828
 20
59.782608
 40
21.739130
 41
1.000000
  1
KHK SS8-21
  7
KANJI
 50
0.000000
 51
0.000000
  0
TEXT
  8
0
 62
     7
 10
54.347828
 20
27.173914
 40
21.739130
 41
1.000000
  1

  7
KANJI
 50
0.000000
 51
0.000000
  0
TEXT
  8
0
 62
     7
 10
54.347828
 20
978.260864
 40
24.456522
 41
1.000000
  1
Black oxide
  7
KANJI
 50
0.000000
 51
0.000000
  0
POLYLINE
  8
0
 62
     7
 66
     1
 70
     2
  0
VERTEX
  8
0
 10
1304.347778
 20
978.260864
  0
VERTEX
  8
0
 10
1283.152100
 20
1015.000000
  0
VERTEX
  8
0
 10
1367.934692
 20
1015.000000
  0
VERTEX
  8
0
 10
1346.739136
 20
978.260864
  0
VERTEX
  8
0
 10
1325.543457
 20
1015.000000
  0
VERTEX
  8
0
 10
1304.347778
 20
978.260864
  0
SEQEND
  0
LINE
  8
0
 62
     5
 10
821.956543
 20
534.934814
 11
821.956543
 21
350.934784
  0
POLYLINE
  8
0
 62
     5
 66
     1
 70
     2
  0
VERTEX
  8
0
 10
827.391296
 20
515.913025
  0
VERTEX
  8
0
 10
821.956543
 20
534.934814
  0
VERTEX
  8
0
 10
816.521729
 20
515.913025
  0
SEQEND
  0
POLYLINE
  8
0
 62
     5
 66
     1
 70
     2
  0
VERTEX
  8
0
 10
816.521729
 20
369.956543
  0
VERTEX
  8
0
 10
821.956543
 20
350.934784
  0
VERTEX
  8
0
 10
827.391296
 20
369.956543
  0
SEQEND
  0
LINE
  8
0
 62
     5
 10
550.217407
 20
534.934814
 11
830.108643
 21
534.934814
  0
LINE
  8
0
 62
     5
 10
550.217407
 20
350.934784
 11
830.108643
 21
350.934784
  0
TEXT
  8
0
 62
     7
 10
816.521729
 20
402.173920
 40
27.173913
 41
1.000000
  1
%%c184
  7
KANJI
 50
90.000000
 51
0.000000
  0
LINE
  8
DASHDOT
 62
     7
 10
423.913025
 20
526.934814
 11
531.521729
 21
526.934814
  0
LINE
  8
DASHDOT
 62
     7
 10
423.913025
 20
358.934784
 11
531.521729
 21
358.934784
  0
LINE
  8
DASHDOT
 62
     7
 10
423.913025
 20
442.934784
 11
566.521729
 21
442.934784
  0
LINE
  8
0
 62
     5
 10
515.217407
 20
533.434814
 11
515.217407
 21
534.934814
  0
LINE
  8
0
 62
     5
 10
440.217377
 20
533.434814
 11
440.217377
 21
534.934814
  0
LINE
  8
0
 62
     5
 10
516.717407
 20
512.934814
 11
550.217407
 21
512.934814
  0
LINE
  8
0
 62
     5
 10
516.717407
 20
372.934784
 11
550.217407
 21
372.934784
  0
LINE
  8
0
 62
     5
 10
513.717407
 20
534.934814
 11
550.217407
 21
534.934814
  0
LINE
  8
0
 62
     5
 10
513.717407
 20
350.934784
 11
550.217407
 21
350.934784
  0
LINE
  8
0
 62
     4
 10
440.217377
 20
516.934814
 11
515.217407
 21
516.934814
  0
LINE
  8
0
 62
     4
 10
440.217377
 20
368.934784
 11
515.217407
 21
368.934784
  0
LINE
  8
0
 62
     4
 10
549.217407
 20
427.934784
 11
550.217407
 21
426.934784
  0
LINE
  8
0
 62
     4
 10
549.217407
 20
457.934784
 11
550.217407
 21
458.934784
  0
LINE
  8
0
 62
     4
 10
441.217377
 20
457.934784
 11
441.217377
 21
427.934784
  0
POLYLINE
  8
0
 62
     4
 66
     1
 70
     2
  0
VERTEX
  8
0
 10
440.217377
 20
426.934784
  0
VERTEX
  8
0
 10
441.217377
 20
427.934784
  0
VERTEX
  8
0
 10
549.217407
 20
427.934784
  0
VERTEX
  8
0
 10
549.217407
 20
457.934784
  0
VERTEX
  8
0
 10
441.217377
 20
457.934784
  0
VERTEX
  8
0
 10
440.217377
 20
458.934784
  0
SEQEND
  0
ARC
  8
0
 62
     4
 10
516.717407
 20
514.434814
 40
1.500000
 50
180.0
 51
270.0
  0
ARC
  8
0
 62
     4
 10
516.717407
 20
371.434784
 40
1.500000
 50
90.0
 51
180.0
  0
LINE
  8
0
 62
     5
 10
550.217407
 20
511.934784
 11
550.217407
 21
534.934814
  0
LINE
  8
0
 62
     5
 10
440.217377
 20
681.673950
 11
515.217407
 21
681.673950
  0
POLYLINE
  8
0
 62
     5
 66
     1
 70
     2
  0
VERTEX
  8
0
 10
459.239105
 20
687.108704
  0
VERTEX
  8
0
 10
440.217377
 20
681.673950
  0
VERTEX
  8
0
 10
459.239105
 20
676.239136
  0
SEQEND
  0
POLYLINE
  8
0
 62
     5
 66
     1
 70
     2
  0
VERTEX
  8
0
 10
496.195648
 20
676.239136
  0
VERTEX
  8
0
 10
515.217407
 20
681.673950
  0
VERTEX
  8
0
 10
496.195648
 20
687.108704
  0
SEQEND
  0
LINE
  8
0
 62
     5
 10
515.217407
 20
534.934814
 11
515.217407
 21
689.826111
  0
TEXT
  8
0
 62
     7
 10
460.054321
 20
686.021729
 40
27.173913
 41
1.000000
  1
75
  7
KANJI
 50
0.000000
 51
0.000000
  0
LINE
  8
0
 62
     5
 10
440.217377
 20
725.152222
 11
550.217407
 21
725.152222
  0
POLYLINE
  8
0
 62
     5
 66
     1
 70
     2
  0
VERTEX
  8
0
 10
459.239105
 20
730.586975
  0
VERTEX
  8
0
 10
440.217377
 20
725.152222
  0
VERTEX
  8
0
 10
459.239105
 20
719.717407
  0
SEQEND
  0
POLYLINE
  8
0
 62
     5
 66
     1
 70
     2
  0
VERTEX
  8
0
 10
531.195618
 20
719.717407
  0
VERTEX
  8
0
 10
550.217407
 20
725.152222
  0
VERTEX
  8
0
 10
531.195618
 20
730.586975
  0
SEQEND
  0
LINE
  8
0
 62
     5
 10
440.217377
 20
534.934814
 11
440.217377
 21
733.304321
  0
LINE
  8
0
 62
     5
 10
550.217407
 20
534.934814
 11
550.217407
 21
733.304321
  0
TEXT
  8
0
 62
     7
 10
468.722809
 20
729.500000
 40
27.173913
 41
1.000000
  1
110
  7
KANJI
 50
0.000000
 51
0.000000
  0
LINE
  8
0
 62
     5
 10
582.826050
 20
681.673950
 11
482.608673
 21
681.673950
  0
POLYLINE
  8
0
 62
     5
 66
     1
 70
     2
  0
VERTEX
  8
0
 10
496.195648
 20
676.239136
  0
VERTEX
  8
0
 10
515.217407
 20
681.673950
  0
VERTEX
  8
0
 10
496.195648
 20
687.108704
  0
SEQEND
  0
POLYLINE
  8
0
 62
     5
 66
     1
 70
     2
  0
VERTEX
  8
0
 10
569.239136
 20
687.108704
  0
VERTEX
  8
0
 10
550.217407
 20
681.673950
  0
VERTEX
  8
0
 10
569.239136
 20
676.239136
  0
SEQEND
  0
TEXT
  8
0
 62
     7
 10
566.521729
 20
686.021729
 40
27.173913
 41
1.000000
  1
35
  7
KANJI
 50
0.000000
 51
0.000000
  0
LINE
  8
0
 62
     5
 10
778.478271
 20
512.934814
 11
778.478271
 21
372.934784
  0
POLYLINE
  8
0
 62
     5
 66
     1
 70
     2
  0
VERTEX
  8
0
 10
783.913025
 20
493.913055
  0
VERTEX
  8
0
 10
778.478271
 20
512.934814
  0
VERTEX
  8
0
 10
773.043457
 20
493.913055
  0
SEQEND
  0
POLYLINE
  8
0
 62
     5
 66
     1
 70
     2
  0
VERTEX
  8
0
 10
773.043457
 20
391.956512
  0
VERTEX
  8
0
 10
778.478271
 20
372.934784
  0
VERTEX
  8
0
 10
783.913025
 20
391.956512
  0
SEQEND
  0
LINE
  8
0
 62
     5
 10
550.217407
 20
512.934814
 11
786.630371
 21
512.934814
  0
LINE
  8
0
 62
     5
 10
550.217407
 20
372.934784
 11
786.630371
 21
372.934784
  0
TEXT
  8
0
 62
     7
 10
773.043457
 20
402.173920
 40
27.173913
 41
1.000000
  1
%%c140
  7
KANJI
 50
90.000000
 51
0.000000
  0
LINE
  8
0
 62
     5
 10
691.521729
 20
395.326080
 11
691.521729
 21
490.543488
  0
POLYLINE
  8
0
 62
     5
 66
     1
 70
     2
  0
VERTEX
  8
0
 10
686.086914
 20
476.956512
  0
VERTEX
  8
0
 10
691.521729
 20
457.934784
  0
VERTEX
  8
0
 10
696.956543
 20
476.956512
  0
SEQEND
  0
POLYLINE
  8
0
 62
     5
 66
     1
 70
     2
  0
VERTEX
  8
0
 10
696.956543
 20
408.913055
  0
VERTEX
  8
0
 10
691.521729
 20
427.934784
  0
VERTEX
  8
0
 10
686.086914
 20
408.913055
  0
SEQEND
  0
LINE
  8
0
 62
     5
 10
550.217407
 20
457.934784
 11
699.673889
 21
457.934784
  0
LINE
  8
0
 62
     5
 10
550.217407
 20
427.934784
 11
699.673889
 21
427.934784
  0
TEXT
  8
0
 62
     7
 10
686.086914
 20
393.342407
 40
27.173913
 41
1.000000
  1
%%c30H7
  7
KANJI
 50
90.000000
 51
0.000000
  0
POLYLINE
  8
0
 62
     4
 66
     1
 70
     2
  0
VERTEX
  8
0
 10
440.217377
 20
426.934784
  0
VERTEX
  8
0
 10
440.217377
 20
352.434784
  0
VERTEX
  8
0
 10
441.717377
 20
350.934784
  0
VERTEX
  8
0
 10
513.717407
 20
350.934784
  0
VERTEX
  8
0
 10
515.217407
 20
352.434784
  0
VERTEX
  8
0
 10
515.217407
 20
371.434784
  0
SEQEND
  0
POLYLINE
  8
0
 62
     4
 66
     1
 70
     2
  0
VERTEX
  8
0
 10
516.717407
 20
372.934784
  0
VERTEX
  8
0
 10
549.217407
 20
372.934784
  0
VERTEX
  8
0
 10
550.217407
 20
373.934784
  0
VERTEX
  8
0
 10
550.217407
 20
511.934784
  0
VERTEX
  8
0
 10
549.217407
 20
512.934814
  0
VERTEX
  8
0
 10
516.717407
 20
512.934814
  0
SEQEND
  0
POLYLINE
  8
0
 62
     4
 66
     1
 70
     2
  0
VERTEX
  8
0
 10
515.217407
 20
514.434814
  0
VERTEX
  8
0
 10
515.217407
 20
533.434814
  0
VERTEX
  8
0
 10
513.717407
 20
534.934814
  0
VERTEX
  8
0
 10
441.717377
 20
534.934814
  0
VERTEX
  8
0
 10
440.217377
 20
533.434814
  0
VERTEX
  8
0
 10
440.217377
 20
426.934784
  0
SEQEND
  0
ENDSEC
  0
EOF
