  0
SECTION
  2
HEADER
  9
$ACADVER
  1
AC1003
  9
$INSBASE
 10
0.000000
 20
0.000000
  9
$EXTMIN
 10
0.000000
 20
0.000000
  9
$EXTMAX
 10
1226.086957
 20
847.826087
  9
$LIMMIN
 10
0.000000
 20
0.000000
  9
$LIMMAX
 10
1226.086957
 20
847.826087
  9
$VIEWCTR
 10
613.043478
 20
423.913043
  9
$VIEWSIZE
 40
847.826087
  0
ENDSEC
  0
SECTION
  2
TABLES
  0
TABLE
  2
LTYPE
 70
     4
  0
LTYPE
  2
CONTINUOUS
 70
    64
  3
SolidLine
 72
    65
 73
     0
 40
0.0
  0
LTYPE
  2
HIDDEN
 70
    64
  3
------------------------
 72
    65
 73
     2
 40
13.043478
 49
8.695652
 49
-4.347826
  0
LTYPE
  2
DASHDOT
 70
    64
  3
--?--?--?--?--?--?--?--
 72
    65
 73
     4
 40
52.173913
 49
39.130435
 49
-4.347826
 49
4.347826
 49
-4.347826
  0
LTYPE
  2
DIVIDE
 70
    64
  3
--??--??--??--??--??--
 72
    65
 73
     6
 40
65.217391
 49
43.478261
 49
-4.347826
 49
4.347826
 49
-4.347826
 49
4.347826
 49
-4.347826
  0
ENDTAB
  0
TABLE
  2
LAYER
 70
     5
  0
LAYER
  2
0
 70
    64
 62
     7
  6
CONTINUOUS
  0
LAYER
  2
HIDDEN
 70
    64
 62
     2
  6
HIDDEN
  0
LAYER
  2
DASHDOT
 70
    64
 62
     6
  6
DASHDOT
  0
LAYER
  2
DIVIDE
 70
    64
 62
     5
  6
DIVIDE
  0
ENDTAB
  0
TABLE
  2
STYLE
 70
     1
  0
STYLE
  2
STANDARD
 70
    64
 40
0.0
 41
1.0
 50
0.0
 71
     0
 42
0.2
  3
TXT
  4

  0
STYLE
  2
KANJI
 70
    64
 40
0.0
 41
1.0
 50
0.0
 71
     0
 42
0.2
  3
TXT
  4
BIGFONT
  0
ENDTAB
  0
TABLE
  2
VIEW
 70
     0
  0
ENDTAB
  0
ENDSEC
  0
SECTION
  2
BLOCKS
  0
ENDSEC
  0
SECTION
  2
ENTITIES
  0
TEXT
  8
0
 62
     7
 10
43.478260
 20
47.826088
 40
17.391304
 41
1.000000
  1
KHK SS8-15
  7
KANJI
 50
0.000000
 51
0.000000
  0
TEXT
  8
0
 62
     7
 10
43.478260
 20
21.739130
 40
17.391304
 41
1.000000
  1

  7
KANJI
 50
0.000000
 51
0.000000
  0
TEXT
  8
0
 62
     7
 10
43.478260
 20
782.608704
 40
19.565217
 41
1.000000
  1
Black oxide
  7
KANJI
 50
0.000000
 51
0.000000
  0
POLYLINE
  8
0
 62
     7
 66
     1
 70
     2
  0
VERTEX
  8
0
 10
1043.478271
 20
782.608704
  0
VERTEX
  8
0
 10
1026.521729
 20
812.000000
  0
VERTEX
  8
0
 10
1094.347900
 20
812.000000
  0
VERTEX
  8
0
 10
1077.391357
 20
782.608704
  0
VERTEX
  8
0
 10
1060.434814
 20
812.000000
  0
VERTEX
  8
0
 10
1043.478271
 20
782.608704
  0
SEQEND
  0
LINE
  8
0
 62
     5
 10
679.565186
 20
422.347839
 11
679.565186
 21
286.347839
  0
POLYLINE
  8
0
 62
     5
 66
     1
 70
     2
  0
VERTEX
  8
0
 10
683.913025
 20
407.130432
  0
VERTEX
  8
0
 10
679.565186
 20
422.347839
  0
VERTEX
  8
0
 10
675.217346
 20
407.130432
  0
SEQEND
  0
POLYLINE
  8
0
 62
     5
 66
     1
 70
     2
  0
VERTEX
  8
0
 10
675.217346
 20
301.565247
  0
VERTEX
  8
0
 10
679.565186
 20
286.347839
  0
VERTEX
  8
0
 10
683.913025
 20
301.565247
  0
SEQEND
  0
LINE
  8
0
 62
     5
 10
462.173889
 20
422.347839
 11
686.086914
 21
422.347839
  0
LINE
  8
0
 62
     5
 10
462.173889
 20
286.347839
 11
686.086914
 21
286.347839
  0
TEXT
  8
0
 62
     7
 10
675.217346
 20
321.739136
 40
21.739130
 41
1.000000
  1
%%c136
  7
KANJI
 50
90.000000
 51
0.000000
  0
LINE
  8
DASHDOT
 62
     7
 10
339.130402
 20
414.347839
 11
440.217377
 21
414.347839
  0
LINE
  8
DASHDOT
 62
     7
 10
339.130402
 20
294.347839
 11
440.217377
 21
294.347839
  0
LINE
  8
DASHDOT
 62
     7
 10
339.130402
 20
354.347839
 11
475.217377
 21
354.347839
  0
LINE
  8
0
 62
     5
 10
427.173889
 20
420.847839
 11
427.173889
 21
422.347839
  0
LINE
  8
0
 62
     5
 10
352.173889
 20
420.847839
 11
352.173889
 21
422.347839
  0
LINE
  8
0
 62
     5
 10
428.673889
 20
399.347839
 11
462.173889
 21
399.347839
  0
LINE
  8
0
 62
     5
 10
428.673889
 20
309.347839
 11
462.173889
 21
309.347839
  0
LINE
  8
0
 62
     5
 10
425.673889
 20
422.347839
 11
462.173889
 21
422.347839
  0
LINE
  8
0
 62
     5
 10
425.673889
 20
286.347839
 11
462.173889
 21
286.347839
  0
LINE
  8
0
 62
     4
 10
352.173889
 20
404.347839
 11
427.173889
 21
404.347839
  0
LINE
  8
0
 62
     4
 10
352.173889
 20
304.347839
 11
427.173889
 21
304.347839
  0
LINE
  8
0
 62
     4
 10
461.173889
 20
340.347839
 11
462.173889
 21
339.347839
  0
LINE
  8
0
 62
     4
 10
461.173889
 20
368.347839
 11
462.173889
 21
369.347839
  0
LINE
  8
0
 62
     4
 10
353.173889
 20
368.347839
 11
353.173889
 21
340.347839
  0
POLYLINE
  8
0
 62
     4
 66
     1
 70
     2
  0
VERTEX
  8
0
 10
352.173889
 20
339.347839
  0
VERTEX
  8
0
 10
353.173889
 20
340.347839
  0
VERTEX
  8
0
 10
461.173889
 20
340.347839
  0
VERTEX
  8
0
 10
461.173889
 20
368.347839
  0
VERTEX
  8
0
 10
353.173889
 20
368.347839
  0
VERTEX
  8
0
 10
352.173889
 20
369.347839
  0
SEQEND
  0
ARC
  8
0
 62
     4
 10
428.673889
 20
400.847839
 40
1.500000
 50
180.0
 51
270.0
  0
ARC
  8
0
 62
     4
 10
428.673889
 20
307.847839
 40
1.500000
 50
90.0
 51
180.0
  0
LINE
  8
0
 62
     5
 10
462.173889
 20
398.347839
 11
462.173889
 21
422.347839
  0
LINE
  8
0
 62
     5
 10
352.173889
 20
539.739136
 11
427.173889
 21
539.739136
  0
POLYLINE
  8
0
 62
     5
 66
     1
 70
     2
  0
VERTEX
  8
0
 10
367.391266
 20
544.086975
  0
VERTEX
  8
0
 10
352.173889
 20
539.739136
  0
VERTEX
  8
0
 10
367.391266
 20
535.391296
  0
SEQEND
  0
POLYLINE
  8
0
 62
     5
 66
     1
 70
     2
  0
VERTEX
  8
0
 10
411.956482
 20
535.391296
  0
VERTEX
  8
0
 10
427.173889
 20
539.739136
  0
VERTEX
  8
0
 10
411.956482
 20
544.086975
  0
SEQEND
  0
LINE
  8
0
 62
     5
 10
427.173889
 20
422.347839
 11
427.173889
 21
546.260864
  0
TEXT
  8
0
 62
     7
 10
375.543457
 20
543.217407
 40
21.739130
 41
1.000000
  1
75
  7
KANJI
 50
0.000000
 51
0.000000
  0
LINE
  8
0
 62
     5
 10
352.173889
 20
574.521729
 11
462.173889
 21
574.521729
  0
POLYLINE
  8
0
 62
     5
 66
     1
 70
     2
  0
VERTEX
  8
0
 10
367.391266
 20
578.869568
  0
VERTEX
  8
0
 10
352.173889
 20
574.521729
  0
VERTEX
  8
0
 10
367.391266
 20
570.173950
  0
SEQEND
  0
POLYLINE
  8
0
 62
     5
 66
     1
 70
     2
  0
VERTEX
  8
0
 10
446.956482
 20
570.173950
  0
VERTEX
  8
0
 10
462.173889
 20
574.521729
  0
VERTEX
  8
0
 10
446.956482
 20
578.869568
  0
SEQEND
  0
LINE
  8
0
 62
     5
 10
352.173889
 20
422.347839
 11
352.173889
 21
581.043518
  0
LINE
  8
0
 62
     5
 10
462.173889
 20
422.347839
 11
462.173889
 21
581.043518
  0
TEXT
  8
0
 62
     7
 10
385.978241
 20
578.000000
 40
21.739130
 41
1.000000
  1
110
  7
KANJI
 50
0.000000
 51
0.000000
  0
LINE
  8
0
 62
     5
 10
488.260864
 20
539.739136
 11
401.086945
 21
539.739136
  0
POLYLINE
  8
0
 62
     5
 66
     1
 70
     2
  0
VERTEX
  8
0
 10
411.956482
 20
535.391296
  0
VERTEX
  8
0
 10
427.173889
 20
539.739136
  0
VERTEX
  8
0
 10
411.956482
 20
544.086975
  0
SEQEND
  0
POLYLINE
  8
0
 62
     5
 66
     1
 70
     2
  0
VERTEX
  8
0
 10
477.391296
 20
544.086975
  0
VERTEX
  8
0
 10
462.173889
 20
539.739136
  0
VERTEX
  8
0
 10
477.391296
 20
535.391296
  0
SEQEND
  0
TEXT
  8
0
 62
     7
 10
430.543457
 20
543.217407
 40
21.739130
 41
1.000000
  1
35
  7
KANJI
 50
0.000000
 51
0.000000
  0
LINE
  8
0
 62
     5
 10
644.782593
 20
399.347839
 11
644.782593
 21
309.347839
  0
POLYLINE
  8
0
 62
     5
 66
     1
 70
     2
  0
VERTEX
  8
0
 10
649.130432
 20
384.130432
  0
VERTEX
  8
0
 10
644.782593
 20
399.347839
  0
VERTEX
  8
0
 10
640.434753
 20
384.130432
  0
SEQEND
  0
POLYLINE
  8
0
 62
     5
 66
     1
 70
     2
  0
VERTEX
  8
0
 10
640.434753
 20
324.565247
  0
VERTEX
  8
0
 10
644.782593
 20
309.347839
  0
VERTEX
  8
0
 10
649.130432
 20
324.565247
  0
SEQEND
  0
LINE
  8
0
 62
     5
 10
462.173889
 20
399.347839
 11
651.304321
 21
399.347839
  0
LINE
  8
0
 62
     5
 10
462.173889
 20
309.347839
 11
651.304321
 21
309.347839
  0
TEXT
  8
0
 62
     7
 10
640.434753
 20
328.804352
 40
21.739130
 41
1.000000
  1
%%c90
  7
KANJI
 50
90.000000
 51
0.000000
  0
LINE
  8
0
 62
     5
 10
575.217407
 20
314.260895
 11
575.217407
 21
394.434784
  0
POLYLINE
  8
0
 62
     5
 66
     1
 70
     2
  0
VERTEX
  8
0
 10
570.869568
 20
383.565247
  0
VERTEX
  8
0
 10
575.217407
 20
368.347839
  0
VERTEX
  8
0
 10
579.565186
 20
383.565247
  0
SEQEND
  0
POLYLINE
  8
0
 62
     5
 66
     1
 70
     2
  0
VERTEX
  8
0
 10
579.565186
 20
325.130432
  0
VERTEX
  8
0
 10
575.217407
 20
340.347839
  0
VERTEX
  8
0
 10
570.869568
 20
325.130432
  0
SEQEND
  0
LINE
  8
0
 62
     5
 10
462.173889
 20
368.347839
 11
581.739136
 21
368.347839
  0
LINE
  8
0
 62
     5
 10
462.173889
 20
340.347839
 11
581.739136
 21
340.347839
  0
TEXT
  8
0
 62
     7
 10
570.869568
 20
314.673920
 40
21.739130
 41
1.000000
  1
%%c28H7
  7
KANJI
 50
90.000000
 51
0.000000
  0
POLYLINE
  8
0
 62
     4
 66
     1
 70
     2
  0
VERTEX
  8
0
 10
352.173889
 20
339.347839
  0
VERTEX
  8
0
 10
352.173889
 20
287.847839
  0
VERTEX
  8
0
 10
353.673889
 20
286.347839
  0
VERTEX
  8
0
 10
425.673889
 20
286.347839
  0
VERTEX
  8
0
 10
427.173889
 20
287.847839
  0
VERTEX
  8
0
 10
427.173889
 20
307.847839
  0
SEQEND
  0
POLYLINE
  8
0
 62
     4
 66
     1
 70
     2
  0
VERTEX
  8
0
 10
428.673889
 20
309.347839
  0
VERTEX
  8
0
 10
461.173889
 20
309.347839
  0
VERTEX
  8
0
 10
462.173889
 20
310.347839
  0
VERTEX
  8
0
 10
462.173889
 20
398.347839
  0
VERTEX
  8
0
 10
461.173889
 20
399.347839
  0
VERTEX
  8
0
 10
428.673889
 20
399.347839
  0
SEQEND
  0
POLYLINE
  8
0
 62
     4
 66
     1
 70
     2
  0
VERTEX
  8
0
 10
427.173889
 20
400.847839
  0
VERTEX
  8
0
 10
427.173889
 20
420.847839
  0
VERTEX
  8
0
 10
425.673889
 20
422.347839
  0
VERTEX
  8
0
 10
353.673889
 20
422.347839
  0
VERTEX
  8
0
 10
352.173889
 20
420.847839
  0
VERTEX
  8
0
 10
352.173889
 20
339.347839
  0
SEQEND
  0
ENDSEC
  0
EOF
