  0
SECTION
  2
HEADER
  9
$ACADVER
  1
AC1003
  9
$INSBASE
 10
0.000000
 20
0.000000
  9
$EXTMIN
 10
0.000000
 20
0.000000
  9
$EXTMAX
 10
1716.521739
 20
1186.956522
  9
$LIMMIN
 10
0.000000
 20
0.000000
  9
$LIMMAX
 10
1716.521739
 20
1186.956522
  9
$VIEWCTR
 10
858.260870
 20
593.478261
  9
$VIEWSIZE
 40
1186.956522
  0
ENDSEC
  0
SECTION
  2
TABLES
  0
TABLE
  2
LTYPE
 70
     4
  0
LTYPE
  2
CONTINUOUS
 70
    64
  3
SolidLine
 72
    65
 73
     0
 40
0.0
  0
LTYPE
  2
HIDDEN
 70
    64
  3
------------------------
 72
    65
 73
     2
 40
18.260870
 49
12.173913
 49
-6.086957
  0
LTYPE
  2
DASHDOT
 70
    64
  3
--?--?--?--?--?--?--?--
 72
    65
 73
     4
 40
73.043478
 49
54.782609
 49
-6.086957
 49
6.086957
 49
-6.086957
  0
LTYPE
  2
DIVIDE
 70
    64
  3
--??--??--??--??--??--
 72
    65
 73
     6
 40
91.304348
 49
60.869565
 49
-6.086957
 49
6.086957
 49
-6.086957
 49
6.086957
 49
-6.086957
  0
ENDTAB
  0
TABLE
  2
LAYER
 70
     5
  0
LAYER
  2
0
 70
    64
 62
     7
  6
CONTINUOUS
  0
LAYER
  2
HIDDEN
 70
    64
 62
     2
  6
HIDDEN
  0
LAYER
  2
DASHDOT
 70
    64
 62
     6
  6
DASHDOT
  0
LAYER
  2
DIVIDE
 70
    64
 62
     5
  6
DIVIDE
  0
ENDTAB
  0
TABLE
  2
STYLE
 70
     1
  0
STYLE
  2
STANDARD
 70
    64
 40
0.0
 41
1.0
 50
0.0
 71
     0
 42
0.2
  3
TXT
  4

  0
STYLE
  2
KANJI
 70
    64
 40
0.0
 41
1.0
 50
0.0
 71
     0
 42
0.2
  3
TXT
  4
BIGFONT
  0
ENDTAB
  0
TABLE
  2
VIEW
 70
     0
  0
ENDTAB
  0
ENDSEC
  0
SECTION
  2
BLOCKS
  0
ENDSEC
  0
SECTION
  2
ENTITIES
  0
TEXT
  8
0
 62
     7
 10
60.869564
 20
66.956520
 40
24.347826
 41
1.000000
  1
KHK SS8-25
  7
KANJI
 50
0.000000
 51
0.000000
  0
TEXT
  8
0
 62
     7
 10
60.869564
 20
30.434782
 40
24.347826
 41
1.000000
  1

  7
KANJI
 50
0.000000
 51
0.000000
  0
TEXT
  8
0
 62
     7
 10
60.869564
 20
1095.652222
 40
27.391304
 41
1.000000
  1
Black oxide
  7
KANJI
 50
0.000000
 51
0.000000
  0
POLYLINE
  8
0
 62
     7
 66
     1
 70
     2
  0
VERTEX
  8
0
 10
1460.869507
 20
1095.652222
  0
VERTEX
  8
0
 10
1437.130371
 20
1136.800049
  0
VERTEX
  8
0
 10
1532.086914
 20
1136.800049
  0
VERTEX
  8
0
 10
1508.347778
 20
1095.652222
  0
VERTEX
  8
0
 10
1484.608643
 20
1136.800049
  0
VERTEX
  8
0
 10
1460.869507
 20
1095.652222
  0
SEQEND
  0
LINE
  8
0
 62
     5
 10
907.391296
 20
604.086975
 11
907.391296
 21
388.086975
  0
POLYLINE
  8
0
 62
     5
 66
     1
 70
     2
  0
VERTEX
  8
0
 10
913.478271
 20
582.782593
  0
VERTEX
  8
0
 10
907.391296
 20
604.086975
  0
VERTEX
  8
0
 10
901.304321
 20
582.782593
  0
SEQEND
  0
POLYLINE
  8
0
 62
     5
 66
     1
 70
     2
  0
VERTEX
  8
0
 10
901.304321
 20
409.391327
  0
VERTEX
  8
0
 10
907.391296
 20
388.086975
  0
VERTEX
  8
0
 10
913.478271
 20
409.391327
  0
SEQEND
  0
LINE
  8
0
 62
     5
 10
603.043457
 20
604.086975
 11
916.521729
 21
604.086975
  0
LINE
  8
0
 62
     5
 10
603.043457
 20
388.086975
 11
916.521729
 21
388.086975
  0
TEXT
  8
0
 62
     7
 10
901.304321
 20
450.434814
 40
30.434783
 41
1.000000
  1
%%c216
  7
KANJI
 50
90.000000
 51
0.000000
  0
LINE
  8
DASHDOT
 62
     7
 10
474.782593
 20
596.086975
 11
586.304321
 21
596.086975
  0
LINE
  8
DASHDOT
 62
     7
 10
474.782593
 20
396.086975
 11
586.304321
 21
396.086975
  0
LINE
  8
DASHDOT
 62
     7
 10
474.782593
 20
496.086975
 11
621.304321
 21
496.086975
  0
LINE
  8
0
 62
     5
 10
568.043457
 20
602.586975
 11
568.043457
 21
604.086975
  0
LINE
  8
0
 62
     5
 10
493.043457
 20
602.586975
 11
493.043457
 21
604.086975
  0
LINE
  8
0
 62
     5
 10
569.543457
 20
581.086975
 11
603.043457
 21
581.086975
  0
LINE
  8
0
 62
     5
 10
569.543457
 20
411.086975
 11
603.043457
 21
411.086975
  0
LINE
  8
0
 62
     5
 10
566.543457
 20
604.086975
 11
603.043457
 21
604.086975
  0
LINE
  8
0
 62
     5
 10
566.543457
 20
388.086975
 11
603.043457
 21
388.086975
  0
LINE
  8
0
 62
     4
 10
493.043457
 20
586.086975
 11
568.043457
 21
586.086975
  0
LINE
  8
0
 62
     4
 10
493.043457
 20
406.086975
 11
568.043457
 21
406.086975
  0
LINE
  8
0
 62
     4
 10
602.043457
 20
481.086975
 11
603.043457
 21
480.086975
  0
LINE
  8
0
 62
     4
 10
602.043457
 20
511.086975
 11
603.043457
 21
512.086975
  0
LINE
  8
0
 62
     4
 10
494.043457
 20
511.086975
 11
494.043457
 21
481.086975
  0
POLYLINE
  8
0
 62
     4
 66
     1
 70
     2
  0
VERTEX
  8
0
 10
493.043457
 20
480.086975
  0
VERTEX
  8
0
 10
494.043457
 20
481.086975
  0
VERTEX
  8
0
 10
602.043457
 20
481.086975
  0
VERTEX
  8
0
 10
602.043457
 20
511.086975
  0
VERTEX
  8
0
 10
494.043457
 20
511.086975
  0
VERTEX
  8
0
 10
493.043457
 20
512.086975
  0
SEQEND
  0
ARC
  8
0
 62
     4
 10
569.543457
 20
582.586975
 40
1.500000
 50
180.0
 51
270.0
  0
ARC
  8
0
 62
     4
 10
569.543457
 20
409.586975
 40
1.500000
 50
90.0
 51
180.0
  0
LINE
  8
0
 62
     5
 10
603.043457
 20
580.086975
 11
603.043457
 21
604.086975
  0
LINE
  8
0
 62
     5
 10
493.043457
 20
768.434814
 11
568.043457
 21
768.434814
  0
POLYLINE
  8
0
 62
     5
 66
     1
 70
     2
  0
VERTEX
  8
0
 10
514.347778
 20
774.521729
  0
VERTEX
  8
0
 10
493.043457
 20
768.434814
  0
VERTEX
  8
0
 10
514.347778
 20
762.347900
  0
SEQEND
  0
POLYLINE
  8
0
 62
     5
 66
     1
 70
     2
  0
VERTEX
  8
0
 10
546.739136
 20
762.347900
  0
VERTEX
  8
0
 10
568.043457
 20
768.434814
  0
VERTEX
  8
0
 10
546.739136
 20
774.521729
  0
SEQEND
  0
LINE
  8
0
 62
     5
 10
568.043457
 20
604.086975
 11
568.043457
 21
777.565247
  0
TEXT
  8
0
 62
     7
 10
510.760864
 20
773.304382
 40
30.434783
 41
1.000000
  1
75
  7
KANJI
 50
0.000000
 51
0.000000
  0
LINE
  8
0
 62
     5
 10
493.043457
 20
817.130432
 11
603.043457
 21
817.130432
  0
POLYLINE
  8
0
 62
     5
 66
     1
 70
     2
  0
VERTEX
  8
0
 10
514.347778
 20
823.217407
  0
VERTEX
  8
0
 10
493.043457
 20
817.130432
  0
VERTEX
  8
0
 10
514.347778
 20
811.043457
  0
SEQEND
  0
POLYLINE
  8
0
 62
     5
 66
     1
 70
     2
  0
VERTEX
  8
0
 10
581.739136
 20
811.043457
  0
VERTEX
  8
0
 10
603.043457
 20
817.130432
  0
VERTEX
  8
0
 10
581.739136
 20
823.217407
  0
SEQEND
  0
LINE
  8
0
 62
     5
 10
493.043457
 20
604.086975
 11
493.043457
 21
826.260864
  0
LINE
  8
0
 62
     5
 10
603.043457
 20
604.086975
 11
603.043457
 21
826.260864
  0
TEXT
  8
0
 62
     7
 10
518.369568
 20
822.000000
 40
30.434783
 41
1.000000
  1
110
  7
KANJI
 50
0.000000
 51
0.000000
  0
LINE
  8
0
 62
     5
 10
639.565186
 20
768.434814
 11
531.521729
 21
768.434814
  0
POLYLINE
  8
0
 62
     5
 66
     1
 70
     2
  0
VERTEX
  8
0
 10
546.739136
 20
762.347900
  0
VERTEX
  8
0
 10
568.043457
 20
768.434814
  0
VERTEX
  8
0
 10
546.739136
 20
774.521729
  0
SEQEND
  0
POLYLINE
  8
0
 62
     5
 66
     1
 70
     2
  0
VERTEX
  8
0
 10
624.347778
 20
774.521729
  0
VERTEX
  8
0
 10
603.043457
 20
768.434814
  0
VERTEX
  8
0
 10
624.347778
 20
762.347900
  0
SEQEND
  0
TEXT
  8
0
 62
     7
 10
621.304321
 20
773.304382
 40
30.434783
 41
1.000000
  1
35
  7
KANJI
 50
0.000000
 51
0.000000
  0
LINE
  8
0
 62
     5
 10
858.695618
 20
581.086975
 11
858.695618
 21
411.086975
  0
POLYLINE
  8
0
 62
     5
 66
     1
 70
     2
  0
VERTEX
  8
0
 10
864.782593
 20
559.782654
  0
VERTEX
  8
0
 10
858.695618
 20
581.086975
  0
VERTEX
  8
0
 10
852.608643
 20
559.782654
  0
SEQEND
  0
POLYLINE
  8
0
 62
     5
 66
     1
 70
     2
  0
VERTEX
  8
0
 10
852.608643
 20
432.391327
  0
VERTEX
  8
0
 10
858.695618
 20
411.086975
  0
VERTEX
  8
0
 10
864.782593
 20
432.391327
  0
SEQEND
  0
LINE
  8
0
 62
     5
 10
603.043457
 20
581.086975
 11
867.826050
 21
581.086975
  0
LINE
  8
0
 62
     5
 10
603.043457
 20
411.086975
 11
867.826050
 21
411.086975
  0
TEXT
  8
0
 62
     7
 10
852.608643
 20
450.434814
 40
30.434783
 41
1.000000
  1
%%c170
  7
KANJI
 50
90.000000
 51
0.000000
  0
LINE
  8
0
 62
     5
 10
761.304321
 20
444.565247
 11
761.304321
 21
547.608704
  0
POLYLINE
  8
0
 62
     5
 66
     1
 70
     2
  0
VERTEX
  8
0
 10
755.217407
 20
532.391296
  0
VERTEX
  8
0
 10
761.304321
 20
511.086975
  0
VERTEX
  8
0
 10
767.391235
 20
532.391296
  0
SEQEND
  0
POLYLINE
  8
0
 62
     5
 66
     1
 70
     2
  0
VERTEX
  8
0
 10
767.391235
 20
459.782623
  0
VERTEX
  8
0
 10
761.304321
 20
481.086975
  0
VERTEX
  8
0
 10
755.217407
 20
459.782623
  0
SEQEND
  0
LINE
  8
0
 62
     5
 10
603.043457
 20
511.086975
 11
770.434753
 21
511.086975
  0
LINE
  8
0
 62
     5
 10
603.043457
 20
481.086975
 11
770.434753
 21
481.086975
  0
TEXT
  8
0
 62
     7
 10
755.217407
 20
440.543488
 40
30.434783
 41
1.000000
  1
%%c30H7
  7
KANJI
 50
90.000000
 51
0.000000
  0
POLYLINE
  8
0
 62
     4
 66
     1
 70
     2
  0
VERTEX
  8
0
 10
493.043457
 20
480.086975
  0
VERTEX
  8
0
 10
493.043457
 20
389.586975
  0
VERTEX
  8
0
 10
494.543457
 20
388.086975
  0
VERTEX
  8
0
 10
566.543457
 20
388.086975
  0
VERTEX
  8
0
 10
568.043457
 20
389.586975
  0
VERTEX
  8
0
 10
568.043457
 20
409.586975
  0
SEQEND
  0
POLYLINE
  8
0
 62
     4
 66
     1
 70
     2
  0
VERTEX
  8
0
 10
569.543457
 20
411.086975
  0
VERTEX
  8
0
 10
602.043457
 20
411.086975
  0
VERTEX
  8
0
 10
603.043457
 20
412.086975
  0
VERTEX
  8
0
 10
603.043457
 20
580.086975
  0
VERTEX
  8
0
 10
602.043457
 20
581.086975
  0
VERTEX
  8
0
 10
569.543457
 20
581.086975
  0
SEQEND
  0
POLYLINE
  8
0
 62
     4
 66
     1
 70
     2
  0
VERTEX
  8
0
 10
568.043457
 20
582.586975
  0
VERTEX
  8
0
 10
568.043457
 20
602.586975
  0
VERTEX
  8
0
 10
566.543457
 20
604.086975
  0
VERTEX
  8
0
 10
494.543457
 20
604.086975
  0
VERTEX
  8
0
 10
493.043457
 20
602.586975
  0
VERTEX
  8
0
 10
493.043457
 20
480.086975
  0
SEQEND
  0
ENDSEC
  0
EOF
