  0
SECTION
  2
HEADER
  9
$ACADVER
  1
AC1003
  9
$INSBASE
 10
0.000000
 20
0.000000
  9
$EXTMIN
 10
0.000000
 20
0.000000
  9
$EXTMAX
 10
274.720109
 20
189.966033
  9
$LIMMIN
 10
0.000000
 20
0.000000
  9
$LIMMAX
 10
274.720109
 20
189.966033
  9
$VIEWCTR
 10
137.360054
 20
94.983016
  9
$VIEWSIZE
 40
189.966033
  0
ENDSEC
  0
SECTION
  2
TABLES
  0
TABLE
  2
LTYPE
 70
     4
  0
LTYPE
  2
CONTINUOUS
 70
    64
  3
SolidLine
 72
    65
 73
     0
 40
0.0
  0
LTYPE
  2
HIDDEN
 70
    64
  3
------------------------
 72
    65
 73
     2
 40
2.922554
 49
1.948370
 49
-0.974185
  0
LTYPE
  2
DASHDOT
 70
    64
  3
--?--?--?--?--?--?--?--
 72
    65
 73
     4
 40
11.690217
 49
8.767663
 49
-0.974185
 49
0.974185
 49
-0.974185
  0
LTYPE
  2
DIVIDE
 70
    64
  3
--??--??--??--??--??--
 72
    65
 73
     6
 40
14.612772
 49
9.741848
 49
-0.974185
 49
0.974185
 49
-0.974185
 49
0.974185
 49
-0.974185
  0
ENDTAB
  0
TABLE
  2
LAYER
 70
     5
  0
LAYER
  2
0
 70
    64
 62
     7
  6
CONTINUOUS
  0
LAYER
  2
HIDDEN
 70
    64
 62
     2
  6
HIDDEN
  0
LAYER
  2
DASHDOT
 70
    64
 62
     6
  6
DASHDOT
  0
LAYER
  2
DIVIDE
 70
    64
 62
     5
  6
DIVIDE
  0
ENDTAB
  0
TABLE
  2
STYLE
 70
     1
  0
STYLE
  2
STANDARD
 70
    64
 40
0.0
 41
1.0
 50
0.0
 71
     0
 42
0.2
  3
TXT
  4

  0
STYLE
  2
KANJI
 70
    64
 40
0.0
 41
1.0
 50
0.0
 71
     0
 42
0.2
  3
TXT
  4
BIGFONT
  0
ENDTAB
  0
TABLE
  2
VIEW
 70
     0
  0
ENDTAB
  0
ENDSEC
  0
SECTION
  2
BLOCKS
  0
ENDSEC
  0
SECTION
  2
ENTITIES
  0
TEXT
  8
0
 62
     7
 10
9.741848
 20
10.716033
 40
3.896739
 41
1.000000
  1
KHK SSA1.5-60J18
  7
KANJI
 50
0.000000
 51
0.000000
  0
TEXT
  8
0
 62
     7
 10
9.741848
 20
4.870924
 40
3.896739
 41
1.000000
  1
The precision grade of gears after secondary operations is equivalent but not identical to its original grade.
  7
KANJI
 50
0.000000
 51
0.000000
  0
TEXT
  8
0
 62
     7
 10
9.741848
 20
175.353256
 40
4.383832
 41
1.000000
  1
For J Series products, without black oxide repeatedly applied on secondary-operated parts.
  7
KANJI
 50
0.000000
 51
0.000000
  0
POLYLINE
  8
0
 62
     7
 66
     1
 70
     2
  0
VERTEX
  8
0
 10
233.804352
 20
175.353256
  0
VERTEX
  8
0
 10
230.005035
 20
181.938751
  0
VERTEX
  8
0
 10
245.202316
 20
181.938751
  0
VERTEX
  8
0
 10
241.403000
 20
175.353256
  0
VERTEX
  8
0
 10
237.603668
 20
181.938751
  0
VERTEX
  8
0
 10
233.804352
 20
175.353256
  0
SEQEND
  0
LINE
  8
0
 62
     5
 10
140.808426
 20
128.105301
 11
140.808426
 21
35.105301
  0
POLYLINE
  8
0
 62
     5
 66
     1
 70
     2
  0
VERTEX
  8
0
 10
141.782623
 20
124.695656
  0
VERTEX
  8
0
 10
140.808426
 20
128.105301
  0
VERTEX
  8
0
 10
139.834244
 20
124.695656
  0
SEQEND
  0
POLYLINE
  8
0
 62
     5
 66
     1
 70
     2
  0
VERTEX
  8
0
 10
139.834244
 20
38.514946
  0
VERTEX
  8
0
 10
140.808426
 20
35.105301
  0
VERTEX
  8
0
 10
141.782623
 20
38.514946
  0
SEQEND
  0
LINE
  8
0
 62
     5
 10
105.737778
 20
128.105301
 11
142.269714
 21
128.105301
  0
LINE
  8
0
 62
     5
 10
105.737778
 20
35.105301
 11
142.269714
 21
35.105301
  0
TEXT
  8
0
 62
     7
 10
139.834244
 20
75.881966
 40
4.870924
 41
1.000000
  1
%%c93
  7
KANJI
 50
90.000000
 51
0.000000
  0
LINE
  8
0
 62
     5
 10
90.737778
 20
147.588989
 11
105.737778
 21
147.588989
  0
POLYLINE
  8
0
 62
     5
 66
     1
 70
     2
  0
VERTEX
  8
0
 10
94.147423
 20
148.563171
  0
VERTEX
  8
0
 10
90.737778
 20
147.588989
  0
VERTEX
  8
0
 10
94.147423
 20
146.614807
  0
SEQEND
  0
POLYLINE
  8
0
 62
     5
 66
     1
 70
     2
  0
VERTEX
  8
0
 10
102.328133
 20
146.614807
  0
VERTEX
  8
0
 10
105.737778
 20
147.588989
  0
VERTEX
  8
0
 10
102.328133
 20
148.563171
  0
SEQEND
  0
LINE
  8
0
 62
     5
 10
90.737778
 20
128.105301
 11
90.737778
 21
149.050278
  0
LINE
  8
0
 62
     5
 10
105.737778
 20
128.105301
 11
105.737778
 21
149.050278
  0
TEXT
  8
0
 62
     7
 10
95.071678
 20
148.368347
 40
4.870924
 41
1.000000
  1
15
  7
KANJI
 50
0.000000
 51
0.000000
  0
LINE
  8
DASHDOT
 62
     7
 10
87.815224
 20
126.605301
 11
108.660332
 21
126.605301
  0
LINE
  8
DASHDOT
 62
     7
 10
87.815224
 20
36.605301
 11
108.660332
 21
36.605301
  0
LINE
  8
DASHDOT
 62
     7
 10
87.815224
 20
81.605301
 11
108.660332
 21
81.605301
  0
LINE
  8
0
 62
     5
 10
105.237778
 20
35.105301
 11
105.737778
 21
35.105301
  0
LINE
  8
0
 62
     5
 10
105.237778
 20
128.105301
 11
105.737778
 21
128.105301
  0
LINE
  8
0
 62
     5
 10
105.737778
 20
127.605301
 11
105.737778
 21
128.105301
  0
LINE
  8
0
 62
     5
 10
90.737778
 20
127.605301
 11
90.737778
 21
128.105301
  0
LINE
  8
0
 62
     4
 10
90.737778
 20
124.730301
 11
105.737778
 21
124.730301
  0
LINE
  8
0
 62
     4
 10
90.737778
 20
38.480301
 11
105.737778
 21
38.480301
  0
LINE
  8
0
 62
     4
 10
105.737778
 20
91.105301
 11
105.237778
 21
90.605301
  0
LINE
  8
0
 62
     4
 10
105.737778
 20
72.105301
 11
105.237778
 21
72.605301
  0
LINE
  8
0
 62
     4
 10
90.737778
 20
72.105301
 11
91.237778
 21
72.605301
  0
POLYLINE
  8
0
 62
     4
 66
     1
 70
     2
  0
VERTEX
  8
0
 10
90.737778
 20
72.105301
  0
VERTEX
  8
0
 10
90.737778
 20
35.605301
  0
VERTEX
  8
0
 10
91.237778
 20
35.105301
  0
VERTEX
  8
0
 10
105.237778
 20
35.105301
  0
VERTEX
  8
0
 10
105.737778
 20
35.605301
  0
VERTEX
  8
0
 10
105.737778
 20
127.605301
  0
VERTEX
  8
0
 10
105.237778
 20
128.105301
  0
VERTEX
  8
0
 10
91.237778
 20
128.105301
  0
VERTEX
  8
0
 10
90.737778
 20
127.605301
  0
VERTEX
  8
0
 10
90.737778
 20
72.105301
  0
SEQEND
  0
POLYLINE
  8
0
 62
     4
 66
     1
 70
     2
  0
VERTEX
  8
0
 10
90.737778
 20
91.105301
  0
VERTEX
  8
0
 10
91.237778
 20
90.605301
  0
VERTEX
  8
0
 10
91.237778
 20
72.605301
  0
VERTEX
  8
0
 10
105.237778
 20
72.605301
  0
VERTEX
  8
0
 10
105.237778
 20
90.605301
  0
VERTEX
  8
0
 10
91.237778
 20
90.605301
  0
SEQEND
  0
ARC
  8
0
 62
     4
 10
163.447021
 20
81.605301
 40
9.000000
 50
109.47122094265586
 51
70.52877905734415
  0
POLYLINE
  8
0
 62
     4
 66
     1
 70
     2
  0
VERTEX
  8
0
 10
166.447021
 20
90.090584
  0
VERTEX
  8
0
 10
166.447021
 20
93.405304
  0
VERTEX
  8
0
 10
160.447021
 20
93.405304
  0
VERTEX
  8
0
 10
160.447021
 20
90.090584
  0
SEQEND
  0
LINE
  8
0
 62
     4
 10
90.737778
 20
93.405304
 11
105.737778
 21
93.405304
  0
LINE
  8
DASHDOT
 62
     7
 10
163.447021
 20
96.327858
 11
163.447021
 21
69.682747
  0
LINE
  8
DASHDOT
 62
     7
 10
175.369568
 20
81.605301
 11
151.524460
 21
81.605301
  0
LINE
  8
0
 62
     5
 10
172.292114
 20
100.224594
 11
154.601898
 21
100.224594
  0
POLYLINE
  8
0
 62
     5
 66
     1
 70
     2
  0
VERTEX
  8
0
 10
157.037369
 20
99.250412
  0
VERTEX
  8
0
 10
160.447021
 20
100.224594
  0
VERTEX
  8
0
 10
157.037369
 20
101.198776
  0
SEQEND
  0
POLYLINE
  8
0
 62
     5
 66
     1
 70
     2
  0
VERTEX
  8
0
 10
169.856659
 20
101.198776
  0
VERTEX
  8
0
 10
166.447021
 20
100.224594
  0
VERTEX
  8
0
 10
169.856659
 20
99.250412
  0
SEQEND
  0
LINE
  8
0
 62
     5
 10
160.447021
 20
93.405304
 11
160.447021
 21
101.685867
  0
LINE
  8
0
 62
     5
 10
166.447021
 20
93.405304
 11
166.447021
 21
101.685867
  0
TEXT
  8
0
 62
     7
 10
153.392456
 20
101.198776
 40
4.870924
 41
1.000000
  1
6
  7
KANJI
 50
0.000000
 51
0.000000
  0
TEXT
  8
0
 62
     7
 10
158.214081
 20
101.198776
 40
3.896739
 41
1.000000
  1
%%p0.015
  7
KANJI
 50
0.000000
 51
0.000000
  0
LINE
  8
0
 62
     5
 10
200.543488
 20
93.405304
 11
200.543488
 21
72.605301
  0
POLYLINE
  8
0
 62
     5
 66
     1
 70
     2
  0
VERTEX
  8
0
 10
201.517670
 20
89.995651
  0
VERTEX
  8
0
 10
200.543488
 20
93.405304
  0
VERTEX
  8
0
 10
199.569305
 20
89.995651
  0
SEQEND
  0
POLYLINE
  8
0
 62
     5
 66
     1
 70
     2
  0
VERTEX
  8
0
 10
199.569305
 20
76.014946
  0
VERTEX
  8
0
 10
200.543488
 20
72.605301
  0
VERTEX
  8
0
 10
201.517670
 20
76.014946
  0
SEQEND
  0
LINE
  8
0
 62
     5
 10
166.447021
 20
93.405304
 11
202.004761
 21
93.405304
  0
LINE
  8
0
 62
     5
 10
163.447021
 20
72.605301
 11
202.004761
 21
72.605301
  0
TEXT
  8
0
 62
     7
 10
199.082199
 20
67.036552
 40
4.870924
 41
1.000000
  1
20.8
  7
KANJI
 50
90.000000
 51
0.000000
  0
TEXT
  8
0
 62
     7
 10
199.374451
 20
88.119843
 40
2.435462
 41
1.000000
  1
 
  7
KANJI
 50
90.000000
 51
0.000000
  0
TEXT
  8
0
 62
     7
 10
196.354492
 20
88.119843
 40
2.435462
 41
1.000000
  1
+
  7
KANJI
 50
90.000000
 51
0.000000
  0
TEXT
  8
0
 62
     7
 10
199.374451
 20
90.847557
 40
2.435462
 41
1.000000
  1
0
  7
KANJI
 50
90.000000
 51
0.000000
  0
TEXT
  8
0
 62
     7
 10
196.354492
 20
90.847557
 40
2.435462
 41
1.000000
  1
0.1
  7
KANJI
 50
90.000000
 51
0.000000
  0
LINE
  8
0
 62
     5
 10
125.221474
 20
90.605301
 11
125.221474
 21
72.605301
  0
POLYLINE
  8
0
 62
     5
 66
     1
 70
     2
  0
VERTEX
  8
0
 10
124.247284
 20
76.014946
  0
VERTEX
  8
0
 10
125.221474
 20
72.605301
  0
VERTEX
  8
0
 10
126.195663
 20
76.014946
  0
SEQEND
  0
LINE
  8
0
 62
     5
 10
105.737778
 20
72.605301
 11
126.682755
 21
72.605301
  0
TEXT
  8
0
 62
     7
 10
124.247284
 20
72.715866
 40
4.870924
 41
1.000000
  1
%%c18H7
  7
KANJI
 50
90.000000
 51
0.000000
  0
ENDSEC
  0
EOF
