  0
SECTION
  2
HEADER
  9
$ACADVER
  1
AC1003
  9
$INSBASE
 10
0.000000
 20
0.000000
  9
$EXTMIN
 10
0.000000
 20
0.000000
  9
$EXTMAX
 10
152.494565
 20
105.448370
  9
$LIMMIN
 10
0.000000
 20
0.000000
  9
$LIMMAX
 10
152.494565
 20
105.448370
  9
$VIEWCTR
 10
76.247283
 20
52.724185
  9
$VIEWSIZE
 40
105.448370
  0
ENDSEC
  0
SECTION
  2
TABLES
  0
TABLE
  2
LTYPE
 70
     4
  0
LTYPE
  2
CONTINUOUS
 70
    64
  3
SolidLine
 72
    65
 73
     0
 40
0.0
  0
LTYPE
  2
HIDDEN
 70
    64
  3
------------------------
 72
    65
 73
     2
 40
1.622283
 49
1.081522
 49
-0.540761
  0
LTYPE
  2
DASHDOT
 70
    64
  3
--?--?--?--?--?--?--?--
 72
    65
 73
     4
 40
6.489130
 49
4.866848
 49
-0.540761
 49
0.540761
 49
-0.540761
  0
LTYPE
  2
DIVIDE
 70
    64
  3
--??--??--??--??--??--
 72
    65
 73
     6
 40
8.111413
 49
5.407609
 49
-0.540761
 49
0.540761
 49
-0.540761
 49
0.540761
 49
-0.540761
  0
ENDTAB
  0
TABLE
  2
LAYER
 70
     5
  0
LAYER
  2
0
 70
    64
 62
     7
  6
CONTINUOUS
  0
LAYER
  2
HIDDEN
 70
    64
 62
     2
  6
HIDDEN
  0
LAYER
  2
DASHDOT
 70
    64
 62
     6
  6
DASHDOT
  0
LAYER
  2
DIVIDE
 70
    64
 62
     5
  6
DIVIDE
  0
ENDTAB
  0
TABLE
  2
STYLE
 70
     1
  0
STYLE
  2
STANDARD
 70
    64
 40
0.0
 41
1.0
 50
0.0
 71
     0
 42
0.2
  3
TXT
  4

  0
STYLE
  2
KANJI
 70
    64
 40
0.0
 41
1.0
 50
0.0
 71
     0
 42
0.2
  3
TXT
  4
BIGFONT
  0
ENDTAB
  0
TABLE
  2
VIEW
 70
     0
  0
ENDTAB
  0
ENDSEC
  0
SECTION
  2
BLOCKS
  0
ENDSEC
  0
SECTION
  2
ENTITIES
  0
TEXT
  8
0
 62
     7
 10
5.407609
 20
5.948370
 40
2.163043
 41
1.000000
  1
KHK SSA1-50J16
  7
KANJI
 50
0.000000
 51
0.000000
  0
TEXT
  8
0
 62
     7
 10
5.407609
 20
2.703804
 40
2.163043
 41
1.000000
  1
The precision grade of gears after secondary operations is equivalent but not identical to its original grade.
  7
KANJI
 50
0.000000
 51
0.000000
  0
TEXT
  8
0
 62
     7
 10
5.407609
 20
97.336960
 40
2.433424
 41
1.000000
  1
For J Series products, without black oxide repeatedly applied on secondary-operated parts.
  7
KANJI
 50
0.000000
 51
0.000000
  0
POLYLINE
  8
0
 62
     7
 66
     1
 70
     2
  0
VERTEX
  8
0
 10
129.782608
 20
97.336960
  0
VERTEX
  8
0
 10
127.673637
 20
100.992500
  0
VERTEX
  8
0
 10
136.109512
 20
100.992500
  0
VERTEX
  8
0
 10
134.000549
 20
97.336960
  0
VERTEX
  8
0
 10
131.891571
 20
100.992500
  0
VERTEX
  8
0
 10
129.782608
 20
97.336960
  0
SEQEND
  0
LINE
  8
0
 62
     5
 10
77.078804
 20
71.110054
 11
77.078804
 21
19.110054
  0
POLYLINE
  8
0
 62
     5
 66
     1
 70
     2
  0
VERTEX
  8
0
 10
77.619568
 20
69.217392
  0
VERTEX
  8
0
 10
77.078804
 20
71.110054
  0
VERTEX
  8
0
 10
76.538040
 20
69.217392
  0
SEQEND
  0
POLYLINE
  8
0
 62
     5
 66
     1
 70
     2
  0
VERTEX
  8
0
 10
76.538040
 20
21.002716
  0
VERTEX
  8
0
 10
77.078804
 20
19.110054
  0
VERTEX
  8
0
 10
77.619568
 20
21.002716
  0
SEQEND
  0
LINE
  8
0
 62
     5
 10
57.611412
 20
71.110054
 11
77.889946
 21
71.110054
  0
LINE
  8
0
 62
     5
 10
57.611412
 20
19.110054
 11
77.889946
 21
19.110054
  0
TEXT
  8
0
 62
     7
 10
76.538040
 20
41.933083
 40
2.703804
 41
1.000000
  1
%%c52
  7
KANJI
 50
90.000000
 51
0.000000
  0
LINE
  8
0
 62
     5
 10
47.611412
 20
81.925270
 11
57.611412
 21
81.925270
  0
POLYLINE
  8
0
 62
     5
 66
     1
 70
     2
  0
VERTEX
  8
0
 10
49.504074
 20
82.466034
  0
VERTEX
  8
0
 10
47.611412
 20
81.925270
  0
VERTEX
  8
0
 10
49.504074
 20
81.384506
  0
SEQEND
  0
POLYLINE
  8
0
 62
     5
 66
     1
 70
     2
  0
VERTEX
  8
0
 10
55.718750
 20
81.384506
  0
VERTEX
  8
0
 10
57.611412
 20
81.925270
  0
VERTEX
  8
0
 10
55.718750
 20
82.466034
  0
SEQEND
  0
LINE
  8
0
 62
     5
 10
47.611412
 20
71.110054
 11
47.611412
 21
82.736412
  0
LINE
  8
0
 62
     5
 10
57.611412
 20
71.110054
 11
57.611412
 21
82.736412
  0
TEXT
  8
0
 62
     7
 10
50.853939
 20
82.357880
 40
2.703804
 41
1.000000
  1
10
  7
KANJI
 50
0.000000
 51
0.000000
  0
LINE
  8
DASHDOT
 62
     7
 10
45.989128
 20
70.110054
 11
59.233696
 21
70.110054
  0
LINE
  8
DASHDOT
 62
     7
 10
45.989128
 20
20.110054
 11
59.233696
 21
20.110054
  0
LINE
  8
DASHDOT
 62
     7
 10
45.989128
 20
45.110054
 11
59.233696
 21
45.110054
  0
LINE
  8
0
 62
     5
 10
57.111412
 20
19.110054
 11
57.611412
 21
19.110054
  0
LINE
  8
0
 62
     5
 10
57.111412
 20
71.110054
 11
57.611412
 21
71.110054
  0
LINE
  8
0
 62
     5
 10
57.611412
 20
70.610054
 11
57.611412
 21
71.110054
  0
LINE
  8
0
 62
     5
 10
47.611412
 20
70.610054
 11
47.611412
 21
71.110054
  0
LINE
  8
0
 62
     4
 10
47.611412
 20
68.860054
 11
57.611412
 21
68.860054
  0
LINE
  8
0
 62
     4
 10
47.611412
 20
21.360054
 11
57.611412
 21
21.360054
  0
LINE
  8
0
 62
     4
 10
57.611412
 20
53.610054
 11
57.111412
 21
53.110054
  0
LINE
  8
0
 62
     4
 10
57.611412
 20
36.610054
 11
57.111412
 21
37.110054
  0
LINE
  8
0
 62
     4
 10
47.611412
 20
36.610054
 11
48.111412
 21
37.110054
  0
POLYLINE
  8
0
 62
     4
 66
     1
 70
     2
  0
VERTEX
  8
0
 10
47.611412
 20
36.610054
  0
VERTEX
  8
0
 10
47.611412
 20
19.610054
  0
VERTEX
  8
0
 10
48.111412
 20
19.110054
  0
VERTEX
  8
0
 10
57.111412
 20
19.110054
  0
VERTEX
  8
0
 10
57.611412
 20
19.610054
  0
VERTEX
  8
0
 10
57.611412
 20
70.610054
  0
VERTEX
  8
0
 10
57.111412
 20
71.110054
  0
VERTEX
  8
0
 10
48.111412
 20
71.110054
  0
VERTEX
  8
0
 10
47.611412
 20
70.610054
  0
VERTEX
  8
0
 10
47.611412
 20
36.610054
  0
SEQEND
  0
POLYLINE
  8
0
 62
     4
 66
     1
 70
     2
  0
VERTEX
  8
0
 10
47.611412
 20
53.610054
  0
VERTEX
  8
0
 10
48.111412
 20
53.110054
  0
VERTEX
  8
0
 10
48.111412
 20
37.110054
  0
VERTEX
  8
0
 10
57.111412
 20
37.110054
  0
VERTEX
  8
0
 10
57.111412
 20
53.110054
  0
VERTEX
  8
0
 10
48.111412
 20
53.110054
  0
SEQEND
  0
ARC
  8
0
 62
     4
 10
92.649460
 20
45.110054
 40
8.000000
 50
108.20995732853793
 51
71.79004267146207
  0
POLYLINE
  8
0
 62
     4
 66
     1
 70
     2
  0
VERTEX
  8
0
 10
95.149460
 20
52.709396
  0
VERTEX
  8
0
 10
95.149460
 20
55.410053
  0
VERTEX
  8
0
 10
90.149460
 20
55.410053
  0
VERTEX
  8
0
 10
90.149460
 20
52.709396
  0
SEQEND
  0
LINE
  8
0
 62
     4
 10
47.611412
 20
55.410053
 11
57.611412
 21
55.410053
  0
LINE
  8
DASHDOT
 62
     7
 10
92.649460
 20
57.032337
 11
92.649460
 21
35.487770
  0
LINE
  8
DASHDOT
 62
     7
 10
102.271744
 20
45.110054
 11
83.027176
 21
45.110054
  0
LINE
  8
0
 62
     5
 10
98.394020
 20
59.195381
 11
86.904892
 21
59.195381
  0
POLYLINE
  8
0
 62
     5
 66
     1
 70
     2
  0
VERTEX
  8
0
 10
88.256790
 20
58.654617
  0
VERTEX
  8
0
 10
90.149460
 20
59.195381
  0
VERTEX
  8
0
 10
88.256790
 20
59.736141
  0
SEQEND
  0
POLYLINE
  8
0
 62
     5
 66
     1
 70
     2
  0
VERTEX
  8
0
 10
97.042114
 20
59.736141
  0
VERTEX
  8
0
 10
95.149460
 20
59.195381
  0
VERTEX
  8
0
 10
97.042114
 20
58.654617
  0
SEQEND
  0
LINE
  8
0
 62
     5
 10
90.149460
 20
55.410053
 11
90.149460
 21
60.006523
  0
LINE
  8
0
 62
     5
 10
95.149460
 20
55.410053
 11
95.149460
 21
60.006523
  0
TEXT
  8
0
 62
     7
 10
87.068268
 20
59.736141
 40
2.703804
 41
1.000000
  1
5
  7
KANJI
 50
0.000000
 51
0.000000
  0
TEXT
  8
0
 62
     7
 10
89.744705
 20
59.736141
 40
2.163043
 41
1.000000
  1
%%p0.015
  7
KANJI
 50
0.000000
 51
0.000000
  0
LINE
  8
0
 62
     5
 10
114.076088
 20
55.410053
 11
114.076088
 21
37.110054
  0
POLYLINE
  8
0
 62
     5
 66
     1
 70
     2
  0
VERTEX
  8
0
 10
114.616852
 20
53.517391
  0
VERTEX
  8
0
 10
114.076088
 20
55.410053
  0
VERTEX
  8
0
 10
113.535324
 20
53.517391
  0
SEQEND
  0
POLYLINE
  8
0
 62
     5
 66
     1
 70
     2
  0
VERTEX
  8
0
 10
113.535324
 20
39.002716
  0
VERTEX
  8
0
 10
114.076088
 20
37.110054
  0
VERTEX
  8
0
 10
114.616852
 20
39.002716
  0
SEQEND
  0
LINE
  8
0
 62
     5
 10
95.149460
 20
55.410053
 11
114.887230
 21
55.410053
  0
LINE
  8
0
 62
     5
 10
92.649460
 20
37.110054
 11
114.887230
 21
37.110054
  0
TEXT
  8
0
 62
     7
 10
113.264946
 20
36.720539
 40
2.703804
 41
1.000000
  1
18.3
  7
KANJI
 50
90.000000
 51
0.000000
  0
TEXT
  8
0
 62
     7
 10
113.427177
 20
48.423676
 40
1.351902
 41
1.000000
  1
 
  7
KANJI
 50
90.000000
 51
0.000000
  0
TEXT
  8
0
 62
     7
 10
111.750816
 20
48.423676
 40
1.351902
 41
1.000000
  1
+
  7
KANJI
 50
90.000000
 51
0.000000
  0
TEXT
  8
0
 62
     7
 10
113.427177
 20
49.937805
 40
1.351902
 41
1.000000
  1
0
  7
KANJI
 50
90.000000
 51
0.000000
  0
TEXT
  8
0
 62
     7
 10
111.750816
 20
49.937805
 40
1.351902
 41
1.000000
  1
0.1
  7
KANJI
 50
90.000000
 51
0.000000
  0
LINE
  8
0
 62
     5
 10
68.426628
 20
53.110054
 11
68.426628
 21
37.110054
  0
POLYLINE
  8
0
 62
     5
 66
     1
 70
     2
  0
VERTEX
  8
0
 10
67.885864
 20
39.002716
  0
VERTEX
  8
0
 10
68.426628
 20
37.110054
  0
VERTEX
  8
0
 10
68.967392
 20
39.002716
  0
SEQEND
  0
LINE
  8
0
 62
     5
 10
57.611412
 20
37.110054
 11
69.237770
 21
37.110054
  0
TEXT
  8
0
 62
     7
 10
67.885864
 20
40.175613
 40
2.703804
 41
1.000000
  1
%%c16H7
  7
KANJI
 50
90.000000
 51
0.000000
  0
ENDSEC
  0
EOF
