  0
SECTION
  2
HEADER
  9
$ACADVER
  1
AC1003
  9
$INSBASE
 10
0.000000
 20
0.000000
  9
$EXTMIN
 10
0.000000
 20
0.000000
  9
$EXTMAX
 10
305.755435
 20
211.426630
  9
$LIMMIN
 10
0.000000
 20
0.000000
  9
$LIMMAX
 10
305.755435
 20
211.426630
  9
$VIEWCTR
 10
152.877717
 20
105.713315
  9
$VIEWSIZE
 40
211.426630
  0
ENDSEC
  0
SECTION
  2
TABLES
  0
TABLE
  2
LTYPE
 70
     4
  0
LTYPE
  2
CONTINUOUS
 70
    64
  3
SolidLine
 72
    65
 73
     0
 40
0.0
  0
LTYPE
  2
HIDDEN
 70
    64
  3
------------------------
 72
    65
 73
     2
 40
3.252717
 49
2.168478
 49
-1.084239
  0
LTYPE
  2
DASHDOT
 70
    64
  3
--?--?--?--?--?--?--?--
 72
    65
 73
     4
 40
13.010870
 49
9.758152
 49
-1.084239
 49
1.084239
 49
-1.084239
  0
LTYPE
  2
DIVIDE
 70
    64
  3
--??--??--??--??--??--
 72
    65
 73
     6
 40
16.263587
 49
10.842391
 49
-1.084239
 49
1.084239
 49
-1.084239
 49
1.084239
 49
-1.084239
  0
ENDTAB
  0
TABLE
  2
LAYER
 70
     5
  0
LAYER
  2
0
 70
    64
 62
     7
  6
CONTINUOUS
  0
LAYER
  2
HIDDEN
 70
    64
 62
     2
  6
HIDDEN
  0
LAYER
  2
DASHDOT
 70
    64
 62
     6
  6
DASHDOT
  0
LAYER
  2
DIVIDE
 70
    64
 62
     5
  6
DIVIDE
  0
ENDTAB
  0
TABLE
  2
STYLE
 70
     1
  0
STYLE
  2
STANDARD
 70
    64
 40
0.0
 41
1.0
 50
0.0
 71
     0
 42
0.2
  3
TXT
  4

  0
STYLE
  2
KANJI
 70
    64
 40
0.0
 41
1.0
 50
0.0
 71
     0
 42
0.2
  3
TXT
  4
BIGFONT
  0
ENDTAB
  0
TABLE
  2
VIEW
 70
     0
  0
ENDTAB
  0
ENDSEC
  0
SECTION
  2
BLOCKS
  0
ENDSEC
  0
SECTION
  2
ENTITIES
  0
TEXT
  8
0
 62
     7
 10
10.842391
 20
11.926630
 40
4.336957
 41
1.000000
  1
KHK SSA1-100J28
  7
KANJI
 50
0.000000
 51
0.000000
  0
TEXT
  8
0
 62
     7
 10
10.842391
 20
5.421196
 40
4.336957
 41
1.000000
  1
The precision grade of gears after secondary operations is equivalent but not identical to its original grade.
  7
KANJI
 50
0.000000
 51
0.000000
  0
TEXT
  8
0
 62
     7
 10
10.842391
 20
195.163040
 40
4.879076
 41
1.000000
  1
For J Series products, without black oxide repeatedly applied on secondary-operated parts.
  7
KANJI
 50
0.000000
 51
0.000000
  0
POLYLINE
  8
0
 62
     7
 66
     1
 70
     2
  0
VERTEX
  8
0
 10
260.217377
 20
195.163040
  0
VERTEX
  8
0
 10
255.988846
 20
202.492493
  0
VERTEX
  8
0
 10
272.902985
 20
202.492493
  0
VERTEX
  8
0
 10
268.674438
 20
195.163040
  0
VERTEX
  8
0
 10
264.445923
 20
202.492493
  0
VERTEX
  8
0
 10
260.217377
 20
195.163040
  0
SEQEND
  0
LINE
  8
0
 62
     5
 10
151.046204
 20
142.577454
 11
151.046204
 21
40.577454
  0
POLYLINE
  8
0
 62
     5
 66
     1
 70
     2
  0
VERTEX
  8
0
 10
152.130432
 20
138.782623
  0
VERTEX
  8
0
 10
151.046204
 20
142.577454
  0
VERTEX
  8
0
 10
149.961960
 20
138.782623
  0
SEQEND
  0
POLYLINE
  8
0
 62
     5
 66
     1
 70
     2
  0
VERTEX
  8
0
 10
149.961960
 20
44.372292
  0
VERTEX
  8
0
 10
151.046204
 20
40.577454
  0
VERTEX
  8
0
 10
152.130432
 20
44.372292
  0
SEQEND
  0
LINE
  8
0
 62
     5
 10
112.013588
 20
142.577454
 11
152.672546
 21
142.577454
  0
LINE
  8
0
 62
     5
 10
112.013588
 20
40.577454
 11
152.672546
 21
40.577454
  0
TEXT
  8
0
 62
     7
 10
149.961960
 20
83.445663
 40
5.421196
 41
1.000000
  1
%%c102
  7
KANJI
 50
90.000000
 51
0.000000
  0
LINE
  8
0
 62
     5
 10
118.519020
 20
164.262238
 11
95.508156
 21
164.262238
  0
POLYLINE
  8
0
 62
     5
 66
     1
 70
     2
  0
VERTEX
  8
0
 10
98.218750
 20
163.178009
  0
VERTEX
  8
0
 10
102.013588
 20
164.262238
  0
VERTEX
  8
0
 10
98.218750
 20
165.346466
  0
SEQEND
  0
POLYLINE
  8
0
 62
     5
 66
     1
 70
     2
  0
VERTEX
  8
0
 10
115.808426
 20
165.346466
  0
VERTEX
  8
0
 10
112.013588
 20
164.262238
  0
VERTEX
  8
0
 10
115.808426
 20
163.178009
  0
SEQEND
  0
LINE
  8
0
 62
     5
 10
102.013588
 20
142.577454
 11
102.013588
 21
165.888596
  0
LINE
  8
0
 62
     5
 10
112.013588
 20
142.577454
 11
112.013588
 21
165.888596
  0
TEXT
  8
0
 62
     7
 10
103.489807
 20
165.129639
 40
5.421196
 41
1.000000
  1
10
  7
KANJI
 50
0.000000
 51
0.000000
  0
LINE
  8
DASHDOT
 62
     7
 10
98.760872
 20
141.577454
 11
115.266304
 21
141.577454
  0
LINE
  8
DASHDOT
 62
     7
 10
98.760872
 20
41.577454
 11
115.266304
 21
41.577454
  0
LINE
  8
DASHDOT
 62
     7
 10
98.760872
 20
91.577454
 11
115.266304
 21
91.577454
  0
LINE
  8
0
 62
     5
 10
111.513588
 20
40.577454
 11
112.013588
 21
40.577454
  0
LINE
  8
0
 62
     5
 10
111.513588
 20
142.577454
 11
112.013588
 21
142.577454
  0
LINE
  8
0
 62
     5
 10
112.013588
 20
142.077454
 11
112.013588
 21
142.577454
  0
LINE
  8
0
 62
     5
 10
102.013588
 20
142.077454
 11
102.013588
 21
142.577454
  0
LINE
  8
0
 62
     4
 10
102.013588
 20
140.327454
 11
112.013588
 21
140.327454
  0
LINE
  8
0
 62
     4
 10
102.013588
 20
42.827454
 11
112.013588
 21
42.827454
  0
LINE
  8
0
 62
     4
 10
112.013588
 20
106.577454
 11
111.013588
 21
105.577454
  0
LINE
  8
0
 62
     4
 10
112.013588
 20
76.577454
 11
111.013588
 21
77.577454
  0
LINE
  8
0
 62
     4
 10
102.013588
 20
76.577454
 11
103.013588
 21
77.577454
  0
POLYLINE
  8
0
 62
     4
 66
     1
 70
     2
  0
VERTEX
  8
0
 10
102.013588
 20
76.577454
  0
VERTEX
  8
0
 10
102.013588
 20
41.077454
  0
VERTEX
  8
0
 10
102.513588
 20
40.577454
  0
VERTEX
  8
0
 10
111.513588
 20
40.577454
  0
VERTEX
  8
0
 10
112.013588
 20
41.077454
  0
VERTEX
  8
0
 10
112.013588
 20
142.077454
  0
VERTEX
  8
0
 10
111.513588
 20
142.577454
  0
VERTEX
  8
0
 10
102.513588
 20
142.577454
  0
VERTEX
  8
0
 10
102.013588
 20
142.077454
  0
VERTEX
  8
0
 10
102.013588
 20
76.577454
  0
SEQEND
  0
POLYLINE
  8
0
 62
     4
 66
     1
 70
     2
  0
VERTEX
  8
0
 10
102.013588
 20
106.577454
  0
VERTEX
  8
0
 10
103.013588
 20
105.577454
  0
VERTEX
  8
0
 10
103.013588
 20
77.577454
  0
VERTEX
  8
0
 10
111.013588
 20
77.577454
  0
VERTEX
  8
0
 10
111.013588
 20
105.577454
  0
VERTEX
  8
0
 10
103.013588
 20
105.577454
  0
SEQEND
  0
ARC
  8
0
 62
     4
 10
180.225555
 20
91.577454
 40
14.000000
 50
106.60154992625478
 51
73.39845007374521
  0
POLYLINE
  8
0
 62
     4
 66
     1
 70
     2
  0
VERTEX
  8
0
 10
184.225555
 20
104.993858
  0
VERTEX
  8
0
 10
184.225555
 20
108.877457
  0
VERTEX
  8
0
 10
176.225555
 20
108.877457
  0
VERTEX
  8
0
 10
176.225555
 20
104.993858
  0
SEQEND
  0
LINE
  8
0
 62
     4
 10
102.013588
 20
108.877457
 11
112.013588
 21
108.877457
  0
LINE
  8
DASHDOT
 62
     7
 10
180.225555
 20
112.130173
 11
180.225555
 21
74.324738
  0
LINE
  8
DASHDOT
 62
     7
 10
197.478271
 20
91.577454
 11
162.972824
 21
91.577454
  0
LINE
  8
0
 62
     5
 10
190.730988
 20
116.467125
 11
169.720123
 21
116.467125
  0
POLYLINE
  8
0
 62
     5
 66
     1
 70
     2
  0
VERTEX
  8
0
 10
172.430710
 20
115.382889
  0
VERTEX
  8
0
 10
176.225555
 20
116.467125
  0
VERTEX
  8
0
 10
172.430710
 20
117.551369
  0
SEQEND
  0
POLYLINE
  8
0
 62
     5
 66
     1
 70
     2
  0
VERTEX
  8
0
 10
188.020386
 20
117.551369
  0
VERTEX
  8
0
 10
184.225555
 20
116.467125
  0
VERTEX
  8
0
 10
188.020386
 20
115.382889
  0
SEQEND
  0
LINE
  8
0
 62
     5
 10
176.225555
 20
108.877457
 11
176.225555
 21
118.093483
  0
LINE
  8
0
 62
     5
 10
184.225555
 20
108.877457
 11
184.225555
 21
118.093483
  0
TEXT
  8
0
 62
     7
 10
169.035126
 20
117.551369
 40
5.421196
 41
1.000000
  1
8
  7
KANJI
 50
0.000000
 51
0.000000
  0
TEXT
  8
0
 62
     7
 10
174.401443
 20
117.551369
 40
4.336957
 41
1.000000
  1
%%p0.018
  7
KANJI
 50
0.000000
 51
0.000000
  0
LINE
  8
0
 62
     5
 10
222.173920
 20
108.877457
 11
222.173920
 21
77.577454
  0
POLYLINE
  8
0
 62
     5
 66
     1
 70
     2
  0
VERTEX
  8
0
 10
223.258148
 20
105.082619
  0
VERTEX
  8
0
 10
222.173920
 20
108.877457
  0
VERTEX
  8
0
 10
221.089676
 20
105.082619
  0
SEQEND
  0
POLYLINE
  8
0
 62
     5
 66
     1
 70
     2
  0
VERTEX
  8
0
 10
221.089676
 20
81.372292
  0
VERTEX
  8
0
 10
222.173920
 20
77.577454
  0
VERTEX
  8
0
 10
223.258148
 20
81.372292
  0
SEQEND
  0
LINE
  8
0
 62
     5
 10
184.225555
 20
108.877457
 11
223.800262
 21
108.877457
  0
LINE
  8
0
 62
     5
 10
180.225555
 20
77.577454
 11
223.800262
 21
77.577454
  0
TEXT
  8
0
 62
     7
 10
220.547546
 20
74.639679
 40
5.421196
 41
1.000000
  1
31.3
  7
KANJI
 50
90.000000
 51
0.000000
  0
TEXT
  8
0
 62
     7
 10
220.872833
 20
98.104759
 40
2.710598
 41
1.000000
  1
 
  7
KANJI
 50
90.000000
 51
0.000000
  0
TEXT
  8
0
 62
     7
 10
217.511688
 20
98.104759
 40
2.710598
 41
1.000000
  1
+
  7
KANJI
 50
90.000000
 51
0.000000
  0
TEXT
  8
0
 62
     7
 10
220.872833
 20
101.140633
 40
2.710598
 41
1.000000
  1
0
  7
KANJI
 50
90.000000
 51
0.000000
  0
TEXT
  8
0
 62
     7
 10
217.511688
 20
101.140633
 40
2.710598
 41
1.000000
  1
0.2
  7
KANJI
 50
90.000000
 51
0.000000
  0
LINE
  8
0
 62
     5
 10
133.698364
 20
105.577454
 11
133.698364
 21
77.577454
  0
POLYLINE
  8
0
 62
     5
 66
     1
 70
     2
  0
VERTEX
  8
0
 10
132.614136
 20
81.372292
  0
VERTEX
  8
0
 10
133.698364
 20
77.577454
  0
VERTEX
  8
0
 10
134.782608
 20
81.372292
  0
SEQEND
  0
LINE
  8
0
 62
     5
 10
112.013588
 20
77.577454
 11
135.324738
 21
77.577454
  0
TEXT
  8
0
 62
     7
 10
132.614136
 20
81.683769
 40
5.421196
 41
1.000000
  1
%%c28H7
  7
KANJI
 50
90.000000
 51
0.000000
  0
ENDSEC
  0
EOF
