  0
SECTION
  2
HEADER
  9
$ACADVER
  1
AC1003
  9
$INSBASE
 10
0.000000
 20
0.000000
  9
$EXTMIN
 10
0.000000
 20
0.000000
  9
$EXTMAX
 10
106.516304
 20
73.654891
  9
$LIMMIN
 10
0.000000
 20
0.000000
  9
$LIMMAX
 10
106.516304
 20
73.654891
  9
$VIEWCTR
 10
53.258152
 20
36.827446
  9
$VIEWSIZE
 40
73.654891
  0
ENDSEC
  0
SECTION
  2
TABLES
  0
TABLE
  2
LTYPE
 70
     4
  0
LTYPE
  2
CONTINUOUS
 70
    64
  3
SolidLine
 72
    65
 73
     0
 40
0.0
  0
LTYPE
  2
HIDDEN
 70
    64
  3
------------------------
 72
    65
 73
     2
 40
1.133152
 49
0.755435
 49
-0.377717
  0
LTYPE
  2
DASHDOT
 70
    64
  3
--?--?--?--?--?--?--?--
 72
    65
 73
     4
 40
4.532609
 49
3.399457
 49
-0.377717
 49
0.377717
 49
-0.377717
  0
LTYPE
  2
DIVIDE
 70
    64
  3
--??--??--??--??--??--
 72
    65
 73
     6
 40
5.665761
 49
3.777174
 49
-0.377717
 49
0.377717
 49
-0.377717
 49
0.377717
 49
-0.377717
  0
ENDTAB
  0
TABLE
  2
LAYER
 70
     5
  0
LAYER
  2
0
 70
    64
 62
     7
  6
CONTINUOUS
  0
LAYER
  2
HIDDEN
 70
    64
 62
     2
  6
HIDDEN
  0
LAYER
  2
DASHDOT
 70
    64
 62
     6
  6
DASHDOT
  0
LAYER
  2
DIVIDE
 70
    64
 62
     5
  6
DIVIDE
  0
ENDTAB
  0
TABLE
  2
STYLE
 70
     1
  0
STYLE
  2
STANDARD
 70
    64
 40
0.0
 41
1.0
 50
0.0
 71
     0
 42
0.2
  3
TXT
  4

  0
STYLE
  2
KANJI
 70
    64
 40
0.0
 41
1.0
 50
0.0
 71
     0
 42
0.2
  3
TXT
  4
BIGFONT
  0
ENDTAB
  0
TABLE
  2
VIEW
 70
     0
  0
ENDTAB
  0
ENDSEC
  0
SECTION
  2
BLOCKS
  0
ENDSEC
  0
SECTION
  2
ENTITIES
  0
TEXT
  8
0
 62
     7
 10
3.777174
 20
4.154891
 40
1.510870
 41
1.000000
  1
KHK SSA1-35J14
  7
KANJI
 50
0.000000
 51
0.000000
  0
TEXT
  8
0
 62
     7
 10
3.777174
 20
1.888587
 40
1.510870
 41
1.000000
  1
The precision grade of gears after secondary operations is equivalent but not identical to its original grade.
  7
KANJI
 50
0.000000
 51
0.000000
  0
TEXT
  8
0
 62
     7
 10
3.777174
 20
67.989128
 40
1.699728
 41
1.000000
  1
For J Series products, without black oxide repeatedly applied on secondary-operated parts.
  7
KANJI
 50
0.000000
 51
0.000000
  0
POLYLINE
  8
0
 62
     7
 66
     1
 70
     2
  0
VERTEX
  8
0
 10
90.652176
 20
67.989128
  0
VERTEX
  8
0
 10
89.179077
 20
70.542496
  0
VERTEX
  8
0
 10
95.071472
 20
70.542496
  0
VERTEX
  8
0
 10
93.598373
 20
67.989128
  0
VERTEX
  8
0
 10
92.125275
 20
70.542496
  0
VERTEX
  8
0
 10
90.652176
 20
67.989128
  0
SEQEND
  0
LINE
  8
0
 62
     5
 10
54.263588
 20
49.669838
 11
54.263588
 21
12.669838
  0
POLYLINE
  8
0
 62
     5
 66
     1
 70
     2
  0
VERTEX
  8
0
 10
54.641304
 20
48.347828
  0
VERTEX
  8
0
 10
54.263588
 20
49.669838
  0
VERTEX
  8
0
 10
53.885868
 20
48.347828
  0
SEQEND
  0
POLYLINE
  8
0
 62
     5
 66
     1
 70
     2
  0
VERTEX
  8
0
 10
53.885868
 20
13.991848
  0
VERTEX
  8
0
 10
54.263588
 20
12.669838
  0
VERTEX
  8
0
 10
54.641304
 20
13.991848
  0
SEQEND
  0
LINE
  8
0
 62
     5
 10
40.665760
 20
49.669838
 11
54.830162
 21
49.669838
  0
LINE
  8
0
 62
     5
 10
40.665760
 20
12.669838
 11
54.830162
 21
12.669838
  0
TEXT
  8
0
 62
     7
 10
53.885868
 20
28.950748
 40
1.888587
 41
1.000000
  1
%%c37
  7
KANJI
 50
90.000000
 51
0.000000
  0
LINE
  8
0
 62
     5
 10
30.665760
 20
57.224186
 11
40.665760
 21
57.224186
  0
POLYLINE
  8
0
 62
     5
 66
     1
 70
     2
  0
VERTEX
  8
0
 10
31.987770
 20
57.601906
  0
VERTEX
  8
0
 10
30.665760
 20
57.224186
  0
VERTEX
  8
0
 10
31.987770
 20
56.846466
  0
SEQEND
  0
POLYLINE
  8
0
 62
     5
 66
     1
 70
     2
  0
VERTEX
  8
0
 10
39.343750
 20
56.846466
  0
VERTEX
  8
0
 10
40.665760
 20
57.224186
  0
VERTEX
  8
0
 10
39.343750
 20
57.601906
  0
SEQEND
  0
LINE
  8
0
 62
     5
 10
30.665760
 20
49.669838
 11
30.665760
 21
57.790764
  0
LINE
  8
0
 62
     5
 10
40.665760
 20
49.669838
 11
40.665760
 21
57.790764
  0
TEXT
  8
0
 62
     7
 10
34.438179
 20
57.526360
 40
1.888587
 41
1.000000
  1
10
  7
KANJI
 50
0.000000
 51
0.000000
  0
LINE
  8
DASHDOT
 62
     7
 10
29.532608
 20
48.669838
 11
41.798912
 21
48.669838
  0
LINE
  8
DASHDOT
 62
     7
 10
29.532608
 20
13.669838
 11
41.798912
 21
13.669838
  0
LINE
  8
DASHDOT
 62
     7
 10
29.532608
 20
31.169838
 11
41.798912
 21
31.169838
  0
LINE
  8
0
 62
     5
 10
40.165760
 20
12.669838
 11
40.665760
 21
12.669838
  0
LINE
  8
0
 62
     5
 10
40.165760
 20
49.669838
 11
40.665760
 21
49.669838
  0
LINE
  8
0
 62
     5
 10
40.665760
 20
49.169838
 11
40.665760
 21
49.669838
  0
LINE
  8
0
 62
     5
 10
30.665760
 20
49.169838
 11
30.665760
 21
49.669838
  0
LINE
  8
0
 62
     4
 10
30.665760
 20
47.419838
 11
40.665760
 21
47.419838
  0
LINE
  8
0
 62
     4
 10
30.665760
 20
14.919838
 11
40.665760
 21
14.919838
  0
LINE
  8
0
 62
     4
 10
40.665760
 20
38.669838
 11
40.165760
 21
38.169838
  0
LINE
  8
0
 62
     4
 10
40.665760
 20
23.669838
 11
40.165760
 21
24.169838
  0
LINE
  8
0
 62
     4
 10
30.665760
 20
23.669838
 11
31.165760
 21
24.169838
  0
POLYLINE
  8
0
 62
     4
 66
     1
 70
     2
  0
VERTEX
  8
0
 10
30.665760
 20
23.669838
  0
VERTEX
  8
0
 10
30.665760
 20
13.169838
  0
VERTEX
  8
0
 10
31.165760
 20
12.669838
  0
VERTEX
  8
0
 10
40.165760
 20
12.669838
  0
VERTEX
  8
0
 10
40.665760
 20
13.169838
  0
VERTEX
  8
0
 10
40.665760
 20
49.169838
  0
VERTEX
  8
0
 10
40.165760
 20
49.669838
  0
VERTEX
  8
0
 10
31.165760
 20
49.669838
  0
VERTEX
  8
0
 10
30.665760
 20
49.169838
  0
VERTEX
  8
0
 10
30.665760
 20
23.669838
  0
SEQEND
  0
POLYLINE
  8
0
 62
     4
 66
     1
 70
     2
  0
VERTEX
  8
0
 10
30.665760
 20
38.669838
  0
VERTEX
  8
0
 10
31.165760
 20
38.169838
  0
VERTEX
  8
0
 10
31.165760
 20
24.169838
  0
VERTEX
  8
0
 10
40.165760
 20
24.169838
  0
VERTEX
  8
0
 10
40.165760
 20
38.169838
  0
VERTEX
  8
0
 10
31.165760
 20
38.169838
  0
SEQEND
  0
ARC
  8
0
 62
     4
 10
66.551628
 20
31.169838
 40
7.000000
 50
110.92483306307776
 51
69.07516693692226
  0
POLYLINE
  8
0
 62
     4
 66
     1
 70
     2
  0
VERTEX
  8
0
 10
69.051628
 20
37.708187
  0
VERTEX
  8
0
 10
69.051628
 20
40.469837
  0
VERTEX
  8
0
 10
64.051628
 20
40.469837
  0
VERTEX
  8
0
 10
64.051628
 20
37.708187
  0
SEQEND
  0
LINE
  8
0
 62
     4
 10
30.665760
 20
40.469837
 11
40.665760
 21
40.469837
  0
LINE
  8
DASHDOT
 62
     7
 10
66.551628
 20
41.602989
 11
66.551628
 21
23.036686
  0
LINE
  8
DASHDOT
 62
     7
 10
74.684784
 20
31.169838
 11
58.418480
 21
31.169838
  0
LINE
  8
0
 62
     5
 10
71.317932
 20
43.113861
 11
61.785324
 21
43.113861
  0
POLYLINE
  8
0
 62
     5
 66
     1
 70
     2
  0
VERTEX
  8
0
 10
62.729618
 20
42.736145
  0
VERTEX
  8
0
 10
64.051628
 20
43.113861
  0
VERTEX
  8
0
 10
62.729618
 20
43.491577
  0
SEQEND
  0
POLYLINE
  8
0
 62
     5
 66
     1
 70
     2
  0
VERTEX
  8
0
 10
70.373642
 20
43.491577
  0
VERTEX
  8
0
 10
69.051628
 20
43.113861
  0
VERTEX
  8
0
 10
70.373642
 20
42.736145
  0
SEQEND
  0
LINE
  8
0
 62
     5
 10
64.051628
 20
40.469837
 11
64.051628
 21
43.680435
  0
LINE
  8
0
 62
     5
 10
69.051628
 20
40.469837
 11
69.051628
 21
43.680435
  0
TEXT
  8
0
 62
     7
 10
62.653214
 20
43.491577
 40
1.888587
 41
1.000000
  1
5
  7
KANJI
 50
0.000000
 51
0.000000
  0
TEXT
  8
0
 62
     7
 10
64.522675
 20
43.491577
 40
1.510870
 41
1.000000
  1
%%p0.015
  7
KANJI
 50
0.000000
 51
0.000000
  0
LINE
  8
0
 62
     5
 10
82.271736
 20
40.469837
 11
82.271736
 21
24.169838
  0
POLYLINE
  8
0
 62
     5
 66
     1
 70
     2
  0
VERTEX
  8
0
 10
82.649452
 20
39.147827
  0
VERTEX
  8
0
 10
82.271736
 20
40.469837
  0
VERTEX
  8
0
 10
81.894020
 20
39.147827
  0
SEQEND
  0
POLYLINE
  8
0
 62
     5
 66
     1
 70
     2
  0
VERTEX
  8
0
 10
81.894020
 20
25.491850
  0
VERTEX
  8
0
 10
82.271736
 20
24.169838
  0
VERTEX
  8
0
 10
82.649452
 20
25.491850
  0
SEQEND
  0
LINE
  8
0
 62
     5
 10
69.051628
 20
40.469837
 11
82.838318
 21
40.469837
  0
LINE
  8
0
 62
     5
 10
66.551628
 20
24.169838
 11
82.838318
 21
24.169838
  0
TEXT
  8
0
 62
     7
 10
81.705154
 20
25.304800
 40
1.888587
 41
1.000000
  1
16.3
  7
KANJI
 50
90.000000
 51
0.000000
  0
TEXT
  8
0
 62
     7
 10
81.818474
 20
33.479351
 40
0.944293
 41
1.000000
  1
 
  7
KANJI
 50
90.000000
 51
0.000000
  0
TEXT
  8
0
 62
     7
 10
80.647552
 20
33.479351
 40
0.944293
 41
1.000000
  1
+
  7
KANJI
 50
90.000000
 51
0.000000
  0
TEXT
  8
0
 62
     7
 10
81.818474
 20
34.536961
 40
0.944293
 41
1.000000
  1
0
  7
KANJI
 50
90.000000
 51
0.000000
  0
TEXT
  8
0
 62
     7
 10
80.647552
 20
34.536961
 40
0.944293
 41
1.000000
  1
0.1
  7
KANJI
 50
90.000000
 51
0.000000
  0
LINE
  8
0
 62
     5
 10
48.220108
 20
38.169838
 11
48.220108
 21
24.169838
  0
POLYLINE
  8
0
 62
     5
 66
     1
 70
     2
  0
VERTEX
  8
0
 10
47.842392
 20
25.491848
  0
VERTEX
  8
0
 10
48.220108
 20
24.169838
  0
VERTEX
  8
0
 10
48.597824
 20
25.491848
  0
SEQEND
  0
LINE
  8
0
 62
     5
 10
40.665760
 20
24.169838
 11
48.786682
 21
24.169838
  0
TEXT
  8
0
 62
     7
 10
47.842392
 20
27.723167
 40
1.888587
 41
1.000000
  1
%%c14H7
  7
KANJI
 50
90.000000
 51
0.000000
  0
ENDSEC
  0
EOF
