  0
SECTION
  2
HEADER
  9
$ACADVER
  1
AC1003
  9
$INSBASE
 10
0.000000
 20
0.000000
  9
$EXTMIN
 10
0.000000
 20
0.000000
  9
$EXTMAX
 10
213.798913
 20
147.839674
  9
$LIMMIN
 10
0.000000
 20
0.000000
  9
$LIMMAX
 10
213.798913
 20
147.839674
  9
$VIEWCTR
 10
106.899457
 20
73.919837
  9
$VIEWSIZE
 40
147.839674
  0
ENDSEC
  0
SECTION
  2
TABLES
  0
TABLE
  2
LTYPE
 70
     4
  0
LTYPE
  2
CONTINUOUS
 70
    64
  3
SolidLine
 72
    65
 73
     0
 40
0.0
  0
LTYPE
  2
HIDDEN
 70
    64
  3
------------------------
 72
    65
 73
     2
 40
2.274457
 49
1.516304
 49
-0.758152
  0
LTYPE
  2
DASHDOT
 70
    64
  3
--?--?--?--?--?--?--?--
 72
    65
 73
     4
 40
9.097826
 49
6.823370
 49
-0.758152
 49
0.758152
 49
-0.758152
  0
LTYPE
  2
DIVIDE
 70
    64
  3
--??--??--??--??--??--
 72
    65
 73
     6
 40
11.372283
 49
7.581522
 49
-0.758152
 49
0.758152
 49
-0.758152
 49
0.758152
 49
-0.758152
  0
ENDTAB
  0
TABLE
  2
LAYER
 70
     5
  0
LAYER
  2
0
 70
    64
 62
     7
  6
CONTINUOUS
  0
LAYER
  2
HIDDEN
 70
    64
 62
     2
  6
HIDDEN
  0
LAYER
  2
DASHDOT
 70
    64
 62
     6
  6
DASHDOT
  0
LAYER
  2
DIVIDE
 70
    64
 62
     5
  6
DIVIDE
  0
ENDTAB
  0
TABLE
  2
STYLE
 70
     1
  0
STYLE
  2
STANDARD
 70
    64
 40
0.0
 41
1.0
 50
0.0
 71
     0
 42
0.2
  3
TXT
  4

  0
STYLE
  2
KANJI
 70
    64
 40
0.0
 41
1.0
 50
0.0
 71
     0
 42
0.2
  3
TXT
  4
BIGFONT
  0
ENDTAB
  0
TABLE
  2
VIEW
 70
     0
  0
ENDTAB
  0
ENDSEC
  0
SECTION
  2
BLOCKS
  0
ENDSEC
  0
SECTION
  2
ENTITIES
  0
TEXT
  8
0
 62
     7
 10
7.581522
 20
8.339674
 40
3.032609
 41
1.000000
  1
KHK SSA1-70J12
  7
KANJI
 50
0.000000
 51
0.000000
  0
TEXT
  8
0
 62
     7
 10
7.581522
 20
3.790761
 40
3.032609
 41
1.000000
  1
The precision grade of gears after secondary operations is equivalent but not identical to its original grade.
  7
KANJI
 50
0.000000
 51
0.000000
  0
TEXT
  8
0
 62
     7
 10
7.581522
 20
136.467392
 40
3.411685
 41
1.000000
  1
For J Series products, without black oxide repeatedly applied on secondary-operated parts.
  7
KANJI
 50
0.000000
 51
0.000000
  0
POLYLINE
  8
0
 62
     7
 66
     1
 70
     2
  0
VERTEX
  8
0
 10
181.956528
 20
136.467392
  0
VERTEX
  8
0
 10
178.999741
 20
141.592499
  0
VERTEX
  8
0
 10
190.826904
 20
141.592499
  0
VERTEX
  8
0
 10
187.870117
 20
136.467392
  0
VERTEX
  8
0
 10
184.913315
 20
141.592499
  0
VERTEX
  8
0
 10
181.956528
 20
136.467392
  0
SEQEND
  0
LINE
  8
0
 62
     5
 10
109.415764
 20
99.697014
 11
109.415764
 21
27.697014
  0
POLYLINE
  8
0
 62
     5
 66
     1
 70
     2
  0
VERTEX
  8
0
 10
110.173920
 20
97.043480
  0
VERTEX
  8
0
 10
109.415764
 20
99.697014
  0
VERTEX
  8
0
 10
108.657608
 20
97.043480
  0
SEQEND
  0
POLYLINE
  8
0
 62
     5
 66
     1
 70
     2
  0
VERTEX
  8
0
 10
108.657608
 20
30.350548
  0
VERTEX
  8
0
 10
109.415764
 20
27.697014
  0
VERTEX
  8
0
 10
110.173920
 20
30.350548
  0
SEQEND
  0
LINE
  8
0
 62
     5
 10
82.122284
 20
99.697014
 11
110.552994
 21
99.697014
  0
LINE
  8
0
 62
     5
 10
82.122284
 20
27.697014
 11
110.552994
 21
27.697014
  0
TEXT
  8
0
 62
     7
 10
108.657608
 20
59.242870
 40
3.790761
 41
1.000000
  1
%%c72
  7
KANJI
 50
90.000000
 51
0.000000
  0
LINE
  8
0
 62
     5
 10
72.122284
 20
114.860062
 11
82.122284
 21
114.860062
  0
POLYLINE
  8
0
 62
     5
 66
     1
 70
     2
  0
VERTEX
  8
0
 10
74.775818
 20
115.618210
  0
VERTEX
  8
0
 10
72.122284
 20
114.860062
  0
VERTEX
  8
0
 10
74.775818
 20
114.101906
  0
SEQEND
  0
POLYLINE
  8
0
 62
     5
 66
     1
 70
     2
  0
VERTEX
  8
0
 10
79.468750
 20
114.101906
  0
VERTEX
  8
0
 10
82.122284
 20
114.860062
  0
VERTEX
  8
0
 10
79.468750
 20
115.618210
  0
SEQEND
  0
LINE
  8
0
 62
     5
 10
72.122284
 20
99.697014
 11
72.122284
 21
115.997284
  0
LINE
  8
0
 62
     5
 10
82.122284
 20
99.697014
 11
82.122284
 21
115.997284
  0
TEXT
  8
0
 62
     7
 10
74.658287
 20
115.466583
 40
3.790761
 41
1.000000
  1
10
  7
KANJI
 50
0.000000
 51
0.000000
  0
LINE
  8
DASHDOT
 62
     7
 10
69.847824
 20
98.697014
 11
84.396744
 21
98.697014
  0
LINE
  8
DASHDOT
 62
     7
 10
69.847824
 20
28.697014
 11
84.396744
 21
28.697014
  0
LINE
  8
DASHDOT
 62
     7
 10
69.847824
 20
63.697014
 11
84.396744
 21
63.697014
  0
LINE
  8
0
 62
     5
 10
81.622284
 20
27.697014
 11
82.122284
 21
27.697014
  0
LINE
  8
0
 62
     5
 10
81.622284
 20
99.697014
 11
82.122284
 21
99.697014
  0
LINE
  8
0
 62
     5
 10
82.122284
 20
99.197014
 11
82.122284
 21
99.697014
  0
LINE
  8
0
 62
     5
 10
72.122284
 20
99.197014
 11
72.122284
 21
99.697014
  0
LINE
  8
0
 62
     4
 10
72.122284
 20
97.447014
 11
82.122284
 21
97.447014
  0
LINE
  8
0
 62
     4
 10
72.122284
 20
29.947014
 11
82.122284
 21
29.947014
  0
LINE
  8
0
 62
     4
 10
82.122284
 20
70.197014
 11
81.622284
 21
69.697014
  0
LINE
  8
0
 62
     4
 10
82.122284
 20
57.197014
 11
81.622284
 21
57.697014
  0
LINE
  8
0
 62
     4
 10
72.122284
 20
57.197014
 11
72.622284
 21
57.697014
  0
POLYLINE
  8
0
 62
     4
 66
     1
 70
     2
  0
VERTEX
  8
0
 10
72.122284
 20
57.197014
  0
VERTEX
  8
0
 10
72.122284
 20
28.197014
  0
VERTEX
  8
0
 10
72.622284
 20
27.697014
  0
VERTEX
  8
0
 10
81.622284
 20
27.697014
  0
VERTEX
  8
0
 10
82.122284
 20
28.197014
  0
VERTEX
  8
0
 10
82.122284
 20
99.197014
  0
VERTEX
  8
0
 10
81.622284
 20
99.697014
  0
VERTEX
  8
0
 10
72.622284
 20
99.697014
  0
VERTEX
  8
0
 10
72.122284
 20
99.197014
  0
VERTEX
  8
0
 10
72.122284
 20
57.197014
  0
SEQEND
  0
POLYLINE
  8
0
 62
     4
 66
     1
 70
     2
  0
VERTEX
  8
0
 10
72.122284
 20
70.197014
  0
VERTEX
  8
0
 10
72.622284
 20
69.697014
  0
VERTEX
  8
0
 10
72.622284
 20
57.697014
  0
VERTEX
  8
0
 10
81.622284
 20
57.697014
  0
VERTEX
  8
0
 10
81.622284
 20
69.697014
  0
VERTEX
  8
0
 10
72.622284
 20
69.697014
  0
SEQEND
  0
ARC
  8
0
 62
     4
 10
126.029892
 20
63.697014
 40
6.000000
 50
109.47122094265586
 51
70.52877905734415
  0
POLYLINE
  8
0
 62
     4
 66
     1
 70
     2
  0
VERTEX
  8
0
 10
128.029892
 20
69.353867
  0
VERTEX
  8
0
 10
128.029892
 20
71.497017
  0
VERTEX
  8
0
 10
124.029892
 20
71.497017
  0
VERTEX
  8
0
 10
124.029892
 20
69.353867
  0
SEQEND
  0
LINE
  8
0
 62
     4
 10
72.122284
 20
71.497017
 11
82.122284
 21
71.497017
  0
LINE
  8
DASHDOT
 62
     7
 10
126.029892
 20
73.771469
 11
126.029892
 21
55.422558
  0
LINE
  8
DASHDOT
 62
     7
 10
134.304352
 20
63.697014
 11
117.755432
 21
63.697014
  0
LINE
  8
0
 62
     5
 10
132.578796
 20
76.804077
 11
119.480980
 21
76.804077
  0
POLYLINE
  8
0
 62
     5
 66
     1
 70
     2
  0
VERTEX
  8
0
 10
121.376358
 20
76.045929
  0
VERTEX
  8
0
 10
124.029892
 20
76.804077
  0
VERTEX
  8
0
 10
121.376358
 20
77.562233
  0
SEQEND
  0
POLYLINE
  8
0
 62
     5
 66
     1
 70
     2
  0
VERTEX
  8
0
 10
130.683426
 20
77.562233
  0
VERTEX
  8
0
 10
128.029892
 20
76.804077
  0
VERTEX
  8
0
 10
130.683426
 20
76.045929
  0
SEQEND
  0
LINE
  8
0
 62
     5
 10
124.029892
 20
71.497017
 11
124.029892
 21
77.941307
  0
LINE
  8
0
 62
     5
 10
128.029892
 20
71.497017
 11
128.029892
 21
77.941307
  0
TEXT
  8
0
 62
     7
 10
118.205009
 20
77.562233
 40
3.790761
 41
1.000000
  1
4
  7
KANJI
 50
0.000000
 51
0.000000
  0
TEXT
  8
0
 62
     7
 10
121.957397
 20
77.562233
 40
3.032609
 41
1.000000
  1
%%p0.015
  7
KANJI
 50
0.000000
 51
0.000000
  0
LINE
  8
0
 62
     5
 10
154.565216
 20
53.148102
 11
154.565216
 21
76.045929
  0
POLYLINE
  8
0
 62
     5
 66
     1
 70
     2
  0
VERTEX
  8
0
 10
153.807068
 20
74.150543
  0
VERTEX
  8
0
 10
154.565216
 20
71.497017
  0
VERTEX
  8
0
 10
155.323364
 20
74.150543
  0
SEQEND
  0
POLYLINE
  8
0
 62
     5
 66
     1
 70
     2
  0
VERTEX
  8
0
 10
155.323364
 20
55.043480
  0
VERTEX
  8
0
 10
154.565216
 20
57.697014
  0
VERTEX
  8
0
 10
153.807068
 20
55.043480
  0
SEQEND
  0
LINE
  8
0
 62
     5
 10
128.029892
 20
71.497017
 11
155.702454
 21
71.497017
  0
LINE
  8
0
 62
     5
 10
126.029892
 20
57.697014
 11
155.702454
 21
57.697014
  0
TEXT
  8
0
 62
     7
 10
153.427979
 20
52.408195
 40
3.790761
 41
1.000000
  1
13.8
  7
KANJI
 50
90.000000
 51
0.000000
  0
TEXT
  8
0
 62
     7
 10
153.655426
 20
68.816109
 40
1.895380
 41
1.000000
  1
 
  7
KANJI
 50
90.000000
 51
0.000000
  0
TEXT
  8
0
 62
     7
 10
151.305161
 20
68.816109
 40
1.895380
 41
1.000000
  1
+
  7
KANJI
 50
90.000000
 51
0.000000
  0
TEXT
  8
0
 62
     7
 10
153.655426
 20
70.938934
 40
1.895380
 41
1.000000
  1
0
  7
KANJI
 50
90.000000
 51
0.000000
  0
TEXT
  8
0
 62
     7
 10
151.305161
 20
70.938934
 40
1.895380
 41
1.000000
  1
0.1
  7
KANJI
 50
90.000000
 51
0.000000
  0
LINE
  8
0
 62
     5
 10
97.285324
 20
69.697014
 11
97.285324
 21
57.697014
  0
POLYLINE
  8
0
 62
     5
 66
     1
 70
     2
  0
VERTEX
  8
0
 10
96.527176
 20
60.350548
  0
VERTEX
  8
0
 10
97.285324
 20
57.697014
  0
VERTEX
  8
0
 10
98.043480
 20
60.350548
  0
SEQEND
  0
LINE
  8
0
 62
     5
 10
82.122284
 20
57.697014
 11
98.422554
 21
57.697014
  0
TEXT
  8
0
 62
     7
 10
96.527176
 20
56.778877
 40
3.790761
 41
1.000000
  1
%%c12H7
  7
KANJI
 50
90.000000
 51
0.000000
  0
ENDSEC
  0
EOF
