  0
SECTION
  2
HEADER
  9
$ACADVER
  1
AC1003
  9
$INSBASE
 10
0.000000
 20
0.000000
  9
$EXTMIN
 10
0.000000
 20
0.000000
  9
$EXTMAX
 10
183.146739
 20
126.644022
  9
$LIMMIN
 10
0.000000
 20
0.000000
  9
$LIMMAX
 10
183.146739
 20
126.644022
  9
$VIEWCTR
 10
91.573370
 20
63.322011
  9
$VIEWSIZE
 40
126.644022
  0
ENDSEC
  0
SECTION
  2
TABLES
  0
TABLE
  2
LTYPE
 70
     4
  0
LTYPE
  2
CONTINUOUS
 70
    64
  3
SolidLine
 72
    65
 73
     0
 40
0.0
  0
LTYPE
  2
HIDDEN
 70
    64
  3
------------------------
 72
    65
 73
     2
 40
1.948370
 49
1.298913
 49
-0.649457
  0
LTYPE
  2
DASHDOT
 70
    64
  3
--?--?--?--?--?--?--?--
 72
    65
 73
     4
 40
7.793478
 49
5.845109
 49
-0.649457
 49
0.649457
 49
-0.649457
  0
LTYPE
  2
DIVIDE
 70
    64
  3
--??--??--??--??--??--
 72
    65
 73
     6
 40
9.741848
 49
6.494565
 49
-0.649457
 49
0.649457
 49
-0.649457
 49
0.649457
 49
-0.649457
  0
ENDTAB
  0
TABLE
  2
LAYER
 70
     5
  0
LAYER
  2
0
 70
    64
 62
     7
  6
CONTINUOUS
  0
LAYER
  2
HIDDEN
 70
    64
 62
     2
  6
HIDDEN
  0
LAYER
  2
DASHDOT
 70
    64
 62
     6
  6
DASHDOT
  0
LAYER
  2
DIVIDE
 70
    64
 62
     5
  6
DIVIDE
  0
ENDTAB
  0
TABLE
  2
STYLE
 70
     1
  0
STYLE
  2
STANDARD
 70
    64
 40
0.0
 41
1.0
 50
0.0
 71
     0
 42
0.2
  3
TXT
  4

  0
STYLE
  2
KANJI
 70
    64
 40
0.0
 41
1.0
 50
0.0
 71
     0
 42
0.2
  3
TXT
  4
BIGFONT
  0
ENDTAB
  0
TABLE
  2
VIEW
 70
     0
  0
ENDTAB
  0
ENDSEC
  0
SECTION
  2
BLOCKS
  0
ENDSEC
  0
SECTION
  2
ENTITIES
  0
TEXT
  8
0
 62
     7
 10
6.494565
 20
7.144022
 40
2.597826
 41
1.000000
  1
KHK SSA1-60J14
  7
KANJI
 50
0.000000
 51
0.000000
  0
TEXT
  8
0
 62
     7
 10
6.494565
 20
3.247283
 40
2.597826
 41
1.000000
  1
The precision grade of gears after secondary operations is equivalent but not identical to its original grade.
  7
KANJI
 50
0.000000
 51
0.000000
  0
TEXT
  8
0
 62
     7
 10
6.494565
 20
116.902176
 40
2.922554
 41
1.000000
  1
For J Series products, without black oxide repeatedly applied on secondary-operated parts.
  7
KANJI
 50
0.000000
 51
0.000000
  0
POLYLINE
  8
0
 62
     7
 66
     1
 70
     2
  0
VERTEX
  8
0
 10
155.869568
 20
116.902176
  0
VERTEX
  8
0
 10
153.336685
 20
121.292503
  0
VERTEX
  8
0
 10
163.468216
 20
121.292503
  0
VERTEX
  8
0
 10
160.935333
 20
116.902176
  0
VERTEX
  8
0
 10
158.402451
 20
121.292503
  0
VERTEX
  8
0
 10
155.869568
 20
116.902176
  0
SEQEND
  0
LINE
  8
0
 62
     5
 10
93.122284
 20
85.403534
 11
93.122284
 21
23.403530
  0
POLYLINE
  8
0
 62
     5
 66
     1
 70
     2
  0
VERTEX
  8
0
 10
93.771736
 20
83.130432
  0
VERTEX
  8
0
 10
93.122284
 20
85.403534
  0
VERTEX
  8
0
 10
92.472824
 20
83.130432
  0
SEQEND
  0
POLYLINE
  8
0
 62
     5
 66
     1
 70
     2
  0
VERTEX
  8
0
 10
92.472824
 20
25.676628
  0
VERTEX
  8
0
 10
93.122284
 20
23.403530
  0
VERTEX
  8
0
 10
93.771736
 20
25.676628
  0
SEQEND
  0
LINE
  8
0
 62
     5
 10
69.741852
 20
85.403534
 11
94.096466
 21
85.403534
  0
LINE
  8
0
 62
     5
 10
69.741852
 20
23.403530
 11
94.096466
 21
23.403530
  0
TEXT
  8
0
 62
     7
 10
92.472824
 20
50.587975
 40
3.247283
 41
1.000000
  1
%%c62
  7
KANJI
 50
90.000000
 51
0.000000
  0
LINE
  8
0
 62
     5
 10
59.741848
 20
98.392654
 11
69.741852
 21
98.392654
  0
POLYLINE
  8
0
 62
     5
 66
     1
 70
     2
  0
VERTEX
  8
0
 10
62.014946
 20
99.042114
  0
VERTEX
  8
0
 10
59.741848
 20
98.392654
  0
VERTEX
  8
0
 10
62.014946
 20
97.743202
  0
SEQEND
  0
POLYLINE
  8
0
 62
     5
 66
     1
 70
     2
  0
VERTEX
  8
0
 10
67.468750
 20
97.743202
  0
VERTEX
  8
0
 10
69.741852
 20
98.392654
  0
VERTEX
  8
0
 10
67.468750
 20
99.042114
  0
SEQEND
  0
LINE
  8
0
 62
     5
 10
59.741848
 20
85.403534
 11
59.741848
 21
99.366844
  0
LINE
  8
0
 62
     5
 10
69.741852
 20
85.403534
 11
69.741852
 21
99.366844
  0
TEXT
  8
0
 62
     7
 10
62.631115
 20
98.912224
 40
3.247283
 41
1.000000
  1
10
  7
KANJI
 50
0.000000
 51
0.000000
  0
LINE
  8
DASHDOT
 62
     7
 10
57.793480
 20
84.403534
 11
71.690216
 21
84.403534
  0
LINE
  8
DASHDOT
 62
     7
 10
57.793480
 20
24.403530
 11
71.690216
 21
24.403530
  0
LINE
  8
DASHDOT
 62
     7
 10
57.793480
 20
54.403530
 11
71.690216
 21
54.403530
  0
LINE
  8
0
 62
     5
 10
69.241852
 20
23.403530
 11
69.741852
 21
23.403530
  0
LINE
  8
0
 62
     5
 10
69.241852
 20
85.403534
 11
69.741852
 21
85.403534
  0
LINE
  8
0
 62
     5
 10
69.741852
 20
84.903534
 11
69.741852
 21
85.403534
  0
LINE
  8
0
 62
     5
 10
59.741848
 20
84.903534
 11
59.741848
 21
85.403534
  0
LINE
  8
0
 62
     4
 10
59.741848
 20
83.153534
 11
69.741852
 21
83.153534
  0
LINE
  8
0
 62
     4
 10
59.741848
 20
25.653530
 11
69.741852
 21
25.653530
  0
LINE
  8
0
 62
     4
 10
69.741852
 20
61.903530
 11
69.241852
 21
61.403530
  0
LINE
  8
0
 62
     4
 10
69.741852
 20
46.903530
 11
69.241852
 21
47.403530
  0
LINE
  8
0
 62
     4
 10
59.741848
 20
46.903530
 11
60.241848
 21
47.403530
  0
POLYLINE
  8
0
 62
     4
 66
     1
 70
     2
  0
VERTEX
  8
0
 10
59.741848
 20
46.903530
  0
VERTEX
  8
0
 10
59.741848
 20
23.903530
  0
VERTEX
  8
0
 10
60.241848
 20
23.403530
  0
VERTEX
  8
0
 10
69.241852
 20
23.403530
  0
VERTEX
  8
0
 10
69.741852
 20
23.903530
  0
VERTEX
  8
0
 10
69.741852
 20
84.903534
  0
VERTEX
  8
0
 10
69.241852
 20
85.403534
  0
VERTEX
  8
0
 10
60.241848
 20
85.403534
  0
VERTEX
  8
0
 10
59.741848
 20
84.903534
  0
VERTEX
  8
0
 10
59.741848
 20
46.903530
  0
SEQEND
  0
POLYLINE
  8
0
 62
     4
 66
     1
 70
     2
  0
VERTEX
  8
0
 10
59.741848
 20
61.903530
  0
VERTEX
  8
0
 10
60.241848
 20
61.403530
  0
VERTEX
  8
0
 10
60.241848
 20
47.403530
  0
VERTEX
  8
0
 10
69.241852
 20
47.403530
  0
VERTEX
  8
0
 10
69.241852
 20
61.403530
  0
VERTEX
  8
0
 10
60.241848
 20
61.403530
  0
SEQEND
  0
ARC
  8
0
 62
     4
 10
109.214676
 20
54.403530
 40
7.000000
 50
110.92483306307776
 51
69.07516693692226
  0
POLYLINE
  8
0
 62
     4
 66
     1
 70
     2
  0
VERTEX
  8
0
 10
111.714676
 20
60.941879
  0
VERTEX
  8
0
 10
111.714676
 20
63.703529
  0
VERTEX
  8
0
 10
106.714676
 20
63.703529
  0
VERTEX
  8
0
 10
106.714676
 20
60.941879
  0
SEQEND
  0
LINE
  8
0
 62
     4
 10
59.741848
 20
63.703529
 11
69.741852
 21
63.703529
  0
LINE
  8
DASHDOT
 62
     7
 10
109.214676
 20
65.651901
 11
109.214676
 21
45.455162
  0
LINE
  8
DASHDOT
 62
     7
 10
118.163040
 20
54.403530
 11
100.266304
 21
54.403530
  0
LINE
  8
0
 62
     5
 10
115.611420
 20
68.249725
 11
102.817932
 21
68.249725
  0
POLYLINE
  8
0
 62
     5
 66
     1
 70
     2
  0
VERTEX
  8
0
 10
104.441574
 20
67.600266
  0
VERTEX
  8
0
 10
106.714676
 20
68.249725
  0
VERTEX
  8
0
 10
104.441574
 20
68.899185
  0
SEQEND
  0
POLYLINE
  8
0
 62
     5
 66
     1
 70
     2
  0
VERTEX
  8
0
 10
113.987778
 20
68.899185
  0
VERTEX
  8
0
 10
111.714676
 20
68.249725
  0
VERTEX
  8
0
 10
113.987778
 20
67.600266
  0
SEQEND
  0
LINE
  8
0
 62
     5
 10
106.714676
 20
63.703529
 11
106.714676
 21
69.223907
  0
LINE
  8
0
 62
     5
 10
111.714676
 20
63.703529
 11
111.714676
 21
69.223907
  0
TEXT
  8
0
 62
     7
 10
102.511642
 20
68.899185
 40
3.247283
 41
1.000000
  1
5
  7
KANJI
 50
0.000000
 51
0.000000
  0
TEXT
  8
0
 62
     7
 10
105.726051
 20
68.899185
 40
2.597826
 41
1.000000
  1
%%p0.015
  7
KANJI
 50
0.000000
 51
0.000000
  0
LINE
  8
0
 62
     5
 10
134.445648
 20
63.703529
 11
134.445648
 21
47.403530
  0
POLYLINE
  8
0
 62
     5
 66
     1
 70
     2
  0
VERTEX
  8
0
 10
135.095108
 20
61.430431
  0
VERTEX
  8
0
 10
134.445648
 20
63.703529
  0
VERTEX
  8
0
 10
133.796188
 20
61.430431
  0
SEQEND
  0
POLYLINE
  8
0
 62
     5
 66
     1
 70
     2
  0
VERTEX
  8
0
 10
133.796188
 20
49.676628
  0
VERTEX
  8
0
 10
134.445648
 20
47.403530
  0
VERTEX
  8
0
 10
135.095108
 20
49.676628
  0
SEQEND
  0
LINE
  8
0
 62
     5
 10
111.714676
 20
63.703529
 11
135.419830
 21
63.703529
  0
LINE
  8
0
 62
     5
 10
109.214676
 20
47.403530
 11
135.419830
 21
47.403530
  0
TEXT
  8
0
 62
     7
 10
133.471466
 20
44.664364
 40
3.247283
 41
1.000000
  1
16.3
  7
KANJI
 50
90.000000
 51
0.000000
  0
TEXT
  8
0
 62
     7
 10
133.666306
 20
58.719887
 40
1.623641
 41
1.000000
  1
 
  7
KANJI
 50
90.000000
 51
0.000000
  0
TEXT
  8
0
 62
     7
 10
131.652985
 20
58.719887
 40
1.623641
 41
1.000000
  1
+
  7
KANJI
 50
90.000000
 51
0.000000
  0
TEXT
  8
0
 62
     7
 10
133.666306
 20
60.538368
 40
1.623641
 41
1.000000
  1
0
  7
KANJI
 50
90.000000
 51
0.000000
  0
TEXT
  8
0
 62
     7
 10
131.652985
 20
60.538368
 40
1.623641
 41
1.000000
  1
0.1
  7
KANJI
 50
90.000000
 51
0.000000
  0
LINE
  8
0
 62
     5
 10
82.730980
 20
61.403530
 11
82.730980
 21
47.403530
  0
POLYLINE
  8
0
 62
     5
 66
     1
 70
     2
  0
VERTEX
  8
0
 10
82.081520
 20
49.676628
  0
VERTEX
  8
0
 10
82.730980
 20
47.403530
  0
VERTEX
  8
0
 10
83.380432
 20
49.676628
  0
SEQEND
  0
LINE
  8
0
 62
     5
 10
69.741852
 20
47.403530
 11
83.705162
 21
47.403530
  0
TEXT
  8
0
 62
     7
 10
82.081520
 20
48.477242
 40
3.247283
 41
1.000000
  1
%%c14H7
  7
KANJI
 50
90.000000
 51
0.000000
  0
ENDSEC
  0
EOF
