  0
SECTION
  2
HEADER
  9
$ACADVER
  1
AC1003
  9
$INSBASE
 10
0.000000
 20
0.000000
  9
$EXTMIN
 10
0.000000
 20
0.000000
  9
$EXTMAX
 10
366.676630
 20
253.552989
  9
$LIMMIN
 10
0.000000
 20
0.000000
  9
$LIMMAX
 10
366.676630
 20
253.552989
  9
$VIEWCTR
 10
183.338315
 20
126.776495
  9
$VIEWSIZE
 40
253.552989
  0
ENDSEC
  0
SECTION
  2
TABLES
  0
TABLE
  2
LTYPE
 70
     4
  0
LTYPE
  2
CONTINUOUS
 70
    64
  3
SolidLine
 72
    65
 73
     0
 40
0.0
  0
LTYPE
  2
HIDDEN
 70
    64
  3
------------------------
 72
    65
 73
     2
 40
3.900815
 49
2.600543
 49
-1.300272
  0
LTYPE
  2
DASHDOT
 70
    64
  3
--?--?--?--?--?--?--?--
 72
    65
 73
     4
 40
15.603261
 49
11.702446
 49
-1.300272
 49
1.300272
 49
-1.300272
  0
LTYPE
  2
DIVIDE
 70
    64
  3
--??--??--??--??--??--
 72
    65
 73
     6
 40
19.504076
 49
13.002717
 49
-1.300272
 49
1.300272
 49
-1.300272
 49
1.300272
 49
-1.300272
  0
ENDTAB
  0
TABLE
  2
LAYER
 70
     5
  0
LAYER
  2
0
 70
    64
 62
     7
  6
CONTINUOUS
  0
LAYER
  2
HIDDEN
 70
    64
 62
     2
  6
HIDDEN
  0
LAYER
  2
DASHDOT
 70
    64
 62
     6
  6
DASHDOT
  0
LAYER
  2
DIVIDE
 70
    64
 62
     5
  6
DIVIDE
  0
ENDTAB
  0
TABLE
  2
STYLE
 70
     1
  0
STYLE
  2
STANDARD
 70
    64
 40
0.0
 41
1.0
 50
0.0
 71
     0
 42
0.2
  3
TXT
  4

  0
STYLE
  2
KANJI
 70
    64
 40
0.0
 41
1.0
 50
0.0
 71
     0
 42
0.2
  3
TXT
  4
BIGFONT
  0
ENDTAB
  0
TABLE
  2
VIEW
 70
     0
  0
ENDTAB
  0
ENDSEC
  0
SECTION
  2
BLOCKS
  0
ENDSEC
  0
SECTION
  2
ENTITIES
  0
TEXT
  8
0
 62
     7
 10
13.002717
 20
14.302989
 40
5.201087
 41
1.000000
  1
KHK SSA1.5-80J19
  7
KANJI
 50
0.000000
 51
0.000000
  0
TEXT
  8
0
 62
     7
 10
13.002717
 20
6.501359
 40
5.201087
 41
1.000000
  1
The precision grade of gears after secondary operations is equivalent but not identical to its original grade.
  7
KANJI
 50
0.000000
 51
0.000000
  0
TEXT
  8
0
 62
     7
 10
13.002717
 20
234.048920
 40
5.851223
 41
1.000000
  1
For J Series products, without black oxide repeatedly applied on secondary-operated parts.
  7
KANJI
 50
0.000000
 51
0.000000
  0
POLYLINE
  8
0
 62
     7
 66
     1
 70
     2
  0
VERTEX
  8
0
 10
312.065216
 20
234.048920
  0
VERTEX
  8
0
 10
306.994171
 20
242.838760
  0
VERTEX
  8
0
 10
327.278381
 20
242.838760
  0
VERTEX
  8
0
 10
322.207336
 20
234.048920
  0
VERTEX
  8
0
 10
317.136261
 20
242.838760
  0
VERTEX
  8
0
 10
312.065216
 20
234.048920
  0
SEQEND
  0
LINE
  8
0
 62
     5
 10
187.188858
 20
170.985733
 11
187.188858
 21
47.985733
  0
POLYLINE
  8
0
 62
     5
 66
     1
 70
     2
  0
VERTEX
  8
0
 10
188.489136
 20
166.434784
  0
VERTEX
  8
0
 10
187.188858
 20
170.985733
  0
VERTEX
  8
0
 10
185.888580
 20
166.434784
  0
SEQEND
  0
POLYLINE
  8
0
 62
     5
 66
     1
 70
     2
  0
VERTEX
  8
0
 10
185.888580
 20
52.536682
  0
VERTEX
  8
0
 10
187.188858
 20
47.985733
  0
VERTEX
  8
0
 10
188.489136
 20
52.536682
  0
SEQEND
  0
LINE
  8
0
 62
     5
 10
140.379074
 20
170.985733
 11
189.139267
 21
170.985733
  0
LINE
  8
0
 62
     5
 10
140.379074
 20
47.985733
 11
189.139267
 21
47.985733
  0
TEXT
  8
0
 62
     7
 10
185.888580
 20
99.733696
 40
6.501359
 41
1.000000
  1
%%c123
  7
KANJI
 50
90.000000
 51
0.000000
  0
LINE
  8
0
 62
     5
 10
125.379074
 20
196.991165
 11
140.379074
 21
196.991165
  0
POLYLINE
  8
0
 62
     5
 66
     1
 70
     2
  0
VERTEX
  8
0
 10
129.930023
 20
198.291443
  0
VERTEX
  8
0
 10
125.379074
 20
196.991165
  0
VERTEX
  8
0
 10
129.930023
 20
195.690887
  0
SEQEND
  0
POLYLINE
  8
0
 62
     5
 66
     1
 70
     2
  0
VERTEX
  8
0
 10
135.828125
 20
195.690887
  0
VERTEX
  8
0
 10
140.379074
 20
196.991165
  0
VERTEX
  8
0
 10
135.828125
 20
198.291443
  0
SEQEND
  0
LINE
  8
0
 62
     5
 10
125.379074
 20
170.985733
 11
125.379074
 21
198.941574
  0
LINE
  8
0
 62
     5
 10
140.379074
 20
170.985733
 11
140.379074
 21
198.941574
  0
TEXT
  8
0
 62
     7
 10
128.653198
 20
198.031372
 40
6.501359
 41
1.000000
  1
15
  7
KANJI
 50
0.000000
 51
0.000000
  0
LINE
  8
DASHDOT
 62
     7
 10
121.478256
 20
169.485733
 11
144.279892
 21
169.485733
  0
LINE
  8
DASHDOT
 62
     7
 10
121.478256
 20
49.485733
 11
144.279892
 21
49.485733
  0
LINE
  8
DASHDOT
 62
     7
 10
121.478256
 20
109.485733
 11
144.279892
 21
109.485733
  0
LINE
  8
0
 62
     5
 10
139.879074
 20
47.985733
 11
140.379074
 21
47.985733
  0
LINE
  8
0
 62
     5
 10
139.879074
 20
170.985733
 11
140.379074
 21
170.985733
  0
LINE
  8
0
 62
     5
 10
140.379074
 20
170.485733
 11
140.379074
 21
170.985733
  0
LINE
  8
0
 62
     5
 10
125.379074
 20
170.485733
 11
125.379074
 21
170.985733
  0
LINE
  8
0
 62
     4
 10
125.379074
 20
167.610733
 11
140.379074
 21
167.610733
  0
LINE
  8
0
 62
     4
 10
125.379074
 20
51.360733
 11
140.379074
 21
51.360733
  0
LINE
  8
0
 62
     4
 10
140.379074
 20
119.485733
 11
139.879074
 21
118.985733
  0
LINE
  8
0
 62
     4
 10
140.379074
 20
99.485733
 11
139.879074
 21
99.985733
  0
LINE
  8
0
 62
     4
 10
125.379074
 20
99.485733
 11
125.879074
 21
99.985733
  0
POLYLINE
  8
0
 62
     4
 66
     1
 70
     2
  0
VERTEX
  8
0
 10
125.379074
 20
99.485733
  0
VERTEX
  8
0
 10
125.379074
 20
48.485733
  0
VERTEX
  8
0
 10
125.879074
 20
47.985733
  0
VERTEX
  8
0
 10
139.879074
 20
47.985733
  0
VERTEX
  8
0
 10
140.379074
 20
48.485733
  0
VERTEX
  8
0
 10
140.379074
 20
170.485733
  0
VERTEX
  8
0
 10
139.879074
 20
170.985733
  0
VERTEX
  8
0
 10
125.879074
 20
170.985733
  0
VERTEX
  8
0
 10
125.379074
 20
170.485733
  0
VERTEX
  8
0
 10
125.379074
 20
99.485733
  0
SEQEND
  0
POLYLINE
  8
0
 62
     4
 66
     1
 70
     2
  0
VERTEX
  8
0
 10
125.379074
 20
119.485733
  0
VERTEX
  8
0
 10
125.879074
 20
118.985733
  0
VERTEX
  8
0
 10
125.879074
 20
99.985733
  0
VERTEX
  8
0
 10
139.879074
 20
99.985733
  0
VERTEX
  8
0
 10
139.879074
 20
118.985733
  0
VERTEX
  8
0
 10
125.879074
 20
118.985733
  0
SEQEND
  0
ARC
  8
0
 62
     4
 10
214.892670
 20
109.485733
 40
9.500000
 50
108.4084803259778
 51
71.5915196740222
  0
POLYLINE
  8
0
 62
     4
 66
     1
 70
     2
  0
VERTEX
  8
0
 10
217.892670
 20
118.499611
  0
VERTEX
  8
0
 10
217.892670
 20
121.785736
  0
VERTEX
  8
0
 10
211.892670
 20
121.785736
  0
VERTEX
  8
0
 10
211.892670
 20
118.499611
  0
SEQEND
  0
LINE
  8
0
 62
     4
 10
125.379074
 20
121.785736
 11
140.379074
 21
121.785736
  0
LINE
  8
DASHDOT
 62
     7
 10
214.892670
 20
125.686546
 11
214.892670
 21
96.084915
  0
LINE
  8
DASHDOT
 62
     7
 10
228.293488
 20
109.485733
 11
201.491852
 21
109.485733
  0
LINE
  8
0
 62
     5
 10
225.694290
 20
130.887634
 11
204.091034
 21
130.887634
  0
POLYLINE
  8
0
 62
     5
 66
     1
 70
     2
  0
VERTEX
  8
0
 10
207.341705
 20
129.587357
  0
VERTEX
  8
0
 10
211.892670
 20
130.887634
  0
VERTEX
  8
0
 10
207.341705
 20
132.187912
  0
SEQEND
  0
POLYLINE
  8
0
 62
     5
 66
     1
 70
     2
  0
VERTEX
  8
0
 10
222.443604
 20
132.187912
  0
VERTEX
  8
0
 10
217.892670
 20
130.887634
  0
VERTEX
  8
0
 10
222.443604
 20
129.587357
  0
SEQEND
  0
LINE
  8
0
 62
     5
 10
211.892670
 20
121.785736
 11
211.892670
 21
132.838043
  0
LINE
  8
0
 62
     5
 10
217.892670
 20
121.785736
 11
217.892670
 21
132.838043
  0
TEXT
  8
0
 62
     7
 10
201.472565
 20
132.187912
 40
6.501359
 41
1.000000
  1
6
  7
KANJI
 50
0.000000
 51
0.000000
  0
TEXT
  8
0
 62
     7
 10
207.908112
 20
132.187912
 40
5.201087
 41
1.000000
  1
%%p0.015
  7
KANJI
 50
0.000000
 51
0.000000
  0
LINE
  8
0
 62
     5
 10
263.402161
 20
92.184105
 11
263.402161
 21
129.587372
  0
POLYLINE
  8
0
 62
     5
 66
     1
 70
     2
  0
VERTEX
  8
0
 10
262.101898
 20
126.336685
  0
VERTEX
  8
0
 10
263.402161
 20
121.785736
  0
VERTEX
  8
0
 10
264.702454
 20
126.336685
  0
SEQEND
  0
POLYLINE
  8
0
 62
     5
 66
     1
 70
     2
  0
VERTEX
  8
0
 10
264.702454
 20
95.434784
  0
VERTEX
  8
0
 10
263.402161
 20
99.985733
  0
VERTEX
  8
0
 10
262.101898
 20
95.434784
  0
SEQEND
  0
LINE
  8
0
 62
     5
 10
217.892670
 20
121.785736
 11
265.352600
 21
121.785736
  0
LINE
  8
0
 62
     5
 10
214.892670
 20
99.985733
 11
265.352600
 21
99.985733
  0
TEXT
  8
0
 62
     7
 10
261.451782
 20
90.168030
 40
6.501359
 41
1.000000
  1
21.8
  7
KANJI
 50
90.000000
 51
0.000000
  0
TEXT
  8
0
 62
     7
 10
261.841858
 20
118.308487
 40
3.250679
 41
1.000000
  1
 
  7
KANJI
 50
90.000000
 51
0.000000
  0
TEXT
  8
0
 62
     7
 10
257.811005
 20
118.308487
 40
3.250679
 41
1.000000
  1
+
  7
KANJI
 50
90.000000
 51
0.000000
  0
TEXT
  8
0
 62
     7
 10
261.841858
 20
121.949249
 40
3.250679
 41
1.000000
  1
0
  7
KANJI
 50
90.000000
 51
0.000000
  0
TEXT
  8
0
 62
     7
 10
257.811005
 20
121.949249
 40
3.250679
 41
1.000000
  1
0.1
  7
KANJI
 50
90.000000
 51
0.000000
  0
LINE
  8
0
 62
     5
 10
166.384506
 20
118.985733
 11
166.384506
 21
99.985733
  0
POLYLINE
  8
0
 62
     5
 66
     1
 70
     2
  0
VERTEX
  8
0
 10
165.084229
 20
104.536682
  0
VERTEX
  8
0
 10
166.384506
 20
99.985733
  0
VERTEX
  8
0
 10
167.684784
 20
104.536682
  0
SEQEND
  0
LINE
  8
0
 62
     5
 10
140.379074
 20
99.985733
 11
168.334915
 21
99.985733
  0
TEXT
  8
0
 62
     7
 10
165.084229
 20
97.620758
 40
6.501359
 41
1.000000
  1
%%c19H7
  7
KANJI
 50
90.000000
 51
0.000000
  0
ENDSEC
  0
EOF
