  0
SECTION
  2
HEADER
  9
$ACADVER
  1
AC1003
  9
$INSBASE
 10
0.000000
 20
0.000000
  9
$EXTMIN
 10
0.000000
 20
0.000000
  9
$EXTMAX
 10
366.676630
 20
253.552989
  9
$LIMMIN
 10
0.000000
 20
0.000000
  9
$LIMMAX
 10
366.676630
 20
253.552989
  9
$VIEWCTR
 10
183.338315
 20
126.776495
  9
$VIEWSIZE
 40
253.552989
  0
ENDSEC
  0
SECTION
  2
TABLES
  0
TABLE
  2
LTYPE
 70
     4
  0
LTYPE
  2
CONTINUOUS
 70
    64
  3
SolidLine
 72
    65
 73
     0
 40
0.0
  0
LTYPE
  2
HIDDEN
 70
    64
  3
------------------------
 72
    65
 73
     2
 40
3.900815
 49
2.600543
 49
-1.300272
  0
LTYPE
  2
DASHDOT
 70
    64
  3
--?--?--?--?--?--?--?--
 72
    65
 73
     4
 40
15.603261
 49
11.702446
 49
-1.300272
 49
1.300272
 49
-1.300272
  0
LTYPE
  2
DIVIDE
 70
    64
  3
--??--??--??--??--??--
 72
    65
 73
     6
 40
19.504076
 49
13.002717
 49
-1.300272
 49
1.300272
 49
-1.300272
 49
1.300272
 49
-1.300272
  0
ENDTAB
  0
TABLE
  2
LAYER
 70
     5
  0
LAYER
  2
0
 70
    64
 62
     7
  6
CONTINUOUS
  0
LAYER
  2
HIDDEN
 70
    64
 62
     2
  6
HIDDEN
  0
LAYER
  2
DASHDOT
 70
    64
 62
     6
  6
DASHDOT
  0
LAYER
  2
DIVIDE
 70
    64
 62
     5
  6
DIVIDE
  0
ENDTAB
  0
TABLE
  2
STYLE
 70
     1
  0
STYLE
  2
STANDARD
 70
    64
 40
0.0
 41
1.0
 50
0.0
 71
     0
 42
0.2
  3
TXT
  4

  0
STYLE
  2
KANJI
 70
    64
 40
0.0
 41
1.0
 50
0.0
 71
     0
 42
0.2
  3
TXT
  4
BIGFONT
  0
ENDTAB
  0
TABLE
  2
VIEW
 70
     0
  0
ENDTAB
  0
ENDSEC
  0
SECTION
  2
BLOCKS
  0
ENDSEC
  0
SECTION
  2
ENTITIES
  0
TEXT
  8
0
 62
     7
 10
13.002717
 20
14.302989
 40
5.201087
 41
1.000000
  1
KHK SSA1.5-80J40
  7
KANJI
 50
0.000000
 51
0.000000
  0
TEXT
  8
0
 62
     7
 10
13.002717
 20
6.501359
 40
5.201087
 41
1.000000
  1
The precision grade of gears after secondary operations is equivalent but not identical to its original grade.
  7
KANJI
 50
0.000000
 51
0.000000
  0
TEXT
  8
0
 62
     7
 10
13.002717
 20
234.048920
 40
5.851223
 41
1.000000
  1
For J Series products, without black oxide repeatedly applied on secondary-operated parts.
  7
KANJI
 50
0.000000
 51
0.000000
  0
POLYLINE
  8
0
 62
     7
 66
     1
 70
     2
  0
VERTEX
  8
0
 10
312.065216
 20
234.048920
  0
VERTEX
  8
0
 10
306.994171
 20
242.838760
  0
VERTEX
  8
0
 10
327.278381
 20
242.838760
  0
VERTEX
  8
0
 10
322.207336
 20
234.048920
  0
VERTEX
  8
0
 10
317.136261
 20
242.838760
  0
VERTEX
  8
0
 10
312.065216
 20
234.048920
  0
SEQEND
  0
LINE
  8
0
 62
     5
 10
180.438858
 20
170.985733
 11
180.438858
 21
47.985733
  0
POLYLINE
  8
0
 62
     5
 66
     1
 70
     2
  0
VERTEX
  8
0
 10
181.739136
 20
166.434784
  0
VERTEX
  8
0
 10
180.438858
 20
170.985733
  0
VERTEX
  8
0
 10
179.138580
 20
166.434784
  0
SEQEND
  0
POLYLINE
  8
0
 62
     5
 66
     1
 70
     2
  0
VERTEX
  8
0
 10
179.138580
 20
52.536682
  0
VERTEX
  8
0
 10
180.438858
 20
47.985733
  0
VERTEX
  8
0
 10
181.739136
 20
52.536682
  0
SEQEND
  0
LINE
  8
0
 62
     5
 10
133.629074
 20
170.985733
 11
182.389267
 21
170.985733
  0
LINE
  8
0
 62
     5
 10
133.629074
 20
47.985733
 11
182.389267
 21
47.985733
  0
TEXT
  8
0
 62
     7
 10
179.138580
 20
99.733696
 40
6.501359
 41
1.000000
  1
%%c123
  7
KANJI
 50
90.000000
 51
0.000000
  0
LINE
  8
0
 62
     5
 10
118.629074
 20
196.991165
 11
133.629074
 21
196.991165
  0
POLYLINE
  8
0
 62
     5
 66
     1
 70
     2
  0
VERTEX
  8
0
 10
123.180023
 20
198.291443
  0
VERTEX
  8
0
 10
118.629074
 20
196.991165
  0
VERTEX
  8
0
 10
123.180023
 20
195.690887
  0
SEQEND
  0
POLYLINE
  8
0
 62
     5
 66
     1
 70
     2
  0
VERTEX
  8
0
 10
129.078125
 20
195.690887
  0
VERTEX
  8
0
 10
133.629074
 20
196.991165
  0
VERTEX
  8
0
 10
129.078125
 20
198.291443
  0
SEQEND
  0
LINE
  8
0
 62
     5
 10
118.629074
 20
170.985733
 11
118.629074
 21
198.941574
  0
LINE
  8
0
 62
     5
 10
133.629074
 20
170.985733
 11
133.629074
 21
198.941574
  0
TEXT
  8
0
 62
     7
 10
121.903191
 20
198.031372
 40
6.501359
 41
1.000000
  1
15
  7
KANJI
 50
0.000000
 51
0.000000
  0
LINE
  8
DASHDOT
 62
     7
 10
114.728256
 20
169.485733
 11
137.529892
 21
169.485733
  0
LINE
  8
DASHDOT
 62
     7
 10
114.728256
 20
49.485733
 11
137.529892
 21
49.485733
  0
LINE
  8
DASHDOT
 62
     7
 10
114.728256
 20
109.485733
 11
137.529892
 21
109.485733
  0
LINE
  8
0
 62
     5
 10
133.129074
 20
47.985733
 11
133.629074
 21
47.985733
  0
LINE
  8
0
 62
     5
 10
133.129074
 20
170.985733
 11
133.629074
 21
170.985733
  0
LINE
  8
0
 62
     5
 10
133.629074
 20
170.485733
 11
133.629074
 21
170.985733
  0
LINE
  8
0
 62
     5
 10
118.629074
 20
170.485733
 11
118.629074
 21
170.985733
  0
LINE
  8
0
 62
     4
 10
118.629074
 20
167.610733
 11
133.629074
 21
167.610733
  0
LINE
  8
0
 62
     4
 10
118.629074
 20
51.360733
 11
133.629074
 21
51.360733
  0
LINE
  8
0
 62
     4
 10
133.629074
 20
130.485733
 11
132.629074
 21
129.485733
  0
LINE
  8
0
 62
     4
 10
133.629074
 20
88.485733
 11
132.629074
 21
89.485733
  0
LINE
  8
0
 62
     4
 10
118.629074
 20
88.485733
 11
119.629074
 21
89.485733
  0
POLYLINE
  8
0
 62
     4
 66
     1
 70
     2
  0
VERTEX
  8
0
 10
118.629074
 20
88.485733
  0
VERTEX
  8
0
 10
118.629074
 20
48.485733
  0
VERTEX
  8
0
 10
119.129074
 20
47.985733
  0
VERTEX
  8
0
 10
133.129074
 20
47.985733
  0
VERTEX
  8
0
 10
133.629074
 20
48.485733
  0
VERTEX
  8
0
 10
133.629074
 20
170.485733
  0
VERTEX
  8
0
 10
133.129074
 20
170.985733
  0
VERTEX
  8
0
 10
119.129074
 20
170.985733
  0
VERTEX
  8
0
 10
118.629074
 20
170.485733
  0
VERTEX
  8
0
 10
118.629074
 20
88.485733
  0
SEQEND
  0
POLYLINE
  8
0
 62
     4
 66
     1
 70
     2
  0
VERTEX
  8
0
 10
118.629074
 20
130.485733
  0
VERTEX
  8
0
 10
119.629074
 20
129.485733
  0
VERTEX
  8
0
 10
119.629074
 20
89.485733
  0
VERTEX
  8
0
 10
132.629074
 20
89.485733
  0
VERTEX
  8
0
 10
132.629074
 20
129.485733
  0
VERTEX
  8
0
 10
119.629074
 20
129.485733
  0
SEQEND
  0
ARC
  8
0
 62
     4
 10
218.642670
 20
109.485733
 40
20.000000
 50
107.45760274776076
 51
72.54239725223924
  0
POLYLINE
  8
0
 62
     4
 66
     1
 70
     2
  0
VERTEX
  8
0
 10
224.642670
 20
128.564514
  0
VERTEX
  8
0
 10
224.642670
 20
132.785736
  0
VERTEX
  8
0
 10
212.642670
 20
132.785736
  0
VERTEX
  8
0
 10
212.642670
 20
128.564514
  0
SEQEND
  0
LINE
  8
0
 62
     4
 10
118.629074
 20
132.785736
 11
133.629074
 21
132.785736
  0
LINE
  8
DASHDOT
 62
     7
 10
218.642670
 20
136.686554
 11
218.642670
 21
85.584915
  0
LINE
  8
DASHDOT
 62
     7
 10
242.543488
 20
109.485733
 11
194.741852
 21
109.485733
  0
LINE
  8
0
 62
     5
 10
232.444290
 20
141.887634
 11
204.841034
 21
141.887634
  0
POLYLINE
  8
0
 62
     5
 66
     1
 70
     2
  0
VERTEX
  8
0
 10
208.091705
 20
140.587357
  0
VERTEX
  8
0
 10
212.642670
 20
141.887634
  0
VERTEX
  8
0
 10
208.091705
 20
143.187897
  0
SEQEND
  0
POLYLINE
  8
0
 62
     5
 66
     1
 70
     2
  0
VERTEX
  8
0
 10
229.193604
 20
143.187897
  0
VERTEX
  8
0
 10
224.642670
 20
141.887634
  0
VERTEX
  8
0
 10
229.193604
 20
140.587357
  0
SEQEND
  0
LINE
  8
0
 62
     5
 10
212.642670
 20
132.785736
 11
212.642670
 21
143.838043
  0
LINE
  8
0
 62
     5
 10
224.642670
 20
132.785736
 11
224.642670
 21
143.838043
  0
TEXT
  8
0
 62
     7
 10
200.346558
 20
143.187897
 40
6.501359
 41
1.000000
  1
12
  7
KANJI
 50
0.000000
 51
0.000000
  0
TEXT
  8
0
 62
     7
 10
211.333038
 20
143.187897
 40
5.201087
 41
1.000000
  1
%%p0.0215
  7
KANJI
 50
0.000000
 51
0.000000
  0
LINE
  8
0
 62
     5
 10
270.152161
 20
132.785736
 11
270.152161
 21
89.485733
  0
POLYLINE
  8
0
 62
     5
 66
     1
 70
     2
  0
VERTEX
  8
0
 10
271.452454
 20
128.234787
  0
VERTEX
  8
0
 10
270.152161
 20
132.785736
  0
VERTEX
  8
0
 10
268.851898
 20
128.234787
  0
SEQEND
  0
POLYLINE
  8
0
 62
     5
 66
     1
 70
     2
  0
VERTEX
  8
0
 10
268.851898
 20
94.036682
  0
VERTEX
  8
0
 10
270.152161
 20
89.485733
  0
VERTEX
  8
0
 10
271.452454
 20
94.036682
  0
SEQEND
  0
LINE
  8
0
 62
     5
 10
224.642670
 20
132.785736
 11
272.102600
 21
132.785736
  0
LINE
  8
0
 62
     5
 10
218.642670
 20
89.485733
 11
272.102600
 21
89.485733
  0
TEXT
  8
0
 62
     7
 10
268.201782
 20
88.268028
 40
6.501359
 41
1.000000
  1
43.3
  7
KANJI
 50
90.000000
 51
0.000000
  0
TEXT
  8
0
 62
     7
 10
268.591858
 20
116.408485
 40
3.250679
 41
1.000000
  1
 
  7
KANJI
 50
90.000000
 51
0.000000
  0
TEXT
  8
0
 62
     7
 10
264.561005
 20
116.408485
 40
3.250679
 41
1.000000
  1
+
  7
KANJI
 50
90.000000
 51
0.000000
  0
TEXT
  8
0
 62
     7
 10
268.591858
 20
120.049240
 40
3.250679
 41
1.000000
  1
0
  7
KANJI
 50
90.000000
 51
0.000000
  0
TEXT
  8
0
 62
     7
 10
264.561005
 20
120.049240
 40
3.250679
 41
1.000000
  1
0.2
  7
KANJI
 50
90.000000
 51
0.000000
  0
LINE
  8
0
 62
     5
 10
159.634506
 20
129.485733
 11
159.634506
 21
89.485733
  0
POLYLINE
  8
0
 62
     5
 66
     1
 70
     2
  0
VERTEX
  8
0
 10
158.334229
 20
94.036682
  0
VERTEX
  8
0
 10
159.634506
 20
89.485733
  0
VERTEX
  8
0
 10
160.934784
 20
94.036682
  0
SEQEND
  0
LINE
  8
0
 62
     5
 10
133.629074
 20
89.485733
 11
161.584915
 21
89.485733
  0
TEXT
  8
0
 62
     7
 10
158.334229
 20
97.620758
 40
6.501359
 41
1.000000
  1
%%c40H7
  7
KANJI
 50
90.000000
 51
0.000000
  0
ENDSEC
  0
EOF
