  0
SECTION
  2
HEADER
  9
$ACADVER
  1
AC1003
  9
$INSBASE
 10
0.000000
 20
0.000000
  9
$EXTMIN
 10
0.000000
 20
0.000000
  9
$EXTMAX
 10
251.730978
 20
174.069293
  9
$LIMMIN
 10
0.000000
 20
0.000000
  9
$LIMMAX
 10
251.730978
 20
174.069293
  9
$VIEWCTR
 10
125.865489
 20
87.034647
  9
$VIEWSIZE
 40
174.069293
  0
ENDSEC
  0
SECTION
  2
TABLES
  0
TABLE
  2
LTYPE
 70
     4
  0
LTYPE
  2
CONTINUOUS
 70
    64
  3
SolidLine
 72
    65
 73
     0
 40
0.0
  0
LTYPE
  2
HIDDEN
 70
    64
  3
------------------------
 72
    65
 73
     2
 40
2.677989
 49
1.785326
 49
-0.892663
  0
LTYPE
  2
DASHDOT
 70
    64
  3
--?--?--?--?--?--?--?--
 72
    65
 73
     4
 40
10.711957
 49
8.033967
 49
-0.892663
 49
0.892663
 49
-0.892663
  0
LTYPE
  2
DIVIDE
 70
    64
  3
--??--??--??--??--??--
 72
    65
 73
     6
 40
13.389946
 49
8.926630
 49
-0.892663
 49
0.892663
 49
-0.892663
 49
0.892663
 49
-0.892663
  0
ENDTAB
  0
TABLE
  2
LAYER
 70
     5
  0
LAYER
  2
0
 70
    64
 62
     7
  6
CONTINUOUS
  0
LAYER
  2
HIDDEN
 70
    64
 62
     2
  6
HIDDEN
  0
LAYER
  2
DASHDOT
 70
    64
 62
     6
  6
DASHDOT
  0
LAYER
  2
DIVIDE
 70
    64
 62
     5
  6
DIVIDE
  0
ENDTAB
  0
TABLE
  2
STYLE
 70
     1
  0
STYLE
  2
STANDARD
 70
    64
 40
0.0
 41
1.0
 50
0.0
 71
     0
 42
0.2
  3
TXT
  4

  0
STYLE
  2
KANJI
 70
    64
 40
0.0
 41
1.0
 50
0.0
 71
     0
 42
0.2
  3
TXT
  4
BIGFONT
  0
ENDTAB
  0
TABLE
  2
VIEW
 70
     0
  0
ENDTAB
  0
ENDSEC
  0
SECTION
  2
BLOCKS
  0
ENDSEC
  0
SECTION
  2
ENTITIES
  0
TEXT
  8
0
 62
     7
 10
8.926630
 20
9.819293
 40
3.570652
 41
1.000000
  1
KHK SSA1.5-55J18
  7
KANJI
 50
0.000000
 51
0.000000
  0
TEXT
  8
0
 62
     7
 10
8.926630
 20
4.463315
 40
3.570652
 41
1.000000
  1
The precision grade of gears after secondary operations is equivalent but not identical to its original grade.
  7
KANJI
 50
0.000000
 51
0.000000
  0
TEXT
  8
0
 62
     7
 10
8.926630
 20
160.679352
 40
4.016984
 41
1.000000
  1
For J Series products, without black oxide repeatedly applied on secondary-operated parts.
  7
KANJI
 50
0.000000
 51
0.000000
  0
POLYLINE
  8
0
 62
     7
 66
     1
 70
     2
  0
VERTEX
  8
0
 10
214.239136
 20
160.679352
  0
VERTEX
  8
0
 10
210.757751
 20
166.713760
  0
VERTEX
  8
0
 10
224.683289
 20
166.713760
  0
VERTEX
  8
0
 10
221.201904
 20
160.679352
  0
VERTEX
  8
0
 10
217.720520
 20
166.713760
  0
VERTEX
  8
0
 10
214.239136
 20
160.679352
  0
SEQEND
  0
LINE
  8
0
 62
     5
 10
129.150818
 20
117.385193
 11
129.150818
 21
31.885193
  0
POLYLINE
  8
0
 62
     5
 66
     1
 70
     2
  0
VERTEX
  8
0
 10
130.043472
 20
114.260872
  0
VERTEX
  8
0
 10
129.150818
 20
117.385193
  0
VERTEX
  8
0
 10
128.258148
 20
114.260872
  0
SEQEND
  0
POLYLINE
  8
0
 62
     5
 66
     1
 70
     2
  0
VERTEX
  8
0
 10
128.258148
 20
35.009514
  0
VERTEX
  8
0
 10
129.150818
 20
31.885193
  0
VERTEX
  8
0
 10
130.043472
 20
35.009514
  0
SEQEND
  0
LINE
  8
0
 62
     5
 10
97.014946
 20
117.385193
 11
130.489807
 21
117.385193
  0
LINE
  8
0
 62
     5
 10
97.014946
 20
31.885193
 11
130.489807
 21
31.885193
  0
TEXT
  8
0
 62
     7
 10
128.258148
 20
66.489639
 40
4.463315
 41
1.000000
  1
%%c85.5
  7
KANJI
 50
90.000000
 51
0.000000
  0
LINE
  8
0
 62
     5
 10
82.014946
 20
135.238449
 11
97.014946
 21
135.238449
  0
POLYLINE
  8
0
 62
     5
 66
     1
 70
     2
  0
VERTEX
  8
0
 10
85.139267
 20
136.131119
  0
VERTEX
  8
0
 10
82.014946
 20
135.238449
  0
VERTEX
  8
0
 10
85.139267
 20
134.345795
  0
SEQEND
  0
POLYLINE
  8
0
 62
     5
 66
     1
 70
     2
  0
VERTEX
  8
0
 10
93.890625
 20
134.345795
  0
VERTEX
  8
0
 10
97.014946
 20
135.238449
  0
VERTEX
  8
0
 10
93.890625
 20
136.131119
  0
SEQEND
  0
LINE
  8
0
 62
     5
 10
82.014946
 20
117.385193
 11
82.014946
 21
136.577454
  0
LINE
  8
0
 62
     5
 10
97.014946
 20
117.385193
 11
97.014946
 21
136.577454
  0
TEXT
  8
0
 62
     7
 10
86.613792
 20
135.952576
 40
4.463315
 41
1.000000
  1
15
  7
KANJI
 50
0.000000
 51
0.000000
  0
LINE
  8
DASHDOT
 62
     7
 10
79.336960
 20
115.885193
 11
99.692932
 21
115.885193
  0
LINE
  8
DASHDOT
 62
     7
 10
79.336960
 20
33.385193
 11
99.692932
 21
33.385193
  0
LINE
  8
DASHDOT
 62
     7
 10
79.336960
 20
74.635193
 11
99.692932
 21
74.635193
  0
LINE
  8
0
 62
     5
 10
96.514946
 20
31.885193
 11
97.014946
 21
31.885193
  0
LINE
  8
0
 62
     5
 10
96.514946
 20
117.385193
 11
97.014946
 21
117.385193
  0
LINE
  8
0
 62
     5
 10
97.014946
 20
116.885193
 11
97.014946
 21
117.385193
  0
LINE
  8
0
 62
     5
 10
82.014946
 20
116.885193
 11
82.014946
 21
117.385193
  0
LINE
  8
0
 62
     4
 10
82.014946
 20
114.010193
 11
97.014946
 21
114.010193
  0
LINE
  8
0
 62
     4
 10
82.014946
 20
35.260193
 11
97.014946
 21
35.260193
  0
LINE
  8
0
 62
     4
 10
97.014946
 20
84.135193
 11
96.514946
 21
83.635193
  0
LINE
  8
0
 62
     4
 10
97.014946
 20
65.135193
 11
96.514946
 21
65.635193
  0
LINE
  8
0
 62
     4
 10
82.014946
 20
65.135193
 11
82.514946
 21
65.635193
  0
POLYLINE
  8
0
 62
     4
 66
     1
 70
     2
  0
VERTEX
  8
0
 10
82.014946
 20
65.135193
  0
VERTEX
  8
0
 10
82.014946
 20
32.385193
  0
VERTEX
  8
0
 10
82.514946
 20
31.885193
  0
VERTEX
  8
0
 10
96.514946
 20
31.885193
  0
VERTEX
  8
0
 10
97.014946
 20
32.385193
  0
VERTEX
  8
0
 10
97.014946
 20
116.885193
  0
VERTEX
  8
0
 10
96.514946
 20
117.385193
  0
VERTEX
  8
0
 10
82.514946
 20
117.385193
  0
VERTEX
  8
0
 10
82.014946
 20
116.885193
  0
VERTEX
  8
0
 10
82.014946
 20
65.135193
  0
SEQEND
  0
POLYLINE
  8
0
 62
     4
 66
     1
 70
     2
  0
VERTEX
  8
0
 10
82.014946
 20
84.135193
  0
VERTEX
  8
0
 10
82.514946
 20
83.635193
  0
VERTEX
  8
0
 10
82.514946
 20
65.635193
  0
VERTEX
  8
0
 10
96.514946
 20
65.635193
  0
VERTEX
  8
0
 10
96.514946
 20
83.635193
  0
VERTEX
  8
0
 10
82.514946
 20
83.635193
  0
SEQEND
  0
ARC
  8
0
 62
     4
 10
150.648102
 20
74.635193
 40
9.000000
 50
109.47122094265586
 51
70.52877905734415
  0
POLYLINE
  8
0
 62
     4
 66
     1
 70
     2
  0
VERTEX
  8
0
 10
153.648102
 20
83.120476
  0
VERTEX
  8
0
 10
153.648102
 20
86.435196
  0
VERTEX
  8
0
 10
147.648102
 20
86.435196
  0
VERTEX
  8
0
 10
147.648102
 20
83.120476
  0
SEQEND
  0
LINE
  8
0
 62
     4
 10
82.014946
 20
86.435196
 11
97.014946
 21
86.435196
  0
LINE
  8
DASHDOT
 62
     7
 10
150.648102
 20
89.113182
 11
150.648102
 21
62.957203
  0
LINE
  8
DASHDOT
 62
     7
 10
162.326080
 20
74.635193
 11
138.970108
 21
74.635193
  0
LINE
  8
0
 62
     5
 10
159.004089
 20
92.683838
 11
142.292114
 21
92.683838
  0
POLYLINE
  8
0
 62
     5
 66
     1
 70
     2
  0
VERTEX
  8
0
 10
144.523773
 20
91.791168
  0
VERTEX
  8
0
 10
147.648102
 20
92.683838
  0
VERTEX
  8
0
 10
144.523773
 20
93.576500
  0
SEQEND
  0
POLYLINE
  8
0
 62
     5
 66
     1
 70
     2
  0
VERTEX
  8
0
 10
156.772430
 20
93.576500
  0
VERTEX
  8
0
 10
153.648102
 20
92.683838
  0
VERTEX
  8
0
 10
156.772430
 20
91.791168
  0
SEQEND
  0
LINE
  8
0
 62
     5
 10
147.648102
 20
86.435196
 11
147.648102
 21
94.022827
  0
LINE
  8
0
 62
     5
 10
153.648102
 20
86.435196
 11
153.648102
 21
94.022827
  0
TEXT
  8
0
 62
     7
 10
141.434937
 20
93.576500
 40
4.463315
 41
1.000000
  1
6
  7
KANJI
 50
0.000000
 51
0.000000
  0
TEXT
  8
0
 62
     7
 10
145.853073
 20
93.576500
 40
3.570652
 41
1.000000
  1
%%p0.015
  7
KANJI
 50
0.000000
 51
0.000000
  0
LINE
  8
0
 62
     5
 10
184.891296
 20
86.435196
 11
184.891296
 21
65.635193
  0
POLYLINE
  8
0
 62
     5
 66
     1
 70
     2
  0
VERTEX
  8
0
 10
185.783966
 20
83.310875
  0
VERTEX
  8
0
 10
184.891296
 20
86.435196
  0
VERTEX
  8
0
 10
183.998642
 20
83.310875
  0
SEQEND
  0
POLYLINE
  8
0
 62
     5
 66
     1
 70
     2
  0
VERTEX
  8
0
 10
183.998642
 20
68.759514
  0
VERTEX
  8
0
 10
184.891296
 20
65.635193
  0
VERTEX
  8
0
 10
185.783966
 20
68.759514
  0
SEQEND
  0
LINE
  8
0
 62
     5
 10
153.648102
 20
86.435196
 11
186.230301
 21
86.435196
  0
LINE
  8
0
 62
     5
 10
150.648102
 20
65.635193
 11
186.230301
 21
65.635193
  0
TEXT
  8
0
 62
     7
 10
183.552307
 20
61.228683
 40
4.463315
 41
1.000000
  1
20.8
  7
KANJI
 50
90.000000
 51
0.000000
  0
TEXT
  8
0
 62
     7
 10
183.820099
 20
80.547676
 40
2.231658
 41
1.000000
  1
 
  7
KANJI
 50
90.000000
 51
0.000000
  0
TEXT
  8
0
 62
     7
 10
181.052856
 20
80.547676
 40
2.231658
 41
1.000000
  1
+
  7
KANJI
 50
90.000000
 51
0.000000
  0
TEXT
  8
0
 62
     7
 10
183.820099
 20
83.047134
 40
2.231658
 41
1.000000
  1
0
  7
KANJI
 50
90.000000
 51
0.000000
  0
TEXT
  8
0
 62
     7
 10
181.052856
 20
83.047134
 40
2.231658
 41
1.000000
  1
0.1
  7
KANJI
 50
90.000000
 51
0.000000
  0
LINE
  8
0
 62
     5
 10
114.868210
 20
83.635193
 11
114.868210
 21
65.635193
  0
POLYLINE
  8
0
 62
     5
 66
     1
 70
     2
  0
VERTEX
  8
0
 10
113.975540
 20
68.759514
  0
VERTEX
  8
0
 10
114.868210
 20
65.635193
  0
VERTEX
  8
0
 10
115.760864
 20
68.759514
  0
SEQEND
  0
LINE
  8
0
 62
     5
 10
97.014946
 20
65.635193
 11
116.207199
 21
65.635193
  0
TEXT
  8
0
 62
     7
 10
113.975540
 20
66.489639
 40
4.463315
 41
1.000000
  1
%%c18H7
  7
KANJI
 50
90.000000
 51
0.000000
  0
ENDSEC
  0
EOF
