  0
SECTION
  2
HEADER
  9
$ACADVER
  1
AC1003
  9
$INSBASE
 10
0.000000
 20
0.000000
  9
$EXTMIN
 10
0.000000
 20
0.000000
  9
$EXTMAX
 10
85.059783
 20
58.817935
  9
$LIMMIN
 10
0.000000
 20
0.000000
  9
$LIMMAX
 10
85.059783
 20
58.817935
  9
$VIEWCTR
 10
42.529891
 20
29.408967
  9
$VIEWSIZE
 40
58.817935
  0
ENDSEC
  0
SECTION
  2
TABLES
  0
TABLE
  2
LTYPE
 70
     4
  0
LTYPE
  2
CONTINUOUS
 70
    64
  3
SolidLine
 72
    65
 73
     0
 40
0.0
  0
LTYPE
  2
HIDDEN
 70
    64
  3
------------------------
 72
    65
 73
     2
 40
0.904891
 49
0.603261
 49
-0.301630
  0
LTYPE
  2
DASHDOT
 70
    64
  3
--?--?--?--?--?--?--?--
 72
    65
 73
     4
 40
3.619565
 49
2.714674
 49
-0.301630
 49
0.301630
 49
-0.301630
  0
LTYPE
  2
DIVIDE
 70
    64
  3
--??--??--??--??--??--
 72
    65
 73
     6
 40
4.524457
 49
3.016304
 49
-0.301630
 49
0.301630
 49
-0.301630
 49
0.301630
 49
-0.301630
  0
ENDTAB
  0
TABLE
  2
LAYER
 70
     5
  0
LAYER
  2
0
 70
    64
 62
     7
  6
CONTINUOUS
  0
LAYER
  2
HIDDEN
 70
    64
 62
     2
  6
HIDDEN
  0
LAYER
  2
DASHDOT
 70
    64
 62
     6
  6
DASHDOT
  0
LAYER
  2
DIVIDE
 70
    64
 62
     5
  6
DIVIDE
  0
ENDTAB
  0
TABLE
  2
STYLE
 70
     1
  0
STYLE
  2
STANDARD
 70
    64
 40
0.0
 41
1.0
 50
0.0
 71
     0
 42
0.2
  3
TXT
  4

  0
STYLE
  2
KANJI
 70
    64
 40
0.0
 41
1.0
 50
0.0
 71
     0
 42
0.2
  3
TXT
  4
BIGFONT
  0
ENDTAB
  0
TABLE
  2
VIEW
 70
     0
  0
ENDTAB
  0
ENDSEC
  0
SECTION
  2
BLOCKS
  0
ENDSEC
  0
SECTION
  2
ENTITIES
  0
TEXT
  8
0
 62
     7
 10
3.016304
 20
3.317935
 40
1.206522
 41
1.000000
  1
KHK SSA1-28J8
  7
KANJI
 50
0.000000
 51
0.000000
  0
TEXT
  8
0
 62
     7
 10
3.016304
 20
1.508152
 40
1.206522
 41
1.000000
  1
The precision grade of gears after secondary operations is equivalent but not identical to its original grade.
  7
KANJI
 50
0.000000
 51
0.000000
  0
TEXT
  8
0
 62
     7
 10
3.016304
 20
54.293480
 40
1.357337
 41
1.000000
  1
For J Series products, without black oxide repeatedly applied on secondary-operated parts.
  7
KANJI
 50
0.000000
 51
0.000000
  0
POLYLINE
  8
0
 62
     7
 66
     1
 70
     2
  0
VERTEX
  8
0
 10
72.391304
 20
54.293480
  0
VERTEX
  8
0
 10
71.214943
 20
56.332500
  0
VERTEX
  8
0
 10
75.920380
 20
56.332500
  0
VERTEX
  8
0
 10
74.744019
 20
54.293480
  0
VERTEX
  8
0
 10
73.567665
 20
56.332500
  0
VERTEX
  8
0
 10
72.391304
 20
54.293480
  0
SEQEND
  0
LINE
  8
0
 62
     5
 10
45.383152
 20
39.664402
 11
45.383152
 21
9.664402
  0
POLYLINE
  8
0
 62
     5
 66
     1
 70
     2
  0
VERTEX
  8
0
 10
45.684784
 20
38.608696
  0
VERTEX
  8
0
 10
45.383152
 20
39.664402
  0
VERTEX
  8
0
 10
45.081520
 20
38.608696
  0
SEQEND
  0
POLYLINE
  8
0
 62
     5
 66
     1
 70
     2
  0
VERTEX
  8
0
 10
45.081520
 20
10.720108
  0
VERTEX
  8
0
 10
45.383152
 20
9.664402
  0
VERTEX
  8
0
 10
45.684784
 20
10.720108
  0
SEQEND
  0
LINE
  8
0
 62
     5
 10
34.524456
 20
39.664402
 11
45.835598
 21
39.664402
  0
LINE
  8
0
 62
     5
 10
34.524456
 20
9.664402
 11
45.835598
 21
9.664402
  0
TEXT
  8
0
 62
     7
 10
45.081520
 20
22.892323
 40
1.508152
 41
1.000000
  1
%%c30
  7
KANJI
 50
90.000000
 51
0.000000
  0
LINE
  8
0
 62
     5
 10
24.524456
 20
45.697010
 11
34.524456
 21
45.697010
  0
POLYLINE
  8
0
 62
     5
 66
     1
 70
     2
  0
VERTEX
  8
0
 10
25.580162
 20
45.998642
  0
VERTEX
  8
0
 10
24.524456
 20
45.697010
  0
VERTEX
  8
0
 10
25.580162
 20
45.395378
  0
SEQEND
  0
POLYLINE
  8
0
 62
     5
 66
     1
 70
     2
  0
VERTEX
  8
0
 10
33.468750
 20
45.395378
  0
VERTEX
  8
0
 10
34.524456
 20
45.697010
  0
VERTEX
  8
0
 10
33.468750
 20
45.998642
  0
SEQEND
  0
LINE
  8
0
 62
     5
 10
24.524456
 20
39.664402
 11
24.524456
 21
46.149456
  0
LINE
  8
0
 62
     5
 10
34.524456
 20
39.664402
 11
34.524456
 21
46.149456
  0
TEXT
  8
0
 62
     7
 10
28.544157
 20
45.938316
 40
1.508152
 41
1.000000
  1
10
  7
KANJI
 50
0.000000
 51
0.000000
  0
LINE
  8
DASHDOT
 62
     7
 10
23.619564
 20
38.664402
 11
35.429348
 21
38.664402
  0
LINE
  8
DASHDOT
 62
     7
 10
23.619564
 20
10.664402
 11
35.429348
 21
10.664402
  0
LINE
  8
DASHDOT
 62
     7
 10
23.619564
 20
24.664402
 11
35.429348
 21
24.664402
  0
LINE
  8
0
 62
     5
 10
34.024456
 20
9.664402
 11
34.524456
 21
9.664402
  0
LINE
  8
0
 62
     5
 10
34.024456
 20
39.664402
 11
34.524456
 21
39.664402
  0
LINE
  8
0
 62
     5
 10
34.524456
 20
39.164402
 11
34.524456
 21
39.664402
  0
LINE
  8
0
 62
     5
 10
24.524456
 20
39.164402
 11
24.524456
 21
39.664402
  0
LINE
  8
0
 62
     4
 10
24.524456
 20
37.414402
 11
34.524456
 21
37.414402
  0
LINE
  8
0
 62
     4
 10
24.524456
 20
11.914402
 11
34.524456
 21
11.914402
  0
LINE
  8
0
 62
     4
 10
34.524456
 20
29.164402
 11
34.024456
 21
28.664402
  0
LINE
  8
0
 62
     4
 10
34.524456
 20
20.164402
 11
34.024456
 21
20.664402
  0
LINE
  8
0
 62
     4
 10
24.524456
 20
20.164402
 11
25.024456
 21
20.664402
  0
POLYLINE
  8
0
 62
     4
 66
     1
 70
     2
  0
VERTEX
  8
0
 10
24.524456
 20
20.164402
  0
VERTEX
  8
0
 10
24.524456
 20
10.164402
  0
VERTEX
  8
0
 10
25.024456
 20
9.664402
  0
VERTEX
  8
0
 10
34.024456
 20
9.664402
  0
VERTEX
  8
0
 10
34.524456
 20
10.164402
  0
VERTEX
  8
0
 10
34.524456
 20
39.164402
  0
VERTEX
  8
0
 10
34.024456
 20
39.664402
  0
VERTEX
  8
0
 10
25.024456
 20
39.664402
  0
VERTEX
  8
0
 10
24.524456
 20
39.164402
  0
VERTEX
  8
0
 10
24.524456
 20
20.164402
  0
SEQEND
  0
POLYLINE
  8
0
 62
     4
 66
     1
 70
     2
  0
VERTEX
  8
0
 10
24.524456
 20
29.164402
  0
VERTEX
  8
0
 10
25.024456
 20
28.664402
  0
VERTEX
  8
0
 10
25.024456
 20
20.664402
  0
VERTEX
  8
0
 10
34.024456
 20
20.664402
  0
VERTEX
  8
0
 10
34.024456
 20
28.664402
  0
VERTEX
  8
0
 10
25.024456
 20
28.664402
  0
SEQEND
  0
ARC
  8
0
 62
     4
 10
53.605980
 20
24.664402
 40
4.000000
 50
112.02431282373564
 51
67.97568717626436
  0
POLYLINE
  8
0
 62
     4
 66
     1
 70
     2
  0
VERTEX
  8
0
 10
55.105980
 20
28.372501
  0
VERTEX
  8
0
 10
55.105980
 20
30.064402
  0
VERTEX
  8
0
 10
52.105980
 20
30.064402
  0
VERTEX
  8
0
 10
52.105980
 20
28.372501
  0
SEQEND
  0
LINE
  8
0
 62
     4
 10
24.524456
 20
30.064402
 11
34.524456
 21
30.064402
  0
LINE
  8
DASHDOT
 62
     7
 10
53.605980
 20
30.969294
 11
53.605980
 21
19.759510
  0
LINE
  8
DASHDOT
 62
     7
 10
58.510868
 20
24.664402
 11
48.701088
 21
24.664402
  0
LINE
  8
0
 62
     5
 10
56.915760
 20
32.175816
 11
50.296196
 21
32.175816
  0
POLYLINE
  8
0
 62
     5
 66
     1
 70
     2
  0
VERTEX
  8
0
 10
51.050270
 20
31.874184
  0
VERTEX
  8
0
 10
52.105980
 20
32.175816
  0
VERTEX
  8
0
 10
51.050270
 20
32.477448
  0
SEQEND
  0
POLYLINE
  8
0
 62
     5
 66
     1
 70
     2
  0
VERTEX
  8
0
 10
56.161682
 20
32.477448
  0
VERTEX
  8
0
 10
55.105980
 20
32.175816
  0
VERTEX
  8
0
 10
56.161682
 20
31.874184
  0
SEQEND
  0
LINE
  8
0
 62
     5
 10
52.105980
 20
30.064402
 11
52.105980
 21
32.628262
  0
LINE
  8
0
 62
     5
 10
55.105980
 20
30.064402
 11
55.105980
 21
32.628262
  0
TEXT
  8
0
 62
     7
 10
50.115814
 20
32.477448
 40
1.508152
 41
1.000000
  1
3
  7
KANJI
 50
0.000000
 51
0.000000
  0
TEXT
  8
0
 62
     7
 10
51.608700
 20
32.477448
 40
1.206522
 41
1.000000
  1
%%p0.0125
  7
KANJI
 50
0.000000
 51
0.000000
  0
LINE
  8
0
 62
     5
 10
65.663040
 20
30.064402
 11
65.663040
 21
20.664402
  0
POLYLINE
  8
0
 62
     5
 66
     1
 70
     2
  0
VERTEX
  8
0
 10
65.964676
 20
29.008696
  0
VERTEX
  8
0
 10
65.663040
 20
30.064402
  0
VERTEX
  8
0
 10
65.361412
 20
29.008696
  0
SEQEND
  0
POLYLINE
  8
0
 62
     5
 66
     1
 70
     2
  0
VERTEX
  8
0
 10
65.361412
 20
21.720108
  0
VERTEX
  8
0
 10
65.663040
 20
20.664402
  0
VERTEX
  8
0
 10
65.964676
 20
21.720108
  0
SEQEND
  0
LINE
  8
0
 62
     5
 10
55.105980
 20
30.064402
 11
66.115494
 21
30.064402
  0
LINE
  8
0
 62
     5
 10
53.605980
 20
20.664402
 11
66.115494
 21
20.664402
  0
TEXT
  8
0
 62
     7
 10
65.210602
 20
20.727381
 40
1.508152
 41
1.000000
  1
9.4
  7
KANJI
 50
90.000000
 51
0.000000
  0
TEXT
  8
0
 62
     7
 10
65.301086
 20
25.747108
 40
0.754076
 41
1.000000
  1
 
  7
KANJI
 50
90.000000
 51
0.000000
  0
TEXT
  8
0
 62
     7
 10
64.366028
 20
25.747108
 40
0.754076
 41
1.000000
  1
+
  7
KANJI
 50
90.000000
 51
0.000000
  0
TEXT
  8
0
 62
     7
 10
65.301086
 20
26.591673
 40
0.754076
 41
1.000000
  1
0
  7
KANJI
 50
90.000000
 51
0.000000
  0
TEXT
  8
0
 62
     7
 10
64.366028
 20
26.591673
 40
0.754076
 41
1.000000
  1
0.1
  7
KANJI
 50
90.000000
 51
0.000000
  0
LINE
  8
0
 62
     5
 10
40.557064
 20
28.664402
 11
40.557064
 21
20.664402
  0
POLYLINE
  8
0
 62
     5
 66
     1
 70
     2
  0
VERTEX
  8
0
 10
40.255432
 20
21.720108
  0
VERTEX
  8
0
 10
40.557064
 20
20.664402
  0
VERTEX
  8
0
 10
40.858696
 20
21.720108
  0
SEQEND
  0
LINE
  8
0
 62
     5
 10
34.524456
 20
20.664402
 11
41.009510
 21
20.664402
  0
TEXT
  8
0
 62
     7
 10
40.255432
 20
22.402174
 40
1.508152
 41
1.000000
  1
%%c8H7
  7
KANJI
 50
90.000000
 51
0.000000
  0
ENDSEC
  0
EOF
