  0
SECTION
  2
HEADER
  9
$ACADVER
  1
AC1003
  9
$INSBASE
 10
0.000000
 20
0.000000
  9
$EXTMIN
 10
0.000000
 20
0.000000
  9
$EXTMAX
 10
367.059783
 20
253.817935
  9
$LIMMIN
 10
0.000000
 20
0.000000
  9
$LIMMAX
 10
367.059783
 20
253.817935
  9
$VIEWCTR
 10
183.529891
 20
126.908967
  9
$VIEWSIZE
 40
253.817935
  0
ENDSEC
  0
SECTION
  2
TABLES
  0
TABLE
  2
LTYPE
 70
     4
  0
LTYPE
  2
CONTINUOUS
 70
    64
  3
SolidLine
 72
    65
 73
     0
 40
0.0
  0
LTYPE
  2
HIDDEN
 70
    64
  3
------------------------
 72
    65
 73
     2
 40
3.904891
 49
2.603261
 49
-1.301630
  0
LTYPE
  2
DASHDOT
 70
    64
  3
--?--?--?--?--?--?--?--
 72
    65
 73
     4
 40
15.619565
 49
11.714674
 49
-1.301630
 49
1.301630
 49
-1.301630
  0
LTYPE
  2
DIVIDE
 70
    64
  3
--??--??--??--??--??--
 72
    65
 73
     6
 40
19.524457
 49
13.016304
 49
-1.301630
 49
1.301630
 49
-1.301630
 49
1.301630
 49
-1.301630
  0
ENDTAB
  0
TABLE
  2
LAYER
 70
     5
  0
LAYER
  2
0
 70
    64
 62
     7
  6
CONTINUOUS
  0
LAYER
  2
HIDDEN
 70
    64
 62
     2
  6
HIDDEN
  0
LAYER
  2
DASHDOT
 70
    64
 62
     6
  6
DASHDOT
  0
LAYER
  2
DIVIDE
 70
    64
 62
     5
  6
DIVIDE
  0
ENDTAB
  0
TABLE
  2
STYLE
 70
     1
  0
STYLE
  2
STANDARD
 70
    64
 40
0.0
 41
1.0
 50
0.0
 71
     0
 42
0.2
  3
TXT
  4

  0
STYLE
  2
KANJI
 70
    64
 40
0.0
 41
1.0
 50
0.0
 71
     0
 42
0.2
  3
TXT
  4
BIGFONT
  0
ENDTAB
  0
TABLE
  2
VIEW
 70
     0
  0
ENDTAB
  0
ENDSEC
  0
SECTION
  2
BLOCKS
  0
ENDSEC
  0
SECTION
  2
ENTITIES
  0
TEXT
  8
0
 62
     7
 10
13.016304
 20
14.317935
 40
5.206522
 41
1.000000
  1
KHK SSA1-120J30
  7
KANJI
 50
0.000000
 51
0.000000
  0
TEXT
  8
0
 62
     7
 10
13.016304
 20
6.508152
 40
5.206522
 41
1.000000
  1
The precision grade of gears after secondary operations is equivalent but not identical to its original grade.
  7
KANJI
 50
0.000000
 51
0.000000
  0
TEXT
  8
0
 62
     7
 10
13.016304
 20
234.293472
 40
5.857337
 41
1.000000
  1
For J Series products, without black oxide repeatedly applied on secondary-operated parts.
  7
KANJI
 50
0.000000
 51
0.000000
  0
POLYLINE
  8
0
 62
     7
 66
     1
 70
     2
  0
VERTEX
  8
0
 10
312.391296
 20
234.293472
  0
VERTEX
  8
0
 10
307.314941
 20
243.092499
  0
VERTEX
  8
0
 10
327.620361
 20
243.092499
  0
VERTEX
  8
0
 10
322.544006
 20
234.293472
  0
VERTEX
  8
0
 10
317.467651
 20
243.092499
  0
VERTEX
  8
0
 10
312.391296
 20
234.293472
  0
SEQEND
  0
LINE
  8
0
 62
     5
 10
181.633148
 20
171.164398
 11
181.633148
 21
49.164398
  0
POLYLINE
  8
0
 62
     5
 66
     1
 70
     2
  0
VERTEX
  8
0
 10
182.934784
 20
166.608688
  0
VERTEX
  8
0
 10
181.633148
 20
171.164398
  0
VERTEX
  8
0
 10
180.331528
 20
166.608688
  0
SEQEND
  0
POLYLINE
  8
0
 62
     5
 66
     1
 70
     2
  0
VERTEX
  8
0
 10
180.331528
 20
53.720104
  0
VERTEX
  8
0
 10
181.633148
 20
49.164398
  0
VERTEX
  8
0
 10
182.934784
 20
53.720104
  0
SEQEND
  0
LINE
  8
0
 62
     5
 10
134.774460
 20
171.164398
 11
183.585602
 21
171.164398
  0
LINE
  8
0
 62
     5
 10
134.774460
 20
49.164398
 11
183.585602
 21
49.164398
  0
TEXT
  8
0
 62
     7
 10
180.331528
 20
100.402168
 40
6.508152
 41
1.000000
  1
%%c122
  7
KANJI
 50
90.000000
 51
0.000000
  0
LINE
  8
0
 62
     5
 10
142.584244
 20
197.197006
 11
116.964676
 21
197.197006
  0
POLYLINE
  8
0
 62
     5
 66
     1
 70
     2
  0
VERTEX
  8
0
 10
120.218750
 20
195.895386
  0
VERTEX
  8
0
 10
124.774460
 20
197.197006
  0
VERTEX
  8
0
 10
120.218750
 20
198.498627
  0
SEQEND
  0
POLYLINE
  8
0
 62
     5
 66
     1
 70
     2
  0
VERTEX
  8
0
 10
139.330170
 20
198.498627
  0
VERTEX
  8
0
 10
134.774460
 20
197.197006
  0
VERTEX
  8
0
 10
139.330170
 20
195.895386
  0
SEQEND
  0
LINE
  8
0
 62
     5
 10
124.774460
 20
171.164398
 11
124.774460
 21
199.149445
  0
LINE
  8
0
 62
     5
 10
134.774460
 20
171.164398
 11
134.774460
 21
199.149445
  0
TEXT
  8
0
 62
     7
 10
125.544159
 20
198.238312
 40
6.508152
 41
1.000000
  1
10
  7
KANJI
 50
0.000000
 51
0.000000
  0
LINE
  8
DASHDOT
 62
     7
 10
120.869568
 20
170.164398
 11
138.679352
 21
170.164398
  0
LINE
  8
DASHDOT
 62
     7
 10
120.869568
 20
50.164398
 11
138.679352
 21
50.164398
  0
LINE
  8
DASHDOT
 62
     7
 10
120.869568
 20
110.164398
 11
138.679352
 21
110.164398
  0
LINE
  8
0
 62
     5
 10
134.274460
 20
49.164398
 11
134.774460
 21
49.164398
  0
LINE
  8
0
 62
     5
 10
134.274460
 20
171.164398
 11
134.774460
 21
171.164398
  0
LINE
  8
0
 62
     5
 10
134.774460
 20
170.664398
 11
134.774460
 21
171.164398
  0
LINE
  8
0
 62
     5
 10
124.774460
 20
170.664398
 11
124.774460
 21
171.164398
  0
LINE
  8
0
 62
     4
 10
124.774460
 20
168.914398
 11
134.774460
 21
168.914398
  0
LINE
  8
0
 62
     4
 10
124.774460
 20
51.414398
 11
134.774460
 21
51.414398
  0
LINE
  8
0
 62
     4
 10
134.774460
 20
126.164398
 11
133.774460
 21
125.164398
  0
LINE
  8
0
 62
     4
 10
134.774460
 20
94.164398
 11
133.774460
 21
95.164398
  0
LINE
  8
0
 62
     4
 10
124.774460
 20
94.164398
 11
125.774460
 21
95.164398
  0
POLYLINE
  8
0
 62
     4
 66
     1
 70
     2
  0
VERTEX
  8
0
 10
124.774460
 20
94.164398
  0
VERTEX
  8
0
 10
124.774460
 20
49.664398
  0
VERTEX
  8
0
 10
125.274460
 20
49.164398
  0
VERTEX
  8
0
 10
134.274460
 20
49.164398
  0
VERTEX
  8
0
 10
134.774460
 20
49.664398
  0
VERTEX
  8
0
 10
134.774460
 20
170.664398
  0
VERTEX
  8
0
 10
134.274460
 20
171.164398
  0
VERTEX
  8
0
 10
125.274460
 20
171.164398
  0
VERTEX
  8
0
 10
124.774460
 20
170.664398
  0
VERTEX
  8
0
 10
124.774460
 20
94.164398
  0
SEQEND
  0
POLYLINE
  8
0
 62
     4
 66
     1
 70
     2
  0
VERTEX
  8
0
 10
124.774460
 20
126.164398
  0
VERTEX
  8
0
 10
125.774460
 20
125.164398
  0
VERTEX
  8
0
 10
125.774460
 20
95.164398
  0
VERTEX
  8
0
 10
133.774460
 20
95.164398
  0
VERTEX
  8
0
 10
133.774460
 20
125.164398
  0
VERTEX
  8
0
 10
125.774460
 20
125.164398
  0
SEQEND
  0
ARC
  8
0
 62
     4
 10
214.855988
 20
110.164398
 40
15.000000
 50
105.46601032289746
 51
74.53398967710255
  0
POLYLINE
  8
0
 62
     4
 66
     1
 70
     2
  0
VERTEX
  8
0
 10
218.855988
 20
124.621231
  0
VERTEX
  8
0
 10
218.855988
 20
128.464401
  0
VERTEX
  8
0
 10
210.855988
 20
128.464401
  0
VERTEX
  8
0
 10
210.855988
 20
124.621231
  0
SEQEND
  0
LINE
  8
0
 62
     4
 10
124.774460
 20
128.464401
 11
134.774460
 21
128.464401
  0
LINE
  8
DASHDOT
 62
     7
 10
214.855988
 20
132.369293
 11
214.855988
 21
91.259506
  0
LINE
  8
DASHDOT
 62
     7
 10
233.760864
 20
110.164398
 11
195.951080
 21
110.164398
  0
LINE
  8
0
 62
     5
 10
226.665771
 20
137.575806
 11
203.046204
 21
137.575806
  0
POLYLINE
  8
0
 62
     5
 66
     1
 70
     2
  0
VERTEX
  8
0
 10
206.300262
 20
136.274185
  0
VERTEX
  8
0
 10
210.855988
 20
137.575806
  0
VERTEX
  8
0
 10
206.300262
 20
138.877441
  0
SEQEND
  0
POLYLINE
  8
0
 62
     5
 66
     1
 70
     2
  0
VERTEX
  8
0
 10
223.411682
 20
138.877441
  0
VERTEX
  8
0
 10
218.855988
 20
137.575806
  0
VERTEX
  8
0
 10
223.411682
 20
136.274185
  0
SEQEND
  0
LINE
  8
0
 62
     5
 10
210.855988
 20
128.464401
 11
210.855988
 21
139.528259
  0
LINE
  8
0
 62
     5
 10
218.855988
 20
128.464401
 11
218.855988
 21
139.528259
  0
TEXT
  8
0
 62
     7
 10
201.421875
 20
138.877441
 40
6.508152
 41
1.000000
  1
8
  7
KANJI
 50
0.000000
 51
0.000000
  0
TEXT
  8
0
 62
     7
 10
207.864136
 20
138.877441
 40
5.206522
 41
1.000000
  1
%%p0.018
  7
KANJI
 50
0.000000
 51
0.000000
  0
LINE
  8
0
 62
     5
 10
264.413025
 20
128.464401
 11
264.413025
 21
95.164398
  0
POLYLINE
  8
0
 62
     5
 66
     1
 70
     2
  0
VERTEX
  8
0
 10
265.714661
 20
123.908691
  0
VERTEX
  8
0
 10
264.413025
 20
128.464401
  0
VERTEX
  8
0
 10
263.111389
 20
123.908691
  0
SEQEND
  0
POLYLINE
  8
0
 62
     5
 66
     1
 70
     2
  0
VERTEX
  8
0
 10
263.111389
 20
99.720108
  0
VERTEX
  8
0
 10
264.413025
 20
95.164398
  0
VERTEX
  8
0
 10
265.714661
 20
99.720108
  0
SEQEND
  0
LINE
  8
0
 62
     5
 10
218.855988
 20
128.464401
 11
266.365479
 21
128.464401
  0
LINE
  8
0
 62
     5
 10
214.855988
 20
95.164398
 11
266.365479
 21
95.164398
  0
TEXT
  8
0
 62
     7
 10
262.460602
 20
89.927322
 40
6.508152
 41
1.000000
  1
33.3
  7
KANJI
 50
90.000000
 51
0.000000
  0
TEXT
  8
0
 62
     7
 10
262.851074
 20
118.097183
 40
3.254076
 41
1.000000
  1
 
  7
KANJI
 50
90.000000
 51
0.000000
  0
TEXT
  8
0
 62
     7
 10
258.816040
 20
118.097183
 40
3.254076
 41
1.000000
  1
+
  7
KANJI
 50
90.000000
 51
0.000000
  0
TEXT
  8
0
 62
     7
 10
262.851074
 20
121.741745
 40
3.254076
 41
1.000000
  1
0
  7
KANJI
 50
90.000000
 51
0.000000
  0
TEXT
  8
0
 62
     7
 10
258.816040
 20
121.741745
 40
3.254076
 41
1.000000
  1
0.2
  7
KANJI
 50
90.000000
 51
0.000000
  0
LINE
  8
0
 62
     5
 10
160.807068
 20
125.164398
 11
160.807068
 21
95.164398
  0
POLYLINE
  8
0
 62
     5
 66
     1
 70
     2
  0
VERTEX
  8
0
 10
159.505432
 20
99.720108
  0
VERTEX
  8
0
 10
160.807068
 20
95.164398
  0
VERTEX
  8
0
 10
162.108704
 20
99.720108
  0
SEQEND
  0
LINE
  8
0
 62
     5
 10
134.774460
 20
95.164398
 11
162.759521
 21
95.164398
  0
TEXT
  8
0
 62
     7
 10
159.505432
 20
98.287018
 40
6.508152
 41
1.000000
  1
%%c30H7
  7
KANJI
 50
90.000000
 51
0.000000
  0
ENDSEC
  0
EOF
