  0
SECTION
  2
HEADER
  9
$ACADVER
  1
AC1003
  9
$INSBASE
 10
0.000000
 20
0.000000
  9
$EXTMIN
 10
0.000000
 20
0.000000
  9
$EXTMAX
 10
228.741848
 20
158.172554
  9
$LIMMIN
 10
0.000000
 20
0.000000
  9
$LIMMAX
 10
228.741848
 20
158.172554
  9
$VIEWCTR
 10
114.370924
 20
79.086277
  9
$VIEWSIZE
 40
158.172554
  0
ENDSEC
  0
SECTION
  2
TABLES
  0
TABLE
  2
LTYPE
 70
     4
  0
LTYPE
  2
CONTINUOUS
 70
    64
  3
SolidLine
 72
    65
 73
     0
 40
0.0
  0
LTYPE
  2
HIDDEN
 70
    64
  3
------------------------
 72
    65
 73
     2
 40
2.433424
 49
1.622283
 49
-0.811141
  0
LTYPE
  2
DASHDOT
 70
    64
  3
--?--?--?--?--?--?--?--
 72
    65
 73
     4
 40
9.733696
 49
7.300272
 49
-0.811141
 49
0.811141
 49
-0.811141
  0
LTYPE
  2
DIVIDE
 70
    64
  3
--??--??--??--??--??--
 72
    65
 73
     6
 40
12.167120
 49
8.111413
 49
-0.811141
 49
0.811141
 49
-0.811141
 49
0.811141
 49
-0.811141
  0
ENDTAB
  0
TABLE
  2
LAYER
 70
     5
  0
LAYER
  2
0
 70
    64
 62
     7
  6
CONTINUOUS
  0
LAYER
  2
HIDDEN
 70
    64
 62
     2
  6
HIDDEN
  0
LAYER
  2
DASHDOT
 70
    64
 62
     6
  6
DASHDOT
  0
LAYER
  2
DIVIDE
 70
    64
 62
     5
  6
DIVIDE
  0
ENDTAB
  0
TABLE
  2
STYLE
 70
     1
  0
STYLE
  2
STANDARD
 70
    64
 40
0.0
 41
1.0
 50
0.0
 71
     0
 42
0.2
  3
TXT
  4

  0
STYLE
  2
KANJI
 70
    64
 40
0.0
 41
1.0
 50
0.0
 71
     0
 42
0.2
  3
TXT
  4
BIGFONT
  0
ENDTAB
  0
TABLE
  2
VIEW
 70
     0
  0
ENDTAB
  0
ENDSEC
  0
SECTION
  2
BLOCKS
  0
ENDSEC
  0
SECTION
  2
ENTITIES
  0
TEXT
  8
0
 62
     7
 10
8.111413
 20
8.922554
 40
3.244565
 41
1.000000
  1
KHK SSA1.5-50J16
  7
KANJI
 50
0.000000
 51
0.000000
  0
TEXT
  8
0
 62
     7
 10
8.111413
 20
4.055707
 40
3.244565
 41
1.000000
  1
The precision grade of gears after secondary operations is equivalent but not identical to its original grade.
  7
KANJI
 50
0.000000
 51
0.000000
  0
TEXT
  8
0
 62
     7
 10
8.111413
 20
146.005432
 40
3.650136
 41
1.000000
  1
For J Series products, without black oxide repeatedly applied on secondary-operated parts.
  7
KANJI
 50
0.000000
 51
0.000000
  0
POLYLINE
  8
0
 62
     7
 66
     1
 70
     2
  0
VERTEX
  8
0
 10
194.673920
 20
146.005432
  0
VERTEX
  8
0
 10
191.510468
 20
151.488754
  0
VERTEX
  8
0
 10
204.164276
 20
151.488754
  0
VERTEX
  8
0
 10
201.000824
 20
146.005432
  0
VERTEX
  8
0
 10
197.837372
 20
151.488754
  0
VERTEX
  8
0
 10
194.673920
 20
146.005432
  0
SEQEND
  0
LINE
  8
0
 62
     5
 10
118.243210
 20
106.665085
 11
118.243210
 21
28.665085
  0
POLYLINE
  8
0
 62
     5
 66
     1
 70
     2
  0
VERTEX
  8
0
 10
119.054352
 20
103.826096
  0
VERTEX
  8
0
 10
118.243210
 20
106.665085
  0
VERTEX
  8
0
 10
117.432068
 20
103.826096
  0
SEQEND
  0
POLYLINE
  8
0
 62
     5
 66
     1
 70
     2
  0
VERTEX
  8
0
 10
117.432068
 20
31.504078
  0
VERTEX
  8
0
 10
118.243210
 20
28.665085
  0
VERTEX
  8
0
 10
119.054352
 20
31.504078
  0
SEQEND
  0
LINE
  8
0
 62
     5
 10
89.042122
 20
106.665085
 11
119.459923
 21
106.665085
  0
LINE
  8
0
 62
     5
 10
89.042122
 20
28.665085
 11
119.459923
 21
28.665085
  0
TEXT
  8
0
 62
     7
 10
117.432068
 20
62.899632
 40
4.055707
 41
1.000000
  1
%%c78
  7
KANJI
 50
90.000000
 51
0.000000
  0
LINE
  8
0
 62
     5
 10
74.042122
 20
122.887909
 11
89.042122
 21
122.887909
  0
POLYLINE
  8
0
 62
     5
 66
     1
 70
     2
  0
VERTEX
  8
0
 10
76.881119
 20
123.699051
  0
VERTEX
  8
0
 10
74.042122
 20
122.887909
  0
VERTEX
  8
0
 10
76.881119
 20
122.076767
  0
SEQEND
  0
POLYLINE
  8
0
 62
     5
 66
     1
 70
     2
  0
VERTEX
  8
0
 10
86.203125
 20
122.076767
  0
VERTEX
  8
0
 10
89.042122
 20
122.887909
  0
VERTEX
  8
0
 10
86.203125
 20
123.699051
  0
SEQEND
  0
LINE
  8
0
 62
     5
 10
74.042122
 20
106.665085
 11
74.042122
 21
124.104622
  0
LINE
  8
0
 62
     5
 10
89.042122
 20
106.665085
 11
89.042122
 21
124.104622
  0
TEXT
  8
0
 62
     7
 10
78.905914
 20
123.536819
 40
4.055707
 41
1.000000
  1
15
  7
KANJI
 50
0.000000
 51
0.000000
  0
LINE
  8
DASHDOT
 62
     7
 10
71.608696
 20
105.165085
 11
91.475548
 21
105.165085
  0
LINE
  8
DASHDOT
 62
     7
 10
71.608696
 20
30.165085
 11
91.475548
 21
30.165085
  0
LINE
  8
DASHDOT
 62
     7
 10
71.608696
 20
67.665085
 11
91.475548
 21
67.665085
  0
LINE
  8
0
 62
     5
 10
88.542122
 20
28.665085
 11
89.042122
 21
28.665085
  0
LINE
  8
0
 62
     5
 10
88.542122
 20
106.665085
 11
89.042122
 21
106.665085
  0
LINE
  8
0
 62
     5
 10
89.042122
 20
106.165085
 11
89.042122
 21
106.665085
  0
LINE
  8
0
 62
     5
 10
74.042122
 20
106.165085
 11
74.042122
 21
106.665085
  0
LINE
  8
0
 62
     4
 10
74.042122
 20
103.290085
 11
89.042122
 21
103.290085
  0
LINE
  8
0
 62
     4
 10
74.042122
 20
32.040085
 11
89.042122
 21
32.040085
  0
LINE
  8
0
 62
     4
 10
89.042122
 20
76.165085
 11
88.542122
 21
75.665085
  0
LINE
  8
0
 62
     4
 10
89.042122
 20
59.165085
 11
88.542122
 21
59.665085
  0
LINE
  8
0
 62
     4
 10
74.042122
 20
59.165085
 11
74.542122
 21
59.665085
  0
POLYLINE
  8
0
 62
     4
 66
     1
 70
     2
  0
VERTEX
  8
0
 10
74.042122
 20
59.165085
  0
VERTEX
  8
0
 10
74.042122
 20
29.165085
  0
VERTEX
  8
0
 10
74.542122
 20
28.665085
  0
VERTEX
  8
0
 10
88.542122
 20
28.665085
  0
VERTEX
  8
0
 10
89.042122
 20
29.165085
  0
VERTEX
  8
0
 10
89.042122
 20
106.165085
  0
VERTEX
  8
0
 10
88.542122
 20
106.665085
  0
VERTEX
  8
0
 10
74.542122
 20
106.665085
  0
VERTEX
  8
0
 10
74.042122
 20
106.165085
  0
VERTEX
  8
0
 10
74.042122
 20
59.165085
  0
SEQEND
  0
POLYLINE
  8
0
 62
     4
 66
     1
 70
     2
  0
VERTEX
  8
0
 10
74.042122
 20
76.165085
  0
VERTEX
  8
0
 10
74.542122
 20
75.665085
  0
VERTEX
  8
0
 10
74.542122
 20
59.665085
  0
VERTEX
  8
0
 10
88.542122
 20
59.665085
  0
VERTEX
  8
0
 10
88.542122
 20
75.665085
  0
VERTEX
  8
0
 10
74.542122
 20
75.665085
  0
SEQEND
  0
ARC
  8
0
 62
     4
 10
137.599182
 20
67.665085
 40
8.000000
 50
108.20995732853793
 51
71.79001732502161
  0
POLYLINE
  8
0
 62
     4
 66
     1
 70
     2
  0
VERTEX
  8
0
 10
140.099182
 20
75.264427
  0
VERTEX
  8
0
 10
140.099182
 20
77.965088
  0
VERTEX
  8
0
 10
135.099182
 20
77.965088
  0
VERTEX
  8
0
 10
135.099182
 20
75.264427
  0
SEQEND
  0
LINE
  8
0
 62
     4
 10
74.042122
 20
77.965088
 11
89.042122
 21
77.965088
  0
LINE
  8
DASHDOT
 62
     7
 10
137.599182
 20
80.398506
 11
137.599182
 21
57.231659
  0
LINE
  8
DASHDOT
 62
     7
 10
148.032608
 20
67.665085
 11
127.165764
 21
67.665085
  0
LINE
  8
0
 62
     5
 10
144.966034
 20
83.643074
 11
130.232330
 21
83.643074
  0
POLYLINE
  8
0
 62
     5
 66
     1
 70
     2
  0
VERTEX
  8
0
 10
132.260193
 20
82.831932
  0
VERTEX
  8
0
 10
135.099182
 20
83.643074
  0
VERTEX
  8
0
 10
132.260193
 20
84.454216
  0
SEQEND
  0
POLYLINE
  8
0
 62
     5
 66
     1
 70
     2
  0
VERTEX
  8
0
 10
142.938187
 20
84.454216
  0
VERTEX
  8
0
 10
140.099182
 20
83.643074
  0
VERTEX
  8
0
 10
142.938187
 20
82.831932
  0
SEQEND
  0
LINE
  8
0
 62
     5
 10
135.099182
 20
77.965088
 11
135.099182
 21
84.859787
  0
LINE
  8
0
 62
     5
 10
140.099182
 20
77.965088
 11
140.099182
 21
84.859787
  0
TEXT
  8
0
 62
     7
 10
129.227402
 20
84.454216
 40
4.055707
 41
1.000000
  1
5
  7
KANJI
 50
0.000000
 51
0.000000
  0
TEXT
  8
0
 62
     7
 10
133.242065
 20
84.454216
 40
3.244565
 41
1.000000
  1
%%p0.015
  7
KANJI
 50
0.000000
 51
0.000000
  0
LINE
  8
0
 62
     5
 10
168.489136
 20
77.965088
 11
168.489136
 21
59.665085
  0
POLYLINE
  8
0
 62
     5
 66
     1
 70
     2
  0
VERTEX
  8
0
 10
169.300278
 20
75.126091
  0
VERTEX
  8
0
 10
168.489136
 20
77.965088
  0
VERTEX
  8
0
 10
167.677994
 20
75.126091
  0
SEQEND
  0
POLYLINE
  8
0
 62
     5
 66
     1
 70
     2
  0
VERTEX
  8
0
 10
167.677994
 20
62.504082
  0
VERTEX
  8
0
 10
168.489136
 20
59.665085
  0
VERTEX
  8
0
 10
169.300278
 20
62.504082
  0
SEQEND
  0
LINE
  8
0
 62
     5
 10
140.099182
 20
77.965088
 11
169.705841
 21
77.965088
  0
LINE
  8
0
 62
     5
 10
137.599182
 20
59.665085
 11
169.705841
 21
59.665085
  0
TEXT
  8
0
 62
     7
 10
167.272430
 20
55.420815
 40
4.055707
 41
1.000000
  1
18.3
  7
KANJI
 50
90.000000
 51
0.000000
  0
TEXT
  8
0
 62
     7
 10
167.515778
 20
72.975517
 40
2.027853
 41
1.000000
  1
 
  7
KANJI
 50
90.000000
 51
0.000000
  0
TEXT
  8
0
 62
     7
 10
165.001221
 20
72.975517
 40
2.027853
 41
1.000000
  1
+
  7
KANJI
 50
90.000000
 51
0.000000
  0
TEXT
  8
0
 62
     7
 10
167.515778
 20
75.246712
 40
2.027853
 41
1.000000
  1
0
  7
KANJI
 50
90.000000
 51
0.000000
  0
TEXT
  8
0
 62
     7
 10
165.001221
 20
75.246712
 40
2.027853
 41
1.000000
  1
0.1
  7
KANJI
 50
90.000000
 51
0.000000
  0
LINE
  8
0
 62
     5
 10
105.264946
 20
75.665085
 11
105.264946
 21
59.665085
  0
POLYLINE
  8
0
 62
     5
 66
     1
 70
     2
  0
VERTEX
  8
0
 10
104.453804
 20
62.504078
  0
VERTEX
  8
0
 10
105.264946
 20
59.665085
  0
VERTEX
  8
0
 10
106.076088
 20
62.504078
  0
SEQEND
  0
LINE
  8
0
 62
     5
 10
89.042122
 20
59.665085
 11
106.481659
 21
59.665085
  0
TEXT
  8
0
 62
     7
 10
104.453804
 20
60.263420
 40
4.055707
 41
1.000000
  1
%%c16H7
  7
KANJI
 50
90.000000
 51
0.000000
  0
ENDSEC
  0
EOF
