  0
SECTION
  2
HEADER
  9
$ACADVER
  1
AC1003
  9
$INSBASE
 10
0.000000
 20
0.000000
  9
$EXTMIN
 10
0.000000
 20
0.000000
  9
$EXTMAX
 10
182.763587
 20
126.379076
  9
$LIMMIN
 10
0.000000
 20
0.000000
  9
$LIMMAX
 10
182.763587
 20
126.379076
  9
$VIEWCTR
 10
91.381793
 20
63.189538
  9
$VIEWSIZE
 40
126.379076
  0
ENDSEC
  0
SECTION
  2
TABLES
  0
TABLE
  2
LTYPE
 70
     4
  0
LTYPE
  2
CONTINUOUS
 70
    64
  3
SolidLine
 72
    65
 73
     0
 40
0.0
  0
LTYPE
  2
HIDDEN
 70
    64
  3
------------------------
 72
    65
 73
     2
 40
1.944293
 49
1.296196
 49
-0.648098
  0
LTYPE
  2
DASHDOT
 70
    64
  3
--?--?--?--?--?--?--?--
 72
    65
 73
     4
 40
7.777174
 49
5.832880
 49
-0.648098
 49
0.648098
 49
-0.648098
  0
LTYPE
  2
DIVIDE
 70
    64
  3
--??--??--??--??--??--
 72
    65
 73
     6
 40
9.721467
 49
6.480978
 49
-0.648098
 49
0.648098
 49
-0.648098
 49
0.648098
 49
-0.648098
  0
ENDTAB
  0
TABLE
  2
LAYER
 70
     5
  0
LAYER
  2
0
 70
    64
 62
     7
  6
CONTINUOUS
  0
LAYER
  2
HIDDEN
 70
    64
 62
     2
  6
HIDDEN
  0
LAYER
  2
DASHDOT
 70
    64
 62
     6
  6
DASHDOT
  0
LAYER
  2
DIVIDE
 70
    64
 62
     5
  6
DIVIDE
  0
ENDTAB
  0
TABLE
  2
STYLE
 70
     1
  0
STYLE
  2
STANDARD
 70
    64
 40
0.0
 41
1.0
 50
0.0
 71
     0
 42
0.2
  3
TXT
  4

  0
STYLE
  2
KANJI
 70
    64
 40
0.0
 41
1.0
 50
0.0
 71
     0
 42
0.2
  3
TXT
  4
BIGFONT
  0
ENDTAB
  0
TABLE
  2
VIEW
 70
     0
  0
ENDTAB
  0
ENDSEC
  0
SECTION
  2
BLOCKS
  0
ENDSEC
  0
SECTION
  2
ENTITIES
  0
TEXT
  8
0
 62
     7
 10
6.480978
 20
7.129076
 40
2.592391
 41
1.000000
  1
KHK SSA1.5-40J15
  7
KANJI
 50
0.000000
 51
0.000000
  0
TEXT
  8
0
 62
     7
 10
6.480978
 20
3.240489
 40
2.592391
 41
1.000000
  1
The precision grade of gears after secondary operations is equivalent but not identical to its original grade.
  7
KANJI
 50
0.000000
 51
0.000000
  0
TEXT
  8
0
 62
     7
 10
6.480978
 20
116.657608
 40
2.916440
 41
1.000000
  1
For J Series products, without black oxide repeatedly applied on secondary-operated parts.
  7
KANJI
 50
0.000000
 51
0.000000
  0
POLYLINE
  8
0
 62
     7
 66
     1
 70
     2
  0
VERTEX
  8
0
 10
155.543472
 20
116.657608
  0
VERTEX
  8
0
 10
153.015884
 20
121.038750
  0
VERTEX
  8
0
 10
163.126221
 20
121.038750
  0
VERTEX
  8
0
 10
160.598633
 20
116.657608
  0
VERTEX
  8
0
 10
158.071060
 20
121.038750
  0
VERTEX
  8
0
 10
155.543472
 20
116.657608
  0
SEQEND
  0
LINE
  8
0
 62
     5
 10
95.177986
 20
85.224861
 11
95.177986
 21
22.224861
  0
POLYLINE
  8
0
 62
     5
 66
     1
 70
     2
  0
VERTEX
  8
0
 10
95.826080
 20
82.956520
  0
VERTEX
  8
0
 10
95.177986
 20
85.224861
  0
VERTEX
  8
0
 10
94.529892
 20
82.956520
  0
SEQEND
  0
POLYLINE
  8
0
 62
     5
 66
     1
 70
     2
  0
VERTEX
  8
0
 10
94.529892
 20
24.493204
  0
VERTEX
  8
0
 10
95.177986
 20
22.224861
  0
VERTEX
  8
0
 10
95.826080
 20
24.493204
  0
SEQEND
  0
LINE
  8
0
 62
     5
 10
71.846466
 20
85.224861
 11
96.150131
 21
85.224861
  0
LINE
  8
0
 62
     5
 10
71.846466
 20
22.224861
 11
96.150131
 21
22.224861
  0
TEXT
  8
0
 62
     7
 10
94.529892
 20
49.917286
 40
3.240489
 41
1.000000
  1
%%c63
  7
KANJI
 50
90.000000
 51
0.000000
  0
LINE
  8
0
 62
     5
 10
56.846466
 20
98.186813
 11
71.846466
 21
98.186813
  0
POLYLINE
  8
0
 62
     5
 66
     1
 70
     2
  0
VERTEX
  8
0
 10
59.114807
 20
98.834915
  0
VERTEX
  8
0
 10
56.846466
 20
98.186813
  0
VERTEX
  8
0
 10
59.114807
 20
97.538719
  0
SEQEND
  0
POLYLINE
  8
0
 62
     5
 66
     1
 70
     2
  0
VERTEX
  8
0
 10
69.578125
 20
97.538719
  0
VERTEX
  8
0
 10
71.846466
 20
98.186813
  0
VERTEX
  8
0
 10
69.578125
 20
98.834915
  0
SEQEND
  0
LINE
  8
0
 62
     5
 10
56.846466
 20
85.224861
 11
56.846466
 21
99.158966
  0
LINE
  8
0
 62
     5
 10
71.846466
 20
85.224861
 11
71.846466
 21
99.158966
  0
TEXT
  8
0
 62
     7
 10
62.240147
 20
98.705292
 40
3.240489
 41
1.000000
  1
15
  7
KANJI
 50
0.000000
 51
0.000000
  0
LINE
  8
DASHDOT
 62
     7
 10
54.902172
 20
83.724861
 11
73.790756
 21
83.724861
  0
LINE
  8
DASHDOT
 62
     7
 10
54.902172
 20
23.724861
 11
73.790756
 21
23.724861
  0
LINE
  8
DASHDOT
 62
     7
 10
54.902172
 20
53.724861
 11
73.790756
 21
53.724861
  0
LINE
  8
0
 62
     5
 10
71.346466
 20
22.224861
 11
71.846466
 21
22.224861
  0
LINE
  8
0
 62
     5
 10
71.346466
 20
85.224861
 11
71.846466
 21
85.224861
  0
LINE
  8
0
 62
     5
 10
71.846466
 20
84.724861
 11
71.846466
 21
85.224861
  0
LINE
  8
0
 62
     5
 10
56.846466
 20
84.724861
 11
56.846466
 21
85.224861
  0
LINE
  8
0
 62
     4
 10
56.846466
 20
81.849861
 11
71.846466
 21
81.849861
  0
LINE
  8
0
 62
     4
 10
56.846466
 20
25.599861
 11
71.846466
 21
25.599861
  0
LINE
  8
0
 62
     4
 10
71.846466
 20
61.724861
 11
71.346466
 21
61.224861
  0
LINE
  8
0
 62
     4
 10
71.846466
 20
45.724861
 11
71.346466
 21
46.224861
  0
LINE
  8
0
 62
     4
 10
56.846466
 20
45.724861
 11
57.346466
 21
46.224861
  0
POLYLINE
  8
0
 62
     4
 66
     1
 70
     2
  0
VERTEX
  8
0
 10
56.846466
 20
45.724861
  0
VERTEX
  8
0
 10
56.846466
 20
22.724861
  0
VERTEX
  8
0
 10
57.346466
 20
22.224861
  0
VERTEX
  8
0
 10
71.346466
 20
22.224861
  0
VERTEX
  8
0
 10
71.846466
 20
22.724861
  0
VERTEX
  8
0
 10
71.846466
 20
84.724861
  0
VERTEX
  8
0
 10
71.346466
 20
85.224861
  0
VERTEX
  8
0
 10
57.346466
 20
85.224861
  0
VERTEX
  8
0
 10
56.846466
 20
84.724861
  0
VERTEX
  8
0
 10
56.846466
 20
45.724861
  0
SEQEND
  0
POLYLINE
  8
0
 62
     4
 66
     1
 70
     2
  0
VERTEX
  8
0
 10
56.846466
 20
61.724861
  0
VERTEX
  8
0
 10
57.346466
 20
61.224861
  0
VERTEX
  8
0
 10
57.346466
 20
46.224861
  0
VERTEX
  8
0
 10
71.346466
 20
46.224861
  0
VERTEX
  8
0
 10
71.346466
 20
61.224861
  0
VERTEX
  8
0
 10
57.346466
 20
61.224861
  0
SEQEND
  0
ARC
  8
0
 62
     4
 10
111.751358
 20
53.724861
 40
7.500000
 50
109.47122094265586
 51
70.52877905734415
  0
POLYLINE
  8
0
 62
     4
 66
     1
 70
     2
  0
VERTEX
  8
0
 10
114.251358
 20
60.795929
  0
VERTEX
  8
0
 10
114.251358
 20
63.524860
  0
VERTEX
  8
0
 10
109.251358
 20
63.524860
  0
VERTEX
  8
0
 10
109.251358
 20
60.795929
  0
SEQEND
  0
LINE
  8
0
 62
     4
 10
56.846466
 20
63.524860
 11
71.846466
 21
63.524860
  0
LINE
  8
DASHDOT
 62
     7
 10
111.751358
 20
65.469154
 11
111.751358
 21
44.280567
  0
LINE
  8
DASHDOT
 62
     7
 10
121.195648
 20
53.724861
 11
102.307068
 21
53.724861
  0
LINE
  8
0
 62
     5
 10
118.139946
 20
68.061546
 11
105.362770
 21
68.061546
  0
POLYLINE
  8
0
 62
     5
 66
     1
 70
     2
  0
VERTEX
  8
0
 10
106.983017
 20
67.413452
  0
VERTEX
  8
0
 10
109.251358
 20
68.061546
  0
VERTEX
  8
0
 10
106.983017
 20
68.709641
  0
SEQEND
  0
POLYLINE
  8
0
 62
     5
 66
     1
 70
     2
  0
VERTEX
  8
0
 10
116.519699
 20
68.709641
  0
VERTEX
  8
0
 10
114.251358
 20
68.061546
  0
VERTEX
  8
0
 10
116.519699
 20
67.413452
  0
SEQEND
  0
LINE
  8
0
 62
     5
 10
109.251358
 20
63.524860
 11
109.251358
 21
69.033691
  0
LINE
  8
0
 62
     5
 10
114.251358
 20
63.524860
 11
114.251358
 21
69.033691
  0
TEXT
  8
0
 62
     7
 10
105.062347
 20
68.709641
 40
3.240489
 41
1.000000
  1
5
  7
KANJI
 50
0.000000
 51
0.000000
  0
TEXT
  8
0
 62
     7
 10
108.270035
 20
68.709641
 40
2.592391
 41
1.000000
  1
%%p0.015
  7
KANJI
 50
0.000000
 51
0.000000
  0
LINE
  8
0
 62
     5
 10
136.934784
 20
63.524860
 11
136.934784
 21
46.224861
  0
POLYLINE
  8
0
 62
     5
 66
     1
 70
     2
  0
VERTEX
  8
0
 10
137.582886
 20
61.256519
  0
VERTEX
  8
0
 10
136.934784
 20
63.524860
  0
VERTEX
  8
0
 10
136.286682
 20
61.256519
  0
SEQEND
  0
POLYLINE
  8
0
 62
     5
 66
     1
 70
     2
  0
VERTEX
  8
0
 10
136.286682
 20
48.493206
  0
VERTEX
  8
0
 10
136.934784
 20
46.224861
  0
VERTEX
  8
0
 10
137.582886
 20
48.493206
  0
SEQEND
  0
LINE
  8
0
 62
     5
 10
114.251358
 20
63.524860
 11
137.906921
 21
63.524860
  0
LINE
  8
0
 62
     5
 10
111.751358
 20
46.224861
 11
137.906921
 21
46.224861
  0
TEXT
  8
0
 62
     7
 10
135.962646
 20
43.905067
 40
3.240489
 41
1.000000
  1
17.3
  7
KANJI
 50
90.000000
 51
0.000000
  0
TEXT
  8
0
 62
     7
 10
136.157074
 20
57.931187
 40
1.620245
 41
1.000000
  1
 
  7
KANJI
 50
90.000000
 51
0.000000
  0
TEXT
  8
0
 62
     7
 10
134.147964
 20
57.931187
 40
1.620245
 41
1.000000
  1
+
  7
KANJI
 50
90.000000
 51
0.000000
  0
TEXT
  8
0
 62
     7
 10
136.157074
 20
59.745861
 40
1.620245
 41
1.000000
  1
0
  7
KANJI
 50
90.000000
 51
0.000000
  0
TEXT
  8
0
 62
     7
 10
134.147964
 20
59.745861
 40
1.620245
 41
1.000000
  1
0.1
  7
KANJI
 50
90.000000
 51
0.000000
  0
LINE
  8
0
 62
     5
 10
84.808426
 20
61.224861
 11
84.808426
 21
46.224861
  0
POLYLINE
  8
0
 62
     5
 66
     1
 70
     2
  0
VERTEX
  8
0
 10
84.160324
 20
48.493202
  0
VERTEX
  8
0
 10
84.808426
 20
46.224861
  0
VERTEX
  8
0
 10
85.456520
 20
48.493202
  0
SEQEND
  0
LINE
  8
0
 62
     5
 10
71.846466
 20
46.224861
 11
85.780571
 21
46.224861
  0
TEXT
  8
0
 62
     7
 10
84.160324
 20
47.810966
 40
3.240489
 41
1.000000
  1
%%c15H7
  7
KANJI
 50
90.000000
 51
0.000000
  0
ENDSEC
  0
EOF
