  0
SECTION
  2
HEADER
  9
$ACADVER
  1
AC1003
  9
$INSBASE
 10
0.000000
 20
0.000000
  9
$EXTMIN
 10
0.000000
 20
0.000000
  9
$EXTMAX
 10
137.168478
 20
94.850543
  9
$LIMMIN
 10
0.000000
 20
0.000000
  9
$LIMMAX
 10
137.168478
 20
94.850543
  9
$VIEWCTR
 10
68.584239
 20
47.425272
  9
$VIEWSIZE
 40
94.850543
  0
ENDSEC
  0
SECTION
  2
TABLES
  0
TABLE
  2
LTYPE
 70
     4
  0
LTYPE
  2
CONTINUOUS
 70
    64
  3
SolidLine
 72
    65
 73
     0
 40
0.0
  0
LTYPE
  2
HIDDEN
 70
    64
  3
------------------------
 72
    65
 73
     2
 40
1.459239
 49
0.972826
 49
-0.486413
  0
LTYPE
  2
DASHDOT
 70
    64
  3
--?--?--?--?--?--?--?--
 72
    65
 73
     4
 40
5.836957
 49
4.377717
 49
-0.486413
 49
0.486413
 49
-0.486413
  0
LTYPE
  2
DIVIDE
 70
    64
  3
--??--??--??--??--??--
 72
    65
 73
     6
 40
7.296196
 49
4.864130
 49
-0.486413
 49
0.486413
 49
-0.486413
 49
0.486413
 49
-0.486413
  0
ENDTAB
  0
TABLE
  2
LAYER
 70
     5
  0
LAYER
  2
0
 70
    64
 62
     7
  6
CONTINUOUS
  0
LAYER
  2
HIDDEN
 70
    64
 62
     2
  6
HIDDEN
  0
LAYER
  2
DASHDOT
 70
    64
 62
     6
  6
DASHDOT
  0
LAYER
  2
DIVIDE
 70
    64
 62
     5
  6
DIVIDE
  0
ENDTAB
  0
TABLE
  2
STYLE
 70
     1
  0
STYLE
  2
STANDARD
 70
    64
 40
0.0
 41
1.0
 50
0.0
 71
     0
 42
0.2
  3
TXT
  4

  0
STYLE
  2
KANJI
 70
    64
 40
0.0
 41
1.0
 50
0.0
 71
     0
 42
0.2
  3
TXT
  4
BIGFONT
  0
ENDTAB
  0
TABLE
  2
VIEW
 70
     0
  0
ENDTAB
  0
ENDSEC
  0
SECTION
  2
BLOCKS
  0
ENDSEC
  0
SECTION
  2
ENTITIES
  0
TEXT
  8
0
 62
     7
 10
4.864130
 20
5.350543
 40
1.945652
 41
1.000000
  1
KHK SSA1-45J16
  7
KANJI
 50
0.000000
 51
0.000000
  0
TEXT
  8
0
 62
     7
 10
4.864130
 20
2.432065
 40
1.945652
 41
1.000000
  1
The precision grade of gears after secondary operations is equivalent but not identical to its original grade.
  7
KANJI
 50
0.000000
 51
0.000000
  0
TEXT
  8
0
 62
     7
 10
4.864130
 20
87.554344
 40
2.188859
 41
1.000000
  1
For J Series products, without black oxide repeatedly applied on secondary-operated parts.
  7
KANJI
 50
0.000000
 51
0.000000
  0
POLYLINE
  8
0
 62
     7
 66
     1
 70
     2
  0
VERTEX
  8
0
 10
116.739128
 20
87.554344
  0
VERTEX
  8
0
 10
114.842117
 20
90.842499
  0
VERTEX
  8
0
 10
122.430161
 20
90.842499
  0
VERTEX
  8
0
 10
120.533150
 20
87.554344
  0
VERTEX
  8
0
 10
118.636139
 20
90.842499
  0
VERTEX
  8
0
 10
116.739128
 20
87.554344
  0
SEQEND
  0
LINE
  8
0
 62
     5
 10
69.307060
 20
63.963310
 11
69.307060
 21
16.963310
  0
POLYLINE
  8
0
 62
     5
 66
     1
 70
     2
  0
VERTEX
  8
0
 10
69.793472
 20
62.260864
  0
VERTEX
  8
0
 10
69.307060
 20
63.963310
  0
VERTEX
  8
0
 10
68.820648
 20
62.260864
  0
SEQEND
  0
POLYLINE
  8
0
 62
     5
 66
     1
 70
     2
  0
VERTEX
  8
0
 10
68.820648
 20
18.665756
  0
VERTEX
  8
0
 10
69.307060
 20
16.963310
  0
VERTEX
  8
0
 10
69.793472
 20
18.665756
  0
SEQEND
  0
LINE
  8
0
 62
     5
 10
51.796192
 20
63.963310
 11
70.036682
 21
63.963310
  0
LINE
  8
0
 62
     5
 10
51.796192
 20
16.963310
 11
70.036682
 21
16.963310
  0
TEXT
  8
0
 62
     7
 10
68.820648
 20
37.605633
 40
2.432065
 41
1.000000
  1
%%c47
  7
KANJI
 50
90.000000
 51
0.000000
  0
LINE
  8
0
 62
     5
 10
41.796192
 20
73.691574
 11
51.796192
 21
73.691574
  0
POLYLINE
  8
0
 62
     5
 66
     1
 70
     2
  0
VERTEX
  8
0
 10
43.498638
 20
74.177979
  0
VERTEX
  8
0
 10
41.796192
 20
73.691574
  0
VERTEX
  8
0
 10
43.498638
 20
73.205154
  0
SEQEND
  0
POLYLINE
  8
0
 62
     5
 66
     1
 70
     2
  0
VERTEX
  8
0
 10
50.093746
 20
73.205154
  0
VERTEX
  8
0
 10
51.796192
 20
73.691574
  0
VERTEX
  8
0
 10
50.093746
 20
74.177979
  0
SEQEND
  0
LINE
  8
0
 62
     5
 10
41.796192
 20
63.963310
 11
41.796192
 21
74.421188
  0
LINE
  8
0
 62
     5
 10
51.796192
 20
63.963310
 11
51.796192
 21
74.421188
  0
TEXT
  8
0
 62
     7
 10
45.215351
 20
74.080704
 40
2.432065
 41
1.000000
  1
10
  7
KANJI
 50
0.000000
 51
0.000000
  0
LINE
  8
DASHDOT
 62
     7
 10
40.336952
 20
62.963310
 11
53.255432
 21
62.963310
  0
LINE
  8
DASHDOT
 62
     7
 10
40.336952
 20
17.963310
 11
53.255432
 21
17.963310
  0
LINE
  8
DASHDOT
 62
     7
 10
40.336952
 20
40.463310
 11
53.255432
 21
40.463310
  0
LINE
  8
0
 62
     5
 10
51.296192
 20
16.963310
 11
51.796192
 21
16.963310
  0
LINE
  8
0
 62
     5
 10
51.296192
 20
63.963310
 11
51.796192
 21
63.963310
  0
LINE
  8
0
 62
     5
 10
51.796192
 20
63.463310
 11
51.796192
 21
63.963310
  0
LINE
  8
0
 62
     5
 10
41.796192
 20
63.463310
 11
41.796192
 21
63.963310
  0
LINE
  8
0
 62
     4
 10
41.796192
 20
61.713310
 11
51.796192
 21
61.713310
  0
LINE
  8
0
 62
     4
 10
41.796192
 20
19.213310
 11
51.796192
 21
19.213310
  0
LINE
  8
0
 62
     4
 10
51.796192
 20
48.963310
 11
51.296192
 21
48.463310
  0
LINE
  8
0
 62
     4
 10
51.796192
 20
31.963310
 11
51.296192
 21
32.463310
  0
LINE
  8
0
 62
     4
 10
41.796192
 20
31.963310
 11
42.296192
 21
32.463310
  0
POLYLINE
  8
0
 62
     4
 66
     1
 70
     2
  0
VERTEX
  8
0
 10
41.796192
 20
31.963310
  0
VERTEX
  8
0
 10
41.796192
 20
17.463310
  0
VERTEX
  8
0
 10
42.296192
 20
16.963310
  0
VERTEX
  8
0
 10
51.296192
 20
16.963310
  0
VERTEX
  8
0
 10
51.796192
 20
17.463310
  0
VERTEX
  8
0
 10
51.796192
 20
63.463310
  0
VERTEX
  8
0
 10
51.296192
 20
63.963310
  0
VERTEX
  8
0
 10
42.296192
 20
63.963310
  0
VERTEX
  8
0
 10
41.796192
 20
63.463310
  0
VERTEX
  8
0
 10
41.796192
 20
31.963310
  0
SEQEND
  0
POLYLINE
  8
0
 62
     4
 66
     1
 70
     2
  0
VERTEX
  8
0
 10
41.796192
 20
48.963310
  0
VERTEX
  8
0
 10
42.296192
 20
48.463310
  0
VERTEX
  8
0
 10
42.296192
 20
32.463310
  0
VERTEX
  8
0
 10
51.296192
 20
32.463310
  0
VERTEX
  8
0
 10
51.296192
 20
48.463310
  0
VERTEX
  8
0
 10
42.296192
 20
48.463310
  0
SEQEND
  0
ARC
  8
0
 62
     4
 10
84.116844
 20
40.463310
 40
8.000000
 50
108.20995732853793
 51
71.79004267146207
  0
POLYLINE
  8
0
 62
     4
 66
     1
 70
     2
  0
VERTEX
  8
0
 10
86.616844
 20
48.062653
  0
VERTEX
  8
0
 10
86.616844
 20
50.763309
  0
VERTEX
  8
0
 10
81.616844
 20
50.763309
  0
VERTEX
  8
0
 10
81.616844
 20
48.062653
  0
SEQEND
  0
LINE
  8
0
 62
     4
 10
41.796192
 20
50.763309
 11
51.796192
 21
50.763309
  0
LINE
  8
DASHDOT
 62
     7
 10
84.116844
 20
52.222549
 11
84.116844
 21
31.004070
  0
LINE
  8
DASHDOT
 62
     7
 10
93.576080
 20
40.463310
 11
74.657608
 21
40.463310
  0
LINE
  8
0
 62
     5
 10
89.535324
 20
54.168201
 11
78.698364
 21
54.168201
  0
POLYLINE
  8
0
 62
     5
 66
     1
 70
     2
  0
VERTEX
  8
0
 10
79.914398
 20
53.681789
  0
VERTEX
  8
0
 10
81.616844
 20
54.168201
  0
VERTEX
  8
0
 10
79.914398
 20
54.654613
  0
SEQEND
  0
POLYLINE
  8
0
 62
     5
 66
     1
 70
     2
  0
VERTEX
  8
0
 10
88.319290
 20
54.654613
  0
VERTEX
  8
0
 10
86.616844
 20
54.168201
  0
VERTEX
  8
0
 10
88.319290
 20
53.681789
  0
SEQEND
  0
LINE
  8
0
 62
     5
 10
81.616844
 20
50.763309
 11
81.616844
 21
54.897820
  0
LINE
  8
0
 62
     5
 10
86.616844
 20
50.763309
 11
86.616844
 21
54.897820
  0
TEXT
  8
0
 62
     7
 10
79.096581
 20
54.654613
 40
2.432065
 41
1.000000
  1
5
  7
KANJI
 50
0.000000
 51
0.000000
  0
TEXT
  8
0
 62
     7
 10
81.504028
 20
54.654613
 40
1.945652
 41
1.000000
  1
%%p0.015
  7
KANJI
 50
0.000000
 51
0.000000
  0
LINE
  8
0
 62
     5
 10
103.641296
 20
50.763309
 11
103.641296
 21
32.463310
  0
POLYLINE
  8
0
 62
     5
 66
     1
 70
     2
  0
VERTEX
  8
0
 10
104.127716
 20
49.060863
  0
VERTEX
  8
0
 10
103.641296
 20
50.763309
  0
VERTEX
  8
0
 10
103.154892
 20
49.060863
  0
SEQEND
  0
POLYLINE
  8
0
 62
     5
 66
     1
 70
     2
  0
VERTEX
  8
0
 10
103.154892
 20
34.165756
  0
VERTEX
  8
0
 10
103.641296
 20
32.463310
  0
VERTEX
  8
0
 10
104.127716
 20
34.165756
  0
SEQEND
  0
LINE
  8
0
 62
     5
 10
86.616844
 20
50.763309
 11
104.370918
 21
50.763309
  0
LINE
  8
0
 62
     5
 10
84.116844
 20
32.463310
 11
104.370918
 21
32.463310
  0
TEXT
  8
0
 62
     7
 10
102.911682
 20
32.848621
 40
2.432065
 41
1.000000
  1
18.3
  7
KANJI
 50
90.000000
 51
0.000000
  0
TEXT
  8
0
 62
     7
 10
103.057602
 20
43.375561
 40
1.216033
 41
1.000000
  1
 
  7
KANJI
 50
90.000000
 51
0.000000
  0
TEXT
  8
0
 62
     7
 10
101.549728
 20
43.375561
 40
1.216033
 41
1.000000
  1
+
  7
KANJI
 50
90.000000
 51
0.000000
  0
TEXT
  8
0
 62
     7
 10
103.057602
 20
44.737518
 40
1.216033
 41
1.000000
  1
0
  7
KANJI
 50
90.000000
 51
0.000000
  0
TEXT
  8
0
 62
     7
 10
101.549728
 20
44.737518
 40
1.216033
 41
1.000000
  1
0.1
  7
KANJI
 50
90.000000
 51
0.000000
  0
LINE
  8
0
 62
     5
 10
61.524452
 20
48.463310
 11
61.524452
 21
32.463310
  0
POLYLINE
  8
0
 62
     5
 66
     1
 70
     2
  0
VERTEX
  8
0
 10
61.038040
 20
34.165756
  0
VERTEX
  8
0
 10
61.524452
 20
32.463310
  0
VERTEX
  8
0
 10
62.010864
 20
34.165756
  0
SEQEND
  0
LINE
  8
0
 62
     5
 10
51.796192
 20
32.463310
 11
62.254074
 21
32.463310
  0
TEXT
  8
0
 62
     7
 10
61.038040
 20
36.024792
 40
2.432065
 41
1.000000
  1
%%c16H7
  7
KANJI
 50
90.000000
 51
0.000000
  0
ENDSEC
  0
EOF
