  0
SECTION
  2
HEADER
  9
$ACADVER
  1
AC1003
  9
$INSBASE
 10
0.000000
 20
0.000000
  9
$EXTMIN
 10
0.000000
 20
0.000000
  9
$EXTMAX
 10
170.885870
 20
118.165761
  9
$LIMMIN
 10
0.000000
 20
0.000000
  9
$LIMMAX
 10
170.885870
 20
118.165761
  9
$VIEWCTR
 10
85.442935
 20
59.082880
  9
$VIEWSIZE
 40
118.165761
  0
ENDSEC
  0
SECTION
  2
TABLES
  0
TABLE
  2
LTYPE
 70
     4
  0
LTYPE
  2
CONTINUOUS
 70
    64
  3
SolidLine
 72
    65
 73
     0
 40
0.0
  0
LTYPE
  2
HIDDEN
 70
    64
  3
------------------------
 72
    65
 73
     2
 40
1.817935
 49
1.211957
 49
-0.605978
  0
LTYPE
  2
DASHDOT
 70
    64
  3
--?--?--?--?--?--?--?--
 72
    65
 73
     4
 40
7.271739
 49
5.453804
 49
-0.605978
 49
0.605978
 49
-0.605978
  0
LTYPE
  2
DIVIDE
 70
    64
  3
--??--??--??--??--??--
 72
    65
 73
     6
 40
9.089674
 49
6.059783
 49
-0.605978
 49
0.605978
 49
-0.605978
 49
0.605978
 49
-0.605978
  0
ENDTAB
  0
TABLE
  2
LAYER
 70
     5
  0
LAYER
  2
0
 70
    64
 62
     7
  6
CONTINUOUS
  0
LAYER
  2
HIDDEN
 70
    64
 62
     2
  6
HIDDEN
  0
LAYER
  2
DASHDOT
 70
    64
 62
     6
  6
DASHDOT
  0
LAYER
  2
DIVIDE
 70
    64
 62
     5
  6
DIVIDE
  0
ENDTAB
  0
TABLE
  2
STYLE
 70
     1
  0
STYLE
  2
STANDARD
 70
    64
 40
0.0
 41
1.0
 50
0.0
 71
     0
 42
0.2
  3
TXT
  4

  0
STYLE
  2
KANJI
 70
    64
 40
0.0
 41
1.0
 50
0.0
 71
     0
 42
0.2
  3
TXT
  4
BIGFONT
  0
ENDTAB
  0
TABLE
  2
VIEW
 70
     0
  0
ENDTAB
  0
ENDSEC
  0
SECTION
  2
BLOCKS
  0
ENDSEC
  0
SECTION
  2
ENTITIES
  0
TEXT
  8
0
 62
     7
 10
6.059783
 20
6.665761
 40
2.423913
 41
1.000000
  1
KHK SSA1-56J19
  7
KANJI
 50
0.000000
 51
0.000000
  0
TEXT
  8
0
 62
     7
 10
6.059783
 20
3.029891
 40
2.423913
 41
1.000000
  1
The precision grade of gears after secondary operations is equivalent but not identical to its original grade.
  7
KANJI
 50
0.000000
 51
0.000000
  0
TEXT
  8
0
 62
     7
 10
6.059783
 20
109.076088
 40
2.726902
 41
1.000000
  1
For J Series products, without black oxide repeatedly applied on secondary-operated parts.
  7
KANJI
 50
0.000000
 51
0.000000
  0
POLYLINE
  8
0
 62
     7
 66
     1
 70
     2
  0
VERTEX
  8
0
 10
145.434784
 20
109.076088
  0
VERTEX
  8
0
 10
143.071472
 20
113.172501
  0
VERTEX
  8
0
 10
152.524734
 20
113.172501
  0
VERTEX
  8
0
 10
150.161407
 20
109.076088
  0
VERTEX
  8
0
 10
147.798096
 20
113.172501
  0
VERTEX
  8
0
 10
145.434784
 20
109.076088
  0
SEQEND
  0
LINE
  8
0
 62
     5
 10
85.404884
 20
79.686142
 11
85.404884
 21
21.686142
  0
POLYLINE
  8
0
 62
     5
 66
     1
 70
     2
  0
VERTEX
  8
0
 10
86.010864
 20
77.565216
  0
VERTEX
  8
0
 10
85.404884
 20
79.686142
  0
VERTEX
  8
0
 10
84.798904
 20
77.565216
  0
SEQEND
  0
POLYLINE
  8
0
 62
     5
 66
     1
 70
     2
  0
VERTEX
  8
0
 10
84.798904
 20
23.807066
  0
VERTEX
  8
0
 10
85.404884
 20
21.686142
  0
VERTEX
  8
0
 10
86.010864
 20
23.807066
  0
SEQEND
  0
LINE
  8
0
 62
     5
 10
63.589668
 20
79.686142
 11
86.313858
 21
79.686142
  0
LINE
  8
0
 62
     5
 10
63.589668
 20
21.686142
 11
86.313858
 21
21.686142
  0
TEXT
  8
0
 62
     7
 10
84.798904
 20
47.126019
 40
3.029891
 41
1.000000
  1
%%c58
  7
KANJI
 50
90.000000
 51
0.000000
  0
LINE
  8
0
 62
     5
 10
53.589668
 20
91.805710
 11
63.589668
 21
91.805710
  0
POLYLINE
  8
0
 62
     5
 66
     1
 70
     2
  0
VERTEX
  8
0
 10
55.710594
 20
92.411682
  0
VERTEX
  8
0
 10
53.589668
 20
91.805710
  0
VERTEX
  8
0
 10
55.710594
 20
91.199722
  0
SEQEND
  0
POLYLINE
  8
0
 62
     5
 66
     1
 70
     2
  0
VERTEX
  8
0
 10
61.468742
 20
91.199722
  0
VERTEX
  8
0
 10
63.589668
 20
91.805710
  0
VERTEX
  8
0
 10
61.468742
 20
92.411682
  0
SEQEND
  0
LINE
  8
0
 62
     5
 10
53.589668
 20
79.686142
 11
53.589668
 21
92.714676
  0
LINE
  8
0
 62
     5
 10
63.589668
 20
79.686142
 11
63.589668
 21
92.714676
  0
TEXT
  8
0
 62
     7
 10
56.620239
 20
92.290489
 40
3.029891
 41
1.000000
  1
10
  7
KANJI
 50
0.000000
 51
0.000000
  0
LINE
  8
DASHDOT
 62
     7
 10
51.771732
 20
78.686142
 11
65.407600
 21
78.686142
  0
LINE
  8
DASHDOT
 62
     7
 10
51.771732
 20
22.686142
 11
65.407600
 21
22.686142
  0
LINE
  8
DASHDOT
 62
     7
 10
51.771732
 20
50.686142
 11
65.407600
 21
50.686142
  0
LINE
  8
0
 62
     5
 10
63.089668
 20
21.686142
 11
63.589668
 21
21.686142
  0
LINE
  8
0
 62
     5
 10
63.089668
 20
79.686142
 11
63.589668
 21
79.686142
  0
LINE
  8
0
 62
     5
 10
63.589668
 20
79.186142
 11
63.589668
 21
79.686142
  0
LINE
  8
0
 62
     5
 10
53.589668
 20
79.186142
 11
53.589668
 21
79.686142
  0
LINE
  8
0
 62
     4
 10
53.589668
 20
77.436142
 11
63.589668
 21
77.436142
  0
LINE
  8
0
 62
     4
 10
53.589668
 20
23.936142
 11
63.589668
 21
23.936142
  0
LINE
  8
0
 62
     4
 10
63.589668
 20
60.686142
 11
63.089668
 21
60.186142
  0
LINE
  8
0
 62
     4
 10
63.589668
 20
40.686142
 11
63.089668
 21
41.186142
  0
LINE
  8
0
 62
     4
 10
53.589668
 20
40.686142
 11
54.089668
 21
41.186142
  0
POLYLINE
  8
0
 62
     4
 66
     1
 70
     2
  0
VERTEX
  8
0
 10
53.589668
 20
40.686142
  0
VERTEX
  8
0
 10
53.589668
 20
22.186142
  0
VERTEX
  8
0
 10
54.089668
 20
21.686142
  0
VERTEX
  8
0
 10
63.089668
 20
21.686142
  0
VERTEX
  8
0
 10
63.589668
 20
22.186142
  0
VERTEX
  8
0
 10
63.589668
 20
79.186142
  0
VERTEX
  8
0
 10
63.089668
 20
79.686142
  0
VERTEX
  8
0
 10
54.089668
 20
79.686142
  0
VERTEX
  8
0
 10
53.589668
 20
79.186142
  0
VERTEX
  8
0
 10
53.589668
 20
40.686142
  0
SEQEND
  0
POLYLINE
  8
0
 62
     4
 66
     1
 70
     2
  0
VERTEX
  8
0
 10
53.589668
 20
60.686142
  0
VERTEX
  8
0
 10
54.089668
 20
60.186142
  0
VERTEX
  8
0
 10
54.089668
 20
41.186142
  0
VERTEX
  8
0
 10
63.089668
 20
41.186142
  0
VERTEX
  8
0
 10
63.089668
 20
60.186142
  0
VERTEX
  8
0
 10
54.089668
 20
60.186142
  0
SEQEND
  0
ARC
  8
0
 62
     4
 10
103.388580
 20
50.686142
 40
9.500000
 50
108.4084803259778
 51
71.5915196740222
  0
POLYLINE
  8
0
 62
     4
 66
     1
 70
     2
  0
VERTEX
  8
0
 10
106.388580
 20
59.700020
  0
VERTEX
  8
0
 10
106.388580
 20
62.986141
  0
VERTEX
  8
0
 10
100.388580
 20
62.986141
  0
VERTEX
  8
0
 10
100.388580
 20
59.700020
  0
SEQEND
  0
LINE
  8
0
 62
     4
 10
53.589668
 20
62.986141
 11
63.589668
 21
62.986141
  0
LINE
  8
DASHDOT
 62
     7
 10
103.388580
 20
64.804077
 11
103.388580
 21
39.368206
  0
LINE
  8
DASHDOT
 62
     7
 10
114.706512
 20
50.686142
 11
92.070648
 21
50.686142
  0
LINE
  8
0
 62
     5
 10
110.024445
 20
67.227989
 11
96.752716
 21
67.227989
  0
POLYLINE
  8
0
 62
     5
 66
     1
 70
     2
  0
VERTEX
  8
0
 10
98.267654
 20
66.622009
  0
VERTEX
  8
0
 10
100.388580
 20
67.227989
  0
VERTEX
  8
0
 10
98.267654
 20
67.833969
  0
SEQEND
  0
POLYLINE
  8
0
 62
     5
 66
     1
 70
     2
  0
VERTEX
  8
0
 10
108.509506
 20
67.833969
  0
VERTEX
  8
0
 10
106.388580
 20
67.227989
  0
VERTEX
  8
0
 10
108.509506
 20
66.622009
  0
SEQEND
  0
LINE
  8
0
 62
     5
 10
100.388580
 20
62.986141
 11
100.388580
 21
68.136955
  0
LINE
  8
0
 62
     5
 10
106.388580
 20
62.986141
 11
106.388580
 21
68.136955
  0
TEXT
  8
0
 62
     7
 10
97.134285
 20
67.833969
 40
3.029891
 41
1.000000
  1
6
  7
KANJI
 50
0.000000
 51
0.000000
  0
TEXT
  8
0
 62
     7
 10
100.133507
 20
67.833969
 40
2.423913
 41
1.000000
  1
%%p0.015
  7
KANJI
 50
0.000000
 51
0.000000
  0
LINE
  8
0
 62
     5
 10
127.597816
 20
62.986141
 11
127.597816
 21
41.186142
  0
POLYLINE
  8
0
 62
     5
 66
     1
 70
     2
  0
VERTEX
  8
0
 10
128.203796
 20
60.865219
  0
VERTEX
  8
0
 10
127.597816
 20
62.986141
  0
VERTEX
  8
0
 10
126.991837
 20
60.865219
  0
SEQEND
  0
POLYLINE
  8
0
 62
     5
 66
     1
 70
     2
  0
VERTEX
  8
0
 10
126.991837
 20
43.307068
  0
VERTEX
  8
0
 10
127.597816
 20
41.186142
  0
VERTEX
  8
0
 10
128.203796
 20
43.307068
  0
SEQEND
  0
LINE
  8
0
 62
     5
 10
106.388580
 20
62.986141
 11
128.506775
 21
62.986141
  0
LINE
  8
0
 62
     5
 10
103.388580
 20
41.186142
 11
128.506775
 21
41.186142
  0
TEXT
  8
0
 62
     7
 10
126.688850
 20
41.266838
 40
3.029891
 41
1.000000
  1
21.8
  7
KANJI
 50
90.000000
 51
0.000000
  0
TEXT
  8
0
 62
     7
 10
126.870644
 20
54.381405
 40
1.514946
 41
1.000000
  1
 
  7
KANJI
 50
90.000000
 51
0.000000
  0
TEXT
  8
0
 62
     7
 10
124.992111
 20
54.381405
 40
1.514946
 41
1.000000
  1
+
  7
KANJI
 50
90.000000
 51
0.000000
  0
TEXT
  8
0
 62
     7
 10
126.870644
 20
56.078144
 40
1.514946
 41
1.000000
  1
0
  7
KANJI
 50
90.000000
 51
0.000000
  0
TEXT
  8
0
 62
     7
 10
124.992111
 20
56.078144
 40
1.514946
 41
1.000000
  1
0.1
  7
KANJI
 50
90.000000
 51
0.000000
  0
LINE
  8
0
 62
     5
 10
75.709229
 20
60.186142
 11
75.709229
 21
41.186142
  0
POLYLINE
  8
0
 62
     5
 66
     1
 70
     2
  0
VERTEX
  8
0
 10
75.103256
 20
43.307068
  0
VERTEX
  8
0
 10
75.709229
 20
41.186142
  0
VERTEX
  8
0
 10
76.315208
 20
43.307068
  0
SEQEND
  0
LINE
  8
0
 62
     5
 10
63.589668
 20
41.186142
 11
76.618202
 21
41.186142
  0
TEXT
  8
0
 62
     7
 10
75.103256
 20
45.156590
 40
3.029891
 41
1.000000
  1
%%c19H7
  7
KANJI
 50
90.000000
 51
0.000000
  0
ENDSEC
  0
EOF
