  0
SECTION
  2
HEADER
  9
$ACADVER
  1
AC1003
  9
$INSBASE
 10
0.000000
 20
0.000000
  9
$EXTMIN
 10
0.000000
 20
0.000000
  9
$EXTMAX
 10
167.820652
 20
116.046196
  9
$LIMMIN
 10
0.000000
 20
0.000000
  9
$LIMMAX
 10
167.820652
 20
116.046196
  9
$VIEWCTR
 10
83.910326
 20
58.023098
  9
$VIEWSIZE
 40
116.046196
  0
ENDSEC
  0
SECTION
  2
TABLES
  0
TABLE
  2
LTYPE
 70
     4
  0
LTYPE
  2
CONTINUOUS
 70
    64
  3
SolidLine
 72
    65
 73
     0
 40
0.0
  0
LTYPE
  2
HIDDEN
 70
    64
  3
------------------------
 72
    65
 73
     2
 40
1.785326
 49
1.190217
 49
-0.595109
  0
LTYPE
  2
DASHDOT
 70
    64
  3
--?--?--?--?--?--?--?--
 72
    65
 73
     4
 40
7.141304
 49
5.355978
 49
-0.595109
 49
0.595109
 49
-0.595109
  0
LTYPE
  2
DIVIDE
 70
    64
  3
--??--??--??--??--??--
 72
    65
 73
     6
 40
8.926630
 49
5.951087
 49
-0.595109
 49
0.595109
 49
-0.595109
 49
0.595109
 49
-0.595109
  0
ENDTAB
  0
TABLE
  2
LAYER
 70
     5
  0
LAYER
  2
0
 70
    64
 62
     7
  6
CONTINUOUS
  0
LAYER
  2
HIDDEN
 70
    64
 62
     2
  6
HIDDEN
  0
LAYER
  2
DASHDOT
 70
    64
 62
     6
  6
DASHDOT
  0
LAYER
  2
DIVIDE
 70
    64
 62
     5
  6
DIVIDE
  0
ENDTAB
  0
TABLE
  2
STYLE
 70
     1
  0
STYLE
  2
STANDARD
 70
    64
 40
0.0
 41
1.0
 50
0.0
 71
     0
 42
0.2
  3
TXT
  4

  0
STYLE
  2
KANJI
 70
    64
 40
0.0
 41
1.0
 50
0.0
 71
     0
 42
0.2
  3
TXT
  4
BIGFONT
  0
ENDTAB
  0
TABLE
  2
VIEW
 70
     0
  0
ENDTAB
  0
ENDSEC
  0
SECTION
  2
BLOCKS
  0
ENDSEC
  0
SECTION
  2
ENTITIES
  0
TEXT
  8
0
 62
     7
 10
5.951087
 20
6.546196
 40
2.380435
 41
1.000000
  1
KHK SSA1-55J25
  7
KANJI
 50
0.000000
 51
0.000000
  0
TEXT
  8
0
 62
     7
 10
5.951087
 20
2.975543
 40
2.380435
 41
1.000000
  1
The precision grade of gears after secondary operations is equivalent but not identical to its original grade.
  7
KANJI
 50
0.000000
 51
0.000000
  0
TEXT
  8
0
 62
     7
 10
5.951087
 20
107.119568
 40
2.677989
 41
1.000000
  1
For J Series products, without black oxide repeatedly applied on secondary-operated parts.
  7
KANJI
 50
0.000000
 51
0.000000
  0
POLYLINE
  8
0
 62
     7
 66
     1
 70
     2
  0
VERTEX
  8
0
 10
142.826080
 20
107.119568
  0
VERTEX
  8
0
 10
140.505157
 20
111.142502
  0
VERTEX
  8
0
 10
149.788849
 20
111.142502
  0
VERTEX
  8
0
 10
147.467926
 20
107.119568
  0
VERTEX
  8
0
 10
145.147003
 20
111.142502
  0
VERTEX
  8
0
 10
142.826080
 20
107.119568
  0
SEQEND
  0
LINE
  8
0
 62
     5
 10
81.850540
 20
78.256790
 11
81.850540
 21
21.256794
  0
POLYLINE
  8
0
 62
     5
 66
     1
 70
     2
  0
VERTEX
  8
0
 10
82.445648
 20
76.173912
  0
VERTEX
  8
0
 10
81.850540
 20
78.256790
  0
VERTEX
  8
0
 10
81.255432
 20
76.173912
  0
SEQEND
  0
POLYLINE
  8
0
 62
     5
 66
     1
 70
     2
  0
VERTEX
  8
0
 10
81.255432
 20
23.339674
  0
VERTEX
  8
0
 10
81.850540
 20
21.256794
  0
VERTEX
  8
0
 10
82.445648
 20
23.339674
  0
SEQEND
  0
LINE
  8
0
 62
     5
 10
60.426628
 20
78.256790
 11
82.743210
 21
78.256790
  0
LINE
  8
0
 62
     5
 10
60.426628
 20
21.256794
 11
82.743210
 21
21.256794
  0
TEXT
  8
0
 62
     7
 10
81.255432
 20
46.260529
 40
2.975543
 41
1.000000
  1
%%c57
  7
KANJI
 50
90.000000
 51
0.000000
  0
LINE
  8
0
 62
     5
 10
50.426628
 20
90.158966
 11
60.426628
 21
90.158966
  0
POLYLINE
  8
0
 62
     5
 66
     1
 70
     2
  0
VERTEX
  8
0
 10
52.509510
 20
90.754074
  0
VERTEX
  8
0
 10
50.426628
 20
90.158966
  0
VERTEX
  8
0
 10
52.509510
 20
89.563858
  0
SEQEND
  0
POLYLINE
  8
0
 62
     5
 66
     1
 70
     2
  0
VERTEX
  8
0
 10
58.343746
 20
89.563858
  0
VERTEX
  8
0
 10
60.426628
 20
90.158966
  0
VERTEX
  8
0
 10
58.343746
 20
90.754074
  0
SEQEND
  0
LINE
  8
0
 62
     5
 10
50.426628
 20
78.256790
 11
50.426628
 21
91.051636
  0
LINE
  8
0
 62
     5
 10
60.426628
 20
78.256790
 11
60.426628
 21
91.051636
  0
TEXT
  8
0
 62
     7
 10
53.492523
 20
90.635056
 40
2.975543
 41
1.000000
  1
10
  7
KANJI
 50
0.000000
 51
0.000000
  0
LINE
  8
DASHDOT
 62
     7
 10
48.641300
 20
77.256790
 11
62.211952
 21
77.256790
  0
LINE
  8
DASHDOT
 62
     7
 10
48.641300
 20
22.256794
 11
62.211952
 21
22.256794
  0
LINE
  8
DASHDOT
 62
     7
 10
48.641300
 20
49.756794
 11
62.211952
 21
49.756794
  0
LINE
  8
0
 62
     5
 10
59.926628
 20
21.256794
 11
60.426628
 21
21.256794
  0
LINE
  8
0
 62
     5
 10
59.926628
 20
78.256790
 11
60.426628
 21
78.256790
  0
LINE
  8
0
 62
     5
 10
60.426628
 20
77.756790
 11
60.426628
 21
78.256790
  0
LINE
  8
0
 62
     5
 10
50.426628
 20
77.756790
 11
50.426628
 21
78.256790
  0
LINE
  8
0
 62
     4
 10
50.426628
 20
76.006790
 11
60.426628
 21
76.006790
  0
LINE
  8
0
 62
     4
 10
50.426628
 20
23.506794
 11
60.426628
 21
23.506794
  0
LINE
  8
0
 62
     4
 10
60.426628
 20
63.256794
 11
59.426628
 21
62.256794
  0
LINE
  8
0
 62
     4
 10
60.426628
 20
36.256794
 11
59.426628
 21
37.256794
  0
LINE
  8
0
 62
     4
 10
50.426628
 20
36.256794
 11
51.426628
 21
37.256794
  0
POLYLINE
  8
0
 62
     4
 66
     1
 70
     2
  0
VERTEX
  8
0
 10
50.426628
 20
36.256794
  0
VERTEX
  8
0
 10
50.426628
 20
21.756794
  0
VERTEX
  8
0
 10
50.926628
 20
21.256794
  0
VERTEX
  8
0
 10
59.926628
 20
21.256794
  0
VERTEX
  8
0
 10
60.426628
 20
21.756794
  0
VERTEX
  8
0
 10
60.426628
 20
77.756790
  0
VERTEX
  8
0
 10
59.926628
 20
78.256790
  0
VERTEX
  8
0
 10
50.926628
 20
78.256790
  0
VERTEX
  8
0
 10
50.426628
 20
77.756790
  0
VERTEX
  8
0
 10
50.426628
 20
36.256794
  0
SEQEND
  0
POLYLINE
  8
0
 62
     4
 66
     1
 70
     2
  0
VERTEX
  8
0
 10
50.426628
 20
63.256794
  0
VERTEX
  8
0
 10
51.426628
 20
62.256794
  0
VERTEX
  8
0
 10
51.426628
 20
37.256794
  0
VERTEX
  8
0
 10
59.426628
 20
37.256794
  0
VERTEX
  8
0
 10
59.426628
 20
62.256794
  0
VERTEX
  8
0
 10
51.426628
 20
62.256794
  0
SEQEND
  0
ARC
  8
0
 62
     4
 10
102.682068
 20
49.756794
 40
12.500000
 50
108.66292518454978
 51
71.33707481545021
  0
POLYLINE
  8
0
 62
     4
 66
     1
 70
     2
  0
VERTEX
  8
0
 10
106.682068
 20
61.599514
  0
VERTEX
  8
0
 10
106.682068
 20
65.556793
  0
VERTEX
  8
0
 10
98.682068
 20
65.556793
  0
VERTEX
  8
0
 10
98.682068
 20
61.599514
  0
SEQEND
  0
LINE
  8
0
 62
     4
 10
50.426628
 20
65.556793
 11
60.426628
 21
65.556793
  0
LINE
  8
DASHDOT
 62
     7
 10
102.682068
 20
67.342117
 11
102.682068
 21
35.471466
  0
LINE
  8
DASHDOT
 62
     7
 10
116.967392
 20
49.756794
 11
88.396736
 21
49.756794
  0
LINE
  8
0
 62
     5
 10
110.252716
 20
69.722557
 11
95.111412
 21
69.722557
  0
POLYLINE
  8
0
 62
     5
 66
     1
 70
     2
  0
VERTEX
  8
0
 10
96.599182
 20
69.127449
  0
VERTEX
  8
0
 10
98.682068
 20
69.722557
  0
VERTEX
  8
0
 10
96.599182
 20
70.317665
  0
SEQEND
  0
POLYLINE
  8
0
 62
     5
 66
     1
 70
     2
  0
VERTEX
  8
0
 10
108.764946
 20
70.317665
  0
VERTEX
  8
0
 10
106.682068
 20
69.722557
  0
VERTEX
  8
0
 10
108.764946
 20
69.127449
  0
SEQEND
  0
LINE
  8
0
 62
     5
 10
98.682068
 20
65.556793
 11
98.682068
 21
70.615219
  0
LINE
  8
0
 62
     5
 10
106.682068
 20
65.556793
 11
106.682068
 21
70.615219
  0
TEXT
  8
0
 62
     7
 10
96.539955
 20
70.317665
 40
2.975543
 41
1.000000
  1
8
  7
KANJI
 50
0.000000
 51
0.000000
  0
TEXT
  8
0
 62
     7
 10
99.485374
 20
70.317665
 40
2.380435
 41
1.000000
  1
%%p0.018
  7
KANJI
 50
0.000000
 51
0.000000
  0
LINE
  8
0
 62
     5
 10
127.510872
 20
65.556793
 11
127.510872
 21
37.256794
  0
POLYLINE
  8
0
 62
     5
 66
     1
 70
     2
  0
VERTEX
  8
0
 10
128.105988
 20
63.473915
  0
VERTEX
  8
0
 10
127.510872
 20
65.556793
  0
VERTEX
  8
0
 10
126.915764
 20
63.473915
  0
SEQEND
  0
POLYLINE
  8
0
 62
     5
 66
     1
 70
     2
  0
VERTEX
  8
0
 10
126.915764
 20
39.339676
  0
VERTEX
  8
0
 10
127.510872
 20
37.256794
  0
VERTEX
  8
0
 10
128.105988
 20
39.339676
  0
SEQEND
  0
LINE
  8
0
 62
     5
 10
106.682068
 20
65.556793
 11
128.403534
 21
65.556793
  0
LINE
  8
0
 62
     5
 10
102.682068
 20
37.256794
 11
128.403534
 21
37.256794
  0
TEXT
  8
0
 62
     7
 10
126.618210
 20
40.092453
 40
2.975543
 41
1.000000
  1
28.3
  7
KANJI
 50
90.000000
 51
0.000000
  0
TEXT
  8
0
 62
     7
 10
126.796738
 20
52.971783
 40
1.487772
 41
1.000000
  1
 
  7
KANJI
 50
90.000000
 51
0.000000
  0
TEXT
  8
0
 62
     7
 10
124.951904
 20
52.971783
 40
1.487772
 41
1.000000
  1
+
  7
KANJI
 50
90.000000
 51
0.000000
  0
TEXT
  8
0
 62
     7
 10
126.796738
 20
54.638088
 40
1.487772
 41
1.000000
  1
0
  7
KANJI
 50
90.000000
 51
0.000000
  0
TEXT
  8
0
 62
     7
 10
124.951904
 20
54.638088
 40
1.487772
 41
1.000000
  1
0.2
  7
KANJI
 50
90.000000
 51
0.000000
  0
LINE
  8
0
 62
     5
 10
72.328804
 20
62.256794
 11
72.328804
 21
37.256794
  0
POLYLINE
  8
0
 62
     5
 66
     1
 70
     2
  0
VERTEX
  8
0
 10
71.733696
 20
39.339676
  0
VERTEX
  8
0
 10
72.328804
 20
37.256794
  0
VERTEX
  8
0
 10
72.923912
 20
39.339676
  0
SEQEND
  0
LINE
  8
0
 62
     5
 10
60.426628
 20
37.256794
 11
73.221466
 21
37.256794
  0
TEXT
  8
0
 62
     7
 10
71.733696
 20
44.326427
 40
2.975543
 41
1.000000
  1
%%c25H7
  7
KANJI
 50
90.000000
 51
0.000000
  0
ENDSEC
  0
EOF
