  0
SECTION
  2
HEADER
  9
$ACADVER
  1
AC1003
  9
$INSBASE
 10
0.000000
 20
0.000000
  9
$EXTMIN
 10
0.000000
 20
0.000000
  9
$EXTMAX
 10
305.755435
 20
211.426630
  9
$LIMMIN
 10
0.000000
 20
0.000000
  9
$LIMMAX
 10
305.755435
 20
211.426630
  9
$VIEWCTR
 10
152.877717
 20
105.713315
  9
$VIEWSIZE
 40
211.426630
  0
ENDSEC
  0
SECTION
  2
TABLES
  0
TABLE
  2
LTYPE
 70
     4
  0
LTYPE
  2
CONTINUOUS
 70
    64
  3
SolidLine
 72
    65
 73
     0
 40
0.0
  0
LTYPE
  2
HIDDEN
 70
    64
  3
------------------------
 72
    65
 73
     2
 40
3.252717
 49
2.168478
 49
-1.084239
  0
LTYPE
  2
DASHDOT
 70
    64
  3
--?--?--?--?--?--?--?--
 72
    65
 73
     4
 40
13.010870
 49
9.758152
 49
-1.084239
 49
1.084239
 49
-1.084239
  0
LTYPE
  2
DIVIDE
 70
    64
  3
--??--??--??--??--??--
 72
    65
 73
     6
 40
16.263587
 49
10.842391
 49
-1.084239
 49
1.084239
 49
-1.084239
 49
1.084239
 49
-1.084239
  0
ENDTAB
  0
TABLE
  2
LAYER
 70
     5
  0
LAYER
  2
0
 70
    64
 62
     7
  6
CONTINUOUS
  0
LAYER
  2
HIDDEN
 70
    64
 62
     2
  6
HIDDEN
  0
LAYER
  2
DASHDOT
 70
    64
 62
     6
  6
DASHDOT
  0
LAYER
  2
DIVIDE
 70
    64
 62
     5
  6
DIVIDE
  0
ENDTAB
  0
TABLE
  2
STYLE
 70
     1
  0
STYLE
  2
STANDARD
 70
    64
 40
0.0
 41
1.0
 50
0.0
 71
     0
 42
0.2
  3
TXT
  4

  0
STYLE
  2
KANJI
 70
    64
 40
0.0
 41
1.0
 50
0.0
 71
     0
 42
0.2
  3
TXT
  4
BIGFONT
  0
ENDTAB
  0
TABLE
  2
VIEW
 70
     0
  0
ENDTAB
  0
ENDSEC
  0
SECTION
  2
BLOCKS
  0
ENDSEC
  0
SECTION
  2
ENTITIES
  0
TEXT
  8
0
 62
     7
 10
10.842391
 20
11.926630
 40
4.336957
 41
1.000000
  1
KHK SSA1-100J16
  7
KANJI
 50
0.000000
 51
0.000000
  0
TEXT
  8
0
 62
     7
 10
10.842391
 20
5.421196
 40
4.336957
 41
1.000000
  1
The precision grade of gears after secondary operations is equivalent but not identical to its original grade.
  7
KANJI
 50
0.000000
 51
0.000000
  0
TEXT
  8
0
 62
     7
 10
10.842391
 20
195.163040
 40
4.879076
 41
1.000000
  1
For J Series products, without black oxide repeatedly applied on secondary-operated parts.
  7
KANJI
 50
0.000000
 51
0.000000
  0
POLYLINE
  8
0
 62
     7
 66
     1
 70
     2
  0
VERTEX
  8
0
 10
260.217377
 20
195.163040
  0
VERTEX
  8
0
 10
255.988846
 20
202.492493
  0
VERTEX
  8
0
 10
272.902985
 20
202.492493
  0
VERTEX
  8
0
 10
268.674438
 20
195.163040
  0
VERTEX
  8
0
 10
264.445923
 20
202.492493
  0
VERTEX
  8
0
 10
260.217377
 20
195.163040
  0
SEQEND
  0
LINE
  8
0
 62
     5
 10
154.796204
 20
142.577454
 11
154.796204
 21
40.577454
  0
POLYLINE
  8
0
 62
     5
 66
     1
 70
     2
  0
VERTEX
  8
0
 10
155.880432
 20
138.782623
  0
VERTEX
  8
0
 10
154.796204
 20
142.577454
  0
VERTEX
  8
0
 10
153.711960
 20
138.782623
  0
SEQEND
  0
POLYLINE
  8
0
 62
     5
 66
     1
 70
     2
  0
VERTEX
  8
0
 10
153.711960
 20
44.372292
  0
VERTEX
  8
0
 10
154.796204
 20
40.577454
  0
VERTEX
  8
0
 10
155.880432
 20
44.372292
  0
SEQEND
  0
LINE
  8
0
 62
     5
 10
115.763588
 20
142.577454
 11
156.422546
 21
142.577454
  0
LINE
  8
0
 62
     5
 10
115.763588
 20
40.577454
 11
156.422546
 21
40.577454
  0
TEXT
  8
0
 62
     7
 10
153.711960
 20
83.445663
 40
5.421196
 41
1.000000
  1
%%c102
  7
KANJI
 50
90.000000
 51
0.000000
  0
LINE
  8
0
 62
     5
 10
122.269020
 20
164.262238
 11
99.258156
 21
164.262238
  0
POLYLINE
  8
0
 62
     5
 66
     1
 70
     2
  0
VERTEX
  8
0
 10
101.968750
 20
163.178009
  0
VERTEX
  8
0
 10
105.763588
 20
164.262238
  0
VERTEX
  8
0
 10
101.968750
 20
165.346466
  0
SEQEND
  0
POLYLINE
  8
0
 62
     5
 66
     1
 70
     2
  0
VERTEX
  8
0
 10
119.558426
 20
165.346466
  0
VERTEX
  8
0
 10
115.763588
 20
164.262238
  0
VERTEX
  8
0
 10
119.558426
 20
163.178009
  0
SEQEND
  0
LINE
  8
0
 62
     5
 10
105.763588
 20
142.577454
 11
105.763588
 21
165.888596
  0
LINE
  8
0
 62
     5
 10
115.763588
 20
142.577454
 11
115.763588
 21
165.888596
  0
TEXT
  8
0
 62
     7
 10
107.239807
 20
165.129639
 40
5.421196
 41
1.000000
  1
10
  7
KANJI
 50
0.000000
 51
0.000000
  0
LINE
  8
DASHDOT
 62
     7
 10
102.510872
 20
141.577454
 11
119.016304
 21
141.577454
  0
LINE
  8
DASHDOT
 62
     7
 10
102.510872
 20
41.577454
 11
119.016304
 21
41.577454
  0
LINE
  8
DASHDOT
 62
     7
 10
102.510872
 20
91.577454
 11
119.016304
 21
91.577454
  0
LINE
  8
0
 62
     5
 10
115.263588
 20
40.577454
 11
115.763588
 21
40.577454
  0
LINE
  8
0
 62
     5
 10
115.263588
 20
142.577454
 11
115.763588
 21
142.577454
  0
LINE
  8
0
 62
     5
 10
115.763588
 20
142.077454
 11
115.763588
 21
142.577454
  0
LINE
  8
0
 62
     5
 10
105.763588
 20
142.077454
 11
105.763588
 21
142.577454
  0
LINE
  8
0
 62
     4
 10
105.763588
 20
140.327454
 11
115.763588
 21
140.327454
  0
LINE
  8
0
 62
     4
 10
105.763588
 20
42.827454
 11
115.763588
 21
42.827454
  0
LINE
  8
0
 62
     4
 10
115.763588
 20
100.077454
 11
115.263588
 21
99.577454
  0
LINE
  8
0
 62
     4
 10
115.763588
 20
83.077454
 11
115.263588
 21
83.577454
  0
LINE
  8
0
 62
     4
 10
105.763588
 20
83.077454
 11
106.263588
 21
83.577454
  0
POLYLINE
  8
0
 62
     4
 66
     1
 70
     2
  0
VERTEX
  8
0
 10
105.763588
 20
83.077454
  0
VERTEX
  8
0
 10
105.763588
 20
41.077454
  0
VERTEX
  8
0
 10
106.263588
 20
40.577454
  0
VERTEX
  8
0
 10
115.263588
 20
40.577454
  0
VERTEX
  8
0
 10
115.763588
 20
41.077454
  0
VERTEX
  8
0
 10
115.763588
 20
142.077454
  0
VERTEX
  8
0
 10
115.263588
 20
142.577454
  0
VERTEX
  8
0
 10
106.263588
 20
142.577454
  0
VERTEX
  8
0
 10
105.763588
 20
142.077454
  0
VERTEX
  8
0
 10
105.763588
 20
83.077454
  0
SEQEND
  0
POLYLINE
  8
0
 62
     4
 66
     1
 70
     2
  0
VERTEX
  8
0
 10
105.763588
 20
100.077454
  0
VERTEX
  8
0
 10
106.263588
 20
99.577454
  0
VERTEX
  8
0
 10
106.263588
 20
83.577454
  0
VERTEX
  8
0
 10
115.263588
 20
83.577454
  0
VERTEX
  8
0
 10
115.263588
 20
99.577454
  0
VERTEX
  8
0
 10
106.263588
 20
99.577454
  0
SEQEND
  0
ARC
  8
0
 62
     4
 10
177.975555
 20
91.577454
 40
8.000000
 50
108.20995732853793
 51
71.79004267146207
  0
POLYLINE
  8
0
 62
     4
 66
     1
 70
     2
  0
VERTEX
  8
0
 10
180.475555
 20
99.176796
  0
VERTEX
  8
0
 10
180.475555
 20
101.877457
  0
VERTEX
  8
0
 10
175.475555
 20
101.877457
  0
VERTEX
  8
0
 10
175.475555
 20
99.176796
  0
SEQEND
  0
LINE
  8
0
 62
     4
 10
105.763588
 20
101.877457
 11
115.763588
 21
101.877457
  0
LINE
  8
DASHDOT
 62
     7
 10
177.975555
 20
105.130173
 11
177.975555
 21
80.324738
  0
LINE
  8
DASHDOT
 62
     7
 10
189.228271
 20
91.577454
 11
166.722824
 21
91.577454
  0
LINE
  8
0
 62
     5
 10
186.980988
 20
109.467133
 11
168.970108
 21
109.467133
  0
POLYLINE
  8
0
 62
     5
 66
     1
 70
     2
  0
VERTEX
  8
0
 10
171.680710
 20
108.382889
  0
VERTEX
  8
0
 10
175.475555
 20
109.467133
  0
VERTEX
  8
0
 10
171.680710
 20
110.551369
  0
SEQEND
  0
POLYLINE
  8
0
 62
     5
 66
     1
 70
     2
  0
VERTEX
  8
0
 10
184.270386
 20
110.551369
  0
VERTEX
  8
0
 10
180.475555
 20
109.467133
  0
VERTEX
  8
0
 10
184.270386
 20
108.382889
  0
SEQEND
  0
LINE
  8
0
 62
     5
 10
175.475555
 20
101.877457
 11
175.475555
 21
111.093491
  0
LINE
  8
0
 62
     5
 10
180.475555
 20
101.877457
 11
180.475555
 21
111.093491
  0
TEXT
  8
0
 62
     7
 10
166.785126
 20
110.551369
 40
5.421196
 41
1.000000
  1
5
  7
KANJI
 50
0.000000
 51
0.000000
  0
TEXT
  8
0
 62
     7
 10
172.151443
 20
110.551369
 40
4.336957
 41
1.000000
  1
%%p0.015
  7
KANJI
 50
0.000000
 51
0.000000
  0
LINE
  8
0
 62
     5
 10
218.423920
 20
77.072021
 11
218.423920
 21
108.382889
  0
POLYLINE
  8
0
 62
     5
 66
     1
 70
     2
  0
VERTEX
  8
0
 10
217.339676
 20
105.672287
  0
VERTEX
  8
0
 10
218.423920
 20
101.877457
  0
VERTEX
  8
0
 10
219.508148
 20
105.672287
  0
SEQEND
  0
POLYLINE
  8
0
 62
     5
 66
     1
 70
     2
  0
VERTEX
  8
0
 10
219.508148
 20
79.782616
  0
VERTEX
  8
0
 10
218.423920
 20
83.577454
  0
VERTEX
  8
0
 10
217.339676
 20
79.782616
  0
SEQEND
  0
LINE
  8
0
 62
     5
 10
180.475555
 20
101.877457
 11
220.050262
 21
101.877457
  0
LINE
  8
0
 62
     5
 10
177.975555
 20
83.577454
 11
220.050262
 21
83.577454
  0
TEXT
  8
0
 62
     7
 10
216.797546
 20
75.439682
 40
5.421196
 41
1.000000
  1
18.3
  7
KANJI
 50
90.000000
 51
0.000000
  0
TEXT
  8
0
 62
     7
 10
217.122833
 20
98.904762
 40
2.710598
 41
1.000000
  1
 
  7
KANJI
 50
90.000000
 51
0.000000
  0
TEXT
  8
0
 62
     7
 10
213.761688
 20
98.904762
 40
2.710598
 41
1.000000
  1
+
  7
KANJI
 50
90.000000
 51
0.000000
  0
TEXT
  8
0
 62
     7
 10
217.122833
 20
101.940636
 40
2.710598
 41
1.000000
  1
0
  7
KANJI
 50
90.000000
 51
0.000000
  0
TEXT
  8
0
 62
     7
 10
213.761688
 20
101.940636
 40
2.710598
 41
1.000000
  1
0.1
  7
KANJI
 50
90.000000
 51
0.000000
  0
LINE
  8
0
 62
     5
 10
137.448364
 20
99.577454
 11
137.448364
 21
83.577454
  0
POLYLINE
  8
0
 62
     5
 66
     1
 70
     2
  0
VERTEX
  8
0
 10
136.364136
 20
87.372292
  0
VERTEX
  8
0
 10
137.448364
 20
83.577454
  0
VERTEX
  8
0
 10
138.532608
 20
87.372292
  0
SEQEND
  0
LINE
  8
0
 62
     5
 10
115.763588
 20
83.577454
 11
139.074738
 21
83.577454
  0
TEXT
  8
0
 62
     7
 10
136.364136
 20
81.683769
 40
5.421196
 41
1.000000
  1
%%c16H7
  7
KANJI
 50
90.000000
 51
0.000000
  0
ENDSEC
  0
EOF
