  0
SECTION
  2
HEADER
  9
$ACADVER
  1
AC1003
  9
$INSBASE
 10
0.000000
 20
0.000000
  9
$EXTMIN
 10
0.000000
 20
0.000000
  9
$EXTMAX
 10
159.774457
 20
110.482337
  9
$LIMMIN
 10
0.000000
 20
0.000000
  9
$LIMMAX
 10
159.774457
 20
110.482337
  9
$VIEWCTR
 10
79.887228
 20
55.241168
  9
$VIEWSIZE
 40
110.482337
  0
ENDSEC
  0
SECTION
  2
TABLES
  0
TABLE
  2
LTYPE
 70
     4
  0
LTYPE
  2
CONTINUOUS
 70
    64
  3
SolidLine
 72
    65
 73
     0
 40
0.0
  0
LTYPE
  2
HIDDEN
 70
    64
  3
------------------------
 72
    65
 73
     2
 40
1.699728
 49
1.133152
 49
-0.566576
  0
LTYPE
  2
DASHDOT
 70
    64
  3
--?--?--?--?--?--?--?--
 72
    65
 73
     4
 40
6.798913
 49
5.099185
 49
-0.566576
 49
0.566576
 49
-0.566576
  0
LTYPE
  2
DIVIDE
 70
    64
  3
--??--??--??--??--??--
 72
    65
 73
     6
 40
8.498641
 49
5.665761
 49
-0.566576
 49
0.566576
 49
-0.566576
 49
0.566576
 49
-0.566576
  0
ENDTAB
  0
TABLE
  2
LAYER
 70
     5
  0
LAYER
  2
0
 70
    64
 62
     7
  6
CONTINUOUS
  0
LAYER
  2
HIDDEN
 70
    64
 62
     2
  6
HIDDEN
  0
LAYER
  2
DASHDOT
 70
    64
 62
     6
  6
DASHDOT
  0
LAYER
  2
DIVIDE
 70
    64
 62
     5
  6
DIVIDE
  0
ENDTAB
  0
TABLE
  2
STYLE
 70
     1
  0
STYLE
  2
STANDARD
 70
    64
 40
0.0
 41
1.0
 50
0.0
 71
     0
 42
0.2
  3
TXT
  4

  0
STYLE
  2
KANJI
 70
    64
 40
0.0
 41
1.0
 50
0.0
 71
     0
 42
0.2
  3
TXT
  4
BIGFONT
  0
ENDTAB
  0
TABLE
  2
VIEW
 70
     0
  0
ENDTAB
  0
ENDSEC
  0
SECTION
  2
BLOCKS
  0
ENDSEC
  0
SECTION
  2
ENTITIES
  0
TEXT
  8
0
 62
     7
 10
5.665761
 20
6.232337
 40
2.266304
 41
1.000000
  1
KHK SSA1.5-35J16
  7
KANJI
 50
0.000000
 51
0.000000
  0
TEXT
  8
0
 62
     7
 10
5.665761
 20
2.832880
 40
2.266304
 41
1.000000
  1
The precision grade of gears after secondary operations is equivalent but not identical to its original grade.
  7
KANJI
 50
0.000000
 51
0.000000
  0
TEXT
  8
0
 62
     7
 10
5.665761
 20
101.983696
 40
2.549592
 41
1.000000
  1
For J Series products, without black oxide repeatedly applied on secondary-operated parts.
  7
KANJI
 50
0.000000
 51
0.000000
  0
POLYLINE
  8
0
 62
     7
 66
     1
 70
     2
  0
VERTEX
  8
0
 10
135.978256
 20
101.983696
  0
VERTEX
  8
0
 10
133.768616
 20
105.813751
  0
VERTEX
  8
0
 10
142.607193
 20
105.813751
  0
VERTEX
  8
0
 10
140.397552
 20
101.983696
  0
VERTEX
  8
0
 10
138.187897
 20
105.813751
  0
VERTEX
  8
0
 10
135.978256
 20
101.983696
  0
SEQEND
  0
LINE
  8
0
 62
     5
 10
83.270386
 20
74.504761
 11
83.270386
 21
19.004757
  0
POLYLINE
  8
0
 62
     5
 66
     1
 70
     2
  0
VERTEX
  8
0
 10
83.836960
 20
72.521744
  0
VERTEX
  8
0
 10
83.270386
 20
74.504761
  0
VERTEX
  8
0
 10
82.703804
 20
72.521744
  0
SEQEND
  0
POLYLINE
  8
0
 62
     5
 66
     1
 70
     2
  0
VERTEX
  8
0
 10
82.703804
 20
20.987774
  0
VERTEX
  8
0
 10
83.270386
 20
19.004757
  0
VERTEX
  8
0
 10
83.836960
 20
20.987774
  0
SEQEND
  0
LINE
  8
0
 62
     5
 10
62.873642
 20
74.504761
 11
84.120247
 21
74.504761
  0
LINE
  8
0
 62
     5
 10
62.873642
 20
19.004757
 11
84.120247
 21
19.004757
  0
TEXT
  8
0
 62
     7
 10
82.703804
 20
41.584751
 40
2.832880
 41
1.000000
  1
%%c55.5
  7
KANJI
 50
90.000000
 51
0.000000
  0
LINE
  8
0
 62
     5
 10
47.873642
 20
85.836273
 11
62.873642
 21
85.836273
  0
POLYLINE
  8
0
 62
     5
 66
     1
 70
     2
  0
VERTEX
  8
0
 10
49.856659
 20
86.402855
  0
VERTEX
  8
0
 10
47.873642
 20
85.836273
  0
VERTEX
  8
0
 10
49.856659
 20
85.269699
  0
SEQEND
  0
POLYLINE
  8
0
 62
     5
 66
     1
 70
     2
  0
VERTEX
  8
0
 10
60.890625
 20
85.269699
  0
VERTEX
  8
0
 10
62.873642
 20
85.836273
  0
VERTEX
  8
0
 10
60.890625
 20
86.402855
  0
SEQEND
  0
LINE
  8
0
 62
     5
 10
47.873642
 20
74.504761
 11
47.873642
 21
86.686142
  0
LINE
  8
0
 62
     5
 10
62.873642
 20
74.504761
 11
62.873642
 21
86.686142
  0
TEXT
  8
0
 62
     7
 10
53.532269
 20
86.289536
 40
2.832880
 41
1.000000
  1
15
  7
KANJI
 50
0.000000
 51
0.000000
  0
LINE
  8
DASHDOT
 62
     7
 10
46.173912
 20
73.004761
 11
64.573372
 21
73.004761
  0
LINE
  8
DASHDOT
 62
     7
 10
46.173912
 20
20.504757
 11
64.573372
 21
20.504757
  0
LINE
  8
DASHDOT
 62
     7
 10
46.173912
 20
46.754757
 11
64.573372
 21
46.754757
  0
LINE
  8
0
 62
     5
 10
62.373642
 20
19.004757
 11
62.873642
 21
19.004757
  0
LINE
  8
0
 62
     5
 10
62.373642
 20
74.504761
 11
62.873642
 21
74.504761
  0
LINE
  8
0
 62
     5
 10
62.873642
 20
74.004761
 11
62.873642
 21
74.504761
  0
LINE
  8
0
 62
     5
 10
47.873642
 20
74.004761
 11
47.873642
 21
74.504761
  0
LINE
  8
0
 62
     4
 10
47.873642
 20
71.129761
 11
62.873642
 21
71.129761
  0
LINE
  8
0
 62
     4
 10
47.873642
 20
22.379757
 11
62.873642
 21
22.379757
  0
LINE
  8
0
 62
     4
 10
62.873642
 20
55.254757
 11
62.373642
 21
54.754757
  0
LINE
  8
0
 62
     4
 10
62.873642
 20
38.254757
 11
62.373642
 21
38.754757
  0
LINE
  8
0
 62
     4
 10
47.873642
 20
38.254757
 11
48.373642
 21
38.754757
  0
POLYLINE
  8
0
 62
     4
 66
     1
 70
     2
  0
VERTEX
  8
0
 10
47.873642
 20
38.254757
  0
VERTEX
  8
0
 10
47.873642
 20
19.504757
  0
VERTEX
  8
0
 10
48.373642
 20
19.004757
  0
VERTEX
  8
0
 10
62.373642
 20
19.004757
  0
VERTEX
  8
0
 10
62.873642
 20
19.504757
  0
VERTEX
  8
0
 10
62.873642
 20
74.004761
  0
VERTEX
  8
0
 10
62.373642
 20
74.504761
  0
VERTEX
  8
0
 10
48.373642
 20
74.504761
  0
VERTEX
  8
0
 10
47.873642
 20
74.004761
  0
VERTEX
  8
0
 10
47.873642
 20
38.254757
  0
SEQEND
  0
POLYLINE
  8
0
 62
     4
 66
     1
 70
     2
  0
VERTEX
  8
0
 10
47.873642
 20
55.254757
  0
VERTEX
  8
0
 10
48.373642
 20
54.754757
  0
VERTEX
  8
0
 10
48.373642
 20
38.754757
  0
VERTEX
  8
0
 10
62.373642
 20
38.754757
  0
VERTEX
  8
0
 10
62.373642
 20
54.754757
  0
VERTEX
  8
0
 10
48.373642
 20
54.754757
  0
SEQEND
  0
ARC
  8
0
 62
     4
 10
99.202446
 20
46.754757
 40
8.000000
 50
108.20995732853793
 51
71.79004267146207
  0
POLYLINE
  8
0
 62
     4
 66
     1
 70
     2
  0
VERTEX
  8
0
 10
101.702446
 20
54.354099
  0
VERTEX
  8
0
 10
101.702446
 20
57.054756
  0
VERTEX
  8
0
 10
96.702446
 20
57.054756
  0
VERTEX
  8
0
 10
96.702446
 20
54.354099
  0
SEQEND
  0
LINE
  8
0
 62
     4
 10
47.873642
 20
57.054756
 11
62.873642
 21
57.054756
  0
LINE
  8
DASHDOT
 62
     7
 10
99.202446
 20
58.754486
 11
99.202446
 21
37.055031
  0
LINE
  8
DASHDOT
 62
     7
 10
108.902176
 20
46.754757
 11
89.502716
 21
46.754757
  0
LINE
  8
0
 62
     5
 10
105.101898
 20
61.020790
 11
93.302994
 21
61.020790
  0
POLYLINE
  8
0
 62
     5
 66
     1
 70
     2
  0
VERTEX
  8
0
 10
94.719429
 20
60.454216
  0
VERTEX
  8
0
 10
96.702446
 20
61.020790
  0
VERTEX
  8
0
 10
94.719429
 20
61.587364
  0
SEQEND
  0
POLYLINE
  8
0
 62
     5
 66
     1
 70
     2
  0
VERTEX
  8
0
 10
103.685463
 20
61.587364
  0
VERTEX
  8
0
 10
101.702446
 20
61.020790
  0
VERTEX
  8
0
 10
103.685463
 20
60.454216
  0
SEQEND
  0
LINE
  8
0
 62
     5
 10
96.702446
 20
57.054756
 11
96.702446
 21
61.870655
  0
LINE
  8
0
 62
     5
 10
101.702446
 20
57.054756
 11
101.702446
 21
61.870655
  0
TEXT
  8
0
 62
     7
 10
93.354820
 20
61.587364
 40
2.832880
 41
1.000000
  1
5
  7
KANJI
 50
0.000000
 51
0.000000
  0
TEXT
  8
0
 62
     7
 10
96.159027
 20
61.587364
 40
2.266304
 41
1.000000
  1
%%p0.015
  7
KANJI
 50
0.000000
 51
0.000000
  0
LINE
  8
0
 62
     5
 10
121.532608
 20
57.054756
 11
121.532608
 21
38.754757
  0
POLYLINE
  8
0
 62
     5
 66
     1
 70
     2
  0
VERTEX
  8
0
 10
122.099182
 20
55.071739
  0
VERTEX
  8
0
 10
121.532608
 20
57.054756
  0
VERTEX
  8
0
 10
120.966034
 20
55.071739
  0
SEQEND
  0
POLYLINE
  8
0
 62
     5
 66
     1
 70
     2
  0
VERTEX
  8
0
 10
120.966034
 20
40.737774
  0
VERTEX
  8
0
 10
121.532608
 20
38.754757
  0
VERTEX
  8
0
 10
122.099182
 20
40.737774
  0
SEQEND
  0
LINE
  8
0
 62
     5
 10
101.702446
 20
57.054756
 11
122.382469
 21
57.054756
  0
LINE
  8
0
 62
     5
 10
99.202446
 20
38.754757
 11
122.382469
 21
38.754757
  0
TEXT
  8
0
 62
     7
 10
120.682747
 20
37.997200
 40
2.832880
 41
1.000000
  1
18.3
  7
KANJI
 50
90.000000
 51
0.000000
  0
TEXT
  8
0
 62
     7
 10
120.852715
 20
50.259029
 40
1.416440
 41
1.000000
  1
 
  7
KANJI
 50
90.000000
 51
0.000000
  0
TEXT
  8
0
 62
     7
 10
119.096329
 20
50.259029
 40
1.416440
 41
1.000000
  1
+
  7
KANJI
 50
90.000000
 51
0.000000
  0
TEXT
  8
0
 62
     7
 10
120.852715
 20
51.845440
 40
1.416440
 41
1.000000
  1
0
  7
KANJI
 50
90.000000
 51
0.000000
  0
TEXT
  8
0
 62
     7
 10
119.096329
 20
51.845440
 40
1.416440
 41
1.000000
  1
0.1
  7
KANJI
 50
90.000000
 51
0.000000
  0
LINE
  8
0
 62
     5
 10
74.205162
 20
54.754757
 11
74.205162
 21
38.754757
  0
POLYLINE
  8
0
 62
     5
 66
     1
 70
     2
  0
VERTEX
  8
0
 10
73.638588
 20
40.737774
  0
VERTEX
  8
0
 10
74.205162
 20
38.754757
  0
VERTEX
  8
0
 10
74.771744
 20
40.737774
  0
SEQEND
  0
LINE
  8
0
 62
     5
 10
62.873642
 20
38.754757
 11
75.055031
 21
38.754757
  0
TEXT
  8
0
 62
     7
 10
73.638588
 20
41.584751
 40
2.832880
 41
1.000000
  1
%%c16H7
  7
KANJI
 50
90.000000
 51
0.000000
  0
ENDSEC
  0
EOF
