  0
SECTION
  2
HEADER
  9
$ACADVER
  1
AC1003
  9
$INSBASE
 10
0.000000
 20
0.000000
  9
$EXTMIN
 10
0.000000
 20
0.000000
  9
$EXTMAX
 10
305.755435
 20
211.426630
  9
$LIMMIN
 10
0.000000
 20
0.000000
  9
$LIMMAX
 10
305.755435
 20
211.426630
  9
$VIEWCTR
 10
152.877717
 20
105.713315
  9
$VIEWSIZE
 40
211.426630
  0
ENDSEC
  0
SECTION
  2
TABLES
  0
TABLE
  2
LTYPE
 70
     4
  0
LTYPE
  2
CONTINUOUS
 70
    64
  3
SolidLine
 72
    65
 73
     0
 40
0.0
  0
LTYPE
  2
HIDDEN
 70
    64
  3
------------------------
 72
    65
 73
     2
 40
3.252717
 49
2.168478
 49
-1.084239
  0
LTYPE
  2
DASHDOT
 70
    64
  3
--?--?--?--?--?--?--?--
 72
    65
 73
     4
 40
13.010870
 49
9.758152
 49
-1.084239
 49
1.084239
 49
-1.084239
  0
LTYPE
  2
DIVIDE
 70
    64
  3
--??--??--??--??--??--
 72
    65
 73
     6
 40
16.263587
 49
10.842391
 49
-1.084239
 49
1.084239
 49
-1.084239
 49
1.084239
 49
-1.084239
  0
ENDTAB
  0
TABLE
  2
LAYER
 70
     5
  0
LAYER
  2
0
 70
    64
 62
     7
  6
CONTINUOUS
  0
LAYER
  2
HIDDEN
 70
    64
 62
     2
  6
HIDDEN
  0
LAYER
  2
DASHDOT
 70
    64
 62
     6
  6
DASHDOT
  0
LAYER
  2
DIVIDE
 70
    64
 62
     5
  6
DIVIDE
  0
ENDTAB
  0
TABLE
  2
STYLE
 70
     1
  0
STYLE
  2
STANDARD
 70
    64
 40
0.0
 41
1.0
 50
0.0
 71
     0
 42
0.2
  3
TXT
  4

  0
STYLE
  2
KANJI
 70
    64
 40
0.0
 41
1.0
 50
0.0
 71
     0
 42
0.2
  3
TXT
  4
BIGFONT
  0
ENDTAB
  0
TABLE
  2
VIEW
 70
     0
  0
ENDTAB
  0
ENDSEC
  0
SECTION
  2
BLOCKS
  0
ENDSEC
  0
SECTION
  2
ENTITIES
  0
TEXT
  8
0
 62
     7
 10
10.842391
 20
11.926630
 40
4.336957
 41
1.000000
  1
KHK SSA1-100J10
  7
KANJI
 50
0.000000
 51
0.000000
  0
TEXT
  8
0
 62
     7
 10
10.842391
 20
5.421196
 40
4.336957
 41
1.000000
  1
The precision grade of gears after secondary operations is equivalent but not identical to its original grade.
  7
KANJI
 50
0.000000
 51
0.000000
  0
TEXT
  8
0
 62
     7
 10
10.842391
 20
195.163040
 40
4.879076
 41
1.000000
  1
For J Series products, without black oxide repeatedly applied on secondary-operated parts.
  7
KANJI
 50
0.000000
 51
0.000000
  0
POLYLINE
  8
0
 62
     7
 66
     1
 70
     2
  0
VERTEX
  8
0
 10
260.217377
 20
195.163040
  0
VERTEX
  8
0
 10
255.988846
 20
202.492493
  0
VERTEX
  8
0
 10
272.902985
 20
202.492493
  0
VERTEX
  8
0
 10
268.674438
 20
195.163040
  0
VERTEX
  8
0
 10
264.445923
 20
202.492493
  0
VERTEX
  8
0
 10
260.217377
 20
195.163040
  0
SEQEND
  0
LINE
  8
0
 62
     5
 10
156.546204
 20
142.577454
 11
156.546204
 21
40.577454
  0
POLYLINE
  8
0
 62
     5
 66
     1
 70
     2
  0
VERTEX
  8
0
 10
157.630432
 20
138.782623
  0
VERTEX
  8
0
 10
156.546204
 20
142.577454
  0
VERTEX
  8
0
 10
155.461960
 20
138.782623
  0
SEQEND
  0
POLYLINE
  8
0
 62
     5
 66
     1
 70
     2
  0
VERTEX
  8
0
 10
155.461960
 20
44.372292
  0
VERTEX
  8
0
 10
156.546204
 20
40.577454
  0
VERTEX
  8
0
 10
157.630432
 20
44.372292
  0
SEQEND
  0
LINE
  8
0
 62
     5
 10
117.513588
 20
142.577454
 11
158.172546
 21
142.577454
  0
LINE
  8
0
 62
     5
 10
117.513588
 20
40.577454
 11
158.172546
 21
40.577454
  0
TEXT
  8
0
 62
     7
 10
155.461960
 20
83.445663
 40
5.421196
 41
1.000000
  1
%%c102
  7
KANJI
 50
90.000000
 51
0.000000
  0
LINE
  8
0
 62
     5
 10
124.019020
 20
164.262238
 11
101.008156
 21
164.262238
  0
POLYLINE
  8
0
 62
     5
 66
     1
 70
     2
  0
VERTEX
  8
0
 10
103.718750
 20
163.178009
  0
VERTEX
  8
0
 10
107.513588
 20
164.262238
  0
VERTEX
  8
0
 10
103.718750
 20
165.346466
  0
SEQEND
  0
POLYLINE
  8
0
 62
     5
 66
     1
 70
     2
  0
VERTEX
  8
0
 10
121.308426
 20
165.346466
  0
VERTEX
  8
0
 10
117.513588
 20
164.262238
  0
VERTEX
  8
0
 10
121.308426
 20
163.178009
  0
SEQEND
  0
LINE
  8
0
 62
     5
 10
107.513588
 20
142.577454
 11
107.513588
 21
165.888596
  0
LINE
  8
0
 62
     5
 10
117.513588
 20
142.577454
 11
117.513588
 21
165.888596
  0
TEXT
  8
0
 62
     7
 10
108.989807
 20
165.129639
 40
5.421196
 41
1.000000
  1
10
  7
KANJI
 50
0.000000
 51
0.000000
  0
LINE
  8
DASHDOT
 62
     7
 10
104.260872
 20
141.577454
 11
120.766304
 21
141.577454
  0
LINE
  8
DASHDOT
 62
     7
 10
104.260872
 20
41.577454
 11
120.766304
 21
41.577454
  0
LINE
  8
DASHDOT
 62
     7
 10
104.260872
 20
91.577454
 11
120.766304
 21
91.577454
  0
LINE
  8
0
 62
     5
 10
117.013588
 20
40.577454
 11
117.513588
 21
40.577454
  0
LINE
  8
0
 62
     5
 10
117.013588
 20
142.577454
 11
117.513588
 21
142.577454
  0
LINE
  8
0
 62
     5
 10
117.513588
 20
142.077454
 11
117.513588
 21
142.577454
  0
LINE
  8
0
 62
     5
 10
107.513588
 20
142.077454
 11
107.513588
 21
142.577454
  0
LINE
  8
0
 62
     4
 10
107.513588
 20
140.327454
 11
117.513588
 21
140.327454
  0
LINE
  8
0
 62
     4
 10
107.513588
 20
42.827454
 11
117.513588
 21
42.827454
  0
LINE
  8
0
 62
     4
 10
117.513588
 20
97.077454
 11
117.013588
 21
96.577454
  0
LINE
  8
0
 62
     4
 10
117.513588
 20
86.077454
 11
117.013588
 21
86.577454
  0
LINE
  8
0
 62
     4
 10
107.513588
 20
86.077454
 11
108.013588
 21
86.577454
  0
POLYLINE
  8
0
 62
     4
 66
     1
 70
     2
  0
VERTEX
  8
0
 10
107.513588
 20
86.077454
  0
VERTEX
  8
0
 10
107.513588
 20
41.077454
  0
VERTEX
  8
0
 10
108.013588
 20
40.577454
  0
VERTEX
  8
0
 10
117.013588
 20
40.577454
  0
VERTEX
  8
0
 10
117.513588
 20
41.077454
  0
VERTEX
  8
0
 10
117.513588
 20
142.077454
  0
VERTEX
  8
0
 10
117.013588
 20
142.577454
  0
VERTEX
  8
0
 10
108.013588
 20
142.577454
  0
VERTEX
  8
0
 10
107.513588
 20
142.077454
  0
VERTEX
  8
0
 10
107.513588
 20
86.077454
  0
SEQEND
  0
POLYLINE
  8
0
 62
     4
 66
     1
 70
     2
  0
VERTEX
  8
0
 10
107.513588
 20
97.077454
  0
VERTEX
  8
0
 10
108.013588
 20
96.577454
  0
VERTEX
  8
0
 10
108.013588
 20
86.577454
  0
VERTEX
  8
0
 10
117.013588
 20
86.577454
  0
VERTEX
  8
0
 10
117.013588
 20
96.577454
  0
VERTEX
  8
0
 10
108.013588
 20
96.577454
  0
SEQEND
  0
ARC
  8
0
 62
     4
 10
176.725555
 20
91.577454
 40
5.000000
 50
113.5781780057233
 51
66.4218219942767
  0
POLYLINE
  8
0
 62
     4
 66
     1
 70
     2
  0
VERTEX
  8
0
 10
178.725555
 20
96.160027
  0
VERTEX
  8
0
 10
178.725555
 20
98.377457
  0
VERTEX
  8
0
 10
174.725555
 20
98.377457
  0
VERTEX
  8
0
 10
174.725555
 20
96.160027
  0
SEQEND
  0
LINE
  8
0
 62
     4
 10
107.513588
 20
98.377457
 11
117.513588
 21
98.377457
  0
LINE
  8
DASHDOT
 62
     7
 10
176.725555
 20
101.630173
 11
176.725555
 21
83.324738
  0
LINE
  8
DASHDOT
 62
     7
 10
184.978271
 20
91.577454
 11
168.472824
 21
91.577454
  0
LINE
  8
0
 62
     5
 10
185.230988
 20
105.967125
 11
168.220108
 21
105.967125
  0
POLYLINE
  8
0
 62
     5
 66
     1
 70
     2
  0
VERTEX
  8
0
 10
170.930710
 20
104.882889
  0
VERTEX
  8
0
 10
174.725555
 20
105.967125
  0
VERTEX
  8
0
 10
170.930710
 20
107.051369
  0
SEQEND
  0
POLYLINE
  8
0
 62
     5
 66
     1
 70
     2
  0
VERTEX
  8
0
 10
182.520386
 20
107.051369
  0
VERTEX
  8
0
 10
178.725555
 20
105.967125
  0
VERTEX
  8
0
 10
182.520386
 20
104.882889
  0
SEQEND
  0
LINE
  8
0
 62
     5
 10
174.725555
 20
98.377457
 11
174.725555
 21
107.593491
  0
LINE
  8
0
 62
     5
 10
178.725555
 20
98.377457
 11
178.725555
 21
107.593491
  0
TEXT
  8
0
 62
     7
 10
165.535126
 20
107.051369
 40
5.421196
 41
1.000000
  1
4
  7
KANJI
 50
0.000000
 51
0.000000
  0
TEXT
  8
0
 62
     7
 10
170.901443
 20
107.051369
 40
4.336957
 41
1.000000
  1
%%p0.015
  7
KANJI
 50
0.000000
 51
0.000000
  0
LINE
  8
0
 62
     5
 10
216.673920
 20
80.072021
 11
216.673920
 21
104.882889
  0
POLYLINE
  8
0
 62
     5
 66
     1
 70
     2
  0
VERTEX
  8
0
 10
215.589676
 20
102.172287
  0
VERTEX
  8
0
 10
216.673920
 20
98.377457
  0
VERTEX
  8
0
 10
217.758148
 20
102.172287
  0
SEQEND
  0
POLYLINE
  8
0
 62
     5
 66
     1
 70
     2
  0
VERTEX
  8
0
 10
217.758148
 20
82.782616
  0
VERTEX
  8
0
 10
216.673920
 20
86.577454
  0
VERTEX
  8
0
 10
215.589676
 20
82.782616
  0
SEQEND
  0
LINE
  8
0
 62
     5
 10
178.725555
 20
98.377457
 11
218.300262
 21
98.377457
  0
LINE
  8
0
 62
     5
 10
176.725555
 20
86.577454
 11
218.300262
 21
86.577454
  0
TEXT
  8
0
 62
     7
 10
215.047546
 20
75.839684
 40
5.421196
 41
1.000000
  1
11.8
  7
KANJI
 50
90.000000
 51
0.000000
  0
TEXT
  8
0
 62
     7
 10
215.372833
 20
99.304764
 40
2.710598
 41
1.000000
  1
 
  7
KANJI
 50
90.000000
 51
0.000000
  0
TEXT
  8
0
 62
     7
 10
212.011688
 20
99.304764
 40
2.710598
 41
1.000000
  1
+
  7
KANJI
 50
90.000000
 51
0.000000
  0
TEXT
  8
0
 62
     7
 10
215.372833
 20
102.340630
 40
2.710598
 41
1.000000
  1
0
  7
KANJI
 50
90.000000
 51
0.000000
  0
TEXT
  8
0
 62
     7
 10
212.011688
 20
102.340630
 40
2.710598
 41
1.000000
  1
0.1
  7
KANJI
 50
90.000000
 51
0.000000
  0
LINE
  8
0
 62
     5
 10
139.198364
 20
96.577454
 11
139.198364
 21
86.577454
  0
POLYLINE
  8
0
 62
     5
 66
     1
 70
     2
  0
VERTEX
  8
0
 10
138.114136
 20
90.372292
  0
VERTEX
  8
0
 10
139.198364
 20
86.577454
  0
VERTEX
  8
0
 10
140.282608
 20
90.372292
  0
SEQEND
  0
LINE
  8
0
 62
     5
 10
117.513588
 20
86.577454
 11
140.824738
 21
86.577454
  0
TEXT
  8
0
 62
     7
 10
138.114136
 20
81.683769
 40
5.421196
 41
1.000000
  1
%%c10H7
  7
KANJI
 50
90.000000
 51
0.000000
  0
ENDSEC
  0
EOF
