  0
SECTION
  2
HEADER
  9
$ACADVER
  1
AC1003
  9
$INSBASE
 10
0.000000
 20
0.000000
  9
$EXTMIN
 10
0.000000
 20
0.000000
  9
$EXTMAX
 10
170.119565
 20
117.635870
  9
$LIMMIN
 10
0.000000
 20
0.000000
  9
$LIMMAX
 10
170.119565
 20
117.635870
  9
$VIEWCTR
 10
85.059783
 20
58.817935
  9
$VIEWSIZE
 40
117.635870
  0
ENDSEC
  0
SECTION
  2
TABLES
  0
TABLE
  2
LTYPE
 70
     4
  0
LTYPE
  2
CONTINUOUS
 70
    64
  3
SolidLine
 72
    65
 73
     0
 40
0.0
  0
LTYPE
  2
HIDDEN
 70
    64
  3
------------------------
 72
    65
 73
     2
 40
1.809783
 49
1.206522
 49
-0.603261
  0
LTYPE
  2
DASHDOT
 70
    64
  3
--?--?--?--?--?--?--?--
 72
    65
 73
     4
 40
7.239130
 49
5.429348
 49
-0.603261
 49
0.603261
 49
-0.603261
  0
LTYPE
  2
DIVIDE
 70
    64
  3
--??--??--??--??--??--
 72
    65
 73
     6
 40
9.048913
 49
6.032609
 49
-0.603261
 49
0.603261
 49
-0.603261
 49
0.603261
 49
-0.603261
  0
ENDTAB
  0
TABLE
  2
LAYER
 70
     5
  0
LAYER
  2
0
 70
    64
 62
     7
  6
CONTINUOUS
  0
LAYER
  2
HIDDEN
 70
    64
 62
     2
  6
HIDDEN
  0
LAYER
  2
DASHDOT
 70
    64
 62
     6
  6
DASHDOT
  0
LAYER
  2
DIVIDE
 70
    64
 62
     5
  6
DIVIDE
  0
ENDTAB
  0
TABLE
  2
STYLE
 70
     1
  0
STYLE
  2
STANDARD
 70
    64
 40
0.0
 41
1.0
 50
0.0
 71
     0
 42
0.2
  3
TXT
  4

  0
STYLE
  2
KANJI
 70
    64
 40
0.0
 41
1.0
 50
0.0
 71
     0
 42
0.2
  3
TXT
  4
BIGFONT
  0
ENDTAB
  0
TABLE
  2
VIEW
 70
     0
  0
ENDTAB
  0
ENDSEC
  0
SECTION
  2
BLOCKS
  0
ENDSEC
  0
SECTION
  2
ENTITIES
  0
TEXT
  8
0
 62
     7
 10
6.032609
 20
6.635870
 40
2.413043
 41
1.000000
  1
KHK SSA2-28
  7
KANJI
 50
0.000000
 51
0.000000
  0
TEXT
  8
0
 62
     7
 10
6.032609
 20
3.016304
 40
2.413043
 41
1.000000
  1

  7
KANJI
 50
0.000000
 51
0.000000
  0
TEXT
  8
0
 62
     7
 10
6.032609
 20
108.586960
 40
2.714674
 41
1.000000
  1
Black oxide
  7
KANJI
 50
0.000000
 51
0.000000
  0
POLYLINE
  8
0
 62
     7
 66
     1
 70
     2
  0
VERTEX
  8
0
 10
144.782608
 20
108.586960
  0
VERTEX
  8
0
 10
142.429886
 20
112.665001
  0
VERTEX
  8
0
 10
151.840759
 20
112.665001
  0
VERTEX
  8
0
 10
149.488037
 20
108.586960
  0
VERTEX
  8
0
 10
147.135330
 20
112.665001
  0
VERTEX
  8
0
 10
144.782608
 20
108.586960
  0
SEQEND
  0
LINE
  8
0
 62
     5
 10
92.516304
 20
79.328804
 11
92.516304
 21
19.328804
  0
POLYLINE
  8
0
 62
     5
 66
     1
 70
     2
  0
VERTEX
  8
0
 10
93.119568
 20
77.217392
  0
VERTEX
  8
0
 10
92.516304
 20
79.328804
  0
VERTEX
  8
0
 10
91.913040
 20
77.217392
  0
SEQEND
  0
POLYLINE
  8
0
 62
     5
 66
     1
 70
     2
  0
VERTEX
  8
0
 10
91.913040
 20
21.440216
  0
VERTEX
  8
0
 10
92.516304
 20
19.328804
  0
VERTEX
  8
0
 10
93.119568
 20
21.440216
  0
SEQEND
  0
LINE
  8
0
 62
     5
 10
70.798912
 20
79.328804
 11
93.421196
 21
79.328804
  0
LINE
  8
0
 62
     5
 10
70.798912
 20
19.328804
 11
93.421196
 21
19.328804
  0
TEXT
  8
0
 62
     7
 10
91.913040
 20
45.784645
 40
3.016304
 41
1.000000
  1
%%c60
  7
KANJI
 50
90.000000
 51
0.000000
  0
LINE
  8
0
 62
     5
 10
50.798912
 20
91.394020
 11
70.798912
 21
91.394020
  0
POLYLINE
  8
0
 62
     5
 66
     1
 70
     2
  0
VERTEX
  8
0
 10
52.910324
 20
91.997284
  0
VERTEX
  8
0
 10
50.798912
 20
91.394020
  0
VERTEX
  8
0
 10
52.910324
 20
90.790756
  0
SEQEND
  0
POLYLINE
  8
0
 62
     5
 66
     1
 70
     2
  0
VERTEX
  8
0
 10
68.687500
 20
90.790756
  0
VERTEX
  8
0
 10
70.798912
 20
91.394020
  0
VERTEX
  8
0
 10
68.687500
 20
91.997284
  0
SEQEND
  0
LINE
  8
0
 62
     5
 10
50.798912
 20
79.328804
 11
50.798912
 21
92.298912
  0
LINE
  8
0
 62
     5
 10
70.798912
 20
79.328804
 11
70.798912
 21
92.298912
  0
TEXT
  8
0
 62
     7
 10
58.838314
 20
91.876633
 40
3.016304
 41
1.000000
  1
20
  7
KANJI
 50
0.000000
 51
0.000000
  0
LINE
  8
DASHDOT
 62
     7
 10
48.989128
 20
77.328804
 11
72.608696
 21
77.328804
  0
LINE
  8
DASHDOT
 62
     7
 10
48.989128
 20
21.328804
 11
72.608696
 21
21.328804
  0
LINE
  8
DASHDOT
 62
     7
 10
48.989128
 20
49.328804
 11
72.608696
 21
49.328804
  0
LINE
  8
0
 62
     5
 10
70.298912
 20
19.328804
 11
70.798912
 21
19.328804
  0
LINE
  8
0
 62
     5
 10
70.298912
 20
79.328804
 11
70.798912
 21
79.328804
  0
LINE
  8
0
 62
     5
 10
70.798912
 20
78.828804
 11
70.798912
 21
79.328804
  0
LINE
  8
0
 62
     5
 10
50.798912
 20
78.828804
 11
50.798912
 21
79.328804
  0
LINE
  8
0
 62
     4
 10
50.798912
 20
74.828804
 11
70.798912
 21
74.828804
  0
LINE
  8
0
 62
     4
 10
50.798912
 20
23.828804
 11
70.798912
 21
23.828804
  0
LINE
  8
0
 62
     4
 10
70.798912
 20
57.328804
 11
70.298912
 21
56.828804
  0
LINE
  8
0
 62
     4
 10
70.798912
 20
41.328804
 11
70.298912
 21
41.828804
  0
LINE
  8
0
 62
     4
 10
50.798912
 20
41.328804
 11
51.298912
 21
41.828804
  0
POLYLINE
  8
0
 62
     4
 66
     1
 70
     2
  0
VERTEX
  8
0
 10
50.798912
 20
41.328804
  0
VERTEX
  8
0
 10
50.798912
 20
19.828804
  0
VERTEX
  8
0
 10
51.298912
 20
19.328804
  0
VERTEX
  8
0
 10
70.298912
 20
19.328804
  0
VERTEX
  8
0
 10
70.798912
 20
19.828804
  0
VERTEX
  8
0
 10
70.798912
 20
78.828804
  0
VERTEX
  8
0
 10
70.298912
 20
79.328804
  0
VERTEX
  8
0
 10
51.298912
 20
79.328804
  0
VERTEX
  8
0
 10
50.798912
 20
78.828804
  0
VERTEX
  8
0
 10
50.798912
 20
41.328804
  0
SEQEND
  0
POLYLINE
  8
0
 62
     4
 66
     1
 70
     2
  0
VERTEX
  8
0
 10
50.798912
 20
57.328804
  0
VERTEX
  8
0
 10
51.298912
 20
56.828804
  0
VERTEX
  8
0
 10
51.298912
 20
41.828804
  0
VERTEX
  8
0
 10
70.298912
 20
41.828804
  0
VERTEX
  8
0
 10
70.298912
 20
56.828804
  0
VERTEX
  8
0
 10
51.298912
 20
56.828804
  0
SEQEND
  0
LINE
  8
0
 62
     5
 10
82.864128
 20
38.209240
 11
82.864128
 21
60.448368
  0
POLYLINE
  8
0
 62
     5
 66
     1
 70
     2
  0
VERTEX
  8
0
 10
82.260864
 20
58.940216
  0
VERTEX
  8
0
 10
82.864128
 20
56.828804
  0
VERTEX
  8
0
 10
83.467392
 20
58.940216
  0
SEQEND
  0
POLYLINE
  8
0
 62
     5
 66
     1
 70
     2
  0
VERTEX
  8
0
 10
83.467392
 20
39.717392
  0
VERTEX
  8
0
 10
82.864128
 20
41.828804
  0
VERTEX
  8
0
 10
82.260864
 20
39.717392
  0
SEQEND
  0
LINE
  8
0
 62
     5
 10
70.798912
 20
56.828804
 11
83.769020
 21
56.828804
  0
LINE
  8
0
 62
     5
 10
70.798912
 20
41.828804
 11
83.769020
 21
41.828804
  0
TEXT
  8
0
 62
     7
 10
82.260864
 20
43.824051
 40
3.016304
 41
1.000000
  1
%%c15H7
  7
KANJI
 50
90.000000
 51
0.000000
  0
ENDSEC
  0
EOF
