  0
SECTION
  2
HEADER
  9
$ACADVER
  1
AC1003
  9
$INSBASE
 10
0.000000
 20
0.000000
  9
$EXTMIN
 10
0.000000
 20
0.000000
  9
$EXTMAX
 10
212.649457
 20
147.044837
  9
$LIMMIN
 10
0.000000
 20
0.000000
  9
$LIMMAX
 10
212.649457
 20
147.044837
  9
$VIEWCTR
 10
106.324728
 20
73.522418
  9
$VIEWSIZE
 40
147.044837
  0
ENDSEC
  0
SECTION
  2
TABLES
  0
TABLE
  2
LTYPE
 70
     4
  0
LTYPE
  2
CONTINUOUS
 70
    64
  3
SolidLine
 72
    65
 73
     0
 40
0.0
  0
LTYPE
  2
HIDDEN
 70
    64
  3
------------------------
 72
    65
 73
     2
 40
2.262228
 49
1.508152
 49
-0.754076
  0
LTYPE
  2
DASHDOT
 70
    64
  3
--?--?--?--?--?--?--?--
 72
    65
 73
     4
 40
9.048913
 49
6.786685
 49
-0.754076
 49
0.754076
 49
-0.754076
  0
LTYPE
  2
DIVIDE
 70
    64
  3
--??--??--??--??--??--
 72
    65
 73
     6
 40
11.311141
 49
7.540761
 49
-0.754076
 49
0.754076
 49
-0.754076
 49
0.754076
 49
-0.754076
  0
ENDTAB
  0
TABLE
  2
LAYER
 70
     5
  0
LAYER
  2
0
 70
    64
 62
     7
  6
CONTINUOUS
  0
LAYER
  2
HIDDEN
 70
    64
 62
     2
  6
HIDDEN
  0
LAYER
  2
DASHDOT
 70
    64
 62
     6
  6
DASHDOT
  0
LAYER
  2
DIVIDE
 70
    64
 62
     5
  6
DIVIDE
  0
ENDTAB
  0
TABLE
  2
STYLE
 70
     1
  0
STYLE
  2
STANDARD
 70
    64
 40
0.0
 41
1.0
 50
0.0
 71
     0
 42
0.2
  3
TXT
  4

  0
STYLE
  2
KANJI
 70
    64
 40
0.0
 41
1.0
 50
0.0
 71
     0
 42
0.2
  3
TXT
  4
BIGFONT
  0
ENDTAB
  0
TABLE
  2
VIEW
 70
     0
  0
ENDTAB
  0
ENDSEC
  0
SECTION
  2
BLOCKS
  0
ENDSEC
  0
SECTION
  2
ENTITIES
  0
TEXT
  8
0
 62
     7
 10
7.540761
 20
8.294837
 40
3.016304
 41
1.000000
  1
KHK SSA2.5-28J19
  7
KANJI
 50
0.000000
 51
0.000000
  0
TEXT
  8
0
 62
     7
 10
7.540761
 20
3.770380
 40
3.016304
 41
1.000000
  1
The precision grade of gears after secondary operations is equivalent but not identical to its original grade.
  7
KANJI
 50
0.000000
 51
0.000000
  0
TEXT
  8
0
 62
     7
 10
7.540761
 20
135.733688
 40
3.393342
 41
1.000000
  1
For J Series products, without black oxide repeatedly applied on secondary-operated parts.
  7
KANJI
 50
0.000000
 51
0.000000
  0
POLYLINE
  8
0
 62
     7
 66
     1
 70
     2
  0
VERTEX
  8
0
 10
180.978256
 20
135.733688
  0
VERTEX
  8
0
 10
178.037354
 20
140.831238
  0
VERTEX
  8
0
 10
189.800949
 20
140.831238
  0
VERTEX
  8
0
 10
186.860046
 20
135.733688
  0
VERTEX
  8
0
 10
183.919159
 20
140.831238
  0
VERTEX
  8
0
 10
180.978256
 20
135.733688
  0
SEQEND
  0
LINE
  8
0
 62
     5
 10
114.082886
 20
99.161003
 11
114.082886
 21
24.161003
  0
POLYLINE
  8
0
 62
     5
 66
     1
 70
     2
  0
VERTEX
  8
0
 10
114.836960
 20
96.521736
  0
VERTEX
  8
0
 10
114.082886
 20
99.161003
  0
VERTEX
  8
0
 10
113.328804
 20
96.521736
  0
SEQEND
  0
POLYLINE
  8
0
 62
     5
 66
     1
 70
     2
  0
VERTEX
  8
0
 10
113.328804
 20
26.800270
  0
VERTEX
  8
0
 10
114.082886
 20
24.161003
  0
VERTEX
  8
0
 10
114.836960
 20
26.800270
  0
SEQEND
  0
LINE
  8
0
 62
     5
 10
86.936142
 20
99.161003
 11
115.213997
 21
99.161003
  0
LINE
  8
0
 62
     5
 10
86.936142
 20
24.161003
 11
115.213997
 21
24.161003
  0
TEXT
  8
0
 62
     7
 10
113.328804
 20
57.230804
 40
3.770380
 41
1.000000
  1
%%c75
  7
KANJI
 50
90.000000
 51
0.000000
  0
LINE
  8
0
 62
     5
 10
61.936142
 20
114.242523
 11
86.936142
 21
114.242523
  0
POLYLINE
  8
0
 62
     5
 66
     1
 70
     2
  0
VERTEX
  8
0
 10
64.575409
 20
114.996597
  0
VERTEX
  8
0
 10
61.936142
 20
114.242523
  0
VERTEX
  8
0
 10
64.575409
 20
113.488449
  0
SEQEND
  0
POLYLINE
  8
0
 62
     5
 66
     1
 70
     2
  0
VERTEX
  8
0
 10
84.296875
 20
113.488449
  0
VERTEX
  8
0
 10
86.936142
 20
114.242523
  0
VERTEX
  8
0
 10
84.296875
 20
114.996597
  0
SEQEND
  0
LINE
  8
0
 62
     5
 10
61.936142
 20
99.161003
 11
61.936142
 21
115.373642
  0
LINE
  8
0
 62
     5
 10
86.936142
 20
99.161003
 11
86.936142
 21
115.373642
  0
TEXT
  8
0
 62
     7
 10
71.985397
 20
114.845779
 40
3.770380
 41
1.000000
  1
25
  7
KANJI
 50
0.000000
 51
0.000000
  0
LINE
  8
DASHDOT
 62
     7
 10
59.673912
 20
96.661003
 11
89.198372
 21
96.661003
  0
LINE
  8
DASHDOT
 62
     7
 10
59.673912
 20
26.661003
 11
89.198372
 21
26.661003
  0
LINE
  8
DASHDOT
 62
     7
 10
59.673912
 20
61.661003
 11
89.198372
 21
61.661003
  0
LINE
  8
0
 62
     5
 10
85.936142
 20
24.161003
 11
86.936142
 21
24.161003
  0
LINE
  8
0
 62
     5
 10
85.936142
 20
99.161003
 11
86.936142
 21
99.161003
  0
LINE
  8
0
 62
     5
 10
86.936142
 20
98.161003
 11
86.936142
 21
99.161003
  0
LINE
  8
0
 62
     5
 10
61.936142
 20
98.161003
 11
61.936142
 21
99.161003
  0
LINE
  8
0
 62
     4
 10
61.936142
 20
93.536003
 11
86.936142
 21
93.536003
  0
LINE
  8
0
 62
     4
 10
61.936142
 20
29.786003
 11
86.936142
 21
29.786003
  0
LINE
  8
0
 62
     4
 10
86.936142
 20
71.661003
 11
86.436142
 21
71.161003
  0
LINE
  8
0
 62
     4
 10
86.936142
 20
51.661003
 11
86.436142
 21
52.161003
  0
LINE
  8
0
 62
     4
 10
61.936142
 20
51.661003
 11
62.436142
 21
52.161003
  0
POLYLINE
  8
0
 62
     4
 66
     1
 70
     2
  0
VERTEX
  8
0
 10
61.936142
 20
51.661003
  0
VERTEX
  8
0
 10
61.936142
 20
25.161003
  0
VERTEX
  8
0
 10
62.936142
 20
24.161003
  0
VERTEX
  8
0
 10
85.936142
 20
24.161003
  0
VERTEX
  8
0
 10
86.936142
 20
25.161003
  0
VERTEX
  8
0
 10
86.936142
 20
98.161003
  0
VERTEX
  8
0
 10
85.936142
 20
99.161003
  0
VERTEX
  8
0
 10
62.936142
 20
99.161003
  0
VERTEX
  8
0
 10
61.936142
 20
98.161003
  0
VERTEX
  8
0
 10
61.936142
 20
51.661003
  0
SEQEND
  0
POLYLINE
  8
0
 62
     4
 66
     1
 70
     2
  0
VERTEX
  8
0
 10
61.936142
 20
71.661003
  0
VERTEX
  8
0
 10
62.436142
 20
71.161003
  0
VERTEX
  8
0
 10
62.436142
 20
52.161003
  0
VERTEX
  8
0
 10
86.436142
 20
52.161003
  0
VERTEX
  8
0
 10
86.436142
 20
71.161003
  0
VERTEX
  8
0
 10
62.436142
 20
71.161003
  0
SEQEND
  0
ARC
  8
0
 62
     4
 10
134.139954
 20
61.661003
 40
9.500000
 50
108.4084803259778
 51
71.5915196740222
  0
POLYLINE
  8
0
 62
     4
 66
     1
 70
     2
  0
VERTEX
  8
0
 10
137.139954
 20
70.674881
  0
VERTEX
  8
0
 10
137.139954
 20
73.961006
  0
VERTEX
  8
0
 10
131.139954
 20
73.961006
  0
VERTEX
  8
0
 10
131.139954
 20
70.674881
  0
SEQEND
  0
LINE
  8
0
 62
     4
 10
61.936142
 20
73.961006
 11
86.936142
 21
73.961006
  0
LINE
  8
DASHDOT
 62
     7
 10
134.139954
 20
76.223228
 11
134.139954
 21
49.898773
  0
LINE
  8
DASHDOT
 62
     7
 10
145.902176
 20
61.661003
 11
122.377716
 21
61.661003
  0
LINE
  8
0
 62
     5
 10
141.664398
 20
79.239532
 11
126.615486
 21
79.239532
  0
POLYLINE
  8
0
 62
     5
 66
     1
 70
     2
  0
VERTEX
  8
0
 10
128.500671
 20
78.485458
  0
VERTEX
  8
0
 10
131.139954
 20
79.239532
  0
VERTEX
  8
0
 10
128.500671
 20
79.993614
  0
SEQEND
  0
POLYLINE
  8
0
 62
     5
 66
     1
 70
     2
  0
VERTEX
  8
0
 10
139.779205
 20
79.993614
  0
VERTEX
  8
0
 10
137.139954
 20
79.239532
  0
VERTEX
  8
0
 10
139.779205
 20
78.485458
  0
SEQEND
  0
LINE
  8
0
 62
     5
 10
131.139954
 20
73.961006
 11
131.139954
 21
80.370651
  0
LINE
  8
0
 62
     5
 10
137.139954
 20
73.961006
 11
137.139954
 21
80.370651
  0
TEXT
  8
0
 62
     7
 10
126.357132
 20
79.993614
 40
3.770380
 41
1.000000
  1
6
  7
KANJI
 50
0.000000
 51
0.000000
  0
TEXT
  8
0
 62
     7
 10
130.089355
 20
79.993614
 40
3.016304
 41
1.000000
  1
%%p0.015
  7
KANJI
 50
0.000000
 51
0.000000
  0
LINE
  8
0
 62
     5
 10
163.532608
 20
73.961006
 11
163.532608
 21
52.161003
  0
POLYLINE
  8
0
 62
     5
 66
     1
 70
     2
  0
VERTEX
  8
0
 10
164.286682
 20
71.321739
  0
VERTEX
  8
0
 10
163.532608
 20
73.961006
  0
VERTEX
  8
0
 10
162.778534
 20
71.321739
  0
SEQEND
  0
POLYLINE
  8
0
 62
     5
 66
     1
 70
     2
  0
VERTEX
  8
0
 10
162.778534
 20
54.800270
  0
VERTEX
  8
0
 10
163.532608
 20
52.161003
  0
VERTEX
  8
0
 10
164.286682
 20
54.800270
  0
SEQEND
  0
LINE
  8
0
 62
     5
 10
137.139954
 20
73.961006
 11
164.663727
 21
73.961006
  0
LINE
  8
0
 62
     5
 10
134.139954
 20
52.161003
 11
164.663727
 21
52.161003
  0
TEXT
  8
0
 62
     7
 10
162.401489
 20
50.130299
 40
3.770380
 41
1.000000
  1
21.8
  7
KANJI
 50
90.000000
 51
0.000000
  0
TEXT
  8
0
 62
     7
 10
162.627716
 20
66.449997
 40
1.885190
 41
1.000000
  1
 
  7
KANJI
 50
90.000000
 51
0.000000
  0
TEXT
  8
0
 62
     7
 10
160.290070
 20
66.449997
 40
1.885190
 41
1.000000
  1
+
  7
KANJI
 50
90.000000
 51
0.000000
  0
TEXT
  8
0
 62
     7
 10
162.627716
 20
68.561409
 40
1.885190
 41
1.000000
  1
0
  7
KANJI
 50
90.000000
 51
0.000000
  0
TEXT
  8
0
 62
     7
 10
160.290070
 20
68.561409
 40
1.885190
 41
1.000000
  1
0.1
  7
KANJI
 50
90.000000
 51
0.000000
  0
LINE
  8
0
 62
     5
 10
102.017662
 20
71.161003
 11
102.017662
 21
52.161003
  0
POLYLINE
  8
0
 62
     5
 66
     1
 70
     2
  0
VERTEX
  8
0
 10
101.263580
 20
54.800270
  0
VERTEX
  8
0
 10
102.017662
 20
52.161003
  0
VERTEX
  8
0
 10
102.771744
 20
54.800270
  0
SEQEND
  0
LINE
  8
0
 62
     5
 10
86.936142
 20
52.161003
 11
103.148773
 21
52.161003
  0
TEXT
  8
0
 62
     7
 10
101.263580
 20
54.780060
 40
3.770380
 41
1.000000
  1
%%c19H7
  7
KANJI
 50
90.000000
 51
0.000000
  0
ENDSEC
  0
EOF
