  0
SECTION
  2
HEADER
  9
$ACADVER
  1
AC1003
  9
$INSBASE
 10
0.000000
 20
0.000000
  9
$EXTMIN
 10
0.000000
 20
0.000000
  9
$EXTMAX
 10
611.510870
 20
422.853261
  9
$LIMMIN
 10
0.000000
 20
0.000000
  9
$LIMMAX
 10
611.510870
 20
422.853261
  9
$VIEWCTR
 10
305.755435
 20
211.426630
  9
$VIEWSIZE
 40
422.853261
  0
ENDSEC
  0
SECTION
  2
TABLES
  0
TABLE
  2
LTYPE
 70
     4
  0
LTYPE
  2
CONTINUOUS
 70
    64
  3
SolidLine
 72
    65
 73
     0
 40
0.0
  0
LTYPE
  2
HIDDEN
 70
    64
  3
------------------------
 72
    65
 73
     2
 40
6.505435
 49
4.336957
 49
-2.168478
  0
LTYPE
  2
DASHDOT
 70
    64
  3
--?--?--?--?--?--?--?--
 72
    65
 73
     4
 40
26.021739
 49
19.516304
 49
-2.168478
 49
2.168478
 49
-2.168478
  0
LTYPE
  2
DIVIDE
 70
    64
  3
--??--??--??--??--??--
 72
    65
 73
     6
 40
32.527174
 49
21.684783
 49
-2.168478
 49
2.168478
 49
-2.168478
 49
2.168478
 49
-2.168478
  0
ENDTAB
  0
TABLE
  2
LAYER
 70
     5
  0
LAYER
  2
0
 70
    64
 62
     7
  6
CONTINUOUS
  0
LAYER
  2
HIDDEN
 70
    64
 62
     2
  6
HIDDEN
  0
LAYER
  2
DASHDOT
 70
    64
 62
     6
  6
DASHDOT
  0
LAYER
  2
DIVIDE
 70
    64
 62
     5
  6
DIVIDE
  0
ENDTAB
  0
TABLE
  2
STYLE
 70
     1
  0
STYLE
  2
STANDARD
 70
    64
 40
0.0
 41
1.0
 50
0.0
 71
     0
 42
0.2
  3
TXT
  4

  0
STYLE
  2
KANJI
 70
    64
 40
0.0
 41
1.0
 50
0.0
 71
     0
 42
0.2
  3
TXT
  4
BIGFONT
  0
ENDTAB
  0
TABLE
  2
VIEW
 70
     0
  0
ENDTAB
  0
ENDSEC
  0
SECTION
  2
BLOCKS
  0
ENDSEC
  0
SECTION
  2
ENTITIES
  0
TEXT
  8
0
 62
     7
 10
21.684782
 20
23.853260
 40
8.673913
 41
1.000000
  1
KHK SSA2-100J45
  7
KANJI
 50
0.000000
 51
0.000000
  0
TEXT
  8
0
 62
     7
 10
21.684782
 20
10.842391
 40
8.673913
 41
1.000000
  1
The precision grade of gears after secondary operations is equivalent but not identical to its original grade.
  7
KANJI
 50
0.000000
 51
0.000000
  0
TEXT
  8
0
 62
     7
 10
21.684782
 20
390.326080
 40
9.758152
 41
1.000000
  1
For J Series products, without black oxide repeatedly applied on secondary-operated parts.
  7
KANJI
 50
0.000000
 51
0.000000
  0
POLYLINE
  8
0
 62
     7
 66
     1
 70
     2
  0
VERTEX
  8
0
 10
520.434753
 20
390.326080
  0
VERTEX
  8
0
 10
511.977692
 20
404.984985
  0
VERTEX
  8
0
 10
545.805969
 20
404.984985
  0
VERTEX
  8
0
 10
537.348877
 20
390.326080
  0
VERTEX
  8
0
 10
528.891846
 20
404.984985
  0
VERTEX
  8
0
 10
520.434753
 20
390.326080
  0
SEQEND
  0
LINE
  8
0
 62
     5
 10
305.342407
 20
285.154907
 11
305.342407
 21
81.154907
  0
POLYLINE
  8
0
 62
     5
 66
     1
 70
     2
  0
VERTEX
  8
0
 10
307.510864
 20
277.565247
  0
VERTEX
  8
0
 10
305.342407
 20
285.154907
  0
VERTEX
  8
0
 10
303.173920
 20
277.565247
  0
SEQEND
  0
POLYLINE
  8
0
 62
     5
 66
     1
 70
     2
  0
VERTEX
  8
0
 10
303.173920
 20
88.744583
  0
VERTEX
  8
0
 10
305.342407
 20
81.154907
  0
VERTEX
  8
0
 10
307.510864
 20
88.744583
  0
SEQEND
  0
LINE
  8
0
 62
     5
 10
227.277176
 20
285.154907
 11
308.595093
 21
285.154907
  0
LINE
  8
0
 62
     5
 10
227.277176
 20
81.154907
 11
308.595093
 21
81.154907
  0
TEXT
  8
0
 62
     7
 10
303.173920
 20
166.891327
 40
10.842391
 41
1.000000
  1
%%c204
  7
KANJI
 50
90.000000
 51
0.000000
  0
LINE
  8
0
 62
     5
 10
240.288040
 20
328.524475
 11
194.266312
 21
328.524475
  0
POLYLINE
  8
0
 62
     5
 66
     1
 70
     2
  0
VERTEX
  8
0
 10
199.687500
 20
326.356018
  0
VERTEX
  8
0
 10
207.277176
 20
328.524475
  0
VERTEX
  8
0
 10
199.687500
 20
330.692932
  0
SEQEND
  0
POLYLINE
  8
0
 62
     5
 66
     1
 70
     2
  0
VERTEX
  8
0
 10
234.866852
 20
330.692932
  0
VERTEX
  8
0
 10
227.277176
 20
328.524475
  0
VERTEX
  8
0
 10
234.866852
 20
326.356018
  0
SEQEND
  0
LINE
  8
0
 62
     5
 10
207.277176
 20
285.154907
 11
207.277176
 21
331.777191
  0
LINE
  8
0
 62
     5
 10
227.277176
 20
285.154907
 11
227.277176
 21
331.777191
  0
TEXT
  8
0
 62
     7
 10
210.229614
 20
330.259277
 40
10.842391
 41
1.000000
  1
20
  7
KANJI
 50
0.000000
 51
0.000000
  0
LINE
  8
DASHDOT
 62
     7
 10
200.771744
 20
283.154907
 11
233.782608
 21
283.154907
  0
LINE
  8
DASHDOT
 62
     7
 10
200.771744
 20
83.154907
 11
233.782608
 21
83.154907
  0
LINE
  8
DASHDOT
 62
     7
 10
200.771744
 20
183.154907
 11
233.782608
 21
183.154907
  0
LINE
  8
0
 62
     5
 10
226.777176
 20
81.154907
 11
227.277176
 21
81.154907
  0
LINE
  8
0
 62
     5
 10
226.777176
 20
285.154907
 11
227.277176
 21
285.154907
  0
LINE
  8
0
 62
     5
 10
227.277176
 20
284.654907
 11
227.277176
 21
285.154907
  0
LINE
  8
0
 62
     5
 10
207.277176
 20
284.654907
 11
207.277176
 21
285.154907
  0
LINE
  8
0
 62
     4
 10
207.277176
 20
280.654907
 11
227.277176
 21
280.654907
  0
LINE
  8
0
 62
     4
 10
207.277176
 20
85.654907
 11
227.277176
 21
85.654907
  0
LINE
  8
0
 62
     4
 10
227.277176
 20
206.654907
 11
226.277176
 21
205.654907
  0
LINE
  8
0
 62
     4
 10
227.277176
 20
159.654907
 11
226.277176
 21
160.654907
  0
LINE
  8
0
 62
     4
 10
207.277176
 20
159.654907
 11
208.277176
 21
160.654907
  0
POLYLINE
  8
0
 62
     4
 66
     1
 70
     2
  0
VERTEX
  8
0
 10
207.277176
 20
159.654907
  0
VERTEX
  8
0
 10
207.277176
 20
81.654907
  0
VERTEX
  8
0
 10
207.777176
 20
81.154907
  0
VERTEX
  8
0
 10
226.777176
 20
81.154907
  0
VERTEX
  8
0
 10
227.277176
 20
81.654907
  0
VERTEX
  8
0
 10
227.277176
 20
284.654907
  0
VERTEX
  8
0
 10
226.777176
 20
285.154907
  0
VERTEX
  8
0
 10
207.777176
 20
285.154907
  0
VERTEX
  8
0
 10
207.277176
 20
284.654907
  0
VERTEX
  8
0
 10
207.277176
 20
159.654907
  0
SEQEND
  0
POLYLINE
  8
0
 62
     4
 66
     1
 70
     2
  0
VERTEX
  8
0
 10
207.277176
 20
206.654907
  0
VERTEX
  8
0
 10
208.277176
 20
205.654907
  0
VERTEX
  8
0
 10
208.277176
 20
160.654907
  0
VERTEX
  8
0
 10
226.277176
 20
160.654907
  0
VERTEX
  8
0
 10
226.277176
 20
205.654907
  0
VERTEX
  8
0
 10
208.277176
 20
205.654907
  0
SEQEND
  0
ARC
  8
0
 62
     4
 10
358.201111
 20
183.154907
 40
22.500000
 50
108.1262038101694
 51
71.87379618983061
  0
POLYLINE
  8
0
 62
     4
 66
     1
 70
     2
  0
VERTEX
  8
0
 10
365.201111
 20
204.538315
  0
VERTEX
  8
0
 10
365.201111
 20
209.454910
  0
VERTEX
  8
0
 10
351.201111
 20
209.454910
  0
VERTEX
  8
0
 10
351.201111
 20
204.538315
  0
SEQEND
  0
LINE
  8
0
 62
     4
 10
207.277176
 20
209.454910
 11
227.277176
 21
209.454910
  0
LINE
  8
DASHDOT
 62
     7
 10
358.201111
 20
215.960342
 11
358.201111
 21
154.149475
  0
LINE
  8
DASHDOT
 62
     7
 10
387.206543
 20
183.154907
 11
329.195648
 21
183.154907
  0
LINE
  8
0
 62
     5
 10
378.211975
 20
224.634247
 11
338.190247
 21
224.634247
  0
POLYLINE
  8
0
 62
     5
 66
     1
 70
     2
  0
VERTEX
  8
0
 10
343.611420
 20
222.465775
  0
VERTEX
  8
0
 10
351.201111
 20
224.634247
  0
VERTEX
  8
0
 10
343.611420
 20
226.802734
  0
SEQEND
  0
POLYLINE
  8
0
 62
     5
 66
     1
 70
     2
  0
VERTEX
  8
0
 10
372.790771
 20
226.802734
  0
VERTEX
  8
0
 10
365.201111
 20
224.634247
  0
VERTEX
  8
0
 10
372.790771
 20
222.465775
  0
SEQEND
  0
LINE
  8
0
 62
     5
 10
351.201111
 20
209.454910
 11
351.201111
 21
227.886963
  0
LINE
  8
0
 62
     5
 10
365.201111
 20
209.454910
 11
365.201111
 21
227.886963
  0
TEXT
  8
0
 62
     7
 10
327.688477
 20
226.802734
 40
10.842391
 41
1.000000
  1
14
  7
KANJI
 50
0.000000
 51
0.000000
  0
TEXT
  8
0
 62
     7
 10
346.010773
 20
226.802734
 40
8.673913
 41
1.000000
  1
%%p0.0215
  7
KANJI
 50
0.000000
 51
0.000000
  0
LINE
  8
0
 62
     5
 10
441.097839
 20
209.454910
 11
441.097839
 21
160.654907
  0
POLYLINE
  8
0
 62
     5
 66
     1
 70
     2
  0
VERTEX
  8
0
 10
443.266296
 20
201.865234
  0
VERTEX
  8
0
 10
441.097839
 20
209.454910
  0
VERTEX
  8
0
 10
438.929352
 20
201.865234
  0
SEQEND
  0
POLYLINE
  8
0
 62
     5
 66
     1
 70
     2
  0
VERTEX
  8
0
 10
438.929352
 20
168.244583
  0
VERTEX
  8
0
 10
441.097839
 20
160.654907
  0
VERTEX
  8
0
 10
443.266296
 20
168.244583
  0
SEQEND
  0
LINE
  8
0
 62
     5
 10
365.201111
 20
209.454910
 11
444.350525
 21
209.454910
  0
LINE
  8
0
 62
     5
 10
358.201111
 20
160.654907
 11
444.350525
 21
160.654907
  0
TEXT
  8
0
 62
     7
 10
437.845093
 20
149.259369
 40
10.842391
 41
1.000000
  1
48.8
  7
KANJI
 50
90.000000
 51
0.000000
  0
TEXT
  8
0
 62
     7
 10
438.495667
 20
196.189529
 40
5.421196
 41
1.000000
  1
 
  7
KANJI
 50
90.000000
 51
0.000000
  0
TEXT
  8
0
 62
     7
 10
431.773376
 20
196.189529
 40
5.421196
 41
1.000000
  1
+
  7
KANJI
 50
90.000000
 51
0.000000
  0
TEXT
  8
0
 62
     7
 10
438.495667
 20
202.261261
 40
5.421196
 41
1.000000
  1
0
  7
KANJI
 50
90.000000
 51
0.000000
  0
TEXT
  8
0
 62
     7
 10
431.773376
 20
202.261261
 40
5.421196
 41
1.000000
  1
0.2
  7
KANJI
 50
90.000000
 51
0.000000
  0
LINE
  8
0
 62
     5
 10
270.646729
 20
205.654907
 11
270.646729
 21
160.654907
  0
POLYLINE
  8
0
 62
     5
 66
     1
 70
     2
  0
VERTEX
  8
0
 10
268.478271
 20
168.244583
  0
VERTEX
  8
0
 10
270.646729
 20
160.654907
  0
VERTEX
  8
0
 10
272.815216
 20
168.244583
  0
SEQEND
  0
LINE
  8
0
 62
     5
 10
227.277176
 20
160.654907
 11
273.899475
 21
160.654907
  0
TEXT
  8
0
 62
     7
 10
268.478271
 20
163.367538
 40
10.842391
 41
1.000000
  1
%%c45H7
  7
KANJI
 50
90.000000
 51
0.000000
  0
ENDSEC
  0
EOF
