  0
SECTION
  2
HEADER
  9
$ACADVER
  1
AC1003
  9
$INSBASE
 10
0.000000
 20
0.000000
  9
$EXTMIN
 10
0.000000
 20
0.000000
  9
$EXTMAX
 10
189.660326
 20
131.148098
  9
$LIMMIN
 10
0.000000
 20
0.000000
  9
$LIMMAX
 10
189.660326
 20
131.148098
  9
$VIEWCTR
 10
94.830163
 20
65.574049
  9
$VIEWSIZE
 40
131.148098
  0
ENDSEC
  0
SECTION
  2
TABLES
  0
TABLE
  2
LTYPE
 70
     4
  0
LTYPE
  2
CONTINUOUS
 70
    64
  3
SolidLine
 72
    65
 73
     0
 40
0.0
  0
LTYPE
  2
HIDDEN
 70
    64
  3
------------------------
 72
    65
 73
     2
 40
2.017663
 49
1.345109
 49
-0.672554
  0
LTYPE
  2
DASHDOT
 70
    64
  3
--?--?--?--?--?--?--?--
 72
    65
 73
     4
 40
8.070652
 49
6.052989
 49
-0.672554
 49
0.672554
 49
-0.672554
  0
LTYPE
  2
DIVIDE
 70
    64
  3
--??--??--??--??--??--
 72
    65
 73
     6
 40
10.088315
 49
6.725543
 49
-0.672554
 49
0.672554
 49
-0.672554
 49
0.672554
 49
-0.672554
  0
ENDTAB
  0
TABLE
  2
LAYER
 70
     5
  0
LAYER
  2
0
 70
    64
 62
     7
  6
CONTINUOUS
  0
LAYER
  2
HIDDEN
 70
    64
 62
     2
  6
HIDDEN
  0
LAYER
  2
DASHDOT
 70
    64
 62
     6
  6
DASHDOT
  0
LAYER
  2
DIVIDE
 70
    64
 62
     5
  6
DIVIDE
  0
ENDTAB
  0
TABLE
  2
STYLE
 70
     1
  0
STYLE
  2
STANDARD
 70
    64
 40
0.0
 41
1.0
 50
0.0
 71
     0
 42
0.2
  3
TXT
  4

  0
STYLE
  2
KANJI
 70
    64
 40
0.0
 41
1.0
 50
0.0
 71
     0
 42
0.2
  3
TXT
  4
BIGFONT
  0
ENDTAB
  0
TABLE
  2
VIEW
 70
     0
  0
ENDTAB
  0
ENDSEC
  0
SECTION
  2
BLOCKS
  0
ENDSEC
  0
SECTION
  2
ENTITIES
  0
TEXT
  8
0
 62
     7
 10
6.725543
 20
7.398098
 40
2.690217
 41
1.000000
  1
KHK SSA2.5-25J15
  7
KANJI
 50
0.000000
 51
0.000000
  0
TEXT
  8
0
 62
     7
 10
6.725543
 20
3.362772
 40
2.690217
 41
1.000000
  1
The precision grade of gears after secondary operations is equivalent but not identical to its original grade.
  7
KANJI
 50
0.000000
 51
0.000000
  0
TEXT
  8
0
 62
     7
 10
6.725543
 20
121.059784
 40
3.026495
 41
1.000000
  1
For J Series products, without black oxide repeatedly applied on secondary-operated parts.
  7
KANJI
 50
0.000000
 51
0.000000
  0
POLYLINE
  8
0
 62
     7
 66
     1
 70
     2
  0
VERTEX
  8
0
 10
161.413040
 20
121.059784
  0
VERTEX
  8
0
 10
158.790085
 20
125.606255
  0
VERTEX
  8
0
 10
169.281921
 20
125.606255
  0
VERTEX
  8
0
 10
166.658966
 20
121.059784
  0
VERTEX
  8
0
 10
164.035995
 20
125.606255
  0
VERTEX
  8
0
 10
161.413040
 20
121.059784
  0
SEQEND
  0
LINE
  8
0
 62
     5
 10
103.675270
 20
88.440903
 11
103.675270
 21
20.940903
  0
POLYLINE
  8
0
 62
     5
 66
     1
 70
     2
  0
VERTEX
  8
0
 10
104.347824
 20
86.086960
  0
VERTEX
  8
0
 10
103.675270
 20
88.440903
  0
VERTEX
  8
0
 10
103.002716
 20
86.086960
  0
SEQEND
  0
POLYLINE
  8
0
 62
     5
 66
     1
 70
     2
  0
VERTEX
  8
0
 10
103.002716
 20
23.294844
  0
VERTEX
  8
0
 10
103.675270
 20
20.940903
  0
VERTEX
  8
0
 10
104.347824
 20
23.294844
  0
SEQEND
  0
LINE
  8
0
 62
     5
 10
79.463318
 20
88.440903
 11
104.684097
 21
88.440903
  0
LINE
  8
0
 62
     5
 10
79.463318
 20
20.940903
 11
104.684097
 21
20.940903
  0
TEXT
  8
0
 62
     7
 10
103.002716
 20
48.553844
 40
3.362772
 41
1.000000
  1
%%c67.5
  7
KANJI
 50
90.000000
 51
0.000000
  0
LINE
  8
0
 62
     5
 10
54.463314
 20
101.891991
 11
79.463318
 21
101.891991
  0
POLYLINE
  8
0
 62
     5
 66
     1
 70
     2
  0
VERTEX
  8
0
 10
56.817253
 20
102.564545
  0
VERTEX
  8
0
 10
54.463314
 20
101.891991
  0
VERTEX
  8
0
 10
56.817253
 20
101.219437
  0
SEQEND
  0
POLYLINE
  8
0
 62
     5
 66
     1
 70
     2
  0
VERTEX
  8
0
 10
77.109375
 20
101.219437
  0
VERTEX
  8
0
 10
79.463318
 20
101.891991
  0
VERTEX
  8
0
 10
77.109375
 20
102.564545
  0
SEQEND
  0
LINE
  8
0
 62
     5
 10
54.463314
 20
88.440903
 11
54.463314
 21
102.900818
  0
LINE
  8
0
 62
     5
 10
79.463318
 20
88.440903
 11
79.463318
 21
102.900818
  0
TEXT
  8
0
 62
     7
 10
64.777512
 20
102.430038
 40
3.362772
 41
1.000000
  1
25
  7
KANJI
 50
0.000000
 51
0.000000
  0
LINE
  8
DASHDOT
 62
     7
 10
52.445652
 20
85.940903
 11
81.480980
 21
85.940903
  0
LINE
  8
DASHDOT
 62
     7
 10
52.445652
 20
23.440903
 11
81.480980
 21
23.440903
  0
LINE
  8
DASHDOT
 62
     7
 10
52.445652
 20
54.690903
 11
81.480980
 21
54.690903
  0
LINE
  8
0
 62
     5
 10
78.463318
 20
20.940903
 11
79.463318
 21
20.940903
  0
LINE
  8
0
 62
     5
 10
78.463318
 20
88.440903
 11
79.463318
 21
88.440903
  0
LINE
  8
0
 62
     5
 10
79.463318
 20
87.440903
 11
79.463318
 21
88.440903
  0
LINE
  8
0
 62
     5
 10
54.463314
 20
87.440903
 11
54.463314
 21
88.440903
  0
LINE
  8
0
 62
     4
 10
54.463314
 20
82.815903
 11
79.463318
 21
82.815903
  0
LINE
  8
0
 62
     4
 10
54.463314
 20
26.565903
 11
79.463318
 21
26.565903
  0
LINE
  8
0
 62
     4
 10
79.463318
 20
62.690903
 11
78.963318
 21
62.190903
  0
LINE
  8
0
 62
     4
 10
79.463318
 20
46.690903
 11
78.963318
 21
47.190903
  0
LINE
  8
0
 62
     4
 10
54.463314
 20
46.690903
 11
54.963314
 21
47.190903
  0
POLYLINE
  8
0
 62
     4
 66
     1
 70
     2
  0
VERTEX
  8
0
 10
54.463314
 20
46.690903
  0
VERTEX
  8
0
 10
54.463314
 20
21.940903
  0
VERTEX
  8
0
 10
55.463314
 20
20.940903
  0
VERTEX
  8
0
 10
78.463318
 20
20.940903
  0
VERTEX
  8
0
 10
79.463318
 20
21.940903
  0
VERTEX
  8
0
 10
79.463318
 20
87.440903
  0
VERTEX
  8
0
 10
78.463318
 20
88.440903
  0
VERTEX
  8
0
 10
55.463314
 20
88.440903
  0
VERTEX
  8
0
 10
54.463314
 20
87.440903
  0
VERTEX
  8
0
 10
54.463314
 20
46.690903
  0
SEQEND
  0
POLYLINE
  8
0
 62
     4
 66
     1
 70
     2
  0
VERTEX
  8
0
 10
54.463314
 20
62.690903
  0
VERTEX
  8
0
 10
54.963314
 20
62.190903
  0
VERTEX
  8
0
 10
54.963314
 20
47.190903
  0
VERTEX
  8
0
 10
78.963318
 20
47.190903
  0
VERTEX
  8
0
 10
78.963318
 20
62.190903
  0
VERTEX
  8
0
 10
54.963314
 20
62.190903
  0
SEQEND
  0
ARC
  8
0
 62
     4
 10
120.591034
 20
54.690903
 40
7.500000
 50
109.47122094265586
 51
70.52877905734415
  0
POLYLINE
  8
0
 62
     4
 66
     1
 70
     2
  0
VERTEX
  8
0
 10
123.091034
 20
61.761971
  0
VERTEX
  8
0
 10
123.091034
 20
64.490906
  0
VERTEX
  8
0
 10
118.091034
 20
64.490906
  0
VERTEX
  8
0
 10
118.091034
 20
61.761971
  0
SEQEND
  0
LINE
  8
0
 62
     4
 10
54.463314
 20
64.490906
 11
79.463318
 21
64.490906
  0
LINE
  8
DASHDOT
 62
     7
 10
120.591034
 20
66.508568
 11
120.591034
 21
45.173241
  0
LINE
  8
DASHDOT
 62
     7
 10
130.108688
 20
54.690903
 11
111.073364
 21
54.690903
  0
LINE
  8
0
 62
     5
 10
127.126358
 20
69.198784
 11
114.055702
 21
69.198784
  0
POLYLINE
  8
0
 62
     5
 66
     1
 70
     2
  0
VERTEX
  8
0
 10
115.737091
 20
68.526230
  0
VERTEX
  8
0
 10
118.091034
 20
69.198784
  0
VERTEX
  8
0
 10
115.737091
 20
69.871338
  0
SEQEND
  0
POLYLINE
  8
0
 62
     5
 66
     1
 70
     2
  0
VERTEX
  8
0
 10
125.444977
 20
69.871338
  0
VERTEX
  8
0
 10
123.091034
 20
69.198784
  0
VERTEX
  8
0
 10
125.444977
 20
68.526230
  0
SEQEND
  0
LINE
  8
0
 62
     5
 10
118.091034
 20
64.490906
 11
118.091034
 21
70.207611
  0
LINE
  8
0
 62
     5
 10
123.091034
 20
64.490906
 11
123.091034
 21
70.207611
  0
TEXT
  8
0
 62
     7
 10
113.649605
 20
69.871338
 40
3.362772
 41
1.000000
  1
5
  7
KANJI
 50
0.000000
 51
0.000000
  0
TEXT
  8
0
 62
     7
 10
116.978333
 20
69.871338
 40
2.690217
 41
1.000000
  1
%%p0.015
  7
KANJI
 50
0.000000
 51
0.000000
  0
LINE
  8
0
 62
     5
 10
146.630432
 20
64.490906
 11
146.630432
 21
47.190903
  0
POLYLINE
  8
0
 62
     5
 66
     1
 70
     2
  0
VERTEX
  8
0
 10
147.302979
 20
62.136963
  0
VERTEX
  8
0
 10
146.630432
 20
64.490906
  0
VERTEX
  8
0
 10
145.957870
 20
62.136963
  0
SEQEND
  0
POLYLINE
  8
0
 62
     5
 66
     1
 70
     2
  0
VERTEX
  8
0
 10
145.957870
 20
49.544846
  0
VERTEX
  8
0
 10
146.630432
 20
47.190903
  0
VERTEX
  8
0
 10
147.302979
 20
49.544846
  0
SEQEND
  0
LINE
  8
0
 62
     5
 10
123.091034
 20
64.490906
 11
147.639267
 21
64.490906
  0
LINE
  8
0
 62
     5
 10
120.591034
 20
47.190903
 11
147.639267
 21
47.190903
  0
TEXT
  8
0
 62
     7
 10
145.621597
 20
44.522438
 40
3.362772
 41
1.000000
  1
17.3
  7
KANJI
 50
90.000000
 51
0.000000
  0
TEXT
  8
0
 62
     7
 10
145.823364
 20
59.077843
 40
1.681386
 41
1.000000
  1
 
  7
KANJI
 50
90.000000
 51
0.000000
  0
TEXT
  8
0
 62
     7
 10
143.738449
 20
59.077843
 40
1.681386
 41
1.000000
  1
+
  7
KANJI
 50
90.000000
 51
0.000000
  0
TEXT
  8
0
 62
     7
 10
145.823364
 20
60.960995
 40
1.681386
 41
1.000000
  1
0
  7
KANJI
 50
90.000000
 51
0.000000
  0
TEXT
  8
0
 62
     7
 10
143.738449
 20
60.960995
 40
1.681386
 41
1.000000
  1
0.1
  7
KANJI
 50
90.000000
 51
0.000000
  0
LINE
  8
0
 62
     5
 10
92.914398
 20
62.190903
 11
92.914398
 21
47.190903
  0
POLYLINE
  8
0
 62
     5
 66
     1
 70
     2
  0
VERTEX
  8
0
 10
92.241852
 20
49.544842
  0
VERTEX
  8
0
 10
92.914398
 20
47.190903
  0
VERTEX
  8
0
 10
93.586960
 20
49.544842
  0
SEQEND
  0
LINE
  8
0
 62
     5
 10
79.463318
 20
47.190903
 11
93.923233
 21
47.190903
  0
TEXT
  8
0
 62
     7
 10
92.241852
 20
48.553844
 40
3.362772
 41
1.000000
  1
%%c15H7
  7
KANJI
 50
90.000000
 51
0.000000
  0
ENDSEC
  0
EOF
