  0
SECTION
  2
HEADER
  9
$ACADVER
  1
AC1003
  9
$INSBASE
 10
0.000000
 20
0.000000
  9
$EXTMIN
 10
0.000000
 20
0.000000
  9
$EXTMAX
 10
189.660326
 20
131.148098
  9
$LIMMIN
 10
0.000000
 20
0.000000
  9
$LIMMAX
 10
189.660326
 20
131.148098
  9
$VIEWCTR
 10
94.830163
 20
65.574049
  9
$VIEWSIZE
 40
131.148098
  0
ENDSEC
  0
SECTION
  2
TABLES
  0
TABLE
  2
LTYPE
 70
     4
  0
LTYPE
  2
CONTINUOUS
 70
    64
  3
SolidLine
 72
    65
 73
     0
 40
0.0
  0
LTYPE
  2
HIDDEN
 70
    64
  3
------------------------
 72
    65
 73
     2
 40
2.017663
 49
1.345109
 49
-0.672554
  0
LTYPE
  2
DASHDOT
 70
    64
  3
--?--?--?--?--?--?--?--
 72
    65
 73
     4
 40
8.070652
 49
6.052989
 49
-0.672554
 49
0.672554
 49
-0.672554
  0
LTYPE
  2
DIVIDE
 70
    64
  3
--??--??--??--??--??--
 72
    65
 73
     6
 40
10.088315
 49
6.725543
 49
-0.672554
 49
0.672554
 49
-0.672554
 49
0.672554
 49
-0.672554
  0
ENDTAB
  0
TABLE
  2
LAYER
 70
     5
  0
LAYER
  2
0
 70
    64
 62
     7
  6
CONTINUOUS
  0
LAYER
  2
HIDDEN
 70
    64
 62
     2
  6
HIDDEN
  0
LAYER
  2
DASHDOT
 70
    64
 62
     6
  6
DASHDOT
  0
LAYER
  2
DIVIDE
 70
    64
 62
     5
  6
DIVIDE
  0
ENDTAB
  0
TABLE
  2
STYLE
 70
     1
  0
STYLE
  2
STANDARD
 70
    64
 40
0.0
 41
1.0
 50
0.0
 71
     0
 42
0.2
  3
TXT
  4

  0
STYLE
  2
KANJI
 70
    64
 40
0.0
 41
1.0
 50
0.0
 71
     0
 42
0.2
  3
TXT
  4
BIGFONT
  0
ENDTAB
  0
TABLE
  2
VIEW
 70
     0
  0
ENDTAB
  0
ENDSEC
  0
SECTION
  2
BLOCKS
  0
ENDSEC
  0
SECTION
  2
ENTITIES
  0
TEXT
  8
0
 62
     7
 10
6.725543
 20
7.398098
 40
2.690217
 41
1.000000
  1
KHK SSA2.5-25J22
  7
KANJI
 50
0.000000
 51
0.000000
  0
TEXT
  8
0
 62
     7
 10
6.725543
 20
3.362772
 40
2.690217
 41
1.000000
  1
The precision grade of gears after secondary operations is equivalent but not identical to its original grade.
  7
KANJI
 50
0.000000
 51
0.000000
  0
TEXT
  8
0
 62
     7
 10
6.725543
 20
121.059784
 40
3.026495
 41
1.000000
  1
For J Series products, without black oxide repeatedly applied on secondary-operated parts.
  7
KANJI
 50
0.000000
 51
0.000000
  0
POLYLINE
  8
0
 62
     7
 66
     1
 70
     2
  0
VERTEX
  8
0
 10
161.413040
 20
121.059784
  0
VERTEX
  8
0
 10
158.790085
 20
125.606255
  0
VERTEX
  8
0
 10
169.281921
 20
125.606255
  0
VERTEX
  8
0
 10
166.658966
 20
121.059784
  0
VERTEX
  8
0
 10
164.035995
 20
125.606255
  0
VERTEX
  8
0
 10
161.413040
 20
121.059784
  0
SEQEND
  0
LINE
  8
0
 62
     5
 10
101.675270
 20
88.440903
 11
101.675270
 21
20.940903
  0
POLYLINE
  8
0
 62
     5
 66
     1
 70
     2
  0
VERTEX
  8
0
 10
102.347824
 20
86.086960
  0
VERTEX
  8
0
 10
101.675270
 20
88.440903
  0
VERTEX
  8
0
 10
101.002716
 20
86.086960
  0
SEQEND
  0
POLYLINE
  8
0
 62
     5
 66
     1
 70
     2
  0
VERTEX
  8
0
 10
101.002716
 20
23.294844
  0
VERTEX
  8
0
 10
101.675270
 20
20.940903
  0
VERTEX
  8
0
 10
102.347824
 20
23.294844
  0
SEQEND
  0
LINE
  8
0
 62
     5
 10
77.463318
 20
88.440903
 11
102.684097
 21
88.440903
  0
LINE
  8
0
 62
     5
 10
77.463318
 20
20.940903
 11
102.684097
 21
20.940903
  0
TEXT
  8
0
 62
     7
 10
101.002716
 20
48.553844
 40
3.362772
 41
1.000000
  1
%%c67.5
  7
KANJI
 50
90.000000
 51
0.000000
  0
LINE
  8
0
 62
     5
 10
52.463314
 20
101.891991
 11
77.463318
 21
101.891991
  0
POLYLINE
  8
0
 62
     5
 66
     1
 70
     2
  0
VERTEX
  8
0
 10
54.817253
 20
102.564545
  0
VERTEX
  8
0
 10
52.463314
 20
101.891991
  0
VERTEX
  8
0
 10
54.817253
 20
101.219437
  0
SEQEND
  0
POLYLINE
  8
0
 62
     5
 66
     1
 70
     2
  0
VERTEX
  8
0
 10
75.109375
 20
101.219437
  0
VERTEX
  8
0
 10
77.463318
 20
101.891991
  0
VERTEX
  8
0
 10
75.109375
 20
102.564545
  0
SEQEND
  0
LINE
  8
0
 62
     5
 10
52.463314
 20
88.440903
 11
52.463314
 21
102.900818
  0
LINE
  8
0
 62
     5
 10
77.463318
 20
88.440903
 11
77.463318
 21
102.900818
  0
TEXT
  8
0
 62
     7
 10
62.777512
 20
102.430038
 40
3.362772
 41
1.000000
  1
25
  7
KANJI
 50
0.000000
 51
0.000000
  0
LINE
  8
DASHDOT
 62
     7
 10
50.445652
 20
85.940903
 11
79.480980
 21
85.940903
  0
LINE
  8
DASHDOT
 62
     7
 10
50.445652
 20
23.440903
 11
79.480980
 21
23.440903
  0
LINE
  8
DASHDOT
 62
     7
 10
50.445652
 20
54.690903
 11
79.480980
 21
54.690903
  0
LINE
  8
0
 62
     5
 10
76.463318
 20
20.940903
 11
77.463318
 21
20.940903
  0
LINE
  8
0
 62
     5
 10
76.463318
 20
88.440903
 11
77.463318
 21
88.440903
  0
LINE
  8
0
 62
     5
 10
77.463318
 20
87.440903
 11
77.463318
 21
88.440903
  0
LINE
  8
0
 62
     5
 10
52.463314
 20
87.440903
 11
52.463314
 21
88.440903
  0
LINE
  8
0
 62
     4
 10
52.463314
 20
82.815903
 11
77.463318
 21
82.815903
  0
LINE
  8
0
 62
     4
 10
52.463314
 20
26.565903
 11
77.463318
 21
26.565903
  0
LINE
  8
0
 62
     4
 10
77.463318
 20
66.690903
 11
76.463318
 21
65.690903
  0
LINE
  8
0
 62
     4
 10
77.463318
 20
42.690903
 11
76.463318
 21
43.690903
  0
LINE
  8
0
 62
     4
 10
52.463314
 20
42.690903
 11
53.463314
 21
43.690903
  0
POLYLINE
  8
0
 62
     4
 66
     1
 70
     2
  0
VERTEX
  8
0
 10
52.463314
 20
42.690903
  0
VERTEX
  8
0
 10
52.463314
 20
21.940903
  0
VERTEX
  8
0
 10
53.463314
 20
20.940903
  0
VERTEX
  8
0
 10
76.463318
 20
20.940903
  0
VERTEX
  8
0
 10
77.463318
 20
21.940903
  0
VERTEX
  8
0
 10
77.463318
 20
87.440903
  0
VERTEX
  8
0
 10
76.463318
 20
88.440903
  0
VERTEX
  8
0
 10
53.463314
 20
88.440903
  0
VERTEX
  8
0
 10
52.463314
 20
87.440903
  0
VERTEX
  8
0
 10
52.463314
 20
42.690903
  0
SEQEND
  0
POLYLINE
  8
0
 62
     4
 66
     1
 70
     2
  0
VERTEX
  8
0
 10
52.463314
 20
66.690903
  0
VERTEX
  8
0
 10
53.463314
 20
65.690903
  0
VERTEX
  8
0
 10
53.463314
 20
43.690903
  0
VERTEX
  8
0
 10
76.463318
 20
43.690903
  0
VERTEX
  8
0
 10
76.463318
 20
65.690903
  0
VERTEX
  8
0
 10
53.463314
 20
65.690903
  0
SEQEND
  0
ARC
  8
0
 62
     4
 10
122.091034
 20
54.690903
 40
11.000000
 50
105.82662088647183
 51
74.17337911352817
  0
POLYLINE
  8
0
 62
     4
 66
     1
 70
     2
  0
VERTEX
  8
0
 10
125.091034
 20
65.273911
  0
VERTEX
  8
0
 10
125.091034
 20
68.490906
  0
VERTEX
  8
0
 10
119.091034
 20
68.490906
  0
VERTEX
  8
0
 10
119.091034
 20
65.273911
  0
SEQEND
  0
LINE
  8
0
 62
     4
 10
52.463314
 20
68.490906
 11
77.463318
 21
68.490906
  0
LINE
  8
DASHDOT
 62
     7
 10
122.091034
 20
70.508568
 11
122.091034
 21
41.673241
  0
LINE
  8
DASHDOT
 62
     7
 10
135.108688
 20
54.690903
 11
109.073364
 21
54.690903
  0
LINE
  8
0
 62
     5
 10
129.126358
 20
73.198784
 11
115.055702
 21
73.198784
  0
POLYLINE
  8
0
 62
     5
 66
     1
 70
     2
  0
VERTEX
  8
0
 10
116.737091
 20
72.526230
  0
VERTEX
  8
0
 10
119.091034
 20
73.198784
  0
VERTEX
  8
0
 10
116.737091
 20
73.871338
  0
SEQEND
  0
POLYLINE
  8
0
 62
     5
 66
     1
 70
     2
  0
VERTEX
  8
0
 10
127.444977
 20
73.871338
  0
VERTEX
  8
0
 10
125.091034
 20
73.198784
  0
VERTEX
  8
0
 10
127.444977
 20
72.526230
  0
SEQEND
  0
LINE
  8
0
 62
     5
 10
119.091034
 20
68.490906
 11
119.091034
 21
74.207611
  0
LINE
  8
0
 62
     5
 10
125.091034
 20
68.490906
 11
125.091034
 21
74.207611
  0
TEXT
  8
0
 62
     7
 10
115.149605
 20
73.871338
 40
3.362772
 41
1.000000
  1
6
  7
KANJI
 50
0.000000
 51
0.000000
  0
TEXT
  8
0
 62
     7
 10
118.478333
 20
73.871338
 40
2.690217
 41
1.000000
  1
%%p0.015
  7
KANJI
 50
0.000000
 51
0.000000
  0
LINE
  8
0
 62
     5
 10
148.630432
 20
68.490906
 11
148.630432
 21
43.690903
  0
POLYLINE
  8
0
 62
     5
 66
     1
 70
     2
  0
VERTEX
  8
0
 10
149.302979
 20
66.136963
  0
VERTEX
  8
0
 10
148.630432
 20
68.490906
  0
VERTEX
  8
0
 10
147.957870
 20
66.136963
  0
SEQEND
  0
POLYLINE
  8
0
 62
     5
 66
     1
 70
     2
  0
VERTEX
  8
0
 10
147.957870
 20
46.044846
  0
VERTEX
  8
0
 10
148.630432
 20
43.690903
  0
VERTEX
  8
0
 10
149.302979
 20
46.044846
  0
SEQEND
  0
LINE
  8
0
 62
     5
 10
125.091034
 20
68.490906
 11
149.639267
 21
68.490906
  0
LINE
  8
0
 62
     5
 10
122.091034
 20
43.690903
 11
149.639267
 21
43.690903
  0
TEXT
  8
0
 62
     7
 10
147.621597
 20
44.022438
 40
3.362772
 41
1.000000
  1
24.8
  7
KANJI
 50
90.000000
 51
0.000000
  0
TEXT
  8
0
 62
     7
 10
147.823364
 20
58.577843
 40
1.681386
 41
1.000000
  1
 
  7
KANJI
 50
90.000000
 51
0.000000
  0
TEXT
  8
0
 62
     7
 10
145.738449
 20
58.577843
 40
1.681386
 41
1.000000
  1
+
  7
KANJI
 50
90.000000
 51
0.000000
  0
TEXT
  8
0
 62
     7
 10
147.823364
 20
60.460995
 40
1.681386
 41
1.000000
  1
0
  7
KANJI
 50
90.000000
 51
0.000000
  0
TEXT
  8
0
 62
     7
 10
145.738449
 20
60.460995
 40
1.681386
 41
1.000000
  1
0.1
  7
KANJI
 50
90.000000
 51
0.000000
  0
LINE
  8
0
 62
     5
 10
90.914398
 20
65.690903
 11
90.914398
 21
43.690903
  0
POLYLINE
  8
0
 62
     5
 66
     1
 70
     2
  0
VERTEX
  8
0
 10
90.241852
 20
46.044842
  0
VERTEX
  8
0
 10
90.914398
 20
43.690903
  0
VERTEX
  8
0
 10
91.586960
 20
46.044842
  0
SEQEND
  0
LINE
  8
0
 62
     5
 10
77.463318
 20
43.690903
 11
91.923233
 21
43.690903
  0
TEXT
  8
0
 62
     7
 10
90.241852
 20
48.553844
 40
3.362772
 41
1.000000
  1
%%c22H7
  7
KANJI
 50
90.000000
 51
0.000000
  0
ENDSEC
  0
EOF
