  0
SECTION
  2
HEADER
  9
$ACADVER
  1
AC1003
  9
$INSBASE
 10
0.000000
 20
0.000000
  9
$EXTMIN
 10
0.000000
 20
0.000000
  9
$EXTMAX
 10
170.119565
 20
117.635870
  9
$LIMMIN
 10
0.000000
 20
0.000000
  9
$LIMMAX
 10
170.119565
 20
117.635870
  9
$VIEWCTR
 10
85.059783
 20
58.817935
  9
$VIEWSIZE
 40
117.635870
  0
ENDSEC
  0
SECTION
  2
TABLES
  0
TABLE
  2
LTYPE
 70
     4
  0
LTYPE
  2
CONTINUOUS
 70
    64
  3
SolidLine
 72
    65
 73
     0
 40
0.0
  0
LTYPE
  2
HIDDEN
 70
    64
  3
------------------------
 72
    65
 73
     2
 40
1.809783
 49
1.206522
 49
-0.603261
  0
LTYPE
  2
DASHDOT
 70
    64
  3
--?--?--?--?--?--?--?--
 72
    65
 73
     4
 40
7.239130
 49
5.429348
 49
-0.603261
 49
0.603261
 49
-0.603261
  0
LTYPE
  2
DIVIDE
 70
    64
  3
--??--??--??--??--??--
 72
    65
 73
     6
 40
9.048913
 49
6.032609
 49
-0.603261
 49
0.603261
 49
-0.603261
 49
0.603261
 49
-0.603261
  0
ENDTAB
  0
TABLE
  2
LAYER
 70
     5
  0
LAYER
  2
0
 70
    64
 62
     7
  6
CONTINUOUS
  0
LAYER
  2
HIDDEN
 70
    64
 62
     2
  6
HIDDEN
  0
LAYER
  2
DASHDOT
 70
    64
 62
     6
  6
DASHDOT
  0
LAYER
  2
DIVIDE
 70
    64
 62
     5
  6
DIVIDE
  0
ENDTAB
  0
TABLE
  2
STYLE
 70
     1
  0
STYLE
  2
STANDARD
 70
    64
 40
0.0
 41
1.0
 50
0.0
 71
     0
 42
0.2
  3
TXT
  4

  0
STYLE
  2
KANJI
 70
    64
 40
0.0
 41
1.0
 50
0.0
 71
     0
 42
0.2
  3
TXT
  4
BIGFONT
  0
ENDTAB
  0
TABLE
  2
VIEW
 70
     0
  0
ENDTAB
  0
ENDSEC
  0
SECTION
  2
BLOCKS
  0
ENDSEC
  0
SECTION
  2
ENTITIES
  0
TEXT
  8
0
 62
     7
 10
6.032609
 20
6.635870
 40
2.413043
 41
1.000000
  1
KHK SSA2-28J16
  7
KANJI
 50
0.000000
 51
0.000000
  0
TEXT
  8
0
 62
     7
 10
6.032609
 20
3.016304
 40
2.413043
 41
1.000000
  1
The precision grade of gears after secondary operations is equivalent but not identical to its original grade.
  7
KANJI
 50
0.000000
 51
0.000000
  0
TEXT
  8
0
 62
     7
 10
6.032609
 20
108.586960
 40
2.714674
 41
1.000000
  1
For J Series products, without black oxide repeatedly applied on secondary-operated parts.
  7
KANJI
 50
0.000000
 51
0.000000
  0
POLYLINE
  8
0
 62
     7
 66
     1
 70
     2
  0
VERTEX
  8
0
 10
144.782608
 20
108.586960
  0
VERTEX
  8
0
 10
142.429886
 20
112.665001
  0
VERTEX
  8
0
 10
151.840759
 20
112.665001
  0
VERTEX
  8
0
 10
149.488037
 20
108.586960
  0
VERTEX
  8
0
 10
147.135330
 20
112.665001
  0
VERTEX
  8
0
 10
144.782608
 20
108.586960
  0
SEQEND
  0
LINE
  8
0
 62
     5
 10
91.016304
 20
79.328804
 11
91.016304
 21
19.328804
  0
POLYLINE
  8
0
 62
     5
 66
     1
 70
     2
  0
VERTEX
  8
0
 10
91.619568
 20
77.217392
  0
VERTEX
  8
0
 10
91.016304
 20
79.328804
  0
VERTEX
  8
0
 10
90.413040
 20
77.217392
  0
SEQEND
  0
POLYLINE
  8
0
 62
     5
 66
     1
 70
     2
  0
VERTEX
  8
0
 10
90.413040
 20
21.440216
  0
VERTEX
  8
0
 10
91.016304
 20
19.328804
  0
VERTEX
  8
0
 10
91.619568
 20
21.440216
  0
SEQEND
  0
LINE
  8
0
 62
     5
 10
69.298912
 20
79.328804
 11
91.921196
 21
79.328804
  0
LINE
  8
0
 62
     5
 10
69.298912
 20
19.328804
 11
91.921196
 21
19.328804
  0
TEXT
  8
0
 62
     7
 10
90.413040
 20
45.784645
 40
3.016304
 41
1.000000
  1
%%c60
  7
KANJI
 50
90.000000
 51
0.000000
  0
LINE
  8
0
 62
     5
 10
49.298912
 20
91.394020
 11
69.298912
 21
91.394020
  0
POLYLINE
  8
0
 62
     5
 66
     1
 70
     2
  0
VERTEX
  8
0
 10
51.410324
 20
91.997284
  0
VERTEX
  8
0
 10
49.298912
 20
91.394020
  0
VERTEX
  8
0
 10
51.410324
 20
90.790756
  0
SEQEND
  0
POLYLINE
  8
0
 62
     5
 66
     1
 70
     2
  0
VERTEX
  8
0
 10
67.187500
 20
90.790756
  0
VERTEX
  8
0
 10
69.298912
 20
91.394020
  0
VERTEX
  8
0
 10
67.187500
 20
91.997284
  0
SEQEND
  0
LINE
  8
0
 62
     5
 10
49.298912
 20
79.328804
 11
49.298912
 21
92.298912
  0
LINE
  8
0
 62
     5
 10
69.298912
 20
79.328804
 11
69.298912
 21
92.298912
  0
TEXT
  8
0
 62
     7
 10
57.338314
 20
91.876633
 40
3.016304
 41
1.000000
  1
20
  7
KANJI
 50
0.000000
 51
0.000000
  0
LINE
  8
DASHDOT
 62
     7
 10
47.489128
 20
77.328804
 11
71.108696
 21
77.328804
  0
LINE
  8
DASHDOT
 62
     7
 10
47.489128
 20
21.328804
 11
71.108696
 21
21.328804
  0
LINE
  8
DASHDOT
 62
     7
 10
47.489128
 20
49.328804
 11
71.108696
 21
49.328804
  0
LINE
  8
0
 62
     5
 10
68.798912
 20
19.328804
 11
69.298912
 21
19.328804
  0
LINE
  8
0
 62
     5
 10
68.798912
 20
79.328804
 11
69.298912
 21
79.328804
  0
LINE
  8
0
 62
     5
 10
69.298912
 20
78.828804
 11
69.298912
 21
79.328804
  0
LINE
  8
0
 62
     5
 10
49.298912
 20
78.828804
 11
49.298912
 21
79.328804
  0
LINE
  8
0
 62
     4
 10
49.298912
 20
74.828804
 11
69.298912
 21
74.828804
  0
LINE
  8
0
 62
     4
 10
49.298912
 20
23.828804
 11
69.298912
 21
23.828804
  0
LINE
  8
0
 62
     4
 10
69.298912
 20
57.828804
 11
68.798912
 21
57.328804
  0
LINE
  8
0
 62
     4
 10
69.298912
 20
40.828804
 11
68.798912
 21
41.328804
  0
LINE
  8
0
 62
     4
 10
49.298912
 20
40.828804
 11
49.798912
 21
41.328804
  0
POLYLINE
  8
0
 62
     4
 66
     1
 70
     2
  0
VERTEX
  8
0
 10
49.298912
 20
40.828804
  0
VERTEX
  8
0
 10
49.298912
 20
19.828804
  0
VERTEX
  8
0
 10
49.798912
 20
19.328804
  0
VERTEX
  8
0
 10
68.798912
 20
19.328804
  0
VERTEX
  8
0
 10
69.298912
 20
19.828804
  0
VERTEX
  8
0
 10
69.298912
 20
78.828804
  0
VERTEX
  8
0
 10
68.798912
 20
79.328804
  0
VERTEX
  8
0
 10
49.798912
 20
79.328804
  0
VERTEX
  8
0
 10
49.298912
 20
78.828804
  0
VERTEX
  8
0
 10
49.298912
 20
40.828804
  0
SEQEND
  0
POLYLINE
  8
0
 62
     4
 66
     1
 70
     2
  0
VERTEX
  8
0
 10
49.298912
 20
57.828804
  0
VERTEX
  8
0
 10
49.798912
 20
57.328804
  0
VERTEX
  8
0
 10
49.798912
 20
41.328804
  0
VERTEX
  8
0
 10
68.798912
 20
41.328804
  0
VERTEX
  8
0
 10
68.798912
 20
57.328804
  0
VERTEX
  8
0
 10
49.798912
 20
57.328804
  0
SEQEND
  0
ARC
  8
0
 62
     4
 10
107.461960
 20
49.328804
 40
8.000000
 50
108.20995732853793
 51
71.79004267146207
  0
POLYLINE
  8
0
 62
     4
 66
     1
 70
     2
  0
VERTEX
  8
0
 10
109.961960
 20
56.928146
  0
VERTEX
  8
0
 10
109.961960
 20
59.628803
  0
VERTEX
  8
0
 10
104.961960
 20
59.628803
  0
VERTEX
  8
0
 10
104.961960
 20
56.928146
  0
SEQEND
  0
LINE
  8
0
 62
     4
 10
49.298912
 20
59.628803
 11
69.298912
 21
59.628803
  0
LINE
  8
DASHDOT
 62
     7
 10
107.461960
 20
61.438587
 11
107.461960
 21
39.519020
  0
LINE
  8
DASHDOT
 62
     7
 10
117.271736
 20
49.328804
 11
97.652176
 21
49.328804
  0
LINE
  8
0
 62
     5
 10
113.581520
 20
63.851631
 11
101.342392
 21
63.851631
  0
POLYLINE
  8
0
 62
     5
 66
     1
 70
     2
  0
VERTEX
  8
0
 10
102.850540
 20
63.248367
  0
VERTEX
  8
0
 10
104.961960
 20
63.851631
  0
VERTEX
  8
0
 10
102.850540
 20
64.454895
  0
SEQEND
  0
POLYLINE
  8
0
 62
     5
 66
     1
 70
     2
  0
VERTEX
  8
0
 10
112.073364
 20
64.454895
  0
VERTEX
  8
0
 10
109.961960
 20
63.851631
  0
VERTEX
  8
0
 10
112.073364
 20
63.248367
  0
SEQEND
  0
LINE
  8
0
 62
     5
 10
104.961960
 20
59.628803
 11
104.961960
 21
64.756523
  0
LINE
  8
0
 62
     5
 10
109.961960
 20
59.628803
 11
109.961960
 21
64.756523
  0
TEXT
  8
0
 62
     7
 10
101.235703
 20
64.454895
 40
3.016304
 41
1.000000
  1
5
  7
KANJI
 50
0.000000
 51
0.000000
  0
TEXT
  8
0
 62
     7
 10
104.221481
 20
64.454895
 40
2.413043
 41
1.000000
  1
%%p0.015
  7
KANJI
 50
0.000000
 51
0.000000
  0
LINE
  8
0
 62
     5
 10
131.076080
 20
59.628803
 11
131.076080
 21
41.328804
  0
POLYLINE
  8
0
 62
     5
 66
     1
 70
     2
  0
VERTEX
  8
0
 10
131.679352
 20
57.517391
  0
VERTEX
  8
0
 10
131.076080
 20
59.628803
  0
VERTEX
  8
0
 10
130.472824
 20
57.517391
  0
SEQEND
  0
POLYLINE
  8
0
 62
     5
 66
     1
 70
     2
  0
VERTEX
  8
0
 10
130.472824
 20
43.440216
  0
VERTEX
  8
0
 10
131.076080
 20
41.328804
  0
VERTEX
  8
0
 10
131.679352
 20
43.440216
  0
SEQEND
  0
LINE
  8
0
 62
     5
 10
109.961960
 20
59.628803
 11
131.980988
 21
59.628803
  0
LINE
  8
0
 62
     5
 10
107.461960
 20
41.328804
 11
131.980988
 21
41.328804
  0
TEXT
  8
0
 62
     7
 10
130.171204
 20
40.048241
 40
3.016304
 41
1.000000
  1
18.3
  7
KANJI
 50
90.000000
 51
0.000000
  0
TEXT
  8
0
 62
     7
 10
130.352173
 20
53.104000
 40
1.508152
 41
1.000000
  1
 
  7
KANJI
 50
90.000000
 51
0.000000
  0
TEXT
  8
0
 62
     7
 10
128.482056
 20
53.104000
 40
1.508152
 41
1.000000
  1
+
  7
KANJI
 50
90.000000
 51
0.000000
  0
TEXT
  8
0
 62
     7
 10
130.352173
 20
54.793129
 40
1.508152
 41
1.000000
  1
0
  7
KANJI
 50
90.000000
 51
0.000000
  0
TEXT
  8
0
 62
     7
 10
128.482056
 20
54.793129
 40
1.508152
 41
1.000000
  1
0.1
  7
KANJI
 50
90.000000
 51
0.000000
  0
LINE
  8
0
 62
     5
 10
81.364128
 20
57.328804
 11
81.364128
 21
41.328804
  0
POLYLINE
  8
0
 62
     5
 66
     1
 70
     2
  0
VERTEX
  8
0
 10
80.760864
 20
43.440216
  0
VERTEX
  8
0
 10
81.364128
 20
41.328804
  0
VERTEX
  8
0
 10
81.967392
 20
43.440216
  0
SEQEND
  0
LINE
  8
0
 62
     5
 10
69.298912
 20
41.328804
 11
82.269020
 21
41.328804
  0
TEXT
  8
0
 62
     7
 10
80.760864
 20
43.824051
 40
3.016304
 41
1.000000
  1
%%c16H7
  7
KANJI
 50
90.000000
 51
0.000000
  0
ENDSEC
  0
EOF
