  0
SECTION
  2
HEADER
  9
$ACADVER
  1
AC1003
  9
$INSBASE
 10
0.000000
 20
0.000000
  9
$EXTMIN
 10
0.000000
 20
0.000000
  9
$EXTMAX
 10
381.236413
 20
263.620924
  9
$LIMMIN
 10
0.000000
 20
0.000000
  9
$LIMMAX
 10
381.236413
 20
263.620924
  9
$VIEWCTR
 10
190.618207
 20
131.810462
  9
$VIEWSIZE
 40
263.620924
  0
ENDSEC
  0
SECTION
  2
TABLES
  0
TABLE
  2
LTYPE
 70
     4
  0
LTYPE
  2
CONTINUOUS
 70
    64
  3
SolidLine
 72
    65
 73
     0
 40
0.0
  0
LTYPE
  2
HIDDEN
 70
    64
  3
------------------------
 72
    65
 73
     2
 40
4.055707
 49
2.703804
 49
-1.351902
  0
LTYPE
  2
DASHDOT
 70
    64
  3
--?--?--?--?--?--?--?--
 72
    65
 73
     4
 40
16.222826
 49
12.167120
 49
-1.351902
 49
1.351902
 49
-1.351902
  0
LTYPE
  2
DIVIDE
 70
    64
  3
--??--??--??--??--??--
 72
    65
 73
     6
 40
20.278533
 49
13.519022
 49
-1.351902
 49
1.351902
 49
-1.351902
 49
1.351902
 49
-1.351902
  0
ENDTAB
  0
TABLE
  2
LAYER
 70
     5
  0
LAYER
  2
0
 70
    64
 62
     7
  6
CONTINUOUS
  0
LAYER
  2
HIDDEN
 70
    64
 62
     2
  6
HIDDEN
  0
LAYER
  2
DASHDOT
 70
    64
 62
     6
  6
DASHDOT
  0
LAYER
  2
DIVIDE
 70
    64
 62
     5
  6
DIVIDE
  0
ENDTAB
  0
TABLE
  2
STYLE
 70
     1
  0
STYLE
  2
STANDARD
 70
    64
 40
0.0
 41
1.0
 50
0.0
 71
     0
 42
0.2
  3
TXT
  4

  0
STYLE
  2
KANJI
 70
    64
 40
0.0
 41
1.0
 50
0.0
 71
     0
 42
0.2
  3
TXT
  4
BIGFONT
  0
ENDTAB
  0
TABLE
  2
VIEW
 70
     0
  0
ENDTAB
  0
ENDSEC
  0
SECTION
  2
BLOCKS
  0
ENDSEC
  0
SECTION
  2
ENTITIES
  0
TEXT
  8
0
 62
     7
 10
13.519022
 20
14.870924
 40
5.407609
 41
1.000000
  1
KHK SSA2.5-50J30
  7
KANJI
 50
0.000000
 51
0.000000
  0
TEXT
  8
0
 62
     7
 10
13.519022
 20
6.759511
 40
5.407609
 41
1.000000
  1
The precision grade of gears after secondary operations is equivalent but not identical to its original grade.
  7
KANJI
 50
0.000000
 51
0.000000
  0
TEXT
  8
0
 62
     7
 10
13.519022
 20
243.342392
 40
6.083560
 41
1.000000
  1
For J Series products, without black oxide repeatedly applied on secondary-operated parts.
  7
KANJI
 50
0.000000
 51
0.000000
  0
POLYLINE
  8
0
 62
     7
 66
     1
 70
     2
  0
VERTEX
  8
0
 10
324.456512
 20
243.342392
  0
VERTEX
  8
0
 10
319.184082
 20
252.481247
  0
VERTEX
  8
0
 10
340.273773
 20
252.481247
  0
VERTEX
  8
0
 10
335.001343
 20
243.342392
  0
VERTEX
  8
0
 10
329.728943
 20
252.481247
  0
VERTEX
  8
0
 10
324.456512
 20
243.342392
  0
SEQEND
  0
LINE
  8
0
 62
     5
 10
196.322021
 20
177.775131
 11
196.322021
 21
47.775131
  0
POLYLINE
  8
0
 62
     5
 66
     1
 70
     2
  0
VERTEX
  8
0
 10
197.673920
 20
173.043472
  0
VERTEX
  8
0
 10
196.322021
 20
177.775131
  0
VERTEX
  8
0
 10
194.970108
 20
173.043472
  0
SEQEND
  0
POLYLINE
  8
0
 62
     5
 66
     1
 70
     2
  0
VERTEX
  8
0
 10
194.970108
 20
52.506790
  0
VERTEX
  8
0
 10
196.322021
 20
47.775131
  0
VERTEX
  8
0
 10
197.673920
 20
52.506790
  0
SEQEND
  0
LINE
  8
0
 62
     5
 10
147.653534
 20
177.775131
 11
198.349869
 21
177.775131
  0
LINE
  8
0
 62
     5
 10
147.653534
 20
47.775131
 11
198.349869
 21
47.775131
  0
TEXT
  8
0
 62
     7
 10
194.970108
 20
102.635864
 40
6.759511
 41
1.000000
  1
%%c130
  7
KANJI
 50
90.000000
 51
0.000000
  0
LINE
  8
0
 62
     5
 10
122.653534
 20
204.813171
 11
147.653534
 21
204.813171
  0
POLYLINE
  8
0
 62
     5
 66
     1
 70
     2
  0
VERTEX
  8
0
 10
127.385193
 20
206.165070
  0
VERTEX
  8
0
 10
122.653534
 20
204.813171
  0
VERTEX
  8
0
 10
127.385193
 20
203.461273
  0
SEQEND
  0
POLYLINE
  8
0
 62
     5
 66
     1
 70
     2
  0
VERTEX
  8
0
 10
142.921875
 20
203.461273
  0
VERTEX
  8
0
 10
147.653534
 20
204.813171
  0
VERTEX
  8
0
 10
142.921875
 20
206.165070
  0
SEQEND
  0
LINE
  8
0
 62
     5
 10
122.653534
 20
177.775131
 11
122.653534
 21
206.841034
  0
LINE
  8
0
 62
     5
 10
147.653534
 20
177.775131
 11
147.653534
 21
206.841034
  0
TEXT
  8
0
 62
     7
 10
130.759857
 20
205.894684
 40
6.759511
 41
1.000000
  1
25
  7
KANJI
 50
0.000000
 51
0.000000
  0
LINE
  8
DASHDOT
 62
     7
 10
118.597824
 20
175.275131
 11
151.709244
 21
175.275131
  0
LINE
  8
DASHDOT
 62
     7
 10
118.597824
 20
50.275131
 11
151.709244
 21
50.275131
  0
LINE
  8
DASHDOT
 62
     7
 10
118.597824
 20
112.775131
 11
151.709244
 21
112.775131
  0
LINE
  8
0
 62
     5
 10
146.653534
 20
47.775131
 11
147.653534
 21
47.775131
  0
LINE
  8
0
 62
     5
 10
146.653534
 20
177.775131
 11
147.653534
 21
177.775131
  0
LINE
  8
0
 62
     5
 10
147.653534
 20
176.775131
 11
147.653534
 21
177.775131
  0
LINE
  8
0
 62
     5
 10
122.653534
 20
176.775131
 11
122.653534
 21
177.775131
  0
LINE
  8
0
 62
     4
 10
122.653534
 20
172.150131
 11
147.653534
 21
172.150131
  0
LINE
  8
0
 62
     4
 10
122.653534
 20
53.400131
 11
147.653534
 21
53.400131
  0
LINE
  8
0
 62
     4
 10
147.653534
 20
128.775131
 11
146.653534
 21
127.775131
  0
LINE
  8
0
 62
     4
 10
147.653534
 20
96.775131
 11
146.653534
 21
97.775131
  0
LINE
  8
0
 62
     4
 10
122.653534
 20
96.775131
 11
123.653534
 21
97.775131
  0
POLYLINE
  8
0
 62
     4
 66
     1
 70
     2
  0
VERTEX
  8
0
 10
122.653534
 20
96.775131
  0
VERTEX
  8
0
 10
122.653534
 20
48.775131
  0
VERTEX
  8
0
 10
123.653534
 20
47.775131
  0
VERTEX
  8
0
 10
146.653534
 20
47.775131
  0
VERTEX
  8
0
 10
147.653534
 20
48.775131
  0
VERTEX
  8
0
 10
147.653534
 20
176.775131
  0
VERTEX
  8
0
 10
146.653534
 20
177.775131
  0
VERTEX
  8
0
 10
123.653534
 20
177.775131
  0
VERTEX
  8
0
 10
122.653534
 20
176.775131
  0
VERTEX
  8
0
 10
122.653534
 20
96.775131
  0
SEQEND
  0
POLYLINE
  8
0
 62
     4
 66
     1
 70
     2
  0
VERTEX
  8
0
 10
122.653534
 20
128.775131
  0
VERTEX
  8
0
 10
123.653534
 20
127.775131
  0
VERTEX
  8
0
 10
123.653534
 20
97.775131
  0
VERTEX
  8
0
 10
146.653534
 20
97.775131
  0
VERTEX
  8
0
 10
146.653534
 20
127.775131
  0
VERTEX
  8
0
 10
123.653534
 20
127.775131
  0
SEQEND
  0
ARC
  8
0
 62
     4
 10
230.248642
 20
112.775131
 40
15.000000
 50
105.46601032289746
 51
74.53398967710255
  0
POLYLINE
  8
0
 62
     4
 66
     1
 70
     2
  0
VERTEX
  8
0
 10
234.248642
 20
127.231964
  0
VERTEX
  8
0
 10
234.248642
 20
131.075134
  0
VERTEX
  8
0
 10
226.248642
 20
131.075134
  0
VERTEX
  8
0
 10
226.248642
 20
127.231964
  0
SEQEND
  0
LINE
  8
0
 62
     4
 10
122.653534
 20
131.075134
 11
147.653534
 21
131.075134
  0
LINE
  8
DASHDOT
 62
     7
 10
230.248642
 20
135.130844
 11
230.248642
 21
93.719421
  0
LINE
  8
DASHDOT
 62
     7
 10
249.304352
 20
112.775131
 11
211.192932
 21
112.775131
  0
LINE
  8
0
 62
     5
 10
242.360046
 20
140.538452
 11
218.137238
 21
140.538452
  0
POLYLINE
  8
0
 62
     5
 66
     1
 70
     2
  0
VERTEX
  8
0
 10
221.516983
 20
139.186539
  0
VERTEX
  8
0
 10
226.248642
 20
140.538452
  0
VERTEX
  8
0
 10
221.516983
 20
141.890350
  0
SEQEND
  0
POLYLINE
  8
0
 62
     5
 66
     1
 70
     2
  0
VERTEX
  8
0
 10
238.980301
 20
141.890350
  0
VERTEX
  8
0
 10
234.248642
 20
140.538452
  0
VERTEX
  8
0
 10
238.980301
 20
139.186539
  0
SEQEND
  0
LINE
  8
0
 62
     5
 10
226.248642
 20
131.075134
 11
226.248642
 21
142.566299
  0
LINE
  8
0
 62
     5
 10
234.248642
 20
131.075134
 11
234.248642
 21
142.566299
  0
TEXT
  8
0
 62
     7
 10
216.295670
 20
141.890350
 40
6.759511
 41
1.000000
  1
8
  7
KANJI
 50
0.000000
 51
0.000000
  0
TEXT
  8
0
 62
     7
 10
222.986755
 20
141.890350
 40
5.407609
 41
1.000000
  1
%%p0.018
  7
KANJI
 50
0.000000
 51
0.000000
  0
LINE
  8
0
 62
     5
 10
281.565216
 20
131.075134
 11
281.565216
 21
97.775131
  0
POLYLINE
  8
0
 62
     5
 66
     1
 70
     2
  0
VERTEX
  8
0
 10
282.917114
 20
126.343475
  0
VERTEX
  8
0
 10
281.565216
 20
131.075134
  0
VERTEX
  8
0
 10
280.213318
 20
126.343475
  0
SEQEND
  0
POLYLINE
  8
0
 62
     5
 66
     1
 70
     2
  0
VERTEX
  8
0
 10
280.213318
 20
102.506790
  0
VERTEX
  8
0
 10
281.565216
 20
97.775131
  0
VERTEX
  8
0
 10
282.917114
 20
102.506790
  0
SEQEND
  0
LINE
  8
0
 62
     5
 10
234.248642
 20
131.075134
 11
283.593079
 21
131.075134
  0
LINE
  8
0
 62
     5
 10
230.248642
 20
97.775131
 11
283.593079
 21
97.775131
  0
TEXT
  8
0
 62
     7
 10
279.537354
 20
91.821342
 40
6.759511
 41
1.000000
  1
33.3
  7
KANJI
 50
90.000000
 51
0.000000
  0
TEXT
  8
0
 62
     7
 10
279.942932
 20
121.079178
 40
3.379755
 41
1.000000
  1
 
  7
KANJI
 50
90.000000
 51
0.000000
  0
TEXT
  8
0
 62
     7
 10
275.752014
 20
121.079178
 40
3.379755
 41
1.000000
  1
+
  7
KANJI
 50
90.000000
 51
0.000000
  0
TEXT
  8
0
 62
     7
 10
279.942932
 20
124.864510
 40
3.379755
 41
1.000000
  1
0
  7
KANJI
 50
90.000000
 51
0.000000
  0
TEXT
  8
0
 62
     7
 10
275.752014
 20
124.864510
 40
3.379755
 41
1.000000
  1
0.2
  7
KANJI
 50
90.000000
 51
0.000000
  0
LINE
  8
0
 62
     5
 10
174.691574
 20
127.775131
 11
174.691574
 21
97.775131
  0
POLYLINE
  8
0
 62
     5
 66
     1
 70
     2
  0
VERTEX
  8
0
 10
173.339676
 20
102.506790
  0
VERTEX
  8
0
 10
174.691574
 20
97.775131
  0
VERTEX
  8
0
 10
176.043488
 20
102.506790
  0
SEQEND
  0
LINE
  8
0
 62
     5
 10
147.653534
 20
97.775131
 11
176.719437
 21
97.775131
  0
TEXT
  8
0
 62
     7
 10
173.339676
 20
100.439026
 40
6.759511
 41
1.000000
  1
%%c30H7
  7
KANJI
 50
90.000000
 51
0.000000
  0
ENDSEC
  0
EOF
