  0
SECTION
  2
HEADER
  9
$ACADVER
  1
AC1003
  9
$INSBASE
 10
0.000000
 20
0.000000
  9
$EXTMIN
 10
0.000000
 20
0.000000
  9
$EXTMAX
 10
243.301630
 20
168.240489
  9
$LIMMIN
 10
0.000000
 20
0.000000
  9
$LIMMAX
 10
243.301630
 20
168.240489
  9
$VIEWCTR
 10
121.650815
 20
84.120245
  9
$VIEWSIZE
 40
168.240489
  0
ENDSEC
  0
SECTION
  2
TABLES
  0
TABLE
  2
LTYPE
 70
     4
  0
LTYPE
  2
CONTINUOUS
 70
    64
  3
SolidLine
 72
    65
 73
     0
 40
0.0
  0
LTYPE
  2
HIDDEN
 70
    64
  3
------------------------
 72
    65
 73
     2
 40
2.588315
 49
1.725543
 49
-0.862772
  0
LTYPE
  2
DASHDOT
 70
    64
  3
--?--?--?--?--?--?--?--
 72
    65
 73
     4
 40
10.353261
 49
7.764946
 49
-0.862772
 49
0.862772
 49
-0.862772
  0
LTYPE
  2
DIVIDE
 70
    64
  3
--??--??--??--??--??--
 72
    65
 73
     6
 40
12.941576
 49
8.627717
 49
-0.862772
 49
0.862772
 49
-0.862772
 49
0.862772
 49
-0.862772
  0
ENDTAB
  0
TABLE
  2
LAYER
 70
     5
  0
LAYER
  2
0
 70
    64
 62
     7
  6
CONTINUOUS
  0
LAYER
  2
HIDDEN
 70
    64
 62
     2
  6
HIDDEN
  0
LAYER
  2
DASHDOT
 70
    64
 62
     6
  6
DASHDOT
  0
LAYER
  2
DIVIDE
 70
    64
 62
     5
  6
DIVIDE
  0
ENDTAB
  0
TABLE
  2
STYLE
 70
     1
  0
STYLE
  2
STANDARD
 70
    64
 40
0.0
 41
1.0
 50
0.0
 71
     0
 42
0.2
  3
TXT
  4

  0
STYLE
  2
KANJI
 70
    64
 40
0.0
 41
1.0
 50
0.0
 71
     0
 42
0.2
  3
TXT
  4
BIGFONT
  0
ENDTAB
  0
TABLE
  2
VIEW
 70
     0
  0
ENDTAB
  0
ENDSEC
  0
SECTION
  2
BLOCKS
  0
ENDSEC
  0
SECTION
  2
ENTITIES
  0
TEXT
  8
0
 62
     7
 10
8.627717
 20
9.490489
 40
3.451087
 41
1.000000
  1
KHK SSA2.5-32J28
  7
KANJI
 50
0.000000
 51
0.000000
  0
TEXT
  8
0
 62
     7
 10
8.627717
 20
4.313859
 40
3.451087
 41
1.000000
  1
The precision grade of gears after secondary operations is equivalent but not identical to its original grade.
  7
KANJI
 50
0.000000
 51
0.000000
  0
TEXT
  8
0
 62
     7
 10
8.627717
 20
155.298920
 40
3.882473
 41
1.000000
  1
For J Series products, without black oxide repeatedly applied on secondary-operated parts.
  7
KANJI
 50
0.000000
 51
0.000000
  0
POLYLINE
  8
0
 62
     7
 66
     1
 70
     2
  0
VERTEX
  8
0
 10
207.065216
 20
155.298920
  0
VERTEX
  8
0
 10
203.700409
 20
161.131256
  0
VERTEX
  8
0
 10
217.159653
 20
161.131256
  0
VERTEX
  8
0
 10
213.794830
 20
155.298920
  0
VERTEX
  8
0
 10
210.430023
 20
161.131256
  0
VERTEX
  8
0
 10
207.065216
 20
155.298920
  0
SEQEND
  0
LINE
  8
0
 62
     5
 10
126.876358
 20
113.454483
 11
126.876358
 21
28.454483
  0
POLYLINE
  8
0
 62
     5
 66
     1
 70
     2
  0
VERTEX
  8
0
 10
127.739128
 20
110.434784
  0
VERTEX
  8
0
 10
126.876358
 20
113.454483
  0
VERTEX
  8
0
 10
126.013588
 20
110.434784
  0
SEQEND
  0
POLYLINE
  8
0
 62
     5
 66
     1
 70
     2
  0
VERTEX
  8
0
 10
126.013588
 20
31.474182
  0
VERTEX
  8
0
 10
126.876358
 20
28.454483
  0
VERTEX
  8
0
 10
127.739128
 20
31.474182
  0
SEQEND
  0
LINE
  8
0
 62
     5
 10
95.816574
 20
113.454483
 11
128.170517
 21
113.454483
  0
LINE
  8
0
 62
     5
 10
95.816574
 20
28.454483
 11
128.170517
 21
28.454483
  0
TEXT
  8
0
 62
     7
 10
126.013588
 20
65.885696
 40
4.313859
 41
1.000000
  1
%%c85
  7
KANJI
 50
90.000000
 51
0.000000
  0
LINE
  8
0
 62
     5
 10
70.816574
 20
130.709915
 11
95.816574
 21
130.709915
  0
POLYLINE
  8
0
 62
     5
 66
     1
 70
     2
  0
VERTEX
  8
0
 10
73.836273
 20
131.572693
  0
VERTEX
  8
0
 10
70.816574
 20
130.709915
  0
VERTEX
  8
0
 10
73.836273
 20
129.847137
  0
SEQEND
  0
POLYLINE
  8
0
 62
     5
 66
     1
 70
     2
  0
VERTEX
  8
0
 10
92.796875
 20
129.847137
  0
VERTEX
  8
0
 10
95.816574
 20
130.709915
  0
VERTEX
  8
0
 10
92.796875
 20
131.572693
  0
SEQEND
  0
LINE
  8
0
 62
     5
 10
70.816574
 20
113.454483
 11
70.816574
 21
132.004074
  0
LINE
  8
0
 62
     5
 10
95.816574
 20
113.454483
 11
95.816574
 21
132.004074
  0
TEXT
  8
0
 62
     7
 10
80.512566
 20
131.400131
 40
4.313859
 41
1.000000
  1
25
  7
KANJI
 50
0.000000
 51
0.000000
  0
LINE
  8
DASHDOT
 62
     7
 10
68.228256
 20
110.954483
 11
98.404892
 21
110.954483
  0
LINE
  8
DASHDOT
 62
     7
 10
68.228256
 20
30.954483
 11
98.404892
 21
30.954483
  0
LINE
  8
DASHDOT
 62
     7
 10
68.228256
 20
70.954483
 11
98.404892
 21
70.954483
  0
LINE
  8
0
 62
     5
 10
94.816574
 20
28.454483
 11
95.816574
 21
28.454483
  0
LINE
  8
0
 62
     5
 10
94.816574
 20
113.454483
 11
95.816574
 21
113.454483
  0
LINE
  8
0
 62
     5
 10
95.816574
 20
112.454483
 11
95.816574
 21
113.454483
  0
LINE
  8
0
 62
     5
 10
70.816574
 20
112.454483
 11
70.816574
 21
113.454483
  0
LINE
  8
0
 62
     4
 10
70.816574
 20
107.829483
 11
95.816574
 21
107.829483
  0
LINE
  8
0
 62
     4
 10
70.816574
 20
34.079483
 11
95.816574
 21
34.079483
  0
LINE
  8
0
 62
     4
 10
95.816574
 20
85.954483
 11
94.816574
 21
84.954483
  0
LINE
  8
0
 62
     4
 10
95.816574
 20
55.954483
 11
94.816574
 21
56.954483
  0
LINE
  8
0
 62
     4
 10
70.816574
 20
55.954483
 11
71.816574
 21
56.954483
  0
POLYLINE
  8
0
 62
     4
 66
     1
 70
     2
  0
VERTEX
  8
0
 10
70.816574
 20
55.954483
  0
VERTEX
  8
0
 10
70.816574
 20
29.454483
  0
VERTEX
  8
0
 10
71.816574
 20
28.454483
  0
VERTEX
  8
0
 10
94.816574
 20
28.454483
  0
VERTEX
  8
0
 10
95.816574
 20
29.454483
  0
VERTEX
  8
0
 10
95.816574
 20
112.454483
  0
VERTEX
  8
0
 10
94.816574
 20
113.454483
  0
VERTEX
  8
0
 10
71.816574
 20
113.454483
  0
VERTEX
  8
0
 10
70.816574
 20
112.454483
  0
VERTEX
  8
0
 10
70.816574
 20
55.954483
  0
SEQEND
  0
POLYLINE
  8
0
 62
     4
 66
     1
 70
     2
  0
VERTEX
  8
0
 10
70.816574
 20
85.954483
  0
VERTEX
  8
0
 10
71.816574
 20
84.954483
  0
VERTEX
  8
0
 10
71.816574
 20
56.954483
  0
VERTEX
  8
0
 10
94.816574
 20
56.954483
  0
VERTEX
  8
0
 10
94.816574
 20
84.954483
  0
VERTEX
  8
0
 10
71.816574
 20
84.954483
  0
SEQEND
  0
ARC
  8
0
 62
     4
 10
152.955170
 20
70.954483
 40
14.000000
 50
106.60154992625478
 51
73.39845007374521
  0
POLYLINE
  8
0
 62
     4
 66
     1
 70
     2
  0
VERTEX
  8
0
 10
156.955170
 20
84.370888
  0
VERTEX
  8
0
 10
156.955170
 20
88.254486
  0
VERTEX
  8
0
 10
148.955170
 20
88.254486
  0
VERTEX
  8
0
 10
148.955170
 20
84.370888
  0
SEQEND
  0
LINE
  8
0
 62
     4
 10
70.816574
 20
88.254486
 11
95.816574
 21
88.254486
  0
LINE
  8
DASHDOT
 62
     7
 10
152.955170
 20
90.842796
 11
152.955170
 21
54.366165
  0
LINE
  8
DASHDOT
 62
     7
 10
169.543488
 20
70.954483
 11
136.366852
 21
70.954483
  0
LINE
  8
0
 62
     5
 10
162.131790
 20
94.293884
 11
143.778534
 21
94.293884
  0
POLYLINE
  8
0
 62
     5
 66
     1
 70
     2
  0
VERTEX
  8
0
 10
145.935455
 20
93.431114
  0
VERTEX
  8
0
 10
148.955170
 20
94.293884
  0
VERTEX
  8
0
 10
145.935455
 20
95.156654
  0
SEQEND
  0
POLYLINE
  8
0
 62
     5
 66
     1
 70
     2
  0
VERTEX
  8
0
 10
159.974854
 20
95.156654
  0
VERTEX
  8
0
 10
156.955170
 20
94.293884
  0
VERTEX
  8
0
 10
159.974854
 20
93.431114
  0
SEQEND
  0
LINE
  8
0
 62
     5
 10
148.955170
 20
88.254486
 11
148.955170
 21
95.588043
  0
LINE
  8
0
 62
     5
 10
156.955170
 20
88.254486
 11
156.955170
 21
95.588043
  0
TEXT
  8
0
 62
     7
 10
144.050507
 20
95.156654
 40
4.313859
 41
1.000000
  1
8
  7
KANJI
 50
0.000000
 51
0.000000
  0
TEXT
  8
0
 62
     7
 10
148.320694
 20
95.156654
 40
3.451087
 41
1.000000
  1
%%p0.018
  7
KANJI
 50
0.000000
 51
0.000000
  0
LINE
  8
0
 62
     5
 10
187.152176
 20
88.254486
 11
187.152176
 21
56.954483
  0
POLYLINE
  8
0
 62
     5
 66
     1
 70
     2
  0
VERTEX
  8
0
 10
188.014954
 20
85.234779
  0
VERTEX
  8
0
 10
187.152176
 20
88.254486
  0
VERTEX
  8
0
 10
186.289398
 20
85.234779
  0
SEQEND
  0
POLYLINE
  8
0
 62
     5
 66
     1
 70
     2
  0
VERTEX
  8
0
 10
186.289398
 20
59.974182
  0
VERTEX
  8
0
 10
187.152176
 20
56.954483
  0
VERTEX
  8
0
 10
188.014954
 20
59.974182
  0
SEQEND
  0
LINE
  8
0
 62
     5
 10
156.955170
 20
88.254486
 11
188.446335
 21
88.254486
  0
LINE
  8
0
 62
     5
 10
152.955170
 20
56.954483
 11
188.446335
 21
56.954483
  0
TEXT
  8
0
 62
     7
 10
185.858017
 20
57.174126
 40
4.313859
 41
1.000000
  1
31.3
  7
KANJI
 50
90.000000
 51
0.000000
  0
TEXT
  8
0
 62
     7
 10
186.116852
 20
75.846214
 40
2.156929
 41
1.000000
  1
 
  7
KANJI
 50
90.000000
 51
0.000000
  0
TEXT
  8
0
 62
     7
 10
183.442261
 20
75.846214
 40
2.156929
 41
1.000000
  1
+
  7
KANJI
 50
90.000000
 51
0.000000
  0
TEXT
  8
0
 62
     7
 10
186.116852
 20
78.261978
 40
2.156929
 41
1.000000
  1
0
  7
KANJI
 50
90.000000
 51
0.000000
  0
TEXT
  8
0
 62
     7
 10
183.442261
 20
78.261978
 40
2.156929
 41
1.000000
  1
0.2
  7
KANJI
 50
90.000000
 51
0.000000
  0
LINE
  8
0
 62
     5
 10
113.072006
 20
84.954483
 11
113.072006
 21
56.954483
  0
POLYLINE
  8
0
 62
     5
 66
     1
 70
     2
  0
VERTEX
  8
0
 10
112.209236
 20
59.974182
  0
VERTEX
  8
0
 10
113.072006
 20
56.954483
  0
VERTEX
  8
0
 10
113.934776
 20
59.974182
  0
SEQEND
  0
LINE
  8
0
 62
     5
 10
95.816574
 20
56.954483
 11
114.366165
 21
56.954483
  0
TEXT
  8
0
 62
     7
 10
112.209236
 20
63.081692
 40
4.313859
 41
1.000000
  1
%%c28H7
  7
KANJI
 50
90.000000
 51
0.000000
  0
ENDSEC
  0
EOF
