  0
SECTION
  2
HEADER
  9
$ACADVER
  1
AC1003
  9
$INSBASE
 10
0.000000
 20
0.000000
  9
$EXTMIN
 10
0.000000
 20
0.000000
  9
$EXTMAX
 10
145.597826
 20
100.679348
  9
$LIMMIN
 10
0.000000
 20
0.000000
  9
$LIMMAX
 10
145.597826
 20
100.679348
  9
$VIEWCTR
 10
72.798913
 20
50.339674
  9
$VIEWSIZE
 40
100.679348
  0
ENDSEC
  0
SECTION
  2
TABLES
  0
TABLE
  2
LTYPE
 70
     4
  0
LTYPE
  2
CONTINUOUS
 70
    64
  3
SolidLine
 72
    65
 73
     0
 40
0.0
  0
LTYPE
  2
HIDDEN
 70
    64
  3
------------------------
 72
    65
 73
     2
 40
1.548913
 49
1.032609
 49
-0.516304
  0
LTYPE
  2
DASHDOT
 70
    64
  3
--?--?--?--?--?--?--?--
 72
    65
 73
     4
 40
6.195652
 49
4.646739
 49
-0.516304
 49
0.516304
 49
-0.516304
  0
LTYPE
  2
DIVIDE
 70
    64
  3
--??--??--??--??--??--
 72
    65
 73
     6
 40
7.744565
 49
5.163043
 49
-0.516304
 49
0.516304
 49
-0.516304
 49
0.516304
 49
-0.516304
  0
ENDTAB
  0
TABLE
  2
LAYER
 70
     5
  0
LAYER
  2
0
 70
    64
 62
     7
  6
CONTINUOUS
  0
LAYER
  2
HIDDEN
 70
    64
 62
     2
  6
HIDDEN
  0
LAYER
  2
DASHDOT
 70
    64
 62
     6
  6
DASHDOT
  0
LAYER
  2
DIVIDE
 70
    64
 62
     5
  6
DIVIDE
  0
ENDTAB
  0
TABLE
  2
STYLE
 70
     1
  0
STYLE
  2
STANDARD
 70
    64
 40
0.0
 41
1.0
 50
0.0
 71
     0
 42
0.2
  3
TXT
  4

  0
STYLE
  2
KANJI
 70
    64
 40
0.0
 41
1.0
 50
0.0
 71
     0
 42
0.2
  3
TXT
  4
BIGFONT
  0
ENDTAB
  0
TABLE
  2
VIEW
 70
     0
  0
ENDTAB
  0
ENDSEC
  0
SECTION
  2
BLOCKS
  0
ENDSEC
  0
SECTION
  2
ENTITIES
  0
TEXT
  8
0
 62
     7
 10
5.163043
 20
5.679348
 40
2.065217
 41
1.000000
  1
KHK SSA2-24J16
  7
KANJI
 50
0.000000
 51
0.000000
  0
TEXT
  8
0
 62
     7
 10
5.163043
 20
2.581522
 40
2.065217
 41
1.000000
  1
The precision grade of gears after secondary operations is equivalent but not identical to its original grade.
  7
KANJI
 50
0.000000
 51
0.000000
  0
TEXT
  8
0
 62
     7
 10
5.163043
 20
92.934784
 40
2.323370
 41
1.000000
  1
For J Series products, without black oxide repeatedly applied on secondary-operated parts.
  7
KANJI
 50
0.000000
 51
0.000000
  0
POLYLINE
  8
0
 62
     7
 66
     1
 70
     2
  0
VERTEX
  8
0
 10
123.913040
 20
92.934784
  0
VERTEX
  8
0
 10
121.899452
 20
96.425003
  0
VERTEX
  8
0
 10
129.953796
 20
96.425003
  0
VERTEX
  8
0
 10
127.940216
 20
92.934784
  0
VERTEX
  8
0
 10
125.926628
 20
96.425003
  0
VERTEX
  8
0
 10
123.913040
 20
92.934784
  0
SEQEND
  0
LINE
  8
0
 62
     5
 10
78.581520
 20
67.894020
 11
78.581520
 21
15.894020
  0
POLYLINE
  8
0
 62
     5
 66
     1
 70
     2
  0
VERTEX
  8
0
 10
79.097824
 20
66.086952
  0
VERTEX
  8
0
 10
78.581520
 20
67.894020
  0
VERTEX
  8
0
 10
78.065216
 20
66.086952
  0
SEQEND
  0
POLYLINE
  8
0
 62
     5
 66
     1
 70
     2
  0
VERTEX
  8
0
 10
78.065216
 20
17.701086
  0
VERTEX
  8
0
 10
78.581520
 20
15.894020
  0
VERTEX
  8
0
 10
79.097824
 20
17.701086
  0
SEQEND
  0
LINE
  8
0
 62
     5
 10
59.994564
 20
67.894020
 11
79.355972
 21
67.894020
  0
LINE
  8
0
 62
     5
 10
59.994564
 20
15.894020
 11
79.355972
 21
15.894020
  0
TEXT
  8
0
 62
     7
 10
78.065216
 20
38.860733
 40
2.581522
 41
1.000000
  1
%%c52
  7
KANJI
 50
90.000000
 51
0.000000
  0
LINE
  8
0
 62
     5
 10
39.994564
 20
78.220108
 11
59.994564
 21
78.220108
  0
POLYLINE
  8
0
 62
     5
 66
     1
 70
     2
  0
VERTEX
  8
0
 10
41.801628
 20
78.736412
  0
VERTEX
  8
0
 10
39.994564
 20
78.220108
  0
VERTEX
  8
0
 10
41.801628
 20
77.703804
  0
SEQEND
  0
POLYLINE
  8
0
 62
     5
 66
     1
 70
     2
  0
VERTEX
  8
0
 10
58.187500
 20
77.703804
  0
VERTEX
  8
0
 10
59.994564
 20
78.220108
  0
VERTEX
  8
0
 10
58.187500
 20
78.736412
  0
SEQEND
  0
LINE
  8
0
 62
     5
 10
39.994564
 20
67.894020
 11
39.994564
 21
78.994568
  0
LINE
  8
0
 62
     5
 10
59.994564
 20
67.894020
 11
59.994564
 21
78.994568
  0
TEXT
  8
0
 62
     7
 10
48.316574
 20
78.633148
 40
2.581522
 41
1.000000
  1
20
  7
KANJI
 50
0.000000
 51
0.000000
  0
LINE
  8
DASHDOT
 62
     7
 10
38.445652
 20
65.894020
 11
61.543480
 21
65.894020
  0
LINE
  8
DASHDOT
 62
     7
 10
38.445652
 20
17.894020
 11
61.543480
 21
17.894020
  0
LINE
  8
DASHDOT
 62
     7
 10
38.445652
 20
41.894020
 11
61.543480
 21
41.894020
  0
LINE
  8
0
 62
     5
 10
59.494564
 20
15.894020
 11
59.994564
 21
15.894020
  0
LINE
  8
0
 62
     5
 10
59.494564
 20
67.894020
 11
59.994564
 21
67.894020
  0
LINE
  8
0
 62
     5
 10
59.994564
 20
67.394020
 11
59.994564
 21
67.894020
  0
LINE
  8
0
 62
     5
 10
39.994564
 20
67.394020
 11
39.994564
 21
67.894020
  0
LINE
  8
0
 62
     4
 10
39.994564
 20
63.394020
 11
59.994564
 21
63.394020
  0
LINE
  8
0
 62
     4
 10
39.994564
 20
20.394020
 11
59.994564
 21
20.394020
  0
LINE
  8
0
 62
     4
 10
59.994564
 20
50.394020
 11
59.494564
 21
49.894020
  0
LINE
  8
0
 62
     4
 10
59.994564
 20
33.394020
 11
59.494564
 21
33.894020
  0
LINE
  8
0
 62
     4
 10
39.994564
 20
33.394020
 11
40.494564
 21
33.894020
  0
POLYLINE
  8
0
 62
     4
 66
     1
 70
     2
  0
VERTEX
  8
0
 10
39.994564
 20
33.394020
  0
VERTEX
  8
0
 10
39.994564
 20
16.394020
  0
VERTEX
  8
0
 10
40.494564
 20
15.894020
  0
VERTEX
  8
0
 10
59.494564
 20
15.894020
  0
VERTEX
  8
0
 10
59.994564
 20
16.394020
  0
VERTEX
  8
0
 10
59.994564
 20
67.394020
  0
VERTEX
  8
0
 10
59.494564
 20
67.894020
  0
VERTEX
  8
0
 10
40.494564
 20
67.894020
  0
VERTEX
  8
0
 10
39.994564
 20
67.394020
  0
VERTEX
  8
0
 10
39.994564
 20
33.394020
  0
SEQEND
  0
POLYLINE
  8
0
 62
     4
 66
     1
 70
     2
  0
VERTEX
  8
0
 10
39.994564
 20
50.394020
  0
VERTEX
  8
0
 10
40.494564
 20
49.894020
  0
VERTEX
  8
0
 10
40.494564
 20
33.894020
  0
VERTEX
  8
0
 10
59.494564
 20
33.894020
  0
VERTEX
  8
0
 10
59.494564
 20
49.894020
  0
VERTEX
  8
0
 10
40.494564
 20
49.894020
  0
SEQEND
  0
ARC
  8
0
 62
     4
 10
93.809784
 20
41.894020
 40
8.000000
 50
108.20995732853793
 51
71.79004267146207
  0
POLYLINE
  8
0
 62
     4
 66
     1
 70
     2
  0
VERTEX
  8
0
 10
96.309784
 20
49.493362
  0
VERTEX
  8
0
 10
96.309784
 20
52.194019
  0
VERTEX
  8
0
 10
91.309784
 20
52.194019
  0
VERTEX
  8
0
 10
91.309784
 20
49.493362
  0
SEQEND
  0
LINE
  8
0
 62
     4
 10
39.994564
 20
52.194019
 11
59.994564
 21
52.194019
  0
LINE
  8
DASHDOT
 62
     7
 10
93.809784
 20
53.742935
 11
93.809784
 21
32.345108
  0
LINE
  8
DASHDOT
 62
     7
 10
103.358696
 20
41.894020
 11
84.260864
 21
41.894020
  0
LINE
  8
0
 62
     5
 10
99.407608
 20
55.808151
 11
88.211952
 21
55.808151
  0
POLYLINE
  8
0
 62
     5
 66
     1
 70
     2
  0
VERTEX
  8
0
 10
89.502716
 20
55.291847
  0
VERTEX
  8
0
 10
91.309784
 20
55.808151
  0
VERTEX
  8
0
 10
89.502716
 20
56.324455
  0
SEQEND
  0
POLYLINE
  8
0
 62
     5
 66
     1
 70
     2
  0
VERTEX
  8
0
 10
98.116844
 20
56.324455
  0
VERTEX
  8
0
 10
96.309784
 20
55.808151
  0
VERTEX
  8
0
 10
98.116844
 20
55.291847
  0
SEQEND
  0
LINE
  8
0
 62
     5
 10
91.309784
 20
52.194019
 11
91.309784
 21
56.582607
  0
LINE
  8
0
 62
     5
 10
96.309784
 20
52.194019
 11
96.309784
 21
56.582607
  0
TEXT
  8
0
 62
     7
 10
88.481003
 20
56.324455
 40
2.581522
 41
1.000000
  1
5
  7
KANJI
 50
0.000000
 51
0.000000
  0
TEXT
  8
0
 62
     7
 10
91.036392
 20
56.324455
 40
2.065217
 41
1.000000
  1
%%p0.015
  7
KANJI
 50
0.000000
 51
0.000000
  0
LINE
  8
0
 62
     5
 10
114.380432
 20
52.194019
 11
114.380432
 21
33.894020
  0
POLYLINE
  8
0
 62
     5
 66
     1
 70
     2
  0
VERTEX
  8
0
 10
114.896729
 20
50.386955
  0
VERTEX
  8
0
 10
114.380432
 20
52.194019
  0
VERTEX
  8
0
 10
113.864120
 20
50.386955
  0
SEQEND
  0
POLYLINE
  8
0
 62
     5
 66
     1
 70
     2
  0
VERTEX
  8
0
 10
113.864120
 20
35.701088
  0
VERTEX
  8
0
 10
114.380432
 20
33.894020
  0
VERTEX
  8
0
 10
114.896729
 20
35.701088
  0
SEQEND
  0
LINE
  8
0
 62
     5
 10
96.309784
 20
52.194019
 11
115.154892
 21
52.194019
  0
LINE
  8
0
 62
     5
 10
93.809784
 20
33.894020
 11
115.154892
 21
33.894020
  0
TEXT
  8
0
 62
     7
 10
113.605972
 20
33.853176
 40
2.581522
 41
1.000000
  1
18.3
  7
KANJI
 50
90.000000
 51
0.000000
  0
TEXT
  8
0
 62
     7
 10
113.760864
 20
45.027023
 40
1.290761
 41
1.000000
  1
 
  7
KANJI
 50
90.000000
 51
0.000000
  0
TEXT
  8
0
 62
     7
 10
112.160324
 20
45.027023
 40
1.290761
 41
1.000000
  1
+
  7
KANJI
 50
90.000000
 51
0.000000
  0
TEXT
  8
0
 62
     7
 10
113.760864
 20
46.472679
 40
1.290761
 41
1.000000
  1
0
  7
KANJI
 50
90.000000
 51
0.000000
  0
TEXT
  8
0
 62
     7
 10
112.160324
 20
46.472679
 40
1.290761
 41
1.000000
  1
0.1
  7
KANJI
 50
90.000000
 51
0.000000
  0
LINE
  8
0
 62
     5
 10
70.320648
 20
49.894020
 11
70.320648
 21
33.894020
  0
POLYLINE
  8
0
 62
     5
 66
     1
 70
     2
  0
VERTEX
  8
0
 10
69.804352
 20
35.701084
  0
VERTEX
  8
0
 10
70.320648
 20
33.894020
  0
VERTEX
  8
0
 10
70.836960
 20
35.701084
  0
SEQEND
  0
LINE
  8
0
 62
     5
 10
59.994564
 20
33.894020
 11
71.095108
 21
33.894020
  0
TEXT
  8
0
 62
     7
 10
69.804352
 20
37.182743
 40
2.581522
 41
1.000000
  1
%%c16H7
  7
KANJI
 50
90.000000
 51
0.000000
  0
ENDSEC
  0
EOF
