  0
SECTION
  2
HEADER
  9
$ACADVER
  1
AC1003
  9
$INSBASE
 10
0.000000
 20
0.000000
  9
$EXTMIN
 10
0.000000
 20
0.000000
  9
$EXTMAX
 10
151.728261
 20
104.918478
  9
$LIMMIN
 10
0.000000
 20
0.000000
  9
$LIMMAX
 10
151.728261
 20
104.918478
  9
$VIEWCTR
 10
75.864130
 20
52.459239
  9
$VIEWSIZE
 40
104.918478
  0
ENDSEC
  0
SECTION
  2
TABLES
  0
TABLE
  2
LTYPE
 70
     4
  0
LTYPE
  2
CONTINUOUS
 70
    64
  3
SolidLine
 72
    65
 73
     0
 40
0.0
  0
LTYPE
  2
HIDDEN
 70
    64
  3
------------------------
 72
    65
 73
     2
 40
1.614130
 49
1.076087
 49
-0.538043
  0
LTYPE
  2
DASHDOT
 70
    64
  3
--?--?--?--?--?--?--?--
 72
    65
 73
     4
 40
6.456522
 49
4.842391
 49
-0.538043
 49
0.538043
 49
-0.538043
  0
LTYPE
  2
DIVIDE
 70
    64
  3
--??--??--??--??--??--
 72
    65
 73
     6
 40
8.070652
 49
5.380435
 49
-0.538043
 49
0.538043
 49
-0.538043
 49
0.538043
 49
-0.538043
  0
ENDTAB
  0
TABLE
  2
LAYER
 70
     5
  0
LAYER
  2
0
 70
    64
 62
     7
  6
CONTINUOUS
  0
LAYER
  2
HIDDEN
 70
    64
 62
     2
  6
HIDDEN
  0
LAYER
  2
DASHDOT
 70
    64
 62
     6
  6
DASHDOT
  0
LAYER
  2
DIVIDE
 70
    64
 62
     5
  6
DIVIDE
  0
ENDTAB
  0
TABLE
  2
STYLE
 70
     1
  0
STYLE
  2
STANDARD
 70
    64
 40
0.0
 41
1.0
 50
0.0
 71
     0
 42
0.2
  3
TXT
  4

  0
STYLE
  2
KANJI
 70
    64
 40
0.0
 41
1.0
 50
0.0
 71
     0
 42
0.2
  3
TXT
  4
BIGFONT
  0
ENDTAB
  0
TABLE
  2
VIEW
 70
     0
  0
ENDTAB
  0
ENDSEC
  0
SECTION
  2
BLOCKS
  0
ENDSEC
  0
SECTION
  2
ENTITIES
  0
TEXT
  8
0
 62
     7
 10
5.380435
 20
5.918478
 40
2.152174
 41
1.000000
  1
KHK SSA2-25J14
  7
KANJI
 50
0.000000
 51
0.000000
  0
TEXT
  8
0
 62
     7
 10
5.380435
 20
2.690217
 40
2.152174
 41
1.000000
  1
The precision grade of gears after secondary operations is equivalent but not identical to its original grade.
  7
KANJI
 50
0.000000
 51
0.000000
  0
TEXT
  8
0
 62
     7
 10
5.380435
 20
96.847824
 40
2.421196
 41
1.000000
  1
For J Series products, without black oxide repeatedly applied on secondary-operated parts.
  7
KANJI
 50
0.000000
 51
0.000000
  0
POLYLINE
  8
0
 62
     7
 66
     1
 70
     2
  0
VERTEX
  8
0
 10
129.130432
 20
96.847824
  0
VERTEX
  8
0
 10
127.032059
 20
100.485001
  0
VERTEX
  8
0
 10
135.425537
 20
100.485001
  0
VERTEX
  8
0
 10
133.327179
 20
96.847824
  0
VERTEX
  8
0
 10
131.228806
 20
100.485001
  0
VERTEX
  8
0
 10
129.130432
 20
96.847824
  0
SEQEND
  0
LINE
  8
0
 62
     5
 10
82.190216
 20
70.752716
 11
82.190216
 21
16.752716
  0
POLYLINE
  8
0
 62
     5
 66
     1
 70
     2
  0
VERTEX
  8
0
 10
82.728264
 20
68.869568
  0
VERTEX
  8
0
 10
82.190216
 20
70.752716
  0
VERTEX
  8
0
 10
81.652176
 20
68.869568
  0
SEQEND
  0
POLYLINE
  8
0
 62
     5
 66
     1
 70
     2
  0
VERTEX
  8
0
 10
81.652176
 20
18.635868
  0
VERTEX
  8
0
 10
82.190216
 20
16.752716
  0
VERTEX
  8
0
 10
82.728264
 20
18.635868
  0
SEQEND
  0
LINE
  8
0
 62
     5
 10
62.820652
 20
70.752716
 11
82.997284
 21
70.752716
  0
LINE
  8
0
 62
     5
 10
62.820652
 20
16.752716
 11
82.997284
 21
16.752716
  0
TEXT
  8
0
 62
     7
 10
81.652176
 20
40.591713
 40
2.690217
 41
1.000000
  1
%%c54
  7
KANJI
 50
90.000000
 51
0.000000
  0
LINE
  8
0
 62
     5
 10
42.820652
 20
81.513588
 11
62.820652
 21
81.513588
  0
POLYLINE
  8
0
 62
     5
 66
     1
 70
     2
  0
VERTEX
  8
0
 10
44.703804
 20
82.051636
  0
VERTEX
  8
0
 10
42.820652
 20
81.513588
  0
VERTEX
  8
0
 10
44.703804
 20
80.975540
  0
SEQEND
  0
POLYLINE
  8
0
 62
     5
 66
     1
 70
     2
  0
VERTEX
  8
0
 10
60.937500
 20
80.975540
  0
VERTEX
  8
0
 10
62.820652
 20
81.513588
  0
VERTEX
  8
0
 10
60.937500
 20
82.051636
  0
SEQEND
  0
LINE
  8
0
 62
     5
 10
42.820652
 20
70.752716
 11
42.820652
 21
82.320648
  0
LINE
  8
0
 62
     5
 10
62.820652
 20
70.752716
 11
62.820652
 21
82.320648
  0
TEXT
  8
0
 62
     7
 10
51.072010
 20
81.944023
 40
2.690217
 41
1.000000
  1
20
  7
KANJI
 50
0.000000
 51
0.000000
  0
LINE
  8
DASHDOT
 62
     7
 10
41.206520
 20
68.752716
 11
64.434784
 21
68.752716
  0
LINE
  8
DASHDOT
 62
     7
 10
41.206520
 20
18.752716
 11
64.434784
 21
18.752716
  0
LINE
  8
DASHDOT
 62
     7
 10
41.206520
 20
43.752716
 11
64.434784
 21
43.752716
  0
LINE
  8
0
 62
     5
 10
62.320652
 20
16.752716
 11
62.820652
 21
16.752716
  0
LINE
  8
0
 62
     5
 10
62.320652
 20
70.752716
 11
62.820652
 21
70.752716
  0
LINE
  8
0
 62
     5
 10
62.820652
 20
70.252716
 11
62.820652
 21
70.752716
  0
LINE
  8
0
 62
     5
 10
42.820652
 20
70.252716
 11
42.820652
 21
70.752716
  0
LINE
  8
0
 62
     4
 10
42.820652
 20
66.252716
 11
62.820652
 21
66.252716
  0
LINE
  8
0
 62
     4
 10
42.820652
 20
21.252716
 11
62.820652
 21
21.252716
  0
LINE
  8
0
 62
     4
 10
62.820652
 20
51.252716
 11
62.320652
 21
50.752716
  0
LINE
  8
0
 62
     4
 10
62.820652
 20
36.252716
 11
62.320652
 21
36.752716
  0
LINE
  8
0
 62
     4
 10
42.820652
 20
36.252716
 11
43.320652
 21
36.752716
  0
POLYLINE
  8
0
 62
     4
 66
     1
 70
     2
  0
VERTEX
  8
0
 10
42.820652
 20
36.252716
  0
VERTEX
  8
0
 10
42.820652
 20
17.252716
  0
VERTEX
  8
0
 10
43.320652
 20
16.752716
  0
VERTEX
  8
0
 10
62.320652
 20
16.752716
  0
VERTEX
  8
0
 10
62.820652
 20
17.252716
  0
VERTEX
  8
0
 10
62.820652
 20
70.252716
  0
VERTEX
  8
0
 10
62.320652
 20
70.752716
  0
VERTEX
  8
0
 10
43.320652
 20
70.752716
  0
VERTEX
  8
0
 10
42.820652
 20
70.252716
  0
VERTEX
  8
0
 10
42.820652
 20
36.252716
  0
SEQEND
  0
POLYLINE
  8
0
 62
     4
 66
     1
 70
     2
  0
VERTEX
  8
0
 10
42.820652
 20
51.252716
  0
VERTEX
  8
0
 10
43.320652
 20
50.752716
  0
VERTEX
  8
0
 10
43.320652
 20
36.752716
  0
VERTEX
  8
0
 10
62.320652
 20
36.752716
  0
VERTEX
  8
0
 10
62.320652
 20
50.752716
  0
VERTEX
  8
0
 10
43.320652
 20
50.752716
  0
SEQEND
  0
ARC
  8
0
 62
     4
 10
96.722824
 20
43.752716
 40
7.000000
 50
110.92483306307776
 51
69.07516693692226
  0
POLYLINE
  8
0
 62
     4
 66
     1
 70
     2
  0
VERTEX
  8
0
 10
99.222824
 20
50.291065
  0
VERTEX
  8
0
 10
99.222824
 20
53.052715
  0
VERTEX
  8
0
 10
94.222824
 20
53.052715
  0
VERTEX
  8
0
 10
94.222824
 20
50.291065
  0
SEQEND
  0
LINE
  8
0
 62
     4
 10
42.820652
 20
53.052715
 11
62.820652
 21
53.052715
  0
LINE
  8
DASHDOT
 62
     7
 10
96.722824
 20
54.666847
 11
96.722824
 21
35.138588
  0
LINE
  8
DASHDOT
 62
     7
 10
105.336960
 20
43.752716
 11
88.108696
 21
43.752716
  0
LINE
  8
0
 62
     5
 10
102.451080
 20
56.819019
 11
90.994568
 21
56.819019
  0
POLYLINE
  8
0
 62
     5
 66
     1
 70
     2
  0
VERTEX
  8
0
 10
92.339676
 20
56.280975
  0
VERTEX
  8
0
 10
94.222824
 20
56.819019
  0
VERTEX
  8
0
 10
92.339676
 20
57.357063
  0
SEQEND
  0
POLYLINE
  8
0
 62
     5
 66
     1
 70
     2
  0
VERTEX
  8
0
 10
101.105972
 20
57.357063
  0
VERTEX
  8
0
 10
99.222824
 20
56.819019
  0
VERTEX
  8
0
 10
101.105972
 20
56.280975
  0
SEQEND
  0
LINE
  8
0
 62
     5
 10
94.222824
 20
53.052715
 11
94.222824
 21
57.626083
  0
LINE
  8
0
 62
     5
 10
99.222824
 20
53.052715
 11
99.222824
 21
57.626083
  0
TEXT
  8
0
 62
     7
 10
91.169678
 20
57.357063
 40
2.690217
 41
1.000000
  1
5
  7
KANJI
 50
0.000000
 51
0.000000
  0
TEXT
  8
0
 62
     7
 10
93.832672
 20
57.357063
 40
2.152174
 41
1.000000
  1
%%p0.015
  7
KANJI
 50
0.000000
 51
0.000000
  0
LINE
  8
0
 62
     5
 10
118.054352
 20
53.052715
 11
118.054352
 21
36.752716
  0
POLYLINE
  8
0
 62
     5
 66
     1
 70
     2
  0
VERTEX
  8
0
 10
118.592392
 20
51.169563
  0
VERTEX
  8
0
 10
118.054352
 20
53.052715
  0
VERTEX
  8
0
 10
117.516312
 20
51.169563
  0
SEQEND
  0
POLYLINE
  8
0
 62
     5
 66
     1
 70
     2
  0
VERTEX
  8
0
 10
117.516312
 20
38.635868
  0
VERTEX
  8
0
 10
118.054352
 20
36.752716
  0
VERTEX
  8
0
 10
118.592392
 20
38.635868
  0
SEQEND
  0
LINE
  8
0
 62
     5
 10
99.222824
 20
53.052715
 11
118.861420
 21
53.052715
  0
LINE
  8
0
 62
     5
 10
96.722824
 20
36.752716
 11
118.861420
 21
36.752716
  0
TEXT
  8
0
 62
     7
 10
117.247284
 20
35.601944
 40
2.690217
 41
1.000000
  1
16.3
  7
KANJI
 50
90.000000
 51
0.000000
  0
TEXT
  8
0
 62
     7
 10
117.408691
 20
47.246269
 40
1.345109
 41
1.000000
  1
 
  7
KANJI
 50
90.000000
 51
0.000000
  0
TEXT
  8
0
 62
     7
 10
115.740768
 20
47.246269
 40
1.345109
 41
1.000000
  1
+
  7
KANJI
 50
90.000000
 51
0.000000
  0
TEXT
  8
0
 62
     7
 10
117.408691
 20
48.752792
 40
1.345109
 41
1.000000
  1
0
  7
KANJI
 50
90.000000
 51
0.000000
  0
TEXT
  8
0
 62
     7
 10
115.740768
 20
48.752792
 40
1.345109
 41
1.000000
  1
0.1
  7
KANJI
 50
90.000000
 51
0.000000
  0
LINE
  8
0
 62
     5
 10
73.581520
 20
50.752716
 11
73.581520
 21
36.752716
  0
POLYLINE
  8
0
 62
     5
 66
     1
 70
     2
  0
VERTEX
  8
0
 10
73.043480
 20
38.635868
  0
VERTEX
  8
0
 10
73.581520
 20
36.752716
  0
VERTEX
  8
0
 10
74.119568
 20
38.635868
  0
SEQEND
  0
LINE
  8
0
 62
     5
 10
62.820652
 20
36.752716
 11
74.388588
 21
36.752716
  0
TEXT
  8
0
 62
     7
 10
73.043480
 20
38.843071
 40
2.690217
 41
1.000000
  1
%%c14H7
  7
KANJI
 50
90.000000
 51
0.000000
  0
ENDSEC
  0
EOF
