  0
SECTION
  2
HEADER
  9
$ACADVER
  1
AC1003
  9
$INSBASE
 10
0.000000
 20
0.000000
  9
$EXTMIN
 10
0.000000
 20
0.000000
  9
$EXTMAX
 10
243.301630
 20
168.240489
  9
$LIMMIN
 10
0.000000
 20
0.000000
  9
$LIMMAX
 10
243.301630
 20
168.240489
  9
$VIEWCTR
 10
121.650815
 20
84.120245
  9
$VIEWSIZE
 40
168.240489
  0
ENDSEC
  0
SECTION
  2
TABLES
  0
TABLE
  2
LTYPE
 70
     4
  0
LTYPE
  2
CONTINUOUS
 70
    64
  3
SolidLine
 72
    65
 73
     0
 40
0.0
  0
LTYPE
  2
HIDDEN
 70
    64
  3
------------------------
 72
    65
 73
     2
 40
2.588315
 49
1.725543
 49
-0.862772
  0
LTYPE
  2
DASHDOT
 70
    64
  3
--?--?--?--?--?--?--?--
 72
    65
 73
     4
 40
10.353261
 49
7.764946
 49
-0.862772
 49
0.862772
 49
-0.862772
  0
LTYPE
  2
DIVIDE
 70
    64
  3
--??--??--??--??--??--
 72
    65
 73
     6
 40
12.941576
 49
8.627717
 49
-0.862772
 49
0.862772
 49
-0.862772
 49
0.862772
 49
-0.862772
  0
ENDTAB
  0
TABLE
  2
LAYER
 70
     5
  0
LAYER
  2
0
 70
    64
 62
     7
  6
CONTINUOUS
  0
LAYER
  2
HIDDEN
 70
    64
 62
     2
  6
HIDDEN
  0
LAYER
  2
DASHDOT
 70
    64
 62
     6
  6
DASHDOT
  0
LAYER
  2
DIVIDE
 70
    64
 62
     5
  6
DIVIDE
  0
ENDTAB
  0
TABLE
  2
STYLE
 70
     1
  0
STYLE
  2
STANDARD
 70
    64
 40
0.0
 41
1.0
 50
0.0
 71
     0
 42
0.2
  3
TXT
  4

  0
STYLE
  2
KANJI
 70
    64
 40
0.0
 41
1.0
 50
0.0
 71
     0
 42
0.2
  3
TXT
  4
BIGFONT
  0
ENDTAB
  0
TABLE
  2
VIEW
 70
     0
  0
ENDTAB
  0
ENDSEC
  0
SECTION
  2
BLOCKS
  0
ENDSEC
  0
SECTION
  2
ENTITIES
  0
TEXT
  8
0
 62
     7
 10
8.627717
 20
9.490489
 40
3.451087
 41
1.000000
  1
KHK SSA2.5-32
  7
KANJI
 50
0.000000
 51
0.000000
  0
TEXT
  8
0
 62
     7
 10
8.627717
 20
4.313859
 40
3.451087
 41
1.000000
  1

  7
KANJI
 50
0.000000
 51
0.000000
  0
TEXT
  8
0
 62
     7
 10
8.627717
 20
155.298920
 40
3.882473
 41
1.000000
  1
Black oxide
  7
KANJI
 50
0.000000
 51
0.000000
  0
POLYLINE
  8
0
 62
     7
 66
     1
 70
     2
  0
VERTEX
  8
0
 10
207.065216
 20
155.298920
  0
VERTEX
  8
0
 10
203.700409
 20
161.131256
  0
VERTEX
  8
0
 10
217.159653
 20
161.131256
  0
VERTEX
  8
0
 10
213.794830
 20
155.298920
  0
VERTEX
  8
0
 10
210.430023
 20
161.131256
  0
VERTEX
  8
0
 10
207.065216
 20
155.298920
  0
SEQEND
  0
LINE
  8
0
 62
     5
 10
131.376358
 20
113.454483
 11
131.376358
 21
28.454483
  0
POLYLINE
  8
0
 62
     5
 66
     1
 70
     2
  0
VERTEX
  8
0
 10
132.239136
 20
110.434784
  0
VERTEX
  8
0
 10
131.376358
 20
113.454483
  0
VERTEX
  8
0
 10
130.513580
 20
110.434784
  0
SEQEND
  0
POLYLINE
  8
0
 62
     5
 66
     1
 70
     2
  0
VERTEX
  8
0
 10
130.513580
 20
31.474182
  0
VERTEX
  8
0
 10
131.376358
 20
28.454483
  0
VERTEX
  8
0
 10
132.239136
 20
31.474182
  0
SEQEND
  0
LINE
  8
0
 62
     5
 10
100.316574
 20
113.454483
 11
132.670517
 21
113.454483
  0
LINE
  8
0
 62
     5
 10
100.316574
 20
28.454483
 11
132.670517
 21
28.454483
  0
TEXT
  8
0
 62
     7
 10
130.513580
 20
65.885696
 40
4.313859
 41
1.000000
  1
%%c85
  7
KANJI
 50
90.000000
 51
0.000000
  0
LINE
  8
0
 62
     5
 10
75.316574
 20
130.709915
 11
100.316574
 21
130.709915
  0
POLYLINE
  8
0
 62
     5
 66
     1
 70
     2
  0
VERTEX
  8
0
 10
78.336273
 20
131.572693
  0
VERTEX
  8
0
 10
75.316574
 20
130.709915
  0
VERTEX
  8
0
 10
78.336273
 20
129.847137
  0
SEQEND
  0
POLYLINE
  8
0
 62
     5
 66
     1
 70
     2
  0
VERTEX
  8
0
 10
97.296875
 20
129.847137
  0
VERTEX
  8
0
 10
100.316574
 20
130.709915
  0
VERTEX
  8
0
 10
97.296875
 20
131.572693
  0
SEQEND
  0
LINE
  8
0
 62
     5
 10
75.316574
 20
113.454483
 11
75.316574
 21
132.004074
  0
LINE
  8
0
 62
     5
 10
100.316574
 20
113.454483
 11
100.316574
 21
132.004074
  0
TEXT
  8
0
 62
     7
 10
85.012566
 20
131.400131
 40
4.313859
 41
1.000000
  1
25
  7
KANJI
 50
0.000000
 51
0.000000
  0
LINE
  8
DASHDOT
 62
     7
 10
72.728256
 20
110.954483
 11
102.904892
 21
110.954483
  0
LINE
  8
DASHDOT
 62
     7
 10
72.728256
 20
30.954483
 11
102.904892
 21
30.954483
  0
LINE
  8
DASHDOT
 62
     7
 10
72.728256
 20
70.954483
 11
102.904892
 21
70.954483
  0
LINE
  8
0
 62
     5
 10
99.316574
 20
28.454483
 11
100.316574
 21
28.454483
  0
LINE
  8
0
 62
     5
 10
99.316574
 20
113.454483
 11
100.316574
 21
113.454483
  0
LINE
  8
0
 62
     5
 10
100.316574
 20
112.454483
 11
100.316574
 21
113.454483
  0
LINE
  8
0
 62
     5
 10
75.316574
 20
112.454483
 11
75.316574
 21
113.454483
  0
LINE
  8
0
 62
     4
 10
75.316574
 20
107.829483
 11
100.316574
 21
107.829483
  0
LINE
  8
0
 62
     4
 10
75.316574
 20
34.079483
 11
100.316574
 21
34.079483
  0
LINE
  8
0
 62
     4
 10
100.316574
 20
80.454483
 11
99.816574
 21
79.954483
  0
LINE
  8
0
 62
     4
 10
100.316574
 20
61.454483
 11
99.816574
 21
61.954483
  0
LINE
  8
0
 62
     4
 10
75.316574
 20
61.454483
 11
75.816574
 21
61.954483
  0
POLYLINE
  8
0
 62
     4
 66
     1
 70
     2
  0
VERTEX
  8
0
 10
75.316574
 20
61.454483
  0
VERTEX
  8
0
 10
75.316574
 20
29.454483
  0
VERTEX
  8
0
 10
76.316574
 20
28.454483
  0
VERTEX
  8
0
 10
99.316574
 20
28.454483
  0
VERTEX
  8
0
 10
100.316574
 20
29.454483
  0
VERTEX
  8
0
 10
100.316574
 20
112.454483
  0
VERTEX
  8
0
 10
99.316574
 20
113.454483
  0
VERTEX
  8
0
 10
76.316574
 20
113.454483
  0
VERTEX
  8
0
 10
75.316574
 20
112.454483
  0
VERTEX
  8
0
 10
75.316574
 20
61.454483
  0
SEQEND
  0
POLYLINE
  8
0
 62
     4
 66
     1
 70
     2
  0
VERTEX
  8
0
 10
75.316574
 20
80.454483
  0
VERTEX
  8
0
 10
75.816574
 20
79.954483
  0
VERTEX
  8
0
 10
75.816574
 20
61.954483
  0
VERTEX
  8
0
 10
99.816574
 20
61.954483
  0
VERTEX
  8
0
 10
99.816574
 20
79.954483
  0
VERTEX
  8
0
 10
75.816574
 20
79.954483
  0
SEQEND
  0
LINE
  8
0
 62
     5
 10
117.572006
 20
56.777855
 11
117.572006
 21
85.131111
  0
POLYLINE
  8
0
 62
     5
 66
     1
 70
     2
  0
VERTEX
  8
0
 10
116.709236
 20
82.974182
  0
VERTEX
  8
0
 10
117.572006
 20
79.954483
  0
VERTEX
  8
0
 10
118.434776
 20
82.974182
  0
SEQEND
  0
POLYLINE
  8
0
 62
     5
 66
     1
 70
     2
  0
VERTEX
  8
0
 10
118.434776
 20
58.934784
  0
VERTEX
  8
0
 10
117.572006
 20
61.954483
  0
VERTEX
  8
0
 10
116.709236
 20
58.934784
  0
SEQEND
  0
LINE
  8
0
 62
     5
 10
100.316574
 20
79.954483
 11
118.866165
 21
79.954483
  0
LINE
  8
0
 62
     5
 10
100.316574
 20
61.954483
 11
118.866165
 21
61.954483
  0
TEXT
  8
0
 62
     7
 10
116.709236
 20
63.081692
 40
4.313859
 41
1.000000
  1
%%c18H7
  7
KANJI
 50
90.000000
 51
0.000000
  0
ENDSEC
  0
EOF
