  0
SECTION
  2
HEADER
  9
$ACADVER
  1
AC1003
  9
$INSBASE
 10
0.000000
 20
0.000000
  9
$EXTMIN
 10
0.000000
 20
0.000000
  9
$EXTMAX
 10
151.728261
 20
104.918478
  9
$LIMMIN
 10
0.000000
 20
0.000000
  9
$LIMMAX
 10
151.728261
 20
104.918478
  9
$VIEWCTR
 10
75.864130
 20
52.459239
  9
$VIEWSIZE
 40
104.918478
  0
ENDSEC
  0
SECTION
  2
TABLES
  0
TABLE
  2
LTYPE
 70
     4
  0
LTYPE
  2
CONTINUOUS
 70
    64
  3
SolidLine
 72
    65
 73
     0
 40
0.0
  0
LTYPE
  2
HIDDEN
 70
    64
  3
------------------------
 72
    65
 73
     2
 40
1.614130
 49
1.076087
 49
-0.538043
  0
LTYPE
  2
DASHDOT
 70
    64
  3
--?--?--?--?--?--?--?--
 72
    65
 73
     4
 40
6.456522
 49
4.842391
 49
-0.538043
 49
0.538043
 49
-0.538043
  0
LTYPE
  2
DIVIDE
 70
    64
  3
--??--??--??--??--??--
 72
    65
 73
     6
 40
8.070652
 49
5.380435
 49
-0.538043
 49
0.538043
 49
-0.538043
 49
0.538043
 49
-0.538043
  0
ENDTAB
  0
TABLE
  2
LAYER
 70
     5
  0
LAYER
  2
0
 70
    64
 62
     7
  6
CONTINUOUS
  0
LAYER
  2
HIDDEN
 70
    64
 62
     2
  6
HIDDEN
  0
LAYER
  2
DASHDOT
 70
    64
 62
     6
  6
DASHDOT
  0
LAYER
  2
DIVIDE
 70
    64
 62
     5
  6
DIVIDE
  0
ENDTAB
  0
TABLE
  2
STYLE
 70
     1
  0
STYLE
  2
STANDARD
 70
    64
 40
0.0
 41
1.0
 50
0.0
 71
     0
 42
0.2
  3
TXT
  4

  0
STYLE
  2
KANJI
 70
    64
 40
0.0
 41
1.0
 50
0.0
 71
     0
 42
0.2
  3
TXT
  4
BIGFONT
  0
ENDTAB
  0
TABLE
  2
VIEW
 70
     0
  0
ENDTAB
  0
ENDSEC
  0
SECTION
  2
BLOCKS
  0
ENDSEC
  0
SECTION
  2
ENTITIES
  0
TEXT
  8
0
 62
     7
 10
5.380435
 20
5.918478
 40
2.152174
 41
1.000000
  1
KHK SSA2-25J20
  7
KANJI
 50
0.000000
 51
0.000000
  0
TEXT
  8
0
 62
     7
 10
5.380435
 20
2.690217
 40
2.152174
 41
1.000000
  1
The precision grade of gears after secondary operations is equivalent but not identical to its original grade.
  7
KANJI
 50
0.000000
 51
0.000000
  0
TEXT
  8
0
 62
     7
 10
5.380435
 20
96.847824
 40
2.421196
 41
1.000000
  1
For J Series products, without black oxide repeatedly applied on secondary-operated parts.
  7
KANJI
 50
0.000000
 51
0.000000
  0
POLYLINE
  8
0
 62
     7
 66
     1
 70
     2
  0
VERTEX
  8
0
 10
129.130432
 20
96.847824
  0
VERTEX
  8
0
 10
127.032059
 20
100.485001
  0
VERTEX
  8
0
 10
135.425537
 20
100.485001
  0
VERTEX
  8
0
 10
133.327179
 20
96.847824
  0
VERTEX
  8
0
 10
131.228806
 20
100.485001
  0
VERTEX
  8
0
 10
129.130432
 20
96.847824
  0
SEQEND
  0
LINE
  8
0
 62
     5
 10
80.440216
 20
70.752716
 11
80.440216
 21
16.752716
  0
POLYLINE
  8
0
 62
     5
 66
     1
 70
     2
  0
VERTEX
  8
0
 10
80.978264
 20
68.869568
  0
VERTEX
  8
0
 10
80.440216
 20
70.752716
  0
VERTEX
  8
0
 10
79.902176
 20
68.869568
  0
SEQEND
  0
POLYLINE
  8
0
 62
     5
 66
     1
 70
     2
  0
VERTEX
  8
0
 10
79.902176
 20
18.635868
  0
VERTEX
  8
0
 10
80.440216
 20
16.752716
  0
VERTEX
  8
0
 10
80.978264
 20
18.635868
  0
SEQEND
  0
LINE
  8
0
 62
     5
 10
61.070652
 20
70.752716
 11
81.247284
 21
70.752716
  0
LINE
  8
0
 62
     5
 10
61.070652
 20
16.752716
 11
81.247284
 21
16.752716
  0
TEXT
  8
0
 62
     7
 10
79.902176
 20
40.591713
 40
2.690217
 41
1.000000
  1
%%c54
  7
KANJI
 50
90.000000
 51
0.000000
  0
LINE
  8
0
 62
     5
 10
41.070652
 20
81.513588
 11
61.070652
 21
81.513588
  0
POLYLINE
  8
0
 62
     5
 66
     1
 70
     2
  0
VERTEX
  8
0
 10
42.953804
 20
82.051636
  0
VERTEX
  8
0
 10
41.070652
 20
81.513588
  0
VERTEX
  8
0
 10
42.953804
 20
80.975540
  0
SEQEND
  0
POLYLINE
  8
0
 62
     5
 66
     1
 70
     2
  0
VERTEX
  8
0
 10
59.187500
 20
80.975540
  0
VERTEX
  8
0
 10
61.070652
 20
81.513588
  0
VERTEX
  8
0
 10
59.187500
 20
82.051636
  0
SEQEND
  0
LINE
  8
0
 62
     5
 10
41.070652
 20
70.752716
 11
41.070652
 21
82.320648
  0
LINE
  8
0
 62
     5
 10
61.070652
 20
70.752716
 11
61.070652
 21
82.320648
  0
TEXT
  8
0
 62
     7
 10
49.322010
 20
81.944023
 40
2.690217
 41
1.000000
  1
20
  7
KANJI
 50
0.000000
 51
0.000000
  0
LINE
  8
DASHDOT
 62
     7
 10
39.456520
 20
68.752716
 11
62.684784
 21
68.752716
  0
LINE
  8
DASHDOT
 62
     7
 10
39.456520
 20
18.752716
 11
62.684784
 21
18.752716
  0
LINE
  8
DASHDOT
 62
     7
 10
39.456520
 20
43.752716
 11
62.684784
 21
43.752716
  0
LINE
  8
0
 62
     5
 10
60.570652
 20
16.752716
 11
61.070652
 21
16.752716
  0
LINE
  8
0
 62
     5
 10
60.570652
 20
70.752716
 11
61.070652
 21
70.752716
  0
LINE
  8
0
 62
     5
 10
61.070652
 20
70.252716
 11
61.070652
 21
70.752716
  0
LINE
  8
0
 62
     5
 10
41.070652
 20
70.252716
 11
41.070652
 21
70.752716
  0
LINE
  8
0
 62
     4
 10
41.070652
 20
66.252716
 11
61.070652
 21
66.252716
  0
LINE
  8
0
 62
     4
 10
41.070652
 20
21.252716
 11
61.070652
 21
21.252716
  0
LINE
  8
0
 62
     4
 10
61.070652
 20
54.752716
 11
60.070652
 21
53.752716
  0
LINE
  8
0
 62
     4
 10
61.070652
 20
32.752716
 11
60.070652
 21
33.752716
  0
LINE
  8
0
 62
     4
 10
41.070652
 20
32.752716
 11
42.070652
 21
33.752716
  0
POLYLINE
  8
0
 62
     4
 66
     1
 70
     2
  0
VERTEX
  8
0
 10
41.070652
 20
32.752716
  0
VERTEX
  8
0
 10
41.070652
 20
17.252716
  0
VERTEX
  8
0
 10
41.570652
 20
16.752716
  0
VERTEX
  8
0
 10
60.570652
 20
16.752716
  0
VERTEX
  8
0
 10
61.070652
 20
17.252716
  0
VERTEX
  8
0
 10
61.070652
 20
70.252716
  0
VERTEX
  8
0
 10
60.570652
 20
70.752716
  0
VERTEX
  8
0
 10
41.570652
 20
70.752716
  0
VERTEX
  8
0
 10
41.070652
 20
70.252716
  0
VERTEX
  8
0
 10
41.070652
 20
32.752716
  0
SEQEND
  0
POLYLINE
  8
0
 62
     4
 66
     1
 70
     2
  0
VERTEX
  8
0
 10
41.070652
 20
54.752716
  0
VERTEX
  8
0
 10
42.070652
 20
53.752716
  0
VERTEX
  8
0
 10
42.070652
 20
33.752716
  0
VERTEX
  8
0
 10
60.070652
 20
33.752716
  0
VERTEX
  8
0
 10
60.070652
 20
53.752716
  0
VERTEX
  8
0
 10
42.070652
 20
53.752716
  0
SEQEND
  0
ARC
  8
0
 62
     4
 10
97.972824
 20
43.752716
 40
10.000000
 50
107.45760274776076
 51
72.54239725223924
  0
POLYLINE
  8
0
 62
     4
 66
     1
 70
     2
  0
VERTEX
  8
0
 10
100.972824
 20
53.292107
  0
VERTEX
  8
0
 10
100.972824
 20
56.552715
  0
VERTEX
  8
0
 10
94.972824
 20
56.552715
  0
VERTEX
  8
0
 10
94.972824
 20
53.292107
  0
SEQEND
  0
LINE
  8
0
 62
     4
 10
41.070652
 20
56.552715
 11
61.070652
 21
56.552715
  0
LINE
  8
DASHDOT
 62
     7
 10
97.972824
 20
58.166847
 11
97.972824
 21
32.138588
  0
LINE
  8
DASHDOT
 62
     7
 10
109.586960
 20
43.752716
 11
86.358696
 21
43.752716
  0
LINE
  8
0
 62
     5
 10
104.201080
 20
60.319023
 11
91.744568
 21
60.319023
  0
POLYLINE
  8
0
 62
     5
 66
     1
 70
     2
  0
VERTEX
  8
0
 10
93.089676
 20
59.780975
  0
VERTEX
  8
0
 10
94.972824
 20
60.319023
  0
VERTEX
  8
0
 10
93.089676
 20
60.857063
  0
SEQEND
  0
POLYLINE
  8
0
 62
     5
 66
     1
 70
     2
  0
VERTEX
  8
0
 10
102.855972
 20
60.857063
  0
VERTEX
  8
0
 10
100.972824
 20
60.319023
  0
VERTEX
  8
0
 10
102.855972
 20
59.780975
  0
SEQEND
  0
LINE
  8
0
 62
     5
 10
94.972824
 20
56.552715
 11
94.972824
 21
61.126087
  0
LINE
  8
0
 62
     5
 10
100.972824
 20
56.552715
 11
100.972824
 21
61.126087
  0
TEXT
  8
0
 62
     7
 10
92.419678
 20
60.857063
 40
2.690217
 41
1.000000
  1
6
  7
KANJI
 50
0.000000
 51
0.000000
  0
TEXT
  8
0
 62
     7
 10
95.082672
 20
60.857063
 40
2.152174
 41
1.000000
  1
%%p0.015
  7
KANJI
 50
0.000000
 51
0.000000
  0
LINE
  8
0
 62
     5
 10
119.804352
 20
56.552715
 11
119.804352
 21
33.752716
  0
POLYLINE
  8
0
 62
     5
 66
     1
 70
     2
  0
VERTEX
  8
0
 10
120.342392
 20
54.669563
  0
VERTEX
  8
0
 10
119.804352
 20
56.552715
  0
VERTEX
  8
0
 10
119.266312
 20
54.669563
  0
SEQEND
  0
POLYLINE
  8
0
 62
     5
 66
     1
 70
     2
  0
VERTEX
  8
0
 10
119.266312
 20
35.635868
  0
VERTEX
  8
0
 10
119.804352
 20
33.752716
  0
VERTEX
  8
0
 10
120.342392
 20
35.635868
  0
SEQEND
  0
LINE
  8
0
 62
     5
 10
100.972824
 20
56.552715
 11
120.611420
 21
56.552715
  0
LINE
  8
0
 62
     5
 10
97.972824
 20
33.752716
 11
120.611420
 21
33.752716
  0
TEXT
  8
0
 62
     7
 10
118.997284
 20
35.201942
 40
2.690217
 41
1.000000
  1
22.8
  7
KANJI
 50
90.000000
 51
0.000000
  0
TEXT
  8
0
 62
     7
 10
119.158691
 20
46.846268
 40
1.345109
 41
1.000000
  1
 
  7
KANJI
 50
90.000000
 51
0.000000
  0
TEXT
  8
0
 62
     7
 10
117.490768
 20
46.846268
 40
1.345109
 41
1.000000
  1
+
  7
KANJI
 50
90.000000
 51
0.000000
  0
TEXT
  8
0
 62
     7
 10
119.158691
 20
48.352791
 40
1.345109
 41
1.000000
  1
0
  7
KANJI
 50
90.000000
 51
0.000000
  0
TEXT
  8
0
 62
     7
 10
117.490768
 20
48.352791
 40
1.345109
 41
1.000000
  1
0.1
  7
KANJI
 50
90.000000
 51
0.000000
  0
LINE
  8
0
 62
     5
 10
71.831520
 20
53.752716
 11
71.831520
 21
33.752716
  0
POLYLINE
  8
0
 62
     5
 66
     1
 70
     2
  0
VERTEX
  8
0
 10
71.293480
 20
35.635868
  0
VERTEX
  8
0
 10
71.831520
 20
33.752716
  0
VERTEX
  8
0
 10
72.369568
 20
35.635868
  0
SEQEND
  0
LINE
  8
0
 62
     5
 10
61.070652
 20
33.752716
 11
72.638588
 21
33.752716
  0
TEXT
  8
0
 62
     7
 10
71.293480
 20
38.843071
 40
2.690217
 41
1.000000
  1
%%c20H7
  7
KANJI
 50
90.000000
 51
0.000000
  0
ENDSEC
  0
EOF
