  0
SECTION
  2
HEADER
  9
$ACADVER
  1
AC1003
  9
$INSBASE
 10
0.000000
 20
0.000000
  9
$EXTMIN
 10
0.000000
 20
0.000000
  9
$EXTMAX
 10
136.019022
 20
94.055707
  9
$LIMMIN
 10
0.000000
 20
0.000000
  9
$LIMMAX
 10
136.019022
 20
94.055707
  9
$VIEWCTR
 10
68.009511
 20
47.027853
  9
$VIEWSIZE
 40
94.055707
  0
ENDSEC
  0
SECTION
  2
TABLES
  0
TABLE
  2
LTYPE
 70
     4
  0
LTYPE
  2
CONTINUOUS
 70
    64
  3
SolidLine
 72
    65
 73
     0
 40
0.0
  0
LTYPE
  2
HIDDEN
 70
    64
  3
------------------------
 72
    65
 73
     2
 40
1.447011
 49
0.964674
 49
-0.482337
  0
LTYPE
  2
DASHDOT
 70
    64
  3
--?--?--?--?--?--?--?--
 72
    65
 73
     4
 40
5.788043
 49
4.341033
 49
-0.482337
 49
0.482337
 49
-0.482337
  0
LTYPE
  2
DIVIDE
 70
    64
  3
--??--??--??--??--??--
 72
    65
 73
     6
 40
7.235054
 49
4.823370
 49
-0.482337
 49
0.482337
 49
-0.482337
 49
0.482337
 49
-0.482337
  0
ENDTAB
  0
TABLE
  2
LAYER
 70
     5
  0
LAYER
  2
0
 70
    64
 62
     7
  6
CONTINUOUS
  0
LAYER
  2
HIDDEN
 70
    64
 62
     2
  6
HIDDEN
  0
LAYER
  2
DASHDOT
 70
    64
 62
     6
  6
DASHDOT
  0
LAYER
  2
DIVIDE
 70
    64
 62
     5
  6
DIVIDE
  0
ENDTAB
  0
TABLE
  2
STYLE
 70
     1
  0
STYLE
  2
STANDARD
 70
    64
 40
0.0
 41
1.0
 50
0.0
 71
     0
 42
0.2
  3
TXT
  4

  0
STYLE
  2
KANJI
 70
    64
 40
0.0
 41
1.0
 50
0.0
 71
     0
 42
0.2
  3
TXT
  4
BIGFONT
  0
ENDTAB
  0
TABLE
  2
VIEW
 70
     0
  0
ENDTAB
  0
ENDSEC
  0
SECTION
  2
BLOCKS
  0
ENDSEC
  0
SECTION
  2
ENTITIES
  0
TEXT
  8
0
 62
     7
 10
4.823370
 20
5.305707
 40
1.929348
 41
1.000000
  1
KHK SSA2.5-18J16
  7
KANJI
 50
0.000000
 51
0.000000
  0
TEXT
  8
0
 62
     7
 10
4.823370
 20
2.411685
 40
1.929348
 41
1.000000
  1
The precision grade of gears after secondary operations is equivalent but not identical to its original grade.
  7
KANJI
 50
0.000000
 51
0.000000
  0
TEXT
  8
0
 62
     7
 10
4.823370
 20
86.820656
 40
2.170516
 41
1.000000
  1
For J Series products, without black oxide repeatedly applied on secondary-operated parts.
  7
KANJI
 50
0.000000
 51
0.000000
  0
POLYLINE
  8
0
 62
     7
 66
     1
 70
     2
  0
VERTEX
  8
0
 10
115.760872
 20
86.820656
  0
VERTEX
  8
0
 10
113.879761
 20
90.081253
  0
VERTEX
  8
0
 10
121.404213
 20
90.081253
  0
VERTEX
  8
0
 10
119.523102
 20
86.820656
  0
VERTEX
  8
0
 10
117.641983
 20
90.081253
  0
VERTEX
  8
0
 10
115.760872
 20
86.820656
  0
SEQEND
  0
LINE
  8
0
 62
     5
 10
76.224182
 20
63.427315
 11
76.224182
 21
13.427315
  0
POLYLINE
  8
0
 62
     5
 66
     1
 70
     2
  0
VERTEX
  8
0
 10
76.706520
 20
61.739136
  0
VERTEX
  8
0
 10
76.224182
 20
63.427315
  0
VERTEX
  8
0
 10
75.741844
 20
61.739136
  0
SEQEND
  0
POLYLINE
  8
0
 62
     5
 66
     1
 70
     2
  0
VERTEX
  8
0
 10
75.741844
 20
15.115494
  0
VERTEX
  8
0
 10
76.224182
 20
13.427315
  0
VERTEX
  8
0
 10
76.706520
 20
15.115494
  0
SEQEND
  0
LINE
  8
0
 62
     5
 10
58.860054
 20
63.427315
 11
76.947693
 21
63.427315
  0
LINE
  8
0
 62
     5
 10
58.860054
 20
13.427315
 11
76.947693
 21
13.427315
  0
TEXT
  8
0
 62
     7
 10
75.741844
 20
35.593586
 40
2.411685
 41
1.000000
  1
%%c50
  7
KANJI
 50
90.000000
 51
0.000000
  0
LINE
  8
0
 62
     5
 10
33.860054
 20
73.074051
 11
58.860054
 21
73.074051
  0
POLYLINE
  8
0
 62
     5
 66
     1
 70
     2
  0
VERTEX
  8
0
 10
35.548233
 20
73.556396
  0
VERTEX
  8
0
 10
33.860054
 20
73.074051
  0
VERTEX
  8
0
 10
35.548233
 20
72.591721
  0
SEQEND
  0
POLYLINE
  8
0
 62
     5
 66
     1
 70
     2
  0
VERTEX
  8
0
 10
57.171875
 20
72.591721
  0
VERTEX
  8
0
 10
58.860054
 20
73.074051
  0
VERTEX
  8
0
 10
57.171875
 20
73.556396
  0
SEQEND
  0
LINE
  8
0
 62
     5
 10
33.860054
 20
63.427315
 11
33.860054
 21
73.797562
  0
LINE
  8
0
 62
     5
 10
58.860054
 20
63.427315
 11
58.860054
 21
73.797562
  0
TEXT
  8
0
 62
     7
 10
44.792458
 20
73.459923
 40
2.411685
 41
1.000000
  1
25
  7
KANJI
 50
0.000000
 51
0.000000
  0
LINE
  8
DASHDOT
 62
     7
 10
32.413044
 20
60.927315
 11
60.307064
 21
60.927315
  0
LINE
  8
DASHDOT
 62
     7
 10
32.413044
 20
15.927315
 11
60.307064
 21
15.927315
  0
LINE
  8
DASHDOT
 62
     7
 10
32.413044
 20
38.427315
 11
60.307064
 21
38.427315
  0
LINE
  8
0
 62
     5
 10
57.860054
 20
13.427315
 11
58.860054
 21
13.427315
  0
LINE
  8
0
 62
     5
 10
57.860054
 20
63.427315
 11
58.860054
 21
63.427315
  0
LINE
  8
0
 62
     5
 10
58.860054
 20
62.427315
 11
58.860054
 21
63.427315
  0
LINE
  8
0
 62
     5
 10
33.860054
 20
62.427315
 11
33.860054
 21
63.427315
  0
LINE
  8
0
 62
     4
 10
33.860054
 20
57.802315
 11
58.860054
 21
57.802315
  0
LINE
  8
0
 62
     4
 10
33.860054
 20
19.052315
 11
58.860054
 21
19.052315
  0
LINE
  8
0
 62
     4
 10
58.860054
 20
46.927315
 11
58.360054
 21
46.427315
  0
LINE
  8
0
 62
     4
 10
58.860054
 20
29.927315
 11
58.360054
 21
30.427315
  0
LINE
  8
0
 62
     4
 10
33.860054
 20
29.927315
 11
34.360054
 21
30.427315
  0
POLYLINE
  8
0
 62
     4
 66
     1
 70
     2
  0
VERTEX
  8
0
 10
33.860054
 20
29.927315
  0
VERTEX
  8
0
 10
33.860054
 20
14.427315
  0
VERTEX
  8
0
 10
34.860054
 20
13.427315
  0
VERTEX
  8
0
 10
57.860054
 20
13.427315
  0
VERTEX
  8
0
 10
58.860054
 20
14.427315
  0
VERTEX
  8
0
 10
58.860054
 20
62.427315
  0
VERTEX
  8
0
 10
57.860054
 20
63.427315
  0
VERTEX
  8
0
 10
34.860054
 20
63.427315
  0
VERTEX
  8
0
 10
33.860054
 20
62.427315
  0
VERTEX
  8
0
 10
33.860054
 20
29.927315
  0
SEQEND
  0
POLYLINE
  8
0
 62
     4
 66
     1
 70
     2
  0
VERTEX
  8
0
 10
33.860054
 20
46.927315
  0
VERTEX
  8
0
 10
34.360054
 20
46.427315
  0
VERTEX
  8
0
 10
34.360054
 20
30.427315
  0
VERTEX
  8
0
 10
58.360054
 20
30.427315
  0
VERTEX
  8
0
 10
58.360054
 20
46.427315
  0
VERTEX
  8
0
 10
34.360054
 20
46.427315
  0
SEQEND
  0
ARC
  8
0
 62
     4
 10
90.976898
 20
38.427315
 40
8.000000
 50
108.20995732853793
 51
71.79004267146207
  0
POLYLINE
  8
0
 62
     4
 66
     1
 70
     2
  0
VERTEX
  8
0
 10
93.476898
 20
46.026657
  0
VERTEX
  8
0
 10
93.476898
 20
48.727314
  0
VERTEX
  8
0
 10
88.476898
 20
48.727314
  0
VERTEX
  8
0
 10
88.476898
 20
46.026657
  0
SEQEND
  0
LINE
  8
0
 62
     4
 10
33.860054
 20
48.727314
 11
58.860054
 21
48.727314
  0
LINE
  8
DASHDOT
 62
     7
 10
90.976898
 20
50.174324
 11
90.976898
 21
28.980305
  0
LINE
  8
DASHDOT
 62
     7
 10
100.423912
 20
38.427315
 11
81.529892
 21
38.427315
  0
LINE
  8
0
 62
     5
 10
96.370926
 20
52.103676
 11
85.582886
 21
52.103676
  0
POLYLINE
  8
0
 62
     5
 66
     1
 70
     2
  0
VERTEX
  8
0
 10
86.788727
 20
51.621338
  0
VERTEX
  8
0
 10
88.476898
 20
52.103676
  0
VERTEX
  8
0
 10
86.788727
 20
52.586010
  0
SEQEND
  0
POLYLINE
  8
0
 62
     5
 66
     1
 70
     2
  0
VERTEX
  8
0
 10
95.165085
 20
52.586010
  0
VERTEX
  8
0
 10
93.476898
 20
52.103676
  0
VERTEX
  8
0
 10
95.165085
 20
51.621338
  0
SEQEND
  0
LINE
  8
0
 62
     5
 10
88.476898
 20
48.727314
 11
88.476898
 21
52.827179
  0
LINE
  8
0
 62
     5
 10
93.476898
 20
48.727314
 11
93.476898
 21
52.827179
  0
TEXT
  8
0
 62
     7
 10
85.998703
 20
52.586010
 40
2.411685
 41
1.000000
  1
5
  7
KANJI
 50
0.000000
 51
0.000000
  0
TEXT
  8
0
 62
     7
 10
88.385979
 20
52.586010
 40
1.929348
 41
1.000000
  1
%%p0.015
  7
KANJI
 50
0.000000
 51
0.000000
  0
LINE
  8
0
 62
     5
 10
110.358696
 20
48.727314
 11
110.358696
 21
30.427315
  0
POLYLINE
  8
0
 62
     5
 66
     1
 70
     2
  0
VERTEX
  8
0
 10
110.841034
 20
47.039135
  0
VERTEX
  8
0
 10
110.358696
 20
48.727314
  0
VERTEX
  8
0
 10
109.876358
 20
47.039135
  0
SEQEND
  0
POLYLINE
  8
0
 62
     5
 66
     1
 70
     2
  0
VERTEX
  8
0
 10
109.876358
 20
32.115494
  0
VERTEX
  8
0
 10
110.358696
 20
30.427315
  0
VERTEX
  8
0
 10
110.841034
 20
32.115494
  0
SEQEND
  0
LINE
  8
0
 62
     5
 10
93.476898
 20
48.727314
 11
111.082199
 21
48.727314
  0
LINE
  8
0
 62
     5
 10
90.976898
 20
30.427315
 11
111.082199
 21
30.427315
  0
TEXT
  8
0
 62
     7
 10
109.635193
 20
30.870739
 40
2.411685
 41
1.000000
  1
18.3
  7
KANJI
 50
90.000000
 51
0.000000
  0
TEXT
  8
0
 62
     7
 10
109.779892
 20
41.309464
 40
1.205842
 41
1.000000
  1
 
  7
KANJI
 50
90.000000
 51
0.000000
  0
TEXT
  8
0
 62
     7
 10
108.284645
 20
41.309464
 40
1.205842
 41
1.000000
  1
+
  7
KANJI
 50
90.000000
 51
0.000000
  0
TEXT
  8
0
 62
     7
 10
109.779892
 20
42.660007
 40
1.205842
 41
1.000000
  1
0
  7
KANJI
 50
90.000000
 51
0.000000
  0
TEXT
  8
0
 62
     7
 10
108.284645
 20
42.660007
 40
1.205842
 41
1.000000
  1
0.1
  7
KANJI
 50
90.000000
 51
0.000000
  0
LINE
  8
0
 62
     5
 10
68.506790
 20
46.427315
 11
68.506790
 21
30.427315
  0
POLYLINE
  8
0
 62
     5
 66
     1
 70
     2
  0
VERTEX
  8
0
 10
68.024460
 20
32.115494
  0
VERTEX
  8
0
 10
68.506790
 20
30.427315
  0
VERTEX
  8
0
 10
68.989136
 20
32.115494
  0
SEQEND
  0
LINE
  8
0
 62
     5
 10
58.860054
 20
30.427315
 11
69.230301
 21
30.427315
  0
TEXT
  8
0
 62
     7
 10
68.024460
 20
34.025990
 40
2.411685
 41
1.000000
  1
%%c16H7
  7
KANJI
 50
90.000000
 51
0.000000
  0
ENDSEC
  0
EOF
