  0
SECTION
  2
HEADER
  9
$ACADVER
  1
AC1003
  9
$INSBASE
 10
0.000000
 20
0.000000
  9
$EXTMIN
 10
0.000000
 20
0.000000
  9
$EXTMAX
 10
341.771739
 20
236.331522
  9
$LIMMIN
 10
0.000000
 20
0.000000
  9
$LIMMAX
 10
341.771739
 20
236.331522
  9
$VIEWCTR
 10
170.885870
 20
118.165761
  9
$VIEWSIZE
 40
236.331522
  0
ENDSEC
  0
SECTION
  2
TABLES
  0
TABLE
  2
LTYPE
 70
     4
  0
LTYPE
  2
CONTINUOUS
 70
    64
  3
SolidLine
 72
    65
 73
     0
 40
0.0
  0
LTYPE
  2
HIDDEN
 70
    64
  3
------------------------
 72
    65
 73
     2
 40
3.635870
 49
2.423913
 49
-1.211957
  0
LTYPE
  2
DASHDOT
 70
    64
  3
--?--?--?--?--?--?--?--
 72
    65
 73
     4
 40
14.543478
 49
10.907609
 49
-1.211957
 49
1.211957
 49
-1.211957
  0
LTYPE
  2
DIVIDE
 70
    64
  3
--??--??--??--??--??--
 72
    65
 73
     6
 40
18.179348
 49
12.119565
 49
-1.211957
 49
1.211957
 49
-1.211957
 49
1.211957
 49
-1.211957
  0
ENDTAB
  0
TABLE
  2
LAYER
 70
     5
  0
LAYER
  2
0
 70
    64
 62
     7
  6
CONTINUOUS
  0
LAYER
  2
HIDDEN
 70
    64
 62
     2
  6
HIDDEN
  0
LAYER
  2
DASHDOT
 70
    64
 62
     6
  6
DASHDOT
  0
LAYER
  2
DIVIDE
 70
    64
 62
     5
  6
DIVIDE
  0
ENDTAB
  0
TABLE
  2
STYLE
 70
     1
  0
STYLE
  2
STANDARD
 70
    64
 40
0.0
 41
1.0
 50
0.0
 71
     0
 42
0.2
  3
TXT
  4

  0
STYLE
  2
KANJI
 70
    64
 40
0.0
 41
1.0
 50
0.0
 71
     0
 42
0.2
  3
TXT
  4
BIGFONT
  0
ENDTAB
  0
TABLE
  2
VIEW
 70
     0
  0
ENDTAB
  0
ENDSEC
  0
SECTION
  2
BLOCKS
  0
ENDSEC
  0
SECTION
  2
ENTITIES
  0
TEXT
  8
0
 62
     7
 10
12.119565
 20
13.331522
 40
4.847826
 41
1.000000
  1
KHK SSA2-56J22
  7
KANJI
 50
0.000000
 51
0.000000
  0
TEXT
  8
0
 62
     7
 10
12.119565
 20
6.059783
 40
4.847826
 41
1.000000
  1
The precision grade of gears after secondary operations is equivalent but not identical to its original grade.
  7
KANJI
 50
0.000000
 51
0.000000
  0
TEXT
  8
0
 62
     7
 10
12.119565
 20
218.152176
 40
5.453804
 41
1.000000
  1
For J Series products, without black oxide repeatedly applied on secondary-operated parts.
  7
KANJI
 50
0.000000
 51
0.000000
  0
POLYLINE
  8
0
 62
     7
 66
     1
 70
     2
  0
VERTEX
  8
0
 10
290.869568
 20
218.152176
  0
VERTEX
  8
0
 10
286.142944
 20
226.345001
  0
VERTEX
  8
0
 10
305.049469
 20
226.345001
  0
VERTEX
  8
0
 10
300.322815
 20
218.152176
  0
VERTEX
  8
0
 10
295.596191
 20
226.345001
  0
VERTEX
  8
0
 10
290.869568
 20
218.152176
  0
SEQEND
  0
LINE
  8
0
 62
     5
 10
176.309769
 20
159.372284
 11
176.309769
 21
43.372284
  0
POLYLINE
  8
0
 62
     5
 66
     1
 70
     2
  0
VERTEX
  8
0
 10
177.521729
 20
155.130432
  0
VERTEX
  8
0
 10
176.309769
 20
159.372284
  0
VERTEX
  8
0
 10
175.097809
 20
155.130432
  0
SEQEND
  0
POLYLINE
  8
0
 62
     5
 66
     1
 70
     2
  0
VERTEX
  8
0
 10
175.097809
 20
47.614132
  0
VERTEX
  8
0
 10
176.309769
 20
43.372284
  0
VERTEX
  8
0
 10
177.521729
 20
47.614132
  0
SEQEND
  0
LINE
  8
0
 62
     5
 10
132.679337
 20
159.372284
 11
178.127716
 21
159.372284
  0
LINE
  8
0
 62
     5
 10
132.679337
 20
43.372284
 11
178.127716
 21
43.372284
  0
TEXT
  8
0
 62
     7
 10
175.097809
 20
92.282608
 40
6.059783
 41
1.000000
  1
%%c116
  7
KANJI
 50
90.000000
 51
0.000000
  0
LINE
  8
0
 62
     5
 10
112.679337
 20
183.611420
 11
132.679337
 21
183.611420
  0
POLYLINE
  8
0
 62
     5
 66
     1
 70
     2
  0
VERTEX
  8
0
 10
116.921188
 20
184.823364
  0
VERTEX
  8
0
 10
112.679337
 20
183.611420
  0
VERTEX
  8
0
 10
116.921188
 20
182.399445
  0
SEQEND
  0
POLYLINE
  8
0
 62
     5
 66
     1
 70
     2
  0
VERTEX
  8
0
 10
128.437485
 20
182.399445
  0
VERTEX
  8
0
 10
132.679337
 20
183.611420
  0
VERTEX
  8
0
 10
128.437485
 20
184.823364
  0
SEQEND
  0
LINE
  8
0
 62
     5
 10
112.679337
 20
159.372284
 11
112.679337
 21
185.429352
  0
LINE
  8
0
 62
     5
 10
132.679337
 20
159.372284
 11
132.679337
 21
185.429352
  0
TEXT
  8
0
 62
     7
 10
118.740479
 20
184.580978
 40
6.059783
 41
1.000000
  1
20
  7
KANJI
 50
0.000000
 51
0.000000
  0
LINE
  8
DASHDOT
 62
     7
 10
109.043465
 20
157.372284
 11
136.315201
 21
157.372284
  0
LINE
  8
DASHDOT
 62
     7
 10
109.043465
 20
45.372284
 11
136.315201
 21
45.372284
  0
LINE
  8
DASHDOT
 62
     7
 10
109.043465
 20
101.372284
 11
136.315201
 21
101.372284
  0
LINE
  8
0
 62
     5
 10
132.179337
 20
43.372284
 11
132.679337
 21
43.372284
  0
LINE
  8
0
 62
     5
 10
132.179337
 20
159.372284
 11
132.679337
 21
159.372284
  0
LINE
  8
0
 62
     5
 10
132.679337
 20
158.872284
 11
132.679337
 21
159.372284
  0
LINE
  8
0
 62
     5
 10
112.679337
 20
158.872284
 11
112.679337
 21
159.372284
  0
LINE
  8
0
 62
     4
 10
112.679337
 20
154.872284
 11
132.679337
 21
154.872284
  0
LINE
  8
0
 62
     4
 10
112.679337
 20
47.872284
 11
132.679337
 21
47.872284
  0
LINE
  8
0
 62
     4
 10
132.679337
 20
113.372284
 11
131.679337
 21
112.372284
  0
LINE
  8
0
 62
     4
 10
132.679337
 20
89.372284
 11
131.679337
 21
90.372284
  0
LINE
  8
0
 62
     4
 10
112.679337
 20
89.372284
 11
113.679337
 21
90.372284
  0
POLYLINE
  8
0
 62
     4
 66
     1
 70
     2
  0
VERTEX
  8
0
 10
112.679337
 20
89.372284
  0
VERTEX
  8
0
 10
112.679337
 20
43.872284
  0
VERTEX
  8
0
 10
113.179337
 20
43.372284
  0
VERTEX
  8
0
 10
132.179337
 20
43.372284
  0
VERTEX
  8
0
 10
132.679337
 20
43.872284
  0
VERTEX
  8
0
 10
132.679337
 20
158.872284
  0
VERTEX
  8
0
 10
132.179337
 20
159.372284
  0
VERTEX
  8
0
 10
113.179337
 20
159.372284
  0
VERTEX
  8
0
 10
112.679337
 20
158.872284
  0
VERTEX
  8
0
 10
112.679337
 20
89.372284
  0
SEQEND
  0
POLYLINE
  8
0
 62
     4
 66
     1
 70
     2
  0
VERTEX
  8
0
 10
112.679337
 20
113.372284
  0
VERTEX
  8
0
 10
113.679337
 20
112.372284
  0
VERTEX
  8
0
 10
113.679337
 20
90.372284
  0
VERTEX
  8
0
 10
131.679337
 20
90.372284
  0
VERTEX
  8
0
 10
131.679337
 20
112.372284
  0
VERTEX
  8
0
 10
113.679337
 20
112.372284
  0
SEQEND
  0
ARC
  8
0
 62
     4
 10
204.277161
 20
101.372284
 40
11.000000
 50
105.82662088647183
 51
74.17337911352817
  0
POLYLINE
  8
0
 62
     4
 66
     1
 70
     2
  0
VERTEX
  8
0
 10
207.277161
 20
111.955292
  0
VERTEX
  8
0
 10
207.277161
 20
115.172287
  0
VERTEX
  8
0
 10
201.277161
 20
115.172287
  0
VERTEX
  8
0
 10
201.277161
 20
111.955292
  0
SEQEND
  0
LINE
  8
0
 62
     4
 10
112.679337
 20
115.172287
 11
132.679337
 21
115.172287
  0
LINE
  8
DASHDOT
 62
     7
 10
204.277161
 20
118.808151
 11
204.277161
 21
86.736412
  0
LINE
  8
DASHDOT
 62
     7
 10
218.913025
 20
101.372284
 11
189.641296
 21
101.372284
  0
LINE
  8
0
 62
     5
 10
214.548889
 20
123.655975
 11
194.005432
 21
123.655975
  0
POLYLINE
  8
0
 62
     5
 66
     1
 70
     2
  0
VERTEX
  8
0
 10
197.035309
 20
122.444023
  0
VERTEX
  8
0
 10
201.277161
 20
123.655975
  0
VERTEX
  8
0
 10
197.035309
 20
124.867935
  0
SEQEND
  0
POLYLINE
  8
0
 62
     5
 66
     1
 70
     2
  0
VERTEX
  8
0
 10
211.519012
 20
124.867935
  0
VERTEX
  8
0
 10
207.277161
 20
123.655975
  0
VERTEX
  8
0
 10
211.519012
 20
122.444023
  0
SEQEND
  0
LINE
  8
0
 62
     5
 10
201.277161
 20
115.172287
 11
201.277161
 21
125.473915
  0
LINE
  8
0
 62
     5
 10
207.277161
 20
115.172287
 11
207.277161
 21
125.473915
  0
TEXT
  8
0
 62
     7
 10
191.768570
 20
124.867935
 40
6.059783
 41
1.000000
  1
6
  7
KANJI
 50
0.000000
 51
0.000000
  0
TEXT
  8
0
 62
     7
 10
197.767014
 20
124.867935
 40
4.847826
 41
1.000000
  1
%%p0.015
  7
KANJI
 50
0.000000
 51
0.000000
  0
LINE
  8
0
 62
     5
 10
249.695633
 20
115.172287
 11
249.695633
 21
90.372284
  0
POLYLINE
  8
0
 62
     5
 66
     1
 70
     2
  0
VERTEX
  8
0
 10
250.907593
 20
110.930435
  0
VERTEX
  8
0
 10
249.695633
 20
115.172287
  0
VERTEX
  8
0
 10
248.483673
 20
110.930435
  0
SEQEND
  0
POLYLINE
  8
0
 62
     5
 66
     1
 70
     2
  0
VERTEX
  8
0
 10
248.483673
 20
94.614136
  0
VERTEX
  8
0
 10
249.695633
 20
90.372284
  0
VERTEX
  8
0
 10
250.907593
 20
94.614136
  0
SEQEND
  0
LINE
  8
0
 62
     5
 10
207.277161
 20
115.172287
 11
251.513565
 21
115.172287
  0
LINE
  8
0
 62
     5
 10
204.277161
 20
90.372284
 11
251.513565
 21
90.372284
  0
TEXT
  8
0
 62
     7
 10
247.877701
 20
83.013672
 40
6.059783
 41
1.000000
  1
24.8
  7
KANJI
 50
90.000000
 51
0.000000
  0
TEXT
  8
0
 62
     7
 10
248.241287
 20
109.242813
 40
3.029891
 41
1.000000
  1
 
  7
KANJI
 50
90.000000
 51
0.000000
  0
TEXT
  8
0
 62
     7
 10
244.484222
 20
109.242813
 40
3.029891
 41
1.000000
  1
+
  7
KANJI
 50
90.000000
 51
0.000000
  0
TEXT
  8
0
 62
     7
 10
248.241287
 20
112.636292
 40
3.029891
 41
1.000000
  1
0
  7
KANJI
 50
90.000000
 51
0.000000
  0
TEXT
  8
0
 62
     7
 10
244.484222
 20
112.636292
 40
3.029891
 41
1.000000
  1
0.1
  7
KANJI
 50
90.000000
 51
0.000000
  0
LINE
  8
0
 62
     5
 10
156.918457
 20
112.372284
 11
156.918457
 21
90.372284
  0
POLYLINE
  8
0
 62
     5
 66
     1
 70
     2
  0
VERTEX
  8
0
 10
155.706512
 20
94.614136
  0
VERTEX
  8
0
 10
156.918457
 20
90.372284
  0
VERTEX
  8
0
 10
158.130417
 20
94.614136
  0
SEQEND
  0
LINE
  8
0
 62
     5
 10
132.679337
 20
90.372284
 11
158.736404
 21
90.372284
  0
TEXT
  8
0
 62
     7
 10
155.706512
 20
90.313179
 40
6.059783
 41
1.000000
  1
%%c22H7
  7
KANJI
 50
90.000000
 51
0.000000
  0
ENDSEC
  0
EOF
