  0
SECTION
  2
HEADER
  9
$ACADVER
  1
AC1003
  9
$INSBASE
 10
0.000000
 20
0.000000
  9
$EXTMIN
 10
0.000000
 20
0.000000
  9
$EXTMAX
 10
611.127717
 20
422.588315
  9
$LIMMIN
 10
0.000000
 20
0.000000
  9
$LIMMAX
 10
611.127717
 20
422.588315
  9
$VIEWCTR
 10
305.563859
 20
211.294158
  9
$VIEWSIZE
 40
422.588315
  0
ENDSEC
  0
SECTION
  2
TABLES
  0
TABLE
  2
LTYPE
 70
     4
  0
LTYPE
  2
CONTINUOUS
 70
    64
  3
SolidLine
 72
    65
 73
     0
 40
0.0
  0
LTYPE
  2
HIDDEN
 70
    64
  3
------------------------
 72
    65
 73
     2
 40
6.501359
 49
4.334239
 49
-2.167120
  0
LTYPE
  2
DASHDOT
 70
    64
  3
--?--?--?--?--?--?--?--
 72
    65
 73
     4
 40
26.005435
 49
19.504076
 49
-2.167120
 49
2.167120
 49
-2.167120
  0
LTYPE
  2
DIVIDE
 70
    64
  3
--??--??--??--??--??--
 72
    65
 73
     6
 40
32.506793
 49
21.671196
 49
-2.167120
 49
2.167120
 49
-2.167120
 49
2.167120
 49
-2.167120
  0
ENDTAB
  0
TABLE
  2
LAYER
 70
     5
  0
LAYER
  2
0
 70
    64
 62
     7
  6
CONTINUOUS
  0
LAYER
  2
HIDDEN
 70
    64
 62
     2
  6
HIDDEN
  0
LAYER
  2
DASHDOT
 70
    64
 62
     6
  6
DASHDOT
  0
LAYER
  2
DIVIDE
 70
    64
 62
     5
  6
DIVIDE
  0
ENDTAB
  0
TABLE
  2
STYLE
 70
     1
  0
STYLE
  2
STANDARD
 70
    64
 40
0.0
 41
1.0
 50
0.0
 71
     0
 42
0.2
  3
TXT
  4

  0
STYLE
  2
KANJI
 70
    64
 40
0.0
 41
1.0
 50
0.0
 71
     0
 42
0.2
  3
TXT
  4
BIGFONT
  0
ENDTAB
  0
TABLE
  2
VIEW
 70
     0
  0
ENDTAB
  0
ENDSEC
  0
SECTION
  2
BLOCKS
  0
ENDSEC
  0
SECTION
  2
ENTITIES
  0
TEXT
  8
0
 62
     7
 10
21.671196
 20
23.838316
 40
8.668478
 41
1.000000
  1
KHK SSA2.5-80J30
  7
KANJI
 50
0.000000
 51
0.000000
  0
TEXT
  8
0
 62
     7
 10
21.671196
 20
10.835598
 40
8.668478
 41
1.000000
  1
The precision grade of gears after secondary operations is equivalent but not identical to its original grade.
  7
KANJI
 50
0.000000
 51
0.000000
  0
TEXT
  8
0
 62
     7
 10
21.671196
 20
390.081512
 40
9.752038
 41
1.000000
  1
For J Series products, without black oxide repeatedly applied on secondary-operated parts.
  7
KANJI
 50
0.000000
 51
0.000000
  0
POLYLINE
  8
0
 62
     7
 66
     1
 70
     2
  0
VERTEX
  8
0
 10
520.108704
 20
390.081512
  0
VERTEX
  8
0
 10
511.656921
 20
404.731232
  0
VERTEX
  8
0
 10
545.463989
 20
404.731232
  0
VERTEX
  8
0
 10
537.012207
 20
390.081512
  0
VERTEX
  8
0
 10
528.560486
 20
404.731232
  0
VERTEX
  8
0
 10
520.108704
 20
390.081512
  0
SEQEND
  0
LINE
  8
0
 62
     5
 10
312.898102
 20
284.976227
 11
312.898102
 21
79.976227
  0
POLYLINE
  8
0
 62
     5
 66
     1
 70
     2
  0
VERTEX
  8
0
 10
315.065247
 20
277.391296
  0
VERTEX
  8
0
 10
312.898102
 20
284.976227
  0
VERTEX
  8
0
 10
310.730988
 20
277.391296
  0
SEQEND
  0
POLYLINE
  8
0
 62
     5
 66
     1
 70
     2
  0
VERTEX
  8
0
 10
310.730988
 20
87.561142
  0
VERTEX
  8
0
 10
312.898102
 20
79.976227
  0
VERTEX
  8
0
 10
315.065247
 20
87.561142
  0
SEQEND
  0
LINE
  8
0
 62
     5
 10
234.881805
 20
284.976227
 11
316.148804
 21
284.976227
  0
LINE
  8
0
 62
     5
 10
234.881805
 20
79.976227
 11
316.148804
 21
79.976227
  0
TEXT
  8
0
 62
     7
 10
310.730988
 20
166.222839
 40
10.835598
 41
1.000000
  1
%%c205
  7
KANJI
 50
90.000000
 51
0.000000
  0
LINE
  8
0
 62
     5
 10
209.881805
 20
328.318604
 11
234.881805
 21
328.318604
  0
POLYLINE
  8
0
 62
     5
 66
     1
 70
     2
  0
VERTEX
  8
0
 10
217.466721
 20
330.485718
  0
VERTEX
  8
0
 10
209.881805
 20
328.318604
  0
VERTEX
  8
0
 10
217.466721
 20
326.151489
  0
SEQEND
  0
POLYLINE
  8
0
 62
     5
 66
     1
 70
     2
  0
VERTEX
  8
0
 10
227.296890
 20
326.151489
  0
VERTEX
  8
0
 10
234.881805
 20
328.318604
  0
VERTEX
  8
0
 10
227.296890
 20
330.485718
  0
SEQEND
  0
LINE
  8
0
 62
     5
 10
209.881805
 20
284.976227
 11
209.881805
 21
331.569305
  0
LINE
  8
0
 62
     5
 10
234.881805
 20
284.976227
 11
234.881805
 21
331.569305
  0
TEXT
  8
0
 62
     7
 10
215.338669
 20
330.052307
 40
10.835598
 41
1.000000
  1
25
  7
KANJI
 50
0.000000
 51
0.000000
  0
LINE
  8
DASHDOT
 62
     7
 10
203.380447
 20
282.476227
 11
241.383163
 21
282.476227
  0
LINE
  8
DASHDOT
 62
     7
 10
203.380447
 20
82.476227
 11
241.383163
 21
82.476227
  0
LINE
  8
DASHDOT
 62
     7
 10
203.380447
 20
182.476227
 11
241.383163
 21
182.476227
  0
LINE
  8
0
 62
     5
 10
233.881805
 20
79.976227
 11
234.881805
 21
79.976227
  0
LINE
  8
0
 62
     5
 10
233.881805
 20
284.976227
 11
234.881805
 21
284.976227
  0
LINE
  8
0
 62
     5
 10
234.881805
 20
283.976227
 11
234.881805
 21
284.976227
  0
LINE
  8
0
 62
     5
 10
209.881805
 20
283.976227
 11
209.881805
 21
284.976227
  0
LINE
  8
0
 62
     4
 10
209.881805
 20
279.351227
 11
234.881805
 21
279.351227
  0
LINE
  8
0
 62
     4
 10
209.881805
 20
85.601227
 11
234.881805
 21
85.601227
  0
LINE
  8
0
 62
     4
 10
234.881805
 20
198.476227
 11
233.881805
 21
197.476227
  0
LINE
  8
0
 62
     4
 10
234.881805
 20
166.476227
 11
233.881805
 21
167.476227
  0
LINE
  8
0
 62
     4
 10
209.881805
 20
166.476227
 11
210.881805
 21
167.476227
  0
POLYLINE
  8
0
 62
     4
 66
     1
 70
     2
  0
VERTEX
  8
0
 10
209.881805
 20
166.476227
  0
VERTEX
  8
0
 10
209.881805
 20
80.976227
  0
VERTEX
  8
0
 10
210.881805
 20
79.976227
  0
VERTEX
  8
0
 10
233.881805
 20
79.976227
  0
VERTEX
  8
0
 10
234.881805
 20
80.976227
  0
VERTEX
  8
0
 10
234.881805
 20
283.976227
  0
VERTEX
  8
0
 10
233.881805
 20
284.976227
  0
VERTEX
  8
0
 10
210.881805
 20
284.976227
  0
VERTEX
  8
0
 10
209.881805
 20
283.976227
  0
VERTEX
  8
0
 10
209.881805
 20
166.476227
  0
SEQEND
  0
POLYLINE
  8
0
 62
     4
 66
     1
 70
     2
  0
VERTEX
  8
0
 10
209.881805
 20
198.476227
  0
VERTEX
  8
0
 10
210.881805
 20
197.476227
  0
VERTEX
  8
0
 10
210.881805
 20
167.476227
  0
VERTEX
  8
0
 10
233.881805
 20
167.476227
  0
VERTEX
  8
0
 10
233.881805
 20
197.476227
  0
VERTEX
  8
0
 10
210.881805
 20
197.476227
  0
SEQEND
  0
ARC
  8
0
 62
     4
 10
358.237793
 20
182.476227
 40
15.000000
 50
105.46601032289746
 51
74.53398967710255
  0
POLYLINE
  8
0
 62
     4
 66
     1
 70
     2
  0
VERTEX
  8
0
 10
362.237793
 20
196.933060
  0
VERTEX
  8
0
 10
362.237793
 20
200.776230
  0
VERTEX
  8
0
 10
354.237793
 20
200.776230
  0
VERTEX
  8
0
 10
354.237793
 20
196.933060
  0
SEQEND
  0
LINE
  8
0
 62
     4
 10
209.881805
 20
200.776230
 11
234.881805
 21
200.776230
  0
LINE
  8
DASHDOT
 62
     7
 10
358.237793
 20
207.277588
 11
358.237793
 21
160.974869
  0
LINE
  8
DASHDOT
 62
     7
 10
379.739136
 20
182.476227
 11
336.736420
 21
182.476227
  0
LINE
  8
0
 62
     5
 10
375.240479
 20
215.946060
 11
341.235046
 21
215.946060
  0
POLYLINE
  8
0
 62
     5
 66
     1
 70
     2
  0
VERTEX
  8
0
 10
346.652863
 20
213.778946
  0
VERTEX
  8
0
 10
354.237793
 20
215.946060
  0
VERTEX
  8
0
 10
346.652863
 20
218.113190
  0
SEQEND
  0
POLYLINE
  8
0
 62
     5
 66
     1
 70
     2
  0
VERTEX
  8
0
 10
369.822693
 20
218.113190
  0
VERTEX
  8
0
 10
362.237793
 20
215.946060
  0
VERTEX
  8
0
 10
369.822693
 20
213.778946
  0
SEQEND
  0
LINE
  8
0
 62
     5
 10
354.237793
 20
200.776230
 11
354.237793
 21
219.196747
  0
LINE
  8
0
 62
     5
 10
362.237793
 20
200.776230
 11
362.237793
 21
219.196747
  0
TEXT
  8
0
 62
     7
 10
335.870972
 20
218.113190
 40
10.835598
 41
1.000000
  1
8
  7
KANJI
 50
0.000000
 51
0.000000
  0
TEXT
  8
0
 62
     7
 10
346.596863
 20
218.113190
 40
8.668478
 41
1.000000
  1
%%p0.018
  7
KANJI
 50
0.000000
 51
0.000000
  0
LINE
  8
0
 62
     5
 10
438.086975
 20
154.473511
 11
438.086975
 21
213.778946
  0
POLYLINE
  8
0
 62
     5
 66
     1
 70
     2
  0
VERTEX
  8
0
 10
435.919861
 20
208.361145
  0
VERTEX
  8
0
 10
438.086975
 20
200.776230
  0
VERTEX
  8
0
 10
440.254089
 20
208.361145
  0
SEQEND
  0
POLYLINE
  8
0
 62
     5
 66
     1
 70
     2
  0
VERTEX
  8
0
 10
440.254089
 20
159.891312
  0
VERTEX
  8
0
 10
438.086975
 20
167.476227
  0
VERTEX
  8
0
 10
435.919861
 20
159.891312
  0
SEQEND
  0
LINE
  8
0
 62
     5
 10
362.237793
 20
200.776230
 11
441.337646
 21
200.776230
  0
LINE
  8
0
 62
     5
 10
358.237793
 20
167.476227
 11
441.337646
 21
167.476227
  0
TEXT
  8
0
 62
     7
 10
434.836273
 20
149.900055
 40
10.835598
 41
1.000000
  1
33.3
  7
KANJI
 50
90.000000
 51
0.000000
  0
TEXT
  8
0
 62
     7
 10
435.486420
 20
196.800812
 40
5.417799
 41
1.000000
  1
 
  7
KANJI
 50
90.000000
 51
0.000000
  0
TEXT
  8
0
 62
     7
 10
428.768341
 20
196.800812
 40
5.417799
 41
1.000000
  1
+
  7
KANJI
 50
90.000000
 51
0.000000
  0
TEXT
  8
0
 62
     7
 10
435.486420
 20
202.868744
 40
5.417799
 41
1.000000
  1
0
  7
KANJI
 50
90.000000
 51
0.000000
  0
TEXT
  8
0
 62
     7
 10
428.768341
 20
202.868744
 40
5.417799
 41
1.000000
  1
0.2
  7
KANJI
 50
90.000000
 51
0.000000
  0
LINE
  8
0
 62
     5
 10
278.224182
 20
197.476227
 11
278.224182
 21
167.476227
  0
POLYLINE
  8
0
 62
     5
 66
     1
 70
     2
  0
VERTEX
  8
0
 10
276.057068
 20
175.061142
  0
VERTEX
  8
0
 10
278.224182
 20
167.476227
  0
VERTEX
  8
0
 10
280.391327
 20
175.061142
  0
SEQEND
  0
LINE
  8
0
 62
     5
 10
234.881805
 20
167.476227
 11
281.474884
 21
167.476227
  0
TEXT
  8
0
 62
     7
 10
276.057068
 20
162.701263
 40
10.835598
 41
1.000000
  1
%%c30H7
  7
KANJI
 50
90.000000
 51
0.000000
  0
ENDSEC
  0
EOF
