  0
SECTION
  2
HEADER
  9
$ACADVER
  1
AC1003
  9
$INSBASE
 10
0.000000
 20
0.000000
  9
$EXTMIN
 10
0.000000
 20
0.000000
  9
$EXTMAX
 10
151.345109
 20
104.653533
  9
$LIMMIN
 10
0.000000
 20
0.000000
  9
$LIMMAX
 10
151.345109
 20
104.653533
  9
$VIEWCTR
 10
75.672554
 20
52.326766
  9
$VIEWSIZE
 40
104.653533
  0
ENDSEC
  0
SECTION
  2
TABLES
  0
TABLE
  2
LTYPE
 70
     4
  0
LTYPE
  2
CONTINUOUS
 70
    64
  3
SolidLine
 72
    65
 73
     0
 40
0.0
  0
LTYPE
  2
HIDDEN
 70
    64
  3
------------------------
 72
    65
 73
     2
 40
1.610054
 49
1.073370
 49
-0.536685
  0
LTYPE
  2
DASHDOT
 70
    64
  3
--?--?--?--?--?--?--?--
 72
    65
 73
     4
 40
6.440217
 49
4.830163
 49
-0.536685
 49
0.536685
 49
-0.536685
  0
LTYPE
  2
DIVIDE
 70
    64
  3
--??--??--??--??--??--
 72
    65
 73
     6
 40
8.050272
 49
5.366848
 49
-0.536685
 49
0.536685
 49
-0.536685
 49
0.536685
 49
-0.536685
  0
ENDTAB
  0
TABLE
  2
LAYER
 70
     5
  0
LAYER
  2
0
 70
    64
 62
     7
  6
CONTINUOUS
  0
LAYER
  2
HIDDEN
 70
    64
 62
     2
  6
HIDDEN
  0
LAYER
  2
DASHDOT
 70
    64
 62
     6
  6
DASHDOT
  0
LAYER
  2
DIVIDE
 70
    64
 62
     5
  6
DIVIDE
  0
ENDTAB
  0
TABLE
  2
STYLE
 70
     1
  0
STYLE
  2
STANDARD
 70
    64
 40
0.0
 41
1.0
 50
0.0
 71
     0
 42
0.2
  3
TXT
  4

  0
STYLE
  2
KANJI
 70
    64
 40
0.0
 41
1.0
 50
0.0
 71
     0
 42
0.2
  3
TXT
  4
BIGFONT
  0
ENDTAB
  0
TABLE
  2
VIEW
 70
     0
  0
ENDTAB
  0
ENDSEC
  0
SECTION
  2
BLOCKS
  0
ENDSEC
  0
SECTION
  2
ENTITIES
  0
TEXT
  8
0
 62
     7
 10
5.366848
 20
5.903533
 40
2.146739
 41
1.000000
  1
KHK SSA2.5-20J15
  7
KANJI
 50
0.000000
 51
0.000000
  0
TEXT
  8
0
 62
     7
 10
5.366848
 20
2.683424
 40
2.146739
 41
1.000000
  1
The precision grade of gears after secondary operations is equivalent but not identical to its original grade.
  7
KANJI
 50
0.000000
 51
0.000000
  0
TEXT
  8
0
 62
     7
 10
5.366848
 20
96.603264
 40
2.415082
 41
1.000000
  1
For J Series products, without black oxide repeatedly applied on secondary-operated parts.
  7
KANJI
 50
0.000000
 51
0.000000
  0
POLYLINE
  8
0
 62
     7
 66
     1
 70
     2
  0
VERTEX
  8
0
 10
128.804352
 20
96.603264
  0
VERTEX
  8
0
 10
126.711281
 20
100.231255
  0
VERTEX
  8
0
 10
135.083557
 20
100.231255
  0
VERTEX
  8
0
 10
132.990494
 20
96.603264
  0
VERTEX
  8
0
 10
130.897415
 20
100.231255
  0
VERTEX
  8
0
 10
128.804352
 20
96.603264
  0
SEQEND
  0
LINE
  8
0
 62
     5
 10
84.245926
 20
70.574051
 11
84.245926
 21
15.574051
  0
POLYLINE
  8
0
 62
     5
 66
     1
 70
     2
  0
VERTEX
  8
0
 10
84.782608
 20
68.695656
  0
VERTEX
  8
0
 10
84.245926
 20
70.574051
  0
VERTEX
  8
0
 10
83.709236
 20
68.695656
  0
SEQEND
  0
POLYLINE
  8
0
 62
     5
 66
     1
 70
     2
  0
VERTEX
  8
0
 10
83.709236
 20
17.452448
  0
VERTEX
  8
0
 10
84.245926
 20
15.574051
  0
VERTEX
  8
0
 10
84.782608
 20
17.452448
  0
SEQEND
  0
LINE
  8
0
 62
     5
 10
64.925270
 20
70.574051
 11
85.050949
 21
70.574051
  0
LINE
  8
0
 62
     5
 10
64.925270
 20
15.574051
 11
85.050949
 21
15.574051
  0
TEXT
  8
0
 62
     7
 10
83.709236
 20
39.921028
 40
2.683424
 41
1.000000
  1
%%c55
  7
KANJI
 50
90.000000
 51
0.000000
  0
LINE
  8
0
 62
     5
 10
39.925270
 20
81.307747
 11
64.925270
 21
81.307747
  0
POLYLINE
  8
0
 62
     5
 66
     1
 70
     2
  0
VERTEX
  8
0
 10
41.803665
 20
81.844437
  0
VERTEX
  8
0
 10
39.925270
 20
81.307747
  0
VERTEX
  8
0
 10
41.803665
 20
80.771057
  0
SEQEND
  0
POLYLINE
  8
0
 62
     5
 66
     1
 70
     2
  0
VERTEX
  8
0
 10
63.046875
 20
80.771057
  0
VERTEX
  8
0
 10
64.925270
 20
81.307747
  0
VERTEX
  8
0
 10
63.046875
 20
81.844437
  0
SEQEND
  0
LINE
  8
0
 62
     5
 10
39.925270
 20
70.574051
 11
39.925270
 21
82.112778
  0
LINE
  8
0
 62
     5
 10
64.925270
 20
70.574051
 11
64.925270
 21
82.112778
  0
TEXT
  8
0
 62
     7
 10
50.681046
 20
81.737091
 40
2.683424
 41
1.000000
  1
25
  7
KANJI
 50
0.000000
 51
0.000000
  0
LINE
  8
DASHDOT
 62
     7
 10
38.315216
 20
68.074051
 11
66.535324
 21
68.074051
  0
LINE
  8
DASHDOT
 62
     7
 10
38.315216
 20
18.074051
 11
66.535324
 21
18.074051
  0
LINE
  8
DASHDOT
 62
     7
 10
38.315216
 20
43.074051
 11
66.535324
 21
43.074051
  0
LINE
  8
0
 62
     5
 10
63.925270
 20
15.574051
 11
64.925270
 21
15.574051
  0
LINE
  8
0
 62
     5
 10
63.925270
 20
70.574051
 11
64.925270
 21
70.574051
  0
LINE
  8
0
 62
     5
 10
64.925270
 20
69.574051
 11
64.925270
 21
70.574051
  0
LINE
  8
0
 62
     5
 10
39.925270
 20
69.574051
 11
39.925270
 21
70.574051
  0
LINE
  8
0
 62
     4
 10
39.925270
 20
64.949051
 11
64.925270
 21
64.949051
  0
LINE
  8
0
 62
     4
 10
39.925270
 20
21.199051
 11
64.925270
 21
21.199051
  0
LINE
  8
0
 62
     4
 10
64.925270
 20
51.074051
 11
64.425270
 21
50.574051
  0
LINE
  8
0
 62
     4
 10
64.925270
 20
35.074051
 11
64.425270
 21
35.574051
  0
LINE
  8
0
 62
     4
 10
39.925270
 20
35.074051
 11
40.425270
 21
35.574051
  0
POLYLINE
  8
0
 62
     4
 66
     1
 70
     2
  0
VERTEX
  8
0
 10
39.925270
 20
35.074051
  0
VERTEX
  8
0
 10
39.925270
 20
16.574051
  0
VERTEX
  8
0
 10
40.925270
 20
15.574051
  0
VERTEX
  8
0
 10
63.925270
 20
15.574051
  0
VERTEX
  8
0
 10
64.925270
 20
16.574051
  0
VERTEX
  8
0
 10
64.925270
 20
69.574051
  0
VERTEX
  8
0
 10
63.925270
 20
70.574051
  0
VERTEX
  8
0
 10
40.925270
 20
70.574051
  0
VERTEX
  8
0
 10
39.925270
 20
69.574051
  0
VERTEX
  8
0
 10
39.925270
 20
35.074051
  0
SEQEND
  0
POLYLINE
  8
0
 62
     4
 66
     1
 70
     2
  0
VERTEX
  8
0
 10
39.925270
 20
51.074051
  0
VERTEX
  8
0
 10
40.425270
 20
50.574051
  0
VERTEX
  8
0
 10
40.425270
 20
35.574051
  0
VERTEX
  8
0
 10
64.425270
 20
35.574051
  0
VERTEX
  8
0
 10
64.425270
 20
50.574051
  0
VERTEX
  8
0
 10
40.425270
 20
50.574051
  0
SEQEND
  0
ARC
  8
0
 62
     4
 10
99.259506
 20
43.074051
 40
7.500000
 50
109.47122094265586
 51
70.52877905734415
  0
POLYLINE
  8
0
 62
     4
 66
     1
 70
     2
  0
VERTEX
  8
0
 10
101.759506
 20
50.145119
  0
VERTEX
  8
0
 10
101.759506
 20
52.874050
  0
VERTEX
  8
0
 10
96.759506
 20
52.874050
  0
VERTEX
  8
0
 10
96.759506
 20
50.145119
  0
SEQEND
  0
LINE
  8
0
 62
     4
 10
39.925270
 20
52.874050
 11
64.925270
 21
52.874050
  0
LINE
  8
DASHDOT
 62
     7
 10
99.259506
 20
54.484104
 11
99.259506
 21
33.963997
  0
LINE
  8
DASHDOT
 62
     7
 10
108.369560
 20
43.074051
 11
90.149460
 21
43.074051
  0
LINE
  8
0
 62
     5
 10
104.979622
 20
56.630844
 11
93.539398
 21
56.630844
  0
POLYLINE
  8
0
 62
     5
 66
     1
 70
     2
  0
VERTEX
  8
0
 10
94.881119
 20
56.094158
  0
VERTEX
  8
0
 10
96.759506
 20
56.630844
  0
VERTEX
  8
0
 10
94.881119
 20
57.167530
  0
SEQEND
  0
POLYLINE
  8
0
 62
     5
 66
     1
 70
     2
  0
VERTEX
  8
0
 10
103.637909
 20
57.167530
  0
VERTEX
  8
0
 10
101.759506
 20
56.630844
  0
VERTEX
  8
0
 10
103.637909
 20
56.094158
  0
SEQEND
  0
LINE
  8
0
 62
     5
 10
96.759506
 20
52.874050
 11
96.759506
 21
57.435871
  0
LINE
  8
0
 62
     5
 10
101.759506
 20
52.874050
 11
101.759506
 21
57.435871
  0
TEXT
  8
0
 62
     7
 10
93.720390
 20
57.167530
 40
2.683424
 41
1.000000
  1
5
  7
KANJI
 50
0.000000
 51
0.000000
  0
TEXT
  8
0
 62
     7
 10
96.376648
 20
57.167530
 40
2.146739
 41
1.000000
  1
%%p0.015
  7
KANJI
 50
0.000000
 51
0.000000
  0
LINE
  8
0
 62
     5
 10
120.543480
 20
52.874050
 11
120.543480
 21
35.574051
  0
POLYLINE
  8
0
 62
     5
 66
     1
 70
     2
  0
VERTEX
  8
0
 10
121.080162
 20
50.995655
  0
VERTEX
  8
0
 10
120.543480
 20
52.874050
  0
VERTEX
  8
0
 10
120.006798
 20
50.995655
  0
SEQEND
  0
POLYLINE
  8
0
 62
     5
 66
     1
 70
     2
  0
VERTEX
  8
0
 10
120.006798
 20
37.452450
  0
VERTEX
  8
0
 10
120.543480
 20
35.574051
  0
VERTEX
  8
0
 10
121.080162
 20
37.452450
  0
SEQEND
  0
LINE
  8
0
 62
     5
 10
101.759506
 20
52.874050
 11
121.348511
 21
52.874050
  0
LINE
  8
0
 62
     5
 10
99.259506
 20
35.574051
 11
121.348511
 21
35.574051
  0
TEXT
  8
0
 62
     7
 10
119.738449
 20
34.842648
 40
2.683424
 41
1.000000
  1
17.3
  7
KANJI
 50
90.000000
 51
0.000000
  0
TEXT
  8
0
 62
     7
 10
119.899460
 20
46.457569
 40
1.341712
 41
1.000000
  1
 
  7
KANJI
 50
90.000000
 51
0.000000
  0
TEXT
  8
0
 62
     7
 10
118.235733
 20
46.457569
 40
1.341712
 41
1.000000
  1
+
  7
KANJI
 50
90.000000
 51
0.000000
  0
TEXT
  8
0
 62
     7
 10
119.899460
 20
47.960285
 40
1.341712
 41
1.000000
  1
0
  7
KANJI
 50
90.000000
 51
0.000000
  0
TEXT
  8
0
 62
     7
 10
118.235733
 20
47.960285
 40
1.341712
 41
1.000000
  1
0.1
  7
KANJI
 50
90.000000
 51
0.000000
  0
LINE
  8
0
 62
     5
 10
75.658966
 20
50.574051
 11
75.658966
 21
35.574051
  0
POLYLINE
  8
0
 62
     5
 66
     1
 70
     2
  0
VERTEX
  8
0
 10
75.122284
 20
37.452446
  0
VERTEX
  8
0
 10
75.658966
 20
35.574051
  0
VERTEX
  8
0
 10
76.195648
 20
37.452446
  0
SEQEND
  0
LINE
  8
0
 62
     5
 10
64.925270
 20
35.574051
 11
76.463989
 21
35.574051
  0
TEXT
  8
0
 62
     7
 10
75.122284
 20
38.176804
 40
2.683424
 41
1.000000
  1
%%c15H7
  7
KANJI
 50
90.000000
 51
0.000000
  0
ENDSEC
  0
EOF
