  0
SECTION
  2
HEADER
  9
$ACADVER
  1
AC1003
  9
$INSBASE
 10
0.000000
 20
0.000000
  9
$EXTMIN
 10
0.000000
 20
0.000000
  9
$EXTMAX
 10
219.163043
 20
151.548913
  9
$LIMMIN
 10
0.000000
 20
0.000000
  9
$LIMMAX
 10
219.163043
 20
151.548913
  9
$VIEWCTR
 10
109.581522
 20
75.774457
  9
$VIEWSIZE
 40
151.548913
  0
ENDSEC
  0
SECTION
  2
TABLES
  0
TABLE
  2
LTYPE
 70
     4
  0
LTYPE
  2
CONTINUOUS
 70
    64
  3
SolidLine
 72
    65
 73
     0
 40
0.0
  0
LTYPE
  2
HIDDEN
 70
    64
  3
------------------------
 72
    65
 73
     2
 40
2.331522
 49
1.554348
 49
-0.777174
  0
LTYPE
  2
DASHDOT
 70
    64
  3
--?--?--?--?--?--?--?--
 72
    65
 73
     4
 40
9.326087
 49
6.994565
 49
-0.777174
 49
0.777174
 49
-0.777174
  0
LTYPE
  2
DIVIDE
 70
    64
  3
--??--??--??--??--??--
 72
    65
 73
     6
 40
11.657609
 49
7.771739
 49
-0.777174
 49
0.777174
 49
-0.777174
 49
0.777174
 49
-0.777174
  0
ENDTAB
  0
TABLE
  2
LAYER
 70
     5
  0
LAYER
  2
0
 70
    64
 62
     7
  6
CONTINUOUS
  0
LAYER
  2
HIDDEN
 70
    64
 62
     2
  6
HIDDEN
  0
LAYER
  2
DASHDOT
 70
    64
 62
     6
  6
DASHDOT
  0
LAYER
  2
DIVIDE
 70
    64
 62
     5
  6
DIVIDE
  0
ENDTAB
  0
TABLE
  2
STYLE
 70
     1
  0
STYLE
  2
STANDARD
 70
    64
 40
0.0
 41
1.0
 50
0.0
 71
     0
 42
0.2
  3
TXT
  4

  0
STYLE
  2
KANJI
 70
    64
 40
0.0
 41
1.0
 50
0.0
 71
     0
 42
0.2
  3
TXT
  4
BIGFONT
  0
ENDTAB
  0
TABLE
  2
VIEW
 70
     0
  0
ENDTAB
  0
ENDSEC
  0
SECTION
  2
BLOCKS
  0
ENDSEC
  0
SECTION
  2
ENTITIES
  0
TEXT
  8
0
 62
     7
 10
7.771739
 20
8.548913
 40
3.108696
 41
1.000000
  1
KHK SSA2-36J18
  7
KANJI
 50
0.000000
 51
0.000000
  0
TEXT
  8
0
 62
     7
 10
7.771739
 20
3.885870
 40
3.108696
 41
1.000000
  1
The precision grade of gears after secondary operations is equivalent but not identical to its original grade.
  7
KANJI
 50
0.000000
 51
0.000000
  0
TEXT
  8
0
 62
     7
 10
7.771739
 20
139.891312
 40
3.497283
 41
1.000000
  1
For J Series products, without black oxide repeatedly applied on secondary-operated parts.
  7
KANJI
 50
0.000000
 51
0.000000
  0
POLYLINE
  8
0
 62
     7
 66
     1
 70
     2
  0
VERTEX
  8
0
 10
186.521744
 20
139.891312
  0
VERTEX
  8
0
 10
183.490768
 20
145.145004
  0
VERTEX
  8
0
 10
195.614685
 20
145.145004
  0
VERTEX
  8
0
 10
192.583694
 20
139.891312
  0
VERTEX
  8
0
 10
189.552719
 20
145.145004
  0
VERTEX
  8
0
 10
186.521744
 20
139.891312
  0
SEQEND
  0
LINE
  8
0
 62
     5
 10
115.135864
 20
102.198372
 11
115.135864
 21
26.198372
  0
POLYLINE
  8
0
 62
     5
 66
     1
 70
     2
  0
VERTEX
  8
0
 10
115.913040
 20
99.478264
  0
VERTEX
  8
0
 10
115.135864
 20
102.198372
  0
VERTEX
  8
0
 10
114.358696
 20
99.478264
  0
SEQEND
  0
POLYLINE
  8
0
 62
     5
 66
     1
 70
     2
  0
VERTEX
  8
0
 10
114.358696
 20
28.918480
  0
VERTEX
  8
0
 10
115.135864
 20
26.198372
  0
VERTEX
  8
0
 10
115.913040
 20
28.918480
  0
SEQEND
  0
LINE
  8
0
 62
     5
 10
87.157608
 20
102.198372
 11
116.301628
 21
102.198372
  0
LINE
  8
0
 62
     5
 10
87.157608
 20
26.198372
 11
116.301628
 21
26.198372
  0
TEXT
  8
0
 62
     7
 10
114.358696
 20
59.632477
 40
3.885870
 41
1.000000
  1
%%c76
  7
KANJI
 50
90.000000
 51
0.000000
  0
LINE
  8
0
 62
     5
 10
67.157608
 20
117.741852
 11
87.157608
 21
117.741852
  0
POLYLINE
  8
0
 62
     5
 66
     1
 70
     2
  0
VERTEX
  8
0
 10
69.877716
 20
118.519028
  0
VERTEX
  8
0
 10
67.157608
 20
117.741852
  0
VERTEX
  8
0
 10
69.877716
 20
116.964676
  0
SEQEND
  0
POLYLINE
  8
0
 62
     5
 66
     1
 70
     2
  0
VERTEX
  8
0
 10
84.437500
 20
116.964676
  0
VERTEX
  8
0
 10
87.157608
 20
117.741852
  0
VERTEX
  8
0
 10
84.437500
 20
118.519028
  0
SEQEND
  0
LINE
  8
0
 62
     5
 10
67.157608
 20
102.198372
 11
67.157608
 21
118.907608
  0
LINE
  8
0
 62
     5
 10
87.157608
 20
102.198372
 11
87.157608
 21
118.907608
  0
TEXT
  8
0
 62
     7
 10
74.631790
 20
118.363586
 40
3.885870
 41
1.000000
  1
20
  7
KANJI
 50
0.000000
 51
0.000000
  0
LINE
  8
DASHDOT
 62
     7
 10
64.826088
 20
100.198372
 11
89.489128
 21
100.198372
  0
LINE
  8
DASHDOT
 62
     7
 10
64.826088
 20
28.198372
 11
89.489128
 21
28.198372
  0
LINE
  8
DASHDOT
 62
     7
 10
64.826088
 20
64.198372
 11
89.489128
 21
64.198372
  0
LINE
  8
0
 62
     5
 10
86.657608
 20
26.198372
 11
87.157608
 21
26.198372
  0
LINE
  8
0
 62
     5
 10
86.657608
 20
102.198372
 11
87.157608
 21
102.198372
  0
LINE
  8
0
 62
     5
 10
87.157608
 20
101.698372
 11
87.157608
 21
102.198372
  0
LINE
  8
0
 62
     5
 10
67.157608
 20
101.698372
 11
67.157608
 21
102.198372
  0
LINE
  8
0
 62
     4
 10
67.157608
 20
97.698372
 11
87.157608
 21
97.698372
  0
LINE
  8
0
 62
     4
 10
67.157608
 20
30.698372
 11
87.157608
 21
30.698372
  0
LINE
  8
0
 62
     4
 10
87.157608
 20
73.698372
 11
86.657608
 21
73.198372
  0
LINE
  8
0
 62
     4
 10
87.157608
 20
54.698372
 11
86.657608
 21
55.198372
  0
LINE
  8
0
 62
     4
 10
67.157608
 20
54.698372
 11
67.657608
 21
55.198372
  0
POLYLINE
  8
0
 62
     4
 66
     1
 70
     2
  0
VERTEX
  8
0
 10
67.157608
 20
54.698372
  0
VERTEX
  8
0
 10
67.157608
 20
26.698372
  0
VERTEX
  8
0
 10
67.657608
 20
26.198372
  0
VERTEX
  8
0
 10
86.657608
 20
26.198372
  0
VERTEX
  8
0
 10
87.157608
 20
26.698372
  0
VERTEX
  8
0
 10
87.157608
 20
101.698372
  0
VERTEX
  8
0
 10
86.657608
 20
102.198372
  0
VERTEX
  8
0
 10
67.657608
 20
102.198372
  0
VERTEX
  8
0
 10
67.157608
 20
101.698372
  0
VERTEX
  8
0
 10
67.157608
 20
54.698372
  0
SEQEND
  0
POLYLINE
  8
0
 62
     4
 66
     1
 70
     2
  0
VERTEX
  8
0
 10
67.157608
 20
73.698372
  0
VERTEX
  8
0
 10
67.657608
 20
73.198372
  0
VERTEX
  8
0
 10
67.657608
 20
55.198372
  0
VERTEX
  8
0
 10
86.657608
 20
55.198372
  0
VERTEX
  8
0
 10
86.657608
 20
73.198372
  0
VERTEX
  8
0
 10
67.657608
 20
73.198372
  0
SEQEND
  0
ARC
  8
0
 62
     4
 10
135.016296
 20
64.198372
 40
9.000000
 50
109.47122094265586
 51
70.52877905734415
  0
POLYLINE
  8
0
 62
     4
 66
     1
 70
     2
  0
VERTEX
  8
0
 10
138.016296
 20
72.683655
  0
VERTEX
  8
0
 10
138.016296
 20
75.998375
  0
VERTEX
  8
0
 10
132.016296
 20
75.998375
  0
VERTEX
  8
0
 10
132.016296
 20
72.683655
  0
SEQEND
  0
LINE
  8
0
 62
     4
 10
67.157608
 20
75.998375
 11
87.157608
 21
75.998375
  0
LINE
  8
DASHDOT
 62
     7
 10
135.016296
 20
78.329895
 11
135.016296
 21
52.866852
  0
LINE
  8
DASHDOT
 62
     7
 10
146.347824
 20
64.198372
 11
123.684784
 21
64.198372
  0
LINE
  8
0
 62
     5
 10
142.679352
 20
81.438591
 11
127.353256
 21
81.438591
  0
POLYLINE
  8
0
 62
     5
 66
     1
 70
     2
  0
VERTEX
  8
0
 10
129.296204
 20
80.661415
  0
VERTEX
  8
0
 10
132.016296
 20
81.438591
  0
VERTEX
  8
0
 10
129.296204
 20
82.215759
  0
SEQEND
  0
POLYLINE
  8
0
 62
     5
 66
     1
 70
     2
  0
VERTEX
  8
0
 10
140.736420
 20
82.215759
  0
VERTEX
  8
0
 10
138.016296
 20
81.438591
  0
VERTEX
  8
0
 10
140.736420
 20
80.661415
  0
SEQEND
  0
LINE
  8
0
 62
     5
 10
132.016296
 20
75.998375
 11
132.016296
 21
82.604347
  0
LINE
  8
0
 62
     5
 10
138.016296
 20
75.998375
 11
138.016296
 21
82.604347
  0
TEXT
  8
0
 62
     7
 10
126.995102
 20
82.215759
 40
3.885870
 41
1.000000
  1
6
  7
KANJI
 50
0.000000
 51
0.000000
  0
TEXT
  8
0
 62
     7
 10
130.841629
 20
82.215759
 40
3.108696
 41
1.000000
  1
%%p0.015
  7
KANJI
 50
0.000000
 51
0.000000
  0
LINE
  8
0
 62
     5
 10
165.217392
 20
75.998375
 11
165.217392
 21
55.198372
  0
POLYLINE
  8
0
 62
     5
 66
     1
 70
     2
  0
VERTEX
  8
0
 10
165.994568
 20
73.278259
  0
VERTEX
  8
0
 10
165.217392
 20
75.998375
  0
VERTEX
  8
0
 10
164.440216
 20
73.278259
  0
SEQEND
  0
POLYLINE
  8
0
 62
     5
 66
     1
 70
     2
  0
VERTEX
  8
0
 10
164.440216
 20
57.918480
  0
VERTEX
  8
0
 10
165.217392
 20
55.198372
  0
VERTEX
  8
0
 10
165.994568
 20
57.918480
  0
SEQEND
  0
LINE
  8
0
 62
     5
 10
138.016296
 20
75.998375
 11
166.383148
 21
75.998375
  0
LINE
  8
0
 62
     5
 10
135.016296
 20
55.198372
 11
166.383148
 21
55.198372
  0
TEXT
  8
0
 62
     7
 10
164.051636
 20
52.438366
 40
3.885870
 41
1.000000
  1
20.8
  7
KANJI
 50
90.000000
 51
0.000000
  0
TEXT
  8
0
 62
     7
 10
164.284790
 20
69.257950
 40
1.942935
 41
1.000000
  1
 
  7
KANJI
 50
90.000000
 51
0.000000
  0
TEXT
  8
0
 62
     7
 10
161.875549
 20
69.257950
 40
1.942935
 41
1.000000
  1
+
  7
KANJI
 50
90.000000
 51
0.000000
  0
TEXT
  8
0
 62
     7
 10
164.284790
 20
71.434036
 40
1.942935
 41
1.000000
  1
0
  7
KANJI
 50
90.000000
 51
0.000000
  0
TEXT
  8
0
 62
     7
 10
161.875549
 20
71.434036
 40
1.942935
 41
1.000000
  1
0.1
  7
KANJI
 50
90.000000
 51
0.000000
  0
LINE
  8
0
 62
     5
 10
102.701088
 20
73.198372
 11
102.701088
 21
55.198372
  0
POLYLINE
  8
0
 62
     5
 66
     1
 70
     2
  0
VERTEX
  8
0
 10
101.923920
 20
57.918480
  0
VERTEX
  8
0
 10
102.701088
 20
55.198372
  0
VERTEX
  8
0
 10
103.478256
 20
57.918480
  0
SEQEND
  0
LINE
  8
0
 62
     5
 10
87.157608
 20
55.198372
 11
103.866852
 21
55.198372
  0
TEXT
  8
0
 62
     7
 10
101.923920
 20
57.106659
 40
3.885870
 41
1.000000
  1
%%c18H7
  7
KANJI
 50
90.000000
 51
0.000000
  0
ENDSEC
  0
EOF
