  0
SECTION
  2
HEADER
  9
$ACADVER
  1
AC1003
  9
$INSBASE
 10
0.000000
 20
0.000000
  9
$EXTMIN
 10
0.000000
 20
0.000000
  9
$EXTMAX
 10
341.771739
 20
236.331522
  9
$LIMMIN
 10
0.000000
 20
0.000000
  9
$LIMMAX
 10
341.771739
 20
236.331522
  9
$VIEWCTR
 10
170.885870
 20
118.165761
  9
$VIEWSIZE
 40
236.331522
  0
ENDSEC
  0
SECTION
  2
TABLES
  0
TABLE
  2
LTYPE
 70
     4
  0
LTYPE
  2
CONTINUOUS
 70
    64
  3
SolidLine
 72
    65
 73
     0
 40
0.0
  0
LTYPE
  2
HIDDEN
 70
    64
  3
------------------------
 72
    65
 73
     2
 40
3.635870
 49
2.423913
 49
-1.211957
  0
LTYPE
  2
DASHDOT
 70
    64
  3
--?--?--?--?--?--?--?--
 72
    65
 73
     4
 40
14.543478
 49
10.907609
 49
-1.211957
 49
1.211957
 49
-1.211957
  0
LTYPE
  2
DIVIDE
 70
    64
  3
--??--??--??--??--??--
 72
    65
 73
     6
 40
18.179348
 49
12.119565
 49
-1.211957
 49
1.211957
 49
-1.211957
 49
1.211957
 49
-1.211957
  0
ENDTAB
  0
TABLE
  2
LAYER
 70
     5
  0
LAYER
  2
0
 70
    64
 62
     7
  6
CONTINUOUS
  0
LAYER
  2
HIDDEN
 70
    64
 62
     2
  6
HIDDEN
  0
LAYER
  2
DASHDOT
 70
    64
 62
     6
  6
DASHDOT
  0
LAYER
  2
DIVIDE
 70
    64
 62
     5
  6
DIVIDE
  0
ENDTAB
  0
TABLE
  2
STYLE
 70
     1
  0
STYLE
  2
STANDARD
 70
    64
 40
0.0
 41
1.0
 50
0.0
 71
     0
 42
0.2
  3
TXT
  4

  0
STYLE
  2
KANJI
 70
    64
 40
0.0
 41
1.0
 50
0.0
 71
     0
 42
0.2
  3
TXT
  4
BIGFONT
  0
ENDTAB
  0
TABLE
  2
VIEW
 70
     0
  0
ENDTAB
  0
ENDSEC
  0
SECTION
  2
BLOCKS
  0
ENDSEC
  0
SECTION
  2
ENTITIES
  0
TEXT
  8
0
 62
     7
 10
12.119565
 20
13.331522
 40
4.847826
 41
1.000000
  1
KHK SSA2-56J25
  7
KANJI
 50
0.000000
 51
0.000000
  0
TEXT
  8
0
 62
     7
 10
12.119565
 20
6.059783
 40
4.847826
 41
1.000000
  1
The precision grade of gears after secondary operations is equivalent but not identical to its original grade.
  7
KANJI
 50
0.000000
 51
0.000000
  0
TEXT
  8
0
 62
     7
 10
12.119565
 20
218.152176
 40
5.453804
 41
1.000000
  1
For J Series products, without black oxide repeatedly applied on secondary-operated parts.
  7
KANJI
 50
0.000000
 51
0.000000
  0
POLYLINE
  8
0
 62
     7
 66
     1
 70
     2
  0
VERTEX
  8
0
 10
290.869568
 20
218.152176
  0
VERTEX
  8
0
 10
286.142944
 20
226.345001
  0
VERTEX
  8
0
 10
305.049469
 20
226.345001
  0
VERTEX
  8
0
 10
300.322815
 20
218.152176
  0
VERTEX
  8
0
 10
295.596191
 20
226.345001
  0
VERTEX
  8
0
 10
290.869568
 20
218.152176
  0
SEQEND
  0
LINE
  8
0
 62
     5
 10
175.059769
 20
159.372284
 11
175.059769
 21
43.372284
  0
POLYLINE
  8
0
 62
     5
 66
     1
 70
     2
  0
VERTEX
  8
0
 10
176.271729
 20
155.130432
  0
VERTEX
  8
0
 10
175.059769
 20
159.372284
  0
VERTEX
  8
0
 10
173.847809
 20
155.130432
  0
SEQEND
  0
POLYLINE
  8
0
 62
     5
 66
     1
 70
     2
  0
VERTEX
  8
0
 10
173.847809
 20
47.614132
  0
VERTEX
  8
0
 10
175.059769
 20
43.372284
  0
VERTEX
  8
0
 10
176.271729
 20
47.614132
  0
SEQEND
  0
LINE
  8
0
 62
     5
 10
131.429337
 20
159.372284
 11
176.877716
 21
159.372284
  0
LINE
  8
0
 62
     5
 10
131.429337
 20
43.372284
 11
176.877716
 21
43.372284
  0
TEXT
  8
0
 62
     7
 10
173.847809
 20
92.282608
 40
6.059783
 41
1.000000
  1
%%c116
  7
KANJI
 50
90.000000
 51
0.000000
  0
LINE
  8
0
 62
     5
 10
111.429337
 20
183.611420
 11
131.429337
 21
183.611420
  0
POLYLINE
  8
0
 62
     5
 66
     1
 70
     2
  0
VERTEX
  8
0
 10
115.671188
 20
184.823364
  0
VERTEX
  8
0
 10
111.429337
 20
183.611420
  0
VERTEX
  8
0
 10
115.671188
 20
182.399445
  0
SEQEND
  0
POLYLINE
  8
0
 62
     5
 66
     1
 70
     2
  0
VERTEX
  8
0
 10
127.187485
 20
182.399445
  0
VERTEX
  8
0
 10
131.429337
 20
183.611420
  0
VERTEX
  8
0
 10
127.187485
 20
184.823364
  0
SEQEND
  0
LINE
  8
0
 62
     5
 10
111.429337
 20
159.372284
 11
111.429337
 21
185.429352
  0
LINE
  8
0
 62
     5
 10
131.429337
 20
159.372284
 11
131.429337
 21
185.429352
  0
TEXT
  8
0
 62
     7
 10
117.490479
 20
184.580978
 40
6.059783
 41
1.000000
  1
20
  7
KANJI
 50
0.000000
 51
0.000000
  0
LINE
  8
DASHDOT
 62
     7
 10
107.793465
 20
157.372284
 11
135.065201
 21
157.372284
  0
LINE
  8
DASHDOT
 62
     7
 10
107.793465
 20
45.372284
 11
135.065201
 21
45.372284
  0
LINE
  8
DASHDOT
 62
     7
 10
107.793465
 20
101.372284
 11
135.065201
 21
101.372284
  0
LINE
  8
0
 62
     5
 10
130.929337
 20
43.372284
 11
131.429337
 21
43.372284
  0
LINE
  8
0
 62
     5
 10
130.929337
 20
159.372284
 11
131.429337
 21
159.372284
  0
LINE
  8
0
 62
     5
 10
131.429337
 20
158.872284
 11
131.429337
 21
159.372284
  0
LINE
  8
0
 62
     5
 10
111.429337
 20
158.872284
 11
111.429337
 21
159.372284
  0
LINE
  8
0
 62
     4
 10
111.429337
 20
154.872284
 11
131.429337
 21
154.872284
  0
LINE
  8
0
 62
     4
 10
111.429337
 20
47.872284
 11
131.429337
 21
47.872284
  0
LINE
  8
0
 62
     4
 10
131.429337
 20
114.872284
 11
130.429337
 21
113.872284
  0
LINE
  8
0
 62
     4
 10
131.429337
 20
87.872284
 11
130.429337
 21
88.872284
  0
LINE
  8
0
 62
     4
 10
111.429337
 20
87.872284
 11
112.429337
 21
88.872284
  0
POLYLINE
  8
0
 62
     4
 66
     1
 70
     2
  0
VERTEX
  8
0
 10
111.429337
 20
87.872284
  0
VERTEX
  8
0
 10
111.429337
 20
43.872284
  0
VERTEX
  8
0
 10
111.929337
 20
43.372284
  0
VERTEX
  8
0
 10
130.929337
 20
43.372284
  0
VERTEX
  8
0
 10
131.429337
 20
43.872284
  0
VERTEX
  8
0
 10
131.429337
 20
158.872284
  0
VERTEX
  8
0
 10
130.929337
 20
159.372284
  0
VERTEX
  8
0
 10
111.929337
 20
159.372284
  0
VERTEX
  8
0
 10
111.429337
 20
158.872284
  0
VERTEX
  8
0
 10
111.429337
 20
87.872284
  0
SEQEND
  0
POLYLINE
  8
0
 62
     4
 66
     1
 70
     2
  0
VERTEX
  8
0
 10
111.429337
 20
114.872284
  0
VERTEX
  8
0
 10
112.429337
 20
113.872284
  0
VERTEX
  8
0
 10
112.429337
 20
88.872284
  0
VERTEX
  8
0
 10
130.429337
 20
88.872284
  0
VERTEX
  8
0
 10
130.429337
 20
113.872284
  0
VERTEX
  8
0
 10
112.429337
 20
113.872284
  0
SEQEND
  0
ARC
  8
0
 62
     4
 10
204.527161
 20
101.372284
 40
12.500000
 50
108.66292518454978
 51
71.33707481545021
  0
POLYLINE
  8
0
 62
     4
 66
     1
 70
     2
  0
VERTEX
  8
0
 10
208.527161
 20
113.215004
  0
VERTEX
  8
0
 10
208.527161
 20
117.172287
  0
VERTEX
  8
0
 10
200.527161
 20
117.172287
  0
VERTEX
  8
0
 10
200.527161
 20
113.215004
  0
SEQEND
  0
LINE
  8
0
 62
     4
 10
111.429337
 20
117.172287
 11
131.429337
 21
117.172287
  0
LINE
  8
DASHDOT
 62
     7
 10
204.527161
 20
120.808151
 11
204.527161
 21
85.236412
  0
LINE
  8
DASHDOT
 62
     7
 10
220.663025
 20
101.372284
 11
188.391296
 21
101.372284
  0
LINE
  8
0
 62
     5
 10
215.798889
 20
125.655975
 11
193.255432
 21
125.655975
  0
POLYLINE
  8
0
 62
     5
 66
     1
 70
     2
  0
VERTEX
  8
0
 10
196.285309
 20
124.444023
  0
VERTEX
  8
0
 10
200.527161
 20
125.655975
  0
VERTEX
  8
0
 10
196.285309
 20
126.867935
  0
SEQEND
  0
POLYLINE
  8
0
 62
     5
 66
     1
 70
     2
  0
VERTEX
  8
0
 10
212.769012
 20
126.867935
  0
VERTEX
  8
0
 10
208.527161
 20
125.655975
  0
VERTEX
  8
0
 10
212.769012
 20
124.444023
  0
SEQEND
  0
LINE
  8
0
 62
     5
 10
200.527161
 20
117.172287
 11
200.527161
 21
127.473915
  0
LINE
  8
0
 62
     5
 10
208.527161
 20
117.172287
 11
208.527161
 21
127.473915
  0
TEXT
  8
0
 62
     7
 10
192.018570
 20
126.867935
 40
6.059783
 41
1.000000
  1
8
  7
KANJI
 50
0.000000
 51
0.000000
  0
TEXT
  8
0
 62
     7
 10
198.017014
 20
126.867935
 40
4.847826
 41
1.000000
  1
%%p0.018
  7
KANJI
 50
0.000000
 51
0.000000
  0
LINE
  8
0
 62
     5
 10
250.945633
 20
117.172287
 11
250.945633
 21
88.872284
  0
POLYLINE
  8
0
 62
     5
 66
     1
 70
     2
  0
VERTEX
  8
0
 10
252.157593
 20
112.930435
  0
VERTEX
  8
0
 10
250.945633
 20
117.172287
  0
VERTEX
  8
0
 10
249.733673
 20
112.930435
  0
SEQEND
  0
POLYLINE
  8
0
 62
     5
 66
     1
 70
     2
  0
VERTEX
  8
0
 10
249.733673
 20
93.114136
  0
VERTEX
  8
0
 10
250.945633
 20
88.872284
  0
VERTEX
  8
0
 10
252.157593
 20
93.114136
  0
SEQEND
  0
LINE
  8
0
 62
     5
 10
208.527161
 20
117.172287
 11
252.763565
 21
117.172287
  0
LINE
  8
0
 62
     5
 10
204.527161
 20
88.872284
 11
252.763565
 21
88.872284
  0
TEXT
  8
0
 62
     7
 10
249.127701
 20
82.913673
 40
6.059783
 41
1.000000
  1
28.3
  7
KANJI
 50
90.000000
 51
0.000000
  0
TEXT
  8
0
 62
     7
 10
249.491287
 20
109.142807
 40
3.029891
 41
1.000000
  1
 
  7
KANJI
 50
90.000000
 51
0.000000
  0
TEXT
  8
0
 62
     7
 10
245.734222
 20
109.142807
 40
3.029891
 41
1.000000
  1
+
  7
KANJI
 50
90.000000
 51
0.000000
  0
TEXT
  8
0
 62
     7
 10
249.491287
 20
112.536285
 40
3.029891
 41
1.000000
  1
0
  7
KANJI
 50
90.000000
 51
0.000000
  0
TEXT
  8
0
 62
     7
 10
245.734222
 20
112.536285
 40
3.029891
 41
1.000000
  1
0.2
  7
KANJI
 50
90.000000
 51
0.000000
  0
LINE
  8
0
 62
     5
 10
155.668457
 20
113.872284
 11
155.668457
 21
88.872284
  0
POLYLINE
  8
0
 62
     5
 66
     1
 70
     2
  0
VERTEX
  8
0
 10
154.456512
 20
93.114136
  0
VERTEX
  8
0
 10
155.668457
 20
88.872284
  0
VERTEX
  8
0
 10
156.880417
 20
93.114136
  0
SEQEND
  0
LINE
  8
0
 62
     5
 10
131.429337
 20
88.872284
 11
157.486404
 21
88.872284
  0
TEXT
  8
0
 62
     7
 10
154.456512
 20
90.313179
 40
6.059783
 41
1.000000
  1
%%c25H7
  7
KANJI
 50
90.000000
 51
0.000000
  0
ENDSEC
  0
EOF
