  0
SECTION
  2
HEADER
  9
$ACADVER
  1
AC1003
  9
$INSBASE
 10
0.000000
 20
0.000000
  9
$EXTMIN
 10
0.000000
 20
0.000000
  9
$EXTMAX
 10
118.646341
 20
82.042683
  9
$LIMMIN
 10
0.000000
 20
0.000000
  9
$LIMMAX
 10
118.646341
 20
82.042683
  9
$VIEWCTR
 10
59.323171
 20
41.021341
  9
$VIEWSIZE
 40
82.042683
  0
ENDSEC
  0
SECTION
  2
TABLES
  0
TABLE
  2
LTYPE
 70
     4
  0
LTYPE
  2
CONTINUOUS
 70
    64
  3
SolidLine
 72
    65
 73
     0
 40
0.0
  0
LTYPE
  2
HIDDEN
 70
    64
  3
------------------------
 72
    65
 73
     2
 40
1.262195
 49
0.841463
 49
-0.420732
  0
LTYPE
  2
DASHDOT
 70
    64
  3
--?--?--?--?--?--?--?--
 72
    65
 73
     4
 40
5.048780
 49
3.786585
 49
-0.420732
 49
0.420732
 49
-0.420732
  0
LTYPE
  2
DIVIDE
 70
    64
  3
--??--??--??--??--??--
 72
    65
 73
     6
 40
6.310976
 49
4.207317
 49
-0.420732
 49
0.420732
 49
-0.420732
 49
0.420732
 49
-0.420732
  0
ENDTAB
  0
TABLE
  2
LAYER
 70
     5
  0
LAYER
  2
0
 70
    64
 62
     7
  6
CONTINUOUS
  0
LAYER
  2
HIDDEN
 70
    64
 62
     2
  6
HIDDEN
  0
LAYER
  2
DASHDOT
 70
    64
 62
     6
  6
DASHDOT
  0
LAYER
  2
DIVIDE
 70
    64
 62
     5
  6
DIVIDE
  0
ENDTAB
  0
TABLE
  2
STYLE
 70
     1
  0
STYLE
  2
STANDARD
 70
    64
 40
0.0
 41
1.0
 50
0.0
 71
     0
 42
0.2
  3
TXT
  4

  0
STYLE
  2
KANJI
 70
    64
 40
0.0
 41
1.0
 50
0.0
 71
     0
 42
0.2
  3
TXT
  4
BIGFONT
  0
ENDTAB
  0
TABLE
  2
VIEW
 70
     0
  0
ENDTAB
  0
ENDSEC
  0
SECTION
  2
BLOCKS
  0
ENDSEC
  0
SECTION
  2
ENTITIES
  0
TEXT
  8
0
 62
     7
 10
4.207317
 20
4.628049
 40
1.682927
 41
1.000000
  1
KHK SSA2.5-15J14
  7
KANJI
 50
0.000000
 51
0.000000
  0
TEXT
  8
0
 62
     7
 10
4.207317
 20
2.103658
 40
1.682927
 41
1.000000
  1
The precision grade of gears after secondary operations is equivalent but not identical to its original grade.
  7
KANJI
 50
0.000000
 51
0.000000
  0
TEXT
  8
0
 62
     7
 10
4.207317
 20
75.731705
 40
1.893293
 41
1.000000
  1
For J Series products, without black oxide repeatedly applied on secondary-operated parts.
  7
KANJI
 50
0.000000
 51
0.000000
  0
POLYLINE
  8
0
 62
     7
 66
     1
 70
     2
  0
VERTEX
  8
0
 10
100.975609
 20
75.731705
  0
VERTEX
  8
0
 10
99.334755
 20
78.575851
  0
VERTEX
  8
0
 10
105.898170
 20
78.575851
  0
VERTEX
  8
0
 10
104.257317
 20
75.731705
  0
VERTEX
  8
0
 10
102.616463
 20
78.575851
  0
VERTEX
  8
0
 10
100.975609
 20
75.731705
  0
SEQEND
  0
LINE
  8
0
 62
     5
 10
67.914627
 20
54.410065
 11
67.914627
 21
11.910065
  0
POLYLINE
  8
0
 62
     5
 66
     1
 70
     2
  0
VERTEX
  8
0
 10
68.335358
 20
52.937504
  0
VERTEX
  8
0
 10
67.914627
 20
54.410065
  0
VERTEX
  8
0
 10
67.493896
 20
52.937504
  0
SEQEND
  0
POLYLINE
  8
0
 62
     5
 66
     1
 70
     2
  0
VERTEX
  8
0
 10
67.493896
 20
13.382626
  0
VERTEX
  8
0
 10
67.914627
 20
11.910065
  0
VERTEX
  8
0
 10
68.335358
 20
13.382626
  0
SEQEND
  0
LINE
  8
0
 62
     5
 10
52.768291
 20
54.410065
 11
68.545731
 21
54.410065
  0
LINE
  8
0
 62
     5
 10
52.768291
 20
11.910065
 11
68.545731
 21
11.910065
  0
TEXT
  8
0
 62
     7
 10
67.493896
 20
29.320889
 40
2.103659
 41
1.000000
  1
%%c42.5
  7
KANJI
 50
90.000000
 51
0.000000
  0
LINE
  8
0
 62
     5
 10
27.768291
 20
62.824699
 11
52.768291
 21
62.824699
  0
POLYLINE
  8
0
 62
     5
 66
     1
 70
     2
  0
VERTEX
  8
0
 10
29.240852
 20
63.245430
  0
VERTEX
  8
0
 10
27.768291
 20
62.824699
  0
VERTEX
  8
0
 10
29.240852
 20
62.403969
  0
SEQEND
  0
POLYLINE
  8
0
 62
     5
 66
     1
 70
     2
  0
VERTEX
  8
0
 10
51.295731
 20
62.403969
  0
VERTEX
  8
0
 10
52.768291
 20
62.824699
  0
VERTEX
  8
0
 10
51.295731
 20
63.245430
  0
SEQEND
  0
LINE
  8
0
 62
     5
 10
27.768291
 20
54.410065
 11
27.768291
 21
63.455795
  0
LINE
  8
0
 62
     5
 10
52.768291
 20
54.410065
 11
52.768291
 21
63.455795
  0
TEXT
  8
0
 62
     7
 10
38.900913
 20
63.161285
 40
2.103659
 41
1.000000
  1
25
  7
KANJI
 50
0.000000
 51
0.000000
  0
LINE
  8
DASHDOT
 62
     7
 10
26.506096
 20
51.910065
 11
54.030487
 21
51.910065
  0
LINE
  8
DASHDOT
 62
     7
 10
26.506096
 20
14.410065
 11
54.030487
 21
14.410065
  0
LINE
  8
DASHDOT
 62
     7
 10
26.506096
 20
33.160065
 11
54.030487
 21
33.160065
  0
LINE
  8
0
 62
     5
 10
51.768291
 20
11.910065
 11
52.768291
 21
11.910065
  0
LINE
  8
0
 62
     5
 10
51.768291
 20
54.410065
 11
52.768291
 21
54.410065
  0
LINE
  8
0
 62
     5
 10
52.768291
 20
53.410065
 11
52.768291
 21
54.410065
  0
LINE
  8
0
 62
     5
 10
27.768291
 20
53.410065
 11
27.768291
 21
54.410065
  0
LINE
  8
0
 62
     4
 10
27.768291
 20
48.785065
 11
52.768291
 21
48.785065
  0
LINE
  8
0
 62
     4
 10
27.768291
 20
17.535065
 11
52.768291
 21
17.535065
  0
LINE
  8
0
 62
     4
 10
52.768291
 20
40.660065
 11
52.268291
 21
40.160065
  0
LINE
  8
0
 62
     4
 10
52.768291
 20
25.660065
 11
52.268291
 21
26.160065
  0
LINE
  8
0
 62
     4
 10
27.768291
 20
25.660065
 11
28.268291
 21
26.160065
  0
POLYLINE
  8
0
 62
     4
 66
     1
 70
     2
  0
VERTEX
  8
0
 10
27.768291
 20
25.660065
  0
VERTEX
  8
0
 10
27.768291
 20
12.910065
  0
VERTEX
  8
0
 10
28.768291
 20
11.910065
  0
VERTEX
  8
0
 10
51.768291
 20
11.910065
  0
VERTEX
  8
0
 10
52.768291
 20
12.910065
  0
VERTEX
  8
0
 10
52.768291
 20
53.410065
  0
VERTEX
  8
0
 10
51.768291
 20
54.410065
  0
VERTEX
  8
0
 10
28.768291
 20
54.410065
  0
VERTEX
  8
0
 10
27.768291
 20
53.410065
  0
VERTEX
  8
0
 10
27.768291
 20
25.660065
  0
SEQEND
  0
POLYLINE
  8
0
 62
     4
 66
     1
 70
     2
  0
VERTEX
  8
0
 10
27.768291
 20
40.660065
  0
VERTEX
  8
0
 10
28.268291
 20
40.160065
  0
VERTEX
  8
0
 10
28.268291
 20
26.160065
  0
VERTEX
  8
0
 10
52.268291
 20
26.160065
  0
VERTEX
  8
0
 10
52.268291
 20
40.160065
  0
VERTEX
  8
0
 10
28.268291
 20
40.160065
  0
SEQEND
  0
ARC
  8
0
 62
     4
 10
80.804878
 20
33.160065
 40
7.000000
 50
110.92483306307776
 51
69.07516693692226
  0
POLYLINE
  8
0
 62
     4
 66
     1
 70
     2
  0
VERTEX
  8
0
 10
83.304878
 20
39.698414
  0
VERTEX
  8
0
 10
83.304878
 20
42.460064
  0
VERTEX
  8
0
 10
78.304878
 20
42.460064
  0
VERTEX
  8
0
 10
78.304878
 20
39.698414
  0
SEQEND
  0
LINE
  8
0
 62
     4
 10
27.768291
 20
42.460064
 11
52.768291
 21
42.460064
  0
LINE
  8
DASHDOT
 62
     7
 10
80.804878
 20
43.722260
 11
80.804878
 21
24.897869
  0
LINE
  8
DASHDOT
 62
     7
 10
89.067078
 20
33.160065
 11
72.542679
 21
33.160065
  0
LINE
  8
0
 62
     5
 10
85.829269
 20
45.405186
 11
75.780487
 21
45.405186
  0
POLYLINE
  8
0
 62
     5
 66
     1
 70
     2
  0
VERTEX
  8
0
 10
76.832321
 20
44.984455
  0
VERTEX
  8
0
 10
78.304878
 20
45.405186
  0
VERTEX
  8
0
 10
76.832321
 20
45.825920
  0
SEQEND
  0
POLYLINE
  8
0
 62
     5
 66
     1
 70
     2
  0
VERTEX
  8
0
 10
84.777435
 20
45.825920
  0
VERTEX
  8
0
 10
83.304878
 20
45.405186
  0
VERTEX
  8
0
 10
84.777435
 20
44.984455
  0
SEQEND
  0
LINE
  8
0
 62
     5
 10
78.304878
 20
42.460064
 11
78.304878
 21
46.036285
  0
LINE
  8
0
 62
     5
 10
83.304878
 20
42.460064
 11
83.304878
 21
46.036285
  0
TEXT
  8
0
 62
     7
 10
76.462509
 20
45.825920
 40
2.103659
 41
1.000000
  1
5
  7
KANJI
 50
0.000000
 51
0.000000
  0
TEXT
  8
0
 62
     7
 10
78.544876
 20
45.825920
 40
1.682927
 41
1.000000
  1
%%p0.015
  7
KANJI
 50
0.000000
 51
0.000000
  0
LINE
  8
0
 62
     5
 10
98.030487
 20
42.460064
 11
98.030487
 21
26.160065
  0
POLYLINE
  8
0
 62
     5
 66
     1
 70
     2
  0
VERTEX
  8
0
 10
98.451218
 20
40.987503
  0
VERTEX
  8
0
 10
98.030487
 20
42.460064
  0
VERTEX
  8
0
 10
97.609756
 20
40.987503
  0
SEQEND
  0
POLYLINE
  8
0
 62
     5
 66
     1
 70
     2
  0
VERTEX
  8
0
 10
97.609756
 20
27.632626
  0
VERTEX
  8
0
 10
98.030487
 20
26.160065
  0
VERTEX
  8
0
 10
98.451218
 20
27.632626
  0
SEQEND
  0
LINE
  8
0
 62
     5
 10
83.304878
 20
42.460064
 11
98.661591
 21
42.460064
  0
LINE
  8
0
 62
     5
 10
80.804878
 20
26.160065
 11
98.661591
 21
26.160065
  0
TEXT
  8
0
 62
     7
 10
97.399399
 20
26.681782
 40
2.103659
 41
1.000000
  1
16.3
  7
KANJI
 50
90.000000
 51
0.000000
  0
TEXT
  8
0
 62
     7
 10
97.525620
 20
35.787247
 40
1.051829
 41
1.000000
  1
 
  7
KANJI
 50
90.000000
 51
0.000000
  0
TEXT
  8
0
 62
     7
 10
96.221344
 20
35.787247
 40
1.051829
 41
1.000000
  1
+
  7
KANJI
 50
90.000000
 51
0.000000
  0
TEXT
  8
0
 62
     7
 10
97.525620
 20
36.965298
 40
1.051829
 41
1.000000
  1
0
  7
KANJI
 50
90.000000
 51
0.000000
  0
TEXT
  8
0
 62
     7
 10
96.221344
 20
36.965298
 40
1.051829
 41
1.000000
  1
0.1
  7
KANJI
 50
90.000000
 51
0.000000
  0
LINE
  8
0
 62
     5
 10
61.182926
 20
40.160065
 11
61.182926
 21
26.160065
  0
POLYLINE
  8
0
 62
     5
 66
     1
 70
     2
  0
VERTEX
  8
0
 10
60.762196
 20
27.632626
  0
VERTEX
  8
0
 10
61.182926
 20
26.160065
  0
VERTEX
  8
0
 10
61.603657
 20
27.632626
  0
SEQEND
  0
LINE
  8
0
 62
     5
 10
52.768291
 20
26.160065
 11
61.814022
 21
26.160065
  0
TEXT
  8
0
 62
     7
 10
60.762196
 20
29.320889
 40
2.103659
 41
1.000000
  1
%%c14H7
  7
KANJI
 50
90.000000
 51
0.000000
  0
ENDSEC
  0
EOF
