  0
SECTION
  2
HEADER
  9
$ACADVER
  1
AC1003
  9
$INSBASE
 10
0.000000
 20
0.000000
  9
$EXTMIN
 10
0.000000
 20
0.000000
  9
$EXTMAX
 10
611.510870
 20
422.853261
  9
$LIMMIN
 10
0.000000
 20
0.000000
  9
$LIMMAX
 10
611.510870
 20
422.853261
  9
$VIEWCTR
 10
305.755435
 20
211.426630
  9
$VIEWSIZE
 40
422.853261
  0
ENDSEC
  0
SECTION
  2
TABLES
  0
TABLE
  2
LTYPE
 70
     4
  0
LTYPE
  2
CONTINUOUS
 70
    64
  3
SolidLine
 72
    65
 73
     0
 40
0.0
  0
LTYPE
  2
HIDDEN
 70
    64
  3
------------------------
 72
    65
 73
     2
 40
6.505435
 49
4.336957
 49
-2.168478
  0
LTYPE
  2
DASHDOT
 70
    64
  3
--?--?--?--?--?--?--?--
 72
    65
 73
     4
 40
26.021739
 49
19.516304
 49
-2.168478
 49
2.168478
 49
-2.168478
  0
LTYPE
  2
DIVIDE
 70
    64
  3
--??--??--??--??--??--
 72
    65
 73
     6
 40
32.527174
 49
21.684783
 49
-2.168478
 49
2.168478
 49
-2.168478
 49
2.168478
 49
-2.168478
  0
ENDTAB
  0
TABLE
  2
LAYER
 70
     5
  0
LAYER
  2
0
 70
    64
 62
     7
  6
CONTINUOUS
  0
LAYER
  2
HIDDEN
 70
    64
 62
     2
  6
HIDDEN
  0
LAYER
  2
DASHDOT
 70
    64
 62
     6
  6
DASHDOT
  0
LAYER
  2
DIVIDE
 70
    64
 62
     5
  6
DIVIDE
  0
ENDTAB
  0
TABLE
  2
STYLE
 70
     1
  0
STYLE
  2
STANDARD
 70
    64
 40
0.0
 41
1.0
 50
0.0
 71
     0
 42
0.2
  3
TXT
  4

  0
STYLE
  2
KANJI
 70
    64
 40
0.0
 41
1.0
 50
0.0
 71
     0
 42
0.2
  3
TXT
  4
BIGFONT
  0
ENDTAB
  0
TABLE
  2
VIEW
 70
     0
  0
ENDTAB
  0
ENDSEC
  0
SECTION
  2
BLOCKS
  0
ENDSEC
  0
SECTION
  2
ENTITIES
  0
TEXT
  8
0
 62
     7
 10
21.684782
 20
23.853260
 40
8.673913
 41
1.000000
  1
KHK SSA2-100J28
  7
KANJI
 50
0.000000
 51
0.000000
  0
TEXT
  8
0
 62
     7
 10
21.684782
 20
10.842391
 40
8.673913
 41
1.000000
  1
The precision grade of gears after secondary operations is equivalent but not identical to its original grade.
  7
KANJI
 50
0.000000
 51
0.000000
  0
TEXT
  8
0
 62
     7
 10
21.684782
 20
390.326080
 40
9.758152
 41
1.000000
  1
For J Series products, without black oxide repeatedly applied on secondary-operated parts.
  7
KANJI
 50
0.000000
 51
0.000000
  0
POLYLINE
  8
0
 62
     7
 66
     1
 70
     2
  0
VERTEX
  8
0
 10
520.434753
 20
390.326080
  0
VERTEX
  8
0
 10
511.977692
 20
404.984985
  0
VERTEX
  8
0
 10
545.805969
 20
404.984985
  0
VERTEX
  8
0
 10
537.348877
 20
390.326080
  0
VERTEX
  8
0
 10
528.891846
 20
404.984985
  0
VERTEX
  8
0
 10
520.434753
 20
390.326080
  0
SEQEND
  0
LINE
  8
0
 62
     5
 10
311.092407
 20
285.154907
 11
311.092407
 21
81.154907
  0
POLYLINE
  8
0
 62
     5
 66
     1
 70
     2
  0
VERTEX
  8
0
 10
313.260864
 20
277.565247
  0
VERTEX
  8
0
 10
311.092407
 20
285.154907
  0
VERTEX
  8
0
 10
308.923920
 20
277.565247
  0
SEQEND
  0
POLYLINE
  8
0
 62
     5
 66
     1
 70
     2
  0
VERTEX
  8
0
 10
308.923920
 20
88.744583
  0
VERTEX
  8
0
 10
311.092407
 20
81.154907
  0
VERTEX
  8
0
 10
313.260864
 20
88.744583
  0
SEQEND
  0
LINE
  8
0
 62
     5
 10
233.027176
 20
285.154907
 11
314.345093
 21
285.154907
  0
LINE
  8
0
 62
     5
 10
233.027176
 20
81.154907
 11
314.345093
 21
81.154907
  0
TEXT
  8
0
 62
     7
 10
308.923920
 20
166.891327
 40
10.842391
 41
1.000000
  1
%%c204
  7
KANJI
 50
90.000000
 51
0.000000
  0
LINE
  8
0
 62
     5
 10
246.038040
 20
328.524475
 11
200.016312
 21
328.524475
  0
POLYLINE
  8
0
 62
     5
 66
     1
 70
     2
  0
VERTEX
  8
0
 10
205.437500
 20
326.356018
  0
VERTEX
  8
0
 10
213.027176
 20
328.524475
  0
VERTEX
  8
0
 10
205.437500
 20
330.692932
  0
SEQEND
  0
POLYLINE
  8
0
 62
     5
 66
     1
 70
     2
  0
VERTEX
  8
0
 10
240.616852
 20
330.692932
  0
VERTEX
  8
0
 10
233.027176
 20
328.524475
  0
VERTEX
  8
0
 10
240.616852
 20
326.356018
  0
SEQEND
  0
LINE
  8
0
 62
     5
 10
213.027176
 20
285.154907
 11
213.027176
 21
331.777191
  0
LINE
  8
0
 62
     5
 10
233.027176
 20
285.154907
 11
233.027176
 21
331.777191
  0
TEXT
  8
0
 62
     7
 10
215.979614
 20
330.259277
 40
10.842391
 41
1.000000
  1
20
  7
KANJI
 50
0.000000
 51
0.000000
  0
LINE
  8
DASHDOT
 62
     7
 10
206.521744
 20
283.154907
 11
239.532608
 21
283.154907
  0
LINE
  8
DASHDOT
 62
     7
 10
206.521744
 20
83.154907
 11
239.532608
 21
83.154907
  0
LINE
  8
DASHDOT
 62
     7
 10
206.521744
 20
183.154907
 11
239.532608
 21
183.154907
  0
LINE
  8
0
 62
     5
 10
232.527176
 20
81.154907
 11
233.027176
 21
81.154907
  0
LINE
  8
0
 62
     5
 10
232.527176
 20
285.154907
 11
233.027176
 21
285.154907
  0
LINE
  8
0
 62
     5
 10
233.027176
 20
284.654907
 11
233.027176
 21
285.154907
  0
LINE
  8
0
 62
     5
 10
213.027176
 20
284.654907
 11
213.027176
 21
285.154907
  0
LINE
  8
0
 62
     4
 10
213.027176
 20
280.654907
 11
233.027176
 21
280.654907
  0
LINE
  8
0
 62
     4
 10
213.027176
 20
85.654907
 11
233.027176
 21
85.654907
  0
LINE
  8
0
 62
     4
 10
233.027176
 20
198.154907
 11
232.027176
 21
197.154907
  0
LINE
  8
0
 62
     4
 10
233.027176
 20
168.154907
 11
232.027176
 21
169.154907
  0
LINE
  8
0
 62
     4
 10
213.027176
 20
168.154907
 11
214.027176
 21
169.154907
  0
POLYLINE
  8
0
 62
     4
 66
     1
 70
     2
  0
VERTEX
  8
0
 10
213.027176
 20
168.154907
  0
VERTEX
  8
0
 10
213.027176
 20
81.654907
  0
VERTEX
  8
0
 10
213.527176
 20
81.154907
  0
VERTEX
  8
0
 10
232.527176
 20
81.154907
  0
VERTEX
  8
0
 10
233.027176
 20
81.654907
  0
VERTEX
  8
0
 10
233.027176
 20
284.654907
  0
VERTEX
  8
0
 10
232.527176
 20
285.154907
  0
VERTEX
  8
0
 10
213.527176
 20
285.154907
  0
VERTEX
  8
0
 10
213.027176
 20
284.654907
  0
VERTEX
  8
0
 10
213.027176
 20
168.154907
  0
SEQEND
  0
POLYLINE
  8
0
 62
     4
 66
     1
 70
     2
  0
VERTEX
  8
0
 10
213.027176
 20
198.154907
  0
VERTEX
  8
0
 10
214.027176
 20
197.154907
  0
VERTEX
  8
0
 10
214.027176
 20
169.154907
  0
VERTEX
  8
0
 10
232.027176
 20
169.154907
  0
VERTEX
  8
0
 10
232.027176
 20
197.154907
  0
VERTEX
  8
0
 10
214.027176
 20
197.154907
  0
SEQEND
  0
ARC
  8
0
 62
     4
 10
355.451111
 20
183.154907
 40
14.000000
 50
106.60154992625478
 51
73.39845007374521
  0
POLYLINE
  8
0
 62
     4
 66
     1
 70
     2
  0
VERTEX
  8
0
 10
359.451111
 20
196.571320
  0
VERTEX
  8
0
 10
359.451111
 20
200.454910
  0
VERTEX
  8
0
 10
351.451111
 20
200.454910
  0
VERTEX
  8
0
 10
351.451111
 20
196.571320
  0
SEQEND
  0
LINE
  8
0
 62
     4
 10
213.027176
 20
200.454910
 11
233.027176
 21
200.454910
  0
LINE
  8
DASHDOT
 62
     7
 10
355.451111
 20
206.960342
 11
355.451111
 21
162.649475
  0
LINE
  8
DASHDOT
 62
     7
 10
375.956543
 20
183.154907
 11
334.945648
 21
183.154907
  0
LINE
  8
0
 62
     5
 10
372.461975
 20
215.634247
 11
338.440216
 21
215.634247
  0
POLYLINE
  8
0
 62
     5
 66
     1
 70
     2
  0
VERTEX
  8
0
 10
343.861420
 20
213.465775
  0
VERTEX
  8
0
 10
351.451111
 20
215.634247
  0
VERTEX
  8
0
 10
343.861420
 20
217.802734
  0
SEQEND
  0
POLYLINE
  8
0
 62
     5
 66
     1
 70
     2
  0
VERTEX
  8
0
 10
367.040771
 20
217.802734
  0
VERTEX
  8
0
 10
359.451111
 20
215.634247
  0
VERTEX
  8
0
 10
367.040771
 20
213.465775
  0
SEQEND
  0
LINE
  8
0
 62
     5
 10
351.451111
 20
200.454910
 11
351.451111
 21
218.886963
  0
LINE
  8
0
 62
     5
 10
359.451111
 20
200.454910
 11
359.451111
 21
218.886963
  0
TEXT
  8
0
 62
     7
 10
333.070251
 20
217.802734
 40
10.842391
 41
1.000000
  1
8
  7
KANJI
 50
0.000000
 51
0.000000
  0
TEXT
  8
0
 62
     7
 10
343.802887
 20
217.802734
 40
8.673913
 41
1.000000
  1
%%p0.018
  7
KANJI
 50
0.000000
 51
0.000000
  0
LINE
  8
0
 62
     5
 10
435.347839
 20
156.144043
 11
435.347839
 21
213.465775
  0
POLYLINE
  8
0
 62
     5
 66
     1
 70
     2
  0
VERTEX
  8
0
 10
433.179352
 20
208.044586
  0
VERTEX
  8
0
 10
435.347839
 20
200.454910
  0
VERTEX
  8
0
 10
437.516296
 20
208.044586
  0
SEQEND
  0
POLYLINE
  8
0
 62
     5
 66
     1
 70
     2
  0
VERTEX
  8
0
 10
437.516296
 20
161.565231
  0
VERTEX
  8
0
 10
435.347839
 20
169.154907
  0
VERTEX
  8
0
 10
433.179352
 20
161.565231
  0
SEQEND
  0
LINE
  8
0
 62
     5
 10
359.451111
 20
200.454910
 11
438.600525
 21
200.454910
  0
LINE
  8
0
 62
     5
 10
355.451111
 20
169.154907
 11
438.600525
 21
169.154907
  0
TEXT
  8
0
 62
     7
 10
432.095093
 20
150.759369
 40
10.842391
 41
1.000000
  1
31.3
  7
KANJI
 50
90.000000
 51
0.000000
  0
TEXT
  8
0
 62
     7
 10
432.745667
 20
197.689529
 40
5.421196
 41
1.000000
  1
 
  7
KANJI
 50
90.000000
 51
0.000000
  0
TEXT
  8
0
 62
     7
 10
426.023376
 20
197.689529
 40
5.421196
 41
1.000000
  1
+
  7
KANJI
 50
90.000000
 51
0.000000
  0
TEXT
  8
0
 62
     7
 10
432.745667
 20
203.761261
 40
5.421196
 41
1.000000
  1
0
  7
KANJI
 50
90.000000
 51
0.000000
  0
TEXT
  8
0
 62
     7
 10
426.023376
 20
203.761261
 40
5.421196
 41
1.000000
  1
0.2
  7
KANJI
 50
90.000000
 51
0.000000
  0
LINE
  8
0
 62
     5
 10
276.396729
 20
197.154907
 11
276.396729
 21
169.154907
  0
POLYLINE
  8
0
 62
     5
 66
     1
 70
     2
  0
VERTEX
  8
0
 10
274.228271
 20
176.744583
  0
VERTEX
  8
0
 10
276.396729
 20
169.154907
  0
VERTEX
  8
0
 10
278.565216
 20
176.744583
  0
SEQEND
  0
LINE
  8
0
 62
     5
 10
233.027176
 20
169.154907
 11
279.649475
 21
169.154907
  0
TEXT
  8
0
 62
     7
 10
274.228271
 20
163.367538
 40
10.842391
 41
1.000000
  1
%%c28H7
  7
KANJI
 50
90.000000
 51
0.000000
  0
ENDSEC
  0
EOF
