  0
SECTION
  2
HEADER
  9
$ACADVER
  1
AC1003
  9
$INSBASE
 10
0.000000
 20
0.000000
  9
$EXTMIN
 10
0.000000
 20
0.000000
  9
$EXTMAX
 10
611.127717
 20
422.588315
  9
$LIMMIN
 10
0.000000
 20
0.000000
  9
$LIMMAX
 10
611.127717
 20
422.588315
  9
$VIEWCTR
 10
305.563859
 20
211.294158
  9
$VIEWSIZE
 40
422.588315
  0
ENDSEC
  0
SECTION
  2
TABLES
  0
TABLE
  2
LTYPE
 70
     4
  0
LTYPE
  2
CONTINUOUS
 70
    64
  3
SolidLine
 72
    65
 73
     0
 40
0.0
  0
LTYPE
  2
HIDDEN
 70
    64
  3
------------------------
 72
    65
 73
     2
 40
6.501359
 49
4.334239
 49
-2.167120
  0
LTYPE
  2
DASHDOT
 70
    64
  3
--?--?--?--?--?--?--?--
 72
    65
 73
     4
 40
26.005435
 49
19.504076
 49
-2.167120
 49
2.167120
 49
-2.167120
  0
LTYPE
  2
DIVIDE
 70
    64
  3
--??--??--??--??--??--
 72
    65
 73
     6
 40
32.506793
 49
21.671196
 49
-2.167120
 49
2.167120
 49
-2.167120
 49
2.167120
 49
-2.167120
  0
ENDTAB
  0
TABLE
  2
LAYER
 70
     5
  0
LAYER
  2
0
 70
    64
 62
     7
  6
CONTINUOUS
  0
LAYER
  2
HIDDEN
 70
    64
 62
     2
  6
HIDDEN
  0
LAYER
  2
DASHDOT
 70
    64
 62
     6
  6
DASHDOT
  0
LAYER
  2
DIVIDE
 70
    64
 62
     5
  6
DIVIDE
  0
ENDTAB
  0
TABLE
  2
STYLE
 70
     1
  0
STYLE
  2
STANDARD
 70
    64
 40
0.0
 41
1.0
 50
0.0
 71
     0
 42
0.2
  3
TXT
  4

  0
STYLE
  2
KANJI
 70
    64
 40
0.0
 41
1.0
 50
0.0
 71
     0
 42
0.2
  3
TXT
  4
BIGFONT
  0
ENDTAB
  0
TABLE
  2
VIEW
 70
     0
  0
ENDTAB
  0
ENDSEC
  0
SECTION
  2
BLOCKS
  0
ENDSEC
  0
SECTION
  2
ENTITIES
  0
TEXT
  8
0
 62
     7
 10
21.671196
 20
23.838316
 40
8.668478
 41
1.000000
  1
KHK SSA2.5-80J35
  7
KANJI
 50
0.000000
 51
0.000000
  0
TEXT
  8
0
 62
     7
 10
21.671196
 20
10.835598
 40
8.668478
 41
1.000000
  1
The precision grade of gears after secondary operations is equivalent but not identical to its original grade.
  7
KANJI
 50
0.000000
 51
0.000000
  0
TEXT
  8
0
 62
     7
 10
21.671196
 20
390.081512
 40
9.752038
 41
1.000000
  1
For J Series products, without black oxide repeatedly applied on secondary-operated parts.
  7
KANJI
 50
0.000000
 51
0.000000
  0
POLYLINE
  8
0
 62
     7
 66
     1
 70
     2
  0
VERTEX
  8
0
 10
520.108704
 20
390.081512
  0
VERTEX
  8
0
 10
511.656921
 20
404.731232
  0
VERTEX
  8
0
 10
545.463989
 20
404.731232
  0
VERTEX
  8
0
 10
537.012207
 20
390.081512
  0
VERTEX
  8
0
 10
528.560486
 20
404.731232
  0
VERTEX
  8
0
 10
520.108704
 20
390.081512
  0
SEQEND
  0
LINE
  8
0
 62
     5
 10
311.148102
 20
284.976227
 11
311.148102
 21
79.976227
  0
POLYLINE
  8
0
 62
     5
 66
     1
 70
     2
  0
VERTEX
  8
0
 10
313.315247
 20
277.391296
  0
VERTEX
  8
0
 10
311.148102
 20
284.976227
  0
VERTEX
  8
0
 10
308.980988
 20
277.391296
  0
SEQEND
  0
POLYLINE
  8
0
 62
     5
 66
     1
 70
     2
  0
VERTEX
  8
0
 10
308.980988
 20
87.561142
  0
VERTEX
  8
0
 10
311.148102
 20
79.976227
  0
VERTEX
  8
0
 10
313.315247
 20
87.561142
  0
SEQEND
  0
LINE
  8
0
 62
     5
 10
233.131805
 20
284.976227
 11
314.398804
 21
284.976227
  0
LINE
  8
0
 62
     5
 10
233.131805
 20
79.976227
 11
314.398804
 21
79.976227
  0
TEXT
  8
0
 62
     7
 10
308.980988
 20
166.222839
 40
10.835598
 41
1.000000
  1
%%c205
  7
KANJI
 50
90.000000
 51
0.000000
  0
LINE
  8
0
 62
     5
 10
208.131805
 20
328.318604
 11
233.131805
 21
328.318604
  0
POLYLINE
  8
0
 62
     5
 66
     1
 70
     2
  0
VERTEX
  8
0
 10
215.716721
 20
330.485718
  0
VERTEX
  8
0
 10
208.131805
 20
328.318604
  0
VERTEX
  8
0
 10
215.716721
 20
326.151489
  0
SEQEND
  0
POLYLINE
  8
0
 62
     5
 66
     1
 70
     2
  0
VERTEX
  8
0
 10
225.546890
 20
326.151489
  0
VERTEX
  8
0
 10
233.131805
 20
328.318604
  0
VERTEX
  8
0
 10
225.546890
 20
330.485718
  0
SEQEND
  0
LINE
  8
0
 62
     5
 10
208.131805
 20
284.976227
 11
208.131805
 21
331.569305
  0
LINE
  8
0
 62
     5
 10
233.131805
 20
284.976227
 11
233.131805
 21
331.569305
  0
TEXT
  8
0
 62
     7
 10
213.588669
 20
330.052307
 40
10.835598
 41
1.000000
  1
25
  7
KANJI
 50
0.000000
 51
0.000000
  0
LINE
  8
DASHDOT
 62
     7
 10
201.630447
 20
282.476227
 11
239.633163
 21
282.476227
  0
LINE
  8
DASHDOT
 62
     7
 10
201.630447
 20
82.476227
 11
239.633163
 21
82.476227
  0
LINE
  8
DASHDOT
 62
     7
 10
201.630447
 20
182.476227
 11
239.633163
 21
182.476227
  0
LINE
  8
0
 62
     5
 10
232.131805
 20
79.976227
 11
233.131805
 21
79.976227
  0
LINE
  8
0
 62
     5
 10
232.131805
 20
284.976227
 11
233.131805
 21
284.976227
  0
LINE
  8
0
 62
     5
 10
233.131805
 20
283.976227
 11
233.131805
 21
284.976227
  0
LINE
  8
0
 62
     5
 10
208.131805
 20
283.976227
 11
208.131805
 21
284.976227
  0
LINE
  8
0
 62
     4
 10
208.131805
 20
279.351227
 11
233.131805
 21
279.351227
  0
LINE
  8
0
 62
     4
 10
208.131805
 20
85.601227
 11
233.131805
 21
85.601227
  0
LINE
  8
0
 62
     4
 10
233.131805
 20
200.976227
 11
232.131805
 21
199.976227
  0
LINE
  8
0
 62
     4
 10
233.131805
 20
163.976227
 11
232.131805
 21
164.976227
  0
LINE
  8
0
 62
     4
 10
208.131805
 20
163.976227
 11
209.131805
 21
164.976227
  0
POLYLINE
  8
0
 62
     4
 66
     1
 70
     2
  0
VERTEX
  8
0
 10
208.131805
 20
163.976227
  0
VERTEX
  8
0
 10
208.131805
 20
80.976227
  0
VERTEX
  8
0
 10
209.131805
 20
79.976227
  0
VERTEX
  8
0
 10
232.131805
 20
79.976227
  0
VERTEX
  8
0
 10
233.131805
 20
80.976227
  0
VERTEX
  8
0
 10
233.131805
 20
283.976227
  0
VERTEX
  8
0
 10
232.131805
 20
284.976227
  0
VERTEX
  8
0
 10
209.131805
 20
284.976227
  0
VERTEX
  8
0
 10
208.131805
 20
283.976227
  0
VERTEX
  8
0
 10
208.131805
 20
163.976227
  0
SEQEND
  0
POLYLINE
  8
0
 62
     4
 66
     1
 70
     2
  0
VERTEX
  8
0
 10
208.131805
 20
200.976227
  0
VERTEX
  8
0
 10
209.131805
 20
199.976227
  0
VERTEX
  8
0
 10
209.131805
 20
164.976227
  0
VERTEX
  8
0
 10
232.131805
 20
164.976227
  0
VERTEX
  8
0
 10
232.131805
 20
199.976227
  0
VERTEX
  8
0
 10
209.131805
 20
199.976227
  0
SEQEND
  0
ARC
  8
0
 62
     4
 10
358.987793
 20
182.476227
 40
17.500000
 50
106.60154992625478
 51
73.39845007374521
  0
POLYLINE
  8
0
 62
     4
 66
     1
 70
     2
  0
VERTEX
  8
0
 10
363.987793
 20
199.246735
  0
VERTEX
  8
0
 10
363.987793
 20
203.276230
  0
VERTEX
  8
0
 10
353.987793
 20
203.276230
  0
VERTEX
  8
0
 10
353.987793
 20
199.246735
  0
SEQEND
  0
LINE
  8
0
 62
     4
 10
208.131805
 20
203.276230
 11
233.131805
 21
203.276230
  0
LINE
  8
DASHDOT
 62
     7
 10
358.987793
 20
209.777588
 11
358.987793
 21
158.474869
  0
LINE
  8
DASHDOT
 62
     7
 10
382.989136
 20
182.476227
 11
334.986420
 21
182.476227
  0
LINE
  8
0
 62
     5
 10
376.990479
 20
218.446060
 11
340.985046
 21
218.446060
  0
POLYLINE
  8
0
 62
     5
 66
     1
 70
     2
  0
VERTEX
  8
0
 10
346.402863
 20
216.278946
  0
VERTEX
  8
0
 10
353.987793
 20
218.446060
  0
VERTEX
  8
0
 10
346.402863
 20
220.613190
  0
SEQEND
  0
POLYLINE
  8
0
 62
     5
 66
     1
 70
     2
  0
VERTEX
  8
0
 10
371.572693
 20
220.613190
  0
VERTEX
  8
0
 10
363.987793
 20
218.446060
  0
VERTEX
  8
0
 10
371.572693
 20
216.278946
  0
SEQEND
  0
LINE
  8
0
 62
     5
 10
353.987793
 20
203.276230
 11
353.987793
 21
221.696747
  0
LINE
  8
0
 62
     5
 10
363.987793
 20
203.276230
 11
363.987793
 21
221.696747
  0
TEXT
  8
0
 62
     7
 10
331.203156
 20
220.613190
 40
10.835598
 41
1.000000
  1
10
  7
KANJI
 50
0.000000
 51
0.000000
  0
TEXT
  8
0
 62
     7
 10
349.513977
 20
220.613190
 40
8.668478
 41
1.000000
  1
%%p0.018
  7
KANJI
 50
0.000000
 51
0.000000
  0
LINE
  8
0
 62
     5
 10
439.836975
 20
151.973511
 11
439.836975
 21
216.278946
  0
POLYLINE
  8
0
 62
     5
 66
     1
 70
     2
  0
VERTEX
  8
0
 10
437.669861
 20
210.861145
  0
VERTEX
  8
0
 10
439.836975
 20
203.276230
  0
VERTEX
  8
0
 10
442.004089
 20
210.861145
  0
SEQEND
  0
POLYLINE
  8
0
 62
     5
 66
     1
 70
     2
  0
VERTEX
  8
0
 10
442.004089
 20
157.391312
  0
VERTEX
  8
0
 10
439.836975
 20
164.976227
  0
VERTEX
  8
0
 10
437.669861
 20
157.391312
  0
SEQEND
  0
LINE
  8
0
 62
     5
 10
363.987793
 20
203.276230
 11
443.087646
 21
203.276230
  0
LINE
  8
0
 62
     5
 10
358.987793
 20
164.976227
 11
443.087646
 21
164.976227
  0
TEXT
  8
0
 62
     7
 10
436.586273
 20
149.400055
 40
10.835598
 41
1.000000
  1
38.3
  7
KANJI
 50
90.000000
 51
0.000000
  0
TEXT
  8
0
 62
     7
 10
437.236420
 20
196.300812
 40
5.417799
 41
1.000000
  1
 
  7
KANJI
 50
90.000000
 51
0.000000
  0
TEXT
  8
0
 62
     7
 10
430.518341
 20
196.300812
 40
5.417799
 41
1.000000
  1
+
  7
KANJI
 50
90.000000
 51
0.000000
  0
TEXT
  8
0
 62
     7
 10
437.236420
 20
202.368744
 40
5.417799
 41
1.000000
  1
0
  7
KANJI
 50
90.000000
 51
0.000000
  0
TEXT
  8
0
 62
     7
 10
430.518341
 20
202.368744
 40
5.417799
 41
1.000000
  1
0.2
  7
KANJI
 50
90.000000
 51
0.000000
  0
LINE
  8
0
 62
     5
 10
276.474182
 20
199.976227
 11
276.474182
 21
164.976227
  0
POLYLINE
  8
0
 62
     5
 66
     1
 70
     2
  0
VERTEX
  8
0
 10
274.307068
 20
172.561142
  0
VERTEX
  8
0
 10
276.474182
 20
164.976227
  0
VERTEX
  8
0
 10
278.641327
 20
172.561142
  0
SEQEND
  0
LINE
  8
0
 62
     5
 10
233.131805
 20
164.976227
 11
279.724884
 21
164.976227
  0
TEXT
  8
0
 62
     7
 10
274.307068
 20
162.701263
 40
10.835598
 41
1.000000
  1
%%c35H7
  7
KANJI
 50
90.000000
 51
0.000000
  0
ENDSEC
  0
EOF
