  0
SECTION
  2
HEADER
  9
$ACADVER
  1
AC1003
  9
$INSBASE
 10
0.000000
 20
0.000000
  9
$EXTMIN
 10
0.000000
 20
0.000000
  9
$EXTMAX
 10
273.953804
 20
189.436141
  9
$LIMMIN
 10
0.000000
 20
0.000000
  9
$LIMMAX
 10
273.953804
 20
189.436141
  9
$VIEWCTR
 10
136.976902
 20
94.718071
  9
$VIEWSIZE
 40
189.436141
  0
ENDSEC
  0
SECTION
  2
TABLES
  0
TABLE
  2
LTYPE
 70
     4
  0
LTYPE
  2
CONTINUOUS
 70
    64
  3
SolidLine
 72
    65
 73
     0
 40
0.0
  0
LTYPE
  2
HIDDEN
 70
    64
  3
------------------------
 72
    65
 73
     2
 40
2.914402
 49
1.942935
 49
-0.971467
  0
LTYPE
  2
DASHDOT
 70
    64
  3
--?--?--?--?--?--?--?--
 72
    65
 73
     4
 40
11.657609
 49
8.743207
 49
-0.971467
 49
0.971467
 49
-0.971467
  0
LTYPE
  2
DIVIDE
 70
    64
  3
--??--??--??--??--??--
 72
    65
 73
     6
 40
14.572011
 49
9.714674
 49
-0.971467
 49
0.971467
 49
-0.971467
 49
0.971467
 49
-0.971467
  0
ENDTAB
  0
TABLE
  2
LAYER
 70
     5
  0
LAYER
  2
0
 70
    64
 62
     7
  6
CONTINUOUS
  0
LAYER
  2
HIDDEN
 70
    64
 62
     2
  6
HIDDEN
  0
LAYER
  2
DASHDOT
 70
    64
 62
     6
  6
DASHDOT
  0
LAYER
  2
DIVIDE
 70
    64
 62
     5
  6
DIVIDE
  0
ENDTAB
  0
TABLE
  2
STYLE
 70
     1
  0
STYLE
  2
STANDARD
 70
    64
 40
0.0
 41
1.0
 50
0.0
 71
     0
 42
0.2
  3
TXT
  4

  0
STYLE
  2
KANJI
 70
    64
 40
0.0
 41
1.0
 50
0.0
 71
     0
 42
0.2
  3
TXT
  4
BIGFONT
  0
ENDTAB
  0
TABLE
  2
VIEW
 70
     0
  0
ENDTAB
  0
ENDSEC
  0
SECTION
  2
BLOCKS
  0
ENDSEC
  0
SECTION
  2
ENTITIES
  0
TEXT
  8
0
 62
     7
 10
9.714674
 20
10.686141
 40
3.885870
 41
1.000000
  1
KHK SSA2.5-36J19
  7
KANJI
 50
0.000000
 51
0.000000
  0
TEXT
  8
0
 62
     7
 10
9.714674
 20
4.857337
 40
3.885870
 41
1.000000
  1
The precision grade of gears after secondary operations is equivalent but not identical to its original grade.
  7
KANJI
 50
0.000000
 51
0.000000
  0
TEXT
  8
0
 62
     7
 10
9.714674
 20
174.864136
 40
4.371603
 41
1.000000
  1
For J Series products, without black oxide repeatedly applied on secondary-operated parts.
  7
KANJI
 50
0.000000
 51
0.000000
  0
POLYLINE
  8
0
 62
     7
 66
     1
 70
     2
  0
VERTEX
  8
0
 10
233.152176
 20
174.864136
  0
VERTEX
  8
0
 10
229.363449
 20
181.431259
  0
VERTEX
  8
0
 10
244.518341
 20
181.431259
  0
VERTEX
  8
0
 10
240.729614
 20
174.864136
  0
VERTEX
  8
0
 10
236.940903
 20
181.431259
  0
VERTEX
  8
0
 10
233.152176
 20
174.864136
  0
SEQEND
  0
LINE
  8
0
 62
     5
 10
145.169830
 20
127.747963
 11
145.169830
 21
32.747963
  0
POLYLINE
  8
0
 62
     5
 66
     1
 70
     2
  0
VERTEX
  8
0
 10
146.141296
 20
124.347824
  0
VERTEX
  8
0
 10
145.169830
 20
127.747963
  0
VERTEX
  8
0
 10
144.198364
 20
124.347824
  0
SEQEND
  0
POLYLINE
  8
0
 62
     5
 66
     1
 70
     2
  0
VERTEX
  8
0
 10
144.198364
 20
36.148098
  0
VERTEX
  8
0
 10
145.169830
 20
32.747963
  0
VERTEX
  8
0
 10
146.141296
 20
36.148098
  0
SEQEND
  0
LINE
  8
0
 62
     5
 10
110.197006
 20
127.747963
 11
146.627045
 21
127.747963
  0
LINE
  8
0
 62
     5
 10
110.197006
 20
32.747963
 11
146.627045
 21
32.747963
  0
TEXT
  8
0
 62
     7
 10
144.198364
 20
74.540588
 40
4.857337
 41
1.000000
  1
%%c95
  7
KANJI
 50
90.000000
 51
0.000000
  0
LINE
  8
0
 62
     5
 10
85.197006
 20
147.177307
 11
110.197006
 21
147.177307
  0
POLYLINE
  8
0
 62
     5
 66
     1
 70
     2
  0
VERTEX
  8
0
 10
88.597145
 20
148.148773
  0
VERTEX
  8
0
 10
85.197006
 20
147.177307
  0
VERTEX
  8
0
 10
88.597145
 20
146.205841
  0
SEQEND
  0
POLYLINE
  8
0
 62
     5
 66
     1
 70
     2
  0
VERTEX
  8
0
 10
106.796875
 20
146.205841
  0
VERTEX
  8
0
 10
110.197006
 20
147.177307
  0
VERTEX
  8
0
 10
106.796875
 20
148.148773
  0
SEQEND
  0
LINE
  8
0
 62
     5
 10
85.197006
 20
127.747963
 11
85.197006
 21
148.634521
  0
LINE
  8
0
 62
     5
 10
110.197006
 20
127.747963
 11
110.197006
 21
148.634521
  0
TEXT
  8
0
 62
     7
 10
94.539734
 20
147.954498
 40
4.857337
 41
1.000000
  1
25
  7
KANJI
 50
0.000000
 51
0.000000
  0
LINE
  8
DASHDOT
 62
     7
 10
82.282600
 20
125.247963
 11
113.111404
 21
125.247963
  0
LINE
  8
DASHDOT
 62
     7
 10
82.282600
 20
35.247963
 11
113.111404
 21
35.247963
  0
LINE
  8
DASHDOT
 62
     7
 10
82.282600
 20
80.247963
 11
113.111404
 21
80.247963
  0
LINE
  8
0
 62
     5
 10
109.197006
 20
32.747963
 11
110.197006
 21
32.747963
  0
LINE
  8
0
 62
     5
 10
109.197006
 20
127.747963
 11
110.197006
 21
127.747963
  0
LINE
  8
0
 62
     5
 10
110.197006
 20
126.747963
 11
110.197006
 21
127.747963
  0
LINE
  8
0
 62
     5
 10
85.197006
 20
126.747963
 11
85.197006
 21
127.747963
  0
LINE
  8
0
 62
     4
 10
85.197006
 20
122.122963
 11
110.197006
 21
122.122963
  0
LINE
  8
0
 62
     4
 10
85.197006
 20
38.372963
 11
110.197006
 21
38.372963
  0
LINE
  8
0
 62
     4
 10
110.197006
 20
90.247963
 11
109.697006
 21
89.747963
  0
LINE
  8
0
 62
     4
 10
110.197006
 20
70.247963
 11
109.697006
 21
70.747963
  0
LINE
  8
0
 62
     4
 10
85.197006
 20
70.247963
 11
85.697006
 21
70.747963
  0
POLYLINE
  8
0
 62
     4
 66
     1
 70
     2
  0
VERTEX
  8
0
 10
85.197006
 20
70.247963
  0
VERTEX
  8
0
 10
85.197006
 20
33.747963
  0
VERTEX
  8
0
 10
86.197006
 20
32.747963
  0
VERTEX
  8
0
 10
109.197006
 20
32.747963
  0
VERTEX
  8
0
 10
110.197006
 20
33.747963
  0
VERTEX
  8
0
 10
110.197006
 20
126.747963
  0
VERTEX
  8
0
 10
109.197006
 20
127.747963
  0
VERTEX
  8
0
 10
86.197006
 20
127.747963
  0
VERTEX
  8
0
 10
85.197006
 20
126.747963
  0
VERTEX
  8
0
 10
85.197006
 20
70.247963
  0
SEQEND
  0
POLYLINE
  8
0
 62
     4
 66
     1
 70
     2
  0
VERTEX
  8
0
 10
85.197006
 20
90.247963
  0
VERTEX
  8
0
 10
85.697006
 20
89.747963
  0
VERTEX
  8
0
 10
85.697006
 20
70.747963
  0
VERTEX
  8
0
 10
109.697006
 20
70.747963
  0
VERTEX
  8
0
 10
109.697006
 20
89.747963
  0
VERTEX
  8
0
 10
85.697006
 20
89.747963
  0
SEQEND
  0
ARC
  8
0
 62
     4
 10
168.270386
 20
80.247963
 40
9.500000
 50
108.4084803259778
 51
71.5915196740222
  0
POLYLINE
  8
0
 62
     4
 66
     1
 70
     2
  0
VERTEX
  8
0
 10
171.270386
 20
89.261841
  0
VERTEX
  8
0
 10
171.270386
 20
92.547966
  0
VERTEX
  8
0
 10
165.270386
 20
92.547966
  0
VERTEX
  8
0
 10
165.270386
 20
89.261841
  0
SEQEND
  0
LINE
  8
0
 62
     4
 10
85.197006
 20
92.547966
 11
110.197006
 21
92.547966
  0
LINE
  8
DASHDOT
 62
     7
 10
168.270386
 20
95.462364
 11
168.270386
 21
67.833557
  0
LINE
  8
DASHDOT
 62
     7
 10
180.684784
 20
80.247963
 11
155.855972
 21
80.247963
  0
LINE
  8
0
 62
     5
 10
177.099182
 20
99.348236
 11
159.441574
 21
99.348236
  0
POLYLINE
  8
0
 62
     5
 66
     1
 70
     2
  0
VERTEX
  8
0
 10
161.870239
 20
98.376770
  0
VERTEX
  8
0
 10
165.270386
 20
99.348236
  0
VERTEX
  8
0
 10
161.870239
 20
100.319702
  0
SEQEND
  0
POLYLINE
  8
0
 62
     5
 66
     1
 70
     2
  0
VERTEX
  8
0
 10
174.670517
 20
100.319702
  0
VERTEX
  8
0
 10
171.270386
 20
99.348236
  0
VERTEX
  8
0
 10
174.670517
 20
98.376770
  0
SEQEND
  0
LINE
  8
0
 62
     5
 10
165.270386
 20
92.547966
 11
165.270386
 21
100.805435
  0
LINE
  8
0
 62
     5
 10
171.270386
 20
92.547966
 11
171.270386
 21
100.805435
  0
TEXT
  8
0
 62
     7
 10
158.243866
 20
100.319702
 40
4.857337
 41
1.000000
  1
6
  7
KANJI
 50
0.000000
 51
0.000000
  0
TEXT
  8
0
 62
     7
 10
163.052032
 20
100.319702
 40
3.885870
 41
1.000000
  1
%%p0.015
  7
KANJI
 50
0.000000
 51
0.000000
  0
LINE
  8
0
 62
     5
 10
205.271729
 20
92.547966
 11
205.271729
 21
70.747963
  0
POLYLINE
  8
0
 62
     5
 66
     1
 70
     2
  0
VERTEX
  8
0
 10
206.243195
 20
89.147827
  0
VERTEX
  8
0
 10
205.271729
 20
92.547966
  0
VERTEX
  8
0
 10
204.300262
 20
89.147827
  0
SEQEND
  0
POLYLINE
  8
0
 62
     5
 66
     1
 70
     2
  0
VERTEX
  8
0
 10
204.300262
 20
74.148102
  0
VERTEX
  8
0
 10
205.271729
 20
70.747963
  0
VERTEX
  8
0
 10
206.243195
 20
74.148102
  0
SEQEND
  0
LINE
  8
0
 62
     5
 10
171.270386
 20
92.547966
 11
206.728943
 21
92.547966
  0
LINE
  8
0
 62
     5
 10
168.270386
 20
70.747963
 11
206.728943
 21
70.747963
  0
TEXT
  8
0
 62
     7
 10
203.814545
 20
65.617958
 40
4.857337
 41
1.000000
  1
21.8
  7
KANJI
 50
90.000000
 51
0.000000
  0
TEXT
  8
0
 62
     7
 10
204.105972
 20
86.642433
 40
2.428668
 41
1.000000
  1
 
  7
KANJI
 50
90.000000
 51
0.000000
  0
TEXT
  8
0
 62
     7
 10
201.094421
 20
86.642433
 40
2.428668
 41
1.000000
  1
+
  7
KANJI
 50
90.000000
 51
0.000000
  0
TEXT
  8
0
 62
     7
 10
204.105972
 20
89.362541
 40
2.428668
 41
1.000000
  1
0
  7
KANJI
 50
90.000000
 51
0.000000
  0
TEXT
  8
0
 62
     7
 10
201.094421
 20
89.362541
 40
2.428668
 41
1.000000
  1
0.1
  7
KANJI
 50
90.000000
 51
0.000000
  0
LINE
  8
0
 62
     5
 10
129.626358
 20
89.747963
 11
129.626358
 21
70.747963
  0
POLYLINE
  8
0
 62
     5
 66
     1
 70
     2
  0
VERTEX
  8
0
 10
128.654892
 20
74.148102
  0
VERTEX
  8
0
 10
129.626358
 20
70.747963
  0
VERTEX
  8
0
 10
130.597824
 20
74.148102
  0
SEQEND
  0
LINE
  8
0
 62
     5
 10
110.197006
 20
70.747963
 11
131.083557
 21
70.747963
  0
TEXT
  8
0
 62
     7
 10
128.654892
 20
71.383324
 40
4.857337
 41
1.000000
  1
%%c19H7
  7
KANJI
 50
90.000000
 51
0.000000
  0
ENDSEC
  0
EOF
