  0
SECTION
  2
HEADER
  9
$ACADVER
  1
AC1003
  9
$INSBASE
 10
0.000000
 20
0.000000
  9
$EXTMIN
 10
0.000000
 20
0.000000
  9
$EXTMAX
 10
139.280488
 20
96.310976
  9
$LIMMIN
 10
0.000000
 20
0.000000
  9
$LIMMAX
 10
139.280488
 20
96.310976
  9
$VIEWCTR
 10
69.640244
 20
48.155488
  9
$VIEWSIZE
 40
96.310976
  0
ENDSEC
  0
SECTION
  2
TABLES
  0
TABLE
  2
LTYPE
 70
     4
  0
LTYPE
  2
CONTINUOUS
 70
    64
  3
SolidLine
 72
    65
 73
     0
 40
0.0
  0
LTYPE
  2
HIDDEN
 70
    64
  3
------------------------
 72
    65
 73
     2
 40
1.481707
 49
0.987805
 49
-0.493902
  0
LTYPE
  2
DASHDOT
 70
    64
  3
--?--?--?--?--?--?--?--
 72
    65
 73
     4
 40
5.926829
 49
4.445122
 49
-0.493902
 49
0.493902
 49
-0.493902
  0
LTYPE
  2
DIVIDE
 70
    64
  3
--??--??--??--??--??--
 72
    65
 73
     6
 40
7.408537
 49
4.939024
 49
-0.493902
 49
0.493902
 49
-0.493902
 49
0.493902
 49
-0.493902
  0
ENDTAB
  0
TABLE
  2
LAYER
 70
     5
  0
LAYER
  2
0
 70
    64
 62
     7
  6
CONTINUOUS
  0
LAYER
  2
HIDDEN
 70
    64
 62
     2
  6
HIDDEN
  0
LAYER
  2
DASHDOT
 70
    64
 62
     6
  6
DASHDOT
  0
LAYER
  2
DIVIDE
 70
    64
 62
     5
  6
DIVIDE
  0
ENDTAB
  0
TABLE
  2
STYLE
 70
     1
  0
STYLE
  2
STANDARD
 70
    64
 40
0.0
 41
1.0
 50
0.0
 71
     0
 42
0.2
  3
TXT
  4

  0
STYLE
  2
KANJI
 70
    64
 40
0.0
 41
1.0
 50
0.0
 71
     0
 42
0.2
  3
TXT
  4
BIGFONT
  0
ENDTAB
  0
TABLE
  2
VIEW
 70
     0
  0
ENDTAB
  0
ENDSEC
  0
SECTION
  2
BLOCKS
  0
ENDSEC
  0
SECTION
  2
ENTITIES
  0
TEXT
  8
0
 62
     7
 10
4.939024
 20
5.432927
 40
1.975610
 41
1.000000
  1
KHK SSA3-15J16
  7
KANJI
 50
0.000000
 51
0.000000
  0
TEXT
  8
0
 62
     7
 10
4.939024
 20
2.469512
 40
1.975610
 41
1.000000
  1
The precision grade of gears after secondary operations is equivalent but not identical to its original grade.
  7
KANJI
 50
0.000000
 51
0.000000
  0
TEXT
  8
0
 62
     7
 10
4.939024
 20
88.902435
 40
2.222561
 41
1.000000
  1
For J Series products, without black oxide repeatedly applied on secondary-operated parts.
  7
KANJI
 50
0.000000
 51
0.000000
  0
POLYLINE
  8
0
 62
     7
 66
     1
 70
     2
  0
VERTEX
  8
0
 10
118.536583
 20
88.902435
  0
VERTEX
  8
0
 10
116.610367
 20
92.241219
  0
VERTEX
  8
0
 10
124.315239
 20
92.241219
  0
VERTEX
  8
0
 10
122.389023
 20
88.902435
  0
VERTEX
  8
0
 10
120.462799
 20
92.241219
  0
VERTEX
  8
0
 10
118.536583
 20
88.902435
  0
SEQEND
  0
LINE
  8
0
 62
     5
 10
80.378052
 20
64.353661
 11
80.378052
 21
13.353661
  0
POLYLINE
  8
0
 62
     5
 66
     1
 70
     2
  0
VERTEX
  8
0
 10
80.871948
 20
62.625000
  0
VERTEX
  8
0
 10
80.378052
 20
64.353661
  0
VERTEX
  8
0
 10
79.884140
 20
62.625000
  0
SEQEND
  0
POLYLINE
  8
0
 62
     5
 66
     1
 70
     2
  0
VERTEX
  8
0
 10
79.884140
 20
15.082319
  0
VERTEX
  8
0
 10
80.378052
 20
13.353661
  0
VERTEX
  8
0
 10
80.871948
 20
15.082319
  0
SEQEND
  0
LINE
  8
0
 62
     5
 10
62.597561
 20
64.353661
 11
81.118896
 21
64.353661
  0
LINE
  8
0
 62
     5
 10
62.597561
 20
13.353661
 11
81.118896
 21
13.353661
  0
TEXT
  8
0
 62
     7
 10
79.884140
 20
35.951984
 40
2.469512
 41
1.000000
  1
%%c51
  7
KANJI
 50
90.000000
 51
0.000000
  0
LINE
  8
0
 62
     5
 10
32.597561
 20
74.231705
 11
62.597561
 21
74.231705
  0
POLYLINE
  8
0
 62
     5
 66
     1
 70
     2
  0
VERTEX
  8
0
 10
34.326218
 20
74.725616
  0
VERTEX
  8
0
 10
32.597561
 20
74.231705
  0
VERTEX
  8
0
 10
34.326218
 20
73.737808
  0
SEQEND
  0
POLYLINE
  8
0
 62
     5
 66
     1
 70
     2
  0
VERTEX
  8
0
 10
60.868904
 20
73.737808
  0
VERTEX
  8
0
 10
62.597561
 20
74.231705
  0
VERTEX
  8
0
 10
60.868904
 20
74.725616
  0
SEQEND
  0
LINE
  8
0
 62
     5
 10
32.597561
 20
64.353661
 11
32.597561
 21
74.972565
  0
LINE
  8
0
 62
     5
 10
62.597561
 20
64.353661
 11
62.597561
 21
74.972565
  0
TEXT
  8
0
 62
     7
 10
45.992378
 20
74.626831
 40
2.469512
 41
1.000000
  1
30
  7
KANJI
 50
0.000000
 51
0.000000
  0
LINE
  8
DASHDOT
 62
     7
 10
31.115854
 20
61.353661
 11
64.079269
 21
61.353661
  0
LINE
  8
DASHDOT
 62
     7
 10
31.115854
 20
16.353661
 11
64.079269
 21
16.353661
  0
LINE
  8
DASHDOT
 62
     7
 10
31.115854
 20
38.853661
 11
64.079269
 21
38.853661
  0
LINE
  8
0
 62
     5
 10
61.597561
 20
13.353661
 11
62.597561
 21
13.353661
  0
LINE
  8
0
 62
     5
 10
61.597561
 20
64.353661
 11
62.597561
 21
64.353661
  0
LINE
  8
0
 62
     5
 10
62.597561
 20
63.353661
 11
62.597561
 21
64.353661
  0
LINE
  8
0
 62
     5
 10
32.597561
 20
63.353661
 11
32.597561
 21
64.353661
  0
LINE
  8
0
 62
     4
 10
32.597561
 20
57.603661
 11
62.597561
 21
57.603661
  0
LINE
  8
0
 62
     4
 10
32.597561
 20
20.103661
 11
62.597561
 21
20.103661
  0
LINE
  8
0
 62
     4
 10
62.597561
 20
47.353661
 11
62.097561
 21
46.853661
  0
LINE
  8
0
 62
     4
 10
62.597561
 20
30.353661
 11
62.097561
 21
30.853661
  0
LINE
  8
0
 62
     4
 10
32.597561
 20
30.353661
 11
33.097561
 21
30.853661
  0
POLYLINE
  8
0
 62
     4
 66
     1
 70
     2
  0
VERTEX
  8
0
 10
32.597561
 20
30.353661
  0
VERTEX
  8
0
 10
32.597561
 20
14.353661
  0
VERTEX
  8
0
 10
33.597561
 20
13.353661
  0
VERTEX
  8
0
 10
61.597561
 20
13.353661
  0
VERTEX
  8
0
 10
62.597561
 20
14.353661
  0
VERTEX
  8
0
 10
62.597561
 20
63.353661
  0
VERTEX
  8
0
 10
61.597561
 20
64.353661
  0
VERTEX
  8
0
 10
33.597561
 20
64.353661
  0
VERTEX
  8
0
 10
32.597561
 20
63.353661
  0
VERTEX
  8
0
 10
32.597561
 20
30.353661
  0
SEQEND
  0
POLYLINE
  8
0
 62
     4
 66
     1
 70
     2
  0
VERTEX
  8
0
 10
32.597561
 20
47.353661
  0
VERTEX
  8
0
 10
33.097561
 20
46.853661
  0
VERTEX
  8
0
 10
33.097561
 20
30.853661
  0
VERTEX
  8
0
 10
62.097561
 20
30.853661
  0
VERTEX
  8
0
 10
62.097561
 20
46.853661
  0
VERTEX
  8
0
 10
33.097561
 20
46.853661
  0
SEQEND
  0
ARC
  8
0
 62
     4
 10
95.292679
 20
38.853661
 40
8.000000
 50
108.20995732853793
 51
71.79004267146207
  0
POLYLINE
  8
0
 62
     4
 66
     1
 70
     2
  0
VERTEX
  8
0
 10
97.792679
 20
46.453003
  0
VERTEX
  8
0
 10
97.792679
 20
49.153660
  0
VERTEX
  8
0
 10
92.792679
 20
49.153660
  0
VERTEX
  8
0
 10
92.792679
 20
46.453003
  0
SEQEND
  0
LINE
  8
0
 62
     4
 10
32.597561
 20
49.153660
 11
62.597561
 21
49.153660
  0
LINE
  8
DASHDOT
 62
     7
 10
95.292679
 20
50.635368
 11
95.292679
 21
29.371952
  0
LINE
  8
DASHDOT
 62
     7
 10
104.774384
 20
38.853661
 11
85.810974
 21
38.853661
  0
LINE
  8
0
 62
     5
 10
100.756104
 20
52.610977
 11
89.829269
 21
52.610977
  0
POLYLINE
  8
0
 62
     5
 66
     1
 70
     2
  0
VERTEX
  8
0
 10
91.064026
 20
52.117077
  0
VERTEX
  8
0
 10
92.792679
 20
52.610977
  0
VERTEX
  8
0
 10
91.064026
 20
53.104881
  0
SEQEND
  0
POLYLINE
  8
0
 62
     5
 66
     1
 70
     2
  0
VERTEX
  8
0
 10
99.521347
 20
53.104881
  0
VERTEX
  8
0
 10
97.792679
 20
52.610977
  0
VERTEX
  8
0
 10
99.521347
 20
52.117077
  0
SEQEND
  0
LINE
  8
0
 62
     5
 10
92.792679
 20
49.153660
 11
92.792679
 21
53.351830
  0
LINE
  8
0
 62
     5
 10
97.792679
 20
49.153660
 11
97.792679
 21
53.351830
  0
TEXT
  8
0
 62
     7
 10
90.195122
 20
53.104881
 40
2.469512
 41
1.000000
  1
5
  7
KANJI
 50
0.000000
 51
0.000000
  0
TEXT
  8
0
 62
     7
 10
92.639633
 20
53.104881
 40
1.975610
 41
1.000000
  1
%%p0.015
  7
KANJI
 50
0.000000
 51
0.000000
  0
LINE
  8
0
 62
     5
 10
115.079269
 20
49.153660
 11
115.079269
 21
30.853661
  0
POLYLINE
  8
0
 62
     5
 66
     1
 70
     2
  0
VERTEX
  8
0
 10
115.573166
 20
47.425003
  0
VERTEX
  8
0
 10
115.079269
 20
49.153660
  0
VERTEX
  8
0
 10
114.585358
 20
47.425003
  0
SEQEND
  0
POLYLINE
  8
0
 62
     5
 66
     1
 70
     2
  0
VERTEX
  8
0
 10
114.585358
 20
32.582321
  0
VERTEX
  8
0
 10
115.079269
 20
30.853661
  0
VERTEX
  8
0
 10
115.573166
 20
32.582321
  0
SEQEND
  0
LINE
  8
0
 62
     5
 10
97.792679
 20
49.153660
 11
115.820114
 21
49.153660
  0
LINE
  8
0
 62
     5
 10
95.292679
 20
30.853661
 11
115.820114
 21
30.853661
  0
TEXT
  8
0
 62
     7
 10
114.338409
 20
31.132198
 40
2.469512
 41
1.000000
  1
18.3
  7
KANJI
 50
90.000000
 51
0.000000
  0
TEXT
  8
0
 62
     7
 10
114.486588
 20
41.821224
 40
1.234756
 41
1.000000
  1
 
  7
KANJI
 50
90.000000
 51
0.000000
  0
TEXT
  8
0
 62
     7
 10
112.955490
 20
41.821224
 40
1.234756
 41
1.000000
  1
+
  7
KANJI
 50
90.000000
 51
0.000000
  0
TEXT
  8
0
 62
     7
 10
114.486588
 20
43.204151
 40
1.234756
 41
1.000000
  1
0
  7
KANJI
 50
90.000000
 51
0.000000
  0
TEXT
  8
0
 62
     7
 10
112.955490
 20
43.204151
 40
1.234756
 41
1.000000
  1
0.1
  7
KANJI
 50
90.000000
 51
0.000000
  0
LINE
  8
0
 62
     5
 10
72.475609
 20
46.853661
 11
72.475609
 21
30.853661
  0
POLYLINE
  8
0
 62
     5
 66
     1
 70
     2
  0
VERTEX
  8
0
 10
71.981705
 20
32.582321
  0
VERTEX
  8
0
 10
72.475609
 20
30.853661
  0
VERTEX
  8
0
 10
72.969513
 20
32.582321
  0
SEQEND
  0
LINE
  8
0
 62
     5
 10
62.597561
 20
30.853661
 11
73.216461
 21
30.853661
  0
TEXT
  8
0
 62
     7
 10
71.981705
 20
34.346802
 40
2.469512
 41
1.000000
  1
%%c16H7
  7
KANJI
 50
90.000000
 51
0.000000
  0
ENDSEC
  0
EOF
