  0
SECTION
  2
HEADER
  9
$ACADVER
  1
AC1003
  9
$INSBASE
 10
0.000000
 20
0.000000
  9
$EXTMIN
 10
0.000000
 20
0.000000
  9
$EXTMAX
 10
141.000000
 20
97.500000
  9
$LIMMIN
 10
0.000000
 20
0.000000
  9
$LIMMAX
 10
141.000000
 20
97.500000
  9
$VIEWCTR
 10
70.500000
 20
48.750000
  9
$VIEWSIZE
 40
97.500000
  0
ENDSEC
  0
SECTION
  2
TABLES
  0
TABLE
  2
LTYPE
 70
     4
  0
LTYPE
  2
CONTINUOUS
 70
    64
  3
SolidLine
 72
    65
 73
     0
 40
0.0
  0
LTYPE
  2
HIDDEN
 70
    64
  3
------------------------
 72
    65
 73
     2
 40
1.500000
 49
1.000000
 49
-0.500000
  0
LTYPE
  2
DASHDOT
 70
    64
  3
--?--?--?--?--?--?--?--
 72
    65
 73
     4
 40
6.000000
 49
4.500000
 49
-0.500000
 49
0.500000
 49
-0.500000
  0
LTYPE
  2
DIVIDE
 70
    64
  3
--??--??--??--??--??--
 72
    65
 73
     6
 40
7.500000
 49
5.000000
 49
-0.500000
 49
0.500000
 49
-0.500000
 49
0.500000
 49
-0.500000
  0
ENDTAB
  0
TABLE
  2
LAYER
 70
     5
  0
LAYER
  2
0
 70
    64
 62
     7
  6
CONTINUOUS
  0
LAYER
  2
HIDDEN
 70
    64
 62
     2
  6
HIDDEN
  0
LAYER
  2
DASHDOT
 70
    64
 62
     6
  6
DASHDOT
  0
LAYER
  2
DIVIDE
 70
    64
 62
     5
  6
DIVIDE
  0
ENDTAB
  0
TABLE
  2
STYLE
 70
     1
  0
STYLE
  2
STANDARD
 70
    64
 40
0.0
 41
1.0
 50
0.0
 71
     0
 42
0.2
  3
TXT
  4

  0
STYLE
  2
KANJI
 70
    64
 40
0.0
 41
1.0
 50
0.0
 71
     0
 42
0.2
  3
TXT
  4
BIGFONT
  0
ENDTAB
  0
TABLE
  2
VIEW
 70
     0
  0
ENDTAB
  0
ENDSEC
  0
SECTION
  2
BLOCKS
  0
ENDSEC
  0
SECTION
  2
ENTITIES
  0
TEXT
  8
0
 62
     7
 10
5.000000
 20
5.500000
 40
2.000000
 41
1.000000
  1
KHK SSA3-15J17
  7
KANJI
 50
0.000000
 51
0.000000
  0
TEXT
  8
0
 62
     7
 10
5.000000
 20
2.500000
 40
2.000000
 41
1.000000
  1
The precision grade of gears after secondary operations is equivalent but not identical to its original grade.
  7
KANJI
 50
0.000000
 51
0.000000
  0
TEXT
  8
0
 62
     7
 10
5.000000
 20
90.000000
 40
2.250000
 41
1.000000
  1
For J Series products, without black oxide repeatedly applied on secondary-operated parts.
  7
KANJI
 50
0.000000
 51
0.000000
  0
POLYLINE
  8
0
 62
     7
 66
     1
 70
     2
  0
VERTEX
  8
0
 10
120.000000
 20
90.000000
  0
VERTEX
  8
0
 10
118.050003
 20
93.379997
  0
VERTEX
  8
0
 10
125.849998
 20
93.379997
  0
VERTEX
  8
0
 10
123.900002
 20
90.000000
  0
VERTEX
  8
0
 10
121.949997
 20
93.379997
  0
VERTEX
  8
0
 10
120.000000
 20
90.000000
  0
SEQEND
  0
LINE
  8
0
 62
     5
 10
81.000000
 20
64.875000
 11
81.000000
 21
13.875000
  0
POLYLINE
  8
0
 62
     5
 66
     1
 70
     2
  0
VERTEX
  8
0
 10
81.500000
 20
63.125000
  0
VERTEX
  8
0
 10
81.000000
 20
64.875000
  0
VERTEX
  8
0
 10
80.500000
 20
63.125000
  0
SEQEND
  0
POLYLINE
  8
0
 62
     5
 66
     1
 70
     2
  0
VERTEX
  8
0
 10
80.500000
 20
15.625000
  0
VERTEX
  8
0
 10
81.000000
 20
13.875000
  0
VERTEX
  8
0
 10
81.500000
 20
15.625000
  0
SEQEND
  0
LINE
  8
0
 62
     5
 10
63.000000
 20
64.875000
 11
81.750000
 21
64.875000
  0
LINE
  8
0
 62
     5
 10
63.000000
 20
13.875000
 11
81.750000
 21
13.875000
  0
TEXT
  8
0
 62
     7
 10
80.500000
 20
36.437500
 40
2.500000
 41
1.000000
  1
%%c51
  7
KANJI
 50
90.000000
 51
0.000000
  0
LINE
  8
0
 62
     5
 10
33.000000
 20
74.875000
 11
63.000000
 21
74.875000
  0
POLYLINE
  8
0
 62
     5
 66
     1
 70
     2
  0
VERTEX
  8
0
 10
34.750000
 20
75.375000
  0
VERTEX
  8
0
 10
33.000000
 20
74.875000
  0
VERTEX
  8
0
 10
34.750000
 20
74.375000
  0
SEQEND
  0
POLYLINE
  8
0
 62
     5
 66
     1
 70
     2
  0
VERTEX
  8
0
 10
61.250000
 20
74.375000
  0
VERTEX
  8
0
 10
63.000000
 20
74.875000
  0
VERTEX
  8
0
 10
61.250000
 20
75.375000
  0
SEQEND
  0
LINE
  8
0
 62
     5
 10
33.000000
 20
64.875000
 11
33.000000
 21
75.625000
  0
LINE
  8
0
 62
     5
 10
63.000000
 20
64.875000
 11
63.000000
 21
75.625000
  0
TEXT
  8
0
 62
     7
 10
46.375000
 20
75.275002
 40
2.500000
 41
1.000000
  1
30
  7
KANJI
 50
0.000000
 51
0.000000
  0
LINE
  8
DASHDOT
 62
     7
 10
31.500000
 20
61.875000
 11
64.500000
 21
61.875000
  0
LINE
  8
DASHDOT
 62
     7
 10
31.500000
 20
16.875000
 11
64.500000
 21
16.875000
  0
LINE
  8
DASHDOT
 62
     7
 10
31.500000
 20
39.375000
 11
64.500000
 21
39.375000
  0
LINE
  8
0
 62
     5
 10
62.000000
 20
13.875000
 11
63.000000
 21
13.875000
  0
LINE
  8
0
 62
     5
 10
62.000000
 20
64.875000
 11
63.000000
 21
64.875000
  0
LINE
  8
0
 62
     5
 10
63.000000
 20
63.875000
 11
63.000000
 21
64.875000
  0
LINE
  8
0
 62
     5
 10
33.000000
 20
63.875000
 11
33.000000
 21
64.875000
  0
LINE
  8
0
 62
     4
 10
33.000000
 20
58.125000
 11
63.000000
 21
58.125000
  0
LINE
  8
0
 62
     4
 10
33.000000
 20
20.625000
 11
63.000000
 21
20.625000
  0
LINE
  8
0
 62
     4
 10
63.000000
 20
48.375000
 11
62.500000
 21
47.875000
  0
LINE
  8
0
 62
     4
 10
63.000000
 20
30.375000
 11
62.500000
 21
30.875000
  0
LINE
  8
0
 62
     4
 10
33.000000
 20
30.375000
 11
33.500000
 21
30.875000
  0
POLYLINE
  8
0
 62
     4
 66
     1
 70
     2
  0
VERTEX
  8
0
 10
33.000000
 20
30.375000
  0
VERTEX
  8
0
 10
33.000000
 20
14.875000
  0
VERTEX
  8
0
 10
34.000000
 20
13.875000
  0
VERTEX
  8
0
 10
62.000000
 20
13.875000
  0
VERTEX
  8
0
 10
63.000000
 20
14.875000
  0
VERTEX
  8
0
 10
63.000000
 20
63.875000
  0
VERTEX
  8
0
 10
62.000000
 20
64.875000
  0
VERTEX
  8
0
 10
34.000000
 20
64.875000
  0
VERTEX
  8
0
 10
33.000000
 20
63.875000
  0
VERTEX
  8
0
 10
33.000000
 20
30.375000
  0
SEQEND
  0
POLYLINE
  8
0
 62
     4
 66
     1
 70
     2
  0
VERTEX
  8
0
 10
33.000000
 20
48.375000
  0
VERTEX
  8
0
 10
33.500000
 20
47.875000
  0
VERTEX
  8
0
 10
33.500000
 20
30.875000
  0
VERTEX
  8
0
 10
62.500000
 20
30.875000
  0
VERTEX
  8
0
 10
62.500000
 20
47.875000
  0
VERTEX
  8
0
 10
33.500000
 20
47.875000
  0
SEQEND
  0
ARC
  8
0
 62
     4
 10
96.500000
 20
39.375000
 40
8.500000
 50
107.10463483476482
 51
72.89536516523518
  0
POLYLINE
  8
0
 62
     4
 66
     1
 70
     2
  0
VERTEX
  8
0
 10
99.000000
 20
47.499039
  0
VERTEX
  8
0
 10
99.000000
 20
50.174999
  0
VERTEX
  8
0
 10
94.000000
 20
50.174999
  0
VERTEX
  8
0
 10
94.000000
 20
47.499039
  0
SEQEND
  0
LINE
  8
0
 62
     4
 10
33.000000
 20
50.174999
 11
63.000000
 21
50.174999
  0
LINE
  8
DASHDOT
 62
     7
 10
96.500000
 20
51.674999
 11
96.500000
 21
29.375000
  0
LINE
  8
DASHDOT
 62
     7
 10
106.500000
 20
39.375000
 11
86.500000
 21
39.375000
  0
LINE
  8
0
 62
     5
 10
102.000000
 20
53.674999
 11
91.000000
 21
53.674999
  0
POLYLINE
  8
0
 62
     5
 66
     1
 70
     2
  0
VERTEX
  8
0
 10
92.250000
 20
53.174999
  0
VERTEX
  8
0
 10
94.000000
 20
53.674999
  0
VERTEX
  8
0
 10
92.250000
 20
54.174999
  0
SEQEND
  0
POLYLINE
  8
0
 62
     5
 66
     1
 70
     2
  0
VERTEX
  8
0
 10
100.750000
 20
54.174999
  0
VERTEX
  8
0
 10
99.000000
 20
53.674999
  0
VERTEX
  8
0
 10
100.750000
 20
53.174999
  0
SEQEND
  0
LINE
  8
0
 62
     5
 10
94.000000
 20
50.174999
 11
94.000000
 21
54.424999
  0
LINE
  8
0
 62
     5
 10
99.000000
 20
50.174999
 11
99.000000
 21
54.424999
  0
TEXT
  8
0
 62
     7
 10
91.339508
 20
54.174999
 40
2.500000
 41
1.000000
  1
5
  7
KANJI
 50
0.000000
 51
0.000000
  0
TEXT
  8
0
 62
     7
 10
93.814194
 20
54.174999
 40
2.000000
 41
1.000000
  1
%%p0.015
  7
KANJI
 50
0.000000
 51
0.000000
  0
LINE
  8
0
 62
     5
 10
116.500000
 20
50.174999
 11
116.500000
 21
30.875000
  0
POLYLINE
  8
0
 62
     5
 66
     1
 70
     2
  0
VERTEX
  8
0
 10
117.000000
 20
48.424999
  0
VERTEX
  8
0
 10
116.500000
 20
50.174999
  0
VERTEX
  8
0
 10
116.000000
 20
48.424999
  0
SEQEND
  0
POLYLINE
  8
0
 62
     5
 66
     1
 70
     2
  0
VERTEX
  8
0
 10
116.000000
 20
32.625000
  0
VERTEX
  8
0
 10
116.500000
 20
30.875000
  0
VERTEX
  8
0
 10
117.000000
 20
32.625000
  0
SEQEND
  0
LINE
  8
0
 62
     5
 10
99.000000
 20
50.174999
 11
117.250000
 21
50.174999
  0
LINE
  8
0
 62
     5
 10
96.500000
 20
30.875000
 11
117.250000
 21
30.875000
  0
TEXT
  8
0
 62
     7
 10
115.750000
 20
31.466606
 40
2.500000
 41
1.000000
  1
19.3
  7
KANJI
 50
90.000000
 51
0.000000
  0
TEXT
  8
0
 62
     7
 10
115.900002
 20
42.287594
 40
1.250000
 41
1.000000
  1
 
  7
KANJI
 50
90.000000
 51
0.000000
  0
TEXT
  8
0
 62
     7
 10
114.349998
 20
42.287594
 40
1.250000
 41
1.000000
  1
+
  7
KANJI
 50
90.000000
 51
0.000000
  0
TEXT
  8
0
 62
     7
 10
115.900002
 20
43.687595
 40
1.250000
 41
1.000000
  1
0
  7
KANJI
 50
90.000000
 51
0.000000
  0
TEXT
  8
0
 62
     7
 10
114.349998
 20
43.687595
 40
1.250000
 41
1.000000
  1
0.1
  7
KANJI
 50
90.000000
 51
0.000000
  0
LINE
  8
0
 62
     5
 10
73.000000
 20
47.875000
 11
73.000000
 21
30.875000
  0
POLYLINE
  8
0
 62
     5
 66
     1
 70
     2
  0
VERTEX
  8
0
 10
72.500000
 20
32.625000
  0
VERTEX
  8
0
 10
73.000000
 20
30.875000
  0
VERTEX
  8
0
 10
73.500000
 20
32.625000
  0
SEQEND
  0
LINE
  8
0
 62
     5
 10
63.000000
 20
30.875000
 11
73.750000
 21
30.875000
  0
TEXT
  8
0
 62
     7
 10
72.500000
 20
34.812500
 40
2.500000
 41
1.000000
  1
%%c17H7
  7
KANJI
 50
90.000000
 51
0.000000
  0
ENDSEC
  0
EOF
