  0
SECTION
  2
HEADER
  9
$ACADVER
  1
AC1003
  9
$INSBASE
 10
0.000000
 20
0.000000
  9
$EXTMIN
 10
0.000000
 20
0.000000
  9
$EXTMAX
 10
135.635870
 20
93.790761
  9
$LIMMIN
 10
0.000000
 20
0.000000
  9
$LIMMAX
 10
135.635870
 20
93.790761
  9
$VIEWCTR
 10
67.817935
 20
46.895380
  9
$VIEWSIZE
 40
93.790761
  0
ENDSEC
  0
SECTION
  2
TABLES
  0
TABLE
  2
LTYPE
 70
     4
  0
LTYPE
  2
CONTINUOUS
 70
    64
  3
SolidLine
 72
    65
 73
     0
 40
0.0
  0
LTYPE
  2
HIDDEN
 70
    64
  3
------------------------
 72
    65
 73
     2
 40
1.442935
 49
0.961957
 49
-0.480978
  0
LTYPE
  2
DASHDOT
 70
    64
  3
--?--?--?--?--?--?--?--
 72
    65
 73
     4
 40
5.771739
 49
4.328804
 49
-0.480978
 49
0.480978
 49
-0.480978
  0
LTYPE
  2
DIVIDE
 70
    64
  3
--??--??--??--??--??--
 72
    65
 73
     6
 40
7.214674
 49
4.809783
 49
-0.480978
 49
0.480978
 49
-0.480978
 49
0.480978
 49
-0.480978
  0
ENDTAB
  0
TABLE
  2
LAYER
 70
     5
  0
LAYER
  2
0
 70
    64
 62
     7
  6
CONTINUOUS
  0
LAYER
  2
HIDDEN
 70
    64
 62
     2
  6
HIDDEN
  0
LAYER
  2
DASHDOT
 70
    64
 62
     6
  6
DASHDOT
  0
LAYER
  2
DIVIDE
 70
    64
 62
     5
  6
DIVIDE
  0
ENDTAB
  0
TABLE
  2
STYLE
 70
     1
  0
STYLE
  2
STANDARD
 70
    64
 40
0.0
 41
1.0
 50
0.0
 71
     0
 42
0.2
  3
TXT
  4

  0
STYLE
  2
KANJI
 70
    64
 40
0.0
 41
1.0
 50
0.0
 71
     0
 42
0.2
  3
TXT
  4
BIGFONT
  0
ENDTAB
  0
TABLE
  2
VIEW
 70
     0
  0
ENDTAB
  0
ENDSEC
  0
SECTION
  2
BLOCKS
  0
ENDSEC
  0
SECTION
  2
ENTITIES
  0
TEXT
  8
0
 62
     7
 10
4.809783
 20
5.290761
 40
1.923913
 41
1.000000
  1
KHK SSA3-15J12
  7
KANJI
 50
0.000000
 51
0.000000
  0
TEXT
  8
0
 62
     7
 10
4.809783
 20
2.404891
 40
1.923913
 41
1.000000
  1
The precision grade of gears after secondary operations is equivalent but not identical to its original grade.
  7
KANJI
 50
0.000000
 51
0.000000
  0
TEXT
  8
0
 62
     7
 10
4.809783
 20
86.576088
 40
2.164402
 41
1.000000
  1
For J Series products, without black oxide repeatedly applied on secondary-operated parts.
  7
KANJI
 50
0.000000
 51
0.000000
  0
POLYLINE
  8
0
 62
     7
 66
     1
 70
     2
  0
VERTEX
  8
0
 10
115.434784
 20
86.576088
  0
VERTEX
  8
0
 10
113.558968
 20
89.827499
  0
VERTEX
  8
0
 10
121.062233
 20
89.827499
  0
VERTEX
  8
0
 10
119.186417
 20
86.576088
  0
VERTEX
  8
0
 10
117.310600
 20
89.827499
  0
VERTEX
  8
0
 10
115.434784
 20
86.576088
  0
SEQEND
  0
LINE
  8
0
 62
     5
 10
79.779892
 20
63.248642
 11
79.779892
 21
12.248642
  0
POLYLINE
  8
0
 62
     5
 66
     1
 70
     2
  0
VERTEX
  8
0
 10
80.260864
 20
61.565216
  0
VERTEX
  8
0
 10
79.779892
 20
63.248642
  0
VERTEX
  8
0
 10
79.298904
 20
61.565216
  0
SEQEND
  0
POLYLINE
  8
0
 62
     5
 66
     1
 70
     2
  0
VERTEX
  8
0
 10
79.298904
 20
13.932066
  0
VERTEX
  8
0
 10
79.779892
 20
12.248642
  0
VERTEX
  8
0
 10
80.260864
 20
13.932066
  0
SEQEND
  0
LINE
  8
0
 62
     5
 10
62.464672
 20
63.248642
 11
80.501358
 21
63.248642
  0
LINE
  8
0
 62
     5
 10
62.464672
 20
12.248642
 11
80.501358
 21
12.248642
  0
TEXT
  8
0
 62
     7
 10
79.298904
 20
34.922897
 40
2.404891
 41
1.000000
  1
%%c51
  7
KANJI
 50
90.000000
 51
0.000000
  0
LINE
  8
0
 62
     5
 10
32.464672
 20
72.868210
 11
62.464672
 21
72.868210
  0
POLYLINE
  8
0
 62
     5
 66
     1
 70
     2
  0
VERTEX
  8
0
 10
34.148094
 20
73.349182
  0
VERTEX
  8
0
 10
32.464672
 20
72.868210
  0
VERTEX
  8
0
 10
34.148094
 20
72.387222
  0
SEQEND
  0
POLYLINE
  8
0
 62
     5
 66
     1
 70
     2
  0
VERTEX
  8
0
 10
60.781250
 20
72.387222
  0
VERTEX
  8
0
 10
62.464672
 20
72.868210
  0
VERTEX
  8
0
 10
60.781250
 20
73.349182
  0
SEQEND
  0
LINE
  8
0
 62
     5
 10
32.464672
 20
63.248642
 11
32.464672
 21
73.589676
  0
LINE
  8
0
 62
     5
 10
62.464672
 20
63.248642
 11
62.464672
 21
73.589676
  0
TEXT
  8
0
 62
     7
 10
45.901493
 20
73.252991
 40
2.404891
 41
1.000000
  1
30
  7
KANJI
 50
0.000000
 51
0.000000
  0
LINE
  8
DASHDOT
 62
     7
 10
31.021738
 20
60.248642
 11
63.907608
 21
60.248642
  0
LINE
  8
DASHDOT
 62
     7
 10
31.021738
 20
15.248642
 11
63.907608
 21
15.248642
  0
LINE
  8
DASHDOT
 62
     7
 10
31.021738
 20
37.748642
 11
63.907608
 21
37.748642
  0
LINE
  8
0
 62
     5
 10
61.464672
 20
12.248642
 11
62.464672
 21
12.248642
  0
LINE
  8
0
 62
     5
 10
61.464672
 20
63.248642
 11
62.464672
 21
63.248642
  0
LINE
  8
0
 62
     5
 10
62.464672
 20
62.248642
 11
62.464672
 21
63.248642
  0
LINE
  8
0
 62
     5
 10
32.464672
 20
62.248642
 11
32.464672
 21
63.248642
  0
LINE
  8
0
 62
     4
 10
32.464672
 20
56.498642
 11
62.464672
 21
56.498642
  0
LINE
  8
0
 62
     4
 10
32.464672
 20
18.998642
 11
62.464672
 21
18.998642
  0
LINE
  8
0
 62
     4
 10
62.464672
 20
44.248642
 11
61.964672
 21
43.748642
  0
LINE
  8
0
 62
     4
 10
62.464672
 20
31.248642
 11
61.964672
 21
31.748642
  0
LINE
  8
0
 62
     4
 10
32.464672
 20
31.248642
 11
32.964672
 21
31.748642
  0
POLYLINE
  8
0
 62
     4
 66
     1
 70
     2
  0
VERTEX
  8
0
 10
32.464672
 20
31.248642
  0
VERTEX
  8
0
 10
32.464672
 20
13.248642
  0
VERTEX
  8
0
 10
33.464672
 20
12.248642
  0
VERTEX
  8
0
 10
61.464672
 20
12.248642
  0
VERTEX
  8
0
 10
62.464672
 20
13.248642
  0
VERTEX
  8
0
 10
62.464672
 20
62.248642
  0
VERTEX
  8
0
 10
61.464672
 20
63.248642
  0
VERTEX
  8
0
 10
33.464672
 20
63.248642
  0
VERTEX
  8
0
 10
32.464672
 20
62.248642
  0
VERTEX
  8
0
 10
32.464672
 20
31.248642
  0
SEQEND
  0
POLYLINE
  8
0
 62
     4
 66
     1
 70
     2
  0
VERTEX
  8
0
 10
32.464672
 20
44.248642
  0
VERTEX
  8
0
 10
32.964672
 20
43.748642
  0
VERTEX
  8
0
 10
32.964672
 20
31.748642
  0
VERTEX
  8
0
 10
61.964672
 20
31.748642
  0
VERTEX
  8
0
 10
61.964672
 20
43.748642
  0
VERTEX
  8
0
 10
32.964672
 20
43.748642
  0
SEQEND
  0
ARC
  8
0
 62
     4
 10
92.513580
 20
37.748642
 40
6.000000
 50
109.47122094265586
 51
70.52877905734415
  0
POLYLINE
  8
0
 62
     4
 66
     1
 70
     2
  0
VERTEX
  8
0
 10
94.513580
 20
43.405495
  0
VERTEX
  8
0
 10
94.513580
 20
45.548641
  0
VERTEX
  8
0
 10
90.513580
 20
45.548641
  0
VERTEX
  8
0
 10
90.513580
 20
43.405495
  0
SEQEND
  0
LINE
  8
0
 62
     4
 10
32.464672
 20
45.548641
 11
62.464672
 21
45.548641
  0
LINE
  8
DASHDOT
 62
     7
 10
92.513580
 20
46.991577
 11
92.513580
 21
30.305706
  0
LINE
  8
DASHDOT
 62
     7
 10
99.956512
 20
37.748642
 11
85.070648
 21
37.748642
  0
LINE
  8
0
 62
     5
 10
97.399460
 20
48.915489
 11
87.627716
 21
48.915489
  0
POLYLINE
  8
0
 62
     5
 66
     1
 70
     2
  0
VERTEX
  8
0
 10
88.830162
 20
48.434513
  0
VERTEX
  8
0
 10
90.513580
 20
48.915489
  0
VERTEX
  8
0
 10
88.830162
 20
49.396469
  0
SEQEND
  0
POLYLINE
  8
0
 62
     5
 66
     1
 70
     2
  0
VERTEX
  8
0
 10
96.197006
 20
49.396469
  0
VERTEX
  8
0
 10
94.513580
 20
48.915489
  0
VERTEX
  8
0
 10
96.197006
 20
48.434513
  0
SEQEND
  0
LINE
  8
0
 62
     5
 10
90.513580
 20
45.548641
 11
90.513580
 21
49.636955
  0
LINE
  8
0
 62
     5
 10
94.513580
 20
45.548641
 11
94.513580
 21
49.636955
  0
TEXT
  8
0
 62
     7
 10
87.549408
 20
49.396469
 40
2.404891
 41
1.000000
  1
4
  7
KANJI
 50
0.000000
 51
0.000000
  0
TEXT
  8
0
 62
     7
 10
89.929962
 20
49.396469
 40
1.923913
 41
1.000000
  1
%%p0.015
  7
KANJI
 50
0.000000
 51
0.000000
  0
LINE
  8
0
 62
     5
 10
111.347824
 20
45.548641
 11
111.347824
 21
31.748642
  0
POLYLINE
  8
0
 62
     5
 66
     1
 70
     2
  0
VERTEX
  8
0
 10
111.828796
 20
43.865219
  0
VERTEX
  8
0
 10
111.347824
 20
45.548641
  0
VERTEX
  8
0
 10
110.866837
 20
43.865219
  0
SEQEND
  0
POLYLINE
  8
0
 62
     5
 66
     1
 70
     2
  0
VERTEX
  8
0
 10
110.866837
 20
33.432068
  0
VERTEX
  8
0
 10
111.347824
 20
31.748642
  0
VERTEX
  8
0
 10
111.828796
 20
33.432068
  0
SEQEND
  0
LINE
  8
0
 62
     5
 10
94.513580
 20
45.548641
 11
112.069290
 21
45.548641
  0
LINE
  8
0
 62
     5
 10
92.513580
 20
31.748642
 11
112.069290
 21
31.748642
  0
TEXT
  8
0
 62
     7
 10
110.626358
 20
30.411434
 40
2.404891
 41
1.000000
  1
13.8
  7
KANJI
 50
90.000000
 51
0.000000
  0
TEXT
  8
0
 62
     7
 10
110.770645
 20
40.820755
 40
1.202446
 41
1.000000
  1
 
  7
KANJI
 50
90.000000
 51
0.000000
  0
TEXT
  8
0
 62
     7
 10
109.279617
 20
40.820755
 40
1.202446
 41
1.000000
  1
+
  7
KANJI
 50
90.000000
 51
0.000000
  0
TEXT
  8
0
 62
     7
 10
110.770645
 20
42.167496
 40
1.202446
 41
1.000000
  1
0
  7
KANJI
 50
90.000000
 51
0.000000
  0
TEXT
  8
0
 62
     7
 10
109.279617
 20
42.167496
 40
1.202446
 41
1.000000
  1
0.1
  7
KANJI
 50
90.000000
 51
0.000000
  0
LINE
  8
0
 62
     5
 10
72.084236
 20
43.748642
 11
72.084236
 21
31.748642
  0
POLYLINE
  8
0
 62
     5
 66
     1
 70
     2
  0
VERTEX
  8
0
 10
71.603256
 20
33.432068
  0
VERTEX
  8
0
 10
72.084236
 20
31.748642
  0
VERTEX
  8
0
 10
72.565216
 20
33.432068
  0
SEQEND
  0
LINE
  8
0
 62
     5
 10
62.464672
 20
31.748642
 11
72.805702
 21
31.748642
  0
TEXT
  8
0
 62
     7
 10
71.603256
 20
33.359715
 40
2.404891
 41
1.000000
  1
%%c12H7
  7
KANJI
 50
90.000000
 51
0.000000
  0
ENDSEC
  0
EOF
