  0
SECTION
  2
HEADER
  9
$ACADVER
  1
AC1003
  9
$INSBASE
 10
0.000000
 20
0.000000
  9
$EXTMIN
 10
0.000000
 20
0.000000
  9
$EXTMAX
 10
163.222826
 20
112.866848
  9
$LIMMIN
 10
0.000000
 20
0.000000
  9
$LIMMAX
 10
163.222826
 20
112.866848
  9
$VIEWCTR
 10
81.611413
 20
56.433424
  9
$VIEWSIZE
 40
112.866848
  0
ENDSEC
  0
SECTION
  2
TABLES
  0
TABLE
  2
LTYPE
 70
     4
  0
LTYPE
  2
CONTINUOUS
 70
    64
  3
SolidLine
 72
    65
 73
     0
 40
0.0
  0
LTYPE
  2
HIDDEN
 70
    64
  3
------------------------
 72
    65
 73
     2
 40
1.736413
 49
1.157609
 49
-0.578804
  0
LTYPE
  2
DASHDOT
 70
    64
  3
--?--?--?--?--?--?--?--
 72
    65
 73
     4
 40
6.945652
 49
5.209239
 49
-0.578804
 49
0.578804
 49
-0.578804
  0
LTYPE
  2
DIVIDE
 70
    64
  3
--??--??--??--??--??--
 72
    65
 73
     6
 40
8.682065
 49
5.788043
 49
-0.578804
 49
0.578804
 49
-0.578804
 49
0.578804
 49
-0.578804
  0
ENDTAB
  0
TABLE
  2
LAYER
 70
     5
  0
LAYER
  2
0
 70
    64
 62
     7
  6
CONTINUOUS
  0
LAYER
  2
HIDDEN
 70
    64
 62
     2
  6
HIDDEN
  0
LAYER
  2
DASHDOT
 70
    64
 62
     6
  6
DASHDOT
  0
LAYER
  2
DIVIDE
 70
    64
 62
     5
  6
DIVIDE
  0
ENDTAB
  0
TABLE
  2
STYLE
 70
     1
  0
STYLE
  2
STANDARD
 70
    64
 40
0.0
 41
1.0
 50
0.0
 71
     0
 42
0.2
  3
TXT
  4

  0
STYLE
  2
KANJI
 70
    64
 40
0.0
 41
1.0
 50
0.0
 71
     0
 42
0.2
  3
TXT
  4
BIGFONT
  0
ENDTAB
  0
TABLE
  2
VIEW
 70
     0
  0
ENDTAB
  0
ENDSEC
  0
SECTION
  2
BLOCKS
  0
ENDSEC
  0
SECTION
  2
ENTITIES
  0
TEXT
  8
0
 62
     7
 10
5.788043
 20
6.366848
 40
2.315217
 41
1.000000
  1
KHK SSA3-18J12
  7
KANJI
 50
0.000000
 51
0.000000
  0
TEXT
  8
0
 62
     7
 10
5.788043
 20
2.894022
 40
2.315217
 41
1.000000
  1
The precision grade of gears after secondary operations is equivalent but not identical to its original grade.
  7
KANJI
 50
0.000000
 51
0.000000
  0
TEXT
  8
0
 62
     7
 10
5.788043
 20
104.184784
 40
2.604620
 41
1.000000
  1
For J Series products, without black oxide repeatedly applied on secondary-operated parts.
  7
KANJI
 50
0.000000
 51
0.000000
  0
POLYLINE
  8
0
 62
     7
 66
     1
 70
     2
  0
VERTEX
  8
0
 10
138.913040
 20
104.184784
  0
VERTEX
  8
0
 10
136.655701
 20
108.097504
  0
VERTEX
  8
0
 10
145.685059
 20
108.097504
  0
VERTEX
  8
0
 10
143.427719
 20
104.184784
  0
VERTEX
  8
0
 10
141.170380
 20
108.097504
  0
VERTEX
  8
0
 10
138.913040
 20
104.184784
  0
SEQEND
  0
LINE
  8
0
 62
     5
 10
93.769020
 20
76.112770
 11
93.769020
 21
16.112770
  0
POLYLINE
  8
0
 62
     5
 66
     1
 70
     2
  0
VERTEX
  8
0
 10
94.347824
 20
74.086952
  0
VERTEX
  8
0
 10
93.769020
 20
76.112770
  0
VERTEX
  8
0
 10
93.190216
 20
74.086952
  0
SEQEND
  0
POLYLINE
  8
0
 62
     5
 66
     1
 70
     2
  0
VERTEX
  8
0
 10
93.190216
 20
18.138586
  0
VERTEX
  8
0
 10
93.769020
 20
16.112770
  0
VERTEX
  8
0
 10
94.347824
 20
18.138586
  0
SEQEND
  0
LINE
  8
0
 62
     5
 10
72.932068
 20
76.112770
 11
94.637222
 21
76.112770
  0
LINE
  8
0
 62
     5
 10
72.932068
 20
16.112770
 11
94.637222
 21
16.112770
  0
TEXT
  8
0
 62
     7
 10
93.190216
 20
42.712296
 40
2.894022
 41
1.000000
  1
%%c60
  7
KANJI
 50
90.000000
 51
0.000000
  0
LINE
  8
0
 62
     5
 10
42.932064
 20
87.688858
 11
72.932068
 21
87.688858
  0
POLYLINE
  8
0
 62
     5
 66
     1
 70
     2
  0
VERTEX
  8
0
 10
44.957878
 20
88.267662
  0
VERTEX
  8
0
 10
42.932064
 20
87.688858
  0
VERTEX
  8
0
 10
44.957878
 20
87.110054
  0
SEQEND
  0
POLYLINE
  8
0
 62
     5
 66
     1
 70
     2
  0
VERTEX
  8
0
 10
70.906250
 20
87.110054
  0
VERTEX
  8
0
 10
72.932068
 20
87.688858
  0
VERTEX
  8
0
 10
70.906250
 20
88.267662
  0
SEQEND
  0
LINE
  8
0
 62
     5
 10
42.932064
 20
76.112770
 11
42.932064
 21
88.557068
  0
LINE
  8
0
 62
     5
 10
72.932068
 20
76.112770
 11
72.932068
 21
88.557068
  0
TEXT
  8
0
 62
     7
 10
56.050949
 20
88.151901
 40
2.894022
 41
1.000000
  1
30
  7
KANJI
 50
0.000000
 51
0.000000
  0
LINE
  8
DASHDOT
 62
     7
 10
41.195652
 20
73.112770
 11
74.668480
 21
73.112770
  0
LINE
  8
DASHDOT
 62
     7
 10
41.195652
 20
19.112770
 11
74.668480
 21
19.112770
  0
LINE
  8
DASHDOT
 62
     7
 10
41.195652
 20
46.112770
 11
74.668480
 21
46.112770
  0
LINE
  8
0
 62
     5
 10
71.932068
 20
16.112770
 11
72.932068
 21
16.112770
  0
LINE
  8
0
 62
     5
 10
71.932068
 20
76.112770
 11
72.932068
 21
76.112770
  0
LINE
  8
0
 62
     5
 10
72.932068
 20
75.112770
 11
72.932068
 21
76.112770
  0
LINE
  8
0
 62
     5
 10
42.932064
 20
75.112770
 11
42.932064
 21
76.112770
  0
LINE
  8
0
 62
     4
 10
42.932064
 20
69.362770
 11
72.932068
 21
69.362770
  0
LINE
  8
0
 62
     4
 10
42.932064
 20
22.862770
 11
72.932068
 21
22.862770
  0
LINE
  8
0
 62
     4
 10
72.932068
 20
52.612770
 11
72.432068
 21
52.112770
  0
LINE
  8
0
 62
     4
 10
72.932068
 20
39.612770
 11
72.432068
 21
40.112770
  0
LINE
  8
0
 62
     4
 10
42.932064
 20
39.612770
 11
43.432064
 21
40.112770
  0
POLYLINE
  8
0
 62
     4
 66
     1
 70
     2
  0
VERTEX
  8
0
 10
42.932064
 20
39.612770
  0
VERTEX
  8
0
 10
42.932064
 20
17.112770
  0
VERTEX
  8
0
 10
43.932064
 20
16.112770
  0
VERTEX
  8
0
 10
71.932068
 20
16.112770
  0
VERTEX
  8
0
 10
72.932068
 20
17.112770
  0
VERTEX
  8
0
 10
72.932068
 20
75.112770
  0
VERTEX
  8
0
 10
71.932068
 20
76.112770
  0
VERTEX
  8
0
 10
43.932064
 20
76.112770
  0
VERTEX
  8
0
 10
42.932064
 20
75.112770
  0
VERTEX
  8
0
 10
42.932064
 20
39.612770
  0
SEQEND
  0
POLYLINE
  8
0
 62
     4
 66
     1
 70
     2
  0
VERTEX
  8
0
 10
42.932064
 20
52.612770
  0
VERTEX
  8
0
 10
43.432064
 20
52.112770
  0
VERTEX
  8
0
 10
43.432064
 20
40.112770
  0
VERTEX
  8
0
 10
72.432068
 20
40.112770
  0
VERTEX
  8
0
 10
72.432068
 20
52.112770
  0
VERTEX
  8
0
 10
43.432064
 20
52.112770
  0
SEQEND
  0
ARC
  8
0
 62
     4
 10
107.872284
 20
46.112770
 40
6.000000
 50
109.47122094265586
 51
70.52877905734415
  0
POLYLINE
  8
0
 62
     4
 66
     1
 70
     2
  0
VERTEX
  8
0
 10
109.872284
 20
51.769623
  0
VERTEX
  8
0
 10
109.872284
 20
53.912769
  0
VERTEX
  8
0
 10
105.872284
 20
53.912769
  0
VERTEX
  8
0
 10
105.872284
 20
51.769623
  0
SEQEND
  0
LINE
  8
0
 62
     4
 10
42.932064
 20
53.912769
 11
72.932068
 21
53.912769
  0
LINE
  8
DASHDOT
 62
     7
 10
107.872284
 20
55.649185
 11
107.872284
 21
38.376358
  0
LINE
  8
DASHDOT
 62
     7
 10
115.608688
 20
46.112770
 11
100.135864
 21
46.112770
  0
LINE
  8
0
 62
     5
 10
113.345108
 20
57.964401
 11
102.399452
 21
57.964401
  0
POLYLINE
  8
0
 62
     5
 66
     1
 70
     2
  0
VERTEX
  8
0
 10
103.846466
 20
57.385597
  0
VERTEX
  8
0
 10
105.872284
 20
57.964401
  0
VERTEX
  8
0
 10
103.846466
 20
58.543205
  0
SEQEND
  0
POLYLINE
  8
0
 62
     5
 66
     1
 70
     2
  0
VERTEX
  8
0
 10
111.898102
 20
58.543205
  0
VERTEX
  8
0
 10
109.872284
 20
57.964401
  0
VERTEX
  8
0
 10
111.898102
 20
57.385597
  0
SEQEND
  0
LINE
  8
0
 62
     5
 10
105.872284
 20
53.912769
 11
105.872284
 21
58.832607
  0
LINE
  8
0
 62
     5
 10
109.872284
 20
53.912769
 11
109.872284
 21
58.832607
  0
TEXT
  8
0
 62
     7
 10
101.898445
 20
58.543205
 40
2.894022
 41
1.000000
  1
4
  7
KANJI
 50
0.000000
 51
0.000000
  0
TEXT
  8
0
 62
     7
 10
104.763168
 20
58.543205
 40
2.315217
 41
1.000000
  1
%%p0.015
  7
KANJI
 50
0.000000
 51
0.000000
  0
LINE
  8
0
 62
     5
 10
130.130432
 20
53.912769
 11
130.130432
 21
40.112770
  0
POLYLINE
  8
0
 62
     5
 66
     1
 70
     2
  0
VERTEX
  8
0
 10
130.709229
 20
51.886955
  0
VERTEX
  8
0
 10
130.130432
 20
53.912769
  0
VERTEX
  8
0
 10
129.551620
 20
51.886955
  0
SEQEND
  0
POLYLINE
  8
0
 62
     5
 66
     1
 70
     2
  0
VERTEX
  8
0
 10
129.551620
 20
42.138584
  0
VERTEX
  8
0
 10
130.130432
 20
40.112770
  0
VERTEX
  8
0
 10
130.709229
 20
42.138584
  0
SEQEND
  0
LINE
  8
0
 62
     5
 10
109.872284
 20
53.912769
 11
130.998642
 21
53.912769
  0
LINE
  8
0
 62
     5
 10
107.872284
 20
40.112770
 11
130.998642
 21
40.112770
  0
TEXT
  8
0
 62
     7
 10
129.262222
 20
37.380878
 40
2.894022
 41
1.000000
  1
13.8
  7
KANJI
 50
90.000000
 51
0.000000
  0
TEXT
  8
0
 62
     7
 10
129.435867
 20
49.907349
 40
1.447011
 41
1.000000
  1
 
  7
KANJI
 50
90.000000
 51
0.000000
  0
TEXT
  8
0
 62
     7
 10
127.641571
 20
49.907349
 40
1.447011
 41
1.000000
  1
+
  7
KANJI
 50
90.000000
 51
0.000000
  0
TEXT
  8
0
 62
     7
 10
129.435867
 20
51.528000
 40
1.447011
 41
1.000000
  1
0
  7
KANJI
 50
90.000000
 51
0.000000
  0
TEXT
  8
0
 62
     7
 10
127.641571
 20
51.528000
 40
1.447011
 41
1.000000
  1
0.1
  7
KANJI
 50
90.000000
 51
0.000000
  0
LINE
  8
0
 62
     5
 10
84.508148
 20
52.112770
 11
84.508148
 21
40.112770
  0
POLYLINE
  8
0
 62
     5
 66
     1
 70
     2
  0
VERTEX
  8
0
 10
83.929352
 20
42.138584
  0
VERTEX
  8
0
 10
84.508148
 20
40.112770
  0
VERTEX
  8
0
 10
85.086960
 20
42.138584
  0
SEQEND
  0
LINE
  8
0
 62
     5
 10
72.932068
 20
40.112770
 11
85.376358
 21
40.112770
  0
TEXT
  8
0
 62
     7
 10
83.929352
 20
40.831181
 40
2.894022
 41
1.000000
  1
%%c12H7
  7
KANJI
 50
90.000000
 51
0.000000
  0
ENDSEC
  0
EOF
