  0
SECTION
  2
HEADER
  9
$ACADVER
  1
AC1003
  9
$INSBASE
 10
0.000000
 20
0.000000
  9
$EXTMIN
 10
0.000000
 20
0.000000
  9
$EXTMAX
 10
503.461957
 20
348.138587
  9
$LIMMIN
 10
0.000000
 20
0.000000
  9
$LIMMAX
 10
503.461957
 20
348.138587
  9
$VIEWCTR
 10
251.730978
 20
174.069293
  9
$VIEWSIZE
 40
348.138587
  0
ENDSEC
  0
SECTION
  2
TABLES
  0
TABLE
  2
LTYPE
 70
     4
  0
LTYPE
  2
CONTINUOUS
 70
    64
  3
SolidLine
 72
    65
 73
     0
 40
0.0
  0
LTYPE
  2
HIDDEN
 70
    64
  3
------------------------
 72
    65
 73
     2
 40
5.355978
 49
3.570652
 49
-1.785326
  0
LTYPE
  2
DASHDOT
 70
    64
  3
--?--?--?--?--?--?--?--
 72
    65
 73
     4
 40
21.423913
 49
16.067935
 49
-1.785326
 49
1.785326
 49
-1.785326
  0
LTYPE
  2
DIVIDE
 70
    64
  3
--??--??--??--??--??--
 72
    65
 73
     6
 40
26.779891
 49
17.853261
 49
-1.785326
 49
1.785326
 49
-1.785326
 49
1.785326
 49
-1.785326
  0
ENDTAB
  0
TABLE
  2
LAYER
 70
     5
  0
LAYER
  2
0
 70
    64
 62
     7
  6
CONTINUOUS
  0
LAYER
  2
HIDDEN
 70
    64
 62
     2
  6
HIDDEN
  0
LAYER
  2
DASHDOT
 70
    64
 62
     6
  6
DASHDOT
  0
LAYER
  2
DIVIDE
 70
    64
 62
     5
  6
DIVIDE
  0
ENDTAB
  0
TABLE
  2
STYLE
 70
     1
  0
STYLE
  2
STANDARD
 70
    64
 40
0.0
 41
1.0
 50
0.0
 71
     0
 42
0.2
  3
TXT
  4

  0
STYLE
  2
KANJI
 70
    64
 40
0.0
 41
1.0
 50
0.0
 71
     0
 42
0.2
  3
TXT
  4
BIGFONT
  0
ENDTAB
  0
TABLE
  2
VIEW
 70
     0
  0
ENDTAB
  0
ENDSEC
  0
SECTION
  2
BLOCKS
  0
ENDSEC
  0
SECTION
  2
ENTITIES
  0
TEXT
  8
0
 62
     7
 10
17.853260
 20
19.638586
 40
7.141304
 41
1.000000
  1
KHK SSA3-55J32
  7
KANJI
 50
0.000000
 51
0.000000
  0
TEXT
  8
0
 62
     7
 10
17.853260
 20
8.926630
 40
7.141304
 41
1.000000
  1
The precision grade of gears after secondary operations is equivalent but not identical to its original grade.
  7
KANJI
 50
0.000000
 51
0.000000
  0
TEXT
  8
0
 62
     7
 10
17.853260
 20
321.358704
 40
8.033967
 41
1.000000
  1
For J Series products, without black oxide repeatedly applied on secondary-operated parts.
  7
KANJI
 50
0.000000
 51
0.000000
  0
POLYLINE
  8
0
 62
     7
 66
     1
 70
     2
  0
VERTEX
  8
0
 10
428.478271
 20
321.358704
  0
VERTEX
  8
0
 10
421.515503
 20
333.427521
  0
VERTEX
  8
0
 10
449.366577
 20
333.427521
  0
VERTEX
  8
0
 10
442.403809
 20
321.358704
  0
VERTEX
  8
0
 10
435.441040
 20
333.427521
  0
VERTEX
  8
0
 10
428.478271
 20
321.358704
  0
SEQEND
  0
LINE
  8
0
 62
     5
 10
259.801636
 20
234.770386
 11
259.801636
 21
63.770386
  0
POLYLINE
  8
0
 62
     5
 66
     1
 70
     2
  0
VERTEX
  8
0
 10
261.586945
 20
228.521744
  0
VERTEX
  8
0
 10
259.801636
 20
234.770386
  0
VERTEX
  8
0
 10
258.016296
 20
228.521744
  0
SEQEND
  0
POLYLINE
  8
0
 62
     5
 66
     1
 70
     2
  0
VERTEX
  8
0
 10
258.016296
 20
70.019028
  0
VERTEX
  8
0
 10
259.801636
 20
63.770386
  0
VERTEX
  8
0
 10
261.586945
 20
70.019028
  0
SEQEND
  0
LINE
  8
0
 62
     5
 10
195.529892
 20
234.770386
 11
262.479614
 21
234.770386
  0
LINE
  8
0
 62
     5
 10
195.529892
 20
63.770386
 11
262.479614
 21
63.770386
  0
TEXT
  8
0
 62
     7
 10
258.016296
 20
135.880432
 40
8.926630
 41
1.000000
  1
%%c171
  7
KANJI
 50
90.000000
 51
0.000000
  0
LINE
  8
0
 62
     5
 10
165.529892
 20
270.476898
 11
195.529892
 21
270.476898
  0
POLYLINE
  8
0
 62
     5
 66
     1
 70
     2
  0
VERTEX
  8
0
 10
171.778534
 20
272.262238
  0
VERTEX
  8
0
 10
165.529892
 20
270.476898
  0
VERTEX
  8
0
 10
171.778534
 20
268.691589
  0
SEQEND
  0
POLYLINE
  8
0
 62
     5
 66
     1
 70
     2
  0
VERTEX
  8
0
 10
189.281250
 20
268.691589
  0
VERTEX
  8
0
 10
195.529892
 20
270.476898
  0
VERTEX
  8
0
 10
189.281250
 20
272.262238
  0
SEQEND
  0
LINE
  8
0
 62
     5
 10
165.529892
 20
234.770386
 11
165.529892
 21
273.154907
  0
LINE
  8
0
 62
     5
 10
195.529892
 20
234.770386
 11
195.529892
 21
273.154907
  0
TEXT
  8
0
 62
     7
 10
174.727585
 20
271.905151
 40
8.926630
 41
1.000000
  1
30
  7
KANJI
 50
0.000000
 51
0.000000
  0
LINE
  8
DASHDOT
 62
     7
 10
160.173920
 20
231.770386
 11
200.885864
 21
231.770386
  0
LINE
  8
DASHDOT
 62
     7
 10
160.173920
 20
66.770386
 11
200.885864
 21
66.770386
  0
LINE
  8
DASHDOT
 62
     7
 10
160.173920
 20
149.270386
 11
200.885864
 21
149.270386
  0
LINE
  8
0
 62
     5
 10
194.529892
 20
63.770386
 11
195.529892
 21
63.770386
  0
LINE
  8
0
 62
     5
 10
194.529892
 20
234.770386
 11
195.529892
 21
234.770386
  0
LINE
  8
0
 62
     5
 10
195.529892
 20
233.770386
 11
195.529892
 21
234.770386
  0
LINE
  8
0
 62
     5
 10
165.529892
 20
233.770386
 11
165.529892
 21
234.770386
  0
LINE
  8
0
 62
     4
 10
165.529892
 20
228.020386
 11
195.529892
 21
228.020386
  0
LINE
  8
0
 62
     4
 10
165.529892
 20
70.520386
 11
195.529892
 21
70.520386
  0
LINE
  8
0
 62
     4
 10
195.529892
 20
166.270386
 11
194.529892
 21
165.270386
  0
LINE
  8
0
 62
     4
 10
195.529892
 20
132.270386
 11
194.529892
 21
133.270386
  0
LINE
  8
0
 62
     4
 10
165.529892
 20
132.270386
 11
166.529892
 21
133.270386
  0
POLYLINE
  8
0
 62
     4
 66
     1
 70
     2
  0
VERTEX
  8
0
 10
165.529892
 20
132.270386
  0
VERTEX
  8
0
 10
165.529892
 20
64.770386
  0
VERTEX
  8
0
 10
166.529892
 20
63.770386
  0
VERTEX
  8
0
 10
194.529892
 20
63.770386
  0
VERTEX
  8
0
 10
195.529892
 20
64.770386
  0
VERTEX
  8
0
 10
195.529892
 20
233.770386
  0
VERTEX
  8
0
 10
194.529892
 20
234.770386
  0
VERTEX
  8
0
 10
166.529892
 20
234.770386
  0
VERTEX
  8
0
 10
165.529892
 20
233.770386
  0
VERTEX
  8
0
 10
165.529892
 20
132.270386
  0
SEQEND
  0
POLYLINE
  8
0
 62
     4
 66
     1
 70
     2
  0
VERTEX
  8
0
 10
165.529892
 20
166.270386
  0
VERTEX
  8
0
 10
166.529892
 20
165.270386
  0
VERTEX
  8
0
 10
166.529892
 20
133.270386
  0
VERTEX
  8
0
 10
194.529892
 20
133.270386
  0
VERTEX
  8
0
 10
194.529892
 20
165.270386
  0
VERTEX
  8
0
 10
166.529892
 20
165.270386
  0
SEQEND
  0
ARC
  8
0
 62
     4
 10
300.796204
 20
149.270386
 40
16.000000
 50
108.20995732853793
 51
71.79004267146207
  0
POLYLINE
  8
0
 62
     4
 66
     1
 70
     2
  0
VERTEX
  8
0
 10
305.796204
 20
164.469070
  0
VERTEX
  8
0
 10
305.796204
 20
168.570389
  0
VERTEX
  8
0
 10
295.796204
 20
168.570389
  0
VERTEX
  8
0
 10
295.796204
 20
164.469070
  0
SEQEND
  0
LINE
  8
0
 62
     4
 10
165.529892
 20
168.570389
 11
195.529892
 21
168.570389
  0
LINE
  8
DASHDOT
 62
     7
 10
300.796204
 20
173.926361
 11
300.796204
 21
127.914406
  0
LINE
  8
DASHDOT
 62
     7
 10
322.152161
 20
149.270386
 11
279.440216
 21
149.270386
  0
LINE
  8
0
 62
     5
 10
316.508179
 20
181.067673
 11
285.084229
 21
181.067673
  0
POLYLINE
  8
0
 62
     5
 66
     1
 70
     2
  0
VERTEX
  8
0
 10
289.547546
 20
179.282349
  0
VERTEX
  8
0
 10
295.796204
 20
181.067673
  0
VERTEX
  8
0
 10
289.547546
 20
182.852997
  0
SEQEND
  0
POLYLINE
  8
0
 62
     5
 66
     1
 70
     2
  0
VERTEX
  8
0
 10
312.044861
 20
182.852997
  0
VERTEX
  8
0
 10
305.796204
 20
181.067673
  0
VERTEX
  8
0
 10
312.044861
 20
179.282349
  0
SEQEND
  0
LINE
  8
0
 62
     5
 10
295.796204
 20
168.570389
 11
295.796204
 21
183.745667
  0
LINE
  8
0
 62
     5
 10
305.796204
 20
168.570389
 11
305.796204
 21
183.745667
  0
TEXT
  8
0
 62
     7
 10
277.906555
 20
182.852997
 40
8.926630
 41
1.000000
  1
10
  7
KANJI
 50
0.000000
 51
0.000000
  0
TEXT
  8
0
 62
     7
 10
292.991455
 20
182.852997
 40
7.141304
 41
1.000000
  1
%%p0.018
  7
KANJI
 50
0.000000
 51
0.000000
  0
LINE
  8
0
 62
     5
 10
368.282593
 20
122.558426
 11
368.282593
 21
179.282349
  0
POLYLINE
  8
0
 62
     5
 66
     1
 70
     2
  0
VERTEX
  8
0
 10
366.497284
 20
174.819031
  0
VERTEX
  8
0
 10
368.282593
 20
168.570389
  0
VERTEX
  8
0
 10
370.067932
 20
174.819031
  0
SEQEND
  0
POLYLINE
  8
0
 62
     5
 66
     1
 70
     2
  0
VERTEX
  8
0
 10
370.067932
 20
127.021744
  0
VERTEX
  8
0
 10
368.282593
 20
133.270386
  0
VERTEX
  8
0
 10
366.497284
 20
127.021744
  0
SEQEND
  0
LINE
  8
0
 62
     5
 10
305.796204
 20
168.570389
 11
370.960602
 21
168.570389
  0
LINE
  8
0
 62
     5
 10
300.796204
 20
133.270386
 11
370.960602
 21
133.270386
  0
TEXT
  8
0
 62
     7
 10
365.604614
 20
121.937363
 40
8.926630
 41
1.000000
  1
35.3
  7
KANJI
 50
90.000000
 51
0.000000
  0
TEXT
  8
0
 62
     7
 10
366.140198
 20
160.575348
 40
4.463315
 41
1.000000
  1
 
  7
KANJI
 50
90.000000
 51
0.000000
  0
TEXT
  8
0
 62
     7
 10
360.605713
 20
160.575348
 40
4.463315
 41
1.000000
  1
+
  7
KANJI
 50
90.000000
 51
0.000000
  0
TEXT
  8
0
 62
     7
 10
366.140198
 20
165.574265
 40
4.463315
 41
1.000000
  1
0
  7
KANJI
 50
90.000000
 51
0.000000
  0
TEXT
  8
0
 62
     7
 10
360.605713
 20
165.574265
 40
4.463315
 41
1.000000
  1
0.2
  7
KANJI
 50
90.000000
 51
0.000000
  0
LINE
  8
0
 62
     5
 10
231.236420
 20
165.270386
 11
231.236420
 21
133.270386
  0
POLYLINE
  8
0
 62
     5
 66
     1
 70
     2
  0
VERTEX
  8
0
 10
229.451080
 20
139.519028
  0
VERTEX
  8
0
 10
231.236420
 20
133.270386
  0
VERTEX
  8
0
 10
233.021729
 20
139.519028
  0
SEQEND
  0
LINE
  8
0
 62
     5
 10
195.529892
 20
133.270386
 11
233.914398
 21
133.270386
  0
TEXT
  8
0
 62
     7
 10
229.451080
 20
132.979279
 40
8.926630
 41
1.000000
  1
%%c32H7
  7
KANJI
 50
90.000000
 51
0.000000
  0
ENDSEC
  0
EOF
