  0
SECTION
  2
HEADER
  9
$ACADVER
  1
AC1003
  9
$INSBASE
 10
0.000000
 20
0.000000
  9
$EXTMIN
 10
0.000000
 20
0.000000
  9
$EXTMAX
 10
255.179348
 20
176.453804
  9
$LIMMIN
 10
0.000000
 20
0.000000
  9
$LIMMAX
 10
255.179348
 20
176.453804
  9
$VIEWCTR
 10
127.589674
 20
88.226902
  9
$VIEWSIZE
 40
176.453804
  0
ENDSEC
  0
SECTION
  2
TABLES
  0
TABLE
  2
LTYPE
 70
     4
  0
LTYPE
  2
CONTINUOUS
 70
    64
  3
SolidLine
 72
    65
 73
     0
 40
0.0
  0
LTYPE
  2
HIDDEN
 70
    64
  3
------------------------
 72
    65
 73
     2
 40
2.714674
 49
1.809783
 49
-0.904891
  0
LTYPE
  2
DASHDOT
 70
    64
  3
--?--?--?--?--?--?--?--
 72
    65
 73
     4
 40
10.858696
 49
8.144022
 49
-0.904891
 49
0.904891
 49
-0.904891
  0
LTYPE
  2
DIVIDE
 70
    64
  3
--??--??--??--??--??--
 72
    65
 73
     6
 40
13.573370
 49
9.048913
 49
-0.904891
 49
0.904891
 49
-0.904891
 49
0.904891
 49
-0.904891
  0
ENDTAB
  0
TABLE
  2
LAYER
 70
     5
  0
LAYER
  2
0
 70
    64
 62
     7
  6
CONTINUOUS
  0
LAYER
  2
HIDDEN
 70
    64
 62
     2
  6
HIDDEN
  0
LAYER
  2
DASHDOT
 70
    64
 62
     6
  6
DASHDOT
  0
LAYER
  2
DIVIDE
 70
    64
 62
     5
  6
DIVIDE
  0
ENDTAB
  0
TABLE
  2
STYLE
 70
     1
  0
STYLE
  2
STANDARD
 70
    64
 40
0.0
 41
1.0
 50
0.0
 71
     0
 42
0.2
  3
TXT
  4

  0
STYLE
  2
KANJI
 70
    64
 40
0.0
 41
1.0
 50
0.0
 71
     0
 42
0.2
  3
TXT
  4
BIGFONT
  0
ENDTAB
  0
TABLE
  2
VIEW
 70
     0
  0
ENDTAB
  0
ENDSEC
  0
SECTION
  2
BLOCKS
  0
ENDSEC
  0
SECTION
  2
ENTITIES
  0
TEXT
  8
0
 62
     7
 10
9.048913
 20
9.953804
 40
3.619565
 41
1.000000
  1
KHK SSA3-28J22
  7
KANJI
 50
0.000000
 51
0.000000
  0
TEXT
  8
0
 62
     7
 10
9.048913
 20
4.524457
 40
3.619565
 41
1.000000
  1
The precision grade of gears after secondary operations is equivalent but not identical to its original grade.
  7
KANJI
 50
0.000000
 51
0.000000
  0
TEXT
  8
0
 62
     7
 10
9.048913
 20
162.880432
 40
4.072011
 41
1.000000
  1
For J Series products, without black oxide repeatedly applied on secondary-operated parts.
  7
KANJI
 50
0.000000
 51
0.000000
  0
POLYLINE
  8
0
 62
     7
 66
     1
 70
     2
  0
VERTEX
  8
0
 10
217.173920
 20
162.880432
  0
VERTEX
  8
0
 10
213.644836
 20
168.997498
  0
VERTEX
  8
0
 10
227.761154
 20
168.997498
  0
VERTEX
  8
0
 10
224.232071
 20
162.880432
  0
VERTEX
  8
0
 10
220.703003
 20
168.997498
  0
VERTEX
  8
0
 10
217.173920
 20
162.880432
  0
SEQEND
  0
LINE
  8
0
 62
     5
 10
137.399460
 20
118.993210
 11
137.399460
 21
28.993210
  0
POLYLINE
  8
0
 62
     5
 66
     1
 70
     2
  0
VERTEX
  8
0
 10
138.304352
 20
115.826096
  0
VERTEX
  8
0
 10
137.399460
 20
118.993210
  0
VERTEX
  8
0
 10
136.494568
 20
115.826096
  0
SEQEND
  0
POLYLINE
  8
0
 62
     5
 66
     1
 70
     2
  0
VERTEX
  8
0
 10
136.494568
 20
32.160328
  0
VERTEX
  8
0
 10
137.399460
 20
28.993210
  0
VERTEX
  8
0
 10
138.304352
 20
32.160328
  0
SEQEND
  0
LINE
  8
0
 62
     5
 10
104.823372
 20
118.993210
 11
138.756805
 21
118.993210
  0
LINE
  8
0
 62
     5
 10
104.823372
 20
28.993210
 11
138.756805
 21
28.993210
  0
TEXT
  8
0
 62
     7
 10
136.494568
 20
68.676971
 40
4.524457
 41
1.000000
  1
%%c90
  7
KANJI
 50
90.000000
 51
0.000000
  0
LINE
  8
0
 62
     5
 10
74.823372
 20
137.091034
 11
104.823372
 21
137.091034
  0
POLYLINE
  8
0
 62
     5
 66
     1
 70
     2
  0
VERTEX
  8
0
 10
77.990494
 20
137.995926
  0
VERTEX
  8
0
 10
74.823372
 20
137.091034
  0
VERTEX
  8
0
 10
77.990494
 20
136.186142
  0
SEQEND
  0
POLYLINE
  8
0
 62
     5
 66
     1
 70
     2
  0
VERTEX
  8
0
 10
101.656250
 20
136.186142
  0
VERTEX
  8
0
 10
104.823372
 20
137.091034
  0
VERTEX
  8
0
 10
101.656250
 20
137.995926
  0
SEQEND
  0
LINE
  8
0
 62
     5
 10
74.823372
 20
118.993210
 11
74.823372
 21
138.448364
  0
LINE
  8
0
 62
     5
 10
104.823372
 20
118.993210
 11
104.823372
 21
138.448364
  0
TEXT
  8
0
 62
     7
 10
86.882477
 20
137.814941
 40
4.524457
 41
1.000000
  1
30
  7
KANJI
 50
0.000000
 51
0.000000
  0
LINE
  8
DASHDOT
 62
     7
 10
72.108696
 20
115.993210
 11
107.538040
 21
115.993210
  0
LINE
  8
DASHDOT
 62
     7
 10
72.108696
 20
31.993210
 11
107.538040
 21
31.993210
  0
LINE
  8
DASHDOT
 62
     7
 10
72.108696
 20
73.993210
 11
107.538040
 21
73.993210
  0
LINE
  8
0
 62
     5
 10
103.823372
 20
28.993210
 11
104.823372
 21
28.993210
  0
LINE
  8
0
 62
     5
 10
103.823372
 20
118.993210
 11
104.823372
 21
118.993210
  0
LINE
  8
0
 62
     5
 10
104.823372
 20
117.993210
 11
104.823372
 21
118.993210
  0
LINE
  8
0
 62
     5
 10
74.823372
 20
117.993210
 11
74.823372
 21
118.993210
  0
LINE
  8
0
 62
     4
 10
74.823372
 20
112.243210
 11
104.823372
 21
112.243210
  0
LINE
  8
0
 62
     4
 10
74.823372
 20
35.743210
 11
104.823372
 21
35.743210
  0
LINE
  8
0
 62
     4
 10
104.823372
 20
85.993210
 11
103.823372
 21
84.993210
  0
LINE
  8
0
 62
     4
 10
104.823372
 20
61.993210
 11
103.823372
 21
62.993210
  0
LINE
  8
0
 62
     4
 10
74.823372
 20
61.993210
 11
75.823372
 21
62.993210
  0
POLYLINE
  8
0
 62
     4
 66
     1
 70
     2
  0
VERTEX
  8
0
 10
74.823372
 20
61.993210
  0
VERTEX
  8
0
 10
74.823372
 20
29.993210
  0
VERTEX
  8
0
 10
75.823372
 20
28.993210
  0
VERTEX
  8
0
 10
103.823372
 20
28.993210
  0
VERTEX
  8
0
 10
104.823372
 20
29.993210
  0
VERTEX
  8
0
 10
104.823372
 20
117.993210
  0
VERTEX
  8
0
 10
103.823372
 20
118.993210
  0
VERTEX
  8
0
 10
75.823372
 20
118.993210
  0
VERTEX
  8
0
 10
74.823372
 20
117.993210
  0
VERTEX
  8
0
 10
74.823372
 20
61.993210
  0
SEQEND
  0
POLYLINE
  8
0
 62
     4
 66
     1
 70
     2
  0
VERTEX
  8
0
 10
74.823372
 20
85.993210
  0
VERTEX
  8
0
 10
75.823372
 20
84.993210
  0
VERTEX
  8
0
 10
75.823372
 20
62.993210
  0
VERTEX
  8
0
 10
103.823372
 20
62.993210
  0
VERTEX
  8
0
 10
103.823372
 20
84.993210
  0
VERTEX
  8
0
 10
75.823372
 20
84.993210
  0
SEQEND
  0
ARC
  8
0
 62
     4
 10
161.067932
 20
73.993210
 40
11.000000
 50
105.82662088647183
 51
74.17337911352817
  0
POLYLINE
  8
0
 62
     4
 66
     1
 70
     2
  0
VERTEX
  8
0
 10
164.067932
 20
84.576218
  0
VERTEX
  8
0
 10
164.067932
 20
87.793213
  0
VERTEX
  8
0
 10
158.067932
 20
87.793213
  0
VERTEX
  8
0
 10
158.067932
 20
84.576218
  0
SEQEND
  0
LINE
  8
0
 62
     4
 10
74.823372
 20
87.793213
 11
104.823372
 21
87.793213
  0
LINE
  8
DASHDOT
 62
     7
 10
161.067932
 20
90.507881
 11
161.067932
 21
60.278534
  0
LINE
  8
DASHDOT
 62
     7
 10
174.782608
 20
73.993210
 11
147.353271
 21
73.993210
  0
LINE
  8
0
 62
     5
 10
169.497284
 20
94.127449
 11
152.638596
 21
94.127449
  0
POLYLINE
  8
0
 62
     5
 66
     1
 70
     2
  0
VERTEX
  8
0
 10
154.900818
 20
93.222557
  0
VERTEX
  8
0
 10
158.067932
 20
94.127449
  0
VERTEX
  8
0
 10
154.900818
 20
95.032341
  0
SEQEND
  0
POLYLINE
  8
0
 62
     5
 66
     1
 70
     2
  0
VERTEX
  8
0
 10
167.235062
 20
95.032341
  0
VERTEX
  8
0
 10
164.067932
 20
94.127449
  0
VERTEX
  8
0
 10
167.235062
 20
93.222557
  0
SEQEND
  0
LINE
  8
0
 62
     5
 10
158.067932
 20
87.793213
 11
158.067932
 21
95.484787
  0
LINE
  8
0
 62
     5
 10
164.067932
 20
87.793213
 11
164.067932
 21
95.484787
  0
TEXT
  8
0
 62
     7
 10
151.728577
 20
95.032341
 40
4.524457
 41
1.000000
  1
6
  7
KANJI
 50
0.000000
 51
0.000000
  0
TEXT
  8
0
 62
     7
 10
156.207214
 20
95.032341
 40
3.619565
 41
1.000000
  1
%%p0.015
  7
KANJI
 50
0.000000
 51
0.000000
  0
LINE
  8
0
 62
     5
 10
195.739136
 20
87.793213
 11
195.739136
 21
62.993210
  0
POLYLINE
  8
0
 62
     5
 66
     1
 70
     2
  0
VERTEX
  8
0
 10
196.644028
 20
84.626091
  0
VERTEX
  8
0
 10
195.739136
 20
87.793213
  0
VERTEX
  8
0
 10
194.834244
 20
84.626091
  0
SEQEND
  0
POLYLINE
  8
0
 62
     5
 66
     1
 70
     2
  0
VERTEX
  8
0
 10
194.834244
 20
66.160332
  0
VERTEX
  8
0
 10
195.739136
 20
62.993210
  0
VERTEX
  8
0
 10
196.644028
 20
66.160332
  0
SEQEND
  0
LINE
  8
0
 62
     5
 10
164.067932
 20
87.793213
 11
197.096466
 21
87.793213
  0
LINE
  8
0
 62
     5
 10
161.067932
 20
62.993210
 11
197.096466
 21
62.993210
  0
TEXT
  8
0
 62
     7
 10
194.381805
 20
60.012363
 40
4.524457
 41
1.000000
  1
24.8
  7
KANJI
 50
90.000000
 51
0.000000
  0
TEXT
  8
0
 62
     7
 10
194.653259
 20
79.596001
 40
2.262228
 41
1.000000
  1
 
  7
KANJI
 50
90.000000
 51
0.000000
  0
TEXT
  8
0
 62
     7
 10
191.848114
 20
79.596001
 40
2.262228
 41
1.000000
  1
+
  7
KANJI
 50
90.000000
 51
0.000000
  0
TEXT
  8
0
 62
     7
 10
194.653259
 20
82.129700
 40
2.262228
 41
1.000000
  1
0
  7
KANJI
 50
90.000000
 51
0.000000
  0
TEXT
  8
0
 62
     7
 10
191.848114
 20
82.129700
 40
2.262228
 41
1.000000
  1
0.1
  7
KANJI
 50
90.000000
 51
0.000000
  0
LINE
  8
0
 62
     5
 10
122.921196
 20
84.993210
 11
122.921196
 21
62.993210
  0
POLYLINE
  8
0
 62
     5
 66
     1
 70
     2
  0
VERTEX
  8
0
 10
122.016304
 20
66.160332
  0
VERTEX
  8
0
 10
122.921196
 20
62.993210
  0
VERTEX
  8
0
 10
123.826088
 20
66.160332
  0
SEQEND
  0
LINE
  8
0
 62
     5
 10
104.823372
 20
62.993210
 11
124.278534
 21
62.993210
  0
TEXT
  8
0
 62
     7
 10
122.016304
 20
65.736076
 40
4.524457
 41
1.000000
  1
%%c22H7
  7
KANJI
 50
90.000000
 51
0.000000
  0
ENDSEC
  0
EOF
