  0
SECTION
  2
HEADER
  9
$ACADVER
  1
AC1003
  9
$INSBASE
 10
0.000000
 20
0.000000
  9
$EXTMIN
 10
0.000000
 20
0.000000
  9
$EXTMAX
 10
641.396739
 20
443.519022
  9
$LIMMIN
 10
0.000000
 20
0.000000
  9
$LIMMAX
 10
641.396739
 20
443.519022
  9
$VIEWCTR
 10
320.698370
 20
221.759511
  9
$VIEWSIZE
 40
443.519022
  0
ENDSEC
  0
SECTION
  2
TABLES
  0
TABLE
  2
LTYPE
 70
     4
  0
LTYPE
  2
CONTINUOUS
 70
    64
  3
SolidLine
 72
    65
 73
     0
 40
0.0
  0
LTYPE
  2
HIDDEN
 70
    64
  3
------------------------
 72
    65
 73
     2
 40
6.823370
 49
4.548913
 49
-2.274457
  0
LTYPE
  2
DASHDOT
 70
    64
  3
--?--?--?--?--?--?--?--
 72
    65
 73
     4
 40
27.293478
 49
20.470109
 49
-2.274457
 49
2.274457
 49
-2.274457
  0
LTYPE
  2
DIVIDE
 70
    64
  3
--??--??--??--??--??--
 72
    65
 73
     6
 40
34.116848
 49
22.744565
 49
-2.274457
 49
2.274457
 49
-2.274457
 49
2.274457
 49
-2.274457
  0
ENDTAB
  0
TABLE
  2
LAYER
 70
     5
  0
LAYER
  2
0
 70
    64
 62
     7
  6
CONTINUOUS
  0
LAYER
  2
HIDDEN
 70
    64
 62
     2
  6
HIDDEN
  0
LAYER
  2
DASHDOT
 70
    64
 62
     6
  6
DASHDOT
  0
LAYER
  2
DIVIDE
 70
    64
 62
     5
  6
DIVIDE
  0
ENDTAB
  0
TABLE
  2
STYLE
 70
     1
  0
STYLE
  2
STANDARD
 70
    64
 40
0.0
 41
1.0
 50
0.0
 71
     0
 42
0.2
  3
TXT
  4

  0
STYLE
  2
KANJI
 70
    64
 40
0.0
 41
1.0
 50
0.0
 71
     0
 42
0.2
  3
TXT
  4
BIGFONT
  0
ENDTAB
  0
TABLE
  2
VIEW
 70
     0
  0
ENDTAB
  0
ENDSEC
  0
SECTION
  2
BLOCKS
  0
ENDSEC
  0
SECTION
  2
ENTITIES
  0
TEXT
  8
0
 62
     7
 10
22.744566
 20
25.019022
 40
9.097826
 41
1.000000
  1
KHK SSA3-70J28
  7
KANJI
 50
0.000000
 51
0.000000
  0
TEXT
  8
0
 62
     7
 10
22.744566
 20
11.372283
 40
9.097826
 41
1.000000
  1
The precision grade of gears after secondary operations is equivalent but not identical to its original grade.
  7
KANJI
 50
0.000000
 51
0.000000
  0
TEXT
  8
0
 62
     7
 10
22.744566
 20
409.402161
 40
10.235054
 41
1.000000
  1
For J Series products, without black oxide repeatedly applied on secondary-operated parts.
  7
KANJI
 50
0.000000
 51
0.000000
  0
POLYLINE
  8
0
 62
     7
 66
     1
 70
     2
  0
VERTEX
  8
0
 10
545.869568
 20
409.402161
  0
VERTEX
  8
0
 10
536.999207
 20
424.777496
  0
VERTEX
  8
0
 10
572.480713
 20
424.777496
  0
VERTEX
  8
0
 10
563.610352
 20
409.402161
  0
VERTEX
  8
0
 10
554.739929
 20
424.777496
  0
VERTEX
  8
0
 10
545.869568
 20
409.402161
  0
SEQEND
  0
LINE
  8
0
 62
     5
 10
331.247284
 20
299.091034
 11
331.247284
 21
83.091034
  0
POLYLINE
  8
0
 62
     5
 66
     1
 70
     2
  0
VERTEX
  8
0
 10
333.521729
 20
291.130432
  0
VERTEX
  8
0
 10
331.247284
 20
299.091034
  0
VERTEX
  8
0
 10
328.972839
 20
291.130432
  0
SEQEND
  0
POLYLINE
  8
0
 62
     5
 66
     1
 70
     2
  0
VERTEX
  8
0
 10
328.972839
 20
91.051636
  0
VERTEX
  8
0
 10
331.247284
 20
83.091034
  0
VERTEX
  8
0
 10
333.521729
 20
91.051636
  0
SEQEND
  0
LINE
  8
0
 62
     5
 10
249.366852
 20
299.091034
 11
334.658966
 21
299.091034
  0
LINE
  8
0
 62
     5
 10
249.366852
 20
83.091034
 11
334.658966
 21
83.091034
  0
TEXT
  8
0
 62
     7
 10
328.972839
 20
174.032608
 40
11.372283
 41
1.000000
  1
%%c216
  7
KANJI
 50
90.000000
 51
0.000000
  0
LINE
  8
0
 62
     5
 10
219.366852
 20
344.580170
 11
249.366852
 21
344.580170
  0
POLYLINE
  8
0
 62
     5
 66
     1
 70
     2
  0
VERTEX
  8
0
 10
227.327454
 20
346.854614
  0
VERTEX
  8
0
 10
219.366852
 20
344.580170
  0
VERTEX
  8
0
 10
227.327454
 20
342.305725
  0
SEQEND
  0
POLYLINE
  8
0
 62
     5
 66
     1
 70
     2
  0
VERTEX
  8
0
 10
241.406250
 20
342.305725
  0
VERTEX
  8
0
 10
249.366852
 20
344.580170
  0
VERTEX
  8
0
 10
241.406250
 20
346.854614
  0
SEQEND
  0
LINE
  8
0
 62
     5
 10
219.366852
 20
299.091034
 11
219.366852
 21
347.991852
  0
LINE
  8
0
 62
     5
 10
249.366852
 20
299.091034
 11
249.366852
 21
347.991852
  0
TEXT
  8
0
 62
     7
 10
226.974869
 20
346.399719
 40
11.372283
 41
1.000000
  1
30
  7
KANJI
 50
0.000000
 51
0.000000
  0
LINE
  8
DASHDOT
 62
     7
 10
212.543488
 20
296.091034
 11
256.190216
 21
296.091034
  0
LINE
  8
DASHDOT
 62
     7
 10
212.543488
 20
86.091034
 11
256.190216
 21
86.091034
  0
LINE
  8
DASHDOT
 62
     7
 10
212.543488
 20
191.091034
 11
256.190216
 21
191.091034
  0
LINE
  8
0
 62
     5
 10
248.366852
 20
83.091034
 11
249.366852
 21
83.091034
  0
LINE
  8
0
 62
     5
 10
248.366852
 20
299.091034
 11
249.366852
 21
299.091034
  0
LINE
  8
0
 62
     5
 10
249.366852
 20
298.091034
 11
249.366852
 21
299.091034
  0
LINE
  8
0
 62
     5
 10
219.366852
 20
298.091034
 11
219.366852
 21
299.091034
  0
LINE
  8
0
 62
     4
 10
219.366852
 20
292.341034
 11
249.366852
 21
292.341034
  0
LINE
  8
0
 62
     4
 10
219.366852
 20
89.841034
 11
249.366852
 21
89.841034
  0
LINE
  8
0
 62
     4
 10
249.366852
 20
206.091034
 11
248.366852
 21
205.091034
  0
LINE
  8
0
 62
     4
 10
249.366852
 20
176.091034
 11
248.366852
 21
177.091034
  0
LINE
  8
0
 62
     4
 10
219.366852
 20
176.091034
 11
220.366852
 21
177.091034
  0
POLYLINE
  8
0
 62
     4
 66
     1
 70
     2
  0
VERTEX
  8
0
 10
219.366852
 20
176.091034
  0
VERTEX
  8
0
 10
219.366852
 20
84.091034
  0
VERTEX
  8
0
 10
220.366852
 20
83.091034
  0
VERTEX
  8
0
 10
248.366852
 20
83.091034
  0
VERTEX
  8
0
 10
249.366852
 20
84.091034
  0
VERTEX
  8
0
 10
249.366852
 20
298.091034
  0
VERTEX
  8
0
 10
248.366852
 20
299.091034
  0
VERTEX
  8
0
 10
220.366852
 20
299.091034
  0
VERTEX
  8
0
 10
219.366852
 20
298.091034
  0
VERTEX
  8
0
 10
219.366852
 20
176.091034
  0
SEQEND
  0
POLYLINE
  8
0
 62
     4
 66
     1
 70
     2
  0
VERTEX
  8
0
 10
219.366852
 20
206.091034
  0
VERTEX
  8
0
 10
220.366852
 20
205.091034
  0
VERTEX
  8
0
 10
220.366852
 20
177.091034
  0
VERTEX
  8
0
 10
248.366852
 20
177.091034
  0
VERTEX
  8
0
 10
248.366852
 20
205.091034
  0
VERTEX
  8
0
 10
220.366852
 20
205.091034
  0
SEQEND
  0
ARC
  8
0
 62
     4
 10
377.089661
 20
191.091034
 40
14.000000
 50
106.60154992625478
 51
73.39845007374521
  0
POLYLINE
  8
0
 62
     4
 66
     1
 70
     2
  0
VERTEX
  8
0
 10
381.089661
 20
204.507446
  0
VERTEX
  8
0
 10
381.089661
 20
208.391037
  0
VERTEX
  8
0
 10
373.089661
 20
208.391037
  0
VERTEX
  8
0
 10
373.089661
 20
204.507446
  0
SEQEND
  0
LINE
  8
0
 62
     4
 10
219.366852
 20
208.391037
 11
249.366852
 21
208.391037
  0
LINE
  8
DASHDOT
 62
     7
 10
377.089661
 20
215.214401
 11
377.089661
 21
170.267670
  0
LINE
  8
DASHDOT
 62
     7
 10
397.913025
 20
191.091034
 11
356.266296
 21
191.091034
  0
LINE
  8
0
 62
     5
 10
394.736420
 20
224.312225
 11
359.442932
 21
224.312225
  0
POLYLINE
  8
0
 62
     5
 66
     1
 70
     2
  0
VERTEX
  8
0
 10
365.129089
 20
222.037781
  0
VERTEX
  8
0
 10
373.089661
 20
224.312225
  0
VERTEX
  8
0
 10
365.129089
 20
226.586685
  0
SEQEND
  0
POLYLINE
  8
0
 62
     5
 66
     1
 70
     2
  0
VERTEX
  8
0
 10
389.050293
 20
226.586685
  0
VERTEX
  8
0
 10
381.089661
 20
224.312225
  0
VERTEX
  8
0
 10
389.050293
 20
222.037781
  0
SEQEND
  0
LINE
  8
0
 62
     5
 10
373.089661
 20
208.391037
 11
373.089661
 21
227.723907
  0
LINE
  8
0
 62
     5
 10
381.089661
 20
208.391037
 11
381.089661
 21
227.723907
  0
TEXT
  8
0
 62
     7
 10
353.615051
 20
226.586685
 40
11.372283
 41
1.000000
  1
8
  7
KANJI
 50
0.000000
 51
0.000000
  0
TEXT
  8
0
 62
     7
 10
364.872192
 20
226.586685
 40
9.097826
 41
1.000000
  1
%%p0.018
  7
KANJI
 50
0.000000
 51
0.000000
  0
LINE
  8
0
 62
     5
 10
460.695648
 20
163.444290
 11
460.695648
 21
222.037781
  0
POLYLINE
  8
0
 62
     5
 66
     1
 70
     2
  0
VERTEX
  8
0
 10
458.421204
 20
216.351624
  0
VERTEX
  8
0
 10
460.695648
 20
208.391037
  0
VERTEX
  8
0
 10
462.970093
 20
216.351624
  0
SEQEND
  0
POLYLINE
  8
0
 62
     5
 66
     1
 70
     2
  0
VERTEX
  8
0
 10
462.970093
 20
169.130432
  0
VERTEX
  8
0
 10
460.695648
 20
177.091034
  0
VERTEX
  8
0
 10
458.421204
 20
169.130432
  0
SEQEND
  0
LINE
  8
0
 62
     5
 10
381.089661
 20
208.391037
 11
464.107330
 21
208.391037
  0
LINE
  8
0
 62
     5
 10
377.089661
 20
177.091034
 11
464.107330
 21
177.091034
  0
TEXT
  8
0
 62
     7
 10
457.283966
 20
157.184586
 40
11.372283
 41
1.000000
  1
31.3
  7
KANJI
 50
90.000000
 51
0.000000
  0
TEXT
  8
0
 62
     7
 10
457.966309
 20
206.408325
 40
5.686141
 41
1.000000
  1
 
  7
KANJI
 50
90.000000
 51
0.000000
  0
TEXT
  8
0
 62
     7
 10
450.915466
 20
206.408325
 40
5.686141
 41
1.000000
  1
+
  7
KANJI
 50
90.000000
 51
0.000000
  0
TEXT
  8
0
 62
     7
 10
457.966309
 20
212.776794
 40
5.686141
 41
1.000000
  1
0
  7
KANJI
 50
90.000000
 51
0.000000
  0
TEXT
  8
0
 62
     7
 10
450.915466
 20
212.776794
 40
5.686141
 41
1.000000
  1
0.2
  7
KANJI
 50
90.000000
 51
0.000000
  0
LINE
  8
0
 62
     5
 10
294.855988
 20
205.091034
 11
294.855988
 21
177.091034
  0
POLYLINE
  8
0
 62
     5
 66
     1
 70
     2
  0
VERTEX
  8
0
 10
292.581543
 20
185.051636
  0
VERTEX
  8
0
 10
294.855988
 20
177.091034
  0
VERTEX
  8
0
 10
297.130432
 20
185.051636
  0
SEQEND
  0
LINE
  8
0
 62
     5
 10
249.366852
 20
177.091034
 11
298.267670
 21
177.091034
  0
TEXT
  8
0
 62
     7
 10
292.581543
 20
170.336609
 40
11.372283
 41
1.000000
  1
%%c28H7
  7
KANJI
 50
90.000000
 51
0.000000
  0
ENDSEC
  0
EOF
