  0
SECTION
  2
HEADER
  9
$ACADVER
  1
AC1003
  9
$INSBASE
 10
0.000000
 20
0.000000
  9
$EXTMIN
 10
0.000000
 20
0.000000
  9
$EXTMAX
 10
273.570652
 20
189.171196
  9
$LIMMIN
 10
0.000000
 20
0.000000
  9
$LIMMAX
 10
273.570652
 20
189.171196
  9
$VIEWCTR
 10
136.785326
 20
94.585598
  9
$VIEWSIZE
 40
189.171196
  0
ENDSEC
  0
SECTION
  2
TABLES
  0
TABLE
  2
LTYPE
 70
     4
  0
LTYPE
  2
CONTINUOUS
 70
    64
  3
SolidLine
 72
    65
 73
     0
 40
0.0
  0
LTYPE
  2
HIDDEN
 70
    64
  3
------------------------
 72
    65
 73
     2
 40
2.910326
 49
1.940217
 49
-0.970109
  0
LTYPE
  2
DASHDOT
 70
    64
  3
--?--?--?--?--?--?--?--
 72
    65
 73
     4
 40
11.641304
 49
8.730978
 49
-0.970109
 49
0.970109
 49
-0.970109
  0
LTYPE
  2
DIVIDE
 70
    64
  3
--??--??--??--??--??--
 72
    65
 73
     6
 40
14.551630
 49
9.701087
 49
-0.970109
 49
0.970109
 49
-0.970109
 49
0.970109
 49
-0.970109
  0
ENDTAB
  0
TABLE
  2
LAYER
 70
     5
  0
LAYER
  2
0
 70
    64
 62
     7
  6
CONTINUOUS
  0
LAYER
  2
HIDDEN
 70
    64
 62
     2
  6
HIDDEN
  0
LAYER
  2
DASHDOT
 70
    64
 62
     6
  6
DASHDOT
  0
LAYER
  2
DIVIDE
 70
    64
 62
     5
  6
DIVIDE
  0
ENDTAB
  0
TABLE
  2
STYLE
 70
     1
  0
STYLE
  2
STANDARD
 70
    64
 40
0.0
 41
1.0
 50
0.0
 71
     0
 42
0.2
  3
TXT
  4

  0
STYLE
  2
KANJI
 70
    64
 40
0.0
 41
1.0
 50
0.0
 71
     0
 42
0.2
  3
TXT
  4
BIGFONT
  0
ENDTAB
  0
TABLE
  2
VIEW
 70
     0
  0
ENDTAB
  0
ENDSEC
  0
SECTION
  2
BLOCKS
  0
ENDSEC
  0
SECTION
  2
ENTITIES
  0
TEXT
  8
0
 62
     7
 10
9.701087
 20
10.671196
 40
3.880435
 41
1.000000
  1
KHK SSA3-30J30
  7
KANJI
 50
0.000000
 51
0.000000
  0
TEXT
  8
0
 62
     7
 10
9.701087
 20
4.850543
 40
3.880435
 41
1.000000
  1
The precision grade of gears after secondary operations is equivalent but not identical to its original grade.
  7
KANJI
 50
0.000000
 51
0.000000
  0
TEXT
  8
0
 62
     7
 10
9.701087
 20
174.619568
 40
4.365489
 41
1.000000
  1
For J Series products, without black oxide repeatedly applied on secondary-operated parts.
  7
KANJI
 50
0.000000
 51
0.000000
  0
POLYLINE
  8
0
 62
     7
 66
     1
 70
     2
  0
VERTEX
  8
0
 10
232.826080
 20
174.619568
  0
VERTEX
  8
0
 10
229.042664
 20
181.177505
  0
VERTEX
  8
0
 10
244.176346
 20
181.177505
  0
VERTEX
  8
0
 10
240.392929
 20
174.619568
  0
VERTEX
  8
0
 10
236.609497
 20
181.177505
  0
VERTEX
  8
0
 10
232.826080
 20
174.619568
  0
SEQEND
  0
LINE
  8
0
 62
     5
 10
144.225540
 20
127.569290
 11
144.225540
 21
31.569290
  0
POLYLINE
  8
0
 62
     5
 66
     1
 70
     2
  0
VERTEX
  8
0
 10
145.195648
 20
124.173904
  0
VERTEX
  8
0
 10
144.225540
 20
127.569290
  0
VERTEX
  8
0
 10
143.255432
 20
124.173904
  0
SEQEND
  0
POLYLINE
  8
0
 62
     5
 66
     1
 70
     2
  0
VERTEX
  8
0
 10
143.255432
 20
34.964672
  0
VERTEX
  8
0
 10
144.225540
 20
31.569290
  0
VERTEX
  8
0
 10
145.195648
 20
34.964672
  0
SEQEND
  0
LINE
  8
0
 62
     5
 10
109.301628
 20
127.569290
 11
145.680695
 21
127.569290
  0
LINE
  8
0
 62
     5
 10
109.301628
 20
31.569290
 11
145.680695
 21
31.569290
  0
TEXT
  8
0
 62
     7
 10
143.255432
 20
73.869904
 40
4.850543
 41
1.000000
  1
%%c96
  7
KANJI
 50
90.000000
 51
0.000000
  0
LINE
  8
0
 62
     5
 10
79.301628
 20
146.971466
 11
109.301628
 21
146.971466
  0
POLYLINE
  8
0
 62
     5
 66
     1
 70
     2
  0
VERTEX
  8
0
 10
82.697006
 20
147.941574
  0
VERTEX
  8
0
 10
79.301628
 20
146.971466
  0
VERTEX
  8
0
 10
82.697006
 20
146.001358
  0
SEQEND
  0
POLYLINE
  8
0
 62
     5
 66
     1
 70
     2
  0
VERTEX
  8
0
 10
105.906250
 20
146.001358
  0
VERTEX
  8
0
 10
109.301628
 20
146.971466
  0
VERTEX
  8
0
 10
105.906250
 20
147.941574
  0
SEQEND
  0
LINE
  8
0
 62
     5
 10
79.301628
 20
127.569290
 11
79.301628
 21
148.426636
  0
LINE
  8
0
 62
     5
 10
109.301628
 20
127.569290
 11
109.301628
 21
148.426636
  0
TEXT
  8
0
 62
     7
 10
91.148773
 20
147.747559
 40
4.850543
 41
1.000000
  1
30
  7
KANJI
 50
0.000000
 51
0.000000
  0
LINE
  8
DASHDOT
 62
     7
 10
76.391304
 20
124.569290
 11
112.211960
 21
124.569290
  0
LINE
  8
DASHDOT
 62
     7
 10
76.391304
 20
34.569290
 11
112.211960
 21
34.569290
  0
LINE
  8
DASHDOT
 62
     7
 10
76.391304
 20
79.569290
 11
112.211960
 21
79.569290
  0
LINE
  8
0
 62
     5
 10
108.301628
 20
31.569290
 11
109.301628
 21
31.569290
  0
LINE
  8
0
 62
     5
 10
108.301628
 20
127.569290
 11
109.301628
 21
127.569290
  0
LINE
  8
0
 62
     5
 10
109.301628
 20
126.569290
 11
109.301628
 21
127.569290
  0
LINE
  8
0
 62
     5
 10
79.301628
 20
126.569290
 11
79.301628
 21
127.569290
  0
LINE
  8
0
 62
     4
 10
79.301628
 20
120.819290
 11
109.301628
 21
120.819290
  0
LINE
  8
0
 62
     4
 10
79.301628
 20
38.319290
 11
109.301628
 21
38.319290
  0
LINE
  8
0
 62
     4
 10
109.301628
 20
95.569290
 11
108.301628
 21
94.569290
  0
LINE
  8
0
 62
     4
 10
109.301628
 20
63.569290
 11
108.301628
 21
64.569290
  0
LINE
  8
0
 62
     4
 10
79.301628
 20
63.569290
 11
80.301628
 21
64.569290
  0
POLYLINE
  8
0
 62
     4
 66
     1
 70
     2
  0
VERTEX
  8
0
 10
79.301628
 20
63.569290
  0
VERTEX
  8
0
 10
79.301628
 20
32.569290
  0
VERTEX
  8
0
 10
80.301628
 20
31.569290
  0
VERTEX
  8
0
 10
108.301628
 20
31.569290
  0
VERTEX
  8
0
 10
109.301628
 20
32.569290
  0
VERTEX
  8
0
 10
109.301628
 20
126.569290
  0
VERTEX
  8
0
 10
108.301628
 20
127.569290
  0
VERTEX
  8
0
 10
80.301628
 20
127.569290
  0
VERTEX
  8
0
 10
79.301628
 20
126.569290
  0
VERTEX
  8
0
 10
79.301628
 20
63.569290
  0
SEQEND
  0
POLYLINE
  8
0
 62
     4
 66
     1
 70
     2
  0
VERTEX
  8
0
 10
79.301628
 20
95.569290
  0
VERTEX
  8
0
 10
80.301628
 20
94.569290
  0
VERTEX
  8
0
 10
80.301628
 20
64.569290
  0
VERTEX
  8
0
 10
108.301628
 20
64.569290
  0
VERTEX
  8
0
 10
108.301628
 20
94.569290
  0
VERTEX
  8
0
 10
80.301628
 20
94.569290
  0
SEQEND
  0
ARC
  8
0
 62
     4
 10
172.807068
 20
79.569290
 40
15.000000
 50
105.46601032289746
 51
74.53398967710255
  0
POLYLINE
  8
0
 62
     4
 66
     1
 70
     2
  0
VERTEX
  8
0
 10
176.807068
 20
94.026123
  0
VERTEX
  8
0
 10
176.807068
 20
97.869293
  0
VERTEX
  8
0
 10
168.807068
 20
97.869293
  0
VERTEX
  8
0
 10
168.807068
 20
94.026123
  0
SEQEND
  0
LINE
  8
0
 62
     4
 10
79.301628
 20
97.869293
 11
109.301628
 21
97.869293
  0
LINE
  8
DASHDOT
 62
     7
 10
172.807068
 20
100.779617
 11
172.807068
 21
61.658966
  0
LINE
  8
DASHDOT
 62
     7
 10
190.717392
 20
79.569290
 11
154.896729
 21
79.569290
  0
LINE
  8
0
 62
     5
 10
182.627716
 20
104.660049
 11
162.986404
 21
104.660049
  0
POLYLINE
  8
0
 62
     5
 66
     1
 70
     2
  0
VERTEX
  8
0
 10
165.411682
 20
103.689941
  0
VERTEX
  8
0
 10
168.807068
 20
104.660049
  0
VERTEX
  8
0
 10
165.411682
 20
105.630157
  0
SEQEND
  0
POLYLINE
  8
0
 62
     5
 66
     1
 70
     2
  0
VERTEX
  8
0
 10
180.202438
 20
105.630157
  0
VERTEX
  8
0
 10
176.807068
 20
104.660049
  0
VERTEX
  8
0
 10
180.202438
 20
103.689941
  0
SEQEND
  0
LINE
  8
0
 62
     5
 10
168.807068
 20
97.869293
 11
168.807068
 21
106.115211
  0
LINE
  8
0
 62
     5
 10
176.807068
 20
97.869293
 11
176.807068
 21
106.115211
  0
TEXT
  8
0
 62
     7
 10
162.794586
 20
105.630157
 40
4.850543
 41
1.000000
  1
8
  7
KANJI
 50
0.000000
 51
0.000000
  0
TEXT
  8
0
 62
     7
 10
167.596024
 20
105.630157
 40
3.880435
 41
1.000000
  1
%%p0.018
  7
KANJI
 50
0.000000
 51
0.000000
  0
LINE
  8
0
 62
     5
 10
210.760864
 20
97.869293
 11
210.760864
 21
64.569290
  0
POLYLINE
  8
0
 62
     5
 66
     1
 70
     2
  0
VERTEX
  8
0
 10
211.730957
 20
94.473907
  0
VERTEX
  8
0
 10
210.760864
 20
97.869293
  0
VERTEX
  8
0
 10
209.790741
 20
94.473907
  0
SEQEND
  0
POLYLINE
  8
0
 62
     5
 66
     1
 70
     2
  0
VERTEX
  8
0
 10
209.790741
 20
67.964668
  0
VERTEX
  8
0
 10
210.760864
 20
64.569290
  0
VERTEX
  8
0
 10
211.730957
 20
67.964668
  0
SEQEND
  0
LINE
  8
0
 62
     5
 10
176.807068
 20
97.869293
 11
212.216034
 21
97.869293
  0
LINE
  8
0
 62
     5
 10
172.807068
 20
64.569290
 11
212.216034
 21
64.569290
  0
TEXT
  8
0
 62
     7
 10
209.305695
 20
64.058655
 40
4.850543
 41
1.000000
  1
33.3
  7
KANJI
 50
90.000000
 51
0.000000
  0
TEXT
  8
0
 62
     7
 10
209.596741
 20
85.053726
 40
2.425272
 41
1.000000
  1
 
  7
KANJI
 50
90.000000
 51
0.000000
  0
TEXT
  8
0
 62
     7
 10
206.589386
 20
85.053726
 40
2.425272
 41
1.000000
  1
+
  7
KANJI
 50
90.000000
 51
0.000000
  0
TEXT
  8
0
 62
     7
 10
209.596741
 20
87.770027
 40
2.425272
 41
1.000000
  1
0
  7
KANJI
 50
90.000000
 51
0.000000
  0
TEXT
  8
0
 62
     7
 10
206.589386
 20
87.770027
 40
2.425272
 41
1.000000
  1
0.2
  7
KANJI
 50
90.000000
 51
0.000000
  0
LINE
  8
0
 62
     5
 10
128.703796
 20
94.569290
 11
128.703796
 21
64.569290
  0
POLYLINE
  8
0
 62
     5
 66
     1
 70
     2
  0
VERTEX
  8
0
 10
127.733696
 20
67.964668
  0
VERTEX
  8
0
 10
128.703796
 20
64.569290
  0
VERTEX
  8
0
 10
129.673920
 20
67.964668
  0
SEQEND
  0
LINE
  8
0
 62
     5
 10
109.301628
 20
64.569290
 11
130.158966
 21
64.569290
  0
TEXT
  8
0
 62
     7
 10
127.733696
 20
70.717049
 40
4.850543
 41
1.000000
  1
%%c30H7
  7
KANJI
 50
90.000000
 51
0.000000
  0
ENDSEC
  0
EOF
