  0
SECTION
  2
HEADER
  9
$ACADVER
  1
AC1003
  9
$INSBASE
 10
0.000000
 20
0.000000
  9
$EXTMIN
 10
0.000000
 20
0.000000
  9
$EXTMAX
 10
255.179348
 20
176.453804
  9
$LIMMIN
 10
0.000000
 20
0.000000
  9
$LIMMAX
 10
255.179348
 20
176.453804
  9
$VIEWCTR
 10
127.589674
 20
88.226902
  9
$VIEWSIZE
 40
176.453804
  0
ENDSEC
  0
SECTION
  2
TABLES
  0
TABLE
  2
LTYPE
 70
     4
  0
LTYPE
  2
CONTINUOUS
 70
    64
  3
SolidLine
 72
    65
 73
     0
 40
0.0
  0
LTYPE
  2
HIDDEN
 70
    64
  3
------------------------
 72
    65
 73
     2
 40
2.714674
 49
1.809783
 49
-0.904891
  0
LTYPE
  2
DASHDOT
 70
    64
  3
--?--?--?--?--?--?--?--
 72
    65
 73
     4
 40
10.858696
 49
8.144022
 49
-0.904891
 49
0.904891
 49
-0.904891
  0
LTYPE
  2
DIVIDE
 70
    64
  3
--??--??--??--??--??--
 72
    65
 73
     6
 40
13.573370
 49
9.048913
 49
-0.904891
 49
0.904891
 49
-0.904891
 49
0.904891
 49
-0.904891
  0
ENDTAB
  0
TABLE
  2
LAYER
 70
     5
  0
LAYER
  2
0
 70
    64
 62
     7
  6
CONTINUOUS
  0
LAYER
  2
HIDDEN
 70
    64
 62
     2
  6
HIDDEN
  0
LAYER
  2
DASHDOT
 70
    64
 62
     6
  6
DASHDOT
  0
LAYER
  2
DIVIDE
 70
    64
 62
     5
  6
DIVIDE
  0
ENDTAB
  0
TABLE
  2
STYLE
 70
     1
  0
STYLE
  2
STANDARD
 70
    64
 40
0.0
 41
1.0
 50
0.0
 71
     0
 42
0.2
  3
TXT
  4

  0
STYLE
  2
KANJI
 70
    64
 40
0.0
 41
1.0
 50
0.0
 71
     0
 42
0.2
  3
TXT
  4
BIGFONT
  0
ENDTAB
  0
TABLE
  2
VIEW
 70
     0
  0
ENDTAB
  0
ENDSEC
  0
SECTION
  2
BLOCKS
  0
ENDSEC
  0
SECTION
  2
ENTITIES
  0
TEXT
  8
0
 62
     7
 10
9.048913
 20
9.953804
 40
3.619565
 41
1.000000
  1
KHK SSA3-28J20
  7
KANJI
 50
0.000000
 51
0.000000
  0
TEXT
  8
0
 62
     7
 10
9.048913
 20
4.524457
 40
3.619565
 41
1.000000
  1
The precision grade of gears after secondary operations is equivalent but not identical to its original grade.
  7
KANJI
 50
0.000000
 51
0.000000
  0
TEXT
  8
0
 62
     7
 10
9.048913
 20
162.880432
 40
4.072011
 41
1.000000
  1
For J Series products, without black oxide repeatedly applied on secondary-operated parts.
  7
KANJI
 50
0.000000
 51
0.000000
  0
POLYLINE
  8
0
 62
     7
 66
     1
 70
     2
  0
VERTEX
  8
0
 10
217.173920
 20
162.880432
  0
VERTEX
  8
0
 10
213.644836
 20
168.997498
  0
VERTEX
  8
0
 10
227.761154
 20
168.997498
  0
VERTEX
  8
0
 10
224.232071
 20
162.880432
  0
VERTEX
  8
0
 10
220.703003
 20
168.997498
  0
VERTEX
  8
0
 10
217.173920
 20
162.880432
  0
SEQEND
  0
LINE
  8
0
 62
     5
 10
137.899460
 20
118.993210
 11
137.899460
 21
28.993210
  0
POLYLINE
  8
0
 62
     5
 66
     1
 70
     2
  0
VERTEX
  8
0
 10
138.804352
 20
115.826096
  0
VERTEX
  8
0
 10
137.899460
 20
118.993210
  0
VERTEX
  8
0
 10
136.994568
 20
115.826096
  0
SEQEND
  0
POLYLINE
  8
0
 62
     5
 66
     1
 70
     2
  0
VERTEX
  8
0
 10
136.994568
 20
32.160328
  0
VERTEX
  8
0
 10
137.899460
 20
28.993210
  0
VERTEX
  8
0
 10
138.804352
 20
32.160328
  0
SEQEND
  0
LINE
  8
0
 62
     5
 10
105.323372
 20
118.993210
 11
139.256805
 21
118.993210
  0
LINE
  8
0
 62
     5
 10
105.323372
 20
28.993210
 11
139.256805
 21
28.993210
  0
TEXT
  8
0
 62
     7
 10
136.994568
 20
68.676971
 40
4.524457
 41
1.000000
  1
%%c90
  7
KANJI
 50
90.000000
 51
0.000000
  0
LINE
  8
0
 62
     5
 10
75.323372
 20
137.091034
 11
105.323372
 21
137.091034
  0
POLYLINE
  8
0
 62
     5
 66
     1
 70
     2
  0
VERTEX
  8
0
 10
78.490494
 20
137.995926
  0
VERTEX
  8
0
 10
75.323372
 20
137.091034
  0
VERTEX
  8
0
 10
78.490494
 20
136.186142
  0
SEQEND
  0
POLYLINE
  8
0
 62
     5
 66
     1
 70
     2
  0
VERTEX
  8
0
 10
102.156250
 20
136.186142
  0
VERTEX
  8
0
 10
105.323372
 20
137.091034
  0
VERTEX
  8
0
 10
102.156250
 20
137.995926
  0
SEQEND
  0
LINE
  8
0
 62
     5
 10
75.323372
 20
118.993210
 11
75.323372
 21
138.448364
  0
LINE
  8
0
 62
     5
 10
105.323372
 20
118.993210
 11
105.323372
 21
138.448364
  0
TEXT
  8
0
 62
     7
 10
87.382477
 20
137.814941
 40
4.524457
 41
1.000000
  1
30
  7
KANJI
 50
0.000000
 51
0.000000
  0
LINE
  8
DASHDOT
 62
     7
 10
72.608696
 20
115.993210
 11
108.038040
 21
115.993210
  0
LINE
  8
DASHDOT
 62
     7
 10
72.608696
 20
31.993210
 11
108.038040
 21
31.993210
  0
LINE
  8
DASHDOT
 62
     7
 10
72.608696
 20
73.993210
 11
108.038040
 21
73.993210
  0
LINE
  8
0
 62
     5
 10
104.323372
 20
28.993210
 11
105.323372
 21
28.993210
  0
LINE
  8
0
 62
     5
 10
104.323372
 20
118.993210
 11
105.323372
 21
118.993210
  0
LINE
  8
0
 62
     5
 10
105.323372
 20
117.993210
 11
105.323372
 21
118.993210
  0
LINE
  8
0
 62
     5
 10
75.323372
 20
117.993210
 11
75.323372
 21
118.993210
  0
LINE
  8
0
 62
     4
 10
75.323372
 20
112.243210
 11
105.323372
 21
112.243210
  0
LINE
  8
0
 62
     4
 10
75.323372
 20
35.743210
 11
105.323372
 21
35.743210
  0
LINE
  8
0
 62
     4
 10
105.323372
 20
84.993210
 11
104.323372
 21
83.993210
  0
LINE
  8
0
 62
     4
 10
105.323372
 20
62.993210
 11
104.323372
 21
63.993210
  0
LINE
  8
0
 62
     4
 10
75.323372
 20
62.993210
 11
76.323372
 21
63.993210
  0
POLYLINE
  8
0
 62
     4
 66
     1
 70
     2
  0
VERTEX
  8
0
 10
75.323372
 20
62.993210
  0
VERTEX
  8
0
 10
75.323372
 20
29.993210
  0
VERTEX
  8
0
 10
76.323372
 20
28.993210
  0
VERTEX
  8
0
 10
104.323372
 20
28.993210
  0
VERTEX
  8
0
 10
105.323372
 20
29.993210
  0
VERTEX
  8
0
 10
105.323372
 20
117.993210
  0
VERTEX
  8
0
 10
104.323372
 20
118.993210
  0
VERTEX
  8
0
 10
76.323372
 20
118.993210
  0
VERTEX
  8
0
 10
75.323372
 20
117.993210
  0
VERTEX
  8
0
 10
75.323372
 20
62.993210
  0
SEQEND
  0
POLYLINE
  8
0
 62
     4
 66
     1
 70
     2
  0
VERTEX
  8
0
 10
75.323372
 20
84.993210
  0
VERTEX
  8
0
 10
76.323372
 20
83.993210
  0
VERTEX
  8
0
 10
76.323372
 20
63.993210
  0
VERTEX
  8
0
 10
104.323372
 20
63.993210
  0
VERTEX
  8
0
 10
104.323372
 20
83.993210
  0
VERTEX
  8
0
 10
76.323372
 20
83.993210
  0
SEQEND
  0
ARC
  8
0
 62
     4
 10
160.567932
 20
73.993210
 40
10.000000
 50
107.45760274776076
 51
72.54239725223924
  0
POLYLINE
  8
0
 62
     4
 66
     1
 70
     2
  0
VERTEX
  8
0
 10
163.567932
 20
83.532600
  0
VERTEX
  8
0
 10
163.567932
 20
86.793213
  0
VERTEX
  8
0
 10
157.567932
 20
86.793213
  0
VERTEX
  8
0
 10
157.567932
 20
83.532600
  0
SEQEND
  0
LINE
  8
0
 62
     4
 10
75.323372
 20
86.793213
 11
105.323372
 21
86.793213
  0
LINE
  8
DASHDOT
 62
     7
 10
160.567932
 20
89.507881
 11
160.567932
 21
61.278534
  0
LINE
  8
DASHDOT
 62
     7
 10
173.282608
 20
73.993210
 11
147.853271
 21
73.993210
  0
LINE
  8
0
 62
     5
 10
168.997284
 20
93.127449
 11
152.138596
 21
93.127449
  0
POLYLINE
  8
0
 62
     5
 66
     1
 70
     2
  0
VERTEX
  8
0
 10
154.400818
 20
92.222557
  0
VERTEX
  8
0
 10
157.567932
 20
93.127449
  0
VERTEX
  8
0
 10
154.400818
 20
94.032341
  0
SEQEND
  0
POLYLINE
  8
0
 62
     5
 66
     1
 70
     2
  0
VERTEX
  8
0
 10
166.735062
 20
94.032341
  0
VERTEX
  8
0
 10
163.567932
 20
93.127449
  0
VERTEX
  8
0
 10
166.735062
 20
92.222557
  0
SEQEND
  0
LINE
  8
0
 62
     5
 10
157.567932
 20
86.793213
 11
157.567932
 21
94.484787
  0
LINE
  8
0
 62
     5
 10
163.567932
 20
86.793213
 11
163.567932
 21
94.484787
  0
TEXT
  8
0
 62
     7
 10
151.228577
 20
94.032341
 40
4.524457
 41
1.000000
  1
6
  7
KANJI
 50
0.000000
 51
0.000000
  0
TEXT
  8
0
 62
     7
 10
155.707214
 20
94.032341
 40
3.619565
 41
1.000000
  1
%%p0.015
  7
KANJI
 50
0.000000
 51
0.000000
  0
LINE
  8
0
 62
     5
 10
195.239136
 20
86.793213
 11
195.239136
 21
63.993210
  0
POLYLINE
  8
0
 62
     5
 66
     1
 70
     2
  0
VERTEX
  8
0
 10
196.144028
 20
83.626091
  0
VERTEX
  8
0
 10
195.239136
 20
86.793213
  0
VERTEX
  8
0
 10
194.334244
 20
83.626091
  0
SEQEND
  0
POLYLINE
  8
0
 62
     5
 66
     1
 70
     2
  0
VERTEX
  8
0
 10
194.334244
 20
67.160332
  0
VERTEX
  8
0
 10
195.239136
 20
63.993210
  0
VERTEX
  8
0
 10
196.144028
 20
67.160332
  0
SEQEND
  0
LINE
  8
0
 62
     5
 10
163.567932
 20
86.793213
 11
196.596466
 21
86.793213
  0
LINE
  8
0
 62
     5
 10
160.567932
 20
63.993210
 11
196.596466
 21
63.993210
  0
TEXT
  8
0
 62
     7
 10
193.881805
 20
60.212364
 40
4.524457
 41
1.000000
  1
22.8
  7
KANJI
 50
90.000000
 51
0.000000
  0
TEXT
  8
0
 62
     7
 10
194.153259
 20
79.796005
 40
2.262228
 41
1.000000
  1
 
  7
KANJI
 50
90.000000
 51
0.000000
  0
TEXT
  8
0
 62
     7
 10
191.348114
 20
79.796005
 40
2.262228
 41
1.000000
  1
+
  7
KANJI
 50
90.000000
 51
0.000000
  0
TEXT
  8
0
 62
     7
 10
194.153259
 20
82.329697
 40
2.262228
 41
1.000000
  1
0
  7
KANJI
 50
90.000000
 51
0.000000
  0
TEXT
  8
0
 62
     7
 10
191.348114
 20
82.329697
 40
2.262228
 41
1.000000
  1
0.1
  7
KANJI
 50
90.000000
 51
0.000000
  0
LINE
  8
0
 62
     5
 10
123.421196
 20
83.993210
 11
123.421196
 21
63.993210
  0
POLYLINE
  8
0
 62
     5
 66
     1
 70
     2
  0
VERTEX
  8
0
 10
122.516304
 20
67.160332
  0
VERTEX
  8
0
 10
123.421196
 20
63.993210
  0
VERTEX
  8
0
 10
124.326088
 20
67.160332
  0
SEQEND
  0
LINE
  8
0
 62
     5
 10
105.323372
 20
63.993210
 11
124.778534
 21
63.993210
  0
TEXT
  8
0
 62
     7
 10
122.516304
 20
65.736076
 40
4.524457
 41
1.000000
  1
%%c20H7
  7
KANJI
 50
90.000000
 51
0.000000
  0
ENDSEC
  0
EOF
