  0
SECTION
  2
HEADER
  9
$ACADVER
  1
AC1003
  9
$INSBASE
 10
0.000000
 20
0.000000
  9
$EXTMIN
 10
0.000000
 20
0.000000
  9
$EXTMAX
 10
585.456522
 20
404.836957
  9
$LIMMIN
 10
0.000000
 20
0.000000
  9
$LIMMAX
 10
585.456522
 20
404.836957
  9
$VIEWCTR
 10
292.728261
 20
202.418478
  9
$VIEWSIZE
 40
404.836957
  0
ENDSEC
  0
SECTION
  2
TABLES
  0
TABLE
  2
LTYPE
 70
     4
  0
LTYPE
  2
CONTINUOUS
 70
    64
  3
SolidLine
 72
    65
 73
     0
 40
0.0
  0
LTYPE
  2
HIDDEN
 70
    64
  3
------------------------
 72
    65
 73
     2
 40
6.228261
 49
4.152174
 49
-2.076087
  0
LTYPE
  2
DASHDOT
 70
    64
  3
--?--?--?--?--?--?--?--
 72
    65
 73
     4
 40
24.913043
 49
18.684783
 49
-2.076087
 49
2.076087
 49
-2.076087
  0
LTYPE
  2
DIVIDE
 70
    64
  3
--??--??--??--??--??--
 72
    65
 73
     6
 40
31.141304
 49
20.760870
 49
-2.076087
 49
2.076087
 49
-2.076087
 49
2.076087
 49
-2.076087
  0
ENDTAB
  0
TABLE
  2
LAYER
 70
     5
  0
LAYER
  2
0
 70
    64
 62
     7
  6
CONTINUOUS
  0
LAYER
  2
HIDDEN
 70
    64
 62
     2
  6
HIDDEN
  0
LAYER
  2
DASHDOT
 70
    64
 62
     6
  6
DASHDOT
  0
LAYER
  2
DIVIDE
 70
    64
 62
     5
  6
DIVIDE
  0
ENDTAB
  0
TABLE
  2
STYLE
 70
     1
  0
STYLE
  2
STANDARD
 70
    64
 40
0.0
 41
1.0
 50
0.0
 71
     0
 42
0.2
  3
TXT
  4

  0
STYLE
  2
KANJI
 70
    64
 40
0.0
 41
1.0
 50
0.0
 71
     0
 42
0.2
  3
TXT
  4
BIGFONT
  0
ENDTAB
  0
TABLE
  2
VIEW
 70
     0
  0
ENDTAB
  0
ENDSEC
  0
SECTION
  2
BLOCKS
  0
ENDSEC
  0
SECTION
  2
ENTITIES
  0
TEXT
  8
0
 62
     7
 10
20.760870
 20
22.836956
 40
8.304348
 41
1.000000
  1
KHK SSA4-48
  7
KANJI
 50
0.000000
 51
0.000000
  0
TEXT
  8
0
 62
     7
 10
20.760870
 20
10.380435
 40
8.304348
 41
1.000000
  1

  7
KANJI
 50
0.000000
 51
0.000000
  0
TEXT
  8
0
 62
     7
 10
20.760870
 20
373.695648
 40
9.342391
 41
1.000000
  1
Black oxide
  7
KANJI
 50
0.000000
 51
0.000000
  0
POLYLINE
  8
0
 62
     7
 66
     1
 70
     2
  0
VERTEX
  8
0
 10
498.260864
 20
373.695648
  0
VERTEX
  8
0
 10
490.164124
 20
387.729980
  0
VERTEX
  8
0
 10
522.551086
 20
387.729980
  0
VERTEX
  8
0
 10
514.454346
 20
373.695648
  0
VERTEX
  8
0
 10
506.357605
 20
387.729980
  0
VERTEX
  8
0
 10
498.260864
 20
373.695648
  0
SEQEND
  0
LINE
  8
0
 62
     5
 10
309.380463
 20
273.005432
 11
309.380463
 21
73.005432
  0
POLYLINE
  8
0
 62
     5
 66
     1
 70
     2
  0
VERTEX
  8
0
 10
311.456543
 20
265.739136
  0
VERTEX
  8
0
 10
309.380463
 20
273.005432
  0
VERTEX
  8
0
 10
307.304382
 20
265.739136
  0
SEQEND
  0
POLYLINE
  8
0
 62
     5
 66
     1
 70
     2
  0
VERTEX
  8
0
 10
307.304382
 20
80.271736
  0
VERTEX
  8
0
 10
309.380463
 20
73.005432
  0
VERTEX
  8
0
 10
311.456543
 20
80.271736
  0
SEQEND
  0
LINE
  8
0
 62
     5
 10
234.641327
 20
273.005432
 11
312.494568
 21
273.005432
  0
LINE
  8
0
 62
     5
 10
234.641327
 20
73.005432
 11
312.494568
 21
73.005432
  0
TEXT
  8
0
 62
     7
 10
307.304382
 20
157.434784
 40
10.380435
 41
1.000000
  1
%%c200
  7
KANJI
 50
90.000000
 51
0.000000
  0
LINE
  8
0
 62
     5
 10
194.641327
 20
314.527161
 11
234.641327
 21
314.527161
  0
POLYLINE
  8
0
 62
     5
 66
     1
 70
     2
  0
VERTEX
  8
0
 10
201.907639
 20
316.603271
  0
VERTEX
  8
0
 10
194.641327
 20
314.527161
  0
VERTEX
  8
0
 10
201.907639
 20
312.451111
  0
SEQEND
  0
POLYLINE
  8
0
 62
     5
 66
     1
 70
     2
  0
VERTEX
  8
0
 10
227.375031
 20
312.451111
  0
VERTEX
  8
0
 10
234.641327
 20
314.527161
  0
VERTEX
  8
0
 10
227.375031
 20
316.603271
  0
SEQEND
  0
LINE
  8
0
 62
     5
 10
194.641327
 20
273.005432
 11
194.641327
 21
317.641296
  0
LINE
  8
0
 62
     5
 10
234.641327
 20
273.005432
 11
234.641327
 21
317.641296
  0
TEXT
  8
0
 62
     7
 10
207.894043
 20
316.188049
 40
10.380435
 41
1.000000
  1
40
  7
KANJI
 50
0.000000
 51
0.000000
  0
LINE
  8
DASHDOT
 62
     7
 10
188.413071
 20
269.005432
 11
240.869583
 21
269.005432
  0
LINE
  8
DASHDOT
 62
     7
 10
188.413071
 20
77.005432
 11
240.869583
 21
77.005432
  0
LINE
  8
DASHDOT
 62
     7
 10
188.413071
 20
173.005432
 11
240.869583
 21
173.005432
  0
LINE
  8
0
 62
     5
 10
233.641327
 20
73.005432
 11
234.641327
 21
73.005432
  0
LINE
  8
0
 62
     5
 10
233.641327
 20
273.005432
 11
234.641327
 21
273.005432
  0
LINE
  8
0
 62
     5
 10
234.641327
 20
272.005432
 11
234.641327
 21
273.005432
  0
LINE
  8
0
 62
     5
 10
194.641327
 20
272.005432
 11
194.641327
 21
273.005432
  0
LINE
  8
0
 62
     4
 10
194.641327
 20
264.005432
 11
234.641327
 21
264.005432
  0
LINE
  8
0
 62
     4
 10
194.641327
 20
82.005432
 11
234.641327
 21
82.005432
  0
LINE
  8
0
 62
     4
 10
234.641327
 20
189.005432
 11
233.641327
 21
188.005432
  0
LINE
  8
0
 62
     4
 10
234.641327
 20
157.005432
 11
233.641327
 21
158.005432
  0
LINE
  8
0
 62
     4
 10
194.641327
 20
157.005432
 11
195.641327
 21
158.005432
  0
POLYLINE
  8
0
 62
     4
 66
     1
 70
     2
  0
VERTEX
  8
0
 10
194.641327
 20
157.005432
  0
VERTEX
  8
0
 10
194.641327
 20
74.005432
  0
VERTEX
  8
0
 10
195.641327
 20
73.005432
  0
VERTEX
  8
0
 10
233.641327
 20
73.005432
  0
VERTEX
  8
0
 10
234.641327
 20
74.005432
  0
VERTEX
  8
0
 10
234.641327
 20
272.005432
  0
VERTEX
  8
0
 10
233.641327
 20
273.005432
  0
VERTEX
  8
0
 10
195.641327
 20
273.005432
  0
VERTEX
  8
0
 10
194.641327
 20
272.005432
  0
VERTEX
  8
0
 10
194.641327
 20
157.005432
  0
SEQEND
  0
POLYLINE
  8
0
 62
     4
 66
     1
 70
     2
  0
VERTEX
  8
0
 10
194.641327
 20
189.005432
  0
VERTEX
  8
0
 10
195.641327
 20
188.005432
  0
VERTEX
  8
0
 10
195.641327
 20
158.005432
  0
VERTEX
  8
0
 10
233.641327
 20
158.005432
  0
VERTEX
  8
0
 10
233.641327
 20
188.005432
  0
VERTEX
  8
0
 10
195.641327
 20
188.005432
  0
SEQEND
  0
LINE
  8
0
 62
     5
 10
276.163086
 20
145.548904
 11
276.163086
 21
200.461960
  0
POLYLINE
  8
0
 62
     5
 66
     1
 70
     2
  0
VERTEX
  8
0
 10
274.086975
 20
195.271729
  0
VERTEX
  8
0
 10
276.163086
 20
188.005432
  0
VERTEX
  8
0
 10
278.239166
 20
195.271729
  0
SEQEND
  0
POLYLINE
  8
0
 62
     5
 66
     1
 70
     2
  0
VERTEX
  8
0
 10
278.239166
 20
150.739136
  0
VERTEX
  8
0
 10
276.163086
 20
158.005432
  0
VERTEX
  8
0
 10
274.086975
 20
150.739136
  0
SEQEND
  0
LINE
  8
0
 62
     5
 10
234.641327
 20
188.005432
 11
279.277191
 21
188.005432
  0
LINE
  8
0
 62
     5
 10
234.641327
 20
158.005432
 11
279.277191
 21
158.005432
  0
TEXT
  8
0
 62
     7
 10
274.086975
 20
154.061142
 40
10.380435
 41
1.000000
  1
%%c30H7
  7
KANJI
 50
90.000000
 51
0.000000
  0
ENDSEC
  0
EOF
