  0
SECTION
  2
HEADER
  9
$ACADVER
  1
AC1003
  9
$INSBASE
 10
0.000000
 20
0.000000
  9
$EXTMIN
 10
0.000000
 20
0.000000
  9
$EXTMAX
 10
438.326087
 20
303.097826
  9
$LIMMIN
 10
0.000000
 20
0.000000
  9
$LIMMAX
 10
438.326087
 20
303.097826
  9
$VIEWCTR
 10
219.163043
 20
151.548913
  9
$VIEWSIZE
 40
303.097826
  0
ENDSEC
  0
SECTION
  2
TABLES
  0
TABLE
  2
LTYPE
 70
     4
  0
LTYPE
  2
CONTINUOUS
 70
    64
  3
SolidLine
 72
    65
 73
     0
 40
0.0
  0
LTYPE
  2
HIDDEN
 70
    64
  3
------------------------
 72
    65
 73
     2
 40
4.663043
 49
3.108696
 49
-1.554348
  0
LTYPE
  2
DASHDOT
 70
    64
  3
--?--?--?--?--?--?--?--
 72
    65
 73
     4
 40
18.652174
 49
13.989130
 49
-1.554348
 49
1.554348
 49
-1.554348
  0
LTYPE
  2
DIVIDE
 70
    64
  3
--??--??--??--??--??--
 72
    65
 73
     6
 40
23.315217
 49
15.543478
 49
-1.554348
 49
1.554348
 49
-1.554348
 49
1.554348
 49
-1.554348
  0
ENDTAB
  0
TABLE
  2
LAYER
 70
     5
  0
LAYER
  2
0
 70
    64
 62
     7
  6
CONTINUOUS
  0
LAYER
  2
HIDDEN
 70
    64
 62
     2
  6
HIDDEN
  0
LAYER
  2
DASHDOT
 70
    64
 62
     6
  6
DASHDOT
  0
LAYER
  2
DIVIDE
 70
    64
 62
     5
  6
DIVIDE
  0
ENDTAB
  0
TABLE
  2
STYLE
 70
     1
  0
STYLE
  2
STANDARD
 70
    64
 40
0.0
 41
1.0
 50
0.0
 71
     0
 42
0.2
  3
TXT
  4

  0
STYLE
  2
KANJI
 70
    64
 40
0.0
 41
1.0
 50
0.0
 71
     0
 42
0.2
  3
TXT
  4
BIGFONT
  0
ENDTAB
  0
TABLE
  2
VIEW
 70
     0
  0
ENDTAB
  0
ENDSEC
  0
SECTION
  2
BLOCKS
  0
ENDSEC
  0
SECTION
  2
ENTITIES
  0
TEXT
  8
0
 62
     7
 10
15.543478
 20
17.097826
 40
6.217391
 41
1.000000
  1
KHK SSA4-36
  7
KANJI
 50
0.000000
 51
0.000000
  0
TEXT
  8
0
 62
     7
 10
15.543478
 20
7.771739
 40
6.217391
 41
1.000000
  1

  7
KANJI
 50
0.000000
 51
0.000000
  0
TEXT
  8
0
 62
     7
 10
15.543478
 20
279.782623
 40
6.994565
 41
1.000000
  1
Black oxide
  7
KANJI
 50
0.000000
 51
0.000000
  0
POLYLINE
  8
0
 62
     7
 66
     1
 70
     2
  0
VERTEX
  8
0
 10
373.043488
 20
279.782623
  0
VERTEX
  8
0
 10
366.981537
 20
290.290009
  0
VERTEX
  8
0
 10
391.229370
 20
290.290009
  0
VERTEX
  8
0
 10
385.167389
 20
279.782623
  0
VERTEX
  8
0
 10
379.105438
 20
290.290009
  0
VERTEX
  8
0
 10
373.043488
 20
279.782623
  0
SEQEND
  0
LINE
  8
0
 62
     5
 10
236.021729
 20
204.396744
 11
236.021729
 21
52.396744
  0
POLYLINE
  8
0
 62
     5
 66
     1
 70
     2
  0
VERTEX
  8
0
 10
237.576080
 20
198.956528
  0
VERTEX
  8
0
 10
236.021729
 20
204.396744
  0
VERTEX
  8
0
 10
234.467392
 20
198.956528
  0
SEQEND
  0
POLYLINE
  8
0
 62
     5
 66
     1
 70
     2
  0
VERTEX
  8
0
 10
234.467392
 20
57.836960
  0
VERTEX
  8
0
 10
236.021729
 20
52.396744
  0
VERTEX
  8
0
 10
237.576080
 20
57.836960
  0
SEQEND
  0
LINE
  8
0
 62
     5
 10
180.065216
 20
204.396744
 11
238.353256
 21
204.396744
  0
LINE
  8
0
 62
     5
 10
180.065216
 20
52.396744
 11
238.353256
 21
52.396744
  0
TEXT
  8
0
 62
     7
 10
234.467392
 20
116.739136
 40
7.771739
 41
1.000000
  1
%%c152
  7
KANJI
 50
90.000000
 51
0.000000
  0
LINE
  8
0
 62
     5
 10
140.065216
 20
235.483704
 11
180.065216
 21
235.483704
  0
POLYLINE
  8
0
 62
     5
 66
     1
 70
     2
  0
VERTEX
  8
0
 10
145.505432
 20
237.038055
  0
VERTEX
  8
0
 10
140.065216
 20
235.483704
  0
VERTEX
  8
0
 10
145.505432
 20
233.929352
  0
SEQEND
  0
POLYLINE
  8
0
 62
     5
 66
     1
 70
     2
  0
VERTEX
  8
0
 10
174.625000
 20
233.929352
  0
VERTEX
  8
0
 10
180.065216
 20
235.483704
  0
VERTEX
  8
0
 10
174.625000
 20
237.038055
  0
SEQEND
  0
LINE
  8
0
 62
     5
 10
140.065216
 20
204.396744
 11
140.065216
 21
237.815216
  0
LINE
  8
0
 62
     5
 10
180.065216
 20
204.396744
 11
180.065216
 21
237.815216
  0
TEXT
  8
0
 62
     7
 10
155.013580
 20
236.727173
 40
7.771739
 41
1.000000
  1
40
  7
KANJI
 50
0.000000
 51
0.000000
  0
LINE
  8
DASHDOT
 62
     7
 10
135.402176
 20
200.396744
 11
184.728256
 21
200.396744
  0
LINE
  8
DASHDOT
 62
     7
 10
135.402176
 20
56.396744
 11
184.728256
 21
56.396744
  0
LINE
  8
DASHDOT
 62
     7
 10
135.402176
 20
128.396744
 11
184.728256
 21
128.396744
  0
LINE
  8
0
 62
     5
 10
179.065216
 20
52.396744
 11
180.065216
 21
52.396744
  0
LINE
  8
0
 62
     5
 10
179.065216
 20
204.396744
 11
180.065216
 21
204.396744
  0
LINE
  8
0
 62
     5
 10
180.065216
 20
203.396744
 11
180.065216
 21
204.396744
  0
LINE
  8
0
 62
     5
 10
140.065216
 20
203.396744
 11
140.065216
 21
204.396744
  0
LINE
  8
0
 62
     4
 10
140.065216
 20
195.396744
 11
180.065216
 21
195.396744
  0
LINE
  8
0
 62
     4
 10
140.065216
 20
61.396744
 11
180.065216
 21
61.396744
  0
LINE
  8
0
 62
     4
 10
180.065216
 20
141.896744
 11
179.065216
 21
140.896744
  0
LINE
  8
0
 62
     4
 10
180.065216
 20
114.896744
 11
179.065216
 21
115.896744
  0
LINE
  8
0
 62
     4
 10
140.065216
 20
114.896744
 11
141.065216
 21
115.896744
  0
POLYLINE
  8
0
 62
     4
 66
     1
 70
     2
  0
VERTEX
  8
0
 10
140.065216
 20
114.896744
  0
VERTEX
  8
0
 10
140.065216
 20
53.396744
  0
VERTEX
  8
0
 10
141.065216
 20
52.396744
  0
VERTEX
  8
0
 10
179.065216
 20
52.396744
  0
VERTEX
  8
0
 10
180.065216
 20
53.396744
  0
VERTEX
  8
0
 10
180.065216
 20
203.396744
  0
VERTEX
  8
0
 10
179.065216
 20
204.396744
  0
VERTEX
  8
0
 10
141.065216
 20
204.396744
  0
VERTEX
  8
0
 10
140.065216
 20
203.396744
  0
VERTEX
  8
0
 10
140.065216
 20
114.896744
  0
SEQEND
  0
POLYLINE
  8
0
 62
     4
 66
     1
 70
     2
  0
VERTEX
  8
0
 10
140.065216
 20
141.896744
  0
VERTEX
  8
0
 10
141.065216
 20
140.896744
  0
VERTEX
  8
0
 10
141.065216
 20
115.896744
  0
VERTEX
  8
0
 10
179.065216
 20
115.896744
  0
VERTEX
  8
0
 10
179.065216
 20
140.896744
  0
VERTEX
  8
0
 10
141.065216
 20
140.896744
  0
SEQEND
  0
LINE
  8
0
 62
     5
 10
211.152176
 20
106.570656
 11
211.152176
 21
150.222824
  0
POLYLINE
  8
0
 62
     5
 66
     1
 70
     2
  0
VERTEX
  8
0
 10
209.597839
 20
146.336960
  0
VERTEX
  8
0
 10
211.152176
 20
140.896744
  0
VERTEX
  8
0
 10
212.706512
 20
146.336960
  0
SEQEND
  0
POLYLINE
  8
0
 62
     5
 66
     1
 70
     2
  0
VERTEX
  8
0
 10
212.706512
 20
110.456528
  0
VERTEX
  8
0
 10
211.152176
 20
115.896744
  0
VERTEX
  8
0
 10
209.597839
 20
110.456528
  0
SEQEND
  0
LINE
  8
0
 62
     5
 10
180.065216
 20
140.896744
 11
213.483704
 21
140.896744
  0
LINE
  8
0
 62
     5
 10
180.065216
 20
115.896744
 11
213.483704
 21
115.896744
  0
TEXT
  8
0
 62
     7
 10
209.597839
 20
114.213318
 40
7.771739
 41
1.000000
  1
%%c25H7
  7
KANJI
 50
90.000000
 51
0.000000
  0
ENDSEC
  0
EOF
