  0
SECTION
  2
HEADER
  9
$ACADVER
  1
AC1003
  9
$INSBASE
 10
0.000000
 20
0.000000
  9
$EXTMIN
 10
0.000000
 20
0.000000
  9
$EXTMAX
 10
379.320652
 20
262.296196
  9
$LIMMIN
 10
0.000000
 20
0.000000
  9
$LIMMAX
 10
379.320652
 20
262.296196
  9
$VIEWCTR
 10
189.660326
 20
131.148098
  9
$VIEWSIZE
 40
262.296196
  0
ENDSEC
  0
SECTION
  2
TABLES
  0
TABLE
  2
LTYPE
 70
     4
  0
LTYPE
  2
CONTINUOUS
 70
    64
  3
SolidLine
 72
    65
 73
     0
 40
0.0
  0
LTYPE
  2
HIDDEN
 70
    64
  3
------------------------
 72
    65
 73
     2
 40
4.035326
 49
2.690217
 49
-1.345109
  0
LTYPE
  2
DASHDOT
 70
    64
  3
--?--?--?--?--?--?--?--
 72
    65
 73
     4
 40
16.141304
 49
12.105978
 49
-1.345109
 49
1.345109
 49
-1.345109
  0
LTYPE
  2
DIVIDE
 70
    64
  3
--??--??--??--??--??--
 72
    65
 73
     6
 40
20.176630
 49
13.451087
 49
-1.345109
 49
1.345109
 49
-1.345109
 49
1.345109
 49
-1.345109
  0
ENDTAB
  0
TABLE
  2
LAYER
 70
     5
  0
LAYER
  2
0
 70
    64
 62
     7
  6
CONTINUOUS
  0
LAYER
  2
HIDDEN
 70
    64
 62
     2
  6
HIDDEN
  0
LAYER
  2
DASHDOT
 70
    64
 62
     6
  6
DASHDOT
  0
LAYER
  2
DIVIDE
 70
    64
 62
     5
  6
DIVIDE
  0
ENDTAB
  0
TABLE
  2
STYLE
 70
     1
  0
STYLE
  2
STANDARD
 70
    64
 40
0.0
 41
1.0
 50
0.0
 71
     0
 42
0.2
  3
TXT
  4

  0
STYLE
  2
KANJI
 70
    64
 40
0.0
 41
1.0
 50
0.0
 71
     0
 42
0.2
  3
TXT
  4
BIGFONT
  0
ENDTAB
  0
TABLE
  2
VIEW
 70
     0
  0
ENDTAB
  0
ENDSEC
  0
SECTION
  2
BLOCKS
  0
ENDSEC
  0
SECTION
  2
ENTITIES
  0
TEXT
  8
0
 62
     7
 10
13.451087
 20
14.796196
 40
5.380435
 41
1.000000
  1
KHK SSA5-25
  7
KANJI
 50
0.000000
 51
0.000000
  0
TEXT
  8
0
 62
     7
 10
13.451087
 20
6.725543
 40
5.380435
 41
1.000000
  1

  7
KANJI
 50
0.000000
 51
0.000000
  0
TEXT
  8
0
 62
     7
 10
13.451087
 20
242.119568
 40
6.052989
 41
1.000000
  1
Black oxide
  7
KANJI
 50
0.000000
 51
0.000000
  0
POLYLINE
  8
0
 62
     7
 66
     1
 70
     2
  0
VERTEX
  8
0
 10
322.826080
 20
242.119568
  0
VERTEX
  8
0
 10
317.580170
 20
251.212509
  0
VERTEX
  8
0
 10
338.563843
 20
251.212509
  0
VERTEX
  8
0
 10
333.317932
 20
242.119568
  0
VERTEX
  8
0
 10
328.071991
 20
251.212509
  0
VERTEX
  8
0
 10
322.826080
 20
242.119568
  0
SEQEND
  0
LINE
  8
0
 62
     5
 10
211.850540
 20
176.881805
 11
211.850540
 21
41.881805
  0
POLYLINE
  8
0
 62
     5
 66
     1
 70
     2
  0
VERTEX
  8
0
 10
213.195648
 20
172.173920
  0
VERTEX
  8
0
 10
211.850540
 20
176.881805
  0
VERTEX
  8
0
 10
210.505432
 20
172.173920
  0
SEQEND
  0
POLYLINE
  8
0
 62
     5
 66
     1
 70
     2
  0
VERTEX
  8
0
 10
210.505432
 20
46.589687
  0
VERTEX
  8
0
 10
211.850540
 20
41.881805
  0
VERTEX
  8
0
 10
213.195648
 20
46.589687
  0
SEQEND
  0
LINE
  8
0
 62
     5
 10
163.426636
 20
176.881805
 11
213.868195
 21
176.881805
  0
LINE
  8
0
 62
     5
 10
163.426636
 20
41.881805
 11
213.868195
 21
41.881805
  0
TEXT
  8
0
 62
     7
 10
210.505432
 20
99.293488
 40
6.725543
 41
1.000000
  1
%%c135
  7
KANJI
 50
90.000000
 51
0.000000
  0
LINE
  8
0
 62
     5
 10
113.426628
 20
203.783981
 11
163.426636
 21
203.783981
  0
POLYLINE
  8
0
 62
     5
 66
     1
 70
     2
  0
VERTEX
  8
0
 10
118.134506
 20
205.129089
  0
VERTEX
  8
0
 10
113.426628
 20
203.783981
  0
VERTEX
  8
0
 10
118.134506
 20
202.438873
  0
SEQEND
  0
POLYLINE
  8
0
 62
     5
 66
     1
 70
     2
  0
VERTEX
  8
0
 10
158.718750
 20
202.438873
  0
VERTEX
  8
0
 10
163.426636
 20
203.783981
  0
VERTEX
  8
0
 10
158.718750
 20
205.129089
  0
SEQEND
  0
LINE
  8
0
 62
     5
 10
113.426628
 20
176.881805
 11
113.426628
 21
205.801636
  0
LINE
  8
0
 62
     5
 10
163.426636
 20
176.881805
 11
163.426636
 21
205.801636
  0
TEXT
  8
0
 62
     7
 10
134.055023
 20
204.860077
 40
6.725543
 41
1.000000
  1
50
  7
KANJI
 50
0.000000
 51
0.000000
  0
LINE
  8
DASHDOT
 62
     7
 10
109.391304
 20
171.881805
 11
167.461960
 21
171.881805
  0
LINE
  8
DASHDOT
 62
     7
 10
109.391304
 20
46.881805
 11
167.461960
 21
46.881805
  0
LINE
  8
DASHDOT
 62
     7
 10
109.391304
 20
109.381805
 11
167.461960
 21
109.381805
  0
LINE
  8
0
 62
     5
 10
161.926636
 20
41.881805
 11
163.426636
 21
41.881805
  0
LINE
  8
0
 62
     5
 10
161.926636
 20
176.881805
 11
163.426636
 21
176.881805
  0
LINE
  8
0
 62
     5
 10
163.426636
 20
175.381805
 11
163.426636
 21
176.881805
  0
LINE
  8
0
 62
     5
 10
113.426628
 20
175.381805
 11
113.426628
 21
176.881805
  0
LINE
  8
0
 62
     4
 10
113.426628
 20
165.631805
 11
163.426636
 21
165.631805
  0
LINE
  8
0
 62
     4
 10
113.426628
 20
53.131805
 11
163.426636
 21
53.131805
  0
LINE
  8
0
 62
     4
 10
163.426636
 20
121.381805
 11
162.426636
 21
120.381805
  0
LINE
  8
0
 62
     4
 10
163.426636
 20
97.381805
 11
162.426636
 21
98.381805
  0
LINE
  8
0
 62
     4
 10
113.426628
 20
97.381805
 11
114.426628
 21
98.381805
  0
POLYLINE
  8
0
 62
     4
 66
     1
 70
     2
  0
VERTEX
  8
0
 10
113.426628
 20
97.381805
  0
VERTEX
  8
0
 10
113.426628
 20
43.381805
  0
VERTEX
  8
0
 10
114.926628
 20
41.881805
  0
VERTEX
  8
0
 10
161.926636
 20
41.881805
  0
VERTEX
  8
0
 10
163.426636
 20
43.381805
  0
VERTEX
  8
0
 10
163.426636
 20
175.381805
  0
VERTEX
  8
0
 10
161.926636
 20
176.881805
  0
VERTEX
  8
0
 10
114.926628
 20
176.881805
  0
VERTEX
  8
0
 10
113.426628
 20
175.381805
  0
VERTEX
  8
0
 10
113.426628
 20
97.381805
  0
SEQEND
  0
POLYLINE
  8
0
 62
     4
 66
     1
 70
     2
  0
VERTEX
  8
0
 10
113.426628
 20
121.381805
  0
VERTEX
  8
0
 10
114.426628
 20
120.381805
  0
VERTEX
  8
0
 10
114.426628
 20
98.381805
  0
VERTEX
  8
0
 10
162.426636
 20
98.381805
  0
VERTEX
  8
0
 10
162.426636
 20
120.381805
  0
VERTEX
  8
0
 10
114.426628
 20
120.381805
  0
SEQEND
  0
LINE
  8
0
 62
     5
 10
190.328796
 20
90.311157
 11
190.328796
 21
128.452454
  0
POLYLINE
  8
0
 62
     5
 66
     1
 70
     2
  0
VERTEX
  8
0
 10
188.983704
 20
125.089684
  0
VERTEX
  8
0
 10
190.328796
 20
120.381805
  0
VERTEX
  8
0
 10
191.673920
 20
125.089684
  0
SEQEND
  0
POLYLINE
  8
0
 62
     5
 66
     1
 70
     2
  0
VERTEX
  8
0
 10
191.673920
 20
93.673927
  0
VERTEX
  8
0
 10
190.328796
 20
98.381805
  0
VERTEX
  8
0
 10
188.983704
 20
93.673927
  0
SEQEND
  0
LINE
  8
0
 62
     5
 10
163.426636
 20
120.381805
 11
192.346466
 21
120.381805
  0
LINE
  8
0
 62
     5
 10
163.426636
 20
98.381805
 11
192.346466
 21
98.381805
  0
TEXT
  8
0
 62
     7
 10
188.983704
 20
97.107689
 40
6.725543
 41
1.000000
  1
%%c22H7
  7
KANJI
 50
90.000000
 51
0.000000
  0
ENDSEC
  0
EOF
