  0
SECTION
  2
HEADER
  9
$ACADVER
  1
AC1003
  9
$INSBASE
 10
0.000000
 20
0.000000
  9
$EXTMIN
 10
0.000000
 20
0.000000
  9
$EXTMAX
 10
109.581522
 20
75.774457
  9
$LIMMIN
 10
0.000000
 20
0.000000
  9
$LIMMAX
 10
109.581522
 20
75.774457
  9
$VIEWCTR
 10
54.790761
 20
37.887228
  9
$VIEWSIZE
 40
75.774457
  0
ENDSEC
  0
SECTION
  2
TABLES
  0
TABLE
  2
LTYPE
 70
     4
  0
LTYPE
  2
CONTINUOUS
 70
    64
  3
SolidLine
 72
    65
 73
     0
 40
0.0
  0
LTYPE
  2
HIDDEN
 70
    64
  3
------------------------
 72
    65
 73
     2
 40
1.165761
 49
0.777174
 49
-0.388587
  0
LTYPE
  2
DASHDOT
 70
    64
  3
--?--?--?--?--?--?--?--
 72
    65
 73
     4
 40
4.663043
 49
3.497283
 49
-0.388587
 49
0.388587
 49
-0.388587
  0
LTYPE
  2
DIVIDE
 70
    64
  3
--??--??--??--??--??--
 72
    65
 73
     6
 40
5.828804
 49
3.885870
 49
-0.388587
 49
0.388587
 49
-0.388587
 49
0.388587
 49
-0.388587
  0
ENDTAB
  0
TABLE
  2
LAYER
 70
     5
  0
LAYER
  2
0
 70
    64
 62
     7
  6
CONTINUOUS
  0
LAYER
  2
HIDDEN
 70
    64
 62
     2
  6
HIDDEN
  0
LAYER
  2
DASHDOT
 70
    64
 62
     6
  6
DASHDOT
  0
LAYER
  2
DIVIDE
 70
    64
 62
     5
  6
DIVIDE
  0
ENDTAB
  0
TABLE
  2
STYLE
 70
     1
  0
STYLE
  2
STANDARD
 70
    64
 40
0.0
 41
1.0
 50
0.0
 71
     0
 42
0.2
  3
TXT
  4

  0
STYLE
  2
KANJI
 70
    64
 40
0.0
 41
1.0
 50
0.0
 71
     0
 42
0.2
  3
TXT
  4
BIGFONT
  0
ENDTAB
  0
TABLE
  2
VIEW
 70
     0
  0
ENDTAB
  0
ENDSEC
  0
SECTION
  2
BLOCKS
  0
ENDSEC
  0
SECTION
  2
ENTITIES
  0
TEXT
  8
0
 62
     7
 10
3.885870
 20
4.274457
 40
1.554348
 41
1.000000
  1
KHK SSAY1-36
  7
KANJI
 50
0.000000
 51
0.000000
  0
TEXT
  8
0
 62
     7
 10
3.885870
 20
1.942935
 40
1.554348
 41
1.000000
  1

  7
KANJI
 50
0.000000
 51
0.000000
  0
TEXT
  8
0
 62
     7
 10
3.885870
 20
69.945656
 40
1.748641
 41
1.000000
  1
Black oxide
  7
KANJI
 50
0.000000
 51
0.000000
  0
POLYLINE
  8
0
 62
     7
 66
     1
 70
     2
  0
VERTEX
  8
0
 10
93.260872
 20
69.945656
  0
VERTEX
  8
0
 10
91.745384
 20
72.572502
  0
VERTEX
  8
0
 10
97.807343
 20
72.572502
  0
VERTEX
  8
0
 10
96.291847
 20
69.945656
  0
VERTEX
  8
0
 10
94.776360
 20
72.572502
  0
VERTEX
  8
0
 10
93.260872
 20
69.945656
  0
SEQEND
  0
LINE
  8
0
 62
     5
 10
57.067932
 20
51.099186
 11
57.067932
 21
13.099186
  0
POLYLINE
  8
0
 62
     5
 66
     1
 70
     2
  0
VERTEX
  8
0
 10
57.456520
 20
49.739132
  0
VERTEX
  8
0
 10
57.067932
 20
51.099186
  0
VERTEX
  8
0
 10
56.679348
 20
49.739132
  0
SEQEND
  0
POLYLINE
  8
0
 62
     5
 66
     1
 70
     2
  0
VERTEX
  8
0
 10
56.679348
 20
14.459240
  0
VERTEX
  8
0
 10
57.067932
 20
13.099186
  0
VERTEX
  8
0
 10
57.456520
 20
14.459240
  0
SEQEND
  0
LINE
  8
0
 62
     5
 10
43.078804
 20
51.099186
 11
57.650814
 21
51.099186
  0
LINE
  8
0
 62
     5
 10
43.078804
 20
13.099186
 11
57.650814
 21
13.099186
  0
TEXT
  8
0
 62
     7
 10
56.679348
 20
29.816238
 40
1.942935
 41
1.000000
  1
%%c38
  7
KANJI
 50
90.000000
 51
0.000000
  0
LINE
  8
0
 62
     5
 10
37.078804
 20
58.870926
 11
43.078804
 21
58.870926
  0
POLYLINE
  8
0
 62
     5
 66
     1
 70
     2
  0
VERTEX
  8
0
 10
38.438858
 20
59.259514
  0
VERTEX
  8
0
 10
37.078804
 20
58.870926
  0
VERTEX
  8
0
 10
38.438858
 20
58.482338
  0
SEQEND
  0
POLYLINE
  8
0
 62
     5
 66
     1
 70
     2
  0
VERTEX
  8
0
 10
41.718750
 20
58.482338
  0
VERTEX
  8
0
 10
43.078804
 20
58.870926
  0
VERTEX
  8
0
 10
41.718750
 20
59.259514
  0
SEQEND
  0
LINE
  8
0
 62
     5
 10
37.078804
 20
51.099186
 11
37.078804
 21
59.453804
  0
LINE
  8
0
 62
     5
 10
43.078804
 20
51.099186
 11
43.078804
 21
59.453804
  0
TEXT
  8
0
 62
     7
 10
39.447350
 20
59.181793
 40
1.942935
 41
1.000000
  1
6
  7
KANJI
 50
0.000000
 51
0.000000
  0
LINE
  8
DASHDOT
 62
     7
 10
35.913044
 20
50.099186
 11
44.244564
 21
50.099186
  0
LINE
  8
DASHDOT
 62
     7
 10
35.913044
 20
14.099186
 11
44.244564
 21
14.099186
  0
LINE
  8
DASHDOT
 62
     7
 10
35.913044
 20
32.099186
 11
44.244564
 21
32.099186
  0
LINE
  8
0
 62
     5
 10
42.578804
 20
13.099186
 11
43.078804
 21
13.099186
  0
LINE
  8
0
 62
     5
 10
42.578804
 20
51.099186
 11
43.078804
 21
51.099186
  0
LINE
  8
0
 62
     5
 10
43.078804
 20
50.599186
 11
43.078804
 21
51.099186
  0
LINE
  8
0
 62
     5
 10
37.078804
 20
50.599186
 11
37.078804
 21
51.099186
  0
LINE
  8
0
 62
     4
 10
37.078804
 20
48.849186
 11
43.078804
 21
48.849186
  0
LINE
  8
0
 62
     4
 10
37.078804
 20
15.349186
 11
43.078804
 21
15.349186
  0
LINE
  8
0
 62
     4
 10
43.078804
 20
35.599186
 11
42.578804
 21
35.099186
  0
LINE
  8
0
 62
     4
 10
43.078804
 20
28.599186
 11
42.578804
 21
29.099186
  0
LINE
  8
0
 62
     4
 10
37.078804
 20
28.599186
 11
37.578804
 21
29.099186
  0
POLYLINE
  8
0
 62
     4
 66
     1
 70
     2
  0
VERTEX
  8
0
 10
37.078804
 20
28.599186
  0
VERTEX
  8
0
 10
37.078804
 20
13.599186
  0
VERTEX
  8
0
 10
37.578804
 20
13.099186
  0
VERTEX
  8
0
 10
42.578804
 20
13.099186
  0
VERTEX
  8
0
 10
43.078804
 20
13.599186
  0
VERTEX
  8
0
 10
43.078804
 20
50.599186
  0
VERTEX
  8
0
 10
42.578804
 20
51.099186
  0
VERTEX
  8
0
 10
37.578804
 20
51.099186
  0
VERTEX
  8
0
 10
37.078804
 20
50.599186
  0
VERTEX
  8
0
 10
37.078804
 20
28.599186
  0
SEQEND
  0
POLYLINE
  8
0
 62
     4
 66
     1
 70
     2
  0
VERTEX
  8
0
 10
37.078804
 20
35.599186
  0
VERTEX
  8
0
 10
37.578804
 20
35.099186
  0
VERTEX
  8
0
 10
37.578804
 20
29.099186
  0
VERTEX
  8
0
 10
42.578804
 20
29.099186
  0
VERTEX
  8
0
 10
42.578804
 20
35.099186
  0
VERTEX
  8
0
 10
37.578804
 20
35.099186
  0
SEQEND
  0
LINE
  8
0
 62
     5
 10
50.850544
 20
26.767664
 11
50.850544
 21
37.430706
  0
POLYLINE
  8
0
 62
     5
 66
     1
 70
     2
  0
VERTEX
  8
0
 10
50.461956
 20
36.459240
  0
VERTEX
  8
0
 10
50.850544
 20
35.099186
  0
VERTEX
  8
0
 10
51.239128
 20
36.459240
  0
SEQEND
  0
POLYLINE
  8
0
 62
     5
 66
     1
 70
     2
  0
VERTEX
  8
0
 10
51.239128
 20
27.739132
  0
VERTEX
  8
0
 10
50.850544
 20
29.099186
  0
VERTEX
  8
0
 10
50.461956
 20
27.739132
  0
SEQEND
  0
LINE
  8
0
 62
     5
 10
43.078804
 20
35.099186
 11
51.433422
 21
35.099186
  0
LINE
  8
0
 62
     5
 10
43.078804
 20
29.099186
 11
51.433422
 21
29.099186
  0
TEXT
  8
0
 62
     7
 10
50.461956
 20
29.184784
 40
1.942935
 41
1.000000
  1
%%c6H7
  7
KANJI
 50
90.000000
 51
0.000000
  0
ENDSEC
  0
EOF
