  0
SECTION
  2
HEADER
  9
$ACADVER
  1
AC1003
  9
$INSBASE
 10
0.000000
 20
0.000000
  9
$EXTMIN
 10
0.000000
 20
0.000000
  9
$EXTMAX
 10
202.304348
 20
139.891304
  9
$LIMMIN
 10
0.000000
 20
0.000000
  9
$LIMMAX
 10
202.304348
 20
139.891304
  9
$VIEWCTR
 10
101.152174
 20
69.945652
  9
$VIEWSIZE
 40
139.891304
  0
ENDSEC
  0
SECTION
  2
TABLES
  0
TABLE
  2
LTYPE
 70
     4
  0
LTYPE
  2
CONTINUOUS
 70
    64
  3
SolidLine
 72
    65
 73
     0
 40
0.0
  0
LTYPE
  2
HIDDEN
 70
    64
  3
------------------------
 72
    65
 73
     2
 40
2.152174
 49
1.434783
 49
-0.717391
  0
LTYPE
  2
DASHDOT
 70
    64
  3
--?--?--?--?--?--?--?--
 72
    65
 73
     4
 40
8.608696
 49
6.456522
 49
-0.717391
 49
0.717391
 49
-0.717391
  0
LTYPE
  2
DIVIDE
 70
    64
  3
--??--??--??--??--??--
 72
    65
 73
     6
 40
10.760870
 49
7.173913
 49
-0.717391
 49
0.717391
 49
-0.717391
 49
0.717391
 49
-0.717391
  0
ENDTAB
  0
TABLE
  2
LAYER
 70
     5
  0
LAYER
  2
0
 70
    64
 62
     7
  6
CONTINUOUS
  0
LAYER
  2
HIDDEN
 70
    64
 62
     2
  6
HIDDEN
  0
LAYER
  2
DASHDOT
 70
    64
 62
     6
  6
DASHDOT
  0
LAYER
  2
DIVIDE
 70
    64
 62
     5
  6
DIVIDE
  0
ENDTAB
  0
TABLE
  2
STYLE
 70
     1
  0
STYLE
  2
STANDARD
 70
    64
 40
0.0
 41
1.0
 50
0.0
 71
     0
 42
0.2
  3
TXT
  4

  0
STYLE
  2
KANJI
 70
    64
 40
0.0
 41
1.0
 50
0.0
 71
     0
 42
0.2
  3
TXT
  4
BIGFONT
  0
ENDTAB
  0
TABLE
  2
VIEW
 70
     0
  0
ENDTAB
  0
ENDSEC
  0
SECTION
  2
BLOCKS
  0
ENDSEC
  0
SECTION
  2
ENTITIES
  0
TEXT
  8
0
 62
     7
 10
7.173913
 20
7.891304
 40
2.869565
 41
1.000000
  1
KHK SSG1-18J8
  7
KANJI
 50
0.000000
 51
0.000000
  0
TEXT
  8
0
 62
     7
 10
7.173913
 20
3.586957
 40
2.869565
 41
1.000000
  1
The precision grade of gears after secondary operations is equivalent but not identical to its original grade.
  7
KANJI
 50
0.000000
 51
0.000000
  0
TEXT
  8
0
 62
     7
 10
7.173913
 20
129.130432
 40
3.228261
 41
1.000000
  1
For J Series products, without black oxide repeatedly applied on secondary-operated parts.
  7
KANJI
 50
0.000000
 51
0.000000
  0
POLYLINE
  8
0
 62
     7
 66
     1
 70
     2
  0
VERTEX
  8
0
 10
143.478256
 20
129.130432
  0
VERTEX
  8
0
 10
140.680435
 20
133.979996
  0
VERTEX
  8
0
 10
151.871735
 20
133.979996
  0
VERTEX
  8
0
 10
149.073914
 20
129.130432
  0
VERTEX
  8
0
 10
146.276077
 20
133.979996
  0
VERTEX
  8
0
 10
143.478256
 20
129.130432
  0
SEQEND
  0
POLYLINE
  8
0
 62
     7
 66
     1
 70
     2
  0
VERTEX
  8
0
 10
163.063034
 20
129.130432
  0
VERTEX
  8
0
 10
160.265213
 20
133.979996
  0
VERTEX
  8
0
 10
177.052170
 20
133.979996
  0
VERTEX
  8
0
 10
174.254349
 20
129.130432
  0
VERTEX
  8
0
 10
171.456512
 20
133.979996
  0
VERTEX
  8
0
 10
168.658691
 20
129.130432
  0
VERTEX
  8
0
 10
165.860870
 20
133.979996
  0
VERTEX
  8
0
 10
163.063034
 20
129.130432
  0
SEQEND
  0
POLYLINE
  8
0
 62
     7
 66
     1
 70
     2
  0
VERTEX
  8
0
 10
169.591309
 20
136.404785
  0
VERTEX
  8
0
 10
170.523911
 20
136.404785
  0
VERTEX
  8
0
 10
170.523911
 20
135.845215
  0
VERTEX
  8
0
 10
169.591309
 20
134.912613
  0
VERTEX
  8
0
 10
167.726089
 20
134.912613
  0
VERTEX
  8
0
 10
166.793472
 20
135.845215
  0
VERTEX
  8
0
 10
166.793472
 20
138.643036
  0
VERTEX
  8
0
 10
167.726089
 20
139.575653
  0
VERTEX
  8
0
 10
169.591309
 20
139.575653
  0
VERTEX
  8
0
 10
170.523911
 20
138.643036
  0
VERTEX
  8
0
 10
170.523911
 20
138.083481
  0
SEQEND
  0
POLYLINE
  8
0
 62
     7
 66
     1
 70
     2
  0
VERTEX
  8
0
 10
156.161728
 20
133.979996
  0
VERTEX
  8
0
 10
155.415649
 20
133.233917
  0
VERTEX
  8
0
 10
155.415649
 20
129.876526
  0
VERTEX
  8
0
 10
156.161728
 20
129.130432
  0
SEQEND
  0
POLYLINE
  8
0
 62
     7
 66
     1
 70
     2
  0
VERTEX
  8
0
 10
180.596085
 20
133.979996
  0
VERTEX
  8
0
 10
181.342163
 20
133.233917
  0
VERTEX
  8
0
 10
181.342163
 20
129.876526
  0
VERTEX
  8
0
 10
180.596085
 20
129.130432
  0
SEQEND
  0
LINE
  8
0
 62
     5
 10
111.978256
 20
68.467392
 11
111.978256
 21
48.467396
  0
POLYLINE
  8
0
 62
     5
 66
     1
 70
     2
  0
VERTEX
  8
0
 10
112.695648
 20
65.956528
  0
VERTEX
  8
0
 10
111.978256
 20
68.467392
  0
VERTEX
  8
0
 10
111.260864
 20
65.956528
  0
SEQEND
  0
POLYLINE
  8
0
 62
     5
 66
     1
 70
     2
  0
VERTEX
  8
0
 10
111.260864
 20
50.978264
  0
VERTEX
  8
0
 10
111.978256
 20
48.467396
  0
VERTEX
  8
0
 10
112.695648
 20
50.978264
  0
SEQEND
  0
LINE
  8
0
 62
     5
 10
76.108696
 20
68.467392
 11
113.054352
 21
68.467392
  0
LINE
  8
0
 62
     5
 10
76.108696
 20
48.467396
 11
113.054352
 21
48.467396
  0
TEXT
  8
0
 62
     7
 10
111.260864
 20
54.252724
 40
3.586957
 41
1.000000
  1
%%c20
  7
KANJI
 50
90.000000
 51
0.000000
  0
LINE
  8
DASHDOT
 62
     7
 10
55.956520
 20
67.467392
 11
68.260872
 21
67.467392
  0
LINE
  8
DASHDOT
 62
     7
 10
55.956520
 20
49.467396
 11
68.260872
 21
49.467396
  0
LINE
  8
DASHDOT
 62
     7
 10
55.956520
 20
58.467396
 11
78.260872
 21
58.467396
  0
LINE
  8
0
 62
     5
 10
66.108696
 20
67.967392
 11
66.108696
 21
68.467392
  0
LINE
  8
0
 62
     5
 10
58.108696
 20
67.967392
 11
58.108696
 21
68.467392
  0
LINE
  8
0
 62
     5
 10
66.608696
 20
65.967392
 11
76.108696
 21
65.967392
  0
LINE
  8
0
 62
     5
 10
66.608696
 20
50.967396
 11
76.108696
 21
50.967396
  0
LINE
  8
0
 62
     5
 10
65.608696
 20
68.467392
 11
76.108696
 21
68.467392
  0
LINE
  8
0
 62
     5
 10
65.608696
 20
48.467396
 11
76.108696
 21
48.467396
  0
LINE
  8
0
 62
     4
 10
58.108696
 20
66.217392
 11
66.108696
 21
66.217392
  0
LINE
  8
0
 62
     4
 10
58.108696
 20
50.717396
 11
66.108696
 21
50.717396
  0
LINE
  8
0
 62
     4
 10
75.608696
 20
54.467396
 11
76.108696
 21
53.967396
  0
LINE
  8
0
 62
     4
 10
75.608696
 20
62.467396
 11
76.108696
 21
62.967396
  0
LINE
  8
0
 62
     4
 10
58.608696
 20
62.467396
 11
58.608696
 21
54.467396
  0
POLYLINE
  8
0
 62
     4
 66
     1
 70
     2
  0
VERTEX
  8
0
 10
58.108696
 20
53.967396
  0
VERTEX
  8
0
 10
58.608696
 20
54.467396
  0
VERTEX
  8
0
 10
75.608696
 20
54.467396
  0
VERTEX
  8
0
 10
75.608696
 20
62.467396
  0
VERTEX
  8
0
 10
58.608696
 20
62.467396
  0
VERTEX
  8
0
 10
58.108696
 20
62.967396
  0
SEQEND
  0
ARC
  8
0
 62
     4
 10
66.608696
 20
66.467392
 40
0.500000
 50
180.0
 51
270.0
  0
ARC
  8
0
 62
     4
 10
66.608696
 20
50.467396
 40
0.500000
 50
90.0
 51
180.0
  0
LINE
  8
0
 62
     5
 10
76.108696
 20
65.467392
 11
76.108696
 21
68.467392
  0
LINE
  8
0
 62
     5
 10
58.108696
 20
87.836960
 11
66.108696
 21
87.836960
  0
POLYLINE
  8
0
 62
     5
 66
     1
 70
     2
  0
VERTEX
  8
0
 10
60.619564
 20
88.554352
  0
VERTEX
  8
0
 10
58.108696
 20
87.836960
  0
VERTEX
  8
0
 10
60.619564
 20
87.119568
  0
SEQEND
  0
POLYLINE
  8
0
 62
     5
 66
     1
 70
     2
  0
VERTEX
  8
0
 10
63.597828
 20
87.119568
  0
VERTEX
  8
0
 10
66.108696
 20
87.836960
  0
VERTEX
  8
0
 10
63.597828
 20
88.554352
  0
SEQEND
  0
LINE
  8
0
 62
     5
 10
66.108696
 20
68.467392
 11
66.108696
 21
88.913048
  0
TEXT
  8
0
 62
     7
 10
60.942936
 20
88.410873
 40
3.586957
 41
1.000000
  1
8
  7
KANJI
 50
0.000000
 51
0.000000
  0
LINE
  8
0
 62
     5
 10
58.108696
 20
93.576096
 11
76.108696
 21
93.576096
  0
POLYLINE
  8
0
 62
     5
 66
     1
 70
     2
  0
VERTEX
  8
0
 10
60.619564
 20
94.293488
  0
VERTEX
  8
0
 10
58.108696
 20
93.576096
  0
VERTEX
  8
0
 10
60.619564
 20
92.858704
  0
SEQEND
  0
POLYLINE
  8
0
 62
     5
 66
     1
 70
     2
  0
VERTEX
  8
0
 10
73.597824
 20
92.858704
  0
VERTEX
  8
0
 10
76.108696
 20
93.576096
  0
VERTEX
  8
0
 10
73.597824
 20
94.293488
  0
SEQEND
  0
LINE
  8
0
 62
     5
 10
58.108696
 20
68.467392
 11
58.108696
 21
94.652176
  0
LINE
  8
0
 62
     5
 10
76.108696
 20
68.467392
 11
76.108696
 21
94.652176
  0
TEXT
  8
0
 62
     7
 10
64.777176
 20
94.150009
 40
3.586957
 41
1.000000
  1
18
  7
KANJI
 50
0.000000
 51
0.000000
  0
LINE
  8
0
 62
     5
 10
66.108696
 20
87.836960
 11
76.108696
 21
87.836960
  0
POLYLINE
  8
0
 62
     5
 66
     1
 70
     2
  0
VERTEX
  8
0
 10
68.619568
 20
88.554352
  0
VERTEX
  8
0
 10
66.108696
 20
87.836960
  0
VERTEX
  8
0
 10
68.619568
 20
87.119568
  0
SEQEND
  0
POLYLINE
  8
0
 62
     5
 66
     1
 70
     2
  0
VERTEX
  8
0
 10
73.597824
 20
87.119568
  0
VERTEX
  8
0
 10
76.108696
 20
87.836960
  0
VERTEX
  8
0
 10
73.597824
 20
88.554352
  0
SEQEND
  0
TEXT
  8
0
 62
     7
 10
68.777176
 20
88.410873
 40
3.586957
 41
1.000000
  1
10
  7
KANJI
 50
0.000000
 51
0.000000
  0
LINE
  8
0
 62
     5
 10
106.239128
 20
65.967392
 11
106.239128
 21
50.967396
  0
POLYLINE
  8
0
 62
     5
 66
     1
 70
     2
  0
VERTEX
  8
0
 10
106.956520
 20
63.456528
  0
VERTEX
  8
0
 10
106.239128
 20
65.967392
  0
VERTEX
  8
0
 10
105.521736
 20
63.456528
  0
SEQEND
  0
POLYLINE
  8
0
 62
     5
 66
     1
 70
     2
  0
VERTEX
  8
0
 10
105.521736
 20
53.478264
  0
VERTEX
  8
0
 10
106.239128
 20
50.967396
  0
VERTEX
  8
0
 10
106.956520
 20
53.478264
  0
SEQEND
  0
LINE
  8
0
 62
     5
 10
76.108696
 20
65.967392
 11
107.315216
 21
65.967392
  0
LINE
  8
0
 62
     5
 10
76.108696
 20
50.967396
 11
107.315216
 21
50.967396
  0
TEXT
  8
0
 62
     7
 10
105.521736
 20
54.252724
 40
3.586957
 41
1.000000
  1
%%c15
  7
KANJI
 50
90.000000
 51
0.000000
  0
POLYLINE
  8
DASHDOT
 62
     7
 66
     1
 70
     2
  0
VERTEX
  8
DASHDOT
 10
71.108696
 20
68.119568
  0
VERTEX
  8
DASHDOT
 10
71.108696
 20
60.315224
  0
SEQEND
  0
POLYLINE
  8
0
 62
     4
 66
     1
 70
     2
  0
VERTEX
  8
0
 10
73.608696
 20
65.967392
  0
VERTEX
  8
0
 10
73.608696
 20
62.467396
  0
SEQEND
  0
POLYLINE
  8
0
 62
     4
 66
     1
 70
     2
  0
VERTEX
  8
0
 10
68.608696
 20
65.967392
  0
VERTEX
  8
0
 10
68.608696
 20
62.467396
  0
SEQEND
  0
POLYLINE
  8
0
 62
     4
 66
     1
 70
     2
  0
VERTEX
  8
0
 10
73.173698
 20
65.967392
  0
VERTEX
  8
0
 10
73.173698
 20
62.467396
  0
SEQEND
  0
POLYLINE
  8
0
 62
     4
 66
     1
 70
     2
  0
VERTEX
  8
0
 10
69.043694
 20
65.967392
  0
VERTEX
  8
0
 10
69.043694
 20
62.467396
  0
SEQEND
  0
POLYLINE
  8
0
 62
     4
 66
     1
 70
     2
  0
VERTEX
  8
0
 10
137.065216
 20
61.589893
  0
VERTEX
  8
0
 10
137.065216
 20
65.538467
  0
SEQEND
  0
POLYLINE
  8
0
 62
     4
 66
     1
 70
     2
  0
VERTEX
  8
0
 10
142.065216
 20
61.589893
  0
VERTEX
  8
0
 10
142.065216
 20
65.538467
  0
SEQEND
  0
POLYLINE
  8
0
 62
     4
 66
     1
 70
     2
  0
VERTEX
  8
0
 10
137.500214
 20
61.893147
  0
VERTEX
  8
0
 10
137.500214
 20
65.677513
  0
SEQEND
  0
POLYLINE
  8
0
 62
     4
 66
     1
 70
     2
  0
VERTEX
  8
0
 10
141.630219
 20
61.893147
  0
VERTEX
  8
0
 10
141.630219
 20
65.677513
  0
SEQEND
  0
POLYLINE
  8
0
 62
     5
 66
     1
 70
     2
  0
VERTEX
  8
0
 10
139.565216
 20
65.967392
  0
VERTEX
  8
0
 10
126.652176
 20
87.489136
  0
VERTEX
  8
0
 10
134.543488
 20
87.489136
  0
SEQEND
  0
POLYLINE
  8
0
 62
     5
 66
     1
 70
     2
  0
VERTEX
  8
0
 10
137.658234
 20
67.751358
  0
VERTEX
  8
0
 10
139.565216
 20
65.967392
  0
VERTEX
  8
0
 10
138.888550
 20
68.489548
  0
SEQEND
  0
TEXT
  8
0
 62
     7
 10
127.369568
 20
88.206528
 40
3.443478
 41
1.000000
  1
M5
  7
KANJI
 50
0.000000
 51
0.000000
  0
LINE
  8
0
 62
     5
 10
94.760872
 20
50.163048
 11
94.760872
 21
66.771744
  0
POLYLINE
  8
0
 62
     5
 66
     1
 70
     2
  0
VERTEX
  8
0
 10
94.043480
 20
64.978264
  0
VERTEX
  8
0
 10
94.760872
 20
62.467396
  0
VERTEX
  8
0
 10
95.478264
 20
64.978264
  0
SEQEND
  0
POLYLINE
  8
0
 62
     5
 66
     1
 70
     2
  0
VERTEX
  8
0
 10
95.478264
 20
51.956528
  0
VERTEX
  8
0
 10
94.760872
 20
54.467396
  0
VERTEX
  8
0
 10
94.043480
 20
51.956528
  0
SEQEND
  0
LINE
  8
0
 62
     5
 10
76.108696
 20
62.467396
 11
95.836960
 21
62.467396
  0
LINE
  8
0
 62
     5
 10
76.108696
 20
54.467396
 11
95.836960
 21
54.467396
  0
TEXT
  8
0
 62
     7
 10
94.043480
 20
53.086960
 40
3.586957
 41
1.000000
  1
%%c8H7
  7
KANJI
 50
90.000000
 51
0.000000
  0
POLYLINE
  8
0
 62
     4
 66
     1
 70
     2
  0
VERTEX
  8
0
 10
58.108696
 20
53.967396
  0
VERTEX
  8
0
 10
58.108696
 20
48.967396
  0
VERTEX
  8
0
 10
58.608696
 20
48.467396
  0
VERTEX
  8
0
 10
65.608696
 20
48.467396
  0
VERTEX
  8
0
 10
66.108696
 20
48.967396
  0
VERTEX
  8
0
 10
66.108696
 20
50.467396
  0
SEQEND
  0
POLYLINE
  8
0
 62
     4
 66
     1
 70
     2
  0
VERTEX
  8
0
 10
66.608696
 20
50.967396
  0
VERTEX
  8
0
 10
75.608696
 20
50.967396
  0
VERTEX
  8
0
 10
76.108696
 20
51.467396
  0
VERTEX
  8
0
 10
76.108696
 20
65.467392
  0
VERTEX
  8
0
 10
75.608696
 20
65.967392
  0
VERTEX
  8
0
 10
66.608696
 20
65.967392
  0
SEQEND
  0
POLYLINE
  8
0
 62
     4
 66
     1
 70
     2
  0
VERTEX
  8
0
 10
66.108696
 20
66.467392
  0
VERTEX
  8
0
 10
66.108696
 20
67.967392
  0
VERTEX
  8
0
 10
65.608696
 20
68.467392
  0
VERTEX
  8
0
 10
58.608696
 20
68.467392
  0
VERTEX
  8
0
 10
58.108696
 20
67.967392
  0
VERTEX
  8
0
 10
58.108696
 20
53.967396
  0
SEQEND
  0
CIRCLE
  8
0
 62
     4
 10
139.565216
 20
58.467396
 40
4.000000
  0
LINE
  8
DASHDOT
 62
     7
 10
139.565216
 20
69.554352
 11
139.565216
 21
48.815224
  0
LINE
  8
DASHDOT
 62
     7
 10
129.913040
 20
58.467396
 11
149.217392
 21
58.467396
  0
LINE
  8
0
 62
     7
 10
54.521740
 20
67.467392
 11
43.760872
 21
67.467392
  0
POLYLINE
  8
0
 62
     7
 66
     1
 70
     2
  0
VERTEX
  8
0
 10
46.630436
 20
67.467392
  0
VERTEX
  8
0
 10
45.231522
 20
69.892181
  0
VERTEX
  8
0
 10
53.625000
 20
69.892181
  0
VERTEX
  8
0
 10
52.226089
 20
67.467392
  0
VERTEX
  8
0
 10
50.827175
 20
69.892181
  0
VERTEX
  8
0
 10
49.428261
 20
67.467392
  0
VERTEX
  8
0
 10
48.029350
 20
69.892181
  0
VERTEX
  8
0
 10
46.630436
 20
67.467392
  0
SEQEND
  0
POLYLINE
  8
0
 62
     7
 66
     1
 70
     2
  0
VERTEX
  8
0
 10
49.894566
 20
71.104568
  0
VERTEX
  8
0
 10
50.360870
 20
71.104568
  0
VERTEX
  8
0
 10
50.360870
 20
70.824783
  0
VERTEX
  8
0
 10
49.894566
 20
70.358482
  0
VERTEX
  8
0
 10
48.961956
 20
70.358482
  0
VERTEX
  8
0
 10
48.495651
 20
70.824783
  0
VERTEX
  8
0
 10
48.495651
 20
72.223701
  0
VERTEX
  8
0
 10
48.961956
 20
72.690002
  0
VERTEX
  8
0
 10
49.894566
 20
72.690002
  0
VERTEX
  8
0
 10
50.360870
 20
72.223701
  0
VERTEX
  8
0
 10
50.360870
 20
71.943916
  0
SEQEND
  0
CIRCLE
  8
0
 62
     4
 10
139.565216
 20
58.467396
 40
7.500000
  0
LINE
  8
0
 62
     5
 10
71.108696
 20
72.054352
 11
76.108696
 21
72.054352
  0
POLYLINE
  8
0
 62
     5
 66
     1
 70
     2
  0
VERTEX
  8
0
 10
73.619568
 20
72.771744
  0
VERTEX
  8
0
 10
71.108696
 20
72.054352
  0
VERTEX
  8
0
 10
73.619568
 20
71.336960
  0
SEQEND
  0
POLYLINE
  8
0
 62
     5
 66
     1
 70
     2
  0
VERTEX
  8
0
 10
73.597824
 20
71.336960
  0
VERTEX
  8
0
 10
76.108696
 20
72.054352
  0
VERTEX
  8
0
 10
73.597824
 20
72.771744
  0
SEQEND
  0
LINE
  8
0
 62
     5
 10
71.108696
 20
68.467392
 11
71.108696
 21
73.130440
  0
TEXT
  8
0
 62
     7
 10
72.442932
 20
72.628265
 40
3.586957
 41
1.000000
  1
5
  7
KANJI
 50
0.000000
 51
0.000000
  0
LINE
  8
0
 62
     5
 10
71.108696
 20
65.967392
 11
71.108696
 21
68.467392
  0
ENDSEC
  0
EOF
