  0
SECTION
  2
HEADER
  9
$ACADVER
  1
AC1003
  9
$INSBASE
 10
0.000000
 20
0.000000
  9
$EXTMIN
 10
0.000000
 20
0.000000
  9
$EXTMAX
 10
183.913043
 20
127.173913
  9
$LIMMIN
 10
0.000000
 20
0.000000
  9
$LIMMAX
 10
183.913043
 20
127.173913
  9
$VIEWCTR
 10
91.956522
 20
63.586957
  9
$VIEWSIZE
 40
127.173913
  0
ENDSEC
  0
SECTION
  2
TABLES
  0
TABLE
  2
LTYPE
 70
     4
  0
LTYPE
  2
CONTINUOUS
 70
    64
  3
SolidLine
 72
    65
 73
     0
 40
0.0
  0
LTYPE
  2
HIDDEN
 70
    64
  3
------------------------
 72
    65
 73
     2
 40
1.956522
 49
1.304348
 49
-0.652174
  0
LTYPE
  2
DASHDOT
 70
    64
  3
--?--?--?--?--?--?--?--
 72
    65
 73
     4
 40
7.826087
 49
5.869565
 49
-0.652174
 49
0.652174
 49
-0.652174
  0
LTYPE
  2
DIVIDE
 70
    64
  3
--??--??--??--??--??--
 72
    65
 73
     6
 40
9.782609
 49
6.521739
 49
-0.652174
 49
0.652174
 49
-0.652174
 49
0.652174
 49
-0.652174
  0
ENDTAB
  0
TABLE
  2
LAYER
 70
     5
  0
LAYER
  2
0
 70
    64
 62
     7
  6
CONTINUOUS
  0
LAYER
  2
HIDDEN
 70
    64
 62
     2
  6
HIDDEN
  0
LAYER
  2
DASHDOT
 70
    64
 62
     6
  6
DASHDOT
  0
LAYER
  2
DIVIDE
 70
    64
 62
     5
  6
DIVIDE
  0
ENDTAB
  0
TABLE
  2
STYLE
 70
     1
  0
STYLE
  2
STANDARD
 70
    64
 40
0.0
 41
1.0
 50
0.0
 71
     0
 42
0.2
  3
TXT
  4

  0
STYLE
  2
KANJI
 70
    64
 40
0.0
 41
1.0
 50
0.0
 71
     0
 42
0.2
  3
TXT
  4
BIGFONT
  0
ENDTAB
  0
TABLE
  2
VIEW
 70
     0
  0
ENDTAB
  0
ENDSEC
  0
SECTION
  2
BLOCKS
  0
ENDSEC
  0
SECTION
  2
ENTITIES
  0
TEXT
  8
0
 62
     7
 10
6.521739
 20
7.173913
 40
2.608696
 41
1.000000
  1
KHK SSG1-15
  7
KANJI
 50
0.000000
 51
0.000000
  0
TEXT
  8
0
 62
     7
 10
6.521739
 20
3.260870
 40
2.608696
 41
1.000000
  1

  7
KANJI
 50
0.000000
 51
0.000000
  0
TEXT
  8
0
 62
     7
 10
6.521739
 20
117.391304
 40
2.934783
 41
1.000000
  1
Black oxide except gear tooth
  7
KANJI
 50
0.000000
 51
0.000000
  0
POLYLINE
  8
0
 62
     7
 66
     1
 70
     2
  0
VERTEX
  8
0
 10
130.434784
 20
117.391304
  0
VERTEX
  8
0
 10
127.891304
 20
121.800003
  0
VERTEX
  8
0
 10
138.065216
 20
121.800003
  0
VERTEX
  8
0
 10
135.521744
 20
117.391304
  0
VERTEX
  8
0
 10
132.978256
 20
121.800003
  0
VERTEX
  8
0
 10
130.434784
 20
117.391304
  0
SEQEND
  0
POLYLINE
  8
0
 62
     7
 66
     1
 70
     2
  0
VERTEX
  8
0
 10
148.239136
 20
117.391304
  0
VERTEX
  8
0
 10
145.695648
 20
121.800003
  0
VERTEX
  8
0
 10
160.956528
 20
121.800003
  0
VERTEX
  8
0
 10
158.413040
 20
117.391304
  0
VERTEX
  8
0
 10
155.869568
 20
121.800003
  0
VERTEX
  8
0
 10
153.326096
 20
117.391304
  0
VERTEX
  8
0
 10
150.782608
 20
121.800003
  0
VERTEX
  8
0
 10
148.239136
 20
117.391304
  0
SEQEND
  0
POLYLINE
  8
0
 62
     7
 66
     1
 70
     2
  0
VERTEX
  8
0
 10
154.173920
 20
124.004349
  0
VERTEX
  8
0
 10
155.021744
 20
124.004349
  0
VERTEX
  8
0
 10
155.021744
 20
123.495651
  0
VERTEX
  8
0
 10
154.173920
 20
122.647827
  0
VERTEX
  8
0
 10
152.478256
 20
122.647827
  0
VERTEX
  8
0
 10
151.630432
 20
123.495651
  0
VERTEX
  8
0
 10
151.630432
 20
126.039131
  0
VERTEX
  8
0
 10
152.478256
 20
126.886955
  0
VERTEX
  8
0
 10
154.173920
 20
126.886955
  0
VERTEX
  8
0
 10
155.021744
 20
126.039131
  0
VERTEX
  8
0
 10
155.021744
 20
125.530434
  0
SEQEND
  0
POLYLINE
  8
0
 62
     7
 66
     1
 70
     2
  0
VERTEX
  8
0
 10
141.965225
 20
121.800003
  0
VERTEX
  8
0
 10
141.286957
 20
121.121742
  0
VERTEX
  8
0
 10
141.286957
 20
118.069565
  0
VERTEX
  8
0
 10
141.965225
 20
117.391304
  0
SEQEND
  0
POLYLINE
  8
0
 62
     7
 66
     1
 70
     2
  0
VERTEX
  8
0
 10
164.178253
 20
121.800003
  0
VERTEX
  8
0
 10
164.856522
 20
121.121742
  0
VERTEX
  8
0
 10
164.856522
 20
118.069565
  0
VERTEX
  8
0
 10
164.178253
 20
117.391304
  0
SEQEND
  0
LINE
  8
0
 62
     5
 10
103.434784
 20
61.652172
 11
103.434784
 21
44.652172
  0
POLYLINE
  8
0
 62
     5
 66
     1
 70
     2
  0
VERTEX
  8
0
 10
104.086952
 20
59.369564
  0
VERTEX
  8
0
 10
103.434784
 20
61.652172
  0
VERTEX
  8
0
 10
102.782608
 20
59.369564
  0
SEQEND
  0
POLYLINE
  8
0
 62
     5
 66
     1
 70
     2
  0
VERTEX
  8
0
 10
102.782608
 20
46.934780
  0
VERTEX
  8
0
 10
103.434784
 20
44.652172
  0
VERTEX
  8
0
 10
104.086952
 20
46.934780
  0
SEQEND
  0
LINE
  8
0
 62
     5
 10
70.826080
 20
61.652172
 11
104.413040
 21
61.652172
  0
LINE
  8
0
 62
     5
 10
70.826080
 20
44.652172
 11
104.413040
 21
44.652172
  0
TEXT
  8
0
 62
     7
 10
102.782608
 20
49.320648
 40
3.260870
 41
1.000000
  1
%%c17
  7
KANJI
 50
90.000000
 51
0.000000
  0
LINE
  8
DASHDOT
 62
     7
 10
50.869564
 20
60.652172
 11
62.782608
 21
60.652172
  0
LINE
  8
DASHDOT
 62
     7
 10
50.869564
 20
45.652172
 11
62.782608
 21
45.652172
  0
LINE
  8
DASHDOT
 62
     7
 10
50.869564
 20
53.152172
 11
72.782608
 21
53.152172
  0
LINE
  8
0
 62
     5
 10
60.826084
 20
61.152172
 11
60.826084
 21
61.652172
  0
LINE
  8
0
 62
     5
 10
52.826084
 20
61.152172
 11
52.826084
 21
61.652172
  0
LINE
  8
0
 62
     5
 10
61.326084
 20
59.152172
 11
70.826080
 21
59.152172
  0
LINE
  8
0
 62
     5
 10
61.326084
 20
47.152172
 11
70.826080
 21
47.152172
  0
LINE
  8
0
 62
     5
 10
60.326084
 20
61.652172
 11
70.826080
 21
61.652172
  0
LINE
  8
0
 62
     5
 10
60.326084
 20
44.652172
 11
70.826080
 21
44.652172
  0
LINE
  8
0
 62
     4
 10
52.826084
 20
59.402172
 11
60.826084
 21
59.402172
  0
LINE
  8
0
 62
     4
 10
52.826084
 20
46.902172
 11
60.826084
 21
46.902172
  0
LINE
  8
0
 62
     4
 10
70.326080
 20
50.152172
 11
70.826080
 21
49.652172
  0
LINE
  8
0
 62
     4
 10
70.326080
 20
56.152172
 11
70.826080
 21
56.652172
  0
LINE
  8
0
 62
     4
 10
53.326084
 20
56.152172
 11
53.326084
 21
50.152172
  0
POLYLINE
  8
0
 62
     4
 66
     1
 70
     2
  0
VERTEX
  8
0
 10
52.826084
 20
49.652172
  0
VERTEX
  8
0
 10
53.326084
 20
50.152172
  0
VERTEX
  8
0
 10
70.326080
 20
50.152172
  0
VERTEX
  8
0
 10
70.326080
 20
56.152172
  0
VERTEX
  8
0
 10
53.326084
 20
56.152172
  0
VERTEX
  8
0
 10
52.826084
 20
56.652172
  0
SEQEND
  0
ARC
  8
0
 62
     4
 10
61.326084
 20
59.652172
 40
0.500000
 50
180.0
 51
270.0
  0
ARC
  8
0
 62
     4
 10
61.326084
 20
46.652172
 40
0.500000
 50
90.0
 51
180.0
  0
LINE
  8
0
 62
     5
 10
70.826080
 20
58.652172
 11
70.826080
 21
61.652172
  0
LINE
  8
0
 62
     5
 10
52.826084
 20
79.260864
 11
60.826084
 21
79.260864
  0
POLYLINE
  8
0
 62
     5
 66
     1
 70
     2
  0
VERTEX
  8
0
 10
55.108692
 20
79.913040
  0
VERTEX
  8
0
 10
52.826084
 20
79.260864
  0
VERTEX
  8
0
 10
55.108692
 20
78.608696
  0
SEQEND
  0
POLYLINE
  8
0
 62
     5
 66
     1
 70
     2
  0
VERTEX
  8
0
 10
58.543476
 20
78.608696
  0
VERTEX
  8
0
 10
60.826084
 20
79.260864
  0
VERTEX
  8
0
 10
58.543476
 20
79.913040
  0
SEQEND
  0
LINE
  8
0
 62
     5
 10
60.826084
 20
61.652172
 11
60.826084
 21
80.239128
  0
TEXT
  8
0
 62
     7
 10
55.766300
 20
79.782608
 40
3.260870
 41
1.000000
  1
8
  7
KANJI
 50
0.000000
 51
0.000000
  0
LINE
  8
0
 62
     5
 10
52.826084
 20
84.478256
 11
70.826080
 21
84.478256
  0
POLYLINE
  8
0
 62
     5
 66
     1
 70
     2
  0
VERTEX
  8
0
 10
55.108692
 20
85.130432
  0
VERTEX
  8
0
 10
52.826084
 20
84.478256
  0
VERTEX
  8
0
 10
55.108692
 20
83.826080
  0
SEQEND
  0
POLYLINE
  8
0
 62
     5
 66
     1
 70
     2
  0
VERTEX
  8
0
 10
68.543472
 20
83.826080
  0
VERTEX
  8
0
 10
70.826080
 20
84.478256
  0
VERTEX
  8
0
 10
68.543472
 20
85.130432
  0
SEQEND
  0
LINE
  8
0
 62
     5
 10
52.826084
 20
61.652172
 11
52.826084
 21
85.456520
  0
LINE
  8
0
 62
     5
 10
70.826080
 20
61.652172
 11
70.826080
 21
85.456520
  0
TEXT
  8
0
 62
     7
 10
59.706520
 20
85.000000
 40
3.260870
 41
1.000000
  1
18
  7
KANJI
 50
0.000000
 51
0.000000
  0
LINE
  8
0
 62
     5
 10
60.826084
 20
79.260864
 11
70.826080
 21
79.260864
  0
POLYLINE
  8
0
 62
     5
 66
     1
 70
     2
  0
VERTEX
  8
0
 10
63.108692
 20
79.913040
  0
VERTEX
  8
0
 10
60.826084
 20
79.260864
  0
VERTEX
  8
0
 10
63.108692
 20
78.608696
  0
SEQEND
  0
POLYLINE
  8
0
 62
     5
 66
     1
 70
     2
  0
VERTEX
  8
0
 10
68.543472
 20
78.608696
  0
VERTEX
  8
0
 10
70.826080
 20
79.260864
  0
VERTEX
  8
0
 10
68.543472
 20
79.913040
  0
SEQEND
  0
TEXT
  8
0
 62
     7
 10
63.706520
 20
79.782608
 40
3.260870
 41
1.000000
  1
10
  7
KANJI
 50
0.000000
 51
0.000000
  0
LINE
  8
0
 62
     5
 10
98.217392
 20
59.152172
 11
98.217392
 21
47.152172
  0
POLYLINE
  8
0
 62
     5
 66
     1
 70
     2
  0
VERTEX
  8
0
 10
98.869560
 20
56.869564
  0
VERTEX
  8
0
 10
98.217392
 20
59.152172
  0
VERTEX
  8
0
 10
97.565216
 20
56.869564
  0
SEQEND
  0
POLYLINE
  8
0
 62
     5
 66
     1
 70
     2
  0
VERTEX
  8
0
 10
97.565216
 20
49.434780
  0
VERTEX
  8
0
 10
98.217392
 20
47.152172
  0
VERTEX
  8
0
 10
98.869560
 20
49.434780
  0
SEQEND
  0
LINE
  8
0
 62
     5
 10
70.826080
 20
59.152172
 11
99.195648
 21
59.152172
  0
LINE
  8
0
 62
     5
 10
70.826080
 20
47.152172
 11
99.195648
 21
47.152172
  0
TEXT
  8
0
 62
     7
 10
97.565216
 20
49.320648
 40
3.260870
 41
1.000000
  1
%%c12
  7
KANJI
 50
90.000000
 51
0.000000
  0
LINE
  8
0
 62
     5
 10
87.782608
 20
46.239128
 11
87.782608
 21
60.065216
  0
POLYLINE
  8
0
 62
     5
 66
     1
 70
     2
  0
VERTEX
  8
0
 10
87.130432
 20
58.434780
  0
VERTEX
  8
0
 10
87.782608
 20
56.152172
  0
VERTEX
  8
0
 10
88.434776
 20
58.434780
  0
SEQEND
  0
POLYLINE
  8
0
 62
     5
 66
     1
 70
     2
  0
VERTEX
  8
0
 10
88.434776
 20
47.869564
  0
VERTEX
  8
0
 10
87.782608
 20
50.152172
  0
VERTEX
  8
0
 10
87.130432
 20
47.869564
  0
SEQEND
  0
LINE
  8
0
 62
     5
 10
70.826080
 20
56.152172
 11
88.760864
 21
56.152172
  0
LINE
  8
0
 62
     5
 10
70.826080
 20
50.152172
 11
88.760864
 21
50.152172
  0
TEXT
  8
0
 62
     7
 10
87.130432
 20
48.260868
 40
3.260870
 41
1.000000
  1
%%c6H7
  7
KANJI
 50
90.000000
 51
0.000000
  0
POLYLINE
  8
0
 62
     4
 66
     1
 70
     2
  0
VERTEX
  8
0
 10
52.826084
 20
49.652172
  0
VERTEX
  8
0
 10
52.826084
 20
45.152172
  0
VERTEX
  8
0
 10
53.326084
 20
44.652172
  0
VERTEX
  8
0
 10
60.326084
 20
44.652172
  0
VERTEX
  8
0
 10
60.826084
 20
45.152172
  0
VERTEX
  8
0
 10
60.826084
 20
46.652172
  0
SEQEND
  0
POLYLINE
  8
0
 62
     4
 66
     1
 70
     2
  0
VERTEX
  8
0
 10
61.326084
 20
47.152172
  0
VERTEX
  8
0
 10
70.326080
 20
47.152172
  0
VERTEX
  8
0
 10
70.826080
 20
47.652172
  0
VERTEX
  8
0
 10
70.826080
 20
58.652172
  0
VERTEX
  8
0
 10
70.326080
 20
59.152172
  0
VERTEX
  8
0
 10
61.326084
 20
59.152172
  0
SEQEND
  0
POLYLINE
  8
0
 62
     4
 66
     1
 70
     2
  0
VERTEX
  8
0
 10
60.826084
 20
59.652172
  0
VERTEX
  8
0
 10
60.826084
 20
61.152172
  0
VERTEX
  8
0
 10
60.326084
 20
61.652172
  0
VERTEX
  8
0
 10
53.326084
 20
61.652172
  0
VERTEX
  8
0
 10
52.826084
 20
61.152172
  0
VERTEX
  8
0
 10
52.826084
 20
49.652172
  0
SEQEND
  0
LINE
  8
0
 62
     7
 10
49.565216
 20
60.652172
 11
39.782608
 21
60.652172
  0
POLYLINE
  8
0
 62
     7
 66
     1
 70
     2
  0
VERTEX
  8
0
 10
42.391300
 20
60.652172
  0
VERTEX
  8
0
 10
41.119560
 20
62.856522
  0
VERTEX
  8
0
 10
48.749996
 20
62.856522
  0
VERTEX
  8
0
 10
47.478256
 20
60.652172
  0
VERTEX
  8
0
 10
46.206520
 20
62.856522
  0
VERTEX
  8
0
 10
44.934780
 20
60.652172
  0
VERTEX
  8
0
 10
43.663040
 20
62.856522
  0
VERTEX
  8
0
 10
42.391300
 20
60.652172
  0
SEQEND
  0
POLYLINE
  8
0
 62
     7
 66
     1
 70
     2
  0
VERTEX
  8
0
 10
45.358692
 20
63.958694
  0
VERTEX
  8
0
 10
45.782604
 20
63.958694
  0
VERTEX
  8
0
 10
45.782604
 20
63.704346
  0
VERTEX
  8
0
 10
45.358692
 20
63.280434
  0
VERTEX
  8
0
 10
44.510864
 20
63.280434
  0
VERTEX
  8
0
 10
44.086952
 20
63.704346
  0
VERTEX
  8
0
 10
44.086952
 20
64.976089
  0
VERTEX
  8
0
 10
44.510864
 20
65.399994
  0
VERTEX
  8
0
 10
45.358692
 20
65.399994
  0
VERTEX
  8
0
 10
45.782604
 20
64.976089
  0
VERTEX
  8
0
 10
45.782604
 20
64.721741
  0
SEQEND
  0
ENDSEC
  0
EOF
