  0
SECTION
  2
HEADER
  9
$ACADVER
  1
AC1003
  9
$INSBASE
 10
0.000000
 20
0.000000
  9
$EXTMIN
 10
0.000000
 20
0.000000
  9
$EXTMAX
 10
373.956522
 20
258.586957
  9
$LIMMIN
 10
0.000000
 20
0.000000
  9
$LIMMAX
 10
373.956522
 20
258.586957
  9
$VIEWCTR
 10
186.978261
 20
129.293478
  9
$VIEWSIZE
 40
258.586957
  0
ENDSEC
  0
SECTION
  2
TABLES
  0
TABLE
  2
LTYPE
 70
     4
  0
LTYPE
  2
CONTINUOUS
 70
    64
  3
SolidLine
 72
    65
 73
     0
 40
0.0
  0
LTYPE
  2
HIDDEN
 70
    64
  3
------------------------
 72
    65
 73
     2
 40
3.978261
 49
2.652174
 49
-1.326087
  0
LTYPE
  2
DASHDOT
 70
    64
  3
--?--?--?--?--?--?--?--
 72
    65
 73
     4
 40
15.913043
 49
11.934783
 49
-1.326087
 49
1.326087
 49
-1.326087
  0
LTYPE
  2
DIVIDE
 70
    64
  3
--??--??--??--??--??--
 72
    65
 73
     6
 40
19.891304
 49
13.260870
 49
-1.326087
 49
1.326087
 49
-1.326087
 49
1.326087
 49
-1.326087
  0
ENDTAB
  0
TABLE
  2
LAYER
 70
     5
  0
LAYER
  2
0
 70
    64
 62
     7
  6
CONTINUOUS
  0
LAYER
  2
HIDDEN
 70
    64
 62
     2
  6
HIDDEN
  0
LAYER
  2
DASHDOT
 70
    64
 62
     6
  6
DASHDOT
  0
LAYER
  2
DIVIDE
 70
    64
 62
     5
  6
DIVIDE
  0
ENDTAB
  0
TABLE
  2
STYLE
 70
     1
  0
STYLE
  2
STANDARD
 70
    64
 40
0.0
 41
1.0
 50
0.0
 71
     0
 42
0.2
  3
TXT
  4

  0
STYLE
  2
KANJI
 70
    64
 40
0.0
 41
1.0
 50
0.0
 71
     0
 42
0.2
  3
TXT
  4
BIGFONT
  0
ENDTAB
  0
TABLE
  2
VIEW
 70
     0
  0
ENDTAB
  0
ENDSEC
  0
SECTION
  2
BLOCKS
  0
ENDSEC
  0
SECTION
  2
ENTITIES
  0
TEXT
  8
0
 62
     7
 10
13.260870
 20
14.586957
 40
5.304348
 41
1.000000
  1
KHK SSG1.5-26
  7
KANJI
 50
0.000000
 51
0.000000
  0
TEXT
  8
0
 62
     7
 10
13.260870
 20
6.630435
 40
5.304348
 41
1.000000
  1

  7
KANJI
 50
0.000000
 51
0.000000
  0
TEXT
  8
0
 62
     7
 10
13.260870
 20
238.695648
 40
5.967391
 41
1.000000
  1
Black oxide except gear tooth
  7
KANJI
 50
0.000000
 51
0.000000
  0
POLYLINE
  8
0
 62
     7
 66
     1
 70
     2
  0
VERTEX
  8
0
 10
265.217377
 20
238.695648
  0
VERTEX
  8
0
 10
260.045624
 20
247.660004
  0
VERTEX
  8
0
 10
280.732605
 20
247.660004
  0
VERTEX
  8
0
 10
275.560852
 20
238.695648
  0
VERTEX
  8
0
 10
270.389130
 20
247.660004
  0
VERTEX
  8
0
 10
265.217377
 20
238.695648
  0
SEQEND
  0
POLYLINE
  8
0
 62
     7
 66
     1
 70
     2
  0
VERTEX
  8
0
 10
301.419556
 20
238.695648
  0
VERTEX
  8
0
 10
296.247803
 20
247.660004
  0
VERTEX
  8
0
 10
327.278259
 20
247.660004
  0
VERTEX
  8
0
 10
322.106506
 20
238.695648
  0
VERTEX
  8
0
 10
316.934753
 20
247.660004
  0
VERTEX
  8
0
 10
311.763031
 20
238.695648
  0
VERTEX
  8
0
 10
306.591278
 20
247.660004
  0
VERTEX
  8
0
 10
301.419556
 20
238.695648
  0
SEQEND
  0
POLYLINE
  8
0
 62
     7
 66
     1
 70
     2
  0
VERTEX
  8
0
 10
313.486938
 20
252.142166
  0
VERTEX
  8
0
 10
315.210846
 20
252.142166
  0
VERTEX
  8
0
 10
315.210846
 20
251.107819
  0
VERTEX
  8
0
 10
313.486938
 20
249.383911
  0
VERTEX
  8
0
 10
310.039124
 20
249.383911
  0
VERTEX
  8
0
 10
308.315186
 20
251.107819
  0
VERTEX
  8
0
 10
308.315186
 20
256.279572
  0
VERTEX
  8
0
 10
310.039124
 20
258.003479
  0
VERTEX
  8
0
 10
313.486938
 20
258.003479
  0
VERTEX
  8
0
 10
315.210846
 20
256.279572
  0
VERTEX
  8
0
 10
315.210846
 20
255.245209
  0
SEQEND
  0
POLYLINE
  8
0
 62
     7
 66
     1
 70
     2
  0
VERTEX
  8
0
 10
288.662598
 20
247.660004
  0
VERTEX
  8
0
 10
287.283478
 20
246.280869
  0
VERTEX
  8
0
 10
287.283478
 20
240.074783
  0
VERTEX
  8
0
 10
288.662598
 20
238.695648
  0
SEQEND
  0
POLYLINE
  8
0
 62
     7
 66
     1
 70
     2
  0
VERTEX
  8
0
 10
333.829102
 20
247.660004
  0
VERTEX
  8
0
 10
335.208252
 20
246.280869
  0
VERTEX
  8
0
 10
335.208252
 20
240.074783
  0
VERTEX
  8
0
 10
333.829102
 20
238.695648
  0
SEQEND
  0
LINE
  8
0
 62
     5
 10
202.717377
 20
129.076080
 11
202.717377
 21
87.076080
  0
POLYLINE
  8
0
 62
     5
 66
     1
 70
     2
  0
VERTEX
  8
0
 10
204.043472
 20
124.434776
  0
VERTEX
  8
0
 10
202.717377
 20
129.076080
  0
VERTEX
  8
0
 10
201.391296
 20
124.434776
  0
SEQEND
  0
POLYLINE
  8
0
 62
     5
 66
     1
 70
     2
  0
VERTEX
  8
0
 10
201.391296
 20
91.717384
  0
VERTEX
  8
0
 10
202.717377
 20
87.076080
  0
VERTEX
  8
0
 10
204.043472
 20
91.717384
  0
SEQEND
  0
LINE
  8
0
 62
     5
 10
136.413040
 20
129.076080
 11
204.706512
 21
129.076080
  0
LINE
  8
0
 62
     5
 10
136.413040
 20
87.076080
 11
204.706512
 21
87.076080
  0
TEXT
  8
0
 62
     7
 10
201.391296
 20
100.285324
 40
6.630435
 41
1.000000
  1
%%c42
  7
KANJI
 50
90.000000
 51
0.000000
  0
LINE
  8
DASHDOT
 62
     7
 10
103.434776
 20
127.576080
 11
126.391296
 21
127.576080
  0
LINE
  8
DASHDOT
 62
     7
 10
103.434776
 20
88.576080
 11
126.391296
 21
88.576080
  0
LINE
  8
DASHDOT
 62
     7
 10
103.434776
 20
108.076080
 11
140.391296
 21
108.076080
  0
LINE
  8
0
 62
     5
 10
122.413040
 20
128.576080
 11
122.413040
 21
129.076080
  0
LINE
  8
0
 62
     5
 10
107.413040
 20
128.576080
 11
107.413040
 21
129.076080
  0
LINE
  8
0
 62
     5
 10
123.413040
 20
124.076080
 11
136.413040
 21
124.076080
  0
LINE
  8
0
 62
     5
 10
123.413040
 20
92.076080
 11
136.413040
 21
92.076080
  0
LINE
  8
0
 62
     5
 10
121.913040
 20
129.076080
 11
136.413040
 21
129.076080
  0
LINE
  8
0
 62
     5
 10
121.913040
 20
87.076080
 11
136.413040
 21
87.076080
  0
LINE
  8
0
 62
     4
 10
107.413040
 20
125.701080
 11
122.413040
 21
125.701080
  0
LINE
  8
0
 62
     4
 10
107.413040
 20
90.451080
 11
122.413040
 21
90.451080
  0
LINE
  8
0
 62
     4
 10
135.913040
 20
102.076080
 11
136.413040
 21
101.576080
  0
LINE
  8
0
 62
     4
 10
135.913040
 20
114.076080
 11
136.413040
 21
114.576080
  0
LINE
  8
0
 62
     4
 10
107.913040
 20
114.076080
 11
107.913040
 21
102.076080
  0
POLYLINE
  8
0
 62
     4
 66
     1
 70
     2
  0
VERTEX
  8
0
 10
107.413040
 20
101.576080
  0
VERTEX
  8
0
 10
107.913040
 20
102.076080
  0
VERTEX
  8
0
 10
135.913040
 20
102.076080
  0
VERTEX
  8
0
 10
135.913040
 20
114.076080
  0
VERTEX
  8
0
 10
107.913040
 20
114.076080
  0
VERTEX
  8
0
 10
107.413040
 20
114.576080
  0
SEQEND
  0
ARC
  8
0
 62
     4
 10
123.413040
 20
125.076080
 40
1.000000
 50
180.0
 51
270.0
  0
ARC
  8
0
 62
     4
 10
123.413040
 20
91.076080
 40
1.000000
 50
90.0
 51
180.0
  0
LINE
  8
0
 62
     5
 10
136.413040
 20
123.576080
 11
136.413040
 21
129.076080
  0
LINE
  8
0
 62
     5
 10
107.413040
 20
164.880432
 11
122.413040
 21
164.880432
  0
POLYLINE
  8
0
 62
     5
 66
     1
 70
     2
  0
VERTEX
  8
0
 10
112.054344
 20
166.206512
  0
VERTEX
  8
0
 10
107.413040
 20
164.880432
  0
VERTEX
  8
0
 10
112.054344
 20
163.554337
  0
SEQEND
  0
POLYLINE
  8
0
 62
     5
 66
     1
 70
     2
  0
VERTEX
  8
0
 10
117.771736
 20
163.554337
  0
VERTEX
  8
0
 10
122.413040
 20
164.880432
  0
VERTEX
  8
0
 10
117.771736
 20
166.206512
  0
SEQEND
  0
LINE
  8
0
 62
     5
 10
122.413040
 20
129.076080
 11
122.413040
 21
166.869568
  0
TEXT
  8
0
 62
     7
 10
110.603256
 20
165.941299
 40
6.630435
 41
1.000000
  1
15
  7
KANJI
 50
0.000000
 51
0.000000
  0
LINE
  8
0
 62
     5
 10
107.413040
 20
175.489120
 11
136.413040
 21
175.489120
  0
POLYLINE
  8
0
 62
     5
 66
     1
 70
     2
  0
VERTEX
  8
0
 10
112.054344
 20
176.815216
  0
VERTEX
  8
0
 10
107.413040
 20
175.489120
  0
VERTEX
  8
0
 10
112.054344
 20
174.163025
  0
SEQEND
  0
POLYLINE
  8
0
 62
     5
 66
     1
 70
     2
  0
VERTEX
  8
0
 10
131.771729
 20
174.163025
  0
VERTEX
  8
0
 10
136.413040
 20
175.489120
  0
VERTEX
  8
0
 10
131.771729
 20
176.815216
  0
SEQEND
  0
LINE
  8
0
 62
     5
 10
107.413040
 20
129.076080
 11
107.413040
 21
177.478241
  0
LINE
  8
0
 62
     5
 10
136.413040
 20
129.076080
 11
136.413040
 21
177.478241
  0
TEXT
  8
0
 62
     7
 10
117.603256
 20
176.549988
 40
6.630435
 41
1.000000
  1
29
  7
KANJI
 50
0.000000
 51
0.000000
  0
LINE
  8
0
 62
     5
 10
122.413040
 20
164.880432
 11
136.413040
 21
164.880432
  0
POLYLINE
  8
0
 62
     5
 66
     1
 70
     2
  0
VERTEX
  8
0
 10
127.054344
 20
166.206512
  0
VERTEX
  8
0
 10
122.413040
 20
164.880432
  0
VERTEX
  8
0
 10
127.054344
 20
163.554337
  0
SEQEND
  0
POLYLINE
  8
0
 62
     5
 66
     1
 70
     2
  0
VERTEX
  8
0
 10
131.771729
 20
163.554337
  0
VERTEX
  8
0
 10
136.413040
 20
164.880432
  0
VERTEX
  8
0
 10
131.771729
 20
166.206512
  0
SEQEND
  0
TEXT
  8
0
 62
     7
 10
125.103256
 20
165.941299
 40
6.630435
 41
1.000000
  1
14
  7
KANJI
 50
0.000000
 51
0.000000
  0
LINE
  8
0
 62
     5
 10
192.108688
 20
124.076080
 11
192.108688
 21
92.076080
  0
POLYLINE
  8
0
 62
     5
 66
     1
 70
     2
  0
VERTEX
  8
0
 10
193.434784
 20
119.434776
  0
VERTEX
  8
0
 10
192.108688
 20
124.076080
  0
VERTEX
  8
0
 10
190.782593
 20
119.434776
  0
SEQEND
  0
POLYLINE
  8
0
 62
     5
 66
     1
 70
     2
  0
VERTEX
  8
0
 10
190.782593
 20
96.717384
  0
VERTEX
  8
0
 10
192.108688
 20
92.076080
  0
VERTEX
  8
0
 10
193.434784
 20
96.717384
  0
SEQEND
  0
LINE
  8
0
 62
     5
 10
136.413040
 20
124.076080
 11
194.097809
 21
124.076080
  0
LINE
  8
0
 62
     5
 10
136.413040
 20
92.076080
 11
194.097809
 21
92.076080
  0
TEXT
  8
0
 62
     7
 10
190.782593
 20
100.285324
 40
6.630435
 41
1.000000
  1
%%c32
  7
KANJI
 50
90.000000
 51
0.000000
  0
LINE
  8
0
 62
     5
 10
170.891296
 20
94.119560
 11
170.891296
 21
122.032600
  0
POLYLINE
  8
0
 62
     5
 66
     1
 70
     2
  0
VERTEX
  8
0
 10
169.565216
 20
118.717384
  0
VERTEX
  8
0
 10
170.891296
 20
114.076080
  0
VERTEX
  8
0
 10
172.217377
 20
118.717384
  0
SEQEND
  0
POLYLINE
  8
0
 62
     5
 66
     1
 70
     2
  0
VERTEX
  8
0
 10
172.217377
 20
97.434776
  0
VERTEX
  8
0
 10
170.891296
 20
102.076080
  0
VERTEX
  8
0
 10
169.565216
 20
97.434776
  0
SEQEND
  0
LINE
  8
0
 62
     5
 10
136.413040
 20
114.076080
 11
172.880432
 21
114.076080
  0
LINE
  8
0
 62
     5
 10
136.413040
 20
102.076080
 11
172.880432
 21
102.076080
  0
TEXT
  8
0
 62
     7
 10
169.565216
 20
95.975540
 40
6.630435
 41
1.000000
  1
%%c12H7
  7
KANJI
 50
90.000000
 51
0.000000
  0
POLYLINE
  8
0
 62
     4
 66
     1
 70
     2
  0
VERTEX
  8
0
 10
107.413040
 20
101.576080
  0
VERTEX
  8
0
 10
107.413040
 20
87.576080
  0
VERTEX
  8
0
 10
107.913040
 20
87.076080
  0
VERTEX
  8
0
 10
121.913040
 20
87.076080
  0
VERTEX
  8
0
 10
122.413040
 20
87.576080
  0
VERTEX
  8
0
 10
122.413040
 20
91.076080
  0
SEQEND
  0
POLYLINE
  8
0
 62
     4
 66
     1
 70
     2
  0
VERTEX
  8
0
 10
123.413040
 20
92.076080
  0
VERTEX
  8
0
 10
135.913040
 20
92.076080
  0
VERTEX
  8
0
 10
136.413040
 20
92.576080
  0
VERTEX
  8
0
 10
136.413040
 20
123.576080
  0
VERTEX
  8
0
 10
135.913040
 20
124.076080
  0
VERTEX
  8
0
 10
123.413040
 20
124.076080
  0
SEQEND
  0
POLYLINE
  8
0
 62
     4
 66
     1
 70
     2
  0
VERTEX
  8
0
 10
122.413040
 20
125.076080
  0
VERTEX
  8
0
 10
122.413040
 20
128.576080
  0
VERTEX
  8
0
 10
121.913040
 20
129.076080
  0
VERTEX
  8
0
 10
107.913040
 20
129.076080
  0
VERTEX
  8
0
 10
107.413040
 20
128.576080
  0
VERTEX
  8
0
 10
107.413040
 20
101.576080
  0
SEQEND
  0
LINE
  8
0
 62
     7
 10
100.782608
 20
127.576080
 11
80.891296
 21
127.576080
  0
POLYLINE
  8
0
 62
     7
 66
     1
 70
     2
  0
VERTEX
  8
0
 10
86.195648
 20
127.576080
  0
VERTEX
  8
0
 10
83.609779
 20
132.058258
  0
VERTEX
  8
0
 10
99.125000
 20
132.058258
  0
VERTEX
  8
0
 10
96.539124
 20
127.576080
  0
VERTEX
  8
0
 10
93.953255
 20
132.058258
  0
VERTEX
  8
0
 10
91.367386
 20
127.576080
  0
VERTEX
  8
0
 10
88.781517
 20
132.058258
  0
VERTEX
  8
0
 10
86.195648
 20
127.576080
  0
SEQEND
  0
POLYLINE
  8
0
 62
     7
 66
     1
 70
     2
  0
VERTEX
  8
0
 10
92.229340
 20
134.299347
  0
VERTEX
  8
0
 10
93.091301
 20
134.299347
  0
VERTEX
  8
0
 10
93.091301
 20
133.782166
  0
VERTEX
  8
0
 10
92.229340
 20
132.920212
  0
VERTEX
  8
0
 10
90.505432
 20
132.920212
  0
VERTEX
  8
0
 10
89.643478
 20
133.782166
  0
VERTEX
  8
0
 10
89.643478
 20
136.368042
  0
VERTEX
  8
0
 10
90.505432
 20
137.229996
  0
VERTEX
  8
0
 10
92.229340
 20
137.229996
  0
VERTEX
  8
0
 10
93.091301
 20
136.368042
  0
VERTEX
  8
0
 10
93.091301
 20
135.850861
  0
SEQEND
  0
ENDSEC
  0
EOF
