  0
SECTION
  2
HEADER
  9
$ACADVER
  1
AC1003
  9
$INSBASE
 10
0.000000
 20
0.000000
  9
$EXTMIN
 10
0.000000
 20
0.000000
  9
$EXTMAX
 10
606.913043
 20
419.673913
  9
$LIMMIN
 10
0.000000
 20
0.000000
  9
$LIMMAX
 10
606.913043
 20
419.673913
  9
$VIEWCTR
 10
303.456522
 20
209.836957
  9
$VIEWSIZE
 40
419.673913
  0
ENDSEC
  0
SECTION
  2
TABLES
  0
TABLE
  2
LTYPE
 70
     4
  0
LTYPE
  2
CONTINUOUS
 70
    64
  3
SolidLine
 72
    65
 73
     0
 40
0.0
  0
LTYPE
  2
HIDDEN
 70
    64
  3
------------------------
 72
    65
 73
     2
 40
6.456522
 49
4.304348
 49
-2.152174
  0
LTYPE
  2
DASHDOT
 70
    64
  3
--?--?--?--?--?--?--?--
 72
    65
 73
     4
 40
25.826087
 49
19.369565
 49
-2.152174
 49
2.152174
 49
-2.152174
  0
LTYPE
  2
DIVIDE
 70
    64
  3
--??--??--??--??--??--
 72
    65
 73
     6
 40
32.282609
 49
21.521739
 49
-2.152174
 49
2.152174
 49
-2.152174
 49
2.152174
 49
-2.152174
  0
ENDTAB
  0
TABLE
  2
LAYER
 70
     5
  0
LAYER
  2
0
 70
    64
 62
     7
  6
CONTINUOUS
  0
LAYER
  2
HIDDEN
 70
    64
 62
     2
  6
HIDDEN
  0
LAYER
  2
DASHDOT
 70
    64
 62
     6
  6
DASHDOT
  0
LAYER
  2
DIVIDE
 70
    64
 62
     5
  6
DIVIDE
  0
ENDTAB
  0
TABLE
  2
STYLE
 70
     1
  0
STYLE
  2
STANDARD
 70
    64
 40
0.0
 41
1.0
 50
0.0
 71
     0
 42
0.2
  3
TXT
  4

  0
STYLE
  2
KANJI
 70
    64
 40
0.0
 41
1.0
 50
0.0
 71
     0
 42
0.2
  3
TXT
  4
BIGFONT
  0
ENDTAB
  0
TABLE
  2
VIEW
 70
     0
  0
ENDTAB
  0
ENDSEC
  0
SECTION
  2
BLOCKS
  0
ENDSEC
  0
SECTION
  2
ENTITIES
  0
TEXT
  8
0
 62
     7
 10
21.521740
 20
23.673914
 40
8.608696
 41
1.000000
  1
KHK SSG1.5-80J30
  7
KANJI
 50
0.000000
 51
0.000000
  0
TEXT
  8
0
 62
     7
 10
21.521740
 20
10.760870
 40
8.608696
 41
1.000000
  1
The precision grade of gears after secondary operations is equivalent but not identical to its original grade.
  7
KANJI
 50
0.000000
 51
0.000000
  0
TEXT
  8
0
 62
     7
 10
21.521740
 20
387.391296
 40
9.684783
 41
1.000000
  1
For J Series products, without black oxide repeatedly applied on secondary-operated parts.
  7
KANJI
 50
0.000000
 51
0.000000
  0
POLYLINE
  8
0
 62
     7
 66
     1
 70
     2
  0
VERTEX
  8
0
 10
430.434784
 20
387.391296
  0
VERTEX
  8
0
 10
422.041321
 20
401.940002
  0
VERTEX
  8
0
 10
455.615234
 20
401.940002
  0
VERTEX
  8
0
 10
447.221741
 20
387.391296
  0
VERTEX
  8
0
 10
438.828247
 20
401.940002
  0
VERTEX
  8
0
 10
430.434784
 20
387.391296
  0
SEQEND
  0
POLYLINE
  8
0
 62
     7
 66
     1
 70
     2
  0
VERTEX
  8
0
 10
489.189148
 20
387.391296
  0
VERTEX
  8
0
 10
480.795654
 20
401.940002
  0
VERTEX
  8
0
 10
531.156494
 20
401.940002
  0
VERTEX
  8
0
 10
522.763062
 20
387.391296
  0
VERTEX
  8
0
 10
514.369568
 20
401.940002
  0
VERTEX
  8
0
 10
505.976074
 20
387.391296
  0
VERTEX
  8
0
 10
497.582611
 20
401.940002
  0
VERTEX
  8
0
 10
489.189148
 20
387.391296
  0
SEQEND
  0
POLYLINE
  8
0
 62
     7
 66
     1
 70
     2
  0
VERTEX
  8
0
 10
508.773926
 20
409.214355
  0
VERTEX
  8
0
 10
511.571747
 20
409.214355
  0
VERTEX
  8
0
 10
511.571747
 20
407.535645
  0
VERTEX
  8
0
 10
508.773926
 20
404.737823
  0
VERTEX
  8
0
 10
503.178284
 20
404.737823
  0
VERTEX
  8
0
 10
500.380432
 20
407.535645
  0
VERTEX
  8
0
 10
500.380432
 20
415.929138
  0
VERTEX
  8
0
 10
503.178284
 20
418.726959
  0
VERTEX
  8
0
 10
508.773926
 20
418.726959
  0
VERTEX
  8
0
 10
511.571747
 20
415.929138
  0
VERTEX
  8
0
 10
511.571747
 20
414.250427
  0
SEQEND
  0
POLYLINE
  8
0
 62
     7
 66
     1
 70
     2
  0
VERTEX
  8
0
 10
468.485229
 20
401.940002
  0
VERTEX
  8
0
 10
466.246948
 20
399.701721
  0
VERTEX
  8
0
 10
466.246948
 20
389.629547
  0
VERTEX
  8
0
 10
468.485229
 20
387.391296
  0
SEQEND
  0
POLYLINE
  8
0
 62
     7
 66
     1
 70
     2
  0
VERTEX
  8
0
 10
541.788269
 20
401.940002
  0
VERTEX
  8
0
 10
544.026489
 20
399.701721
  0
VERTEX
  8
0
 10
544.026489
 20
389.629547
  0
VERTEX
  8
0
 10
541.788269
 20
387.391296
  0
SEQEND
  0
LINE
  8
0
 62
     5
 10
310.934784
 20
236.902176
 11
310.934784
 21
113.902176
  0
POLYLINE
  8
0
 62
     5
 66
     1
 70
     2
  0
VERTEX
  8
0
 10
313.086975
 20
229.369568
  0
VERTEX
  8
0
 10
310.934784
 20
236.902176
  0
VERTEX
  8
0
 10
308.782593
 20
229.369568
  0
SEQEND
  0
POLYLINE
  8
0
 62
     5
 66
     1
 70
     2
  0
VERTEX
  8
0
 10
308.782593
 20
121.434784
  0
VERTEX
  8
0
 10
310.934784
 20
113.902176
  0
VERTEX
  8
0
 10
313.086975
 20
121.434784
  0
SEQEND
  0
LINE
  8
0
 62
     5
 10
203.326080
 20
236.902176
 11
314.163025
 21
236.902176
  0
LINE
  8
0
 62
     5
 10
203.326080
 20
113.902176
 11
314.163025
 21
113.902176
  0
TEXT
  8
0
 62
     7
 10
308.782593
 20
159.260864
 40
10.760870
 41
1.000000
  1
%%c123
  7
KANJI
 50
90.000000
 51
0.000000
  0
LINE
  8
DASHDOT
 62
     7
 10
167.869553
 20
235.402176
 11
195.782608
 21
235.402176
  0
LINE
  8
DASHDOT
 62
     7
 10
167.869553
 20
115.402176
 11
195.782608
 21
115.402176
  0
LINE
  8
DASHDOT
 62
     7
 10
167.869553
 20
175.402176
 11
209.782593
 21
175.402176
  0
LINE
  8
0
 62
     5
 10
189.326080
 20
236.402176
 11
189.326080
 21
236.902176
  0
LINE
  8
0
 62
     5
 10
174.326080
 20
236.402176
 11
174.326080
 21
236.902176
  0
LINE
  8
0
 62
     5
 10
190.826080
 20
210.402176
 11
203.326080
 21
210.402176
  0
LINE
  8
0
 62
     5
 10
190.826080
 20
140.402176
 11
203.326080
 21
140.402176
  0
LINE
  8
0
 62
     5
 10
188.826080
 20
236.902176
 11
203.326080
 21
236.902176
  0
LINE
  8
0
 62
     5
 10
188.826080
 20
113.902176
 11
203.326080
 21
113.902176
  0
LINE
  8
0
 62
     4
 10
174.326080
 20
233.527176
 11
189.326080
 21
233.527176
  0
LINE
  8
0
 62
     4
 10
174.326080
 20
117.277176
 11
189.326080
 21
117.277176
  0
LINE
  8
0
 62
     4
 10
202.326080
 20
160.402176
 11
203.326080
 21
159.402176
  0
LINE
  8
0
 62
     4
 10
202.326080
 20
190.402176
 11
203.326080
 21
191.402176
  0
LINE
  8
0
 62
     4
 10
175.326080
 20
190.402176
 11
175.326080
 21
160.402176
  0
POLYLINE
  8
0
 62
     4
 66
     1
 70
     2
  0
VERTEX
  8
0
 10
174.326080
 20
159.402176
  0
VERTEX
  8
0
 10
175.326080
 20
160.402176
  0
VERTEX
  8
0
 10
202.326080
 20
160.402176
  0
VERTEX
  8
0
 10
202.326080
 20
190.402176
  0
VERTEX
  8
0
 10
175.326080
 20
190.402176
  0
VERTEX
  8
0
 10
174.326080
 20
191.402176
  0
SEQEND
  0
ARC
  8
0
 62
     4
 10
190.826080
 20
211.902176
 40
1.500000
 50
180.0
 51
270.0
  0
ARC
  8
0
 62
     4
 10
190.826080
 20
138.902176
 40
1.500000
 50
90.0
 51
180.0
  0
LINE
  8
0
 62
     5
 10
203.326080
 20
209.402176
 11
203.326080
 21
236.902176
  0
LINE
  8
0
 62
     5
 10
202.239120
 20
295.010864
 11
161.413040
 21
295.010864
  0
POLYLINE
  8
0
 62
     5
 66
     1
 70
     2
  0
VERTEX
  8
0
 10
166.793472
 20
292.858704
  0
VERTEX
  8
0
 10
174.326080
 20
295.010864
  0
VERTEX
  8
0
 10
166.793472
 20
297.163055
  0
SEQEND
  0
POLYLINE
  8
0
 62
     5
 66
     1
 70
     2
  0
VERTEX
  8
0
 10
196.858688
 20
297.163055
  0
VERTEX
  8
0
 10
189.326080
 20
295.010864
  0
VERTEX
  8
0
 10
196.858688
 20
292.858704
  0
SEQEND
  0
LINE
  8
0
 62
     5
 10
189.326080
 20
236.902176
 11
189.326080
 21
298.239136
  0
TEXT
  8
0
 62
     7
 10
174.831512
 20
296.732605
 40
10.760870
 41
1.000000
  1
15
  7
KANJI
 50
0.000000
 51
0.000000
  0
LINE
  8
0
 62
     5
 10
174.326080
 20
312.228271
 11
203.326080
 21
312.228271
  0
POLYLINE
  8
0
 62
     5
 66
     1
 70
     2
  0
VERTEX
  8
0
 10
181.858688
 20
314.380432
  0
VERTEX
  8
0
 10
174.326080
 20
312.228271
  0
VERTEX
  8
0
 10
181.858688
 20
310.076080
  0
SEQEND
  0
POLYLINE
  8
0
 62
     5
 66
     1
 70
     2
  0
VERTEX
  8
0
 10
195.793472
 20
310.076080
  0
VERTEX
  8
0
 10
203.326080
 20
312.228271
  0
VERTEX
  8
0
 10
195.793472
 20
314.380432
  0
SEQEND
  0
LINE
  8
0
 62
     5
 10
174.326080
 20
236.902176
 11
174.326080
 21
315.456512
  0
LINE
  8
0
 62
     5
 10
203.326080
 20
236.902176
 11
203.326080
 21
315.456512
  0
TEXT
  8
0
 62
     7
 10
181.831512
 20
313.950012
 40
10.760870
 41
1.000000
  1
29
  7
KANJI
 50
0.000000
 51
0.000000
  0
LINE
  8
0
 62
     5
 10
216.239120
 20
295.010864
 11
176.413040
 21
295.010864
  0
POLYLINE
  8
0
 62
     5
 66
     1
 70
     2
  0
VERTEX
  8
0
 10
181.793472
 20
292.858704
  0
VERTEX
  8
0
 10
189.326080
 20
295.010864
  0
VERTEX
  8
0
 10
181.793472
 20
297.163055
  0
SEQEND
  0
POLYLINE
  8
0
 62
     5
 66
     1
 70
     2
  0
VERTEX
  8
0
 10
210.858688
 20
297.163055
  0
VERTEX
  8
0
 10
203.326080
 20
295.010864
  0
VERTEX
  8
0
 10
210.858688
 20
292.858704
  0
SEQEND
  0
TEXT
  8
0
 62
     7
 10
189.331512
 20
296.732605
 40
10.760870
 41
1.000000
  1
14
  7
KANJI
 50
0.000000
 51
0.000000
  0
LINE
  8
0
 62
     5
 10
293.717377
 20
210.402176
 11
293.717377
 21
140.402176
  0
POLYLINE
  8
0
 62
     5
 66
     1
 70
     2
  0
VERTEX
  8
0
 10
295.869568
 20
202.869568
  0
VERTEX
  8
0
 10
293.717377
 20
210.402176
  0
VERTEX
  8
0
 10
291.565216
 20
202.869568
  0
SEQEND
  0
POLYLINE
  8
0
 62
     5
 66
     1
 70
     2
  0
VERTEX
  8
0
 10
291.565216
 20
147.934784
  0
VERTEX
  8
0
 10
293.717377
 20
140.402176
  0
VERTEX
  8
0
 10
295.869568
 20
147.934784
  0
SEQEND
  0
LINE
  8
0
 62
     5
 10
203.326080
 20
210.402176
 11
296.945648
 21
210.402176
  0
LINE
  8
0
 62
     5
 10
203.326080
 20
140.402176
 11
296.945648
 21
140.402176
  0
TEXT
  8
0
 62
     7
 10
291.565216
 20
162.758148
 40
10.760870
 41
1.000000
  1
%%c70
  7
KANJI
 50
90.000000
 51
0.000000
  0
LINE
  8
DASHDOT
 62
     7
 10
406.195648
 20
221.163040
 11
406.195648
 21
133.945648
  0
LINE
  8
DASHDOT
 62
     7
 10
364.739136
 20
175.402176
 11
447.652161
 21
175.402176
  0
LINE
  8
0
 62
     5
 10
423.108704
 20
240.532608
 11
389.282593
 21
240.532608
  0
POLYLINE
  8
0
 62
     5
 66
     1
 70
     2
  0
VERTEX
  8
0
 10
394.663025
 20
238.380432
  0
VERTEX
  8
0
 10
402.195648
 20
240.532608
  0
VERTEX
  8
0
 10
394.663025
 20
242.684784
  0
SEQEND
  0
POLYLINE
  8
0
 62
     5
 66
     1
 70
     2
  0
VERTEX
  8
0
 10
417.728271
 20
242.684784
  0
VERTEX
  8
0
 10
410.195648
 20
240.532608
  0
VERTEX
  8
0
 10
417.728271
 20
238.380432
  0
SEQEND
  0
LINE
  8
0
 62
     5
 10
402.195648
 20
193.702179
 11
402.195648
 21
243.760864
  0
LINE
  8
0
 62
     5
 10
410.195648
 20
193.702179
 11
410.195648
 21
243.760864
  0
TEXT
  8
0
 62
     7
 10
383.983093
 20
242.684784
 40
10.760870
 41
1.000000
  1
8
  7
KANJI
 50
0.000000
 51
0.000000
  0
TEXT
  8
0
 62
     7
 10
394.635010
 20
242.684784
 40
8.608696
 41
1.000000
  1
%%p0.018
  7
KANJI
 50
0.000000
 51
0.000000
  0
LINE
  8
0
 62
     5
 10
473.478271
 20
147.489136
 11
473.478271
 21
206.615219
  0
POLYLINE
  8
0
 62
     5
 66
     1
 70
     2
  0
VERTEX
  8
0
 10
471.326111
 20
201.234787
  0
VERTEX
  8
0
 10
473.478271
 20
193.702179
  0
VERTEX
  8
0
 10
475.630432
 20
201.234787
  0
SEQEND
  0
POLYLINE
  8
0
 62
     5
 66
     1
 70
     2
  0
VERTEX
  8
0
 10
475.630432
 20
152.869568
  0
VERTEX
  8
0
 10
473.478271
 20
160.402176
  0
VERTEX
  8
0
 10
471.326111
 20
152.869568
  0
SEQEND
  0
LINE
  8
0
 62
     5
 10
410.195648
 20
193.702179
 11
476.706543
 21
193.702179
  0
LINE
  8
0
 62
     5
 10
406.195648
 20
160.402176
 11
476.706543
 21
160.402176
  0
TEXT
  8
0
 62
     7
 10
470.250000
 20
143.039078
 40
10.760870
 41
1.000000
  1
33.3
  7
KANJI
 50
90.000000
 51
0.000000
  0
TEXT
  8
0
 62
     7
 10
470.895660
 20
189.616379
 40
5.380435
 41
1.000000
  1
 
  7
KANJI
 50
90.000000
 51
0.000000
  0
TEXT
  8
0
 62
     7
 10
464.223938
 20
189.616379
 40
5.380435
 41
1.000000
  1
+
  7
KANJI
 50
90.000000
 51
0.000000
  0
TEXT
  8
0
 62
     7
 10
470.895660
 20
195.642471
 40
5.380435
 41
1.000000
  1
0
  7
KANJI
 50
90.000000
 51
0.000000
  0
TEXT
  8
0
 62
     7
 10
464.223938
 20
195.642471
 40
5.380435
 41
1.000000
  1
0.2
  7
KANJI
 50
90.000000
 51
0.000000
  0
ARC
  8
0
 62
     4
 10
406.195648
 20
175.402176
 40
15.000000
 50
105.46601032289746
 51
74.53398967710255
  0
POLYLINE
  8
0
 62
     4
 66
     1
 70
     2
  0
VERTEX
  8
0
 10
410.195648
 20
189.859009
  0
VERTEX
  8
0
 10
410.195648
 20
193.702179
  0
VERTEX
  8
0
 10
402.195648
 20
193.702179
  0
VERTEX
  8
0
 10
402.195648
 20
189.859009
  0
SEQEND
  0
LINE
  8
0
 62
     4
 10
174.326080
 20
193.702179
 11
203.326080
 21
193.702179
  0
POLYLINE
  8
DASHDOT
 62
     7
 66
     1
 70
     2
  0
VERTEX
  8
DASHDOT
 10
196.326080
 20
216.858704
  0
VERTEX
  8
DASHDOT
 10
196.326080
 20
187.245651
  0
SEQEND
  0
POLYLINE
  8
0
 62
     4
 66
     1
 70
     2
  0
VERTEX
  8
0
 10
199.326080
 20
210.402176
  0
VERTEX
  8
0
 10
199.326080
 20
193.702179
  0
SEQEND
  0
POLYLINE
  8
0
 62
     4
 66
     1
 70
     2
  0
VERTEX
  8
0
 10
193.326080
 20
210.402176
  0
VERTEX
  8
0
 10
193.326080
 20
193.702179
  0
SEQEND
  0
POLYLINE
  8
0
 62
     4
 66
     1
 70
     2
  0
VERTEX
  8
0
 10
198.786072
 20
210.402176
  0
VERTEX
  8
0
 10
198.786072
 20
193.702179
  0
SEQEND
  0
POLYLINE
  8
0
 62
     4
 66
     1
 70
     2
  0
VERTEX
  8
0
 10
193.866089
 20
210.402176
  0
VERTEX
  8
0
 10
193.866089
 20
193.702179
  0
SEQEND
  0
POLYLINE
  8
0
 62
     4
 66
     1
 70
     2
  0
VERTEX
  8
0
 10
403.195648
 20
193.702179
  0
VERTEX
  8
0
 10
403.195648
 20
210.273376
  0
SEQEND
  0
POLYLINE
  8
0
 62
     4
 66
     1
 70
     2
  0
VERTEX
  8
0
 10
409.195648
 20
193.702179
  0
VERTEX
  8
0
 10
409.195648
 20
210.273376
  0
SEQEND
  0
POLYLINE
  8
0
 62
     4
 66
     1
 70
     2
  0
VERTEX
  8
0
 10
403.735657
 20
193.702179
  0
VERTEX
  8
0
 10
403.735657
 20
210.315613
  0
SEQEND
  0
POLYLINE
  8
0
 62
     4
 66
     1
 70
     2
  0
VERTEX
  8
0
 10
408.655640
 20
193.702179
  0
VERTEX
  8
0
 10
408.655640
 20
210.315613
  0
SEQEND
  0
POLYLINE
  8
0
 62
     5
 66
     1
 70
     2
  0
VERTEX
  8
0
 10
406.195648
 20
210.402176
  0
VERTEX
  8
0
 10
367.456512
 20
274.967407
  0
VERTEX
  8
0
 10
391.130432
 20
274.967407
  0
SEQEND
  0
POLYLINE
  8
0
 62
     5
 66
     1
 70
     2
  0
VERTEX
  8
0
 10
400.474670
 20
215.754059
  0
VERTEX
  8
0
 10
406.195648
 20
210.402176
  0
VERTEX
  8
0
 10
404.165619
 20
217.968628
  0
SEQEND
  0
TEXT
  8
0
 62
     7
 10
369.608704
 20
277.119568
 40
10.330435
 41
1.000000
  1
M6
  7
KANJI
 50
0.000000
 51
0.000000
  0
CIRCLE
  8
0
 62
     7
 10
196.326080
 20
175.402176
 40
3.000000
  0
CIRCLE
  8
0
 62
     4
 10
196.326080
 20
175.402176
 40
2.460000
  0
POLYLINE
  8
DASHDOT
 62
     7
 66
     1
 70
     2
  0
VERTEX
  8
DASHDOT
 10
186.869553
 20
175.402176
  0
VERTEX
  8
DASHDOT
 10
205.782608
 20
175.402176
  0
SEQEND
  0
POLYLINE
  8
DASHDOT
 62
     7
 66
     1
 70
     2
  0
VERTEX
  8
DASHDOT
 10
196.326080
 20
165.945648
  0
VERTEX
  8
DASHDOT
 10
196.326080
 20
184.858704
  0
SEQEND
  0
LINE
  8
DASHDOT
 62
     7
 10
196.326080
 20
210.402176
 11
196.326080
 21
175.402176
  0
LINE
  8
0
 62
     5
 10
196.326080
 20
210.402176
 11
196.326080
 21
236.902176
  0
POLYLINE
  8
0
 62
     4
 66
     1
 70
     2
  0
VERTEX
  8
0
 10
420.892578
 20
178.402176
  0
VERTEX
  8
0
 10
441.066833
 20
178.402176
  0
SEQEND
  0
POLYLINE
  8
0
 62
     4
 66
     1
 70
     2
  0
VERTEX
  8
0
 10
420.892578
 20
172.402176
  0
VERTEX
  8
0
 10
441.066833
 20
172.402176
  0
SEQEND
  0
POLYLINE
  8
0
 62
     4
 66
     1
 70
     2
  0
VERTEX
  8
0
 10
420.992554
 20
177.862183
  0
VERTEX
  8
0
 10
441.109100
 20
177.862183
  0
SEQEND
  0
POLYLINE
  8
0
 62
     4
 66
     1
 70
     2
  0
VERTEX
  8
0
 10
420.992554
 20
172.942169
  0
VERTEX
  8
0
 10
441.109100
 20
172.942169
  0
SEQEND
  0
POLYLINE
  8
0
 62
     5
 66
     1
 70
     2
  0
VERTEX
  8
0
 10
441.195648
 20
175.402176
  0
VERTEX
  8
0
 10
473.478241
 20
257.750000
  0
VERTEX
  8
0
 10
442.056519
 20
257.750000
  0
SEQEND
  0
POLYLINE
  8
0
 62
     5
 66
     1
 70
     2
  0
VERTEX
  8
0
 10
441.941223
 20
183.200653
  0
VERTEX
  8
0
 10
441.195648
 20
175.402176
  0
VERTEX
  8
0
 10
445.948639
 20
181.629639
  0
SEQEND
  0
TEXT
  8
0
 62
     7
 10
446.360870
 20
259.902161
 40
10.330435
 41
1.000000
  1
M6
  7
KANJI
 50
0.000000
 51
0.000000
  0
LINE
  8
0
 62
     5
 10
259.282593
 20
190.402176
 11
259.282593
 21
160.402176
  0
POLYLINE
  8
0
 62
     5
 66
     1
 70
     2
  0
VERTEX
  8
0
 10
257.130432
 20
167.934784
  0
VERTEX
  8
0
 10
259.282593
 20
160.402176
  0
VERTEX
  8
0
 10
261.434784
 20
167.934784
  0
SEQEND
  0
LINE
  8
0
 62
     5
 10
203.326080
 20
160.402176
 11
262.510864
 21
160.402176
  0
TEXT
  8
0
 62
     7
 10
257.130432
 20
155.763580
 40
10.760870
 41
1.000000
  1
%%c30H7
  7
KANJI
 50
90.000000
 51
0.000000
  0
POLYLINE
  8
0
 62
     4
 66
     1
 70
     2
  0
VERTEX
  8
0
 10
174.326080
 20
159.402176
  0
VERTEX
  8
0
 10
174.326080
 20
114.402176
  0
VERTEX
  8
0
 10
174.826080
 20
113.902176
  0
VERTEX
  8
0
 10
188.826080
 20
113.902176
  0
VERTEX
  8
0
 10
189.326080
 20
114.402176
  0
VERTEX
  8
0
 10
189.326080
 20
138.902176
  0
SEQEND
  0
POLYLINE
  8
0
 62
     4
 66
     1
 70
     2
  0
VERTEX
  8
0
 10
190.826080
 20
140.402176
  0
VERTEX
  8
0
 10
202.326080
 20
140.402176
  0
VERTEX
  8
0
 10
203.326080
 20
141.402176
  0
VERTEX
  8
0
 10
203.326080
 20
209.402176
  0
VERTEX
  8
0
 10
202.326080
 20
210.402176
  0
VERTEX
  8
0
 10
190.826080
 20
210.402176
  0
SEQEND
  0
POLYLINE
  8
0
 62
     4
 66
     1
 70
     2
  0
VERTEX
  8
0
 10
189.326080
 20
211.902176
  0
VERTEX
  8
0
 10
189.326080
 20
236.402176
  0
VERTEX
  8
0
 10
188.826080
 20
236.902176
  0
VERTEX
  8
0
 10
174.826080
 20
236.902176
  0
VERTEX
  8
0
 10
174.326080
 20
236.402176
  0
VERTEX
  8
0
 10
174.326080
 20
159.402176
  0
SEQEND
  0
LINE
  8
0
 62
     7
 10
163.565216
 20
235.402176
 11
131.282593
 21
235.402176
  0
POLYLINE
  8
0
 62
     7
 66
     1
 70
     2
  0
VERTEX
  8
0
 10
139.891296
 20
235.402176
  0
VERTEX
  8
0
 10
135.694550
 20
242.676514
  0
VERTEX
  8
0
 10
160.875000
 20
242.676514
  0
VERTEX
  8
0
 10
156.678253
 20
235.402176
  0
VERTEX
  8
0
 10
152.481506
 20
242.676514
  0
VERTEX
  8
0
 10
148.284775
 20
235.402176
  0
VERTEX
  8
0
 10
144.088043
 20
242.676514
  0
VERTEX
  8
0
 10
139.891296
 20
235.402176
  0
SEQEND
  0
POLYLINE
  8
0
 62
     7
 66
     1
 70
     2
  0
VERTEX
  8
0
 10
149.683685
 20
246.313690
  0
VERTEX
  8
0
 10
151.082596
 20
246.313690
  0
VERTEX
  8
0
 10
151.082596
 20
245.474350
  0
VERTEX
  8
0
 10
149.683685
 20
244.075439
  0
VERTEX
  8
0
 10
146.885864
 20
244.075439
  0
VERTEX
  8
0
 10
145.486954
 20
245.474350
  0
VERTEX
  8
0
 10
145.486954
 20
249.671082
  0
VERTEX
  8
0
 10
146.885864
 20
251.070007
  0
VERTEX
  8
0
 10
149.683685
 20
251.070007
  0
VERTEX
  8
0
 10
151.082596
 20
249.671082
  0
VERTEX
  8
0
 10
151.082596
 20
248.831741
  0
SEQEND
  0
CIRCLE
  8
0
 62
     4
 10
406.195648
 20
175.402176
 40
35.000000
  0
LINE
  8
0
 62
     5
 10
216.239120
 20
247.663055
 11
183.413040
 21
247.663055
  0
POLYLINE
  8
0
 62
     5
 66
     1
 70
     2
  0
VERTEX
  8
0
 10
188.793472
 20
245.510864
  0
VERTEX
  8
0
 10
196.326080
 20
247.663055
  0
VERTEX
  8
0
 10
188.793472
 20
249.815216
  0
SEQEND
  0
POLYLINE
  8
0
 62
     5
 66
     1
 70
     2
  0
VERTEX
  8
0
 10
210.858688
 20
249.815216
  0
VERTEX
  8
0
 10
203.326080
 20
247.663055
  0
VERTEX
  8
0
 10
210.858688
 20
245.510864
  0
SEQEND
  0
LINE
  8
0
 62
     5
 10
196.326080
 20
236.902176
 11
196.326080
 21
250.891312
  0
TEXT
  8
0
 62
     7
 10
196.328796
 20
249.384796
 40
10.760870
 41
1.000000
  1
7
  7
KANJI
 50
0.000000
 51
0.000000
  0
LINE
  8
0
 62
     5
 10
196.326080
 20
210.402176
 11
196.326080
 21
236.902176
  0
ENDSEC
  0
EOF
