  0
SECTION
  2
HEADER
  9
$ACADVER
  1
AC1003
  9
$INSBASE
 10
0.000000
 20
0.000000
  9
$EXTMIN
 10
0.000000
 20
0.000000
  9
$EXTMAX
 10
484.304348
 20
334.891304
  9
$LIMMIN
 10
0.000000
 20
0.000000
  9
$LIMMAX
 10
484.304348
 20
334.891304
  9
$VIEWCTR
 10
242.152174
 20
167.445652
  9
$VIEWSIZE
 40
334.891304
  0
ENDSEC
  0
SECTION
  2
TABLES
  0
TABLE
  2
LTYPE
 70
     4
  0
LTYPE
  2
CONTINUOUS
 70
    64
  3
SolidLine
 72
    65
 73
     0
 40
0.0
  0
LTYPE
  2
HIDDEN
 70
    64
  3
------------------------
 72
    65
 73
     2
 40
5.152174
 49
3.434783
 49
-1.717391
  0
LTYPE
  2
DASHDOT
 70
    64
  3
--?--?--?--?--?--?--?--
 72
    65
 73
     4
 40
20.608696
 49
15.456522
 49
-1.717391
 49
1.717391
 49
-1.717391
  0
LTYPE
  2
DIVIDE
 70
    64
  3
--??--??--??--??--??--
 72
    65
 73
     6
 40
25.760870
 49
17.173913
 49
-1.717391
 49
1.717391
 49
-1.717391
 49
1.717391
 49
-1.717391
  0
ENDTAB
  0
TABLE
  2
LAYER
 70
     5
  0
LAYER
  2
0
 70
    64
 62
     7
  6
CONTINUOUS
  0
LAYER
  2
HIDDEN
 70
    64
 62
     2
  6
HIDDEN
  0
LAYER
  2
DASHDOT
 70
    64
 62
     6
  6
DASHDOT
  0
LAYER
  2
DIVIDE
 70
    64
 62
     5
  6
DIVIDE
  0
ENDTAB
  0
TABLE
  2
STYLE
 70
     1
  0
STYLE
  2
STANDARD
 70
    64
 40
0.0
 41
1.0
 50
0.0
 71
     0
 42
0.2
  3
TXT
  4

  0
STYLE
  2
KANJI
 70
    64
 40
0.0
 41
1.0
 50
0.0
 71
     0
 42
0.2
  3
TXT
  4
BIGFONT
  0
ENDTAB
  0
TABLE
  2
VIEW
 70
     0
  0
ENDTAB
  0
ENDSEC
  0
SECTION
  2
BLOCKS
  0
ENDSEC
  0
SECTION
  2
ENTITIES
  0
TEXT
  8
0
 62
     7
 10
17.173914
 20
18.891304
 40
6.869565
 41
1.000000
  1
KHK SSG1.5-42J25
  7
KANJI
 50
0.000000
 51
0.000000
  0
TEXT
  8
0
 62
     7
 10
17.173914
 20
8.586957
 40
6.869565
 41
1.000000
  1
The precision grade of gears after secondary operations is equivalent but not identical to its original grade.
  7
KANJI
 50
0.000000
 51
0.000000
  0
TEXT
  8
0
 62
     7
 10
17.173914
 20
309.130432
 40
7.728261
 41
1.000000
  1
For J Series products, without black oxide repeatedly applied on secondary-operated parts.
  7
KANJI
 50
0.000000
 51
0.000000
  0
POLYLINE
  8
0
 62
     7
 66
     1
 70
     2
  0
VERTEX
  8
0
 10
343.478271
 20
309.130432
  0
VERTEX
  8
0
 10
336.780457
 20
320.739990
  0
VERTEX
  8
0
 10
363.571747
 20
320.739990
  0
VERTEX
  8
0
 10
356.873932
 20
309.130432
  0
VERTEX
  8
0
 10
350.176086
 20
320.739990
  0
VERTEX
  8
0
 10
343.478271
 20
309.130432
  0
SEQEND
  0
POLYLINE
  8
0
 62
     7
 66
     1
 70
     2
  0
VERTEX
  8
0
 10
390.363037
 20
309.130432
  0
VERTEX
  8
0
 10
383.665222
 20
320.739990
  0
VERTEX
  8
0
 10
423.852173
 20
320.739990
  0
VERTEX
  8
0
 10
417.154358
 20
309.130432
  0
VERTEX
  8
0
 10
410.456543
 20
320.739990
  0
VERTEX
  8
0
 10
403.758698
 20
309.130432
  0
VERTEX
  8
0
 10
397.060883
 20
320.739990
  0
VERTEX
  8
0
 10
390.363037
 20
309.130432
  0
SEQEND
  0
POLYLINE
  8
0
 62
     7
 66
     1
 70
     2
  0
VERTEX
  8
0
 10
405.991333
 20
326.544769
  0
VERTEX
  8
0
 10
408.223938
 20
326.544769
  0
VERTEX
  8
0
 10
408.223938
 20
325.205200
  0
VERTEX
  8
0
 10
405.991333
 20
322.972595
  0
VERTEX
  8
0
 10
401.526093
 20
322.972595
  0
VERTEX
  8
0
 10
399.293488
 20
325.205200
  0
VERTEX
  8
0
 10
399.293488
 20
331.903046
  0
VERTEX
  8
0
 10
401.526093
 20
334.135651
  0
VERTEX
  8
0
 10
405.991333
 20
334.135651
  0
VERTEX
  8
0
 10
408.223938
 20
331.903046
  0
VERTEX
  8
0
 10
408.223938
 20
330.563477
  0
SEQEND
  0
POLYLINE
  8
0
 62
     7
 66
     1
 70
     2
  0
VERTEX
  8
0
 10
373.841736
 20
320.739990
  0
VERTEX
  8
0
 10
372.055664
 20
318.953918
  0
VERTEX
  8
0
 10
372.055664
 20
310.916504
  0
VERTEX
  8
0
 10
373.841736
 20
309.130432
  0
SEQEND
  0
POLYLINE
  8
0
 62
     7
 66
     1
 70
     2
  0
VERTEX
  8
0
 10
432.336090
 20
320.739990
  0
VERTEX
  8
0
 10
434.122192
 20
318.953918
  0
VERTEX
  8
0
 10
434.122192
 20
310.916504
  0
VERTEX
  8
0
 10
432.336090
 20
309.130432
  0
SEQEND
  0
LINE
  8
0
 62
     5
 10
253.978271
 20
172.967392
 11
253.978271
 21
106.967392
  0
POLYLINE
  8
0
 62
     5
 66
     1
 70
     2
  0
VERTEX
  8
0
 10
255.695663
 20
166.956528
  0
VERTEX
  8
0
 10
253.978271
 20
172.967392
  0
VERTEX
  8
0
 10
252.260880
 20
166.956528
  0
SEQEND
  0
POLYLINE
  8
0
 62
     5
 66
     1
 70
     2
  0
VERTEX
  8
0
 10
252.260880
 20
112.978264
  0
VERTEX
  8
0
 10
253.978271
 20
106.967392
  0
VERTEX
  8
0
 10
255.695663
 20
112.978264
  0
SEQEND
  0
LINE
  8
0
 62
     5
 10
168.108704
 20
172.967392
 11
256.554352
 21
172.967392
  0
LINE
  8
0
 62
     5
 10
168.108704
 20
106.967392
 11
256.554352
 21
106.967392
  0
TEXT
  8
0
 62
     7
 10
252.260880
 20
129.877716
 40
8.586957
 41
1.000000
  1
%%c66
  7
KANJI
 50
90.000000
 51
0.000000
  0
LINE
  8
DASHDOT
 62
     7
 10
133.956528
 20
171.467392
 11
159.260880
 21
171.467392
  0
LINE
  8
DASHDOT
 62
     7
 10
133.956528
 20
108.467392
 11
159.260880
 21
108.467392
  0
LINE
  8
DASHDOT
 62
     7
 10
133.956528
 20
139.967392
 11
173.260880
 21
139.967392
  0
LINE
  8
0
 62
     5
 10
154.108704
 20
172.467392
 11
154.108704
 21
172.967392
  0
LINE
  8
0
 62
     5
 10
139.108704
 20
172.467392
 11
139.108704
 21
172.967392
  0
LINE
  8
0
 62
     5
 10
155.108704
 20
164.967392
 11
168.108704
 21
164.967392
  0
LINE
  8
0
 62
     5
 10
155.108704
 20
114.967392
 11
168.108704
 21
114.967392
  0
LINE
  8
0
 62
     5
 10
153.608704
 20
172.967392
 11
168.108704
 21
172.967392
  0
LINE
  8
0
 62
     5
 10
153.608704
 20
106.967392
 11
168.108704
 21
106.967392
  0
LINE
  8
0
 62
     4
 10
139.108704
 20
169.592392
 11
154.108704
 21
169.592392
  0
LINE
  8
0
 62
     4
 10
139.108704
 20
110.342392
 11
154.108704
 21
110.342392
  0
LINE
  8
0
 62
     4
 10
167.108704
 20
127.467392
 11
168.108704
 21
126.467392
  0
LINE
  8
0
 62
     4
 10
167.108704
 20
152.467392
 11
168.108704
 21
153.467392
  0
LINE
  8
0
 62
     4
 10
140.108704
 20
152.467392
 11
140.108704
 21
127.467392
  0
POLYLINE
  8
0
 62
     4
 66
     1
 70
     2
  0
VERTEX
  8
0
 10
139.108704
 20
126.467392
  0
VERTEX
  8
0
 10
140.108704
 20
127.467392
  0
VERTEX
  8
0
 10
167.108704
 20
127.467392
  0
VERTEX
  8
0
 10
167.108704
 20
152.467392
  0
VERTEX
  8
0
 10
140.108704
 20
152.467392
  0
VERTEX
  8
0
 10
139.108704
 20
153.467392
  0
SEQEND
  0
ARC
  8
0
 62
     4
 10
155.108704
 20
165.967392
 40
1.000000
 50
180.0
 51
270.0
  0
ARC
  8
0
 62
     4
 10
155.108704
 20
113.967392
 40
1.000000
 50
90.0
 51
180.0
  0
LINE
  8
0
 62
     5
 10
168.108704
 20
164.467392
 11
168.108704
 21
172.967392
  0
LINE
  8
0
 62
     5
 10
164.413055
 20
219.336960
 11
128.804352
 21
219.336960
  0
POLYLINE
  8
0
 62
     5
 66
     1
 70
     2
  0
VERTEX
  8
0
 10
133.097839
 20
217.619568
  0
VERTEX
  8
0
 10
139.108704
 20
219.336960
  0
VERTEX
  8
0
 10
133.097839
 20
221.054352
  0
SEQEND
  0
POLYLINE
  8
0
 62
     5
 66
     1
 70
     2
  0
VERTEX
  8
0
 10
160.119568
 20
221.054352
  0
VERTEX
  8
0
 10
154.108704
 20
219.336960
  0
VERTEX
  8
0
 10
160.119568
 20
217.619568
  0
SEQEND
  0
LINE
  8
0
 62
     5
 10
154.108704
 20
172.967392
 11
154.108704
 21
221.913055
  0
TEXT
  8
0
 62
     7
 10
141.027176
 20
220.710876
 40
8.586957
 41
1.000000
  1
15
  7
KANJI
 50
0.000000
 51
0.000000
  0
LINE
  8
0
 62
     5
 10
139.108704
 20
233.076080
 11
168.108704
 21
233.076080
  0
POLYLINE
  8
0
 62
     5
 66
     1
 70
     2
  0
VERTEX
  8
0
 10
145.119568
 20
234.793488
  0
VERTEX
  8
0
 10
139.108704
 20
233.076080
  0
VERTEX
  8
0
 10
145.119568
 20
231.358704
  0
SEQEND
  0
POLYLINE
  8
0
 62
     5
 66
     1
 70
     2
  0
VERTEX
  8
0
 10
162.097839
 20
231.358704
  0
VERTEX
  8
0
 10
168.108704
 20
233.076080
  0
VERTEX
  8
0
 10
162.097839
 20
234.793488
  0
SEQEND
  0
LINE
  8
0
 62
     5
 10
139.108704
 20
172.967392
 11
139.108704
 21
235.652176
  0
LINE
  8
0
 62
     5
 10
168.108704
 20
172.967392
 11
168.108704
 21
235.652176
  0
TEXT
  8
0
 62
     7
 10
148.027176
 20
234.450012
 40
8.586957
 41
1.000000
  1
29
  7
KANJI
 50
0.000000
 51
0.000000
  0
LINE
  8
0
 62
     5
 10
178.413055
 20
219.336960
 11
143.804352
 21
219.336960
  0
POLYLINE
  8
0
 62
     5
 66
     1
 70
     2
  0
VERTEX
  8
0
 10
148.097839
 20
217.619568
  0
VERTEX
  8
0
 10
154.108704
 20
219.336960
  0
VERTEX
  8
0
 10
148.097839
 20
221.054352
  0
SEQEND
  0
POLYLINE
  8
0
 62
     5
 66
     1
 70
     2
  0
VERTEX
  8
0
 10
174.119568
 20
221.054352
  0
VERTEX
  8
0
 10
168.108704
 20
219.336960
  0
VERTEX
  8
0
 10
174.119568
 20
217.619568
  0
SEQEND
  0
TEXT
  8
0
 62
     7
 10
155.527176
 20
220.710876
 40
8.586957
 41
1.000000
  1
14
  7
KANJI
 50
0.000000
 51
0.000000
  0
LINE
  8
0
 62
     5
 10
240.239136
 20
164.967392
 11
240.239136
 21
114.967392
  0
POLYLINE
  8
0
 62
     5
 66
     1
 70
     2
  0
VERTEX
  8
0
 10
241.956528
 20
158.956528
  0
VERTEX
  8
0
 10
240.239136
 20
164.967392
  0
VERTEX
  8
0
 10
238.521744
 20
158.956528
  0
SEQEND
  0
POLYLINE
  8
0
 62
     5
 66
     1
 70
     2
  0
VERTEX
  8
0
 10
238.521744
 20
120.978264
  0
VERTEX
  8
0
 10
240.239136
 20
114.967392
  0
VERTEX
  8
0
 10
241.956528
 20
120.978264
  0
SEQEND
  0
LINE
  8
0
 62
     5
 10
168.108704
 20
164.967392
 11
242.815216
 21
164.967392
  0
LINE
  8
0
 62
     5
 10
168.108704
 20
114.967392
 11
242.815216
 21
114.967392
  0
TEXT
  8
0
 62
     7
 10
238.521744
 20
129.877716
 40
8.586957
 41
1.000000
  1
%%c50
  7
KANJI
 50
90.000000
 51
0.000000
  0
LINE
  8
DASHDOT
 62
     7
 10
327.065247
 20
173.554352
 11
327.065247
 21
109.815216
  0
LINE
  8
DASHDOT
 62
     7
 10
296.913055
 20
139.967392
 11
357.217407
 21
139.967392
  0
LINE
  8
0
 62
     5
 10
341.369568
 20
189.010864
 11
312.760864
 21
189.010864
  0
POLYLINE
  8
0
 62
     5
 66
     1
 70
     2
  0
VERTEX
  8
0
 10
317.054382
 20
187.293472
  0
VERTEX
  8
0
 10
323.065247
 20
189.010864
  0
VERTEX
  8
0
 10
317.054382
 20
190.728256
  0
SEQEND
  0
POLYLINE
  8
0
 62
     5
 66
     1
 70
     2
  0
VERTEX
  8
0
 10
337.076111
 20
190.728256
  0
VERTEX
  8
0
 10
331.065247
 20
189.010864
  0
VERTEX
  8
0
 10
337.076111
 20
187.293472
  0
SEQEND
  0
LINE
  8
0
 62
     5
 10
323.065247
 20
155.767395
 11
323.065247
 21
191.586960
  0
LINE
  8
0
 62
     5
 10
331.065247
 20
155.767395
 11
331.065247
 21
191.586960
  0
TEXT
  8
0
 62
     7
 10
309.340057
 20
190.728256
 40
8.586957
 41
1.000000
  1
8
  7
KANJI
 50
0.000000
 51
0.000000
  0
TEXT
  8
0
 62
     7
 10
317.840088
 20
190.728256
 40
6.869565
 41
1.000000
  1
%%p0.018
  7
KANJI
 50
0.000000
 51
0.000000
  0
LINE
  8
0
 62
     5
 10
377.826111
 20
117.163048
 11
377.826111
 21
166.071747
  0
POLYLINE
  8
0
 62
     5
 66
     1
 70
     2
  0
VERTEX
  8
0
 10
376.108704
 20
161.778259
  0
VERTEX
  8
0
 10
377.826111
 20
155.767395
  0
VERTEX
  8
0
 10
379.543488
 20
161.778259
  0
SEQEND
  0
POLYLINE
  8
0
 62
     5
 66
     1
 70
     2
  0
VERTEX
  8
0
 10
379.543488
 20
121.456528
  0
VERTEX
  8
0
 10
377.826111
 20
127.467392
  0
VERTEX
  8
0
 10
376.108704
 20
121.456528
  0
SEQEND
  0
LINE
  8
0
 62
     5
 10
331.065247
 20
155.767395
 11
380.402161
 21
155.767395
  0
LINE
  8
0
 62
     5
 10
327.065247
 20
127.467392
 11
380.402161
 21
127.467392
  0
TEXT
  8
0
 62
     7
 10
375.250000
 20
114.302902
 40
8.586957
 41
1.000000
  1
28.3
  7
KANJI
 50
90.000000
 51
0.000000
  0
TEXT
  8
0
 62
     7
 10
375.765228
 20
151.470642
 40
4.293478
 41
1.000000
  1
 
  7
KANJI
 50
90.000000
 51
0.000000
  0
TEXT
  8
0
 62
     7
 10
370.441315
 20
151.470642
 40
4.293478
 41
1.000000
  1
+
  7
KANJI
 50
90.000000
 51
0.000000
  0
TEXT
  8
0
 62
     7
 10
375.765228
 20
156.279343
 40
4.293478
 41
1.000000
  1
0
  7
KANJI
 50
90.000000
 51
0.000000
  0
TEXT
  8
0
 62
     7
 10
370.441315
 20
156.279343
 40
4.293478
 41
1.000000
  1
0.2
  7
KANJI
 50
90.000000
 51
0.000000
  0
ARC
  8
0
 62
     4
 10
327.065247
 20
139.967392
 40
12.500000
 50
108.66292518454978
 51
71.33707481545021
  0
POLYLINE
  8
0
 62
     4
 66
     1
 70
     2
  0
VERTEX
  8
0
 10
331.065247
 20
151.810104
  0
VERTEX
  8
0
 10
331.065247
 20
155.767395
  0
VERTEX
  8
0
 10
323.065247
 20
155.767395
  0
VERTEX
  8
0
 10
323.065247
 20
151.810104
  0
SEQEND
  0
LINE
  8
0
 62
     4
 10
139.108704
 20
155.767395
 11
168.108704
 21
155.767395
  0
POLYLINE
  8
DASHDOT
 62
     7
 66
     1
 70
     2
  0
VERTEX
  8
DASHDOT
 10
161.108704
 20
170.119568
  0
VERTEX
  8
DASHDOT
 10
161.108704
 20
150.615219
  0
SEQEND
  0
POLYLINE
  8
0
 62
     4
 66
     1
 70
     2
  0
VERTEX
  8
0
 10
164.108704
 20
164.967392
  0
VERTEX
  8
0
 10
164.108704
 20
155.767395
  0
SEQEND
  0
POLYLINE
  8
0
 62
     4
 66
     1
 70
     2
  0
VERTEX
  8
0
 10
158.108704
 20
164.967392
  0
VERTEX
  8
0
 10
158.108704
 20
155.767395
  0
SEQEND
  0
POLYLINE
  8
0
 62
     4
 66
     1
 70
     2
  0
VERTEX
  8
0
 10
163.568695
 20
164.967392
  0
VERTEX
  8
0
 10
163.568695
 20
155.767395
  0
SEQEND
  0
POLYLINE
  8
0
 62
     4
 66
     1
 70
     2
  0
VERTEX
  8
0
 10
158.648712
 20
164.967392
  0
VERTEX
  8
0
 10
158.648712
 20
155.767395
  0
SEQEND
  0
POLYLINE
  8
0
 62
     4
 66
     1
 70
     2
  0
VERTEX
  8
0
 10
324.065247
 20
155.767395
  0
VERTEX
  8
0
 10
324.065247
 20
164.786743
  0
SEQEND
  0
POLYLINE
  8
0
 62
     4
 66
     1
 70
     2
  0
VERTEX
  8
0
 10
330.065247
 20
155.767395
  0
VERTEX
  8
0
 10
330.065247
 20
164.786743
  0
SEQEND
  0
POLYLINE
  8
0
 62
     4
 66
     1
 70
     2
  0
VERTEX
  8
0
 10
324.605225
 20
155.767395
  0
VERTEX
  8
0
 10
324.605225
 20
164.846069
  0
SEQEND
  0
POLYLINE
  8
0
 62
     4
 66
     1
 70
     2
  0
VERTEX
  8
0
 10
329.525238
 20
155.767395
  0
VERTEX
  8
0
 10
329.525238
 20
164.846069
  0
SEQEND
  0
POLYLINE
  8
0
 62
     5
 66
     1
 70
     2
  0
VERTEX
  8
0
 10
327.065247
 20
164.967392
  0
VERTEX
  8
0
 10
296.152161
 20
216.489136
  0
VERTEX
  8
0
 10
315.043488
 20
216.489136
  0
SEQEND
  0
POLYLINE
  8
0
 62
     5
 66
     1
 70
     2
  0
VERTEX
  8
0
 10
322.500000
 20
169.238083
  0
VERTEX
  8
0
 10
327.065247
 20
164.967392
  0
VERTEX
  8
0
 10
325.445312
 20
171.005264
  0
SEQEND
  0
TEXT
  8
0
 62
     7
 10
297.869568
 20
218.206512
 40
8.243479
 41
1.000000
  1
M6
  7
KANJI
 50
0.000000
 51
0.000000
  0
CIRCLE
  8
0
 62
     7
 10
161.108704
 20
139.967392
 40
3.000000
  0
CIRCLE
  8
0
 62
     4
 10
161.108704
 20
139.967392
 40
2.460000
  0
POLYLINE
  8
DASHDOT
 62
     7
 66
     1
 70
     2
  0
VERTEX
  8
DASHDOT
 10
152.956528
 20
139.967392
  0
VERTEX
  8
DASHDOT
 10
169.260880
 20
139.967392
  0
SEQEND
  0
POLYLINE
  8
DASHDOT
 62
     7
 66
     1
 70
     2
  0
VERTEX
  8
DASHDOT
 10
161.108704
 20
131.815216
  0
VERTEX
  8
DASHDOT
 10
161.108704
 20
148.119568
  0
SEQEND
  0
LINE
  8
DASHDOT
 62
     7
 10
161.108704
 20
164.967392
 11
161.108704
 21
139.967392
  0
LINE
  8
0
 62
     5
 10
161.108704
 20
164.967392
 11
161.108704
 21
172.967392
  0
POLYLINE
  8
0
 62
     4
 66
     1
 70
     2
  0
VERTEX
  8
0
 10
339.199890
 20
142.967392
  0
VERTEX
  8
0
 10
351.884583
 20
142.967392
  0
SEQEND
  0
POLYLINE
  8
0
 62
     4
 66
     1
 70
     2
  0
VERTEX
  8
0
 10
339.199890
 20
136.967392
  0
VERTEX
  8
0
 10
351.884583
 20
136.967392
  0
SEQEND
  0
POLYLINE
  8
0
 62
     4
 66
     1
 70
     2
  0
VERTEX
  8
0
 10
339.320770
 20
142.427399
  0
VERTEX
  8
0
 10
351.943909
 20
142.427399
  0
SEQEND
  0
POLYLINE
  8
0
 62
     4
 66
     1
 70
     2
  0
VERTEX
  8
0
 10
339.320770
 20
137.507385
  0
VERTEX
  8
0
 10
351.943909
 20
137.507385
  0
SEQEND
  0
POLYLINE
  8
0
 62
     5
 66
     1
 70
     2
  0
VERTEX
  8
0
 10
352.065247
 20
139.967392
  0
VERTEX
  8
0
 10
377.826111
 20
202.750000
  0
VERTEX
  8
0
 10
352.752197
 20
202.750000
  0
SEQEND
  0
POLYLINE
  8
0
 62
     5
 66
     1
 70
     2
  0
VERTEX
  8
0
 10
352.758148
 20
146.180267
  0
VERTEX
  8
0
 10
352.065247
 20
139.967392
  0
VERTEX
  8
0
 10
355.935852
 20
144.876404
  0
SEQEND
  0
TEXT
  8
0
 62
     7
 10
356.186951
 20
204.467392
 40
8.243479
 41
1.000000
  1
M6
  7
KANJI
 50
0.000000
 51
0.000000
  0
LINE
  8
0
 62
     5
 10
212.760880
 20
152.467392
 11
212.760880
 21
127.467392
  0
POLYLINE
  8
0
 62
     5
 66
     1
 70
     2
  0
VERTEX
  8
0
 10
211.043488
 20
133.478256
  0
VERTEX
  8
0
 10
212.760880
 20
127.467392
  0
VERTEX
  8
0
 10
214.478271
 20
133.478256
  0
SEQEND
  0
LINE
  8
0
 62
     5
 10
168.108704
 20
127.467392
 11
215.336975
 21
127.467392
  0
TEXT
  8
0
 62
     7
 10
211.043488
 20
124.296196
 40
8.586957
 41
1.000000
  1
%%c25H7
  7
KANJI
 50
90.000000
 51
0.000000
  0
POLYLINE
  8
0
 62
     4
 66
     1
 70
     2
  0
VERTEX
  8
0
 10
139.108704
 20
126.467392
  0
VERTEX
  8
0
 10
139.108704
 20
107.467392
  0
VERTEX
  8
0
 10
139.608704
 20
106.967392
  0
VERTEX
  8
0
 10
153.608704
 20
106.967392
  0
VERTEX
  8
0
 10
154.108704
 20
107.467392
  0
VERTEX
  8
0
 10
154.108704
 20
113.967392
  0
SEQEND
  0
POLYLINE
  8
0
 62
     4
 66
     1
 70
     2
  0
VERTEX
  8
0
 10
155.108704
 20
114.967392
  0
VERTEX
  8
0
 10
167.608704
 20
114.967392
  0
VERTEX
  8
0
 10
168.108704
 20
115.467392
  0
VERTEX
  8
0
 10
168.108704
 20
164.467392
  0
VERTEX
  8
0
 10
167.608704
 20
164.967392
  0
VERTEX
  8
0
 10
155.108704
 20
164.967392
  0
SEQEND
  0
POLYLINE
  8
0
 62
     4
 66
     1
 70
     2
  0
VERTEX
  8
0
 10
154.108704
 20
165.967392
  0
VERTEX
  8
0
 10
154.108704
 20
172.467392
  0
VERTEX
  8
0
 10
153.608704
 20
172.967392
  0
VERTEX
  8
0
 10
139.608704
 20
172.967392
  0
VERTEX
  8
0
 10
139.108704
 20
172.467392
  0
VERTEX
  8
0
 10
139.108704
 20
126.467392
  0
SEQEND
  0
LINE
  8
0
 62
     7
 10
130.521744
 20
171.467392
 11
104.760880
 21
171.467392
  0
POLYLINE
  8
0
 62
     7
 66
     1
 70
     2
  0
VERTEX
  8
0
 10
111.630447
 20
171.467392
  0
VERTEX
  8
0
 10
108.281532
 20
177.272171
  0
VERTEX
  8
0
 10
128.375015
 20
177.272171
  0
VERTEX
  8
0
 10
125.026093
 20
171.467392
  0
VERTEX
  8
0
 10
121.677185
 20
177.272171
  0
VERTEX
  8
0
 10
118.328270
 20
171.467392
  0
VERTEX
  8
0
 10
114.979355
 20
177.272171
  0
VERTEX
  8
0
 10
111.630447
 20
171.467392
  0
SEQEND
  0
POLYLINE
  8
0
 62
     7
 66
     1
 70
     2
  0
VERTEX
  8
0
 10
119.444572
 20
180.174561
  0
VERTEX
  8
0
 10
120.560883
 20
180.174561
  0
VERTEX
  8
0
 10
120.560883
 20
179.504791
  0
VERTEX
  8
0
 10
119.444572
 20
178.388489
  0
VERTEX
  8
0
 10
117.211967
 20
178.388489
  0
VERTEX
  8
0
 10
116.095657
 20
179.504791
  0
VERTEX
  8
0
 10
116.095657
 20
182.853699
  0
VERTEX
  8
0
 10
117.211967
 20
183.970001
  0
VERTEX
  8
0
 10
119.444572
 20
183.970001
  0
VERTEX
  8
0
 10
120.560883
 20
182.853699
  0
VERTEX
  8
0
 10
120.560883
 20
182.183914
  0
SEQEND
  0
CIRCLE
  8
0
 62
     4
 10
327.065247
 20
139.967392
 40
25.000000
  0
LINE
  8
0
 62
     5
 10
178.413055
 20
181.554352
 11
150.804352
 21
181.554352
  0
POLYLINE
  8
0
 62
     5
 66
     1
 70
     2
  0
VERTEX
  8
0
 10
155.097839
 20
179.836960
  0
VERTEX
  8
0
 10
161.108704
 20
181.554352
  0
VERTEX
  8
0
 10
155.097839
 20
183.271744
  0
SEQEND
  0
POLYLINE
  8
0
 62
     5
 66
     1
 70
     2
  0
VERTEX
  8
0
 10
174.119568
 20
183.271744
  0
VERTEX
  8
0
 10
168.108704
 20
181.554352
  0
VERTEX
  8
0
 10
174.119568
 20
179.836960
  0
SEQEND
  0
LINE
  8
0
 62
     5
 10
161.108704
 20
172.967392
 11
161.108704
 21
184.130432
  0
TEXT
  8
0
 62
     7
 10
161.817947
 20
182.928253
 40
8.586957
 41
1.000000
  1
7
  7
KANJI
 50
0.000000
 51
0.000000
  0
LINE
  8
0
 62
     5
 10
161.108704
 20
164.967392
 11
161.108704
 21
172.967392
  0
ENDSEC
  0
EOF
