  0
SECTION
  2
HEADER
  9
$ACADVER
  1
AC1003
  9
$INSBASE
 10
0.000000
 20
0.000000
  9
$EXTMIN
 10
0.000000
 20
0.000000
  9
$EXTMAX
 10
232.956522
 20
161.086957
  9
$LIMMIN
 10
0.000000
 20
0.000000
  9
$LIMMAX
 10
232.956522
 20
161.086957
  9
$VIEWCTR
 10
116.478261
 20
80.543478
  9
$VIEWSIZE
 40
161.086957
  0
ENDSEC
  0
SECTION
  2
TABLES
  0
TABLE
  2
LTYPE
 70
     4
  0
LTYPE
  2
CONTINUOUS
 70
    64
  3
SolidLine
 72
    65
 73
     0
 40
0.0
  0
LTYPE
  2
HIDDEN
 70
    64
  3
------------------------
 72
    65
 73
     2
 40
2.478261
 49
1.652174
 49
-0.826087
  0
LTYPE
  2
DASHDOT
 70
    64
  3
--?--?--?--?--?--?--?--
 72
    65
 73
     4
 40
9.913043
 49
7.434783
 49
-0.826087
 49
0.826087
 49
-0.826087
  0
LTYPE
  2
DIVIDE
 70
    64
  3
--??--??--??--??--??--
 72
    65
 73
     6
 40
12.391304
 49
8.260870
 49
-0.826087
 49
0.826087
 49
-0.826087
 49
0.826087
 49
-0.826087
  0
ENDTAB
  0
TABLE
  2
LAYER
 70
     5
  0
LAYER
  2
0
 70
    64
 62
     7
  6
CONTINUOUS
  0
LAYER
  2
HIDDEN
 70
    64
 62
     2
  6
HIDDEN
  0
LAYER
  2
DASHDOT
 70
    64
 62
     6
  6
DASHDOT
  0
LAYER
  2
DIVIDE
 70
    64
 62
     5
  6
DIVIDE
  0
ENDTAB
  0
TABLE
  2
STYLE
 70
     1
  0
STYLE
  2
STANDARD
 70
    64
 40
0.0
 41
1.0
 50
0.0
 71
     0
 42
0.2
  3
TXT
  4

  0
STYLE
  2
KANJI
 70
    64
 40
0.0
 41
1.0
 50
0.0
 71
     0
 42
0.2
  3
TXT
  4
BIGFONT
  0
ENDTAB
  0
TABLE
  2
VIEW
 70
     0
  0
ENDTAB
  0
ENDSEC
  0
SECTION
  2
BLOCKS
  0
ENDSEC
  0
SECTION
  2
ENTITIES
  0
TEXT
  8
0
 62
     7
 10
8.260870
 20
9.086957
 40
3.304348
 41
1.000000
  1
KHK SSG1-24
  7
KANJI
 50
0.000000
 51
0.000000
  0
TEXT
  8
0
 62
     7
 10
8.260870
 20
4.130435
 40
3.304348
 41
1.000000
  1

  7
KANJI
 50
0.000000
 51
0.000000
  0
TEXT
  8
0
 62
     7
 10
8.260870
 20
148.695648
 40
3.717391
 41
1.000000
  1
Black oxide except gear tooth
  7
KANJI
 50
0.000000
 51
0.000000
  0
POLYLINE
  8
0
 62
     7
 66
     1
 70
     2
  0
VERTEX
  8
0
 10
165.217392
 20
148.695648
  0
VERTEX
  8
0
 10
161.995651
 20
154.279999
  0
VERTEX
  8
0
 10
174.882614
 20
154.279999
  0
VERTEX
  8
0
 10
171.660873
 20
148.695648
  0
VERTEX
  8
0
 10
168.439133
 20
154.279999
  0
VERTEX
  8
0
 10
165.217392
 20
148.695648
  0
SEQEND
  0
POLYLINE
  8
0
 62
     7
 66
     1
 70
     2
  0
VERTEX
  8
0
 10
187.769562
 20
148.695648
  0
VERTEX
  8
0
 10
184.547821
 20
154.279999
  0
VERTEX
  8
0
 10
203.878265
 20
154.279999
  0
VERTEX
  8
0
 10
200.656525
 20
148.695648
  0
VERTEX
  8
0
 10
197.434784
 20
154.279999
  0
VERTEX
  8
0
 10
194.213043
 20
148.695648
  0
VERTEX
  8
0
 10
190.991302
 20
154.279999
  0
VERTEX
  8
0
 10
187.769562
 20
148.695648
  0
SEQEND
  0
POLYLINE
  8
0
 62
     7
 66
     1
 70
     2
  0
VERTEX
  8
0
 10
195.286957
 20
157.072174
  0
VERTEX
  8
0
 10
196.360870
 20
157.072174
  0
VERTEX
  8
0
 10
196.360870
 20
156.427826
  0
VERTEX
  8
0
 10
195.286957
 20
155.353912
  0
VERTEX
  8
0
 10
193.139130
 20
155.353912
  0
VERTEX
  8
0
 10
192.065216
 20
156.427826
  0
VERTEX
  8
0
 10
192.065216
 20
159.649567
  0
VERTEX
  8
0
 10
193.139130
 20
160.723480
  0
VERTEX
  8
0
 10
195.286957
 20
160.723480
  0
VERTEX
  8
0
 10
196.360870
 20
159.649567
  0
VERTEX
  8
0
 10
196.360870
 20
159.005219
  0
SEQEND
  0
POLYLINE
  8
0
 62
     7
 66
     1
 70
     2
  0
VERTEX
  8
0
 10
179.822601
 20
154.279999
  0
VERTEX
  8
0
 10
178.963486
 20
153.420868
  0
VERTEX
  8
0
 10
178.963486
 20
149.554779
  0
VERTEX
  8
0
 10
179.822601
 20
148.695648
  0
SEQEND
  0
POLYLINE
  8
0
 62
     7
 66
     1
 70
     2
  0
VERTEX
  8
0
 10
207.959137
 20
154.279999
  0
VERTEX
  8
0
 10
208.818268
 20
153.420868
  0
VERTEX
  8
0
 10
208.818268
 20
149.554779
  0
VERTEX
  8
0
 10
207.959137
 20
148.695648
  0
SEQEND
  0
LINE
  8
0
 62
     5
 10
126.217392
 20
80.326088
 11
126.217392
 21
54.326088
  0
POLYLINE
  8
0
 62
     5
 66
     1
 70
     2
  0
VERTEX
  8
0
 10
127.043488
 20
77.434784
  0
VERTEX
  8
0
 10
126.217392
 20
80.326088
  0
VERTEX
  8
0
 10
125.391312
 20
77.434784
  0
SEQEND
  0
POLYLINE
  8
0
 62
     5
 66
     1
 70
     2
  0
VERTEX
  8
0
 10
125.391312
 20
57.217392
  0
VERTEX
  8
0
 10
126.217392
 20
54.326088
  0
VERTEX
  8
0
 10
127.043488
 20
57.217392
  0
SEQEND
  0
LINE
  8
0
 62
     5
 10
84.913048
 20
80.326088
 11
127.456528
 21
80.326088
  0
LINE
  8
0
 62
     5
 10
84.913048
 20
54.326088
 11
127.456528
 21
54.326088
  0
TEXT
  8
0
 62
     7
 10
125.391312
 20
62.472828
 40
4.130435
 41
1.000000
  1
%%c26
  7
KANJI
 50
90.000000
 51
0.000000
  0
LINE
  8
DASHDOT
 62
     7
 10
64.434784
 20
79.326088
 11
77.391312
 21
79.326088
  0
LINE
  8
DASHDOT
 62
     7
 10
64.434784
 20
55.326088
 11
77.391312
 21
55.326088
  0
LINE
  8
DASHDOT
 62
     7
 10
64.434784
 20
67.326088
 11
87.391312
 21
67.326088
  0
LINE
  8
0
 62
     5
 10
74.913048
 20
79.826088
 11
74.913048
 21
80.326088
  0
LINE
  8
0
 62
     5
 10
66.913048
 20
79.826088
 11
66.913048
 21
80.326088
  0
LINE
  8
0
 62
     5
 10
75.913048
 20
77.326088
 11
84.913048
 21
77.326088
  0
LINE
  8
0
 62
     5
 10
75.913048
 20
57.326088
 11
84.913048
 21
57.326088
  0
LINE
  8
0
 62
     5
 10
74.413048
 20
80.326088
 11
84.913048
 21
80.326088
  0
LINE
  8
0
 62
     5
 10
74.413048
 20
54.326088
 11
84.913048
 21
54.326088
  0
LINE
  8
0
 62
     4
 10
66.913048
 20
78.076088
 11
74.913048
 21
78.076088
  0
LINE
  8
0
 62
     4
 10
66.913048
 20
56.576088
 11
74.913048
 21
56.576088
  0
LINE
  8
0
 62
     4
 10
84.413048
 20
63.326088
 11
84.913048
 21
62.826088
  0
LINE
  8
0
 62
     4
 10
84.413048
 20
71.326088
 11
84.913048
 21
71.826088
  0
LINE
  8
0
 62
     4
 10
67.413048
 20
71.326088
 11
67.413048
 21
63.326088
  0
POLYLINE
  8
0
 62
     4
 66
     1
 70
     2
  0
VERTEX
  8
0
 10
66.913048
 20
62.826088
  0
VERTEX
  8
0
 10
67.413048
 20
63.326088
  0
VERTEX
  8
0
 10
84.413048
 20
63.326088
  0
VERTEX
  8
0
 10
84.413048
 20
71.326088
  0
VERTEX
  8
0
 10
67.413048
 20
71.326088
  0
VERTEX
  8
0
 10
66.913048
 20
71.826088
  0
SEQEND
  0
ARC
  8
0
 62
     4
 10
75.913048
 20
78.326088
 40
1.000000
 50
180.0
 51
270.0
  0
ARC
  8
0
 62
     4
 10
75.913048
 20
56.326088
 40
1.000000
 50
90.0
 51
180.0
  0
LINE
  8
0
 62
     5
 10
84.913048
 20
76.826088
 11
84.913048
 21
80.326088
  0
LINE
  8
0
 62
     5
 10
66.913048
 20
102.630432
 11
74.913048
 21
102.630432
  0
POLYLINE
  8
0
 62
     5
 66
     1
 70
     2
  0
VERTEX
  8
0
 10
69.804352
 20
103.456528
  0
VERTEX
  8
0
 10
66.913048
 20
102.630432
  0
VERTEX
  8
0
 10
69.804352
 20
101.804352
  0
SEQEND
  0
POLYLINE
  8
0
 62
     5
 66
     1
 70
     2
  0
VERTEX
  8
0
 10
72.021744
 20
101.804352
  0
VERTEX
  8
0
 10
74.913048
 20
102.630432
  0
VERTEX
  8
0
 10
72.021744
 20
103.456528
  0
SEQEND
  0
LINE
  8
0
 62
     5
 10
74.913048
 20
80.326088
 11
74.913048
 21
103.869568
  0
TEXT
  8
0
 62
     7
 10
69.570656
 20
103.291306
 40
4.130435
 41
1.000000
  1
8
  7
KANJI
 50
0.000000
 51
0.000000
  0
LINE
  8
0
 62
     5
 10
66.913048
 20
109.239136
 11
84.913048
 21
109.239136
  0
POLYLINE
  8
0
 62
     5
 66
     1
 70
     2
  0
VERTEX
  8
0
 10
69.804352
 20
110.065216
  0
VERTEX
  8
0
 10
66.913048
 20
109.239136
  0
VERTEX
  8
0
 10
69.804352
 20
108.413040
  0
SEQEND
  0
POLYLINE
  8
0
 62
     5
 66
     1
 70
     2
  0
VERTEX
  8
0
 10
82.021744
 20
108.413040
  0
VERTEX
  8
0
 10
84.913048
 20
109.239136
  0
VERTEX
  8
0
 10
82.021744
 20
110.065216
  0
SEQEND
  0
LINE
  8
0
 62
     5
 10
66.913048
 20
80.326088
 11
66.913048
 21
110.478264
  0
LINE
  8
0
 62
     5
 10
84.913048
 20
80.326088
 11
84.913048
 21
110.478264
  0
TEXT
  8
0
 62
     7
 10
73.228264
 20
109.900002
 40
4.130435
 41
1.000000
  1
18
  7
KANJI
 50
0.000000
 51
0.000000
  0
LINE
  8
0
 62
     5
 10
74.913048
 20
102.630432
 11
84.913048
 21
102.630432
  0
POLYLINE
  8
0
 62
     5
 66
     1
 70
     2
  0
VERTEX
  8
0
 10
77.804352
 20
103.456528
  0
VERTEX
  8
0
 10
74.913048
 20
102.630432
  0
VERTEX
  8
0
 10
77.804352
 20
101.804352
  0
SEQEND
  0
POLYLINE
  8
0
 62
     5
 66
     1
 70
     2
  0
VERTEX
  8
0
 10
82.021744
 20
101.804352
  0
VERTEX
  8
0
 10
84.913048
 20
102.630432
  0
VERTEX
  8
0
 10
82.021744
 20
103.456528
  0
SEQEND
  0
TEXT
  8
0
 62
     7
 10
77.228264
 20
103.291306
 40
4.130435
 41
1.000000
  1
10
  7
KANJI
 50
0.000000
 51
0.000000
  0
LINE
  8
0
 62
     5
 10
119.608704
 20
77.326088
 11
119.608704
 21
57.326088
  0
POLYLINE
  8
0
 62
     5
 66
     1
 70
     2
  0
VERTEX
  8
0
 10
120.434784
 20
74.434784
  0
VERTEX
  8
0
 10
119.608704
 20
77.326088
  0
VERTEX
  8
0
 10
118.782608
 20
74.434784
  0
SEQEND
  0
POLYLINE
  8
0
 62
     5
 66
     1
 70
     2
  0
VERTEX
  8
0
 10
118.782608
 20
60.217392
  0
VERTEX
  8
0
 10
119.608704
 20
57.326088
  0
VERTEX
  8
0
 10
120.434784
 20
60.217392
  0
SEQEND
  0
LINE
  8
0
 62
     5
 10
84.913048
 20
77.326088
 11
120.847832
 21
77.326088
  0
LINE
  8
0
 62
     5
 10
84.913048
 20
57.326088
 11
120.847832
 21
57.326088
  0
TEXT
  8
0
 62
     7
 10
118.782608
 20
62.472828
 40
4.130435
 41
1.000000
  1
%%c20
  7
KANJI
 50
90.000000
 51
0.000000
  0
LINE
  8
0
 62
     5
 10
106.391312
 20
58.369568
 11
106.391312
 21
76.282608
  0
POLYLINE
  8
0
 62
     5
 66
     1
 70
     2
  0
VERTEX
  8
0
 10
105.565216
 20
74.217392
  0
VERTEX
  8
0
 10
106.391312
 20
71.326088
  0
VERTEX
  8
0
 10
107.217392
 20
74.217392
  0
SEQEND
  0
POLYLINE
  8
0
 62
     5
 66
     1
 70
     2
  0
VERTEX
  8
0
 10
107.217392
 20
60.434784
  0
VERTEX
  8
0
 10
106.391312
 20
63.326088
  0
VERTEX
  8
0
 10
105.565216
 20
60.434784
  0
SEQEND
  0
LINE
  8
0
 62
     5
 10
84.913048
 20
71.326088
 11
107.630440
 21
71.326088
  0
LINE
  8
0
 62
     5
 10
84.913048
 20
63.326088
 11
107.630440
 21
63.326088
  0
TEXT
  8
0
 62
     7
 10
105.565216
 20
61.130436
 40
4.130435
 41
1.000000
  1
%%c8H7
  7
KANJI
 50
90.000000
 51
0.000000
  0
POLYLINE
  8
0
 62
     4
 66
     1
 70
     2
  0
VERTEX
  8
0
 10
66.913048
 20
62.826088
  0
VERTEX
  8
0
 10
66.913048
 20
54.826088
  0
VERTEX
  8
0
 10
67.413048
 20
54.326088
  0
VERTEX
  8
0
 10
74.413048
 20
54.326088
  0
VERTEX
  8
0
 10
74.913048
 20
54.826088
  0
VERTEX
  8
0
 10
74.913048
 20
56.326088
  0
SEQEND
  0
POLYLINE
  8
0
 62
     4
 66
     1
 70
     2
  0
VERTEX
  8
0
 10
75.913048
 20
57.326088
  0
VERTEX
  8
0
 10
84.413048
 20
57.326088
  0
VERTEX
  8
0
 10
84.913048
 20
57.826088
  0
VERTEX
  8
0
 10
84.913048
 20
76.826088
  0
VERTEX
  8
0
 10
84.413048
 20
77.326088
  0
VERTEX
  8
0
 10
75.913048
 20
77.326088
  0
SEQEND
  0
POLYLINE
  8
0
 62
     4
 66
     1
 70
     2
  0
VERTEX
  8
0
 10
74.913048
 20
78.326088
  0
VERTEX
  8
0
 10
74.913048
 20
79.826088
  0
VERTEX
  8
0
 10
74.413048
 20
80.326088
  0
VERTEX
  8
0
 10
67.413048
 20
80.326088
  0
VERTEX
  8
0
 10
66.913048
 20
79.826088
  0
VERTEX
  8
0
 10
66.913048
 20
62.826088
  0
SEQEND
  0
LINE
  8
0
 62
     7
 10
62.782612
 20
79.326088
 11
50.391308
 21
79.326088
  0
POLYLINE
  8
0
 62
     7
 66
     1
 70
     2
  0
VERTEX
  8
0
 10
53.695656
 20
79.326088
  0
VERTEX
  8
0
 10
52.084785
 20
82.118263
  0
VERTEX
  8
0
 10
61.750004
 20
82.118263
  0
VERTEX
  8
0
 10
60.139133
 20
79.326088
  0
VERTEX
  8
0
 10
58.528267
 20
82.118263
  0
VERTEX
  8
0
 10
56.917397
 20
79.326088
  0
VERTEX
  8
0
 10
55.306526
 20
82.118263
  0
VERTEX
  8
0
 10
53.695656
 20
79.326088
  0
SEQEND
  0
POLYLINE
  8
0
 62
     7
 66
     1
 70
     2
  0
VERTEX
  8
0
 10
57.454353
 20
83.514351
  0
VERTEX
  8
0
 10
57.991310
 20
83.514351
  0
VERTEX
  8
0
 10
57.991310
 20
83.192177
  0
VERTEX
  8
0
 10
57.454353
 20
82.655220
  0
VERTEX
  8
0
 10
56.380440
 20
82.655220
  0
VERTEX
  8
0
 10
55.843483
 20
83.192177
  0
VERTEX
  8
0
 10
55.843483
 20
84.803047
  0
VERTEX
  8
0
 10
56.380440
 20
85.339996
  0
VERTEX
  8
0
 10
57.454353
 20
85.339996
  0
VERTEX
  8
0
 10
57.991310
 20
84.803047
  0
VERTEX
  8
0
 10
57.991310
 20
84.480865
  0
SEQEND
  0
ENDSEC
  0
EOF
