  0
SECTION
  2
HEADER
  9
$ACADVER
  1
AC1003
  9
$INSBASE
 10
0.000000
 20
0.000000
  9
$EXTMIN
 10
0.000000
 20
0.000000
  9
$EXTMAX
 10
545.608696
 20
377.282609
  9
$LIMMIN
 10
0.000000
 20
0.000000
  9
$LIMMAX
 10
545.608696
 20
377.282609
  9
$VIEWCTR
 10
272.804348
 20
188.641304
  9
$VIEWSIZE
 40
377.282609
  0
ENDSEC
  0
SECTION
  2
TABLES
  0
TABLE
  2
LTYPE
 70
     4
  0
LTYPE
  2
CONTINUOUS
 70
    64
  3
SolidLine
 72
    65
 73
     0
 40
0.0
  0
LTYPE
  2
HIDDEN
 70
    64
  3
------------------------
 72
    65
 73
     2
 40
5.804348
 49
3.869565
 49
-1.934783
  0
LTYPE
  2
DASHDOT
 70
    64
  3
--?--?--?--?--?--?--?--
 72
    65
 73
     4
 40
23.217391
 49
17.413043
 49
-1.934783
 49
1.934783
 49
-1.934783
  0
LTYPE
  2
DIVIDE
 70
    64
  3
--??--??--??--??--??--
 72
    65
 73
     6
 40
29.021739
 49
19.347826
 49
-1.934783
 49
1.934783
 49
-1.934783
 49
1.934783
 49
-1.934783
  0
ENDTAB
  0
TABLE
  2
LAYER
 70
     5
  0
LAYER
  2
0
 70
    64
 62
     7
  6
CONTINUOUS
  0
LAYER
  2
HIDDEN
 70
    64
 62
     2
  6
HIDDEN
  0
LAYER
  2
DASHDOT
 70
    64
 62
     6
  6
DASHDOT
  0
LAYER
  2
DIVIDE
 70
    64
 62
     5
  6
DIVIDE
  0
ENDTAB
  0
TABLE
  2
STYLE
 70
     1
  0
STYLE
  2
STANDARD
 70
    64
 40
0.0
 41
1.0
 50
0.0
 71
     0
 42
0.2
  3
TXT
  4

  0
STYLE
  2
KANJI
 70
    64
 40
0.0
 41
1.0
 50
0.0
 71
     0
 42
0.2
  3
TXT
  4
BIGFONT
  0
ENDTAB
  0
TABLE
  2
VIEW
 70
     0
  0
ENDTAB
  0
ENDSEC
  0
SECTION
  2
BLOCKS
  0
ENDSEC
  0
SECTION
  2
ENTITIES
  0
TEXT
  8
0
 62
     7
 10
19.347826
 20
21.282608
 40
7.739130
 41
1.000000
  1
KHK SSG1.5-60J22
  7
KANJI
 50
0.000000
 51
0.000000
  0
TEXT
  8
0
 62
     7
 10
19.347826
 20
9.673913
 40
7.739130
 41
1.000000
  1
The precision grade of gears after secondary operations is equivalent but not identical to its original grade.
  7
KANJI
 50
0.000000
 51
0.000000
  0
TEXT
  8
0
 62
     7
 10
19.347826
 20
348.260864
 40
8.706522
 41
1.000000
  1
For J Series products, without black oxide repeatedly applied on secondary-operated parts.
  7
KANJI
 50
0.000000
 51
0.000000
  0
POLYLINE
  8
0
 62
     7
 66
     1
 70
     2
  0
VERTEX
  8
0
 10
386.956512
 20
348.260864
  0
VERTEX
  8
0
 10
379.410858
 20
361.339996
  0
VERTEX
  8
0
 10
409.593475
 20
361.339996
  0
VERTEX
  8
0
 10
402.047821
 20
348.260864
  0
VERTEX
  8
0
 10
394.502167
 20
361.339996
  0
VERTEX
  8
0
 10
386.956512
 20
348.260864
  0
SEQEND
  0
POLYLINE
  8
0
 62
     7
 66
     1
 70
     2
  0
VERTEX
  8
0
 10
439.776062
 20
348.260864
  0
VERTEX
  8
0
 10
432.230438
 20
361.339996
  0
VERTEX
  8
0
 10
477.504333
 20
361.339996
  0
VERTEX
  8
0
 10
469.958679
 20
348.260864
  0
VERTEX
  8
0
 10
462.413025
 20
361.339996
  0
VERTEX
  8
0
 10
454.867371
 20
348.260864
  0
VERTEX
  8
0
 10
447.321716
 20
361.339996
  0
VERTEX
  8
0
 10
439.776062
 20
348.260864
  0
SEQEND
  0
POLYLINE
  8
0
 62
     7
 66
     1
 70
     2
  0
VERTEX
  8
0
 10
457.382599
 20
367.879547
  0
VERTEX
  8
0
 10
459.897827
 20
367.879547
  0
VERTEX
  8
0
 10
459.897827
 20
366.370422
  0
VERTEX
  8
0
 10
457.382599
 20
363.855225
  0
VERTEX
  8
0
 10
452.352173
 20
363.855225
  0
VERTEX
  8
0
 10
449.836945
 20
366.370422
  0
VERTEX
  8
0
 10
449.836945
 20
373.916077
  0
VERTEX
  8
0
 10
452.352173
 20
376.431305
  0
VERTEX
  8
0
 10
457.382599
 20
376.431305
  0
VERTEX
  8
0
 10
459.897827
 20
373.916077
  0
VERTEX
  8
0
 10
459.897827
 20
372.406952
  0
SEQEND
  0
POLYLINE
  8
0
 62
     7
 66
     1
 70
     2
  0
VERTEX
  8
0
 10
421.163452
 20
361.339996
  0
VERTEX
  8
0
 10
419.151306
 20
359.327820
  0
VERTEX
  8
0
 10
419.151306
 20
350.273041
  0
VERTEX
  8
0
 10
421.163452
 20
348.260864
  0
SEQEND
  0
POLYLINE
  8
0
 62
     7
 66
     1
 70
     2
  0
VERTEX
  8
0
 10
487.062164
 20
361.339996
  0
VERTEX
  8
0
 10
489.074341
 20
359.327820
  0
VERTEX
  8
0
 10
489.074341
 20
350.273041
  0
VERTEX
  8
0
 10
487.062164
 20
348.260864
  0
SEQEND
  0
LINE
  8
0
 62
     5
 10
282.456543
 20
204.184784
 11
282.456543
 21
111.184784
  0
POLYLINE
  8
0
 62
     5
 66
     1
 70
     2
  0
VERTEX
  8
0
 10
284.391327
 20
197.413040
  0
VERTEX
  8
0
 10
282.456543
 20
204.184784
  0
VERTEX
  8
0
 10
280.521759
 20
197.413040
  0
SEQEND
  0
POLYLINE
  8
0
 62
     5
 66
     1
 70
     2
  0
VERTEX
  8
0
 10
280.521759
 20
117.956528
  0
VERTEX
  8
0
 10
282.456543
 20
111.184784
  0
VERTEX
  8
0
 10
284.391327
 20
117.956528
  0
SEQEND
  0
LINE
  8
0
 62
     5
 10
185.717407
 20
204.184784
 11
285.358704
 21
204.184784
  0
LINE
  8
0
 62
     5
 10
185.717407
 20
111.184784
 11
285.358704
 21
111.184784
  0
TEXT
  8
0
 62
     7
 10
280.521759
 20
146.317932
 40
9.673913
 41
1.000000
  1
%%c93
  7
KANJI
 50
90.000000
 51
0.000000
  0
LINE
  8
DASHDOT
 62
     7
 10
150.913055
 20
202.684784
 11
177.521759
 21
202.684784
  0
LINE
  8
DASHDOT
 62
     7
 10
150.913055
 20
112.684784
 11
177.521759
 21
112.684784
  0
LINE
  8
DASHDOT
 62
     7
 10
150.913055
 20
157.684784
 11
191.521759
 21
157.684784
  0
LINE
  8
0
 62
     5
 10
171.717407
 20
203.684784
 11
171.717407
 21
204.184784
  0
LINE
  8
0
 62
     5
 10
156.717407
 20
203.684784
 11
156.717407
 21
204.184784
  0
LINE
  8
0
 62
     5
 10
172.717407
 20
187.684784
 11
185.717407
 21
187.684784
  0
LINE
  8
0
 62
     5
 10
172.717407
 20
127.684784
 11
185.717407
 21
127.684784
  0
LINE
  8
0
 62
     5
 10
171.217407
 20
204.184784
 11
185.717407
 21
204.184784
  0
LINE
  8
0
 62
     5
 10
171.217407
 20
111.184784
 11
185.717407
 21
111.184784
  0
LINE
  8
0
 62
     4
 10
156.717407
 20
200.809784
 11
171.717407
 21
200.809784
  0
LINE
  8
0
 62
     4
 10
156.717407
 20
114.559784
 11
171.717407
 21
114.559784
  0
LINE
  8
0
 62
     4
 10
184.717407
 20
146.684784
 11
185.717407
 21
145.684784
  0
LINE
  8
0
 62
     4
 10
184.717407
 20
168.684784
 11
185.717407
 21
169.684784
  0
LINE
  8
0
 62
     4
 10
157.717407
 20
168.684784
 11
157.717407
 21
146.684784
  0
POLYLINE
  8
0
 62
     4
 66
     1
 70
     2
  0
VERTEX
  8
0
 10
156.717407
 20
145.684784
  0
VERTEX
  8
0
 10
157.717407
 20
146.684784
  0
VERTEX
  8
0
 10
184.717407
 20
146.684784
  0
VERTEX
  8
0
 10
184.717407
 20
168.684784
  0
VERTEX
  8
0
 10
157.717407
 20
168.684784
  0
VERTEX
  8
0
 10
156.717407
 20
169.684784
  0
SEQEND
  0
ARC
  8
0
 62
     4
 10
172.717407
 20
188.684784
 40
1.000000
 50
180.0
 51
270.0
  0
ARC
  8
0
 62
     4
 10
172.717407
 20
126.684784
 40
1.000000
 50
90.0
 51
180.0
  0
LINE
  8
0
 62
     5
 10
185.717407
 20
187.184784
 11
185.717407
 21
204.184784
  0
LINE
  8
0
 62
     5
 10
183.326111
 20
256.423920
 11
145.108704
 21
256.423920
  0
POLYLINE
  8
0
 62
     5
 66
     1
 70
     2
  0
VERTEX
  8
0
 10
149.945663
 20
254.489136
  0
VERTEX
  8
0
 10
156.717407
 20
256.423920
  0
VERTEX
  8
0
 10
149.945663
 20
258.358704
  0
SEQEND
  0
POLYLINE
  8
0
 62
     5
 66
     1
 70
     2
  0
VERTEX
  8
0
 10
178.489151
 20
258.358704
  0
VERTEX
  8
0
 10
171.717407
 20
256.423920
  0
VERTEX
  8
0
 10
178.489151
 20
254.489136
  0
SEQEND
  0
LINE
  8
0
 62
     5
 10
171.717407
 20
204.184784
 11
171.717407
 21
259.326111
  0
TEXT
  8
0
 62
     7
 10
157.929367
 20
257.971741
 40
9.673913
 41
1.000000
  1
15
  7
KANJI
 50
0.000000
 51
0.000000
  0
LINE
  8
0
 62
     5
 10
156.717407
 20
271.902161
 11
185.717407
 21
271.902161
  0
POLYLINE
  8
0
 62
     5
 66
     1
 70
     2
  0
VERTEX
  8
0
 10
163.489151
 20
273.836975
  0
VERTEX
  8
0
 10
156.717407
 20
271.902161
  0
VERTEX
  8
0
 10
163.489151
 20
269.967407
  0
SEQEND
  0
POLYLINE
  8
0
 62
     5
 66
     1
 70
     2
  0
VERTEX
  8
0
 10
178.945663
 20
269.967407
  0
VERTEX
  8
0
 10
185.717407
 20
271.902161
  0
VERTEX
  8
0
 10
178.945663
 20
273.836975
  0
SEQEND
  0
LINE
  8
0
 62
     5
 10
156.717407
 20
204.184784
 11
156.717407
 21
274.804352
  0
LINE
  8
0
 62
     5
 10
185.717407
 20
204.184784
 11
185.717407
 21
274.804352
  0
TEXT
  8
0
 62
     7
 10
164.929367
 20
273.450012
 40
9.673913
 41
1.000000
  1
29
  7
KANJI
 50
0.000000
 51
0.000000
  0
LINE
  8
0
 62
     5
 10
197.326111
 20
256.423920
 11
160.108719
 21
256.423920
  0
POLYLINE
  8
0
 62
     5
 66
     1
 70
     2
  0
VERTEX
  8
0
 10
164.945663
 20
254.489136
  0
VERTEX
  8
0
 10
171.717407
 20
256.423920
  0
VERTEX
  8
0
 10
164.945663
 20
258.358704
  0
SEQEND
  0
POLYLINE
  8
0
 62
     5
 66
     1
 70
     2
  0
VERTEX
  8
0
 10
192.489151
 20
258.358704
  0
VERTEX
  8
0
 10
185.717407
 20
256.423920
  0
VERTEX
  8
0
 10
192.489151
 20
254.489136
  0
SEQEND
  0
TEXT
  8
0
 62
     7
 10
172.429367
 20
257.971741
 40
9.673913
 41
1.000000
  1
14
  7
KANJI
 50
0.000000
 51
0.000000
  0
LINE
  8
0
 62
     5
 10
266.978271
 20
187.684784
 11
266.978271
 21
127.684784
  0
POLYLINE
  8
0
 62
     5
 66
     1
 70
     2
  0
VERTEX
  8
0
 10
268.913055
 20
180.913040
  0
VERTEX
  8
0
 10
266.978271
 20
187.684784
  0
VERTEX
  8
0
 10
265.043488
 20
180.913040
  0
SEQEND
  0
POLYLINE
  8
0
 62
     5
 66
     1
 70
     2
  0
VERTEX
  8
0
 10
265.043488
 20
134.456528
  0
VERTEX
  8
0
 10
266.978271
 20
127.684784
  0
VERTEX
  8
0
 10
268.913055
 20
134.456528
  0
SEQEND
  0
LINE
  8
0
 62
     5
 10
185.717407
 20
187.684784
 11
269.880463
 21
187.684784
  0
LINE
  8
0
 62
     5
 10
185.717407
 20
127.684784
 11
269.880463
 21
127.684784
  0
TEXT
  8
0
 62
     7
 10
265.043488
 20
146.317932
 40
9.673913
 41
1.000000
  1
%%c60
  7
KANJI
 50
90.000000
 51
0.000000
  0
LINE
  8
DASHDOT
 62
     7
 10
366.630432
 20
197.358704
 11
366.630432
 21
121.880432
  0
LINE
  8
DASHDOT
 62
     7
 10
330.826111
 20
157.684784
 11
402.434814
 21
157.684784
  0
LINE
  8
0
 62
     5
 10
381.239136
 20
214.771744
 11
352.021759
 21
214.771744
  0
POLYLINE
  8
0
 62
     5
 66
     1
 70
     2
  0
VERTEX
  8
0
 10
356.858704
 20
212.836960
  0
VERTEX
  8
0
 10
363.630432
 20
214.771744
  0
VERTEX
  8
0
 10
356.858704
 20
216.706528
  0
SEQEND
  0
POLYLINE
  8
0
 62
     5
 66
     1
 70
     2
  0
VERTEX
  8
0
 10
376.402191
 20
216.706528
  0
VERTEX
  8
0
 10
369.630432
 20
214.771744
  0
VERTEX
  8
0
 10
376.402191
 20
212.836960
  0
SEQEND
  0
LINE
  8
0
 62
     5
 10
363.630432
 20
171.484787
 11
363.630432
 21
217.673920
  0
LINE
  8
0
 62
     5
 10
369.630432
 20
171.484787
 11
369.630432
 21
217.673920
  0
TEXT
  8
0
 62
     7
 10
346.661560
 20
216.706528
 40
9.673913
 41
1.000000
  1
6
  7
KANJI
 50
0.000000
 51
0.000000
  0
TEXT
  8
0
 62
     7
 10
356.237549
 20
216.706528
 40
7.739130
 41
1.000000
  1
%%p0.015
  7
KANJI
 50
0.000000
 51
0.000000
  0
LINE
  8
0
 62
     5
 10
425.652191
 20
135.076096
 11
425.652191
 21
183.093475
  0
POLYLINE
  8
0
 62
     5
 66
     1
 70
     2
  0
VERTEX
  8
0
 10
423.717407
 20
178.256531
  0
VERTEX
  8
0
 10
425.652191
 20
171.484787
  0
VERTEX
  8
0
 10
427.586975
 20
178.256531
  0
SEQEND
  0
POLYLINE
  8
0
 62
     5
 66
     1
 70
     2
  0
VERTEX
  8
0
 10
427.586975
 20
139.913040
  0
VERTEX
  8
0
 10
425.652191
 20
146.684784
  0
VERTEX
  8
0
 10
423.717407
 20
139.913040
  0
SEQEND
  0
LINE
  8
0
 62
     5
 10
369.630432
 20
171.484787
 11
428.554352
 21
171.484787
  0
LINE
  8
0
 62
     5
 10
366.630432
 20
146.684784
 11
428.554352
 21
146.684784
  0
TEXT
  8
0
 62
     7
 10
422.750031
 20
129.020996
 40
9.673913
 41
1.000000
  1
24.8
  7
KANJI
 50
90.000000
 51
0.000000
  0
TEXT
  8
0
 62
     7
 10
423.330444
 20
170.893524
 40
4.836957
 41
1.000000
  1
 
  7
KANJI
 50
90.000000
 51
0.000000
  0
TEXT
  8
0
 62
     7
 10
417.332642
 20
170.893524
 40
4.836957
 41
1.000000
  1
+
  7
KANJI
 50
90.000000
 51
0.000000
  0
TEXT
  8
0
 62
     7
 10
423.330444
 20
176.310913
 40
4.836957
 41
1.000000
  1
0
  7
KANJI
 50
90.000000
 51
0.000000
  0
TEXT
  8
0
 62
     7
 10
417.332642
 20
176.310913
 40
4.836957
 41
1.000000
  1
0.1
  7
KANJI
 50
90.000000
 51
0.000000
  0
ARC
  8
0
 62
     4
 10
366.630432
 20
157.684784
 40
11.000000
 50
105.82662088647183
 51
74.17337911352817
  0
POLYLINE
  8
0
 62
     4
 66
     1
 70
     2
  0
VERTEX
  8
0
 10
369.630432
 20
168.267792
  0
VERTEX
  8
0
 10
369.630432
 20
171.484787
  0
VERTEX
  8
0
 10
363.630432
 20
171.484787
  0
VERTEX
  8
0
 10
363.630432
 20
168.267792
  0
SEQEND
  0
LINE
  8
0
 62
     4
 10
156.717407
 20
171.484787
 11
185.717407
 21
171.484787
  0
POLYLINE
  8
DASHDOT
 62
     7
 66
     1
 70
     2
  0
VERTEX
  8
DASHDOT
 10
178.717407
 20
193.489136
  0
VERTEX
  8
DASHDOT
 10
178.717407
 20
165.680435
  0
SEQEND
  0
POLYLINE
  8
0
 62
     4
 66
     1
 70
     2
  0
VERTEX
  8
0
 10
181.217407
 20
187.684784
  0
VERTEX
  8
0
 10
181.217407
 20
171.484787
  0
SEQEND
  0
POLYLINE
  8
0
 62
     4
 66
     1
 70
     2
  0
VERTEX
  8
0
 10
176.217407
 20
187.684784
  0
VERTEX
  8
0
 10
176.217407
 20
171.484787
  0
SEQEND
  0
POLYLINE
  8
0
 62
     4
 66
     1
 70
     2
  0
VERTEX
  8
0
 10
180.782410
 20
187.684784
  0
VERTEX
  8
0
 10
180.782410
 20
171.484787
  0
SEQEND
  0
POLYLINE
  8
0
 62
     4
 66
     1
 70
     2
  0
VERTEX
  8
0
 10
176.652405
 20
187.684784
  0
VERTEX
  8
0
 10
176.652405
 20
171.484787
  0
SEQEND
  0
POLYLINE
  8
0
 62
     4
 66
     1
 70
     2
  0
VERTEX
  8
0
 10
364.130432
 20
171.484787
  0
VERTEX
  8
0
 10
364.130432
 20
187.580444
  0
SEQEND
  0
POLYLINE
  8
0
 62
     4
 66
     1
 70
     2
  0
VERTEX
  8
0
 10
369.130432
 20
171.484787
  0
VERTEX
  8
0
 10
369.130432
 20
187.580444
  0
SEQEND
  0
POLYLINE
  8
0
 62
     4
 66
     1
 70
     2
  0
VERTEX
  8
0
 10
364.565430
 20
171.484787
  0
VERTEX
  8
0
 10
364.565430
 20
187.613632
  0
SEQEND
  0
POLYLINE
  8
0
 62
     4
 66
     1
 70
     2
  0
VERTEX
  8
0
 10
368.695435
 20
171.484787
  0
VERTEX
  8
0
 10
368.695435
 20
187.613632
  0
SEQEND
  0
POLYLINE
  8
0
 62
     5
 66
     1
 70
     2
  0
VERTEX
  8
0
 10
366.630432
 20
187.684784
  0
VERTEX
  8
0
 10
331.804382
 20
245.728271
  0
VERTEX
  8
0
 10
353.086975
 20
245.728271
  0
SEQEND
  0
POLYLINE
  8
0
 62
     5
 66
     1
 70
     2
  0
VERTEX
  8
0
 10
361.487366
 20
192.496063
  0
VERTEX
  8
0
 10
366.630432
 20
187.684784
  0
VERTEX
  8
0
 10
364.805481
 20
194.486938
  0
SEQEND
  0
TEXT
  8
0
 62
     7
 10
333.739136
 20
247.663055
 40
9.286957
 41
1.000000
  1
M5
  7
KANJI
 50
0.000000
 51
0.000000
  0
CIRCLE
  8
0
 62
     7
 10
178.717407
 20
157.684784
 40
2.500000
  0
CIRCLE
  8
0
 62
     4
 10
178.717407
 20
157.684784
 40
2.065000
  0
POLYLINE
  8
DASHDOT
 62
     7
 66
     1
 70
     2
  0
VERTEX
  8
DASHDOT
 10
170.413055
 20
157.684784
  0
VERTEX
  8
DASHDOT
 10
187.021759
 20
157.684784
  0
SEQEND
  0
POLYLINE
  8
DASHDOT
 62
     7
 66
     1
 70
     2
  0
VERTEX
  8
DASHDOT
 10
178.717407
 20
149.380432
  0
VERTEX
  8
DASHDOT
 10
178.717407
 20
165.989136
  0
SEQEND
  0
LINE
  8
DASHDOT
 62
     7
 10
178.717407
 20
187.684784
 11
178.717407
 21
157.684784
  0
LINE
  8
0
 62
     5
 10
178.717407
 20
187.684784
 11
178.717407
 21
204.184784
  0
POLYLINE
  8
0
 62
     4
 66
     1
 70
     2
  0
VERTEX
  8
0
 10
377.342590
 20
160.184784
  0
VERTEX
  8
0
 10
396.526093
 20
160.184784
  0
SEQEND
  0
POLYLINE
  8
0
 62
     4
 66
     1
 70
     2
  0
VERTEX
  8
0
 10
377.342590
 20
155.184784
  0
VERTEX
  8
0
 10
396.526093
 20
155.184784
  0
SEQEND
  0
POLYLINE
  8
0
 62
     4
 66
     1
 70
     2
  0
VERTEX
  8
0
 10
377.434875
 20
159.749786
  0
VERTEX
  8
0
 10
396.559296
 20
159.749786
  0
SEQEND
  0
POLYLINE
  8
0
 62
     4
 66
     1
 70
     2
  0
VERTEX
  8
0
 10
377.434875
 20
155.619781
  0
VERTEX
  8
0
 10
396.559296
 20
155.619781
  0
SEQEND
  0
POLYLINE
  8
0
 62
     5
 66
     1
 70
     2
  0
VERTEX
  8
0
 10
396.630432
 20
157.684784
  0
VERTEX
  8
0
 10
425.652191
 20
230.250000
  0
VERTEX
  8
0
 10
397.404358
 20
230.250000
  0
SEQEND
  0
POLYLINE
  8
0
 62
     5
 66
     1
 70
     2
  0
VERTEX
  8
0
 10
397.348633
 20
164.690781
  0
VERTEX
  8
0
 10
396.630432
 20
157.684784
  0
VERTEX
  8
0
 10
400.941528
 20
163.253845
  0
SEQEND
  0
TEXT
  8
0
 62
     7
 10
401.273926
 20
232.184784
 40
9.286957
 41
1.000000
  1
M5
  7
KANJI
 50
0.000000
 51
0.000000
  0
LINE
  8
0
 62
     5
 10
236.021759
 20
168.684784
 11
236.021759
 21
146.684784
  0
POLYLINE
  8
0
 62
     5
 66
     1
 70
     2
  0
VERTEX
  8
0
 10
234.086975
 20
153.456528
  0
VERTEX
  8
0
 10
236.021759
 20
146.684784
  0
VERTEX
  8
0
 10
237.956543
 20
153.456528
  0
SEQEND
  0
LINE
  8
0
 62
     5
 10
185.717407
 20
146.684784
 11
238.923935
 21
146.684784
  0
TEXT
  8
0
 62
     7
 10
234.086975
 20
140.029892
 40
9.673913
 41
1.000000
  1
%%c22H7
  7
KANJI
 50
90.000000
 51
0.000000
  0
POLYLINE
  8
0
 62
     4
 66
     1
 70
     2
  0
VERTEX
  8
0
 10
156.717407
 20
145.684784
  0
VERTEX
  8
0
 10
156.717407
 20
111.684784
  0
VERTEX
  8
0
 10
157.217407
 20
111.184784
  0
VERTEX
  8
0
 10
171.217407
 20
111.184784
  0
VERTEX
  8
0
 10
171.717407
 20
111.684784
  0
VERTEX
  8
0
 10
171.717407
 20
126.684784
  0
SEQEND
  0
POLYLINE
  8
0
 62
     4
 66
     1
 70
     2
  0
VERTEX
  8
0
 10
172.717407
 20
127.684784
  0
VERTEX
  8
0
 10
185.217407
 20
127.684784
  0
VERTEX
  8
0
 10
185.717407
 20
128.184784
  0
VERTEX
  8
0
 10
185.717407
 20
187.184784
  0
VERTEX
  8
0
 10
185.217407
 20
187.684784
  0
VERTEX
  8
0
 10
172.717407
 20
187.684784
  0
SEQEND
  0
POLYLINE
  8
0
 62
     4
 66
     1
 70
     2
  0
VERTEX
  8
0
 10
171.717407
 20
188.684784
  0
VERTEX
  8
0
 10
171.717407
 20
203.684784
  0
VERTEX
  8
0
 10
171.217407
 20
204.184784
  0
VERTEX
  8
0
 10
157.217407
 20
204.184784
  0
VERTEX
  8
0
 10
156.717407
 20
203.684784
  0
VERTEX
  8
0
 10
156.717407
 20
145.684784
  0
SEQEND
  0
LINE
  8
0
 62
     7
 10
147.043488
 20
202.684784
 11
118.021759
 21
202.684784
  0
POLYLINE
  8
0
 62
     7
 66
     1
 70
     2
  0
VERTEX
  8
0
 10
125.760887
 20
202.684784
  0
VERTEX
  8
0
 10
121.988060
 20
209.224350
  0
VERTEX
  8
0
 10
144.625015
 20
209.224350
  0
VERTEX
  8
0
 10
140.852188
 20
202.684784
  0
VERTEX
  8
0
 10
137.079361
 20
209.224350
  0
VERTEX
  8
0
 10
133.306534
 20
202.684784
  0
VERTEX
  8
0
 10
129.533707
 20
209.224350
  0
VERTEX
  8
0
 10
125.760887
 20
202.684784
  0
SEQEND
  0
POLYLINE
  8
0
 62
     7
 66
     1
 70
     2
  0
VERTEX
  8
0
 10
134.564148
 20
212.494141
  0
VERTEX
  8
0
 10
135.821747
 20
212.494141
  0
VERTEX
  8
0
 10
135.821747
 20
211.739563
  0
VERTEX
  8
0
 10
134.564148
 20
210.481964
  0
VERTEX
  8
0
 10
132.048935
 20
210.481964
  0
VERTEX
  8
0
 10
130.791321
 20
211.739563
  0
VERTEX
  8
0
 10
130.791321
 20
215.512390
  0
VERTEX
  8
0
 10
132.048935
 20
216.770004
  0
VERTEX
  8
0
 10
134.564148
 20
216.770004
  0
VERTEX
  8
0
 10
135.821747
 20
215.512390
  0
VERTEX
  8
0
 10
135.821747
 20
214.757828
  0
SEQEND
  0
CIRCLE
  8
0
 62
     4
 10
366.630432
 20
157.684784
 40
30.000000
  0
LINE
  8
0
 62
     5
 10
197.326111
 20
213.858704
 11
167.108704
 21
213.858704
  0
POLYLINE
  8
0
 62
     5
 66
     1
 70
     2
  0
VERTEX
  8
0
 10
171.945663
 20
211.923920
  0
VERTEX
  8
0
 10
178.717407
 20
213.858704
  0
VERTEX
  8
0
 10
171.945663
 20
215.793488
  0
SEQEND
  0
POLYLINE
  8
0
 62
     5
 66
     1
 70
     2
  0
VERTEX
  8
0
 10
192.489151
 20
215.793488
  0
VERTEX
  8
0
 10
185.717407
 20
213.858704
  0
VERTEX
  8
0
 10
192.489151
 20
211.923920
  0
SEQEND
  0
LINE
  8
0
 62
     5
 10
178.717407
 20
204.184784
 11
178.717407
 21
216.760864
  0
TEXT
  8
0
 62
     7
 10
179.073380
 20
215.406525
 40
9.673913
 41
1.000000
  1
7
  7
KANJI
 50
0.000000
 51
0.000000
  0
LINE
  8
0
 62
     5
 10
178.717407
 20
187.684784
 11
178.717407
 21
204.184784
  0
ENDSEC
  0
EOF
