  0
SECTION
  2
HEADER
  9
$ACADVER
  1
AC1003
  9
$INSBASE
 10
0.000000
 20
0.000000
  9
$EXTMIN
 10
0.000000
 20
0.000000
  9
$EXTMAX
 10
588.521739
 20
406.956522
  9
$LIMMIN
 10
0.000000
 20
0.000000
  9
$LIMMAX
 10
588.521739
 20
406.956522
  9
$VIEWCTR
 10
294.260870
 20
203.478261
  9
$VIEWSIZE
 40
406.956522
  0
ENDSEC
  0
SECTION
  2
TABLES
  0
TABLE
  2
LTYPE
 70
     4
  0
LTYPE
  2
CONTINUOUS
 70
    64
  3
SolidLine
 72
    65
 73
     0
 40
0.0
  0
LTYPE
  2
HIDDEN
 70
    64
  3
------------------------
 72
    65
 73
     2
 40
6.260870
 49
4.173913
 49
-2.086957
  0
LTYPE
  2
DASHDOT
 70
    64
  3
--?--?--?--?--?--?--?--
 72
    65
 73
     4
 40
25.043478
 49
18.782609
 49
-2.086957
 49
2.086957
 49
-2.086957
  0
LTYPE
  2
DIVIDE
 70
    64
  3
--??--??--??--??--??--
 72
    65
 73
     6
 40
31.304348
 49
20.869565
 49
-2.086957
 49
2.086957
 49
-2.086957
 49
2.086957
 49
-2.086957
  0
ENDTAB
  0
TABLE
  2
LAYER
 70
     5
  0
LAYER
  2
0
 70
    64
 62
     7
  6
CONTINUOUS
  0
LAYER
  2
HIDDEN
 70
    64
 62
     2
  6
HIDDEN
  0
LAYER
  2
DASHDOT
 70
    64
 62
     6
  6
DASHDOT
  0
LAYER
  2
DIVIDE
 70
    64
 62
     5
  6
DIVIDE
  0
ENDTAB
  0
TABLE
  2
STYLE
 70
     1
  0
STYLE
  2
STANDARD
 70
    64
 40
0.0
 41
1.0
 50
0.0
 71
     0
 42
0.2
  3
TXT
  4

  0
STYLE
  2
KANJI
 70
    64
 40
0.0
 41
1.0
 50
0.0
 71
     0
 42
0.2
  3
TXT
  4
BIGFONT
  0
ENDTAB
  0
TABLE
  2
VIEW
 70
     0
  0
ENDTAB
  0
ENDSEC
  0
SECTION
  2
BLOCKS
  0
ENDSEC
  0
SECTION
  2
ENTITIES
  0
TEXT
  8
0
 62
     7
 10
20.869566
 20
22.956522
 40
8.347826
 41
1.000000
  1
KHK SSG2-42
  7
KANJI
 50
0.000000
 51
0.000000
  0
TEXT
  8
0
 62
     7
 10
20.869566
 20
10.434783
 40
8.347826
 41
1.000000
  1

  7
KANJI
 50
0.000000
 51
0.000000
  0
TEXT
  8
0
 62
     7
 10
20.869566
 20
375.652161
 40
9.391304
 41
1.000000
  1
Black oxide except gear tooth
  7
KANJI
 50
0.000000
 51
0.000000
  0
POLYLINE
  8
0
 62
     7
 66
     1
 70
     2
  0
VERTEX
  8
0
 10
417.391296
 20
375.652161
  0
VERTEX
  8
0
 10
409.252167
 20
389.759979
  0
VERTEX
  8
0
 10
441.808685
 20
389.759979
  0
VERTEX
  8
0
 10
433.669556
 20
375.652161
  0
VERTEX
  8
0
 10
425.530426
 20
389.759979
  0
VERTEX
  8
0
 10
417.391296
 20
375.652161
  0
SEQEND
  0
POLYLINE
  8
0
 62
     7
 66
     1
 70
     2
  0
VERTEX
  8
0
 10
474.365204
 20
375.652161
  0
VERTEX
  8
0
 10
466.226074
 20
389.759979
  0
VERTEX
  8
0
 10
515.060852
 20
389.759979
  0
VERTEX
  8
0
 10
506.921753
 20
375.652161
  0
VERTEX
  8
0
 10
498.782593
 20
389.759979
  0
VERTEX
  8
0
 10
490.643463
 20
375.652161
  0
VERTEX
  8
0
 10
482.504333
 20
389.759979
  0
VERTEX
  8
0
 10
474.365204
 20
375.652161
  0
SEQEND
  0
POLYLINE
  8
0
 62
     7
 66
     1
 70
     2
  0
VERTEX
  8
0
 10
493.356506
 20
396.813904
  0
VERTEX
  8
0
 10
496.069550
 20
396.813904
  0
VERTEX
  8
0
 10
496.069550
 20
395.186066
  0
VERTEX
  8
0
 10
493.356506
 20
392.473022
  0
VERTEX
  8
0
 10
487.930420
 20
392.473022
  0
VERTEX
  8
0
 10
485.217377
 20
395.186066
  0
VERTEX
  8
0
 10
485.217377
 20
403.325195
  0
VERTEX
  8
0
 10
487.930420
 20
406.038239
  0
VERTEX
  8
0
 10
493.356506
 20
406.038239
  0
VERTEX
  8
0
 10
496.069550
 20
403.325195
  0
VERTEX
  8
0
 10
496.069550
 20
401.697388
  0
SEQEND
  0
POLYLINE
  8
0
 62
     7
 66
     1
 70
     2
  0
VERTEX
  8
0
 10
454.288696
 20
389.759979
  0
VERTEX
  8
0
 10
452.118256
 20
387.589539
  0
VERTEX
  8
0
 10
452.118256
 20
377.822601
  0
VERTEX
  8
0
 10
454.288696
 20
375.652161
  0
SEQEND
  0
POLYLINE
  8
0
 62
     7
 66
     1
 70
     2
  0
VERTEX
  8
0
 10
525.370422
 20
389.759979
  0
VERTEX
  8
0
 10
527.540894
 20
387.589539
  0
VERTEX
  8
0
 10
527.540894
 20
377.822601
  0
VERTEX
  8
0
 10
525.370422
 20
375.652161
  0
SEQEND
  0
LINE
  8
0
 62
     5
 10
309.391296
 20
214.086945
 11
309.391296
 21
126.086945
  0
POLYLINE
  8
0
 62
     5
 66
     1
 70
     2
  0
VERTEX
  8
0
 10
311.478271
 20
206.782593
  0
VERTEX
  8
0
 10
309.391296
 20
214.086945
  0
VERTEX
  8
0
 10
307.304321
 20
206.782593
  0
SEQEND
  0
POLYLINE
  8
0
 62
     5
 66
     1
 70
     2
  0
VERTEX
  8
0
 10
307.304321
 20
133.391296
  0
VERTEX
  8
0
 10
309.391296
 20
126.086945
  0
VERTEX
  8
0
 10
311.478271
 20
133.391296
  0
SEQEND
  0
LINE
  8
0
 62
     5
 10
205.043472
 20
214.086945
 11
312.521729
 21
214.086945
  0
LINE
  8
0
 62
     5
 10
205.043472
 20
126.086945
 11
312.521729
 21
126.086945
  0
TEXT
  8
0
 62
     7
 10
307.304321
 20
157.826080
 40
10.434783
 41
1.000000
  1
%%c88
  7
KANJI
 50
90.000000
 51
0.000000
  0
LINE
  8
DASHDOT
 62
     7
 10
162.782608
 20
212.086945
 11
195.304337
 21
212.086945
  0
LINE
  8
DASHDOT
 62
     7
 10
162.782608
 20
128.086945
 11
195.304337
 21
128.086945
  0
LINE
  8
DASHDOT
 62
     7
 10
162.782608
 20
170.086945
 11
211.304337
 21
170.086945
  0
LINE
  8
0
 62
     5
 10
189.043472
 20
213.586945
 11
189.043472
 21
214.086945
  0
LINE
  8
0
 62
     5
 10
169.043472
 20
213.586945
 11
169.043472
 21
214.086945
  0
LINE
  8
0
 62
     5
 10
190.043472
 20
200.086945
 11
205.043472
 21
200.086945
  0
LINE
  8
0
 62
     5
 10
190.043472
 20
140.086945
 11
205.043472
 21
140.086945
  0
LINE
  8
0
 62
     5
 10
188.543472
 20
214.086945
 11
205.043472
 21
214.086945
  0
LINE
  8
0
 62
     5
 10
188.543472
 20
126.086945
 11
205.043472
 21
126.086945
  0
LINE
  8
0
 62
     4
 10
169.043472
 20
209.586945
 11
189.043472
 21
209.586945
  0
LINE
  8
0
 62
     4
 10
169.043472
 20
130.586945
 11
189.043472
 21
130.586945
  0
LINE
  8
0
 62
     4
 10
204.043472
 20
160.086945
 11
205.043472
 21
159.086945
  0
LINE
  8
0
 62
     4
 10
204.043472
 20
180.086945
 11
205.043472
 21
181.086945
  0
LINE
  8
0
 62
     4
 10
170.043472
 20
180.086945
 11
170.043472
 21
160.086945
  0
POLYLINE
  8
0
 62
     4
 66
     1
 70
     2
  0
VERTEX
  8
0
 10
169.043472
 20
159.086945
  0
VERTEX
  8
0
 10
170.043472
 20
160.086945
  0
VERTEX
  8
0
 10
204.043472
 20
160.086945
  0
VERTEX
  8
0
 10
204.043472
 20
180.086945
  0
VERTEX
  8
0
 10
170.043472
 20
180.086945
  0
VERTEX
  8
0
 10
169.043472
 20
181.086945
  0
SEQEND
  0
ARC
  8
0
 62
     4
 10
190.043472
 20
201.086945
 40
1.000000
 50
180.0
 51
270.0
  0
ARC
  8
0
 62
     4
 10
190.043472
 20
139.086945
 40
1.000000
 50
90.0
 51
180.0
  0
LINE
  8
0
 62
     5
 10
205.043472
 20
199.586945
 11
205.043472
 21
214.086945
  0
LINE
  8
0
 62
     5
 10
201.565216
 20
270.434753
 11
156.521729
 21
270.434753
  0
POLYLINE
  8
0
 62
     5
 66
     1
 70
     2
  0
VERTEX
  8
0
 10
161.739120
 20
268.347809
  0
VERTEX
  8
0
 10
169.043472
 20
270.434753
  0
VERTEX
  8
0
 10
161.739120
 20
272.521729
  0
SEQEND
  0
POLYLINE
  8
0
 62
     5
 66
     1
 70
     2
  0
VERTEX
  8
0
 10
196.347824
 20
272.521729
  0
VERTEX
  8
0
 10
189.043472
 20
270.434753
  0
VERTEX
  8
0
 10
196.347824
 20
268.347809
  0
SEQEND
  0
LINE
  8
0
 62
     5
 10
189.043472
 20
214.086945
 11
189.043472
 21
273.565186
  0
TEXT
  8
0
 62
     7
 10
172.260864
 20
272.104340
 40
10.434783
 41
1.000000
  1
20
  7
KANJI
 50
0.000000
 51
0.000000
  0
LINE
  8
0
 62
     5
 10
169.043472
 20
287.130432
 11
205.043472
 21
287.130432
  0
POLYLINE
  8
0
 62
     5
 66
     1
 70
     2
  0
VERTEX
  8
0
 10
176.347824
 20
289.217377
  0
VERTEX
  8
0
 10
169.043472
 20
287.130432
  0
VERTEX
  8
0
 10
176.347824
 20
285.043457
  0
SEQEND
  0
POLYLINE
  8
0
 62
     5
 66
     1
 70
     2
  0
VERTEX
  8
0
 10
197.739120
 20
285.043457
  0
VERTEX
  8
0
 10
205.043472
 20
287.130432
  0
VERTEX
  8
0
 10
197.739120
 20
289.217377
  0
SEQEND
  0
LINE
  8
0
 62
     5
 10
169.043472
 20
214.086945
 11
169.043472
 21
290.260864
  0
LINE
  8
0
 62
     5
 10
205.043472
 20
214.086945
 11
205.043472
 21
290.260864
  0
TEXT
  8
0
 62
     7
 10
180.260864
 20
288.799988
 40
10.434783
 41
1.000000
  1
36
  7
KANJI
 50
0.000000
 51
0.000000
  0
LINE
  8
0
 62
     5
 10
217.565216
 20
270.434753
 11
176.521729
 21
270.434753
  0
POLYLINE
  8
0
 62
     5
 66
     1
 70
     2
  0
VERTEX
  8
0
 10
181.739120
 20
268.347809
  0
VERTEX
  8
0
 10
189.043472
 20
270.434753
  0
VERTEX
  8
0
 10
181.739120
 20
272.521729
  0
SEQEND
  0
POLYLINE
  8
0
 62
     5
 66
     1
 70
     2
  0
VERTEX
  8
0
 10
212.347824
 20
272.521729
  0
VERTEX
  8
0
 10
205.043472
 20
270.434753
  0
VERTEX
  8
0
 10
212.347824
 20
268.347809
  0
SEQEND
  0
TEXT
  8
0
 62
     7
 10
190.260864
 20
272.104340
 40
10.434783
 41
1.000000
  1
16
  7
KANJI
 50
0.000000
 51
0.000000
  0
LINE
  8
0
 62
     5
 10
292.695648
 20
200.086945
 11
292.695648
 21
140.086945
  0
POLYLINE
  8
0
 62
     5
 66
     1
 70
     2
  0
VERTEX
  8
0
 10
294.782593
 20
192.782593
  0
VERTEX
  8
0
 10
292.695648
 20
200.086945
  0
VERTEX
  8
0
 10
290.608704
 20
192.782593
  0
SEQEND
  0
POLYLINE
  8
0
 62
     5
 66
     1
 70
     2
  0
VERTEX
  8
0
 10
290.608704
 20
147.391296
  0
VERTEX
  8
0
 10
292.695648
 20
140.086945
  0
VERTEX
  8
0
 10
294.782593
 20
147.391296
  0
SEQEND
  0
LINE
  8
0
 62
     5
 10
205.043472
 20
200.086945
 11
295.826080
 21
200.086945
  0
LINE
  8
0
 62
     5
 10
205.043472
 20
140.086945
 11
295.826080
 21
140.086945
  0
TEXT
  8
0
 62
     7
 10
290.608704
 20
157.826080
 40
10.434783
 41
1.000000
  1
%%c60
  7
KANJI
 50
90.000000
 51
0.000000
  0
LINE
  8
0
 62
     5
 10
259.304321
 20
147.565201
 11
259.304321
 21
192.608688
  0
POLYLINE
  8
0
 62
     5
 66
     1
 70
     2
  0
VERTEX
  8
0
 10
257.217377
 20
187.391296
  0
VERTEX
  8
0
 10
259.304321
 20
180.086945
  0
VERTEX
  8
0
 10
261.391296
 20
187.391296
  0
SEQEND
  0
POLYLINE
  8
0
 62
     5
 66
     1
 70
     2
  0
VERTEX
  8
0
 10
261.391296
 20
152.782593
  0
VERTEX
  8
0
 10
259.304321
 20
160.086945
  0
VERTEX
  8
0
 10
257.217377
 20
152.782593
  0
SEQEND
  0
LINE
  8
0
 62
     5
 10
205.043472
 20
180.086945
 11
262.434753
 21
180.086945
  0
LINE
  8
0
 62
     5
 10
205.043472
 20
160.086945
 11
262.434753
 21
160.086945
  0
TEXT
  8
0
 62
     7
 10
257.217377
 20
151.043472
 40
10.434783
 41
1.000000
  1
%%c20H7
  7
KANJI
 50
90.000000
 51
0.000000
  0
POLYLINE
  8
0
 62
     4
 66
     1
 70
     2
  0
VERTEX
  8
0
 10
169.043472
 20
159.086945
  0
VERTEX
  8
0
 10
169.043472
 20
126.586945
  0
VERTEX
  8
0
 10
169.543472
 20
126.086945
  0
VERTEX
  8
0
 10
188.543472
 20
126.086945
  0
VERTEX
  8
0
 10
189.043472
 20
126.586945
  0
VERTEX
  8
0
 10
189.043472
 20
139.086945
  0
SEQEND
  0
POLYLINE
  8
0
 62
     4
 66
     1
 70
     2
  0
VERTEX
  8
0
 10
190.043472
 20
140.086945
  0
VERTEX
  8
0
 10
204.543472
 20
140.086945
  0
VERTEX
  8
0
 10
205.043472
 20
140.586945
  0
VERTEX
  8
0
 10
205.043472
 20
199.586945
  0
VERTEX
  8
0
 10
204.543472
 20
200.086945
  0
VERTEX
  8
0
 10
190.043472
 20
200.086945
  0
SEQEND
  0
POLYLINE
  8
0
 62
     4
 66
     1
 70
     2
  0
VERTEX
  8
0
 10
189.043472
 20
201.086945
  0
VERTEX
  8
0
 10
189.043472
 20
213.586945
  0
VERTEX
  8
0
 10
188.543472
 20
214.086945
  0
VERTEX
  8
0
 10
169.543472
 20
214.086945
  0
VERTEX
  8
0
 10
169.043472
 20
213.586945
  0
VERTEX
  8
0
 10
169.043472
 20
159.086945
  0
SEQEND
  0
LINE
  8
0
 62
     7
 10
158.608688
 20
212.086945
 11
127.304337
 21
212.086945
  0
POLYLINE
  8
0
 62
     7
 66
     1
 70
     2
  0
VERTEX
  8
0
 10
135.652161
 20
212.086945
  0
VERTEX
  8
0
 10
131.582611
 20
219.140854
  0
VERTEX
  8
0
 10
156.000000
 20
219.140854
  0
VERTEX
  8
0
 10
151.930435
 20
212.086945
  0
VERTEX
  8
0
 10
147.860870
 20
219.140854
  0
VERTEX
  8
0
 10
143.791290
 20
212.086945
  0
VERTEX
  8
0
 10
139.721741
 20
219.140854
  0
VERTEX
  8
0
 10
135.652161
 20
212.086945
  0
SEQEND
  0
POLYLINE
  8
0
 62
     7
 66
     1
 70
     2
  0
VERTEX
  8
0
 10
145.147827
 20
222.667816
  0
VERTEX
  8
0
 10
146.504349
 20
222.667816
  0
VERTEX
  8
0
 10
146.504349
 20
221.853897
  0
VERTEX
  8
0
 10
145.147827
 20
220.497375
  0
VERTEX
  8
0
 10
142.434784
 20
220.497375
  0
VERTEX
  8
0
 10
141.078247
 20
221.853897
  0
VERTEX
  8
0
 10
141.078247
 20
225.923462
  0
VERTEX
  8
0
 10
142.434784
 20
227.279984
  0
VERTEX
  8
0
 10
145.147827
 20
227.279984
  0
VERTEX
  8
0
 10
146.504349
 20
225.923462
  0
VERTEX
  8
0
 10
146.504349
 20
225.109558
  0
SEQEND
  0
ENDSEC
  0
EOF
