  0
SECTION
  2
HEADER
  9
$ACADVER
  1
AC1003
  9
$INSBASE
 10
0.000000
 20
0.000000
  9
$EXTMIN
 10
0.000000
 20
0.000000
  9
$EXTMAX
 10
649.826087
 20
449.347826
  9
$LIMMIN
 10
0.000000
 20
0.000000
  9
$LIMMAX
 10
649.826087
 20
449.347826
  9
$VIEWCTR
 10
324.913043
 20
224.673913
  9
$VIEWSIZE
 40
449.347826
  0
ENDSEC
  0
SECTION
  2
TABLES
  0
TABLE
  2
LTYPE
 70
     4
  0
LTYPE
  2
CONTINUOUS
 70
    64
  3
SolidLine
 72
    65
 73
     0
 40
0.0
  0
LTYPE
  2
HIDDEN
 70
    64
  3
------------------------
 72
    65
 73
     2
 40
6.913043
 49
4.608696
 49
-2.304348
  0
LTYPE
  2
DASHDOT
 70
    64
  3
--?--?--?--?--?--?--?--
 72
    65
 73
     4
 40
27.652174
 49
20.739130
 49
-2.304348
 49
2.304348
 49
-2.304348
  0
LTYPE
  2
DIVIDE
 70
    64
  3
--??--??--??--??--??--
 72
    65
 73
     6
 40
34.565217
 49
23.043478
 49
-2.304348
 49
2.304348
 49
-2.304348
 49
2.304348
 49
-2.304348
  0
ENDTAB
  0
TABLE
  2
LAYER
 70
     5
  0
LAYER
  2
0
 70
    64
 62
     7
  6
CONTINUOUS
  0
LAYER
  2
HIDDEN
 70
    64
 62
     2
  6
HIDDEN
  0
LAYER
  2
DASHDOT
 70
    64
 62
     6
  6
DASHDOT
  0
LAYER
  2
DIVIDE
 70
    64
 62
     5
  6
DIVIDE
  0
ENDTAB
  0
TABLE
  2
STYLE
 70
     1
  0
STYLE
  2
STANDARD
 70
    64
 40
0.0
 41
1.0
 50
0.0
 71
     0
 42
0.2
  3
TXT
  4

  0
STYLE
  2
KANJI
 70
    64
 40
0.0
 41
1.0
 50
0.0
 71
     0
 42
0.2
  3
TXT
  4
BIGFONT
  0
ENDTAB
  0
TABLE
  2
VIEW
 70
     0
  0
ENDTAB
  0
ENDSEC
  0
SECTION
  2
BLOCKS
  0
ENDSEC
  0
SECTION
  2
ENTITIES
  0
TEXT
  8
0
 62
     7
 10
23.043478
 20
25.347826
 40
9.217391
 41
1.000000
  1
KHK SSG2-70J28
  7
KANJI
 50
0.000000
 51
0.000000
  0
TEXT
  8
0
 62
     7
 10
23.043478
 20
11.521739
 40
9.217391
 41
1.000000
  1
The precision grade of gears after secondary operations is equivalent but not identical to its original grade.
  7
KANJI
 50
0.000000
 51
0.000000
  0
TEXT
  8
0
 62
     7
 10
23.043478
 20
414.782623
 40
10.369565
 41
1.000000
  1
For J Series products, without black oxide repeatedly applied on secondary-operated parts.
  7
KANJI
 50
0.000000
 51
0.000000
  0
POLYLINE
  8
0
 62
     7
 66
     1
 70
     2
  0
VERTEX
  8
0
 10
460.869568
 20
414.782623
  0
VERTEX
  8
0
 10
451.882599
 20
430.360016
  0
VERTEX
  8
0
 10
487.830444
 20
430.360016
  0
VERTEX
  8
0
 10
478.843475
 20
414.782623
  0
VERTEX
  8
0
 10
469.856537
 20
430.360016
  0
VERTEX
  8
0
 10
460.869568
 20
414.782623
  0
SEQEND
  0
POLYLINE
  8
0
 62
     7
 66
     1
 70
     2
  0
VERTEX
  8
0
 10
523.778259
 20
414.782623
  0
VERTEX
  8
0
 10
514.791321
 20
430.360016
  0
VERTEX
  8
0
 10
568.713074
 20
430.360016
  0
VERTEX
  8
0
 10
559.726074
 20
414.782623
  0
VERTEX
  8
0
 10
550.739136
 20
430.360016
  0
VERTEX
  8
0
 10
541.752197
 20
414.782623
  0
VERTEX
  8
0
 10
532.765198
 20
430.360016
  0
VERTEX
  8
0
 10
523.778259
 20
414.782623
  0
SEQEND
  0
POLYLINE
  8
0
 62
     7
 66
     1
 70
     2
  0
VERTEX
  8
0
 10
544.747803
 20
438.148712
  0
VERTEX
  8
0
 10
547.743469
 20
438.148712
  0
VERTEX
  8
0
 10
547.743469
 20
436.351318
  0
VERTEX
  8
0
 10
544.747803
 20
433.355652
  0
VERTEX
  8
0
 10
538.756531
 20
433.355652
  0
VERTEX
  8
0
 10
535.760864
 20
436.351318
  0
VERTEX
  8
0
 10
535.760864
 20
445.338287
  0
VERTEX
  8
0
 10
538.756531
 20
448.333923
  0
VERTEX
  8
0
 10
544.747803
 20
448.333923
  0
VERTEX
  8
0
 10
547.743469
 20
445.338287
  0
VERTEX
  8
0
 10
547.743469
 20
443.540894
  0
SEQEND
  0
POLYLINE
  8
0
 62
     7
 66
     1
 70
     2
  0
VERTEX
  8
0
 10
501.610443
 20
430.360016
  0
VERTEX
  8
0
 10
499.213928
 20
427.963501
  0
VERTEX
  8
0
 10
499.213928
 20
417.179138
  0
VERTEX
  8
0
 10
501.610443
 20
414.782623
  0
SEQEND
  0
POLYLINE
  8
0
 62
     7
 66
     1
 70
     2
  0
VERTEX
  8
0
 10
580.096558
 20
430.360016
  0
VERTEX
  8
0
 10
582.493042
 20
427.963501
  0
VERTEX
  8
0
 10
582.493042
 20
417.179138
  0
VERTEX
  8
0
 10
580.096558
 20
414.782623
  0
SEQEND
  0
LINE
  8
0
 62
     5
 10
337.869568
 20
259.804352
 11
337.869568
 21
115.804352
  0
POLYLINE
  8
0
 62
     5
 66
     1
 70
     2
  0
VERTEX
  8
0
 10
340.173950
 20
251.739136
  0
VERTEX
  8
0
 10
337.869568
 20
259.804352
  0
VERTEX
  8
0
 10
335.565247
 20
251.739136
  0
SEQEND
  0
POLYLINE
  8
0
 62
     5
 66
     1
 70
     2
  0
VERTEX
  8
0
 10
335.565247
 20
123.869568
  0
VERTEX
  8
0
 10
337.869568
 20
115.804352
  0
VERTEX
  8
0
 10
340.173950
 20
123.869568
  0
SEQEND
  0
LINE
  8
0
 62
     5
 10
222.652191
 20
259.804352
 11
341.326111
 21
259.804352
  0
LINE
  8
0
 62
     5
 10
222.652191
 20
115.804352
 11
341.326111
 21
115.804352
  0
TEXT
  8
0
 62
     7
 10
335.565247
 20
170.521744
 40
11.521739
 41
1.000000
  1
%%c144
  7
KANJI
 50
90.000000
 51
0.000000
  0
LINE
  8
DASHDOT
 62
     7
 10
179.739151
 20
257.804352
 11
213.565231
 21
257.804352
  0
LINE
  8
DASHDOT
 62
     7
 10
179.739151
 20
117.804352
 11
213.565231
 21
117.804352
  0
LINE
  8
DASHDOT
 62
     7
 10
179.739151
 20
187.804352
 11
229.565231
 21
187.804352
  0
LINE
  8
0
 62
     5
 10
206.652191
 20
259.304352
 11
206.652191
 21
259.804352
  0
LINE
  8
0
 62
     5
 10
186.652191
 20
259.304352
 11
186.652191
 21
259.804352
  0
LINE
  8
0
 62
     5
 10
208.152191
 20
222.804352
 11
222.652191
 21
222.804352
  0
LINE
  8
0
 62
     5
 10
208.152191
 20
152.804352
 11
222.652191
 21
152.804352
  0
LINE
  8
0
 62
     5
 10
206.152191
 20
259.804352
 11
222.652191
 21
259.804352
  0
LINE
  8
0
 62
     5
 10
206.152191
 20
115.804352
 11
222.652191
 21
115.804352
  0
LINE
  8
0
 62
     4
 10
186.652191
 20
255.304352
 11
206.652191
 21
255.304352
  0
LINE
  8
0
 62
     4
 10
186.652191
 20
120.304352
 11
206.652191
 21
120.304352
  0
LINE
  8
0
 62
     4
 10
221.652191
 20
173.804352
 11
222.652191
 21
172.804352
  0
LINE
  8
0
 62
     4
 10
221.652191
 20
201.804352
 11
222.652191
 21
202.804352
  0
LINE
  8
0
 62
     4
 10
187.652191
 20
201.804352
 11
187.652191
 21
173.804352
  0
POLYLINE
  8
0
 62
     4
 66
     1
 70
     2
  0
VERTEX
  8
0
 10
186.652191
 20
172.804352
  0
VERTEX
  8
0
 10
187.652191
 20
173.804352
  0
VERTEX
  8
0
 10
221.652191
 20
173.804352
  0
VERTEX
  8
0
 10
221.652191
 20
201.804352
  0
VERTEX
  8
0
 10
187.652191
 20
201.804352
  0
VERTEX
  8
0
 10
186.652191
 20
202.804352
  0
SEQEND
  0
ARC
  8
0
 62
     4
 10
208.152191
 20
224.304352
 40
1.500000
 50
180.0
 51
270.0
  0
ARC
  8
0
 62
     4
 10
208.152191
 20
151.304352
 40
1.500000
 50
90.0
 51
180.0
  0
LINE
  8
0
 62
     5
 10
222.652191
 20
221.804352
 11
222.652191
 21
259.804352
  0
LINE
  8
0
 62
     5
 10
220.478271
 20
322.021729
 11
172.826111
 21
322.021729
  0
POLYLINE
  8
0
 62
     5
 66
     1
 70
     2
  0
VERTEX
  8
0
 10
178.586975
 20
319.717407
  0
VERTEX
  8
0
 10
186.652191
 20
322.021729
  0
VERTEX
  8
0
 10
178.586975
 20
324.326111
  0
SEQEND
  0
POLYLINE
  8
0
 62
     5
 66
     1
 70
     2
  0
VERTEX
  8
0
 10
214.717407
 20
324.326111
  0
VERTEX
  8
0
 10
206.652191
 20
322.021729
  0
VERTEX
  8
0
 10
214.717407
 20
319.717407
  0
SEQEND
  0
LINE
  8
0
 62
     5
 10
206.652191
 20
259.804352
 11
206.652191
 21
325.478271
  0
TEXT
  8
0
 62
     7
 10
189.163055
 20
323.865234
 40
11.521739
 41
1.000000
  1
20
  7
KANJI
 50
0.000000
 51
0.000000
  0
LINE
  8
0
 62
     5
 10
186.652191
 20
340.456543
 11
222.652191
 21
340.456543
  0
POLYLINE
  8
0
 62
     5
 66
     1
 70
     2
  0
VERTEX
  8
0
 10
194.717407
 20
342.760864
  0
VERTEX
  8
0
 10
186.652191
 20
340.456543
  0
VERTEX
  8
0
 10
194.717407
 20
338.152161
  0
SEQEND
  0
POLYLINE
  8
0
 62
     5
 66
     1
 70
     2
  0
VERTEX
  8
0
 10
214.586975
 20
338.152161
  0
VERTEX
  8
0
 10
222.652191
 20
340.456543
  0
VERTEX
  8
0
 10
214.586975
 20
342.760864
  0
SEQEND
  0
LINE
  8
0
 62
     5
 10
186.652191
 20
259.804352
 11
186.652191
 21
343.913055
  0
LINE
  8
0
 62
     5
 10
222.652191
 20
259.804352
 11
222.652191
 21
343.913055
  0
TEXT
  8
0
 62
     7
 10
197.163055
 20
342.299988
 40
11.521739
 41
1.000000
  1
36
  7
KANJI
 50
0.000000
 51
0.000000
  0
LINE
  8
0
 62
     5
 10
236.478271
 20
322.021729
 11
192.826111
 21
322.021729
  0
POLYLINE
  8
0
 62
     5
 66
     1
 70
     2
  0
VERTEX
  8
0
 10
198.586975
 20
319.717407
  0
VERTEX
  8
0
 10
206.652191
 20
322.021729
  0
VERTEX
  8
0
 10
198.586975
 20
324.326111
  0
SEQEND
  0
POLYLINE
  8
0
 62
     5
 66
     1
 70
     2
  0
VERTEX
  8
0
 10
230.717407
 20
324.326111
  0
VERTEX
  8
0
 10
222.652191
 20
322.021729
  0
VERTEX
  8
0
 10
230.717407
 20
319.717407
  0
SEQEND
  0
TEXT
  8
0
 62
     7
 10
207.163055
 20
323.865234
 40
11.521739
 41
1.000000
  1
16
  7
KANJI
 50
0.000000
 51
0.000000
  0
LINE
  8
0
 62
     5
 10
319.434814
 20
222.804352
 11
319.434814
 21
152.804352
  0
POLYLINE
  8
0
 62
     5
 66
     1
 70
     2
  0
VERTEX
  8
0
 10
321.739136
 20
214.739136
  0
VERTEX
  8
0
 10
319.434814
 20
222.804352
  0
VERTEX
  8
0
 10
317.130432
 20
214.739136
  0
SEQEND
  0
POLYLINE
  8
0
 62
     5
 66
     1
 70
     2
  0
VERTEX
  8
0
 10
317.130432
 20
160.869568
  0
VERTEX
  8
0
 10
319.434814
 20
152.804352
  0
VERTEX
  8
0
 10
321.739136
 20
160.869568
  0
SEQEND
  0
LINE
  8
0
 62
     5
 10
222.652191
 20
222.804352
 11
322.891327
 21
222.804352
  0
LINE
  8
0
 62
     5
 10
222.652191
 20
152.804352
 11
322.891327
 21
152.804352
  0
TEXT
  8
0
 62
     7
 10
317.130432
 20
174.266312
 40
11.521739
 41
1.000000
  1
%%c70
  7
KANJI
 50
90.000000
 51
0.000000
  0
LINE
  8
DASHDOT
 62
     7
 10
437.391327
 20
234.326096
 11
437.391327
 21
145.891312
  0
LINE
  8
DASHDOT
 62
     7
 10
395.478271
 20
187.804352
 11
479.304352
 21
187.804352
  0
LINE
  8
0
 62
     5
 10
455.217407
 20
255.065216
 11
419.565247
 21
255.065216
  0
POLYLINE
  8
0
 62
     5
 66
     1
 70
     2
  0
VERTEX
  8
0
 10
425.326111
 20
252.760864
  0
VERTEX
  8
0
 10
433.391327
 20
255.065216
  0
VERTEX
  8
0
 10
425.326111
 20
257.369568
  0
SEQEND
  0
POLYLINE
  8
0
 62
     5
 66
     1
 70
     2
  0
VERTEX
  8
0
 10
449.456543
 20
257.369568
  0
VERTEX
  8
0
 10
441.391327
 20
255.065216
  0
VERTEX
  8
0
 10
449.456543
 20
252.760864
  0
SEQEND
  0
LINE
  8
0
 62
     5
 10
433.391327
 20
205.104355
 11
433.391327
 21
258.521729
  0
LINE
  8
0
 62
     5
 10
441.391327
 20
205.104355
 11
441.391327
 21
258.521729
  0
TEXT
  8
0
 62
     7
 10
413.608185
 20
257.369568
 40
11.521739
 41
1.000000
  1
8
  7
KANJI
 50
0.000000
 51
0.000000
  0
TEXT
  8
0
 62
     7
 10
425.013275
 20
257.369568
 40
9.217391
 41
1.000000
  1
%%p0.018
  7
KANJI
 50
0.000000
 51
0.000000
  0
LINE
  8
0
 62
     5
 10
506.956543
 20
159.978271
 11
506.956543
 21
218.930435
  0
POLYLINE
  8
0
 62
     5
 66
     1
 70
     2
  0
VERTEX
  8
0
 10
504.652191
 20
213.169571
  0
VERTEX
  8
0
 10
506.956543
 20
205.104355
  0
VERTEX
  8
0
 10
509.260895
 20
213.169571
  0
SEQEND
  0
POLYLINE
  8
0
 62
     5
 66
     1
 70
     2
  0
VERTEX
  8
0
 10
509.260895
 20
165.739136
  0
VERTEX
  8
0
 10
506.956543
 20
173.804352
  0
VERTEX
  8
0
 10
504.652191
 20
165.739136
  0
SEQEND
  0
LINE
  8
0
 62
     5
 10
441.391327
 20
205.104355
 11
510.413055
 21
205.104355
  0
LINE
  8
0
 62
     5
 10
437.391327
 20
173.804352
 11
510.413055
 21
173.804352
  0
TEXT
  8
0
 62
     7
 10
503.500031
 20
153.471741
 40
11.521739
 41
1.000000
  1
31.3
  7
KANJI
 50
90.000000
 51
0.000000
  0
TEXT
  8
0
 62
     7
 10
504.191315
 20
203.342392
 40
5.760870
 41
1.000000
  1
 
  7
KANJI
 50
90.000000
 51
0.000000
  0
TEXT
  8
0
 62
     7
 10
497.047852
 20
203.342392
 40
5.760870
 41
1.000000
  1
+
  7
KANJI
 50
90.000000
 51
0.000000
  0
TEXT
  8
0
 62
     7
 10
504.191315
 20
209.794571
 40
5.760870
 41
1.000000
  1
0
  7
KANJI
 50
90.000000
 51
0.000000
  0
TEXT
  8
0
 62
     7
 10
497.047852
 20
209.794571
 40
5.760870
 41
1.000000
  1
0.2
  7
KANJI
 50
90.000000
 51
0.000000
  0
ARC
  8
0
 62
     4
 10
437.391327
 20
187.804352
 40
14.000000
 50
106.60154992625478
 51
73.39845007374521
  0
POLYLINE
  8
0
 62
     4
 66
     1
 70
     2
  0
VERTEX
  8
0
 10
441.391327
 20
201.220764
  0
VERTEX
  8
0
 10
441.391327
 20
205.104355
  0
VERTEX
  8
0
 10
433.391327
 20
205.104355
  0
VERTEX
  8
0
 10
433.391327
 20
201.220764
  0
SEQEND
  0
LINE
  8
0
 62
     4
 10
186.652191
 20
205.104355
 11
222.652191
 21
205.104355
  0
POLYLINE
  8
DASHDOT
 62
     7
 66
     1
 70
     2
  0
VERTEX
  8
DASHDOT
 10
214.652191
 20
229.717392
  0
VERTEX
  8
DASHDOT
 10
214.652191
 20
198.191315
  0
SEQEND
  0
POLYLINE
  8
0
 62
     4
 66
     1
 70
     2
  0
VERTEX
  8
0
 10
217.652191
 20
222.804352
  0
VERTEX
  8
0
 10
217.652191
 20
205.104355
  0
SEQEND
  0
POLYLINE
  8
0
 62
     4
 66
     1
 70
     2
  0
VERTEX
  8
0
 10
211.652191
 20
222.804352
  0
VERTEX
  8
0
 10
211.652191
 20
205.104355
  0
SEQEND
  0
POLYLINE
  8
0
 62
     4
 66
     1
 70
     2
  0
VERTEX
  8
0
 10
217.112183
 20
222.804352
  0
VERTEX
  8
0
 10
217.112183
 20
205.104355
  0
SEQEND
  0
POLYLINE
  8
0
 62
     4
 66
     1
 70
     2
  0
VERTEX
  8
0
 10
212.192200
 20
222.804352
  0
VERTEX
  8
0
 10
212.192200
 20
205.104355
  0
SEQEND
  0
POLYLINE
  8
0
 62
     4
 66
     1
 70
     2
  0
VERTEX
  8
0
 10
434.391327
 20
205.104355
  0
VERTEX
  8
0
 10
434.391327
 20
222.675537
  0
SEQEND
  0
POLYLINE
  8
0
 62
     4
 66
     1
 70
     2
  0
VERTEX
  8
0
 10
440.391327
 20
205.104355
  0
VERTEX
  8
0
 10
440.391327
 20
222.675537
  0
SEQEND
  0
POLYLINE
  8
0
 62
     4
 66
     1
 70
     2
  0
VERTEX
  8
0
 10
434.931335
 20
205.104355
  0
VERTEX
  8
0
 10
434.931335
 20
222.717789
  0
SEQEND
  0
POLYLINE
  8
0
 62
     4
 66
     1
 70
     2
  0
VERTEX
  8
0
 10
439.851318
 20
205.104355
  0
VERTEX
  8
0
 10
439.851318
 20
222.717789
  0
SEQEND
  0
POLYLINE
  8
0
 62
     5
 66
     1
 70
     2
  0
VERTEX
  8
0
 10
437.391327
 20
222.804352
  0
VERTEX
  8
0
 10
395.913055
 20
291.934784
  0
VERTEX
  8
0
 10
421.260864
 20
291.934784
  0
SEQEND
  0
POLYLINE
  8
0
 62
     5
 66
     1
 70
     2
  0
VERTEX
  8
0
 10
431.265839
 20
228.534637
  0
VERTEX
  8
0
 10
437.391327
 20
222.804352
  0
VERTEX
  8
0
 10
435.217773
 20
230.905792
  0
SEQEND
  0
TEXT
  8
0
 62
     7
 10
398.217407
 20
294.239136
 40
11.060870
 41
1.000000
  1
M6
  7
KANJI
 50
0.000000
 51
0.000000
  0
CIRCLE
  8
0
 62
     7
 10
214.652191
 20
187.804352
 40
3.000000
  0
CIRCLE
  8
0
 62
     4
 10
214.652191
 20
187.804352
 40
2.460000
  0
POLYLINE
  8
DASHDOT
 62
     7
 66
     1
 70
     2
  0
VERTEX
  8
DASHDOT
 10
204.739151
 20
187.804352
  0
VERTEX
  8
DASHDOT
 10
224.565231
 20
187.804352
  0
SEQEND
  0
POLYLINE
  8
DASHDOT
 62
     7
 66
     1
 70
     2
  0
VERTEX
  8
DASHDOT
 10
214.652191
 20
177.891312
  0
VERTEX
  8
DASHDOT
 10
214.652191
 20
197.717392
  0
SEQEND
  0
LINE
  8
DASHDOT
 62
     7
 10
214.652191
 20
222.804352
 11
214.652191
 21
187.804352
  0
LINE
  8
0
 62
     5
 10
214.652191
 20
222.804352
 11
214.652191
 21
259.804352
  0
POLYLINE
  8
0
 62
     4
 66
     1
 70
     2
  0
VERTEX
  8
0
 10
451.066132
 20
190.804352
  0
VERTEX
  8
0
 10
472.262512
 20
190.804352
  0
SEQEND
  0
POLYLINE
  8
0
 62
     4
 66
     1
 70
     2
  0
VERTEX
  8
0
 10
451.066132
 20
184.804352
  0
VERTEX
  8
0
 10
472.262512
 20
184.804352
  0
SEQEND
  0
POLYLINE
  8
0
 62
     4
 66
     1
 70
     2
  0
VERTEX
  8
0
 10
451.173492
 20
190.264359
  0
VERTEX
  8
0
 10
472.304779
 20
190.264359
  0
SEQEND
  0
POLYLINE
  8
0
 62
     4
 66
     1
 70
     2
  0
VERTEX
  8
0
 10
451.173492
 20
185.344345
  0
VERTEX
  8
0
 10
472.304779
 20
185.344345
  0
SEQEND
  0
POLYLINE
  8
0
 62
     5
 66
     1
 70
     2
  0
VERTEX
  8
0
 10
472.391327
 20
187.804352
  0
VERTEX
  8
0
 10
506.956543
 20
273.500000
  0
VERTEX
  8
0
 10
473.313049
 20
273.500000
  0
SEQEND
  0
POLYLINE
  8
0
 62
     5
 66
     1
 70
     2
  0
VERTEX
  8
0
 10
473.271210
 20
196.146027
  0
VERTEX
  8
0
 10
472.391327
 20
187.804352
  0
VERTEX
  8
0
 10
477.545319
 20
194.422073
  0
SEQEND
  0
TEXT
  8
0
 62
     7
 10
477.921753
 20
275.804352
 40
11.060870
 41
1.000000
  1
M6
  7
KANJI
 50
0.000000
 51
0.000000
  0
LINE
  8
0
 62
     5
 10
282.565247
 20
201.804352
 11
282.565247
 21
173.804352
  0
POLYLINE
  8
0
 62
     5
 66
     1
 70
     2
  0
VERTEX
  8
0
 10
280.260895
 20
181.869568
  0
VERTEX
  8
0
 10
282.565247
 20
173.804352
  0
VERTEX
  8
0
 10
284.869568
 20
181.869568
  0
SEQEND
  0
LINE
  8
0
 62
     5
 10
222.652191
 20
173.804352
 11
286.021759
 21
173.804352
  0
TEXT
  8
0
 62
     7
 10
280.260895
 20
166.777176
 40
11.521739
 41
1.000000
  1
%%c28H7
  7
KANJI
 50
90.000000
 51
0.000000
  0
POLYLINE
  8
0
 62
     4
 66
     1
 70
     2
  0
VERTEX
  8
0
 10
186.652191
 20
172.804352
  0
VERTEX
  8
0
 10
186.652191
 20
116.304352
  0
VERTEX
  8
0
 10
187.152191
 20
115.804352
  0
VERTEX
  8
0
 10
206.152191
 20
115.804352
  0
VERTEX
  8
0
 10
206.652191
 20
116.304352
  0
VERTEX
  8
0
 10
206.652191
 20
151.304352
  0
SEQEND
  0
POLYLINE
  8
0
 62
     4
 66
     1
 70
     2
  0
VERTEX
  8
0
 10
208.152191
 20
152.804352
  0
VERTEX
  8
0
 10
221.652191
 20
152.804352
  0
VERTEX
  8
0
 10
222.652191
 20
153.804352
  0
VERTEX
  8
0
 10
222.652191
 20
221.804352
  0
VERTEX
  8
0
 10
221.652191
 20
222.804352
  0
VERTEX
  8
0
 10
208.152191
 20
222.804352
  0
SEQEND
  0
POLYLINE
  8
0
 62
     4
 66
     1
 70
     2
  0
VERTEX
  8
0
 10
206.652191
 20
224.304352
  0
VERTEX
  8
0
 10
206.652191
 20
259.304352
  0
VERTEX
  8
0
 10
206.152191
 20
259.804352
  0
VERTEX
  8
0
 10
187.152191
 20
259.804352
  0
VERTEX
  8
0
 10
186.652191
 20
259.304352
  0
VERTEX
  8
0
 10
186.652191
 20
172.804352
  0
SEQEND
  0
LINE
  8
0
 62
     7
 10
175.130447
 20
257.804352
 11
140.565231
 21
257.804352
  0
POLYLINE
  8
0
 62
     7
 66
     1
 70
     2
  0
VERTEX
  8
0
 10
149.782623
 20
257.804352
  0
VERTEX
  8
0
 10
145.289154
 20
265.593048
  0
VERTEX
  8
0
 10
172.250015
 20
265.593048
  0
VERTEX
  8
0
 10
167.756546
 20
257.804352
  0
VERTEX
  8
0
 10
163.263062
 20
265.593048
  0
VERTEX
  8
0
 10
158.769592
 20
257.804352
  0
VERTEX
  8
0
 10
154.276108
 20
265.593048
  0
VERTEX
  8
0
 10
149.782623
 20
257.804352
  0
SEQEND
  0
POLYLINE
  8
0
 62
     7
 66
     1
 70
     2
  0
VERTEX
  8
0
 10
160.267410
 20
269.487396
  0
VERTEX
  8
0
 10
161.765228
 20
269.487396
  0
VERTEX
  8
0
 10
161.765228
 20
268.588684
  0
VERTEX
  8
0
 10
160.267410
 20
267.090881
  0
VERTEX
  8
0
 10
157.271759
 20
267.090881
  0
VERTEX
  8
0
 10
155.773926
 20
268.588684
  0
VERTEX
  8
0
 10
155.773926
 20
273.082184
  0
VERTEX
  8
0
 10
157.271759
 20
274.580017
  0
VERTEX
  8
0
 10
160.267410
 20
274.580017
  0
VERTEX
  8
0
 10
161.765228
 20
273.082184
  0
VERTEX
  8
0
 10
161.765228
 20
272.183472
  0
SEQEND
  0
CIRCLE
  8
0
 62
     4
 10
437.391327
 20
187.804352
 40
35.000000
  0
LINE
  8
0
 62
     5
 10
236.478271
 20
271.326080
 11
200.826111
 21
271.326080
  0
POLYLINE
  8
0
 62
     5
 66
     1
 70
     2
  0
VERTEX
  8
0
 10
206.586975
 20
269.021729
  0
VERTEX
  8
0
 10
214.652191
 20
271.326080
  0
VERTEX
  8
0
 10
206.586975
 20
273.630432
  0
SEQEND
  0
POLYLINE
  8
0
 62
     5
 66
     1
 70
     2
  0
VERTEX
  8
0
 10
230.717407
 20
273.630432
  0
VERTEX
  8
0
 10
222.652191
 20
271.326080
  0
VERTEX
  8
0
 10
230.717407
 20
269.021729
  0
SEQEND
  0
LINE
  8
0
 62
     5
 10
214.652191
 20
259.804352
 11
214.652191
 21
274.782593
  0
TEXT
  8
0
 62
     7
 10
214.907623
 20
273.169556
 40
11.521739
 41
1.000000
  1
8
  7
KANJI
 50
0.000000
 51
0.000000
  0
LINE
  8
0
 62
     5
 10
214.652191
 20
222.804352
 11
214.652191
 21
259.804352
  0
ENDSEC
  0
EOF
