  0
SECTION
  2
HEADER
  9
$ACADVER
  1
AC1003
  9
$INSBASE
 10
0.000000
 20
0.000000
  9
$EXTMIN
 10
0.000000
 20
0.000000
  9
$EXTMAX
 10
410.739130
 20
284.021739
  9
$LIMMIN
 10
0.000000
 20
0.000000
  9
$LIMMAX
 10
410.739130
 20
284.021739
  9
$VIEWCTR
 10
205.369565
 20
142.010870
  9
$VIEWSIZE
 40
284.021739
  0
ENDSEC
  0
SECTION
  2
TABLES
  0
TABLE
  2
LTYPE
 70
     4
  0
LTYPE
  2
CONTINUOUS
 70
    64
  3
SolidLine
 72
    65
 73
     0
 40
0.0
  0
LTYPE
  2
HIDDEN
 70
    64
  3
------------------------
 72
    65
 73
     2
 40
4.369565
 49
2.913043
 49
-1.456522
  0
LTYPE
  2
DASHDOT
 70
    64
  3
--?--?--?--?--?--?--?--
 72
    65
 73
     4
 40
17.478261
 49
13.108696
 49
-1.456522
 49
1.456522
 49
-1.456522
  0
LTYPE
  2
DIVIDE
 70
    64
  3
--??--??--??--??--??--
 72
    65
 73
     6
 40
21.847826
 49
14.565217
 49
-1.456522
 49
1.456522
 49
-1.456522
 49
1.456522
 49
-1.456522
  0
ENDTAB
  0
TABLE
  2
LAYER
 70
     5
  0
LAYER
  2
0
 70
    64
 62
     7
  6
CONTINUOUS
  0
LAYER
  2
HIDDEN
 70
    64
 62
     2
  6
HIDDEN
  0
LAYER
  2
DASHDOT
 70
    64
 62
     6
  6
DASHDOT
  0
LAYER
  2
DIVIDE
 70
    64
 62
     5
  6
DIVIDE
  0
ENDTAB
  0
TABLE
  2
STYLE
 70
     1
  0
STYLE
  2
STANDARD
 70
    64
 40
0.0
 41
1.0
 50
0.0
 71
     0
 42
0.2
  3
TXT
  4

  0
STYLE
  2
KANJI
 70
    64
 40
0.0
 41
1.0
 50
0.0
 71
     0
 42
0.2
  3
TXT
  4
BIGFONT
  0
ENDTAB
  0
TABLE
  2
VIEW
 70
     0
  0
ENDTAB
  0
ENDSEC
  0
SECTION
  2
BLOCKS
  0
ENDSEC
  0
SECTION
  2
ENTITIES
  0
TEXT
  8
0
 62
     7
 10
14.565217
 20
16.021740
 40
5.826087
 41
1.000000
  1
KHK SSG2-19J14
  7
KANJI
 50
0.000000
 51
0.000000
  0
TEXT
  8
0
 62
     7
 10
14.565217
 20
7.282609
 40
5.826087
 41
1.000000
  1
The precision grade of gears after secondary operations is equivalent but not identical to its original grade.
  7
KANJI
 50
0.000000
 51
0.000000
  0
TEXT
  8
0
 62
     7
 10
14.565217
 20
262.173920
 40
6.554348
 41
1.000000
  1
For J Series products, without black oxide repeatedly applied on secondary-operated parts.
  7
KANJI
 50
0.000000
 51
0.000000
  0
POLYLINE
  8
0
 62
     7
 66
     1
 70
     2
  0
VERTEX
  8
0
 10
291.304352
 20
262.173920
  0
VERTEX
  8
0
 10
285.623932
 20
272.020020
  0
VERTEX
  8
0
 10
308.345642
 20
272.020020
  0
VERTEX
  8
0
 10
302.665222
 20
262.173920
  0
VERTEX
  8
0
 10
296.984772
 20
272.020020
  0
VERTEX
  8
0
 10
291.304352
 20
262.173920
  0
SEQEND
  0
POLYLINE
  8
0
 62
     7
 66
     1
 70
     2
  0
VERTEX
  8
0
 10
331.067383
 20
262.173920
  0
VERTEX
  8
0
 10
325.386963
 20
272.020020
  0
VERTEX
  8
0
 10
359.469574
 20
272.020020
  0
VERTEX
  8
0
 10
353.789124
 20
262.173920
  0
VERTEX
  8
0
 10
348.108704
 20
272.020020
  0
VERTEX
  8
0
 10
342.428253
 20
262.173920
  0
VERTEX
  8
0
 10
336.747833
 20
272.020020
  0
VERTEX
  8
0
 10
331.067383
 20
262.173920
  0
SEQEND
  0
POLYLINE
  8
0
 62
     7
 66
     1
 70
     2
  0
VERTEX
  8
0
 10
344.321747
 20
276.943054
  0
VERTEX
  8
0
 10
346.215210
 20
276.943054
  0
VERTEX
  8
0
 10
346.215210
 20
275.806976
  0
VERTEX
  8
0
 10
344.321747
 20
273.913483
  0
VERTEX
  8
0
 10
340.534790
 20
273.913483
  0
VERTEX
  8
0
 10
338.641296
 20
275.806976
  0
VERTEX
  8
0
 10
338.641296
 20
281.487396
  0
VERTEX
  8
0
 10
340.534790
 20
283.380890
  0
VERTEX
  8
0
 10
344.321747
 20
283.380890
  0
VERTEX
  8
0
 10
346.215210
 20
281.487396
  0
VERTEX
  8
0
 10
346.215210
 20
280.351318
  0
SEQEND
  0
POLYLINE
  8
0
 62
     7
 66
     1
 70
     2
  0
VERTEX
  8
0
 10
317.055664
 20
272.020020
  0
VERTEX
  8
0
 10
315.540863
 20
270.505219
  0
VERTEX
  8
0
 10
315.540863
 20
263.688690
  0
VERTEX
  8
0
 10
317.055664
 20
262.173920
  0
SEQEND
  0
POLYLINE
  8
0
 62
     7
 66
     1
 70
     2
  0
VERTEX
  8
0
 10
366.664795
 20
272.020020
  0
VERTEX
  8
0
 10
368.179565
 20
270.505219
  0
VERTEX
  8
0
 10
368.179565
 20
263.688690
  0
VERTEX
  8
0
 10
366.664795
 20
262.173920
  0
SEQEND
  0
LINE
  8
0
 62
     5
 10
226.804352
 20
139.706512
 11
226.804352
 21
97.706520
  0
POLYLINE
  8
0
 62
     5
 66
     1
 70
     2
  0
VERTEX
  8
0
 10
228.260864
 20
134.608688
  0
VERTEX
  8
0
 10
226.804352
 20
139.706512
  0
VERTEX
  8
0
 10
225.347839
 20
134.608688
  0
SEQEND
  0
POLYLINE
  8
0
 62
     5
 66
     1
 70
     2
  0
VERTEX
  8
0
 10
225.347839
 20
102.804344
  0
VERTEX
  8
0
 10
226.804352
 20
97.706520
  0
VERTEX
  8
0
 10
228.260864
 20
102.804344
  0
SEQEND
  0
LINE
  8
0
 62
     5
 10
153.978271
 20
139.706512
 11
228.989136
 21
139.706512
  0
LINE
  8
0
 62
     5
 10
153.978271
 20
97.706520
 11
228.989136
 21
97.706520
  0
TEXT
  8
0
 62
     7
 10
225.347839
 20
110.149452
 40
7.282609
 41
1.000000
  1
%%c42
  7
KANJI
 50
90.000000
 51
0.000000
  0
LINE
  8
DASHDOT
 62
     7
 10
113.608696
 20
137.706512
 11
142.347824
 21
137.706512
  0
LINE
  8
DASHDOT
 62
     7
 10
113.608696
 20
99.706520
 11
142.347824
 21
99.706520
  0
LINE
  8
DASHDOT
 62
     7
 10
113.608696
 20
118.706520
 11
158.347824
 21
118.706520
  0
LINE
  8
0
 62
     5
 10
137.978271
 20
139.206512
 11
137.978271
 21
139.706512
  0
LINE
  8
0
 62
     5
 10
117.978264
 20
139.206512
 11
117.978264
 21
139.706512
  0
LINE
  8
0
 62
     5
 10
138.978271
 20
134.206512
 11
153.978271
 21
134.206512
  0
LINE
  8
0
 62
     5
 10
138.978271
 20
103.206520
 11
153.978271
 21
103.206520
  0
LINE
  8
0
 62
     5
 10
137.478271
 20
139.706512
 11
153.978271
 21
139.706512
  0
LINE
  8
0
 62
     5
 10
137.478271
 20
97.706520
 11
153.978271
 21
97.706520
  0
LINE
  8
0
 62
     4
 10
117.978264
 20
135.206512
 11
137.978271
 21
135.206512
  0
LINE
  8
0
 62
     4
 10
117.978264
 20
102.206520
 11
137.978271
 21
102.206520
  0
LINE
  8
0
 62
     4
 10
153.478271
 20
111.706520
 11
153.978271
 21
111.206520
  0
LINE
  8
0
 62
     4
 10
153.478271
 20
125.706520
 11
153.978271
 21
126.206520
  0
LINE
  8
0
 62
     4
 10
118.478264
 20
125.706520
 11
118.478264
 21
111.706520
  0
POLYLINE
  8
0
 62
     4
 66
     1
 70
     2
  0
VERTEX
  8
0
 10
117.978264
 20
111.206520
  0
VERTEX
  8
0
 10
118.478264
 20
111.706520
  0
VERTEX
  8
0
 10
153.478271
 20
111.706520
  0
VERTEX
  8
0
 10
153.478271
 20
125.706520
  0
VERTEX
  8
0
 10
118.478264
 20
125.706520
  0
VERTEX
  8
0
 10
117.978264
 20
126.206520
  0
SEQEND
  0
ARC
  8
0
 62
     4
 10
138.978271
 20
135.206512
 40
1.000000
 50
180.0
 51
270.0
  0
ARC
  8
0
 62
     4
 10
138.978271
 20
102.206520
 40
1.000000
 50
90.0
 51
180.0
  0
LINE
  8
0
 62
     5
 10
153.978271
 20
133.706512
 11
153.978271
 21
139.706512
  0
LINE
  8
0
 62
     5
 10
117.978264
 20
179.032608
 11
137.978271
 21
179.032608
  0
POLYLINE
  8
0
 62
     5
 66
     1
 70
     2
  0
VERTEX
  8
0
 10
123.076088
 20
180.489136
  0
VERTEX
  8
0
 10
117.978264
 20
179.032608
  0
VERTEX
  8
0
 10
123.076088
 20
177.576080
  0
SEQEND
  0
POLYLINE
  8
0
 62
     5
 66
     1
 70
     2
  0
VERTEX
  8
0
 10
132.880432
 20
177.576080
  0
VERTEX
  8
0
 10
137.978271
 20
179.032608
  0
VERTEX
  8
0
 10
132.880432
 20
180.489136
  0
SEQEND
  0
LINE
  8
0
 62
     5
 10
137.978271
 20
139.706512
 11
137.978271
 21
181.217392
  0
TEXT
  8
0
 62
     7
 10
123.244568
 20
180.197830
 40
7.282609
 41
1.000000
  1
20
  7
KANJI
 50
0.000000
 51
0.000000
  0
LINE
  8
0
 62
     5
 10
117.978264
 20
190.684784
 11
153.978271
 21
190.684784
  0
POLYLINE
  8
0
 62
     5
 66
     1
 70
     2
  0
VERTEX
  8
0
 10
123.076088
 20
192.141296
  0
VERTEX
  8
0
 10
117.978264
 20
190.684784
  0
VERTEX
  8
0
 10
123.076088
 20
189.228256
  0
SEQEND
  0
POLYLINE
  8
0
 62
     5
 66
     1
 70
     2
  0
VERTEX
  8
0
 10
148.880432
 20
189.228256
  0
VERTEX
  8
0
 10
153.978271
 20
190.684784
  0
VERTEX
  8
0
 10
148.880432
 20
192.141296
  0
SEQEND
  0
LINE
  8
0
 62
     5
 10
117.978264
 20
139.706512
 11
117.978264
 21
192.869568
  0
LINE
  8
0
 62
     5
 10
153.978271
 20
139.706512
 11
153.978271
 21
192.869568
  0
TEXT
  8
0
 62
     7
 10
131.244568
 20
191.849991
 40
7.282609
 41
1.000000
  1
36
  7
KANJI
 50
0.000000
 51
0.000000
  0
LINE
  8
0
 62
     5
 10
137.978271
 20
179.032608
 11
153.978271
 21
179.032608
  0
POLYLINE
  8
0
 62
     5
 66
     1
 70
     2
  0
VERTEX
  8
0
 10
143.076096
 20
180.489136
  0
VERTEX
  8
0
 10
137.978271
 20
179.032608
  0
VERTEX
  8
0
 10
143.076096
 20
177.576080
  0
SEQEND
  0
POLYLINE
  8
0
 62
     5
 66
     1
 70
     2
  0
VERTEX
  8
0
 10
148.880432
 20
177.576080
  0
VERTEX
  8
0
 10
153.978271
 20
179.032608
  0
VERTEX
  8
0
 10
148.880432
 20
180.489136
  0
SEQEND
  0
TEXT
  8
0
 62
     7
 10
141.244568
 20
180.197830
 40
7.282609
 41
1.000000
  1
16
  7
KANJI
 50
0.000000
 51
0.000000
  0
LINE
  8
0
 62
     5
 10
215.152176
 20
134.206512
 11
215.152176
 21
103.206520
  0
POLYLINE
  8
0
 62
     5
 66
     1
 70
     2
  0
VERTEX
  8
0
 10
216.608704
 20
129.108688
  0
VERTEX
  8
0
 10
215.152176
 20
134.206512
  0
VERTEX
  8
0
 10
213.695648
 20
129.108688
  0
SEQEND
  0
POLYLINE
  8
0
 62
     5
 66
     1
 70
     2
  0
VERTEX
  8
0
 10
213.695648
 20
108.304344
  0
VERTEX
  8
0
 10
215.152176
 20
103.206520
  0
VERTEX
  8
0
 10
216.608704
 20
108.304344
  0
SEQEND
  0
LINE
  8
0
 62
     5
 10
153.978271
 20
134.206512
 11
217.336960
 21
134.206512
  0
LINE
  8
0
 62
     5
 10
153.978271
 20
103.206520
 11
217.336960
 21
103.206520
  0
TEXT
  8
0
 62
     7
 10
213.695648
 20
110.149452
 40
7.282609
 41
1.000000
  1
%%c31
  7
KANJI
 50
90.000000
 51
0.000000
  0
LINE
  8
DASHDOT
 62
     7
 10
283.086945
 20
141.489136
 11
283.086945
 21
98.836952
  0
LINE
  8
DASHDOT
 62
     7
 10
263.217407
 20
118.706520
 11
302.956512
 21
118.706520
  0
LINE
  8
0
 62
     5
 10
294.326080
 20
154.597824
 11
271.847809
 21
154.597824
  0
POLYLINE
  8
0
 62
     5
 66
     1
 70
     2
  0
VERTEX
  8
0
 10
275.489136
 20
153.141296
  0
VERTEX
  8
0
 10
280.586945
 20
154.597824
  0
VERTEX
  8
0
 10
275.489136
 20
156.054352
  0
SEQEND
  0
POLYLINE
  8
0
 62
     5
 66
     1
 70
     2
  0
VERTEX
  8
0
 10
290.684784
 20
156.054352
  0
VERTEX
  8
0
 10
285.586945
 20
154.597824
  0
VERTEX
  8
0
 10
290.684784
 20
153.141296
  0
SEQEND
  0
LINE
  8
0
 62
     5
 10
280.586945
 20
128.006516
 11
280.586945
 21
156.782608
  0
LINE
  8
0
 62
     5
 10
285.586945
 20
128.006516
 11
285.586945
 21
156.782608
  0
TEXT
  8
0
 62
     7
 10
268.054199
 20
156.054352
 40
7.282609
 41
1.000000
  1
5
  7
KANJI
 50
0.000000
 51
0.000000
  0
TEXT
  8
0
 62
     7
 10
275.263092
 20
156.054352
 40
5.826087
 41
1.000000
  1
%%p0.015
  7
KANJI
 50
0.000000
 51
0.000000
  0
LINE
  8
0
 62
     5
 10
320.434784
 20
102.967392
 11
320.434784
 21
136.745651
  0
POLYLINE
  8
0
 62
     5
 66
     1
 70
     2
  0
VERTEX
  8
0
 10
318.978241
 20
133.104340
  0
VERTEX
  8
0
 10
320.434784
 20
128.006516
  0
VERTEX
  8
0
 10
321.891296
 20
133.104340
  0
SEQEND
  0
POLYLINE
  8
0
 62
     5
 66
     1
 70
     2
  0
VERTEX
  8
0
 10
321.891296
 20
106.608696
  0
VERTEX
  8
0
 10
320.434784
 20
111.706520
  0
VERTEX
  8
0
 10
318.978241
 20
106.608696
  0
SEQEND
  0
LINE
  8
0
 62
     5
 10
285.586945
 20
128.006516
 11
322.619568
 21
128.006516
  0
LINE
  8
0
 62
     5
 10
283.086945
 20
111.706520
 11
322.619568
 21
111.706520
  0
TEXT
  8
0
 62
     7
 10
318.250000
 20
97.461197
 40
7.282609
 41
1.000000
  1
16.3
  7
KANJI
 50
90.000000
 51
0.000000
  0
TEXT
  8
0
 62
     7
 10
318.686951
 20
128.983200
 40
3.641304
 41
1.000000
  1
 
  7
KANJI
 50
90.000000
 51
0.000000
  0
TEXT
  8
0
 62
     7
 10
314.171722
 20
128.983200
 40
3.641304
 41
1.000000
  1
+
  7
KANJI
 50
90.000000
 51
0.000000
  0
TEXT
  8
0
 62
     7
 10
318.686951
 20
133.061462
 40
3.641304
 41
1.000000
  1
0
  7
KANJI
 50
90.000000
 51
0.000000
  0
TEXT
  8
0
 62
     7
 10
314.171722
 20
133.061462
 40
3.641304
 41
1.000000
  1
0.1
  7
KANJI
 50
90.000000
 51
0.000000
  0
ARC
  8
0
 62
     4
 10
283.086945
 20
118.706520
 40
7.000000
 50
110.92483306307776
 51
69.07516693692226
  0
POLYLINE
  8
0
 62
     4
 66
     1
 70
     2
  0
VERTEX
  8
0
 10
285.586945
 20
125.244865
  0
VERTEX
  8
0
 10
285.586945
 20
128.006516
  0
VERTEX
  8
0
 10
280.586945
 20
128.006516
  0
VERTEX
  8
0
 10
280.586945
 20
125.244865
  0
SEQEND
  0
LINE
  8
0
 62
     4
 10
117.978264
 20
128.006516
 11
153.978271
 21
128.006516
  0
POLYLINE
  8
DASHDOT
 62
     7
 66
     1
 70
     2
  0
VERTEX
  8
DASHDOT
 10
145.978271
 20
138.576080
  0
VERTEX
  8
DASHDOT
 10
145.978271
 20
123.636955
  0
SEQEND
  0
POLYLINE
  8
0
 62
     4
 66
     1
 70
     2
  0
VERTEX
  8
0
 10
147.978271
 20
134.206512
  0
VERTEX
  8
0
 10
147.978271
 20
128.006516
  0
SEQEND
  0
POLYLINE
  8
0
 62
     4
 66
     1
 70
     2
  0
VERTEX
  8
0
 10
143.978271
 20
134.206512
  0
VERTEX
  8
0
 10
143.978271
 20
128.006516
  0
SEQEND
  0
POLYLINE
  8
0
 62
     4
 66
     1
 70
     2
  0
VERTEX
  8
0
 10
147.598267
 20
134.206512
  0
VERTEX
  8
0
 10
147.598267
 20
128.006516
  0
SEQEND
  0
POLYLINE
  8
0
 62
     4
 66
     1
 70
     2
  0
VERTEX
  8
0
 10
144.358261
 20
134.206512
  0
VERTEX
  8
0
 10
144.358261
 20
128.006516
  0
SEQEND
  0
POLYLINE
  8
0
 62
     4
 66
     1
 70
     2
  0
VERTEX
  8
0
 10
281.086945
 20
128.006516
  0
VERTEX
  8
0
 10
281.086945
 20
134.076950
  0
SEQEND
  0
POLYLINE
  8
0
 62
     4
 66
     1
 70
     2
  0
VERTEX
  8
0
 10
285.086945
 20
128.006516
  0
VERTEX
  8
0
 10
285.086945
 20
134.076950
  0
SEQEND
  0
POLYLINE
  8
0
 62
     4
 66
     1
 70
     2
  0
VERTEX
  8
0
 10
281.466949
 20
128.006516
  0
VERTEX
  8
0
 10
281.466949
 20
134.121628
  0
SEQEND
  0
POLYLINE
  8
0
 62
     4
 66
     1
 70
     2
  0
VERTEX
  8
0
 10
284.706940
 20
128.006516
  0
VERTEX
  8
0
 10
284.706940
 20
134.121628
  0
SEQEND
  0
POLYLINE
  8
0
 62
     5
 66
     1
 70
     2
  0
VERTEX
  8
0
 10
283.086945
 20
134.206512
  0
VERTEX
  8
0
 10
256.869568
 20
177.902176
  0
VERTEX
  8
0
 10
272.891296
 20
177.902176
  0
SEQEND
  0
POLYLINE
  8
0
 62
     5
 66
     1
 70
     2
  0
VERTEX
  8
0
 10
279.215179
 20
137.828491
  0
VERTEX
  8
0
 10
283.086945
 20
134.206512
  0
VERTEX
  8
0
 10
281.713104
 20
139.327240
  0
SEQEND
  0
TEXT
  8
0
 62
     7
 10
258.326080
 20
179.358688
 40
6.991305
 41
1.000000
  1
M4
  7
KANJI
 50
0.000000
 51
0.000000
  0
CIRCLE
  8
0
 62
     7
 10
145.978271
 20
118.706520
 40
2.000000
  0
CIRCLE
  8
0
 62
     4
 10
145.978271
 20
118.706520
 40
1.620000
  0
POLYLINE
  8
DASHDOT
 62
     7
 66
     1
 70
     2
  0
VERTEX
  8
DASHDOT
 10
139.608704
 20
118.706520
  0
VERTEX
  8
DASHDOT
 10
152.347824
 20
118.706520
  0
SEQEND
  0
POLYLINE
  8
DASHDOT
 62
     7
 66
     1
 70
     2
  0
VERTEX
  8
DASHDOT
 10
145.978271
 20
112.336952
  0
VERTEX
  8
DASHDOT
 10
145.978271
 20
125.076088
  0
SEQEND
  0
LINE
  8
DASHDOT
 62
     7
 10
145.978271
 20
134.206512
 11
145.978271
 21
118.706520
  0
LINE
  8
0
 62
     5
 10
145.978271
 20
134.206512
 11
145.978271
 21
139.706512
  0
POLYLINE
  8
0
 62
     4
 66
     1
 70
     2
  0
VERTEX
  8
0
 10
289.795166
 20
120.706520
  0
VERTEX
  8
0
 10
298.457367
 20
120.706520
  0
SEQEND
  0
POLYLINE
  8
0
 62
     4
 66
     1
 70
     2
  0
VERTEX
  8
0
 10
289.795166
 20
116.706520
  0
VERTEX
  8
0
 10
298.457367
 20
116.706520
  0
SEQEND
  0
POLYLINE
  8
0
 62
     4
 66
     1
 70
     2
  0
VERTEX
  8
0
 10
289.896912
 20
120.326523
  0
VERTEX
  8
0
 10
298.502075
 20
120.326523
  0
SEQEND
  0
POLYLINE
  8
0
 62
     4
 66
     1
 70
     2
  0
VERTEX
  8
0
 10
289.896912
 20
117.086517
  0
VERTEX
  8
0
 10
298.502075
 20
117.086517
  0
SEQEND
  0
POLYLINE
  8
0
 62
     5
 66
     1
 70
     2
  0
VERTEX
  8
0
 10
298.586945
 20
118.706520
  0
VERTEX
  8
0
 10
320.434784
 20
166.250000
  0
VERTEX
  8
0
 10
299.169586
 20
166.250000
  0
SEQEND
  0
POLYLINE
  8
0
 62
     5
 66
     1
 70
     2
  0
VERTEX
  8
0
 10
299.392120
 20
123.946846
  0
VERTEX
  8
0
 10
298.586945
 20
118.706520
  0
VERTEX
  8
0
 10
302.039062
 20
122.730484
  0
SEQEND
  0
TEXT
  8
0
 62
     7
 10
302.082611
 20
167.706512
 40
6.991305
 41
1.000000
  1
M4
  7
KANJI
 50
0.000000
 51
0.000000
  0
LINE
  8
0
 62
     5
 10
191.847839
 20
125.706520
 11
191.847839
 21
111.706520
  0
POLYLINE
  8
0
 62
     5
 66
     1
 70
     2
  0
VERTEX
  8
0
 10
190.391312
 20
116.804344
  0
VERTEX
  8
0
 10
191.847839
 20
111.706520
  0
VERTEX
  8
0
 10
193.304352
 20
116.804344
  0
SEQEND
  0
LINE
  8
0
 62
     5
 10
153.978271
 20
111.706520
 11
194.032623
 21
111.706520
  0
TEXT
  8
0
 62
     7
 10
190.391312
 20
105.415756
 40
7.282609
 41
1.000000
  1
%%c14H7
  7
KANJI
 50
90.000000
 51
0.000000
  0
POLYLINE
  8
0
 62
     4
 66
     1
 70
     2
  0
VERTEX
  8
0
 10
117.978264
 20
111.206520
  0
VERTEX
  8
0
 10
117.978264
 20
98.206520
  0
VERTEX
  8
0
 10
118.478264
 20
97.706520
  0
VERTEX
  8
0
 10
137.478271
 20
97.706520
  0
VERTEX
  8
0
 10
137.978271
 20
98.206520
  0
VERTEX
  8
0
 10
137.978271
 20
102.206520
  0
SEQEND
  0
POLYLINE
  8
0
 62
     4
 66
     1
 70
     2
  0
VERTEX
  8
0
 10
138.978271
 20
103.206520
  0
VERTEX
  8
0
 10
153.478271
 20
103.206520
  0
VERTEX
  8
0
 10
153.978271
 20
103.706520
  0
VERTEX
  8
0
 10
153.978271
 20
133.706512
  0
VERTEX
  8
0
 10
153.478271
 20
134.206512
  0
VERTEX
  8
0
 10
138.978271
 20
134.206512
  0
SEQEND
  0
POLYLINE
  8
0
 62
     4
 66
     1
 70
     2
  0
VERTEX
  8
0
 10
137.978271
 20
135.206512
  0
VERTEX
  8
0
 10
137.978271
 20
139.206512
  0
VERTEX
  8
0
 10
137.478271
 20
139.706512
  0
VERTEX
  8
0
 10
118.478264
 20
139.706512
  0
VERTEX
  8
0
 10
117.978264
 20
139.206512
  0
VERTEX
  8
0
 10
117.978264
 20
111.206520
  0
SEQEND
  0
LINE
  8
0
 62
     7
 10
110.695656
 20
137.706512
 11
88.847832
 21
137.706512
  0
POLYLINE
  8
0
 62
     7
 66
     1
 70
     2
  0
VERTEX
  8
0
 10
94.673920
 20
137.706512
  0
VERTEX
  8
0
 10
91.833694
 20
142.629562
  0
VERTEX
  8
0
 10
108.875000
 20
142.629562
  0
VERTEX
  8
0
 10
106.034782
 20
137.706512
  0
VERTEX
  8
0
 10
103.194565
 20
142.629562
  0
VERTEX
  8
0
 10
100.354355
 20
137.706512
  0
VERTEX
  8
0
 10
97.514130
 20
142.629562
  0
VERTEX
  8
0
 10
94.673920
 20
137.706512
  0
SEQEND
  0
POLYLINE
  8
0
 62
     7
 66
     1
 70
     2
  0
VERTEX
  8
0
 10
101.301086
 20
145.091080
  0
VERTEX
  8
0
 10
102.247833
 20
145.091080
  0
VERTEX
  8
0
 10
102.247833
 20
144.523041
  0
VERTEX
  8
0
 10
101.301086
 20
143.576294
  0
VERTEX
  8
0
 10
99.407608
 20
143.576294
  0
VERTEX
  8
0
 10
98.460876
 20
144.523041
  0
VERTEX
  8
0
 10
98.460876
 20
147.363251
  0
VERTEX
  8
0
 10
99.407608
 20
148.309998
  0
VERTEX
  8
0
 10
101.301086
 20
148.309998
  0
VERTEX
  8
0
 10
102.247833
 20
147.363251
  0
VERTEX
  8
0
 10
102.247833
 20
146.795212
  0
SEQEND
  0
CIRCLE
  8
0
 62
     4
 10
283.086945
 20
118.706520
 40
15.500000
  0
LINE
  8
0
 62
     5
 10
145.978271
 20
146.989136
 11
153.978271
 21
146.989136
  0
POLYLINE
  8
0
 62
     5
 66
     1
 70
     2
  0
VERTEX
  8
0
 10
151.076080
 20
148.445648
  0
VERTEX
  8
0
 10
145.978271
 20
146.989136
  0
VERTEX
  8
0
 10
151.076080
 20
145.532608
  0
SEQEND
  0
POLYLINE
  8
0
 62
     5
 66
     1
 70
     2
  0
VERTEX
  8
0
 10
148.880432
 20
145.532608
  0
VERTEX
  8
0
 10
153.978271
 20
146.989136
  0
VERTEX
  8
0
 10
148.880432
 20
148.445648
  0
SEQEND
  0
LINE
  8
0
 62
     5
 10
145.978271
 20
139.706512
 11
145.978271
 21
149.173904
  0
TEXT
  8
0
 62
     7
 10
147.611420
 20
148.154343
 40
7.282609
 41
1.000000
  1
8
  7
KANJI
 50
0.000000
 51
0.000000
  0
LINE
  8
0
 62
     5
 10
145.978271
 20
134.206512
 11
145.978271
 21
139.706512
  0
ENDSEC
  0
EOF
