  0
SECTION
  2
HEADER
  9
$ACADVER
  1
AC1003
  9
$INSBASE
 10
0.000000
 20
0.000000
  9
$EXTMIN
 10
0.000000
 20
0.000000
  9
$EXTMAX
 10
827.608696
 20
572.282609
  9
$LIMMIN
 10
0.000000
 20
0.000000
  9
$LIMMAX
 10
827.608696
 20
572.282609
  9
$VIEWCTR
 10
413.804348
 20
286.141304
  9
$VIEWSIZE
 40
572.282609
  0
ENDSEC
  0
SECTION
  2
TABLES
  0
TABLE
  2
LTYPE
 70
     4
  0
LTYPE
  2
CONTINUOUS
 70
    64
  3
SolidLine
 72
    65
 73
     0
 40
0.0
  0
LTYPE
  2
HIDDEN
 70
    64
  3
------------------------
 72
    65
 73
     2
 40
8.804348
 49
5.869565
 49
-2.934783
  0
LTYPE
  2
DASHDOT
 70
    64
  3
--?--?--?--?--?--?--?--
 72
    65
 73
     4
 40
35.217391
 49
26.413043
 49
-2.934783
 49
2.934783
 49
-2.934783
  0
LTYPE
  2
DIVIDE
 70
    64
  3
--??--??--??--??--??--
 72
    65
 73
     6
 40
44.021739
 49
29.347826
 49
-2.934783
 49
2.934783
 49
-2.934783
 49
2.934783
 49
-2.934783
  0
ENDTAB
  0
TABLE
  2
LAYER
 70
     5
  0
LAYER
  2
0
 70
    64
 62
     7
  6
CONTINUOUS
  0
LAYER
  2
HIDDEN
 70
    64
 62
     2
  6
HIDDEN
  0
LAYER
  2
DASHDOT
 70
    64
 62
     6
  6
DASHDOT
  0
LAYER
  2
DIVIDE
 70
    64
 62
     5
  6
DIVIDE
  0
ENDTAB
  0
TABLE
  2
STYLE
 70
     1
  0
STYLE
  2
STANDARD
 70
    64
 40
0.0
 41
1.0
 50
0.0
 71
     0
 42
0.2
  3
TXT
  4

  0
STYLE
  2
KANJI
 70
    64
 40
0.0
 41
1.0
 50
0.0
 71
     0
 42
0.2
  3
TXT
  4
BIGFONT
  0
ENDTAB
  0
TABLE
  2
VIEW
 70
     0
  0
ENDTAB
  0
ENDSEC
  0
SECTION
  2
BLOCKS
  0
ENDSEC
  0
SECTION
  2
ENTITIES
  0
TEXT
  8
0
 62
     7
 10
29.347826
 20
32.282608
 40
11.739130
 41
1.000000
  1
KHK SSG4-22
  7
KANJI
 50
0.000000
 51
0.000000
  0
TEXT
  8
0
 62
     7
 10
29.347826
 20
14.673913
 40
11.739130
 41
1.000000
  1

  7
KANJI
 50
0.000000
 51
0.000000
  0
TEXT
  8
0
 62
     7
 10
29.347826
 20
528.260864
 40
13.206522
 41
1.000000
  1
Black oxide except gear tooth
  7
KANJI
 50
0.000000
 51
0.000000
  0
POLYLINE
  8
0
 62
     7
 66
     1
 70
     2
  0
VERTEX
  8
0
 10
586.956543
 20
528.260864
  0
VERTEX
  8
0
 10
575.510864
 20
548.099976
  0
VERTEX
  8
0
 10
621.293518
 20
548.099976
  0
VERTEX
  8
0
 10
609.847839
 20
528.260864
  0
VERTEX
  8
0
 10
598.402222
 20
548.099976
  0
VERTEX
  8
0
 10
586.956543
 20
528.260864
  0
SEQEND
  0
POLYLINE
  8
0
 62
     7
 66
     1
 70
     2
  0
VERTEX
  8
0
 10
667.076111
 20
528.260864
  0
VERTEX
  8
0
 10
655.630432
 20
548.099976
  0
VERTEX
  8
0
 10
724.304382
 20
548.099976
  0
VERTEX
  8
0
 10
712.858704
 20
528.260864
  0
VERTEX
  8
0
 10
701.413086
 20
548.099976
  0
VERTEX
  8
0
 10
689.967407
 20
528.260864
  0
VERTEX
  8
0
 10
678.521790
 20
548.099976
  0
VERTEX
  8
0
 10
667.076111
 20
528.260864
  0
SEQEND
  0
POLYLINE
  8
0
 62
     7
 66
     1
 70
     2
  0
VERTEX
  8
0
 10
693.782654
 20
558.019531
  0
VERTEX
  8
0
 10
697.597839
 20
558.019531
  0
VERTEX
  8
0
 10
697.597839
 20
555.730408
  0
VERTEX
  8
0
 10
693.782654
 20
551.915222
  0
VERTEX
  8
0
 10
686.152222
 20
551.915222
  0
VERTEX
  8
0
 10
682.336975
 20
555.730408
  0
VERTEX
  8
0
 10
682.336975
 20
567.176086
  0
VERTEX
  8
0
 10
686.152222
 20
570.991272
  0
VERTEX
  8
0
 10
693.782654
 20
570.991272
  0
VERTEX
  8
0
 10
697.597839
 20
567.176086
  0
VERTEX
  8
0
 10
697.597839
 20
564.886963
  0
SEQEND
  0
POLYLINE
  8
0
 62
     7
 66
     1
 70
     2
  0
VERTEX
  8
0
 10
638.843506
 20
548.099976
  0
VERTEX
  8
0
 10
635.791321
 20
545.047852
  0
VERTEX
  8
0
 10
635.791321
 20
531.313049
  0
VERTEX
  8
0
 10
638.843506
 20
528.260864
  0
SEQEND
  0
POLYLINE
  8
0
 62
     7
 66
     1
 70
     2
  0
VERTEX
  8
0
 10
738.802185
 20
548.099976
  0
VERTEX
  8
0
 10
741.854370
 20
545.047852
  0
VERTEX
  8
0
 10
741.854370
 20
531.313049
  0
VERTEX
  8
0
 10
738.802185
 20
528.260864
  0
SEQEND
  0
LINE
  8
0
 62
     5
 10
449.456543
 20
287.184753
 11
449.456543
 21
191.184769
  0
POLYLINE
  8
0
 62
     5
 66
     1
 70
     2
  0
VERTEX
  8
0
 10
452.391327
 20
276.913025
  0
VERTEX
  8
0
 10
449.456543
 20
287.184753
  0
VERTEX
  8
0
 10
446.521759
 20
276.913025
  0
SEQEND
  0
POLYLINE
  8
0
 62
     5
 66
     1
 70
     2
  0
VERTEX
  8
0
 10
446.521759
 20
201.456512
  0
VERTEX
  8
0
 10
449.456543
 20
191.184769
  0
VERTEX
  8
0
 10
452.391327
 20
201.456512
  0
SEQEND
  0
LINE
  8
0
 62
     5
 10
302.717407
 20
287.184753
 11
453.858704
 21
287.184753
  0
LINE
  8
0
 62
     5
 10
302.717407
 20
191.184769
 11
453.858704
 21
191.184769
  0
TEXT
  8
0
 62
     7
 10
446.521759
 20
221.942932
 40
14.673913
 41
1.000000
  1
%%c96
  7
KANJI
 50
90.000000
 51
0.000000
  0
LINE
  8
DASHDOT
 62
     7
 10
228.913055
 20
283.184753
 11
286.521759
 21
283.184753
  0
LINE
  8
DASHDOT
 62
     7
 10
228.913055
 20
195.184769
 11
286.521759
 21
195.184769
  0
LINE
  8
DASHDOT
 62
     7
 10
228.913055
 20
239.184769
 11
311.521759
 21
239.184769
  0
LINE
  8
0
 62
     5
 10
277.717407
 20
286.184753
 11
277.717407
 21
287.184753
  0
LINE
  8
0
 62
     5
 10
237.717407
 20
286.184753
 11
237.717407
 21
287.184753
  0
LINE
  8
0
 62
     5
 10
279.217407
 20
274.184753
 11
302.717407
 21
274.184753
  0
LINE
  8
0
 62
     5
 10
279.217407
 20
204.184769
 11
302.717407
 21
204.184769
  0
LINE
  8
0
 62
     5
 10
276.717407
 20
287.184753
 11
302.717407
 21
287.184753
  0
LINE
  8
0
 62
     5
 10
276.717407
 20
191.184769
 11
302.717407
 21
191.184769
  0
LINE
  8
0
 62
     4
 10
237.717407
 20
278.184753
 11
277.717407
 21
278.184753
  0
LINE
  8
0
 62
     4
 10
237.717407
 20
200.184769
 11
277.717407
 21
200.184769
  0
LINE
  8
0
 62
     4
 10
301.717407
 20
229.184769
 11
302.717407
 21
228.184769
  0
LINE
  8
0
 62
     4
 10
301.717407
 20
249.184769
 11
302.717407
 21
250.184769
  0
LINE
  8
0
 62
     4
 10
238.717407
 20
249.184769
 11
238.717407
 21
229.184769
  0
POLYLINE
  8
0
 62
     4
 66
     1
 70
     2
  0
VERTEX
  8
0
 10
237.717407
 20
228.184769
  0
VERTEX
  8
0
 10
238.717407
 20
229.184769
  0
VERTEX
  8
0
 10
301.717407
 20
229.184769
  0
VERTEX
  8
0
 10
301.717407
 20
249.184769
  0
VERTEX
  8
0
 10
238.717407
 20
249.184769
  0
VERTEX
  8
0
 10
237.717407
 20
250.184769
  0
SEQEND
  0
ARC
  8
0
 62
     4
 10
279.217407
 20
275.684753
 40
1.500000
 50
180.0
 51
270.0
  0
ARC
  8
0
 62
     4
 10
279.217407
 20
202.684769
 40
1.500000
 50
90.0
 51
180.0
  0
LINE
  8
0
 62
     5
 10
302.717407
 20
273.184753
 11
302.717407
 21
287.184753
  0
LINE
  8
0
 62
     5
 10
237.717407
 20
366.423889
 11
277.717407
 21
366.423889
  0
POLYLINE
  8
0
 62
     5
 66
     1
 70
     2
  0
VERTEX
  8
0
 10
247.989151
 20
369.358673
  0
VERTEX
  8
0
 10
237.717407
 20
366.423889
  0
VERTEX
  8
0
 10
247.989151
 20
363.489105
  0
SEQEND
  0
POLYLINE
  8
0
 62
     5
 66
     1
 70
     2
  0
VERTEX
  8
0
 10
267.445679
 20
363.489105
  0
VERTEX
  8
0
 10
277.717407
 20
366.423889
  0
VERTEX
  8
0
 10
267.445679
 20
369.358673
  0
SEQEND
  0
LINE
  8
0
 62
     5
 10
277.717407
 20
287.184753
 11
277.717407
 21
370.826050
  0
TEXT
  8
0
 62
     7
 10
248.179367
 20
368.771729
 40
14.673913
 41
1.000000
  1
40
  7
KANJI
 50
0.000000
 51
0.000000
  0
LINE
  8
0
 62
     5
 10
237.717407
 20
389.902161
 11
302.717407
 21
389.902161
  0
POLYLINE
  8
0
 62
     5
 66
     1
 70
     2
  0
VERTEX
  8
0
 10
247.989151
 20
392.836945
  0
VERTEX
  8
0
 10
237.717407
 20
389.902161
  0
VERTEX
  8
0
 10
247.989151
 20
386.967377
  0
SEQEND
  0
POLYLINE
  8
0
 62
     5
 66
     1
 70
     2
  0
VERTEX
  8
0
 10
292.445679
 20
386.967377
  0
VERTEX
  8
0
 10
302.717407
 20
389.902161
  0
VERTEX
  8
0
 10
292.445679
 20
392.836945
  0
SEQEND
  0
LINE
  8
0
 62
     5
 10
237.717407
 20
287.184753
 11
237.717407
 21
394.304321
  0
LINE
  8
0
 62
     5
 10
302.717407
 20
287.184753
 11
302.717407
 21
394.304321
  0
TEXT
  8
0
 62
     7
 10
260.679352
 20
392.250000
 40
14.673913
 41
1.000000
  1
65
  7
KANJI
 50
0.000000
 51
0.000000
  0
LINE
  8
0
 62
     5
 10
320.326111
 20
366.423889
 11
260.108704
 21
366.423889
  0
POLYLINE
  8
0
 62
     5
 66
     1
 70
     2
  0
VERTEX
  8
0
 10
267.445679
 20
363.489105
  0
VERTEX
  8
0
 10
277.717407
 20
366.423889
  0
VERTEX
  8
0
 10
267.445679
 20
369.358673
  0
SEQEND
  0
POLYLINE
  8
0
 62
     5
 66
     1
 70
     2
  0
VERTEX
  8
0
 10
312.989136
 20
369.358673
  0
VERTEX
  8
0
 10
302.717407
 20
366.423889
  0
VERTEX
  8
0
 10
312.989136
 20
363.489105
  0
SEQEND
  0
TEXT
  8
0
 62
     7
 10
280.679352
 20
368.771729
 40
14.673913
 41
1.000000
  1
25
  7
KANJI
 50
0.000000
 51
0.000000
  0
LINE
  8
0
 62
     5
 10
425.978271
 20
274.184753
 11
425.978271
 21
204.184769
  0
POLYLINE
  8
0
 62
     5
 66
     1
 70
     2
  0
VERTEX
  8
0
 10
428.913055
 20
263.913025
  0
VERTEX
  8
0
 10
425.978271
 20
274.184753
  0
VERTEX
  8
0
 10
423.043488
 20
263.913025
  0
SEQEND
  0
POLYLINE
  8
0
 62
     5
 66
     1
 70
     2
  0
VERTEX
  8
0
 10
423.043488
 20
214.456512
  0
VERTEX
  8
0
 10
425.978271
 20
204.184769
  0
VERTEX
  8
0
 10
428.913055
 20
214.456512
  0
SEQEND
  0
LINE
  8
0
 62
     5
 10
302.717407
 20
274.184753
 11
430.380432
 21
274.184753
  0
LINE
  8
0
 62
     5
 10
302.717407
 20
204.184769
 11
430.380432
 21
204.184769
  0
TEXT
  8
0
 62
     7
 10
423.043488
 20
221.942917
 40
14.673913
 41
1.000000
  1
%%c70
  7
KANJI
 50
90.000000
 51
0.000000
  0
LINE
  8
0
 62
     5
 10
379.021759
 20
211.576080
 11
379.021759
 21
266.793457
  0
POLYLINE
  8
0
 62
     5
 66
     1
 70
     2
  0
VERTEX
  8
0
 10
376.086975
 20
259.456512
  0
VERTEX
  8
0
 10
379.021759
 20
249.184769
  0
VERTEX
  8
0
 10
381.956543
 20
259.456512
  0
SEQEND
  0
POLYLINE
  8
0
 62
     5
 66
     1
 70
     2
  0
VERTEX
  8
0
 10
381.956543
 20
218.913025
  0
VERTEX
  8
0
 10
379.021759
 20
229.184769
  0
VERTEX
  8
0
 10
376.086975
 20
218.913025
  0
SEQEND
  0
LINE
  8
0
 62
     5
 10
302.717407
 20
249.184769
 11
383.423950
 21
249.184769
  0
LINE
  8
0
 62
     5
 10
302.717407
 20
229.184769
 11
383.423950
 21
229.184769
  0
TEXT
  8
0
 62
     7
 10
376.086975
 20
212.404877
 40
14.673913
 41
1.000000
  1
%%c20H7
  7
KANJI
 50
90.000000
 51
0.000000
  0
POLYLINE
  8
0
 62
     4
 66
     1
 70
     2
  0
VERTEX
  8
0
 10
237.717407
 20
228.184769
  0
VERTEX
  8
0
 10
237.717407
 20
192.184769
  0
VERTEX
  8
0
 10
238.717407
 20
191.184769
  0
VERTEX
  8
0
 10
276.717407
 20
191.184769
  0
VERTEX
  8
0
 10
277.717407
 20
192.184769
  0
VERTEX
  8
0
 10
277.717407
 20
202.684769
  0
SEQEND
  0
POLYLINE
  8
0
 62
     4
 66
     1
 70
     2
  0
VERTEX
  8
0
 10
279.217407
 20
204.184769
  0
VERTEX
  8
0
 10
301.717407
 20
204.184769
  0
VERTEX
  8
0
 10
302.717407
 20
205.184769
  0
VERTEX
  8
0
 10
302.717407
 20
273.184753
  0
VERTEX
  8
0
 10
301.717407
 20
274.184753
  0
VERTEX
  8
0
 10
279.217407
 20
274.184753
  0
SEQEND
  0
POLYLINE
  8
0
 62
     4
 66
     1
 70
     2
  0
VERTEX
  8
0
 10
277.717407
 20
275.684753
  0
VERTEX
  8
0
 10
277.717407
 20
286.184753
  0
VERTEX
  8
0
 10
276.717407
 20
287.184753
  0
VERTEX
  8
0
 10
238.717407
 20
287.184753
  0
VERTEX
  8
0
 10
237.717407
 20
286.184753
  0
VERTEX
  8
0
 10
237.717407
 20
228.184769
  0
SEQEND
  0
LINE
  8
0
 62
     7
 10
223.043488
 20
283.184753
 11
179.021759
 21
283.184753
  0
POLYLINE
  8
0
 62
     7
 66
     1
 70
     2
  0
VERTEX
  8
0
 10
190.760895
 20
283.184753
  0
VERTEX
  8
0
 10
185.038055
 20
293.104340
  0
VERTEX
  8
0
 10
219.375015
 20
293.104340
  0
VERTEX
  8
0
 10
213.652191
 20
283.184753
  0
VERTEX
  8
0
 10
207.929367
 20
293.104340
  0
VERTEX
  8
0
 10
202.206543
 20
283.184753
  0
VERTEX
  8
0
 10
196.483719
 20
293.104340
  0
VERTEX
  8
0
 10
190.760895
 20
283.184753
  0
SEQEND
  0
POLYLINE
  8
0
 62
     7
 66
     1
 70
     2
  0
VERTEX
  8
0
 10
204.114151
 20
298.064117
  0
VERTEX
  8
0
 10
206.021759
 20
298.064117
  0
VERTEX
  8
0
 10
206.021759
 20
296.919556
  0
VERTEX
  8
0
 10
204.114151
 20
295.011932
  0
VERTEX
  8
0
 10
200.298935
 20
295.011932
  0
VERTEX
  8
0
 10
198.391327
 20
296.919556
  0
VERTEX
  8
0
 10
198.391327
 20
302.642395
  0
VERTEX
  8
0
 10
200.298935
 20
304.549988
  0
VERTEX
  8
0
 10
204.114151
 20
304.549988
  0
VERTEX
  8
0
 10
206.021759
 20
302.642395
  0
VERTEX
  8
0
 10
206.021759
 20
301.497803
  0
SEQEND
  0
ENDSEC
  0
EOF
