  0
SECTION
  2
HEADER
  9
$ACADVER
  1
AC1003
  9
$INSBASE
 10
0.000000
 20
0.000000
  9
$EXTMIN
 10
0.000000
 20
0.000000
  9
$EXTMAX
 10
419.189189
 20
289.864865
  9
$LIMMIN
 10
0.000000
 20
0.000000
  9
$LIMMAX
 10
419.189189
 20
289.864865
  9
$VIEWCTR
 10
209.594595
 20
144.932432
  9
$VIEWSIZE
 40
289.864865
  0
ENDSEC
  0
SECTION
  2
TABLES
  0
TABLE
  2
LTYPE
 70
     4
  0
LTYPE
  2
CONTINUOUS
 70
    64
  3
SolidLine
 72
    65
 73
     0
 40
0.0
  0
LTYPE
  2
HIDDEN
 70
    64
  3
------------------------
 72
    65
 73
     2
 40
4.459459
 49
2.972973
 49
-1.486486
  0
LTYPE
  2
DASHDOT
 70
    64
  3
--?--?--?--?--?--?--?--
 72
    65
 73
     4
 40
17.837838
 49
13.378378
 49
-1.486486
 49
1.486486
 49
-1.486486
  0
LTYPE
  2
DIVIDE
 70
    64
  3
--??--??--??--??--??--
 72
    65
 73
     6
 40
22.297297
 49
14.864865
 49
-1.486486
 49
1.486486
 49
-1.486486
 49
1.486486
 49
-1.486486
  0
ENDTAB
  0
TABLE
  2
LAYER
 70
     5
  0
LAYER
  2
0
 70
    64
 62
     7
  6
CONTINUOUS
  0
LAYER
  2
HIDDEN
 70
    64
 62
     2
  6
HIDDEN
  0
LAYER
  2
DASHDOT
 70
    64
 62
     6
  6
DASHDOT
  0
LAYER
  2
DIVIDE
 70
    64
 62
     5
  6
DIVIDE
  0
ENDTAB
  0
TABLE
  2
STYLE
 70
     1
  0
STYLE
  2
STANDARD
 70
    64
 40
0.0
 41
1.0
 50
0.0
 71
     0
 42
0.2
  3
TXT
  4

  0
STYLE
  2
KANJI
 70
    64
 40
0.0
 41
1.0
 50
0.0
 71
     0
 42
0.2
  3
TXT
  4
BIGFONT
  0
ENDTAB
  0
TABLE
  2
VIEW
 70
     0
  0
ENDTAB
  0
ENDSEC
  0
SECTION
  2
BLOCKS
  0
ENDSEC
  0
SECTION
  2
ENTITIES
  0
TEXT
  8
0
 62
     7
 10
14.864865
 20
16.351351
 40
5.945946
 41
1.000000
  1
KHK SSGS3-13
  7
KANJI
 50
0.000000
 51
0.000000
  0
TEXT
  8
0
 62
     7
 10
14.864865
 20
7.432433
 40
5.945946
 41
1.000000
  1

  7
KANJI
 50
0.000000
 51
0.000000
  0
TEXT
  8
0
 62
     7
 10
14.864865
 20
267.567566
 40
6.689189
 41
1.000000
  1
Black oxide except ground surface
  7
KANJI
 50
0.000000
 51
0.000000
  0
POLYLINE
  8
0
 62
     7
 66
     1
 70
     2
  0
VERTEX
  8
0
 10
297.297302
 20
267.567566
  0
VERTEX
  8
0
 10
291.500000
 20
277.616211
  0
VERTEX
  8
0
 10
314.689209
 20
277.616211
  0
VERTEX
  8
0
 10
308.891907
 20
267.567566
  0
VERTEX
  8
0
 10
303.094604
 20
277.616211
  0
VERTEX
  8
0
 10
297.297302
 20
267.567566
  0
SEQEND
  0
POLYLINE
  8
0
 62
     7
 66
     1
 70
     2
  0
VERTEX
  8
0
 10
337.878387
 20
267.567566
  0
VERTEX
  8
0
 10
332.081085
 20
277.616211
  0
VERTEX
  8
0
 10
366.864868
 20
277.616211
  0
VERTEX
  8
0
 10
361.067566
 20
267.567566
  0
VERTEX
  8
0
 10
355.270264
 20
277.616211
  0
VERTEX
  8
0
 10
349.472961
 20
267.567566
  0
VERTEX
  8
0
 10
343.675690
 20
277.616211
  0
VERTEX
  8
0
 10
337.878387
 20
267.567566
  0
SEQEND
  0
POLYLINE
  8
0
 62
     7
 66
     1
 70
     2
  0
VERTEX
  8
0
 10
351.405396
 20
282.640533
  0
VERTEX
  8
0
 10
353.337830
 20
282.640533
  0
VERTEX
  8
0
 10
353.337830
 20
281.481079
  0
VERTEX
  8
0
 10
351.405396
 20
279.548645
  0
VERTEX
  8
0
 10
347.540558
 20
279.548645
  0
VERTEX
  8
0
 10
345.608124
 20
281.481079
  0
VERTEX
  8
0
 10
345.608124
 20
287.278381
  0
VERTEX
  8
0
 10
347.540558
 20
289.210815
  0
VERTEX
  8
0
 10
351.405396
 20
289.210815
  0
VERTEX
  8
0
 10
353.337830
 20
287.278381
  0
VERTEX
  8
0
 10
353.337830
 20
286.118927
  0
SEQEND
  0
POLYLINE
  8
0
 62
     7
 66
     1
 70
     2
  0
VERTEX
  8
0
 10
323.578369
 20
277.616211
  0
VERTEX
  8
0
 10
322.032440
 20
276.070282
  0
VERTEX
  8
0
 10
322.032440
 20
269.113525
  0
VERTEX
  8
0
 10
323.578369
 20
267.567566
  0
SEQEND
  0
POLYLINE
  8
0
 62
     7
 66
     1
 70
     2
  0
VERTEX
  8
0
 10
374.208130
 20
277.616211
  0
VERTEX
  8
0
 10
375.754059
 20
276.070282
  0
VERTEX
  8
0
 10
375.754059
 20
269.113525
  0
VERTEX
  8
0
 10
374.208130
 20
267.567566
  0
SEQEND
  0
LINE
  8
0
 62
     5
 10
65.405396
 20
92.702705
 11
65.405396
 21
137.702698
  0
POLYLINE
  8
0
 62
     5
 66
     1
 70
     2
  0
VERTEX
  8
0
 10
63.918907
 20
97.905411
  0
VERTEX
  8
0
 10
65.405396
 20
92.702705
  0
VERTEX
  8
0
 10
66.891884
 20
97.905411
  0
SEQEND
  0
POLYLINE
  8
0
 62
     5
 66
     1
 70
     2
  0
VERTEX
  8
0
 10
66.891884
 20
132.500000
  0
VERTEX
  8
0
 10
65.405396
 20
137.702698
  0
VERTEX
  8
0
 10
63.918907
 20
132.500000
  0
SEQEND
  0
LINE
  8
0
 62
     5
 10
101.081070
 20
92.702705
 11
63.175667
 21
92.702705
  0
LINE
  8
0
 62
     5
 10
101.081070
 20
137.702698
 11
63.175667
 21
137.702698
  0
TEXT
  8
0
 62
     7
 10
62.432423
 20
106.469597
 40
7.432432
 41
1.000000
  1
%%c45
  7
KANJI
 50
90.000000
 51
0.000000
  0
LINE
  8
0
 62
     5
 10
141.081070
 20
170.405411
 11
171.081070
 21
170.405411
  0
POLYLINE
  8
0
 62
     5
 66
     1
 70
     2
  0
VERTEX
  8
0
 10
146.283768
 20
171.891891
  0
VERTEX
  8
0
 10
141.081070
 20
170.405411
  0
VERTEX
  8
0
 10
146.283768
 20
168.918915
  0
SEQEND
  0
POLYLINE
  8
0
 62
     5
 66
     1
 70
     2
  0
VERTEX
  8
0
 10
165.878357
 20
168.918915
  0
VERTEX
  8
0
 10
171.081070
 20
170.405411
  0
VERTEX
  8
0
 10
165.878357
 20
171.891891
  0
SEQEND
  0
LINE
  8
0
 62
     5
 10
141.081070
 20
137.702698
 11
141.081070
 21
172.635132
  0
LINE
  8
0
 62
     5
 10
171.081070
 20
137.702698
 11
171.081070
 21
172.635132
  0
TEXT
  8
0
 62
     7
 10
151.249985
 20
171.594604
 40
7.432432
 41
1.000000
  1
30
  7
KANJI
 50
0.000000
 51
0.000000
  0
LINE
  8
DASHDOT
 62
     7
 10
136.621613
 20
134.702698
 11
175.540527
 21
134.702698
  0
LINE
  8
DASHDOT
 62
     7
 10
136.621613
 20
95.702705
 11
175.540527
 21
95.702705
  0
LINE
  8
DASHDOT
 62
     7
 10
96.621613
 20
115.202705
 11
325.540527
 21
115.202705
  0
LINE
  8
0
 62
     5
 10
171.081070
 20
136.702698
 11
171.081070
 21
137.702698
  0
LINE
  8
0
 62
     5
 10
141.081070
 20
136.702698
 11
141.081070
 21
137.702698
  0
LINE
  8
0
 62
     5
 10
321.081055
 20
129.302704
 11
321.081055
 21
137.702698
  0
LINE
  8
0
 62
     5
 10
101.081070
 20
129.302704
 11
101.081070
 21
137.702698
  0
LINE
  8
0
 62
     5
 10
142.081070
 20
137.702698
 11
101.081070
 21
137.702698
  0
LINE
  8
0
 62
     5
 10
142.081070
 20
92.702705
 11
101.081070
 21
92.702705
  0
LINE
  8
0
 62
     4
 10
141.081070
 20
99.452705
 11
171.081070
 21
99.452705
  0
LINE
  8
0
 62
     4
 10
141.081070
 20
130.952698
 11
171.081070
 21
130.952698
  0
POLYLINE
  8
0
 62
     4
 66
     1
 70
     2
  0
VERTEX
  8
0
 10
141.081070
 20
93.702705
  0
VERTEX
  8
0
 10
142.081070
 20
92.702705
  0
VERTEX
  8
0
 10
170.081070
 20
92.702705
  0
VERTEX
  8
0
 10
171.081070
 20
93.702705
  0
VERTEX
  8
0
 10
171.081070
 20
136.702698
  0
VERTEX
  8
0
 10
170.081070
 20
137.702698
  0
VERTEX
  8
0
 10
142.081070
 20
137.702698
  0
VERTEX
  8
0
 10
141.081070
 20
136.702698
  0
VERTEX
  8
0
 10
141.081070
 20
93.702705
  0
SEQEND
  0
POLYLINE
  8
0
 62
     4
 66
     1
 70
     2
  0
VERTEX
  8
0
 10
141.081070
 20
130.302704
  0
VERTEX
  8
0
 10
102.081070
 20
130.302704
  0
VERTEX
  8
0
 10
101.081070
 20
129.302704
  0
VERTEX
  8
0
 10
101.081070
 20
101.102707
  0
VERTEX
  8
0
 10
102.081070
 20
100.102707
  0
VERTEX
  8
0
 10
141.081070
 20
100.102707
  0
SEQEND
  0
LINE
  8
0
 62
     4
 10
102.081070
 20
130.302704
 11
102.081070
 21
100.102707
  0
LINE
  8
0
 62
     5
 10
101.081070
 20
170.405411
 11
141.081070
 21
170.405411
  0
POLYLINE
  8
0
 62
     5
 66
     1
 70
     2
  0
VERTEX
  8
0
 10
106.283775
 20
171.891891
  0
VERTEX
  8
0
 10
101.081070
 20
170.405411
  0
VERTEX
  8
0
 10
106.283775
 20
168.918915
  0
SEQEND
  0
POLYLINE
  8
0
 62
     5
 66
     1
 70
     2
  0
VERTEX
  8
0
 10
135.878372
 20
168.918915
  0
VERTEX
  8
0
 10
141.081070
 20
170.405411
  0
VERTEX
  8
0
 10
135.878372
 20
171.891891
  0
SEQEND
  0
TEXT
  8
0
 62
     7
 10
116.249985
 20
171.594604
 40
7.432432
 41
1.000000
  1
40
  7
KANJI
 50
0.000000
 51
0.000000
  0
LINE
  8
0
 62
     5
 10
102.081070
 20
130.302704
 11
101.081070
 21
130.302704
  0
LINE
  8
0
 62
     5
 10
102.081070
 20
100.102707
 11
101.081070
 21
100.102707
  0
LINE
  8
0
 62
     5
 10
101.081070
 20
182.297302
 11
321.081055
 21
182.297302
  0
POLYLINE
  8
0
 62
     5
 66
     1
 70
     2
  0
VERTEX
  8
0
 10
106.283775
 20
183.783783
  0
VERTEX
  8
0
 10
101.081070
 20
182.297302
  0
VERTEX
  8
0
 10
106.283775
 20
180.810806
  0
SEQEND
  0
POLYLINE
  8
0
 62
     5
 66
     1
 70
     2
  0
VERTEX
  8
0
 10
315.878357
 20
180.810806
  0
VERTEX
  8
0
 10
321.081055
 20
182.297302
  0
VERTEX
  8
0
 10
315.878357
 20
183.783783
  0
SEQEND
  0
LINE
  8
0
 62
     5
 10
101.081070
 20
137.702698
 11
101.081070
 21
184.527023
  0
LINE
  8
0
 62
     5
 10
321.081055
 20
137.702698
 11
321.081055
 21
184.527023
  0
TEXT
  8
0
 62
     7
 10
203.834442
 20
183.486481
 40
7.432432
 41
1.000000
  1
220
  7
KANJI
 50
0.000000
 51
0.000000
  0
LINE
  8
0
 62
     7
 10
97.219177
 20
117.432434
 11
101.081070
 21
115.202705
  0
LINE
  8
0
 62
     7
 10
97.219177
 20
112.972977
 11
101.081070
 21
115.202705
  0
POLYLINE
  8
0
 62
     4
 66
     1
 70
     2
  0
VERTEX
  8
0
 10
171.081070
 20
130.302704
  0
VERTEX
  8
0
 10
320.081055
 20
130.302704
  0
VERTEX
  8
0
 10
321.081055
 20
129.302704
  0
VERTEX
  8
0
 10
321.081055
 20
101.102707
  0
VERTEX
  8
0
 10
320.081055
 20
100.102707
  0
VERTEX
  8
0
 10
171.081070
 20
100.102707
  0
SEQEND
  0
LINE
  8
0
 62
     4
 10
320.081055
 20
130.302704
 11
320.081055
 21
100.102707
  0
LINE
  8
0
 62
     5
 10
171.081070
 20
170.405411
 11
321.081055
 21
170.405411
  0
POLYLINE
  8
0
 62
     5
 66
     1
 70
     2
  0
VERTEX
  8
0
 10
176.283783
 20
171.891891
  0
VERTEX
  8
0
 10
171.081070
 20
170.405411
  0
VERTEX
  8
0
 10
176.283783
 20
168.918915
  0
SEQEND
  0
POLYLINE
  8
0
 62
     5
 66
     1
 70
     2
  0
VERTEX
  8
0
 10
315.878357
 20
168.918915
  0
VERTEX
  8
0
 10
321.081055
 20
170.405411
  0
VERTEX
  8
0
 10
315.878357
 20
171.891891
  0
SEQEND
  0
TEXT
  8
0
 62
     7
 10
238.834457
 20
171.594604
 40
7.432432
 41
1.000000
  1
150
  7
KANJI
 50
0.000000
 51
0.000000
  0
LINE
  8
0
 62
     5
 10
101.081070
 20
182.297302
 11
321.081055
 21
182.297302
  0
POLYLINE
  8
0
 62
     5
 66
     1
 70
     2
  0
VERTEX
  8
0
 10
106.283775
 20
183.783783
  0
VERTEX
  8
0
 10
101.081070
 20
182.297302
  0
VERTEX
  8
0
 10
106.283775
 20
180.810806
  0
SEQEND
  0
POLYLINE
  8
0
 62
     5
 66
     1
 70
     2
  0
VERTEX
  8
0
 10
315.878357
 20
180.810806
  0
VERTEX
  8
0
 10
321.081055
 20
182.297302
  0
VERTEX
  8
0
 10
315.878357
 20
183.783783
  0
SEQEND
  0
LINE
  8
0
 62
     5
 10
101.081070
 20
137.702698
 11
101.081070
 21
184.527023
  0
LINE
  8
0
 62
     5
 10
321.081055
 20
137.702698
 11
321.081055
 21
184.527023
  0
TEXT
  8
0
 62
     7
 10
203.834442
 20
183.486481
 40
7.432432
 41
1.000000
  1
220
  7
KANJI
 50
0.000000
 51
0.000000
  0
LINE
  8
0
 62
     7
 10
321.081055
 20
115.202705
 11
324.942963
 21
117.432434
  0
LINE
  8
0
 62
     7
 10
321.081055
 20
115.202705
 11
324.942963
 21
112.972977
  0
LINE
  8
0
 62
     5
 10
89.189178
 20
139.221619
 11
89.189178
 21
91.183784
  0
POLYLINE
  8
0
 62
     5
 66
     1
 70
     2
  0
VERTEX
  8
0
 10
90.675667
 20
94.900002
  0
VERTEX
  8
0
 10
89.189178
 20
100.102707
  0
VERTEX
  8
0
 10
87.702690
 20
94.900002
  0
SEQEND
  0
POLYLINE
  8
0
 62
     5
 66
     1
 70
     2
  0
VERTEX
  8
0
 10
87.702690
 20
135.505402
  0
VERTEX
  8
0
 10
89.189178
 20
130.302704
  0
VERTEX
  8
0
 10
90.675667
 20
135.505402
  0
SEQEND
  0
LINE
  8
0
 62
     5
 10
101.081070
 20
100.102707
 11
86.959450
 21
100.102707
  0
LINE
  8
0
 62
     5
 10
101.081070
 20
130.302704
 11
86.959450
 21
130.302704
  0
TEXT
  8
0
 62
     7
 10
86.216202
 20
101.638519
 40
7.432432
 41
1.000000
  1
%%c30.2
  7
KANJI
 50
90.000000
 51
0.000000
  0
LINE
  8
0
 62
     5
 10
337.918884
 20
91.183784
 11
337.918884
 21
139.221619
  0
POLYLINE
  8
0
 62
     5
 66
     1
 70
     2
  0
VERTEX
  8
0
 10
336.432434
 20
135.505402
  0
VERTEX
  8
0
 10
337.918884
 20
130.302704
  0
VERTEX
  8
0
 10
339.405396
 20
135.505402
  0
SEQEND
  0
POLYLINE
  8
0
 62
     5
 66
     1
 70
     2
  0
VERTEX
  8
0
 10
339.405396
 20
94.900002
  0
VERTEX
  8
0
 10
337.918884
 20
100.102707
  0
VERTEX
  8
0
 10
336.432434
 20
94.900002
  0
SEQEND
  0
LINE
  8
0
 62
     5
 10
320.081055
 20
130.302704
 11
340.148621
 21
130.302704
  0
LINE
  8
0
 62
     5
 10
320.081055
 20
100.102707
 11
340.148621
 21
100.102707
  0
TEXT
  8
0
 62
     7
 10
336.432434
 20
101.638519
 40
7.432432
 41
1.000000
  1
%%c30.2
  7
KANJI
 50
90.000000
 51
0.000000
  0
POLYLINE
  8
0
 62
     7
 66
     1
 70
     2
  0
VERTEX
  8
0
 10
126.216202
 20
130.302704
  0
VERTEX
  8
0
 10
123.317558
 20
135.327026
  0
VERTEX
  8
0
 10
140.709442
 20
135.327026
  0
VERTEX
  8
0
 10
137.810791
 20
130.302704
  0
VERTEX
  8
0
 10
134.912155
 20
135.327026
  0
VERTEX
  8
0
 10
132.013504
 20
130.302704
  0
VERTEX
  8
0
 10
129.114853
 20
135.327026
  0
VERTEX
  8
0
 10
126.216202
 20
130.302704
  0
SEQEND
  0
POLYLINE
  8
0
 62
     7
 66
     1
 70
     2
  0
VERTEX
  8
0
 10
132.979721
 20
137.839188
  0
VERTEX
  8
0
 10
133.945938
 20
137.839188
  0
VERTEX
  8
0
 10
133.945938
 20
137.259460
  0
VERTEX
  8
0
 10
132.979721
 20
136.293243
  0
VERTEX
  8
0
 10
131.047287
 20
136.293243
  0
VERTEX
  8
0
 10
130.081070
 20
137.259460
  0
VERTEX
  8
0
 10
130.081070
 20
140.158112
  0
VERTEX
  8
0
 10
131.047287
 20
141.124329
  0
VERTEX
  8
0
 10
132.979721
 20
141.124329
  0
VERTEX
  8
0
 10
133.945938
 20
140.158112
  0
VERTEX
  8
0
 10
133.945938
 20
139.578384
  0
SEQEND
  0
LINE
  8
0
 62
     5
 10
121.081070
 20
130.302704
 11
121.081070
 21
137.702698
  0
LINE
  8
0
 62
     4
 10
121.081070
 20
130.302704
 11
121.081070
 21
100.102707
  0
LINE
  8
0
 62
     5
 10
121.081070
 20
158.513519
 11
141.081070
 21
158.513519
  0
POLYLINE
  8
0
 62
     5
 66
     1
 70
     2
  0
VERTEX
  8
0
 10
126.283768
 20
160.000000
  0
VERTEX
  8
0
 10
121.081070
 20
158.513519
  0
VERTEX
  8
0
 10
126.283768
 20
157.027039
  0
SEQEND
  0
POLYLINE
  8
0
 62
     5
 66
     1
 70
     2
  0
VERTEX
  8
0
 10
135.878372
 20
157.027039
  0
VERTEX
  8
0
 10
141.081070
 20
158.513519
  0
VERTEX
  8
0
 10
135.878372
 20
160.000000
  0
SEQEND
  0
LINE
  8
0
 62
     5
 10
121.081070
 20
137.702698
 11
121.081070
 21
160.743240
  0
TEXT
  8
0
 62
     7
 10
126.249985
 20
159.702698
 40
7.432432
 41
1.000000
  1
20
  7
KANJI
 50
0.000000
 51
0.000000
  0
POLYLINE
  8
0
 62
     7
 66
     1
 70
     2
  0
VERTEX
  8
0
 10
175.540527
 20
130.302704
  0
VERTEX
  8
0
 10
172.641876
 20
135.327026
  0
VERTEX
  8
0
 10
190.033768
 20
135.327026
  0
VERTEX
  8
0
 10
187.135132
 20
130.302704
  0
VERTEX
  8
0
 10
184.236481
 20
135.327026
  0
VERTEX
  8
0
 10
181.337830
 20
130.302704
  0
VERTEX
  8
0
 10
178.439178
 20
135.327026
  0
VERTEX
  8
0
 10
175.540527
 20
130.302704
  0
SEQEND
  0
POLYLINE
  8
0
 62
     7
 66
     1
 70
     2
  0
VERTEX
  8
0
 10
182.304047
 20
137.839188
  0
VERTEX
  8
0
 10
183.270264
 20
137.839188
  0
VERTEX
  8
0
 10
183.270264
 20
137.259460
  0
VERTEX
  8
0
 10
182.304047
 20
136.293243
  0
VERTEX
  8
0
 10
180.371613
 20
136.293243
  0
VERTEX
  8
0
 10
179.405396
 20
137.259460
  0
VERTEX
  8
0
 10
179.405396
 20
140.158112
  0
VERTEX
  8
0
 10
180.371613
 20
141.124329
  0
VERTEX
  8
0
 10
182.304047
 20
141.124329
  0
VERTEX
  8
0
 10
183.270264
 20
140.158112
  0
VERTEX
  8
0
 10
183.270264
 20
139.578384
  0
SEQEND
  0
LINE
  8
0
 62
     5
 10
191.081070
 20
130.302704
 11
191.081070
 21
137.702698
  0
LINE
  8
0
 62
     4
 10
191.081070
 20
130.302704
 11
191.081070
 21
100.102707
  0
LINE
  8
0
 62
     5
 10
171.081070
 20
158.513519
 11
191.081070
 21
158.513519
  0
POLYLINE
  8
0
 62
     5
 66
     1
 70
     2
  0
VERTEX
  8
0
 10
176.283783
 20
160.000000
  0
VERTEX
  8
0
 10
171.081070
 20
158.513519
  0
VERTEX
  8
0
 10
176.283783
 20
157.027039
  0
SEQEND
  0
POLYLINE
  8
0
 62
     5
 66
     1
 70
     2
  0
VERTEX
  8
0
 10
185.878357
 20
157.027039
  0
VERTEX
  8
0
 10
191.081070
 20
158.513519
  0
VERTEX
  8
0
 10
185.878357
 20
160.000000
  0
SEQEND
  0
LINE
  8
0
 62
     5
 10
191.081070
 20
137.702698
 11
191.081070
 21
160.743240
  0
TEXT
  8
0
 62
     7
 10
176.250000
 20
159.702698
 40
7.432432
 41
1.000000
  1
20
  7
KANJI
 50
0.000000
 51
0.000000
  0
POLYLINE
  8
0
 62
     7
 66
     1
 70
     2
  0
VERTEX
  8
0
 10
149.999985
 20
134.702698
  0
VERTEX
  8
0
 10
147.101349
 20
139.727036
  0
VERTEX
  8
0
 10
164.493225
 20
139.727036
  0
VERTEX
  8
0
 10
161.594574
 20
134.702698
  0
VERTEX
  8
0
 10
158.695938
 20
139.727036
  0
VERTEX
  8
0
 10
155.797287
 20
134.702698
  0
VERTEX
  8
0
 10
152.898636
 20
139.727036
  0
VERTEX
  8
0
 10
149.999985
 20
134.702698
  0
SEQEND
  0
POLYLINE
  8
0
 62
     7
 66
     1
 70
     2
  0
VERTEX
  8
0
 10
156.763504
 20
142.239197
  0
VERTEX
  8
0
 10
157.729721
 20
142.239197
  0
VERTEX
  8
0
 10
157.729721
 20
141.659454
  0
VERTEX
  8
0
 10
156.763504
 20
140.693237
  0
VERTEX
  8
0
 10
154.831070
 20
140.693237
  0
VERTEX
  8
0
 10
153.864853
 20
141.659454
  0
VERTEX
  8
0
 10
153.864853
 20
144.558105
  0
VERTEX
  8
0
 10
154.831070
 20
145.524323
  0
VERTEX
  8
0
 10
156.763504
 20
145.524323
  0
VERTEX
  8
0
 10
157.729721
 20
144.558105
  0
VERTEX
  8
0
 10
157.729721
 20
143.978378
  0
SEQEND
  0
ENDSEC
  0
EOF
