  0
SECTION
  2
HEADER
  9
$ACADVER
  1
AC1003
  9
$INSBASE
 10
0.000000
 20
0.000000
  9
$EXTMIN
 10
0.000000
 20
0.000000
  9
$EXTMAX
 10
226.826087
 20
156.847826
  9
$LIMMIN
 10
0.000000
 20
0.000000
  9
$LIMMAX
 10
226.826087
 20
156.847826
  9
$VIEWCTR
 10
113.413043
 20
78.423913
  9
$VIEWSIZE
 40
156.847826
  0
ENDSEC
  0
SECTION
  2
TABLES
  0
TABLE
  2
LTYPE
 70
     4
  0
LTYPE
  2
CONTINUOUS
 70
    64
  3
SolidLine
 72
    65
 73
     0
 40
0.0
  0
LTYPE
  2
HIDDEN
 70
    64
  3
------------------------
 72
    65
 73
     2
 40
2.413043
 49
1.608696
 49
-0.804348
  0
LTYPE
  2
DASHDOT
 70
    64
  3
--?--?--?--?--?--?--?--
 72
    65
 73
     4
 40
9.652174
 49
7.239130
 49
-0.804348
 49
0.804348
 49
-0.804348
  0
LTYPE
  2
DIVIDE
 70
    64
  3
--??--??--??--??--??--
 72
    65
 73
     6
 40
12.065217
 49
8.043478
 49
-0.804348
 49
0.804348
 49
-0.804348
 49
0.804348
 49
-0.804348
  0
ENDTAB
  0
TABLE
  2
LAYER
 70
     5
  0
LAYER
  2
0
 70
    64
 62
     7
  6
CONTINUOUS
  0
LAYER
  2
HIDDEN
 70
    64
 62
     2
  6
HIDDEN
  0
LAYER
  2
DASHDOT
 70
    64
 62
     6
  6
DASHDOT
  0
LAYER
  2
DIVIDE
 70
    64
 62
     5
  6
DIVIDE
  0
ENDTAB
  0
TABLE
  2
STYLE
 70
     1
  0
STYLE
  2
STANDARD
 70
    64
 40
0.0
 41
1.0
 50
0.0
 71
     0
 42
0.2
  3
TXT
  4

  0
STYLE
  2
KANJI
 70
    64
 40
0.0
 41
1.0
 50
0.0
 71
     0
 42
0.2
  3
TXT
  4
BIGFONT
  0
ENDTAB
  0
TABLE
  2
VIEW
 70
     0
  0
ENDTAB
  0
ENDSEC
  0
SECTION
  2
BLOCKS
  0
ENDSEC
  0
SECTION
  2
ENTITIES
  0
TEXT
  8
0
 62
     7
 10
8.043478
 20
8.847826
 40
3.217391
 41
1.000000
  1
KHK SSY0.8-50
  7
KANJI
 50
0.000000
 51
0.000000
  0
TEXT
  8
0
 62
     7
 10
8.043478
 20
4.021739
 40
3.217391
 41
1.000000
  1

  7
KANJI
 50
0.000000
 51
0.000000
  0
TEXT
  8
0
 62
     7
 10
8.043478
 20
144.782608
 40
3.619565
 41
1.000000
  1
Black oxide
  7
KANJI
 50
0.000000
 51
0.000000
  0
POLYLINE
  8
0
 62
     7
 66
     1
 70
     2
  0
VERTEX
  8
0
 10
193.043472
 20
144.782608
  0
VERTEX
  8
0
 10
189.906509
 20
150.220001
  0
VERTEX
  8
0
 10
202.454346
 20
150.220001
  0
VERTEX
  8
0
 10
199.317383
 20
144.782608
  0
VERTEX
  8
0
 10
196.180435
 20
150.220001
  0
VERTEX
  8
0
 10
193.043472
 20
144.782608
  0
SEQEND
  0
LINE
  8
0
 62
     5
 10
117.369568
 20
86.354355
 11
117.369568
 21
44.754353
  0
POLYLINE
  8
0
 62
     5
 66
     1
 70
     2
  0
VERTEX
  8
0
 10
118.173920
 20
83.539131
  0
VERTEX
  8
0
 10
117.369568
 20
86.354355
  0
VERTEX
  8
0
 10
116.565216
 20
83.539131
  0
SEQEND
  0
POLYLINE
  8
0
 62
     5
 66
     1
 70
     2
  0
VERTEX
  8
0
 10
116.565216
 20
47.569572
  0
VERTEX
  8
0
 10
117.369568
 20
44.754353
  0
VERTEX
  8
0
 10
118.173920
 20
47.569572
  0
SEQEND
  0
LINE
  8
0
 62
     5
 10
77.152176
 20
86.354355
 11
118.576088
 21
86.354355
  0
LINE
  8
0
 62
     5
 10
77.152176
 20
44.754353
 11
118.576088
 21
44.754353
  0
TEXT
  8
0
 62
     7
 10
116.565216
 20
58.214676
 40
4.021739
 41
1.000000
  1
%%c41.6
  7
KANJI
 50
90.000000
 51
0.000000
  0
LINE
  8
DASHDOT
 62
     7
 10
62.739132
 20
85.554352
 11
71.565216
 21
85.554352
  0
LINE
  8
DASHDOT
 62
     7
 10
62.739132
 20
45.554352
 11
71.565216
 21
45.554352
  0
LINE
  8
DASHDOT
 62
     7
 10
62.739132
 20
65.554352
 11
79.565216
 21
65.554352
  0
LINE
  8
0
 62
     5
 10
69.152176
 20
86.054352
 11
69.152176
 21
86.354355
  0
LINE
  8
0
 62
     5
 10
65.152176
 20
86.054352
 11
65.152176
 21
86.354355
  0
LINE
  8
0
 62
     5
 10
69.552177
 20
78.054352
 11
77.152176
 21
78.054352
  0
LINE
  8
0
 62
     5
 10
69.552177
 20
53.054352
 11
77.152176
 21
53.054352
  0
LINE
  8
0
 62
     5
 10
68.852173
 20
86.354355
 11
77.152176
 21
86.354355
  0
LINE
  8
0
 62
     5
 10
68.852173
 20
44.754353
 11
77.152176
 21
44.754353
  0
LINE
  8
0
 62
     4
 10
65.152176
 20
84.554352
 11
69.152176
 21
84.554352
  0
LINE
  8
0
 62
     4
 10
65.152176
 20
46.554352
 11
69.152176
 21
46.554352
  0
LINE
  8
0
 62
     4
 10
76.852173
 20
63.054352
 11
77.152176
 21
62.754353
  0
LINE
  8
0
 62
     4
 10
76.852173
 20
68.054352
 11
77.152176
 21
68.354355
  0
LINE
  8
0
 62
     4
 10
65.452179
 20
68.054352
 11
65.452179
 21
63.054352
  0
POLYLINE
  8
0
 62
     4
 66
     1
 70
     2
  0
VERTEX
  8
0
 10
65.152176
 20
62.754353
  0
VERTEX
  8
0
 10
65.452179
 20
63.054352
  0
VERTEX
  8
0
 10
76.852173
 20
63.054352
  0
VERTEX
  8
0
 10
76.852173
 20
68.054352
  0
VERTEX
  8
0
 10
65.452179
 20
68.054352
  0
VERTEX
  8
0
 10
65.152176
 20
68.354355
  0
SEQEND
  0
ARC
  8
0
 62
     4
 10
69.552177
 20
78.454353
 40
0.400000
 50
180.0
 51
270.0
  0
ARC
  8
0
 62
     4
 10
69.552177
 20
52.654350
 40
0.400000
 50
90.0
 51
180.0
  0
LINE
  8
0
 62
     5
 10
77.152176
 20
77.754349
 11
77.152176
 21
86.354355
  0
LINE
  8
0
 62
     5
 10
73.978264
 20
108.071747
 11
60.326088
 21
108.071747
  0
POLYLINE
  8
0
 62
     5
 66
     1
 70
     2
  0
VERTEX
  8
0
 10
62.336960
 20
107.267395
  0
VERTEX
  8
0
 10
65.152176
 20
108.071747
  0
VERTEX
  8
0
 10
62.336960
 20
108.876091
  0
SEQEND
  0
POLYLINE
  8
0
 62
     5
 66
     1
 70
     2
  0
VERTEX
  8
0
 10
71.967392
 20
108.876091
  0
VERTEX
  8
0
 10
69.152176
 20
108.071747
  0
VERTEX
  8
0
 10
71.967392
 20
107.267395
  0
SEQEND
  0
LINE
  8
0
 62
     5
 10
69.152176
 20
86.354355
 11
69.152176
 21
109.278259
  0
TEXT
  8
0
 62
     7
 10
65.845108
 20
108.715225
 40
4.021739
 41
1.000000
  1
4
  7
KANJI
 50
0.000000
 51
0.000000
  0
LINE
  8
0
 62
     5
 10
65.152176
 20
114.506523
 11
77.152176
 21
114.506523
  0
POLYLINE
  8
0
 62
     5
 66
     1
 70
     2
  0
VERTEX
  8
0
 10
67.967392
 20
115.310867
  0
VERTEX
  8
0
 10
65.152176
 20
114.506523
  0
VERTEX
  8
0
 10
67.967392
 20
113.702179
  0
SEQEND
  0
POLYLINE
  8
0
 62
     5
 66
     1
 70
     2
  0
VERTEX
  8
0
 10
74.336960
 20
113.702179
  0
VERTEX
  8
0
 10
77.152176
 20
114.506523
  0
VERTEX
  8
0
 10
74.336960
 20
115.310867
  0
SEQEND
  0
LINE
  8
0
 62
     5
 10
65.152176
 20
86.354355
 11
65.152176
 21
115.713043
  0
LINE
  8
0
 62
     5
 10
77.152176
 20
86.354355
 11
77.152176
 21
115.713043
  0
TEXT
  8
0
 62
     7
 10
68.538048
 20
115.150002
 40
4.021739
 41
1.000000
  1
12
  7
KANJI
 50
0.000000
 51
0.000000
  0
LINE
  8
0
 62
     5
 10
69.152176
 20
108.071747
 11
77.152176
 21
108.071747
  0
POLYLINE
  8
0
 62
     5
 66
     1
 70
     2
  0
VERTEX
  8
0
 10
71.967392
 20
108.876091
  0
VERTEX
  8
0
 10
69.152176
 20
108.071747
  0
VERTEX
  8
0
 10
71.967392
 20
107.267395
  0
SEQEND
  0
POLYLINE
  8
0
 62
     5
 66
     1
 70
     2
  0
VERTEX
  8
0
 10
74.336960
 20
107.267395
  0
VERTEX
  8
0
 10
77.152176
 20
108.071747
  0
VERTEX
  8
0
 10
74.336960
 20
108.876091
  0
SEQEND
  0
TEXT
  8
0
 62
     7
 10
71.845108
 20
108.715225
 40
4.021739
 41
1.000000
  1
8
  7
KANJI
 50
0.000000
 51
0.000000
  0
LINE
  8
0
 62
     5
 10
110.934784
 20
78.054352
 11
110.934784
 21
53.054352
  0
POLYLINE
  8
0
 62
     5
 66
     1
 70
     2
  0
VERTEX
  8
0
 10
111.739136
 20
75.239136
  0
VERTEX
  8
0
 10
110.934784
 20
78.054352
  0
VERTEX
  8
0
 10
110.130432
 20
75.239136
  0
SEQEND
  0
POLYLINE
  8
0
 62
     5
 66
     1
 70
     2
  0
VERTEX
  8
0
 10
110.130432
 20
55.869568
  0
VERTEX
  8
0
 10
110.934784
 20
53.054352
  0
VERTEX
  8
0
 10
111.739136
 20
55.869568
  0
SEQEND
  0
LINE
  8
0
 62
     5
 10
77.152176
 20
78.054352
 11
112.141304
 21
78.054352
  0
LINE
  8
0
 62
     5
 10
77.152176
 20
53.054352
 11
112.141304
 21
53.054352
  0
TEXT
  8
0
 62
     7
 10
110.130432
 20
60.828808
 40
4.021739
 41
1.000000
  1
%%c25
  7
KANJI
 50
90.000000
 51
0.000000
  0
LINE
  8
0
 62
     5
 10
98.065216
 20
58.228264
 11
98.065216
 21
72.880440
  0
POLYLINE
  8
0
 62
     5
 66
     1
 70
     2
  0
VERTEX
  8
0
 10
97.260872
 20
70.869568
  0
VERTEX
  8
0
 10
98.065216
 20
68.054352
  0
VERTEX
  8
0
 10
98.869568
 20
70.869568
  0
SEQEND
  0
POLYLINE
  8
0
 62
     5
 66
     1
 70
     2
  0
VERTEX
  8
0
 10
98.869568
 20
60.239136
  0
VERTEX
  8
0
 10
98.065216
 20
63.054352
  0
VERTEX
  8
0
 10
97.260872
 20
60.239136
  0
SEQEND
  0
LINE
  8
0
 62
     5
 10
77.152176
 20
68.054352
 11
99.271744
 21
68.054352
  0
LINE
  8
0
 62
     5
 10
77.152176
 20
63.054352
 11
99.271744
 21
63.054352
  0
TEXT
  8
0
 62
     7
 10
97.260872
 20
59.521744
 40
4.021739
 41
1.000000
  1
%%c5H7
  7
KANJI
 50
90.000000
 51
0.000000
  0
POLYLINE
  8
0
 62
     4
 66
     1
 70
     2
  0
VERTEX
  8
0
 10
65.152176
 20
62.754353
  0
VERTEX
  8
0
 10
65.152176
 20
45.054352
  0
VERTEX
  8
0
 10
65.452179
 20
44.754353
  0
VERTEX
  8
0
 10
68.852173
 20
44.754353
  0
VERTEX
  8
0
 10
69.152176
 20
45.054352
  0
VERTEX
  8
0
 10
69.152176
 20
52.654350
  0
SEQEND
  0
POLYLINE
  8
0
 62
     4
 66
     1
 70
     2
  0
VERTEX
  8
0
 10
69.552177
 20
53.054352
  0
VERTEX
  8
0
 10
76.852173
 20
53.054352
  0
VERTEX
  8
0
 10
77.152176
 20
53.354351
  0
VERTEX
  8
0
 10
77.152176
 20
77.754349
  0
VERTEX
  8
0
 10
76.852173
 20
78.054352
  0
VERTEX
  8
0
 10
69.552177
 20
78.054352
  0
SEQEND
  0
POLYLINE
  8
0
 62
     4
 66
     1
 70
     2
  0
VERTEX
  8
0
 10
69.152176
 20
78.454353
  0
VERTEX
  8
0
 10
69.152176
 20
86.054352
  0
VERTEX
  8
0
 10
68.852173
 20
86.354355
  0
VERTEX
  8
0
 10
65.452179
 20
86.354355
  0
VERTEX
  8
0
 10
65.152176
 20
86.054352
  0
VERTEX
  8
0
 10
65.152176
 20
62.754353
  0
SEQEND
  0
ENDSEC
  0
EOF
