  0
SECTION
  2
HEADER
  9
$ACADVER
  1
AC1003
  9
$INSBASE
 10
0.000000
 20
0.000000
  9
$EXTMIN
 10
0.000000
 20
0.000000
  9
$EXTMAX
 10
390.954545
 20
270.340909
  9
$LIMMIN
 10
0.000000
 20
0.000000
  9
$LIMMAX
 10
390.954545
 20
270.340909
  9
$VIEWCTR
 10
195.477273
 20
135.170455
  9
$VIEWSIZE
 40
270.340909
  0
ENDSEC
  0
SECTION
  2
TABLES
  0
TABLE
  2
LTYPE
 70
     4
  0
LTYPE
  2
CONTINUOUS
 70
    64
  3
SolidLine
 72
    65
 73
     0
 40
0.0
  0
LTYPE
  2
HIDDEN
 70
    64
  3
------------------------
 72
    65
 73
     2
 40
4.159091
 49
2.772727
 49
-1.386364
  0
LTYPE
  2
DASHDOT
 70
    64
  3
--?--?--?--?--?--?--?--
 72
    65
 73
     4
 40
16.636364
 49
12.477273
 49
-1.386364
 49
1.386364
 49
-1.386364
  0
LTYPE
  2
DIVIDE
 70
    64
  3
--??--??--??--??--??--
 72
    65
 73
     6
 40
20.795455
 49
13.863636
 49
-1.386364
 49
1.386364
 49
-1.386364
 49
1.386364
 49
-1.386364
  0
ENDTAB
  0
TABLE
  2
LAYER
 70
     5
  0
LAYER
  2
0
 70
    64
 62
     7
  6
CONTINUOUS
  0
LAYER
  2
HIDDEN
 70
    64
 62
     2
  6
HIDDEN
  0
LAYER
  2
DASHDOT
 70
    64
 62
     6
  6
DASHDOT
  0
LAYER
  2
DIVIDE
 70
    64
 62
     5
  6
DIVIDE
  0
ENDTAB
  0
TABLE
  2
STYLE
 70
     1
  0
STYLE
  2
STANDARD
 70
    64
 40
0.0
 41
1.0
 50
0.0
 71
     0
 42
0.2
  3
TXT
  4

  0
STYLE
  2
KANJI
 70
    64
 40
0.0
 41
1.0
 50
0.0
 71
     0
 42
0.2
  3
TXT
  4
BIGFONT
  0
ENDTAB
  0
TABLE
  2
VIEW
 70
     0
  0
ENDTAB
  0
ENDSEC
  0
SECTION
  2
BLOCKS
  0
ENDSEC
  0
SECTION
  2
ENTITIES
  0
TEXT
  8
0
 62
     7
 10
13.863636
 20
15.250000
 40
5.545455
 41
1.000000
  1
KHK SSY1-120A
  7
KANJI
 50
0.000000
 51
0.000000
  0
TEXT
  8
0
 62
     7
 10
13.863636
 20
6.931818
 40
5.545455
 41
1.000000
  1

  7
KANJI
 50
0.000000
 51
0.000000
  0
TEXT
  8
0
 62
     7
 10
13.863636
 20
249.545456
 40
6.238636
 41
1.000000
  1
Black oxide
  7
KANJI
 50
0.000000
 51
0.000000
  0
POLYLINE
  8
0
 62
     7
 66
     1
 70
     2
  0
VERTEX
  8
0
 10
332.727264
 20
249.545456
  0
VERTEX
  8
0
 10
327.320435
 20
258.917267
  0
VERTEX
  8
0
 10
348.947723
 20
258.917267
  0
VERTEX
  8
0
 10
343.540894
 20
249.545456
  0
VERTEX
  8
0
 10
338.134094
 20
258.917267
  0
VERTEX
  8
0
 10
332.727264
 20
249.545456
  0
SEQEND
  0
LINE
  8
0
 62
     5
 10
203.000000
 20
173.988647
 11
203.000000
 21
51.988640
  0
POLYLINE
  8
0
 62
     5
 66
     1
 70
     2
  0
VERTEX
  8
0
 10
204.386368
 20
169.136368
  0
VERTEX
  8
0
 10
203.000000
 20
173.988647
  0
VERTEX
  8
0
 10
201.613647
 20
169.136368
  0
SEQEND
  0
POLYLINE
  8
0
 62
     5
 66
     1
 70
     2
  0
VERTEX
  8
0
 10
201.613647
 20
56.840912
  0
VERTEX
  8
0
 10
203.000000
 20
51.988640
  0
VERTEX
  8
0
 10
204.386368
 20
56.840912
  0
SEQEND
  0
LINE
  8
0
 62
     5
 10
133.681824
 20
173.988647
 11
205.079559
 21
173.988647
  0
LINE
  8
0
 62
     5
 10
133.681824
 20
51.988640
 11
205.079559
 21
51.988640
  0
TEXT
  8
0
 62
     7
 10
201.613647
 20
102.590912
 40
6.931818
 41
1.000000
  1
%%c122
  7
KANJI
 50
90.000000
 51
0.000000
  0
LINE
  8
DASHDOT
 62
     7
 10
115.522736
 20
172.988647
 11
129.840912
 21
172.988647
  0
LINE
  8
DASHDOT
 62
     7
 10
115.522736
 20
52.988640
 11
129.840912
 21
52.988640
  0
LINE
  8
DASHDOT
 62
     7
 10
115.522736
 20
112.988640
 11
137.840912
 21
112.988640
  0
LINE
  8
0
 62
     5
 10
125.681824
 20
173.488647
 11
125.681824
 21
173.988647
  0
LINE
  8
0
 62
     5
 10
119.681824
 20
173.488647
 11
119.681824
 21
173.988647
  0
LINE
  8
0
 62
     5
 10
126.681824
 20
130.488647
 11
133.681824
 21
130.488647
  0
LINE
  8
0
 62
     5
 10
126.681824
 20
95.488640
 11
133.681824
 21
95.488640
  0
LINE
  8
0
 62
     5
 10
125.181824
 20
173.988647
 11
133.681824
 21
173.988647
  0
LINE
  8
0
 62
     5
 10
125.181824
 20
51.988640
 11
133.681824
 21
51.988640
  0
LINE
  8
0
 62
     4
 10
119.681824
 20
171.738647
 11
125.681824
 21
171.738647
  0
LINE
  8
0
 62
     4
 10
119.681824
 20
54.238640
 11
125.681824
 21
54.238640
  0
LINE
  8
0
 62
     4
 10
133.181824
 20
106.988640
 11
133.681824
 21
106.488640
  0
LINE
  8
0
 62
     4
 10
133.181824
 20
118.988640
 11
133.681824
 21
119.488640
  0
LINE
  8
0
 62
     4
 10
120.181824
 20
118.988640
 11
120.181824
 21
106.988640
  0
POLYLINE
  8
0
 62
     4
 66
     1
 70
     2
  0
VERTEX
  8
0
 10
119.681824
 20
106.488640
  0
VERTEX
  8
0
 10
120.181824
 20
106.988640
  0
VERTEX
  8
0
 10
133.181824
 20
106.988640
  0
VERTEX
  8
0
 10
133.181824
 20
118.988640
  0
VERTEX
  8
0
 10
120.181824
 20
118.988640
  0
VERTEX
  8
0
 10
119.681824
 20
119.488640
  0
SEQEND
  0
ARC
  8
0
 62
     4
 10
126.681824
 20
131.488647
 40
1.000000
 50
180.0
 51
270.0
  0
ARC
  8
0
 62
     4
 10
126.681824
 20
94.488640
 40
1.000000
 50
90.0
 51
180.0
  0
LINE
  8
0
 62
     5
 10
133.681824
 20
129.988647
 11
133.681824
 21
173.988647
  0
LINE
  8
0
 62
     5
 10
134.000000
 20
211.420471
 11
111.363640
 21
211.420471
  0
POLYLINE
  8
0
 62
     5
 66
     1
 70
     2
  0
VERTEX
  8
0
 10
114.829552
 20
210.034103
  0
VERTEX
  8
0
 10
119.681824
 20
211.420471
  0
VERTEX
  8
0
 10
114.829552
 20
212.806824
  0
SEQEND
  0
POLYLINE
  8
0
 62
     5
 66
     1
 70
     2
  0
VERTEX
  8
0
 10
130.534088
 20
212.806824
  0
VERTEX
  8
0
 10
125.681824
 20
211.420471
  0
VERTEX
  8
0
 10
130.534088
 20
210.034103
  0
SEQEND
  0
LINE
  8
0
 62
     5
 10
125.681824
 20
173.988647
 11
125.681824
 21
213.500000
  0
TEXT
  8
0
 62
     7
 10
120.428986
 20
212.529556
 40
6.931818
 41
1.000000
  1
6
  7
KANJI
 50
0.000000
 51
0.000000
  0
LINE
  8
0
 62
     5
 10
119.681824
 20
222.511368
 11
133.681824
 21
222.511368
  0
POLYLINE
  8
0
 62
     5
 66
     1
 70
     2
  0
VERTEX
  8
0
 10
124.534096
 20
223.897736
  0
VERTEX
  8
0
 10
119.681824
 20
222.511368
  0
VERTEX
  8
0
 10
124.534096
 20
221.125000
  0
SEQEND
  0
POLYLINE
  8
0
 62
     5
 66
     1
 70
     2
  0
VERTEX
  8
0
 10
128.829559
 20
221.125000
  0
VERTEX
  8
0
 10
133.681824
 20
222.511368
  0
VERTEX
  8
0
 10
128.829559
 20
223.897736
  0
SEQEND
  0
LINE
  8
0
 62
     5
 10
119.681824
 20
173.988647
 11
119.681824
 21
224.590912
  0
LINE
  8
0
 62
     5
 10
133.681824
 20
173.988647
 11
133.681824
 21
224.590912
  0
TEXT
  8
0
 62
     7
 10
122.176140
 20
223.620453
 40
6.931818
 41
1.000000
  1
14
  7
KANJI
 50
0.000000
 51
0.000000
  0
LINE
  8
0
 62
     5
 10
125.681824
 20
211.420471
 11
133.681824
 21
211.420471
  0
POLYLINE
  8
0
 62
     5
 66
     1
 70
     2
  0
VERTEX
  8
0
 10
130.534088
 20
212.806824
  0
VERTEX
  8
0
 10
125.681824
 20
211.420471
  0
VERTEX
  8
0
 10
130.534088
 20
210.034103
  0
SEQEND
  0
POLYLINE
  8
0
 62
     5
 66
     1
 70
     2
  0
VERTEX
  8
0
 10
128.829559
 20
210.034103
  0
VERTEX
  8
0
 10
133.681824
 20
211.420471
  0
VERTEX
  8
0
 10
128.829559
 20
212.806824
  0
SEQEND
  0
TEXT
  8
0
 62
     7
 10
127.428986
 20
212.529556
 40
6.931818
 41
1.000000
  1
8
  7
KANJI
 50
0.000000
 51
0.000000
  0
LINE
  8
0
 62
     5
 10
191.909088
 20
130.488647
 11
191.909088
 21
95.488640
  0
POLYLINE
  8
0
 62
     5
 66
     1
 70
     2
  0
VERTEX
  8
0
 10
193.295456
 20
125.636368
  0
VERTEX
  8
0
 10
191.909088
 20
130.488647
  0
VERTEX
  8
0
 10
190.522736
 20
125.636368
  0
SEQEND
  0
POLYLINE
  8
0
 62
     5
 66
     1
 70
     2
  0
VERTEX
  8
0
 10
190.522736
 20
100.340912
  0
VERTEX
  8
0
 10
191.909088
 20
95.488640
  0
VERTEX
  8
0
 10
193.295456
 20
100.340912
  0
SEQEND
  0
LINE
  8
0
 62
     5
 10
133.681824
 20
130.488647
 11
193.988647
 21
130.488647
  0
LINE
  8
0
 62
     5
 10
133.681824
 20
95.488640
 11
193.988647
 21
95.488640
  0
TEXT
  8
0
 62
     7
 10
190.522736
 20
104.843750
 40
6.931818
 41
1.000000
  1
%%c35
  7
KANJI
 50
90.000000
 51
0.000000
  0
LINE
  8
DASHDOT
 62
     7
 10
259.318176
 20
137.420456
 11
259.318176
 21
91.329552
  0
LINE
  8
DASHDOT
 62
     7
 10
237.659088
 20
112.988640
 11
280.977295
 21
112.988640
  0
LINE
  8
0
 62
     5
 10
269.636353
 20
149.897736
 11
249.000015
 21
149.897736
  0
POLYLINE
  8
0
 62
     5
 66
     1
 70
     2
  0
VERTEX
  8
0
 10
252.465912
 20
148.511368
  0
VERTEX
  8
0
 10
257.318176
 20
149.897736
  0
VERTEX
  8
0
 10
252.465912
 20
151.284088
  0
SEQEND
  0
POLYLINE
  8
0
 62
     5
 66
     1
 70
     2
  0
VERTEX
  8
0
 10
266.170471
 20
151.284088
  0
VERTEX
  8
0
 10
261.318176
 20
149.897736
  0
VERTEX
  8
0
 10
266.170471
 20
148.511368
  0
SEQEND
  0
LINE
  8
0
 62
     5
 10
257.318176
 20
120.788643
 11
257.318176
 21
151.977280
  0
LINE
  8
0
 62
     5
 10
261.318176
 20
120.788643
 11
261.318176
 21
151.977280
  0
TEXT
  8
0
 62
     7
 10
245.009552
 20
151.284088
 40
6.931818
 41
1.000000
  1
4
  7
KANJI
 50
0.000000
 51
0.000000
  0
TEXT
  8
0
 62
     7
 10
251.871201
 20
151.284088
 40
5.545455
 41
1.000000
  1
%%p0.015
  7
KANJI
 50
0.000000
 51
0.000000
  0
LINE
  8
0
 62
     5
 10
297.613647
 20
98.670456
 11
297.613647
 21
129.106827
  0
POLYLINE
  8
0
 62
     5
 66
     1
 70
     2
  0
VERTEX
  8
0
 10
296.227295
 20
125.640915
  0
VERTEX
  8
0
 10
297.613647
 20
120.788643
  0
VERTEX
  8
0
 10
299.000000
 20
125.640915
  0
SEQEND
  0
POLYLINE
  8
0
 62
     5
 66
     1
 70
     2
  0
VERTEX
  8
0
 10
299.000000
 20
102.136368
  0
VERTEX
  8
0
 10
297.613647
 20
106.988640
  0
VERTEX
  8
0
 10
296.227295
 20
102.136368
  0
SEQEND
  0
LINE
  8
0
 62
     5
 10
261.318176
 20
120.788643
 11
299.693176
 21
120.788643
  0
LINE
  8
0
 62
     5
 10
259.318176
 20
106.988640
 11
299.693176
 21
106.988640
  0
TEXT
  8
0
 62
     7
 10
295.534119
 20
92.743546
 40
6.931818
 41
1.000000
  1
13.8
  7
KANJI
 50
90.000000
 51
0.000000
  0
TEXT
  8
0
 62
     7
 10
295.950012
 20
122.747192
 40
3.465909
 41
1.000000
  1
 
  7
KANJI
 50
90.000000
 51
0.000000
  0
TEXT
  8
0
 62
     7
 10
291.652283
 20
122.747192
 40
3.465909
 41
1.000000
  1
+
  7
KANJI
 50
90.000000
 51
0.000000
  0
TEXT
  8
0
 62
     7
 10
295.950012
 20
126.629013
 40
3.465909
 41
1.000000
  1
0
  7
KANJI
 50
90.000000
 51
0.000000
  0
TEXT
  8
0
 62
     7
 10
291.652283
 20
126.629013
 40
3.465909
 41
1.000000
  1
0.1
  7
KANJI
 50
90.000000
 51
0.000000
  0
ARC
  8
0
 62
     4
 10
259.318176
 20
112.988640
 40
6.000000
 50
109.47122094265586
 51
70.52877905734415
  0
POLYLINE
  8
0
 62
     4
 66
     1
 70
     2
  0
VERTEX
  8
0
 10
261.318176
 20
118.645493
  0
VERTEX
  8
0
 10
261.318176
 20
120.788643
  0
VERTEX
  8
0
 10
257.318176
 20
120.788643
  0
VERTEX
  8
0
 10
257.318176
 20
118.645493
  0
SEQEND
  0
LINE
  8
0
 62
     4
 10
119.681824
 20
120.788643
 11
133.681824
 21
120.788643
  0
POLYLINE
  8
DASHDOT
 62
     7
 66
     1
 70
     2
  0
VERTEX
  8
DASHDOT
 10
129.681824
 20
134.647736
  0
VERTEX
  8
DASHDOT
 10
129.681824
 20
116.629547
  0
SEQEND
  0
POLYLINE
  8
0
 62
     4
 66
     1
 70
     2
  0
VERTEX
  8
0
 10
131.681824
 20
130.488647
  0
VERTEX
  8
0
 10
131.681824
 20
120.788643
  0
SEQEND
  0
POLYLINE
  8
0
 62
     4
 66
     1
 70
     2
  0
VERTEX
  8
0
 10
127.681824
 20
130.488647
  0
VERTEX
  8
0
 10
127.681824
 20
120.788643
  0
SEQEND
  0
POLYLINE
  8
0
 62
     4
 66
     1
 70
     2
  0
VERTEX
  8
0
 10
131.301819
 20
130.488647
  0
VERTEX
  8
0
 10
131.301819
 20
120.788643
  0
SEQEND
  0
POLYLINE
  8
0
 62
     4
 66
     1
 70
     2
  0
VERTEX
  8
0
 10
128.061829
 20
130.488647
  0
VERTEX
  8
0
 10
128.061829
 20
120.788643
  0
SEQEND
  0
POLYLINE
  8
0
 62
     4
 66
     1
 70
     2
  0
VERTEX
  8
0
 10
257.318176
 20
118.645493
  0
VERTEX
  8
0
 10
257.318176
 20
130.373978
  0
SEQEND
  0
POLYLINE
  8
0
 62
     4
 66
     1
 70
     2
  0
VERTEX
  8
0
 10
261.318176
 20
118.645493
  0
VERTEX
  8
0
 10
261.318176
 20
130.373978
  0
SEQEND
  0
POLYLINE
  8
0
 62
     4
 66
     1
 70
     2
  0
VERTEX
  8
0
 10
257.698181
 20
120.788643
  0
VERTEX
  8
0
 10
257.698181
 20
130.413498
  0
SEQEND
  0
POLYLINE
  8
0
 62
     4
 66
     1
 70
     2
  0
VERTEX
  8
0
 10
260.938171
 20
120.788643
  0
VERTEX
  8
0
 10
260.938171
 20
130.413498
  0
SEQEND
  0
POLYLINE
  8
0
 62
     5
 66
     1
 70
     2
  0
VERTEX
  8
0
 10
259.318176
 20
130.488647
  0
VERTEX
  8
0
 10
234.363647
 20
172.079544
  0
VERTEX
  8
0
 10
249.613647
 20
172.079544
  0
SEQEND
  0
POLYLINE
  8
0
 62
     5
 66
     1
 70
     2
  0
VERTEX
  8
0
 10
255.632919
 20
133.936157
  0
VERTEX
  8
0
 10
259.318176
 20
130.488647
  0
VERTEX
  8
0
 10
258.010498
 20
135.362701
  0
SEQEND
  0
TEXT
  8
0
 62
     7
 10
235.750000
 20
173.465912
 40
6.654546
 41
1.000000
  1
M4
  7
KANJI
 50
0.000000
 51
0.000000
  0
CIRCLE
  8
0
 62
     7
 10
129.681824
 20
112.988640
 40
2.000000
  0
CIRCLE
  8
0
 62
     4
 10
129.681824
 20
112.988640
 40
1.620000
  0
POLYLINE
  8
DASHDOT
 62
     7
 66
     1
 70
     2
  0
VERTEX
  8
DASHDOT
 10
123.522736
 20
112.988640
  0
VERTEX
  8
DASHDOT
 10
135.840912
 20
112.988640
  0
SEQEND
  0
POLYLINE
  8
DASHDOT
 62
     7
 66
     1
 70
     2
  0
VERTEX
  8
DASHDOT
 10
129.681824
 20
106.829552
  0
VERTEX
  8
DASHDOT
 10
129.681824
 20
119.147728
  0
SEQEND
  0
LINE
  8
DASHDOT
 62
     7
 10
129.681824
 20
130.488647
 11
129.681824
 21
112.988640
  0
LINE
  8
0
 62
     5
 10
129.681824
 20
130.488647
 11
129.681824
 21
173.988647
  0
POLYLINE
  8
0
 62
     4
 66
     1
 70
     2
  0
VERTEX
  8
0
 10
264.975037
 20
114.988640
  0
VERTEX
  8
0
 10
276.703522
 20
114.988640
  0
SEQEND
  0
POLYLINE
  8
0
 62
     4
 66
     1
 70
     2
  0
VERTEX
  8
0
 10
264.975037
 20
110.988640
  0
VERTEX
  8
0
 10
276.703522
 20
110.988640
  0
SEQEND
  0
POLYLINE
  8
0
 62
     4
 66
     1
 70
     2
  0
VERTEX
  8
0
 10
265.095337
 20
114.608643
  0
VERTEX
  8
0
 10
276.743042
 20
114.608643
  0
SEQEND
  0
POLYLINE
  8
0
 62
     4
 66
     1
 70
     2
  0
VERTEX
  8
0
 10
265.095337
 20
111.368637
  0
VERTEX
  8
0
 10
276.743042
 20
111.368637
  0
SEQEND
  0
POLYLINE
  8
0
 62
     5
 66
     1
 70
     2
  0
VERTEX
  8
0
 10
276.818176
 20
112.988640
  0
VERTEX
  8
0
 10
297.613647
 20
160.988647
  0
VERTEX
  8
0
 10
277.372742
 20
160.988647
  0
SEQEND
  0
POLYLINE
  8
0
 62
     5
 66
     1
 70
     2
  0
VERTEX
  8
0
 10
277.475037
 20
117.992149
  0
VERTEX
  8
0
 10
276.818176
 20
112.988640
  0
VERTEX
  8
0
 10
280.019226
 20
116.889900
  0
SEQEND
  0
TEXT
  8
0
 62
     7
 10
280.145447
 20
162.375000
 40
6.654546
 41
1.000000
  1
M4
  7
KANJI
 50
0.000000
 51
0.000000
  0
LINE
  8
0
 62
     5
 10
169.727280
 20
118.988640
 11
169.727280
 21
106.988640
  0
POLYLINE
  8
0
 62
     5
 66
     1
 70
     2
  0
VERTEX
  8
0
 10
168.340912
 20
111.840912
  0
VERTEX
  8
0
 10
169.727280
 20
106.988640
  0
VERTEX
  8
0
 10
171.113647
 20
111.840912
  0
SEQEND
  0
LINE
  8
0
 62
     5
 10
133.681824
 20
106.988640
 11
171.806824
 21
106.988640
  0
TEXT
  8
0
 62
     7
 10
168.340912
 20
100.338074
 40
6.931818
 41
1.000000
  1
%%c12H7
  7
KANJI
 50
90.000000
 51
0.000000
  0
POLYLINE
  8
0
 62
     4
 66
     1
 70
     2
  0
VERTEX
  8
0
 10
119.681824
 20
106.488640
  0
VERTEX
  8
0
 10
119.681824
 20
52.488640
  0
VERTEX
  8
0
 10
120.181824
 20
51.988640
  0
VERTEX
  8
0
 10
125.181824
 20
51.988640
  0
VERTEX
  8
0
 10
125.681824
 20
52.488640
  0
VERTEX
  8
0
 10
125.681824
 20
94.488640
  0
SEQEND
  0
POLYLINE
  8
0
 62
     4
 66
     1
 70
     2
  0
VERTEX
  8
0
 10
126.681824
 20
95.488640
  0
VERTEX
  8
0
 10
133.181824
 20
95.488640
  0
VERTEX
  8
0
 10
133.681824
 20
95.988640
  0
VERTEX
  8
0
 10
133.681824
 20
129.988647
  0
VERTEX
  8
0
 10
133.181824
 20
130.488647
  0
VERTEX
  8
0
 10
126.681824
 20
130.488647
  0
SEQEND
  0
POLYLINE
  8
0
 62
     4
 66
     1
 70
     2
  0
VERTEX
  8
0
 10
125.681824
 20
131.488647
  0
VERTEX
  8
0
 10
125.681824
 20
173.488647
  0
VERTEX
  8
0
 10
125.181824
 20
173.988647
  0
VERTEX
  8
0
 10
120.181824
 20
173.988647
  0
VERTEX
  8
0
 10
119.681824
 20
173.488647
  0
VERTEX
  8
0
 10
119.681824
 20
106.488640
  0
SEQEND
  0
CIRCLE
  8
0
 62
     4
 10
259.318176
 20
112.988640
 40
17.500000
  0
LINE
  8
0
 62
     5
 10
142.000000
 20
180.920456
 11
121.363640
 21
180.920456
  0
POLYLINE
  8
0
 62
     5
 66
     1
 70
     2
  0
VERTEX
  8
0
 10
124.829552
 20
179.534088
  0
VERTEX
  8
0
 10
129.681824
 20
180.920456
  0
VERTEX
  8
0
 10
124.829552
 20
182.306824
  0
SEQEND
  0
POLYLINE
  8
0
 62
     5
 66
     1
 70
     2
  0
VERTEX
  8
0
 10
138.534088
 20
182.306824
  0
VERTEX
  8
0
 10
133.681824
 20
180.920456
  0
VERTEX
  8
0
 10
138.534088
 20
179.534088
  0
SEQEND
  0
LINE
  8
0
 62
     5
 10
129.681824
 20
173.988647
 11
129.681824
 21
183.000000
  0
TEXT
  8
0
 62
     7
 10
137.840912
 20
182.029541
 40
6.931818
 41
1.000000
  1
4
  7
KANJI
 50
0.000000
 51
0.000000
  0
LINE
  8
0
 62
     5
 10
129.681824
 20
130.488647
 11
129.681824
 21
173.988647
  0
ENDSEC
  0
EOF
