  0
SECTION
  2
HEADER
  9
$ACADVER
  1
AC1003
  9
$INSBASE
 10
0.000000
 20
0.000000
  9
$EXTMIN
 10
0.000000
 20
0.000000
  9
$EXTMAX
 10
349.434783
 20
241.630435
  9
$LIMMIN
 10
0.000000
 20
0.000000
  9
$LIMMAX
 10
349.434783
 20
241.630435
  9
$VIEWCTR
 10
174.717391
 20
120.815217
  9
$VIEWSIZE
 40
241.630435
  0
ENDSEC
  0
SECTION
  2
TABLES
  0
TABLE
  2
LTYPE
 70
     4
  0
LTYPE
  2
CONTINUOUS
 70
    64
  3
SolidLine
 72
    65
 73
     0
 40
0.0
  0
LTYPE
  2
HIDDEN
 70
    64
  3
------------------------
 72
    65
 73
     2
 40
3.717391
 49
2.478261
 49
-1.239130
  0
LTYPE
  2
DASHDOT
 70
    64
  3
--?--?--?--?--?--?--?--
 72
    65
 73
     4
 40
14.869565
 49
11.152174
 49
-1.239130
 49
1.239130
 49
-1.239130
  0
LTYPE
  2
DIVIDE
 70
    64
  3
--??--??--??--??--??--
 72
    65
 73
     6
 40
18.586957
 49
12.391304
 49
-1.239130
 49
1.239130
 49
-1.239130
 49
1.239130
 49
-1.239130
  0
ENDTAB
  0
TABLE
  2
LAYER
 70
     5
  0
LAYER
  2
0
 70
    64
 62
     7
  6
CONTINUOUS
  0
LAYER
  2
HIDDEN
 70
    64
 62
     2
  6
HIDDEN
  0
LAYER
  2
DASHDOT
 70
    64
 62
     6
  6
DASHDOT
  0
LAYER
  2
DIVIDE
 70
    64
 62
     5
  6
DIVIDE
  0
ENDTAB
  0
TABLE
  2
STYLE
 70
     1
  0
STYLE
  2
STANDARD
 70
    64
 40
0.0
 41
1.0
 50
0.0
 71
     0
 42
0.2
  3
TXT
  4

  0
STYLE
  2
KANJI
 70
    64
 40
0.0
 41
1.0
 50
0.0
 71
     0
 42
0.2
  3
TXT
  4
BIGFONT
  0
ENDTAB
  0
TABLE
  2
VIEW
 70
     0
  0
ENDTAB
  0
ENDSEC
  0
SECTION
  2
BLOCKS
  0
ENDSEC
  0
SECTION
  2
ENTITIES
  0
TEXT
  8
0
 62
     7
 10
12.391304
 20
13.630435
 40
4.956522
 41
1.000000
  1
KHK SUS1.5-24J8
  7
KANJI
 50
0.000000
 51
0.000000
  0
TEXT
  8
0
 62
     7
 10
12.391304
 20
6.195652
 40
4.956522
 41
1.000000
  1
The precision grade of gears after secondary operations is equivalent but not identical to its original grade.
  7
KANJI
 50
0.000000
 51
0.000000
  0
TEXT
  8
0
 62
     7
 10
12.391304
 20
223.043472
 40
5.576087
 41
1.000000
  1

  7
KANJI
 50
0.000000
 51
0.000000
  0
POLYLINE
  8
0
 62
     7
 66
     1
 70
     2
  0
VERTEX
  8
0
 10
297.391296
 20
223.043472
  0
VERTEX
  8
0
 10
292.558685
 20
231.419998
  0
VERTEX
  8
0
 10
311.889130
 20
231.419998
  0
VERTEX
  8
0
 10
307.056519
 20
223.043472
  0
VERTEX
  8
0
 10
302.223907
 20
231.419998
  0
VERTEX
  8
0
 10
297.391296
 20
223.043472
  0
SEQEND
  0
LINE
  8
0
 62
     5
 10
191.326080
 20
120.489128
 11
191.326080
 21
81.489128
  0
POLYLINE
  8
0
 62
     5
 66
     1
 70
     2
  0
VERTEX
  8
0
 10
192.565216
 20
116.152176
  0
VERTEX
  8
0
 10
191.326080
 20
120.489128
  0
VERTEX
  8
0
 10
190.086960
 20
116.152176
  0
SEQEND
  0
POLYLINE
  8
0
 62
     5
 66
     1
 70
     2
  0
VERTEX
  8
0
 10
190.086960
 20
85.826080
  0
VERTEX
  8
0
 10
191.326080
 20
81.489128
  0
VERTEX
  8
0
 10
192.565216
 20
85.826080
  0
SEQEND
  0
LINE
  8
0
 62
     5
 10
129.369568
 20
120.489128
 11
193.184784
 21
120.489128
  0
LINE
  8
0
 62
     5
 10
129.369568
 20
81.489128
 11
193.184784
 21
81.489128
  0
TEXT
  8
0
 62
     7
 10
190.086960
 20
93.709236
 40
6.195652
 41
1.000000
  1
%%c39
  7
KANJI
 50
90.000000
 51
0.000000
  0
LINE
  8
DASHDOT
 62
     7
 10
96.652176
 20
118.989128
 11
119.086960
 21
118.989128
  0
LINE
  8
DASHDOT
 62
     7
 10
96.652176
 20
82.989128
 11
119.086960
 21
82.989128
  0
LINE
  8
DASHDOT
 62
     7
 10
96.652176
 20
100.989128
 11
133.086960
 21
100.989128
  0
LINE
  8
0
 62
     5
 10
115.369568
 20
119.989128
 11
115.369568
 21
120.489128
  0
LINE
  8
0
 62
     5
 10
100.369568
 20
119.989128
 11
100.369568
 21
120.489128
  0
LINE
  8
0
 62
     5
 10
116.369568
 20
114.989128
 11
129.369568
 21
114.989128
  0
LINE
  8
0
 62
     5
 10
116.369568
 20
86.989128
 11
129.369568
 21
86.989128
  0
LINE
  8
0
 62
     5
 10
114.869568
 20
120.489128
 11
129.369568
 21
120.489128
  0
LINE
  8
0
 62
     5
 10
114.869568
 20
81.489128
 11
129.369568
 21
81.489128
  0
LINE
  8
0
 62
     4
 10
100.369568
 20
117.114128
 11
115.369568
 21
117.114128
  0
LINE
  8
0
 62
     4
 10
100.369568
 20
84.864128
 11
115.369568
 21
84.864128
  0
LINE
  8
0
 62
     4
 10
128.869568
 20
96.989128
 11
129.369568
 21
96.489128
  0
LINE
  8
0
 62
     4
 10
128.869568
 20
104.989128
 11
129.369568
 21
105.489128
  0
LINE
  8
0
 62
     4
 10
100.869568
 20
104.989128
 11
100.869568
 21
96.989128
  0
POLYLINE
  8
0
 62
     4
 66
     1
 70
     2
  0
VERTEX
  8
0
 10
100.369568
 20
96.489128
  0
VERTEX
  8
0
 10
100.869568
 20
96.989128
  0
VERTEX
  8
0
 10
128.869568
 20
96.989128
  0
VERTEX
  8
0
 10
128.869568
 20
104.989128
  0
VERTEX
  8
0
 10
100.869568
 20
104.989128
  0
VERTEX
  8
0
 10
100.369568
 20
105.489128
  0
SEQEND
  0
ARC
  8
0
 62
     4
 10
116.369568
 20
115.989128
 40
1.000000
 50
180.0
 51
270.0
  0
ARC
  8
0
 62
     4
 10
116.369568
 20
85.989128
 40
1.000000
 50
90.0
 51
180.0
  0
LINE
  8
0
 62
     5
 10
129.369568
 20
114.489128
 11
129.369568
 21
120.489128
  0
LINE
  8
0
 62
     5
 10
100.369568
 20
153.945648
 11
115.369568
 21
153.945648
  0
POLYLINE
  8
0
 62
     5
 66
     1
 70
     2
  0
VERTEX
  8
0
 10
104.706528
 20
155.184784
  0
VERTEX
  8
0
 10
100.369568
 20
153.945648
  0
VERTEX
  8
0
 10
104.706528
 20
152.706512
  0
SEQEND
  0
POLYLINE
  8
0
 62
     5
 66
     1
 70
     2
  0
VERTEX
  8
0
 10
111.032608
 20
152.706512
  0
VERTEX
  8
0
 10
115.369568
 20
153.945648
  0
VERTEX
  8
0
 10
111.032608
 20
155.184784
  0
SEQEND
  0
LINE
  8
0
 62
     5
 10
115.369568
 20
120.489128
 11
115.369568
 21
155.804352
  0
TEXT
  8
0
 62
     7
 10
103.842392
 20
154.936951
 40
6.195652
 41
1.000000
  1
15
  7
KANJI
 50
0.000000
 51
0.000000
  0
LINE
  8
0
 62
     5
 10
100.369568
 20
163.858688
 11
129.369568
 21
163.858688
  0
POLYLINE
  8
0
 62
     5
 66
     1
 70
     2
  0
VERTEX
  8
0
 10
104.706528
 20
165.097824
  0
VERTEX
  8
0
 10
100.369568
 20
163.858688
  0
VERTEX
  8
0
 10
104.706528
 20
162.619568
  0
SEQEND
  0
POLYLINE
  8
0
 62
     5
 66
     1
 70
     2
  0
VERTEX
  8
0
 10
125.032608
 20
162.619568
  0
VERTEX
  8
0
 10
129.369568
 20
163.858688
  0
VERTEX
  8
0
 10
125.032608
 20
165.097824
  0
SEQEND
  0
LINE
  8
0
 62
     5
 10
100.369568
 20
120.489128
 11
100.369568
 21
165.717377
  0
LINE
  8
0
 62
     5
 10
129.369568
 20
120.489128
 11
129.369568
 21
165.717377
  0
TEXT
  8
0
 62
     7
 10
110.842392
 20
164.849991
 40
6.195652
 41
1.000000
  1
29
  7
KANJI
 50
0.000000
 51
0.000000
  0
LINE
  8
0
 62
     5
 10
115.369568
 20
153.945648
 11
129.369568
 21
153.945648
  0
POLYLINE
  8
0
 62
     5
 66
     1
 70
     2
  0
VERTEX
  8
0
 10
119.706528
 20
155.184784
  0
VERTEX
  8
0
 10
115.369568
 20
153.945648
  0
VERTEX
  8
0
 10
119.706528
 20
152.706512
  0
SEQEND
  0
POLYLINE
  8
0
 62
     5
 66
     1
 70
     2
  0
VERTEX
  8
0
 10
125.032608
 20
152.706512
  0
VERTEX
  8
0
 10
129.369568
 20
153.945648
  0
VERTEX
  8
0
 10
125.032608
 20
155.184784
  0
SEQEND
  0
TEXT
  8
0
 62
     7
 10
118.342392
 20
154.936951
 40
6.195652
 41
1.000000
  1
14
  7
KANJI
 50
0.000000
 51
0.000000
  0
LINE
  8
0
 62
     5
 10
181.413055
 20
114.989128
 11
181.413055
 21
86.989128
  0
POLYLINE
  8
0
 62
     5
 66
     1
 70
     2
  0
VERTEX
  8
0
 10
182.652176
 20
110.652176
  0
VERTEX
  8
0
 10
181.413055
 20
114.989128
  0
VERTEX
  8
0
 10
180.173920
 20
110.652176
  0
SEQEND
  0
POLYLINE
  8
0
 62
     5
 66
     1
 70
     2
  0
VERTEX
  8
0
 10
180.173920
 20
91.326080
  0
VERTEX
  8
0
 10
181.413055
 20
86.989128
  0
VERTEX
  8
0
 10
182.652176
 20
91.326080
  0
SEQEND
  0
LINE
  8
0
 62
     5
 10
129.369568
 20
114.989128
 11
183.271744
 21
114.989128
  0
LINE
  8
0
 62
     5
 10
129.369568
 20
86.989128
 11
183.271744
 21
86.989128
  0
TEXT
  8
0
 62
     7
 10
180.173920
 20
93.709236
 40
6.195652
 41
1.000000
  1
%%c28
  7
KANJI
 50
90.000000
 51
0.000000
  0
POLYLINE
  8
DASHDOT
 62
     7
 66
     1
 70
     2
  0
VERTEX
  8
DASHDOT
 10
122.369568
 20
118.706520
  0
VERTEX
  8
DASHDOT
 10
122.369568
 20
101.271736
  0
SEQEND
  0
POLYLINE
  8
0
 62
     4
 66
     1
 70
     2
  0
VERTEX
  8
0
 10
124.869568
 20
114.989128
  0
VERTEX
  8
0
 10
124.869568
 20
104.989128
  0
SEQEND
  0
POLYLINE
  8
0
 62
     4
 66
     1
 70
     2
  0
VERTEX
  8
0
 10
119.869568
 20
114.989128
  0
VERTEX
  8
0
 10
119.869568
 20
104.989128
  0
SEQEND
  0
POLYLINE
  8
0
 62
     4
 66
     1
 70
     2
  0
VERTEX
  8
0
 10
124.434570
 20
114.989128
  0
VERTEX
  8
0
 10
124.434570
 20
104.989128
  0
SEQEND
  0
POLYLINE
  8
0
 62
     4
 66
     1
 70
     2
  0
VERTEX
  8
0
 10
120.304565
 20
114.989128
  0
VERTEX
  8
0
 10
120.304565
 20
104.989128
  0
SEQEND
  0
POLYLINE
  8
0
 62
     4
 66
     1
 70
     2
  0
VERTEX
  8
0
 10
237.521744
 20
104.111626
  0
VERTEX
  8
0
 10
237.521744
 20
114.764107
  0
SEQEND
  0
POLYLINE
  8
0
 62
     4
 66
     1
 70
     2
  0
VERTEX
  8
0
 10
242.521744
 20
104.111626
  0
VERTEX
  8
0
 10
242.521744
 20
114.764107
  0
SEQEND
  0
POLYLINE
  8
0
 62
     4
 66
     1
 70
     2
  0
VERTEX
  8
0
 10
237.956741
 20
104.414879
  0
VERTEX
  8
0
 10
237.956741
 20
114.835999
  0
SEQEND
  0
POLYLINE
  8
0
 62
     4
 66
     1
 70
     2
  0
VERTEX
  8
0
 10
242.086746
 20
104.414879
  0
VERTEX
  8
0
 10
242.086746
 20
114.835999
  0
SEQEND
  0
POLYLINE
  8
0
 62
     5
 66
     1
 70
     2
  0
VERTEX
  8
0
 10
240.021744
 20
114.989128
  0
VERTEX
  8
0
 10
217.717392
 20
152.163040
  0
VERTEX
  8
0
 10
231.347824
 20
152.163040
  0
SEQEND
  0
POLYLINE
  8
0
 62
     5
 66
     1
 70
     2
  0
VERTEX
  8
0
 10
236.727859
 20
118.070511
  0
VERTEX
  8
0
 10
240.021744
 20
114.989128
  0
VERTEX
  8
0
 10
238.852936
 20
119.345566
  0
SEQEND
  0
TEXT
  8
0
 62
     7
 10
218.956528
 20
153.402176
 40
5.947826
 41
1.000000
  1
M5
  7
KANJI
 50
0.000000
 51
0.000000
  0
LINE
  8
0
 62
     5
 10
161.586960
 20
89.554344
 11
161.586960
 21
112.423912
  0
POLYLINE
  8
0
 62
     5
 66
     1
 70
     2
  0
VERTEX
  8
0
 10
160.347824
 20
109.326080
  0
VERTEX
  8
0
 10
161.586960
 20
104.989128
  0
VERTEX
  8
0
 10
162.826096
 20
109.326080
  0
SEQEND
  0
POLYLINE
  8
0
 62
     5
 66
     1
 70
     2
  0
VERTEX
  8
0
 10
162.826096
 20
92.652176
  0
VERTEX
  8
0
 10
161.586960
 20
96.989128
  0
VERTEX
  8
0
 10
160.347824
 20
92.652176
  0
SEQEND
  0
LINE
  8
0
 62
     5
 10
129.369568
 20
104.989128
 11
163.445648
 21
104.989128
  0
LINE
  8
0
 62
     5
 10
129.369568
 20
96.989128
 11
163.445648
 21
96.989128
  0
TEXT
  8
0
 62
     7
 10
160.347824
 20
91.695648
 40
6.195652
 41
1.000000
  1
%%c8H7
  7
KANJI
 50
90.000000
 51
0.000000
  0
POLYLINE
  8
0
 62
     4
 66
     1
 70
     2
  0
VERTEX
  8
0
 10
100.369568
 20
96.489128
  0
VERTEX
  8
0
 10
100.369568
 20
81.989128
  0
VERTEX
  8
0
 10
100.869568
 20
81.489128
  0
VERTEX
  8
0
 10
114.869568
 20
81.489128
  0
VERTEX
  8
0
 10
115.369568
 20
81.989128
  0
VERTEX
  8
0
 10
115.369568
 20
85.989128
  0
SEQEND
  0
POLYLINE
  8
0
 62
     4
 66
     1
 70
     2
  0
VERTEX
  8
0
 10
116.369568
 20
86.989128
  0
VERTEX
  8
0
 10
128.869568
 20
86.989128
  0
VERTEX
  8
0
 10
129.369568
 20
87.489128
  0
VERTEX
  8
0
 10
129.369568
 20
114.489128
  0
VERTEX
  8
0
 10
128.869568
 20
114.989128
  0
VERTEX
  8
0
 10
116.369568
 20
114.989128
  0
SEQEND
  0
POLYLINE
  8
0
 62
     4
 66
     1
 70
     2
  0
VERTEX
  8
0
 10
115.369568
 20
115.989128
  0
VERTEX
  8
0
 10
115.369568
 20
119.989128
  0
VERTEX
  8
0
 10
114.869568
 20
120.489128
  0
VERTEX
  8
0
 10
100.869568
 20
120.489128
  0
VERTEX
  8
0
 10
100.369568
 20
119.989128
  0
VERTEX
  8
0
 10
100.369568
 20
96.489128
  0
SEQEND
  0
CIRCLE
  8
0
 62
     4
 10
240.021744
 20
100.989128
 40
4.000000
  0
LINE
  8
DASHDOT
 62
     7
 10
240.021744
 20
121.184784
 11
240.021744
 21
83.271736
  0
LINE
  8
DASHDOT
 62
     7
 10
222.304352
 20
100.989128
 11
257.739136
 21
100.989128
  0
CIRCLE
  8
0
 62
     4
 10
240.021744
 20
100.989128
 40
14.000000
  0
LINE
  8
0
 62
     5
 10
122.369568
 20
126.684784
 11
129.369568
 21
126.684784
  0
POLYLINE
  8
0
 62
     5
 66
     1
 70
     2
  0
VERTEX
  8
0
 10
126.706528
 20
127.923912
  0
VERTEX
  8
0
 10
122.369568
 20
126.684784
  0
VERTEX
  8
0
 10
126.706528
 20
125.445648
  0
SEQEND
  0
POLYLINE
  8
0
 62
     5
 66
     1
 70
     2
  0
VERTEX
  8
0
 10
125.032608
 20
125.445648
  0
VERTEX
  8
0
 10
129.369568
 20
126.684784
  0
VERTEX
  8
0
 10
125.032608
 20
127.923912
  0
SEQEND
  0
LINE
  8
0
 62
     5
 10
122.369568
 20
120.489128
 11
122.369568
 21
128.543472
  0
TEXT
  8
0
 62
     7
 10
123.855980
 20
127.676086
 40
6.195652
 41
1.000000
  1
7
  7
KANJI
 50
0.000000
 51
0.000000
  0
LINE
  8
0
 62
     5
 10
122.369568
 20
114.989128
 11
122.369568
 21
120.489128
  0
ENDSEC
  0
EOF
