  0
SECTION
  2
HEADER
  9
$ACADVER
  1
AC1003
  9
$INSBASE
 10
0.000000
 20
0.000000
  9
$EXTMIN
 10
0.000000
 20
0.000000
  9
$EXTMAX
 10
631.434783
 20
436.630435
  9
$LIMMIN
 10
0.000000
 20
0.000000
  9
$LIMMAX
 10
631.434783
 20
436.630435
  9
$VIEWCTR
 10
315.717391
 20
218.315217
  9
$VIEWSIZE
 40
436.630435
  0
ENDSEC
  0
SECTION
  2
TABLES
  0
TABLE
  2
LTYPE
 70
     4
  0
LTYPE
  2
CONTINUOUS
 70
    64
  3
SolidLine
 72
    65
 73
     0
 40
0.0
  0
LTYPE
  2
HIDDEN
 70
    64
  3
------------------------
 72
    65
 73
     2
 40
6.717391
 49
4.478261
 49
-2.239130
  0
LTYPE
  2
DASHDOT
 70
    64
  3
--?--?--?--?--?--?--?--
 72
    65
 73
     4
 40
26.869565
 49
20.152174
 49
-2.239130
 49
2.239130
 49
-2.239130
  0
LTYPE
  2
DIVIDE
 70
    64
  3
--??--??--??--??--??--
 72
    65
 73
     6
 40
33.586957
 49
22.391304
 49
-2.239130
 49
2.239130
 49
-2.239130
 49
2.239130
 49
-2.239130
  0
ENDTAB
  0
TABLE
  2
LAYER
 70
     5
  0
LAYER
  2
0
 70
    64
 62
     7
  6
CONTINUOUS
  0
LAYER
  2
HIDDEN
 70
    64
 62
     2
  6
HIDDEN
  0
LAYER
  2
DASHDOT
 70
    64
 62
     6
  6
DASHDOT
  0
LAYER
  2
DIVIDE
 70
    64
 62
     5
  6
DIVIDE
  0
ENDTAB
  0
TABLE
  2
STYLE
 70
     1
  0
STYLE
  2
STANDARD
 70
    64
 40
0.0
 41
1.0
 50
0.0
 71
     0
 42
0.2
  3
TXT
  4

  0
STYLE
  2
KANJI
 70
    64
 40
0.0
 41
1.0
 50
0.0
 71
     0
 42
0.2
  3
TXT
  4
BIGFONT
  0
ENDTAB
  0
TABLE
  2
VIEW
 70
     0
  0
ENDTAB
  0
ENDSEC
  0
SECTION
  2
BLOCKS
  0
ENDSEC
  0
SECTION
  2
ENTITIES
  0
TEXT
  8
0
 62
     7
 10
22.391304
 20
24.630434
 40
8.956522
 41
1.000000
  1
KHK SUS2.5-28J17
  7
KANJI
 50
0.000000
 51
0.000000
  0
TEXT
  8
0
 62
     7
 10
22.391304
 20
11.195652
 40
8.956522
 41
1.000000
  1
The precision grade of gears after secondary operations is equivalent but not identical to its original grade.
  7
KANJI
 50
0.000000
 51
0.000000
  0
TEXT
  8
0
 62
     7
 10
22.391304
 20
403.043488
 40
10.076087
 41
1.000000
  1

  7
KANJI
 50
0.000000
 51
0.000000
  0
POLYLINE
  8
0
 62
     7
 66
     1
 70
     2
  0
VERTEX
  8
0
 10
537.391296
 20
403.043488
  0
VERTEX
  8
0
 10
528.658691
 20
418.180023
  0
VERTEX
  8
0
 10
563.589111
 20
418.180023
  0
VERTEX
  8
0
 10
554.856506
 20
403.043488
  0
VERTEX
  8
0
 10
546.123901
 20
418.180023
  0
VERTEX
  8
0
 10
537.391296
 20
403.043488
  0
SEQEND
  0
LINE
  8
0
 62
     5
 10
336.326050
 20
219.989136
 11
336.326050
 21
144.989136
  0
POLYLINE
  8
0
 62
     5
 66
     1
 70
     2
  0
VERTEX
  8
0
 10
338.565186
 20
212.152176
  0
VERTEX
  8
0
 10
336.326050
 20
219.989136
  0
VERTEX
  8
0
 10
334.086914
 20
212.152176
  0
SEQEND
  0
POLYLINE
  8
0
 62
     5
 66
     1
 70
     2
  0
VERTEX
  8
0
 10
334.086914
 20
152.826096
  0
VERTEX
  8
0
 10
336.326050
 20
144.989136
  0
VERTEX
  8
0
 10
338.565186
 20
152.826096
  0
SEQEND
  0
LINE
  8
0
 62
     5
 10
224.369553
 20
219.989136
 11
339.684753
 21
219.989136
  0
LINE
  8
0
 62
     5
 10
224.369553
 20
144.989136
 11
339.684753
 21
144.989136
  0
TEXT
  8
0
 62
     7
 10
334.086914
 20
169.334244
 40
11.195652
 41
1.000000
  1
%%c75
  7
KANJI
 50
90.000000
 51
0.000000
  0
LINE
  8
DASHDOT
 62
     7
 10
174.652161
 20
217.489136
 11
213.086945
 21
217.489136
  0
LINE
  8
DASHDOT
 62
     7
 10
174.652161
 20
147.489136
 11
213.086945
 21
147.489136
  0
LINE
  8
DASHDOT
 62
     7
 10
174.652161
 20
182.489136
 11
231.086945
 21
182.489136
  0
LINE
  8
0
 62
     5
 10
206.369553
 20
218.989136
 11
206.369553
 21
219.989136
  0
LINE
  8
0
 62
     5
 10
181.369553
 20
218.989136
 11
181.369553
 21
219.989136
  0
LINE
  8
0
 62
     5
 10
207.369553
 20
212.489136
 11
224.369553
 21
212.489136
  0
LINE
  8
0
 62
     5
 10
207.369553
 20
152.489136
 11
224.369553
 21
152.489136
  0
LINE
  8
0
 62
     5
 10
205.369553
 20
219.989136
 11
224.369553
 21
219.989136
  0
LINE
  8
0
 62
     5
 10
205.369553
 20
144.989136
 11
224.369553
 21
144.989136
  0
LINE
  8
0
 62
     4
 10
181.369553
 20
214.364136
 11
206.369553
 21
214.364136
  0
LINE
  8
0
 62
     4
 10
181.369553
 20
150.614136
 11
206.369553
 21
150.614136
  0
LINE
  8
0
 62
     4
 10
223.869553
 20
173.989136
 11
224.369553
 21
173.489136
  0
LINE
  8
0
 62
     4
 10
223.869553
 20
190.989136
 11
224.369553
 21
191.489136
  0
LINE
  8
0
 62
     4
 10
181.869553
 20
190.989136
 11
181.869553
 21
173.989136
  0
POLYLINE
  8
0
 62
     4
 66
     1
 70
     2
  0
VERTEX
  8
0
 10
181.369553
 20
173.489136
  0
VERTEX
  8
0
 10
181.869553
 20
173.989136
  0
VERTEX
  8
0
 10
223.869553
 20
173.989136
  0
VERTEX
  8
0
 10
223.869553
 20
190.989136
  0
VERTEX
  8
0
 10
181.869553
 20
190.989136
  0
VERTEX
  8
0
 10
181.369553
 20
191.489136
  0
SEQEND
  0
ARC
  8
0
 62
     4
 10
207.369553
 20
213.489136
 40
1.000000
 50
180.0
 51
270.0
  0
ARC
  8
0
 62
     4
 10
207.369553
 20
151.489136
 40
1.000000
 50
90.0
 51
180.0
  0
LINE
  8
0
 62
     5
 10
224.369553
 20
211.489136
 11
224.369553
 21
219.989136
  0
LINE
  8
0
 62
     5
 10
181.369553
 20
280.445648
 11
206.369553
 21
280.445648
  0
POLYLINE
  8
0
 62
     5
 66
     1
 70
     2
  0
VERTEX
  8
0
 10
189.206512
 20
282.684784
  0
VERTEX
  8
0
 10
181.369553
 20
280.445648
  0
VERTEX
  8
0
 10
189.206512
 20
278.206543
  0
SEQEND
  0
POLYLINE
  8
0
 62
     5
 66
     1
 70
     2
  0
VERTEX
  8
0
 10
198.532593
 20
278.206543
  0
VERTEX
  8
0
 10
206.369553
 20
280.445648
  0
VERTEX
  8
0
 10
198.532593
 20
282.684784
  0
SEQEND
  0
LINE
  8
0
 62
     5
 10
206.369553
 20
219.989136
 11
206.369553
 21
283.804352
  0
TEXT
  8
0
 62
     7
 10
186.592377
 20
282.236969
 40
11.195652
 41
1.000000
  1
25
  7
KANJI
 50
0.000000
 51
0.000000
  0
LINE
  8
0
 62
     5
 10
181.369553
 20
298.358704
 11
224.369553
 21
298.358704
  0
POLYLINE
  8
0
 62
     5
 66
     1
 70
     2
  0
VERTEX
  8
0
 10
189.206512
 20
300.597839
  0
VERTEX
  8
0
 10
181.369553
 20
298.358704
  0
VERTEX
  8
0
 10
189.206512
 20
296.119568
  0
SEQEND
  0
POLYLINE
  8
0
 62
     5
 66
     1
 70
     2
  0
VERTEX
  8
0
 10
216.532593
 20
296.119568
  0
VERTEX
  8
0
 10
224.369553
 20
298.358704
  0
VERTEX
  8
0
 10
216.532593
 20
300.597839
  0
SEQEND
  0
LINE
  8
0
 62
     5
 10
181.369553
 20
219.989136
 11
181.369553
 21
301.717407
  0
LINE
  8
0
 62
     5
 10
224.369553
 20
219.989136
 11
224.369553
 21
301.717407
  0
TEXT
  8
0
 62
     7
 10
195.592377
 20
300.150024
 40
11.195652
 41
1.000000
  1
43
  7
KANJI
 50
0.000000
 51
0.000000
  0
LINE
  8
0
 62
     5
 10
237.804337
 20
280.445648
 11
192.934769
 21
280.445648
  0
POLYLINE
  8
0
 62
     5
 66
     1
 70
     2
  0
VERTEX
  8
0
 10
198.532593
 20
278.206543
  0
VERTEX
  8
0
 10
206.369553
 20
280.445648
  0
VERTEX
  8
0
 10
198.532593
 20
282.684784
  0
SEQEND
  0
POLYLINE
  8
0
 62
     5
 66
     1
 70
     2
  0
VERTEX
  8
0
 10
232.206512
 20
282.684784
  0
VERTEX
  8
0
 10
224.369553
 20
280.445648
  0
VERTEX
  8
0
 10
232.206512
 20
278.206543
  0
SEQEND
  0
TEXT
  8
0
 62
     7
 10
208.092377
 20
282.236969
 40
11.195652
 41
1.000000
  1
18
  7
KANJI
 50
0.000000
 51
0.000000
  0
LINE
  8
0
 62
     5
 10
318.413025
 20
212.489136
 11
318.413025
 21
152.489136
  0
POLYLINE
  8
0
 62
     5
 66
     1
 70
     2
  0
VERTEX
  8
0
 10
320.652161
 20
204.652176
  0
VERTEX
  8
0
 10
318.413025
 20
212.489136
  0
VERTEX
  8
0
 10
316.173889
 20
204.652176
  0
SEQEND
  0
POLYLINE
  8
0
 62
     5
 66
     1
 70
     2
  0
VERTEX
  8
0
 10
316.173889
 20
160.326096
  0
VERTEX
  8
0
 10
318.413025
 20
152.489136
  0
VERTEX
  8
0
 10
320.652161
 20
160.326096
  0
SEQEND
  0
LINE
  8
0
 62
     5
 10
224.369553
 20
212.489136
 11
321.771729
 21
212.489136
  0
LINE
  8
0
 62
     5
 10
224.369553
 20
152.489136
 11
321.771729
 21
152.489136
  0
TEXT
  8
0
 62
     7
 10
316.173889
 20
169.334244
 40
11.195652
 41
1.000000
  1
%%c60
  7
KANJI
 50
90.000000
 51
0.000000
  0
LINE
  8
DASHDOT
 62
     7
 10
429.021729
 20
223.684784
 11
429.021729
 21
145.771744
  0
LINE
  8
DASHDOT
 62
     7
 10
392.304321
 20
182.489136
 11
465.739136
 21
182.489136
  0
LINE
  8
0
 62
     5
 10
444.956482
 20
243.836960
 11
413.086945
 21
243.836960
  0
POLYLINE
  8
0
 62
     5
 66
     1
 70
     2
  0
VERTEX
  8
0
 10
418.684753
 20
241.597824
  0
VERTEX
  8
0
 10
426.521729
 20
243.836960
  0
VERTEX
  8
0
 10
418.684753
 20
246.076096
  0
SEQEND
  0
POLYLINE
  8
0
 62
     5
 66
     1
 70
     2
  0
VERTEX
  8
0
 10
439.358704
 20
246.076096
  0
VERTEX
  8
0
 10
431.521729
 20
243.836960
  0
VERTEX
  8
0
 10
439.358704
 20
241.597824
  0
SEQEND
  0
LINE
  8
0
 62
     5
 10
426.521729
 20
193.289139
 11
426.521729
 21
247.195648
  0
LINE
  8
0
 62
     5
 10
431.521729
 20
193.289139
 11
431.521729
 21
247.195648
  0
TEXT
  8
0
 62
     7
 10
405.911682
 20
246.076096
 40
11.195652
 41
1.000000
  1
5
  7
KANJI
 50
0.000000
 51
0.000000
  0
TEXT
  8
0
 62
     7
 10
416.994019
 20
246.076096
 40
8.956522
 41
1.000000
  1
%%p0.015
  7
KANJI
 50
0.000000
 51
0.000000
  0
LINE
  8
0
 62
     5
 10
492.608704
 20
160.554352
 11
492.608704
 21
206.723923
  0
POLYLINE
  8
0
 62
     5
 66
     1
 70
     2
  0
VERTEX
  8
0
 10
490.369568
 20
201.126099
  0
VERTEX
  8
0
 10
492.608704
 20
193.289139
  0
VERTEX
  8
0
 10
494.847839
 20
201.126099
  0
SEQEND
  0
POLYLINE
  8
0
 62
     5
 66
     1
 70
     2
  0
VERTEX
  8
0
 10
494.847839
 20
166.152176
  0
VERTEX
  8
0
 10
492.608704
 20
173.989136
  0
VERTEX
  8
0
 10
490.369568
 20
166.152176
  0
SEQEND
  0
LINE
  8
0
 62
     5
 10
431.521729
 20
193.289139
 11
495.967407
 21
193.289139
  0
LINE
  8
0
 62
     5
 10
429.021729
 20
173.989136
 11
495.967407
 21
173.989136
  0
TEXT
  8
0
 62
     7
 10
489.250000
 20
149.786316
 40
11.195652
 41
1.000000
  1
19.3
  7
KANJI
 50
90.000000
 51
0.000000
  0
TEXT
  8
0
 62
     7
 10
489.921753
 20
198.245529
 40
5.597826
 41
1.000000
  1
 
  7
KANJI
 50
90.000000
 51
0.000000
  0
TEXT
  8
0
 62
     7
 10
482.980408
 20
198.245529
 40
5.597826
 41
1.000000
  1
+
  7
KANJI
 50
90.000000
 51
0.000000
  0
TEXT
  8
0
 62
     7
 10
489.921753
 20
204.515106
 40
5.597826
 41
1.000000
  1
0
  7
KANJI
 50
90.000000
 51
0.000000
  0
TEXT
  8
0
 62
     7
 10
482.980408
 20
204.515106
 40
5.597826
 41
1.000000
  1
0.1
  7
KANJI
 50
90.000000
 51
0.000000
  0
ARC
  8
0
 62
     4
 10
429.021729
 20
182.489136
 40
8.500000
 50
107.10463483476482
 51
72.89536516523518
  0
POLYLINE
  8
0
 62
     4
 66
     1
 70
     2
  0
VERTEX
  8
0
 10
431.521729
 20
190.613174
  0
VERTEX
  8
0
 10
431.521729
 20
193.289139
  0
VERTEX
  8
0
 10
426.521729
 20
193.289139
  0
VERTEX
  8
0
 10
426.521729
 20
190.613174
  0
SEQEND
  0
LINE
  8
0
 62
     4
 10
181.369553
 20
193.289139
 11
224.369553
 21
193.289139
  0
POLYLINE
  8
DASHDOT
 62
     7
 66
     1
 70
     2
  0
VERTEX
  8
DASHDOT
 10
215.369553
 20
219.206528
  0
VERTEX
  8
DASHDOT
 10
215.369553
 20
186.571747
  0
SEQEND
  0
POLYLINE
  8
0
 62
     4
 66
     1
 70
     2
  0
VERTEX
  8
0
 10
217.369553
 20
212.489136
  0
VERTEX
  8
0
 10
217.369553
 20
193.289139
  0
SEQEND
  0
POLYLINE
  8
0
 62
     4
 66
     1
 70
     2
  0
VERTEX
  8
0
 10
213.369553
 20
212.489136
  0
VERTEX
  8
0
 10
213.369553
 20
193.289139
  0
SEQEND
  0
POLYLINE
  8
0
 62
     4
 66
     1
 70
     2
  0
VERTEX
  8
0
 10
216.989548
 20
212.489136
  0
VERTEX
  8
0
 10
216.989548
 20
193.289139
  0
SEQEND
  0
POLYLINE
  8
0
 62
     4
 66
     1
 70
     2
  0
VERTEX
  8
0
 10
213.749557
 20
212.489136
  0
VERTEX
  8
0
 10
213.749557
 20
193.289139
  0
SEQEND
  0
POLYLINE
  8
0
 62
     4
 66
     1
 70
     2
  0
VERTEX
  8
0
 10
427.021729
 20
193.289139
  0
VERTEX
  8
0
 10
427.021729
 20
212.422394
  0
SEQEND
  0
POLYLINE
  8
0
 62
     4
 66
     1
 70
     2
  0
VERTEX
  8
0
 10
431.021729
 20
193.289139
  0
VERTEX
  8
0
 10
431.021729
 20
212.422394
  0
SEQEND
  0
POLYLINE
  8
0
 62
     4
 66
     1
 70
     2
  0
VERTEX
  8
0
 10
427.401733
 20
193.289139
  0
VERTEX
  8
0
 10
427.401733
 20
212.445358
  0
SEQEND
  0
POLYLINE
  8
0
 62
     4
 66
     1
 70
     2
  0
VERTEX
  8
0
 10
430.641724
 20
193.289139
  0
VERTEX
  8
0
 10
430.641724
 20
212.445358
  0
SEQEND
  0
POLYLINE
  8
0
 62
     5
 66
     1
 70
     2
  0
VERTEX
  8
0
 10
429.021729
 20
212.489136
  0
VERTEX
  8
0
 10
388.717377
 20
279.663055
  0
VERTEX
  8
0
 10
413.347809
 20
279.663055
  0
SEQEND
  0
POLYLINE
  8
0
 62
     5
 66
     1
 70
     2
  0
VERTEX
  8
0
 10
423.069611
 20
218.057251
  0
VERTEX
  8
0
 10
429.021729
 20
212.489136
  0
VERTEX
  8
0
 10
426.909668
 20
220.361298
  0
SEQEND
  0
TEXT
  8
0
 62
     7
 10
390.956512
 20
281.902161
 40
10.747827
 41
1.000000
  1
M4
  7
KANJI
 50
0.000000
 51
0.000000
  0
CIRCLE
  8
0
 62
     7
 10
215.369553
 20
182.489136
 40
2.000000
  0
CIRCLE
  8
0
 62
     4
 10
215.369553
 20
182.489136
 40
1.620000
  0
POLYLINE
  8
DASHDOT
 62
     7
 66
     1
 70
     2
  0
VERTEX
  8
DASHDOT
 10
206.652161
 20
182.489136
  0
VERTEX
  8
DASHDOT
 10
224.086945
 20
182.489136
  0
SEQEND
  0
POLYLINE
  8
DASHDOT
 62
     7
 66
     1
 70
     2
  0
VERTEX
  8
DASHDOT
 10
215.369553
 20
173.771744
  0
VERTEX
  8
DASHDOT
 10
215.369553
 20
191.206528
  0
SEQEND
  0
LINE
  8
DASHDOT
 62
     7
 10
215.369553
 20
212.489136
 11
215.369553
 21
182.489136
  0
LINE
  8
0
 62
     5
 10
215.369553
 20
212.489136
 11
215.369553
 21
219.989136
  0
POLYLINE
  8
0
 62
     4
 66
     1
 70
     2
  0
VERTEX
  8
0
 10
437.283081
 20
184.489136
  0
VERTEX
  8
0
 10
458.955017
 20
184.489136
  0
SEQEND
  0
POLYLINE
  8
0
 62
     4
 66
     1
 70
     2
  0
VERTEX
  8
0
 10
437.283081
 20
180.489136
  0
VERTEX
  8
0
 10
458.955017
 20
180.489136
  0
SEQEND
  0
POLYLINE
  8
0
 62
     4
 66
     1
 70
     2
  0
VERTEX
  8
0
 10
437.365906
 20
184.109131
  0
VERTEX
  8
0
 10
458.977966
 20
184.109131
  0
SEQEND
  0
POLYLINE
  8
0
 62
     4
 66
     1
 70
     2
  0
VERTEX
  8
0
 10
437.365906
 20
180.869141
  0
VERTEX
  8
0
 10
458.977966
 20
180.869141
  0
SEQEND
  0
POLYLINE
  8
0
 62
     5
 66
     1
 70
     2
  0
VERTEX
  8
0
 10
459.021729
 20
182.489136
  0
VERTEX
  8
0
 10
492.608704
 20
261.750000
  0
VERTEX
  8
0
 10
459.917358
 20
261.750000
  0
SEQEND
  0
POLYLINE
  8
0
 62
     5
 66
     1
 70
     2
  0
VERTEX
  8
0
 10
460.017761
 20
190.578598
  0
VERTEX
  8
0
 10
459.021729
 20
182.489136
  0
VERTEX
  8
0
 10
464.141113
 20
188.831329
  0
SEQEND
  0
TEXT
  8
0
 62
     7
 10
464.395630
 20
263.989136
 40
10.747827
 41
1.000000
  1
M4
  7
KANJI
 50
0.000000
 51
0.000000
  0
LINE
  8
0
 62
     5
 10
282.586945
 20
190.989136
 11
282.586945
 21
173.989136
  0
POLYLINE
  8
0
 62
     5
 66
     1
 70
     2
  0
VERTEX
  8
0
 10
280.347809
 20
181.826096
  0
VERTEX
  8
0
 10
282.586945
 20
173.989136
  0
VERTEX
  8
0
 10
284.826080
 20
181.826096
  0
SEQEND
  0
LINE
  8
0
 62
     5
 10
224.369553
 20
173.989136
 11
285.945648
 21
173.989136
  0
TEXT
  8
0
 62
     7
 10
280.347809
 20
162.057068
 40
11.195652
 41
1.000000
  1
%%c17H7
  7
KANJI
 50
90.000000
 51
0.000000
  0
POLYLINE
  8
0
 62
     4
 66
     1
 70
     2
  0
VERTEX
  8
0
 10
181.369553
 20
173.489136
  0
VERTEX
  8
0
 10
181.369553
 20
145.989136
  0
VERTEX
  8
0
 10
182.369553
 20
144.989136
  0
VERTEX
  8
0
 10
205.369553
 20
144.989136
  0
VERTEX
  8
0
 10
206.369553
 20
145.989136
  0
VERTEX
  8
0
 10
206.369553
 20
151.489136
  0
SEQEND
  0
POLYLINE
  8
0
 62
     4
 66
     1
 70
     2
  0
VERTEX
  8
0
 10
207.369553
 20
152.489136
  0
VERTEX
  8
0
 10
223.369553
 20
152.489136
  0
VERTEX
  8
0
 10
224.369553
 20
153.489136
  0
VERTEX
  8
0
 10
224.369553
 20
211.489136
  0
VERTEX
  8
0
 10
223.369553
 20
212.489136
  0
VERTEX
  8
0
 10
207.369553
 20
212.489136
  0
SEQEND
  0
POLYLINE
  8
0
 62
     4
 66
     1
 70
     2
  0
VERTEX
  8
0
 10
206.369553
 20
213.489136
  0
VERTEX
  8
0
 10
206.369553
 20
218.989136
  0
VERTEX
  8
0
 10
205.369553
 20
219.989136
  0
VERTEX
  8
0
 10
182.369553
 20
219.989136
  0
VERTEX
  8
0
 10
181.369553
 20
218.989136
  0
VERTEX
  8
0
 10
181.369553
 20
173.489136
  0
SEQEND
  0
CIRCLE
  8
0
 62
     4
 10
429.021729
 20
182.489136
 40
30.000000
  0
LINE
  8
0
 62
     5
 10
237.804337
 20
231.184784
 11
201.934769
 21
231.184784
  0
POLYLINE
  8
0
 62
     5
 66
     1
 70
     2
  0
VERTEX
  8
0
 10
207.532593
 20
228.945648
  0
VERTEX
  8
0
 10
215.369553
 20
231.184784
  0
VERTEX
  8
0
 10
207.532593
 20
233.423920
  0
SEQEND
  0
POLYLINE
  8
0
 62
     5
 66
     1
 70
     2
  0
VERTEX
  8
0
 10
232.206512
 20
233.423920
  0
VERTEX
  8
0
 10
224.369553
 20
231.184784
  0
VERTEX
  8
0
 10
232.206512
 20
228.945648
  0
SEQEND
  0
LINE
  8
0
 62
     5
 10
215.369553
 20
219.989136
 11
215.369553
 21
234.543488
  0
TEXT
  8
0
 62
     7
 10
216.230957
 20
232.976089
 40
11.195652
 41
1.000000
  1
9
  7
KANJI
 50
0.000000
 51
0.000000
  0
LINE
  8
0
 62
     5
 10
215.369553
 20
212.489136
 11
215.369553
 21
219.989136
  0
ENDSEC
  0
EOF
