  0
SECTION
  2
HEADER
  9
$ACADVER
  1
AC1003
  9
$INSBASE
 10
0.000000
 20
0.000000
  9
$EXTMIN
 10
0.000000
 20
0.000000
  9
$EXTMAX
 10
539.478261
 20
373.043478
  9
$LIMMIN
 10
0.000000
 20
0.000000
  9
$LIMMAX
 10
539.478261
 20
373.043478
  9
$VIEWCTR
 10
269.739130
 20
186.521739
  9
$VIEWSIZE
 40
373.043478
  0
ENDSEC
  0
SECTION
  2
TABLES
  0
TABLE
  2
LTYPE
 70
     4
  0
LTYPE
  2
CONTINUOUS
 70
    64
  3
SolidLine
 72
    65
 73
     0
 40
0.0
  0
LTYPE
  2
HIDDEN
 70
    64
  3
------------------------
 72
    65
 73
     2
 40
5.739130
 49
3.826087
 49
-1.913043
  0
LTYPE
  2
DASHDOT
 70
    64
  3
--?--?--?--?--?--?--?--
 72
    65
 73
     4
 40
22.956522
 49
17.217391
 49
-1.913043
 49
1.913043
 49
-1.913043
  0
LTYPE
  2
DIVIDE
 70
    64
  3
--??--??--??--??--??--
 72
    65
 73
     6
 40
28.695652
 49
19.130435
 49
-1.913043
 49
1.913043
 49
-1.913043
 49
1.913043
 49
-1.913043
  0
ENDTAB
  0
TABLE
  2
LAYER
 70
     5
  0
LAYER
  2
0
 70
    64
 62
     7
  6
CONTINUOUS
  0
LAYER
  2
HIDDEN
 70
    64
 62
     2
  6
HIDDEN
  0
LAYER
  2
DASHDOT
 70
    64
 62
     6
  6
DASHDOT
  0
LAYER
  2
DIVIDE
 70
    64
 62
     5
  6
DIVIDE
  0
ENDTAB
  0
TABLE
  2
STYLE
 70
     1
  0
STYLE
  2
STANDARD
 70
    64
 40
0.0
 41
1.0
 50
0.0
 71
     0
 42
0.2
  3
TXT
  4

  0
STYLE
  2
KANJI
 70
    64
 40
0.0
 41
1.0
 50
0.0
 71
     0
 42
0.2
  3
TXT
  4
BIGFONT
  0
ENDTAB
  0
TABLE
  2
VIEW
 70
     0
  0
ENDTAB
  0
ENDSEC
  0
SECTION
  2
BLOCKS
  0
ENDSEC
  0
SECTION
  2
ENTITIES
  0
TEXT
  8
0
 62
     7
 10
19.130434
 20
21.043478
 40
7.652174
 41
1.000000
  1
KHK SUS3-16
  7
KANJI
 50
0.000000
 51
0.000000
  0
TEXT
  8
0
 62
     7
 10
19.130434
 20
9.565217
 40
7.652174
 41
1.000000
  1

  7
KANJI
 50
0.000000
 51
0.000000
  0
TEXT
  8
0
 62
     7
 10
19.130434
 20
344.347839
 40
8.608696
 41
1.000000
  1

  7
KANJI
 50
0.000000
 51
0.000000
  0
POLYLINE
  8
0
 62
     7
 66
     1
 70
     2
  0
VERTEX
  8
0
 10
459.130432
 20
344.347839
  0
VERTEX
  8
0
 10
451.669556
 20
357.280029
  0
VERTEX
  8
0
 10
481.513031
 20
357.280029
  0
VERTEX
  8
0
 10
474.052185
 20
344.347839
  0
VERTEX
  8
0
 10
466.591309
 20
357.280029
  0
VERTEX
  8
0
 10
459.130432
 20
344.347839
  0
SEQEND
  0
LINE
  8
0
 62
     5
 10
300.608704
 20
182.913055
 11
300.608704
 21
128.913055
  0
POLYLINE
  8
0
 62
     5
 66
     1
 70
     2
  0
VERTEX
  8
0
 10
302.521729
 20
176.217407
  0
VERTEX
  8
0
 10
300.608704
 20
182.913055
  0
VERTEX
  8
0
 10
298.695679
 20
176.217407
  0
SEQEND
  0
POLYLINE
  8
0
 62
     5
 66
     1
 70
     2
  0
VERTEX
  8
0
 10
298.695679
 20
135.608704
  0
VERTEX
  8
0
 10
300.608704
 20
128.913055
  0
VERTEX
  8
0
 10
302.521729
 20
135.608704
  0
SEQEND
  0
LINE
  8
0
 62
     5
 10
204.956528
 20
182.913055
 11
303.478271
 21
182.913055
  0
LINE
  8
0
 62
     5
 10
204.956528
 20
128.913055
 11
303.478271
 21
128.913055
  0
TEXT
  8
0
 62
     7
 10
298.695679
 20
144.673920
 40
9.565217
 41
1.000000
  1
%%c54
  7
KANJI
 50
90.000000
 51
0.000000
  0
LINE
  8
DASHDOT
 62
     7
 10
149.217392
 20
179.913055
 11
190.695663
 21
179.913055
  0
LINE
  8
DASHDOT
 62
     7
 10
149.217392
 20
131.913055
 11
190.695663
 21
131.913055
  0
LINE
  8
DASHDOT
 62
     7
 10
149.217392
 20
155.913055
 11
210.695663
 21
155.913055
  0
LINE
  8
0
 62
     5
 10
184.956528
 20
181.913055
 11
184.956528
 21
182.913055
  0
LINE
  8
0
 62
     5
 10
154.956528
 20
181.913055
 11
154.956528
 21
182.913055
  0
LINE
  8
0
 62
     5
 10
185.956528
 20
174.913055
 11
204.956528
 21
174.913055
  0
LINE
  8
0
 62
     5
 10
185.956528
 20
136.913055
 11
204.956528
 21
136.913055
  0
LINE
  8
0
 62
     5
 10
183.956528
 20
182.913055
 11
204.956528
 21
182.913055
  0
LINE
  8
0
 62
     5
 10
183.956528
 20
128.913055
 11
204.956528
 21
128.913055
  0
LINE
  8
0
 62
     4
 10
154.956528
 20
176.163055
 11
184.956528
 21
176.163055
  0
LINE
  8
0
 62
     4
 10
154.956528
 20
135.663055
 11
184.956528
 21
135.663055
  0
LINE
  8
0
 62
     4
 10
204.456528
 20
148.413055
 11
204.956528
 21
147.913055
  0
LINE
  8
0
 62
     4
 10
204.456528
 20
163.413055
 11
204.956528
 21
163.913055
  0
LINE
  8
0
 62
     4
 10
155.456528
 20
163.413055
 11
155.456528
 21
148.413055
  0
POLYLINE
  8
0
 62
     4
 66
     1
 70
     2
  0
VERTEX
  8
0
 10
154.956528
 20
147.913055
  0
VERTEX
  8
0
 10
155.456528
 20
148.413055
  0
VERTEX
  8
0
 10
204.456528
 20
148.413055
  0
VERTEX
  8
0
 10
204.456528
 20
163.413055
  0
VERTEX
  8
0
 10
155.456528
 20
163.413055
  0
VERTEX
  8
0
 10
154.956528
 20
163.913055
  0
SEQEND
  0
ARC
  8
0
 62
     4
 10
185.956528
 20
175.913055
 40
1.000000
 50
180.0
 51
270.0
  0
ARC
  8
0
 62
     4
 10
185.956528
 20
135.913055
 40
1.000000
 50
90.0
 51
180.0
  0
LINE
  8
0
 62
     5
 10
204.956528
 20
173.913055
 11
204.956528
 21
182.913055
  0
LINE
  8
0
 62
     5
 10
154.956528
 20
234.565231
 11
184.956528
 21
234.565231
  0
POLYLINE
  8
0
 62
     5
 66
     1
 70
     2
  0
VERTEX
  8
0
 10
161.652176
 20
236.478271
  0
VERTEX
  8
0
 10
154.956528
 20
234.565231
  0
VERTEX
  8
0
 10
161.652176
 20
232.652191
  0
SEQEND
  0
POLYLINE
  8
0
 62
     5
 66
     1
 70
     2
  0
VERTEX
  8
0
 10
178.260880
 20
232.652191
  0
VERTEX
  8
0
 10
184.956528
 20
234.565231
  0
VERTEX
  8
0
 10
178.260880
 20
236.478271
  0
SEQEND
  0
LINE
  8
0
 62
     5
 10
184.956528
 20
182.913055
 11
184.956528
 21
237.434799
  0
TEXT
  8
0
 62
     7
 10
163.739136
 20
236.095673
 40
9.565217
 41
1.000000
  1
30
  7
KANJI
 50
0.000000
 51
0.000000
  0
LINE
  8
0
 62
     5
 10
154.956528
 20
249.869568
 11
204.956528
 21
249.869568
  0
POLYLINE
  8
0
 62
     5
 66
     1
 70
     2
  0
VERTEX
  8
0
 10
161.652176
 20
251.782623
  0
VERTEX
  8
0
 10
154.956528
 20
249.869568
  0
VERTEX
  8
0
 10
161.652176
 20
247.956543
  0
SEQEND
  0
POLYLINE
  8
0
 62
     5
 66
     1
 70
     2
  0
VERTEX
  8
0
 10
198.260880
 20
247.956543
  0
VERTEX
  8
0
 10
204.956528
 20
249.869568
  0
VERTEX
  8
0
 10
198.260880
 20
251.782623
  0
SEQEND
  0
LINE
  8
0
 62
     5
 10
154.956528
 20
182.913055
 11
154.956528
 21
252.739136
  0
LINE
  8
0
 62
     5
 10
204.956528
 20
182.913055
 11
204.956528
 21
252.739136
  0
TEXT
  8
0
 62
     7
 10
173.739136
 20
251.400009
 40
9.565217
 41
1.000000
  1
50
  7
KANJI
 50
0.000000
 51
0.000000
  0
LINE
  8
0
 62
     5
 10
184.956528
 20
234.565231
 11
204.956528
 21
234.565231
  0
POLYLINE
  8
0
 62
     5
 66
     1
 70
     2
  0
VERTEX
  8
0
 10
191.652176
 20
236.478271
  0
VERTEX
  8
0
 10
184.956528
 20
234.565231
  0
VERTEX
  8
0
 10
191.652176
 20
232.652191
  0
SEQEND
  0
POLYLINE
  8
0
 62
     5
 66
     1
 70
     2
  0
VERTEX
  8
0
 10
198.260880
 20
232.652191
  0
VERTEX
  8
0
 10
204.956528
 20
234.565231
  0
VERTEX
  8
0
 10
198.260880
 20
236.478271
  0
SEQEND
  0
TEXT
  8
0
 62
     7
 10
188.739136
 20
236.095673
 40
9.565217
 41
1.000000
  1
20
  7
KANJI
 50
0.000000
 51
0.000000
  0
LINE
  8
0
 62
     5
 10
285.304352
 20
174.913055
 11
285.304352
 21
136.913055
  0
POLYLINE
  8
0
 62
     5
 66
     1
 70
     2
  0
VERTEX
  8
0
 10
287.217407
 20
168.217407
  0
VERTEX
  8
0
 10
285.304352
 20
174.913055
  0
VERTEX
  8
0
 10
283.391296
 20
168.217407
  0
SEQEND
  0
POLYLINE
  8
0
 62
     5
 66
     1
 70
     2
  0
VERTEX
  8
0
 10
283.391296
 20
143.608704
  0
VERTEX
  8
0
 10
285.304352
 20
136.913055
  0
VERTEX
  8
0
 10
287.217407
 20
143.608704
  0
SEQEND
  0
LINE
  8
0
 62
     5
 10
204.956528
 20
174.913055
 11
288.173920
 21
174.913055
  0
LINE
  8
0
 62
     5
 10
204.956528
 20
136.913055
 11
288.173920
 21
136.913055
  0
TEXT
  8
0
 62
     7
 10
283.391296
 20
144.673920
 40
9.565217
 41
1.000000
  1
%%c38
  7
KANJI
 50
90.000000
 51
0.000000
  0
LINE
  8
0
 62
     5
 10
254.695663
 20
136.934799
 11
254.695663
 21
174.891312
  0
POLYLINE
  8
0
 62
     5
 66
     1
 70
     2
  0
VERTEX
  8
0
 10
252.782623
 20
170.108704
  0
VERTEX
  8
0
 10
254.695663
 20
163.413055
  0
VERTEX
  8
0
 10
256.608704
 20
170.108704
  0
SEQEND
  0
POLYLINE
  8
0
 62
     5
 66
     1
 70
     2
  0
VERTEX
  8
0
 10
256.608704
 20
141.717407
  0
VERTEX
  8
0
 10
254.695663
 20
148.413055
  0
VERTEX
  8
0
 10
252.782623
 20
141.717407
  0
SEQEND
  0
LINE
  8
0
 62
     5
 10
204.956528
 20
163.413055
 11
257.565247
 21
163.413055
  0
LINE
  8
0
 62
     5
 10
204.956528
 20
148.413055
 11
257.565247
 21
148.413055
  0
TEXT
  8
0
 62
     7
 10
252.782623
 20
138.456528
 40
9.565217
 41
1.000000
  1
%%c15H7
  7
KANJI
 50
90.000000
 51
0.000000
  0
POLYLINE
  8
0
 62
     4
 66
     1
 70
     2
  0
VERTEX
  8
0
 10
154.956528
 20
147.913055
  0
VERTEX
  8
0
 10
154.956528
 20
129.913055
  0
VERTEX
  8
0
 10
155.956528
 20
128.913055
  0
VERTEX
  8
0
 10
183.956528
 20
128.913055
  0
VERTEX
  8
0
 10
184.956528
 20
129.913055
  0
VERTEX
  8
0
 10
184.956528
 20
135.913055
  0
SEQEND
  0
POLYLINE
  8
0
 62
     4
 66
     1
 70
     2
  0
VERTEX
  8
0
 10
185.956528
 20
136.913055
  0
VERTEX
  8
0
 10
203.956528
 20
136.913055
  0
VERTEX
  8
0
 10
204.956528
 20
137.913055
  0
VERTEX
  8
0
 10
204.956528
 20
173.913055
  0
VERTEX
  8
0
 10
203.956528
 20
174.913055
  0
VERTEX
  8
0
 10
185.956528
 20
174.913055
  0
SEQEND
  0
POLYLINE
  8
0
 62
     4
 66
     1
 70
     2
  0
VERTEX
  8
0
 10
184.956528
 20
175.913055
  0
VERTEX
  8
0
 10
184.956528
 20
181.913055
  0
VERTEX
  8
0
 10
183.956528
 20
182.913055
  0
VERTEX
  8
0
 10
155.956528
 20
182.913055
  0
VERTEX
  8
0
 10
154.956528
 20
181.913055
  0
VERTEX
  8
0
 10
154.956528
 20
147.913055
  0
SEQEND
  0
ENDSEC
  0
EOF
