  0
SECTION
  2
HEADER
  9
$ACADVER
  1
AC1003
  9
$INSBASE
 10
0.000000
 20
0.000000
  9
$EXTMIN
 10
0.000000
 20
0.000000
  9
$EXTMAX
 10
674.347826
 20
466.304348
  9
$LIMMIN
 10
0.000000
 20
0.000000
  9
$LIMMAX
 10
674.347826
 20
466.304348
  9
$VIEWCTR
 10
337.173913
 20
233.152174
  9
$VIEWSIZE
 40
466.304348
  0
ENDSEC
  0
SECTION
  2
TABLES
  0
TABLE
  2
LTYPE
 70
     4
  0
LTYPE
  2
CONTINUOUS
 70
    64
  3
SolidLine
 72
    65
 73
     0
 40
0.0
  0
LTYPE
  2
HIDDEN
 70
    64
  3
------------------------
 72
    65
 73
     2
 40
7.173913
 49
4.782609
 49
-2.391304
  0
LTYPE
  2
DASHDOT
 70
    64
  3
--?--?--?--?--?--?--?--
 72
    65
 73
     4
 40
28.695652
 49
21.521739
 49
-2.391304
 49
2.391304
 49
-2.391304
  0
LTYPE
  2
DIVIDE
 70
    64
  3
--??--??--??--??--??--
 72
    65
 73
     6
 40
35.869565
 49
23.913043
 49
-2.391304
 49
2.391304
 49
-2.391304
 49
2.391304
 49
-2.391304
  0
ENDTAB
  0
TABLE
  2
LAYER
 70
     5
  0
LAYER
  2
0
 70
    64
 62
     7
  6
CONTINUOUS
  0
LAYER
  2
HIDDEN
 70
    64
 62
     2
  6
HIDDEN
  0
LAYER
  2
DASHDOT
 70
    64
 62
     6
  6
DASHDOT
  0
LAYER
  2
DIVIDE
 70
    64
 62
     5
  6
DIVIDE
  0
ENDTAB
  0
TABLE
  2
STYLE
 70
     1
  0
STYLE
  2
STANDARD
 70
    64
 40
0.0
 41
1.0
 50
0.0
 71
     0
 42
0.2
  3
TXT
  4

  0
STYLE
  2
KANJI
 70
    64
 40
0.0
 41
1.0
 50
0.0
 71
     0
 42
0.2
  3
TXT
  4
BIGFONT
  0
ENDTAB
  0
TABLE
  2
VIEW
 70
     0
  0
ENDTAB
  0
ENDSEC
  0
SECTION
  2
BLOCKS
  0
ENDSEC
  0
SECTION
  2
ENTITIES
  0
TEXT
  8
0
 62
     7
 10
23.913044
 20
26.304348
 40
9.565217
 41
1.000000
  1
KHK SUS4-15J20
  7
KANJI
 50
0.000000
 51
0.000000
  0
TEXT
  8
0
 62
     7
 10
23.913044
 20
11.956522
 40
9.565217
 41
1.000000
  1
The precision grade of gears after secondary operations is equivalent but not identical to its original grade.
  7
KANJI
 50
0.000000
 51
0.000000
  0
TEXT
  8
0
 62
     7
 10
23.913044
 20
430.434784
 40
10.760870
 41
1.000000
  1

  7
KANJI
 50
0.000000
 51
0.000000
  0
POLYLINE
  8
0
 62
     7
 66
     1
 70
     2
  0
VERTEX
  8
0
 10
573.913025
 20
430.434784
  0
VERTEX
  8
0
 10
564.586914
 20
446.600006
  0
VERTEX
  8
0
 10
601.891296
 20
446.600006
  0
VERTEX
  8
0
 10
592.565186
 20
430.434784
  0
VERTEX
  8
0
 10
583.239136
 20
446.600006
  0
VERTEX
  8
0
 10
573.913025
 20
430.434784
  0
SEQEND
  0
LINE
  8
0
 62
     5
 10
378.260864
 20
228.891312
 11
378.260864
 21
160.891312
  0
POLYLINE
  8
0
 62
     5
 66
     1
 70
     2
  0
VERTEX
  8
0
 10
380.652191
 20
220.521744
  0
VERTEX
  8
0
 10
378.260864
 20
228.891312
  0
VERTEX
  8
0
 10
375.869568
 20
220.521744
  0
SEQEND
  0
POLYLINE
  8
0
 62
     5
 66
     1
 70
     2
  0
VERTEX
  8
0
 10
375.869568
 20
169.260880
  0
VERTEX
  8
0
 10
378.260864
 20
160.891312
  0
VERTEX
  8
0
 10
380.652191
 20
169.260880
  0
SEQEND
  0
LINE
  8
0
 62
     5
 10
258.695679
 20
228.891312
 11
381.847839
 21
228.891312
  0
LINE
  8
0
 62
     5
 10
258.695679
 20
160.891312
 11
381.847839
 21
160.891312
  0
TEXT
  8
0
 62
     7
 10
375.869568
 20
180.842407
 40
11.956522
 41
1.000000
  1
%%c68
  7
KANJI
 50
90.000000
 51
0.000000
  0
LINE
  8
DASHDOT
 62
     7
 10
186.521744
 20
224.891312
 11
240.869568
 21
224.891312
  0
LINE
  8
DASHDOT
 62
     7
 10
186.521744
 20
164.891312
 11
240.869568
 21
164.891312
  0
LINE
  8
DASHDOT
 62
     7
 10
186.521744
 20
194.891312
 11
265.869568
 21
194.891312
  0
LINE
  8
0
 62
     5
 10
233.695663
 20
227.891312
 11
233.695663
 21
228.891312
  0
LINE
  8
0
 62
     5
 10
193.695663
 20
227.891312
 11
193.695663
 21
228.891312
  0
LINE
  8
0
 62
     5
 10
234.695663
 20
217.391312
 11
258.695679
 21
217.391312
  0
LINE
  8
0
 62
     5
 10
234.695663
 20
172.391312
 11
258.695679
 21
172.391312
  0
LINE
  8
0
 62
     5
 10
232.695663
 20
228.891312
 11
258.695679
 21
228.891312
  0
LINE
  8
0
 62
     5
 10
232.695663
 20
160.891312
 11
258.695679
 21
160.891312
  0
LINE
  8
0
 62
     4
 10
193.695663
 20
219.891312
 11
233.695663
 21
219.891312
  0
LINE
  8
0
 62
     4
 10
193.695663
 20
169.891312
 11
233.695663
 21
169.891312
  0
LINE
  8
0
 62
     4
 10
257.695679
 20
184.891312
 11
258.695679
 21
183.891312
  0
LINE
  8
0
 62
     4
 10
257.695679
 20
204.891312
 11
258.695679
 21
205.891312
  0
LINE
  8
0
 62
     4
 10
194.695663
 20
204.891312
 11
194.695663
 21
184.891312
  0
POLYLINE
  8
0
 62
     4
 66
     1
 70
     2
  0
VERTEX
  8
0
 10
193.695663
 20
183.891312
  0
VERTEX
  8
0
 10
194.695663
 20
184.891312
  0
VERTEX
  8
0
 10
257.695679
 20
184.891312
  0
VERTEX
  8
0
 10
257.695679
 20
204.891312
  0
VERTEX
  8
0
 10
194.695663
 20
204.891312
  0
VERTEX
  8
0
 10
193.695663
 20
205.891312
  0
SEQEND
  0
ARC
  8
0
 62
     4
 10
234.695663
 20
218.391312
 40
1.000000
 50
180.0
 51
270.0
  0
ARC
  8
0
 62
     4
 10
234.695663
 20
171.391312
 40
1.000000
 50
90.0
 51
180.0
  0
LINE
  8
0
 62
     5
 10
258.695679
 20
216.391312
 11
258.695679
 21
228.891312
  0
LINE
  8
0
 62
     5
 10
193.695663
 20
293.456543
 11
233.695663
 21
293.456543
  0
POLYLINE
  8
0
 62
     5
 66
     1
 70
     2
  0
VERTEX
  8
0
 10
202.065231
 20
295.847839
  0
VERTEX
  8
0
 10
193.695663
 20
293.456543
  0
VERTEX
  8
0
 10
202.065231
 20
291.065216
  0
SEQEND
  0
POLYLINE
  8
0
 62
     5
 66
     1
 70
     2
  0
VERTEX
  8
0
 10
225.326096
 20
291.065216
  0
VERTEX
  8
0
 10
233.695663
 20
293.456543
  0
VERTEX
  8
0
 10
225.326096
 20
295.847839
  0
SEQEND
  0
LINE
  8
0
 62
     5
 10
233.695663
 20
228.891312
 11
233.695663
 21
297.043488
  0
TEXT
  8
0
 62
     7
 10
205.923920
 20
295.369568
 40
11.956522
 41
1.000000
  1
40
  7
KANJI
 50
0.000000
 51
0.000000
  0
LINE
  8
0
 62
     5
 10
193.695663
 20
312.586975
 11
258.695679
 21
312.586975
  0
POLYLINE
  8
0
 62
     5
 66
     1
 70
     2
  0
VERTEX
  8
0
 10
202.065231
 20
314.978271
  0
VERTEX
  8
0
 10
193.695663
 20
312.586975
  0
VERTEX
  8
0
 10
202.065231
 20
310.195679
  0
SEQEND
  0
POLYLINE
  8
0
 62
     5
 66
     1
 70
     2
  0
VERTEX
  8
0
 10
250.326096
 20
310.195679
  0
VERTEX
  8
0
 10
258.695679
 20
312.586975
  0
VERTEX
  8
0
 10
250.326096
 20
314.978271
  0
SEQEND
  0
LINE
  8
0
 62
     5
 10
193.695663
 20
228.891312
 11
193.695663
 21
316.173920
  0
LINE
  8
0
 62
     5
 10
258.695679
 20
228.891312
 11
258.695679
 21
316.173920
  0
TEXT
  8
0
 62
     7
 10
218.423920
 20
314.500000
 40
11.956522
 41
1.000000
  1
65
  7
KANJI
 50
0.000000
 51
0.000000
  0
LINE
  8
0
 62
     5
 10
233.695663
 20
293.456543
 11
258.695679
 21
293.456543
  0
POLYLINE
  8
0
 62
     5
 66
     1
 70
     2
  0
VERTEX
  8
0
 10
242.065231
 20
295.847839
  0
VERTEX
  8
0
 10
233.695663
 20
293.456543
  0
VERTEX
  8
0
 10
242.065231
 20
291.065216
  0
SEQEND
  0
POLYLINE
  8
0
 62
     5
 66
     1
 70
     2
  0
VERTEX
  8
0
 10
250.326096
 20
291.065216
  0
VERTEX
  8
0
 10
258.695679
 20
293.456543
  0
VERTEX
  8
0
 10
250.326096
 20
295.847839
  0
SEQEND
  0
TEXT
  8
0
 62
     7
 10
238.423920
 20
295.369568
 40
11.956522
 41
1.000000
  1
25
  7
KANJI
 50
0.000000
 51
0.000000
  0
LINE
  8
0
 62
     5
 10
359.130432
 20
217.391312
 11
359.130432
 21
172.391312
  0
POLYLINE
  8
0
 62
     5
 66
     1
 70
     2
  0
VERTEX
  8
0
 10
361.521759
 20
209.021744
  0
VERTEX
  8
0
 10
359.130432
 20
217.391312
  0
VERTEX
  8
0
 10
356.739136
 20
209.021744
  0
SEQEND
  0
POLYLINE
  8
0
 62
     5
 66
     1
 70
     2
  0
VERTEX
  8
0
 10
356.739136
 20
180.760880
  0
VERTEX
  8
0
 10
359.130432
 20
172.391312
  0
VERTEX
  8
0
 10
361.521759
 20
180.760880
  0
SEQEND
  0
LINE
  8
0
 62
     5
 10
258.695679
 20
217.391312
 11
362.717407
 21
217.391312
  0
LINE
  8
0
 62
     5
 10
258.695679
 20
172.391312
 11
362.717407
 21
172.391312
  0
TEXT
  8
0
 62
     7
 10
356.739136
 20
180.842407
 40
11.956522
 41
1.000000
  1
%%c45
  7
KANJI
 50
90.000000
 51
0.000000
  0
LINE
  8
DASHDOT
 62
     7
 10
467.717407
 20
229.347839
 11
467.717407
 21
165.217392
  0
LINE
  8
DASHDOT
 62
     7
 10
438.043488
 20
194.891312
 11
497.391296
 21
194.891312
  0
LINE
  8
0
 62
     5
 10
485.065247
 20
250.869568
 11
450.369568
 21
250.869568
  0
POLYLINE
  8
0
 62
     5
 66
     1
 70
     2
  0
VERTEX
  8
0
 10
456.347839
 20
248.478271
  0
VERTEX
  8
0
 10
464.717407
 20
250.869568
  0
VERTEX
  8
0
 10
456.347839
 20
253.260880
  0
SEQEND
  0
POLYLINE
  8
0
 62
     5
 66
     1
 70
     2
  0
VERTEX
  8
0
 10
479.086975
 20
253.260880
  0
VERTEX
  8
0
 10
470.717407
 20
250.869568
  0
VERTEX
  8
0
 10
479.086975
 20
248.478271
  0
SEQEND
  0
LINE
  8
0
 62
     5
 10
464.717407
 20
207.691315
 11
464.717407
 21
254.456528
  0
LINE
  8
0
 62
     5
 10
470.717407
 20
207.691315
 11
470.717407
 21
254.456528
  0
TEXT
  8
0
 62
     7
 10
443.036743
 20
253.260880
 40
11.956522
 41
1.000000
  1
6
  7
KANJI
 50
0.000000
 51
0.000000
  0
TEXT
  8
0
 62
     7
 10
454.872253
 20
253.260880
 40
9.565217
 41
1.000000
  1
%%p0.015
  7
KANJI
 50
0.000000
 51
0.000000
  0
LINE
  8
0
 62
     5
 10
526.086975
 20
170.543488
 11
526.086975
 21
222.039139
  0
POLYLINE
  8
0
 62
     5
 66
     1
 70
     2
  0
VERTEX
  8
0
 10
523.695679
 20
216.060883
  0
VERTEX
  8
0
 10
526.086975
 20
207.691315
  0
VERTEX
  8
0
 10
528.478271
 20
216.060883
  0
SEQEND
  0
POLYLINE
  8
0
 62
     5
 66
     1
 70
     2
  0
VERTEX
  8
0
 10
528.478271
 20
176.521744
  0
VERTEX
  8
0
 10
526.086975
 20
184.891312
  0
VERTEX
  8
0
 10
523.695679
 20
176.521744
  0
SEQEND
  0
LINE
  8
0
 62
     5
 10
470.717407
 20
207.691315
 11
529.673889
 21
207.691315
  0
LINE
  8
0
 62
     5
 10
467.717407
 20
184.891312
 11
529.673889
 21
184.891312
  0
TEXT
  8
0
 62
     7
 10
522.500000
 20
159.918976
 40
11.956522
 41
1.000000
  1
22.8
  7
KANJI
 50
90.000000
 51
0.000000
  0
TEXT
  8
0
 62
     7
 10
523.217407
 20
211.671539
 40
5.978261
 41
1.000000
  1
 
  7
KANJI
 50
90.000000
 51
0.000000
  0
TEXT
  8
0
 62
     7
 10
515.804321
 20
211.671539
 40
5.978261
 41
1.000000
  1
+
  7
KANJI
 50
90.000000
 51
0.000000
  0
TEXT
  8
0
 62
     7
 10
523.217407
 20
218.367188
 40
5.978261
 41
1.000000
  1
0
  7
KANJI
 50
90.000000
 51
0.000000
  0
TEXT
  8
0
 62
     7
 10
515.804321
 20
218.367188
 40
5.978261
 41
1.000000
  1
0.1
  7
KANJI
 50
90.000000
 51
0.000000
  0
ARC
  8
0
 62
     4
 10
467.717407
 20
194.891312
 40
10.000000
 50
107.45760274776076
 51
72.54239725223924
  0
POLYLINE
  8
0
 62
     4
 66
     1
 70
     2
  0
VERTEX
  8
0
 10
470.717407
 20
204.430710
  0
VERTEX
  8
0
 10
470.717407
 20
207.691315
  0
VERTEX
  8
0
 10
464.717407
 20
207.691315
  0
VERTEX
  8
0
 10
464.717407
 20
204.430710
  0
SEQEND
  0
LINE
  8
0
 62
     4
 10
193.695663
 20
207.691315
 11
258.695679
 21
207.691315
  0
POLYLINE
  8
DASHDOT
 62
     7
 66
     1
 70
     2
  0
VERTEX
  8
DASHDOT
 10
246.195663
 20
224.565216
  0
VERTEX
  8
DASHDOT
 10
246.195663
 20
200.517395
  0
SEQEND
  0
POLYLINE
  8
0
 62
     4
 66
     1
 70
     2
  0
VERTEX
  8
0
 10
248.695663
 20
217.391312
  0
VERTEX
  8
0
 10
248.695663
 20
207.691315
  0
SEQEND
  0
POLYLINE
  8
0
 62
     4
 66
     1
 70
     2
  0
VERTEX
  8
0
 10
243.695663
 20
217.391312
  0
VERTEX
  8
0
 10
243.695663
 20
207.691315
  0
SEQEND
  0
POLYLINE
  8
0
 62
     4
 66
     1
 70
     2
  0
VERTEX
  8
0
 10
248.260666
 20
217.391312
  0
VERTEX
  8
0
 10
248.260666
 20
207.691315
  0
SEQEND
  0
POLYLINE
  8
0
 62
     4
 66
     1
 70
     2
  0
VERTEX
  8
0
 10
244.130661
 20
217.391312
  0
VERTEX
  8
0
 10
244.130661
 20
207.691315
  0
SEQEND
  0
POLYLINE
  8
0
 62
     4
 66
     1
 70
     2
  0
VERTEX
  8
0
 10
465.217407
 20
207.691315
  0
VERTEX
  8
0
 10
465.217407
 20
217.251984
  0
SEQEND
  0
POLYLINE
  8
0
 62
     4
 66
     1
 70
     2
  0
VERTEX
  8
0
 10
470.217407
 20
207.691315
  0
VERTEX
  8
0
 10
470.217407
 20
217.251984
  0
SEQEND
  0
POLYLINE
  8
0
 62
     4
 66
     1
 70
     2
  0
VERTEX
  8
0
 10
465.652405
 20
207.691315
  0
VERTEX
  8
0
 10
465.652405
 20
217.296356
  0
SEQEND
  0
POLYLINE
  8
0
 62
     4
 66
     1
 70
     2
  0
VERTEX
  8
0
 10
469.782410
 20
207.691315
  0
VERTEX
  8
0
 10
469.782410
 20
217.296356
  0
SEQEND
  0
POLYLINE
  8
0
 62
     5
 66
     1
 70
     2
  0
VERTEX
  8
0
 10
467.717407
 20
217.391312
  0
VERTEX
  8
0
 10
424.673920
 20
289.130432
  0
VERTEX
  8
0
 10
450.978271
 20
289.130432
  0
SEQEND
  0
POLYLINE
  8
0
 62
     5
 66
     1
 70
     2
  0
VERTEX
  8
0
 10
461.360779
 20
223.337845
  0
VERTEX
  8
0
 10
467.717407
 20
217.391312
  0
VERTEX
  8
0
 10
465.461792
 20
225.798462
  0
SEQEND
  0
TEXT
  8
0
 62
     7
 10
427.065247
 20
291.521729
 40
11.478261
 41
1.000000
  1
M5
  7
KANJI
 50
0.000000
 51
0.000000
  0
CIRCLE
  8
0
 62
     7
 10
246.195663
 20
194.891312
 40
2.500000
  0
CIRCLE
  8
0
 62
     4
 10
246.195663
 20
194.891312
 40
2.065000
  0
POLYLINE
  8
DASHDOT
 62
     7
 66
     1
 70
     2
  0
VERTEX
  8
DASHDOT
 10
236.521759
 20
194.891312
  0
VERTEX
  8
DASHDOT
 10
255.869568
 20
194.891312
  0
SEQEND
  0
POLYLINE
  8
DASHDOT
 62
     7
 66
     1
 70
     2
  0
VERTEX
  8
DASHDOT
 10
246.195663
 20
185.217392
  0
VERTEX
  8
DASHDOT
 10
246.195663
 20
204.565231
  0
SEQEND
  0
LINE
  8
DASHDOT
 62
     7
 10
246.195663
 20
217.391312
 11
246.195663
 21
194.891312
  0
LINE
  8
0
 62
     5
 10
246.195663
 20
217.391312
 11
246.195663
 21
228.891312
  0
POLYLINE
  8
0
 62
     4
 66
     1
 70
     2
  0
VERTEX
  8
0
 10
477.399841
 20
197.391312
  0
VERTEX
  8
0
 10
490.078064
 20
197.391312
  0
SEQEND
  0
POLYLINE
  8
0
 62
     4
 66
     1
 70
     2
  0
VERTEX
  8
0
 10
477.399841
 20
192.391312
  0
VERTEX
  8
0
 10
490.078064
 20
192.391312
  0
SEQEND
  0
POLYLINE
  8
0
 62
     4
 66
     1
 70
     2
  0
VERTEX
  8
0
 10
477.501831
 20
196.956314
  0
VERTEX
  8
0
 10
490.122437
 20
196.956314
  0
SEQEND
  0
POLYLINE
  8
0
 62
     4
 66
     1
 70
     2
  0
VERTEX
  8
0
 10
477.501831
 20
192.826309
  0
VERTEX
  8
0
 10
490.122437
 20
192.826309
  0
SEQEND
  0
POLYLINE
  8
0
 62
     5
 66
     1
 70
     2
  0
VERTEX
  8
0
 10
490.217407
 20
194.891312
  0
VERTEX
  8
0
 10
526.086975
 20
270.000000
  0
VERTEX
  8
0
 10
491.173889
 20
270.000000
  0
SEQEND
  0
POLYLINE
  8
0
 62
     5
 66
     1
 70
     2
  0
VERTEX
  8
0
 10
491.666382
 20
203.474335
  0
VERTEX
  8
0
 10
490.217407
 20
194.891312
  0
VERTEX
  8
0
 10
495.982117
 20
201.413284
  0
SEQEND
  0
TEXT
  8
0
 62
     7
 10
495.956543
 20
272.391296
 40
11.478261
 41
1.000000
  1
M5
  7
KANJI
 50
0.000000
 51
0.000000
  0
LINE
  8
0
 62
     5
 10
320.869568
 20
204.891312
 11
320.869568
 21
184.891312
  0
POLYLINE
  8
0
 62
     5
 66
     1
 70
     2
  0
VERTEX
  8
0
 10
318.478271
 20
193.260880
  0
VERTEX
  8
0
 10
320.869568
 20
184.891312
  0
VERTEX
  8
0
 10
323.260864
 20
193.260880
  0
SEQEND
  0
LINE
  8
0
 62
     5
 10
258.695679
 20
184.891312
 11
324.456543
 21
184.891312
  0
TEXT
  8
0
 62
     7
 10
318.478271
 20
173.070663
 40
11.956522
 41
1.000000
  1
%%c20H7
  7
KANJI
 50
90.000000
 51
0.000000
  0
POLYLINE
  8
0
 62
     4
 66
     1
 70
     2
  0
VERTEX
  8
0
 10
193.695663
 20
183.891312
  0
VERTEX
  8
0
 10
193.695663
 20
161.891312
  0
VERTEX
  8
0
 10
194.695663
 20
160.891312
  0
VERTEX
  8
0
 10
232.695663
 20
160.891312
  0
VERTEX
  8
0
 10
233.695663
 20
161.891312
  0
VERTEX
  8
0
 10
233.695663
 20
171.391312
  0
SEQEND
  0
POLYLINE
  8
0
 62
     4
 66
     1
 70
     2
  0
VERTEX
  8
0
 10
234.695663
 20
172.391312
  0
VERTEX
  8
0
 10
257.695679
 20
172.391312
  0
VERTEX
  8
0
 10
258.695679
 20
173.391312
  0
VERTEX
  8
0
 10
258.695679
 20
216.391312
  0
VERTEX
  8
0
 10
257.695679
 20
217.391312
  0
VERTEX
  8
0
 10
234.695663
 20
217.391312
  0
SEQEND
  0
POLYLINE
  8
0
 62
     4
 66
     1
 70
     2
  0
VERTEX
  8
0
 10
233.695663
 20
218.391312
  0
VERTEX
  8
0
 10
233.695663
 20
227.891312
  0
VERTEX
  8
0
 10
232.695663
 20
228.891312
  0
VERTEX
  8
0
 10
194.695663
 20
228.891312
  0
VERTEX
  8
0
 10
193.695663
 20
227.891312
  0
VERTEX
  8
0
 10
193.695663
 20
183.891312
  0
SEQEND
  0
CIRCLE
  8
0
 62
     4
 10
467.717407
 20
194.891312
 40
22.500000
  0
LINE
  8
0
 62
     5
 10
273.043488
 20
240.847839
 11
231.847839
 21
240.847839
  0
POLYLINE
  8
0
 62
     5
 66
     1
 70
     2
  0
VERTEX
  8
0
 10
237.826096
 20
238.456528
  0
VERTEX
  8
0
 10
246.195663
 20
240.847839
  0
VERTEX
  8
0
 10
237.826096
 20
243.239136
  0
SEQEND
  0
POLYLINE
  8
0
 62
     5
 66
     1
 70
     2
  0
VERTEX
  8
0
 10
267.065247
 20
243.239136
  0
VERTEX
  8
0
 10
258.695679
 20
240.847839
  0
VERTEX
  8
0
 10
267.065247
 20
238.456528
  0
SEQEND
  0
LINE
  8
0
 62
     5
 10
246.195663
 20
228.891312
 11
246.195663
 21
244.434784
  0
TEXT
  8
0
 62
     7
 10
265.869568
 20
242.760880
 40
11.956522
 41
1.000000
  1
12.5
  7
KANJI
 50
0.000000
 51
0.000000
  0
LINE
  8
0
 62
     5
 10
246.195663
 20
217.391312
 11
246.195663
 21
228.891312
  0
ENDSEC
  0
EOF
