  0
SECTION
  2
HEADER
  9
$ACADVER
  1
AC1003
  9
$INSBASE
 10
0.000000
 20
0.000000
  9
$EXTMIN
 10
0.000000
 20
0.000000
  9
$EXTMAX
 10
1011.521739
 20
699.456522
  9
$LIMMIN
 10
0.000000
 20
0.000000
  9
$LIMMAX
 10
1011.521739
 20
699.456522
  9
$VIEWCTR
 10
505.760870
 20
349.728261
  9
$VIEWSIZE
 40
699.456522
  0
ENDSEC
  0
SECTION
  2
TABLES
  0
TABLE
  2
LTYPE
 70
     4
  0
LTYPE
  2
CONTINUOUS
 70
    64
  3
SolidLine
 72
    65
 73
     0
 40
0.0
  0
LTYPE
  2
HIDDEN
 70
    64
  3
------------------------
 72
    65
 73
     2
 40
10.760870
 49
7.173913
 49
-3.586957
  0
LTYPE
  2
DASHDOT
 70
    64
  3
--?--?--?--?--?--?--?--
 72
    65
 73
     4
 40
43.043478
 49
32.282609
 49
-3.586957
 49
3.586957
 49
-3.586957
  0
LTYPE
  2
DIVIDE
 70
    64
  3
--??--??--??--??--??--
 72
    65
 73
     6
 40
53.804348
 49
35.869565
 49
-3.586957
 49
3.586957
 49
-3.586957
 49
3.586957
 49
-3.586957
  0
ENDTAB
  0
TABLE
  2
LAYER
 70
     5
  0
LAYER
  2
0
 70
    64
 62
     7
  6
CONTINUOUS
  0
LAYER
  2
HIDDEN
 70
    64
 62
     2
  6
HIDDEN
  0
LAYER
  2
DASHDOT
 70
    64
 62
     6
  6
DASHDOT
  0
LAYER
  2
DIVIDE
 70
    64
 62
     5
  6
DIVIDE
  0
ENDTAB
  0
TABLE
  2
STYLE
 70
     1
  0
STYLE
  2
STANDARD
 70
    64
 40
0.0
 41
1.0
 50
0.0
 71
     0
 42
0.2
  3
TXT
  4

  0
STYLE
  2
KANJI
 70
    64
 40
0.0
 41
1.0
 50
0.0
 71
     0
 42
0.2
  3
TXT
  4
BIGFONT
  0
ENDTAB
  0
TABLE
  2
VIEW
 70
     0
  0
ENDTAB
  0
ENDSEC
  0
SECTION
  2
BLOCKS
  0
ENDSEC
  0
SECTION
  2
ENTITIES
  0
TEXT
  8
0
 62
     7
 10
35.869564
 20
39.456520
 40
14.347826
 41
1.000000
  1
KHK SUS4-30J40
  7
KANJI
 50
0.000000
 51
0.000000
  0
TEXT
  8
0
 62
     7
 10
35.869564
 20
17.934782
 40
14.347826
 41
1.000000
  1
The precision grade of gears after secondary operations is equivalent but not identical to its original grade.
  7
KANJI
 50
0.000000
 51
0.000000
  0
TEXT
  8
0
 62
     7
 10
35.869564
 20
645.652161
 40
16.141304
 41
1.000000
  1

  7
KANJI
 50
0.000000
 51
0.000000
  0
POLYLINE
  8
0
 62
     7
 66
     1
 70
     2
  0
VERTEX
  8
0
 10
860.869568
 20
645.652161
  0
VERTEX
  8
0
 10
846.880432
 20
669.899963
  0
VERTEX
  8
0
 10
902.836975
 20
669.899963
  0
VERTEX
  8
0
 10
888.847839
 20
645.652161
  0
VERTEX
  8
0
 10
874.858704
 20
669.899963
  0
VERTEX
  8
0
 10
860.869568
 20
645.652161
  0
SEQEND
  0
LINE
  8
0
 62
     5
 10
534.891296
 20
356.336975
 11
534.891296
 21
228.336975
  0
POLYLINE
  8
0
 62
     5
 66
     1
 70
     2
  0
VERTEX
  8
0
 10
538.478271
 20
343.782623
  0
VERTEX
  8
0
 10
534.891296
 20
356.336975
  0
VERTEX
  8
0
 10
531.304321
 20
343.782623
  0
SEQEND
  0
POLYLINE
  8
0
 62
     5
 66
     1
 70
     2
  0
VERTEX
  8
0
 10
531.304321
 20
240.891327
  0
VERTEX
  8
0
 10
534.891296
 20
228.336975
  0
VERTEX
  8
0
 10
538.478271
 20
240.891327
  0
SEQEND
  0
LINE
  8
0
 62
     5
 10
355.543457
 20
356.336975
 11
540.271729
 21
356.336975
  0
LINE
  8
0
 62
     5
 10
355.543457
 20
228.336975
 11
540.271729
 21
228.336975
  0
TEXT
  8
0
 62
     7
 10
531.304321
 20
265.434814
 40
17.934783
 41
1.000000
  1
%%c128
  7
KANJI
 50
90.000000
 51
0.000000
  0
LINE
  8
DASHDOT
 62
     7
 10
279.782593
 20
352.336975
 11
341.304321
 21
352.336975
  0
LINE
  8
DASHDOT
 62
     7
 10
279.782593
 20
232.336975
 11
341.304321
 21
232.336975
  0
LINE
  8
DASHDOT
 62
     7
 10
279.782593
 20
292.336975
 11
366.304321
 21
292.336975
  0
LINE
  8
0
 62
     5
 10
330.543457
 20
355.336975
 11
330.543457
 21
356.336975
  0
LINE
  8
0
 62
     5
 10
290.543457
 20
355.336975
 11
290.543457
 21
356.336975
  0
LINE
  8
0
 62
     5
 10
332.043457
 20
342.336975
 11
355.543457
 21
342.336975
  0
LINE
  8
0
 62
     5
 10
332.043457
 20
242.336975
 11
355.543457
 21
242.336975
  0
LINE
  8
0
 62
     5
 10
329.543457
 20
356.336975
 11
355.543457
 21
356.336975
  0
LINE
  8
0
 62
     5
 10
329.543457
 20
228.336975
 11
355.543457
 21
228.336975
  0
LINE
  8
0
 62
     4
 10
290.543457
 20
347.336975
 11
330.543457
 21
347.336975
  0
LINE
  8
0
 62
     4
 10
290.543457
 20
237.336975
 11
330.543457
 21
237.336975
  0
LINE
  8
0
 62
     4
 10
354.543457
 20
272.336975
 11
355.543457
 21
271.336975
  0
LINE
  8
0
 62
     4
 10
354.543457
 20
312.336975
 11
355.543457
 21
313.336975
  0
LINE
  8
0
 62
     4
 10
291.543457
 20
312.336975
 11
291.543457
 21
272.336975
  0
POLYLINE
  8
0
 62
     4
 66
     1
 70
     2
  0
VERTEX
  8
0
 10
290.543457
 20
271.336975
  0
VERTEX
  8
0
 10
291.543457
 20
272.336975
  0
VERTEX
  8
0
 10
354.543457
 20
272.336975
  0
VERTEX
  8
0
 10
354.543457
 20
312.336975
  0
VERTEX
  8
0
 10
291.543457
 20
312.336975
  0
VERTEX
  8
0
 10
290.543457
 20
313.336975
  0
SEQEND
  0
ARC
  8
0
 62
     4
 10
332.043457
 20
343.836975
 40
1.500000
 50
180.0
 51
270.0
  0
ARC
  8
0
 62
     4
 10
332.043457
 20
240.836975
 40
1.500000
 50
90.0
 51
180.0
  0
LINE
  8
0
 62
     5
 10
355.543457
 20
341.336975
 11
355.543457
 21
356.336975
  0
LINE
  8
0
 62
     5
 10
290.543457
 20
453.184814
 11
330.543457
 21
453.184814
  0
POLYLINE
  8
0
 62
     5
 66
     1
 70
     2
  0
VERTEX
  8
0
 10
303.097809
 20
456.771759
  0
VERTEX
  8
0
 10
290.543457
 20
453.184814
  0
VERTEX
  8
0
 10
303.097809
 20
449.597839
  0
SEQEND
  0
POLYLINE
  8
0
 62
     5
 66
     1
 70
     2
  0
VERTEX
  8
0
 10
317.989105
 20
449.597839
  0
VERTEX
  8
0
 10
330.543457
 20
453.184814
  0
VERTEX
  8
0
 10
317.989105
 20
456.771759
  0
SEQEND
  0
LINE
  8
0
 62
     5
 10
330.543457
 20
356.336975
 11
330.543457
 21
458.565247
  0
TEXT
  8
0
 62
     7
 10
298.885834
 20
456.054382
 40
17.934783
 41
1.000000
  1
40
  7
KANJI
 50
0.000000
 51
0.000000
  0
LINE
  8
0
 62
     5
 10
290.543457
 20
481.880463
 11
355.543457
 21
481.880463
  0
POLYLINE
  8
0
 62
     5
 66
     1
 70
     2
  0
VERTEX
  8
0
 10
303.097809
 20
485.467407
  0
VERTEX
  8
0
 10
290.543457
 20
481.880463
  0
VERTEX
  8
0
 10
303.097809
 20
478.293518
  0
SEQEND
  0
POLYLINE
  8
0
 62
     5
 66
     1
 70
     2
  0
VERTEX
  8
0
 10
342.989105
 20
478.293518
  0
VERTEX
  8
0
 10
355.543457
 20
481.880463
  0
VERTEX
  8
0
 10
342.989105
 20
485.467407
  0
SEQEND
  0
LINE
  8
0
 62
     5
 10
290.543457
 20
356.336975
 11
290.543457
 21
487.260895
  0
LINE
  8
0
 62
     5
 10
355.543457
 20
356.336975
 11
355.543457
 21
487.260895
  0
TEXT
  8
0
 62
     7
 10
311.385864
 20
484.750031
 40
17.934783
 41
1.000000
  1
65
  7
KANJI
 50
0.000000
 51
0.000000
  0
LINE
  8
0
 62
     5
 10
377.065186
 20
453.184814
 11
309.021729
 21
453.184814
  0
POLYLINE
  8
0
 62
     5
 66
     1
 70
     2
  0
VERTEX
  8
0
 10
317.989105
 20
449.597839
  0
VERTEX
  8
0
 10
330.543457
 20
453.184814
  0
VERTEX
  8
0
 10
317.989105
 20
456.771759
  0
SEQEND
  0
POLYLINE
  8
0
 62
     5
 66
     1
 70
     2
  0
VERTEX
  8
0
 10
368.097809
 20
456.771759
  0
VERTEX
  8
0
 10
355.543457
 20
453.184814
  0
VERTEX
  8
0
 10
368.097809
 20
449.597839
  0
SEQEND
  0
TEXT
  8
0
 62
     7
 10
331.385864
 20
456.054382
 40
17.934783
 41
1.000000
  1
25
  7
KANJI
 50
0.000000
 51
0.000000
  0
LINE
  8
0
 62
     5
 10
506.195618
 20
342.336975
 11
506.195618
 21
242.336975
  0
POLYLINE
  8
0
 62
     5
 66
     1
 70
     2
  0
VERTEX
  8
0
 10
509.782593
 20
329.782623
  0
VERTEX
  8
0
 10
506.195618
 20
342.336975
  0
VERTEX
  8
0
 10
502.608673
 20
329.782623
  0
SEQEND
  0
POLYLINE
  8
0
 62
     5
 66
     1
 70
     2
  0
VERTEX
  8
0
 10
502.608673
 20
254.891327
  0
VERTEX
  8
0
 10
506.195618
 20
242.336975
  0
VERTEX
  8
0
 10
509.782593
 20
254.891327
  0
SEQEND
  0
LINE
  8
0
 62
     5
 10
355.543457
 20
342.336975
 11
511.576050
 21
342.336975
  0
LINE
  8
0
 62
     5
 10
355.543457
 20
242.336975
 11
511.576050
 21
242.336975
  0
TEXT
  8
0
 62
     7
 10
502.608673
 20
265.434814
 40
17.934783
 41
1.000000
  1
%%c100
  7
KANJI
 50
90.000000
 51
0.000000
  0
LINE
  8
DASHDOT
 62
     7
 10
685.326050
 20
360.271759
 11
685.326050
 21
231.576111
  0
LINE
  8
DASHDOT
 62
     7
 10
624.565186
 20
292.336975
 11
746.086914
 21
292.336975
  0
LINE
  8
0
 62
     5
 10
712.847778
 20
392.554382
 11
657.804321
 21
392.554382
  0
POLYLINE
  8
0
 62
     5
 66
     1
 70
     2
  0
VERTEX
  8
0
 10
666.771729
 20
388.967407
  0
VERTEX
  8
0
 10
679.326050
 20
392.554382
  0
VERTEX
  8
0
 10
666.771729
 20
396.141327
  0
SEQEND
  0
POLYLINE
  8
0
 62
     5
 66
     1
 70
     2
  0
VERTEX
  8
0
 10
703.880432
 20
396.141327
  0
VERTEX
  8
0
 10
691.326050
 20
392.554382
  0
VERTEX
  8
0
 10
703.880432
 20
388.967407
  0
SEQEND
  0
LINE
  8
0
 62
     5
 10
679.326050
 20
315.636963
 11
679.326050
 21
397.934814
  0
LINE
  8
0
 62
     5
 10
691.326050
 20
315.636963
 11
691.326050
 21
397.934814
  0
TEXT
  8
0
 62
     7
 10
634.854065
 20
396.141327
 40
17.934783
 41
1.000000
  1
12
  7
KANJI
 50
0.000000
 51
0.000000
  0
TEXT
  8
0
 62
     7
 10
665.161621
 20
396.141327
 40
14.347826
 41
1.000000
  1
%%p0.0215
  7
KANJI
 50
0.000000
 51
0.000000
  0
LINE
  8
0
 62
     5
 10
789.130432
 20
250.815231
 11
789.130432
 21
337.158722
  0
POLYLINE
  8
0
 62
     5
 66
     1
 70
     2
  0
VERTEX
  8
0
 10
785.543457
 20
328.191315
  0
VERTEX
  8
0
 10
789.130432
 20
315.636963
  0
VERTEX
  8
0
 10
792.717407
 20
328.191315
  0
SEQEND
  0
POLYLINE
  8
0
 62
     5
 66
     1
 70
     2
  0
VERTEX
  8
0
 10
792.717407
 20
259.782623
  0
VERTEX
  8
0
 10
789.130432
 20
272.336975
  0
VERTEX
  8
0
 10
785.543457
 20
259.782623
  0
SEQEND
  0
LINE
  8
0
 62
     5
 10
691.326050
 20
315.636963
 11
794.510864
 21
315.636963
  0
LINE
  8
0
 62
     5
 10
685.326050
 20
272.336975
 11
794.510864
 21
272.336975
  0
TEXT
  8
0
 62
     7
 10
783.750000
 20
238.518478
 40
17.934783
 41
1.000000
  1
43.3
  7
KANJI
 50
90.000000
 51
0.000000
  0
TEXT
  8
0
 62
     7
 10
784.826050
 20
316.147308
 40
8.967391
 41
1.000000
  1
 
  7
KANJI
 50
90.000000
 51
0.000000
  0
TEXT
  8
0
 62
     7
 10
773.706543
 20
316.147308
 40
8.967391
 41
1.000000
  1
+
  7
KANJI
 50
90.000000
 51
0.000000
  0
TEXT
  8
0
 62
     7
 10
784.826050
 20
326.190796
 40
8.967391
 41
1.000000
  1
0
  7
KANJI
 50
90.000000
 51
0.000000
  0
TEXT
  8
0
 62
     7
 10
773.706543
 20
326.190796
 40
8.967391
 41
1.000000
  1
0.2
  7
KANJI
 50
90.000000
 51
0.000000
  0
ARC
  8
0
 62
     4
 10
685.326050
 20
292.336975
 40
20.000000
 50
107.45760274776076
 51
72.54239725223924
  0
POLYLINE
  8
0
 62
     4
 66
     1
 70
     2
  0
VERTEX
  8
0
 10
691.326050
 20
311.415771
  0
VERTEX
  8
0
 10
691.326050
 20
315.636963
  0
VERTEX
  8
0
 10
679.326050
 20
315.636963
  0
VERTEX
  8
0
 10
679.326050
 20
311.415771
  0
SEQEND
  0
LINE
  8
0
 62
     4
 10
290.543457
 20
315.636963
 11
355.543457
 21
315.636963
  0
POLYLINE
  8
DASHDOT
 62
     7
 66
     1
 70
     2
  0
VERTEX
  8
DASHDOT
 10
343.043457
 20
353.097839
  0
VERTEX
  8
DASHDOT
 10
343.043457
 20
304.876099
  0
SEQEND
  0
POLYLINE
  8
0
 62
     4
 66
     1
 70
     2
  0
VERTEX
  8
0
 10
347.043457
 20
342.336975
  0
VERTEX
  8
0
 10
347.043457
 20
315.636963
  0
SEQEND
  0
POLYLINE
  8
0
 62
     4
 66
     1
 70
     2
  0
VERTEX
  8
0
 10
339.043457
 20
342.336975
  0
VERTEX
  8
0
 10
339.043457
 20
315.636963
  0
SEQEND
  0
POLYLINE
  8
0
 62
     4
 66
     1
 70
     2
  0
VERTEX
  8
0
 10
346.368469
 20
342.336975
  0
VERTEX
  8
0
 10
346.368469
 20
315.636963
  0
SEQEND
  0
POLYLINE
  8
0
 62
     4
 66
     1
 70
     2
  0
VERTEX
  8
0
 10
339.718445
 20
342.336975
  0
VERTEX
  8
0
 10
339.718445
 20
315.636963
  0
SEQEND
  0
POLYLINE
  8
0
 62
     4
 66
     1
 70
     2
  0
VERTEX
  8
0
 10
681.326050
 20
315.636963
  0
VERTEX
  8
0
 10
681.326050
 20
342.176727
  0
SEQEND
  0
POLYLINE
  8
0
 62
     4
 66
     1
 70
     2
  0
VERTEX
  8
0
 10
689.326050
 20
315.636963
  0
VERTEX
  8
0
 10
689.326050
 20
342.176727
  0
SEQEND
  0
POLYLINE
  8
0
 62
     4
 66
     1
 70
     2
  0
VERTEX
  8
0
 10
682.001099
 20
315.636963
  0
VERTEX
  8
0
 10
682.001099
 20
342.226288
  0
SEQEND
  0
POLYLINE
  8
0
 62
     4
 66
     1
 70
     2
  0
VERTEX
  8
0
 10
688.651123
 20
315.636963
  0
VERTEX
  8
0
 10
688.651123
 20
342.226288
  0
SEQEND
  0
POLYLINE
  8
0
 62
     5
 66
     1
 70
     2
  0
VERTEX
  8
0
 10
685.326050
 20
342.336975
  0
VERTEX
  8
0
 10
620.760864
 20
449.945679
  0
VERTEX
  8
0
 10
660.217407
 20
449.945679
  0
SEQEND
  0
POLYLINE
  8
0
 62
     5
 66
     1
 70
     2
  0
VERTEX
  8
0
 10
675.791138
 20
351.256775
  0
VERTEX
  8
0
 10
685.326050
 20
342.336975
  0
VERTEX
  8
0
 10
681.942749
 20
354.947723
  0
SEQEND
  0
TEXT
  8
0
 62
     7
 10
624.347778
 20
453.532623
 40
17.217392
 41
1.000000
  1
M8
  7
KANJI
 50
0.000000
 51
0.000000
  0
CIRCLE
  8
0
 62
     7
 10
343.043457
 20
292.336975
 40
4.000000
  0
CIRCLE
  8
0
 62
     4
 10
343.043457
 20
292.336975
 40
3.325000
  0
POLYLINE
  8
DASHDOT
 62
     7
 66
     1
 70
     2
  0
VERTEX
  8
DASHDOT
 10
328.282593
 20
292.336975
  0
VERTEX
  8
DASHDOT
 10
357.804321
 20
292.336975
  0
SEQEND
  0
POLYLINE
  8
DASHDOT
 62
     7
 66
     1
 70
     2
  0
VERTEX
  8
DASHDOT
 10
343.043457
 20
277.576111
  0
VERTEX
  8
DASHDOT
 10
343.043457
 20
307.097839
  0
SEQEND
  0
LINE
  8
DASHDOT
 62
     7
 10
343.043457
 20
342.336975
 11
343.043457
 21
292.336975
  0
LINE
  8
0
 62
     5
 10
343.043457
 20
342.336975
 11
343.043457
 21
356.336975
  0
POLYLINE
  8
0
 62
     4
 66
     1
 70
     2
  0
VERTEX
  8
0
 10
704.921997
 20
296.336975
  0
VERTEX
  8
0
 10
735.165833
 20
296.336975
  0
SEQEND
  0
POLYLINE
  8
0
 62
     4
 66
     1
 70
     2
  0
VERTEX
  8
0
 10
704.921997
 20
288.336975
  0
VERTEX
  8
0
 10
735.165833
 20
288.336975
  0
SEQEND
  0
POLYLINE
  8
0
 62
     4
 66
     1
 70
     2
  0
VERTEX
  8
0
 10
705.047729
 20
295.661987
  0
VERTEX
  8
0
 10
735.215393
 20
295.661987
  0
SEQEND
  0
POLYLINE
  8
0
 62
     4
 66
     1
 70
     2
  0
VERTEX
  8
0
 10
705.047729
 20
289.011963
  0
VERTEX
  8
0
 10
735.215393
 20
289.011963
  0
SEQEND
  0
POLYLINE
  8
0
 62
     5
 66
     1
 70
     2
  0
VERTEX
  8
0
 10
735.326050
 20
292.336975
  0
VERTEX
  8
0
 10
789.130371
 20
421.250000
  0
VERTEX
  8
0
 10
736.760864
 20
421.250000
  0
SEQEND
  0
POLYLINE
  8
0
 62
     5
 66
     1
 70
     2
  0
VERTEX
  8
0
 10
736.851440
 20
305.304291
  0
VERTEX
  8
0
 10
735.326050
 20
292.336975
  0
VERTEX
  8
0
 10
743.471802
 20
302.541138
  0
SEQEND
  0
TEXT
  8
0
 62
     7
 10
743.934753
 20
424.836975
 40
17.217392
 41
1.000000
  1
M8
  7
KANJI
 50
0.000000
 51
0.000000
  0
LINE
  8
0
 62
     5
 10
448.804321
 20
312.336975
 11
448.804321
 21
272.336975
  0
POLYLINE
  8
0
 62
     5
 66
     1
 70
     2
  0
VERTEX
  8
0
 10
445.217346
 20
284.891327
  0
VERTEX
  8
0
 10
448.804321
 20
272.336975
  0
VERTEX
  8
0
 10
452.391296
 20
284.891327
  0
SEQEND
  0
LINE
  8
0
 62
     5
 10
355.543457
 20
272.336975
 11
454.184753
 21
272.336975
  0
TEXT
  8
0
 62
     7
 10
445.217346
 20
259.605988
 40
17.934783
 41
1.000000
  1
%%c40H7
  7
KANJI
 50
90.000000
 51
0.000000
  0
POLYLINE
  8
0
 62
     4
 66
     1
 70
     2
  0
VERTEX
  8
0
 10
290.543457
 20
271.336975
  0
VERTEX
  8
0
 10
290.543457
 20
229.336975
  0
VERTEX
  8
0
 10
291.543457
 20
228.336975
  0
VERTEX
  8
0
 10
329.543457
 20
228.336975
  0
VERTEX
  8
0
 10
330.543457
 20
229.336975
  0
VERTEX
  8
0
 10
330.543457
 20
240.836975
  0
SEQEND
  0
POLYLINE
  8
0
 62
     4
 66
     1
 70
     2
  0
VERTEX
  8
0
 10
332.043457
 20
242.336975
  0
VERTEX
  8
0
 10
354.543457
 20
242.336975
  0
VERTEX
  8
0
 10
355.543457
 20
243.336975
  0
VERTEX
  8
0
 10
355.543457
 20
341.336975
  0
VERTEX
  8
0
 10
354.543457
 20
342.336975
  0
VERTEX
  8
0
 10
332.043457
 20
342.336975
  0
SEQEND
  0
POLYLINE
  8
0
 62
     4
 66
     1
 70
     2
  0
VERTEX
  8
0
 10
330.543457
 20
343.836975
  0
VERTEX
  8
0
 10
330.543457
 20
355.336975
  0
VERTEX
  8
0
 10
329.543457
 20
356.336975
  0
VERTEX
  8
0
 10
291.543457
 20
356.336975
  0
VERTEX
  8
0
 10
290.543457
 20
355.336975
  0
VERTEX
  8
0
 10
290.543457
 20
271.336975
  0
SEQEND
  0
CIRCLE
  8
0
 62
     4
 10
685.326050
 20
292.336975
 40
50.000000
  0
LINE
  8
0
 62
     5
 10
377.065186
 20
374.271759
 11
321.521729
 21
374.271759
  0
POLYLINE
  8
0
 62
     5
 66
     1
 70
     2
  0
VERTEX
  8
0
 10
330.489105
 20
370.684814
  0
VERTEX
  8
0
 10
343.043457
 20
374.271759
  0
VERTEX
  8
0
 10
330.489105
 20
377.858704
  0
SEQEND
  0
POLYLINE
  8
0
 62
     5
 66
     1
 70
     2
  0
VERTEX
  8
0
 10
368.097809
 20
377.858704
  0
VERTEX
  8
0
 10
355.543457
 20
374.271759
  0
VERTEX
  8
0
 10
368.097809
 20
370.684814
  0
SEQEND
  0
LINE
  8
0
 62
     5
 10
343.043457
 20
356.336975
 11
343.043457
 21
379.652191
  0
TEXT
  8
0
 62
     7
 10
366.304321
 20
377.141327
 40
17.934783
 41
1.000000
  1
12.5
  7
KANJI
 50
0.000000
 51
0.000000
  0
LINE
  8
0
 62
     5
 10
343.043457
 20
342.336975
 11
343.043457
 21
356.336975
  0
ENDSEC
  0
EOF
