  0
SECTION
  2
HEADER
  9
$ACADVER
  1
AC1003
  9
$INSBASE
 10
0.000000
 20
0.000000
  9
$EXTMIN
 10
0.000000
 20
0.000000
  9
$EXTMAX
 10
219.163043
 20
151.548913
  9
$LIMMIN
 10
0.000000
 20
0.000000
  9
$LIMMAX
 10
219.163043
 20
151.548913
  9
$VIEWCTR
 10
109.581522
 20
75.774457
  9
$VIEWSIZE
 40
151.548913
  0
ENDSEC
  0
SECTION
  2
TABLES
  0
TABLE
  2
LTYPE
 70
     4
  0
LTYPE
  2
CONTINUOUS
 70
    64
  3
SolidLine
 72
    65
 73
     0
 40
0.0
  0
LTYPE
  2
HIDDEN
 70
    64
  3
------------------------
 72
    65
 73
     2
 40
2.331522
 49
1.554348
 49
-0.777174
  0
LTYPE
  2
DASHDOT
 70
    64
  3
--?--?--?--?--?--?--?--
 72
    65
 73
     4
 40
9.326087
 49
6.994565
 49
-0.777174
 49
0.777174
 49
-0.777174
  0
LTYPE
  2
DIVIDE
 70
    64
  3
--??--??--??--??--??--
 72
    65
 73
     6
 40
11.657609
 49
7.771739
 49
-0.777174
 49
0.777174
 49
-0.777174
 49
0.777174
 49
-0.777174
  0
ENDTAB
  0
TABLE
  2
LAYER
 70
     5
  0
LAYER
  2
0
 70
    64
 62
     7
  6
CONTINUOUS
  0
LAYER
  2
HIDDEN
 70
    64
 62
     2
  6
HIDDEN
  0
LAYER
  2
DASHDOT
 70
    64
 62
     6
  6
DASHDOT
  0
LAYER
  2
DIVIDE
 70
    64
 62
     5
  6
DIVIDE
  0
ENDTAB
  0
TABLE
  2
STYLE
 70
     1
  0
STYLE
  2
STANDARD
 70
    64
 40
0.0
 41
1.0
 50
0.0
 71
     0
 42
0.2
  3
TXT
  4

  0
STYLE
  2
KANJI
 70
    64
 40
0.0
 41
1.0
 50
0.0
 71
     0
 42
0.2
  3
TXT
  4
BIGFONT
  0
ENDTAB
  0
TABLE
  2
VIEW
 70
     0
  0
ENDTAB
  0
ENDSEC
  0
SECTION
  2
BLOCKS
  0
ENDSEC
  0
SECTION
  2
ENTITIES
  0
TEXT
  8
0
 62
     7
 10
7.771739
 20
8.548913
 40
3.108696
 41
1.000000
  1
KHK SUSA2-36J25
  7
KANJI
 50
0.000000
 51
0.000000
  0
TEXT
  8
0
 62
     7
 10
7.771739
 20
3.885870
 40
3.108696
 41
1.000000
  1
The precision grade of gears after secondary operations is equivalent but not identical to its original grade.
  7
KANJI
 50
0.000000
 51
0.000000
  0
TEXT
  8
0
 62
     7
 10
7.771739
 20
139.891312
 40
3.497283
 41
1.000000
  1

  7
KANJI
 50
0.000000
 51
0.000000
  0
POLYLINE
  8
0
 62
     7
 66
     1
 70
     2
  0
VERTEX
  8
0
 10
186.521744
 20
139.891312
  0
VERTEX
  8
0
 10
183.490768
 20
145.145004
  0
VERTEX
  8
0
 10
195.614685
 20
145.145004
  0
VERTEX
  8
0
 10
192.583694
 20
139.891312
  0
VERTEX
  8
0
 10
189.552719
 20
145.145004
  0
VERTEX
  8
0
 10
186.521744
 20
139.891312
  0
SEQEND
  0
LINE
  8
0
 62
     5
 10
112.885864
 20
102.198372
 11
112.885864
 21
26.198372
  0
POLYLINE
  8
0
 62
     5
 66
     1
 70
     2
  0
VERTEX
  8
0
 10
113.663040
 20
99.478264
  0
VERTEX
  8
0
 10
112.885864
 20
102.198372
  0
VERTEX
  8
0
 10
112.108696
 20
99.478264
  0
SEQEND
  0
POLYLINE
  8
0
 62
     5
 66
     1
 70
     2
  0
VERTEX
  8
0
 10
112.108696
 20
28.918480
  0
VERTEX
  8
0
 10
112.885864
 20
26.198372
  0
VERTEX
  8
0
 10
113.663040
 20
28.918480
  0
SEQEND
  0
LINE
  8
0
 62
     5
 10
84.907608
 20
102.198372
 11
114.051628
 21
102.198372
  0
LINE
  8
0
 62
     5
 10
84.907608
 20
26.198372
 11
114.051628
 21
26.198372
  0
TEXT
  8
0
 62
     7
 10
112.108696
 20
59.632477
 40
3.885870
 41
1.000000
  1
%%c76
  7
KANJI
 50
90.000000
 51
0.000000
  0
LINE
  8
0
 62
     5
 10
64.907608
 20
117.741852
 11
84.907608
 21
117.741852
  0
POLYLINE
  8
0
 62
     5
 66
     1
 70
     2
  0
VERTEX
  8
0
 10
67.627716
 20
118.519028
  0
VERTEX
  8
0
 10
64.907608
 20
117.741852
  0
VERTEX
  8
0
 10
67.627716
 20
116.964676
  0
SEQEND
  0
POLYLINE
  8
0
 62
     5
 66
     1
 70
     2
  0
VERTEX
  8
0
 10
82.187500
 20
116.964676
  0
VERTEX
  8
0
 10
84.907608
 20
117.741852
  0
VERTEX
  8
0
 10
82.187500
 20
118.519028
  0
SEQEND
  0
LINE
  8
0
 62
     5
 10
64.907608
 20
102.198372
 11
64.907608
 21
118.907608
  0
LINE
  8
0
 62
     5
 10
84.907608
 20
102.198372
 11
84.907608
 21
118.907608
  0
TEXT
  8
0
 62
     7
 10
72.381790
 20
118.363586
 40
3.885870
 41
1.000000
  1
20
  7
KANJI
 50
0.000000
 51
0.000000
  0
LINE
  8
DASHDOT
 62
     7
 10
62.576088
 20
100.198372
 11
87.239128
 21
100.198372
  0
LINE
  8
DASHDOT
 62
     7
 10
62.576088
 20
28.198372
 11
87.239128
 21
28.198372
  0
LINE
  8
DASHDOT
 62
     7
 10
62.576088
 20
64.198372
 11
87.239128
 21
64.198372
  0
LINE
  8
0
 62
     5
 10
84.407608
 20
26.198372
 11
84.907608
 21
26.198372
  0
LINE
  8
0
 62
     5
 10
84.407608
 20
102.198372
 11
84.907608
 21
102.198372
  0
LINE
  8
0
 62
     5
 10
84.907608
 20
101.698372
 11
84.907608
 21
102.198372
  0
LINE
  8
0
 62
     5
 10
64.907608
 20
101.698372
 11
64.907608
 21
102.198372
  0
LINE
  8
0
 62
     4
 10
64.907608
 20
97.698372
 11
84.907608
 21
97.698372
  0
LINE
  8
0
 62
     4
 10
64.907608
 20
30.698372
 11
84.907608
 21
30.698372
  0
LINE
  8
0
 62
     4
 10
84.907608
 20
77.698372
 11
83.907608
 21
76.698372
  0
LINE
  8
0
 62
     4
 10
84.907608
 20
50.698372
 11
83.907608
 21
51.698372
  0
LINE
  8
0
 62
     4
 10
64.907608
 20
50.698372
 11
65.907608
 21
51.698372
  0
POLYLINE
  8
0
 62
     4
 66
     1
 70
     2
  0
VERTEX
  8
0
 10
64.907608
 20
50.698372
  0
VERTEX
  8
0
 10
64.907608
 20
26.698372
  0
VERTEX
  8
0
 10
65.407608
 20
26.198372
  0
VERTEX
  8
0
 10
84.407608
 20
26.198372
  0
VERTEX
  8
0
 10
84.907608
 20
26.698372
  0
VERTEX
  8
0
 10
84.907608
 20
101.698372
  0
VERTEX
  8
0
 10
84.407608
 20
102.198372
  0
VERTEX
  8
0
 10
65.407608
 20
102.198372
  0
VERTEX
  8
0
 10
64.907608
 20
101.698372
  0
VERTEX
  8
0
 10
64.907608
 20
50.698372
  0
SEQEND
  0
POLYLINE
  8
0
 62
     4
 66
     1
 70
     2
  0
VERTEX
  8
0
 10
64.907608
 20
77.698372
  0
VERTEX
  8
0
 10
65.907608
 20
76.698372
  0
VERTEX
  8
0
 10
65.907608
 20
51.698372
  0
VERTEX
  8
0
 10
83.907608
 20
51.698372
  0
VERTEX
  8
0
 10
83.907608
 20
76.698372
  0
VERTEX
  8
0
 10
65.907608
 20
76.698372
  0
SEQEND
  0
ARC
  8
0
 62
     4
 10
136.266296
 20
64.198372
 40
12.500000
 50
108.66292518454978
 51
71.33707481545021
  0
POLYLINE
  8
0
 62
     4
 66
     1
 70
     2
  0
VERTEX
  8
0
 10
140.266296
 20
76.041092
  0
VERTEX
  8
0
 10
140.266296
 20
79.998375
  0
VERTEX
  8
0
 10
132.266296
 20
79.998375
  0
VERTEX
  8
0
 10
132.266296
 20
76.041092
  0
SEQEND
  0
LINE
  8
0
 62
     4
 10
64.907608
 20
79.998375
 11
84.907608
 21
79.998375
  0
LINE
  8
DASHDOT
 62
     7
 10
136.266296
 20
82.329895
 11
136.266296
 21
49.366852
  0
LINE
  8
DASHDOT
 62
     7
 10
151.097824
 20
64.198372
 11
121.434784
 21
64.198372
  0
LINE
  8
0
 62
     5
 10
144.929352
 20
85.438591
 11
127.603256
 21
85.438591
  0
POLYLINE
  8
0
 62
     5
 66
     1
 70
     2
  0
VERTEX
  8
0
 10
129.546204
 20
84.661415
  0
VERTEX
  8
0
 10
132.266296
 20
85.438591
  0
VERTEX
  8
0
 10
129.546204
 20
86.215759
  0
SEQEND
  0
POLYLINE
  8
0
 62
     5
 66
     1
 70
     2
  0
VERTEX
  8
0
 10
142.986420
 20
86.215759
  0
VERTEX
  8
0
 10
140.266296
 20
85.438591
  0
VERTEX
  8
0
 10
142.986420
 20
84.661415
  0
SEQEND
  0
LINE
  8
0
 62
     5
 10
132.266296
 20
79.998375
 11
132.266296
 21
86.604347
  0
LINE
  8
0
 62
     5
 10
140.266296
 20
79.998375
 11
140.266296
 21
86.604347
  0
TEXT
  8
0
 62
     7
 10
128.245102
 20
86.215759
 40
3.885870
 41
1.000000
  1
8
  7
KANJI
 50
0.000000
 51
0.000000
  0
TEXT
  8
0
 62
     7
 10
132.091644
 20
86.215759
 40
3.108696
 41
1.000000
  1
%%p0.018
  7
KANJI
 50
0.000000
 51
0.000000
  0
LINE
  8
0
 62
     5
 10
167.467392
 20
79.998375
 11
167.467392
 21
51.698372
  0
POLYLINE
  8
0
 62
     5
 66
     1
 70
     2
  0
VERTEX
  8
0
 10
168.244568
 20
77.278259
  0
VERTEX
  8
0
 10
167.467392
 20
79.998375
  0
VERTEX
  8
0
 10
166.690216
 20
77.278259
  0
SEQEND
  0
POLYLINE
  8
0
 62
     5
 66
     1
 70
     2
  0
VERTEX
  8
0
 10
166.690216
 20
54.418480
  0
VERTEX
  8
0
 10
167.467392
 20
51.698372
  0
VERTEX
  8
0
 10
168.244568
 20
54.418480
  0
SEQEND
  0
LINE
  8
0
 62
     5
 10
140.266296
 20
79.998375
 11
168.633148
 21
79.998375
  0
LINE
  8
0
 62
     5
 10
136.266296
 20
51.698372
 11
168.633148
 21
51.698372
  0
TEXT
  8
0
 62
     7
 10
166.301636
 20
51.938366
 40
3.885870
 41
1.000000
  1
28.3
  7
KANJI
 50
90.000000
 51
0.000000
  0
TEXT
  8
0
 62
     7
 10
166.534790
 20
68.757950
 40
1.942935
 41
1.000000
  1
 
  7
KANJI
 50
90.000000
 51
0.000000
  0
TEXT
  8
0
 62
     7
 10
164.125549
 20
68.757950
 40
1.942935
 41
1.000000
  1
+
  7
KANJI
 50
90.000000
 51
0.000000
  0
TEXT
  8
0
 62
     7
 10
166.534790
 20
70.934036
 40
1.942935
 41
1.000000
  1
0
  7
KANJI
 50
90.000000
 51
0.000000
  0
TEXT
  8
0
 62
     7
 10
164.125549
 20
70.934036
 40
1.942935
 41
1.000000
  1
0.2
  7
KANJI
 50
90.000000
 51
0.000000
  0
LINE
  8
0
 62
     5
 10
100.451088
 20
76.698372
 11
100.451088
 21
51.698372
  0
POLYLINE
  8
0
 62
     5
 66
     1
 70
     2
  0
VERTEX
  8
0
 10
99.673920
 20
54.418480
  0
VERTEX
  8
0
 10
100.451088
 20
51.698372
  0
VERTEX
  8
0
 10
101.228256
 20
54.418480
  0
SEQEND
  0
LINE
  8
0
 62
     5
 10
84.907608
 20
51.698372
 11
101.616852
 21
51.698372
  0
TEXT
  8
0
 62
     7
 10
99.673920
 20
57.106659
 40
3.885870
 41
1.000000
  1
%%c25H7
  7
KANJI
 50
90.000000
 51
0.000000
  0
ENDSEC
  0
EOF
