  0
SECTION
  2
HEADER
  9
$ACADVER
  1
AC1003
  9
$INSBASE
 10
0.000000
 20
0.000000
  9
$EXTMIN
 10
0.000000
 20
0.000000
  9
$EXTMAX
 10
419.551630
 20
290.115489
  9
$LIMMIN
 10
0.000000
 20
0.000000
  9
$LIMMAX
 10
419.551630
 20
290.115489
  9
$VIEWCTR
 10
209.775815
 20
145.057745
  9
$VIEWSIZE
 40
290.115489
  0
ENDSEC
  0
SECTION
  2
TABLES
  0
TABLE
  2
LTYPE
 70
     4
  0
LTYPE
  2
CONTINUOUS
 70
    64
  3
SolidLine
 72
    65
 73
     0
 40
0.0
  0
LTYPE
  2
HIDDEN
 70
    64
  3
------------------------
 72
    65
 73
     2
 40
4.463315
 49
2.975543
 49
-1.487772
  0
LTYPE
  2
DASHDOT
 70
    64
  3
--?--?--?--?--?--?--?--
 72
    65
 73
     4
 40
17.853261
 49
13.389946
 49
-1.487772
 49
1.487772
 49
-1.487772
  0
LTYPE
  2
DIVIDE
 70
    64
  3
--??--??--??--??--??--
 72
    65
 73
     6
 40
22.316576
 49
14.877717
 49
-1.487772
 49
1.487772
 49
-1.487772
 49
1.487772
 49
-1.487772
  0
ENDTAB
  0
TABLE
  2
LAYER
 70
     5
  0
LAYER
  2
0
 70
    64
 62
     7
  6
CONTINUOUS
  0
LAYER
  2
HIDDEN
 70
    64
 62
     2
  6
HIDDEN
  0
LAYER
  2
DASHDOT
 70
    64
 62
     6
  6
DASHDOT
  0
LAYER
  2
DIVIDE
 70
    64
 62
     5
  6
DIVIDE
  0
ENDTAB
  0
TABLE
  2
STYLE
 70
     1
  0
STYLE
  2
STANDARD
 70
    64
 40
0.0
 41
1.0
 50
0.0
 71
     0
 42
0.2
  3
TXT
  4

  0
STYLE
  2
KANJI
 70
    64
 40
0.0
 41
1.0
 50
0.0
 71
     0
 42
0.2
  3
TXT
  4
BIGFONT
  0
ENDTAB
  0
TABLE
  2
VIEW
 70
     0
  0
ENDTAB
  0
ENDSEC
  0
SECTION
  2
BLOCKS
  0
ENDSEC
  0
SECTION
  2
ENTITIES
  0
TEXT
  8
0
 62
     7
 10
14.877717
 20
16.365490
 40
5.951087
 41
1.000000
  1
KHK SUSA2.5-55J32
  7
KANJI
 50
0.000000
 51
0.000000
  0
TEXT
  8
0
 62
     7
 10
14.877717
 20
7.438859
 40
5.951087
 41
1.000000
  1
The precision grade of gears after secondary operations is equivalent but not identical to its original grade.
  7
KANJI
 50
0.000000
 51
0.000000
  0
TEXT
  8
0
 62
     7
 10
14.877717
 20
267.798920
 40
6.694973
 41
1.000000
  1

  7
KANJI
 50
0.000000
 51
0.000000
  0
POLYLINE
  8
0
 62
     7
 66
     1
 70
     2
  0
VERTEX
  8
0
 10
357.065216
 20
267.798920
  0
VERTEX
  8
0
 10
351.262909
 20
277.856262
  0
VERTEX
  8
0
 10
374.472137
 20
277.856262
  0
VERTEX
  8
0
 10
368.669830
 20
267.798920
  0
VERTEX
  8
0
 10
362.867523
 20
277.856262
  0
VERTEX
  8
0
 10
357.065216
 20
267.798920
  0
SEQEND
  0
LINE
  8
0
 62
     5
 10
214.751358
 20
195.641983
 11
214.751358
 21
53.141983
  0
POLYLINE
  8
0
 62
     5
 66
     1
 70
     2
  0
VERTEX
  8
0
 10
216.239136
 20
190.434784
  0
VERTEX
  8
0
 10
214.751358
 20
195.641983
  0
VERTEX
  8
0
 10
213.263580
 20
190.434784
  0
SEQEND
  0
POLYLINE
  8
0
 62
     5
 66
     1
 70
     2
  0
VERTEX
  8
0
 10
213.263580
 20
58.349182
  0
VERTEX
  8
0
 10
214.751358
 20
53.141983
  0
VERTEX
  8
0
 10
216.239136
 20
58.349182
  0
SEQEND
  0
LINE
  8
0
 62
     5
 10
161.191574
 20
195.641983
 11
216.983017
 21
195.641983
  0
LINE
  8
0
 62
     5
 10
161.191574
 20
53.141983
 11
216.983017
 21
53.141983
  0
TEXT
  8
0
 62
     7
 10
213.263580
 20
108.398438
 40
7.438859
 41
1.000000
  1
%%c142.5
  7
KANJI
 50
90.000000
 51
0.000000
  0
LINE
  8
0
 62
     5
 10
136.191574
 20
225.397415
 11
161.191574
 21
225.397415
  0
POLYLINE
  8
0
 62
     5
 66
     1
 70
     2
  0
VERTEX
  8
0
 10
141.398773
 20
226.885193
  0
VERTEX
  8
0
 10
136.191574
 20
225.397415
  0
VERTEX
  8
0
 10
141.398773
 20
223.909637
  0
SEQEND
  0
POLYLINE
  8
0
 62
     5
 66
     1
 70
     2
  0
VERTEX
  8
0
 10
155.984375
 20
223.909637
  0
VERTEX
  8
0
 10
161.191574
 20
225.397415
  0
VERTEX
  8
0
 10
155.984375
 20
226.885193
  0
SEQEND
  0
LINE
  8
0
 62
     5
 10
136.191574
 20
195.641983
 11
136.191574
 21
227.629074
  0
LINE
  8
0
 62
     5
 10
161.191574
 20
195.641983
 11
161.191574
 21
227.629074
  0
TEXT
  8
0
 62
     7
 10
143.856323
 20
226.587631
 40
7.438859
 41
1.000000
  1
25
  7
KANJI
 50
0.000000
 51
0.000000
  0
LINE
  8
DASHDOT
 62
     7
 10
131.728256
 20
193.141983
 11
165.654892
 21
193.141983
  0
LINE
  8
DASHDOT
 62
     7
 10
131.728256
 20
55.641983
 11
165.654892
 21
55.641983
  0
LINE
  8
DASHDOT
 62
     7
 10
131.728256
 20
124.391983
 11
165.654892
 21
124.391983
  0
LINE
  8
0
 62
     5
 10
160.191574
 20
53.141983
 11
161.191574
 21
53.141983
  0
LINE
  8
0
 62
     5
 10
160.191574
 20
195.641983
 11
161.191574
 21
195.641983
  0
LINE
  8
0
 62
     5
 10
161.191574
 20
194.641983
 11
161.191574
 21
195.641983
  0
LINE
  8
0
 62
     5
 10
136.191574
 20
194.641983
 11
136.191574
 21
195.641983
  0
LINE
  8
0
 62
     4
 10
136.191574
 20
190.016983
 11
161.191574
 21
190.016983
  0
LINE
  8
0
 62
     4
 10
136.191574
 20
58.766983
 11
161.191574
 21
58.766983
  0
LINE
  8
0
 62
     4
 10
161.191574
 20
141.391983
 11
160.191574
 21
140.391983
  0
LINE
  8
0
 62
     4
 10
161.191574
 20
107.391983
 11
160.191574
 21
108.391983
  0
LINE
  8
0
 62
     4
 10
136.191574
 20
107.391983
 11
137.191574
 21
108.391983
  0
POLYLINE
  8
0
 62
     4
 66
     1
 70
     2
  0
VERTEX
  8
0
 10
136.191574
 20
107.391983
  0
VERTEX
  8
0
 10
136.191574
 20
54.141983
  0
VERTEX
  8
0
 10
137.191574
 20
53.141983
  0
VERTEX
  8
0
 10
160.191574
 20
53.141983
  0
VERTEX
  8
0
 10
161.191574
 20
54.141983
  0
VERTEX
  8
0
 10
161.191574
 20
194.641983
  0
VERTEX
  8
0
 10
160.191574
 20
195.641983
  0
VERTEX
  8
0
 10
137.191574
 20
195.641983
  0
VERTEX
  8
0
 10
136.191574
 20
194.641983
  0
VERTEX
  8
0
 10
136.191574
 20
107.391983
  0
SEQEND
  0
POLYLINE
  8
0
 62
     4
 66
     1
 70
     2
  0
VERTEX
  8
0
 10
136.191574
 20
141.391983
  0
VERTEX
  8
0
 10
137.191574
 20
140.391983
  0
VERTEX
  8
0
 10
137.191574
 20
108.391983
  0
VERTEX
  8
0
 10
160.191574
 20
108.391983
  0
VERTEX
  8
0
 10
160.191574
 20
140.391983
  0
VERTEX
  8
0
 10
137.191574
 20
140.391983
  0
SEQEND
  0
ARC
  8
0
 62
     4
 10
251.580170
 20
124.391983
 40
16.000000
 50
108.20995732853793
 51
71.79004267146207
  0
POLYLINE
  8
0
 62
     4
 66
     1
 70
     2
  0
VERTEX
  8
0
 10
256.580170
 20
139.590668
  0
VERTEX
  8
0
 10
256.580170
 20
143.691986
  0
VERTEX
  8
0
 10
246.580170
 20
143.691986
  0
VERTEX
  8
0
 10
246.580170
 20
139.590668
  0
SEQEND
  0
LINE
  8
0
 62
     4
 10
136.191574
 20
143.691986
 11
161.191574
 21
143.691986
  0
LINE
  8
DASHDOT
 62
     7
 10
251.580170
 20
148.155304
 11
251.580170
 21
103.928665
  0
LINE
  8
DASHDOT
 62
     7
 10
272.043457
 20
124.391983
 11
231.116852
 21
124.391983
  0
LINE
  8
0
 62
     5
 10
265.506775
 20
154.106384
 11
237.653534
 21
154.106384
  0
POLYLINE
  8
0
 62
     5
 66
     1
 70
     2
  0
VERTEX
  8
0
 10
241.372955
 20
152.618607
  0
VERTEX
  8
0
 10
246.580170
 20
154.106384
  0
VERTEX
  8
0
 10
241.372955
 20
155.594162
  0
SEQEND
  0
POLYLINE
  8
0
 62
     5
 66
     1
 70
     2
  0
VERTEX
  8
0
 10
261.787354
 20
155.594162
  0
VERTEX
  8
0
 10
256.580170
 20
154.106384
  0
VERTEX
  8
0
 10
261.787354
 20
152.618607
  0
SEQEND
  0
LINE
  8
0
 62
     5
 10
246.580170
 20
143.691986
 11
246.580170
 21
156.338043
  0
LINE
  8
0
 62
     5
 10
256.580170
 20
143.691986
 11
256.580170
 21
156.338043
  0
TEXT
  8
0
 62
     7
 10
232.505463
 20
155.594162
 40
7.438859
 41
1.000000
  1
10
  7
KANJI
 50
0.000000
 51
0.000000
  0
TEXT
  8
0
 62
     7
 10
245.076202
 20
155.594162
 40
5.951087
 41
1.000000
  1
%%p0.018
  7
KANJI
 50
0.000000
 51
0.000000
  0
LINE
  8
0
 62
     5
 10
308.652161
 20
143.691986
 11
308.652161
 21
108.391983
  0
POLYLINE
  8
0
 62
     5
 66
     1
 70
     2
  0
VERTEX
  8
0
 10
310.139954
 20
138.484787
  0
VERTEX
  8
0
 10
308.652161
 20
143.691986
  0
VERTEX
  8
0
 10
307.164398
 20
138.484787
  0
SEQEND
  0
POLYLINE
  8
0
 62
     5
 66
     1
 70
     2
  0
VERTEX
  8
0
 10
307.164398
 20
113.599182
  0
VERTEX
  8
0
 10
308.652161
 20
108.391983
  0
VERTEX
  8
0
 10
310.139954
 20
113.599182
  0
SEQEND
  0
LINE
  8
0
 62
     5
 10
256.580170
 20
143.691986
 11
310.883850
 21
143.691986
  0
LINE
  8
0
 62
     5
 10
251.580170
 20
108.391983
 11
310.883850
 21
108.391983
  0
TEXT
  8
0
 62
     7
 10
306.420532
 20
101.301132
 40
7.438859
 41
1.000000
  1
35.3
  7
KANJI
 50
90.000000
 51
0.000000
  0
TEXT
  8
0
 62
     7
 10
306.866852
 20
133.499451
 40
3.719429
 41
1.000000
  1
 
  7
KANJI
 50
90.000000
 51
0.000000
  0
TEXT
  8
0
 62
     7
 10
302.254761
 20
133.499451
 40
3.719429
 41
1.000000
  1
+
  7
KANJI
 50
90.000000
 51
0.000000
  0
TEXT
  8
0
 62
     7
 10
306.866852
 20
137.665222
 40
3.719429
 41
1.000000
  1
0
  7
KANJI
 50
90.000000
 51
0.000000
  0
TEXT
  8
0
 62
     7
 10
302.254761
 20
137.665222
 40
3.719429
 41
1.000000
  1
0.2
  7
KANJI
 50
90.000000
 51
0.000000
  0
LINE
  8
0
 62
     5
 10
190.947006
 20
140.391983
 11
190.947006
 21
108.391983
  0
POLYLINE
  8
0
 62
     5
 66
     1
 70
     2
  0
VERTEX
  8
0
 10
189.459229
 20
113.599182
  0
VERTEX
  8
0
 10
190.947006
 20
108.391983
  0
VERTEX
  8
0
 10
192.434784
 20
113.599182
  0
SEQEND
  0
LINE
  8
0
 62
     5
 10
161.191574
 20
108.391983
 11
193.178665
 21
108.391983
  0
TEXT
  8
0
 62
     7
 10
189.459229
 20
110.816071
 40
7.438859
 41
1.000000
  1
%%c32H7
  7
KANJI
 50
90.000000
 51
0.000000
  0
ENDSEC
  0
EOF
