  0
SECTION
  2
HEADER
  9
$ACADVER
  1
AC1003
  9
$INSBASE
 10
0.000000
 20
0.000000
  9
$EXTMIN
 10
0.000000
 20
0.000000
  9
$EXTMAX
 10
292.728261
 20
202.418478
  9
$LIMMIN
 10
0.000000
 20
0.000000
  9
$LIMMAX
 10
292.728261
 20
202.418478
  9
$VIEWCTR
 10
146.364130
 20
101.209239
  9
$VIEWSIZE
 40
202.418478
  0
ENDSEC
  0
SECTION
  2
TABLES
  0
TABLE
  2
LTYPE
 70
     4
  0
LTYPE
  2
CONTINUOUS
 70
    64
  3
SolidLine
 72
    65
 73
     0
 40
0.0
  0
LTYPE
  2
HIDDEN
 70
    64
  3
------------------------
 72
    65
 73
     2
 40
3.114130
 49
2.076087
 49
-1.038043
  0
LTYPE
  2
DASHDOT
 70
    64
  3
--?--?--?--?--?--?--?--
 72
    65
 73
     4
 40
12.456522
 49
9.342391
 49
-1.038043
 49
1.038043
 49
-1.038043
  0
LTYPE
  2
DIVIDE
 70
    64
  3
--??--??--??--??--??--
 72
    65
 73
     6
 40
15.570652
 49
10.380435
 49
-1.038043
 49
1.038043
 49
-1.038043
 49
1.038043
 49
-1.038043
  0
ENDTAB
  0
TABLE
  2
LAYER
 70
     5
  0
LAYER
  2
0
 70
    64
 62
     7
  6
CONTINUOUS
  0
LAYER
  2
HIDDEN
 70
    64
 62
     2
  6
HIDDEN
  0
LAYER
  2
DASHDOT
 70
    64
 62
     6
  6
DASHDOT
  0
LAYER
  2
DIVIDE
 70
    64
 62
     5
  6
DIVIDE
  0
ENDTAB
  0
TABLE
  2
STYLE
 70
     1
  0
STYLE
  2
STANDARD
 70
    64
 40
0.0
 41
1.0
 50
0.0
 71
     0
 42
0.2
  3
TXT
  4

  0
STYLE
  2
KANJI
 70
    64
 40
0.0
 41
1.0
 50
0.0
 71
     0
 42
0.2
  3
TXT
  4
BIGFONT
  0
ENDTAB
  0
TABLE
  2
VIEW
 70
     0
  0
ENDTAB
  0
ENDSEC
  0
SECTION
  2
BLOCKS
  0
ENDSEC
  0
SECTION
  2
ENTITIES
  0
TEXT
  8
0
 62
     7
 10
10.380435
 20
11.418478
 40
4.152174
 41
1.000000
  1
KHK SUSA2-48J16
  7
KANJI
 50
0.000000
 51
0.000000
  0
TEXT
  8
0
 62
     7
 10
10.380435
 20
5.190217
 40
4.152174
 41
1.000000
  1
The precision grade of gears after secondary operations is equivalent but not identical to its original grade.
  7
KANJI
 50
0.000000
 51
0.000000
  0
TEXT
  8
0
 62
     7
 10
10.380435
 20
186.847824
 40
4.671196
 41
1.000000
  1

  7
KANJI
 50
0.000000
 51
0.000000
  0
POLYLINE
  8
0
 62
     7
 66
     1
 70
     2
  0
VERTEX
  8
0
 10
249.130432
 20
186.847824
  0
VERTEX
  8
0
 10
245.082062
 20
193.864990
  0
VERTEX
  8
0
 10
261.275543
 20
193.864990
  0
VERTEX
  8
0
 10
257.227173
 20
186.847824
  0
VERTEX
  8
0
 10
253.178802
 20
193.864990
  0
VERTEX
  8
0
 10
249.130432
 20
186.847824
  0
SEQEND
  0
LINE
  8
0
 62
     5
 10
153.190231
 20
136.502716
 11
153.190231
 21
36.502716
  0
POLYLINE
  8
0
 62
     5
 66
     1
 70
     2
  0
VERTEX
  8
0
 10
154.228271
 20
132.869568
  0
VERTEX
  8
0
 10
153.190231
 20
136.502716
  0
VERTEX
  8
0
 10
152.152191
 20
132.869568
  0
SEQEND
  0
POLYLINE
  8
0
 62
     5
 66
     1
 70
     2
  0
VERTEX
  8
0
 10
152.152191
 20
40.135868
  0
VERTEX
  8
0
 10
153.190231
 20
36.502716
  0
VERTEX
  8
0
 10
154.228271
 20
40.135868
  0
SEQEND
  0
LINE
  8
0
 62
     5
 10
115.820663
 20
136.502716
 11
154.747284
 21
136.502716
  0
LINE
  8
0
 62
     5
 10
115.820663
 20
36.502716
 11
154.747284
 21
36.502716
  0
TEXT
  8
0
 62
     7
 10
152.152191
 20
78.717392
 40
5.190217
 41
1.000000
  1
%%c100
  7
KANJI
 50
90.000000
 51
0.000000
  0
LINE
  8
0
 62
     5
 10
95.820663
 20
157.263580
 11
115.820663
 21
157.263580
  0
POLYLINE
  8
0
 62
     5
 66
     1
 70
     2
  0
VERTEX
  8
0
 10
99.453819
 20
158.301636
  0
VERTEX
  8
0
 10
95.820663
 20
157.263580
  0
VERTEX
  8
0
 10
99.453819
 20
156.225555
  0
SEQEND
  0
POLYLINE
  8
0
 62
     5
 66
     1
 70
     2
  0
VERTEX
  8
0
 10
112.187515
 20
156.225555
  0
VERTEX
  8
0
 10
115.820663
 20
157.263580
  0
VERTEX
  8
0
 10
112.187515
 20
158.301636
  0
SEQEND
  0
LINE
  8
0
 62
     5
 10
95.820663
 20
136.502716
 11
95.820663
 21
158.820648
  0
LINE
  8
0
 62
     5
 10
115.820663
 20
136.502716
 11
115.820663
 21
158.820648
  0
TEXT
  8
0
 62
     7
 10
102.447021
 20
158.094025
 40
5.190217
 41
1.000000
  1
20
  7
KANJI
 50
0.000000
 51
0.000000
  0
LINE
  8
DASHDOT
 62
     7
 10
92.706535
 20
134.502716
 11
118.934792
 21
134.502716
  0
LINE
  8
DASHDOT
 62
     7
 10
92.706535
 20
38.502716
 11
118.934792
 21
38.502716
  0
LINE
  8
DASHDOT
 62
     7
 10
92.706535
 20
86.502716
 11
118.934792
 21
86.502716
  0
LINE
  8
0
 62
     5
 10
115.320663
 20
36.502716
 11
115.820663
 21
36.502716
  0
LINE
  8
0
 62
     5
 10
115.320663
 20
136.502716
 11
115.820663
 21
136.502716
  0
LINE
  8
0
 62
     5
 10
115.820663
 20
136.002716
 11
115.820663
 21
136.502716
  0
LINE
  8
0
 62
     5
 10
95.820663
 20
136.002716
 11
95.820663
 21
136.502716
  0
LINE
  8
0
 62
     4
 10
95.820663
 20
132.002716
 11
115.820663
 21
132.002716
  0
LINE
  8
0
 62
     4
 10
95.820663
 20
41.002716
 11
115.820663
 21
41.002716
  0
LINE
  8
0
 62
     4
 10
115.820663
 20
95.002716
 11
115.320663
 21
94.502716
  0
LINE
  8
0
 62
     4
 10
115.820663
 20
78.002716
 11
115.320663
 21
78.502716
  0
LINE
  8
0
 62
     4
 10
95.820663
 20
78.002716
 11
96.320663
 21
78.502716
  0
POLYLINE
  8
0
 62
     4
 66
     1
 70
     2
  0
VERTEX
  8
0
 10
95.820663
 20
78.002716
  0
VERTEX
  8
0
 10
95.820663
 20
37.002716
  0
VERTEX
  8
0
 10
96.320663
 20
36.502716
  0
VERTEX
  8
0
 10
115.320663
 20
36.502716
  0
VERTEX
  8
0
 10
115.820663
 20
37.002716
  0
VERTEX
  8
0
 10
115.820663
 20
136.002716
  0
VERTEX
  8
0
 10
115.320663
 20
136.502716
  0
VERTEX
  8
0
 10
96.320663
 20
136.502716
  0
VERTEX
  8
0
 10
95.820663
 20
136.002716
  0
VERTEX
  8
0
 10
95.820663
 20
78.002716
  0
SEQEND
  0
POLYLINE
  8
0
 62
     4
 66
     1
 70
     2
  0
VERTEX
  8
0
 10
95.820663
 20
95.002716
  0
VERTEX
  8
0
 10
96.320663
 20
94.502716
  0
VERTEX
  8
0
 10
96.320663
 20
78.502716
  0
VERTEX
  8
0
 10
115.320663
 20
78.502716
  0
VERTEX
  8
0
 10
115.320663
 20
94.502716
  0
VERTEX
  8
0
 10
96.320663
 20
94.502716
  0
SEQEND
  0
ARC
  8
0
 62
     4
 10
175.722839
 20
86.502716
 40
8.000000
 50
108.20995732853793
 51
71.79004267146207
  0
POLYLINE
  8
0
 62
     4
 66
     1
 70
     2
  0
VERTEX
  8
0
 10
178.222839
 20
94.102058
  0
VERTEX
  8
0
 10
178.222839
 20
96.802719
  0
VERTEX
  8
0
 10
173.222839
 20
96.802719
  0
VERTEX
  8
0
 10
173.222839
 20
94.102058
  0
SEQEND
  0
LINE
  8
0
 62
     4
 10
95.820663
 20
96.802719
 11
115.820663
 21
96.802719
  0
LINE
  8
DASHDOT
 62
     7
 10
175.722839
 20
99.916847
 11
175.722839
 21
75.388588
  0
LINE
  8
DASHDOT
 62
     7
 10
186.836975
 20
86.502716
 11
164.608704
 21
86.502716
  0
LINE
  8
0
 62
     5
 10
184.451111
 20
104.069023
 11
166.994568
 21
104.069023
  0
POLYLINE
  8
0
 62
     5
 66
     1
 70
     2
  0
VERTEX
  8
0
 10
169.589691
 20
103.030975
  0
VERTEX
  8
0
 10
173.222839
 20
104.069023
  0
VERTEX
  8
0
 10
169.589691
 20
105.107063
  0
SEQEND
  0
POLYLINE
  8
0
 62
     5
 66
     1
 70
     2
  0
VERTEX
  8
0
 10
181.855988
 20
105.107063
  0
VERTEX
  8
0
 10
178.222839
 20
104.069023
  0
VERTEX
  8
0
 10
181.855988
 20
103.030975
  0
SEQEND
  0
LINE
  8
0
 62
     5
 10
173.222839
 20
96.802719
 11
173.222839
 21
105.626083
  0
LINE
  8
0
 62
     5
 10
178.222839
 20
96.802719
 11
178.222839
 21
105.626083
  0
TEXT
  8
0
 62
     7
 10
165.009201
 20
105.107063
 40
5.190217
 41
1.000000
  1
5
  7
KANJI
 50
0.000000
 51
0.000000
  0
TEXT
  8
0
 62
     7
 10
170.146881
 20
105.107063
 40
4.152174
 41
1.000000
  1
%%p0.015
  7
KANJI
 50
0.000000
 51
0.000000
  0
LINE
  8
0
 62
     5
 10
214.554352
 20
72.274460
 11
214.554352
 21
103.030975
  0
POLYLINE
  8
0
 62
     5
 66
     1
 70
     2
  0
VERTEX
  8
0
 10
213.516327
 20
100.435867
  0
VERTEX
  8
0
 10
214.554352
 20
96.802719
  0
VERTEX
  8
0
 10
215.592407
 20
100.435867
  0
SEQEND
  0
POLYLINE
  8
0
 62
     5
 66
     1
 70
     2
  0
VERTEX
  8
0
 10
215.592407
 20
74.869568
  0
VERTEX
  8
0
 10
214.554352
 20
78.502716
  0
VERTEX
  8
0
 10
213.516327
 20
74.869568
  0
SEQEND
  0
LINE
  8
0
 62
     5
 10
178.222839
 20
96.802719
 11
216.111420
 21
96.802719
  0
LINE
  8
0
 62
     5
 10
175.722839
 20
78.502716
 11
216.111420
 21
78.502716
  0
TEXT
  8
0
 62
     7
 10
212.997284
 20
71.023544
 40
5.190217
 41
1.000000
  1
18.3
  7
KANJI
 50
90.000000
 51
0.000000
  0
TEXT
  8
0
 62
     7
 10
213.308716
 20
93.488861
 40
2.595109
 41
1.000000
  1
 
  7
KANJI
 50
90.000000
 51
0.000000
  0
TEXT
  8
0
 62
     7
 10
210.090775
 20
93.488861
 40
2.595109
 41
1.000000
  1
+
  7
KANJI
 50
90.000000
 51
0.000000
  0
TEXT
  8
0
 62
     7
 10
213.308716
 20
96.395386
 40
2.595109
 41
1.000000
  1
0
  7
KANJI
 50
90.000000
 51
0.000000
  0
TEXT
  8
0
 62
     7
 10
210.090775
 20
96.395386
 40
2.595109
 41
1.000000
  1
0.1
  7
KANJI
 50
90.000000
 51
0.000000
  0
LINE
  8
0
 62
     5
 10
136.581543
 20
94.502716
 11
136.581543
 21
78.502716
  0
POLYLINE
  8
0
 62
     5
 66
     1
 70
     2
  0
VERTEX
  8
0
 10
135.543488
 20
82.135864
  0
VERTEX
  8
0
 10
136.581543
 20
78.502716
  0
VERTEX
  8
0
 10
137.619583
 20
82.135864
  0
SEQEND
  0
LINE
  8
0
 62
     5
 10
115.820663
 20
78.502716
 11
138.138596
 21
78.502716
  0
TEXT
  8
0
 62
     7
 10
135.543488
 20
77.030571
 40
5.190217
 41
1.000000
  1
%%c16H7
  7
KANJI
 50
90.000000
 51
0.000000
  0
ENDSEC
  0
EOF
