  0
SECTION
  2
HEADER
  9
$ACADVER
  1
AC1003
  9
$INSBASE
 10
0.000000
 20
0.000000
  9
$EXTMIN
 10
0.000000
 20
0.000000
  9
$EXTMAX
 10
390.815217
 20
270.244565
  9
$LIMMIN
 10
0.000000
 20
0.000000
  9
$LIMMAX
 10
390.815217
 20
270.244565
  9
$VIEWCTR
 10
195.407609
 20
135.122283
  9
$VIEWSIZE
 40
270.244565
  0
ENDSEC
  0
SECTION
  2
TABLES
  0
TABLE
  2
LTYPE
 70
     4
  0
LTYPE
  2
CONTINUOUS
 70
    64
  3
SolidLine
 72
    65
 73
     0
 40
0.0
  0
LTYPE
  2
HIDDEN
 70
    64
  3
------------------------
 72
    65
 73
     2
 40
4.157609
 49
2.771739
 49
-1.385870
  0
LTYPE
  2
DASHDOT
 70
    64
  3
--?--?--?--?--?--?--?--
 72
    65
 73
     4
 40
16.630435
 49
12.472826
 49
-1.385870
 49
1.385870
 49
-1.385870
  0
LTYPE
  2
DIVIDE
 70
    64
  3
--??--??--??--??--??--
 72
    65
 73
     6
 40
20.788043
 49
13.858696
 49
-1.385870
 49
1.385870
 49
-1.385870
 49
1.385870
 49
-1.385870
  0
ENDTAB
  0
TABLE
  2
LAYER
 70
     5
  0
LAYER
  2
0
 70
    64
 62
     7
  6
CONTINUOUS
  0
LAYER
  2
HIDDEN
 70
    64
 62
     2
  6
HIDDEN
  0
LAYER
  2
DASHDOT
 70
    64
 62
     6
  6
DASHDOT
  0
LAYER
  2
DIVIDE
 70
    64
 62
     5
  6
DIVIDE
  0
ENDTAB
  0
TABLE
  2
STYLE
 70
     1
  0
STYLE
  2
STANDARD
 70
    64
 40
0.0
 41
1.0
 50
0.0
 71
     0
 42
0.2
  3
TXT
  4

  0
STYLE
  2
KANJI
 70
    64
 40
0.0
 41
1.0
 50
0.0
 71
     0
 42
0.2
  3
TXT
  4
BIGFONT
  0
ENDTAB
  0
TABLE
  2
VIEW
 70
     0
  0
ENDTAB
  0
ENDSEC
  0
SECTION
  2
BLOCKS
  0
ENDSEC
  0
SECTION
  2
ENTITIES
  0
TEXT
  8
0
 62
     7
 10
13.858696
 20
15.244565
 40
5.543478
 41
1.000000
  1
KHK SUSA2-64J22
  7
KANJI
 50
0.000000
 51
0.000000
  0
TEXT
  8
0
 62
     7
 10
13.858696
 20
6.929348
 40
5.543478
 41
1.000000
  1
The precision grade of gears after secondary operations is equivalent but not identical to its original grade.
  7
KANJI
 50
0.000000
 51
0.000000
  0
TEXT
  8
0
 62
     7
 10
13.858696
 20
249.456528
 40
6.236413
 41
1.000000
  1

  7
KANJI
 50
0.000000
 51
0.000000
  0
POLYLINE
  8
0
 62
     7
 66
     1
 70
     2
  0
VERTEX
  8
0
 10
332.608704
 20
249.456528
  0
VERTEX
  8
0
 10
327.203827
 20
258.825012
  0
VERTEX
  8
0
 10
348.823364
 20
258.825012
  0
VERTEX
  8
0
 10
343.418488
 20
249.456528
  0
VERTEX
  8
0
 10
338.013580
 20
258.825012
  0
VERTEX
  8
0
 10
332.608704
 20
249.456528
  0
SEQEND
  0
LINE
  8
0
 62
     5
 10
201.179352
 20
182.241852
 11
201.179352
 21
50.241852
  0
POLYLINE
  8
0
 62
     5
 66
     1
 70
     2
  0
VERTEX
  8
0
 10
202.565216
 20
177.391312
  0
VERTEX
  8
0
 10
201.179352
 20
182.241852
  0
VERTEX
  8
0
 10
199.793472
 20
177.391312
  0
SEQEND
  0
POLYLINE
  8
0
 62
     5
 66
     1
 70
     2
  0
VERTEX
  8
0
 10
199.793472
 20
55.092396
  0
VERTEX
  8
0
 10
201.179352
 20
50.241852
  0
VERTEX
  8
0
 10
202.565216
 20
55.092396
  0
SEQEND
  0
LINE
  8
0
 62
     5
 10
151.288040
 20
182.241852
 11
203.258148
 21
182.241852
  0
LINE
  8
0
 62
     5
 10
151.288040
 20
50.241852
 11
203.258148
 21
50.241852
  0
TEXT
  8
0
 62
     7
 10
199.793472
 20
105.847832
 40
6.929348
 41
1.000000
  1
%%c132
  7
KANJI
 50
90.000000
 51
0.000000
  0
LINE
  8
0
 62
     5
 10
131.288040
 20
209.959244
 11
151.288040
 21
209.959244
  0
POLYLINE
  8
0
 62
     5
 66
     1
 70
     2
  0
VERTEX
  8
0
 10
136.138580
 20
211.345123
  0
VERTEX
  8
0
 10
131.288040
 20
209.959244
  0
VERTEX
  8
0
 10
136.138580
 20
208.573364
  0
SEQEND
  0
POLYLINE
  8
0
 62
     5
 66
     1
 70
     2
  0
VERTEX
  8
0
 10
146.437500
 20
208.573364
  0
VERTEX
  8
0
 10
151.288040
 20
209.959244
  0
VERTEX
  8
0
 10
146.437500
 20
211.345123
  0
SEQEND
  0
LINE
  8
0
 62
     5
 10
131.288040
 20
182.241852
 11
131.288040
 21
212.038055
  0
LINE
  8
0
 62
     5
 10
151.288040
 20
182.241852
 11
151.288040
 21
212.038055
  0
TEXT
  8
0
 62
     7
 10
136.783966
 20
211.067932
 40
6.929348
 41
1.000000
  1
20
  7
KANJI
 50
0.000000
 51
0.000000
  0
LINE
  8
DASHDOT
 62
     7
 10
127.130432
 20
180.241852
 11
155.445648
 21
180.241852
  0
LINE
  8
DASHDOT
 62
     7
 10
127.130432
 20
52.241852
 11
155.445648
 21
52.241852
  0
LINE
  8
DASHDOT
 62
     7
 10
127.130432
 20
116.241852
 11
155.445648
 21
116.241852
  0
LINE
  8
0
 62
     5
 10
150.788040
 20
50.241852
 11
151.288040
 21
50.241852
  0
LINE
  8
0
 62
     5
 10
150.788040
 20
182.241852
 11
151.288040
 21
182.241852
  0
LINE
  8
0
 62
     5
 10
151.288040
 20
181.741852
 11
151.288040
 21
182.241852
  0
LINE
  8
0
 62
     5
 10
131.288040
 20
181.741852
 11
131.288040
 21
182.241852
  0
LINE
  8
0
 62
     4
 10
131.288040
 20
177.741852
 11
151.288040
 21
177.741852
  0
LINE
  8
0
 62
     4
 10
131.288040
 20
54.741852
 11
151.288040
 21
54.741852
  0
LINE
  8
0
 62
     4
 10
151.288040
 20
128.241852
 11
150.288040
 21
127.241852
  0
LINE
  8
0
 62
     4
 10
151.288040
 20
104.241852
 11
150.288040
 21
105.241852
  0
LINE
  8
0
 62
     4
 10
131.288040
 20
104.241852
 11
132.288040
 21
105.241852
  0
POLYLINE
  8
0
 62
     4
 66
     1
 70
     2
  0
VERTEX
  8
0
 10
131.288040
 20
104.241852
  0
VERTEX
  8
0
 10
131.288040
 20
50.741852
  0
VERTEX
  8
0
 10
131.788040
 20
50.241852
  0
VERTEX
  8
0
 10
150.788040
 20
50.241852
  0
VERTEX
  8
0
 10
151.288040
 20
50.741852
  0
VERTEX
  8
0
 10
151.288040
 20
181.741852
  0
VERTEX
  8
0
 10
150.788040
 20
182.241852
  0
VERTEX
  8
0
 10
131.788040
 20
182.241852
  0
VERTEX
  8
0
 10
131.288040
 20
181.741852
  0
VERTEX
  8
0
 10
131.288040
 20
104.241852
  0
SEQEND
  0
POLYLINE
  8
0
 62
     4
 66
     1
 70
     2
  0
VERTEX
  8
0
 10
131.288040
 20
128.241852
  0
VERTEX
  8
0
 10
132.288040
 20
127.241852
  0
VERTEX
  8
0
 10
132.288040
 20
105.241852
  0
VERTEX
  8
0
 10
150.288040
 20
105.241852
  0
VERTEX
  8
0
 10
150.288040
 20
127.241852
  0
VERTEX
  8
0
 10
132.288040
 20
127.241852
  0
SEQEND
  0
ARC
  8
0
 62
     4
 10
231.581512
 20
116.241852
 40
11.000000
 50
105.82662088647183
 51
74.17337911352817
  0
POLYLINE
  8
0
 62
     4
 66
     1
 70
     2
  0
VERTEX
  8
0
 10
234.581512
 20
126.824860
  0
VERTEX
  8
0
 10
234.581512
 20
130.041855
  0
VERTEX
  8
0
 10
228.581512
 20
130.041855
  0
VERTEX
  8
0
 10
228.581512
 20
126.824860
  0
SEQEND
  0
LINE
  8
0
 62
     4
 10
131.288040
 20
130.041855
 11
151.288040
 21
130.041855
  0
LINE
  8
DASHDOT
 62
     7
 10
231.581512
 20
134.199463
 11
231.581512
 21
101.084244
  0
LINE
  8
DASHDOT
 62
     7
 10
246.739136
 20
116.241852
 11
216.423920
 21
116.241852
  0
LINE
  8
0
 62
     5
 10
242.896729
 20
139.742935
 11
220.266296
 21
139.742935
  0
POLYLINE
  8
0
 62
     5
 66
     1
 70
     2
  0
VERTEX
  8
0
 10
223.730988
 20
138.357071
  0
VERTEX
  8
0
 10
228.581512
 20
139.742935
  0
VERTEX
  8
0
 10
223.730988
 20
141.128815
  0
SEQEND
  0
POLYLINE
  8
0
 62
     5
 66
     1
 70
     2
  0
VERTEX
  8
0
 10
239.432068
 20
141.128815
  0
VERTEX
  8
0
 10
234.581512
 20
139.742935
  0
VERTEX
  8
0
 10
239.432068
 20
138.357071
  0
SEQEND
  0
LINE
  8
0
 62
     5
 10
228.581512
 20
130.041855
 11
228.581512
 21
141.821747
  0
LINE
  8
0
 62
     5
 10
234.581512
 20
130.041855
 11
234.581512
 21
141.821747
  0
TEXT
  8
0
 62
     7
 10
217.277985
 20
141.128815
 40
6.929348
 41
1.000000
  1
6
  7
KANJI
 50
0.000000
 51
0.000000
  0
TEXT
  8
0
 62
     7
 10
224.137177
 20
141.128815
 40
5.543478
 41
1.000000
  1
%%p0.015
  7
KANJI
 50
0.000000
 51
0.000000
  0
LINE
  8
0
 62
     5
 10
283.086975
 20
96.926636
 11
283.086975
 21
138.357071
  0
POLYLINE
  8
0
 62
     5
 66
     1
 70
     2
  0
VERTEX
  8
0
 10
281.701111
 20
134.892395
  0
VERTEX
  8
0
 10
283.086975
 20
130.041855
  0
VERTEX
  8
0
 10
284.472839
 20
134.892395
  0
SEQEND
  0
POLYLINE
  8
0
 62
     5
 66
     1
 70
     2
  0
VERTEX
  8
0
 10
284.472839
 20
100.391312
  0
VERTEX
  8
0
 10
283.086975
 20
105.241852
  0
VERTEX
  8
0
 10
281.701111
 20
100.391312
  0
SEQEND
  0
LINE
  8
0
 62
     5
 10
234.581512
 20
130.041855
 11
285.165771
 21
130.041855
  0
LINE
  8
0
 62
     5
 10
231.581512
 20
105.241852
 11
285.165771
 21
105.241852
  0
TEXT
  8
0
 62
     7
 10
281.008148
 20
95.403793
 40
6.929348
 41
1.000000
  1
24.8
  7
KANJI
 50
90.000000
 51
0.000000
  0
TEXT
  8
0
 62
     7
 10
281.423920
 20
125.396759
 40
3.464674
 41
1.000000
  1
 
  7
KANJI
 50
90.000000
 51
0.000000
  0
TEXT
  8
0
 62
     7
 10
277.127716
 20
125.396759
 40
3.464674
 41
1.000000
  1
+
  7
KANJI
 50
90.000000
 51
0.000000
  0
TEXT
  8
0
 62
     7
 10
281.423920
 20
129.277191
 40
3.464674
 41
1.000000
  1
0
  7
KANJI
 50
90.000000
 51
0.000000
  0
TEXT
  8
0
 62
     7
 10
277.127716
 20
129.277191
 40
3.464674
 41
1.000000
  1
0.1
  7
KANJI
 50
90.000000
 51
0.000000
  0
LINE
  8
0
 62
     5
 10
179.005432
 20
127.241852
 11
179.005432
 21
105.241852
  0
POLYLINE
  8
0
 62
     5
 66
     1
 70
     2
  0
VERTEX
  8
0
 10
177.619568
 20
110.092392
  0
VERTEX
  8
0
 10
179.005432
 20
105.241852
  0
VERTEX
  8
0
 10
180.391296
 20
110.092392
  0
SEQEND
  0
LINE
  8
0
 62
     5
 10
151.288040
 20
105.241852
 11
181.084229
 21
105.241852
  0
TEXT
  8
0
 62
     7
 10
177.619568
 20
103.595795
 40
6.929348
 41
1.000000
  1
%%c22H7
  7
KANJI
 50
90.000000
 51
0.000000
  0
ENDSEC
  0
EOF
