  0
SECTION
  2
HEADER
  9
$ACADVER
  1
AC1003
  9
$INSBASE
 10
0.000000
 20
0.000000
  9
$EXTMIN
 10
0.000000
 20
0.000000
  9
$EXTMAX
 10
390.815217
 20
270.244565
  9
$LIMMIN
 10
0.000000
 20
0.000000
  9
$LIMMAX
 10
390.815217
 20
270.244565
  9
$VIEWCTR
 10
195.407609
 20
135.122283
  9
$VIEWSIZE
 40
270.244565
  0
ENDSEC
  0
SECTION
  2
TABLES
  0
TABLE
  2
LTYPE
 70
     4
  0
LTYPE
  2
CONTINUOUS
 70
    64
  3
SolidLine
 72
    65
 73
     0
 40
0.0
  0
LTYPE
  2
HIDDEN
 70
    64
  3
------------------------
 72
    65
 73
     2
 40
4.157609
 49
2.771739
 49
-1.385870
  0
LTYPE
  2
DASHDOT
 70
    64
  3
--?--?--?--?--?--?--?--
 72
    65
 73
     4
 40
16.630435
 49
12.472826
 49
-1.385870
 49
1.385870
 49
-1.385870
  0
LTYPE
  2
DIVIDE
 70
    64
  3
--??--??--??--??--??--
 72
    65
 73
     6
 40
20.788043
 49
13.858696
 49
-1.385870
 49
1.385870
 49
-1.385870
 49
1.385870
 49
-1.385870
  0
ENDTAB
  0
TABLE
  2
LAYER
 70
     5
  0
LAYER
  2
0
 70
    64
 62
     7
  6
CONTINUOUS
  0
LAYER
  2
HIDDEN
 70
    64
 62
     2
  6
HIDDEN
  0
LAYER
  2
DASHDOT
 70
    64
 62
     6
  6
DASHDOT
  0
LAYER
  2
DIVIDE
 70
    64
 62
     5
  6
DIVIDE
  0
ENDTAB
  0
TABLE
  2
STYLE
 70
     1
  0
STYLE
  2
STANDARD
 70
    64
 40
0.0
 41
1.0
 50
0.0
 71
     0
 42
0.2
  3
TXT
  4

  0
STYLE
  2
KANJI
 70
    64
 40
0.0
 41
1.0
 50
0.0
 71
     0
 42
0.2
  3
TXT
  4
BIGFONT
  0
ENDTAB
  0
TABLE
  2
VIEW
 70
     0
  0
ENDTAB
  0
ENDSEC
  0
SECTION
  2
BLOCKS
  0
ENDSEC
  0
SECTION
  2
ENTITIES
  0
TEXT
  8
0
 62
     7
 10
13.858696
 20
15.244565
 40
5.543478
 41
1.000000
  1
KHK SUSA2-64J18
  7
KANJI
 50
0.000000
 51
0.000000
  0
TEXT
  8
0
 62
     7
 10
13.858696
 20
6.929348
 40
5.543478
 41
1.000000
  1
The precision grade of gears after secondary operations is equivalent but not identical to its original grade.
  7
KANJI
 50
0.000000
 51
0.000000
  0
TEXT
  8
0
 62
     7
 10
13.858696
 20
249.456528
 40
6.236413
 41
1.000000
  1

  7
KANJI
 50
0.000000
 51
0.000000
  0
POLYLINE
  8
0
 62
     7
 66
     1
 70
     2
  0
VERTEX
  8
0
 10
332.608704
 20
249.456528
  0
VERTEX
  8
0
 10
327.203827
 20
258.825012
  0
VERTEX
  8
0
 10
348.823364
 20
258.825012
  0
VERTEX
  8
0
 10
343.418488
 20
249.456528
  0
VERTEX
  8
0
 10
338.013580
 20
258.825012
  0
VERTEX
  8
0
 10
332.608704
 20
249.456528
  0
SEQEND
  0
LINE
  8
0
 62
     5
 10
202.179352
 20
182.241852
 11
202.179352
 21
50.241852
  0
POLYLINE
  8
0
 62
     5
 66
     1
 70
     2
  0
VERTEX
  8
0
 10
203.565216
 20
177.391312
  0
VERTEX
  8
0
 10
202.179352
 20
182.241852
  0
VERTEX
  8
0
 10
200.793472
 20
177.391312
  0
SEQEND
  0
POLYLINE
  8
0
 62
     5
 66
     1
 70
     2
  0
VERTEX
  8
0
 10
200.793472
 20
55.092396
  0
VERTEX
  8
0
 10
202.179352
 20
50.241852
  0
VERTEX
  8
0
 10
203.565216
 20
55.092396
  0
SEQEND
  0
LINE
  8
0
 62
     5
 10
152.288040
 20
182.241852
 11
204.258148
 21
182.241852
  0
LINE
  8
0
 62
     5
 10
152.288040
 20
50.241852
 11
204.258148
 21
50.241852
  0
TEXT
  8
0
 62
     7
 10
200.793472
 20
105.847832
 40
6.929348
 41
1.000000
  1
%%c132
  7
KANJI
 50
90.000000
 51
0.000000
  0
LINE
  8
0
 62
     5
 10
132.288040
 20
209.959244
 11
152.288040
 21
209.959244
  0
POLYLINE
  8
0
 62
     5
 66
     1
 70
     2
  0
VERTEX
  8
0
 10
137.138580
 20
211.345123
  0
VERTEX
  8
0
 10
132.288040
 20
209.959244
  0
VERTEX
  8
0
 10
137.138580
 20
208.573364
  0
SEQEND
  0
POLYLINE
  8
0
 62
     5
 66
     1
 70
     2
  0
VERTEX
  8
0
 10
147.437500
 20
208.573364
  0
VERTEX
  8
0
 10
152.288040
 20
209.959244
  0
VERTEX
  8
0
 10
147.437500
 20
211.345123
  0
SEQEND
  0
LINE
  8
0
 62
     5
 10
132.288040
 20
182.241852
 11
132.288040
 21
212.038055
  0
LINE
  8
0
 62
     5
 10
152.288040
 20
182.241852
 11
152.288040
 21
212.038055
  0
TEXT
  8
0
 62
     7
 10
137.783966
 20
211.067932
 40
6.929348
 41
1.000000
  1
20
  7
KANJI
 50
0.000000
 51
0.000000
  0
LINE
  8
DASHDOT
 62
     7
 10
128.130432
 20
180.241852
 11
156.445648
 21
180.241852
  0
LINE
  8
DASHDOT
 62
     7
 10
128.130432
 20
52.241852
 11
156.445648
 21
52.241852
  0
LINE
  8
DASHDOT
 62
     7
 10
128.130432
 20
116.241852
 11
156.445648
 21
116.241852
  0
LINE
  8
0
 62
     5
 10
151.788040
 20
50.241852
 11
152.288040
 21
50.241852
  0
LINE
  8
0
 62
     5
 10
151.788040
 20
182.241852
 11
152.288040
 21
182.241852
  0
LINE
  8
0
 62
     5
 10
152.288040
 20
181.741852
 11
152.288040
 21
182.241852
  0
LINE
  8
0
 62
     5
 10
132.288040
 20
181.741852
 11
132.288040
 21
182.241852
  0
LINE
  8
0
 62
     4
 10
132.288040
 20
177.741852
 11
152.288040
 21
177.741852
  0
LINE
  8
0
 62
     4
 10
132.288040
 20
54.741852
 11
152.288040
 21
54.741852
  0
LINE
  8
0
 62
     4
 10
152.288040
 20
125.741852
 11
151.788040
 21
125.241852
  0
LINE
  8
0
 62
     4
 10
152.288040
 20
106.741852
 11
151.788040
 21
107.241852
  0
LINE
  8
0
 62
     4
 10
132.288040
 20
106.741852
 11
132.788040
 21
107.241852
  0
POLYLINE
  8
0
 62
     4
 66
     1
 70
     2
  0
VERTEX
  8
0
 10
132.288040
 20
106.741852
  0
VERTEX
  8
0
 10
132.288040
 20
50.741852
  0
VERTEX
  8
0
 10
132.788040
 20
50.241852
  0
VERTEX
  8
0
 10
151.788040
 20
50.241852
  0
VERTEX
  8
0
 10
152.288040
 20
50.741852
  0
VERTEX
  8
0
 10
152.288040
 20
181.741852
  0
VERTEX
  8
0
 10
151.788040
 20
182.241852
  0
VERTEX
  8
0
 10
132.788040
 20
182.241852
  0
VERTEX
  8
0
 10
132.288040
 20
181.741852
  0
VERTEX
  8
0
 10
132.288040
 20
106.741852
  0
SEQEND
  0
POLYLINE
  8
0
 62
     4
 66
     1
 70
     2
  0
VERTEX
  8
0
 10
132.288040
 20
125.741852
  0
VERTEX
  8
0
 10
132.788040
 20
125.241852
  0
VERTEX
  8
0
 10
132.788040
 20
107.241852
  0
VERTEX
  8
0
 10
151.788040
 20
107.241852
  0
VERTEX
  8
0
 10
151.788040
 20
125.241852
  0
VERTEX
  8
0
 10
132.788040
 20
125.241852
  0
SEQEND
  0
ARC
  8
0
 62
     4
 10
230.581512
 20
116.241852
 40
9.000000
 50
109.47122094265586
 51
70.52877905734415
  0
POLYLINE
  8
0
 62
     4
 66
     1
 70
     2
  0
VERTEX
  8
0
 10
233.581512
 20
124.727135
  0
VERTEX
  8
0
 10
233.581512
 20
128.041855
  0
VERTEX
  8
0
 10
227.581512
 20
128.041855
  0
VERTEX
  8
0
 10
227.581512
 20
124.727135
  0
SEQEND
  0
LINE
  8
0
 62
     4
 10
132.288040
 20
128.041855
 11
152.288040
 21
128.041855
  0
LINE
  8
DASHDOT
 62
     7
 10
230.581512
 20
132.199463
 11
230.581512
 21
103.084244
  0
LINE
  8
DASHDOT
 62
     7
 10
243.739136
 20
116.241852
 11
217.423920
 21
116.241852
  0
LINE
  8
0
 62
     5
 10
241.896729
 20
137.742935
 11
219.266296
 21
137.742935
  0
POLYLINE
  8
0
 62
     5
 66
     1
 70
     2
  0
VERTEX
  8
0
 10
222.730988
 20
136.357071
  0
VERTEX
  8
0
 10
227.581512
 20
137.742935
  0
VERTEX
  8
0
 10
222.730988
 20
139.128815
  0
SEQEND
  0
POLYLINE
  8
0
 62
     5
 66
     1
 70
     2
  0
VERTEX
  8
0
 10
238.432068
 20
139.128815
  0
VERTEX
  8
0
 10
233.581512
 20
137.742935
  0
VERTEX
  8
0
 10
238.432068
 20
136.357071
  0
SEQEND
  0
LINE
  8
0
 62
     5
 10
227.581512
 20
128.041855
 11
227.581512
 21
139.821747
  0
LINE
  8
0
 62
     5
 10
233.581512
 20
128.041855
 11
233.581512
 21
139.821747
  0
TEXT
  8
0
 62
     7
 10
216.277985
 20
139.128815
 40
6.929348
 41
1.000000
  1
6
  7
KANJI
 50
0.000000
 51
0.000000
  0
TEXT
  8
0
 62
     7
 10
223.137177
 20
139.128815
 40
5.543478
 41
1.000000
  1
%%p0.015
  7
KANJI
 50
0.000000
 51
0.000000
  0
LINE
  8
0
 62
     5
 10
282.086975
 20
98.926636
 11
282.086975
 21
136.357071
  0
POLYLINE
  8
0
 62
     5
 66
     1
 70
     2
  0
VERTEX
  8
0
 10
280.701111
 20
132.892395
  0
VERTEX
  8
0
 10
282.086975
 20
128.041855
  0
VERTEX
  8
0
 10
283.472839
 20
132.892395
  0
SEQEND
  0
POLYLINE
  8
0
 62
     5
 66
     1
 70
     2
  0
VERTEX
  8
0
 10
283.472839
 20
102.391312
  0
VERTEX
  8
0
 10
282.086975
 20
107.241852
  0
VERTEX
  8
0
 10
280.701111
 20
102.391312
  0
SEQEND
  0
LINE
  8
0
 62
     5
 10
233.581512
 20
128.041855
 11
284.165771
 21
128.041855
  0
LINE
  8
0
 62
     5
 10
230.581512
 20
107.241852
 11
284.165771
 21
107.241852
  0
TEXT
  8
0
 62
     7
 10
280.008148
 20
95.803802
 40
6.929348
 41
1.000000
  1
20.8
  7
KANJI
 50
90.000000
 51
0.000000
  0
TEXT
  8
0
 62
     7
 10
280.423920
 20
125.796761
 40
3.464674
 41
1.000000
  1
 
  7
KANJI
 50
90.000000
 51
0.000000
  0
TEXT
  8
0
 62
     7
 10
276.127716
 20
125.796761
 40
3.464674
 41
1.000000
  1
+
  7
KANJI
 50
90.000000
 51
0.000000
  0
TEXT
  8
0
 62
     7
 10
280.423920
 20
129.677200
 40
3.464674
 41
1.000000
  1
0
  7
KANJI
 50
90.000000
 51
0.000000
  0
TEXT
  8
0
 62
     7
 10
276.127716
 20
129.677200
 40
3.464674
 41
1.000000
  1
0.1
  7
KANJI
 50
90.000000
 51
0.000000
  0
LINE
  8
0
 62
     5
 10
180.005432
 20
125.241852
 11
180.005432
 21
107.241852
  0
POLYLINE
  8
0
 62
     5
 66
     1
 70
     2
  0
VERTEX
  8
0
 10
178.619568
 20
112.092392
  0
VERTEX
  8
0
 10
180.005432
 20
107.241852
  0
VERTEX
  8
0
 10
181.391296
 20
112.092392
  0
SEQEND
  0
LINE
  8
0
 62
     5
 10
152.288040
 20
107.241852
 11
182.084229
 21
107.241852
  0
TEXT
  8
0
 62
     7
 10
178.619568
 20
103.595795
 40
6.929348
 41
1.000000
  1
%%c18H7
  7
KANJI
 50
90.000000
 51
0.000000
  0
ENDSEC
  0
EOF
