  0
SECTION
  2
HEADER
  9
$ACADVER
  1
AC1003
  9
$INSBASE
 10
0.000000
 20
0.000000
  9
$EXTMIN
 10
0.000000
 20
0.000000
  9
$EXTMAX
 10
243.684783
 20
168.505435
  9
$LIMMIN
 10
0.000000
 20
0.000000
  9
$LIMMAX
 10
243.684783
 20
168.505435
  9
$VIEWCTR
 10
121.842391
 20
84.252717
  9
$VIEWSIZE
 40
168.505435
  0
ENDSEC
  0
SECTION
  2
TABLES
  0
TABLE
  2
LTYPE
 70
     4
  0
LTYPE
  2
CONTINUOUS
 70
    64
  3
SolidLine
 72
    65
 73
     0
 40
0.0
  0
LTYPE
  2
HIDDEN
 70
    64
  3
------------------------
 72
    65
 73
     2
 40
2.592391
 49
1.728261
 49
-0.864130
  0
LTYPE
  2
DASHDOT
 70
    64
  3
--?--?--?--?--?--?--?--
 72
    65
 73
     4
 40
10.369565
 49
7.777174
 49
-0.864130
 49
0.864130
 49
-0.864130
  0
LTYPE
  2
DIVIDE
 70
    64
  3
--??--??--??--??--??--
 72
    65
 73
     6
 40
12.961957
 49
8.641304
 49
-0.864130
 49
0.864130
 49
-0.864130
 49
0.864130
 49
-0.864130
  0
ENDTAB
  0
TABLE
  2
LAYER
 70
     5
  0
LAYER
  2
0
 70
    64
 62
     7
  6
CONTINUOUS
  0
LAYER
  2
HIDDEN
 70
    64
 62
     2
  6
HIDDEN
  0
LAYER
  2
DASHDOT
 70
    64
 62
     6
  6
DASHDOT
  0
LAYER
  2
DIVIDE
 70
    64
 62
     5
  6
DIVIDE
  0
ENDTAB
  0
TABLE
  2
STYLE
 70
     1
  0
STYLE
  2
STANDARD
 70
    64
 40
0.0
 41
1.0
 50
0.0
 71
     0
 42
0.2
  3
TXT
  4

  0
STYLE
  2
KANJI
 70
    64
 40
0.0
 41
1.0
 50
0.0
 71
     0
 42
0.2
  3
TXT
  4
BIGFONT
  0
ENDTAB
  0
TABLE
  2
VIEW
 70
     0
  0
ENDTAB
  0
ENDSEC
  0
SECTION
  2
BLOCKS
  0
ENDSEC
  0
SECTION
  2
ENTITIES
  0
TEXT
  8
0
 62
     7
 10
8.641304
 20
9.505435
 40
3.456522
 41
1.000000
  1
KHK SUSA2-40J25
  7
KANJI
 50
0.000000
 51
0.000000
  0
TEXT
  8
0
 62
     7
 10
8.641304
 20
4.320652
 40
3.456522
 41
1.000000
  1
The precision grade of gears after secondary operations is equivalent but not identical to its original grade.
  7
KANJI
 50
0.000000
 51
0.000000
  0
TEXT
  8
0
 62
     7
 10
8.641304
 20
155.543472
 40
3.888587
 41
1.000000
  1

  7
KANJI
 50
0.000000
 51
0.000000
  0
POLYLINE
  8
0
 62
     7
 66
     1
 70
     2
  0
VERTEX
  8
0
 10
207.391312
 20
155.543472
  0
VERTEX
  8
0
 10
204.021210
 20
161.384995
  0
VERTEX
  8
0
 10
217.501633
 20
161.384995
  0
VERTEX
  8
0
 10
214.131531
 20
155.543472
  0
VERTEX
  8
0
 10
210.761414
 20
161.384995
  0
VERTEX
  8
0
 10
207.391312
 20
155.543472
  0
SEQEND
  0
LINE
  8
0
 62
     5
 10
125.320656
 20
113.633148
 11
125.320656
 21
29.633148
  0
POLYLINE
  8
0
 62
     5
 66
     1
 70
     2
  0
VERTEX
  8
0
 10
126.184784
 20
110.608688
  0
VERTEX
  8
0
 10
125.320656
 20
113.633148
  0
VERTEX
  8
0
 10
124.456528
 20
110.608688
  0
SEQEND
  0
POLYLINE
  8
0
 62
     5
 66
     1
 70
     2
  0
VERTEX
  8
0
 10
124.456528
 20
32.657604
  0
VERTEX
  8
0
 10
125.320656
 20
29.633148
  0
VERTEX
  8
0
 10
126.184784
 20
32.657604
  0
SEQEND
  0
LINE
  8
0
 62
     5
 10
94.211960
 20
113.633148
 11
126.616852
 21
113.633148
  0
LINE
  8
0
 62
     5
 10
94.211960
 20
29.633148
 11
126.616852
 21
29.633148
  0
TEXT
  8
0
 62
     7
 10
124.456528
 20
66.556381
 40
4.320652
 41
1.000000
  1
%%c84
  7
KANJI
 50
90.000000
 51
0.000000
  0
LINE
  8
0
 62
     5
 10
74.211960
 20
130.915756
 11
94.211960
 21
130.915756
  0
POLYLINE
  8
0
 62
     5
 66
     1
 70
     2
  0
VERTEX
  8
0
 10
77.236420
 20
131.779892
  0
VERTEX
  8
0
 10
74.211960
 20
130.915756
  0
VERTEX
  8
0
 10
77.236420
 20
130.051620
  0
SEQEND
  0
POLYLINE
  8
0
 62
     5
 66
     1
 70
     2
  0
VERTEX
  8
0
 10
91.187500
 20
130.051620
  0
VERTEX
  8
0
 10
94.211960
 20
130.915756
  0
VERTEX
  8
0
 10
91.187500
 20
131.779892
  0
SEQEND
  0
LINE
  8
0
 62
     5
 10
74.211960
 20
113.633148
 11
74.211960
 21
132.211945
  0
LINE
  8
0
 62
     5
 10
94.211960
 20
113.633148
 11
94.211960
 21
132.211945
  0
TEXT
  8
0
 62
     7
 10
81.403534
 20
131.607056
 40
4.320652
 41
1.000000
  1
20
  7
KANJI
 50
0.000000
 51
0.000000
  0
LINE
  8
DASHDOT
 62
     7
 10
71.619568
 20
111.633148
 11
96.804352
 21
111.633148
  0
LINE
  8
DASHDOT
 62
     7
 10
71.619568
 20
31.633148
 11
96.804352
 21
31.633148
  0
LINE
  8
DASHDOT
 62
     7
 10
71.619568
 20
71.633148
 11
96.804352
 21
71.633148
  0
LINE
  8
0
 62
     5
 10
93.711960
 20
29.633148
 11
94.211960
 21
29.633148
  0
LINE
  8
0
 62
     5
 10
93.711960
 20
113.633148
 11
94.211960
 21
113.633148
  0
LINE
  8
0
 62
     5
 10
94.211960
 20
113.133148
 11
94.211960
 21
113.633148
  0
LINE
  8
0
 62
     5
 10
74.211960
 20
113.133148
 11
74.211960
 21
113.633148
  0
LINE
  8
0
 62
     4
 10
74.211960
 20
109.133148
 11
94.211960
 21
109.133148
  0
LINE
  8
0
 62
     4
 10
74.211960
 20
34.133148
 11
94.211960
 21
34.133148
  0
LINE
  8
0
 62
     4
 10
94.211960
 20
85.133148
 11
93.211960
 21
84.133148
  0
LINE
  8
0
 62
     4
 10
94.211960
 20
58.133148
 11
93.211960
 21
59.133148
  0
LINE
  8
0
 62
     4
 10
74.211960
 20
58.133148
 11
75.211960
 21
59.133148
  0
POLYLINE
  8
0
 62
     4
 66
     1
 70
     2
  0
VERTEX
  8
0
 10
74.211960
 20
58.133148
  0
VERTEX
  8
0
 10
74.211960
 20
30.133148
  0
VERTEX
  8
0
 10
74.711960
 20
29.633148
  0
VERTEX
  8
0
 10
93.711960
 20
29.633148
  0
VERTEX
  8
0
 10
94.211960
 20
30.133148
  0
VERTEX
  8
0
 10
94.211960
 20
113.133148
  0
VERTEX
  8
0
 10
93.711960
 20
113.633148
  0
VERTEX
  8
0
 10
74.711960
 20
113.633148
  0
VERTEX
  8
0
 10
74.211960
 20
113.133148
  0
VERTEX
  8
0
 10
74.211960
 20
58.133148
  0
SEQEND
  0
POLYLINE
  8
0
 62
     4
 66
     1
 70
     2
  0
VERTEX
  8
0
 10
74.211960
 20
85.133148
  0
VERTEX
  8
0
 10
75.211960
 20
84.133148
  0
VERTEX
  8
0
 10
75.211960
 20
59.133148
  0
VERTEX
  8
0
 10
93.211960
 20
59.133148
  0
VERTEX
  8
0
 10
93.211960
 20
84.133148
  0
VERTEX
  8
0
 10
75.211960
 20
84.133148
  0
SEQEND
  0
ARC
  8
0
 62
     4
 10
149.918488
 20
71.633148
 40
12.500000
 50
108.66292518454978
 51
71.33707481545021
  0
POLYLINE
  8
0
 62
     4
 66
     1
 70
     2
  0
VERTEX
  8
0
 10
153.918488
 20
83.475868
  0
VERTEX
  8
0
 10
153.918488
 20
87.433151
  0
VERTEX
  8
0
 10
145.918488
 20
87.433151
  0
VERTEX
  8
0
 10
145.918488
 20
83.475868
  0
SEQEND
  0
LINE
  8
0
 62
     4
 10
74.211960
 20
87.433151
 11
94.211960
 21
87.433151
  0
LINE
  8
DASHDOT
 62
     7
 10
149.918488
 20
90.025543
 11
149.918488
 21
56.540756
  0
LINE
  8
DASHDOT
 62
     7
 10
165.010864
 20
71.633148
 11
134.826096
 21
71.633148
  0
LINE
  8
0
 62
     5
 10
159.103271
 20
93.482063
 11
140.733704
 21
93.482063
  0
POLYLINE
  8
0
 62
     5
 66
     1
 70
     2
  0
VERTEX
  8
0
 10
142.894012
 20
92.617935
  0
VERTEX
  8
0
 10
145.918488
 20
93.482063
  0
VERTEX
  8
0
 10
142.894012
 20
94.346191
  0
SEQEND
  0
POLYLINE
  8
0
 62
     5
 66
     1
 70
     2
  0
VERTEX
  8
0
 10
156.942932
 20
94.346191
  0
VERTEX
  8
0
 10
153.918488
 20
93.482063
  0
VERTEX
  8
0
 10
156.942932
 20
92.617935
  0
SEQEND
  0
LINE
  8
0
 62
     5
 10
145.918488
 20
87.433151
 11
145.918488
 21
94.778259
  0
LINE
  8
0
 62
     5
 10
153.918488
 20
87.433151
 11
153.918488
 21
94.778259
  0
TEXT
  8
0
 62
     7
 10
140.999802
 20
94.346191
 40
4.320652
 41
1.000000
  1
8
  7
KANJI
 50
0.000000
 51
0.000000
  0
TEXT
  8
0
 62
     7
 10
145.276703
 20
94.346191
 40
3.456522
 41
1.000000
  1
%%p0.018
  7
KANJI
 50
0.000000
 51
0.000000
  0
LINE
  8
0
 62
     5
 10
184.163055
 20
87.433151
 11
184.163055
 21
59.133148
  0
POLYLINE
  8
0
 62
     5
 66
     1
 70
     2
  0
VERTEX
  8
0
 10
185.027176
 20
84.408691
  0
VERTEX
  8
0
 10
184.163055
 20
87.433151
  0
VERTEX
  8
0
 10
183.298920
 20
84.408691
  0
SEQEND
  0
POLYLINE
  8
0
 62
     5
 66
     1
 70
     2
  0
VERTEX
  8
0
 10
183.298920
 20
62.157608
  0
VERTEX
  8
0
 10
184.163055
 20
59.133148
  0
VERTEX
  8
0
 10
185.027176
 20
62.157608
  0
SEQEND
  0
LINE
  8
0
 62
     5
 10
153.918488
 20
87.433151
 11
185.459244
 21
87.433151
  0
LINE
  8
0
 62
     5
 10
149.918488
 20
59.133148
 11
185.459244
 21
59.133148
  0
TEXT
  8
0
 62
     7
 10
182.866852
 20
58.133423
 40
4.320652
 41
1.000000
  1
28.3
  7
KANJI
 50
90.000000
 51
0.000000
  0
TEXT
  8
0
 62
     7
 10
183.126099
 20
76.834915
 40
2.160326
 41
1.000000
  1
 
  7
KANJI
 50
90.000000
 51
0.000000
  0
TEXT
  8
0
 62
     7
 10
180.447296
 20
76.834915
 40
2.160326
 41
1.000000
  1
+
  7
KANJI
 50
90.000000
 51
0.000000
  0
TEXT
  8
0
 62
     7
 10
183.126099
 20
79.254478
 40
2.160326
 41
1.000000
  1
0
  7
KANJI
 50
90.000000
 51
0.000000
  0
TEXT
  8
0
 62
     7
 10
180.447296
 20
79.254478
 40
2.160326
 41
1.000000
  1
0.2
  7
KANJI
 50
90.000000
 51
0.000000
  0
LINE
  8
0
 62
     5
 10
111.494568
 20
84.133148
 11
111.494568
 21
59.133148
  0
POLYLINE
  8
0
 62
     5
 66
     1
 70
     2
  0
VERTEX
  8
0
 10
110.630432
 20
62.157604
  0
VERTEX
  8
0
 10
111.494568
 20
59.133148
  0
VERTEX
  8
0
 10
112.358704
 20
62.157604
  0
SEQEND
  0
LINE
  8
0
 62
     5
 10
94.211960
 20
59.133148
 11
112.790764
 21
59.133148
  0
TEXT
  8
0
 62
     7
 10
110.630432
 20
63.747955
 40
4.320652
 41
1.000000
  1
%%c25H7
  7
KANJI
 50
90.000000
 51
0.000000
  0
ENDSEC
  0
EOF
