  0
SECTION
  2
HEADER
  9
$ACADVER
  1
AC1003
  9
$INSBASE
 10
0.000000
 20
0.000000
  9
$EXTMIN
 10
0.000000
 20
0.000000
  9
$EXTMAX
 10
194.641304
 20
134.592391
  9
$LIMMIN
 10
0.000000
 20
0.000000
  9
$LIMMAX
 10
194.641304
 20
134.592391
  9
$VIEWCTR
 10
97.320652
 20
67.296196
  9
$VIEWSIZE
 40
134.592391
  0
ENDSEC
  0
SECTION
  2
TABLES
  0
TABLE
  2
LTYPE
 70
     4
  0
LTYPE
  2
CONTINUOUS
 70
    64
  3
SolidLine
 72
    65
 73
     0
 40
0.0
  0
LTYPE
  2
HIDDEN
 70
    64
  3
------------------------
 72
    65
 73
     2
 40
2.070652
 49
1.380435
 49
-0.690217
  0
LTYPE
  2
DASHDOT
 70
    64
  3
--?--?--?--?--?--?--?--
 72
    65
 73
     4
 40
8.282609
 49
6.211957
 49
-0.690217
 49
0.690217
 49
-0.690217
  0
LTYPE
  2
DIVIDE
 70
    64
  3
--??--??--??--??--??--
 72
    65
 73
     6
 40
10.353261
 49
6.902174
 49
-0.690217
 49
0.690217
 49
-0.690217
 49
0.690217
 49
-0.690217
  0
ENDTAB
  0
TABLE
  2
LAYER
 70
     5
  0
LAYER
  2
0
 70
    64
 62
     7
  6
CONTINUOUS
  0
LAYER
  2
HIDDEN
 70
    64
 62
     2
  6
HIDDEN
  0
LAYER
  2
DASHDOT
 70
    64
 62
     6
  6
DASHDOT
  0
LAYER
  2
DIVIDE
 70
    64
 62
     5
  6
DIVIDE
  0
ENDTAB
  0
TABLE
  2
STYLE
 70
     1
  0
STYLE
  2
STANDARD
 70
    64
 40
0.0
 41
1.0
 50
0.0
 71
     0
 42
0.2
  3
TXT
  4

  0
STYLE
  2
KANJI
 70
    64
 40
0.0
 41
1.0
 50
0.0
 71
     0
 42
0.2
  3
TXT
  4
BIGFONT
  0
ENDTAB
  0
TABLE
  2
VIEW
 70
     0
  0
ENDTAB
  0
ENDSEC
  0
SECTION
  2
BLOCKS
  0
ENDSEC
  0
SECTION
  2
ENTITIES
  0
TEXT
  8
0
 62
     7
 10
6.902174
 20
7.592391
 40
2.760870
 41
1.000000
  1
KHK SUSA2-32J19
  7
KANJI
 50
0.000000
 51
0.000000
  0
TEXT
  8
0
 62
     7
 10
6.902174
 20
3.451087
 40
2.760870
 41
1.000000
  1
The precision grade of gears after secondary operations is equivalent but not identical to its original grade.
  7
KANJI
 50
0.000000
 51
0.000000
  0
TEXT
  8
0
 62
     7
 10
6.902174
 20
124.239128
 40
3.105978
 41
1.000000
  1

  7
KANJI
 50
0.000000
 51
0.000000
  0
POLYLINE
  8
0
 62
     7
 66
     1
 70
     2
  0
VERTEX
  8
0
 10
165.652176
 20
124.239128
  0
VERTEX
  8
0
 10
162.960327
 20
128.904999
  0
VERTEX
  8
0
 10
173.727722
 20
128.904999
  0
VERTEX
  8
0
 10
171.035873
 20
124.239128
  0
VERTEX
  8
0
 10
168.344025
 20
128.904999
  0
VERTEX
  8
0
 10
165.652176
 20
124.239128
  0
SEQEND
  0
LINE
  8
0
 62
     5
 10
102.451088
 20
90.763588
 11
102.451088
 21
22.763588
  0
POLYLINE
  8
0
 62
     5
 66
     1
 70
     2
  0
VERTEX
  8
0
 10
103.141304
 20
88.347824
  0
VERTEX
  8
0
 10
102.451088
 20
90.763588
  0
VERTEX
  8
0
 10
101.760872
 20
88.347824
  0
SEQEND
  0
POLYLINE
  8
0
 62
     5
 66
     1
 70
     2
  0
VERTEX
  8
0
 10
101.760872
 20
25.179348
  0
VERTEX
  8
0
 10
102.451088
 20
22.763588
  0
VERTEX
  8
0
 10
103.141304
 20
25.179348
  0
SEQEND
  0
LINE
  8
0
 62
     5
 10
77.603264
 20
90.763588
 11
103.486420
 21
90.763588
  0
LINE
  8
0
 62
     5
 10
77.603264
 20
22.763588
 11
103.486420
 21
22.763588
  0
TEXT
  8
0
 62
     7
 10
101.760872
 20
52.708561
 40
3.451087
 41
1.000000
  1
%%c68
  7
KANJI
 50
90.000000
 51
0.000000
  0
LINE
  8
0
 62
     5
 10
57.603264
 20
104.567932
 11
77.603264
 21
104.567932
  0
POLYLINE
  8
0
 62
     5
 66
     1
 70
     2
  0
VERTEX
  8
0
 10
60.019024
 20
105.258148
  0
VERTEX
  8
0
 10
57.603264
 20
104.567932
  0
VERTEX
  8
0
 10
60.019024
 20
103.877716
  0
SEQEND
  0
POLYLINE
  8
0
 62
     5
 66
     1
 70
     2
  0
VERTEX
  8
0
 10
75.187500
 20
103.877716
  0
VERTEX
  8
0
 10
77.603264
 20
104.567932
  0
VERTEX
  8
0
 10
75.187500
 20
105.258148
  0
SEQEND
  0
LINE
  8
0
 62
     5
 10
57.603264
 20
90.763588
 11
57.603264
 21
105.603264
  0
LINE
  8
0
 62
     5
 10
77.603264
 20
90.763588
 11
77.603264
 21
105.603264
  0
TEXT
  8
0
 62
     7
 10
65.360054
 20
105.120110
 40
3.451087
 41
1.000000
  1
20
  7
KANJI
 50
0.000000
 51
0.000000
  0
LINE
  8
DASHDOT
 62
     7
 10
55.532612
 20
88.763588
 11
79.673920
 21
88.763588
  0
LINE
  8
DASHDOT
 62
     7
 10
55.532612
 20
24.763588
 11
79.673920
 21
24.763588
  0
LINE
  8
DASHDOT
 62
     7
 10
55.532612
 20
56.763588
 11
79.673920
 21
56.763588
  0
LINE
  8
0
 62
     5
 10
77.103264
 20
22.763588
 11
77.603264
 21
22.763588
  0
LINE
  8
0
 62
     5
 10
77.103264
 20
90.763588
 11
77.603264
 21
90.763588
  0
LINE
  8
0
 62
     5
 10
77.603264
 20
90.263588
 11
77.603264
 21
90.763588
  0
LINE
  8
0
 62
     5
 10
57.603264
 20
90.263588
 11
57.603264
 21
90.763588
  0
LINE
  8
0
 62
     4
 10
57.603264
 20
86.263588
 11
77.603264
 21
86.263588
  0
LINE
  8
0
 62
     4
 10
57.603264
 20
27.263588
 11
77.603264
 21
27.263588
  0
LINE
  8
0
 62
     4
 10
77.603264
 20
66.763588
 11
77.103264
 21
66.263588
  0
LINE
  8
0
 62
     4
 10
77.603264
 20
46.763588
 11
77.103264
 21
47.263588
  0
LINE
  8
0
 62
     4
 10
57.603264
 20
46.763588
 11
58.103264
 21
47.263588
  0
POLYLINE
  8
0
 62
     4
 66
     1
 70
     2
  0
VERTEX
  8
0
 10
57.603264
 20
46.763588
  0
VERTEX
  8
0
 10
57.603264
 20
23.263588
  0
VERTEX
  8
0
 10
58.103264
 20
22.763588
  0
VERTEX
  8
0
 10
77.103264
 20
22.763588
  0
VERTEX
  8
0
 10
77.603264
 20
23.263588
  0
VERTEX
  8
0
 10
77.603264
 20
90.263588
  0
VERTEX
  8
0
 10
77.103264
 20
90.763588
  0
VERTEX
  8
0
 10
58.103264
 20
90.763588
  0
VERTEX
  8
0
 10
57.603264
 20
90.263588
  0
VERTEX
  8
0
 10
57.603264
 20
46.763588
  0
SEQEND
  0
POLYLINE
  8
0
 62
     4
 66
     1
 70
     2
  0
VERTEX
  8
0
 10
57.603264
 20
66.763588
  0
VERTEX
  8
0
 10
58.103264
 20
66.263588
  0
VERTEX
  8
0
 10
58.103264
 20
47.263588
  0
VERTEX
  8
0
 10
77.103264
 20
47.263588
  0
VERTEX
  8
0
 10
77.103264
 20
66.263588
  0
VERTEX
  8
0
 10
58.103264
 20
66.263588
  0
SEQEND
  0
ARC
  8
0
 62
     4
 10
121.614136
 20
56.763588
 40
9.500000
 50
108.40850212206381
 51
71.5915196740222
  0
POLYLINE
  8
0
 62
     4
 66
     1
 70
     2
  0
VERTEX
  8
0
 10
124.614136
 20
65.777466
  0
VERTEX
  8
0
 10
124.614136
 20
69.063591
  0
VERTEX
  8
0
 10
118.614136
 20
69.063591
  0
VERTEX
  8
0
 10
118.614136
 20
65.777466
  0
SEQEND
  0
LINE
  8
0
 62
     4
 10
57.603264
 20
69.063591
 11
77.603264
 21
69.063591
  0
LINE
  8
DASHDOT
 62
     7
 10
121.614136
 20
71.134239
 11
121.614136
 21
45.192936
  0
LINE
  8
DASHDOT
 62
     7
 10
133.184784
 20
56.763588
 11
110.043480
 21
56.763588
  0
LINE
  8
0
 62
     5
 10
128.755432
 20
73.895111
 11
114.472824
 21
73.895111
  0
POLYLINE
  8
0
 62
     5
 66
     1
 70
     2
  0
VERTEX
  8
0
 10
116.198372
 20
73.204895
  0
VERTEX
  8
0
 10
118.614136
 20
73.895111
  0
VERTEX
  8
0
 10
116.198372
 20
74.585327
  0
SEQEND
  0
POLYLINE
  8
0
 62
     5
 66
     1
 70
     2
  0
VERTEX
  8
0
 10
127.029900
 20
74.585327
  0
VERTEX
  8
0
 10
124.614136
 20
73.895111
  0
VERTEX
  8
0
 10
127.029900
 20
73.204895
  0
SEQEND
  0
LINE
  8
0
 62
     5
 10
118.614136
 20
69.063591
 11
118.614136
 21
74.930435
  0
LINE
  8
0
 62
     5
 10
124.614136
 20
69.063591
 11
124.614136
 21
74.930435
  0
TEXT
  8
0
 62
     7
 10
114.490402
 20
74.585327
 40
3.451087
 41
1.000000
  1
6
  7
KANJI
 50
0.000000
 51
0.000000
  0
TEXT
  8
0
 62
     7
 10
117.906555
 20
74.585327
 40
2.760870
 41
1.000000
  1
%%p0.015
  7
KANJI
 50
0.000000
 51
0.000000
  0
LINE
  8
0
 62
     5
 10
148.771744
 20
69.063591
 11
148.771744
 21
47.263588
  0
POLYLINE
  8
0
 62
     5
 66
     1
 70
     2
  0
VERTEX
  8
0
 10
149.461960
 20
66.647827
  0
VERTEX
  8
0
 10
148.771744
 20
69.063591
  0
VERTEX
  8
0
 10
148.081528
 20
66.647827
  0
SEQEND
  0
POLYLINE
  8
0
 62
     5
 66
     1
 70
     2
  0
VERTEX
  8
0
 10
148.081528
 20
49.679352
  0
VERTEX
  8
0
 10
148.771744
 20
47.263588
  0
VERTEX
  8
0
 10
149.461960
 20
49.679352
  0
SEQEND
  0
LINE
  8
0
 62
     5
 10
124.614136
 20
69.063591
 11
149.807068
 21
69.063591
  0
LINE
  8
0
 62
     5
 10
121.614136
 20
47.263588
 11
149.807068
 21
47.263588
  0
TEXT
  8
0
 62
     7
 10
147.736420
 20
46.143303
 40
3.451087
 41
1.000000
  1
21.8
  7
KANJI
 50
90.000000
 51
0.000000
  0
TEXT
  8
0
 62
     7
 10
147.943481
 20
61.080975
 40
1.725543
 41
1.000000
  1
 
  7
KANJI
 50
90.000000
 51
0.000000
  0
TEXT
  8
0
 62
     7
 10
145.803802
 20
61.080975
 40
1.725543
 41
1.000000
  1
+
  7
KANJI
 50
90.000000
 51
0.000000
  0
TEXT
  8
0
 62
     7
 10
147.943481
 20
63.013580
 40
1.725543
 41
1.000000
  1
0
  7
KANJI
 50
90.000000
 51
0.000000
  0
TEXT
  8
0
 62
     7
 10
145.803802
 20
63.013580
 40
1.725543
 41
1.000000
  1
0.1
  7
KANJI
 50
90.000000
 51
0.000000
  0
LINE
  8
0
 62
     5
 10
91.407608
 20
66.263588
 11
91.407608
 21
47.263588
  0
POLYLINE
  8
0
 62
     5
 66
     1
 70
     2
  0
VERTEX
  8
0
 10
90.717392
 20
49.679348
  0
VERTEX
  8
0
 10
91.407608
 20
47.263588
  0
VERTEX
  8
0
 10
92.097824
 20
49.679348
  0
SEQEND
  0
LINE
  8
0
 62
     5
 10
77.603264
 20
47.263588
 11
92.442940
 21
47.263588
  0
TEXT
  8
0
 62
     7
 10
90.717392
 20
50.465355
 40
3.451087
 41
1.000000
  1
%%c19H7
  7
KANJI
 50
90.000000
 51
0.000000
  0
ENDSEC
  0
EOF
