  0
SECTION
  2
HEADER
  9
$ACADVER
  1
AC1003
  9
$INSBASE
 10
0.000000
 20
0.000000
  9
$EXTMIN
 10
0.000000
 20
0.000000
  9
$EXTMAX
 10
487.369565
 20
337.010870
  9
$LIMMIN
 10
0.000000
 20
0.000000
  9
$LIMMAX
 10
487.369565
 20
337.010870
  9
$VIEWCTR
 10
243.684783
 20
168.505435
  9
$VIEWSIZE
 40
337.010870
  0
ENDSEC
  0
SECTION
  2
TABLES
  0
TABLE
  2
LTYPE
 70
     4
  0
LTYPE
  2
CONTINUOUS
 70
    64
  3
SolidLine
 72
    65
 73
     0
 40
0.0
  0
LTYPE
  2
HIDDEN
 70
    64
  3
------------------------
 72
    65
 73
     2
 40
5.184783
 49
3.456522
 49
-1.728261
  0
LTYPE
  2
DASHDOT
 70
    64
  3
--?--?--?--?--?--?--?--
 72
    65
 73
     4
 40
20.739130
 49
15.554348
 49
-1.728261
 49
1.728261
 49
-1.728261
  0
LTYPE
  2
DIVIDE
 70
    64
  3
--??--??--??--??--??--
 72
    65
 73
     6
 40
25.923913
 49
17.282609
 49
-1.728261
 49
1.728261
 49
-1.728261
 49
1.728261
 49
-1.728261
  0
ENDTAB
  0
TABLE
  2
LAYER
 70
     5
  0
LAYER
  2
0
 70
    64
 62
     7
  6
CONTINUOUS
  0
LAYER
  2
HIDDEN
 70
    64
 62
     2
  6
HIDDEN
  0
LAYER
  2
DASHDOT
 70
    64
 62
     6
  6
DASHDOT
  0
LAYER
  2
DIVIDE
 70
    64
 62
     5
  6
DIVIDE
  0
ENDTAB
  0
TABLE
  2
STYLE
 70
     1
  0
STYLE
  2
STANDARD
 70
    64
 40
0.0
 41
1.0
 50
0.0
 71
     0
 42
0.2
  3
TXT
  4

  0
STYLE
  2
KANJI
 70
    64
 40
0.0
 41
1.0
 50
0.0
 71
     0
 42
0.2
  3
TXT
  4
BIGFONT
  0
ENDTAB
  0
TABLE
  2
VIEW
 70
     0
  0
ENDTAB
  0
ENDSEC
  0
SECTION
  2
BLOCKS
  0
ENDSEC
  0
SECTION
  2
ENTITIES
  0
TEXT
  8
0
 62
     7
 10
17.282608
 20
19.010870
 40
6.913043
 41
1.000000
  1
KHK SUSA4-40J45
  7
KANJI
 50
0.000000
 51
0.000000
  0
TEXT
  8
0
 62
     7
 10
17.282608
 20
8.641304
 40
6.913043
 41
1.000000
  1
The precision grade of gears after secondary operations is equivalent but not identical to its original grade.
  7
KANJI
 50
0.000000
 51
0.000000
  0
TEXT
  8
0
 62
     7
 10
17.282608
 20
311.086945
 40
7.777174
 41
1.000000
  1

  7
KANJI
 50
0.000000
 51
0.000000
  0
POLYLINE
  8
0
 62
     7
 66
     1
 70
     2
  0
VERTEX
  8
0
 10
414.782623
 20
311.086945
  0
VERTEX
  8
0
 10
408.042419
 20
322.769989
  0
VERTEX
  8
0
 10
435.003265
 20
322.769989
  0
VERTEX
  8
0
 10
428.263062
 20
311.086945
  0
VERTEX
  8
0
 10
421.522827
 20
322.769989
  0
VERTEX
  8
0
 10
414.782623
 20
311.086945
  0
SEQEND
  0
LINE
  8
0
 62
     5
 10
252.391312
 20
227.266296
 11
252.391312
 21
59.266296
  0
POLYLINE
  8
0
 62
     5
 66
     1
 70
     2
  0
VERTEX
  8
0
 10
254.119568
 20
221.217377
  0
VERTEX
  8
0
 10
252.391312
 20
227.266296
  0
VERTEX
  8
0
 10
250.663055
 20
221.217377
  0
SEQEND
  0
POLYLINE
  8
0
 62
     5
 66
     1
 70
     2
  0
VERTEX
  8
0
 10
250.663055
 20
65.315208
  0
VERTEX
  8
0
 10
252.391312
 20
59.266296
  0
VERTEX
  8
0
 10
254.119568
 20
65.315208
  0
SEQEND
  0
LINE
  8
0
 62
     5
 10
190.173920
 20
227.266296
 11
254.983704
 21
227.266296
  0
LINE
  8
0
 62
     5
 10
190.173920
 20
59.266296
 11
254.983704
 21
59.266296
  0
TEXT
  8
0
 62
     7
 10
250.663055
 20
130.304337
 40
8.641304
 41
1.000000
  1
%%c168
  7
KANJI
 50
90.000000
 51
0.000000
  0
LINE
  8
0
 62
     5
 10
150.173920
 20
261.831512
 11
190.173920
 21
261.831512
  0
POLYLINE
  8
0
 62
     5
 66
     1
 70
     2
  0
VERTEX
  8
0
 10
156.222839
 20
263.559784
  0
VERTEX
  8
0
 10
150.173920
 20
261.831512
  0
VERTEX
  8
0
 10
156.222839
 20
260.103241
  0
SEQEND
  0
POLYLINE
  8
0
 62
     5
 66
     1
 70
     2
  0
VERTEX
  8
0
 10
184.125000
 20
260.103241
  0
VERTEX
  8
0
 10
190.173920
 20
261.831512
  0
VERTEX
  8
0
 10
184.125000
 20
263.559784
  0
SEQEND
  0
LINE
  8
0
 62
     5
 10
150.173920
 20
227.266296
 11
150.173920
 21
264.423889
  0
LINE
  8
0
 62
     5
 10
190.173920
 20
227.266296
 11
190.173920
 21
264.423889
  0
TEXT
  8
0
 62
     7
 10
164.557068
 20
263.214111
 40
8.641304
 41
1.000000
  1
40
  7
KANJI
 50
0.000000
 51
0.000000
  0
LINE
  8
DASHDOT
 62
     7
 10
144.989136
 20
223.266296
 11
195.358704
 21
223.266296
  0
LINE
  8
DASHDOT
 62
     7
 10
144.989136
 20
63.266296
 11
195.358704
 21
63.266296
  0
LINE
  8
DASHDOT
 62
     7
 10
144.989136
 20
143.266296
 11
195.358704
 21
143.266296
  0
LINE
  8
0
 62
     5
 10
189.173920
 20
59.266296
 11
190.173920
 21
59.266296
  0
LINE
  8
0
 62
     5
 10
189.173920
 20
227.266296
 11
190.173920
 21
227.266296
  0
LINE
  8
0
 62
     5
 10
190.173920
 20
226.266296
 11
190.173920
 21
227.266296
  0
LINE
  8
0
 62
     5
 10
150.173920
 20
226.266296
 11
150.173920
 21
227.266296
  0
LINE
  8
0
 62
     4
 10
150.173920
 20
218.266296
 11
190.173920
 21
218.266296
  0
LINE
  8
0
 62
     4
 10
150.173920
 20
68.266296
 11
190.173920
 21
68.266296
  0
LINE
  8
0
 62
     4
 10
190.173920
 20
166.766296
 11
189.173920
 21
165.766296
  0
LINE
  8
0
 62
     4
 10
190.173920
 20
119.766296
 11
189.173920
 21
120.766296
  0
LINE
  8
0
 62
     4
 10
150.173920
 20
119.766296
 11
151.173920
 21
120.766296
  0
POLYLINE
  8
0
 62
     4
 66
     1
 70
     2
  0
VERTEX
  8
0
 10
150.173920
 20
119.766296
  0
VERTEX
  8
0
 10
150.173920
 20
60.266296
  0
VERTEX
  8
0
 10
151.173920
 20
59.266296
  0
VERTEX
  8
0
 10
189.173920
 20
59.266296
  0
VERTEX
  8
0
 10
190.173920
 20
60.266296
  0
VERTEX
  8
0
 10
190.173920
 20
226.266296
  0
VERTEX
  8
0
 10
189.173920
 20
227.266296
  0
VERTEX
  8
0
 10
151.173920
 20
227.266296
  0
VERTEX
  8
0
 10
150.173920
 20
226.266296
  0
VERTEX
  8
0
 10
150.173920
 20
119.766296
  0
SEQEND
  0
POLYLINE
  8
0
 62
     4
 66
     1
 70
     2
  0
VERTEX
  8
0
 10
150.173920
 20
166.766296
  0
VERTEX
  8
0
 10
151.173920
 20
165.766296
  0
VERTEX
  8
0
 10
151.173920
 20
120.766296
  0
VERTEX
  8
0
 10
189.173920
 20
120.766296
  0
VERTEX
  8
0
 10
189.173920
 20
165.766296
  0
VERTEX
  8
0
 10
151.173920
 20
165.766296
  0
SEQEND
  0
ARC
  8
0
 62
     4
 10
299.086975
 20
143.266296
 40
22.500000
 50
108.1262038101694
 51
71.87379618983061
  0
POLYLINE
  8
0
 62
     4
 66
     1
 70
     2
  0
VERTEX
  8
0
 10
306.086975
 20
164.649704
  0
VERTEX
  8
0
 10
306.086975
 20
169.566299
  0
VERTEX
  8
0
 10
292.086975
 20
169.566299
  0
VERTEX
  8
0
 10
292.086975
 20
164.649704
  0
SEQEND
  0
LINE
  8
0
 62
     4
 10
150.173920
 20
169.566299
 11
190.173920
 21
169.566299
  0
LINE
  8
DASHDOT
 62
     7
 10
299.086975
 20
174.751083
 11
299.086975
 21
115.581512
  0
LINE
  8
DASHDOT
 62
     7
 10
326.771729
 20
143.266296
 11
271.402191
 21
143.266296
  0
LINE
  8
0
 62
     5
 10
316.456543
 20
181.664124
 11
281.717407
 21
181.664124
  0
POLYLINE
  8
0
 62
     5
 66
     1
 70
     2
  0
VERTEX
  8
0
 10
286.038025
 20
179.935867
  0
VERTEX
  8
0
 10
292.086975
 20
181.664124
  0
VERTEX
  8
0
 10
286.038025
 20
183.392380
  0
SEQEND
  0
POLYLINE
  8
0
 62
     5
 66
     1
 70
     2
  0
VERTEX
  8
0
 10
312.135864
 20
183.392380
  0
VERTEX
  8
0
 10
306.086975
 20
181.664124
  0
VERTEX
  8
0
 10
312.135864
 20
179.935867
  0
SEQEND
  0
LINE
  8
0
 62
     5
 10
292.086975
 20
169.566299
 11
292.086975
 21
184.256516
  0
LINE
  8
0
 62
     5
 10
306.086975
 20
169.566299
 11
306.086975
 21
184.256516
  0
TEXT
  8
0
 62
     7
 10
274.768616
 20
183.392380
 40
8.641304
 41
1.000000
  1
14
  7
KANJI
 50
0.000000
 51
0.000000
  0
TEXT
  8
0
 62
     7
 10
289.371368
 20
183.392380
 40
6.913043
 41
1.000000
  1
%%p0.0215
  7
KANJI
 50
0.000000
 51
0.000000
  0
LINE
  8
0
 62
     5
 10
366.576111
 20
169.566299
 11
366.576111
 21
120.766296
  0
POLYLINE
  8
0
 62
     5
 66
     1
 70
     2
  0
VERTEX
  8
0
 10
368.304352
 20
163.517380
  0
VERTEX
  8
0
 10
366.576111
 20
169.566299
  0
VERTEX
  8
0
 10
364.847839
 20
163.517380
  0
SEQEND
  0
POLYLINE
  8
0
 62
     5
 66
     1
 70
     2
  0
VERTEX
  8
0
 10
364.847839
 20
126.815208
  0
VERTEX
  8
0
 10
366.576111
 20
120.766296
  0
VERTEX
  8
0
 10
368.304352
 20
126.815208
  0
SEQEND
  0
LINE
  8
0
 62
     5
 10
306.086975
 20
169.566299
 11
369.168488
 21
169.566299
  0
LINE
  8
0
 62
     5
 10
299.086975
 20
120.766296
 11
369.168488
 21
120.766296
  0
TEXT
  8
0
 62
     7
 10
363.983704
 20
115.646835
 40
8.641304
 41
1.000000
  1
48.8
  7
KANJI
 50
90.000000
 51
0.000000
  0
TEXT
  8
0
 62
     7
 10
364.502197
 20
153.049820
 40
4.320652
 41
1.000000
  1
 
  7
KANJI
 50
90.000000
 51
0.000000
  0
TEXT
  8
0
 62
     7
 10
359.144592
 20
153.049820
 40
4.320652
 41
1.000000
  1
+
  7
KANJI
 50
90.000000
 51
0.000000
  0
TEXT
  8
0
 62
     7
 10
364.502197
 20
157.888962
 40
4.320652
 41
1.000000
  1
0
  7
KANJI
 50
90.000000
 51
0.000000
  0
TEXT
  8
0
 62
     7
 10
359.144592
 20
157.888962
 40
4.320652
 41
1.000000
  1
0.2
  7
KANJI
 50
90.000000
 51
0.000000
  0
LINE
  8
0
 62
     5
 10
224.739136
 20
165.766296
 11
224.739136
 21
120.766296
  0
POLYLINE
  8
0
 62
     5
 66
     1
 70
     2
  0
VERTEX
  8
0
 10
223.010864
 20
126.815208
  0
VERTEX
  8
0
 10
224.739136
 20
120.766296
  0
VERTEX
  8
0
 10
226.467407
 20
126.815208
  0
SEQEND
  0
LINE
  8
0
 62
     5
 10
190.173920
 20
120.766296
 11
227.331528
 21
120.766296
  0
TEXT
  8
0
 62
     7
 10
223.010864
 20
127.495911
 40
8.641304
 41
1.000000
  1
%%c45H7
  7
KANJI
 50
90.000000
 51
0.000000
  0
ENDSEC
  0
EOF
