  0
SECTION
  2
HEADER
  9
$ACADVER
  1
AC1003
  9
$INSBASE
 10
0.000000
 20
0.000000
  9
$EXTMIN
 10
0.000000
 20
0.000000
  9
$EXTMAX
 10
609.978261
 20
421.793478
  9
$LIMMIN
 10
0.000000
 20
0.000000
  9
$LIMMAX
 10
609.978261
 20
421.793478
  9
$VIEWCTR
 10
304.989130
 20
210.896739
  9
$VIEWSIZE
 40
421.793478
  0
ENDSEC
  0
SECTION
  2
TABLES
  0
TABLE
  2
LTYPE
 70
     4
  0
LTYPE
  2
CONTINUOUS
 70
    64
  3
SolidLine
 72
    65
 73
     0
 40
0.0
  0
LTYPE
  2
HIDDEN
 70
    64
  3
------------------------
 72
    65
 73
     2
 40
6.489130
 49
4.326087
 49
-2.163043
  0
LTYPE
  2
DASHDOT
 70
    64
  3
--?--?--?--?--?--?--?--
 72
    65
 73
     4
 40
25.956522
 49
19.467391
 49
-2.163043
 49
2.163043
 49
-2.163043
  0
LTYPE
  2
DIVIDE
 70
    64
  3
--??--??--??--??--??--
 72
    65
 73
     6
 40
32.445652
 49
21.630435
 49
-2.163043
 49
2.163043
 49
-2.163043
 49
2.163043
 49
-2.163043
  0
ENDTAB
  0
TABLE
  2
LAYER
 70
     5
  0
LAYER
  2
0
 70
    64
 62
     7
  6
CONTINUOUS
  0
LAYER
  2
HIDDEN
 70
    64
 62
     2
  6
HIDDEN
  0
LAYER
  2
DASHDOT
 70
    64
 62
     6
  6
DASHDOT
  0
LAYER
  2
DIVIDE
 70
    64
 62
     5
  6
DIVIDE
  0
ENDTAB
  0
TABLE
  2
STYLE
 70
     1
  0
STYLE
  2
STANDARD
 70
    64
 40
0.0
 41
1.0
 50
0.0
 71
     0
 42
0.2
  3
TXT
  4

  0
STYLE
  2
KANJI
 70
    64
 40
0.0
 41
1.0
 50
0.0
 71
     0
 42
0.2
  3
TXT
  4
BIGFONT
  0
ENDTAB
  0
TABLE
  2
VIEW
 70
     0
  0
ENDTAB
  0
ENDSEC
  0
SECTION
  2
BLOCKS
  0
ENDSEC
  0
SECTION
  2
ENTITIES
  0
TEXT
  8
0
 62
     7
 10
21.630434
 20
23.793478
 40
8.652174
 41
1.000000
  1
KHK SUSA4-50
  7
KANJI
 50
0.000000
 51
0.000000
  0
TEXT
  8
0
 62
     7
 10
21.630434
 20
10.815217
 40
8.652174
 41
1.000000
  1

  7
KANJI
 50
0.000000
 51
0.000000
  0
TEXT
  8
0
 62
     7
 10
21.630434
 20
389.347839
 40
9.733696
 41
1.000000
  1

  7
KANJI
 50
0.000000
 51
0.000000
  0
POLYLINE
  8
0
 62
     7
 66
     1
 70
     2
  0
VERTEX
  8
0
 10
519.130432
 20
389.347839
  0
VERTEX
  8
0
 10
510.694550
 20
403.970001
  0
VERTEX
  8
0
 10
544.438049
 20
403.970001
  0
VERTEX
  8
0
 10
536.002197
 20
389.347839
  0
VERTEX
  8
0
 10
527.566284
 20
403.970001
  0
VERTEX
  8
0
 10
519.130432
 20
389.347839
  0
SEQEND
  0
LINE
  8
0
 62
     5
 10
321.815216
 20
284.440216
 11
321.815216
 21
76.440216
  0
POLYLINE
  8
0
 62
     5
 66
     1
 70
     2
  0
VERTEX
  8
0
 10
323.978271
 20
276.869568
  0
VERTEX
  8
0
 10
321.815216
 20
284.440216
  0
VERTEX
  8
0
 10
319.652161
 20
276.869568
  0
SEQEND
  0
POLYLINE
  8
0
 62
     5
 66
     1
 70
     2
  0
VERTEX
  8
0
 10
319.652161
 20
84.010864
  0
VERTEX
  8
0
 10
321.815216
 20
76.440216
  0
VERTEX
  8
0
 10
323.978271
 20
84.010864
  0
SEQEND
  0
LINE
  8
0
 62
     5
 10
243.945648
 20
284.440216
 11
325.059784
 21
284.440216
  0
LINE
  8
0
 62
     5
 10
243.945648
 20
76.440216
 11
325.059784
 21
76.440216
  0
TEXT
  8
0
 62
     7
 10
319.652161
 20
164.217392
 40
10.815217
 41
1.000000
  1
%%c208
  7
KANJI
 50
90.000000
 51
0.000000
  0
LINE
  8
0
 62
     5
 10
203.945648
 20
327.701080
 11
243.945648
 21
327.701080
  0
POLYLINE
  8
0
 62
     5
 66
     1
 70
     2
  0
VERTEX
  8
0
 10
211.516296
 20
329.864136
  0
VERTEX
  8
0
 10
203.945648
 20
327.701080
  0
VERTEX
  8
0
 10
211.516296
 20
325.538025
  0
SEQEND
  0
POLYLINE
  8
0
 62
     5
 66
     1
 70
     2
  0
VERTEX
  8
0
 10
236.375000
 20
325.538025
  0
VERTEX
  8
0
 10
243.945648
 20
327.701080
  0
VERTEX
  8
0
 10
236.375000
 20
329.864136
  0
SEQEND
  0
LINE
  8
0
 62
     5
 10
203.945648
 20
284.440216
 11
203.945648
 21
330.945648
  0
LINE
  8
0
 62
     5
 10
243.945648
 20
284.440216
 11
243.945648
 21
330.945648
  0
TEXT
  8
0
 62
     7
 10
216.915756
 20
329.431519
 40
10.815217
 41
1.000000
  1
40
  7
KANJI
 50
0.000000
 51
0.000000
  0
LINE
  8
DASHDOT
 62
     7
 10
197.456512
 20
280.440216
 11
250.434784
 21
280.440216
  0
LINE
  8
DASHDOT
 62
     7
 10
197.456512
 20
80.440216
 11
250.434784
 21
80.440216
  0
LINE
  8
DASHDOT
 62
     7
 10
197.456512
 20
180.440216
 11
250.434784
 21
180.440216
  0
LINE
  8
0
 62
     5
 10
242.945648
 20
76.440216
 11
243.945648
 21
76.440216
  0
LINE
  8
0
 62
     5
 10
242.945648
 20
284.440216
 11
243.945648
 21
284.440216
  0
LINE
  8
0
 62
     5
 10
243.945648
 20
283.440216
 11
243.945648
 21
284.440216
  0
LINE
  8
0
 62
     5
 10
203.945648
 20
283.440216
 11
203.945648
 21
284.440216
  0
LINE
  8
0
 62
     4
 10
203.945648
 20
275.440216
 11
243.945648
 21
275.440216
  0
LINE
  8
0
 62
     4
 10
203.945648
 20
85.440216
 11
243.945648
 21
85.440216
  0
LINE
  8
0
 62
     4
 10
243.945648
 20
196.440216
 11
242.945648
 21
195.440216
  0
LINE
  8
0
 62
     4
 10
243.945648
 20
164.440216
 11
242.945648
 21
165.440216
  0
LINE
  8
0
 62
     4
 10
203.945648
 20
164.440216
 11
204.945648
 21
165.440216
  0
POLYLINE
  8
0
 62
     4
 66
     1
 70
     2
  0
VERTEX
  8
0
 10
203.945648
 20
164.440216
  0
VERTEX
  8
0
 10
203.945648
 20
77.440216
  0
VERTEX
  8
0
 10
204.945648
 20
76.440216
  0
VERTEX
  8
0
 10
242.945648
 20
76.440216
  0
VERTEX
  8
0
 10
243.945648
 20
77.440216
  0
VERTEX
  8
0
 10
243.945648
 20
283.440216
  0
VERTEX
  8
0
 10
242.945648
 20
284.440216
  0
VERTEX
  8
0
 10
204.945648
 20
284.440216
  0
VERTEX
  8
0
 10
203.945648
 20
283.440216
  0
VERTEX
  8
0
 10
203.945648
 20
164.440216
  0
SEQEND
  0
POLYLINE
  8
0
 62
     4
 66
     1
 70
     2
  0
VERTEX
  8
0
 10
203.945648
 20
196.440216
  0
VERTEX
  8
0
 10
204.945648
 20
195.440216
  0
VERTEX
  8
0
 10
204.945648
 20
165.440216
  0
VERTEX
  8
0
 10
242.945648
 20
165.440216
  0
VERTEX
  8
0
 10
242.945648
 20
195.440216
  0
VERTEX
  8
0
 10
204.945648
 20
195.440216
  0
SEQEND
  0
LINE
  8
0
 62
     5
 10
287.206512
 20
152.461960
 11
287.206512
 21
208.418472
  0
POLYLINE
  8
0
 62
     5
 66
     1
 70
     2
  0
VERTEX
  8
0
 10
285.043457
 20
203.010864
  0
VERTEX
  8
0
 10
287.206512
 20
195.440216
  0
VERTEX
  8
0
 10
289.369568
 20
203.010864
  0
SEQEND
  0
POLYLINE
  8
0
 62
     5
 66
     1
 70
     2
  0
VERTEX
  8
0
 10
289.369568
 20
157.869568
  0
VERTEX
  8
0
 10
287.206512
 20
165.440216
  0
VERTEX
  8
0
 10
285.043457
 20
157.869568
  0
SEQEND
  0
LINE
  8
0
 62
     5
 10
243.945648
 20
195.440216
 11
290.451080
 21
195.440216
  0
LINE
  8
0
 62
     5
 10
243.945648
 20
165.440216
 11
290.451080
 21
165.440216
  0
TEXT
  8
0
 62
     7
 10
285.043457
 20
160.702454
 40
10.815217
 41
1.000000
  1
%%c30H7
  7
KANJI
 50
90.000000
 51
0.000000
  0
ENDSEC
  0
EOF
