  0
SECTION
  2
HEADER
  9
$ACADVER
  1
AC1003
  9
$INSBASE
 10
0.000000
 20
0.000000
  9
$EXTMIN
 10
0.000000
 20
0.000000
  9
$EXTMAX
 10
319.932065
 20
221.229620
  9
$LIMMIN
 10
0.000000
 20
0.000000
  9
$LIMMAX
 10
319.932065
 20
221.229620
  9
$VIEWCTR
 10
159.966033
 20
110.614810
  9
$VIEWSIZE
 40
221.229620
  0
ENDSEC
  0
SECTION
  2
TABLES
  0
TABLE
  2
LTYPE
 70
     4
  0
LTYPE
  2
CONTINUOUS
 70
    64
  3
SolidLine
 72
    65
 73
     0
 40
0.0
  0
LTYPE
  2
HIDDEN
 70
    64
  3
------------------------
 72
    65
 73
     2
 40
3.403533
 49
2.269022
 49
-1.134511
  0
LTYPE
  2
DASHDOT
 70
    64
  3
--?--?--?--?--?--?--?--
 72
    65
 73
     4
 40
13.614130
 49
10.210598
 49
-1.134511
 49
1.134511
 49
-1.134511
  0
LTYPE
  2
DIVIDE
 70
    64
  3
--??--??--??--??--??--
 72
    65
 73
     6
 40
17.017663
 49
11.345109
 49
-1.134511
 49
1.134511
 49
-1.134511
 49
1.134511
 49
-1.134511
  0
ENDTAB
  0
TABLE
  2
LAYER
 70
     5
  0
LAYER
  2
0
 70
    64
 62
     7
  6
CONTINUOUS
  0
LAYER
  2
HIDDEN
 70
    64
 62
     2
  6
HIDDEN
  0
LAYER
  2
DASHDOT
 70
    64
 62
     6
  6
DASHDOT
  0
LAYER
  2
DIVIDE
 70
    64
 62
     5
  6
DIVIDE
  0
ENDTAB
  0
TABLE
  2
STYLE
 70
     1
  0
STYLE
  2
STANDARD
 70
    64
 40
0.0
 41
1.0
 50
0.0
 71
     0
 42
0.2
  3
TXT
  4

  0
STYLE
  2
KANJI
 70
    64
 40
0.0
 41
1.0
 50
0.0
 71
     0
 42
0.2
  3
TXT
  4
BIGFONT
  0
ENDTAB
  0
TABLE
  2
VIEW
 70
     0
  0
ENDTAB
  0
ENDSEC
  0
SECTION
  2
BLOCKS
  0
ENDSEC
  0
SECTION
  2
ENTITIES
  0
TEXT
  8
0
 62
     7
 10
11.345109
 20
12.479620
 40
4.538043
 41
1.000000
  1
KHK SUSA2.5-42J40
  7
KANJI
 50
0.000000
 51
0.000000
  0
TEXT
  8
0
 62
     7
 10
11.345109
 20
5.672554
 40
4.538043
 41
1.000000
  1
The precision grade of gears after secondary operations is equivalent but not identical to its original grade.
  7
KANJI
 50
0.000000
 51
0.000000
  0
TEXT
  8
0
 62
     7
 10
11.345109
 20
204.211960
 40
5.105299
 41
1.000000
  1

  7
KANJI
 50
0.000000
 51
0.000000
  0
POLYLINE
  8
0
 62
     7
 66
     1
 70
     2
  0
VERTEX
  8
0
 10
272.282623
 20
204.211960
  0
VERTEX
  8
0
 10
267.858032
 20
211.881256
  0
VERTEX
  8
0
 10
285.556396
 20
211.881256
  0
VERTEX
  8
0
 10
281.131805
 20
204.211960
  0
VERTEX
  8
0
 10
276.707214
 20
211.881256
  0
VERTEX
  8
0
 10
272.282623
 20
204.211960
  0
SEQEND
  0
LINE
  8
0
 62
     5
 10
161.735046
 20
149.188171
 11
161.735046
 21
39.188171
  0
POLYLINE
  8
0
 62
     5
 66
     1
 70
     2
  0
VERTEX
  8
0
 10
162.869568
 20
145.217377
  0
VERTEX
  8
0
 10
161.735046
 20
149.188171
  0
VERTEX
  8
0
 10
160.600540
 20
145.217377
  0
SEQEND
  0
POLYLINE
  8
0
 62
     5
 66
     1
 70
     2
  0
VERTEX
  8
0
 10
160.600540
 20
43.158958
  0
VERTEX
  8
0
 10
161.735046
 20
39.188171
  0
VERTEX
  8
0
 10
162.869568
 20
43.158958
  0
SEQEND
  0
LINE
  8
0
 62
     5
 10
120.892662
 20
149.188171
 11
163.436829
 21
149.188171
  0
LINE
  8
0
 62
     5
 10
120.892662
 20
39.188171
 11
163.436829
 21
39.188171
  0
TEXT
  8
0
 62
     7
 10
160.600540
 20
85.679337
 40
5.672554
 41
1.000000
  1
%%c110
  7
KANJI
 50
90.000000
 51
0.000000
  0
LINE
  8
0
 62
     5
 10
95.892662
 20
171.878387
 11
120.892662
 21
171.878387
  0
POLYLINE
  8
0
 62
     5
 66
     1
 70
     2
  0
VERTEX
  8
0
 10
99.863449
 20
173.012909
  0
VERTEX
  8
0
 10
95.892662
 20
171.878387
  0
VERTEX
  8
0
 10
99.863449
 20
170.743866
  0
SEQEND
  0
POLYLINE
  8
0
 62
     5
 66
     1
 70
     2
  0
VERTEX
  8
0
 10
116.921875
 20
170.743866
  0
VERTEX
  8
0
 10
120.892662
 20
171.878387
  0
VERTEX
  8
0
 10
116.921875
 20
173.012909
  0
SEQEND
  0
LINE
  8
0
 62
     5
 10
95.892662
 20
149.188171
 11
95.892662
 21
173.580154
  0
LINE
  8
0
 62
     5
 10
120.892662
 20
149.188171
 11
120.892662
 21
173.580154
  0
TEXT
  8
0
 62
     7
 10
104.705505
 20
172.785995
 40
5.672554
 41
1.000000
  1
25
  7
KANJI
 50
0.000000
 51
0.000000
  0
LINE
  8
DASHDOT
 62
     7
 10
92.489128
 20
146.688171
 11
124.296196
 21
146.688171
  0
LINE
  8
DASHDOT
 62
     7
 10
92.489128
 20
41.688171
 11
124.296196
 21
41.688171
  0
LINE
  8
DASHDOT
 62
     7
 10
92.489128
 20
94.188171
 11
124.296196
 21
94.188171
  0
LINE
  8
0
 62
     5
 10
119.892662
 20
39.188171
 11
120.892662
 21
39.188171
  0
LINE
  8
0
 62
     5
 10
119.892662
 20
149.188171
 11
120.892662
 21
149.188171
  0
LINE
  8
0
 62
     5
 10
120.892662
 20
148.188171
 11
120.892662
 21
149.188171
  0
LINE
  8
0
 62
     5
 10
95.892662
 20
148.188171
 11
95.892662
 21
149.188171
  0
LINE
  8
0
 62
     4
 10
95.892662
 20
143.563171
 11
120.892662
 21
143.563171
  0
LINE
  8
0
 62
     4
 10
95.892662
 20
44.813171
 11
120.892662
 21
44.813171
  0
LINE
  8
0
 62
     4
 10
120.892662
 20
115.188171
 11
119.892662
 21
114.188171
  0
LINE
  8
0
 62
     4
 10
120.892662
 20
73.188171
 11
119.892662
 21
74.188171
  0
LINE
  8
0
 62
     4
 10
95.892662
 20
73.188171
 11
96.892662
 21
74.188171
  0
POLYLINE
  8
0
 62
     4
 66
     1
 70
     2
  0
VERTEX
  8
0
 10
95.892662
 20
73.188171
  0
VERTEX
  8
0
 10
95.892662
 20
40.188171
  0
VERTEX
  8
0
 10
96.892662
 20
39.188171
  0
VERTEX
  8
0
 10
119.892662
 20
39.188171
  0
VERTEX
  8
0
 10
120.892662
 20
40.188171
  0
VERTEX
  8
0
 10
120.892662
 20
148.188171
  0
VERTEX
  8
0
 10
119.892662
 20
149.188171
  0
VERTEX
  8
0
 10
96.892662
 20
149.188171
  0
VERTEX
  8
0
 10
95.892662
 20
148.188171
  0
VERTEX
  8
0
 10
95.892662
 20
73.188171
  0
SEQEND
  0
POLYLINE
  8
0
 62
     4
 66
     1
 70
     2
  0
VERTEX
  8
0
 10
95.892662
 20
115.188171
  0
VERTEX
  8
0
 10
96.892662
 20
114.188171
  0
VERTEX
  8
0
 10
96.892662
 20
74.188171
  0
VERTEX
  8
0
 10
119.892662
 20
74.188171
  0
VERTEX
  8
0
 10
119.892662
 20
114.188171
  0
VERTEX
  8
0
 10
96.892662
 20
114.188171
  0
SEQEND
  0
ARC
  8
0
 62
     4
 10
197.618195
 20
94.188171
 40
20.000000
 50
107.45760274776076
 51
72.54239725223924
  0
POLYLINE
  8
0
 62
     4
 66
     1
 70
     2
  0
VERTEX
  8
0
 10
203.618195
 20
113.266953
  0
VERTEX
  8
0
 10
203.618195
 20
117.488174
  0
VERTEX
  8
0
 10
191.618195
 20
117.488174
  0
VERTEX
  8
0
 10
191.618195
 20
113.266953
  0
SEQEND
  0
LINE
  8
0
 62
     4
 10
95.892662
 20
117.488174
 11
120.892662
 21
117.488174
  0
LINE
  8
DASHDOT
 62
     7
 10
197.618195
 20
120.891708
 11
197.618195
 21
70.784637
  0
LINE
  8
DASHDOT
 62
     7
 10
221.021729
 20
94.188171
 11
174.214676
 21
94.188171
  0
LINE
  8
0
 62
     5
 10
210.425262
 20
125.429749
 11
184.811127
 21
125.429749
  0
POLYLINE
  8
0
 62
     5
 66
     1
 70
     2
  0
VERTEX
  8
0
 10
187.647415
 20
124.295235
  0
VERTEX
  8
0
 10
191.618195
 20
125.429749
  0
VERTEX
  8
0
 10
187.647415
 20
126.564255
  0
SEQEND
  0
POLYLINE
  8
0
 62
     5
 66
     1
 70
     2
  0
VERTEX
  8
0
 10
207.588989
 20
126.564255
  0
VERTEX
  8
0
 10
203.618195
 20
125.429749
  0
VERTEX
  8
0
 10
207.588989
 20
124.295235
  0
SEQEND
  0
LINE
  8
0
 62
     5
 10
191.618195
 20
117.488174
 11
191.618195
 21
127.131516
  0
LINE
  8
0
 62
     5
 10
203.618195
 20
117.488174
 11
203.618195
 21
127.131516
  0
TEXT
  8
0
 62
     7
 10
181.654510
 20
126.564255
 40
5.672554
 41
1.000000
  1
12
  7
KANJI
 50
0.000000
 51
0.000000
  0
TEXT
  8
0
 62
     7
 10
191.240433
 20
126.564255
 40
4.538043
 41
1.000000
  1
%%p0.0215
  7
KANJI
 50
0.000000
 51
0.000000
  0
LINE
  8
0
 62
     5
 10
243.326080
 20
117.488174
 11
243.326080
 21
74.188171
  0
POLYLINE
  8
0
 62
     5
 66
     1
 70
     2
  0
VERTEX
  8
0
 10
244.460602
 20
113.517380
  0
VERTEX
  8
0
 10
243.326080
 20
117.488174
  0
VERTEX
  8
0
 10
242.191589
 20
113.517380
  0
SEQEND
  0
POLYLINE
  8
0
 62
     5
 66
     1
 70
     2
  0
VERTEX
  8
0
 10
242.191589
 20
78.158958
  0
VERTEX
  8
0
 10
243.326080
 20
74.188171
  0
VERTEX
  8
0
 10
244.460602
 20
78.158958
  0
SEQEND
  0
LINE
  8
0
 62
     5
 10
203.618195
 20
117.488174
 11
245.027863
 21
117.488174
  0
LINE
  8
0
 62
     5
 10
197.618195
 20
74.188171
 11
245.027863
 21
74.188171
  0
TEXT
  8
0
 62
     7
 10
241.624329
 20
75.333687
 40
5.672554
 41
1.000000
  1
43.3
  7
KANJI
 50
90.000000
 51
0.000000
  0
TEXT
  8
0
 62
     7
 10
241.964661
 20
99.886749
 40
2.836277
 41
1.000000
  1
 
  7
KANJI
 50
90.000000
 51
0.000000
  0
TEXT
  8
0
 62
     7
 10
238.447693
 20
99.886749
 40
2.836277
 41
1.000000
  1
+
  7
KANJI
 50
90.000000
 51
0.000000
  0
TEXT
  8
0
 62
     7
 10
241.964661
 20
103.063377
 40
2.836277
 41
1.000000
  1
0
  7
KANJI
 50
90.000000
 51
0.000000
  0
TEXT
  8
0
 62
     7
 10
238.447693
 20
103.063377
 40
2.836277
 41
1.000000
  1
0.2
  7
KANJI
 50
90.000000
 51
0.000000
  0
LINE
  8
0
 62
     5
 10
143.582886
 20
114.188171
 11
143.582886
 21
74.188171
  0
POLYLINE
  8
0
 62
     5
 66
     1
 70
     2
  0
VERTEX
  8
0
 10
142.448364
 20
78.158958
  0
VERTEX
  8
0
 10
143.582886
 20
74.188171
  0
VERTEX
  8
0
 10
144.717392
 20
78.158958
  0
SEQEND
  0
LINE
  8
0
 62
     5
 10
120.892662
 20
74.188171
 11
145.284637
 21
74.188171
  0
TEXT
  8
0
 62
     7
 10
142.448364
 20
83.835762
 40
5.672554
 41
1.000000
  1
%%c40H7
  7
KANJI
 50
90.000000
 51
0.000000
  0
ENDSEC
  0
EOF
