  0
SECTION
  2
HEADER
  9
$ACADVER
  1
AC1003
  9
$INSBASE
 10
0.000000
 20
0.000000
  9
$EXTMIN
 10
0.000000
 20
0.000000
  9
$EXTMAX
 10
319.548913
 20
220.964674
  9
$LIMMIN
 10
0.000000
 20
0.000000
  9
$LIMMAX
 10
319.548913
 20
220.964674
  9
$VIEWCTR
 10
159.774457
 20
110.482337
  9
$VIEWSIZE
 40
220.964674
  0
ENDSEC
  0
SECTION
  2
TABLES
  0
TABLE
  2
LTYPE
 70
     4
  0
LTYPE
  2
CONTINUOUS
 70
    64
  3
SolidLine
 72
    65
 73
     0
 40
0.0
  0
LTYPE
  2
HIDDEN
 70
    64
  3
------------------------
 72
    65
 73
     2
 40
3.399457
 49
2.266304
 49
-1.133152
  0
LTYPE
  2
DASHDOT
 70
    64
  3
--?--?--?--?--?--?--?--
 72
    65
 73
     4
 40
13.597826
 49
10.198370
 49
-1.133152
 49
1.133152
 49
-1.133152
  0
LTYPE
  2
DIVIDE
 70
    64
  3
--??--??--??--??--??--
 72
    65
 73
     6
 40
16.997283
 49
11.331522
 49
-1.133152
 49
1.133152
 49
-1.133152
 49
1.133152
 49
-1.133152
  0
ENDTAB
  0
TABLE
  2
LAYER
 70
     5
  0
LAYER
  2
0
 70
    64
 62
     7
  6
CONTINUOUS
  0
LAYER
  2
HIDDEN
 70
    64
 62
     2
  6
HIDDEN
  0
LAYER
  2
DASHDOT
 70
    64
 62
     6
  6
DASHDOT
  0
LAYER
  2
DIVIDE
 70
    64
 62
     5
  6
DIVIDE
  0
ENDTAB
  0
TABLE
  2
STYLE
 70
     1
  0
STYLE
  2
STANDARD
 70
    64
 40
0.0
 41
1.0
 50
0.0
 71
     0
 42
0.2
  3
TXT
  4

  0
STYLE
  2
KANJI
 70
    64
 40
0.0
 41
1.0
 50
0.0
 71
     0
 42
0.2
  3
TXT
  4
BIGFONT
  0
ENDTAB
  0
TABLE
  2
VIEW
 70
     0
  0
ENDTAB
  0
ENDSEC
  0
SECTION
  2
BLOCKS
  0
ENDSEC
  0
SECTION
  2
ENTITIES
  0
TEXT
  8
0
 62
     7
 10
11.331522
 20
12.464674
 40
4.532609
 41
1.000000
  1
KHK SUSA3-35J40
  7
KANJI
 50
0.000000
 51
0.000000
  0
TEXT
  8
0
 62
     7
 10
11.331522
 20
5.665761
 40
4.532609
 41
1.000000
  1
The precision grade of gears after secondary operations is equivalent but not identical to its original grade.
  7
KANJI
 50
0.000000
 51
0.000000
  0
TEXT
  8
0
 62
     7
 10
11.331522
 20
203.967392
 40
5.099185
 41
1.000000
  1

  7
KANJI
 50
0.000000
 51
0.000000
  0
POLYLINE
  8
0
 62
     7
 66
     1
 70
     2
  0
VERTEX
  8
0
 10
271.956512
 20
203.967392
  0
VERTEX
  8
0
 10
267.537231
 20
211.627502
  0
VERTEX
  8
0
 10
285.214386
 20
211.627502
  0
VERTEX
  8
0
 10
280.795105
 20
203.967392
  0
VERTEX
  8
0
 10
276.375793
 20
211.627502
  0
VERTEX
  8
0
 10
271.956512
 20
203.967392
  0
SEQEND
  0
LINE
  8
0
 62
     5
 10
164.040771
 20
149.009521
 11
164.040771
 21
38.009514
  0
POLYLINE
  8
0
 62
     5
 66
     1
 70
     2
  0
VERTEX
  8
0
 10
165.173920
 20
145.043488
  0
VERTEX
  8
0
 10
164.040771
 20
149.009521
  0
VERTEX
  8
0
 10
162.907608
 20
145.043488
  0
SEQEND
  0
POLYLINE
  8
0
 62
     5
 66
     1
 70
     2
  0
VERTEX
  8
0
 10
162.907608
 20
41.975548
  0
VERTEX
  8
0
 10
164.040771
 20
38.009514
  0
VERTEX
  8
0
 10
165.173920
 20
41.975548
  0
SEQEND
  0
LINE
  8
0
 62
     5
 10
123.247284
 20
149.009521
 11
165.740494
 21
149.009521
  0
LINE
  8
0
 62
     5
 10
123.247284
 20
38.009514
 11
165.740494
 21
38.009514
  0
TEXT
  8
0
 62
     7
 10
162.907608
 20
85.010872
 40
5.665761
 41
1.000000
  1
%%c111
  7
KANJI
 50
90.000000
 51
0.000000
  0
LINE
  8
0
 62
     5
 10
93.247284
 20
171.672546
 11
123.247284
 21
171.672546
  0
POLYLINE
  8
0
 62
     5
 66
     1
 70
     2
  0
VERTEX
  8
0
 10
97.213318
 20
172.805710
  0
VERTEX
  8
0
 10
93.247284
 20
171.672546
  0
VERTEX
  8
0
 10
97.213318
 20
170.539398
  0
SEQEND
  0
POLYLINE
  8
0
 62
     5
 66
     1
 70
     2
  0
VERTEX
  8
0
 10
119.281250
 20
170.539398
  0
VERTEX
  8
0
 10
123.247284
 20
171.672546
  0
VERTEX
  8
0
 10
119.281250
 20
172.805710
  0
SEQEND
  0
LINE
  8
0
 62
     5
 10
93.247284
 20
149.009521
 11
93.247284
 21
173.372284
  0
LINE
  8
0
 62
     5
 10
123.247284
 20
149.009521
 11
123.247284
 21
173.372284
  0
TEXT
  8
0
 62
     7
 10
104.564537
 20
172.579071
 40
5.665761
 41
1.000000
  1
30
  7
KANJI
 50
0.000000
 51
0.000000
  0
LINE
  8
DASHDOT
 62
     7
 10
89.847824
 20
146.009521
 11
126.646744
 21
146.009521
  0
LINE
  8
DASHDOT
 62
     7
 10
89.847824
 20
41.009514
 11
126.646744
 21
41.009514
  0
LINE
  8
DASHDOT
 62
     7
 10
89.847824
 20
93.509514
 11
126.646744
 21
93.509514
  0
LINE
  8
0
 62
     5
 10
122.247284
 20
38.009514
 11
123.247284
 21
38.009514
  0
LINE
  8
0
 62
     5
 10
122.247284
 20
149.009521
 11
123.247284
 21
149.009521
  0
LINE
  8
0
 62
     5
 10
123.247284
 20
148.009521
 11
123.247284
 21
149.009521
  0
LINE
  8
0
 62
     5
 10
93.247284
 20
148.009521
 11
93.247284
 21
149.009521
  0
LINE
  8
0
 62
     4
 10
93.247284
 20
142.259521
 11
123.247284
 21
142.259521
  0
LINE
  8
0
 62
     4
 10
93.247284
 20
44.759514
 11
123.247284
 21
44.759514
  0
LINE
  8
0
 62
     4
 10
123.247284
 20
114.509514
 11
122.247284
 21
113.509514
  0
LINE
  8
0
 62
     4
 10
123.247284
 20
72.509514
 11
122.247284
 21
73.509514
  0
LINE
  8
0
 62
     4
 10
93.247284
 20
72.509514
 11
94.247284
 21
73.509514
  0
POLYLINE
  8
0
 62
     4
 66
     1
 70
     2
  0
VERTEX
  8
0
 10
93.247284
 20
72.509514
  0
VERTEX
  8
0
 10
93.247284
 20
39.009514
  0
VERTEX
  8
0
 10
94.247284
 20
38.009514
  0
VERTEX
  8
0
 10
122.247284
 20
38.009514
  0
VERTEX
  8
0
 10
123.247284
 20
39.009514
  0
VERTEX
  8
0
 10
123.247284
 20
148.009521
  0
VERTEX
  8
0
 10
122.247284
 20
149.009521
  0
VERTEX
  8
0
 10
94.247284
 20
149.009521
  0
VERTEX
  8
0
 10
93.247284
 20
148.009521
  0
VERTEX
  8
0
 10
93.247284
 20
72.509514
  0
SEQEND
  0
POLYLINE
  8
0
 62
     4
 66
     1
 70
     2
  0
VERTEX
  8
0
 10
93.247284
 20
114.509514
  0
VERTEX
  8
0
 10
94.247284
 20
113.509514
  0
VERTEX
  8
0
 10
94.247284
 20
73.509514
  0
VERTEX
  8
0
 10
122.247284
 20
73.509514
  0
VERTEX
  8
0
 10
122.247284
 20
113.509514
  0
VERTEX
  8
0
 10
94.247284
 20
113.509514
  0
SEQEND
  0
ARC
  8
0
 62
     4
 10
199.904892
 20
93.509514
 40
20.000000
 50
107.45760274776076
 51
72.54239725223924
  0
POLYLINE
  8
0
 62
     4
 66
     1
 70
     2
  0
VERTEX
  8
0
 10
205.904892
 20
112.588303
  0
VERTEX
  8
0
 10
205.904892
 20
116.809509
  0
VERTEX
  8
0
 10
193.904892
 20
116.809509
  0
VERTEX
  8
0
 10
193.904892
 20
112.588303
  0
SEQEND
  0
LINE
  8
0
 62
     4
 10
93.247284
 20
116.809509
 11
123.247284
 21
116.809509
  0
LINE
  8
DASHDOT
 62
     7
 10
199.904892
 20
120.208969
 11
199.904892
 21
70.110062
  0
LINE
  8
DASHDOT
 62
     7
 10
223.304352
 20
93.509514
 11
176.505432
 21
93.509514
  0
LINE
  8
0
 62
     5
 10
212.703796
 20
124.741577
 11
187.105988
 21
124.741577
  0
POLYLINE
  8
0
 62
     5
 66
     1
 70
     2
  0
VERTEX
  8
0
 10
189.938858
 20
123.608429
  0
VERTEX
  8
0
 10
193.904892
 20
124.741577
  0
VERTEX
  8
0
 10
189.938858
 20
125.874725
  0
SEQEND
  0
POLYLINE
  8
0
 62
     5
 66
     1
 70
     2
  0
VERTEX
  8
0
 10
209.870926
 20
125.874725
  0
VERTEX
  8
0
 10
205.904892
 20
124.741577
  0
VERTEX
  8
0
 10
209.870926
 20
123.608429
  0
SEQEND
  0
LINE
  8
0
 62
     5
 10
193.904892
 20
116.809509
 11
193.904892
 21
126.441307
  0
LINE
  8
0
 62
     5
 10
205.904892
 20
116.809509
 11
205.904892
 21
126.441307
  0
TEXT
  8
0
 62
     7
 10
183.960327
 20
125.874725
 40
5.665761
 41
1.000000
  1
12
  7
KANJI
 50
0.000000
 51
0.000000
  0
TEXT
  8
0
 62
     7
 10
193.534760
 20
125.874725
 40
4.532609
 41
1.000000
  1
%%p0.0215
  7
KANJI
 50
0.000000
 51
0.000000
  0
LINE
  8
0
 62
     5
 10
245.565216
 20
116.809509
 11
245.565216
 21
73.509514
  0
POLYLINE
  8
0
 62
     5
 66
     1
 70
     2
  0
VERTEX
  8
0
 10
246.698364
 20
112.843483
  0
VERTEX
  8
0
 10
245.565216
 20
116.809509
  0
VERTEX
  8
0
 10
244.432068
 20
112.843483
  0
SEQEND
  0
POLYLINE
  8
0
 62
     5
 66
     1
 70
     2
  0
VERTEX
  8
0
 10
244.432068
 20
77.475548
  0
VERTEX
  8
0
 10
245.565216
 20
73.509514
  0
VERTEX
  8
0
 10
246.698364
 20
77.475548
  0
SEQEND
  0
LINE
  8
0
 62
     5
 10
205.904892
 20
116.809509
 11
247.264938
 21
116.809509
  0
LINE
  8
0
 62
     5
 10
199.904892
 20
73.509514
 11
247.264938
 21
73.509514
  0
TEXT
  8
0
 62
     7
 10
243.865494
 20
74.674400
 40
5.665761
 41
1.000000
  1
43.3
  7
KANJI
 50
90.000000
 51
0.000000
  0
TEXT
  8
0
 62
     7
 10
244.205429
 20
99.198059
 40
2.832880
 41
1.000000
  1
 
  7
KANJI
 50
90.000000
 51
0.000000
  0
TEXT
  8
0
 62
     7
 10
240.692657
 20
99.198059
 40
2.832880
 41
1.000000
  1
+
  7
KANJI
 50
90.000000
 51
0.000000
  0
TEXT
  8
0
 62
     7
 10
244.205429
 20
102.370880
 40
2.832880
 41
1.000000
  1
0
  7
KANJI
 50
90.000000
 51
0.000000
  0
TEXT
  8
0
 62
     7
 10
240.692657
 20
102.370880
 40
2.832880
 41
1.000000
  1
0.2
  7
KANJI
 50
90.000000
 51
0.000000
  0
LINE
  8
0
 62
     5
 10
145.910324
 20
113.509514
 11
145.910324
 21
73.509514
  0
POLYLINE
  8
0
 62
     5
 66
     1
 70
     2
  0
VERTEX
  8
0
 10
144.777176
 20
77.475548
  0
VERTEX
  8
0
 10
145.910324
 20
73.509514
  0
VERTEX
  8
0
 10
147.043488
 20
77.475548
  0
SEQEND
  0
LINE
  8
0
 62
     5
 10
123.247284
 20
73.509514
 11
147.610062
 21
73.509514
  0
TEXT
  8
0
 62
     7
 10
144.777176
 20
83.169502
 40
5.665761
 41
1.000000
  1
%%c40H7
  7
KANJI
 50
90.000000
 51
0.000000
  0
ENDSEC
  0
EOF
