  0
SECTION
  2
HEADER
  9
$ACADVER
  1
AC1003
  9
$INSBASE
 10
0.000000
 20
0.000000
  9
$EXTMIN
 10
0.000000
 20
0.000000
  9
$EXTMAX
 10
194.641304
 20
134.592391
  9
$LIMMIN
 10
0.000000
 20
0.000000
  9
$LIMMAX
 10
194.641304
 20
134.592391
  9
$VIEWCTR
 10
97.320652
 20
67.296196
  9
$VIEWSIZE
 40
134.592391
  0
ENDSEC
  0
SECTION
  2
TABLES
  0
TABLE
  2
LTYPE
 70
     4
  0
LTYPE
  2
CONTINUOUS
 70
    64
  3
SolidLine
 72
    65
 73
     0
 40
0.0
  0
LTYPE
  2
HIDDEN
 70
    64
  3
------------------------
 72
    65
 73
     2
 40
2.070652
 49
1.380435
 49
-0.690217
  0
LTYPE
  2
DASHDOT
 70
    64
  3
--?--?--?--?--?--?--?--
 72
    65
 73
     4
 40
8.282609
 49
6.211957
 49
-0.690217
 49
0.690217
 49
-0.690217
  0
LTYPE
  2
DIVIDE
 70
    64
  3
--??--??--??--??--??--
 72
    65
 73
     6
 40
10.353261
 49
6.902174
 49
-0.690217
 49
0.690217
 49
-0.690217
 49
0.690217
 49
-0.690217
  0
ENDTAB
  0
TABLE
  2
LAYER
 70
     5
  0
LAYER
  2
0
 70
    64
 62
     7
  6
CONTINUOUS
  0
LAYER
  2
HIDDEN
 70
    64
 62
     2
  6
HIDDEN
  0
LAYER
  2
DASHDOT
 70
    64
 62
     6
  6
DASHDOT
  0
LAYER
  2
DIVIDE
 70
    64
 62
     5
  6
DIVIDE
  0
ENDTAB
  0
TABLE
  2
STYLE
 70
     1
  0
STYLE
  2
STANDARD
 70
    64
 40
0.0
 41
1.0
 50
0.0
 71
     0
 42
0.2
  3
TXT
  4

  0
STYLE
  2
KANJI
 70
    64
 40
0.0
 41
1.0
 50
0.0
 71
     0
 42
0.2
  3
TXT
  4
BIGFONT
  0
ENDTAB
  0
TABLE
  2
VIEW
 70
     0
  0
ENDTAB
  0
ENDSEC
  0
SECTION
  2
BLOCKS
  0
ENDSEC
  0
SECTION
  2
ENTITIES
  0
TEXT
  8
0
 62
     7
 10
6.902174
 20
7.592391
 40
2.760870
 41
1.000000
  1
KHK SUSA2-32J30
  7
KANJI
 50
0.000000
 51
0.000000
  0
TEXT
  8
0
 62
     7
 10
6.902174
 20
3.451087
 40
2.760870
 41
1.000000
  1
The precision grade of gears after secondary operations is equivalent but not identical to its original grade.
  7
KANJI
 50
0.000000
 51
0.000000
  0
TEXT
  8
0
 62
     7
 10
6.902174
 20
124.239128
 40
3.105978
 41
1.000000
  1

  7
KANJI
 50
0.000000
 51
0.000000
  0
POLYLINE
  8
0
 62
     7
 66
     1
 70
     2
  0
VERTEX
  8
0
 10
165.652176
 20
124.239128
  0
VERTEX
  8
0
 10
162.960327
 20
128.904999
  0
VERTEX
  8
0
 10
173.727722
 20
128.904999
  0
VERTEX
  8
0
 10
171.035873
 20
124.239128
  0
VERTEX
  8
0
 10
168.344025
 20
128.904999
  0
VERTEX
  8
0
 10
165.652176
 20
124.239128
  0
SEQEND
  0
LINE
  8
0
 62
     5
 10
99.201088
 20
90.763588
 11
99.201088
 21
22.763588
  0
POLYLINE
  8
0
 62
     5
 66
     1
 70
     2
  0
VERTEX
  8
0
 10
99.891304
 20
88.347824
  0
VERTEX
  8
0
 10
99.201088
 20
90.763588
  0
VERTEX
  8
0
 10
98.510872
 20
88.347824
  0
SEQEND
  0
POLYLINE
  8
0
 62
     5
 66
     1
 70
     2
  0
VERTEX
  8
0
 10
98.510872
 20
25.179348
  0
VERTEX
  8
0
 10
99.201088
 20
22.763588
  0
VERTEX
  8
0
 10
99.891304
 20
25.179348
  0
SEQEND
  0
LINE
  8
0
 62
     5
 10
74.353264
 20
90.763588
 11
100.236420
 21
90.763588
  0
LINE
  8
0
 62
     5
 10
74.353264
 20
22.763588
 11
100.236420
 21
22.763588
  0
TEXT
  8
0
 62
     7
 10
98.510872
 20
52.708561
 40
3.451087
 41
1.000000
  1
%%c68
  7
KANJI
 50
90.000000
 51
0.000000
  0
LINE
  8
0
 62
     5
 10
54.353264
 20
104.567932
 11
74.353264
 21
104.567932
  0
POLYLINE
  8
0
 62
     5
 66
     1
 70
     2
  0
VERTEX
  8
0
 10
56.769024
 20
105.258148
  0
VERTEX
  8
0
 10
54.353264
 20
104.567932
  0
VERTEX
  8
0
 10
56.769024
 20
103.877716
  0
SEQEND
  0
POLYLINE
  8
0
 62
     5
 66
     1
 70
     2
  0
VERTEX
  8
0
 10
71.937500
 20
103.877716
  0
VERTEX
  8
0
 10
74.353264
 20
104.567932
  0
VERTEX
  8
0
 10
71.937500
 20
105.258148
  0
SEQEND
  0
LINE
  8
0
 62
     5
 10
54.353264
 20
90.763588
 11
54.353264
 21
105.603264
  0
LINE
  8
0
 62
     5
 10
74.353264
 20
90.763588
 11
74.353264
 21
105.603264
  0
TEXT
  8
0
 62
     7
 10
62.110058
 20
105.120110
 40
3.451087
 41
1.000000
  1
20
  7
KANJI
 50
0.000000
 51
0.000000
  0
LINE
  8
DASHDOT
 62
     7
 10
52.282612
 20
88.763588
 11
76.423920
 21
88.763588
  0
LINE
  8
DASHDOT
 62
     7
 10
52.282612
 20
24.763588
 11
76.423920
 21
24.763588
  0
LINE
  8
DASHDOT
 62
     7
 10
52.282612
 20
56.763588
 11
76.423920
 21
56.763588
  0
LINE
  8
0
 62
     5
 10
73.853264
 20
22.763588
 11
74.353264
 21
22.763588
  0
LINE
  8
0
 62
     5
 10
73.853264
 20
90.763588
 11
74.353264
 21
90.763588
  0
LINE
  8
0
 62
     5
 10
74.353264
 20
90.263588
 11
74.353264
 21
90.763588
  0
LINE
  8
0
 62
     5
 10
54.353264
 20
90.263588
 11
54.353264
 21
90.763588
  0
LINE
  8
0
 62
     4
 10
54.353264
 20
86.263588
 11
74.353264
 21
86.263588
  0
LINE
  8
0
 62
     4
 10
54.353264
 20
27.263588
 11
74.353264
 21
27.263588
  0
LINE
  8
0
 62
     4
 10
74.353264
 20
72.763588
 11
73.353264
 21
71.763588
  0
LINE
  8
0
 62
     4
 10
74.353264
 20
40.763588
 11
73.353264
 21
41.763588
  0
LINE
  8
0
 62
     4
 10
54.353264
 20
40.763588
 11
55.353264
 21
41.763588
  0
POLYLINE
  8
0
 62
     4
 66
     1
 70
     2
  0
VERTEX
  8
0
 10
54.353264
 20
40.763588
  0
VERTEX
  8
0
 10
54.353264
 20
23.263588
  0
VERTEX
  8
0
 10
54.853264
 20
22.763588
  0
VERTEX
  8
0
 10
73.853264
 20
22.763588
  0
VERTEX
  8
0
 10
74.353264
 20
23.263588
  0
VERTEX
  8
0
 10
74.353264
 20
90.263588
  0
VERTEX
  8
0
 10
73.853264
 20
90.763588
  0
VERTEX
  8
0
 10
54.853264
 20
90.763588
  0
VERTEX
  8
0
 10
54.353264
 20
90.263588
  0
VERTEX
  8
0
 10
54.353264
 20
40.763588
  0
SEQEND
  0
POLYLINE
  8
0
 62
     4
 66
     1
 70
     2
  0
VERTEX
  8
0
 10
54.353264
 20
72.763588
  0
VERTEX
  8
0
 10
55.353264
 20
71.763588
  0
VERTEX
  8
0
 10
55.353264
 20
41.763588
  0
VERTEX
  8
0
 10
73.353264
 20
41.763588
  0
VERTEX
  8
0
 10
73.353264
 20
71.763588
  0
VERTEX
  8
0
 10
55.353264
 20
71.763588
  0
SEQEND
  0
ARC
  8
0
 62
     4
 10
123.864136
 20
56.763588
 40
15.000000
 50
105.46601032289746
 51
74.53398967710255
  0
POLYLINE
  8
0
 62
     4
 66
     1
 70
     2
  0
VERTEX
  8
0
 10
127.864136
 20
71.220421
  0
VERTEX
  8
0
 10
127.864136
 20
75.063583
  0
VERTEX
  8
0
 10
119.864136
 20
75.063583
  0
VERTEX
  8
0
 10
119.864136
 20
71.220421
  0
SEQEND
  0
LINE
  8
0
 62
     4
 10
54.353264
 20
75.063583
 11
74.353264
 21
75.063583
  0
LINE
  8
DASHDOT
 62
     7
 10
123.864136
 20
77.134239
 11
123.864136
 21
39.692936
  0
LINE
  8
DASHDOT
 62
     7
 10
140.934784
 20
56.763588
 11
106.793480
 21
56.763588
  0
LINE
  8
0
 62
     5
 10
132.005432
 20
79.895111
 11
115.722832
 21
79.895111
  0
POLYLINE
  8
0
 62
     5
 66
     1
 70
     2
  0
VERTEX
  8
0
 10
117.448380
 20
79.204895
  0
VERTEX
  8
0
 10
119.864136
 20
79.895111
  0
VERTEX
  8
0
 10
117.448380
 20
80.585327
  0
SEQEND
  0
POLYLINE
  8
0
 62
     5
 66
     1
 70
     2
  0
VERTEX
  8
0
 10
130.279907
 20
80.585327
  0
VERTEX
  8
0
 10
127.864136
 20
79.895111
  0
VERTEX
  8
0
 10
130.279907
 20
79.204895
  0
SEQEND
  0
LINE
  8
0
 62
     5
 10
119.864136
 20
75.063583
 11
119.864136
 21
80.930435
  0
LINE
  8
0
 62
     5
 10
127.864136
 20
75.063583
 11
127.864136
 21
80.930435
  0
TEXT
  8
0
 62
     7
 10
116.740410
 20
80.585327
 40
3.451087
 41
1.000000
  1
8
  7
KANJI
 50
0.000000
 51
0.000000
  0
TEXT
  8
0
 62
     7
 10
120.156563
 20
80.585327
 40
2.760870
 41
1.000000
  1
%%p0.018
  7
KANJI
 50
0.000000
 51
0.000000
  0
LINE
  8
0
 62
     5
 10
152.021744
 20
75.063583
 11
152.021744
 21
41.763588
  0
POLYLINE
  8
0
 62
     5
 66
     1
 70
     2
  0
VERTEX
  8
0
 10
152.711960
 20
72.647827
  0
VERTEX
  8
0
 10
152.021744
 20
75.063583
  0
VERTEX
  8
0
 10
151.331528
 20
72.647827
  0
SEQEND
  0
POLYLINE
  8
0
 62
     5
 66
     1
 70
     2
  0
VERTEX
  8
0
 10
151.331528
 20
44.179348
  0
VERTEX
  8
0
 10
152.021744
 20
41.763588
  0
VERTEX
  8
0
 10
152.711960
 20
44.179348
  0
SEQEND
  0
LINE
  8
0
 62
     5
 10
127.864136
 20
75.063583
 11
153.057068
 21
75.063583
  0
LINE
  8
0
 62
     5
 10
123.864136
 20
41.763588
 11
153.057068
 21
41.763588
  0
TEXT
  8
0
 62
     7
 10
150.986420
 20
45.243301
 40
3.451087
 41
1.000000
  1
33.3
  7
KANJI
 50
90.000000
 51
0.000000
  0
TEXT
  8
0
 62
     7
 10
151.193481
 20
60.180973
 40
1.725543
 41
1.000000
  1
 
  7
KANJI
 50
90.000000
 51
0.000000
  0
TEXT
  8
0
 62
     7
 10
149.053802
 20
60.180973
 40
1.725543
 41
1.000000
  1
+
  7
KANJI
 50
90.000000
 51
0.000000
  0
TEXT
  8
0
 62
     7
 10
151.193481
 20
62.113579
 40
1.725543
 41
1.000000
  1
0
  7
KANJI
 50
90.000000
 51
0.000000
  0
TEXT
  8
0
 62
     7
 10
149.053802
 20
62.113579
 40
1.725543
 41
1.000000
  1
0.2
  7
KANJI
 50
90.000000
 51
0.000000
  0
LINE
  8
0
 62
     5
 10
88.157608
 20
71.763588
 11
88.157608
 21
41.763588
  0
POLYLINE
  8
0
 62
     5
 66
     1
 70
     2
  0
VERTEX
  8
0
 10
87.467392
 20
44.179348
  0
VERTEX
  8
0
 10
88.157608
 20
41.763588
  0
VERTEX
  8
0
 10
88.847824
 20
44.179348
  0
SEQEND
  0
LINE
  8
0
 62
     5
 10
74.353264
 20
41.763588
 11
89.192940
 21
41.763588
  0
TEXT
  8
0
 62
     7
 10
87.467392
 20
50.465355
 40
3.451087
 41
1.000000
  1
%%c30H7
  7
KANJI
 50
90.000000
 51
0.000000
  0
ENDSEC
  0
EOF
