  0
SECTION
  2
HEADER
  9
$ACADVER
  1
AC1003
  9
$INSBASE
 10
0.000000
 20
0.000000
  9
$EXTMIN
 10
0.000000
 20
0.000000
  9
$EXTMAX
 10
107.309735
 20
74.203540
  9
$LIMMIN
 10
0.000000
 20
0.000000
  9
$LIMMAX
 10
107.309735
 20
74.203540
  9
$VIEWCTR
 10
53.654867
 20
37.101770
  9
$VIEWSIZE
 40
74.203540
  0
ENDSEC
  0
SECTION
  2
TABLES
  0
TABLE
  2
LTYPE
 70
     4
  0
LTYPE
  2
CONTINUOUS
 70
    64
  3
SolidLine
 72
    65
 73
     0
 40
0.0
  0
LTYPE
  2
HIDDEN
 70
    64
  3
------------------------
 72
    65
 73
     2
 40
1.141593
 49
0.761062
 49
-0.380531
  0
LTYPE
  2
DASHDOT
 70
    64
  3
--?--?--?--?--?--?--?--
 72
    65
 73
     4
 40
4.566372
 49
3.424779
 49
-0.380531
 49
0.380531
 49
-0.380531
  0
LTYPE
  2
DIVIDE
 70
    64
  3
--??--??--??--??--??--
 72
    65
 73
     6
 40
5.707965
 49
3.805310
 49
-0.380531
 49
0.380531
 49
-0.380531
 49
0.380531
 49
-0.380531
  0
ENDTAB
  0
TABLE
  2
LAYER
 70
     5
  0
LAYER
  2
0
 70
    64
 62
     7
  6
CONTINUOUS
  0
LAYER
  2
HIDDEN
 70
    64
 62
     2
  6
HIDDEN
  0
LAYER
  2
DASHDOT
 70
    64
 62
     6
  6
DASHDOT
  0
LAYER
  2
DIVIDE
 70
    64
 62
     5
  6
DIVIDE
  0
ENDTAB
  0
TABLE
  2
STYLE
 70
     1
  0
STYLE
  2
STANDARD
 70
    64
 40
0.0
 41
1.0
 50
0.0
 71
     0
 42
0.2
  3
TXT
  4

  0
STYLE
  2
KANJI
 70
    64
 40
0.0
 41
1.0
 50
0.0
 71
     0
 42
0.2
  3
TXT
  4
BIGFONT
  0
ENDTAB
  0
TABLE
  2
VIEW
 70
     0
  0
ENDTAB
  0
ENDSEC
  0
SECTION
  2
BLOCKS
  0
ENDSEC
  0
SECTION
  2
ENTITIES
  0
TEXT
  8
0
 62
     7
 10
3.805310
 20
4.185841
 40
1.522124
 41
1.000000
  1
KHK SUSF1-25
  7
KANJI
 50
0.000000
 51
0.000000
  0
TEXT
  8
0
 62
     7
 10
3.805310
 20
1.902655
 40
1.522124
 41
1.000000
  1

  7
KANJI
 50
0.000000
 51
0.000000
  0
TEXT
  8
0
 62
     7
 10
3.805310
 20
68.495575
 40
1.712389
 41
1.000000
  1

  7
KANJI
 50
0.000000
 51
0.000000
  0
POLYLINE
  8
0
 62
     7
 66
     1
 70
     2
  0
VERTEX
  8
0
 10
91.327431
 20
68.495575
  0
VERTEX
  8
0
 10
89.843361
 20
71.067963
  0
VERTEX
  8
0
 10
95.779640
 20
71.067963
  0
VERTEX
  8
0
 10
94.295570
 20
68.495575
  0
VERTEX
  8
0
 10
92.811501
 20
71.067963
  0
VERTEX
  8
0
 10
91.327431
 20
68.495575
  0
SEQEND
  0
LINE
  8
0
 62
     5
 10
69.463722
 20
46.035397
 11
69.463722
 21
38.840950
  0
LINE
  8
0
 62
     5
 10
34.331863
 20
44.893803
 11
34.331863
 21
39.893803
  0
POLYLINE
  8
0
 62
     5
 66
     1
 70
     2
  0
VERTEX
  8
0
 10
35.473454
 20
37.623802
  0
VERTEX
  8
0
 10
42.637169
 20
52.504421
  0
VERTEX
  8
0
 10
47.812393
 20
52.504421
  0
SEQEND
  0
POLYLINE
  8
0
 62
     5
 66
     1
 70
     2
  0
VERTEX
  8
0
 10
35.708298
 20
38.988903
  0
VERTEX
  8
0
 10
35.473454
 20
37.623802
  0
VERTEX
  8
0
 10
36.394035
 20
38.658779
  0
SEQEND
  0
TEXT
  8
0
 62
     7
 10
43.017700
 20
52.884953
 40
1.826549
 41
1.000000
  1
M3
  7
KANJI
 50
0.000000
 51
0.000000
  0
LINE
  8
0
 62
     5
 10
67.180534
 20
52.504421
 11
77.446907
 21
52.504421
  0
POLYLINE
  8
0
 62
     5
 66
     1
 70
     2
  0
VERTEX
  8
0
 10
76.495583
 20
52.884953
  0
VERTEX
  8
0
 10
75.163719
 20
52.504421
  0
VERTEX
  8
0
 10
76.495583
 20
52.123890
  0
SEQEND
  0
POLYLINE
  8
0
 62
     5
 66
     1
 70
     2
  0
VERTEX
  8
0
 10
68.131859
 20
52.123890
  0
VERTEX
  8
0
 10
69.463722
 20
52.504421
  0
VERTEX
  8
0
 10
68.131859
 20
52.884953
  0
SEQEND
  0
LINE
  8
0
 62
     5
 10
75.163719
 20
46.035397
 11
75.163719
 21
53.075218
  0
LINE
  8
0
 62
     5
 10
69.463722
 20
46.035397
 11
69.463722
 21
53.075218
  0
TEXT
  8
0
 62
     7
 10
70.458633
 20
52.884953
 40
1.902655
 41
1.000000
  1
5.7
  7
KANJI
 50
360.000000
 51
0.000000
  0
LINE
  8
0
 62
     5
 10
41.115047
 20
51.362831
 11
32.048676
 21
51.362831
  0
POLYLINE
  8
0
 62
     5
 66
     1
 70
     2
  0
VERTEX
  8
0
 10
33.000004
 20
50.982300
  0
VERTEX
  8
0
 10
34.331863
 20
51.362831
  0
VERTEX
  8
0
 10
33.000004
 20
51.743362
  0
SEQEND
  0
POLYLINE
  8
0
 62
     5
 66
     1
 70
     2
  0
VERTEX
  8
0
 10
40.163719
 20
51.743362
  0
VERTEX
  8
0
 10
38.831863
 20
51.362831
  0
VERTEX
  8
0
 10
40.163719
 20
50.982300
  0
SEQEND
  0
LINE
  8
0
 62
     5
 10
34.331863
 20
44.893803
 11
34.331863
 21
51.933624
  0
TEXT
  8
0
 62
     7
 10
34.726772
 20
51.667252
 40
1.902655
 41
1.000000
  1
4.5
  7
KANJI
 50
0.000000
 51
0.000000
  0
LINE
  8
0
 62
     5
 10
54.814163
 20
39.893803
 11
54.814163
 21
22.893803
  0
POLYLINE
  8
0
 62
     5
 66
     1
 70
     2
  0
VERTEX
  8
0
 10
55.194695
 20
38.561943
  0
VERTEX
  8
0
 10
54.814163
 20
39.893803
  0
VERTEX
  8
0
 10
54.433632
 20
38.561943
  0
SEQEND
  0
POLYLINE
  8
0
 62
     5
 66
     1
 70
     2
  0
VERTEX
  8
0
 10
54.433632
 20
24.225662
  0
VERTEX
  8
0
 10
54.814163
 20
22.893803
  0
VERTEX
  8
0
 10
55.194695
 20
24.225662
  0
SEQEND
  0
LINE
  8
0
 62
     5
 10
38.831863
 20
39.893803
 11
55.384956
 21
39.893803
  0
LINE
  8
0
 62
     5
 10
38.831863
 20
22.893803
 11
55.384956
 21
22.893803
  0
TEXT
  8
0
 62
     7
 10
54.433632
 20
29.158184
 40
1.902655
 41
1.000000
  1
%%c17
  7
KANJI
 50
90.000000
 51
0.000000
  0
LINE
  8
0
 62
     5
 10
28.831861
 20
55.168137
 11
38.831863
 21
55.168137
  0
POLYLINE
  8
0
 62
     5
 66
     1
 70
     2
  0
VERTEX
  8
0
 10
30.163719
 20
55.548668
  0
VERTEX
  8
0
 10
28.831861
 20
55.168137
  0
VERTEX
  8
0
 10
30.163719
 20
54.787605
  0
SEQEND
  0
POLYLINE
  8
0
 62
     5
 66
     1
 70
     2
  0
VERTEX
  8
0
 10
37.500004
 20
54.787605
  0
VERTEX
  8
0
 10
38.831863
 20
55.168137
  0
VERTEX
  8
0
 10
37.500004
 20
55.548668
  0
SEQEND
  0
TEXT
  8
0
 62
     7
 10
32.595135
 20
55.472565
 40
1.902655
 41
1.000000
  1
10
  7
KANJI
 50
0.000000
 51
0.000000
  0
LINE
  8
0
 62
     5
 10
22.831861
 20
58.212387
 11
38.831863
 21
58.212387
  0
POLYLINE
  8
0
 62
     5
 66
     1
 70
     2
  0
VERTEX
  8
0
 10
24.163719
 20
58.592918
  0
VERTEX
  8
0
 10
22.831861
 20
58.212387
  0
VERTEX
  8
0
 10
24.163719
 20
57.831856
  0
SEQEND
  0
POLYLINE
  8
0
 62
     5
 66
     1
 70
     2
  0
VERTEX
  8
0
 10
37.500004
 20
57.831856
  0
VERTEX
  8
0
 10
38.831863
 20
58.212387
  0
VERTEX
  8
0
 10
37.500004
 20
58.592918
  0
SEQEND
  0
LINE
  8
0
 62
     5
 10
22.831861
 20
44.893803
 11
22.831861
 21
58.783184
  0
LINE
  8
0
 62
     5
 10
38.831863
 20
44.893803
 11
38.831863
 21
58.783184
  0
TEXT
  8
0
 62
     7
 10
29.595135
 20
58.516811
 40
1.902655
 41
1.000000
  1
16
  7
KANJI
 50
0.000000
 51
0.000000
  0
LINE
  8
0
 62
     5
 10
22.831861
 20
55.168137
 11
28.831861
 21
55.168137
  0
POLYLINE
  8
0
 62
     5
 66
     1
 70
     2
  0
VERTEX
  8
0
 10
24.163719
 20
55.548668
  0
VERTEX
  8
0
 10
22.831861
 20
55.168137
  0
VERTEX
  8
0
 10
24.163719
 20
54.787605
  0
SEQEND
  0
POLYLINE
  8
0
 62
     5
 66
     1
 70
     2
  0
VERTEX
  8
0
 10
27.500004
 20
54.787605
  0
VERTEX
  8
0
 10
28.831861
 20
55.168137
  0
VERTEX
  8
0
 10
27.500004
 20
55.548668
  0
SEQEND
  0
LINE
  8
0
 62
     5
 10
28.831861
 20
44.893803
 11
28.831861
 21
55.738937
  0
TEXT
  8
0
 62
     7
 10
25.213499
 20
55.472565
 40
1.902655
 41
1.000000
  1
6
  7
KANJI
 50
0.000000
 51
0.000000
  0
LINE
  8
0
 62
     5
 10
57.858414
 20
44.893803
 11
57.858414
 21
17.893803
  0
POLYLINE
  8
0
 62
     5
 66
     1
 70
     2
  0
VERTEX
  8
0
 10
58.238945
 20
43.561943
  0
VERTEX
  8
0
 10
57.858414
 20
44.893803
  0
VERTEX
  8
0
 10
57.477882
 20
43.561943
  0
SEQEND
  0
POLYLINE
  8
0
 62
     5
 66
     1
 70
     2
  0
VERTEX
  8
0
 10
57.477882
 20
19.225662
  0
VERTEX
  8
0
 10
57.858414
 20
17.893803
  0
VERTEX
  8
0
 10
58.238945
 20
19.225662
  0
SEQEND
  0
LINE
  8
0
 62
     5
 10
38.831863
 20
44.893803
 11
58.429207
 21
44.893803
  0
LINE
  8
0
 62
     5
 10
38.831863
 20
17.893803
 11
58.429207
 21
17.893803
  0
TEXT
  8
0
 62
     7
 10
57.477882
 20
29.158184
 40
1.902655
 41
1.000000
  1
%%c27
  7
KANJI
 50
90.000000
 51
0.000000
  0
LINE
  8
DASHDOT
 62
     7
 10
34.331863
 20
41.035397
 11
34.331863
 21
21.752209
  0
LINE
  8
DASHDOT
 62
     7
 10
69.463722
 20
38.840950
 11
69.463722
 21
23.946657
  0
LINE
  8
DASHDOT
 62
     7
 10
75.163719
 20
46.035397
 11
75.163719
 21
16.752209
  0
LINE
  8
DASHDOT
 62
     7
 10
60.522125
 20
31.393803
 11
89.805313
 21
31.393803
  0
LINE
  8
DASHDOT
 62
     7
 10
21.690269
 20
43.893803
 11
29.973454
 21
43.893803
  0
LINE
  8
DASHDOT
 62
     7
 10
21.690269
 20
18.893803
 11
29.973454
 21
18.893803
  0
LINE
  8
DASHDOT
 62
     7
 10
21.690269
 20
31.393803
 11
39.973454
 21
31.393803
  0
CIRCLE
  8
DASHDOT
 62
     7
 10
75.163719
 20
31.393803
 40
12.500000
  0
LINE
  8
0
 62
     5
 10
38.831863
 20
39.393803
 11
38.831863
 21
44.893803
  0
LINE
  8
0
 62
     5
 10
28.831861
 20
44.893803
 11
28.831861
 21
44.893803
  0
LINE
  8
0
 62
     5
 10
22.831861
 20
44.893803
 11
22.831861
 21
44.893803
  0
LINE
  8
0
 62
     5
 10
28.831861
 20
39.893803
 11
38.831863
 21
39.893803
  0
LINE
  8
0
 62
     5
 10
38.331863
 20
22.893803
 11
38.831863
 21
22.893803
  0
LINE
  8
0
 62
     5
 10
28.831861
 20
44.893803
 11
38.831863
 21
44.893803
  0
LINE
  8
0
 62
     5
 10
28.831861
 20
17.893803
 11
38.831863
 21
17.893803
  0
LINE
  8
HIDDEN
 62
     4
 10
35.831863
 20
34.623802
 11
35.831863
 21
25.440002
  0
LINE
  8
HIDDEN
 62
     4
 10
35.331863
 20
34.623802
 11
35.331863
 21
24.311430
  0
LINE
  8
HIDDEN
 62
     4
 10
33.331863
 20
34.623802
 11
33.331863
 21
24.311430
  0
LINE
  8
HIDDEN
 62
     4
 10
32.831863
 20
34.623802
 11
32.831863
 21
25.440002
  0
POLYLINE
  8
HIDDEN
 62
     4
 66
     1
 70
     2
  0
VERTEX
  8
HIDDEN
 10
72.713722
 20
39.533058
  0
VERTEX
  8
HIDDEN
 10
72.713722
 20
34.623802
  0
VERTEX
  8
HIDDEN
 10
66.713722
 20
34.623802
  0
SEQEND
  0
LINE
  8
HIDDEN
 62
     4
 10
70.963722
 20
34.623802
 11
70.963722
 21
24.003944
  0
LINE
  8
HIDDEN
 62
     4
 10
70.463722
 20
34.623802
 11
70.463722
 21
24.311430
  0
LINE
  8
HIDDEN
 62
     4
 10
68.463722
 20
34.623802
 11
68.463722
 21
26.163124
  0
LINE
  8
HIDDEN
 62
     4
 10
67.963722
 20
34.623802
 11
67.963722
 21
26.876060
  0
LINE
  8
0
 62
     4
 10
31.877234
 20
34.623802
 11
36.786491
 21
34.623802
  0
ARC
  8
0
 62
     4
 10
35.559174
 20
36.749573
 40
2.454628
 50
299.9999953226508
 51
60.00000467734918
  0
ARC
  8
0
 62
     4
 10
33.104546
 20
36.749573
 40
2.454628
 50
119.9999953226508
 51
240.0000046773492
  0
ARC
  8
0
 62
     4
 10
34.331863
 20
34.623802
 40
4.909257
 50
60.00000467734918
 51
119.9999953226508
  0
LINE
  8
0
 62
     4
 10
35.831863
 20
25.376060
 11
35.831863
 21
25.503944
  0
LINE
  8
0
 62
     4
 10
32.831863
 20
25.376060
 11
32.831863
 21
25.503944
  0
ARC
  8
0
 62
     4
 10
34.331863
 20
25.503944
 40
1.500000
 50
180.0
 51
0.0
  0
ARC
  8
0
 62
     4
 10
34.331863
 20
25.376060
 40
1.500000
 50
0.0
 51
180.0
  0
LINE
  8
0
 62
     4
 10
68.858170
 20
25.693802
 11
81.469276
 21
25.693802
  0
LINE
  8
0
 62
     4
 10
68.601028
 20
25.991852
 11
81.726410
 21
25.991852
  0
CIRCLE
  8
0
 62
     4
 10
75.163719
 20
31.393803
 40
11.250000
  0
CIRCLE
  8
0
 62
     4
 10
75.163719
 20
31.393803
 40
13.500000
  0
CIRCLE
  8
0
 62
     4
 10
75.163719
 20
31.393803
 40
8.500000
  0
CIRCLE
  8
0
 62
     4
 10
75.163719
 20
31.393803
 40
3.000000
  0
LINE
  8
0
 62
     4
 10
22.831861
 20
42.643803
 11
28.831861
 21
42.643803
  0
LINE
  8
0
 62
     4
 10
22.831861
 20
20.143803
 11
28.831861
 21
20.143803
  0
POLYLINE
  8
HIDDEN
 62
     4
 66
     1
 70
     2
  0
VERTEX
  8
HIDDEN
 10
72.213722
 20
34.623802
  0
VERTEX
  8
HIDDEN
 10
72.213722
 20
37.623802
  0
VERTEX
  8
HIDDEN
 10
66.713722
 20
37.623802
  0
VERTEX
  8
HIDDEN
 10
66.713722
 20
34.623802
  0
SEQEND
  0
POLYLINE
  8
0
 62
     4
 66
     1
 70
     2
  0
VERTEX
  8
0
 10
31.581861
 20
34.623802
  0
VERTEX
  8
0
 10
37.081863
 20
34.623802
  0
VERTEX
  8
0
 10
37.081863
 20
37.623802
  0
VERTEX
  8
0
 10
31.581861
 20
37.623802
  0
VERTEX
  8
0
 10
31.581861
 20
34.623802
  0
SEQEND
  0
POLYLINE
  8
0
 62
     4
 66
     1
 70
     2
  0
VERTEX
  8
0
 10
29.440712
 20
22.893803
  0
VERTEX
  8
0
 10
38.331863
 20
22.893803
  0
VERTEX
  8
0
 10
38.831863
 20
23.393803
  0
VERTEX
  8
0
 10
38.831863
 20
25.693802
  0
VERTEX
  8
0
 10
29.440712
 20
33.573914
  0
VERTEX
  8
0
 10
29.440712
 20
22.893803
  0
SEQEND
  0
POLYLINE
  8
0
 62
     4
 66
     1
 70
     2
  0
VERTEX
  8
0
 10
28.831861
 20
22.893803
  0
VERTEX
  8
0
 10
29.212393
 20
22.893803
  0
VERTEX
  8
0
 10
29.212393
 20
37.093803
  0
VERTEX
  8
0
 10
29.440712
 20
37.093803
  0
VERTEX
  8
0
 10
29.440712
 20
33.871964
  0
VERTEX
  8
0
 10
38.831863
 20
25.991852
  0
VERTEX
  8
0
 10
38.831863
 20
39.393803
  0
VERTEX
  8
0
 10
38.331863
 20
39.893803
  0
VERTEX
  8
0
 10
28.831861
 20
39.893803
  0
SEQEND
  0
POLYLINE
  8
0
 62
     4
 66
     1
 70
     2
  0
VERTEX
  8
0
 10
22.831861
 20
17.893803
  0
VERTEX
  8
0
 10
22.831861
 20
17.893803
  0
VERTEX
  8
0
 10
28.831861
 20
17.893803
  0
VERTEX
  8
0
 10
28.831861
 20
17.893803
  0
VERTEX
  8
0
 10
28.831861
 20
44.893803
  0
VERTEX
  8
0
 10
28.831861
 20
44.893803
  0
VERTEX
  8
0
 10
22.831861
 20
44.893803
  0
VERTEX
  8
0
 10
22.831861
 20
44.893803
  0
VERTEX
  8
0
 10
22.831861
 20
17.893803
  0
SEQEND
  0
POLYLINE
  8
HIDDEN
 62
     4
 66
     1
 70
     2
  0
VERTEX
  8
HIDDEN
 10
22.831861
 20
27.893803
  0
VERTEX
  8
HIDDEN
 10
23.331861
 20
28.393803
  0
VERTEX
  8
HIDDEN
 10
38.331863
 20
28.393803
  0
VERTEX
  8
HIDDEN
 10
38.331863
 20
34.393803
  0
VERTEX
  8
HIDDEN
 10
23.331861
 20
34.393803
  0
VERTEX
  8
HIDDEN
 10
22.831861
 20
34.893803
  0
SEQEND
  0
LINE
  8
HIDDEN
 62
     4
 10
23.331861
 20
34.393803
 11
23.331861
 21
28.393803
  0
LINE
  8
HIDDEN
 62
     4
 10
38.831863
 20
34.893803
 11
38.331863
 21
34.393803
  0
LINE
  8
HIDDEN
 62
     4
 10
38.831863
 20
27.893803
 11
38.331863
 21
28.393803
  0
LINE
  8
0
 62
     5
 10
48.725670
 20
26.110617
 11
48.725670
 21
36.676987
  0
POLYLINE
  8
0
 62
     5
 66
     1
 70
     2
  0
VERTEX
  8
0
 10
48.345139
 20
35.725662
  0
VERTEX
  8
0
 10
48.725670
 20
34.393803
  0
VERTEX
  8
0
 10
49.106201
 20
35.725662
  0
SEQEND
  0
POLYLINE
  8
0
 62
     5
 66
     1
 70
     2
  0
VERTEX
  8
0
 10
49.106201
 20
27.061943
  0
VERTEX
  8
0
 10
48.725670
 20
28.393803
  0
VERTEX
  8
0
 10
48.345139
 20
27.061943
  0
SEQEND
  0
LINE
  8
0
 62
     5
 10
38.831863
 20
34.393803
 11
49.296463
 21
34.393803
  0
LINE
  8
0
 62
     5
 10
38.831863
 20
28.393803
 11
49.296463
 21
28.393803
  0
TEXT
  8
0
 62
     7
 10
48.345139
 20
28.539820
 40
1.902655
 41
1.000000
  1
%%c6H7
  7
KANJI
 50
90.000000
 51
0.000000
  0
ENDSEC
  0
EOF
