  0
SECTION
  2
HEADER
  9
$ACADVER
  1
AC1003
  9
$INSBASE
 10
0.000000
 20
0.000000
  9
$EXTMIN
 10
0.000000
 20
0.000000
  9
$EXTMAX
 10
102.318584
 20
70.752212
  9
$LIMMIN
 10
0.000000
 20
0.000000
  9
$LIMMAX
 10
102.318584
 20
70.752212
  9
$VIEWCTR
 10
51.159292
 20
35.376106
  9
$VIEWSIZE
 40
70.752212
  0
ENDSEC
  0
SECTION
  2
TABLES
  0
TABLE
  2
LTYPE
 70
     4
  0
LTYPE
  2
CONTINUOUS
 70
    64
  3
SolidLine
 72
    65
 73
     0
 40
0.0
  0
LTYPE
  2
HIDDEN
 70
    64
  3
------------------------
 72
    65
 73
     2
 40
1.088496
 49
0.725664
 49
-0.362832
  0
LTYPE
  2
DASHDOT
 70
    64
  3
--?--?--?--?--?--?--?--
 72
    65
 73
     4
 40
4.353982
 49
3.265487
 49
-0.362832
 49
0.362832
 49
-0.362832
  0
LTYPE
  2
DIVIDE
 70
    64
  3
--??--??--??--??--??--
 72
    65
 73
     6
 40
5.442478
 49
3.628319
 49
-0.362832
 49
0.362832
 49
-0.362832
 49
0.362832
 49
-0.362832
  0
ENDTAB
  0
TABLE
  2
LAYER
 70
     5
  0
LAYER
  2
0
 70
    64
 62
     7
  6
CONTINUOUS
  0
LAYER
  2
HIDDEN
 70
    64
 62
     2
  6
HIDDEN
  0
LAYER
  2
DASHDOT
 70
    64
 62
     6
  6
DASHDOT
  0
LAYER
  2
DIVIDE
 70
    64
 62
     5
  6
DIVIDE
  0
ENDTAB
  0
TABLE
  2
STYLE
 70
     1
  0
STYLE
  2
STANDARD
 70
    64
 40
0.0
 41
1.0
 50
0.0
 71
     0
 42
0.2
  3
TXT
  4

  0
STYLE
  2
KANJI
 70
    64
 40
0.0
 41
1.0
 50
0.0
 71
     0
 42
0.2
  3
TXT
  4
BIGFONT
  0
ENDTAB
  0
TABLE
  2
VIEW
 70
     0
  0
ENDTAB
  0
ENDSEC
  0
SECTION
  2
BLOCKS
  0
ENDSEC
  0
SECTION
  2
ENTITIES
  0
TEXT
  8
0
 62
     7
 10
3.628319
 20
3.991150
 40
1.451327
 41
1.000000
  1
KHK SUSF0.5-50
  7
KANJI
 50
0.000000
 51
0.000000
  0
TEXT
  8
0
 62
     7
 10
3.628319
 20
1.814159
 40
1.451327
 41
1.000000
  1

  7
KANJI
 50
0.000000
 51
0.000000
  0
TEXT
  8
0
 62
     7
 10
3.628319
 20
65.309738
 40
1.632743
 41
1.000000
  1

  7
KANJI
 50
0.000000
 51
0.000000
  0
POLYLINE
  8
0
 62
     7
 66
     1
 70
     2
  0
VERTEX
  8
0
 10
87.079643
 20
65.309738
  0
VERTEX
  8
0
 10
85.664597
 20
67.762482
  0
VERTEX
  8
0
 10
91.324776
 20
67.762482
  0
VERTEX
  8
0
 10
89.909729
 20
65.309738
  0
VERTEX
  8
0
 10
88.494690
 20
67.762482
  0
VERTEX
  8
0
 10
87.079643
 20
65.309738
  0
SEQEND
  0
LINE
  8
0
 62
     5
 10
65.839821
 20
44.022125
 11
65.839821
 21
37.327675
  0
LINE
  8
0
 62
     5
 10
32.269913
 20
42.933628
 11
32.269913
 21
38.433628
  0
POLYLINE
  8
0
 62
     5
 66
     1
 70
     2
  0
VERTEX
  8
0
 10
33.358406
 20
36.163628
  0
VERTEX
  8
0
 10
40.398232
 20
50.190266
  0
VERTEX
  8
0
 10
45.332741
 20
50.190266
  0
SEQEND
  0
POLYLINE
  8
0
 62
     5
 66
     1
 70
     2
  0
VERTEX
  8
0
 10
33.603760
 20
37.461365
  0
VERTEX
  8
0
 10
33.358406
 20
36.163628
  0
VERTEX
  8
0
 10
34.252323
 20
37.135860
  0
SEQEND
  0
TEXT
  8
0
 62
     7
 10
40.761063
 20
50.553097
 40
1.741593
 41
1.000000
  1
M3
  7
KANJI
 50
0.000000
 51
0.000000
  0
LINE
  8
0
 62
     5
 10
71.539825
 20
50.190266
 11
65.839821
 21
50.190266
  0
POLYLINE
  8
0
 62
     5
 66
     1
 70
     2
  0
VERTEX
  8
0
 10
70.269913
 20
49.827435
  0
VERTEX
  8
0
 10
71.539825
 20
50.190266
  0
VERTEX
  8
0
 10
70.269913
 20
50.553097
  0
SEQEND
  0
POLYLINE
  8
0
 62
     5
 66
     1
 70
     2
  0
VERTEX
  8
0
 10
67.109734
 20
50.553097
  0
VERTEX
  8
0
 10
65.839821
 20
50.190266
  0
VERTEX
  8
0
 10
67.109734
 20
49.827435
  0
SEQEND
  0
LINE
  8
0
 62
     5
 10
71.539825
 20
44.022125
 11
71.539825
 21
50.734512
  0
LINE
  8
0
 62
     5
 10
65.839821
 20
44.022125
 11
65.839821
 21
50.734512
  0
TEXT
  8
0
 62
     7
 10
66.921021
 20
50.553097
 40
1.814159
 41
1.000000
  1
5.7
  7
KANJI
 50
360.000000
 51
0.000000
  0
LINE
  8
0
 62
     5
 10
38.946899
 20
49.101768
 11
30.092918
 21
49.101768
  0
POLYLINE
  8
0
 62
     5
 66
     1
 70
     2
  0
VERTEX
  8
0
 10
31.000000
 20
48.738937
  0
VERTEX
  8
0
 10
32.269913
 20
49.101768
  0
VERTEX
  8
0
 10
31.000000
 20
49.464600
  0
SEQEND
  0
POLYLINE
  8
0
 62
     5
 66
     1
 70
     2
  0
VERTEX
  8
0
 10
38.039822
 20
49.464600
  0
VERTEX
  8
0
 10
36.769913
 20
49.101768
  0
VERTEX
  8
0
 10
38.039822
 20
48.738937
  0
SEQEND
  0
LINE
  8
0
 62
     5
 10
32.269913
 20
42.933628
 11
32.269913
 21
49.646019
  0
TEXT
  8
0
 62
     7
 10
32.751106
 20
49.392036
 40
1.814159
 41
1.000000
  1
4.5
  7
KANJI
 50
0.000000
 51
0.000000
  0
LINE
  8
0
 62
     5
 10
52.008850
 20
38.433628
 11
52.008850
 21
21.433628
  0
POLYLINE
  8
0
 62
     5
 66
     1
 70
     2
  0
VERTEX
  8
0
 10
52.371681
 20
37.163715
  0
VERTEX
  8
0
 10
52.008850
 20
38.433628
  0
VERTEX
  8
0
 10
51.646019
 20
37.163715
  0
SEQEND
  0
POLYLINE
  8
0
 62
     5
 66
     1
 70
     2
  0
VERTEX
  8
0
 10
51.646019
 20
22.703541
  0
VERTEX
  8
0
 10
52.008850
 20
21.433628
  0
VERTEX
  8
0
 10
52.371681
 20
22.703541
  0
SEQEND
  0
LINE
  8
0
 62
     5
 10
36.769913
 20
38.433628
 11
52.553097
 21
38.433628
  0
LINE
  8
0
 62
     5
 10
36.769913
 20
21.433628
 11
52.553097
 21
21.433628
  0
TEXT
  8
0
 62
     7
 10
51.646019
 20
27.801991
 40
1.814159
 41
1.000000
  1
%%c17
  7
KANJI
 50
90.000000
 51
0.000000
  0
LINE
  8
0
 62
     5
 10
26.769911
 20
52.730087
 11
36.769913
 21
52.730087
  0
POLYLINE
  8
0
 62
     5
 66
     1
 70
     2
  0
VERTEX
  8
0
 10
28.039822
 20
53.092918
  0
VERTEX
  8
0
 10
26.769911
 20
52.730087
  0
VERTEX
  8
0
 10
28.039822
 20
52.367256
  0
SEQEND
  0
POLYLINE
  8
0
 62
     5
 66
     1
 70
     2
  0
VERTEX
  8
0
 10
35.500000
 20
52.367256
  0
VERTEX
  8
0
 10
36.769913
 20
52.730087
  0
VERTEX
  8
0
 10
35.500000
 20
53.092918
  0
SEQEND
  0
TEXT
  8
0
 62
     7
 10
30.590708
 20
53.020355
 40
1.814159
 41
1.000000
  1
10
  7
KANJI
 50
0.000000
 51
0.000000
  0
LINE
  8
0
 62
     5
 10
21.769911
 20
55.632744
 11
36.769913
 21
55.632744
  0
POLYLINE
  8
0
 62
     5
 66
     1
 70
     2
  0
VERTEX
  8
0
 10
23.039822
 20
55.995575
  0
VERTEX
  8
0
 10
21.769911
 20
55.632744
  0
VERTEX
  8
0
 10
23.039822
 20
55.269913
  0
SEQEND
  0
POLYLINE
  8
0
 62
     5
 66
     1
 70
     2
  0
VERTEX
  8
0
 10
35.500000
 20
55.269913
  0
VERTEX
  8
0
 10
36.769913
 20
55.632744
  0
VERTEX
  8
0
 10
35.500000
 20
55.995575
  0
SEQEND
  0
LINE
  8
0
 62
     5
 10
21.769911
 20
42.933628
 11
21.769911
 21
56.176994
  0
LINE
  8
0
 62
     5
 10
36.769913
 20
42.933628
 11
36.769913
 21
56.176994
  0
TEXT
  8
0
 62
     7
 10
28.090708
 20
55.923012
 40
1.814159
 41
1.000000
  1
15
  7
KANJI
 50
0.000000
 51
0.000000
  0
LINE
  8
0
 62
     5
 10
21.769911
 20
52.730087
 11
26.769911
 21
52.730087
  0
POLYLINE
  8
0
 62
     5
 66
     1
 70
     2
  0
VERTEX
  8
0
 10
23.039822
 20
53.092918
  0
VERTEX
  8
0
 10
21.769911
 20
52.730087
  0
VERTEX
  8
0
 10
23.039822
 20
52.367256
  0
SEQEND
  0
POLYLINE
  8
0
 62
     5
 66
     1
 70
     2
  0
VERTEX
  8
0
 10
25.500000
 20
52.367256
  0
VERTEX
  8
0
 10
26.769911
 20
52.730087
  0
VERTEX
  8
0
 10
25.500000
 20
53.092918
  0
SEQEND
  0
LINE
  8
0
 62
     5
 10
26.769911
 20
42.933628
 11
26.769911
 21
53.274338
  0
TEXT
  8
0
 62
     7
 10
23.680309
 20
53.020355
 40
1.814159
 41
1.000000
  1
5
  7
KANJI
 50
0.000000
 51
0.000000
  0
LINE
  8
0
 62
     5
 10
54.911507
 20
42.933628
 11
54.911507
 21
16.933628
  0
POLYLINE
  8
0
 62
     5
 66
     1
 70
     2
  0
VERTEX
  8
0
 10
55.274338
 20
41.663715
  0
VERTEX
  8
0
 10
54.911507
 20
42.933628
  0
VERTEX
  8
0
 10
54.548676
 20
41.663715
  0
SEQEND
  0
POLYLINE
  8
0
 62
     5
 66
     1
 70
     2
  0
VERTEX
  8
0
 10
54.548676
 20
18.203541
  0
VERTEX
  8
0
 10
54.911507
 20
16.933628
  0
VERTEX
  8
0
 10
55.274338
 20
18.203541
  0
SEQEND
  0
LINE
  8
0
 62
     5
 10
36.769913
 20
42.933628
 11
55.455750
 21
42.933628
  0
LINE
  8
0
 62
     5
 10
36.769913
 20
16.933628
 11
55.455750
 21
16.933628
  0
TEXT
  8
0
 62
     7
 10
54.548676
 20
27.801991
 40
1.814159
 41
1.000000
  1
%%c26
  7
KANJI
 50
90.000000
 51
0.000000
  0
LINE
  8
DASHDOT
 62
     7
 10
32.269913
 20
39.522125
 11
32.269913
 21
20.345133
  0
LINE
  8
DASHDOT
 62
     7
 10
65.839821
 20
37.327675
 11
65.839821
 21
22.539579
  0
LINE
  8
DASHDOT
 62
     7
 10
71.539825
 20
44.022125
 11
71.539825
 21
15.845133
  0
LINE
  8
DASHDOT
 62
     7
 10
57.451324
 20
29.933628
 11
85.628319
 21
29.933628
  0
LINE
  8
DASHDOT
 62
     7
 10
20.681416
 20
42.433628
 11
27.858406
 21
42.433628
  0
LINE
  8
DASHDOT
 62
     7
 10
20.681416
 20
17.433628
 11
27.858406
 21
17.433628
  0
LINE
  8
DASHDOT
 62
     7
 10
20.681416
 20
29.933628
 11
37.858406
 21
29.933628
  0
CIRCLE
  8
DASHDOT
 62
     7
 10
71.539825
 20
29.933628
 40
12.500000
  0
LINE
  8
0
 62
     5
 10
36.769913
 20
38.133629
 11
36.769913
 21
42.933628
  0
LINE
  8
0
 62
     5
 10
26.769911
 20
42.933628
 11
26.769911
 21
42.933628
  0
LINE
  8
0
 62
     5
 10
21.769911
 20
42.933628
 11
21.769911
 21
42.933628
  0
LINE
  8
0
 62
     5
 10
26.769911
 20
38.433628
 11
36.769913
 21
38.433628
  0
LINE
  8
0
 62
     5
 10
36.469910
 20
21.433628
 11
36.769913
 21
21.433628
  0
LINE
  8
0
 62
     5
 10
26.769911
 20
42.933628
 11
36.769913
 21
42.933628
  0
LINE
  8
0
 62
     5
 10
26.769911
 20
16.933628
 11
36.769913
 21
16.933628
  0
LINE
  8
HIDDEN
 62
     4
 10
33.769913
 20
33.163628
 11
33.769913
 21
23.979828
  0
LINE
  8
HIDDEN
 62
     4
 10
33.269913
 20
33.163628
 11
33.269913
 21
22.851255
  0
LINE
  8
HIDDEN
 62
     4
 10
31.269911
 20
33.163628
 11
31.269911
 21
22.851255
  0
LINE
  8
HIDDEN
 62
     4
 10
30.769911
 20
33.163628
 11
30.769911
 21
23.979828
  0
POLYLINE
  8
HIDDEN
 62
     4
 66
     1
 70
     2
  0
VERTEX
  8
HIDDEN
 10
69.089821
 20
38.072884
  0
VERTEX
  8
HIDDEN
 10
69.089821
 20
33.163628
  0
VERTEX
  8
HIDDEN
 10
63.089821
 20
33.163628
  0
SEQEND
  0
LINE
  8
HIDDEN
 62
     4
 10
67.339821
 20
33.163628
 11
67.339821
 21
22.543770
  0
LINE
  8
HIDDEN
 62
     4
 10
66.839821
 20
33.163628
 11
66.839821
 21
22.851255
  0
LINE
  8
HIDDEN
 62
     4
 10
64.839821
 20
33.163628
 11
64.839821
 21
24.702950
  0
LINE
  8
HIDDEN
 62
     4
 10
64.339821
 20
33.163628
 11
64.339821
 21
25.415886
  0
LINE
  8
0
 62
     4
 10
29.815283
 20
33.163628
 11
34.724541
 21
33.163628
  0
ARC
  8
0
 62
     4
 10
33.497223
 20
35.289398
 40
2.454628
 50
299.9999953226508
 51
60.00000467734918
  0
ARC
  8
0
 62
     4
 10
31.042597
 20
35.289398
 40
2.454628
 50
119.9999953226508
 51
240.0000046773492
  0
ARC
  8
0
 62
     4
 10
32.269913
 20
33.163628
 40
4.909257
 50
60.00000467734918
 51
119.9999953226508
  0
LINE
  8
0
 62
     4
 10
33.769913
 20
23.915886
 11
33.769913
 21
24.043770
  0
LINE
  8
0
 62
     4
 10
30.769911
 20
23.915886
 11
30.769911
 21
24.043770
  0
ARC
  8
0
 62
     4
 10
32.269913
 20
24.043770
 40
1.500000
 50
180.0
 51
0.0
  0
ARC
  8
0
 62
     4
 10
32.269913
 20
23.915886
 40
1.500000
 50
0.0
 51
180.0
  0
LINE
  8
0
 62
     4
 10
65.234268
 20
24.233627
 11
77.845375
 21
24.233627
  0
LINE
  8
0
 62
     4
 10
64.988564
 20
24.517815
 11
78.091080
 21
24.517815
  0
CIRCLE
  8
0
 62
     4
 10
71.539825
 20
29.933628
 40
11.875000
  0
CIRCLE
  8
0
 62
     4
 10
71.539825
 20
29.933628
 40
13.000000
  0
CIRCLE
  8
0
 62
     4
 10
71.539825
 20
29.933628
 40
8.500000
  0
CIRCLE
  8
0
 62
     4
 10
71.539825
 20
29.933628
 40
3.000000
  0
LINE
  8
0
 62
     4
 10
21.769911
 20
41.808628
 11
26.769911
 21
41.808628
  0
LINE
  8
0
 62
     4
 10
21.769911
 20
18.058628
 11
26.769911
 21
18.058628
  0
POLYLINE
  8
HIDDEN
 62
     4
 66
     1
 70
     2
  0
VERTEX
  8
HIDDEN
 10
68.589821
 20
33.163628
  0
VERTEX
  8
HIDDEN
 10
68.589821
 20
36.163628
  0
VERTEX
  8
HIDDEN
 10
63.089821
 20
36.163628
  0
VERTEX
  8
HIDDEN
 10
63.089821
 20
33.163628
  0
SEQEND
  0
POLYLINE
  8
0
 62
     4
 66
     1
 70
     2
  0
VERTEX
  8
0
 10
29.519911
 20
33.163628
  0
VERTEX
  8
0
 10
35.019913
 20
33.163628
  0
VERTEX
  8
0
 10
35.019913
 20
36.163628
  0
VERTEX
  8
0
 10
29.519911
 20
36.163628
  0
VERTEX
  8
0
 10
29.519911
 20
33.163628
  0
SEQEND
  0
POLYLINE
  8
0
 62
     4
 66
     1
 70
     2
  0
VERTEX
  8
0
 10
27.350441
 20
21.433628
  0
VERTEX
  8
0
 10
36.469910
 20
21.433628
  0
VERTEX
  8
0
 10
36.769913
 20
21.733627
  0
VERTEX
  8
0
 10
36.769913
 20
24.233627
  0
VERTEX
  8
0
 10
27.350441
 20
32.137501
  0
VERTEX
  8
0
 10
27.350441
 20
21.433628
  0
SEQEND
  0
POLYLINE
  8
0
 62
     4
 66
     1
 70
     2
  0
VERTEX
  8
0
 10
26.769911
 20
21.433628
  0
VERTEX
  8
0
 10
27.132744
 20
21.433628
  0
VERTEX
  8
0
 10
27.132744
 20
35.633629
  0
VERTEX
  8
0
 10
27.350441
 20
35.633629
  0
VERTEX
  8
0
 10
27.350441
 20
32.421688
  0
VERTEX
  8
0
 10
36.769913
 20
24.517815
  0
VERTEX
  8
0
 10
36.769913
 20
38.133629
  0
VERTEX
  8
0
 10
36.469910
 20
38.433628
  0
VERTEX
  8
0
 10
26.769911
 20
38.433628
  0
SEQEND
  0
POLYLINE
  8
0
 62
     4
 66
     1
 70
     2
  0
VERTEX
  8
0
 10
21.769911
 20
16.933628
  0
VERTEX
  8
0
 10
21.769911
 20
16.933628
  0
VERTEX
  8
0
 10
26.769911
 20
16.933628
  0
VERTEX
  8
0
 10
26.769911
 20
16.933628
  0
VERTEX
  8
0
 10
26.769911
 20
42.933628
  0
VERTEX
  8
0
 10
26.769911
 20
42.933628
  0
VERTEX
  8
0
 10
21.769911
 20
42.933628
  0
VERTEX
  8
0
 10
21.769911
 20
42.933628
  0
VERTEX
  8
0
 10
21.769911
 20
16.933628
  0
SEQEND
  0
POLYLINE
  8
HIDDEN
 62
     4
 66
     1
 70
     2
  0
VERTEX
  8
HIDDEN
 10
21.769911
 20
26.633629
  0
VERTEX
  8
HIDDEN
 10
22.069910
 20
26.933628
  0
VERTEX
  8
HIDDEN
 10
36.469910
 20
26.933628
  0
VERTEX
  8
HIDDEN
 10
36.469910
 20
32.933628
  0
VERTEX
  8
HIDDEN
 10
22.069910
 20
32.933628
  0
VERTEX
  8
HIDDEN
 10
21.769911
 20
33.233627
  0
SEQEND
  0
LINE
  8
HIDDEN
 62
     4
 10
22.069910
 20
32.933628
 11
22.069910
 21
26.933628
  0
LINE
  8
HIDDEN
 62
     4
 10
36.769913
 20
33.233627
 11
36.469910
 21
32.933628
  0
LINE
  8
HIDDEN
 62
     4
 10
36.769913
 20
26.633629
 11
36.469910
 21
26.933628
  0
LINE
  8
0
 62
     5
 10
46.203537
 20
24.756638
 11
46.203537
 21
35.110619
  0
POLYLINE
  8
0
 62
     5
 66
     1
 70
     2
  0
VERTEX
  8
0
 10
45.840706
 20
34.203541
  0
VERTEX
  8
0
 10
46.203537
 20
32.933628
  0
VERTEX
  8
0
 10
46.566368
 20
34.203541
  0
SEQEND
  0
POLYLINE
  8
0
 62
     5
 66
     1
 70
     2
  0
VERTEX
  8
0
 10
46.566368
 20
25.663715
  0
VERTEX
  8
0
 10
46.203537
 20
26.933628
  0
VERTEX
  8
0
 10
45.840706
 20
25.663715
  0
SEQEND
  0
LINE
  8
0
 62
     5
 10
36.769913
 20
32.933628
 11
46.747787
 21
32.933628
  0
LINE
  8
0
 62
     5
 10
36.769913
 20
26.933628
 11
46.747787
 21
26.933628
  0
TEXT
  8
0
 62
     7
 10
45.840706
 20
27.212389
 40
1.814159
 41
1.000000
  1
%%c6H7
  7
KANJI
 50
90.000000
 51
0.000000
  0
ENDSEC
  0
EOF
