  0
SECTION
  2
HEADER
  9
$ACADVER
  1
AC1003
  9
$INSBASE
 10
0.000000
 20
0.000000
  9
$EXTMIN
 10
0.000000
 20
0.000000
  9
$EXTMAX
 10
114.796460
 20
79.380531
  9
$LIMMIN
 10
0.000000
 20
0.000000
  9
$LIMMAX
 10
114.796460
 20
79.380531
  9
$VIEWCTR
 10
57.398230
 20
39.690265
  9
$VIEWSIZE
 40
79.380531
  0
ENDSEC
  0
SECTION
  2
TABLES
  0
TABLE
  2
LTYPE
 70
     4
  0
LTYPE
  2
CONTINUOUS
 70
    64
  3
SolidLine
 72
    65
 73
     0
 40
0.0
  0
LTYPE
  2
HIDDEN
 70
    64
  3
------------------------
 72
    65
 73
     2
 40
1.221239
 49
0.814159
 49
-0.407080
  0
LTYPE
  2
DASHDOT
 70
    64
  3
--?--?--?--?--?--?--?--
 72
    65
 73
     4
 40
4.884956
 49
3.663717
 49
-0.407080
 49
0.407080
 49
-0.407080
  0
LTYPE
  2
DIVIDE
 70
    64
  3
--??--??--??--??--??--
 72
    65
 73
     6
 40
6.106195
 49
4.070796
 49
-0.407080
 49
0.407080
 49
-0.407080
 49
0.407080
 49
-0.407080
  0
ENDTAB
  0
TABLE
  2
LAYER
 70
     5
  0
LAYER
  2
0
 70
    64
 62
     7
  6
CONTINUOUS
  0
LAYER
  2
HIDDEN
 70
    64
 62
     2
  6
HIDDEN
  0
LAYER
  2
DASHDOT
 70
    64
 62
     6
  6
DASHDOT
  0
LAYER
  2
DIVIDE
 70
    64
 62
     5
  6
DIVIDE
  0
ENDTAB
  0
TABLE
  2
STYLE
 70
     1
  0
STYLE
  2
STANDARD
 70
    64
 40
0.0
 41
1.0
 50
0.0
 71
     0
 42
0.2
  3
TXT
  4

  0
STYLE
  2
KANJI
 70
    64
 40
0.0
 41
1.0
 50
0.0
 71
     0
 42
0.2
  3
TXT
  4
BIGFONT
  0
ENDTAB
  0
TABLE
  2
VIEW
 70
     0
  0
ENDTAB
  0
ENDSEC
  0
SECTION
  2
BLOCKS
  0
ENDSEC
  0
SECTION
  2
ENTITIES
  0
TEXT
  8
0
 62
     7
 10
4.070796
 20
4.477876
 40
1.628319
 41
1.000000
  1
KHK SUSF0.5-60
  7
KANJI
 50
0.000000
 51
0.000000
  0
TEXT
  8
0
 62
     7
 10
4.070796
 20
2.035398
 40
1.628319
 41
1.000000
  1

  7
KANJI
 50
0.000000
 51
0.000000
  0
TEXT
  8
0
 62
     7
 10
4.070796
 20
73.274338
 40
1.831858
 41
1.000000
  1

  7
KANJI
 50
0.000000
 51
0.000000
  0
POLYLINE
  8
0
 62
     7
 66
     1
 70
     2
  0
VERTEX
  8
0
 10
97.699112
 20
73.274338
  0
VERTEX
  8
0
 10
96.111504
 20
76.026199
  0
VERTEX
  8
0
 10
102.461945
 20
76.026199
  0
VERTEX
  8
0
 10
100.874336
 20
73.274338
  0
VERTEX
  8
0
 10
99.286720
 20
76.026199
  0
VERTEX
  8
0
 10
97.699112
 20
73.274338
  0
SEQEND
  0
LINE
  8
0
 62
     5
 10
73.349556
 20
50.305313
 11
73.349556
 21
42.170769
  0
LINE
  8
0
 62
     5
 10
34.924778
 20
49.084072
 11
34.924778
 21
43.084072
  0
POLYLINE
  8
0
 62
     5
 66
     1
 70
     2
  0
VERTEX
  8
0
 10
36.146019
 20
40.194073
  0
VERTEX
  8
0
 10
43.495575
 20
57.225662
  0
VERTEX
  8
0
 10
49.031860
 20
57.225662
  0
SEQEND
  0
POLYLINE
  8
0
 62
     5
 66
     1
 70
     2
  0
VERTEX
  8
0
 10
36.336761
 20
41.663536
  0
VERTEX
  8
0
 10
36.146019
 20
40.194073
  0
VERTEX
  8
0
 10
37.084290
 20
41.340958
  0
SEQEND
  0
TEXT
  8
0
 62
     7
 10
43.902657
 20
57.632744
 40
1.953982
 41
1.000000
  1
M3
  7
KANJI
 50
0.000000
 51
0.000000
  0
LINE
  8
0
 62
     5
 10
79.349556
 20
57.225666
 11
73.349556
 21
57.225666
  0
POLYLINE
  8
0
 62
     5
 66
     1
 70
     2
  0
VERTEX
  8
0
 10
77.924774
 20
56.818588
  0
VERTEX
  8
0
 10
79.349556
 20
57.225666
  0
VERTEX
  8
0
 10
77.924774
 20
57.632744
  0
SEQEND
  0
POLYLINE
  8
0
 62
     5
 66
     1
 70
     2
  0
VERTEX
  8
0
 10
74.774338
 20
57.632744
  0
VERTEX
  8
0
 10
73.349556
 20
57.225666
  0
VERTEX
  8
0
 10
74.774338
 20
56.818588
  0
SEQEND
  0
LINE
  8
0
 62
     5
 10
79.349556
 20
50.305313
 11
79.349556
 21
57.836285
  0
LINE
  8
0
 62
     5
 10
73.349556
 20
50.305313
 11
73.349556
 21
57.836285
  0
TEXT
  8
0
 62
     7
 10
75.688049
 20
57.632744
 40
2.035398
 41
1.000000
  1
6
  7
KANJI
 50
360.000000
 51
0.000000
  0
LINE
  8
0
 62
     5
 10
41.867256
 20
56.004425
 11
32.482300
 21
56.004425
  0
POLYLINE
  8
0
 62
     5
 66
     1
 70
     2
  0
VERTEX
  8
0
 10
33.500000
 20
55.597343
  0
VERTEX
  8
0
 10
34.924778
 20
56.004425
  0
VERTEX
  8
0
 10
33.500000
 20
56.411507
  0
SEQEND
  0
POLYLINE
  8
0
 62
     5
 66
     1
 70
     2
  0
VERTEX
  8
0
 10
40.849556
 20
56.411507
  0
VERTEX
  8
0
 10
39.424778
 20
56.004425
  0
VERTEX
  8
0
 10
40.849556
 20
55.597343
  0
SEQEND
  0
LINE
  8
0
 62
     5
 10
34.924778
 20
49.084072
 11
34.924778
 21
56.615044
  0
TEXT
  8
0
 62
     7
 10
35.190266
 20
56.330090
 40
2.035398
 41
1.000000
  1
4.5
  7
KANJI
 50
0.000000
 51
0.000000
  0
LINE
  8
0
 62
     5
 10
56.522121
 20
43.084072
 11
56.522121
 21
24.084072
  0
POLYLINE
  8
0
 62
     5
 66
     1
 70
     2
  0
VERTEX
  8
0
 10
56.929199
 20
41.659294
  0
VERTEX
  8
0
 10
56.522121
 20
43.084072
  0
VERTEX
  8
0
 10
56.115044
 20
41.659294
  0
SEQEND
  0
POLYLINE
  8
0
 62
     5
 66
     1
 70
     2
  0
VERTEX
  8
0
 10
56.115044
 20
25.508850
  0
VERTEX
  8
0
 10
56.522121
 20
24.084072
  0
VERTEX
  8
0
 10
56.929199
 20
25.508850
  0
SEQEND
  0
LINE
  8
0
 62
     5
 10
39.424778
 20
43.084072
 11
57.132740
 21
43.084072
  0
LINE
  8
0
 62
     5
 10
39.424778
 20
24.084072
 11
57.132740
 21
24.084072
  0
TEXT
  8
0
 62
     7
 10
56.115044
 20
31.192478
 40
2.035398
 41
1.000000
  1
%%c19
  7
KANJI
 50
90.000000
 51
0.000000
  0
LINE
  8
0
 62
     5
 10
29.424778
 20
60.075222
 11
39.424778
 21
60.075222
  0
POLYLINE
  8
0
 62
     5
 66
     1
 70
     2
  0
VERTEX
  8
0
 10
30.849556
 20
60.482300
  0
VERTEX
  8
0
 10
29.424778
 20
60.075222
  0
VERTEX
  8
0
 10
30.849556
 20
59.668144
  0
SEQEND
  0
POLYLINE
  8
0
 62
     5
 66
     1
 70
     2
  0
VERTEX
  8
0
 10
38.000000
 20
59.668144
  0
VERTEX
  8
0
 10
39.424778
 20
60.075222
  0
VERTEX
  8
0
 10
38.000000
 20
60.482300
  0
SEQEND
  0
TEXT
  8
0
 62
     7
 10
33.101768
 20
60.400887
 40
2.035398
 41
1.000000
  1
10
  7
KANJI
 50
0.000000
 51
0.000000
  0
LINE
  8
0
 62
     5
 10
24.424778
 20
63.331860
 11
39.424778
 21
63.331860
  0
POLYLINE
  8
0
 62
     5
 66
     1
 70
     2
  0
VERTEX
  8
0
 10
25.849556
 20
63.738937
  0
VERTEX
  8
0
 10
24.424778
 20
63.331860
  0
VERTEX
  8
0
 10
25.849556
 20
62.924782
  0
SEQEND
  0
POLYLINE
  8
0
 62
     5
 66
     1
 70
     2
  0
VERTEX
  8
0
 10
38.000000
 20
62.924782
  0
VERTEX
  8
0
 10
39.424778
 20
63.331860
  0
VERTEX
  8
0
 10
38.000000
 20
63.738937
  0
SEQEND
  0
LINE
  8
0
 62
     5
 10
24.424778
 20
49.084072
 11
24.424778
 21
63.942478
  0
LINE
  8
0
 62
     5
 10
39.424778
 20
49.084072
 11
39.424778
 21
63.942478
  0
TEXT
  8
0
 62
     7
 10
30.601768
 20
63.657524
 40
2.035398
 41
1.000000
  1
15
  7
KANJI
 50
0.000000
 51
0.000000
  0
LINE
  8
0
 62
     5
 10
24.424778
 20
60.075222
 11
29.424778
 21
60.075222
  0
POLYLINE
  8
0
 62
     5
 66
     1
 70
     2
  0
VERTEX
  8
0
 10
25.849556
 20
60.482300
  0
VERTEX
  8
0
 10
24.424778
 20
60.075222
  0
VERTEX
  8
0
 10
25.849556
 20
59.668144
  0
SEQEND
  0
POLYLINE
  8
0
 62
     5
 66
     1
 70
     2
  0
VERTEX
  8
0
 10
28.000000
 20
59.668144
  0
VERTEX
  8
0
 10
29.424778
 20
60.075222
  0
VERTEX
  8
0
 10
28.000000
 20
60.482300
  0
SEQEND
  0
LINE
  8
0
 62
     5
 10
29.424778
 20
49.084072
 11
29.424778
 21
60.685841
  0
TEXT
  8
0
 62
     7
 10
26.263273
 20
60.400887
 40
2.035398
 41
1.000000
  1
5
  7
KANJI
 50
0.000000
 51
0.000000
  0
LINE
  8
0
 62
     5
 10
59.778759
 20
49.084072
 11
59.778759
 21
18.084072
  0
POLYLINE
  8
0
 62
     5
 66
     1
 70
     2
  0
VERTEX
  8
0
 10
60.185837
 20
47.659294
  0
VERTEX
  8
0
 10
59.778759
 20
49.084072
  0
VERTEX
  8
0
 10
59.371681
 20
47.659294
  0
SEQEND
  0
POLYLINE
  8
0
 62
     5
 66
     1
 70
     2
  0
VERTEX
  8
0
 10
59.371681
 20
19.508850
  0
VERTEX
  8
0
 10
59.778759
 20
18.084072
  0
VERTEX
  8
0
 10
60.185837
 20
19.508850
  0
SEQEND
  0
LINE
  8
0
 62
     5
 10
39.424778
 20
49.084072
 11
60.389378
 21
49.084072
  0
LINE
  8
0
 62
     5
 10
39.424778
 20
18.084072
 11
60.389378
 21
18.084072
  0
TEXT
  8
0
 62
     7
 10
59.371681
 20
31.192480
 40
2.035398
 41
1.000000
  1
%%c31
  7
KANJI
 50
90.000000
 51
0.000000
  0
LINE
  8
DASHDOT
 62
     7
 10
34.924778
 20
44.305313
 11
34.924778
 21
22.862833
  0
LINE
  8
DASHDOT
 62
     7
 10
73.349556
 20
42.170769
 11
73.349556
 21
24.997374
  0
LINE
  8
DASHDOT
 62
     7
 10
79.349556
 20
50.305313
 11
79.349556
 21
16.862833
  0
LINE
  8
DASHDOT
 62
     7
 10
62.628319
 20
33.584072
 11
96.070801
 21
33.584072
  0
LINE
  8
DASHDOT
 62
     7
 10
23.203539
 20
48.584072
 11
30.646017
 21
48.584072
  0
LINE
  8
DASHDOT
 62
     7
 10
23.203539
 20
18.584072
 11
30.646017
 21
18.584072
  0
LINE
  8
DASHDOT
 62
     7
 10
23.203539
 20
33.584072
 11
40.646019
 21
33.584072
  0
CIRCLE
  8
DASHDOT
 62
     7
 10
79.349556
 20
33.584072
 40
15.000000
  0
LINE
  8
0
 62
     5
 10
39.424778
 20
42.784073
 11
39.424778
 21
49.084072
  0
LINE
  8
0
 62
     5
 10
29.424778
 20
49.084072
 11
29.424778
 21
49.084072
  0
LINE
  8
0
 62
     5
 10
24.424778
 20
49.084072
 11
24.424778
 21
49.084072
  0
LINE
  8
0
 62
     5
 10
29.424778
 20
43.084072
 11
39.424778
 21
43.084072
  0
LINE
  8
0
 62
     5
 10
39.124779
 20
24.084072
 11
39.424778
 21
24.084072
  0
LINE
  8
0
 62
     5
 10
29.424778
 20
49.084072
 11
39.424778
 21
49.084072
  0
LINE
  8
0
 62
     5
 10
29.424778
 20
18.084072
 11
39.424778
 21
18.084072
  0
LINE
  8
HIDDEN
 62
     4
 10
36.424778
 20
37.194073
 11
36.424778
 21
26.485296
  0
LINE
  8
HIDDEN
 62
     4
 10
35.924778
 20
37.194073
 11
35.924778
 21
25.506325
  0
LINE
  8
HIDDEN
 62
     4
 10
33.924778
 20
37.194073
 11
33.924778
 21
25.506325
  0
LINE
  8
HIDDEN
 62
     4
 10
33.424778
 20
37.194073
 11
33.424778
 21
26.485296
  0
POLYLINE
  8
HIDDEN
 62
     4
 66
     1
 70
     2
  0
VERTEX
  8
HIDDEN
 10
76.599556
 20
42.677338
  0
VERTEX
  8
HIDDEN
 10
76.599556
 20
37.194073
  0
VERTEX
  8
HIDDEN
 10
70.599556
 20
37.194073
  0
SEQEND
  0
LINE
  8
HIDDEN
 62
     4
 10
74.849556
 20
37.194073
 11
74.849556
 21
25.217472
  0
LINE
  8
HIDDEN
 62
     4
 10
74.349556
 20
37.194073
 11
74.349556
 21
25.506325
  0
LINE
  8
HIDDEN
 62
     4
 10
72.349556
 20
37.194073
 11
72.349556
 21
27.161455
  0
LINE
  8
HIDDEN
 62
     4
 10
71.849556
 20
37.194073
 11
71.849556
 21
27.753120
  0
LINE
  8
0
 62
     4
 10
32.183144
 20
37.194073
 11
37.666412
 21
37.194073
  0
ARC
  8
0
 62
     4
 10
36.295593
 20
39.568398
 40
2.741633
 50
300.0000089830309
 51
59.99999272451719
  0
ARC
  8
0
 62
     4
 10
33.553963
 20
39.568398
 40
2.741633
 50
120.00000727548283
 51
239.99999101696906
  0
ARC
  8
0
 62
     4
 10
34.924778
 20
37.194073
 40
5.483267
 50
60.0000012622552
 51
119.99999873774478
  0
LINE
  8
0
 62
     4
 10
36.424778
 20
26.253120
 11
36.424778
 21
26.717472
  0
LINE
  8
0
 62
     4
 10
33.424778
 20
26.253120
 11
33.424778
 21
26.717472
  0
ARC
  8
0
 62
     4
 10
34.924778
 20
26.717472
 40
1.500000
 50
180.0
 51
0.0
  0
ARC
  8
0
 62
     4
 10
34.924778
 20
26.253120
 40
1.500000
 50
0.0
 51
180.0
  0
LINE
  8
0
 62
     4
 10
71.984100
 20
27.584072
 11
86.715012
 21
27.584072
  0
LINE
  8
0
 62
     4
 10
71.735458
 20
27.902916
 11
86.963654
 21
27.902916
  0
CIRCLE
  8
0
 62
     4
 10
79.349556
 20
33.584072
 40
14.375000
  0
CIRCLE
  8
0
 62
     4
 10
79.349556
 20
33.584072
 40
15.500000
  0
CIRCLE
  8
0
 62
     4
 10
79.349556
 20
33.584072
 40
9.500000
  0
CIRCLE
  8
0
 62
     4
 10
79.349556
 20
33.584072
 40
4.000000
  0
LINE
  8
0
 62
     4
 10
24.424778
 20
47.959072
 11
29.424778
 21
47.959072
  0
LINE
  8
0
 62
     4
 10
24.424778
 20
19.209072
 11
29.424778
 21
19.209072
  0
POLYLINE
  8
HIDDEN
 62
     4
 66
     1
 70
     2
  0
VERTEX
  8
HIDDEN
 10
76.099556
 20
37.194073
  0
VERTEX
  8
HIDDEN
 10
76.099556
 20
40.194073
  0
VERTEX
  8
HIDDEN
 10
70.599556
 20
40.194073
  0
VERTEX
  8
HIDDEN
 10
70.599556
 20
37.194073
  0
SEQEND
  0
POLYLINE
  8
0
 62
     4
 66
     1
 70
     2
  0
VERTEX
  8
0
 10
32.174778
 20
37.194073
  0
VERTEX
  8
0
 10
37.674778
 20
37.194073
  0
VERTEX
  8
0
 10
37.674778
 20
40.194073
  0
VERTEX
  8
0
 10
32.174778
 20
40.194073
  0
VERTEX
  8
0
 10
32.174778
 20
37.194073
  0
SEQEND
  0
POLYLINE
  8
0
 62
     4
 66
     1
 70
     2
  0
VERTEX
  8
0
 10
30.076105
 20
24.084072
  0
VERTEX
  8
0
 10
39.124779
 20
24.084072
  0
VERTEX
  8
0
 10
39.424778
 20
24.384071
  0
VERTEX
  8
0
 10
39.424778
 20
27.584072
  0
VERTEX
  8
0
 10
30.076105
 20
35.428539
  0
VERTEX
  8
0
 10
30.076105
 20
24.084072
  0
SEQEND
  0
POLYLINE
  8
0
 62
     4
 66
     1
 70
     2
  0
VERTEX
  8
0
 10
29.424778
 20
24.084072
  0
VERTEX
  8
0
 10
29.831858
 20
24.084072
  0
VERTEX
  8
0
 10
29.831858
 20
39.584072
  0
VERTEX
  8
0
 10
30.076105
 20
39.584072
  0
VERTEX
  8
0
 10
30.076105
 20
35.747383
  0
VERTEX
  8
0
 10
39.424778
 20
27.902916
  0
VERTEX
  8
0
 10
39.424778
 20
42.784073
  0
VERTEX
  8
0
 10
39.124779
 20
43.084072
  0
VERTEX
  8
0
 10
29.424778
 20
43.084072
  0
SEQEND
  0
POLYLINE
  8
0
 62
     4
 66
     1
 70
     2
  0
VERTEX
  8
0
 10
24.424778
 20
18.084072
  0
VERTEX
  8
0
 10
24.424778
 20
18.084072
  0
VERTEX
  8
0
 10
29.424778
 20
18.084072
  0
VERTEX
  8
0
 10
29.424778
 20
18.084072
  0
VERTEX
  8
0
 10
29.424778
 20
49.084072
  0
VERTEX
  8
0
 10
29.424778
 20
49.084072
  0
VERTEX
  8
0
 10
24.424778
 20
49.084072
  0
VERTEX
  8
0
 10
24.424778
 20
49.084072
  0
VERTEX
  8
0
 10
24.424778
 20
18.084072
  0
SEQEND
  0
POLYLINE
  8
HIDDEN
 62
     4
 66
     1
 70
     2
  0
VERTEX
  8
HIDDEN
 10
24.424778
 20
29.284073
  0
VERTEX
  8
HIDDEN
 10
24.724777
 20
29.584072
  0
VERTEX
  8
HIDDEN
 10
39.124779
 20
29.584072
  0
VERTEX
  8
HIDDEN
 10
39.124779
 20
37.584072
  0
VERTEX
  8
HIDDEN
 10
24.724777
 20
37.584072
  0
VERTEX
  8
HIDDEN
 10
24.424778
 20
37.884071
  0
SEQEND
  0
LINE
  8
HIDDEN
 62
     4
 10
24.724777
 20
37.584072
 11
24.724777
 21
29.584072
  0
LINE
  8
HIDDEN
 62
     4
 10
39.424778
 20
37.884071
 11
39.124779
 21
37.584072
  0
LINE
  8
HIDDEN
 62
     4
 10
39.424778
 20
29.284073
 11
39.124779
 21
29.584072
  0
LINE
  8
0
 62
     5
 10
50.008850
 20
27.141594
 11
50.008850
 21
40.026550
  0
POLYLINE
  8
0
 62
     5
 66
     1
 70
     2
  0
VERTEX
  8
0
 10
49.601768
 20
39.008850
  0
VERTEX
  8
0
 10
50.008850
 20
37.584072
  0
VERTEX
  8
0
 10
50.415932
 20
39.008850
  0
SEQEND
  0
POLYLINE
  8
0
 62
     5
 66
     1
 70
     2
  0
VERTEX
  8
0
 10
50.415932
 20
28.159294
  0
VERTEX
  8
0
 10
50.008850
 20
29.584072
  0
VERTEX
  8
0
 10
49.601768
 20
28.159294
  0
SEQEND
  0
LINE
  8
0
 62
     5
 10
39.424778
 20
37.584072
 11
50.619469
 21
37.584072
  0
LINE
  8
0
 62
     5
 10
39.424778
 20
29.584072
 11
50.619469
 21
29.584072
  0
TEXT
  8
0
 62
     7
 10
49.601768
 20
30.530975
 40
2.035398
 41
1.000000
  1
%%c8H7
  7
KANJI
 50
90.000000
 51
0.000000
  0
ENDSEC
  0
EOF
