  0
SECTION
  2
ENTITIES
  0
ARC
  8
0
 62
7
 10
462.256134
 20
360.394775
 30
0.0
 40
5.785
 50
10.0
 51
180.0
  0
ARC
  8
0
 62
7
 10
473.65036
 20
362.4039
 30
0.0
 40
5.785
 50
180.0
 51
10.0
  0
CIRCLE
  8
0
 62
5
 10
159.266663
 20
149.669434
 30
0.0
 40
0.593333
  0
CIRCLE
  8
0
 62
5
 10
114.711105
 20
110.113876
 30
0.0
 40
7.911111
  0
CIRCLE
  8
0
 62
5
 10
159.266663
 20
112.981934
 30
0.0
 40
0.593333
  0
CIRCLE
  8
0
 62
5
 10
114.711105
 20
71.863876
 30
0.0
 40
7.911111
  0
ARC
  8
0
 62
4
 10
164.266663
 20
89.419434
 30
0.0
 40
21.625
 50
62.45612487516789
 51
117.54387512483211
  0
ARC
  8
0
 62
4
 10
164.266663
 20
251.419434
 30
0.0
 40
21.625
 50
242.45612487516786
 51
297.54387512483214
  0
ARC
  8
0
 62
4
 10
164.266663
 20
251.419434
 30
0.0
 40
16.0
 50
247.20175187738357
 51
292.7982481226164
  0
ARC
  8
0
 62
4
 10
164.266663
 20
89.419434
 30
0.0
 40
16.0
 50
67.20175187738353
 51
112.79824812261646
  0
ARC
  8
0
 62
4
 10
156.266663
 20
199.919434
 30
0.0
 40
2.0
 50
270.0
 51
0.0
  0
ARC
  8
0
 62
4
 10
156.266663
 20
140.919434
 30
0.0
 40
2.0
 50
0.0
 51
90.0
  0
LINE
  8
0
 62
4
 10
158.266663
 20
221.110031
 30
0.0
 11
154.266663
 21
223.419434
 31
0.0
  0
LINE
  8
0
 62
4
 10
170.266663
 20
221.110031
 30
0.0
 11
174.266663
 21
223.419434
 31
0.0
  0
LINE
  8
0
 62
4
 10
170.266663
 20
119.728836
 30
0.0
 11
174.266663
 21
117.419434
 31
0.0
  0
LINE
  8
0
 62
4
 10
158.266663
 20
119.728836
 30
0.0
 11
154.266663
 21
117.419434
 31
0.0
  0
LINE
  8
0
 62
4
 10
188.266663
 20
185.419434
 30
0.0
 11
187.266663
 21
184.419434
 31
0.0
  0
LINE
  8
0
 62
4
 10
188.266663
 20
155.419434
 30
0.0
 11
187.266663
 21
156.419434
 31
0.0
  0
LINE
  8
0
 62
4
 10
154.266663
 20
155.419434
 30
0.0
 11
155.266663
 21
156.419434
 31
0.0
  0
POLYLINE
  8
0
 62
4
 66
1
 10
0.0
 20
0.0
 30
0.0
 70
2
  0
VERTEX
  8
0
 10
158.266663
 20
199.919434
 30
0.0
 70
0
  0
VERTEX
  8
0
 10
158.266663
 20
225.919434
 30
0.0
 70
0
  0
VERTEX
  8
0
 10
170.266663
 20
225.919434
 30
0.0
 70
0
  0
SEQEND
  8
0
  0
POLYLINE
  8
0
 62
4
 66
1
 10
0.0
 20
0.0
 30
0.0
 70
2
  0
VERTEX
  8
0
 10
154.266663
 20
196.919434
 30
0.0
 70
0
  0
VERTEX
  8
0
 10
155.266663
 20
197.919434
 30
0.0
 70
0
  0
VERTEX
  8
0
 10
156.266663
 20
197.919434
 30
0.0
 70
0
  0
SEQEND
  8
0
  0
POLYLINE
  8
0
 62
4
 66
1
 10
0.0
 20
0.0
 30
0.0
 70
2
  0
VERTEX
  8
0
 10
158.266663
 20
140.919434
 30
0.0
 70
0
  0
VERTEX
  8
0
 10
158.266663
 20
114.919434
 30
0.0
 70
0
  0
VERTEX
  8
0
 10
170.266663
 20
114.919434
 30
0.0
 70
0
  0
SEQEND
  8
0
  0
POLYLINE
  8
0
 62
4
 66
1
 10
0.0
 20
0.0
 30
0.0
 70
2
  0
VERTEX
  8
0
 10
154.266663
 20
143.919434
 30
0.0
 70
0
  0
VERTEX
  8
0
 10
155.266663
 20
142.919434
 30
0.0
 70
0
  0
VERTEX
  8
0
 10
156.266663
 20
142.919434
 30
0.0
 70
0
  0
SEQEND
  8
0
  0
POLYLINE
  8
0
 62
4
 66
1
 10
0.0
 20
0.0
 30
0.0
 70
2
  0
VERTEX
  8
0
 10
158.066864
 20
236.669434
 30
0.0
 70
0
  0
VERTEX
  8
0
 10
155.766663
 20
236.669434
 30
0.0
 70
0
  0
VERTEX
  8
0
 10
154.266663
 20
235.169434
 30
0.0
 70
0
  0
VERTEX
  8
0
 10
154.266663
 20
155.419434
 30
0.0
 70
0
  0
SEQEND
  8
0
  0
POLYLINE
  8
0
 62
4
 66
1
 10
0.0
 20
0.0
 30
0.0
 70
2
  0
VERTEX
  8
0
 10
154.266663
 20
155.419434
 30
0.0
 70
0
  0
VERTEX
  8
0
 10
154.266663
 20
105.669434
 30
0.0
 70
0
  0
VERTEX
  8
0
 10
155.766663
 20
104.169434
 30
0.0
 70
0
  0
VERTEX
  8
0
 10
158.066864
 20
104.169434
 30
0.0
 70
0
  0
SEQEND
  8
0
  0
POLYLINE
  8
0
 62
4
 66
1
 10
0.0
 20
0.0
 30
0.0
 70
2
  0
VERTEX
  8
0
 10
154.266663
 20
185.419434
 30
0.0
 70
0
  0
VERTEX
  8
0
 10
155.266663
 20
184.419434
 30
0.0
 70
0
  0
VERTEX
  8
0
 10
155.266663
 20
156.419434
 30
0.0
 70
0
  0
VERTEX
  8
0
 10
187.266663
 20
156.419434
 30
0.0
 70
0
  0
VERTEX
  8
0
 10
187.266663
 20
184.419434
 30
0.0
 70
0
  0
VERTEX
  8
0
 10
155.266663
 20
184.419434
 30
0.0
 70
0
  0
SEQEND
  8
0
  0
ARC
  8
0
 62
4
 10
383.877777
 20
170.419434
 30
0.0
 40
14.0
 50
106.60154992625478
 51
73.39845007374521
  0
POLYLINE
  8
0
 62
4
 66
1
 10
0.0
 20
0.0
 30
0.0
 70
2
  0
VERTEX
  8
0
 10
387.877777
 20
183.835846
 30
0.0
 70
0
  0
VERTEX
  8
0
 10
387.877777
 20
187.719437
 30
0.0
 70
0
  0
VERTEX
  8
0
 10
379.877777
 20
187.719437
 30
0.0
 70
0
  0
VERTEX
  8
0
 10
379.877777
 20
183.835846
 30
0.0
 70
0
  0
SEQEND
  8
0
  0
LINE
  8
0
 62
4
 10
154.266663
 20
187.719437
 30
0.0
 11
188.266663
 21
187.719437
 31
0.0
  0
POLYLINE
  8
0
 62
4
 66
1
 10
0.0
 20
0.0
 30
0.0
 70
2
  0
VERTEX
  8
0
 10
184.266663
 20
197.919434
 30
0.0
 70
0
  0
VERTEX
  8
0
 10
184.266663
 20
187.719437
 30
0.0
 70
0
  0
SEQEND
  8
0
  0
POLYLINE
  8
0
 62
4
 66
1
 10
0.0
 20
0.0
 30
0.0
 70
2
  0
VERTEX
  8
0
 10
178.266663
 20
197.919434
 30
0.0
 70
0
  0
VERTEX
  8
0
 10
178.266663
 20
187.719437
 30
0.0
 70
0
  0
SEQEND
  8
0
  0
POLYLINE
  8
0
 62
4
 66
1
 10
0.0
 20
0.0
 30
0.0
 70
2
  0
VERTEX
  8
0
 10
183.726654
 20
197.919434
 30
0.0
 70
0
  0
VERTEX
  8
0
 10
183.726654
 20
187.719437
 30
0.0
 70
0
  0
SEQEND
  8
0
  0
POLYLINE
  8
0
 62
4
 66
1
 10
0.0
 20
0.0
 30
0.0
 70
2
  0
VERTEX
  8
0
 10
178.806671
 20
197.919434
 30
0.0
 70
0
  0
VERTEX
  8
0
 10
178.806671
 20
187.719437
 30
0.0
 70
0
  0
SEQEND
  8
0
  0
POLYLINE
  8
0
 62
4
 66
1
 10
0.0
 20
0.0
 30
0.0
 70
2
  0
VERTEX
  8
0
 10
380.877777
 20
187.719437
 30
0.0
 70
0
  0
VERTEX
  8
0
 10
380.877777
 20
197.75531
 30
0.0
 70
0
  0
SEQEND
  8
0
  0
POLYLINE
  8
0
 62
4
 66
1
 10
0.0
 20
0.0
 30
0.0
 70
2
  0
VERTEX
  8
0
 10
386.877777
 20
187.719437
 30
0.0
 70
0
  0
VERTEX
  8
0
 10
386.877777
 20
197.75531
 30
0.0
 70
0
  0
SEQEND
  8
0
  0
POLYLINE
  8
0
 62
4
 66
1
 10
0.0
 20
0.0
 30
0.0
 70
2
  0
VERTEX
  8
0
 10
381.417786
 20
187.719437
 30
0.0
 70
0
  0
VERTEX
  8
0
 10
381.417786
 20
197.809189
 30
0.0
 70
0
  0
SEQEND
  8
0
  0
POLYLINE
  8
0
 62
4
 66
1
 10
0.0
 20
0.0
 30
0.0
 70
2
  0
VERTEX
  8
0
 10
386.337769
 20
187.719437
 30
0.0
 70
0
  0
VERTEX
  8
0
 10
386.337769
 20
197.809189
 30
0.0
 70
0
  0
SEQEND
  8
0
  0
CIRCLE
  8
0
 62
7
 10
181.266663
 20
170.419434
 30
0.0
 40
3.0
  0
CIRCLE
  8
0
 62
4
 10
181.266663
 20
170.419434
 30
0.0
 40
2.46
  0
POLYLINE
  8
0
 62
4
 66
1
 10
0.0
 20
0.0
 30
0.0
 70
2
  0
VERTEX
  8
0
 10
397.552551
 20
173.419434
 30
0.0
 70
0
  0
VERTEX
  8
0
 10
411.213654
 20
173.419434
 30
0.0
 70
0
  0
SEQEND
  8
0
  0
POLYLINE
  8
0
 62
4
 66
1
 10
0.0
 20
0.0
 30
0.0
 70
2
  0
VERTEX
  8
0
 10
397.552551
 20
167.419434
 30
0.0
 70
0
  0
VERTEX
  8
0
 10
411.213654
 20
167.419434
 30
0.0
 70
0
  0
SEQEND
  8
0
  0
POLYLINE
  8
0
 62
4
 66
1
 10
0.0
 20
0.0
 30
0.0
 70
2
  0
VERTEX
  8
0
 10
397.659973
 20
172.87944
 30
0.0
 70
0
  0
VERTEX
  8
0
 10
411.267517
 20
172.87944
 30
0.0
 70
0
  0
SEQEND
  8
0
  0
POLYLINE
  8
0
 62
4
 66
1
 10
0.0
 20
0.0
 30
0.0
 70
2
  0
VERTEX
  8
0
 10
397.659973
 20
167.959427
 30
0.0
 70
0
  0
VERTEX
  8
0
 10
411.267517
 20
167.959427
 30
0.0
 70
0
  0
SEQEND
  8
0
  0
POLYLINE
  8
0
 62
4
 66
1
 10
0.0
 20
0.0
 30
0.0
 70
2
  0
VERTEX
  8
0
 10
170.466461
 20
104.169434
 30
0.0
 70
0
  0
VERTEX
  8
0
 10
172.766663
 20
104.169434
 30
0.0
 70
0
  0
VERTEX
  8
0
 10
174.266663
 20
105.669434
 30
0.0
 70
0
  0
VERTEX
  8
0
 10
174.266663
 20
142.919434
 30
0.0
 70
0
  0
VERTEX
  8
0
 10
187.266663
 20
142.919434
 30
0.0
 70
0
  0
VERTEX
  8
0
 10
188.266663
 20
143.919434
 30
0.0
 70
0
  0
VERTEX
  8
0
 10
188.266663
 20
196.919434
 30
0.0
 70
0
  0
VERTEX
  8
0
 10
187.266663
 20
197.919434
 30
0.0
 70
0
  0
VERTEX
  8
0
 10
174.266663
 20
197.919434
 30
0.0
 70
0
  0
VERTEX
  8
0
 10
174.266663
 20
235.169434
 30
0.0
 70
0
  0
VERTEX
  8
0
 10
172.766663
 20
236.669434
 30
0.0
 70
0
  0
VERTEX
  8
0
 10
170.466461
 20
236.669434
 30
0.0
 70
0
  0
SEQEND
  8
0
  0
ARC
  8
0
 62
4
 10
172.266663
 20
140.919434
 30
0.0
 40
2.0
 50
90.0
 51
180.0
  0
ARC
  8
0
 62
4
 10
172.266663
 20
199.919434
 30
0.0
 40
2.0
 50
180.0
 51
270.0
  0
LINE
  8
0
 62
4
 10
172.266663
 20
197.919434
 30
0.0
 11
174.266663
 21
197.919434
 31
0.0
  0
LINE
  8
0
 62
4
 10
172.266663
 20
142.919434
 30
0.0
 11
174.266663
 21
142.919434
 31
0.0
  0
LINE
  8
0
 62
4
 10
170.266663
 20
114.919434
 30
0.0
 11
170.266663
 21
140.919434
 31
0.0
  0
LINE
  8
0
 62
4
 10
170.266663
 20
225.919434
 30
0.0
 11
170.266663
 21
199.919434
 31
0.0
  0
ARC
  8
0
 62
7
 10
171.543701
 20
134.616104
 30
0.0
 40
1.928333
 50
280.0
 51
90.0
  0
ARC
  8
0
 62
7
 10
172.213409
 20
130.818024
 30
0.0
 40
1.928333
 50
90.0
 51
280.0
  0
ARC
  8
0
 62
7
 10
155.983704
 20
134.616104
 30
0.0
 40
1.928333
 50
280.0
 51
90.0
  0
ARC
  8
0
 62
7
 10
156.653397
 20
130.818024
 30
0.0
 40
1.928333
 50
90.0
 51
280.0
  0
CIRCLE
  8
0
 62
4
 10
383.877777
 20
170.419434
 30
0.0
 40
27.5
  0
ENDSEC
  0
EOF
