  0
SECTION
  2
ENTITIES
  0
CIRCLE
  8
0
 62
5
 10
109.148155
 20
101.587967
 30
0.0
 40
0.411111
  0
CIRCLE
  8
0
 62
5
 10
76.740746
 20
74.180557
 30
0.0
 40
5.481481
  0
CIRCLE
  8
0
 62
5
 10
109.148155
 20
84.150467
 30
0.0
 40
0.411111
  0
CIRCLE
  8
0
 62
5
 10
76.740746
 20
58.930561
 30
0.0
 40
5.481481
  0
ARC
  8
0
 62
4
 10
114.148155
 20
172.337967
 30
0.0
 40
21.625
 50
242.45612487516786
 51
297.54387512483214
  0
ARC
  8
0
 62
4
 10
114.148155
 20
60.337967
 30
0.0
 40
21.625
 50
62.45612487516789
 51
117.54387512483211
  0
ARC
  8
0
 62
4
 10
114.148155
 20
172.337967
 30
0.0
 40
16.0
 50
247.20175187738357
 51
292.7982481226164
  0
ARC
  8
0
 62
4
 10
114.148155
 20
60.337967
 30
0.0
 40
16.0
 50
67.20175187738353
 51
112.79824812261646
  0
LINE
  8
0
 62
4
 10
138.148163
 20
126.337967
 30
0.0
 11
137.648163
 21
125.837967
 31
0.0
  0
LINE
  8
0
 62
4
 10
138.148163
 20
106.337967
 30
0.0
 11
137.648163
 21
106.837967
 31
0.0
  0
LINE
  8
0
 62
4
 10
104.148155
 20
106.337967
 30
0.0
 11
104.648155
 21
106.837967
 31
0.0
  0
POLYLINE
  8
0
 62
4
 66
1
 10
0.0
 20
0.0
 30
0.0
 70
2
  0
VERTEX
  8
0
 10
124.148155
 20
136.337967
 30
0.0
 70
0
  0
VERTEX
  8
0
 10
119.148155
 20
136.337967
 30
0.0
 70
0
  0
VERTEX
  8
0
 10
119.148155
 20
146.337967
 30
0.0
 70
0
  0
VERTEX
  8
0
 10
109.148155
 20
146.337967
 30
0.0
 70
0
  0
VERTEX
  8
0
 10
109.148155
 20
136.337967
 30
0.0
 70
0
  0
VERTEX
  8
0
 10
104.148155
 20
136.337967
 30
0.0
 70
0
  0
SEQEND
  8
0
  0
POLYLINE
  8
0
 62
4
 66
1
 10
0.0
 20
0.0
 30
0.0
 70
2
  0
VERTEX
  8
0
 10
104.148155
 20
96.337967
 30
0.0
 70
0
  0
VERTEX
  8
0
 10
109.148155
 20
96.337967
 30
0.0
 70
0
  0
VERTEX
  8
0
 10
109.148155
 20
86.337967
 30
0.0
 70
0
  0
VERTEX
  8
0
 10
119.148155
 20
86.337967
 30
0.0
 70
0
  0
VERTEX
  8
0
 10
119.148155
 20
96.337967
 30
0.0
 70
0
  0
VERTEX
  8
0
 10
124.148155
 20
96.337967
 30
0.0
 70
0
  0
SEQEND
  8
0
  0
POLYLINE
  8
0
 62
4
 66
1
 10
0.0
 20
0.0
 30
0.0
 70
2
  0
VERTEX
  8
0
 10
107.948357
 20
157.587967
 30
0.0
 70
0
  0
VERTEX
  8
0
 10
105.648155
 20
157.587967
 30
0.0
 70
0
  0
VERTEX
  8
0
 10
104.148155
 20
156.087967
 30
0.0
 70
0
  0
VERTEX
  8
0
 10
104.148155
 20
106.337967
 30
0.0
 70
0
  0
SEQEND
  8
0
  0
POLYLINE
  8
0
 62
4
 66
1
 10
0.0
 20
0.0
 30
0.0
 70
2
  0
VERTEX
  8
0
 10
124.148155
 20
136.337967
 30
0.0
 70
0
  0
VERTEX
  8
0
 10
124.148155
 20
156.087967
 30
0.0
 70
0
  0
VERTEX
  8
0
 10
122.648155
 20
157.587967
 30
0.0
 70
0
  0
VERTEX
  8
0
 10
120.347954
 20
157.587967
 30
0.0
 70
0
  0
SEQEND
  8
0
  0
POLYLINE
  8
0
 62
4
 66
1
 10
0.0
 20
0.0
 30
0.0
 70
2
  0
VERTEX
  8
0
 10
120.347954
 20
75.087967
 30
0.0
 70
0
  0
VERTEX
  8
0
 10
122.648155
 20
75.087967
 30
0.0
 70
0
  0
VERTEX
  8
0
 10
124.148155
 20
76.587967
 30
0.0
 70
0
  0
VERTEX
  8
0
 10
124.148155
 20
96.337967
 30
0.0
 70
0
  0
SEQEND
  8
0
  0
POLYLINE
  8
0
 62
4
 66
1
 10
0.0
 20
0.0
 30
0.0
 70
2
  0
VERTEX
  8
0
 10
104.148155
 20
106.337967
 30
0.0
 70
0
  0
VERTEX
  8
0
 10
104.148155
 20
76.587967
 30
0.0
 70
0
  0
VERTEX
  8
0
 10
105.648155
 20
75.087967
 30
0.0
 70
0
  0
VERTEX
  8
0
 10
107.948357
 20
75.087967
 30
0.0
 70
0
  0
SEQEND
  8
0
  0
POLYLINE
  8
0
 62
4
 66
1
 10
0.0
 20
0.0
 30
0.0
 70
2
  0
VERTEX
  8
0
 10
104.148155
 20
126.337967
 30
0.0
 70
0
  0
VERTEX
  8
0
 10
104.648155
 20
125.837967
 30
0.0
 70
0
  0
VERTEX
  8
0
 10
104.648155
 20
106.837967
 30
0.0
 70
0
  0
VERTEX
  8
0
 10
137.648163
 20
106.837967
 30
0.0
 70
0
  0
VERTEX
  8
0
 10
137.648163
 20
125.837967
 30
0.0
 70
0
  0
VERTEX
  8
0
 10
104.648155
 20
125.837967
 30
0.0
 70
0
  0
SEQEND
  8
0
  0
ARC
  8
0
 62
4
 10
260.925934
 20
116.337967
 30
0.0
 40
9.5
 50
108.4084803259778
 51
71.5915196740222
  0
POLYLINE
  8
0
 62
4
 66
1
 10
0.0
 20
0.0
 30
0.0
 70
2
  0
VERTEX
  8
0
 10
263.925934
 20
125.351845
 30
0.0
 70
0
  0
VERTEX
  8
0
 10
263.925934
 20
128.63797
 30
0.0
 70
0
  0
VERTEX
  8
0
 10
257.925934
 20
128.63797
 30
0.0
 70
0
  0
VERTEX
  8
0
 10
257.925934
 20
125.351845
 30
0.0
 70
0
  0
SEQEND
  8
0
  0
LINE
  8
0
 62
4
 10
104.148155
 20
128.63797
 30
0.0
 11
138.148163
 21
128.63797
 31
0.0
  0
POLYLINE
  8
0
 62
4
 66
1
 10
0.0
 20
0.0
 30
0.0
 70
2
  0
VERTEX
  8
0
 10
133.648163
 20
136.337967
 30
0.0
 70
0
  0
VERTEX
  8
0
 10
133.648163
 20
128.63797
 30
0.0
 70
0
  0
SEQEND
  8
0
  0
POLYLINE
  8
0
 62
4
 66
1
 10
0.0
 20
0.0
 30
0.0
 70
2
  0
VERTEX
  8
0
 10
128.648163
 20
136.337967
 30
0.0
 70
0
  0
VERTEX
  8
0
 10
128.648163
 20
128.63797
 30
0.0
 70
0
  0
SEQEND
  8
0
  0
POLYLINE
  8
0
 62
4
 66
1
 10
0.0
 20
0.0
 30
0.0
 70
2
  0
VERTEX
  8
0
 10
133.21315
 20
136.337967
 30
0.0
 70
0
  0
VERTEX
  8
0
 10
133.21315
 20
128.63797
 30
0.0
 70
0
  0
SEQEND
  8
0
  0
POLYLINE
  8
0
 62
4
 66
1
 10
0.0
 20
0.0
 30
0.0
 70
2
  0
VERTEX
  8
0
 10
129.08316
 20
136.337967
 30
0.0
 70
0
  0
VERTEX
  8
0
 10
129.08316
 20
128.63797
 30
0.0
 70
0
  0
SEQEND
  8
0
  0
POLYLINE
  8
0
 62
4
 66
1
 10
0.0
 20
0.0
 30
0.0
 70
2
  0
VERTEX
  8
0
 10
258.425934
 20
128.63797
 30
0.0
 70
0
  0
VERTEX
  8
0
 10
258.425934
 20
136.181107
 30
0.0
 70
0
  0
SEQEND
  8
0
  0
POLYLINE
  8
0
 62
4
 66
1
 10
0.0
 20
0.0
 30
0.0
 70
2
  0
VERTEX
  8
0
 10
263.425934
 20
128.63797
 30
0.0
 70
0
  0
VERTEX
  8
0
 10
263.425934
 20
136.181107
 30
0.0
 70
0
  0
SEQEND
  8
0
  0
POLYLINE
  8
0
 62
4
 66
1
 10
0.0
 20
0.0
 30
0.0
 70
2
  0
VERTEX
  8
0
 10
258.860931
 20
128.63797
 30
0.0
 70
0
  0
VERTEX
  8
0
 10
258.860931
 20
136.231079
 30
0.0
 70
0
  0
SEQEND
  8
0
  0
POLYLINE
  8
0
 62
4
 66
1
 10
0.0
 20
0.0
 30
0.0
 70
2
  0
VERTEX
  8
0
 10
262.990936
 20
128.63797
 30
0.0
 70
0
  0
VERTEX
  8
0
 10
262.990936
 20
136.231079
 30
0.0
 70
0
  0
SEQEND
  8
0
  0
CIRCLE
  8
0
 62
7
 10
131.148163
 20
116.337967
 30
0.0
 40
2.5
  0
CIRCLE
  8
0
 62
4
 10
131.148163
 20
116.337967
 30
0.0
 40
2.065
  0
POLYLINE
  8
0
 62
4
 66
1
 10
0.0
 20
0.0
 30
0.0
 70
2
  0
VERTEX
  8
0
 10
270.091064
 20
118.837967
 30
0.0
 70
0
  0
VERTEX
  8
0
 10
280.769073
 20
118.837967
 30
0.0
 70
0
  0
SEQEND
  8
0
  0
POLYLINE
  8
0
 62
4
 66
1
 10
0.0
 20
0.0
 30
0.0
 70
2
  0
VERTEX
  8
0
 10
270.091064
 20
113.837967
 30
0.0
 70
0
  0
VERTEX
  8
0
 10
280.769073
 20
113.837967
 30
0.0
 70
0
  0
SEQEND
  8
0
  0
POLYLINE
  8
0
 62
4
 66
1
 10
0.0
 20
0.0
 30
0.0
 70
2
  0
VERTEX
  8
0
 10
270.198792
 20
118.402969
 30
0.0
 70
0
  0
VERTEX
  8
0
 10
280.819031
 20
118.402969
 30
0.0
 70
0
  0
SEQEND
  8
0
  0
POLYLINE
  8
0
 62
4
 66
1
 10
0.0
 20
0.0
 30
0.0
 70
2
  0
VERTEX
  8
0
 10
270.198792
 20
114.272964
 30
0.0
 70
0
  0
VERTEX
  8
0
 10
280.819031
 20
114.272964
 30
0.0
 70
0
  0
SEQEND
  8
0
  0
POLYLINE
  8
0
 62
4
 66
1
 10
0.0
 20
0.0
 30
0.0
 70
2
  0
VERTEX
  8
0
 10
124.148155
 20
96.337967
 30
0.0
 70
0
  0
VERTEX
  8
0
 10
137.148163
 20
96.337967
 30
0.0
 70
0
  0
VERTEX
  8
0
 10
138.148163
 20
97.337967
 30
0.0
 70
0
  0
VERTEX
  8
0
 10
138.148163
 20
135.337967
 30
0.0
 70
0
  0
VERTEX
  8
0
 10
137.148163
 20
136.337967
 30
0.0
 70
0
  0
VERTEX
  8
0
 10
124.148155
 20
136.337967
 30
0.0
 70
0
  0
SEQEND
  8
0
  0
CIRCLE
  8
0
 62
4
 10
260.925934
 20
116.337967
 30
0.0
 40
20.0
  0
ENDSEC
  0
EOF
