  0
SECTION
  2
ENTITIES
  0
ARC
  8
0
 62
4
 10
89.016136
 20
135.314514
 30
0.0
 40
21.625
 50
242.45612487516786
 51
297.54387512483214
  0
ARC
  8
0
 62
4
 10
89.016136
 20
48.314514
 30
0.0
 40
21.625
 50
62.45612487516789
 51
117.54387512483211
  0
ARC
  8
0
 62
4
 10
89.016136
 20
135.314514
 30
0.0
 40
16.0
 50
247.20175187738357
 51
292.7982481226164
  0
ARC
  8
0
 62
4
 10
89.016136
 20
48.314514
 30
0.0
 40
16.0
 50
67.20175187738353
 51
112.79824812261646
  0
LINE
  8
0
 62
4
 10
113.016136
 20
98.314514
 30
0.0
 11
112.516136
 21
97.814514
 31
0.0
  0
LINE
  8
0
 62
4
 10
113.016136
 20
85.314514
 30
0.0
 11
112.516136
 21
85.814514
 31
0.0
  0
LINE
  8
0
 62
4
 10
79.016136
 20
85.314514
 30
0.0
 11
79.516136
 21
85.814514
 31
0.0
  0
POLYLINE
  8
0
 62
4
 66
1
 10
0.0
 20
0.0
 30
0.0
 70
2
  0
VERTEX
  8
0
 10
82.816338
 20
120.564514
 30
0.0
 70
0
  0
VERTEX
  8
0
 10
80.129036
 20
120.564514
 30
0.0
 70
0
  0
VERTEX
  8
0
 10
79.016136
 20
119.451614
 30
0.0
 70
0
  0
VERTEX
  8
0
 10
79.016136
 20
85.314514
 30
0.0
 70
0
  0
SEQEND
  8
0
  0
POLYLINE
  8
0
 62
4
 66
1
 10
0.0
 20
0.0
 30
0.0
 70
2
  0
VERTEX
  8
0
 10
79.016136
 20
85.314514
 30
0.0
 70
0
  0
VERTEX
  8
0
 10
79.016136
 20
64.177414
 30
0.0
 70
0
  0
VERTEX
  8
0
 10
80.129036
 20
63.064514
 30
0.0
 70
0
  0
VERTEX
  8
0
 10
82.816338
 20
63.064514
 30
0.0
 70
0
  0
SEQEND
  8
0
  0
POLYLINE
  8
0
 62
4
 66
1
 10
0.0
 20
0.0
 30
0.0
 70
2
  0
VERTEX
  8
0
 10
79.016136
 20
98.314514
 30
0.0
 70
0
  0
VERTEX
  8
0
 10
79.516136
 20
97.814514
 30
0.0
 70
0
  0
VERTEX
  8
0
 10
79.516136
 20
85.814514
 30
0.0
 70
0
  0
VERTEX
  8
0
 10
112.516136
 20
85.814514
 30
0.0
 70
0
  0
VERTEX
  8
0
 10
112.516136
 20
97.814514
 30
0.0
 70
0
  0
VERTEX
  8
0
 10
79.516136
 20
97.814514
 30
0.0
 70
0
  0
SEQEND
  8
0
  0
POLYLINE
  8
0
 62
4
 66
1
 10
0.0
 20
0.0
 30
0.0
 70
2
  0
VERTEX
  8
0
 10
99.016136
 20
109.314514
 30
0.0
 70
0
  0
VERTEX
  8
0
 10
99.016136
 20
119.451614
 30
0.0
 70
0
  0
VERTEX
  8
0
 10
97.903229
 20
120.564514
 30
0.0
 70
0
  0
VERTEX
  8
0
 10
95.215935
 20
120.564514
 30
0.0
 70
0
  0
SEQEND
  8
0
  0
POLYLINE
  8
0
 62
4
 66
1
 10
0.0
 20
0.0
 30
0.0
 70
2
  0
VERTEX
  8
0
 10
95.215935
 20
63.064514
 30
0.0
 70
0
  0
VERTEX
  8
0
 10
97.903229
 20
63.064514
 30
0.0
 70
0
  0
VERTEX
  8
0
 10
99.016136
 20
64.177414
 30
0.0
 70
0
  0
VERTEX
  8
0
 10
99.016136
 20
74.314514
 30
0.0
 70
0
  0
SEQEND
  8
0
  0
POLYLINE
  8
0
 62
4
 66
1
 10
0.0
 20
0.0
 30
0.0
 70
2
  0
VERTEX
  8
0
 10
99.016136
 20
74.314514
 30
0.0
 70
0
  0
VERTEX
  8
0
 10
112.016136
 20
74.314514
 30
0.0
 70
0
  0
VERTEX
  8
0
 10
113.016136
 20
75.314514
 30
0.0
 70
0
  0
VERTEX
  8
0
 10
113.016136
 20
108.314514
 30
0.0
 70
0
  0
VERTEX
  8
0
 10
112.016136
 20
109.314514
 30
0.0
 70
0
  0
VERTEX
  8
0
 10
99.016136
 20
109.314514
 30
0.0
 70
0
  0
SEQEND
  8
0
  0
ENDSEC
  0
EOF
