  0
SECTION
  2
ENTITIES
  0
ARC
  8
0
 62
4
 10
88.444435
 20
108.166664
 30
0.0
 40
13.5
 50
228.18968248659138
 51
311.81031751340856
  0
ARC
  8
0
 62
4
 10
88.444435
 20
48.166664
 30
0.0
 40
13.5
 50
48.18968248659141
 51
131.8103175134086
  0
ARC
  8
0
 62
4
 10
88.444435
 20
108.166664
 30
0.0
 40
9.0
 50
242.73395372052943
 51
297.2660462794706
  0
ARC
  8
0
 62
4
 10
88.444435
 20
48.166664
 30
0.0
 40
9.0
 50
62.733953720529406
 51
117.26604627947059
  0
LINE
  8
0
 62
4
 10
109.444435
 20
84.666664
 30
0.0
 11
108.944435
 21
84.166664
 31
0.0
  0
LINE
  8
0
 62
4
 10
109.444435
 20
71.666664
 30
0.0
 11
108.944435
 21
72.166664
 31
0.0
  0
LINE
  8
0
 62
4
 10
74.444435
 20
71.666664
 30
0.0
 11
74.944435
 21
72.166664
 31
0.0
  0
POLYLINE
  8
0
 62
4
 66
1
 10
0.0
 20
0.0
 30
0.0
 70
2
  0
VERTEX
  8
0
 10
84.321327
 20
100.166664
 30
0.0
 70
0
  0
VERTEX
  8
0
 10
80.444435
 20
100.166664
 30
0.0
 70
0
  0
VERTEX
  8
0
 10
79.444435
 20
99.166664
 30
0.0
 70
0
  0
VERTEX
  8
0
 10
79.444435
 20
94.166664
 30
0.0
 70
0
  0
VERTEX
  8
0
 10
75.444435
 20
94.166664
 30
0.0
 70
0
  0
VERTEX
  8
0
 10
74.444435
 20
93.166664
 30
0.0
 70
0
  0
VERTEX
  8
0
 10
74.444435
 20
71.666664
 30
0.0
 70
0
  0
SEQEND
  8
0
  0
POLYLINE
  8
0
 62
4
 66
1
 10
0.0
 20
0.0
 30
0.0
 70
2
  0
VERTEX
  8
0
 10
74.444435
 20
71.666664
 30
0.0
 70
0
  0
VERTEX
  8
0
 10
74.444435
 20
63.166664
 30
0.0
 70
0
  0
VERTEX
  8
0
 10
75.444435
 20
62.166664
 30
0.0
 70
0
  0
VERTEX
  8
0
 10
79.444435
 20
62.166664
 30
0.0
 70
0
  0
VERTEX
  8
0
 10
79.444435
 20
57.166664
 30
0.0
 70
0
  0
VERTEX
  8
0
 10
80.444435
 20
56.166664
 30
0.0
 70
0
  0
VERTEX
  8
0
 10
84.321327
 20
56.166664
 30
0.0
 70
0
  0
SEQEND
  8
0
  0
POLYLINE
  8
0
 62
4
 66
1
 10
0.0
 20
0.0
 30
0.0
 70
2
  0
VERTEX
  8
0
 10
74.444435
 20
84.666664
 30
0.0
 70
0
  0
VERTEX
  8
0
 10
74.944435
 20
84.166664
 30
0.0
 70
0
  0
VERTEX
  8
0
 10
74.944435
 20
72.166664
 30
0.0
 70
0
  0
VERTEX
  8
0
 10
108.944435
 20
72.166664
 30
0.0
 70
0
  0
VERTEX
  8
0
 10
108.944435
 20
84.166664
 30
0.0
 70
0
  0
VERTEX
  8
0
 10
74.944435
 20
84.166664
 30
0.0
 70
0
  0
SEQEND
  8
0
  0
POLYLINE
  8
0
 62
4
 66
1
 10
0.0
 20
0.0
 30
0.0
 70
2
  0
VERTEX
  8
0
 10
92.567543
 20
56.166664
 30
0.0
 70
0
  0
VERTEX
  8
0
 10
96.444435
 20
56.166664
 30
0.0
 70
0
  0
VERTEX
  8
0
 10
97.444435
 20
57.166664
 30
0.0
 70
0
  0
VERTEX
  8
0
 10
97.444435
 20
62.166664
 30
0.0
 70
0
  0
SEQEND
  8
0
  0
POLYLINE
  8
0
 62
4
 66
1
 10
0.0
 20
0.0
 30
0.0
 70
2
  0
VERTEX
  8
0
 10
97.444435
 20
94.166664
 30
0.0
 70
0
  0
VERTEX
  8
0
 10
97.444435
 20
99.166664
 30
0.0
 70
0
  0
VERTEX
  8
0
 10
96.444435
 20
100.166664
 30
0.0
 70
0
  0
VERTEX
  8
0
 10
92.567543
 20
100.166664
 30
0.0
 70
0
  0
SEQEND
  8
0
  0
POLYLINE
  8
0
 62
4
 66
1
 10
0.0
 20
0.0
 30
0.0
 70
2
  0
VERTEX
  8
0
 10
97.444435
 20
62.166664
 30
0.0
 70
0
  0
VERTEX
  8
0
 10
108.944435
 20
62.166664
 30
0.0
 70
0
  0
VERTEX
  8
0
 10
109.444435
 20
62.666664
 30
0.0
 70
0
  0
VERTEX
  8
0
 10
109.444435
 20
93.666664
 30
0.0
 70
0
  0
VERTEX
  8
0
 10
108.944435
 20
94.166664
 30
0.0
 70
0
  0
VERTEX
  8
0
 10
97.444435
 20
94.166664
 30
0.0
 70
0
  0
SEQEND
  8
0
  0
ENDSEC
  0
EOF
