  0
SECTION
  2
ENTITIES
  0
ARC
  8
0
 62
7
 10
599.391541
 20
467.311462
 30
0.0
 40
7.50121
 50
10.0
 51
180.0
  0
ARC
  8
0
 62
7
 10
614.166016
 20
469.916626
 30
0.0
 40
7.50121
 50
180.0
 51
10.0
  0
POLYLINE
  8
0
 62
4
 66
1
 10
0.0
 20
0.0
 30
0.0
 70
2
  0
VERTEX
  8
0
 10
321.846771
 20
320.395172
 30
0.0
 70
0
  0
VERTEX
  8
0
 10
320.846771
 20
319.395172
 30
0.0
 70
0
  0
VERTEX
  8
0
 10
320.846771
 20
129.395172
 30
0.0
 70
0
  0
VERTEX
  8
0
 10
321.846771
 20
128.395172
 30
0.0
 70
0
  0
SEQEND
  8
0
  0
POLYLINE
  8
0
 62
4
 66
1
 10
0.0
 20
0.0
 30
0.0
 70
2
  0
VERTEX
  8
0
 10
309.846771
 20
320.395172
 30
0.0
 70
0
  0
VERTEX
  8
0
 10
310.846771
 20
319.395172
 30
0.0
 70
0
  0
VERTEX
  8
0
 10
310.846771
 20
129.395172
 30
0.0
 70
0
  0
VERTEX
  8
0
 10
309.846771
 20
128.395172
 30
0.0
 70
0
  0
SEQEND
  8
0
  0
ARC
  8
0
 62
4
 10
321.846771
 20
404.395172
 30
0.0
 40
37.5
 50
237.769053420128
 51
302.230946579872
  0
ARC
  8
0
 62
4
 10
321.846771
 20
44.395172
 30
0.0
 40
37.5
 50
57.76905342012798
 51
122.23094657987203
  0
ARC
  8
0
 62
4
 10
321.846771
 20
404.395172
 30
0.0
 40
24.0
 50
241.04497578042813
 51
298.95502421957184
  0
ARC
  8
0
 62
4
 10
321.846771
 20
44.395172
 30
0.0
 40
24.0
 50
61.04497578042817
 51
118.95502421957184
  0
ARC
  8
0
 62
4
 10
321.846771
 20
44.395172
 30
0.0
 40
50.0
 50
66.50143388969565
 51
86.56018663762767
  0
ARC
  8
0
 62
4
 10
321.846771
 20
404.395172
 30
0.0
 40
50.0
 50
273.4398133623723
 51
293.4985661103043
  0
ARC
  8
0
 62
4
 10
321.846771
 20
44.395172
 30
0.0
 40
50.0
 50
103.88653868098002
 51
113.49856611030434
  0
ARC
  8
0
 62
4
 10
321.846771
 20
404.395172
 30
0.0
 40
50.0
 50
246.50143388969568
 51
256.11346131901996
  0
LINE
  8
0
 62
4
 10
324.846771
 20
354.48526
 30
0.0
 11
324.846771
 21
94.305084
 31
0.0
  0
LINE
  8
0
 62
4
 10
309.846771
 20
355.856506
 30
0.0
 11
309.846771
 21
92.933823
 31
0.0
  0
POLYLINE
  8
0
 62
4
 66
1
 10
0.0
 20
0.0
 30
0.0
 70
2
  0
VERTEX
  8
0
 10
324.846771
 20
349.395172
 30
0.0
 70
0
  0
VERTEX
  8
0
 10
321.846771
 20
349.395172
 30
0.0
 70
0
  0
VERTEX
  8
0
 10
321.846771
 20
99.395172
 30
0.0
 70
0
  0
VERTEX
  8
0
 10
324.846771
 20
99.395172
 30
0.0
 70
0
  0
SEQEND
  8
0
  0
POLYLINE
  8
0
 62
4
 66
1
 10
0.0
 20
0.0
 30
0.0
 70
2
  0
VERTEX
  8
0
 10
310.227814
 20
383.395172
 30
0.0
 70
0
  0
VERTEX
  8
0
 10
304.846771
 20
383.395172
 30
0.0
 70
0
  0
VERTEX
  8
0
 10
301.846771
 20
380.395172
 30
0.0
 70
0
  0
VERTEX
  8
0
 10
301.846771
 20
90.395172
 30
0.0
 70
0
  0
SEQEND
  8
0
  0
POLYLINE
  8
0
 62
4
 66
1
 10
0.0
 20
0.0
 30
0.0
 70
2
  0
VERTEX
  8
0
 10
333.465729
 20
65.395172
 30
0.0
 70
0
  0
VERTEX
  8
0
 10
338.846771
 20
65.395172
 30
0.0
 70
0
  0
VERTEX
  8
0
 10
341.846771
 20
68.395172
 30
0.0
 70
0
  0
VERTEX
  8
0
 10
341.846771
 20
380.395172
 30
0.0
 70
0
  0
VERTEX
  8
0
 10
338.846771
 20
383.395172
 30
0.0
 70
0
  0
VERTEX
  8
0
 10
333.465729
 20
383.395172
 30
0.0
 70
0
  0
SEQEND
  8
0
  0
POLYLINE
  8
0
 62
4
 66
1
 10
0.0
 20
0.0
 30
0.0
 70
2
  0
VERTEX
  8
0
 10
301.846771
 20
90.395172
 30
0.0
 70
0
  0
VERTEX
  8
0
 10
301.846771
 20
68.395172
 30
0.0
 70
0
  0
VERTEX
  8
0
 10
304.846771
 20
65.395172
 30
0.0
 70
0
  0
VERTEX
  8
0
 10
310.227814
 20
65.395172
 30
0.0
 70
0
  0
SEQEND
  8
0
  0
LINE
  8
0
 62
4
 10
310.846771
 20
319.395172
 30
0.0
 11
320.846771
 21
319.395172
 31
0.0
  0
LINE
  8
0
 62
4
 10
310.846771
 20
129.395172
 30
0.0
 11
320.846771
 21
129.395172
 31
0.0
  0
ENDSEC
  0
EOF
