  0
SECTION
  2
ENTITIES
  0
ARC
  8
0
 62
4
 10
51.30645
 20
76.225807
 30
0.0
 40
12.063
 50
242.8745916606428
 51
297.1254083393572
  0
ARC
  8
0
 62
4
 10
51.30645
 20
30.225807
 30
0.0
 40
12.063
 50
62.874591660642814
 51
117.12540833935721
  0
ARC
  8
0
 62
4
 10
51.30645
 20
76.225807
 30
0.0
 40
9.25
 50
248.81721776002632
 51
291.1827840236062
  0
ARC
  8
0
 62
4
 10
51.30645
 20
30.225807
 30
0.0
 40
9.25
 50
68.81721597639381
 51
111.18278223997366
  0
LINE
  8
0
 62
4
 10
65.80645
 20
57.725807
 30
0.0
 11
65.30645
 21
57.225807
 31
0.0
  0
LINE
  8
0
 62
4
 10
65.80645
 20
48.725807
 30
0.0
 11
65.30645
 21
49.225807
 31
0.0
  0
LINE
  8
0
 62
4
 10
45.80645
 20
48.725807
 30
0.0
 11
46.30645
 21
49.225807
 31
0.0
  0
POLYLINE
  8
0
 62
4
 66
1
 10
0.0
 20
0.0
 30
0.0
 70
2
  0
VERTEX
  8
0
 10
47.964016
 20
67.600807
 30
0.0
 70
0
  0
VERTEX
  8
0
 10
46.451611
 20
67.600807
 30
0.0
 70
0
  0
VERTEX
  8
0
 10
45.80645
 20
66.955643
 30
0.0
 70
0
  0
VERTEX
  8
0
 10
45.80645
 20
48.725807
 30
0.0
 70
0
  0
SEQEND
  8
0
  0
POLYLINE
  8
0
 62
4
 66
1
 10
0.0
 20
0.0
 30
0.0
 70
2
  0
VERTEX
  8
0
 10
45.80645
 20
48.725807
 30
0.0
 70
0
  0
VERTEX
  8
0
 10
45.80645
 20
39.495968
 30
0.0
 70
0
  0
VERTEX
  8
0
 10
46.451611
 20
38.850807
 30
0.0
 70
0
  0
VERTEX
  8
0
 10
47.964016
 20
38.850807
 30
0.0
 70
0
  0
SEQEND
  8
0
  0
POLYLINE
  8
0
 62
4
 66
1
 10
0.0
 20
0.0
 30
0.0
 70
2
  0
VERTEX
  8
0
 10
45.80645
 20
57.725807
 30
0.0
 70
0
  0
VERTEX
  8
0
 10
46.30645
 20
57.225807
 30
0.0
 70
0
  0
VERTEX
  8
0
 10
46.30645
 20
49.225807
 30
0.0
 70
0
  0
VERTEX
  8
0
 10
65.30645
 20
49.225807
 30
0.0
 70
0
  0
VERTEX
  8
0
 10
65.30645
 20
57.225807
 30
0.0
 70
0
  0
VERTEX
  8
0
 10
46.30645
 20
57.225807
 30
0.0
 70
0
  0
SEQEND
  8
0
  0
POLYLINE
  8
0
 62
4
 66
1
 10
0.0
 20
0.0
 30
0.0
 70
2
  0
VERTEX
  8
0
 10
63.80645
 20
63.225807
 30
0.0
 70
0
  0
VERTEX
  8
0
 10
63.80645
 20
57.225807
 30
0.0
 70
0
  0
SEQEND
  8
0
  0
POLYLINE
  8
0
 62
4
 66
1
 10
0.0
 20
0.0
 30
0.0
 70
2
  0
VERTEX
  8
0
 10
58.80645
 20
63.225807
 30
0.0
 70
0
  0
VERTEX
  8
0
 10
58.80645
 20
57.225807
 30
0.0
 70
0
  0
SEQEND
  8
0
  0
POLYLINE
  8
0
 62
4
 66
1
 10
0.0
 20
0.0
 30
0.0
 70
2
  0
VERTEX
  8
0
 10
63.371452
 20
63.225807
 30
0.0
 70
0
  0
VERTEX
  8
0
 10
63.371452
 20
57.225807
 30
0.0
 70
0
  0
SEQEND
  8
0
  0
POLYLINE
  8
0
 62
4
 66
1
 10
0.0
 20
0.0
 30
0.0
 70
2
  0
VERTEX
  8
0
 10
59.241447
 20
63.225807
 30
0.0
 70
0
  0
VERTEX
  8
0
 10
59.241447
 20
57.225807
 30
0.0
 70
0
  0
SEQEND
  8
0
  0
POLYLINE
  8
0
 62
4
 66
1
 10
0.0
 20
0.0
 30
0.0
 70
2
  0
VERTEX
  8
0
 10
118.467743
 20
56.348305
 30
0.0
 70
0
  0
VERTEX
  8
0
 10
118.467743
 20
62.908264
 30
0.0
 70
0
  0
SEQEND
  8
0
  0
POLYLINE
  8
0
 62
4
 66
1
 10
0.0
 20
0.0
 30
0.0
 70
2
  0
VERTEX
  8
0
 10
123.467743
 20
56.348305
 30
0.0
 70
0
  0
VERTEX
  8
0
 10
123.467743
 20
62.908264
 30
0.0
 70
0
  0
SEQEND
  8
0
  0
POLYLINE
  8
0
 62
4
 66
1
 10
0.0
 20
0.0
 30
0.0
 70
2
  0
VERTEX
  8
0
 10
118.90274
 20
56.651558
 30
0.0
 70
0
  0
VERTEX
  8
0
 10
118.90274
 20
63.010273
 30
0.0
 70
0
  0
SEQEND
  8
0
  0
POLYLINE
  8
0
 62
4
 66
1
 10
0.0
 20
0.0
 30
0.0
 70
2
  0
VERTEX
  8
0
 10
123.032745
 20
56.651558
 30
0.0
 70
0
  0
VERTEX
  8
0
 10
123.032745
 20
63.010273
 30
0.0
 70
0
  0
SEQEND
  8
0
  0
POLYLINE
  8
0
 62
4
 66
1
 10
0.0
 20
0.0
 30
0.0
 70
2
  0
VERTEX
  8
0
 10
56.80645
 20
63.225807
 30
0.0
 70
0
  0
VERTEX
  8
0
 10
56.80645
 20
66.955643
 30
0.0
 70
0
  0
VERTEX
  8
0
 10
56.161289
 20
67.600807
 30
0.0
 70
0
  0
VERTEX
  8
0
 10
54.648888
 20
67.600807
 30
0.0
 70
0
  0
SEQEND
  8
0
  0
POLYLINE
  8
0
 62
4
 66
1
 10
0.0
 20
0.0
 30
0.0
 70
2
  0
VERTEX
  8
0
 10
54.648888
 20
38.850807
 30
0.0
 70
0
  0
VERTEX
  8
0
 10
56.161289
 20
38.850807
 30
0.0
 70
0
  0
VERTEX
  8
0
 10
56.80645
 20
39.495968
 30
0.0
 70
0
  0
VERTEX
  8
0
 10
56.80645
 20
43.225807
 30
0.0
 70
0
  0
SEQEND
  8
0
  0
POLYLINE
  8
0
 62
4
 66
1
 10
0.0
 20
0.0
 30
0.0
 70
2
  0
VERTEX
  8
0
 10
56.80645
 20
43.225807
 30
0.0
 70
0
  0
VERTEX
  8
0
 10
65.30645
 20
43.225807
 30
0.0
 70
0
  0
VERTEX
  8
0
 10
65.80645
 20
43.725807
 30
0.0
 70
0
  0
VERTEX
  8
0
 10
65.80645
 20
62.725807
 30
0.0
 70
0
  0
VERTEX
  8
0
 10
65.30645
 20
63.225807
 30
0.0
 70
0
  0
VERTEX
  8
0
 10
56.80645
 20
63.225807
 30
0.0
 70
0
  0
SEQEND
  8
0
  0
CIRCLE
  8
0
 62
4
 10
120.967743
 20
53.225807
 30
0.0
 40
4.0
  0
CIRCLE
  8
0
 62
4
 10
120.967743
 20
53.225807
 30
0.0
 40
10.0
  0
ENDSEC
  0
EOF
