  0
SECTION
  2
ENTITIES
  0
ARC
  8
0
 62
4
 10
62.758068
 20
102.032265
 30
0.0
 40
12.063
 50
242.8745888209101
 51
297.1254111790899
  0
ARC
  8
0
 62
4
 10
62.758068
 20
31.032265
 30
0.0
 40
12.063
 50
62.874588820910105
 51
117.1254111790899
  0
ARC
  8
0
 62
4
 10
62.758068
 20
102.032265
 30
0.0
 40
9.25
 50
248.81721776002632
 51
291.1827840236062
  0
ARC
  8
0
 62
4
 10
62.758068
 20
31.032265
 30
0.0
 40
9.25
 50
68.81721597639381
 51
111.18278223997366
  0
LINE
  8
0
 62
4
 10
77.258072
 20
71.032265
 30
0.0
 11
76.758072
 21
70.532265
 31
0.0
  0
LINE
  8
0
 62
4
 10
77.258072
 20
62.032265
 30
0.0
 11
76.758072
 21
62.532265
 31
0.0
  0
LINE
  8
0
 62
4
 10
57.258068
 20
62.032265
 30
0.0
 11
57.758068
 21
62.532265
 31
0.0
  0
POLYLINE
  8
0
 62
4
 66
1
 10
0.0
 20
0.0
 30
0.0
 70
2
  0
VERTEX
  8
0
 10
59.415634
 20
93.407265
 30
0.0
 70
0
  0
VERTEX
  8
0
 10
58.064518
 20
93.407265
 30
0.0
 70
0
  0
VERTEX
  8
0
 10
57.258068
 20
92.600815
 30
0.0
 70
0
  0
VERTEX
  8
0
 10
57.258068
 20
62.032265
 30
0.0
 70
0
  0
SEQEND
  8
0
  0
POLYLINE
  8
0
 62
4
 66
1
 10
0.0
 20
0.0
 30
0.0
 70
2
  0
VERTEX
  8
0
 10
57.258068
 20
62.032265
 30
0.0
 70
0
  0
VERTEX
  8
0
 10
57.258068
 20
40.463715
 30
0.0
 70
0
  0
VERTEX
  8
0
 10
58.064518
 20
39.657265
 30
0.0
 70
0
  0
VERTEX
  8
0
 10
59.415634
 20
39.657265
 30
0.0
 70
0
  0
SEQEND
  8
0
  0
POLYLINE
  8
0
 62
4
 66
1
 10
0.0
 20
0.0
 30
0.0
 70
2
  0
VERTEX
  8
0
 10
57.258068
 20
71.032265
 30
0.0
 70
0
  0
VERTEX
  8
0
 10
57.758068
 20
70.532265
 30
0.0
 70
0
  0
VERTEX
  8
0
 10
57.758068
 20
62.532265
 30
0.0
 70
0
  0
VERTEX
  8
0
 10
76.758072
 20
62.532265
 30
0.0
 70
0
  0
VERTEX
  8
0
 10
76.758072
 20
70.532265
 30
0.0
 70
0
  0
VERTEX
  8
0
 10
57.758068
 20
70.532265
 30
0.0
 70
0
  0
SEQEND
  8
0
  0
POLYLINE
  8
0
 62
4
 66
1
 10
0.0
 20
0.0
 30
0.0
 70
2
  0
VERTEX
  8
0
 10
75.258072
 20
81.532265
 30
0.0
 70
0
  0
VERTEX
  8
0
 10
75.258072
 20
70.532265
 30
0.0
 70
0
  0
SEQEND
  8
0
  0
POLYLINE
  8
0
 62
4
 66
1
 10
0.0
 20
0.0
 30
0.0
 70
2
  0
VERTEX
  8
0
 10
70.258072
 20
81.532265
 30
0.0
 70
0
  0
VERTEX
  8
0
 10
70.258072
 20
70.532265
 30
0.0
 70
0
  0
SEQEND
  8
0
  0
POLYLINE
  8
0
 62
4
 66
1
 10
0.0
 20
0.0
 30
0.0
 70
2
  0
VERTEX
  8
0
 10
74.823067
 20
81.532265
 30
0.0
 70
0
  0
VERTEX
  8
0
 10
74.823067
 20
70.532265
 30
0.0
 70
0
  0
SEQEND
  8
0
  0
POLYLINE
  8
0
 62
4
 66
1
 10
0.0
 20
0.0
 30
0.0
 70
2
  0
VERTEX
  8
0
 10
70.693069
 20
81.532265
 30
0.0
 70
0
  0
VERTEX
  8
0
 10
70.693069
 20
70.532265
 30
0.0
 70
0
  0
SEQEND
  8
0
  0
POLYLINE
  8
0
 62
4
 66
1
 10
0.0
 20
0.0
 30
0.0
 70
2
  0
VERTEX
  8
0
 10
146.209686
 20
69.654762
 30
0.0
 70
0
  0
VERTEX
  8
0
 10
146.209686
 20
81.322464
 30
0.0
 70
0
  0
SEQEND
  8
0
  0
POLYLINE
  8
0
 62
4
 66
1
 10
0.0
 20
0.0
 30
0.0
 70
2
  0
VERTEX
  8
0
 10
151.209686
 20
69.654762
 30
0.0
 70
0
  0
VERTEX
  8
0
 10
151.209686
 20
81.322464
 30
0.0
 70
0
  0
SEQEND
  8
0
  0
POLYLINE
  8
0
 62
4
 66
1
 10
0.0
 20
0.0
 30
0.0
 70
2
  0
VERTEX
  8
0
 10
146.644684
 20
69.958015
 30
0.0
 70
0
  0
VERTEX
  8
0
 10
146.644684
 20
81.389442
 30
0.0
 70
0
  0
SEQEND
  8
0
  0
POLYLINE
  8
0
 62
4
 66
1
 10
0.0
 20
0.0
 30
0.0
 70
2
  0
VERTEX
  8
0
 10
150.774689
 20
69.958015
 30
0.0
 70
0
  0
VERTEX
  8
0
 10
150.774689
 20
81.389442
 30
0.0
 70
0
  0
SEQEND
  8
0
  0
POLYLINE
  8
0
 62
4
 66
1
 10
0.0
 20
0.0
 30
0.0
 70
2
  0
VERTEX
  8
0
 10
68.258072
 20
81.532265
 30
0.0
 70
0
  0
VERTEX
  8
0
 10
68.258072
 20
92.600815
 30
0.0
 70
0
  0
VERTEX
  8
0
 10
67.451614
 20
93.407265
 30
0.0
 70
0
  0
VERTEX
  8
0
 10
66.100502
 20
93.407265
 30
0.0
 70
0
  0
SEQEND
  8
0
  0
POLYLINE
  8
0
 62
4
 66
1
 10
0.0
 20
0.0
 30
0.0
 70
2
  0
VERTEX
  8
0
 10
66.100502
 20
39.657265
 30
0.0
 70
0
  0
VERTEX
  8
0
 10
67.451614
 20
39.657265
 30
0.0
 70
0
  0
VERTEX
  8
0
 10
68.258072
 20
40.463715
 30
0.0
 70
0
  0
VERTEX
  8
0
 10
68.258072
 20
51.532265
 30
0.0
 70
0
  0
SEQEND
  8
0
  0
POLYLINE
  8
0
 62
4
 66
1
 10
0.0
 20
0.0
 30
0.0
 70
2
  0
VERTEX
  8
0
 10
68.258072
 20
51.532265
 30
0.0
 70
0
  0
VERTEX
  8
0
 10
76.758072
 20
51.532265
 30
0.0
 70
0
  0
VERTEX
  8
0
 10
77.258072
 20
52.032265
 30
0.0
 70
0
  0
VERTEX
  8
0
 10
77.258072
 20
81.032265
 30
0.0
 70
0
  0
VERTEX
  8
0
 10
76.758072
 20
81.532265
 30
0.0
 70
0
  0
VERTEX
  8
0
 10
68.258072
 20
81.532265
 30
0.0
 70
0
  0
SEQEND
  8
0
  0
CIRCLE
  8
0
 62
4
 10
148.709686
 20
66.532265
 30
0.0
 40
4.0
  0
CIRCLE
  8
0
 62
4
 10
148.709686
 20
66.532265
 30
0.0
 40
15.0
  0
ENDSEC
  0
EOF
