  0
SECTION
  2
ENTITIES
  0
LINE
  8
0
 62
4
 10
15.816326
 20
21.084185
 30
0.0
 11
18.816326
 21
21.084185
 31
0.0
  0
LINE
  8
0
 62
4
 10
15.816326
 20
12.334185
 30
0.0
 11
18.816326
 21
12.334185
 31
0.0
  0
LINE
  8
0
 62
4
 10
29.816326
 20
18.509184
 30
0.0
 11
29.516327
 21
18.209185
 31
0.0
  0
LINE
  8
0
 62
4
 10
29.816326
 20
14.909184
 30
0.0
 11
29.516327
 21
15.209185
 31
0.0
  0
LINE
  8
0
 62
4
 10
15.816326
 20
14.909184
 30
0.0
 11
16.116325
 21
15.209185
 31
0.0
  0
POLYLINE
  8
0
 62
4
 66
1
 10
0.0
 20
0.0
 30
0.0
 70
2
  0
VERTEX
  8
0
 10
18.816326
 20
22.209185
 30
0.0
 70
0
  0
VERTEX
  8
0
 10
18.816326
 20
22.209185
 30
0.0
 70
0
  0
VERTEX
  8
0
 10
16.116325
 20
22.209185
 30
0.0
 70
0
  0
VERTEX
  8
0
 10
15.816326
 20
21.909184
 30
0.0
 70
0
  0
VERTEX
  8
0
 10
15.816326
 20
14.909184
 30
0.0
 70
0
  0
SEQEND
  8
0
  0
POLYLINE
  8
0
 62
4
 66
1
 10
0.0
 20
0.0
 30
0.0
 70
2
  0
VERTEX
  8
0
 10
15.816326
 20
14.909184
 30
0.0
 70
0
  0
VERTEX
  8
0
 10
15.816326
 20
11.509185
 30
0.0
 70
0
  0
VERTEX
  8
0
 10
16.116325
 20
11.209185
 30
0.0
 70
0
  0
VERTEX
  8
0
 10
18.816326
 20
11.209185
 30
0.0
 70
0
  0
VERTEX
  8
0
 10
18.816326
 20
11.209185
 30
0.0
 70
0
  0
VERTEX
  8
0
 10
18.816326
 20
11.209185
 30
0.0
 70
0
  0
VERTEX
  8
0
 10
29.516327
 20
11.209185
 30
0.0
 70
0
  0
VERTEX
  8
0
 10
29.816326
 20
11.509185
 30
0.0
 70
0
  0
VERTEX
  8
0
 10
29.816326
 20
21.909184
 30
0.0
 70
0
  0
VERTEX
  8
0
 10
29.516327
 20
22.209185
 30
0.0
 70
0
  0
VERTEX
  8
0
 10
18.816326
 20
22.209185
 30
0.0
 70
0
  0
VERTEX
  8
0
 10
18.816326
 20
22.209185
 30
0.0
 70
0
  0
SEQEND
  8
0
  0
POLYLINE
  8
0
 62
4
 66
1
 10
0.0
 20
0.0
 30
0.0
 70
2
  0
VERTEX
  8
0
 10
15.816326
 20
18.509184
 30
0.0
 70
0
  0
VERTEX
  8
0
 10
16.116325
 20
18.209185
 30
0.0
 70
0
  0
VERTEX
  8
0
 10
16.116325
 20
15.209185
 30
0.0
 70
0
  0
VERTEX
  8
0
 10
29.516327
 20
15.209185
 30
0.0
 70
0
  0
VERTEX
  8
0
 10
29.516327
 20
18.209185
 30
0.0
 70
0
  0
VERTEX
  8
0
 10
16.116325
 20
18.209185
 30
0.0
 70
0
  0
SEQEND
  8
0
  0
ARC
  8
0
 62
4
 10
18.816326
 20
-7.665815
 30
0.0
 40
20.0
 50
70.69116924575835
 51
90.0
  0
ARC
  8
0
 62
4
 10
18.816326
 20
41.084183
 30
0.0
 40
20.0
 50
270.0
 51
289.3088307542416
  0
POLYLINE
  8
0
 62
4
 66
1
 10
0.0
 20
0.0
 30
0.0
 70
2
  0
VERTEX
  8
0
 10
28.816326
 20
22.209185
 30
0.0
 70
0
  0
VERTEX
  8
0
 10
28.816326
 20
18.209185
 30
0.0
 70
0
  0
SEQEND
  8
0
  0
POLYLINE
  8
0
 62
4
 66
1
 10
0.0
 20
0.0
 30
0.0
 70
2
  0
VERTEX
  8
0
 10
25.816326
 20
22.209185
 30
0.0
 70
0
  0
VERTEX
  8
0
 10
25.816326
 20
18.209185
 30
0.0
 70
0
  0
SEQEND
  8
0
  0
POLYLINE
  8
0
 62
4
 66
1
 10
0.0
 20
0.0
 30
0.0
 70
2
  0
VERTEX
  8
0
 10
28.546326
 20
22.209185
 30
0.0
 70
0
  0
VERTEX
  8
0
 10
28.546326
 20
18.209185
 30
0.0
 70
0
  0
SEQEND
  8
0
  0
POLYLINE
  8
0
 62
4
 66
1
 10
0.0
 20
0.0
 30
0.0
 70
2
  0
VERTEX
  8
0
 10
26.086327
 20
22.209185
 30
0.0
 70
0
  0
VERTEX
  8
0
 10
26.086327
 20
18.209185
 30
0.0
 70
0
  0
SEQEND
  8
0
  0
POLYLINE
  8
0
 62
4
 66
1
 10
0.0
 20
0.0
 30
0.0
 70
2
  0
VERTEX
  8
0
 10
47.846939
 20
16.709185
 30
0.0
 70
0
  0
VERTEX
  8
0
 10
47.846939
 20
22.000687
 30
0.0
 70
0
  0
SEQEND
  8
0
  0
POLYLINE
  8
0
 62
4
 66
1
 10
0.0
 20
0.0
 30
0.0
 70
2
  0
VERTEX
  8
0
 10
50.846939
 20
16.709185
 30
0.0
 70
0
  0
VERTEX
  8
0
 10
50.846939
 20
22.000687
 30
0.0
 70
0
  0
SEQEND
  8
0
  0
POLYLINE
  8
0
 62
4
 66
1
 10
0.0
 20
0.0
 30
0.0
 70
2
  0
VERTEX
  8
0
 10
48.11694
 20
17.56773
 30
0.0
 70
0
  0
VERTEX
  8
0
 10
48.11694
 20
22.069885
 30
0.0
 70
0
  0
SEQEND
  8
0
  0
POLYLINE
  8
0
 62
4
 66
1
 10
0.0
 20
0.0
 30
0.0
 70
2
  0
VERTEX
  8
0
 10
50.576939
 20
17.56773
 30
0.0
 70
0
  0
VERTEX
  8
0
 10
50.576939
 20
22.069885
 30
0.0
 70
0
  0
SEQEND
  8
0
  0
CIRCLE
  8
0
 62
4
 10
49.346939
 20
16.709185
 30
0.0
 40
1.5
  0
CIRCLE
  8
0
 62
4
 10
49.346939
 20
16.709185
 30
0.0
 40
5.5
  0
ENDSEC
  0
EOF
