  0
SECTION
  2
ENTITIES
  0
LINE
  8
0
 62
4
 10
45.782612
 20
54.940216
 30
0.0
 11
48.782612
 21
54.940216
 31
0.0
  0
LINE
  8
0
 62
4
 10
45.782612
 20
37.190216
 30
0.0
 11
48.782612
 21
37.190216
 31
0.0
  0
LINE
  8
0
 62
4
 10
55.482613
 20
44.065216
 30
0.0
 11
55.782612
 21
43.765217
 31
0.0
  0
LINE
  8
0
 62
4
 10
55.482613
 20
48.065216
 30
0.0
 11
55.782612
 21
48.365215
 31
0.0
  0
LINE
  8
0
 62
4
 10
46.082611
 20
48.065216
 30
0.0
 11
46.082611
 21
44.065216
 31
0.0
  0
POLYLINE
  8
0
 62
4
 66
1
 10
0.0
 20
0.0
 30
0.0
 70
2
  0
VERTEX
  8
0
 10
45.782612
 20
43.765217
 30
0.0
 70
0
  0
VERTEX
  8
0
 10
46.082611
 20
44.065216
 30
0.0
 70
0
  0
VERTEX
  8
0
 10
55.482613
 20
44.065216
 30
0.0
 70
0
  0
VERTEX
  8
0
 10
55.482613
 20
48.065216
 30
0.0
 70
0
  0
VERTEX
  8
0
 10
46.082611
 20
48.065216
 30
0.0
 70
0
  0
VERTEX
  8
0
 10
45.782612
 20
48.365215
 30
0.0
 70
0
  0
SEQEND
  8
0
  0
ARC
  8
0
 62
4
 10
49.182613
 20
54.465218
 30
0.0
 40
0.4
 50
180.0
 51
270.0
  0
ARC
  8
0
 62
4
 10
49.182613
 20
37.665215
 30
0.0
 40
0.4
 50
90.0
 51
180.0
  0
POLYLINE
  8
0
 62
4
 66
1
 10
0.0
 20
0.0
 30
0.0
 70
2
  0
VERTEX
  8
0
 10
53.782612
 20
54.065216
 30
0.0
 70
0
  0
VERTEX
  8
0
 10
53.782612
 20
48.065216
 30
0.0
 70
0
  0
SEQEND
  8
0
  0
POLYLINE
  8
0
 62
4
 66
1
 10
0.0
 20
0.0
 30
0.0
 70
2
  0
VERTEX
  8
0
 10
50.782612
 20
54.065216
 30
0.0
 70
0
  0
VERTEX
  8
0
 10
50.782612
 20
48.065216
 30
0.0
 70
0
  0
SEQEND
  8
0
  0
POLYLINE
  8
0
 62
4
 66
1
 10
0.0
 20
0.0
 30
0.0
 70
2
  0
VERTEX
  8
0
 10
53.512611
 20
54.065216
 30
0.0
 70
0
  0
VERTEX
  8
0
 10
53.512611
 20
48.065216
 30
0.0
 70
0
  0
SEQEND
  8
0
  0
POLYLINE
  8
0
 62
4
 66
1
 10
0.0
 20
0.0
 30
0.0
 70
2
  0
VERTEX
  8
0
 10
51.052612
 20
54.065216
 30
0.0
 70
0
  0
VERTEX
  8
0
 10
51.052612
 20
48.065216
 30
0.0
 70
0
  0
SEQEND
  8
0
  0
POLYLINE
  8
0
 62
4
 66
1
 10
0.0
 20
0.0
 30
0.0
 70
2
  0
VERTEX
  8
0
 10
106.369568
 20
47.388092
 30
0.0
 70
0
  0
VERTEX
  8
0
 10
106.369568
 20
53.923332
 30
0.0
 70
0
  0
SEQEND
  8
0
  0
POLYLINE
  8
0
 62
4
 66
1
 10
0.0
 20
0.0
 30
0.0
 70
2
  0
VERTEX
  8
0
 10
109.369568
 20
47.388092
 30
0.0
 70
0
  0
VERTEX
  8
0
 10
109.369568
 20
53.923332
 30
0.0
 70
0
  0
SEQEND
  8
0
  0
POLYLINE
  8
0
 62
4
 66
1
 10
0.0
 20
0.0
 30
0.0
 70
2
  0
VERTEX
  8
0
 10
106.639572
 20
47.642269
 30
0.0
 70
0
  0
VERTEX
  8
0
 10
106.639572
 20
53.970093
 30
0.0
 70
0
  0
SEQEND
  8
0
  0
POLYLINE
  8
0
 62
4
 66
1
 10
0.0
 20
0.0
 30
0.0
 70
2
  0
VERTEX
  8
0
 10
109.099564
 20
47.642269
 30
0.0
 70
0
  0
VERTEX
  8
0
 10
109.099564
 20
53.970093
 30
0.0
 70
0
  0
SEQEND
  8
0
  0
POLYLINE
  8
0
 62
4
 66
1
 10
0.0
 20
0.0
 30
0.0
 70
2
  0
VERTEX
  8
0
 10
45.782612
 20
43.765217
 30
0.0
 70
0
  0
VERTEX
  8
0
 10
45.782612
 20
36.365215
 30
0.0
 70
0
  0
VERTEX
  8
0
 10
46.082611
 20
36.065216
 30
0.0
 70
0
  0
VERTEX
  8
0
 10
48.482613
 20
36.065216
 30
0.0
 70
0
  0
VERTEX
  8
0
 10
48.782612
 20
36.365215
 30
0.0
 70
0
  0
VERTEX
  8
0
 10
48.782612
 20
37.665215
 30
0.0
 70
0
  0
SEQEND
  8
0
  0
POLYLINE
  8
0
 62
4
 66
1
 10
0.0
 20
0.0
 30
0.0
 70
2
  0
VERTEX
  8
0
 10
49.182613
 20
38.065216
 30
0.0
 70
0
  0
VERTEX
  8
0
 10
55.482613
 20
38.065216
 30
0.0
 70
0
  0
VERTEX
  8
0
 10
55.782612
 20
38.365215
 30
0.0
 70
0
  0
VERTEX
  8
0
 10
55.782612
 20
53.765217
 30
0.0
 70
0
  0
VERTEX
  8
0
 10
55.482613
 20
54.065216
 30
0.0
 70
0
  0
VERTEX
  8
0
 10
49.182613
 20
54.065216
 30
0.0
 70
0
  0
SEQEND
  8
0
  0
POLYLINE
  8
0
 62
4
 66
1
 10
0.0
 20
0.0
 30
0.0
 70
2
  0
VERTEX
  8
0
 10
48.782612
 20
54.465218
 30
0.0
 70
0
  0
VERTEX
  8
0
 10
48.782612
 20
55.765217
 30
0.0
 70
0
  0
VERTEX
  8
0
 10
48.482613
 20
56.065216
 30
0.0
 70
0
  0
VERTEX
  8
0
 10
46.082611
 20
56.065216
 30
0.0
 70
0
  0
VERTEX
  8
0
 10
45.782612
 20
55.765217
 30
0.0
 70
0
  0
VERTEX
  8
0
 10
45.782612
 20
43.765217
 30
0.0
 70
0
  0
SEQEND
  8
0
  0
CIRCLE
  8
0
 62
4
 10
107.869568
 20
46.065216
 30
0.0
 40
2.0
  0
CIRCLE
  8
0
 62
4
 10
107.869568
 20
46.065216
 30
0.0
 40
8.0
  0
ENDSEC
  0
EOF
