  0
SECTION
  2
ENTITIES
  0
ARC
  8
0
 62
4
 10
128.0
 20
191.75
 30
0.0
 40
9.25
 50
237.27956005576118
 51
302.7204399442388
  0
ARC
  8
0
 62
4
 10
128.0
 20
55.75
 30
0.0
 40
9.25
 50
57.27956005576116
 51
122.72043994423883
  0
ARC
  8
0
 62
4
 10
128.0
 20
191.75
 30
0.0
 40
7.0
 50
248.2132119154777
 51
291.7867899663091
  0
ARC
  8
0
 62
4
 10
128.0
 20
55.75
 30
0.0
 40
7.0
 50
68.21321003369091
 51
111.78678808452231
  0
LINE
  8
0
 62
4
 10
143.0
 20
133.25
 30
0.0
 11
142.5
 21
132.75
 31
0.0
  0
LINE
  8
0
 62
4
 10
143.0
 20
114.25
 30
0.0
 11
142.5
 21
114.75
 31
0.0
  0
LINE
  8
0
 62
4
 10
123.0
 20
114.25
 30
0.0
 11
123.5
 21
114.75
 31
0.0
  0
POLYLINE
  8
0
 62
4
 66
1
 10
0.0
 20
0.0
 30
0.0
 70
2
  0
VERTEX
  8
0
 10
125.401924
 20
185.25
 30
0.0
 70
0
  0
VERTEX
  8
0
 10
124.5
 20
185.25
 30
0.0
 70
0
  0
VERTEX
  8
0
 10
123.0
 20
183.75
 30
0.0
 70
0
  0
VERTEX
  8
0
 10
123.0
 20
114.25
 30
0.0
 70
0
  0
SEQEND
  8
0
  0
POLYLINE
  8
0
 62
4
 66
1
 10
0.0
 20
0.0
 30
0.0
 70
2
  0
VERTEX
  8
0
 10
123.0
 20
114.25
 30
0.0
 70
0
  0
VERTEX
  8
0
 10
123.0
 20
63.75
 30
0.0
 70
0
  0
VERTEX
  8
0
 10
124.5
 20
62.25
 30
0.0
 70
0
  0
VERTEX
  8
0
 10
125.401924
 20
62.25
 30
0.0
 70
0
  0
SEQEND
  8
0
  0
POLYLINE
  8
0
 62
4
 66
1
 10
0.0
 20
0.0
 30
0.0
 70
2
  0
VERTEX
  8
0
 10
123.0
 20
133.25
 30
0.0
 70
0
  0
VERTEX
  8
0
 10
123.5
 20
132.75
 30
0.0
 70
0
  0
VERTEX
  8
0
 10
123.5
 20
114.75
 30
0.0
 70
0
  0
VERTEX
  8
0
 10
142.5
 20
114.75
 30
0.0
 70
0
  0
VERTEX
  8
0
 10
142.5
 20
132.75
 30
0.0
 70
0
  0
VERTEX
  8
0
 10
123.5
 20
132.75
 30
0.0
 70
0
  0
SEQEND
  8
0
  0
ARC
  8
0
 62
4
 10
268.0
 20
123.75
 30
0.0
 40
9.0
 50
109.47122094265586
 51
70.52877905734415
  0
POLYLINE
  8
0
 62
4
 66
1
 10
0.0
 20
0.0
 30
0.0
 70
2
  0
VERTEX
  8
0
 10
271.0
 20
132.235275
 30
0.0
 70
0
  0
VERTEX
  8
0
 10
271.0
 20
135.550003
 30
0.0
 70
0
  0
VERTEX
  8
0
 10
265.0
 20
135.550003
 30
0.0
 70
0
  0
VERTEX
  8
0
 10
265.0
 20
132.235275
 30
0.0
 70
0
  0
SEQEND
  8
0
  0
LINE
  8
0
 62
4
 10
123.0
 20
135.550003
 30
0.0
 11
143.0
 21
135.550003
 31
0.0
  0
POLYLINE
  8
0
 62
4
 66
1
 10
0.0
 20
0.0
 30
0.0
 70
2
  0
VERTEX
  8
0
 10
140.5
 20
143.75
 30
0.0
 70
0
  0
VERTEX
  8
0
 10
140.5
 20
135.550003
 30
0.0
 70
0
  0
SEQEND
  8
0
  0
POLYLINE
  8
0
 62
4
 66
1
 10
0.0
 20
0.0
 30
0.0
 70
2
  0
VERTEX
  8
0
 10
135.5
 20
143.75
 30
0.0
 70
0
  0
VERTEX
  8
0
 10
135.5
 20
135.550003
 30
0.0
 70
0
  0
SEQEND
  8
0
  0
POLYLINE
  8
0
 62
4
 66
1
 10
0.0
 20
0.0
 30
0.0
 70
2
  0
VERTEX
  8
0
 10
140.065002
 20
143.75
 30
0.0
 70
0
  0
VERTEX
  8
0
 10
140.065002
 20
135.550003
 30
0.0
 70
0
  0
SEQEND
  8
0
  0
POLYLINE
  8
0
 62
4
 66
1
 10
0.0
 20
0.0
 30
0.0
 70
2
  0
VERTEX
  8
0
 10
135.934998
 20
143.75
 30
0.0
 70
0
  0
VERTEX
  8
0
 10
135.934998
 20
135.550003
 30
0.0
 70
0
  0
SEQEND
  8
0
  0
POLYLINE
  8
0
 62
4
 66
1
 10
0.0
 20
0.0
 30
0.0
 70
2
  0
VERTEX
  8
0
 10
265.5
 20
135.550003
 30
0.0
 70
0
  0
VERTEX
  8
0
 10
265.5
 20
143.59314
 30
0.0
 70
0
  0
SEQEND
  8
0
  0
POLYLINE
  8
0
 62
4
 66
1
 10
0.0
 20
0.0
 30
0.0
 70
2
  0
VERTEX
  8
0
 10
270.5
 20
135.550003
 30
0.0
 70
0
  0
VERTEX
  8
0
 10
270.5
 20
143.59314
 30
0.0
 70
0
  0
SEQEND
  8
0
  0
POLYLINE
  8
0
 62
4
 66
1
 10
0.0
 20
0.0
 30
0.0
 70
2
  0
VERTEX
  8
0
 10
265.934998
 20
135.550003
 30
0.0
 70
0
  0
VERTEX
  8
0
 10
265.934998
 20
143.643112
 30
0.0
 70
0
  0
SEQEND
  8
0
  0
POLYLINE
  8
0
 62
4
 66
1
 10
0.0
 20
0.0
 30
0.0
 70
2
  0
VERTEX
  8
0
 10
270.065002
 20
135.550003
 30
0.0
 70
0
  0
VERTEX
  8
0
 10
270.065002
 20
143.643112
 30
0.0
 70
0
  0
SEQEND
  8
0
  0
CIRCLE
  8
0
 62
7
 10
138.0
 20
123.75
 30
0.0
 40
2.5
  0
CIRCLE
  8
0
 62
4
 10
138.0
 20
123.75
 30
0.0
 40
2.065
  0
POLYLINE
  8
0
 62
4
 66
1
 10
0.0
 20
0.0
 30
0.0
 70
2
  0
VERTEX
  8
0
 10
276.645813
 20
126.25
 30
0.0
 70
0
  0
VERTEX
  8
0
 10
287.84314
 20
126.25
 30
0.0
 70
0
  0
SEQEND
  8
0
  0
POLYLINE
  8
0
 62
4
 66
1
 10
0.0
 20
0.0
 30
0.0
 70
2
  0
VERTEX
  8
0
 10
276.645813
 20
121.25
 30
0.0
 70
0
  0
VERTEX
  8
0
 10
287.84314
 20
121.25
 30
0.0
 70
0
  0
SEQEND
  8
0
  0
POLYLINE
  8
0
 62
4
 66
1
 10
0.0
 20
0.0
 30
0.0
 70
2
  0
VERTEX
  8
0
 10
276.759888
 20
125.815002
 30
0.0
 70
0
  0
VERTEX
  8
0
 10
287.893127
 20
125.815002
 30
0.0
 70
0
  0
SEQEND
  8
0
  0
POLYLINE
  8
0
 62
4
 66
1
 10
0.0
 20
0.0
 30
0.0
 70
2
  0
VERTEX
  8
0
 10
276.759888
 20
121.684998
 30
0.0
 70
0
  0
VERTEX
  8
0
 10
287.893127
 20
121.684998
 30
0.0
 70
0
  0
SEQEND
  8
0
  0
POLYLINE
  8
0
 62
4
 66
1
 10
0.0
 20
0.0
 30
0.0
 70
2
  0
VERTEX
  8
0
 10
133.0
 20
143.75
 30
0.0
 70
0
  0
VERTEX
  8
0
 10
133.0
 20
183.75
 30
0.0
 70
0
  0
VERTEX
  8
0
 10
131.5
 20
185.25
 30
0.0
 70
0
  0
VERTEX
  8
0
 10
130.598083
 20
185.25
 30
0.0
 70
0
  0
SEQEND
  8
0
  0
POLYLINE
  8
0
 62
4
 66
1
 10
0.0
 20
0.0
 30
0.0
 70
2
  0
VERTEX
  8
0
 10
130.598083
 20
62.25
 30
0.0
 70
0
  0
VERTEX
  8
0
 10
131.5
 20
62.25
 30
0.0
 70
0
  0
VERTEX
  8
0
 10
133.0
 20
63.75
 30
0.0
 70
0
  0
VERTEX
  8
0
 10
133.0
 20
103.75
 30
0.0
 70
0
  0
SEQEND
  8
0
  0
POLYLINE
  8
0
 62
4
 66
1
 10
0.0
 20
0.0
 30
0.0
 70
2
  0
VERTEX
  8
0
 10
133.0
 20
103.75
 30
0.0
 70
0
  0
VERTEX
  8
0
 10
142.5
 20
103.75
 30
0.0
 70
0
  0
VERTEX
  8
0
 10
143.0
 20
104.25
 30
0.0
 70
0
  0
VERTEX
  8
0
 10
143.0
 20
143.25
 30
0.0
 70
0
  0
VERTEX
  8
0
 10
142.5
 20
143.75
 30
0.0
 70
0
  0
VERTEX
  8
0
 10
133.0
 20
143.75
 30
0.0
 70
0
  0
SEQEND
  8
0
  0
CIRCLE
  8
0
 62
4
 10
268.0
 20
123.75
 30
0.0
 40
20.0
  0
ENDSEC
  0
EOF
