  0
SECTION
  2
ENTITIES
  0
ARC
  8
0
 62
4
 10
102.6129
 20
161.951614
 30
0.0
 40
18.0
 50
232.33011338023707
 51
307.6698866197629
  0
ARC
  8
0
 62
4
 10
102.6129
 20
50.951614
 30
0.0
 40
18.0
 50
52.33011338023703
 51
127.66988661976298
  0
ARC
  8
0
 62
4
 10
102.6129
 20
161.951614
 30
0.0
 40
13.5
 50
247.80839416271144
 51
292.19160778609427
  0
ARC
  8
0
 62
4
 10
102.6129
 20
50.951614
 30
0.0
 40
13.5
 50
67.8083922139057
 51
112.19160583728855
  0
LINE
  8
0
 62
4
 10
126.6129
 20
112.951614
 30
0.0
 11
126.1129
 21
112.451614
 31
0.0
  0
LINE
  8
0
 62
4
 10
126.6129
 20
99.951614
 30
0.0
 11
126.1129
 21
100.451614
 31
0.0
  0
LINE
  8
0
 62
4
 10
91.6129
 20
99.951614
 30
0.0
 11
92.1129
 21
100.451614
 31
0.0
  0
POLYLINE
  8
0
 62
4
 66
1
 10
0.0
 20
0.0
 30
0.0
 70
2
  0
VERTEX
  8
0
 10
97.513878
 20
149.451614
 30
0.0
 70
0
  0
VERTEX
  8
0
 10
92.903221
 20
149.451614
 30
0.0
 70
0
  0
VERTEX
  8
0
 10
91.6129
 20
148.161285
 30
0.0
 70
0
  0
VERTEX
  8
0
 10
91.6129
 20
99.951614
 30
0.0
 70
0
  0
SEQEND
  8
0
  0
POLYLINE
  8
0
 62
4
 66
1
 10
0.0
 20
0.0
 30
0.0
 70
2
  0
VERTEX
  8
0
 10
91.6129
 20
99.951614
 30
0.0
 70
0
  0
VERTEX
  8
0
 10
91.6129
 20
64.741936
 30
0.0
 70
0
  0
VERTEX
  8
0
 10
92.903221
 20
63.451614
 30
0.0
 70
0
  0
VERTEX
  8
0
 10
97.513878
 20
63.451614
 30
0.0
 70
0
  0
SEQEND
  8
0
  0
POLYLINE
  8
0
 62
4
 66
1
 10
0.0
 20
0.0
 30
0.0
 70
2
  0
VERTEX
  8
0
 10
91.6129
 20
112.951614
 30
0.0
 70
0
  0
VERTEX
  8
0
 10
92.1129
 20
112.451614
 30
0.0
 70
0
  0
VERTEX
  8
0
 10
92.1129
 20
100.451614
 30
0.0
 70
0
  0
VERTEX
  8
0
 10
126.1129
 20
100.451614
 30
0.0
 70
0
  0
VERTEX
  8
0
 10
126.1129
 20
112.451614
 30
0.0
 70
0
  0
VERTEX
  8
0
 10
92.1129
 20
112.451614
 30
0.0
 70
0
  0
SEQEND
  8
0
  0
POLYLINE
  8
0
 62
4
 66
1
 10
0.0
 20
0.0
 30
0.0
 70
2
  0
VERTEX
  8
0
 10
113.6129
 20
128.951614
 30
0.0
 70
0
  0
VERTEX
  8
0
 10
113.6129
 20
148.161285
 30
0.0
 70
0
  0
VERTEX
  8
0
 10
112.322578
 20
149.451614
 30
0.0
 70
0
  0
VERTEX
  8
0
 10
107.711922
 20
149.451614
 30
0.0
 70
0
  0
SEQEND
  8
0
  0
POLYLINE
  8
0
 62
4
 66
1
 10
0.0
 20
0.0
 30
0.0
 70
2
  0
VERTEX
  8
0
 10
107.711922
 20
63.451614
 30
0.0
 70
0
  0
VERTEX
  8
0
 10
112.322578
 20
63.451614
 30
0.0
 70
0
  0
VERTEX
  8
0
 10
113.6129
 20
64.741936
 30
0.0
 70
0
  0
VERTEX
  8
0
 10
113.6129
 20
83.951614
 30
0.0
 70
0
  0
SEQEND
  8
0
  0
POLYLINE
  8
0
 62
4
 66
1
 10
0.0
 20
0.0
 30
0.0
 70
2
  0
VERTEX
  8
0
 10
113.6129
 20
83.951614
 30
0.0
 70
0
  0
VERTEX
  8
0
 10
126.1129
 20
83.951614
 30
0.0
 70
0
  0
VERTEX
  8
0
 10
126.6129
 20
84.451614
 30
0.0
 70
0
  0
VERTEX
  8
0
 10
126.6129
 20
128.451614
 30
0.0
 70
0
  0
VERTEX
  8
0
 10
126.1129
 20
128.951614
 30
0.0
 70
0
  0
VERTEX
  8
0
 10
113.6129
 20
128.951614
 30
0.0
 70
0
  0
SEQEND
  8
0
  0
ENDSEC
  0
EOF
