  0
SECTION
  2
ENTITIES
  0
ARC
  8
0
 62
7
 10
359.138397
 20
279.999786
 30
0.0
 40
4.494512
 50
10.0
 51
180.0
  0
ARC
  8
0
 62
7
 10
367.990875
 20
281.560699
 30
0.0
 40
4.494512
 50
180.0
 51
10.0
  0
ARC
  8
0
 62
4
 10
120.231705
 20
202.268295
 30
0.0
 40
18.0
 50
232.33011338023707
 51
307.6698866197629
  0
ARC
  8
0
 62
4
 10
120.231705
 20
51.268295
 30
0.0
 40
18.0
 50
52.33011338023703
 51
127.66988661976298
  0
ARC
  8
0
 62
4
 10
120.231705
 20
202.268295
 30
0.0
 40
13.5
 50
247.80839416271144
 51
292.19160778609427
  0
ARC
  8
0
 62
4
 10
120.231705
 20
51.268295
 30
0.0
 40
13.5
 50
67.8083922139057
 51
112.19160583728855
  0
LINE
  8
0
 62
4
 10
144.231705
 20
133.268295
 30
0.0
 11
143.731705
 21
132.768295
 31
0.0
  0
LINE
  8
0
 62
4
 10
144.231705
 20
120.268295
 30
0.0
 11
143.731705
 21
120.768295
 31
0.0
  0
LINE
  8
0
 62
4
 10
109.231705
 20
120.268295
 30
0.0
 11
109.731705
 21
120.768295
 31
0.0
  0
POLYLINE
  8
0
 62
4
 66
1
 10
0.0
 20
0.0
 30
0.0
 70
2
  0
VERTEX
  8
0
 10
115.132683
 20
189.768295
 30
0.0
 70
0
  0
VERTEX
  8
0
 10
110.768288
 20
189.768295
 30
0.0
 70
0
  0
VERTEX
  8
0
 10
109.231705
 20
188.231705
 30
0.0
 70
0
  0
VERTEX
  8
0
 10
109.231705
 20
120.268295
 30
0.0
 70
0
  0
SEQEND
  8
0
  0
POLYLINE
  8
0
 62
4
 66
1
 10
0.0
 20
0.0
 30
0.0
 70
2
  0
VERTEX
  8
0
 10
109.231705
 20
120.268295
 30
0.0
 70
0
  0
VERTEX
  8
0
 10
109.231705
 20
65.304886
 30
0.0
 70
0
  0
VERTEX
  8
0
 10
110.768288
 20
63.768295
 30
0.0
 70
0
  0
VERTEX
  8
0
 10
115.132683
 20
63.768295
 30
0.0
 70
0
  0
SEQEND
  8
0
  0
POLYLINE
  8
0
 62
4
 66
1
 10
0.0
 20
0.0
 30
0.0
 70
2
  0
VERTEX
  8
0
 10
109.231705
 20
133.268295
 30
0.0
 70
0
  0
VERTEX
  8
0
 10
109.731705
 20
132.768295
 30
0.0
 70
0
  0
VERTEX
  8
0
 10
109.731705
 20
120.768295
 30
0.0
 70
0
  0
VERTEX
  8
0
 10
143.731705
 20
120.768295
 30
0.0
 70
0
  0
VERTEX
  8
0
 10
143.731705
 20
132.768295
 30
0.0
 70
0
  0
VERTEX
  8
0
 10
109.731705
 20
132.768295
 30
0.0
 70
0
  0
SEQEND
  8
0
  0
POLYLINE
  8
0
 62
4
 66
1
 10
0.0
 20
0.0
 30
0.0
 70
2
  0
VERTEX
  8
0
 10
131.231705
 20
156.768295
 30
0.0
 70
0
  0
VERTEX
  8
0
 10
131.231705
 20
188.231705
 30
0.0
 70
0
  0
VERTEX
  8
0
 10
129.695114
 20
189.768295
 30
0.0
 70
0
  0
VERTEX
  8
0
 10
125.330727
 20
189.768295
 30
0.0
 70
0
  0
SEQEND
  8
0
  0
POLYLINE
  8
0
 62
4
 66
1
 10
0.0
 20
0.0
 30
0.0
 70
2
  0
VERTEX
  8
0
 10
125.330727
 20
63.768295
 30
0.0
 70
0
  0
VERTEX
  8
0
 10
129.695114
 20
63.768295
 30
0.0
 70
0
  0
VERTEX
  8
0
 10
131.231705
 20
65.304886
 30
0.0
 70
0
  0
VERTEX
  8
0
 10
131.231705
 20
96.768295
 30
0.0
 70
0
  0
SEQEND
  8
0
  0
POLYLINE
  8
0
 62
4
 66
1
 10
0.0
 20
0.0
 30
0.0
 70
2
  0
VERTEX
  8
0
 10
131.231705
 20
96.768295
 30
0.0
 70
0
  0
VERTEX
  8
0
 10
143.731705
 20
96.768295
 30
0.0
 70
0
  0
VERTEX
  8
0
 10
144.231705
 20
97.268295
 30
0.0
 70
0
  0
VERTEX
  8
0
 10
144.231705
 20
156.268295
 30
0.0
 70
0
  0
VERTEX
  8
0
 10
143.731705
 20
156.768295
 30
0.0
 70
0
  0
VERTEX
  8
0
 10
131.231705
 20
156.768295
 30
0.0
 70
0
  0
SEQEND
  8
0
  0
ENDSEC
  0
EOF
