  0
SECTION
  2
ENTITIES
  0
ARC
  8
0
 62
7
 10
306.407776
 20
238.888702
 30
0.0
 40
3.834604
 50
10.0
 51
180.0
  0
ARC
  8
0
 62
7
 10
313.960449
 20
240.220459
 30
0.0
 40
3.834604
 50
180.0
 51
10.0
  0
ARC
  8
0
 62
4
 10
104.219513
 20
176.655487
 30
0.0
 40
21.625
 50
239.42468484677804
 51
300.575315153222
  0
ARC
  8
0
 62
4
 10
104.219513
 20
39.655487
 30
0.0
 40
21.625
 50
59.42468484677803
 51
120.57531515322198
  0
ARC
  8
0
 62
4
 10
104.219513
 20
176.655487
 30
0.0
 40
16.0
 50
247.20175187738357
 51
292.7982481226164
  0
ARC
  8
0
 62
4
 10
104.219513
 20
39.655487
 30
0.0
 40
16.0
 50
67.20175187738353
 51
112.79824812261646
  0
LINE
  8
0
 62
4
 10
129.219513
 20
116.155487
 30
0.0
 11
128.719513
 21
115.655487
 31
0.0
  0
LINE
  8
0
 62
4
 10
129.219513
 20
100.155487
 30
0.0
 11
128.719513
 21
100.655487
 31
0.0
  0
LINE
  8
0
 62
4
 10
93.219513
 20
100.155487
 30
0.0
 11
93.719513
 21
100.655487
 31
0.0
  0
POLYLINE
  8
0
 62
4
 66
1
 10
0.0
 20
0.0
 30
0.0
 70
2
  0
VERTEX
  8
0
 10
98.019714
 20
161.905487
 30
0.0
 70
0
  0
VERTEX
  8
0
 10
94.530487
 20
161.905487
 30
0.0
 70
0
  0
VERTEX
  8
0
 10
93.219513
 20
160.594513
 30
0.0
 70
0
  0
VERTEX
  8
0
 10
93.219513
 20
100.155487
 30
0.0
 70
0
  0
SEQEND
  8
0
  0
POLYLINE
  8
0
 62
4
 66
1
 10
0.0
 20
0.0
 30
0.0
 70
2
  0
VERTEX
  8
0
 10
93.219513
 20
100.155487
 30
0.0
 70
0
  0
VERTEX
  8
0
 10
93.219513
 20
55.716461
 30
0.0
 70
0
  0
VERTEX
  8
0
 10
94.530487
 20
54.405487
 30
0.0
 70
0
  0
VERTEX
  8
0
 10
98.019714
 20
54.405487
 30
0.0
 70
0
  0
SEQEND
  8
0
  0
POLYLINE
  8
0
 62
4
 66
1
 10
0.0
 20
0.0
 30
0.0
 70
2
  0
VERTEX
  8
0
 10
93.219513
 20
116.155487
 30
0.0
 70
0
  0
VERTEX
  8
0
 10
93.719513
 20
115.655487
 30
0.0
 70
0
  0
VERTEX
  8
0
 10
93.719513
 20
100.655487
 30
0.0
 70
0
  0
VERTEX
  8
0
 10
128.719513
 20
100.655487
 30
0.0
 70
0
  0
VERTEX
  8
0
 10
128.719513
 20
115.655487
 30
0.0
 70
0
  0
VERTEX
  8
0
 10
93.719513
 20
115.655487
 30
0.0
 70
0
  0
SEQEND
  8
0
  0
POLYLINE
  8
0
 62
4
 66
1
 10
0.0
 20
0.0
 30
0.0
 70
2
  0
VERTEX
  8
0
 10
115.219513
 20
130.655487
 30
0.0
 70
0
  0
VERTEX
  8
0
 10
115.219513
 20
160.594513
 30
0.0
 70
0
  0
VERTEX
  8
0
 10
113.908539
 20
161.905487
 30
0.0
 70
0
  0
VERTEX
  8
0
 10
110.419312
 20
161.905487
 30
0.0
 70
0
  0
SEQEND
  8
0
  0
POLYLINE
  8
0
 62
4
 66
1
 10
0.0
 20
0.0
 30
0.0
 70
2
  0
VERTEX
  8
0
 10
110.419312
 20
54.405487
 30
0.0
 70
0
  0
VERTEX
  8
0
 10
113.908539
 20
54.405487
 30
0.0
 70
0
  0
VERTEX
  8
0
 10
115.219513
 20
55.716461
 30
0.0
 70
0
  0
VERTEX
  8
0
 10
115.219513
 20
85.655487
 30
0.0
 70
0
  0
SEQEND
  8
0
  0
POLYLINE
  8
0
 62
4
 66
1
 10
0.0
 20
0.0
 30
0.0
 70
2
  0
VERTEX
  8
0
 10
115.219513
 20
85.655487
 30
0.0
 70
0
  0
VERTEX
  8
0
 10
128.219513
 20
85.655487
 30
0.0
 70
0
  0
VERTEX
  8
0
 10
129.219513
 20
86.655487
 30
0.0
 70
0
  0
VERTEX
  8
0
 10
129.219513
 20
129.655487
 30
0.0
 70
0
  0
VERTEX
  8
0
 10
128.219513
 20
130.655487
 30
0.0
 70
0
  0
VERTEX
  8
0
 10
115.219513
 20
130.655487
 30
0.0
 70
0
  0
SEQEND
  8
0
  0
ENDSEC
  0
EOF
