  0
SECTION
  2
ENTITIES
  0
ARC
  8
0
 62
7
 10
62.140411
 20
47.395584
 30
0.0
 40
0.976027
 50
10.0
 51
180.0
  0
ARC
  8
0
 62
7
 10
64.062805
 20
47.734554
 30
0.0
 40
0.976027
 50
180.0
 51
10.0
  0
LINE
  8
0
 62
4
 10
21.342466
 20
29.806507
 30
0.0
 11
24.342466
 21
29.806507
 31
0.0
  0
LINE
  8
0
 62
4
 10
21.342466
 20
11.056507
 30
0.0
 11
24.342466
 21
11.056507
 31
0.0
  0
POLYLINE
  8
0
 62
4
 66
1
 10
0.0
 20
0.0
 30
0.0
 70
2
  0
VERTEX
  8
0
 10
21.342466
 20
28.681507
 30
0.0
 70
0
  0
VERTEX
  8
0
 10
21.942467
 20
28.681507
 30
0.0
 70
0
  0
VERTEX
  8
0
 10
21.942467
 20
24.431507
 30
0.0
 70
0
  0
VERTEX
  8
0
 10
21.342466
 20
24.431507
 30
0.0
 70
0
  0
SEQEND
  8
0
  0
POLYLINE
  8
0
 62
4
 66
1
 10
0.0
 20
0.0
 30
0.0
 70
2
  0
VERTEX
  8
0
 10
21.342466
 20
16.431507
 30
0.0
 70
0
  0
VERTEX
  8
0
 10
21.942467
 20
16.431507
 30
0.0
 70
0
  0
VERTEX
  8
0
 10
21.942467
 20
12.181507
 30
0.0
 70
0
  0
VERTEX
  8
0
 10
21.342466
 20
12.181507
 30
0.0
 70
0
  0
SEQEND
  8
0
  0
POLYLINE
  8
0
 62
4
 66
1
 10
0.0
 20
0.0
 30
0.0
 70
2
  0
VERTEX
  8
0
 10
28.342466
 20
23.231506
 30
0.0
 70
0
  0
VERTEX
  8
0
 10
28.042465
 20
22.931507
 30
0.0
 70
0
  0
VERTEX
  8
0
 10
21.642466
 20
22.931507
 30
0.0
 70
0
  0
VERTEX
  8
0
 10
21.342466
 20
23.231506
 30
0.0
 70
0
  0
VERTEX
  8
0
 10
21.642466
 20
22.931507
 30
0.0
 70
0
  0
VERTEX
  8
0
 10
21.642466
 20
17.931507
 30
0.0
 70
0
  0
SEQEND
  8
0
  0
POLYLINE
  8
0
 62
4
 66
1
 10
0.0
 20
0.0
 30
0.0
 70
2
  0
VERTEX
  8
0
 10
21.342466
 20
17.631508
 30
0.0
 70
0
  0
VERTEX
  8
0
 10
21.642466
 20
17.931507
 30
0.0
 70
0
  0
VERTEX
  8
0
 10
28.042465
 20
17.931507
 30
0.0
 70
0
  0
VERTEX
  8
0
 10
28.342466
 20
17.631508
 30
0.0
 70
0
  0
VERTEX
  8
0
 10
28.042465
 20
17.931507
 30
0.0
 70
0
  0
VERTEX
  8
0
 10
28.042465
 20
22.931507
 30
0.0
 70
0
  0
SEQEND
  8
0
  0
POLYLINE
  8
0
 62
4
 66
1
 10
0.0
 20
0.0
 30
0.0
 70
2
  0
VERTEX
  8
0
 10
21.342466
 20
17.931507
 30
0.0
 70
0
  0
VERTEX
  8
0
 10
21.342466
 20
9.931507
 30
0.0
 70
0
  0
VERTEX
  8
0
 10
24.342466
 20
9.931507
 30
0.0
 70
0
  0
VERTEX
  8
0
 10
24.342466
 20
14.431507
 30
0.0
 70
0
  0
VERTEX
  8
0
 10
28.042465
 20
14.431507
 30
0.0
 70
0
  0
VERTEX
  8
0
 10
28.342466
 20
14.731507
 30
0.0
 70
0
  0
VERTEX
  8
0
 10
28.342466
 20
26.131508
 30
0.0
 70
0
  0
VERTEX
  8
0
 10
28.042465
 20
26.431507
 30
0.0
 70
0
  0
VERTEX
  8
0
 10
24.342466
 20
26.431507
 30
0.0
 70
0
  0
VERTEX
  8
0
 10
24.342466
 20
30.931507
 30
0.0
 70
0
  0
VERTEX
  8
0
 10
21.342466
 20
30.931507
 30
0.0
 70
0
  0
VERTEX
  8
0
 10
21.342466
 20
17.931507
 30
0.0
 70
0
  0
SEQEND
  8
0
  0
POLYLINE
  8
0
 62
4
 66
1
 10
0.0
 20
0.0
 30
0.0
 70
2
  0
VERTEX
  8
0
 10
21.342466
 20
17.931507
 30
0.0
 70
0
  0
VERTEX
  8
0
 10
21.342466
 20
9.931507
 30
0.0
 70
0
  0
VERTEX
  8
0
 10
24.342466
 20
9.931507
 30
0.0
 70
0
  0
VERTEX
  8
0
 10
24.342466
 20
14.431507
 30
0.0
 70
0
  0
SEQEND
  8
0
  0
POLYLINE
  8
0
 62
4
 66
1
 10
0.0
 20
0.0
 30
0.0
 70
2
  0
VERTEX
  8
0
 10
28.342466
 20
14.731507
 30
0.0
 70
0
  0
VERTEX
  8
0
 10
28.342466
 20
26.131508
 30
0.0
 70
0
  0
SEQEND
  8
0
  0
POLYLINE
  8
0
 62
4
 66
1
 10
0.0
 20
0.0
 30
0.0
 70
2
  0
VERTEX
  8
0
 10
24.342466
 20
26.431507
 30
0.0
 70
0
  0
VERTEX
  8
0
 10
24.342466
 20
30.931507
 30
0.0
 70
0
  0
VERTEX
  8
0
 10
21.342466
 20
30.931507
 30
0.0
 70
0
  0
VERTEX
  8
0
 10
21.342466
 20
17.931507
 30
0.0
 70
0
  0
SEQEND
  8
0
  0
POLYLINE
  8
0
 62
4
 66
1
 10
0.0
 20
0.0
 30
0.0
 70
2
  0
VERTEX
  8
0
 10
24.342466
 20
12.181507
 30
0.0
 70
0
  0
VERTEX
  8
0
 10
23.742466
 20
12.181507
 30
0.0
 70
0
  0
VERTEX
  8
0
 10
23.742466
 20
14.431507
 30
0.0
 70
0
  0
VERTEX
  8
0
 10
24.342466
 20
14.431507
 30
0.0
 70
0
  0
SEQEND
  8
0
  0
POLYLINE
  8
0
 62
4
 66
1
 10
0.0
 20
0.0
 30
0.0
 70
2
  0
VERTEX
  8
0
 10
24.342466
 20
26.431507
 30
0.0
 70
0
  0
VERTEX
  8
0
 10
23.742466
 20
26.431507
 30
0.0
 70
0
  0
VERTEX
  8
0
 10
23.742466
 20
28.681507
 30
0.0
 70
0
  0
VERTEX
  8
0
 10
24.342466
 20
28.681507
 30
0.0
 70
0
  0
SEQEND
  8
0
  0
ENDSEC
  0
EOF
