  0
SECTION
  2
ENTITIES
  0
ARC
  8
0
 62
7
 10
55.599316
 20
42.406574
 30
0.0
 40
0.873288
 50
10.0
 51
180.0
  0
ARC
  8
0
 62
7
 10
57.319359
 20
42.709866
 30
0.0
 40
0.873288
 50
180.0
 51
10.0
  0
LINE
  8
0
 62
4
 10
19.09589
 20
23.68082
 30
0.0
 11
23.09589
 21
23.68082
 31
0.0
  0
LINE
  8
0
 62
4
 10
19.09589
 20
12.880821
 30
0.0
 11
23.09589
 21
12.880821
 31
0.0
  0
POLYLINE
  8
0
 62
4
 66
1
 10
0.0
 20
0.0
 30
0.0
 70
2
  0
VERTEX
  8
0
 10
19.09589
 20
22.880821
 30
0.0
 70
0
  0
VERTEX
  8
0
 10
20.09589
 20
22.880821
 30
0.0
 70
0
  0
VERTEX
  8
0
 10
20.09589
 20
21.280821
 30
0.0
 70
0
  0
VERTEX
  8
0
 10
19.09589
 20
21.280821
 30
0.0
 70
0
  0
SEQEND
  8
0
  0
POLYLINE
  8
0
 62
4
 66
1
 10
0.0
 20
0.0
 30
0.0
 70
2
  0
VERTEX
  8
0
 10
19.09589
 20
15.280821
 30
0.0
 70
0
  0
VERTEX
  8
0
 10
20.09589
 20
15.280821
 30
0.0
 70
0
  0
VERTEX
  8
0
 10
20.09589
 20
13.68082
 30
0.0
 70
0
  0
VERTEX
  8
0
 10
19.09589
 20
13.68082
 30
0.0
 70
0
  0
SEQEND
  8
0
  0
POLYLINE
  8
0
 62
4
 66
1
 10
0.0
 20
0.0
 30
0.0
 70
2
  0
VERTEX
  8
0
 10
28.09589
 20
20.58082
 30
0.0
 70
0
  0
VERTEX
  8
0
 10
27.795891
 20
20.280821
 30
0.0
 70
0
  0
VERTEX
  8
0
 10
19.395889
 20
20.280821
 30
0.0
 70
0
  0
VERTEX
  8
0
 10
19.09589
 20
20.58082
 30
0.0
 70
0
  0
VERTEX
  8
0
 10
19.395889
 20
20.280821
 30
0.0
 70
0
  0
VERTEX
  8
0
 10
19.395889
 20
16.280821
 30
0.0
 70
0
  0
SEQEND
  8
0
  0
POLYLINE
  8
0
 62
4
 66
1
 10
0.0
 20
0.0
 30
0.0
 70
2
  0
VERTEX
  8
0
 10
19.09589
 20
15.980821
 30
0.0
 70
0
  0
VERTEX
  8
0
 10
19.395889
 20
16.280821
 30
0.0
 70
0
  0
VERTEX
  8
0
 10
27.795891
 20
16.280821
 30
0.0
 70
0
  0
VERTEX
  8
0
 10
28.09589
 20
15.980821
 30
0.0
 70
0
  0
VERTEX
  8
0
 10
27.795891
 20
16.280821
 30
0.0
 70
0
  0
VERTEX
  8
0
 10
27.795891
 20
20.280821
 30
0.0
 70
0
  0
SEQEND
  8
0
  0
POLYLINE
  8
0
 62
4
 66
1
 10
0.0
 20
0.0
 30
0.0
 70
2
  0
VERTEX
  8
0
 10
19.09589
 20
16.280821
 30
0.0
 70
0
  0
VERTEX
  8
0
 10
19.09589
 20
11.080821
 30
0.0
 70
0
  0
VERTEX
  8
0
 10
23.09589
 20
11.080821
 30
0.0
 70
0
  0
VERTEX
  8
0
 10
23.09589
 20
14.280821
 30
0.0
 70
0
  0
VERTEX
  8
0
 10
27.795891
 20
14.280821
 30
0.0
 70
0
  0
VERTEX
  8
0
 10
28.09589
 20
14.580821
 30
0.0
 70
0
  0
VERTEX
  8
0
 10
28.09589
 20
21.980822
 30
0.0
 70
0
  0
VERTEX
  8
0
 10
27.795891
 20
22.280821
 30
0.0
 70
0
  0
VERTEX
  8
0
 10
23.09589
 20
22.280821
 30
0.0
 70
0
  0
VERTEX
  8
0
 10
23.09589
 20
25.48082
 30
0.0
 70
0
  0
VERTEX
  8
0
 10
19.09589
 20
25.48082
 30
0.0
 70
0
  0
VERTEX
  8
0
 10
19.09589
 20
16.280821
 30
0.0
 70
0
  0
SEQEND
  8
0
  0
POLYLINE
  8
0
 62
4
 66
1
 10
0.0
 20
0.0
 30
0.0
 70
2
  0
VERTEX
  8
0
 10
19.09589
 20
16.280821
 30
0.0
 70
0
  0
VERTEX
  8
0
 10
19.09589
 20
11.080821
 30
0.0
 70
0
  0
VERTEX
  8
0
 10
23.09589
 20
11.080821
 30
0.0
 70
0
  0
VERTEX
  8
0
 10
23.09589
 20
14.280821
 30
0.0
 70
0
  0
SEQEND
  8
0
  0
POLYLINE
  8
0
 62
4
 66
1
 10
0.0
 20
0.0
 30
0.0
 70
2
  0
VERTEX
  8
0
 10
28.09589
 20
14.580821
 30
0.0
 70
0
  0
VERTEX
  8
0
 10
28.09589
 20
21.980822
 30
0.0
 70
0
  0
SEQEND
  8
0
  0
POLYLINE
  8
0
 62
4
 66
1
 10
0.0
 20
0.0
 30
0.0
 70
2
  0
VERTEX
  8
0
 10
23.09589
 20
22.280821
 30
0.0
 70
0
  0
VERTEX
  8
0
 10
23.09589
 20
25.48082
 30
0.0
 70
0
  0
VERTEX
  8
0
 10
19.09589
 20
25.48082
 30
0.0
 70
0
  0
VERTEX
  8
0
 10
19.09589
 20
16.280821
 30
0.0
 70
0
  0
SEQEND
  8
0
  0
POLYLINE
  8
0
 62
4
 66
1
 10
0.0
 20
0.0
 30
0.0
 70
2
  0
VERTEX
  8
0
 10
23.09589
 20
13.68082
 30
0.0
 70
0
  0
VERTEX
  8
0
 10
22.09589
 20
13.68082
 30
0.0
 70
0
  0
VERTEX
  8
0
 10
22.09589
 20
14.280821
 30
0.0
 70
0
  0
VERTEX
  8
0
 10
23.09589
 20
14.280821
 30
0.0
 70
0
  0
SEQEND
  8
0
  0
POLYLINE
  8
0
 62
4
 66
1
 10
0.0
 20
0.0
 30
0.0
 70
2
  0
VERTEX
  8
0
 10
23.09589
 20
22.280821
 30
0.0
 70
0
  0
VERTEX
  8
0
 10
22.09589
 20
22.280821
 30
0.0
 70
0
  0
VERTEX
  8
0
 10
22.09589
 20
22.880821
 30
0.0
 70
0
  0
VERTEX
  8
0
 10
23.09589
 20
22.880821
 30
0.0
 70
0
  0
SEQEND
  8
0
  0
ENDSEC
  0
EOF
