  0
SECTION
  2
ENTITIES
  0
ARC
  8
0
 62
7
 10
85.034248
 20
64.857117
 30
0.0
 40
1.335616
 50
10.0
 51
180.0
  0
ARC
  8
0
 62
7
 10
87.664902
 20
65.320969
 30
0.0
 40
1.335616
 50
180.0
 51
10.0
  0
LINE
  8
0
 62
4
 10
29.205479
 20
44.708904
 30
0.0
 11
35.205479
 21
44.708904
 31
0.0
  0
LINE
  8
0
 62
4
 10
29.205479
 20
11.208904
 30
0.0
 11
35.205479
 21
11.208904
 31
0.0
  0
POLYLINE
  8
0
 62
4
 66
1
 10
0.0
 20
0.0
 30
0.0
 70
2
  0
VERTEX
  8
0
 10
29.205479
 20
42.958904
 30
0.0
 70
0
  0
VERTEX
  8
0
 10
30.705479
 20
42.958904
 30
0.0
 70
0
  0
VERTEX
  8
0
 10
30.705479
 20
33.958904
 30
0.0
 70
0
  0
VERTEX
  8
0
 10
29.205479
 20
33.958904
 30
0.0
 70
0
  0
SEQEND
  8
0
  0
POLYLINE
  8
0
 62
4
 66
1
 10
0.0
 20
0.0
 30
0.0
 70
2
  0
VERTEX
  8
0
 10
29.205479
 20
21.958904
 30
0.0
 70
0
  0
VERTEX
  8
0
 10
30.705479
 20
21.958904
 30
0.0
 70
0
  0
VERTEX
  8
0
 10
30.705479
 20
12.958904
 30
0.0
 70
0
  0
VERTEX
  8
0
 10
29.205479
 20
12.958904
 30
0.0
 70
0
  0
SEQEND
  8
0
  0
POLYLINE
  8
0
 62
4
 66
1
 10
0.0
 20
0.0
 30
0.0
 70
2
  0
VERTEX
  8
0
 10
41.205479
 20
31.258904
 30
0.0
 70
0
  0
VERTEX
  8
0
 10
40.905479
 20
30.958904
 30
0.0
 70
0
  0
VERTEX
  8
0
 10
29.505478
 20
30.958904
 30
0.0
 70
0
  0
VERTEX
  8
0
 10
29.205479
 20
31.258904
 30
0.0
 70
0
  0
VERTEX
  8
0
 10
29.505478
 20
30.958904
 30
0.0
 70
0
  0
VERTEX
  8
0
 10
29.505478
 20
24.958904
 30
0.0
 70
0
  0
SEQEND
  8
0
  0
POLYLINE
  8
0
 62
4
 66
1
 10
0.0
 20
0.0
 30
0.0
 70
2
  0
VERTEX
  8
0
 10
29.205479
 20
24.658905
 30
0.0
 70
0
  0
VERTEX
  8
0
 10
29.505478
 20
24.958904
 30
0.0
 70
0
  0
VERTEX
  8
0
 10
40.905479
 20
24.958904
 30
0.0
 70
0
  0
VERTEX
  8
0
 10
41.205479
 20
24.658905
 30
0.0
 70
0
  0
VERTEX
  8
0
 10
40.905479
 20
24.958904
 30
0.0
 70
0
  0
VERTEX
  8
0
 10
40.905479
 20
30.958904
 30
0.0
 70
0
  0
SEQEND
  8
0
  0
POLYLINE
  8
0
 62
4
 66
1
 10
0.0
 20
0.0
 30
0.0
 70
2
  0
VERTEX
  8
0
 10
29.205479
 20
24.958904
 30
0.0
 70
0
  0
VERTEX
  8
0
 10
29.205479
 20
8.958904
 30
0.0
 70
0
  0
VERTEX
  8
0
 10
35.205479
 20
8.958904
 30
0.0
 70
0
  0
VERTEX
  8
0
 10
35.205479
 20
20.958904
 30
0.0
 70
0
  0
VERTEX
  8
0
 10
40.905479
 20
20.958904
 30
0.0
 70
0
  0
VERTEX
  8
0
 10
41.205479
 20
21.258904
 30
0.0
 70
0
  0
VERTEX
  8
0
 10
41.205479
 20
34.658905
 30
0.0
 70
0
  0
VERTEX
  8
0
 10
40.905479
 20
34.958904
 30
0.0
 70
0
  0
VERTEX
  8
0
 10
35.205479
 20
34.958904
 30
0.0
 70
0
  0
VERTEX
  8
0
 10
35.205479
 20
46.958904
 30
0.0
 70
0
  0
VERTEX
  8
0
 10
29.205479
 20
46.958904
 30
0.0
 70
0
  0
VERTEX
  8
0
 10
29.205479
 20
24.958904
 30
0.0
 70
0
  0
SEQEND
  8
0
  0
POLYLINE
  8
0
 62
4
 66
1
 10
0.0
 20
0.0
 30
0.0
 70
2
  0
VERTEX
  8
0
 10
29.205479
 20
24.958904
 30
0.0
 70
0
  0
VERTEX
  8
0
 10
29.205479
 20
8.958904
 30
0.0
 70
0
  0
VERTEX
  8
0
 10
35.205479
 20
8.958904
 30
0.0
 70
0
  0
VERTEX
  8
0
 10
35.205479
 20
20.958904
 30
0.0
 70
0
  0
SEQEND
  8
0
  0
POLYLINE
  8
0
 62
4
 66
1
 10
0.0
 20
0.0
 30
0.0
 70
2
  0
VERTEX
  8
0
 10
41.205479
 20
21.258904
 30
0.0
 70
0
  0
VERTEX
  8
0
 10
41.205479
 20
34.658905
 30
0.0
 70
0
  0
SEQEND
  8
0
  0
POLYLINE
  8
0
 62
4
 66
1
 10
0.0
 20
0.0
 30
0.0
 70
2
  0
VERTEX
  8
0
 10
35.205479
 20
34.958904
 30
0.0
 70
0
  0
VERTEX
  8
0
 10
35.205479
 20
46.958904
 30
0.0
 70
0
  0
VERTEX
  8
0
 10
29.205479
 20
46.958904
 30
0.0
 70
0
  0
VERTEX
  8
0
 10
29.205479
 20
24.958904
 30
0.0
 70
0
  0
SEQEND
  8
0
  0
POLYLINE
  8
0
 62
4
 66
1
 10
0.0
 20
0.0
 30
0.0
 70
2
  0
VERTEX
  8
0
 10
35.205479
 20
12.958904
 30
0.0
 70
0
  0
VERTEX
  8
0
 10
33.705479
 20
12.958904
 30
0.0
 70
0
  0
VERTEX
  8
0
 10
33.705479
 20
20.958904
 30
0.0
 70
0
  0
VERTEX
  8
0
 10
35.205479
 20
20.958904
 30
0.0
 70
0
  0
SEQEND
  8
0
  0
POLYLINE
  8
0
 62
4
 66
1
 10
0.0
 20
0.0
 30
0.0
 70
2
  0
VERTEX
  8
0
 10
35.205479
 20
34.958904
 30
0.0
 70
0
  0
VERTEX
  8
0
 10
33.705479
 20
34.958904
 30
0.0
 70
0
  0
VERTEX
  8
0
 10
33.705479
 20
42.958904
 30
0.0
 70
0
  0
VERTEX
  8
0
 10
35.205479
 20
42.958904
 30
0.0
 70
0
  0
SEQEND
  8
0
  0
ENDSEC
  0
EOF
