  0
SECTION
  2
ENTITIES
  0
CIRCLE
  8
DASHDOT
 62
7
 10
90.783188
 20
38.694687
 30
0.0
 40
17.5
  0
LINE
  8
HIDDEN
 62
4
 10
41.141594
 20
42.304688
 30
0.0
 11
41.141594
 21
31.595911
 31
0.0
  0
LINE
  8
HIDDEN
 62
4
 10
40.641594
 20
42.304688
 30
0.0
 11
40.641594
 21
30.61694
 31
0.0
  0
LINE
  8
HIDDEN
 62
4
 10
38.641594
 20
42.304688
 30
0.0
 11
38.641594
 21
30.61694
 31
0.0
  0
LINE
  8
HIDDEN
 62
4
 10
38.141594
 20
42.304688
 30
0.0
 11
38.141594
 21
31.595911
 31
0.0
  0
POLYLINE
  8
HIDDEN
 62
4
 66
1
 10
0.0
 20
0.0
 30
0.0
 70
2
  0
VERTEX
  8
HIDDEN
 10
88.033188
 20
47.787952
 30
0.0
 70
0
  0
VERTEX
  8
HIDDEN
 10
88.033188
 20
42.304688
 30
0.0
 70
0
  0
VERTEX
  8
HIDDEN
 10
82.033188
 20
42.304688
 30
0.0
 70
0
  0
SEQEND
  8
0
  0
LINE
  8
HIDDEN
 62
4
 10
86.283188
 20
42.304688
 30
0.0
 11
86.283188
 21
30.328087
 31
0.0
  0
LINE
  8
HIDDEN
 62
4
 10
85.783188
 20
42.304688
 30
0.0
 11
85.783188
 21
30.61694
 31
0.0
  0
LINE
  8
HIDDEN
 62
4
 10
83.783188
 20
42.304688
 30
0.0
 11
83.783188
 21
32.272072
 31
0.0
  0
LINE
  8
HIDDEN
 62
4
 10
83.283188
 20
42.304688
 30
0.0
 11
83.283188
 21
32.863735
 31
0.0
  0
LINE
  8
0
 62
4
 10
36.89996
 20
42.304688
 30
0.0
 11
42.383228
 21
42.304688
 31
0.0
  0
ARC
  8
0
 62
4
 10
41.012409
 20
44.679012
 30
0.0
 40
2.741633
 50
300.0000089830309
 51
59.99999272451719
  0
ARC
  8
0
 62
4
 10
38.270779
 20
44.679012
 30
0.0
 40
2.741633
 50
120.00000727548283
 51
239.99999101696906
  0
ARC
  8
0
 62
4
 10
39.641594
 20
42.304688
 30
0.0
 40
5.483267
 50
60.0000012622552
 51
119.99999873774478
  0
LINE
  8
0
 62
4
 10
41.141594
 20
31.363735
 30
0.0
 11
41.141594
 21
31.828087
 31
0.0
  0
LINE
  8
0
 62
4
 10
38.141594
 20
31.363735
 30
0.0
 11
38.141594
 21
31.828087
 31
0.0
  0
ARC
  8
0
 62
4
 10
39.641594
 20
31.828087
 30
0.0
 40
1.5
 50
180.0
 51
0.0
  0
ARC
  8
0
 62
4
 10
39.641594
 20
31.363735
 30
0.0
 40
1.5
 50
0.0
 51
180.0
  0
LINE
  8
0
 62
4
 10
83.417725
 20
32.694687
 30
0.0
 11
98.148643
 21
32.694687
 31
0.0
  0
LINE
  8
0
 62
4
 10
83.133133
 20
33.06205
 30
0.0
 11
98.433243
 21
33.06205
 31
0.0
  0
CIRCLE
  8
0
 62
4
 10
90.783188
 20
38.694687
 30
0.0
 40
16.25
  0
CIRCLE
  8
0
 62
4
 10
90.783188
 20
38.694687
 30
0.0
 40
18.5
  0
CIRCLE
  8
0
 62
4
 10
90.783188
 20
38.694687
 30
0.0
 40
9.5
  0
CIRCLE
  8
0
 62
4
 10
90.783188
 20
38.694687
 30
0.0
 40
4.0
  0
LINE
  8
0
 62
4
 10
28.141594
 20
54.944687
 30
0.0
 11
34.141594
 21
54.944687
 31
0.0
  0
LINE
  8
0
 62
4
 10
28.141594
 20
22.444687
 30
0.0
 11
34.141594
 21
22.444687
 31
0.0
  0
POLYLINE
  8
HIDDEN
 62
4
 66
1
 10
0.0
 20
0.0
 30
0.0
 70
2
  0
VERTEX
  8
HIDDEN
 10
87.533188
 20
42.304688
 30
0.0
 70
0
  0
VERTEX
  8
HIDDEN
 10
87.533188
 20
45.304688
 30
0.0
 70
0
  0
VERTEX
  8
HIDDEN
 10
82.033188
 20
45.304688
 30
0.0
 70
0
  0
VERTEX
  8
HIDDEN
 10
82.033188
 20
42.304688
 30
0.0
 70
0
  0
SEQEND
  8
0
  0
POLYLINE
  8
0
 62
4
 66
1
 10
0.0
 20
0.0
 30
0.0
 70
2
  0
VERTEX
  8
0
 10
36.891594
 20
42.304688
 30
0.0
 70
0
  0
VERTEX
  8
0
 10
42.391594
 20
42.304688
 30
0.0
 70
0
  0
VERTEX
  8
0
 10
42.391594
 20
45.304688
 30
0.0
 70
0
  0
VERTEX
  8
0
 10
36.891594
 20
45.304688
 30
0.0
 70
0
  0
VERTEX
  8
0
 10
36.891594
 20
42.304688
 30
0.0
 70
0
  0
SEQEND
  8
0
  0
POLYLINE
  8
0
 62
4
 66
1
 10
0.0
 20
0.0
 30
0.0
 70
2
  0
VERTEX
  8
0
 10
34.892036
 20
29.194687
 30
0.0
 70
0
  0
VERTEX
  8
0
 10
43.641594
 20
29.194687
 30
0.0
 70
0
  0
VERTEX
  8
0
 10
44.141594
 20
29.694687
 30
0.0
 70
0
  0
VERTEX
  8
0
 10
44.141594
 20
32.694687
 30
0.0
 70
0
  0
VERTEX
  8
0
 10
34.892036
 20
40.455986
 30
0.0
 70
0
  0
VERTEX
  8
0
 10
34.892036
 20
29.194687
 30
0.0
 70
0
  0
SEQEND
  8
0
  0
POLYLINE
  8
0
 62
4
 66
1
 10
0.0
 20
0.0
 30
0.0
 70
2
  0
VERTEX
  8
0
 10
34.141594
 20
29.194687
 30
0.0
 70
0
  0
VERTEX
  8
0
 10
34.610619
 20
29.194687
 30
0.0
 70
0
  0
VERTEX
  8
0
 10
34.610619
 20
44.694687
 30
0.0
 70
0
  0
VERTEX
  8
0
 10
34.892036
 20
44.694687
 30
0.0
 70
0
  0
VERTEX
  8
0
 10
34.892036
 20
40.823349
 30
0.0
 70
0
  0
VERTEX
  8
0
 10
44.141594
 20
33.06205
 30
0.0
 70
0
  0
VERTEX
  8
0
 10
44.141594
 20
47.694687
 30
0.0
 70
0
  0
VERTEX
  8
0
 10
43.641594
 20
48.194687
 30
0.0
 70
0
  0
VERTEX
  8
0
 10
34.141594
 20
48.194687
 30
0.0
 70
0
  0
SEQEND
  8
0
  0
POLYLINE
  8
0
 62
4
 66
1
 10
0.0
 20
0.0
 30
0.0
 70
2
  0
VERTEX
  8
0
 10
28.141594
 20
20.194687
 30
0.0
 70
0
  0
VERTEX
  8
0
 10
28.141594
 20
20.194687
 30
0.0
 70
0
  0
VERTEX
  8
0
 10
34.141594
 20
20.194687
 30
0.0
 70
0
  0
VERTEX
  8
0
 10
34.141594
 20
20.194687
 30
0.0
 70
0
  0
VERTEX
  8
0
 10
34.141594
 20
57.194687
 30
0.0
 70
0
  0
VERTEX
  8
0
 10
34.141594
 20
57.194687
 30
0.0
 70
0
  0
VERTEX
  8
0
 10
28.141594
 20
57.194687
 30
0.0
 70
0
  0
VERTEX
  8
0
 10
28.141594
 20
57.194687
 30
0.0
 70
0
  0
VERTEX
  8
0
 10
28.141594
 20
20.194687
 30
0.0
 70
0
  0
SEQEND
  8
0
  0
POLYLINE
  8
HIDDEN
 62
4
 66
1
 10
0.0
 20
0.0
 30
0.0
 70
2
  0
VERTEX
  8
HIDDEN
 10
28.141594
 20
34.194687
 30
0.0
 70
0
  0
VERTEX
  8
HIDDEN
 10
28.641594
 20
34.694687
 30
0.0
 70
0
  0
VERTEX
  8
HIDDEN
 10
43.641594
 20
34.694687
 30
0.0
 70
0
  0
VERTEX
  8
HIDDEN
 10
43.641594
 20
42.694687
 30
0.0
 70
0
  0
VERTEX
  8
HIDDEN
 10
28.641594
 20
42.694687
 30
0.0
 70
0
  0
VERTEX
  8
HIDDEN
 10
28.141594
 20
43.194687
 30
0.0
 70
0
  0
SEQEND
  8
0
  0
LINE
  8
HIDDEN
 62
4
 10
28.641594
 20
42.694687
 30
0.0
 11
28.641594
 21
34.694687
 31
0.0
  0
LINE
  8
HIDDEN
 62
4
 10
44.141594
 20
43.194687
 30
0.0
 11
43.641594
 21
42.694687
 31
0.0
  0
LINE
  8
HIDDEN
 62
4
 10
44.141594
 20
34.194687
 30
0.0
 11
43.641594
 21
34.694687
 31
0.0
  0
CIRCLE
  8
0
 62
5
 10
31.141594
 20
49.819687
 30
0.0
 40
0.140708
  0
CIRCLE
  8
0
 62
5
 10
23.451328
 20
49.819687
 30
0.0
 40
1.876106
  0
CIRCLE
  8
0
 62
5
 10
42.641594
 20
31.028021
 30
0.0
 40
0.140708
  0
CIRCLE
  8
0
 62
5
 10
42.641594
 20
16.442474
 30
0.0
 40
1.876106
  0
LINE
  8
HIDDEN
 62
4
 10
28.141594
 20
32.694687
 30
0.0
 11
34.141594
 21
32.694687
 31
0.0
  0
LINE
  8
HIDDEN
 62
4
 10
28.141594
 20
44.694687
 30
0.0
 11
34.141594
 21
44.694687
 31
0.0
  0
ENDSEC
  0
EOF
