  0
SECTION
  2
ENTITIES
  0
LINE
  8
0
 62
4
 10
130.304352
 20
159.233688
 30
0.0
 11
142.304352
 21
159.233688
 31
0.0
  0
LINE
  8
0
 62
4
 10
130.304352
 20
102.983688
 30
0.0
 11
142.304352
 21
102.983688
 31
0.0
  0
LINE
  8
0
 62
4
 10
153.804352
 20
123.608688
 30
0.0
 11
154.304352
 21
123.108688
 31
0.0
  0
LINE
  8
0
 62
4
 10
153.804352
 20
138.608688
 30
0.0
 11
154.304352
 21
139.108688
 31
0.0
  0
LINE
  8
0
 62
4
 10
130.804352
 20
138.608688
 30
0.0
 11
130.804352
 21
123.608688
 31
0.0
  0
POLYLINE
  8
0
 62
4
 66
1
 10
0.0
 20
0.0
 30
0.0
 70
2
  0
VERTEX
  8
0
 10
130.304352
 20
123.108688
 30
0.0
 70
0
  0
VERTEX
  8
0
 10
130.804352
 20
123.608688
 30
0.0
 70
0
  0
VERTEX
  8
0
 10
153.804352
 20
123.608688
 30
0.0
 70
0
  0
VERTEX
  8
0
 10
153.804352
 20
138.608688
 30
0.0
 70
0
  0
VERTEX
  8
0
 10
130.804352
 20
138.608688
 30
0.0
 70
0
  0
VERTEX
  8
0
 10
130.304352
 20
139.108688
 30
0.0
 70
0
  0
SEQEND
  8
0
  0
ARC
  8
0
 62
4
 10
143.304352
 20
157.108688
 30
0.0
 40
1.0
 50
180.0
 51
270.0
  0
ARC
  8
0
 62
4
 10
143.304352
 20
105.108688
 30
0.0
 40
1.0
 50
90.0
 51
180.0
  0
POLYLINE
  8
0
 62
4
 66
1
 10
0.0
 20
0.0
 30
0.0
 70
2
  0
VERTEX
  8
0
 10
130.304352
 20
123.108688
 30
0.0
 70
0
  0
VERTEX
  8
0
 10
130.304352
 20
100.108688
 30
0.0
 70
0
  0
VERTEX
  8
0
 10
130.804352
 20
99.608688
 30
0.0
 70
0
  0
VERTEX
  8
0
 10
141.804352
 20
99.608688
 30
0.0
 70
0
  0
VERTEX
  8
0
 10
142.304352
 20
100.108688
 30
0.0
 70
0
  0
VERTEX
  8
0
 10
142.304352
 20
105.108688
 30
0.0
 70
0
  0
SEQEND
  8
0
  0
POLYLINE
  8
0
 62
4
 66
1
 10
0.0
 20
0.0
 30
0.0
 70
2
  0
VERTEX
  8
0
 10
143.304352
 20
106.108688
 30
0.0
 70
0
  0
VERTEX
  8
0
 10
153.804352
 20
106.108688
 30
0.0
 70
0
  0
VERTEX
  8
0
 10
154.304352
 20
106.608688
 30
0.0
 70
0
  0
VERTEX
  8
0
 10
154.304352
 20
155.608688
 30
0.0
 70
0
  0
VERTEX
  8
0
 10
153.804352
 20
156.108688
 30
0.0
 70
0
  0
VERTEX
  8
0
 10
143.304352
 20
156.108688
 30
0.0
 70
0
  0
SEQEND
  8
0
  0
POLYLINE
  8
0
 62
4
 66
1
 10
0.0
 20
0.0
 30
0.0
 70
2
  0
VERTEX
  8
0
 10
142.304352
 20
157.108688
 30
0.0
 70
0
  0
VERTEX
  8
0
 10
142.304352
 20
162.108688
 30
0.0
 70
0
  0
VERTEX
  8
0
 10
141.804352
 20
162.608688
 30
0.0
 70
0
  0
VERTEX
  8
0
 10
130.804352
 20
162.608688
 30
0.0
 70
0
  0
VERTEX
  8
0
 10
130.304352
 20
162.108688
 30
0.0
 70
0
  0
VERTEX
  8
0
 10
130.304352
 20
123.108688
 30
0.0
 70
0
  0
SEQEND
  8
0
  0
ENDSEC
  0
EOF
