  0
SECTION
  2
ENTITIES
  0
LINE
  8
0
 62
4
 10
147.913055
 20
184.45108
 30
0.0
 11
159.913055
 21
184.45108
 31
0.0
  0
LINE
  8
0
 62
4
 10
147.913055
 20
113.20108
 30
0.0
 11
159.913055
 21
113.20108
 31
0.0
  0
LINE
  8
0
 62
4
 10
170.913055
 20
132.82608
 30
0.0
 11
171.913055
 21
131.82608
 31
0.0
  0
LINE
  8
0
 62
4
 10
170.913055
 20
164.82608
 30
0.0
 11
171.913055
 21
165.82608
 31
0.0
  0
LINE
  8
0
 62
4
 10
148.913055
 20
164.82608
 30
0.0
 11
148.913055
 21
132.82608
 31
0.0
  0
POLYLINE
  8
0
 62
4
 66
1
 10
0.0
 20
0.0
 30
0.0
 70
2
  0
VERTEX
  8
0
 10
147.913055
 20
131.82608
 30
0.0
 70
0
  0
VERTEX
  8
0
 10
148.913055
 20
132.82608
 30
0.0
 70
0
  0
VERTEX
  8
0
 10
170.913055
 20
132.82608
 30
0.0
 70
0
  0
VERTEX
  8
0
 10
170.913055
 20
164.82608
 30
0.0
 70
0
  0
VERTEX
  8
0
 10
148.913055
 20
164.82608
 30
0.0
 70
0
  0
VERTEX
  8
0
 10
147.913055
 20
165.82608
 30
0.0
 70
0
  0
SEQEND
  8
0
  0
ARC
  8
0
 62
4
 10
160.913055
 20
179.82608
 30
0.0
 40
1.0
 50
180.0
 51
270.0
  0
ARC
  8
0
 62
4
 10
160.913055
 20
117.82608
 30
0.0
 40
1.0
 50
90.0
 51
180.0
  0
ARC
  8
0
 62
4
 10
344.347839
 20
148.82608
 30
0.0
 40
16.0
 50
108.20995732853793
 51
71.79004267146207
  0
POLYLINE
  8
0
 62
4
 66
1
 10
0.0
 20
0.0
 30
0.0
 70
2
  0
VERTEX
  8
0
 10
349.347839
 20
164.024765
 30
0.0
 70
0
  0
VERTEX
  8
0
 10
349.347839
 20
168.126083
 30
0.0
 70
0
  0
VERTEX
  8
0
 10
339.347839
 20
168.126083
 30
0.0
 70
0
  0
VERTEX
  8
0
 10
339.347839
 20
164.024765
 30
0.0
 70
0
  0
SEQEND
  8
0
  0
LINE
  8
0
 62
4
 10
147.913055
 20
168.126083
 30
0.0
 11
171.913055
 21
168.126083
 31
0.0
  0
POLYLINE
  8
0
 62
4
 66
1
 10
0.0
 20
0.0
 30
0.0
 70
2
  0
VERTEX
  8
0
 10
169.913055
 20
178.82608
 30
0.0
 70
0
  0
VERTEX
  8
0
 10
169.913055
 20
168.126083
 30
0.0
 70
0
  0
SEQEND
  8
0
  0
POLYLINE
  8
0
 62
4
 66
1
 10
0.0
 20
0.0
 30
0.0
 70
2
  0
VERTEX
  8
0
 10
161.913055
 20
178.82608
 30
0.0
 70
0
  0
VERTEX
  8
0
 10
161.913055
 20
168.126083
 30
0.0
 70
0
  0
SEQEND
  8
0
  0
POLYLINE
  8
0
 62
4
 66
1
 10
0.0
 20
0.0
 30
0.0
 70
2
  0
VERTEX
  8
0
 10
169.238052
 20
178.82608
 30
0.0
 70
0
  0
VERTEX
  8
0
 10
169.238052
 20
168.126083
 30
0.0
 70
0
  0
SEQEND
  8
0
  0
POLYLINE
  8
0
 62
4
 66
1
 10
0.0
 20
0.0
 30
0.0
 70
2
  0
VERTEX
  8
0
 10
162.588058
 20
178.82608
 30
0.0
 70
0
  0
VERTEX
  8
0
 10
162.588058
 20
168.126083
 30
0.0
 70
0
  0
SEQEND
  8
0
  0
POLYLINE
  8
0
 62
4
 66
1
 10
0.0
 20
0.0
 30
0.0
 70
2
  0
VERTEX
  8
0
 10
340.347839
 20
168.126083
 30
0.0
 70
0
  0
VERTEX
  8
0
 10
340.347839
 20
178.558212
 30
0.0
 70
0
  0
SEQEND
  8
0
  0
POLYLINE
  8
0
 62
4
 66
1
 10
0.0
 20
0.0
 30
0.0
 70
2
  0
VERTEX
  8
0
 10
348.347839
 20
168.126083
 30
0.0
 70
0
  0
VERTEX
  8
0
 10
348.347839
 20
178.558212
 30
0.0
 70
0
  0
SEQEND
  8
0
  0
POLYLINE
  8
0
 62
4
 66
1
 10
0.0
 20
0.0
 30
0.0
 70
2
  0
VERTEX
  8
0
 10
341.022827
 20
168.126083
 30
0.0
 70
0
  0
VERTEX
  8
0
 10
341.022827
 20
178.641251
 30
0.0
 70
0
  0
SEQEND
  8
0
  0
POLYLINE
  8
0
 62
4
 66
1
 10
0.0
 20
0.0
 30
0.0
 70
2
  0
VERTEX
  8
0
 10
347.672852
 20
168.126083
 30
0.0
 70
0
  0
VERTEX
  8
0
 10
347.672852
 20
178.641251
 30
0.0
 70
0
  0
SEQEND
  8
0
  0
CIRCLE
  8
0
 62
7
 10
165.913055
 20
148.82608
 30
0.0
 40
4.0
  0
CIRCLE
  8
0
 62
4
 10
165.913055
 20
148.82608
 30
0.0
 40
3.325
  0
POLYLINE
  8
0
 62
4
 66
1
 10
0.0
 20
0.0
 30
0.0
 70
2
  0
VERTEX
  8
0
 10
359.839783
 20
152.82608
 30
0.0
 70
0
  0
VERTEX
  8
0
 10
374.079956
 20
152.82608
 30
0.0
 70
0
  0
SEQEND
  8
0
  0
POLYLINE
  8
0
 62
4
 66
1
 10
0.0
 20
0.0
 30
0.0
 70
2
  0
VERTEX
  8
0
 10
359.839783
 20
144.82608
 30
0.0
 70
0
  0
VERTEX
  8
0
 10
374.079956
 20
144.82608
 30
0.0
 70
0
  0
SEQEND
  8
0
  0
POLYLINE
  8
0
 62
4
 66
1
 10
0.0
 20
0.0
 30
0.0
 70
2
  0
VERTEX
  8
0
 10
359.998535
 20
152.151077
 30
0.0
 70
0
  0
VERTEX
  8
0
 10
374.163025
 20
152.151077
 30
0.0
 70
0
  0
SEQEND
  8
0
  0
POLYLINE
  8
0
 62
4
 66
1
 10
0.0
 20
0.0
 30
0.0
 70
2
  0
VERTEX
  8
0
 10
359.998535
 20
145.501083
 30
0.0
 70
0
  0
VERTEX
  8
0
 10
374.163025
 20
145.501083
 30
0.0
 70
0
  0
SEQEND
  8
0
  0
POLYLINE
  8
0
 62
4
 66
1
 10
0.0
 20
0.0
 30
0.0
 70
2
  0
VERTEX
  8
0
 10
147.913055
 20
131.82608
 30
0.0
 70
0
  0
VERTEX
  8
0
 10
147.913055
 20
110.32608
 30
0.0
 70
0
  0
VERTEX
  8
0
 10
148.413055
 20
109.82608
 30
0.0
 70
0
  0
VERTEX
  8
0
 10
159.413055
 20
109.82608
 30
0.0
 70
0
  0
VERTEX
  8
0
 10
159.913055
 20
110.32608
 30
0.0
 70
0
  0
VERTEX
  8
0
 10
159.913055
 20
117.82608
 30
0.0
 70
0
  0
SEQEND
  8
0
  0
POLYLINE
  8
0
 62
4
 66
1
 10
0.0
 20
0.0
 30
0.0
 70
2
  0
VERTEX
  8
0
 10
160.913055
 20
118.82608
 30
0.0
 70
0
  0
VERTEX
  8
0
 10
171.413055
 20
118.82608
 30
0.0
 70
0
  0
VERTEX
  8
0
 10
171.913055
 20
119.32608
 30
0.0
 70
0
  0
VERTEX
  8
0
 10
171.913055
 20
178.32608
 30
0.0
 70
0
  0
VERTEX
  8
0
 10
171.413055
 20
178.82608
 30
0.0
 70
0
  0
VERTEX
  8
0
 10
160.913055
 20
178.82608
 30
0.0
 70
0
  0
SEQEND
  8
0
  0
POLYLINE
  8
0
 62
4
 66
1
 10
0.0
 20
0.0
 30
0.0
 70
2
  0
VERTEX
  8
0
 10
159.913055
 20
179.82608
 30
0.0
 70
0
  0
VERTEX
  8
0
 10
159.913055
 20
187.32608
 30
0.0
 70
0
  0
VERTEX
  8
0
 10
159.413055
 20
187.82608
 30
0.0
 70
0
  0
VERTEX
  8
0
 10
148.413055
 20
187.82608
 30
0.0
 70
0
  0
VERTEX
  8
0
 10
147.913055
 20
187.32608
 30
0.0
 70
0
  0
VERTEX
  8
0
 10
147.913055
 20
131.82608
 30
0.0
 70
0
  0
SEQEND
  8
0
  0
CIRCLE
  8
0
 62
4
 10
344.347839
 20
148.82608
 30
0.0
 40
30.0
  0
ENDSEC
  0
EOF
