  0
SECTION
  2
ENTITIES
  0
LINE
  8
0
 62
4
 10
91.565224
 20
108.255432
 30
0.0
 11
103.565224
 21
108.255432
 31
0.0
  0
LINE
  8
0
 62
4
 10
91.565224
 20
76.005432
 30
0.0
 11
103.565224
 21
76.005432
 31
0.0
  0
LINE
  8
0
 62
4
 10
115.065224
 20
86.130432
 30
0.0
 11
115.565224
 21
85.630432
 31
0.0
  0
LINE
  8
0
 62
4
 10
115.065224
 20
98.130432
 30
0.0
 11
115.565224
 21
98.630432
 31
0.0
  0
LINE
  8
0
 62
4
 10
92.065224
 20
98.130432
 30
0.0
 11
92.065224
 21
86.130432
 31
0.0
  0
POLYLINE
  8
0
 62
4
 66
1
 10
0.0
 20
0.0
 30
0.0
 70
2
  0
VERTEX
  8
0
 10
91.565224
 20
85.630432
 30
0.0
 70
0
  0
VERTEX
  8
0
 10
92.065224
 20
86.130432
 30
0.0
 70
0
  0
VERTEX
  8
0
 10
115.065224
 20
86.130432
 30
0.0
 70
0
  0
VERTEX
  8
0
 10
115.065224
 20
98.130432
 30
0.0
 70
0
  0
VERTEX
  8
0
 10
92.065224
 20
98.130432
 30
0.0
 70
0
  0
VERTEX
  8
0
 10
91.565224
 20
98.630432
 30
0.0
 70
0
  0
SEQEND
  8
0
  0
ARC
  8
0
 62
4
 10
104.565224
 20
107.130432
 30
0.0
 40
1.0
 50
180.0
 51
270.0
  0
ARC
  8
0
 62
4
 10
104.565224
 20
77.130432
 30
0.0
 40
1.0
 50
90.0
 51
180.0
  0
ARC
  8
0
 62
4
 10
217.739136
 20
92.130432
 30
0.0
 40
6.0
 50
109.47122094265586
 51
70.52871075522008
  0
POLYLINE
  8
0
 62
4
 66
1
 10
0.0
 20
0.0
 30
0.0
 70
2
  0
VERTEX
  8
0
 10
219.739136
 20
97.787285
 30
0.0
 70
0
  0
VERTEX
  8
0
 10
219.739136
 20
99.930435
 30
0.0
 70
0
  0
VERTEX
  8
0
 10
215.739136
 20
99.930435
 30
0.0
 70
0
  0
VERTEX
  8
0
 10
215.739136
 20
97.787285
 30
0.0
 70
0
  0
SEQEND
  8
0
  0
LINE
  8
0
 62
4
 10
91.565224
 20
99.930435
 30
0.0
 11
115.565224
 21
99.930435
 31
0.0
  0
POLYLINE
  8
0
 62
4
 66
1
 10
0.0
 20
0.0
 30
0.0
 70
2
  0
VERTEX
  8
0
 10
111.565224
 20
106.130432
 30
0.0
 70
0
  0
VERTEX
  8
0
 10
111.565224
 20
99.930435
 30
0.0
 70
0
  0
SEQEND
  8
0
  0
POLYLINE
  8
0
 62
4
 66
1
 10
0.0
 20
0.0
 30
0.0
 70
2
  0
VERTEX
  8
0
 10
107.565224
 20
106.130432
 30
0.0
 70
0
  0
VERTEX
  8
0
 10
107.565224
 20
99.930435
 30
0.0
 70
0
  0
SEQEND
  8
0
  0
POLYLINE
  8
0
 62
4
 66
1
 10
0.0
 20
0.0
 30
0.0
 70
2
  0
VERTEX
  8
0
 10
111.185226
 20
106.130432
 30
0.0
 70
0
  0
VERTEX
  8
0
 10
111.185226
 20
99.930435
 30
0.0
 70
0
  0
SEQEND
  8
0
  0
POLYLINE
  8
0
 62
4
 66
1
 10
0.0
 20
0.0
 30
0.0
 70
2
  0
VERTEX
  8
0
 10
107.945221
 20
106.130432
 30
0.0
 70
0
  0
VERTEX
  8
0
 10
107.945221
 20
99.930435
 30
0.0
 70
0
  0
SEQEND
  8
0
  0
POLYLINE
  8
0
 62
4
 66
1
 10
0.0
 20
0.0
 30
0.0
 70
2
  0
VERTEX
  8
0
 10
215.739136
 20
97.787285
 30
0.0
 70
0
  0
VERTEX
  8
0
 10
215.739136
 20
105.986839
 30
0.0
 70
0
  0
SEQEND
  8
0
  0
POLYLINE
  8
0
 62
4
 66
1
 10
0.0
 20
0.0
 30
0.0
 70
2
  0
VERTEX
  8
0
 10
219.739136
 20
97.787285
 30
0.0
 70
0
  0
VERTEX
  8
0
 10
219.739136
 20
105.986839
 30
0.0
 70
0
  0
SEQEND
  8
0
  0
POLYLINE
  8
0
 62
4
 66
1
 10
0.0
 20
0.0
 30
0.0
 70
2
  0
VERTEX
  8
0
 10
216.119141
 20
99.930435
 30
0.0
 70
0
  0
VERTEX
  8
0
 10
216.119141
 20
106.036385
 30
0.0
 70
0
  0
SEQEND
  8
0
  0
POLYLINE
  8
0
 62
4
 66
1
 10
0.0
 20
0.0
 30
0.0
 70
2
  0
VERTEX
  8
0
 10
219.359131
 20
99.930435
 30
0.0
 70
0
  0
VERTEX
  8
0
 10
219.359131
 20
106.036385
 30
0.0
 70
0
  0
SEQEND
  8
0
  0
CIRCLE
  8
0
 62
7
 10
109.565224
 20
92.130432
 30
0.0
 40
2.0
  0
CIRCLE
  8
0
 62
4
 10
109.565224
 20
92.130432
 30
0.0
 40
1.62
  0
POLYLINE
  8
0
 62
4
 66
1
 10
0.0
 20
0.0
 30
0.0
 70
2
  0
VERTEX
  8
0
 10
223.395996
 20
94.130432
 30
0.0
 70
0
  0
VERTEX
  8
0
 10
231.595551
 20
94.130432
 30
0.0
 70
0
  0
SEQEND
  8
0
  0
POLYLINE
  8
0
 62
4
 66
1
 10
0.0
 20
0.0
 30
0.0
 70
2
  0
VERTEX
  8
0
 10
223.395996
 20
90.130432
 30
0.0
 70
0
  0
VERTEX
  8
0
 10
231.595551
 20
90.130432
 30
0.0
 70
0
  0
SEQEND
  8
0
  0
POLYLINE
  8
0
 62
4
 66
1
 10
0.0
 20
0.0
 30
0.0
 70
2
  0
VERTEX
  8
0
 10
223.516296
 20
93.750435
 30
0.0
 70
0
  0
VERTEX
  8
0
 10
231.645081
 20
93.750435
 30
0.0
 70
0
  0
SEQEND
  8
0
  0
POLYLINE
  8
0
 62
4
 66
1
 10
0.0
 20
0.0
 30
0.0
 70
2
  0
VERTEX
  8
0
 10
223.516296
 20
90.510429
 30
0.0
 70
0
  0
VERTEX
  8
0
 10
231.645081
 20
90.510429
 30
0.0
 70
0
  0
SEQEND
  8
0
  0
POLYLINE
  8
0
 62
4
 66
1
 10
0.0
 20
0.0
 30
0.0
 70
2
  0
VERTEX
  8
0
 10
91.565224
 20
85.630432
 30
0.0
 70
0
  0
VERTEX
  8
0
 10
91.565224
 20
73.130432
 30
0.0
 70
0
  0
VERTEX
  8
0
 10
92.065224
 20
72.630432
 30
0.0
 70
0
  0
VERTEX
  8
0
 10
103.065224
 20
72.630432
 30
0.0
 70
0
  0
VERTEX
  8
0
 10
103.565224
 20
73.130432
 30
0.0
 70
0
  0
VERTEX
  8
0
 10
103.565224
 20
77.130432
 30
0.0
 70
0
  0
SEQEND
  8
0
  0
POLYLINE
  8
0
 62
4
 66
1
 10
0.0
 20
0.0
 30
0.0
 70
2
  0
VERTEX
  8
0
 10
104.565224
 20
78.130432
 30
0.0
 70
0
  0
VERTEX
  8
0
 10
115.065224
 20
78.130432
 30
0.0
 70
0
  0
VERTEX
  8
0
 10
115.565224
 20
78.630432
 30
0.0
 70
0
  0
VERTEX
  8
0
 10
115.565224
 20
105.630432
 30
0.0
 70
0
  0
VERTEX
  8
0
 10
115.065224
 20
106.130432
 30
0.0
 70
0
  0
VERTEX
  8
0
 10
104.565224
 20
106.130432
 30
0.0
 70
0
  0
SEQEND
  8
0
  0
POLYLINE
  8
0
 62
4
 66
1
 10
0.0
 20
0.0
 30
0.0
 70
2
  0
VERTEX
  8
0
 10
103.565224
 20
107.130432
 30
0.0
 70
0
  0
VERTEX
  8
0
 10
103.565224
 20
111.130432
 30
0.0
 70
0
  0
VERTEX
  8
0
 10
103.065224
 20
111.630432
 30
0.0
 70
0
  0
VERTEX
  8
0
 10
92.065224
 20
111.630432
 30
0.0
 70
0
  0
VERTEX
  8
0
 10
91.565224
 20
111.130432
 30
0.0
 70
0
  0
VERTEX
  8
0
 10
91.565224
 20
85.630432
 30
0.0
 70
0
  0
SEQEND
  8
0
  0
CIRCLE
  8
0
 62
4
 10
217.739136
 20
92.130432
 30
0.0
 40
14.0
  0
ENDSEC
  0
EOF
