  0
SECTION
  2
ENTITIES
  0
LINE
  8
0
 62
4
 10
126.782608
 20
146.940216
 30
0.0
 11
146.782608
 21
146.940216
 31
0.0
  0
LINE
  8
0
 62
4
 10
126.782608
 20
108.190208
 30
0.0
 11
146.782608
 21
108.190208
 31
0.0
  0
LINE
  8
0
 62
4
 10
159.782608
 20
117.565208
 30
0.0
 11
160.782608
 21
116.565208
 31
0.0
  0
LINE
  8
0
 62
4
 10
159.782608
 20
137.565216
 30
0.0
 11
160.782608
 21
138.565216
 31
0.0
  0
LINE
  8
0
 62
4
 10
127.782608
 20
137.565216
 30
0.0
 11
127.782608
 21
117.565208
 31
0.0
  0
POLYLINE
  8
0
 62
4
 66
1
 10
0.0
 20
0.0
 30
0.0
 70
2
  0
VERTEX
  8
0
 10
126.782608
 20
116.565208
 30
0.0
 70
0
  0
VERTEX
  8
0
 10
127.782608
 20
117.565208
 30
0.0
 70
0
  0
VERTEX
  8
0
 10
159.782608
 20
117.565208
 30
0.0
 70
0
  0
VERTEX
  8
0
 10
159.782608
 20
137.565216
 30
0.0
 70
0
  0
VERTEX
  8
0
 10
127.782608
 20
137.565216
 30
0.0
 70
0
  0
VERTEX
  8
0
 10
126.782608
 20
138.565216
 30
0.0
 70
0
  0
SEQEND
  8
0
  0
ARC
  8
0
 62
4
 10
147.782608
 20
147.565216
 30
0.0
 40
1.0
 50
180.0
 51
270.0
  0
ARC
  8
0
 62
4
 10
147.782608
 20
107.565208
 30
0.0
 40
1.0
 50
90.0
 51
180.0
  0
ARC
  8
0
 62
4
 10
301.869568
 20
127.565208
 30
0.0
 40
10.0
 50
107.45760274776076
 51
72.54239725223924
  0
POLYLINE
  8
0
 62
4
 66
1
 10
0.0
 20
0.0
 30
0.0
 70
2
  0
VERTEX
  8
0
 10
304.869568
 20
137.104599
 30
0.0
 70
0
  0
VERTEX
  8
0
 10
304.869568
 20
140.365204
 30
0.0
 70
0
  0
VERTEX
  8
0
 10
298.869568
 20
140.365204
 30
0.0
 70
0
  0
VERTEX
  8
0
 10
298.869568
 20
137.104599
 30
0.0
 70
0
  0
SEQEND
  8
0
  0
LINE
  8
0
 62
4
 10
126.782608
 20
140.365204
 30
0.0
 11
160.782608
 21
140.365204
 31
0.0
  0
POLYLINE
  8
0
 62
4
 66
1
 10
0.0
 20
0.0
 30
0.0
 70
2
  0
VERTEX
  8
0
 10
156.282608
 20
146.565216
 30
0.0
 70
0
  0
VERTEX
  8
0
 10
156.282608
 20
140.365204
 30
0.0
 70
0
  0
SEQEND
  8
0
  0
POLYLINE
  8
0
 62
4
 66
1
 10
0.0
 20
0.0
 30
0.0
 70
2
  0
VERTEX
  8
0
 10
151.282608
 20
146.565216
 30
0.0
 70
0
  0
VERTEX
  8
0
 10
151.282608
 20
140.365204
 30
0.0
 70
0
  0
SEQEND
  8
0
  0
POLYLINE
  8
0
 62
4
 66
1
 10
0.0
 20
0.0
 30
0.0
 70
2
  0
VERTEX
  8
0
 10
155.84761
 20
146.565216
 30
0.0
 70
0
  0
VERTEX
  8
0
 10
155.84761
 20
140.365204
 30
0.0
 70
0
  0
SEQEND
  8
0
  0
POLYLINE
  8
0
 62
4
 66
1
 10
0.0
 20
0.0
 30
0.0
 70
2
  0
VERTEX
  8
0
 10
151.717606
 20
146.565216
 30
0.0
 70
0
  0
VERTEX
  8
0
 10
151.717606
 20
140.365204
 30
0.0
 70
0
  0
SEQEND
  8
0
  0
POLYLINE
  8
0
 62
4
 66
1
 10
0.0
 20
0.0
 30
0.0
 70
2
  0
VERTEX
  8
0
 10
299.369568
 20
140.365204
 30
0.0
 70
0
  0
VERTEX
  8
0
 10
299.369568
 20
146.400024
 30
0.0
 70
0
  0
SEQEND
  8
0
  0
POLYLINE
  8
0
 62
4
 66
1
 10
0.0
 20
0.0
 30
0.0
 70
2
  0
VERTEX
  8
0
 10
304.369568
 20
140.365204
 30
0.0
 70
0
  0
VERTEX
  8
0
 10
304.369568
 20
146.400024
 30
0.0
 70
0
  0
SEQEND
  8
0
  0
POLYLINE
  8
0
 62
4
 66
1
 10
0.0
 20
0.0
 30
0.0
 70
2
  0
VERTEX
  8
0
 10
299.804565
 20
140.365204
 30
0.0
 70
0
  0
VERTEX
  8
0
 10
299.804565
 20
146.452652
 30
0.0
 70
0
  0
SEQEND
  8
0
  0
POLYLINE
  8
0
 62
4
 66
1
 10
0.0
 20
0.0
 30
0.0
 70
2
  0
VERTEX
  8
0
 10
303.93457
 20
140.365204
 30
0.0
 70
0
  0
VERTEX
  8
0
 10
303.93457
 20
146.452652
 30
0.0
 70
0
  0
SEQEND
  8
0
  0
CIRCLE
  8
0
 62
7
 10
153.782608
 20
127.565208
 30
0.0
 40
2.5
  0
CIRCLE
  8
0
 62
4
 10
153.782608
 20
127.565208
 30
0.0
 40
2.065
  0
POLYLINE
  8
0
 62
4
 66
1
 10
0.0
 20
0.0
 30
0.0
 70
2
  0
VERTEX
  8
0
 10
311.552032
 20
130.065216
 30
0.0
 70
0
  0
VERTEX
  8
0
 10
320.704376
 20
130.065216
 30
0.0
 70
0
  0
SEQEND
  8
0
  0
POLYLINE
  8
0
 62
4
 66
1
 10
0.0
 20
0.0
 30
0.0
 70
2
  0
VERTEX
  8
0
 10
311.552032
 20
125.065208
 30
0.0
 70
0
  0
VERTEX
  8
0
 10
320.704376
 20
125.065208
 30
0.0
 70
0
  0
SEQEND
  8
0
  0
POLYLINE
  8
0
 62
4
 66
1
 10
0.0
 20
0.0
 30
0.0
 70
2
  0
VERTEX
  8
0
 10
311.654053
 20
129.630203
 30
0.0
 70
0
  0
VERTEX
  8
0
 10
320.757019
 20
129.630203
 30
0.0
 70
0
  0
SEQEND
  8
0
  0
POLYLINE
  8
0
 62
4
 66
1
 10
0.0
 20
0.0
 30
0.0
 70
2
  0
VERTEX
  8
0
 10
311.654053
 20
125.500206
 30
0.0
 70
0
  0
VERTEX
  8
0
 10
320.757019
 20
125.500206
 30
0.0
 70
0
  0
SEQEND
  8
0
  0
POLYLINE
  8
0
 62
4
 66
1
 10
0.0
 20
0.0
 30
0.0
 70
2
  0
VERTEX
  8
0
 10
126.782608
 20
116.565208
 30
0.0
 70
0
  0
VERTEX
  8
0
 10
126.782608
 20
103.565208
 30
0.0
 70
0
  0
VERTEX
  8
0
 10
127.782608
 20
102.565208
 30
0.0
 70
0
  0
VERTEX
  8
0
 10
145.782608
 20
102.565208
 30
0.0
 70
0
  0
VERTEX
  8
0
 10
146.782608
 20
103.565208
 30
0.0
 70
0
  0
VERTEX
  8
0
 10
146.782608
 20
107.565208
 30
0.0
 70
0
  0
SEQEND
  8
0
  0
POLYLINE
  8
0
 62
4
 66
1
 10
0.0
 20
0.0
 30
0.0
 70
2
  0
VERTEX
  8
0
 10
147.782608
 20
108.565208
 30
0.0
 70
0
  0
VERTEX
  8
0
 10
159.782608
 20
108.565208
 30
0.0
 70
0
  0
VERTEX
  8
0
 10
160.782608
 20
109.565208
 30
0.0
 70
0
  0
VERTEX
  8
0
 10
160.782608
 20
145.565216
 30
0.0
 70
0
  0
VERTEX
  8
0
 10
159.782608
 20
146.565216
 30
0.0
 70
0
  0
VERTEX
  8
0
 10
147.782608
 20
146.565216
 30
0.0
 70
0
  0
SEQEND
  8
0
  0
POLYLINE
  8
0
 62
4
 66
1
 10
0.0
 20
0.0
 30
0.0
 70
2
  0
VERTEX
  8
0
 10
146.782608
 20
147.565216
 30
0.0
 70
0
  0
VERTEX
  8
0
 10
146.782608
 20
151.565216
 30
0.0
 70
0
  0
VERTEX
  8
0
 10
145.782608
 20
152.565216
 30
0.0
 70
0
  0
VERTEX
  8
0
 10
127.782608
 20
152.565216
 30
0.0
 70
0
  0
VERTEX
  8
0
 10
126.782608
 20
151.565216
 30
0.0
 70
0
  0
VERTEX
  8
0
 10
126.782608
 20
116.565208
 30
0.0
 70
0
  0
SEQEND
  8
0
  0
CIRCLE
  8
0
 62
4
 10
301.869568
 20
127.565208
 30
0.0
 40
19.0
  0
ENDSEC
  0
EOF
