  0
SECTION
  2
ENTITIES
  0
LINE
  8
0
 62
4
 10
137.347839
 20
162.570648
 30
0.0
 11
157.347839
 21
162.570648
 31
0.0
  0
LINE
  8
0
 62
4
 10
137.347839
 20
113.820648
 30
0.0
 11
157.347839
 21
113.820648
 31
0.0
  0
LINE
  8
0
 62
4
 10
170.347839
 20
127.195648
 30
0.0
 11
171.347839
 21
126.195648
 31
0.0
  0
LINE
  8
0
 62
4
 10
170.347839
 20
149.195648
 30
0.0
 11
171.347839
 21
150.195648
 31
0.0
  0
LINE
  8
0
 62
4
 10
138.347839
 20
149.195648
 30
0.0
 11
138.347839
 21
127.195648
 31
0.0
  0
POLYLINE
  8
0
 62
4
 66
1
 10
0.0
 20
0.0
 30
0.0
 70
2
  0
VERTEX
  8
0
 10
137.347839
 20
126.195648
 30
0.0
 70
0
  0
VERTEX
  8
0
 10
138.347839
 20
127.195648
 30
0.0
 70
0
  0
VERTEX
  8
0
 10
170.347839
 20
127.195648
 30
0.0
 70
0
  0
VERTEX
  8
0
 10
170.347839
 20
149.195648
 30
0.0
 70
0
  0
VERTEX
  8
0
 10
138.347839
 20
149.195648
 30
0.0
 70
0
  0
VERTEX
  8
0
 10
137.347839
 20
150.195648
 30
0.0
 70
0
  0
SEQEND
  8
0
  0
ARC
  8
0
 62
4
 10
158.347839
 20
161.195648
 30
0.0
 40
1.0
 50
180.0
 51
270.0
  0
ARC
  8
0
 62
4
 10
158.347839
 20
115.195648
 30
0.0
 40
1.0
 50
90.0
 51
180.0
  0
ARC
  8
0
 62
4
 10
325.608704
 20
138.195648
 30
0.0
 40
11.0
 50
105.82662088647183
 51
74.17337911352817
  0
POLYLINE
  8
0
 62
4
 66
1
 10
0.0
 20
0.0
 30
0.0
 70
2
  0
VERTEX
  8
0
 10
328.608704
 20
148.778656
 30
0.0
 70
0
  0
VERTEX
  8
0
 10
328.608704
 20
151.995651
 30
0.0
 70
0
  0
VERTEX
  8
0
 10
322.608704
 20
151.995651
 30
0.0
 70
0
  0
VERTEX
  8
0
 10
322.608704
 20
148.778656
 30
0.0
 70
0
  0
SEQEND
  8
0
  0
LINE
  8
0
 62
4
 10
137.347839
 20
151.995651
 30
0.0
 11
171.347839
 21
151.995651
 31
0.0
  0
POLYLINE
  8
0
 62
4
 66
1
 10
0.0
 20
0.0
 30
0.0
 70
2
  0
VERTEX
  8
0
 10
166.847839
 20
160.195648
 30
0.0
 70
0
  0
VERTEX
  8
0
 10
166.847839
 20
151.995651
 30
0.0
 70
0
  0
SEQEND
  8
0
  0
POLYLINE
  8
0
 62
4
 66
1
 10
0.0
 20
0.0
 30
0.0
 70
2
  0
VERTEX
  8
0
 10
161.847839
 20
160.195648
 30
0.0
 70
0
  0
VERTEX
  8
0
 10
161.847839
 20
151.995651
 30
0.0
 70
0
  0
SEQEND
  8
0
  0
POLYLINE
  8
0
 62
4
 66
1
 10
0.0
 20
0.0
 30
0.0
 70
2
  0
VERTEX
  8
0
 10
166.412842
 20
160.195648
 30
0.0
 70
0
  0
VERTEX
  8
0
 10
166.412842
 20
151.995651
 30
0.0
 70
0
  0
SEQEND
  8
0
  0
POLYLINE
  8
0
 62
4
 66
1
 10
0.0
 20
0.0
 30
0.0
 70
2
  0
VERTEX
  8
0
 10
162.282837
 20
160.195648
 30
0.0
 70
0
  0
VERTEX
  8
0
 10
162.282837
 20
151.995651
 30
0.0
 70
0
  0
SEQEND
  8
0
  0
POLYLINE
  8
0
 62
4
 66
1
 10
0.0
 20
0.0
 30
0.0
 70
2
  0
VERTEX
  8
0
 10
323.108704
 20
151.995651
 30
0.0
 70
0
  0
VERTEX
  8
0
 10
323.108704
 20
160.053146
 30
0.0
 70
0
  0
SEQEND
  8
0
  0
POLYLINE
  8
0
 62
4
 66
1
 10
0.0
 20
0.0
 30
0.0
 70
2
  0
VERTEX
  8
0
 10
328.108704
 20
151.995651
 30
0.0
 70
0
  0
VERTEX
  8
0
 10
328.108704
 20
160.053146
 30
0.0
 70
0
  0
SEQEND
  8
0
  0
POLYLINE
  8
0
 62
4
 66
1
 10
0.0
 20
0.0
 30
0.0
 70
2
  0
VERTEX
  8
0
 10
323.543701
 20
151.995651
 30
0.0
 70
0
  0
VERTEX
  8
0
 10
323.543701
 20
160.098526
 30
0.0
 70
0
  0
SEQEND
  8
0
  0
POLYLINE
  8
0
 62
4
 66
1
 10
0.0
 20
0.0
 30
0.0
 70
2
  0
VERTEX
  8
0
 10
327.673706
 20
151.995651
 30
0.0
 70
0
  0
VERTEX
  8
0
 10
327.673706
 20
160.098526
 30
0.0
 70
0
  0
SEQEND
  8
0
  0
CIRCLE
  8
0
 62
7
 10
164.347839
 20
138.195648
 30
0.0
 40
2.5
  0
CIRCLE
  8
0
 62
4
 10
164.347839
 20
138.195648
 30
0.0
 40
2.065
  0
POLYLINE
  8
0
 62
4
 66
1
 10
0.0
 20
0.0
 30
0.0
 70
2
  0
VERTEX
  8
0
 10
336.320862
 20
140.695648
 30
0.0
 70
0
  0
VERTEX
  8
0
 10
347.466187
 20
140.695648
 30
0.0
 70
0
  0
SEQEND
  8
0
  0
POLYLINE
  8
0
 62
4
 66
1
 10
0.0
 20
0.0
 30
0.0
 70
2
  0
VERTEX
  8
0
 10
336.320862
 20
135.695648
 30
0.0
 70
0
  0
VERTEX
  8
0
 10
347.466187
 20
135.695648
 30
0.0
 70
0
  0
SEQEND
  8
0
  0
POLYLINE
  8
0
 62
4
 66
1
 10
0.0
 20
0.0
 30
0.0
 70
2
  0
VERTEX
  8
0
 10
336.413147
 20
140.260651
 30
0.0
 70
0
  0
VERTEX
  8
0
 10
347.511597
 20
140.260651
 30
0.0
 70
0
  0
SEQEND
  8
0
  0
POLYLINE
  8
0
 62
4
 66
1
 10
0.0
 20
0.0
 30
0.0
 70
2
  0
VERTEX
  8
0
 10
336.413147
 20
136.130646
 30
0.0
 70
0
  0
VERTEX
  8
0
 10
347.511597
 20
136.130646
 30
0.0
 70
0
  0
SEQEND
  8
0
  0
POLYLINE
  8
0
 62
4
 66
1
 10
0.0
 20
0.0
 30
0.0
 70
2
  0
VERTEX
  8
0
 10
137.347839
 20
126.195648
 30
0.0
 70
0
  0
VERTEX
  8
0
 10
137.347839
 20
109.195648
 30
0.0
 70
0
  0
VERTEX
  8
0
 10
138.347839
 20
108.195648
 30
0.0
 70
0
  0
VERTEX
  8
0
 10
156.347839
 20
108.195648
 30
0.0
 70
0
  0
VERTEX
  8
0
 10
157.347839
 20
109.195648
 30
0.0
 70
0
  0
VERTEX
  8
0
 10
157.347839
 20
115.195648
 30
0.0
 70
0
  0
SEQEND
  8
0
  0
POLYLINE
  8
0
 62
4
 66
1
 10
0.0
 20
0.0
 30
0.0
 70
2
  0
VERTEX
  8
0
 10
158.347839
 20
116.195648
 30
0.0
 70
0
  0
VERTEX
  8
0
 10
170.347839
 20
116.195648
 30
0.0
 70
0
  0
VERTEX
  8
0
 10
171.347839
 20
117.195648
 30
0.0
 70
0
  0
VERTEX
  8
0
 10
171.347839
 20
159.195648
 30
0.0
 70
0
  0
VERTEX
  8
0
 10
170.347839
 20
160.195648
 30
0.0
 70
0
  0
VERTEX
  8
0
 10
158.347839
 20
160.195648
 30
0.0
 70
0
  0
SEQEND
  8
0
  0
POLYLINE
  8
0
 62
4
 66
1
 10
0.0
 20
0.0
 30
0.0
 70
2
  0
VERTEX
  8
0
 10
157.347839
 20
161.195648
 30
0.0
 70
0
  0
VERTEX
  8
0
 10
157.347839
 20
167.195648
 30
0.0
 70
0
  0
VERTEX
  8
0
 10
156.347839
 20
168.195648
 30
0.0
 70
0
  0
VERTEX
  8
0
 10
138.347839
 20
168.195648
 30
0.0
 70
0
  0
VERTEX
  8
0
 10
137.347839
 20
167.195648
 30
0.0
 70
0
  0
VERTEX
  8
0
 10
137.347839
 20
126.195648
 30
0.0
 70
0
  0
SEQEND
  8
0
  0
CIRCLE
  8
0
 62
4
 10
325.608704
 20
138.195648
 30
0.0
 40
22.0
  0
ENDSEC
  0
EOF
