  0
SECTION
  2
ENTITIES
  0
LINE
  8
0
 62
4
 10
191.934784
 20
249.994568
 30
0.0
 11
211.934784
 21
249.994568
 31
0.0
  0
LINE
  8
0
 62
4
 10
191.934784
 20
136.244568
 30
0.0
 11
211.934784
 21
136.244568
 31
0.0
  0
LINE
  8
0
 62
4
 10
224.934784
 20
178.119568
 30
0.0
 11
225.934784
 21
177.119568
 31
0.0
  0
LINE
  8
0
 62
4
 10
224.934784
 20
208.119568
 30
0.0
 11
225.934784
 21
209.119568
 31
0.0
  0
LINE
  8
0
 62
4
 10
192.934784
 20
208.119568
 30
0.0
 11
192.934784
 21
178.119568
 31
0.0
  0
POLYLINE
  8
0
 62
4
 66
1
 10
0.0
 20
0.0
 30
0.0
 70
2
  0
VERTEX
  8
0
 10
191.934784
 20
177.119568
 30
0.0
 70
0
  0
VERTEX
  8
0
 10
192.934784
 20
178.119568
 30
0.0
 70
0
  0
VERTEX
  8
0
 10
224.934784
 20
178.119568
 30
0.0
 70
0
  0
VERTEX
  8
0
 10
224.934784
 20
208.119568
 30
0.0
 70
0
  0
VERTEX
  8
0
 10
192.934784
 20
208.119568
 30
0.0
 70
0
  0
VERTEX
  8
0
 10
191.934784
 20
209.119568
 30
0.0
 70
0
  0
SEQEND
  8
0
  0
ARC
  8
0
 62
4
 10
213.434784
 20
232.119568
 30
0.0
 40
1.5
 50
180.0
 51
270.0
  0
ARC
  8
0
 62
4
 10
213.434784
 20
154.119568
 30
0.0
 40
1.5
 50
90.0
 51
180.0
  0
ARC
  8
0
 62
4
 10
448.260864
 20
193.119568
 30
0.0
 40
15.0
 50
105.46601032289746
 51
74.53398967710255
  0
POLYLINE
  8
0
 62
4
 66
1
 10
0.0
 20
0.0
 30
0.0
 70
2
  0
VERTEX
  8
0
 10
452.260864
 20
207.576401
 30
0.0
 70
0
  0
VERTEX
  8
0
 10
452.260864
 20
211.419571
 30
0.0
 70
0
  0
VERTEX
  8
0
 10
444.260864
 20
211.419571
 30
0.0
 70
0
  0
VERTEX
  8
0
 10
444.260864
 20
207.576401
 30
0.0
 70
0
  0
SEQEND
  8
0
  0
LINE
  8
0
 62
4
 10
191.934784
 20
211.419571
 30
0.0
 11
225.934784
 21
211.419571
 31
0.0
  0
POLYLINE
  8
0
 62
4
 66
1
 10
0.0
 20
0.0
 30
0.0
 70
2
  0
VERTEX
  8
0
 10
221.934784
 20
230.619568
 30
0.0
 70
0
  0
VERTEX
  8
0
 10
221.934784
 20
211.419571
 30
0.0
 70
0
  0
SEQEND
  8
0
  0
POLYLINE
  8
0
 62
4
 66
1
 10
0.0
 20
0.0
 30
0.0
 70
2
  0
VERTEX
  8
0
 10
215.934784
 20
230.619568
 30
0.0
 70
0
  0
VERTEX
  8
0
 10
215.934784
 20
211.419571
 30
0.0
 70
0
  0
SEQEND
  8
0
  0
POLYLINE
  8
0
 62
4
 66
1
 10
0.0
 20
0.0
 30
0.0
 70
2
  0
VERTEX
  8
0
 10
221.394775
 20
230.619568
 30
0.0
 70
0
  0
VERTEX
  8
0
 10
221.394775
 20
211.419571
 30
0.0
 70
0
  0
SEQEND
  8
0
  0
POLYLINE
  8
0
 62
4
 66
1
 10
0.0
 20
0.0
 30
0.0
 70
2
  0
VERTEX
  8
0
 10
216.474792
 20
230.619568
 30
0.0
 70
0
  0
VERTEX
  8
0
 10
216.474792
 20
211.419571
 30
0.0
 70
0
  0
SEQEND
  8
0
  0
POLYLINE
  8
0
 62
4
 66
1
 10
0.0
 20
0.0
 30
0.0
 70
2
  0
VERTEX
  8
0
 10
445.260864
 20
211.419571
 30
0.0
 70
0
  0
VERTEX
  8
0
 10
445.260864
 20
230.499374
 30
0.0
 70
0
  0
SEQEND
  8
0
  0
POLYLINE
  8
0
 62
4
 66
1
 10
0.0
 20
0.0
 30
0.0
 70
2
  0
VERTEX
  8
0
 10
451.260864
 20
211.419571
 30
0.0
 70
0
  0
VERTEX
  8
0
 10
451.260864
 20
230.499374
 30
0.0
 70
0
  0
SEQEND
  8
0
  0
POLYLINE
  8
0
 62
4
 66
1
 10
0.0
 20
0.0
 30
0.0
 70
2
  0
VERTEX
  8
0
 10
445.800842
 20
211.419571
 30
0.0
 70
0
  0
VERTEX
  8
0
 10
445.800842
 20
230.538788
 30
0.0
 70
0
  0
SEQEND
  8
0
  0
POLYLINE
  8
0
 62
4
 66
1
 10
0.0
 20
0.0
 30
0.0
 70
2
  0
VERTEX
  8
0
 10
450.720856
 20
211.419571
 30
0.0
 70
0
  0
VERTEX
  8
0
 10
450.720856
 20
230.538788
 30
0.0
 70
0
  0
SEQEND
  8
0
  0
CIRCLE
  8
0
 62
7
 10
218.934784
 20
193.119568
 30
0.0
 40
3.0
  0
CIRCLE
  8
0
 62
4
 10
218.934784
 20
193.119568
 30
0.0
 40
2.46
  0
POLYLINE
  8
0
 62
4
 66
1
 10
0.0
 20
0.0
 30
0.0
 70
2
  0
VERTEX
  8
0
 10
462.957794
 20
196.119568
 30
0.0
 70
0
  0
VERTEX
  8
0
 10
485.640656
 20
196.119568
 30
0.0
 70
0
  0
SEQEND
  8
0
  0
POLYLINE
  8
0
 62
4
 66
1
 10
0.0
 20
0.0
 30
0.0
 70
2
  0
VERTEX
  8
0
 10
462.957794
 20
190.119568
 30
0.0
 70
0
  0
VERTEX
  8
0
 10
485.640656
 20
190.119568
 30
0.0
 70
0
  0
SEQEND
  8
0
  0
POLYLINE
  8
0
 62
4
 66
1
 10
0.0
 20
0.0
 30
0.0
 70
2
  0
VERTEX
  8
0
 10
463.05777
 20
195.579575
 30
0.0
 70
0
  0
VERTEX
  8
0
 10
485.680084
 20
195.579575
 30
0.0
 70
0
  0
SEQEND
  8
0
  0
POLYLINE
  8
0
 62
4
 66
1
 10
0.0
 20
0.0
 30
0.0
 70
2
  0
VERTEX
  8
0
 10
463.05777
 20
190.659561
 30
0.0
 70
0
  0
VERTEX
  8
0
 10
485.680084
 20
190.659561
 30
0.0
 70
0
  0
SEQEND
  8
0
  0
POLYLINE
  8
0
 62
4
 66
1
 10
0.0
 20
0.0
 30
0.0
 70
2
  0
VERTEX
  8
0
 10
191.934784
 20
177.119568
 30
0.0
 70
0
  0
VERTEX
  8
0
 10
191.934784
 20
131.619568
 30
0.0
 70
0
  0
VERTEX
  8
0
 10
192.934784
 20
130.619568
 30
0.0
 70
0
  0
VERTEX
  8
0
 10
210.934784
 20
130.619568
 30
0.0
 70
0
  0
VERTEX
  8
0
 10
211.934784
 20
131.619568
 30
0.0
 70
0
  0
VERTEX
  8
0
 10
211.934784
 20
154.119568
 30
0.0
 70
0
  0
SEQEND
  8
0
  0
POLYLINE
  8
0
 62
4
 66
1
 10
0.0
 20
0.0
 30
0.0
 70
2
  0
VERTEX
  8
0
 10
213.434784
 20
155.619568
 30
0.0
 70
0
  0
VERTEX
  8
0
 10
224.934784
 20
155.619568
 30
0.0
 70
0
  0
VERTEX
  8
0
 10
225.934784
 20
156.619568
 30
0.0
 70
0
  0
VERTEX
  8
0
 10
225.934784
 20
229.619568
 30
0.0
 70
0
  0
VERTEX
  8
0
 10
224.934784
 20
230.619568
 30
0.0
 70
0
  0
VERTEX
  8
0
 10
213.434784
 20
230.619568
 30
0.0
 70
0
  0
SEQEND
  8
0
  0
POLYLINE
  8
0
 62
4
 66
1
 10
0.0
 20
0.0
 30
0.0
 70
2
  0
VERTEX
  8
0
 10
211.934784
 20
232.119568
 30
0.0
 70
0
  0
VERTEX
  8
0
 10
211.934784
 20
254.619568
 30
0.0
 70
0
  0
VERTEX
  8
0
 10
210.934784
 20
255.619568
 30
0.0
 70
0
  0
VERTEX
  8
0
 10
192.934784
 20
255.619568
 30
0.0
 70
0
  0
VERTEX
  8
0
 10
191.934784
 20
254.619568
 30
0.0
 70
0
  0
VERTEX
  8
0
 10
191.934784
 20
177.119568
 30
0.0
 70
0
  0
SEQEND
  8
0
  0
CIRCLE
  8
0
 62
4
 10
448.260864
 20
193.119568
 30
0.0
 40
37.5
  0
ENDSEC
  0
EOF
