  0
SECTION
  2
ENTITIES
  0
LINE
  8
0
 62
4
 10
137.347839
 20
162.570648
 30
0.0
 11
157.347839
 21
162.570648
 31
0.0
  0
LINE
  8
0
 62
4
 10
137.347839
 20
113.820648
 30
0.0
 11
157.347839
 21
113.820648
 31
0.0
  0
LINE
  8
0
 62
4
 10
170.347839
 20
125.695648
 30
0.0
 11
171.347839
 21
124.695648
 31
0.0
  0
LINE
  8
0
 62
4
 10
170.347839
 20
150.695648
 30
0.0
 11
171.347839
 21
151.695648
 31
0.0
  0
LINE
  8
0
 62
4
 10
138.347839
 20
150.695648
 30
0.0
 11
138.347839
 21
125.695648
 31
0.0
  0
POLYLINE
  8
0
 62
4
 66
1
 10
0.0
 20
0.0
 30
0.0
 70
2
  0
VERTEX
  8
0
 10
137.347839
 20
124.695648
 30
0.0
 70
0
  0
VERTEX
  8
0
 10
138.347839
 20
125.695648
 30
0.0
 70
0
  0
VERTEX
  8
0
 10
170.347839
 20
125.695648
 30
0.0
 70
0
  0
VERTEX
  8
0
 10
170.347839
 20
150.695648
 30
0.0
 70
0
  0
VERTEX
  8
0
 10
138.347839
 20
150.695648
 30
0.0
 70
0
  0
VERTEX
  8
0
 10
137.347839
 20
151.695648
 30
0.0
 70
0
  0
SEQEND
  8
0
  0
ARC
  8
0
 62
4
 10
158.347839
 20
161.195648
 30
0.0
 40
1.0
 50
180.0
 51
270.0
  0
ARC
  8
0
 62
4
 10
158.347839
 20
115.195648
 30
0.0
 40
1.0
 50
90.0
 51
180.0
  0
ARC
  8
0
 62
4
 10
325.608704
 20
138.195648
 30
0.0
 40
12.5
 50
108.66292518454978
 51
71.33707481545021
  0
POLYLINE
  8
0
 62
4
 66
1
 10
0.0
 20
0.0
 30
0.0
 70
2
  0
VERTEX
  8
0
 10
329.608704
 20
150.038361
 30
0.0
 70
0
  0
VERTEX
  8
0
 10
329.608704
 20
153.995651
 30
0.0
 70
0
  0
VERTEX
  8
0
 10
321.608704
 20
153.995651
 30
0.0
 70
0
  0
VERTEX
  8
0
 10
321.608704
 20
150.038361
 30
0.0
 70
0
  0
SEQEND
  8
0
  0
LINE
  8
0
 62
4
 10
137.347839
 20
153.995651
 30
0.0
 11
171.347839
 21
153.995651
 31
0.0
  0
POLYLINE
  8
0
 62
4
 66
1
 10
0.0
 20
0.0
 30
0.0
 70
2
  0
VERTEX
  8
0
 10
167.347839
 20
160.195648
 30
0.0
 70
0
  0
VERTEX
  8
0
 10
167.347839
 20
153.995651
 30
0.0
 70
0
  0
SEQEND
  8
0
  0
POLYLINE
  8
0
 62
4
 66
1
 10
0.0
 20
0.0
 30
0.0
 70
2
  0
VERTEX
  8
0
 10
161.347839
 20
160.195648
 30
0.0
 70
0
  0
VERTEX
  8
0
 10
161.347839
 20
153.995651
 30
0.0
 70
0
  0
SEQEND
  8
0
  0
POLYLINE
  8
0
 62
4
 66
1
 10
0.0
 20
0.0
 30
0.0
 70
2
  0
VERTEX
  8
0
 10
166.807831
 20
160.195648
 30
0.0
 70
0
  0
VERTEX
  8
0
 10
166.807831
 20
153.995651
 30
0.0
 70
0
  0
SEQEND
  8
0
  0
POLYLINE
  8
0
 62
4
 66
1
 10
0.0
 20
0.0
 30
0.0
 70
2
  0
VERTEX
  8
0
 10
161.887848
 20
160.195648
 30
0.0
 70
0
  0
VERTEX
  8
0
 10
161.887848
 20
153.995651
 30
0.0
 70
0
  0
SEQEND
  8
0
  0
POLYLINE
  8
0
 62
4
 66
1
 10
0.0
 20
0.0
 30
0.0
 70
2
  0
VERTEX
  8
0
 10
322.608704
 20
153.995651
 30
0.0
 70
0
  0
VERTEX
  8
0
 10
322.608704
 20
159.990143
 30
0.0
 70
0
  0
SEQEND
  8
0
  0
POLYLINE
  8
0
 62
4
 66
1
 10
0.0
 20
0.0
 30
0.0
 70
2
  0
VERTEX
  8
0
 10
328.608704
 20
153.995651
 30
0.0
 70
0
  0
VERTEX
  8
0
 10
328.608704
 20
159.990143
 30
0.0
 70
0
  0
SEQEND
  8
0
  0
POLYLINE
  8
0
 62
4
 66
1
 10
0.0
 20
0.0
 30
0.0
 70
2
  0
VERTEX
  8
0
 10
323.148682
 20
153.995651
 30
0.0
 70
0
  0
VERTEX
  8
0
 10
323.148682
 20
160.057678
 30
0.0
 70
0
  0
SEQEND
  8
0
  0
POLYLINE
  8
0
 62
4
 66
1
 10
0.0
 20
0.0
 30
0.0
 70
2
  0
VERTEX
  8
0
 10
328.068726
 20
153.995651
 30
0.0
 70
0
  0
VERTEX
  8
0
 10
328.068726
 20
160.057678
 30
0.0
 70
0
  0
SEQEND
  8
0
  0
CIRCLE
  8
0
 62
7
 10
164.347839
 20
138.195648
 30
0.0
 40
3.0
  0
CIRCLE
  8
0
 62
4
 10
164.347839
 20
138.195648
 30
0.0
 40
2.46
  0
POLYLINE
  8
0
 62
4
 66
1
 10
0.0
 20
0.0
 30
0.0
 70
2
  0
VERTEX
  8
0
 10
337.743347
 20
141.195648
 30
0.0
 70
0
  0
VERTEX
  8
0
 10
347.403198
 20
141.195648
 30
0.0
 70
0
  0
SEQEND
  8
0
  0
POLYLINE
  8
0
 62
4
 66
1
 10
0.0
 20
0.0
 30
0.0
 70
2
  0
VERTEX
  8
0
 10
337.743347
 20
135.195648
 30
0.0
 70
0
  0
VERTEX
  8
0
 10
347.403198
 20
135.195648
 30
0.0
 70
0
  0
SEQEND
  8
0
  0
POLYLINE
  8
0
 62
4
 66
1
 10
0.0
 20
0.0
 30
0.0
 70
2
  0
VERTEX
  8
0
 10
337.864258
 20
140.655655
 30
0.0
 70
0
  0
VERTEX
  8
0
 10
347.470734
 20
140.655655
 30
0.0
 70
0
  0
SEQEND
  8
0
  0
POLYLINE
  8
0
 62
4
 66
1
 10
0.0
 20
0.0
 30
0.0
 70
2
  0
VERTEX
  8
0
 10
337.864258
 20
135.735641
 30
0.0
 70
0
  0
VERTEX
  8
0
 10
347.470734
 20
135.735641
 30
0.0
 70
0
  0
SEQEND
  8
0
  0
POLYLINE
  8
0
 62
4
 66
1
 10
0.0
 20
0.0
 30
0.0
 70
2
  0
VERTEX
  8
0
 10
137.347839
 20
124.695648
 30
0.0
 70
0
  0
VERTEX
  8
0
 10
137.347839
 20
109.195648
 30
0.0
 70
0
  0
VERTEX
  8
0
 10
138.347839
 20
108.195648
 30
0.0
 70
0
  0
VERTEX
  8
0
 10
156.347839
 20
108.195648
 30
0.0
 70
0
  0
VERTEX
  8
0
 10
157.347839
 20
109.195648
 30
0.0
 70
0
  0
VERTEX
  8
0
 10
157.347839
 20
115.195648
 30
0.0
 70
0
  0
SEQEND
  8
0
  0
POLYLINE
  8
0
 62
4
 66
1
 10
0.0
 20
0.0
 30
0.0
 70
2
  0
VERTEX
  8
0
 10
158.347839
 20
116.195648
 30
0.0
 70
0
  0
VERTEX
  8
0
 10
170.347839
 20
116.195648
 30
0.0
 70
0
  0
VERTEX
  8
0
 10
171.347839
 20
117.195648
 30
0.0
 70
0
  0
VERTEX
  8
0
 10
171.347839
 20
159.195648
 30
0.0
 70
0
  0
VERTEX
  8
0
 10
170.347839
 20
160.195648
 30
0.0
 70
0
  0
VERTEX
  8
0
 10
158.347839
 20
160.195648
 30
0.0
 70
0
  0
SEQEND
  8
0
  0
POLYLINE
  8
0
 62
4
 66
1
 10
0.0
 20
0.0
 30
0.0
 70
2
  0
VERTEX
  8
0
 10
157.347839
 20
161.195648
 30
0.0
 70
0
  0
VERTEX
  8
0
 10
157.347839
 20
167.195648
 30
0.0
 70
0
  0
VERTEX
  8
0
 10
156.347839
 20
168.195648
 30
0.0
 70
0
  0
VERTEX
  8
0
 10
138.347839
 20
168.195648
 30
0.0
 70
0
  0
VERTEX
  8
0
 10
137.347839
 20
167.195648
 30
0.0
 70
0
  0
VERTEX
  8
0
 10
137.347839
 20
124.695648
 30
0.0
 70
0
  0
SEQEND
  8
0
  0
CIRCLE
  8
0
 62
4
 10
325.608704
 20
138.195648
 30
0.0
 40
22.0
  0
ENDSEC
  0
EOF
