  0
SECTION
  2
ENTITIES
  0
LINE
  8
0
 62
4
 10
200.739136
 20
273.853271
 30
0.0
 11
220.739136
 21
273.853271
 31
0.0
  0
LINE
  8
0
 62
4
 10
200.739136
 20
130.103256
 30
0.0
 11
220.739136
 21
130.103256
 31
0.0
  0
LINE
  8
0
 62
4
 10
233.739136
 20
184.478256
 30
0.0
 11
234.739136
 21
183.478256
 31
0.0
  0
LINE
  8
0
 62
4
 10
233.739136
 20
219.478256
 30
0.0
 11
234.739136
 21
220.478256
 31
0.0
  0
LINE
  8
0
 62
4
 10
201.739136
 20
219.478256
 30
0.0
 11
201.739136
 21
184.478256
 31
0.0
  0
POLYLINE
  8
0
 62
4
 66
1
 10
0.0
 20
0.0
 30
0.0
 70
2
  0
VERTEX
  8
0
 10
200.739136
 20
183.478256
 30
0.0
 70
0
  0
VERTEX
  8
0
 10
201.739136
 20
184.478256
 30
0.0
 70
0
  0
VERTEX
  8
0
 10
233.739136
 20
184.478256
 30
0.0
 70
0
  0
VERTEX
  8
0
 10
233.739136
 20
219.478256
 30
0.0
 70
0
  0
VERTEX
  8
0
 10
201.739136
 20
219.478256
 30
0.0
 70
0
  0
VERTEX
  8
0
 10
200.739136
 20
220.478256
 30
0.0
 70
0
  0
SEQEND
  8
0
  0
ARC
  8
0
 62
4
 10
222.239136
 20
243.478256
 30
0.0
 40
1.5
 50
180.0
 51
270.0
  0
ARC
  8
0
 62
4
 10
222.239136
 20
160.478256
 30
0.0
 40
1.5
 50
90.0
 51
180.0
  0
ARC
  8
0
 62
4
 10
468.043488
 20
201.978256
 30
0.0
 40
17.5
 50
106.60154992625478
 51
73.39845007374521
  0
POLYLINE
  8
0
 62
4
 66
1
 10
0.0
 20
0.0
 30
0.0
 70
2
  0
VERTEX
  8
0
 10
473.043488
 20
218.748764
 30
0.0
 70
0
  0
VERTEX
  8
0
 10
473.043488
 20
222.778259
 30
0.0
 70
0
  0
VERTEX
  8
0
 10
463.043488
 20
222.778259
 30
0.0
 70
0
  0
VERTEX
  8
0
 10
463.043488
 20
218.748764
 30
0.0
 70
0
  0
SEQEND
  8
0
  0
LINE
  8
0
 62
4
 10
200.739136
 20
222.778259
 30
0.0
 11
234.739136
 21
222.778259
 31
0.0
  0
POLYLINE
  8
0
 62
4
 66
1
 10
0.0
 20
0.0
 30
0.0
 70
2
  0
VERTEX
  8
0
 10
231.739136
 20
241.978256
 30
0.0
 70
0
  0
VERTEX
  8
0
 10
231.739136
 20
222.778259
 30
0.0
 70
0
  0
SEQEND
  8
0
  0
POLYLINE
  8
0
 62
4
 66
1
 10
0.0
 20
0.0
 30
0.0
 70
2
  0
VERTEX
  8
0
 10
223.739136
 20
241.978256
 30
0.0
 70
0
  0
VERTEX
  8
0
 10
223.739136
 20
222.778259
 30
0.0
 70
0
  0
SEQEND
  8
0
  0
POLYLINE
  8
0
 62
4
 66
1
 10
0.0
 20
0.0
 30
0.0
 70
2
  0
VERTEX
  8
0
 10
231.064133
 20
241.978256
 30
0.0
 70
0
  0
VERTEX
  8
0
 10
231.064133
 20
222.778259
 30
0.0
 70
0
  0
SEQEND
  8
0
  0
POLYLINE
  8
0
 62
4
 66
1
 10
0.0
 20
0.0
 30
0.0
 70
2
  0
VERTEX
  8
0
 10
224.414139
 20
241.978256
 30
0.0
 70
0
  0
VERTEX
  8
0
 10
224.414139
 20
222.778259
 30
0.0
 70
0
  0
SEQEND
  8
0
  0
POLYLINE
  8
0
 62
4
 66
1
 10
0.0
 20
0.0
 30
0.0
 70
2
  0
VERTEX
  8
0
 10
464.043488
 20
222.778259
 30
0.0
 70
0
  0
VERTEX
  8
0
 10
464.043488
 20
241.777756
 30
0.0
 70
0
  0
SEQEND
  8
0
  0
POLYLINE
  8
0
 62
4
 66
1
 10
0.0
 20
0.0
 30
0.0
 70
2
  0
VERTEX
  8
0
 10
472.043488
 20
222.778259
 30
0.0
 70
0
  0
VERTEX
  8
0
 10
472.043488
 20
241.777756
 30
0.0
 70
0
  0
SEQEND
  8
0
  0
POLYLINE
  8
0
 62
4
 66
1
 10
0.0
 20
0.0
 30
0.0
 70
2
  0
VERTEX
  8
0
 10
464.718475
 20
222.778259
 30
0.0
 70
0
  0
VERTEX
  8
0
 10
464.718475
 20
241.839813
 30
0.0
 70
0
  0
SEQEND
  8
0
  0
POLYLINE
  8
0
 62
4
 66
1
 10
0.0
 20
0.0
 30
0.0
 70
2
  0
VERTEX
  8
0
 10
471.3685
 20
222.778259
 30
0.0
 70
0
  0
VERTEX
  8
0
 10
471.3685
 20
241.839813
 30
0.0
 70
0
  0
SEQEND
  8
0
  0
CIRCLE
  8
0
 62
7
 10
227.739136
 20
201.978256
 30
0.0
 40
4.0
  0
CIRCLE
  8
0
 62
4
 10
227.739136
 20
201.978256
 30
0.0
 40
3.325
  0
POLYLINE
  8
0
 62
4
 66
1
 10
0.0
 20
0.0
 30
0.0
 70
2
  0
VERTEX
  8
0
 10
485.0802
 20
205.978256
 30
0.0
 70
0
  0
VERTEX
  8
0
 10
507.842987
 20
205.978256
 30
0.0
 70
0
  0
SEQEND
  8
0
  0
POLYLINE
  8
0
 62
4
 66
1
 10
0.0
 20
0.0
 30
0.0
 70
2
  0
VERTEX
  8
0
 10
485.0802
 20
197.978256
 30
0.0
 70
0
  0
VERTEX
  8
0
 10
507.842987
 20
197.978256
 30
0.0
 70
0
  0
SEQEND
  8
0
  0
POLYLINE
  8
0
 62
4
 66
1
 10
0.0
 20
0.0
 30
0.0
 70
2
  0
VERTEX
  8
0
 10
485.224701
 20
205.303253
 30
0.0
 70
0
  0
VERTEX
  8
0
 10
507.90506
 20
205.303253
 30
0.0
 70
0
  0
SEQEND
  8
0
  0
POLYLINE
  8
0
 62
4
 66
1
 10
0.0
 20
0.0
 30
0.0
 70
2
  0
VERTEX
  8
0
 10
485.224701
 20
198.653259
 30
0.0
 70
0
  0
VERTEX
  8
0
 10
507.90506
 20
198.653259
 30
0.0
 70
0
  0
SEQEND
  8
0
  0
POLYLINE
  8
0
 62
4
 66
1
 10
0.0
 20
0.0
 30
0.0
 70
2
  0
VERTEX
  8
0
 10
200.739136
 20
183.478256
 30
0.0
 70
0
  0
VERTEX
  8
0
 10
200.739136
 20
125.478256
 30
0.0
 70
0
  0
VERTEX
  8
0
 10
201.739136
 20
124.478256
 30
0.0
 70
0
  0
VERTEX
  8
0
 10
219.739136
 20
124.478256
 30
0.0
 70
0
  0
VERTEX
  8
0
 10
220.739136
 20
125.478256
 30
0.0
 70
0
  0
VERTEX
  8
0
 10
220.739136
 20
160.478256
 30
0.0
 70
0
  0
SEQEND
  8
0
  0
POLYLINE
  8
0
 62
4
 66
1
 10
0.0
 20
0.0
 30
0.0
 70
2
  0
VERTEX
  8
0
 10
222.239136
 20
161.978256
 30
0.0
 70
0
  0
VERTEX
  8
0
 10
233.739136
 20
161.978256
 30
0.0
 70
0
  0
VERTEX
  8
0
 10
234.739136
 20
162.978256
 30
0.0
 70
0
  0
VERTEX
  8
0
 10
234.739136
 20
240.978256
 30
0.0
 70
0
  0
VERTEX
  8
0
 10
233.739136
 20
241.978256
 30
0.0
 70
0
  0
VERTEX
  8
0
 10
222.239136
 20
241.978256
 30
0.0
 70
0
  0
SEQEND
  8
0
  0
POLYLINE
  8
0
 62
4
 66
1
 10
0.0
 20
0.0
 30
0.0
 70
2
  0
VERTEX
  8
0
 10
220.739136
 20
243.478256
 30
0.0
 70
0
  0
VERTEX
  8
0
 10
220.739136
 20
278.478271
 30
0.0
 70
0
  0
VERTEX
  8
0
 10
219.739136
 20
279.478271
 30
0.0
 70
0
  0
VERTEX
  8
0
 10
201.739136
 20
279.478271
 30
0.0
 70
0
  0
VERTEX
  8
0
 10
200.739136
 20
278.478271
 30
0.0
 70
0
  0
VERTEX
  8
0
 10
200.739136
 20
183.478256
 30
0.0
 70
0
  0
SEQEND
  8
0
  0
CIRCLE
  8
0
 62
4
 10
468.043488
 20
201.978256
 30
0.0
 40
40.0
  0
ENDSEC
  0
EOF
