  0
SECTION
  2
ENTITIES
  0
LINE
  8
0
 62
4
 10
156.717407
 20
200.184784
 30
0.0
 11
172.717407
 21
200.184784
 31
0.0
  0
LINE
  8
0
 62
4
 10
156.717407
 20
115.184784
 30
0.0
 11
172.717407
 21
115.184784
 31
0.0
  0
LINE
  8
0
 62
4
 10
184.717407
 20
146.684784
 30
0.0
 11
185.717407
 21
145.684784
 31
0.0
  0
LINE
  8
0
 62
4
 10
184.717407
 20
168.684784
 30
0.0
 11
185.717407
 21
169.684784
 31
0.0
  0
LINE
  8
0
 62
4
 10
157.717407
 20
168.684784
 30
0.0
 11
157.717407
 21
146.684784
 31
0.0
  0
POLYLINE
  8
0
 62
4
 66
1
 10
0.0
 20
0.0
 30
0.0
 70
2
  0
VERTEX
  8
0
 10
156.717407
 20
145.684784
 30
0.0
 70
0
  0
VERTEX
  8
0
 10
157.717407
 20
146.684784
 30
0.0
 70
0
  0
VERTEX
  8
0
 10
184.717407
 20
146.684784
 30
0.0
 70
0
  0
VERTEX
  8
0
 10
184.717407
 20
168.684784
 30
0.0
 70
0
  0
VERTEX
  8
0
 10
157.717407
 20
168.684784
 30
0.0
 70
0
  0
VERTEX
  8
0
 10
156.717407
 20
169.684784
 30
0.0
 70
0
  0
SEQEND
  8
0
  0
ARC
  8
0
 62
4
 10
173.717407
 20
188.684784
 30
0.0
 40
1.0
 50
180.0
 51
270.0
  0
ARC
  8
0
 62
4
 10
173.717407
 20
126.684784
 30
0.0
 40
1.0
 50
90.0
 51
180.0
  0
ARC
  8
0
 62
4
 10
366.630432
 20
157.684784
 30
0.0
 40
11.0
 50
105.82662088647183
 51
74.17337911352817
  0
POLYLINE
  8
0
 62
4
 66
1
 10
0.0
 20
0.0
 30
0.0
 70
2
  0
VERTEX
  8
0
 10
369.630432
 20
168.267792
 30
0.0
 70
0
  0
VERTEX
  8
0
 10
369.630432
 20
171.484787
 30
0.0
 70
0
  0
VERTEX
  8
0
 10
363.630432
 20
171.484787
 30
0.0
 70
0
  0
VERTEX
  8
0
 10
363.630432
 20
168.267792
 30
0.0
 70
0
  0
SEQEND
  8
0
  0
LINE
  8
0
 62
4
 10
156.717407
 20
171.484787
 30
0.0
 11
185.717407
 21
171.484787
 31
0.0
  0
POLYLINE
  8
0
 62
4
 66
1
 10
0.0
 20
0.0
 30
0.0
 70
2
  0
VERTEX
  8
0
 10
181.717407
 20
187.684784
 30
0.0
 70
0
  0
VERTEX
  8
0
 10
181.717407
 20
171.484787
 30
0.0
 70
0
  0
SEQEND
  8
0
  0
POLYLINE
  8
0
 62
4
 66
1
 10
0.0
 20
0.0
 30
0.0
 70
2
  0
VERTEX
  8
0
 10
176.717407
 20
187.684784
 30
0.0
 70
0
  0
VERTEX
  8
0
 10
176.717407
 20
171.484787
 30
0.0
 70
0
  0
SEQEND
  8
0
  0
POLYLINE
  8
0
 62
4
 66
1
 10
0.0
 20
0.0
 30
0.0
 70
2
  0
VERTEX
  8
0
 10
181.28241
 20
187.684784
 30
0.0
 70
0
  0
VERTEX
  8
0
 10
181.28241
 20
171.484787
 30
0.0
 70
0
  0
SEQEND
  8
0
  0
POLYLINE
  8
0
 62
4
 66
1
 10
0.0
 20
0.0
 30
0.0
 70
2
  0
VERTEX
  8
0
 10
177.152405
 20
187.684784
 30
0.0
 70
0
  0
VERTEX
  8
0
 10
177.152405
 20
171.484787
 30
0.0
 70
0
  0
SEQEND
  8
0
  0
POLYLINE
  8
0
 62
4
 66
1
 10
0.0
 20
0.0
 30
0.0
 70
2
  0
VERTEX
  8
0
 10
364.130432
 20
171.484787
 30
0.0
 70
0
  0
VERTEX
  8
0
 10
364.130432
 20
187.580444
 30
0.0
 70
0
  0
SEQEND
  8
0
  0
POLYLINE
  8
0
 62
4
 66
1
 10
0.0
 20
0.0
 30
0.0
 70
2
  0
VERTEX
  8
0
 10
369.130432
 20
171.484787
 30
0.0
 70
0
  0
VERTEX
  8
0
 10
369.130432
 20
187.580444
 30
0.0
 70
0
  0
SEQEND
  8
0
  0
POLYLINE
  8
0
 62
4
 66
1
 10
0.0
 20
0.0
 30
0.0
 70
2
  0
VERTEX
  8
0
 10
364.56543
 20
171.484787
 30
0.0
 70
0
  0
VERTEX
  8
0
 10
364.56543
 20
187.613632
 30
0.0
 70
0
  0
SEQEND
  8
0
  0
POLYLINE
  8
0
 62
4
 66
1
 10
0.0
 20
0.0
 30
0.0
 70
2
  0
VERTEX
  8
0
 10
368.695435
 20
171.484787
 30
0.0
 70
0
  0
VERTEX
  8
0
 10
368.695435
 20
187.613632
 30
0.0
 70
0
  0
SEQEND
  8
0
  0
CIRCLE
  8
0
 62
7
 10
179.217407
 20
157.684784
 30
0.0
 40
2.5
  0
CIRCLE
  8
0
 62
4
 10
179.217407
 20
157.684784
 30
0.0
 40
2.065
  0
POLYLINE
  8
0
 62
4
 66
1
 10
0.0
 20
0.0
 30
0.0
 70
2
  0
VERTEX
  8
0
 10
377.34259
 20
160.184784
 30
0.0
 70
0
  0
VERTEX
  8
0
 10
396.526093
 20
160.184784
 30
0.0
 70
0
  0
SEQEND
  8
0
  0
POLYLINE
  8
0
 62
4
 66
1
 10
0.0
 20
0.0
 30
0.0
 70
2
  0
VERTEX
  8
0
 10
377.34259
 20
155.184784
 30
0.0
 70
0
  0
VERTEX
  8
0
 10
396.526093
 20
155.184784
 30
0.0
 70
0
  0
SEQEND
  8
0
  0
POLYLINE
  8
0
 62
4
 66
1
 10
0.0
 20
0.0
 30
0.0
 70
2
  0
VERTEX
  8
0
 10
377.434875
 20
159.749786
 30
0.0
 70
0
  0
VERTEX
  8
0
 10
396.559296
 20
159.749786
 30
0.0
 70
0
  0
SEQEND
  8
0
  0
POLYLINE
  8
0
 62
4
 66
1
 10
0.0
 20
0.0
 30
0.0
 70
2
  0
VERTEX
  8
0
 10
377.434875
 20
155.619781
 30
0.0
 70
0
  0
VERTEX
  8
0
 10
396.559296
 20
155.619781
 30
0.0
 70
0
  0
SEQEND
  8
0
  0
POLYLINE
  8
0
 62
4
 66
1
 10
0.0
 20
0.0
 30
0.0
 70
2
  0
VERTEX
  8
0
 10
156.717407
 20
145.684784
 30
0.0
 70
0
  0
VERTEX
  8
0
 10
156.717407
 20
111.184784
 30
0.0
 70
0
  0
VERTEX
  8
0
 10
157.217407
 20
110.684784
 30
0.0
 70
0
  0
VERTEX
  8
0
 10
172.217407
 20
110.684784
 30
0.0
 70
0
  0
VERTEX
  8
0
 10
172.717407
 20
111.184784
 30
0.0
 70
0
  0
VERTEX
  8
0
 10
172.717407
 20
126.684784
 30
0.0
 70
0
  0
SEQEND
  8
0
  0
POLYLINE
  8
0
 62
4
 66
1
 10
0.0
 20
0.0
 30
0.0
 70
2
  0
VERTEX
  8
0
 10
173.717407
 20
127.684784
 30
0.0
 70
0
  0
VERTEX
  8
0
 10
185.217407
 20
127.684784
 30
0.0
 70
0
  0
VERTEX
  8
0
 10
185.717407
 20
128.184784
 30
0.0
 70
0
  0
VERTEX
  8
0
 10
185.717407
 20
187.184784
 30
0.0
 70
0
  0
VERTEX
  8
0
 10
185.217407
 20
187.684784
 30
0.0
 70
0
  0
VERTEX
  8
0
 10
173.717407
 20
187.684784
 30
0.0
 70
0
  0
SEQEND
  8
0
  0
POLYLINE
  8
0
 62
4
 66
1
 10
0.0
 20
0.0
 30
0.0
 70
2
  0
VERTEX
  8
0
 10
172.717407
 20
188.684784
 30
0.0
 70
0
  0
VERTEX
  8
0
 10
172.717407
 20
204.184784
 30
0.0
 70
0
  0
VERTEX
  8
0
 10
172.217407
 20
204.684784
 30
0.0
 70
0
  0
VERTEX
  8
0
 10
157.217407
 20
204.684784
 30
0.0
 70
0
  0
VERTEX
  8
0
 10
156.717407
 20
204.184784
 30
0.0
 70
0
  0
VERTEX
  8
0
 10
156.717407
 20
145.684784
 30
0.0
 70
0
  0
SEQEND
  8
0
  0
CIRCLE
  8
0
 62
4
 10
366.630432
 20
157.684784
 30
0.0
 40
30.0
  0
ENDSEC
  0
EOF
