  0
SECTION
  2
ENTITIES
  0
LINE
  8
0
 62
4
 10
213.065216
 20
263.130432
 30
0.0
 11
238.065216
 21
263.130432
 31
0.0
  0
LINE
  8
0
 62
4
 10
213.065216
 20
165.630417
 30
0.0
 11
238.065216
 21
165.630417
 31
0.0
  0
LINE
  8
0
 62
4
 10
253.065216
 20
198.380417
 30
0.0
 11
254.065216
 21
197.380417
 31
0.0
  0
LINE
  8
0
 62
4
 10
253.065216
 20
230.380417
 30
0.0
 11
254.065216
 21
231.380417
 31
0.0
  0
LINE
  8
0
 62
4
 10
214.065216
 20
230.380417
 30
0.0
 11
214.065216
 21
198.380417
 31
0.0
  0
POLYLINE
  8
0
 62
4
 66
1
 10
0.0
 20
0.0
 30
0.0
 70
2
  0
VERTEX
  8
0
 10
213.065216
 20
197.380417
 30
0.0
 70
0
  0
VERTEX
  8
0
 10
214.065216
 20
198.380417
 30
0.0
 70
0
  0
VERTEX
  8
0
 10
253.065216
 20
198.380417
 30
0.0
 70
0
  0
VERTEX
  8
0
 10
253.065216
 20
230.380417
 30
0.0
 70
0
  0
VERTEX
  8
0
 10
214.065216
 20
230.380417
 30
0.0
 70
0
  0
VERTEX
  8
0
 10
213.065216
 20
231.380417
 30
0.0
 70
0
  0
SEQEND
  8
0
  0
ARC
  8
0
 62
4
 10
239.565216
 20
255.880417
 30
0.0
 40
1.5
 50
180.0
 51
270.0
  0
ARC
  8
0
 62
4
 10
239.565216
 20
172.880417
 30
0.0
 40
1.5
 50
90.0
 51
180.0
  0
ARC
  8
0
 62
4
 10
499.239136
 20
214.380417
 30
0.0
 40
16.0
 50
108.20995732853793
 51
71.79004267146207
  0
POLYLINE
  8
0
 62
4
 66
1
 10
0.0
 20
0.0
 30
0.0
 70
2
  0
VERTEX
  8
0
 10
504.239136
 20
229.579102
 30
0.0
 70
0
  0
VERTEX
  8
0
 10
504.239136
 20
233.68042
 30
0.0
 70
0
  0
VERTEX
  8
0
 10
494.239136
 20
233.68042
 30
0.0
 70
0
  0
VERTEX
  8
0
 10
494.239136
 20
229.579102
 30
0.0
 70
0
  0
SEQEND
  8
0
  0
LINE
  8
0
 62
4
 10
213.065216
 20
233.68042
 30
0.0
 11
254.065216
 21
233.68042
 31
0.0
  0
POLYLINE
  8
0
 62
4
 66
1
 10
0.0
 20
0.0
 30
0.0
 70
2
  0
VERTEX
  8
0
 10
250.065216
 20
254.380417
 30
0.0
 70
0
  0
VERTEX
  8
0
 10
250.065216
 20
233.68042
 30
0.0
 70
0
  0
SEQEND
  8
0
  0
POLYLINE
  8
0
 62
4
 66
1
 10
0.0
 20
0.0
 30
0.0
 70
2
  0
VERTEX
  8
0
 10
242.065216
 20
254.380417
 30
0.0
 70
0
  0
VERTEX
  8
0
 10
242.065216
 20
233.68042
 30
0.0
 70
0
  0
SEQEND
  8
0
  0
POLYLINE
  8
0
 62
4
 66
1
 10
0.0
 20
0.0
 30
0.0
 70
2
  0
VERTEX
  8
0
 10
249.390213
 20
254.380417
 30
0.0
 70
0
  0
VERTEX
  8
0
 10
249.390213
 20
233.68042
 30
0.0
 70
0
  0
SEQEND
  8
0
  0
POLYLINE
  8
0
 62
4
 66
1
 10
0.0
 20
0.0
 30
0.0
 70
2
  0
VERTEX
  8
0
 10
242.740219
 20
254.380417
 30
0.0
 70
0
  0
VERTEX
  8
0
 10
242.740219
 20
233.68042
 30
0.0
 70
0
  0
SEQEND
  8
0
  0
POLYLINE
  8
0
 62
4
 66
1
 10
0.0
 20
0.0
 30
0.0
 70
2
  0
VERTEX
  8
0
 10
495.239136
 20
233.68042
 30
0.0
 70
0
  0
VERTEX
  8
0
 10
495.239136
 20
254.179916
 30
0.0
 70
0
  0
SEQEND
  8
0
  0
POLYLINE
  8
0
 62
4
 66
1
 10
0.0
 20
0.0
 30
0.0
 70
2
  0
VERTEX
  8
0
 10
503.239136
 20
233.68042
 30
0.0
 70
0
  0
VERTEX
  8
0
 10
503.239136
 20
254.179916
 30
0.0
 70
0
  0
SEQEND
  8
0
  0
POLYLINE
  8
0
 62
4
 66
1
 10
0.0
 20
0.0
 30
0.0
 70
2
  0
VERTEX
  8
0
 10
495.914124
 20
233.68042
 30
0.0
 70
0
  0
VERTEX
  8
0
 10
495.914124
 20
254.241974
 30
0.0
 70
0
  0
SEQEND
  8
0
  0
POLYLINE
  8
0
 62
4
 66
1
 10
0.0
 20
0.0
 30
0.0
 70
2
  0
VERTEX
  8
0
 10
502.564148
 20
233.68042
 30
0.0
 70
0
  0
VERTEX
  8
0
 10
502.564148
 20
254.241974
 30
0.0
 70
0
  0
SEQEND
  8
0
  0
CIRCLE
  8
0
 62
7
 10
246.065216
 20
214.380417
 30
0.0
 40
4.0
  0
CIRCLE
  8
0
 62
4
 10
246.065216
 20
214.380417
 30
0.0
 40
3.325
  0
POLYLINE
  8
0
 62
4
 66
1
 10
0.0
 20
0.0
 30
0.0
 70
2
  0
VERTEX
  8
0
 10
514.731079
 20
218.380417
 30
0.0
 70
0
  0
VERTEX
  8
0
 10
539.038635
 20
218.380417
 30
0.0
 70
0
  0
SEQEND
  8
0
  0
POLYLINE
  8
0
 62
4
 66
1
 10
0.0
 20
0.0
 30
0.0
 70
2
  0
VERTEX
  8
0
 10
514.731079
 20
210.380417
 30
0.0
 70
0
  0
VERTEX
  8
0
 10
539.038635
 20
210.380417
 30
0.0
 70
0
  0
SEQEND
  8
0
  0
POLYLINE
  8
0
 62
4
 66
1
 10
0.0
 20
0.0
 30
0.0
 70
2
  0
VERTEX
  8
0
 10
514.889832
 20
217.705414
 30
0.0
 70
0
  0
VERTEX
  8
0
 10
539.100708
 20
217.705414
 30
0.0
 70
0
  0
SEQEND
  8
0
  0
POLYLINE
  8
0
 62
4
 66
1
 10
0.0
 20
0.0
 30
0.0
 70
2
  0
VERTEX
  8
0
 10
514.889832
 20
211.05542
 30
0.0
 70
0
  0
VERTEX
  8
0
 10
539.100708
 20
211.05542
 30
0.0
 70
0
  0
SEQEND
  8
0
  0
POLYLINE
  8
0
 62
4
 66
1
 10
0.0
 20
0.0
 30
0.0
 70
2
  0
VERTEX
  8
0
 10
213.065216
 20
197.380417
 30
0.0
 70
0
  0
VERTEX
  8
0
 10
213.065216
 20
159.880417
 30
0.0
 70
0
  0
VERTEX
  8
0
 10
214.065216
 20
158.880417
 30
0.0
 70
0
  0
VERTEX
  8
0
 10
237.065216
 20
158.880417
 30
0.0
 70
0
  0
VERTEX
  8
0
 10
238.065216
 20
159.880417
 30
0.0
 70
0
  0
VERTEX
  8
0
 10
238.065216
 20
172.880417
 30
0.0
 70
0
  0
SEQEND
  8
0
  0
POLYLINE
  8
0
 62
4
 66
1
 10
0.0
 20
0.0
 30
0.0
 70
2
  0
VERTEX
  8
0
 10
239.565216
 20
174.380417
 30
0.0
 70
0
  0
VERTEX
  8
0
 10
253.065216
 20
174.380417
 30
0.0
 70
0
  0
VERTEX
  8
0
 10
254.065216
 20
175.380417
 30
0.0
 70
0
  0
VERTEX
  8
0
 10
254.065216
 20
253.380417
 30
0.0
 70
0
  0
VERTEX
  8
0
 10
253.065216
 20
254.380417
 30
0.0
 70
0
  0
VERTEX
  8
0
 10
239.565216
 20
254.380417
 30
0.0
 70
0
  0
SEQEND
  8
0
  0
POLYLINE
  8
0
 62
4
 66
1
 10
0.0
 20
0.0
 30
0.0
 70
2
  0
VERTEX
  8
0
 10
238.065216
 20
255.880417
 30
0.0
 70
0
  0
VERTEX
  8
0
 10
238.065216
 20
268.880432
 30
0.0
 70
0
  0
VERTEX
  8
0
 10
237.065216
 20
269.880432
 30
0.0
 70
0
  0
VERTEX
  8
0
 10
214.065216
 20
269.880432
 30
0.0
 70
0
  0
VERTEX
  8
0
 10
213.065216
 20
268.880432
 30
0.0
 70
0
  0
VERTEX
  8
0
 10
213.065216
 20
197.380417
 30
0.0
 70
0
  0
SEQEND
  8
0
  0
CIRCLE
  8
0
 62
4
 10
499.239136
 20
214.380417
 30
0.0
 40
40.0
  0
ENDSEC
  0
EOF
