  0
SECTION
  2
ENTITIES
  0
LINE
  8
0
 62
4
 10
160.239136
 20
187.478256
 30
0.0
 11
185.239136
 21
187.478256
 31
0.0
  0
LINE
  8
0
 62
4
 10
160.239136
 20
134.978256
 30
0.0
 11
185.239136
 21
134.978256
 31
0.0
  0
LINE
  8
0
 62
4
 10
200.239136
 20
151.228256
 30
0.0
 11
201.239136
 21
150.228256
 31
0.0
  0
LINE
  8
0
 62
4
 10
200.239136
 20
171.228256
 30
0.0
 11
201.239136
 21
172.228256
 31
0.0
  0
LINE
  8
0
 62
4
 10
161.239136
 20
171.228256
 30
0.0
 11
161.239136
 21
151.228256
 31
0.0
  0
POLYLINE
  8
0
 62
4
 66
1
 10
0.0
 20
0.0
 30
0.0
 70
2
  0
VERTEX
  8
0
 10
160.239136
 20
150.228256
 30
0.0
 70
0
  0
VERTEX
  8
0
 10
161.239136
 20
151.228256
 30
0.0
 70
0
  0
VERTEX
  8
0
 10
200.239136
 20
151.228256
 30
0.0
 70
0
  0
VERTEX
  8
0
 10
200.239136
 20
171.228256
 30
0.0
 70
0
  0
VERTEX
  8
0
 10
161.239136
 20
171.228256
 30
0.0
 70
0
  0
VERTEX
  8
0
 10
160.239136
 20
172.228256
 30
0.0
 70
0
  0
SEQEND
  8
0
  0
ARC
  8
0
 62
4
 10
186.239136
 20
187.228256
 30
0.0
 40
1.0
 50
180.0
 51
270.0
  0
ARC
  8
0
 62
4
 10
186.239136
 20
135.228256
 30
0.0
 40
1.0
 50
90.0
 51
180.0
  0
POLYLINE
  8
0
 62
4
 66
1
 10
0.0
 20
0.0
 30
0.0
 70
2
  0
VERTEX
  8
0
 10
160.239136
 20
150.228256
 30
0.0
 70
0
  0
VERTEX
  8
0
 10
160.239136
 20
129.228256
 30
0.0
 70
0
  0
VERTEX
  8
0
 10
161.239136
 20
128.228256
 30
0.0
 70
0
  0
VERTEX
  8
0
 10
184.239136
 20
128.228256
 30
0.0
 70
0
  0
VERTEX
  8
0
 10
185.239136
 20
129.228256
 30
0.0
 70
0
  0
VERTEX
  8
0
 10
185.239136
 20
135.228256
 30
0.0
 70
0
  0
SEQEND
  8
0
  0
POLYLINE
  8
0
 62
4
 66
1
 10
0.0
 20
0.0
 30
0.0
 70
2
  0
VERTEX
  8
0
 10
186.239136
 20
136.228256
 30
0.0
 70
0
  0
VERTEX
  8
0
 10
200.239136
 20
136.228256
 30
0.0
 70
0
  0
VERTEX
  8
0
 10
201.239136
 20
137.228256
 30
0.0
 70
0
  0
VERTEX
  8
0
 10
201.239136
 20
185.228256
 30
0.0
 70
0
  0
VERTEX
  8
0
 10
200.239136
 20
186.228256
 30
0.0
 70
0
  0
VERTEX
  8
0
 10
186.239136
 20
186.228256
 30
0.0
 70
0
  0
SEQEND
  8
0
  0
POLYLINE
  8
0
 62
4
 66
1
 10
0.0
 20
0.0
 30
0.0
 70
2
  0
VERTEX
  8
0
 10
185.239136
 20
187.228256
 30
0.0
 70
0
  0
VERTEX
  8
0
 10
185.239136
 20
193.228256
 30
0.0
 70
0
  0
VERTEX
  8
0
 10
184.239136
 20
194.228256
 30
0.0
 70
0
  0
VERTEX
  8
0
 10
161.239136
 20
194.228256
 30
0.0
 70
0
  0
VERTEX
  8
0
 10
160.239136
 20
193.228256
 30
0.0
 70
0
  0
VERTEX
  8
0
 10
160.239136
 20
150.228256
 30
0.0
 70
0
  0
SEQEND
  8
0
  0
ENDSEC
  0
EOF
