  0
SECTION
  2
ENTITIES
  0
LINE
  8
0
 62
4
 10
213.065216
 20
270.630432
 30
0.0
 11
238.065216
 21
270.630432
 31
0.0
  0
LINE
  8
0
 62
4
 10
213.065216
 20
158.130417
 30
0.0
 11
238.065216
 21
158.130417
 31
0.0
  0
LINE
  8
0
 62
4
 10
253.065216
 20
191.880417
 30
0.0
 11
254.065216
 21
190.880417
 31
0.0
  0
LINE
  8
0
 62
4
 10
253.065216
 20
236.880417
 30
0.0
 11
254.065216
 21
237.880417
 31
0.0
  0
LINE
  8
0
 62
4
 10
214.065216
 20
236.880417
 30
0.0
 11
214.065216
 21
191.880417
 31
0.0
  0
POLYLINE
  8
0
 62
4
 66
1
 10
0.0
 20
0.0
 30
0.0
 70
2
  0
VERTEX
  8
0
 10
213.065216
 20
190.880417
 30
0.0
 70
0
  0
VERTEX
  8
0
 10
214.065216
 20
191.880417
 30
0.0
 70
0
  0
VERTEX
  8
0
 10
253.065216
 20
191.880417
 30
0.0
 70
0
  0
VERTEX
  8
0
 10
253.065216
 20
236.880417
 30
0.0
 70
0
  0
VERTEX
  8
0
 10
214.065216
 20
236.880417
 30
0.0
 70
0
  0
VERTEX
  8
0
 10
213.065216
 20
237.880417
 30
0.0
 70
0
  0
SEQEND
  8
0
  0
ARC
  8
0
 62
4
 10
239.565216
 20
255.880417
 30
0.0
 40
1.5
 50
180.0
 51
270.0
  0
ARC
  8
0
 62
4
 10
239.565216
 20
172.880417
 30
0.0
 40
1.5
 50
90.0
 51
180.0
  0
ARC
  8
0
 62
4
 10
499.239136
 20
214.380417
 30
0.0
 40
22.5
 50
108.1262038101694
 51
71.87379618983061
  0
POLYLINE
  8
0
 62
4
 66
1
 10
0.0
 20
0.0
 30
0.0
 70
2
  0
VERTEX
  8
0
 10
506.239136
 20
235.763824
 30
0.0
 70
0
  0
VERTEX
  8
0
 10
506.239136
 20
240.68042
 30
0.0
 70
0
  0
VERTEX
  8
0
 10
492.239136
 20
240.68042
 30
0.0
 70
0
  0
VERTEX
  8
0
 10
492.239136
 20
235.763824
 30
0.0
 70
0
  0
SEQEND
  8
0
  0
LINE
  8
0
 62
4
 10
213.065216
 20
240.68042
 30
0.0
 11
254.065216
 21
240.68042
 31
0.0
  0
POLYLINE
  8
0
 62
4
 66
1
 10
0.0
 20
0.0
 30
0.0
 70
2
  0
VERTEX
  8
0
 10
251.065216
 20
254.380417
 30
0.0
 70
0
  0
VERTEX
  8
0
 10
251.065216
 20
240.68042
 30
0.0
 70
0
  0
SEQEND
  8
0
  0
POLYLINE
  8
0
 62
4
 66
1
 10
0.0
 20
0.0
 30
0.0
 70
2
  0
VERTEX
  8
0
 10
241.065216
 20
254.380417
 30
0.0
 70
0
  0
VERTEX
  8
0
 10
241.065216
 20
240.68042
 30
0.0
 70
0
  0
SEQEND
  8
0
  0
POLYLINE
  8
0
 62
4
 66
1
 10
0.0
 20
0.0
 30
0.0
 70
2
  0
VERTEX
  8
0
 10
250.255219
 20
254.380417
 30
0.0
 70
0
  0
VERTEX
  8
0
 10
250.255219
 20
240.68042
 30
0.0
 70
0
  0
SEQEND
  8
0
  0
POLYLINE
  8
0
 62
4
 66
1
 10
0.0
 20
0.0
 30
0.0
 70
2
  0
VERTEX
  8
0
 10
241.875214
 20
254.380417
 30
0.0
 70
0
  0
VERTEX
  8
0
 10
241.875214
 20
240.68042
 30
0.0
 70
0
  0
SEQEND
  8
0
  0
POLYLINE
  8
0
 62
4
 66
1
 10
0.0
 20
0.0
 30
0.0
 70
2
  0
VERTEX
  8
0
 10
494.239136
 20
240.68042
 30
0.0
 70
0
  0
VERTEX
  8
0
 10
494.239136
 20
254.066681
 30
0.0
 70
0
  0
SEQEND
  8
0
  0
POLYLINE
  8
0
 62
4
 66
1
 10
0.0
 20
0.0
 30
0.0
 70
2
  0
VERTEX
  8
0
 10
504.239136
 20
240.68042
 30
0.0
 70
0
  0
VERTEX
  8
0
 10
504.239136
 20
254.066681
 30
0.0
 70
0
  0
SEQEND
  8
0
  0
POLYLINE
  8
0
 62
4
 66
1
 10
0.0
 20
0.0
 30
0.0
 70
2
  0
VERTEX
  8
0
 10
495.049133
 20
240.68042
 30
0.0
 70
0
  0
VERTEX
  8
0
 10
495.049133
 20
254.160355
 30
0.0
 70
0
  0
SEQEND
  8
0
  0
POLYLINE
  8
0
 62
4
 66
1
 10
0.0
 20
0.0
 30
0.0
 70
2
  0
VERTEX
  8
0
 10
503.429138
 20
240.68042
 30
0.0
 70
0
  0
VERTEX
  8
0
 10
503.429138
 20
254.160355
 30
0.0
 70
0
  0
SEQEND
  8
0
  0
CIRCLE
  8
0
 62
7
 10
246.065216
 20
214.380417
 30
0.0
 40
5.0
  0
CIRCLE
  8
0
 62
4
 10
246.065216
 20
214.380417
 30
0.0
 40
4.19
  0
POLYLINE
  8
0
 62
4
 66
1
 10
0.0
 20
0.0
 30
0.0
 70
2
  0
VERTEX
  8
0
 10
521.176514
 20
219.380417
 30
0.0
 70
0
  0
VERTEX
  8
0
 10
538.925415
 20
219.380417
 30
0.0
 70
0
  0
SEQEND
  8
0
  0
POLYLINE
  8
0
 62
4
 66
1
 10
0.0
 20
0.0
 30
0.0
 70
2
  0
VERTEX
  8
0
 10
521.176514
 20
209.380417
 30
0.0
 70
0
  0
VERTEX
  8
0
 10
538.925415
 20
209.380417
 30
0.0
 70
0
  0
SEQEND
  8
0
  0
POLYLINE
  8
0
 62
4
 66
1
 10
0.0
 20
0.0
 30
0.0
 70
2
  0
VERTEX
  8
0
 10
521.345581
 20
218.570419
 30
0.0
 70
0
  0
VERTEX
  8
0
 10
539.019043
 20
218.570419
 30
0.0
 70
0
  0
SEQEND
  8
0
  0
POLYLINE
  8
0
 62
4
 66
1
 10
0.0
 20
0.0
 30
0.0
 70
2
  0
VERTEX
  8
0
 10
521.345581
 20
210.190414
 30
0.0
 70
0
  0
VERTEX
  8
0
 10
539.019043
 20
210.190414
 30
0.0
 70
0
  0
SEQEND
  8
0
  0
POLYLINE
  8
0
 62
4
 66
1
 10
0.0
 20
0.0
 30
0.0
 70
2
  0
VERTEX
  8
0
 10
213.065216
 20
190.880417
 30
0.0
 70
0
  0
VERTEX
  8
0
 10
213.065216
 20
152.380417
 30
0.0
 70
0
  0
VERTEX
  8
0
 10
214.065216
 20
151.380417
 30
0.0
 70
0
  0
VERTEX
  8
0
 10
237.065216
 20
151.380417
 30
0.0
 70
0
  0
VERTEX
  8
0
 10
238.065216
 20
152.380417
 30
0.0
 70
0
  0
VERTEX
  8
0
 10
238.065216
 20
172.880417
 30
0.0
 70
0
  0
SEQEND
  8
0
  0
POLYLINE
  8
0
 62
4
 66
1
 10
0.0
 20
0.0
 30
0.0
 70
2
  0
VERTEX
  8
0
 10
239.565216
 20
174.380417
 30
0.0
 70
0
  0
VERTEX
  8
0
 10
253.065216
 20
174.380417
 30
0.0
 70
0
  0
VERTEX
  8
0
 10
254.065216
 20
175.380417
 30
0.0
 70
0
  0
VERTEX
  8
0
 10
254.065216
 20
253.380417
 30
0.0
 70
0
  0
VERTEX
  8
0
 10
253.065216
 20
254.380417
 30
0.0
 70
0
  0
VERTEX
  8
0
 10
239.565216
 20
254.380417
 30
0.0
 70
0
  0
SEQEND
  8
0
  0
POLYLINE
  8
0
 62
4
 66
1
 10
0.0
 20
0.0
 30
0.0
 70
2
  0
VERTEX
  8
0
 10
238.065216
 20
255.880417
 30
0.0
 70
0
  0
VERTEX
  8
0
 10
238.065216
 20
276.380432
 30
0.0
 70
0
  0
VERTEX
  8
0
 10
237.065216
 20
277.380432
 30
0.0
 70
0
  0
VERTEX
  8
0
 10
214.065216
 20
277.380432
 30
0.0
 70
0
  0
VERTEX
  8
0
 10
213.065216
 20
276.380432
 30
0.0
 70
0
  0
VERTEX
  8
0
 10
213.065216
 20
190.880417
 30
0.0
 70
0
  0
SEQEND
  8
0
  0
CIRCLE
  8
0
 62
4
 10
499.239136
 20
214.380417
 30
0.0
 40
40.0
  0
ENDSEC
  0
EOF
