  0
SECTION
  2
ENTITIES
  0
LINE
  8
0
 62
4
 10
142.630432
 20
166.760864
 30
0.0
 11
167.630432
 21
166.760864
 31
0.0
  0
LINE
  8
0
 62
4
 10
142.630432
 20
120.260864
 30
0.0
 11
167.630432
 21
120.260864
 31
0.0
  0
LINE
  8
0
 62
4
 10
183.130432
 20
134.010864
 30
0.0
 11
183.630432
 21
133.510864
 31
0.0
  0
LINE
  8
0
 62
4
 10
183.130432
 20
153.010864
 30
0.0
 11
183.630432
 21
153.510864
 31
0.0
  0
LINE
  8
0
 62
4
 10
143.130432
 20
153.010864
 30
0.0
 11
143.130432
 21
134.010864
 31
0.0
  0
POLYLINE
  8
0
 62
4
 66
1
 10
0.0
 20
0.0
 30
0.0
 70
2
  0
VERTEX
  8
0
 10
142.630432
 20
133.510864
 30
0.0
 70
0
  0
VERTEX
  8
0
 10
143.130432
 20
134.010864
 30
0.0
 70
0
  0
VERTEX
  8
0
 10
183.130432
 20
134.010864
 30
0.0
 70
0
  0
VERTEX
  8
0
 10
183.130432
 20
153.010864
 30
0.0
 70
0
  0
VERTEX
  8
0
 10
143.130432
 20
153.010864
 30
0.0
 70
0
  0
VERTEX
  8
0
 10
142.630432
 20
153.510864
 30
0.0
 70
0
  0
SEQEND
  8
0
  0
ARC
  8
0
 62
4
 10
168.630432
 20
164.510864
 30
0.0
 40
1.0
 50
180.0
 51
270.0
  0
ARC
  8
0
 62
4
 10
168.630432
 20
122.510864
 30
0.0
 40
1.0
 50
90.0
 51
180.0
  0
ARC
  8
0
 62
4
 10
340.978271
 20
143.510864
 30
0.0
 40
9.5
 50
108.4084803259778
 51
71.5915196740222
  0
POLYLINE
  8
0
 62
4
 66
1
 10
0.0
 20
0.0
 30
0.0
 70
2
  0
VERTEX
  8
0
 10
343.978271
 20
152.52475
 30
0.0
 70
0
  0
VERTEX
  8
0
 10
343.978271
 20
155.810867
 30
0.0
 70
0
  0
VERTEX
  8
0
 10
337.978271
 20
155.810867
 30
0.0
 70
0
  0
VERTEX
  8
0
 10
337.978271
 20
152.52475
 30
0.0
 70
0
  0
SEQEND
  8
0
  0
LINE
  8
0
 62
4
 10
142.630432
 20
155.810867
 30
0.0
 11
183.630432
 21
155.810867
 31
0.0
  0
POLYLINE
  8
0
 62
4
 66
1
 10
0.0
 20
0.0
 30
0.0
 70
2
  0
VERTEX
  8
0
 10
178.130432
 20
163.510864
 30
0.0
 70
0
  0
VERTEX
  8
0
 10
178.130432
 20
155.810867
 30
0.0
 70
0
  0
SEQEND
  8
0
  0
POLYLINE
  8
0
 62
4
 66
1
 10
0.0
 20
0.0
 30
0.0
 70
2
  0
VERTEX
  8
0
 10
173.130432
 20
163.510864
 30
0.0
 70
0
  0
VERTEX
  8
0
 10
173.130432
 20
155.810867
 30
0.0
 70
0
  0
SEQEND
  8
0
  0
POLYLINE
  8
0
 62
4
 66
1
 10
0.0
 20
0.0
 30
0.0
 70
2
  0
VERTEX
  8
0
 10
177.695435
 20
163.510864
 30
0.0
 70
0
  0
VERTEX
  8
0
 10
177.695435
 20
155.810867
 30
0.0
 70
0
  0
SEQEND
  8
0
  0
POLYLINE
  8
0
 62
4
 66
1
 10
0.0
 20
0.0
 30
0.0
 70
2
  0
VERTEX
  8
0
 10
173.56543
 20
163.510864
 30
0.0
 70
0
  0
VERTEX
  8
0
 10
173.56543
 20
155.810867
 30
0.0
 70
0
  0
SEQEND
  8
0
  0
POLYLINE
  8
0
 62
4
 66
1
 10
0.0
 20
0.0
 30
0.0
 70
2
  0
VERTEX
  8
0
 10
338.478271
 20
155.810867
 30
0.0
 70
0
  0
VERTEX
  8
0
 10
338.478271
 20
163.354004
 30
0.0
 70
0
  0
SEQEND
  8
0
  0
POLYLINE
  8
0
 62
4
 66
1
 10
0.0
 20
0.0
 30
0.0
 70
2
  0
VERTEX
  8
0
 10
343.478271
 20
155.810867
 30
0.0
 70
0
  0
VERTEX
  8
0
 10
343.478271
 20
163.354004
 30
0.0
 70
0
  0
SEQEND
  8
0
  0
POLYLINE
  8
0
 62
4
 66
1
 10
0.0
 20
0.0
 30
0.0
 70
2
  0
VERTEX
  8
0
 10
338.913269
 20
155.810867
 30
0.0
 70
0
  0
VERTEX
  8
0
 10
338.913269
 20
163.403976
 30
0.0
 70
0
  0
SEQEND
  8
0
  0
POLYLINE
  8
0
 62
4
 66
1
 10
0.0
 20
0.0
 30
0.0
 70
2
  0
VERTEX
  8
0
 10
343.043274
 20
155.810867
 30
0.0
 70
0
  0
VERTEX
  8
0
 10
343.043274
 20
163.403976
 30
0.0
 70
0
  0
SEQEND
  8
0
  0
CIRCLE
  8
0
 62
7
 10
175.630432
 20
143.510864
 30
0.0
 40
2.5
  0
CIRCLE
  8
0
 62
4
 10
175.630432
 20
143.510864
 30
0.0
 40
2.065
  0
POLYLINE
  8
0
 62
4
 66
1
 10
0.0
 20
0.0
 30
0.0
 70
2
  0
VERTEX
  8
0
 10
350.143402
 20
146.010864
 30
0.0
 70
0
  0
VERTEX
  8
0
 10
360.821411
 20
146.010864
 30
0.0
 70
0
  0
SEQEND
  8
0
  0
POLYLINE
  8
0
 62
4
 66
1
 10
0.0
 20
0.0
 30
0.0
 70
2
  0
VERTEX
  8
0
 10
350.143402
 20
141.010864
 30
0.0
 70
0
  0
VERTEX
  8
0
 10
360.821411
 20
141.010864
 30
0.0
 70
0
  0
SEQEND
  8
0
  0
POLYLINE
  8
0
 62
4
 66
1
 10
0.0
 20
0.0
 30
0.0
 70
2
  0
VERTEX
  8
0
 10
350.251099
 20
145.575867
 30
0.0
 70
0
  0
VERTEX
  8
0
 10
360.871368
 20
145.575867
 30
0.0
 70
0
  0
SEQEND
  8
0
  0
POLYLINE
  8
0
 62
4
 66
1
 10
0.0
 20
0.0
 30
0.0
 70
2
  0
VERTEX
  8
0
 10
350.251099
 20
141.445862
 30
0.0
 70
0
  0
VERTEX
  8
0
 10
360.871368
 20
141.445862
 30
0.0
 70
0
  0
SEQEND
  8
0
  0
POLYLINE
  8
0
 62
4
 66
1
 10
0.0
 20
0.0
 30
0.0
 70
2
  0
VERTEX
  8
0
 10
142.630432
 20
133.510864
 30
0.0
 70
0
  0
VERTEX
  8
0
 10
142.630432
 20
114.510864
 30
0.0
 70
0
  0
VERTEX
  8
0
 10
143.630432
 20
113.510864
 30
0.0
 70
0
  0
VERTEX
  8
0
 10
166.630432
 20
113.510864
 30
0.0
 70
0
  0
VERTEX
  8
0
 10
167.630432
 20
114.510864
 30
0.0
 70
0
  0
VERTEX
  8
0
 10
167.630432
 20
122.510864
 30
0.0
 70
0
  0
SEQEND
  8
0
  0
POLYLINE
  8
0
 62
4
 66
1
 10
0.0
 20
0.0
 30
0.0
 70
2
  0
VERTEX
  8
0
 10
168.630432
 20
123.510864
 30
0.0
 70
0
  0
VERTEX
  8
0
 10
182.630432
 20
123.510864
 30
0.0
 70
0
  0
VERTEX
  8
0
 10
183.630432
 20
124.510864
 30
0.0
 70
0
  0
VERTEX
  8
0
 10
183.630432
 20
162.510864
 30
0.0
 70
0
  0
VERTEX
  8
0
 10
182.630432
 20
163.510864
 30
0.0
 70
0
  0
VERTEX
  8
0
 10
168.630432
 20
163.510864
 30
0.0
 70
0
  0
SEQEND
  8
0
  0
POLYLINE
  8
0
 62
4
 66
1
 10
0.0
 20
0.0
 30
0.0
 70
2
  0
VERTEX
  8
0
 10
167.630432
 20
164.510864
 30
0.0
 70
0
  0
VERTEX
  8
0
 10
167.630432
 20
172.510864
 30
0.0
 70
0
  0
VERTEX
  8
0
 10
166.630432
 20
173.510864
 30
0.0
 70
0
  0
VERTEX
  8
0
 10
143.630432
 20
173.510864
 30
0.0
 70
0
  0
VERTEX
  8
0
 10
142.630432
 20
172.510864
 30
0.0
 70
0
  0
VERTEX
  8
0
 10
142.630432
 20
133.510864
 30
0.0
 70
0
  0
SEQEND
  8
0
  0
CIRCLE
  8
0
 62
4
 10
340.978271
 20
143.510864
 30
0.0
 40
20.0
  0
ENDSEC
  0
EOF
