  0
SECTION
  2
ENTITIES
  0
ARC
  8
0
 62
4
 10
239.216217
 20
274.770264
 30
0.0
 40
2.0
 50
270.0
 51
0.0
  0
ARC
  8
0
 62
4
 10
239.216217
 20
200.770248
 30
0.0
 40
2.0
 50
0.0
 51
90.0
  0
LINE
  8
0
 62
4
 10
236.216217
 20
309.020264
 30
0.0
 11
266.216217
 21
309.020264
 31
0.0
  0
LINE
  8
0
 62
4
 10
236.216217
 20
166.520248
 30
0.0
 11
266.216217
 21
166.520248
 31
0.0
  0
LINE
  8
0
 62
4
 10
281.216217
 20
258.770264
 30
0.0
 11
280.216217
 21
257.770264
 31
0.0
  0
LINE
  8
0
 62
4
 10
281.216217
 20
216.770248
 30
0.0
 11
280.216217
 21
217.770248
 31
0.0
  0
LINE
  8
0
 62
4
 10
236.216217
 20
216.770248
 30
0.0
 11
237.216217
 21
217.770248
 31
0.0
  0
LINE
  8
0
 62
4
 10
236.216217
 20
272.770264
 30
0.0
 11
239.216217
 21
272.770264
 31
0.0
  0
LINE
  8
0
 62
4
 10
236.216217
 20
202.770248
 30
0.0
 11
239.216217
 21
202.770248
 31
0.0
  0
POLYLINE
  8
0
 62
4
 66
1
 10
0.0
 20
0.0
 30
0.0
 70
2
  0
VERTEX
  8
0
 10
261.216217
 20
274.770264
 30
0.0
 70
0
  0
VERTEX
  8
0
 10
261.216217
 20
290.957184
 30
0.0
 70
0
  0
VERTEX
  8
0
 10
266.216217
 20
300.770264
 30
0.0
 70
0
  0
SEQEND
  8
0
  0
POLYLINE
  8
0
 62
4
 66
1
 10
0.0
 20
0.0
 30
0.0
 70
2
  0
VERTEX
  8
0
 10
241.216217
 20
274.770264
 30
0.0
 70
0
  0
VERTEX
  8
0
 10
241.216217
 20
290.957184
 30
0.0
 70
0
  0
VERTEX
  8
0
 10
236.216217
 20
300.770264
 30
0.0
 70
0
  0
SEQEND
  8
0
  0
POLYLINE
  8
0
 62
4
 66
1
 10
0.0
 20
0.0
 30
0.0
 70
2
  0
VERTEX
  8
0
 10
261.216217
 20
200.770248
 30
0.0
 70
0
  0
VERTEX
  8
0
 10
261.216217
 20
184.583298
 30
0.0
 70
0
  0
VERTEX
  8
0
 10
266.216217
 20
174.770248
 30
0.0
 70
0
  0
SEQEND
  8
0
  0
POLYLINE
  8
0
 62
4
 66
1
 10
0.0
 20
0.0
 30
0.0
 70
2
  0
VERTEX
  8
0
 10
241.216217
 20
200.770248
 30
0.0
 70
0
  0
VERTEX
  8
0
 10
241.216217
 20
184.583298
 30
0.0
 70
0
  0
VERTEX
  8
0
 10
236.216217
 20
174.770248
 30
0.0
 70
0
  0
SEQEND
  8
0
  0
POLYLINE
  8
0
 62
4
 66
1
 10
0.0
 20
0.0
 30
0.0
 70
2
  0
VERTEX
  8
0
 10
236.216217
 20
258.770264
 30
0.0
 70
0
  0
VERTEX
  8
0
 10
237.216217
 20
257.770264
 30
0.0
 70
0
  0
VERTEX
  8
0
 10
237.216217
 20
217.770248
 30
0.0
 70
0
  0
VERTEX
  8
0
 10
280.216217
 20
217.770248
 30
0.0
 70
0
  0
VERTEX
  8
0
 10
280.216217
 20
257.770264
 30
0.0
 70
0
  0
VERTEX
  8
0
 10
237.216217
 20
257.770264
 30
0.0
 70
0
  0
SEQEND
  8
0
  0
ARC
  8
0
 62
4
 10
611.48645
 20
237.770248
 30
0.0
 40
20.0
 50
107.45760274776076
 51
72.54239725223924
  0
POLYLINE
  8
0
 62
4
 66
1
 10
0.0
 20
0.0
 30
0.0
 70
2
  0
VERTEX
  8
0
 10
617.48645
 20
256.84903
 30
0.0
 70
0
  0
VERTEX
  8
0
 10
617.48645
 20
261.070251
 30
0.0
 70
0
  0
VERTEX
  8
0
 10
605.48645
 20
261.070251
 30
0.0
 70
0
  0
VERTEX
  8
0
 10
605.48645
 20
256.84903
 30
0.0
 70
0
  0
SEQEND
  8
0
  0
LINE
  8
0
 62
4
 10
236.216217
 20
261.070251
 30
0.0
 11
281.216217
 21
261.070251
 31
0.0
  0
POLYLINE
  8
0
 62
4
 66
1
 10
0.0
 20
0.0
 30
0.0
 70
2
  0
VERTEX
  8
0
 10
236.216217
 20
216.770248
 30
0.0
 70
0
  0
VERTEX
  8
0
 10
236.216217
 20
160.770248
 30
0.0
 70
0
  0
VERTEX
  8
0
 10
237.216217
 20
159.770248
 30
0.0
 70
0
  0
VERTEX
  8
0
 10
265.216217
 20
159.770248
 30
0.0
 70
0
  0
VERTEX
  8
0
 10
266.216217
 20
160.770248
 30
0.0
 70
0
  0
VERTEX
  8
0
 10
266.216217
 20
202.770248
 30
0.0
 70
0
  0
VERTEX
  8
0
 10
280.216217
 20
202.770248
 30
0.0
 70
0
  0
VERTEX
  8
0
 10
281.216217
 20
203.770248
 30
0.0
 70
0
  0
VERTEX
  8
0
 10
281.216217
 20
271.770264
 30
0.0
 70
0
  0
VERTEX
  8
0
 10
280.216217
 20
272.770264
 30
0.0
 70
0
  0
VERTEX
  8
0
 10
266.216217
 20
272.770264
 30
0.0
 70
0
  0
VERTEX
  8
0
 10
266.216217
 20
314.770264
 30
0.0
 70
0
  0
SEQEND
  8
0
  0
POLYLINE
  8
0
 62
4
 66
1
 10
0.0
 20
0.0
 30
0.0
 70
2
  0
VERTEX
  8
0
 10
266.216217
 20
314.770264
 30
0.0
 70
0
  0
VERTEX
  8
0
 10
265.216217
 20
315.770264
 30
0.0
 70
0
  0
VERTEX
  8
0
 10
237.216217
 20
315.770264
 30
0.0
 70
0
  0
VERTEX
  8
0
 10
236.216217
 20
314.770264
 30
0.0
 70
0
  0
VERTEX
  8
0
 10
236.216217
 20
216.770248
 30
0.0
 70
0
  0
SEQEND
  8
0
  0
ARC
  8
0
 62
4
 10
263.216217
 20
200.770248
 30
0.0
 40
2.0
 50
90.0
 51
180.0
  0
ARC
  8
0
 62
4
 10
263.216217
 20
274.770264
 30
0.0
 40
2.0
 50
180.0
 51
270.0
  0
LINE
  8
0
 62
4
 10
266.216217
 20
202.770248
 30
0.0
 11
263.216217
 21
202.770248
 31
0.0
  0
LINE
  8
0
 62
4
 10
263.216217
 20
272.770264
 30
0.0
 11
266.216217
 21
272.770264
 31
0.0
  0
LINE
  8
0
 62
4
 10
261.216217
 20
290.957184
 30
0.0
 11
261.216217
 21
274.770264
 31
0.0
  0
LINE
  8
0
 62
4
 10
261.216217
 20
200.770248
 30
0.0
 11
261.216217
 21
184.583298
 31
0.0
  0
ENDSEC
  0
EOF
