  0
SECTION
  2
ENTITIES
  0
LINE
  8
0
 62
4
 10
176.086945
 20
210.92392
 30
0.0
 11
206.086945
 21
210.92392
 31
0.0
  0
LINE
  8
0
 62
4
 10
176.086945
 20
143.42392
 30
0.0
 11
206.086945
 21
143.42392
 31
0.0
  0
LINE
  8
0
 62
4
 10
220.086945
 20
162.17392
 30
0.0
 11
221.086945
 21
161.17392
 31
0.0
  0
LINE
  8
0
 62
4
 10
220.086945
 20
192.17392
 30
0.0
 11
221.086945
 21
193.17392
 31
0.0
  0
LINE
  8
0
 62
4
 10
177.086945
 20
192.17392
 30
0.0
 11
177.086945
 21
162.17392
 31
0.0
  0
POLYLINE
  8
0
 62
4
 66
1
 10
0.0
 20
0.0
 30
0.0
 70
2
  0
VERTEX
  8
0
 10
176.086945
 20
161.17392
 30
0.0
 70
0
  0
VERTEX
  8
0
 10
177.086945
 20
162.17392
 30
0.0
 70
0
  0
VERTEX
  8
0
 10
220.086945
 20
162.17392
 30
0.0
 70
0
  0
VERTEX
  8
0
 10
220.086945
 20
192.17392
 30
0.0
 70
0
  0
VERTEX
  8
0
 10
177.086945
 20
192.17392
 30
0.0
 70
0
  0
VERTEX
  8
0
 10
176.086945
 20
193.17392
 30
0.0
 70
0
  0
SEQEND
  8
0
  0
ARC
  8
0
 62
4
 10
207.086945
 20
205.67392
 30
0.0
 40
1.0
 50
180.0
 51
270.0
  0
ARC
  8
0
 62
4
 10
207.086945
 20
148.67392
 30
0.0
 40
1.0
 50
90.0
 51
180.0
  0
ARC
  8
0
 62
4
 10
418.152161
 20
177.17392
 30
0.0
 40
15.0
 50
109.47122094265586
 51
70.52877905734415
  0
POLYLINE
  8
0
 62
4
 66
1
 10
0.0
 20
0.0
 30
0.0
 70
2
  0
VERTEX
  8
0
 10
423.152161
 20
191.316055
 30
0.0
 70
0
  0
VERTEX
  8
0
 10
423.152161
 20
195.473923
 30
0.0
 70
0
  0
VERTEX
  8
0
 10
413.152161
 20
195.473923
 30
0.0
 70
0
  0
VERTEX
  8
0
 10
413.152161
 20
191.316055
 30
0.0
 70
0
  0
SEQEND
  8
0
  0
LINE
  8
0
 62
4
 10
176.086945
 20
195.473923
 30
0.0
 11
221.086945
 21
195.473923
 31
0.0
  0
POLYLINE
  8
0
 62
4
 66
1
 10
0.0
 20
0.0
 30
0.0
 70
2
  0
VERTEX
  8
0
 10
176.086945
 20
161.17392
 30
0.0
 70
0
  0
VERTEX
  8
0
 10
176.086945
 20
137.67392
 30
0.0
 70
0
  0
VERTEX
  8
0
 10
177.086945
 20
136.67392
 30
0.0
 70
0
  0
VERTEX
  8
0
 10
205.086945
 20
136.67392
 30
0.0
 70
0
  0
VERTEX
  8
0
 10
206.086945
 20
137.67392
 30
0.0
 70
0
  0
VERTEX
  8
0
 10
206.086945
 20
148.67392
 30
0.0
 70
0
  0
SEQEND
  8
0
  0
POLYLINE
  8
0
 62
4
 66
1
 10
0.0
 20
0.0
 30
0.0
 70
2
  0
VERTEX
  8
0
 10
207.086945
 20
149.67392
 30
0.0
 70
0
  0
VERTEX
  8
0
 10
220.086945
 20
149.67392
 30
0.0
 70
0
  0
VERTEX
  8
0
 10
221.086945
 20
150.67392
 30
0.0
 70
0
  0
VERTEX
  8
0
 10
221.086945
 20
203.67392
 30
0.0
 70
0
  0
VERTEX
  8
0
 10
220.086945
 20
204.67392
 30
0.0
 70
0
  0
VERTEX
  8
0
 10
207.086945
 20
204.67392
 30
0.0
 70
0
  0
SEQEND
  8
0
  0
POLYLINE
  8
0
 62
4
 66
1
 10
0.0
 20
0.0
 30
0.0
 70
2
  0
VERTEX
  8
0
 10
206.086945
 20
205.67392
 30
0.0
 70
0
  0
VERTEX
  8
0
 10
206.086945
 20
216.67392
 30
0.0
 70
0
  0
VERTEX
  8
0
 10
205.086945
 20
217.67392
 30
0.0
 70
0
  0
VERTEX
  8
0
 10
177.086945
 20
217.67392
 30
0.0
 70
0
  0
VERTEX
  8
0
 10
176.086945
 20
216.67392
 30
0.0
 70
0
  0
VERTEX
  8
0
 10
176.086945
 20
161.17392
 30
0.0
 70
0
  0
SEQEND
  8
0
  0
ENDSEC
  0
EOF
