  0
SECTION
  2
ENTITIES
  0
LINE
  8
0
 62
4
 10
135.586975
 20
179.54892
 30
0.0
 11
150.586975
 21
179.54892
 31
0.0
  0
LINE
  8
0
 62
4
 10
135.586975
 20
93.29892
 30
0.0
 11
150.586975
 21
93.29892
 31
0.0
  0
LINE
  8
0
 62
4
 10
162.086975
 20
130.42392
 30
0.0
 11
162.586975
 21
129.92392
 31
0.0
  0
LINE
  8
0
 62
4
 10
162.086975
 20
142.42392
 30
0.0
 11
162.586975
 21
142.92392
 31
0.0
  0
LINE
  8
0
 62
4
 10
136.086975
 20
142.42392
 30
0.0
 11
136.086975
 21
130.42392
 31
0.0
  0
POLYLINE
  8
0
 62
4
 66
1
 10
0.0
 20
0.0
 30
0.0
 70
2
  0
VERTEX
  8
0
 10
135.586975
 20
129.92392
 30
0.0
 70
0
  0
VERTEX
  8
0
 10
136.086975
 20
130.42392
 30
0.0
 70
0
  0
VERTEX
  8
0
 10
162.086975
 20
130.42392
 30
0.0
 70
0
  0
VERTEX
  8
0
 10
162.086975
 20
142.42392
 30
0.0
 70
0
  0
VERTEX
  8
0
 10
136.086975
 20
142.42392
 30
0.0
 70
0
  0
VERTEX
  8
0
 10
135.586975
 20
142.92392
 30
0.0
 70
0
  0
SEQEND
  8
0
  0
CIRCLE
  8
0
 62
5
 10
143.086975
 20
171.73642
 30
0.0
 40
0.502174
  0
CIRCLE
  8
0
 62
5
 10
102.108719
 20
209.902191
 30
0.0
 40
6.695652
  0
CIRCLE
  8
0
 62
5
 10
143.086975
 20
119.67392
 30
0.0
 40
0.502174
  0
CIRCLE
  8
0
 62
5
 10
102.108719
 20
81.745659
 30
0.0
 40
6.695652
  0
LINE
  8
0
 62
4
 10
135.586975
 20
108.92392
 30
0.0
 11
150.586975
 21
108.92392
 31
0.0
  0
LINE
  8
0
 62
4
 10
135.586975
 20
163.92392
 30
0.0
 11
150.586975
 21
163.92392
 31
0.0
  0
ARC
  8
0
 62
4
 10
151.586975
 20
162.42392
 30
0.0
 40
1.0
 50
180.0
 51
270.0
  0
ARC
  8
0
 62
4
 10
151.586975
 20
110.42392
 30
0.0
 40
1.0
 50
90.0
 51
180.0
  0
POLYLINE
  8
0
 62
4
 66
1
 10
0.0
 20
0.0
 30
0.0
 70
2
  0
VERTEX
  8
0
 10
135.586975
 20
129.92392
 30
0.0
 70
0
  0
VERTEX
  8
0
 10
135.586975
 20
90.42392
 30
0.0
 70
0
  0
VERTEX
  8
0
 10
136.086975
 20
89.92392
 30
0.0
 70
0
  0
VERTEX
  8
0
 10
150.086975
 20
89.92392
 30
0.0
 70
0
  0
VERTEX
  8
0
 10
150.586975
 20
90.42392
 30
0.0
 70
0
  0
VERTEX
  8
0
 10
150.586975
 20
110.42392
 30
0.0
 70
0
  0
SEQEND
  8
0
  0
POLYLINE
  8
0
 62
4
 66
1
 10
0.0
 20
0.0
 30
0.0
 70
2
  0
VERTEX
  8
0
 10
151.586975
 20
111.42392
 30
0.0
 70
0
  0
VERTEX
  8
0
 10
162.086975
 20
111.42392
 30
0.0
 70
0
  0
VERTEX
  8
0
 10
162.586975
 20
111.92392
 30
0.0
 70
0
  0
VERTEX
  8
0
 10
162.586975
 20
160.92392
 30
0.0
 70
0
  0
VERTEX
  8
0
 10
162.086975
 20
161.42392
 30
0.0
 70
0
  0
VERTEX
  8
0
 10
151.586975
 20
161.42392
 30
0.0
 70
0
  0
SEQEND
  8
0
  0
POLYLINE
  8
0
 62
4
 66
1
 10
0.0
 20
0.0
 30
0.0
 70
2
  0
VERTEX
  8
0
 10
150.586975
 20
162.42392
 30
0.0
 70
0
  0
VERTEX
  8
0
 10
150.586975
 20
182.42392
 30
0.0
 70
0
  0
VERTEX
  8
0
 10
150.086975
 20
182.92392
 30
0.0
 70
0
  0
VERTEX
  8
0
 10
136.086975
 20
182.92392
 30
0.0
 70
0
  0
VERTEX
  8
0
 10
135.586975
 20
182.42392
 30
0.0
 70
0
  0
VERTEX
  8
0
 10
135.586975
 20
129.92392
 30
0.0
 70
0
  0
SEQEND
  8
0
  0
ENDSEC
  0
EOF
