  0
SECTION
  2
ENTITIES
  0
LINE
  8
0
 62
4
 10
153.195663
 20
219.766312
 30
0.0
 11
168.195663
 21
219.766312
 31
0.0
  0
LINE
  8
0
 62
4
 10
153.195663
 20
88.516312
 30
0.0
 11
168.195663
 21
88.516312
 31
0.0
  0
LINE
  8
0
 62
4
 10
179.695663
 20
145.141312
 30
0.0
 11
180.195663
 21
144.641312
 31
0.0
  0
LINE
  8
0
 62
4
 10
179.695663
 20
163.141312
 30
0.0
 11
180.195663
 21
163.641312
 31
0.0
  0
LINE
  8
0
 62
4
 10
153.695663
 20
163.141312
 30
0.0
 11
153.695663
 21
145.141312
 31
0.0
  0
POLYLINE
  8
0
 62
4
 66
1
 10
0.0
 20
0.0
 30
0.0
 70
2
  0
VERTEX
  8
0
 10
153.195663
 20
144.641312
 30
0.0
 70
0
  0
VERTEX
  8
0
 10
153.695663
 20
145.141312
 30
0.0
 70
0
  0
VERTEX
  8
0
 10
179.695663
 20
145.141312
 30
0.0
 70
0
  0
VERTEX
  8
0
 10
179.695663
 20
163.141312
 30
0.0
 70
0
  0
VERTEX
  8
0
 10
153.695663
 20
163.141312
 30
0.0
 70
0
  0
VERTEX
  8
0
 10
153.195663
 20
163.641312
 30
0.0
 70
0
  0
SEQEND
  8
0
  0
CIRCLE
  8
0
 62
5
 10
160.695663
 20
211.953812
 30
0.0
 40
0.567391
  0
CIRCLE
  8
0
 62
5
 10
115.369576
 20
254.467407
 30
0.0
 40
7.565217
  0
CIRCLE
  8
0
 62
5
 10
160.695663
 20
124.641312
 30
0.0
 40
0.567391
  0
CIRCLE
  8
0
 62
5
 10
115.369576
 20
90.515228
 30
0.0
 40
7.565217
  0
LINE
  8
0
 62
4
 10
153.195663
 20
104.141312
 30
0.0
 11
168.195663
 21
104.141312
 31
0.0
  0
LINE
  8
0
 62
4
 10
153.195663
 20
204.141312
 30
0.0
 11
168.195663
 21
204.141312
 31
0.0
  0
ARC
  8
0
 62
4
 10
169.195663
 20
185.141312
 30
0.0
 40
1.0
 50
180.0
 51
270.0
  0
ARC
  8
0
 62
4
 10
169.195663
 20
123.141312
 30
0.0
 40
1.0
 50
90.0
 51
180.0
  0
ARC
  8
0
 62
4
 10
357.717407
 20
154.141312
 30
0.0
 40
9.0
 50
109.47122094265586
 51
70.52877905734415
  0
POLYLINE
  8
0
 62
4
 66
1
 10
0.0
 20
0.0
 30
0.0
 70
2
  0
VERTEX
  8
0
 10
360.717407
 20
162.626587
 30
0.0
 70
0
  0
VERTEX
  8
0
 10
360.717407
 20
165.941315
 30
0.0
 70
0
  0
VERTEX
  8
0
 10
354.717407
 20
165.941315
 30
0.0
 70
0
  0
VERTEX
  8
0
 10
354.717407
 20
162.626587
 30
0.0
 70
0
  0
SEQEND
  8
0
  0
LINE
  8
0
 62
4
 10
153.195663
 20
165.941315
 30
0.0
 11
180.195663
 21
165.941315
 31
0.0
  0
POLYLINE
  8
0
 62
4
 66
1
 10
0.0
 20
0.0
 30
0.0
 70
2
  0
VERTEX
  8
0
 10
176.695663
 20
184.141312
 30
0.0
 70
0
  0
VERTEX
  8
0
 10
176.695663
 20
165.941315
 30
0.0
 70
0
  0
SEQEND
  8
0
  0
POLYLINE
  8
0
 62
4
 66
1
 10
0.0
 20
0.0
 30
0.0
 70
2
  0
VERTEX
  8
0
 10
171.695663
 20
184.141312
 30
0.0
 70
0
  0
VERTEX
  8
0
 10
171.695663
 20
165.941315
 30
0.0
 70
0
  0
SEQEND
  8
0
  0
POLYLINE
  8
0
 62
4
 66
1
 10
0.0
 20
0.0
 30
0.0
 70
2
  0
VERTEX
  8
0
 10
176.260666
 20
184.141312
 30
0.0
 70
0
  0
VERTEX
  8
0
 10
176.260666
 20
165.941315
 30
0.0
 70
0
  0
SEQEND
  8
0
  0
POLYLINE
  8
0
 62
4
 66
1
 10
0.0
 20
0.0
 30
0.0
 70
2
  0
VERTEX
  8
0
 10
172.130661
 20
184.141312
 30
0.0
 70
0
  0
VERTEX
  8
0
 10
172.130661
 20
165.941315
 30
0.0
 70
0
  0
SEQEND
  8
0
  0
POLYLINE
  8
0
 62
4
 66
1
 10
0.0
 20
0.0
 30
0.0
 70
2
  0
VERTEX
  8
0
 10
355.217407
 20
165.941315
 30
0.0
 70
0
  0
VERTEX
  8
0
 10
355.217407
 20
184.036957
 30
0.0
 70
0
  0
SEQEND
  8
0
  0
POLYLINE
  8
0
 62
4
 66
1
 10
0.0
 20
0.0
 30
0.0
 70
2
  0
VERTEX
  8
0
 10
360.217407
 20
165.941315
 30
0.0
 70
0
  0
VERTEX
  8
0
 10
360.217407
 20
184.036957
 30
0.0
 70
0
  0
SEQEND
  8
0
  0
POLYLINE
  8
0
 62
4
 66
1
 10
0.0
 20
0.0
 30
0.0
 70
2
  0
VERTEX
  8
0
 10
355.652405
 20
165.941315
 30
0.0
 70
0
  0
VERTEX
  8
0
 10
355.652405
 20
184.07016
 30
0.0
 70
0
  0
SEQEND
  8
0
  0
POLYLINE
  8
0
 62
4
 66
1
 10
0.0
 20
0.0
 30
0.0
 70
2
  0
VERTEX
  8
0
 10
359.78241
 20
165.941315
 30
0.0
 70
0
  0
VERTEX
  8
0
 10
359.78241
 20
184.07016
 30
0.0
 70
0
  0
SEQEND
  8
0
  0
CIRCLE
  8
0
 62
7
 10
174.195663
 20
154.141312
 30
0.0
 40
2.5
  0
CIRCLE
  8
0
 62
4
 10
174.195663
 20
154.141312
 30
0.0
 40
2.065
  0
POLYLINE
  8
0
 62
4
 66
1
 10
0.0
 20
0.0
 30
0.0
 70
2
  0
VERTEX
  8
0
 10
366.36322
 20
156.641312
 30
0.0
 70
0
  0
VERTEX
  8
0
 10
387.613037
 20
156.641312
 30
0.0
 70
0
  0
SEQEND
  8
0
  0
POLYLINE
  8
0
 62
4
 66
1
 10
0.0
 20
0.0
 30
0.0
 70
2
  0
VERTEX
  8
0
 10
366.36322
 20
151.641312
 30
0.0
 70
0
  0
VERTEX
  8
0
 10
387.613037
 20
151.641312
 30
0.0
 70
0
  0
SEQEND
  8
0
  0
POLYLINE
  8
0
 62
4
 66
1
 10
0.0
 20
0.0
 30
0.0
 70
2
  0
VERTEX
  8
0
 10
366.477295
 20
156.206314
 30
0.0
 70
0
  0
VERTEX
  8
0
 10
387.64624
 20
156.206314
 30
0.0
 70
0
  0
SEQEND
  8
0
  0
POLYLINE
  8
0
 62
4
 66
1
 10
0.0
 20
0.0
 30
0.0
 70
2
  0
VERTEX
  8
0
 10
366.477295
 20
152.076309
 30
0.0
 70
0
  0
VERTEX
  8
0
 10
387.64624
 20
152.076309
 30
0.0
 70
0
  0
SEQEND
  8
0
  0
POLYLINE
  8
0
 62
4
 66
1
 10
0.0
 20
0.0
 30
0.0
 70
2
  0
VERTEX
  8
0
 10
153.195663
 20
144.641312
 30
0.0
 70
0
  0
VERTEX
  8
0
 10
153.195663
 20
85.641312
 30
0.0
 70
0
  0
VERTEX
  8
0
 10
153.695663
 20
85.141312
 30
0.0
 70
0
  0
VERTEX
  8
0
 10
167.695663
 20
85.141312
 30
0.0
 70
0
  0
VERTEX
  8
0
 10
168.195663
 20
85.641312
 30
0.0
 70
0
  0
VERTEX
  8
0
 10
168.195663
 20
123.141312
 30
0.0
 70
0
  0
SEQEND
  8
0
  0
POLYLINE
  8
0
 62
4
 66
1
 10
0.0
 20
0.0
 30
0.0
 70
2
  0
VERTEX
  8
0
 10
169.195663
 20
124.141312
 30
0.0
 70
0
  0
VERTEX
  8
0
 10
179.695663
 20
124.141312
 30
0.0
 70
0
  0
VERTEX
  8
0
 10
180.195663
 20
124.641312
 30
0.0
 70
0
  0
VERTEX
  8
0
 10
180.195663
 20
183.641312
 30
0.0
 70
0
  0
VERTEX
  8
0
 10
179.695663
 20
184.141312
 30
0.0
 70
0
  0
VERTEX
  8
0
 10
169.195663
 20
184.141312
 30
0.0
 70
0
  0
SEQEND
  8
0
  0
POLYLINE
  8
0
 62
4
 66
1
 10
0.0
 20
0.0
 30
0.0
 70
2
  0
VERTEX
  8
0
 10
168.195663
 20
185.141312
 30
0.0
 70
0
  0
VERTEX
  8
0
 10
168.195663
 20
222.641312
 30
0.0
 70
0
  0
VERTEX
  8
0
 10
167.695663
 20
223.141312
 30
0.0
 70
0
  0
VERTEX
  8
0
 10
153.695663
 20
223.141312
 30
0.0
 70
0
  0
VERTEX
  8
0
 10
153.195663
 20
222.641312
 30
0.0
 70
0
  0
VERTEX
  8
0
 10
153.195663
 20
144.641312
 30
0.0
 70
0
  0
SEQEND
  8
0
  0
CIRCLE
  8
0
 62
4
 10
357.717407
 20
154.141312
 30
0.0
 40
30.0
  0
ENDSEC
  0
EOF
