  0
SECTION
  2
ENTITIES
  0
LINE
  8
0
 62
4
 10
135.586975
 20
179.54892
 30
0.0
 11
150.586975
 21
179.54892
 31
0.0
  0
LINE
  8
0
 62
4
 10
135.586975
 20
93.29892
 30
0.0
 11
150.586975
 21
93.29892
 31
0.0
  0
LINE
  8
0
 62
4
 10
162.086975
 20
127.92392
 30
0.0
 11
162.586975
 21
127.42392
 31
0.0
  0
LINE
  8
0
 62
4
 10
162.086975
 20
144.92392
 30
0.0
 11
162.586975
 21
145.42392
 31
0.0
  0
LINE
  8
0
 62
4
 10
136.086975
 20
144.92392
 30
0.0
 11
136.086975
 21
127.92392
 31
0.0
  0
POLYLINE
  8
0
 62
4
 66
1
 10
0.0
 20
0.0
 30
0.0
 70
2
  0
VERTEX
  8
0
 10
135.586975
 20
127.42392
 30
0.0
 70
0
  0
VERTEX
  8
0
 10
136.086975
 20
127.92392
 30
0.0
 70
0
  0
VERTEX
  8
0
 10
162.086975
 20
127.92392
 30
0.0
 70
0
  0
VERTEX
  8
0
 10
162.086975
 20
144.92392
 30
0.0
 70
0
  0
VERTEX
  8
0
 10
136.086975
 20
144.92392
 30
0.0
 70
0
  0
VERTEX
  8
0
 10
135.586975
 20
145.42392
 30
0.0
 70
0
  0
SEQEND
  8
0
  0
CIRCLE
  8
0
 62
5
 10
143.086975
 20
171.73642
 30
0.0
 40
0.502174
  0
CIRCLE
  8
0
 62
5
 10
102.108719
 20
209.902191
 30
0.0
 40
6.695652
  0
CIRCLE
  8
0
 62
5
 10
143.086975
 20
118.42392
 30
0.0
 40
0.502174
  0
CIRCLE
  8
0
 62
5
 10
102.108719
 20
81.245659
 30
0.0
 40
6.695652
  0
LINE
  8
0
 62
4
 10
135.586975
 20
108.92392
 30
0.0
 11
150.586975
 21
108.92392
 31
0.0
  0
LINE
  8
0
 62
4
 10
135.586975
 20
163.92392
 30
0.0
 11
150.586975
 21
163.92392
 31
0.0
  0
ARC
  8
0
 62
4
 10
151.586975
 20
162.42392
 30
0.0
 40
1.0
 50
180.0
 51
270.0
  0
ARC
  8
0
 62
4
 10
151.586975
 20
110.42392
 30
0.0
 40
1.0
 50
90.0
 51
180.0
  0
ARC
  8
0
 62
4
 10
318.152191
 20
136.42392
 30
0.0
 40
8.5
 50
107.10463483476482
 51
72.89536516523518
  0
POLYLINE
  8
0
 62
4
 66
1
 10
0.0
 20
0.0
 30
0.0
 70
2
  0
VERTEX
  8
0
 10
320.652191
 20
144.547958
 30
0.0
 70
0
  0
VERTEX
  8
0
 10
320.652191
 20
147.223923
 30
0.0
 70
0
  0
VERTEX
  8
0
 10
315.652191
 20
147.223923
 30
0.0
 70
0
  0
VERTEX
  8
0
 10
315.652191
 20
144.547958
 30
0.0
 70
0
  0
SEQEND
  8
0
  0
LINE
  8
0
 62
4
 10
135.586975
 20
147.223923
 30
0.0
 11
162.586975
 21
147.223923
 31
0.0
  0
POLYLINE
  8
0
 62
4
 66
1
 10
0.0
 20
0.0
 30
0.0
 70
2
  0
VERTEX
  8
0
 10
158.586975
 20
161.42392
 30
0.0
 70
0
  0
VERTEX
  8
0
 10
158.586975
 20
147.223923
 30
0.0
 70
0
  0
SEQEND
  8
0
  0
POLYLINE
  8
0
 62
4
 66
1
 10
0.0
 20
0.0
 30
0.0
 70
2
  0
VERTEX
  8
0
 10
154.586975
 20
161.42392
 30
0.0
 70
0
  0
VERTEX
  8
0
 10
154.586975
 20
147.223923
 30
0.0
 70
0
  0
SEQEND
  8
0
  0
POLYLINE
  8
0
 62
4
 66
1
 10
0.0
 20
0.0
 30
0.0
 70
2
  0
VERTEX
  8
0
 10
158.20697
 20
161.42392
 30
0.0
 70
0
  0
VERTEX
  8
0
 10
158.20697
 20
147.223923
 30
0.0
 70
0
  0
SEQEND
  8
0
  0
POLYLINE
  8
0
 62
4
 66
1
 10
0.0
 20
0.0
 30
0.0
 70
2
  0
VERTEX
  8
0
 10
154.96698
 20
161.42392
 30
0.0
 70
0
  0
VERTEX
  8
0
 10
154.96698
 20
147.223923
 30
0.0
 70
0
  0
SEQEND
  8
0
  0
POLYLINE
  8
0
 62
4
 66
1
 10
0.0
 20
0.0
 30
0.0
 70
2
  0
VERTEX
  8
0
 10
316.152191
 20
147.223923
 30
0.0
 70
0
  0
VERTEX
  8
0
 10
316.152191
 20
161.343796
 30
0.0
 70
0
  0
SEQEND
  8
0
  0
POLYLINE
  8
0
 62
4
 66
1
 10
0.0
 20
0.0
 30
0.0
 70
2
  0
VERTEX
  8
0
 10
320.152191
 20
147.223923
 30
0.0
 70
0
  0
VERTEX
  8
0
 10
320.152191
 20
161.343796
 30
0.0
 70
0
  0
SEQEND
  8
0
  0
POLYLINE
  8
0
 62
4
 66
1
 10
0.0
 20
0.0
 30
0.0
 70
2
  0
VERTEX
  8
0
 10
316.532196
 20
147.223923
 30
0.0
 70
0
  0
VERTEX
  8
0
 10
316.532196
 20
161.371368
 30
0.0
 70
0
  0
SEQEND
  8
0
  0
POLYLINE
  8
0
 62
4
 66
1
 10
0.0
 20
0.0
 30
0.0
 70
2
  0
VERTEX
  8
0
 10
319.772186
 20
147.223923
 30
0.0
 70
0
  0
VERTEX
  8
0
 10
319.772186
 20
161.371368
 30
0.0
 70
0
  0
SEQEND
  8
0
  0
CIRCLE
  8
0
 62
7
 10
156.586975
 20
136.42392
 30
0.0
 40
2.0
  0
CIRCLE
  8
0
 62
4
 10
156.586975
 20
136.42392
 30
0.0
 40
1.62
  0
POLYLINE
  8
0
 62
4
 66
1
 10
0.0
 20
0.0
 30
0.0
 70
2
  0
VERTEX
  8
0
 10
326.413544
 20
138.42392
 30
0.0
 70
0
  0
VERTEX
  8
0
 10
343.072083
 20
138.42392
 30
0.0
 70
0
  0
SEQEND
  8
0
  0
POLYLINE
  8
0
 62
4
 66
1
 10
0.0
 20
0.0
 30
0.0
 70
2
  0
VERTEX
  8
0
 10
326.413544
 20
134.42392
 30
0.0
 70
0
  0
VERTEX
  8
0
 10
343.072083
 20
134.42392
 30
0.0
 70
0
  0
SEQEND
  8
0
  0
POLYLINE
  8
0
 62
4
 66
1
 10
0.0
 20
0.0
 30
0.0
 70
2
  0
VERTEX
  8
0
 10
326.496399
 20
138.043915
 30
0.0
 70
0
  0
VERTEX
  8
0
 10
343.09964
 20
138.043915
 30
0.0
 70
0
  0
SEQEND
  8
0
  0
POLYLINE
  8
0
 62
4
 66
1
 10
0.0
 20
0.0
 30
0.0
 70
2
  0
VERTEX
  8
0
 10
326.496399
 20
134.803925
 30
0.0
 70
0
  0
VERTEX
  8
0
 10
343.09964
 20
134.803925
 30
0.0
 70
0
  0
SEQEND
  8
0
  0
POLYLINE
  8
0
 62
4
 66
1
 10
0.0
 20
0.0
 30
0.0
 70
2
  0
VERTEX
  8
0
 10
135.586975
 20
127.42392
 30
0.0
 70
0
  0
VERTEX
  8
0
 10
135.586975
 20
90.42392
 30
0.0
 70
0
  0
VERTEX
  8
0
 10
136.086975
 20
89.92392
 30
0.0
 70
0
  0
VERTEX
  8
0
 10
150.086975
 20
89.92392
 30
0.0
 70
0
  0
VERTEX
  8
0
 10
150.586975
 20
90.42392
 30
0.0
 70
0
  0
VERTEX
  8
0
 10
150.586975
 20
110.42392
 30
0.0
 70
0
  0
SEQEND
  8
0
  0
POLYLINE
  8
0
 62
4
 66
1
 10
0.0
 20
0.0
 30
0.0
 70
2
  0
VERTEX
  8
0
 10
151.586975
 20
111.42392
 30
0.0
 70
0
  0
VERTEX
  8
0
 10
162.086975
 20
111.42392
 30
0.0
 70
0
  0
VERTEX
  8
0
 10
162.586975
 20
111.92392
 30
0.0
 70
0
  0
VERTEX
  8
0
 10
162.586975
 20
160.92392
 30
0.0
 70
0
  0
VERTEX
  8
0
 10
162.086975
 20
161.42392
 30
0.0
 70
0
  0
VERTEX
  8
0
 10
151.586975
 20
161.42392
 30
0.0
 70
0
  0
SEQEND
  8
0
  0
POLYLINE
  8
0
 62
4
 66
1
 10
0.0
 20
0.0
 30
0.0
 70
2
  0
VERTEX
  8
0
 10
150.586975
 20
162.42392
 30
0.0
 70
0
  0
VERTEX
  8
0
 10
150.586975
 20
182.42392
 30
0.0
 70
0
  0
VERTEX
  8
0
 10
150.086975
 20
182.92392
 30
0.0
 70
0
  0
VERTEX
  8
0
 10
136.086975
 20
182.92392
 30
0.0
 70
0
  0
VERTEX
  8
0
 10
135.586975
 20
182.42392
 30
0.0
 70
0
  0
VERTEX
  8
0
 10
135.586975
 20
127.42392
 30
0.0
 70
0
  0
SEQEND
  8
0
  0
CIRCLE
  8
0
 62
4
 10
318.152191
 20
136.42392
 30
0.0
 40
25.0
  0
ENDSEC
  0
EOF
