  0
SECTION
  2
ENTITIES
  0
LINE
  8
0
 62
4
 10
149.67392
 20
184.972824
 30
0.0
 11
174.67392
 21
184.972824
 31
0.0
  0
LINE
  8
0
 62
4
 10
149.67392
 20
116.222824
 30
0.0
 11
174.67392
 21
116.222824
 31
0.0
  0
LINE
  8
0
 62
4
 10
189.17392
 20
141.597824
 30
0.0
 11
189.67392
 21
141.097824
 31
0.0
  0
LINE
  8
0
 62
4
 10
189.17392
 20
159.597824
 30
0.0
 11
189.67392
 21
160.097824
 31
0.0
  0
LINE
  8
0
 62
4
 10
150.17392
 20
159.597824
 30
0.0
 11
150.17392
 21
141.597824
 31
0.0
  0
POLYLINE
  8
0
 62
4
 66
1
 10
0.0
 20
0.0
 30
0.0
 70
2
  0
VERTEX
  8
0
 10
149.67392
 20
141.097824
 30
0.0
 70
0
  0
VERTEX
  8
0
 10
150.17392
 20
141.597824
 30
0.0
 70
0
  0
VERTEX
  8
0
 10
189.17392
 20
141.597824
 30
0.0
 70
0
  0
VERTEX
  8
0
 10
189.17392
 20
159.597824
 30
0.0
 70
0
  0
VERTEX
  8
0
 10
150.17392
 20
159.597824
 30
0.0
 70
0
  0
VERTEX
  8
0
 10
149.67392
 20
160.097824
 30
0.0
 70
0
  0
SEQEND
  8
0
  0
CIRCLE
  8
0
 62
5
 10
162.17392
 20
180.285324
 30
0.0
 40
0.554348
  0
CIRCLE
  8
0
 62
5
 10
112.7174
 20
220.054352
 30
0.0
 40
7.391304
  0
CIRCLE
  8
0
 62
5
 10
162.17392
 20
133.597824
 30
0.0
 40
0.554348
  0
CIRCLE
  8
0
 62
5
 10
112.7174
 20
93.841301
 30
0.0
 40
7.391304
  0
LINE
  8
0
 62
4
 10
149.67392
 20
125.597824
 30
0.0
 11
174.67392
 21
125.597824
 31
0.0
  0
LINE
  8
0
 62
4
 10
149.67392
 20
175.597824
 30
0.0
 11
174.67392
 21
175.597824
 31
0.0
  0
ARC
  8
0
 62
4
 10
175.67392
 20
174.097824
 30
0.0
 40
1.0
 50
180.0
 51
270.0
  0
ARC
  8
0
 62
4
 10
175.67392
 20
127.097824
 30
0.0
 40
1.0
 50
90.0
 51
180.0
  0
ARC
  8
0
 62
4
 10
356.304352
 20
150.597824
 30
0.0
 40
9.0
 50
109.47122094265586
 51
70.52877905734415
  0
POLYLINE
  8
0
 62
4
 66
1
 10
0.0
 20
0.0
 30
0.0
 70
2
  0
VERTEX
  8
0
 10
359.304352
 20
159.083099
 30
0.0
 70
0
  0
VERTEX
  8
0
 10
359.304352
 20
162.397827
 30
0.0
 70
0
  0
VERTEX
  8
0
 10
353.304352
 20
162.397827
 30
0.0
 70
0
  0
VERTEX
  8
0
 10
353.304352
 20
159.083099
 30
0.0
 70
0
  0
SEQEND
  8
0
  0
LINE
  8
0
 62
4
 10
149.67392
 20
162.397827
 30
0.0
 11
189.67392
 21
162.397827
 31
0.0
  0
POLYLINE
  8
0
 62
4
 66
1
 10
0.0
 20
0.0
 30
0.0
 70
2
  0
VERTEX
  8
0
 10
184.67392
 20
173.097824
 30
0.0
 70
0
  0
VERTEX
  8
0
 10
184.67392
 20
162.397827
 30
0.0
 70
0
  0
SEQEND
  8
0
  0
POLYLINE
  8
0
 62
4
 66
1
 10
0.0
 20
0.0
 30
0.0
 70
2
  0
VERTEX
  8
0
 10
179.67392
 20
173.097824
 30
0.0
 70
0
  0
VERTEX
  8
0
 10
179.67392
 20
162.397827
 30
0.0
 70
0
  0
SEQEND
  8
0
  0
POLYLINE
  8
0
 62
4
 66
1
 10
0.0
 20
0.0
 30
0.0
 70
2
  0
VERTEX
  8
0
 10
184.238922
 20
173.097824
 30
0.0
 70
0
  0
VERTEX
  8
0
 10
184.238922
 20
162.397827
 30
0.0
 70
0
  0
SEQEND
  8
0
  0
POLYLINE
  8
0
 62
4
 66
1
 10
0.0
 20
0.0
 30
0.0
 70
2
  0
VERTEX
  8
0
 10
180.108917
 20
173.097824
 30
0.0
 70
0
  0
VERTEX
  8
0
 10
180.108917
 20
162.397827
 30
0.0
 70
0
  0
SEQEND
  8
0
  0
POLYLINE
  8
0
 62
4
 66
1
 10
0.0
 20
0.0
 30
0.0
 70
2
  0
VERTEX
  8
0
 10
353.804352
 20
162.397827
 30
0.0
 70
0
  0
VERTEX
  8
0
 10
353.804352
 20
172.958496
 30
0.0
 70
0
  0
SEQEND
  8
0
  0
POLYLINE
  8
0
 62
4
 66
1
 10
0.0
 20
0.0
 30
0.0
 70
2
  0
VERTEX
  8
0
 10
358.804352
 20
162.397827
 30
0.0
 70
0
  0
VERTEX
  8
0
 10
358.804352
 20
172.958496
 30
0.0
 70
0
  0
SEQEND
  8
0
  0
POLYLINE
  8
0
 62
4
 66
1
 10
0.0
 20
0.0
 30
0.0
 70
2
  0
VERTEX
  8
0
 10
354.239349
 20
162.397827
 30
0.0
 70
0
  0
VERTEX
  8
0
 10
354.239349
 20
173.002869
 30
0.0
 70
0
  0
SEQEND
  8
0
  0
POLYLINE
  8
0
 62
4
 66
1
 10
0.0
 20
0.0
 30
0.0
 70
2
  0
VERTEX
  8
0
 10
358.369354
 20
162.397827
 30
0.0
 70
0
  0
VERTEX
  8
0
 10
358.369354
 20
173.002869
 30
0.0
 70
0
  0
SEQEND
  8
0
  0
CIRCLE
  8
0
 62
7
 10
182.17392
 20
150.597824
 30
0.0
 40
2.5
  0
CIRCLE
  8
0
 62
4
 10
182.17392
 20
150.597824
 30
0.0
 40
2.065
  0
POLYLINE
  8
0
 62
4
 66
1
 10
0.0
 20
0.0
 30
0.0
 70
2
  0
VERTEX
  8
0
 10
364.950165
 20
153.097824
 30
0.0
 70
0
  0
VERTEX
  8
0
 10
378.665039
 20
153.097824
 30
0.0
 70
0
  0
SEQEND
  8
0
  0
POLYLINE
  8
0
 62
4
 66
1
 10
0.0
 20
0.0
 30
0.0
 70
2
  0
VERTEX
  8
0
 10
364.950165
 20
148.097824
 30
0.0
 70
0
  0
VERTEX
  8
0
 10
378.665039
 20
148.097824
 30
0.0
 70
0
  0
SEQEND
  8
0
  0
POLYLINE
  8
0
 62
4
 66
1
 10
0.0
 20
0.0
 30
0.0
 70
2
  0
VERTEX
  8
0
 10
365.06427
 20
152.662827
 30
0.0
 70
0
  0
VERTEX
  8
0
 10
378.709412
 20
152.662827
 30
0.0
 70
0
  0
SEQEND
  8
0
  0
POLYLINE
  8
0
 62
4
 66
1
 10
0.0
 20
0.0
 30
0.0
 70
2
  0
VERTEX
  8
0
 10
365.06427
 20
148.532822
 30
0.0
 70
0
  0
VERTEX
  8
0
 10
378.709412
 20
148.532822
 30
0.0
 70
0
  0
SEQEND
  8
0
  0
POLYLINE
  8
0
 62
4
 66
1
 10
0.0
 20
0.0
 30
0.0
 70
2
  0
VERTEX
  8
0
 10
149.67392
 20
141.097824
 30
0.0
 70
0
  0
VERTEX
  8
0
 10
149.67392
 20
111.597824
 30
0.0
 70
0
  0
VERTEX
  8
0
 10
150.67392
 20
110.597824
 30
0.0
 70
0
  0
VERTEX
  8
0
 10
173.67392
 20
110.597824
 30
0.0
 70
0
  0
VERTEX
  8
0
 10
174.67392
 20
111.597824
 30
0.0
 70
0
  0
VERTEX
  8
0
 10
174.67392
 20
127.097824
 30
0.0
 70
0
  0
SEQEND
  8
0
  0
POLYLINE
  8
0
 62
4
 66
1
 10
0.0
 20
0.0
 30
0.0
 70
2
  0
VERTEX
  8
0
 10
175.67392
 20
128.097824
 30
0.0
 70
0
  0
VERTEX
  8
0
 10
188.67392
 20
128.097824
 30
0.0
 70
0
  0
VERTEX
  8
0
 10
189.67392
 20
129.097824
 30
0.0
 70
0
  0
VERTEX
  8
0
 10
189.67392
 20
172.097824
 30
0.0
 70
0
  0
VERTEX
  8
0
 10
188.67392
 20
173.097824
 30
0.0
 70
0
  0
VERTEX
  8
0
 10
175.67392
 20
173.097824
 30
0.0
 70
0
  0
SEQEND
  8
0
  0
POLYLINE
  8
0
 62
4
 66
1
 10
0.0
 20
0.0
 30
0.0
 70
2
  0
VERTEX
  8
0
 10
174.67392
 20
174.097824
 30
0.0
 70
0
  0
VERTEX
  8
0
 10
174.67392
 20
189.597824
 30
0.0
 70
0
  0
VERTEX
  8
0
 10
173.67392
 20
190.597824
 30
0.0
 70
0
  0
VERTEX
  8
0
 10
150.67392
 20
190.597824
 30
0.0
 70
0
  0
VERTEX
  8
0
 10
149.67392
 20
189.597824
 30
0.0
 70
0
  0
VERTEX
  8
0
 10
149.67392
 20
141.097824
 30
0.0
 70
0
  0
SEQEND
  8
0
  0
CIRCLE
  8
0
 62
4
 10
356.304352
 20
150.597824
 30
0.0
 40
22.5
  0
ENDSEC
  0
EOF
