  0
SECTION
  2
ENTITIES
  0
LINE
  8
0
 62
4
 10
167.282593
 20
208.940216
 30
0.0
 11
192.282593
 21
208.940216
 31
0.0
  0
LINE
  8
0
 62
4
 10
167.282593
 20
127.690216
 30
0.0
 11
192.282593
 21
127.690216
 31
0.0
  0
LINE
  8
0
 62
4
 10
206.782593
 20
159.315216
 30
0.0
 11
207.282593
 21
158.815216
 31
0.0
  0
LINE
  8
0
 62
4
 10
206.782593
 20
177.315216
 30
0.0
 11
207.282593
 21
177.815216
 31
0.0
  0
LINE
  8
0
 62
4
 10
167.782593
 20
177.315216
 30
0.0
 11
167.782593
 21
159.315216
 31
0.0
  0
POLYLINE
  8
0
 62
4
 66
1
 10
0.0
 20
0.0
 30
0.0
 70
2
  0
VERTEX
  8
0
 10
167.282593
 20
158.815216
 30
0.0
 70
0
  0
VERTEX
  8
0
 10
167.782593
 20
159.315216
 30
0.0
 70
0
  0
VERTEX
  8
0
 10
206.782593
 20
159.315216
 30
0.0
 70
0
  0
VERTEX
  8
0
 10
206.782593
 20
177.315216
 30
0.0
 70
0
  0
VERTEX
  8
0
 10
167.782593
 20
177.315216
 30
0.0
 70
0
  0
VERTEX
  8
0
 10
167.282593
 20
177.815216
 30
0.0
 70
0
  0
SEQEND
  8
0
  0
CIRCLE
  8
0
 62
5
 10
179.782593
 20
203.627716
 30
0.0
 40
0.619565
  0
CIRCLE
  8
0
 62
5
 10
125.978241
 20
248.119568
 30
0.0
 40
8.26087
  0
CIRCLE
  8
0
 62
5
 10
179.782593
 20
148.815216
 30
0.0
 40
0.619565
  0
CIRCLE
  8
0
 62
5
 10
125.978241
 20
103.210869
 30
0.0
 40
8.26087
  0
LINE
  8
0
 62
4
 10
167.282593
 20
138.315216
 30
0.0
 11
192.282593
 21
138.315216
 31
0.0
  0
LINE
  8
0
 62
4
 10
167.282593
 20
198.315216
 30
0.0
 11
192.282593
 21
198.315216
 31
0.0
  0
ARC
  8
0
 62
4
 10
193.282593
 20
196.815216
 30
0.0
 40
1.0
 50
180.0
 51
270.0
  0
ARC
  8
0
 62
4
 10
193.282593
 20
139.815216
 30
0.0
 40
1.0
 50
90.0
 51
180.0
  0
ARC
  8
0
 62
4
 10
395.869568
 20
168.315216
 30
0.0
 40
9.0
 50
109.47122094265586
 51
70.52877905734415
  0
POLYLINE
  8
0
 62
4
 66
1
 10
0.0
 20
0.0
 30
0.0
 70
2
  0
VERTEX
  8
0
 10
398.869568
 20
176.800491
 30
0.0
 70
0
  0
VERTEX
  8
0
 10
398.869568
 20
180.115219
 30
0.0
 70
0
  0
VERTEX
  8
0
 10
392.869568
 20
180.115219
 30
0.0
 70
0
  0
VERTEX
  8
0
 10
392.869568
 20
176.800491
 30
0.0
 70
0
  0
SEQEND
  8
0
  0
LINE
  8
0
 62
4
 10
167.282593
 20
180.115219
 30
0.0
 11
207.282593
 21
180.115219
 31
0.0
  0
POLYLINE
  8
0
 62
4
 66
1
 10
0.0
 20
0.0
 30
0.0
 70
2
  0
VERTEX
  8
0
 10
202.282593
 20
195.815216
 30
0.0
 70
0
  0
VERTEX
  8
0
 10
202.282593
 20
180.115219
 30
0.0
 70
0
  0
SEQEND
  8
0
  0
POLYLINE
  8
0
 62
4
 66
1
 10
0.0
 20
0.0
 30
0.0
 70
2
  0
VERTEX
  8
0
 10
197.282593
 20
195.815216
 30
0.0
 70
0
  0
VERTEX
  8
0
 10
197.282593
 20
180.115219
 30
0.0
 70
0
  0
SEQEND
  8
0
  0
POLYLINE
  8
0
 62
4
 66
1
 10
0.0
 20
0.0
 30
0.0
 70
2
  0
VERTEX
  8
0
 10
201.847595
 20
195.815216
 30
0.0
 70
0
  0
VERTEX
  8
0
 10
201.847595
 20
180.115219
 30
0.0
 70
0
  0
SEQEND
  8
0
  0
POLYLINE
  8
0
 62
4
 66
1
 10
0.0
 20
0.0
 30
0.0
 70
2
  0
VERTEX
  8
0
 10
197.71759
 20
195.815216
 30
0.0
 70
0
  0
VERTEX
  8
0
 10
197.71759
 20
180.115219
 30
0.0
 70
0
  0
SEQEND
  8
0
  0
POLYLINE
  8
0
 62
4
 66
1
 10
0.0
 20
0.0
 30
0.0
 70
2
  0
VERTEX
  8
0
 10
393.369568
 20
180.115219
 30
0.0
 70
0
  0
VERTEX
  8
0
 10
393.369568
 20
195.70134
 30
0.0
 70
0
  0
SEQEND
  8
0
  0
POLYLINE
  8
0
 62
4
 66
1
 10
0.0
 20
0.0
 30
0.0
 70
2
  0
VERTEX
  8
0
 10
398.369568
 20
180.115219
 30
0.0
 70
0
  0
VERTEX
  8
0
 10
398.369568
 20
195.70134
 30
0.0
 70
0
  0
SEQEND
  8
0
  0
POLYLINE
  8
0
 62
4
 66
1
 10
0.0
 20
0.0
 30
0.0
 70
2
  0
VERTEX
  8
0
 10
393.804565
 20
180.115219
 30
0.0
 70
0
  0
VERTEX
  8
0
 10
393.804565
 20
195.737579
 30
0.0
 70
0
  0
SEQEND
  8
0
  0
POLYLINE
  8
0
 62
4
 66
1
 10
0.0
 20
0.0
 30
0.0
 70
2
  0
VERTEX
  8
0
 10
397.93457
 20
180.115219
 30
0.0
 70
0
  0
VERTEX
  8
0
 10
397.93457
 20
195.737579
 30
0.0
 70
0
  0
SEQEND
  8
0
  0
CIRCLE
  8
0
 62
7
 10
199.782593
 20
168.315216
 30
0.0
 40
2.5
  0
CIRCLE
  8
0
 62
4
 10
199.782593
 20
168.315216
 30
0.0
 40
2.065
  0
POLYLINE
  8
0
 62
4
 66
1
 10
0.0
 20
0.0
 30
0.0
 70
2
  0
VERTEX
  8
0
 10
404.515381
 20
170.815216
 30
0.0
 70
0
  0
VERTEX
  8
0
 10
423.255676
 20
170.815216
 30
0.0
 70
0
  0
SEQEND
  8
0
  0
POLYLINE
  8
0
 62
4
 66
1
 10
0.0
 20
0.0
 30
0.0
 70
2
  0
VERTEX
  8
0
 10
404.515381
 20
165.815216
 30
0.0
 70
0
  0
VERTEX
  8
0
 10
423.255676
 20
165.815216
 30
0.0
 70
0
  0
SEQEND
  8
0
  0
POLYLINE
  8
0
 62
4
 66
1
 10
0.0
 20
0.0
 30
0.0
 70
2
  0
VERTEX
  8
0
 10
404.629456
 20
170.380219
 30
0.0
 70
0
  0
VERTEX
  8
0
 10
423.291901
 20
170.380219
 30
0.0
 70
0
  0
SEQEND
  8
0
  0
POLYLINE
  8
0
 62
4
 66
1
 10
0.0
 20
0.0
 30
0.0
 70
2
  0
VERTEX
  8
0
 10
404.629456
 20
166.250214
 30
0.0
 70
0
  0
VERTEX
  8
0
 10
423.291901
 20
166.250214
 30
0.0
 70
0
  0
SEQEND
  8
0
  0
POLYLINE
  8
0
 62
4
 66
1
 10
0.0
 20
0.0
 30
0.0
 70
2
  0
VERTEX
  8
0
 10
167.282593
 20
158.815216
 30
0.0
 70
0
  0
VERTEX
  8
0
 10
167.282593
 20
123.065216
 30
0.0
 70
0
  0
VERTEX
  8
0
 10
168.282593
 20
122.065216
 30
0.0
 70
0
  0
VERTEX
  8
0
 10
191.282593
 20
122.065216
 30
0.0
 70
0
  0
VERTEX
  8
0
 10
192.282593
 20
123.065216
 30
0.0
 70
0
  0
VERTEX
  8
0
 10
192.282593
 20
139.815216
 30
0.0
 70
0
  0
SEQEND
  8
0
  0
POLYLINE
  8
0
 62
4
 66
1
 10
0.0
 20
0.0
 30
0.0
 70
2
  0
VERTEX
  8
0
 10
193.282593
 20
140.815216
 30
0.0
 70
0
  0
VERTEX
  8
0
 10
206.282593
 20
140.815216
 30
0.0
 70
0
  0
VERTEX
  8
0
 10
207.282593
 20
141.815216
 30
0.0
 70
0
  0
VERTEX
  8
0
 10
207.282593
 20
194.815216
 30
0.0
 70
0
  0
VERTEX
  8
0
 10
206.282593
 20
195.815216
 30
0.0
 70
0
  0
VERTEX
  8
0
 10
193.282593
 20
195.815216
 30
0.0
 70
0
  0
SEQEND
  8
0
  0
POLYLINE
  8
0
 62
4
 66
1
 10
0.0
 20
0.0
 30
0.0
 70
2
  0
VERTEX
  8
0
 10
192.282593
 20
196.815216
 30
0.0
 70
0
  0
VERTEX
  8
0
 10
192.282593
 20
213.565216
 30
0.0
 70
0
  0
VERTEX
  8
0
 10
191.282593
 20
214.565216
 30
0.0
 70
0
  0
VERTEX
  8
0
 10
168.282593
 20
214.565216
 30
0.0
 70
0
  0
VERTEX
  8
0
 10
167.282593
 20
213.565216
 30
0.0
 70
0
  0
VERTEX
  8
0
 10
167.282593
 20
158.815216
 30
0.0
 70
0
  0
SEQEND
  8
0
  0
CIRCLE
  8
0
 62
4
 10
395.869568
 20
168.315216
 30
0.0
 40
27.5
  0
ENDSEC
  0
EOF
