  0
SECTION
  2
ENTITIES
  0
LINE
  8
0
 62
4
 10
167.282593
 20
210.190216
 30
0.0
 11
192.282593
 21
210.190216
 31
0.0
  0
LINE
  8
0
 62
4
 10
167.282593
 20
126.440216
 30
0.0
 11
192.282593
 21
126.440216
 31
0.0
  0
LINE
  8
0
 62
4
 10
206.782593
 20
160.815216
 30
0.0
 11
207.282593
 21
160.315216
 31
0.0
  0
LINE
  8
0
 62
4
 10
206.782593
 20
175.815216
 30
0.0
 11
207.282593
 21
176.315216
 31
0.0
  0
LINE
  8
0
 62
4
 10
167.782593
 20
175.815216
 30
0.0
 11
167.782593
 21
160.815216
 31
0.0
  0
POLYLINE
  8
0
 62
4
 66
1
 10
0.0
 20
0.0
 30
0.0
 70
2
  0
VERTEX
  8
0
 10
167.282593
 20
160.315216
 30
0.0
 70
0
  0
VERTEX
  8
0
 10
167.782593
 20
160.815216
 30
0.0
 70
0
  0
VERTEX
  8
0
 10
206.782593
 20
160.815216
 30
0.0
 70
0
  0
VERTEX
  8
0
 10
206.782593
 20
175.815216
 30
0.0
 70
0
  0
VERTEX
  8
0
 10
167.782593
 20
175.815216
 30
0.0
 70
0
  0
VERTEX
  8
0
 10
167.282593
 20
176.315216
 30
0.0
 70
0
  0
SEQEND
  8
0
  0
CIRCLE
  8
0
 62
5
 10
179.782593
 20
204.252716
 30
0.0
 40
0.619565
  0
CIRCLE
  8
0
 62
5
 10
125.978241
 20
249.119568
 30
0.0
 40
8.26087
  0
CIRCLE
  8
0
 62
5
 10
179.782593
 20
149.565216
 30
0.0
 40
0.619565
  0
CIRCLE
  8
0
 62
5
 10
125.978241
 20
103.510872
 30
0.0
 40
8.26087
  0
LINE
  8
0
 62
4
 10
167.282593
 20
138.315216
 30
0.0
 11
192.282593
 21
138.315216
 31
0.0
  0
LINE
  8
0
 62
4
 10
167.282593
 20
198.315216
 30
0.0
 11
192.282593
 21
198.315216
 31
0.0
  0
ARC
  8
0
 62
4
 10
193.282593
 20
196.815216
 30
0.0
 40
1.0
 50
180.0
 51
270.0
  0
ARC
  8
0
 62
4
 10
193.282593
 20
139.815216
 30
0.0
 40
1.0
 50
90.0
 51
180.0
  0
ARC
  8
0
 62
4
 10
395.869568
 20
168.315216
 30
0.0
 40
7.5
 50
109.47122094265586
 51
70.52877905734415
  0
POLYLINE
  8
0
 62
4
 66
1
 10
0.0
 20
0.0
 30
0.0
 70
2
  0
VERTEX
  8
0
 10
398.369568
 20
175.386292
 30
0.0
 70
0
  0
VERTEX
  8
0
 10
398.369568
 20
178.115219
 30
0.0
 70
0
  0
VERTEX
  8
0
 10
393.369568
 20
178.115219
 30
0.0
 70
0
  0
VERTEX
  8
0
 10
393.369568
 20
175.386292
 30
0.0
 70
0
  0
SEQEND
  8
0
  0
LINE
  8
0
 62
4
 10
167.282593
 20
178.115219
 30
0.0
 11
207.282593
 21
178.115219
 31
0.0
  0
POLYLINE
  8
0
 62
4
 66
1
 10
0.0
 20
0.0
 30
0.0
 70
2
  0
VERTEX
  8
0
 10
201.782593
 20
195.815216
 30
0.0
 70
0
  0
VERTEX
  8
0
 10
201.782593
 20
178.115219
 30
0.0
 70
0
  0
SEQEND
  8
0
  0
POLYLINE
  8
0
 62
4
 66
1
 10
0.0
 20
0.0
 30
0.0
 70
2
  0
VERTEX
  8
0
 10
197.782593
 20
195.815216
 30
0.0
 70
0
  0
VERTEX
  8
0
 10
197.782593
 20
178.115219
 30
0.0
 70
0
  0
SEQEND
  8
0
  0
POLYLINE
  8
0
 62
4
 66
1
 10
0.0
 20
0.0
 30
0.0
 70
2
  0
VERTEX
  8
0
 10
201.402588
 20
195.815216
 30
0.0
 70
0
  0
VERTEX
  8
0
 10
201.402588
 20
178.115219
 30
0.0
 70
0
  0
SEQEND
  8
0
  0
POLYLINE
  8
0
 62
4
 66
1
 10
0.0
 20
0.0
 30
0.0
 70
2
  0
VERTEX
  8
0
 10
198.162598
 20
195.815216
 30
0.0
 70
0
  0
VERTEX
  8
0
 10
198.162598
 20
178.115219
 30
0.0
 70
0
  0
SEQEND
  8
0
  0
POLYLINE
  8
0
 62
4
 66
1
 10
0.0
 20
0.0
 30
0.0
 70
2
  0
VERTEX
  8
0
 10
393.869568
 20
178.115219
 30
0.0
 70
0
  0
VERTEX
  8
0
 10
393.869568
 20
195.742386
 30
0.0
 70
0
  0
SEQEND
  8
0
  0
POLYLINE
  8
0
 62
4
 66
1
 10
0.0
 20
0.0
 30
0.0
 70
2
  0
VERTEX
  8
0
 10
397.869568
 20
178.115219
 30
0.0
 70
0
  0
VERTEX
  8
0
 10
397.869568
 20
195.742386
 30
0.0
 70
0
  0
SEQEND
  8
0
  0
POLYLINE
  8
0
 62
4
 66
1
 10
0.0
 20
0.0
 30
0.0
 70
2
  0
VERTEX
  8
0
 10
394.249573
 20
178.115219
 30
0.0
 70
0
  0
VERTEX
  8
0
 10
394.249573
 20
195.767456
 30
0.0
 70
0
  0
SEQEND
  8
0
  0
POLYLINE
  8
0
 62
4
 66
1
 10
0.0
 20
0.0
 30
0.0
 70
2
  0
VERTEX
  8
0
 10
397.489563
 20
178.115219
 30
0.0
 70
0
  0
VERTEX
  8
0
 10
397.489563
 20
195.767456
 30
0.0
 70
0
  0
SEQEND
  8
0
  0
CIRCLE
  8
0
 62
7
 10
199.782593
 20
168.315216
 30
0.0
 40
2.0
  0
CIRCLE
  8
0
 62
4
 10
199.782593
 20
168.315216
 30
0.0
 40
1.62
  0
POLYLINE
  8
0
 62
4
 66
1
 10
0.0
 20
0.0
 30
0.0
 70
2
  0
VERTEX
  8
0
 10
403.097961
 20
170.315216
 30
0.0
 70
0
  0
VERTEX
  8
0
 10
423.296722
 20
170.315216
 30
0.0
 70
0
  0
SEQEND
  8
0
  0
POLYLINE
  8
0
 62
4
 66
1
 10
0.0
 20
0.0
 30
0.0
 70
2
  0
VERTEX
  8
0
 10
403.097961
 20
166.315216
 30
0.0
 70
0
  0
VERTEX
  8
0
 10
423.296722
 20
166.315216
 30
0.0
 70
0
  0
SEQEND
  8
0
  0
POLYLINE
  8
0
 62
4
 66
1
 10
0.0
 20
0.0
 30
0.0
 70
2
  0
VERTEX
  8
0
 10
403.192505
 20
169.935211
 30
0.0
 70
0
  0
VERTEX
  8
0
 10
423.321808
 20
169.935211
 30
0.0
 70
0
  0
SEQEND
  8
0
  0
POLYLINE
  8
0
 62
4
 66
1
 10
0.0
 20
0.0
 30
0.0
 70
2
  0
VERTEX
  8
0
 10
403.192505
 20
166.695221
 30
0.0
 70
0
  0
VERTEX
  8
0
 10
423.321808
 20
166.695221
 30
0.0
 70
0
  0
SEQEND
  8
0
  0
POLYLINE
  8
0
 62
4
 66
1
 10
0.0
 20
0.0
 30
0.0
 70
2
  0
VERTEX
  8
0
 10
167.282593
 20
160.315216
 30
0.0
 70
0
  0
VERTEX
  8
0
 10
167.282593
 20
121.815216
 30
0.0
 70
0
  0
VERTEX
  8
0
 10
168.282593
 20
120.815216
 30
0.0
 70
0
  0
VERTEX
  8
0
 10
191.282593
 20
120.815216
 30
0.0
 70
0
  0
VERTEX
  8
0
 10
192.282593
 20
121.815216
 30
0.0
 70
0
  0
VERTEX
  8
0
 10
192.282593
 20
139.815216
 30
0.0
 70
0
  0
SEQEND
  8
0
  0
POLYLINE
  8
0
 62
4
 66
1
 10
0.0
 20
0.0
 30
0.0
 70
2
  0
VERTEX
  8
0
 10
193.282593
 20
140.815216
 30
0.0
 70
0
  0
VERTEX
  8
0
 10
206.282593
 20
140.815216
 30
0.0
 70
0
  0
VERTEX
  8
0
 10
207.282593
 20
141.815216
 30
0.0
 70
0
  0
VERTEX
  8
0
 10
207.282593
 20
194.815216
 30
0.0
 70
0
  0
VERTEX
  8
0
 10
206.282593
 20
195.815216
 30
0.0
 70
0
  0
VERTEX
  8
0
 10
193.282593
 20
195.815216
 30
0.0
 70
0
  0
SEQEND
  8
0
  0
POLYLINE
  8
0
 62
4
 66
1
 10
0.0
 20
0.0
 30
0.0
 70
2
  0
VERTEX
  8
0
 10
192.282593
 20
196.815216
 30
0.0
 70
0
  0
VERTEX
  8
0
 10
192.282593
 20
214.815216
 30
0.0
 70
0
  0
VERTEX
  8
0
 10
191.282593
 20
215.815216
 30
0.0
 70
0
  0
VERTEX
  8
0
 10
168.282593
 20
215.815216
 30
0.0
 70
0
  0
VERTEX
  8
0
 10
167.282593
 20
214.815216
 30
0.0
 70
0
  0
VERTEX
  8
0
 10
167.282593
 20
160.315216
 30
0.0
 70
0
  0
SEQEND
  8
0
  0
CIRCLE
  8
0
 62
4
 10
395.869568
 20
168.315216
 30
0.0
 40
27.5
  0
ENDSEC
  0
EOF
