  0
SECTION
  2
ENTITIES
  0
LINE
  8
0
 62
4
 10
156.717407
 20
200.184784
 30
0.0
 11
176.717407
 21
200.184784
 31
0.0
  0
LINE
  8
0
 62
4
 10
156.717407
 20
115.184784
 30
0.0
 11
176.717407
 21
115.184784
 31
0.0
  0
LINE
  8
0
 62
4
 10
189.717407
 20
146.684784
 30
0.0
 11
190.717407
 21
145.684784
 31
0.0
  0
LINE
  8
0
 62
4
 10
189.717407
 20
168.684784
 30
0.0
 11
190.717407
 21
169.684784
 31
0.0
  0
LINE
  8
0
 62
4
 10
157.717407
 20
168.684784
 30
0.0
 11
157.717407
 21
146.684784
 31
0.0
  0
POLYLINE
  8
0
 62
4
 66
1
 10
0.0
 20
0.0
 30
0.0
 70
2
  0
VERTEX
  8
0
 10
156.717407
 20
145.684784
 30
0.0
 70
0
  0
VERTEX
  8
0
 10
157.717407
 20
146.684784
 30
0.0
 70
0
  0
VERTEX
  8
0
 10
189.717407
 20
146.684784
 30
0.0
 70
0
  0
VERTEX
  8
0
 10
189.717407
 20
168.684784
 30
0.0
 70
0
  0
VERTEX
  8
0
 10
157.717407
 20
168.684784
 30
0.0
 70
0
  0
VERTEX
  8
0
 10
156.717407
 20
169.684784
 30
0.0
 70
0
  0
SEQEND
  8
0
  0
CIRCLE
  8
0
 62
5
 10
166.717407
 20
193.934784
 30
0.0
 40
0.580435
  0
CIRCLE
  8
0
 62
5
 10
118.021759
 20
236.380432
 30
0.0
 40
7.73913
  0
CIRCLE
  8
0
 62
5
 10
166.717407
 20
137.184784
 30
0.0
 40
0.580435
  0
CIRCLE
  8
0
 62
5
 10
118.021759
 20
94.789131
 30
0.0
 40
7.73913
  0
LINE
  8
0
 62
4
 10
156.717407
 20
127.684784
 30
0.0
 11
176.717407
 21
127.684784
 31
0.0
  0
LINE
  8
0
 62
4
 10
156.717407
 20
187.684784
 30
0.0
 11
176.717407
 21
187.684784
 31
0.0
  0
ARC
  8
0
 62
4
 10
177.717407
 20
186.184784
 30
0.0
 40
1.0
 50
180.0
 51
270.0
  0
ARC
  8
0
 62
4
 10
177.717407
 20
129.184784
 30
0.0
 40
1.0
 50
90.0
 51
180.0
  0
ARC
  8
0
 62
4
 10
369.130432
 20
157.684784
 30
0.0
 40
11.0
 50
105.82662088647183
 51
74.17337911352817
  0
POLYLINE
  8
0
 62
4
 66
1
 10
0.0
 20
0.0
 30
0.0
 70
2
  0
VERTEX
  8
0
 10
372.130432
 20
168.267792
 30
0.0
 70
0
  0
VERTEX
  8
0
 10
372.130432
 20
171.484787
 30
0.0
 70
0
  0
VERTEX
  8
0
 10
366.130432
 20
171.484787
 30
0.0
 70
0
  0
VERTEX
  8
0
 10
366.130432
 20
168.267792
 30
0.0
 70
0
  0
SEQEND
  8
0
  0
LINE
  8
0
 62
4
 10
156.717407
 20
171.484787
 30
0.0
 11
190.717407
 21
171.484787
 31
0.0
  0
POLYLINE
  8
0
 62
4
 66
1
 10
0.0
 20
0.0
 30
0.0
 70
2
  0
VERTEX
  8
0
 10
186.217407
 20
185.184784
 30
0.0
 70
0
  0
VERTEX
  8
0
 10
186.217407
 20
171.484787
 30
0.0
 70
0
  0
SEQEND
  8
0
  0
POLYLINE
  8
0
 62
4
 66
1
 10
0.0
 20
0.0
 30
0.0
 70
2
  0
VERTEX
  8
0
 10
181.217407
 20
185.184784
 30
0.0
 70
0
  0
VERTEX
  8
0
 10
181.217407
 20
171.484787
 30
0.0
 70
0
  0
SEQEND
  8
0
  0
POLYLINE
  8
0
 62
4
 66
1
 10
0.0
 20
0.0
 30
0.0
 70
2
  0
VERTEX
  8
0
 10
185.78241
 20
185.184784
 30
0.0
 70
0
  0
VERTEX
  8
0
 10
185.78241
 20
171.484787
 30
0.0
 70
0
  0
SEQEND
  8
0
  0
POLYLINE
  8
0
 62
4
 66
1
 10
0.0
 20
0.0
 30
0.0
 70
2
  0
VERTEX
  8
0
 10
181.652405
 20
185.184784
 30
0.0
 70
0
  0
VERTEX
  8
0
 10
181.652405
 20
171.484787
 30
0.0
 70
0
  0
SEQEND
  8
0
  0
POLYLINE
  8
0
 62
4
 66
1
 10
0.0
 20
0.0
 30
0.0
 70
2
  0
VERTEX
  8
0
 10
366.630432
 20
171.484787
 30
0.0
 70
0
  0
VERTEX
  8
0
 10
366.630432
 20
185.070908
 30
0.0
 70
0
  0
SEQEND
  8
0
  0
POLYLINE
  8
0
 62
4
 66
1
 10
0.0
 20
0.0
 30
0.0
 70
2
  0
VERTEX
  8
0
 10
371.630432
 20
171.484787
 30
0.0
 70
0
  0
VERTEX
  8
0
 10
371.630432
 20
185.070908
 30
0.0
 70
0
  0
SEQEND
  8
0
  0
POLYLINE
  8
0
 62
4
 66
1
 10
0.0
 20
0.0
 30
0.0
 70
2
  0
VERTEX
  8
0
 10
367.06543
 20
171.484787
 30
0.0
 70
0
  0
VERTEX
  8
0
 10
367.06543
 20
185.107147
 30
0.0
 70
0
  0
SEQEND
  8
0
  0
POLYLINE
  8
0
 62
4
 66
1
 10
0.0
 20
0.0
 30
0.0
 70
2
  0
VERTEX
  8
0
 10
371.195435
 20
171.484787
 30
0.0
 70
0
  0
VERTEX
  8
0
 10
371.195435
 20
185.107147
 30
0.0
 70
0
  0
SEQEND
  8
0
  0
CIRCLE
  8
0
 62
7
 10
183.717407
 20
157.684784
 30
0.0
 40
2.5
  0
CIRCLE
  8
0
 62
4
 10
183.717407
 20
157.684784
 30
0.0
 40
2.065
  0
POLYLINE
  8
0
 62
4
 66
1
 10
0.0
 20
0.0
 30
0.0
 70
2
  0
VERTEX
  8
0
 10
379.84259
 20
160.184784
 30
0.0
 70
0
  0
VERTEX
  8
0
 10
396.516571
 20
160.184784
 30
0.0
 70
0
  0
SEQEND
  8
0
  0
POLYLINE
  8
0
 62
4
 66
1
 10
0.0
 20
0.0
 30
0.0
 70
2
  0
VERTEX
  8
0
 10
379.84259
 20
155.184784
 30
0.0
 70
0
  0
VERTEX
  8
0
 10
396.516571
 20
155.184784
 30
0.0
 70
0
  0
SEQEND
  8
0
  0
POLYLINE
  8
0
 62
4
 66
1
 10
0.0
 20
0.0
 30
0.0
 70
2
  0
VERTEX
  8
0
 10
379.934875
 20
159.749786
 30
0.0
 70
0
  0
VERTEX
  8
0
 10
396.552795
 20
159.749786
 30
0.0
 70
0
  0
SEQEND
  8
0
  0
POLYLINE
  8
0
 62
4
 66
1
 10
0.0
 20
0.0
 30
0.0
 70
2
  0
VERTEX
  8
0
 10
379.934875
 20
155.619781
 30
0.0
 70
0
  0
VERTEX
  8
0
 10
396.552795
 20
155.619781
 30
0.0
 70
0
  0
SEQEND
  8
0
  0
POLYLINE
  8
0
 62
4
 66
1
 10
0.0
 20
0.0
 30
0.0
 70
2
  0
VERTEX
  8
0
 10
156.717407
 20
145.684784
 30
0.0
 70
0
  0
VERTEX
  8
0
 10
156.717407
 20
111.184784
 30
0.0
 70
0
  0
VERTEX
  8
0
 10
157.217407
 20
110.684784
 30
0.0
 70
0
  0
VERTEX
  8
0
 10
176.217407
 20
110.684784
 30
0.0
 70
0
  0
VERTEX
  8
0
 10
176.717407
 20
111.184784
 30
0.0
 70
0
  0
VERTEX
  8
0
 10
176.717407
 20
129.184784
 30
0.0
 70
0
  0
SEQEND
  8
0
  0
POLYLINE
  8
0
 62
4
 66
1
 10
0.0
 20
0.0
 30
0.0
 70
2
  0
VERTEX
  8
0
 10
177.717407
 20
130.184784
 30
0.0
 70
0
  0
VERTEX
  8
0
 10
190.217407
 20
130.184784
 30
0.0
 70
0
  0
VERTEX
  8
0
 10
190.717407
 20
130.684784
 30
0.0
 70
0
  0
VERTEX
  8
0
 10
190.717407
 20
184.684784
 30
0.0
 70
0
  0
VERTEX
  8
0
 10
190.217407
 20
185.184784
 30
0.0
 70
0
  0
VERTEX
  8
0
 10
177.717407
 20
185.184784
 30
0.0
 70
0
  0
SEQEND
  8
0
  0
POLYLINE
  8
0
 62
4
 66
1
 10
0.0
 20
0.0
 30
0.0
 70
2
  0
VERTEX
  8
0
 10
176.717407
 20
186.184784
 30
0.0
 70
0
  0
VERTEX
  8
0
 10
176.717407
 20
204.184784
 30
0.0
 70
0
  0
VERTEX
  8
0
 10
176.217407
 20
204.684784
 30
0.0
 70
0
  0
VERTEX
  8
0
 10
157.217407
 20
204.684784
 30
0.0
 70
0
  0
VERTEX
  8
0
 10
156.717407
 20
204.184784
 30
0.0
 70
0
  0
VERTEX
  8
0
 10
156.717407
 20
145.684784
 30
0.0
 70
0
  0
SEQEND
  8
0
  0
CIRCLE
  8
0
 62
4
 10
369.130432
 20
157.684784
 30
0.0
 40
27.5
  0
ENDSEC
  0
EOF
