  0
SECTION
  2
ENTITIES
  0
LINE
  8
0
 62
4
 10
184.891312
 20
242.907608
 30
0.0
 11
209.891312
 21
242.907608
 31
0.0
  0
LINE
  8
0
 62
4
 10
184.891312
 20
129.157608
 30
0.0
 11
209.891312
 21
129.157608
 31
0.0
  0
LINE
  8
0
 62
4
 10
223.891312
 20
175.032608
 30
0.0
 11
224.891312
 21
174.032608
 31
0.0
  0
LINE
  8
0
 62
4
 10
223.891312
 20
197.032608
 30
0.0
 11
224.891312
 21
198.032608
 31
0.0
  0
LINE
  8
0
 62
4
 10
185.891312
 20
197.032608
 30
0.0
 11
185.891312
 21
175.032608
 31
0.0
  0
POLYLINE
  8
0
 62
4
 66
1
 10
0.0
 20
0.0
 30
0.0
 70
2
  0
VERTEX
  8
0
 10
184.891312
 20
174.032608
 30
0.0
 70
0
  0
VERTEX
  8
0
 10
185.891312
 20
175.032608
 30
0.0
 70
0
  0
VERTEX
  8
0
 10
223.891312
 20
175.032608
 30
0.0
 70
0
  0
VERTEX
  8
0
 10
223.891312
 20
197.032608
 30
0.0
 70
0
  0
VERTEX
  8
0
 10
185.891312
 20
197.032608
 30
0.0
 70
0
  0
VERTEX
  8
0
 10
184.891312
 20
198.032608
 30
0.0
 70
0
  0
SEQEND
  8
0
  0
CIRCLE
  8
0
 62
5
 10
197.391312
 20
235.720108
 30
0.0
 40
0.684783
  0
CIRCLE
  8
0
 62
5
 10
139.239136
 20
285.684784
 30
0.0
 40
9.130435
  0
CIRCLE
  8
0
 62
5
 10
197.391312
 20
159.282608
 30
0.0
 40
0.684783
  0
CIRCLE
  8
0
 62
5
 10
139.239136
 20
112.180435
 30
0.0
 40
9.130435
  0
LINE
  8
0
 62
4
 10
184.891312
 20
143.532608
 30
0.0
 11
209.891312
 21
143.532608
 31
0.0
  0
LINE
  8
0
 62
4
 10
184.891312
 20
228.532608
 30
0.0
 11
209.891312
 21
228.532608
 31
0.0
  0
ARC
  8
0
 62
4
 10
211.391312
 20
220.032608
 30
0.0
 40
1.5
 50
180.0
 51
270.0
  0
ARC
  8
0
 62
4
 10
211.391312
 20
152.032608
 30
0.0
 40
1.5
 50
90.0
 51
180.0
  0
ARC
  8
0
 62
4
 10
435.434784
 20
186.032608
 30
0.0
 40
11.0
 50
105.82662088647183
 51
74.17337911352817
  0
POLYLINE
  8
0
 62
4
 66
1
 10
0.0
 20
0.0
 30
0.0
 70
2
  0
VERTEX
  8
0
 10
438.434784
 20
196.615616
 30
0.0
 70
0
  0
VERTEX
  8
0
 10
438.434784
 20
199.832611
 30
0.0
 70
0
  0
VERTEX
  8
0
 10
432.434784
 20
199.832611
 30
0.0
 70
0
  0
VERTEX
  8
0
 10
432.434784
 20
196.615616
 30
0.0
 70
0
  0
SEQEND
  8
0
  0
LINE
  8
0
 62
4
 10
184.891312
 20
199.832611
 30
0.0
 11
224.891312
 21
199.832611
 31
0.0
  0
POLYLINE
  8
0
 62
4
 66
1
 10
0.0
 20
0.0
 30
0.0
 70
2
  0
VERTEX
  8
0
 10
219.891312
 20
218.532608
 30
0.0
 70
0
  0
VERTEX
  8
0
 10
219.891312
 20
199.832611
 30
0.0
 70
0
  0
SEQEND
  8
0
  0
POLYLINE
  8
0
 62
4
 66
1
 10
0.0
 20
0.0
 30
0.0
 70
2
  0
VERTEX
  8
0
 10
214.891312
 20
218.532608
 30
0.0
 70
0
  0
VERTEX
  8
0
 10
214.891312
 20
199.832611
 30
0.0
 70
0
  0
SEQEND
  8
0
  0
POLYLINE
  8
0
 62
4
 66
1
 10
0.0
 20
0.0
 30
0.0
 70
2
  0
VERTEX
  8
0
 10
219.456314
 20
218.532608
 30
0.0
 70
0
  0
VERTEX
  8
0
 10
219.456314
 20
199.832611
 30
0.0
 70
0
  0
SEQEND
  8
0
  0
POLYLINE
  8
0
 62
4
 66
1
 10
0.0
 20
0.0
 30
0.0
 70
2
  0
VERTEX
  8
0
 10
215.326309
 20
218.532608
 30
0.0
 70
0
  0
VERTEX
  8
0
 10
215.326309
 20
199.832611
 30
0.0
 70
0
  0
SEQEND
  8
0
  0
POLYLINE
  8
0
 62
4
 66
1
 10
0.0
 20
0.0
 30
0.0
 70
2
  0
VERTEX
  8
0
 10
432.934784
 20
199.832611
 30
0.0
 70
0
  0
VERTEX
  8
0
 10
432.934784
 20
218.43631
 30
0.0
 70
0
  0
SEQEND
  8
0
  0
POLYLINE
  8
0
 62
4
 66
1
 10
0.0
 20
0.0
 30
0.0
 70
2
  0
VERTEX
  8
0
 10
437.934784
 20
199.832611
 30
0.0
 70
0
  0
VERTEX
  8
0
 10
437.934784
 20
218.43631
 30
0.0
 70
0
  0
SEQEND
  8
0
  0
POLYLINE
  8
0
 62
4
 66
1
 10
0.0
 20
0.0
 30
0.0
 70
2
  0
VERTEX
  8
0
 10
433.369781
 20
199.832611
 30
0.0
 70
0
  0
VERTEX
  8
0
 10
433.369781
 20
218.466934
 30
0.0
 70
0
  0
SEQEND
  8
0
  0
POLYLINE
  8
0
 62
4
 66
1
 10
0.0
 20
0.0
 30
0.0
 70
2
  0
VERTEX
  8
0
 10
437.499786
 20
199.832611
 30
0.0
 70
0
  0
VERTEX
  8
0
 10
437.499786
 20
218.466934
 30
0.0
 70
0
  0
SEQEND
  8
0
  0
CIRCLE
  8
0
 62
7
 10
217.391312
 20
186.032608
 30
0.0
 40
2.5
  0
CIRCLE
  8
0
 62
4
 10
217.391312
 20
186.032608
 30
0.0
 40
2.065
  0
POLYLINE
  8
0
 62
4
 66
1
 10
0.0
 20
0.0
 30
0.0
 70
2
  0
VERTEX
  8
0
 10
446.146912
 20
188.532608
 30
0.0
 70
0
  0
VERTEX
  8
0
 10
467.838501
 20
188.532608
 30
0.0
 70
0
  0
SEQEND
  8
0
  0
POLYLINE
  8
0
 62
4
 66
1
 10
0.0
 20
0.0
 30
0.0
 70
2
  0
VERTEX
  8
0
 10
446.146912
 20
183.532608
 30
0.0
 70
0
  0
VERTEX
  8
0
 10
467.838501
 20
183.532608
 30
0.0
 70
0
  0
SEQEND
  8
0
  0
POLYLINE
  8
0
 62
4
 66
1
 10
0.0
 20
0.0
 30
0.0
 70
2
  0
VERTEX
  8
0
 10
446.239197
 20
188.09761
 30
0.0
 70
0
  0
VERTEX
  8
0
 10
467.869141
 20
188.09761
 30
0.0
 70
0
  0
SEQEND
  8
0
  0
POLYLINE
  8
0
 62
4
 66
1
 10
0.0
 20
0.0
 30
0.0
 70
2
  0
VERTEX
  8
0
 10
446.239197
 20
183.967606
 30
0.0
 70
0
  0
VERTEX
  8
0
 10
467.869141
 20
183.967606
 30
0.0
 70
0
  0
SEQEND
  8
0
  0
POLYLINE
  8
0
 62
4
 66
1
 10
0.0
 20
0.0
 30
0.0
 70
2
  0
VERTEX
  8
0
 10
184.891312
 20
174.032608
 30
0.0
 70
0
  0
VERTEX
  8
0
 10
184.891312
 20
124.532608
 30
0.0
 70
0
  0
VERTEX
  8
0
 10
185.891312
 20
123.532608
 30
0.0
 70
0
  0
VERTEX
  8
0
 10
208.891312
 20
123.532608
 30
0.0
 70
0
  0
VERTEX
  8
0
 10
209.891312
 20
124.532608
 30
0.0
 70
0
  0
VERTEX
  8
0
 10
209.891312
 20
152.032608
 30
0.0
 70
0
  0
SEQEND
  8
0
  0
POLYLINE
  8
0
 62
4
 66
1
 10
0.0
 20
0.0
 30
0.0
 70
2
  0
VERTEX
  8
0
 10
211.391312
 20
153.532608
 30
0.0
 70
0
  0
VERTEX
  8
0
 10
223.891312
 20
153.532608
 30
0.0
 70
0
  0
VERTEX
  8
0
 10
224.891312
 20
154.532608
 30
0.0
 70
0
  0
VERTEX
  8
0
 10
224.891312
 20
217.532608
 30
0.0
 70
0
  0
VERTEX
  8
0
 10
223.891312
 20
218.532608
 30
0.0
 70
0
  0
VERTEX
  8
0
 10
211.391312
 20
218.532608
 30
0.0
 70
0
  0
SEQEND
  8
0
  0
POLYLINE
  8
0
 62
4
 66
1
 10
0.0
 20
0.0
 30
0.0
 70
2
  0
VERTEX
  8
0
 10
209.891312
 20
220.032608
 30
0.0
 70
0
  0
VERTEX
  8
0
 10
209.891312
 20
247.532608
 30
0.0
 70
0
  0
VERTEX
  8
0
 10
208.891312
 20
248.532608
 30
0.0
 70
0
  0
VERTEX
  8
0
 10
185.891312
 20
248.532608
 30
0.0
 70
0
  0
VERTEX
  8
0
 10
184.891312
 20
247.532608
 30
0.0
 70
0
  0
VERTEX
  8
0
 10
184.891312
 20
174.032608
 30
0.0
 70
0
  0
SEQEND
  8
0
  0
CIRCLE
  8
0
 62
4
 10
435.434784
 20
186.032608
 30
0.0
 40
32.5
  0
ENDSEC
  0
EOF
