  0
SECTION
  2
ENTITIES
  0
LINE
  8
0
 62
4
 10
149.67392
 20
179.847824
 30
0.0
 11
179.67392
 21
179.847824
 31
0.0
  0
LINE
  8
0
 62
4
 10
149.67392
 20
121.347824
 30
0.0
 11
179.67392
 21
121.347824
 31
0.0
  0
LINE
  8
0
 62
4
 10
196.17392
 20
143.097824
 30
0.0
 11
196.67392
 21
142.597824
 31
0.0
  0
LINE
  8
0
 62
4
 10
196.17392
 20
158.097824
 30
0.0
 11
196.67392
 21
158.597824
 31
0.0
  0
LINE
  8
0
 62
4
 10
150.17392
 20
158.097824
 30
0.0
 11
150.17392
 21
143.097824
 31
0.0
  0
POLYLINE
  8
0
 62
4
 66
1
 10
0.0
 20
0.0
 30
0.0
 70
2
  0
VERTEX
  8
0
 10
149.67392
 20
142.597824
 30
0.0
 70
0
  0
VERTEX
  8
0
 10
150.17392
 20
143.097824
 30
0.0
 70
0
  0
VERTEX
  8
0
 10
196.17392
 20
143.097824
 30
0.0
 70
0
  0
VERTEX
  8
0
 10
196.17392
 20
158.097824
 30
0.0
 70
0
  0
VERTEX
  8
0
 10
150.17392
 20
158.097824
 30
0.0
 70
0
  0
VERTEX
  8
0
 10
149.67392
 20
158.597824
 30
0.0
 70
0
  0
SEQEND
  8
0
  0
CIRCLE
  8
0
 62
5
 10
164.67392
 20
174.722824
 30
0.0
 40
0.554348
  0
CIRCLE
  8
0
 62
5
 10
112.7174
 20
214.754349
 30
0.0
 40
7.391304
  0
CIRCLE
  8
0
 62
5
 10
164.67392
 20
137.347824
 30
0.0
 40
0.554348
  0
CIRCLE
  8
0
 62
5
 10
112.7174
 20
96.941299
 30
0.0
 40
7.391304
  0
LINE
  8
0
 62
4
 10
149.67392
 20
131.597824
 30
0.0
 11
179.67392
 21
131.597824
 31
0.0
  0
LINE
  8
0
 62
4
 10
149.67392
 20
169.597824
 30
0.0
 11
179.67392
 21
169.597824
 31
0.0
  0
ARC
  8
0
 62
4
 10
180.67392
 20
170.597824
 30
0.0
 40
1.0
 50
180.0
 51
270.0
  0
ARC
  8
0
 62
4
 10
180.67392
 20
130.597824
 30
0.0
 40
1.0
 50
90.0
 51
180.0
  0
ARC
  8
0
 62
4
 10
359.804352
 20
150.597824
 30
0.0
 40
7.5
 50
109.47122094265586
 51
70.52877905734415
  0
POLYLINE
  8
0
 62
4
 66
1
 10
0.0
 20
0.0
 30
0.0
 70
2
  0
VERTEX
  8
0
 10
362.304352
 20
157.668884
 30
0.0
 70
0
  0
VERTEX
  8
0
 10
362.304352
 20
160.397827
 30
0.0
 70
0
  0
VERTEX
  8
0
 10
357.304352
 20
160.397827
 30
0.0
 70
0
  0
VERTEX
  8
0
 10
357.304352
 20
157.668884
 30
0.0
 70
0
  0
SEQEND
  8
0
  0
LINE
  8
0
 62
4
 10
149.67392
 20
160.397827
 30
0.0
 11
196.67392
 21
160.397827
 31
0.0
  0
POLYLINE
  8
0
 62
4
 66
1
 10
0.0
 20
0.0
 30
0.0
 70
2
  0
VERTEX
  8
0
 10
190.17392
 20
169.597824
 30
0.0
 70
0
  0
VERTEX
  8
0
 10
190.17392
 20
160.397827
 30
0.0
 70
0
  0
SEQEND
  8
0
  0
POLYLINE
  8
0
 62
4
 66
1
 10
0.0
 20
0.0
 30
0.0
 70
2
  0
VERTEX
  8
0
 10
186.17392
 20
169.597824
 30
0.0
 70
0
  0
VERTEX
  8
0
 10
186.17392
 20
160.397827
 30
0.0
 70
0
  0
SEQEND
  8
0
  0
POLYLINE
  8
0
 62
4
 66
1
 10
0.0
 20
0.0
 30
0.0
 70
2
  0
VERTEX
  8
0
 10
189.793915
 20
169.597824
 30
0.0
 70
0
  0
VERTEX
  8
0
 10
189.793915
 20
160.397827
 30
0.0
 70
0
  0
SEQEND
  8
0
  0
POLYLINE
  8
0
 62
4
 66
1
 10
0.0
 20
0.0
 30
0.0
 70
2
  0
VERTEX
  8
0
 10
186.553925
 20
169.597824
 30
0.0
 70
0
  0
VERTEX
  8
0
 10
186.553925
 20
160.397827
 30
0.0
 70
0
  0
SEQEND
  8
0
  0
POLYLINE
  8
0
 62
4
 66
1
 10
0.0
 20
0.0
 30
0.0
 70
2
  0
VERTEX
  8
0
 10
357.804352
 20
160.397827
 30
0.0
 70
0
  0
VERTEX
  8
0
 10
357.804352
 20
169.492264
 30
0.0
 70
0
  0
SEQEND
  8
0
  0
POLYLINE
  8
0
 62
4
 66
1
 10
0.0
 20
0.0
 30
0.0
 70
2
  0
VERTEX
  8
0
 10
361.804352
 20
160.397827
 30
0.0
 70
0
  0
VERTEX
  8
0
 10
361.804352
 20
169.492264
 30
0.0
 70
0
  0
SEQEND
  8
0
  0
POLYLINE
  8
0
 62
4
 66
1
 10
0.0
 20
0.0
 30
0.0
 70
2
  0
VERTEX
  8
0
 10
358.184357
 20
160.397827
 30
0.0
 70
0
  0
VERTEX
  8
0
 10
358.184357
 20
169.528641
 30
0.0
 70
0
  0
SEQEND
  8
0
  0
POLYLINE
  8
0
 62
4
 66
1
 10
0.0
 20
0.0
 30
0.0
 70
2
  0
VERTEX
  8
0
 10
361.424347
 20
160.397827
 30
0.0
 70
0
  0
VERTEX
  8
0
 10
361.424347
 20
169.528641
 30
0.0
 70
0
  0
SEQEND
  8
0
  0
CIRCLE
  8
0
 62
7
 10
188.17392
 20
150.597824
 30
0.0
 40
2.0
  0
CIRCLE
  8
0
 62
4
 10
188.17392
 20
150.597824
 30
0.0
 40
1.62
  0
POLYLINE
  8
0
 62
4
 66
1
 10
0.0
 20
0.0
 30
0.0
 70
2
  0
VERTEX
  8
0
 10
367.032776
 20
152.597824
 30
0.0
 70
0
  0
VERTEX
  8
0
 10
378.698792
 20
152.597824
 30
0.0
 70
0
  0
SEQEND
  8
0
  0
POLYLINE
  8
0
 62
4
 66
1
 10
0.0
 20
0.0
 30
0.0
 70
2
  0
VERTEX
  8
0
 10
367.032776
 20
148.597824
 30
0.0
 70
0
  0
VERTEX
  8
0
 10
378.698792
 20
148.597824
 30
0.0
 70
0
  0
SEQEND
  8
0
  0
POLYLINE
  8
0
 62
4
 66
1
 10
0.0
 20
0.0
 30
0.0
 70
2
  0
VERTEX
  8
0
 10
367.127319
 20
152.217819
 30
0.0
 70
0
  0
VERTEX
  8
0
 10
378.735168
 20
152.217819
 30
0.0
 70
0
  0
SEQEND
  8
0
  0
POLYLINE
  8
0
 62
4
 66
1
 10
0.0
 20
0.0
 30
0.0
 70
2
  0
VERTEX
  8
0
 10
367.127319
 20
148.977829
 30
0.0
 70
0
  0
VERTEX
  8
0
 10
378.735168
 20
148.977829
 30
0.0
 70
0
  0
SEQEND
  8
0
  0
POLYLINE
  8
0
 62
4
 66
1
 10
0.0
 20
0.0
 30
0.0
 70
2
  0
VERTEX
  8
0
 10
149.67392
 20
142.597824
 30
0.0
 70
0
  0
VERTEX
  8
0
 10
149.67392
 20
115.597824
 30
0.0
 70
0
  0
VERTEX
  8
0
 10
150.67392
 20
114.597824
 30
0.0
 70
0
  0
VERTEX
  8
0
 10
178.67392
 20
114.597824
 30
0.0
 70
0
  0
VERTEX
  8
0
 10
179.67392
 20
115.597824
 30
0.0
 70
0
  0
VERTEX
  8
0
 10
179.67392
 20
130.597824
 30
0.0
 70
0
  0
SEQEND
  8
0
  0
POLYLINE
  8
0
 62
4
 66
1
 10
0.0
 20
0.0
 30
0.0
 70
2
  0
VERTEX
  8
0
 10
180.67392
 20
131.597824
 30
0.0
 70
0
  0
VERTEX
  8
0
 10
195.67392
 20
131.597824
 30
0.0
 70
0
  0
VERTEX
  8
0
 10
196.67392
 20
132.597824
 30
0.0
 70
0
  0
VERTEX
  8
0
 10
196.67392
 20
168.597824
 30
0.0
 70
0
  0
VERTEX
  8
0
 10
195.67392
 20
169.597824
 30
0.0
 70
0
  0
VERTEX
  8
0
 10
180.67392
 20
169.597824
 30
0.0
 70
0
  0
SEQEND
  8
0
  0
POLYLINE
  8
0
 62
4
 66
1
 10
0.0
 20
0.0
 30
0.0
 70
2
  0
VERTEX
  8
0
 10
179.67392
 20
170.597824
 30
0.0
 70
0
  0
VERTEX
  8
0
 10
179.67392
 20
185.597824
 30
0.0
 70
0
  0
VERTEX
  8
0
 10
178.67392
 20
186.597824
 30
0.0
 70
0
  0
VERTEX
  8
0
 10
150.67392
 20
186.597824
 30
0.0
 70
0
  0
VERTEX
  8
0
 10
149.67392
 20
185.597824
 30
0.0
 70
0
  0
VERTEX
  8
0
 10
149.67392
 20
142.597824
 30
0.0
 70
0
  0
SEQEND
  8
0
  0
CIRCLE
  8
0
 62
4
 10
359.804352
 20
150.597824
 30
0.0
 40
19.0
  0
ENDSEC
  0
EOF
