  0
SECTION
  2
ENTITIES
  0
LINE
  8
0
 62
4
 10
206.021729
 20
305.543488
 30
0.0
 11
236.021729
 21
305.543488
 31
0.0
  0
LINE
  8
0
 62
4
 10
206.021729
 20
109.043488
 30
0.0
 11
236.021729
 21
109.043488
 31
0.0
  0
LINE
  8
0
 62
4
 10
252.021729
 20
191.293488
 30
0.0
 11
253.021729
 21
190.293488
 31
0.0
  0
LINE
  8
0
 62
4
 10
252.021729
 20
223.293488
 30
0.0
 11
253.021729
 21
224.293488
 31
0.0
  0
LINE
  8
0
 62
4
 10
207.021729
 20
223.293488
 30
0.0
 11
207.021729
 21
191.293488
 31
0.0
  0
POLYLINE
  8
0
 62
4
 66
1
 10
0.0
 20
0.0
 30
0.0
 70
2
  0
VERTEX
  8
0
 10
206.021729
 20
190.293488
 30
0.0
 70
0
  0
VERTEX
  8
0
 10
207.021729
 20
191.293488
 30
0.0
 70
0
  0
VERTEX
  8
0
 10
252.021729
 20
191.293488
 30
0.0
 70
0
  0
VERTEX
  8
0
 10
252.021729
 20
223.293488
 30
0.0
 70
0
  0
VERTEX
  8
0
 10
207.021729
 20
223.293488
 30
0.0
 70
0
  0
VERTEX
  8
0
 10
206.021729
 20
224.293488
 30
0.0
 70
0
  0
SEQEND
  8
0
  0
CIRCLE
  8
0
 62
5
 10
221.021729
 20
297.668488
 30
0.0
 40
0.763044
  0
CIRCLE
  8
0
 62
5
 10
155.152161
 20
353.263062
 30
0.0
 40
10.173913
  0
CIRCLE
  8
0
 62
5
 10
221.021729
 20
158.043488
 30
0.0
 40
0.763044
  0
CIRCLE
  8
0
 62
5
 10
155.152161
 20
125.223923
 30
0.0
 40
10.173913
  0
LINE
  8
0
 62
4
 10
206.021729
 20
124.793488
 30
0.0
 11
236.021729
 21
124.793488
 31
0.0
  0
LINE
  8
0
 62
4
 10
206.021729
 20
289.793488
 30
0.0
 11
236.021729
 21
289.793488
 31
0.0
  0
ARC
  8
0
 62
4
 10
237.521729
 20
243.793488
 30
0.0
 40
1.5
 50
180.0
 51
270.0
  0
ARC
  8
0
 62
4
 10
237.521729
 20
170.793488
 30
0.0
 40
1.5
 50
90.0
 51
180.0
  0
ARC
  8
0
 62
4
 10
486.413025
 20
207.293488
 30
0.0
 40
16.0
 50
108.20995732853793
 51
71.79004267146207
  0
POLYLINE
  8
0
 62
4
 66
1
 10
0.0
 20
0.0
 30
0.0
 70
2
  0
VERTEX
  8
0
 10
491.413025
 20
222.492172
 30
0.0
 70
0
  0
VERTEX
  8
0
 10
491.413025
 20
226.593491
 30
0.0
 70
0
  0
VERTEX
  8
0
 10
481.413025
 20
226.593491
 30
0.0
 70
0
  0
VERTEX
  8
0
 10
481.413025
 20
222.492172
 30
0.0
 70
0
  0
SEQEND
  8
0
  0
LINE
  8
0
 62
4
 10
206.021729
 20
226.593491
 30
0.0
 11
253.021729
 21
226.593491
 31
0.0
  0
POLYLINE
  8
0
 62
4
 66
1
 10
0.0
 20
0.0
 30
0.0
 70
2
  0
VERTEX
  8
0
 10
248.521729
 20
242.293488
 30
0.0
 70
0
  0
VERTEX
  8
0
 10
248.521729
 20
226.593491
 30
0.0
 70
0
  0
SEQEND
  8
0
  0
POLYLINE
  8
0
 62
4
 66
1
 10
0.0
 20
0.0
 30
0.0
 70
2
  0
VERTEX
  8
0
 10
240.521729
 20
242.293488
 30
0.0
 70
0
  0
VERTEX
  8
0
 10
240.521729
 20
226.593491
 30
0.0
 70
0
  0
SEQEND
  8
0
  0
POLYLINE
  8
0
 62
4
 66
1
 10
0.0
 20
0.0
 30
0.0
 70
2
  0
VERTEX
  8
0
 10
247.846725
 20
242.293488
 30
0.0
 70
0
  0
VERTEX
  8
0
 10
247.846725
 20
226.593491
 30
0.0
 70
0
  0
SEQEND
  8
0
  0
POLYLINE
  8
0
 62
4
 66
1
 10
0.0
 20
0.0
 30
0.0
 70
2
  0
VERTEX
  8
0
 10
241.196732
 20
242.293488
 30
0.0
 70
0
  0
VERTEX
  8
0
 10
241.196732
 20
226.593491
 30
0.0
 70
0
  0
SEQEND
  8
0
  0
POLYLINE
  8
0
 62
4
 66
1
 10
0.0
 20
0.0
 30
0.0
 70
2
  0
VERTEX
  8
0
 10
482.413025
 20
226.593491
 30
0.0
 70
0
  0
VERTEX
  8
0
 10
482.413025
 20
242.064163
 30
0.0
 70
0
  0
SEQEND
  8
0
  0
POLYLINE
  8
0
 62
4
 66
1
 10
0.0
 20
0.0
 30
0.0
 70
2
  0
VERTEX
  8
0
 10
490.413025
 20
226.593491
 30
0.0
 70
0
  0
VERTEX
  8
0
 10
490.413025
 20
242.064163
 30
0.0
 70
0
  0
SEQEND
  8
0
  0
POLYLINE
  8
0
 62
4
 66
1
 10
0.0
 20
0.0
 30
0.0
 70
2
  0
VERTEX
  8
0
 10
483.088013
 20
226.593491
 30
0.0
 70
0
  0
VERTEX
  8
0
 10
483.088013
 20
242.135193
 30
0.0
 70
0
  0
SEQEND
  8
0
  0
POLYLINE
  8
0
 62
4
 66
1
 10
0.0
 20
0.0
 30
0.0
 70
2
  0
VERTEX
  8
0
 10
489.738037
 20
226.593491
 30
0.0
 70
0
  0
VERTEX
  8
0
 10
489.738037
 20
242.135193
 30
0.0
 70
0
  0
SEQEND
  8
0
  0
CIRCLE
  8
0
 62
7
 10
244.521729
 20
207.293488
 30
0.0
 40
4.0
  0
CIRCLE
  8
0
 62
4
 10
244.521729
 20
207.293488
 30
0.0
 40
3.325
  0
POLYLINE
  8
0
 62
4
 66
1
 10
0.0
 20
0.0
 30
0.0
 70
2
  0
VERTEX
  8
0
 10
501.904968
 20
211.293488
 30
0.0
 70
0
  0
VERTEX
  8
0
 10
521.183716
 20
211.293488
 30
0.0
 70
0
  0
SEQEND
  8
0
  0
POLYLINE
  8
0
 62
4
 66
1
 10
0.0
 20
0.0
 30
0.0
 70
2
  0
VERTEX
  8
0
 10
501.904968
 20
203.293488
 30
0.0
 70
0
  0
VERTEX
  8
0
 10
521.183716
 20
203.293488
 30
0.0
 70
0
  0
SEQEND
  8
0
  0
POLYLINE
  8
0
 62
4
 66
1
 10
0.0
 20
0.0
 30
0.0
 70
2
  0
VERTEX
  8
0
 10
502.063721
 20
210.618484
 30
0.0
 70
0
  0
VERTEX
  8
0
 10
521.254761
 20
210.618484
 30
0.0
 70
0
  0
SEQEND
  8
0
  0
POLYLINE
  8
0
 62
4
 66
1
 10
0.0
 20
0.0
 30
0.0
 70
2
  0
VERTEX
  8
0
 10
502.063721
 20
203.968491
 30
0.0
 70
0
  0
VERTEX
  8
0
 10
521.254761
 20
203.968491
 30
0.0
 70
0
  0
SEQEND
  8
0
  0
POLYLINE
  8
0
 62
4
 66
1
 10
0.0
 20
0.0
 30
0.0
 70
2
  0
VERTEX
  8
0
 10
206.021729
 20
190.293488
 30
0.0
 70
0
  0
VERTEX
  8
0
 10
206.021729
 20
103.293488
 30
0.0
 70
0
  0
VERTEX
  8
0
 10
207.021729
 20
102.293488
 30
0.0
 70
0
  0
VERTEX
  8
0
 10
235.021729
 20
102.293488
 30
0.0
 70
0
  0
VERTEX
  8
0
 10
236.021729
 20
103.293488
 30
0.0
 70
0
  0
VERTEX
  8
0
 10
236.021729
 20
170.793488
 30
0.0
 70
0
  0
SEQEND
  8
0
  0
POLYLINE
  8
0
 62
4
 66
1
 10
0.0
 20
0.0
 30
0.0
 70
2
  0
VERTEX
  8
0
 10
237.521729
 20
172.293488
 30
0.0
 70
0
  0
VERTEX
  8
0
 10
252.021729
 20
172.293488
 30
0.0
 70
0
  0
VERTEX
  8
0
 10
253.021729
 20
173.293488
 30
0.0
 70
0
  0
VERTEX
  8
0
 10
253.021729
 20
241.293488
 30
0.0
 70
0
  0
VERTEX
  8
0
 10
252.021729
 20
242.293488
 30
0.0
 70
0
  0
VERTEX
  8
0
 10
237.521729
 20
242.293488
 30
0.0
 70
0
  0
SEQEND
  8
0
  0
POLYLINE
  8
0
 62
4
 66
1
 10
0.0
 20
0.0
 30
0.0
 70
2
  0
VERTEX
  8
0
 10
236.021729
 20
243.793488
 30
0.0
 70
0
  0
VERTEX
  8
0
 10
236.021729
 20
311.293488
 30
0.0
 70
0
  0
VERTEX
  8
0
 10
235.021729
 20
312.293488
 30
0.0
 70
0
  0
VERTEX
  8
0
 10
207.021729
 20
312.293488
 30
0.0
 70
0
  0
VERTEX
  8
0
 10
206.021729
 20
311.293488
 30
0.0
 70
0
  0
VERTEX
  8
0
 10
206.021729
 20
190.293488
 30
0.0
 70
0
  0
SEQEND
  8
0
  0
CIRCLE
  8
0
 62
4
 10
486.413025
 20
207.293488
 30
0.0
 40
35.0
  0
ENDSEC
  0
EOF
