  0
SECTION
  2
ENTITIES
  0
LINE
  8
0
 62
4
 10
162.0
 20
196.75
 30
0.0
 11
192.0
 21
196.75
 31
0.0
  0
LINE
  8
0
 62
4
 10
162.0
 20
129.25
 30
0.0
 11
192.0
 21
129.25
 31
0.0
  0
LINE
  8
0
 62
4
 10
208.0
 20
153.0
 30
0.0
 11
209.0
 21
152.0
 31
0.0
  0
LINE
  8
0
 62
4
 10
208.0
 20
173.0
 30
0.0
 11
209.0
 21
174.0
 31
0.0
  0
LINE
  8
0
 62
4
 10
163.0
 20
173.0
 30
0.0
 11
163.0
 21
153.0
 31
0.0
  0
POLYLINE
  8
0
 62
4
 66
1
 10
0.0
 20
0.0
 30
0.0
 70
2
  0
VERTEX
  8
0
 10
162.0
 20
152.0
 30
0.0
 70
0
  0
VERTEX
  8
0
 10
163.0
 20
153.0
 30
0.0
 70
0
  0
VERTEX
  8
0
 10
208.0
 20
153.0
 30
0.0
 70
0
  0
VERTEX
  8
0
 10
208.0
 20
173.0
 30
0.0
 70
0
  0
VERTEX
  8
0
 10
163.0
 20
173.0
 30
0.0
 70
0
  0
VERTEX
  8
0
 10
162.0
 20
174.0
 30
0.0
 70
0
  0
SEQEND
  8
0
  0
CIRCLE
  8
0
 62
5
 10
177.0
 20
191.125
 30
0.0
 40
0.6
  0
CIRCLE
  8
0
 62
5
 10
122.0
 20
234.5
 30
0.0
 40
8.0
  0
CIRCLE
  8
0
 62
5
 10
177.0
 20
146.75
 30
0.0
 40
0.6
  0
CIRCLE
  8
0
 62
5
 10
122.0
 20
103.0
 30
0.0
 40
8.0
  0
LINE
  8
0
 62
4
 10
162.0
 20
140.5
 30
0.0
 11
192.0
 21
140.5
 31
0.0
  0
LINE
  8
0
 62
4
 10
162.0
 20
185.5
 30
0.0
 11
192.0
 21
185.5
 31
0.0
  0
ARC
  8
0
 62
4
 10
193.0
 20
186.5
 30
0.0
 40
1.0
 50
180.0
 51
270.0
  0
ARC
  8
0
 62
4
 10
193.0
 20
139.5
 30
0.0
 40
1.0
 50
90.0
 51
180.0
  0
ARC
  8
0
 62
4
 10
387.5
 20
163.0
 30
0.0
 40
10.0
 50
107.45760274776076
 51
72.54239725223924
  0
POLYLINE
  8
0
 62
4
 66
1
 10
0.0
 20
0.0
 30
0.0
 70
2
  0
VERTEX
  8
0
 10
390.5
 20
172.539398
 30
0.0
 70
0
  0
VERTEX
  8
0
 10
390.5
 20
175.800003
 30
0.0
 70
0
  0
VERTEX
  8
0
 10
384.5
 20
175.800003
 30
0.0
 70
0
  0
VERTEX
  8
0
 10
384.5
 20
172.539398
 30
0.0
 70
0
  0
SEQEND
  8
0
  0
LINE
  8
0
 62
4
 10
162.0
 20
175.800003
 30
0.0
 11
209.0
 21
175.800003
 31
0.0
  0
POLYLINE
  8
0
 62
4
 66
1
 10
0.0
 20
0.0
 30
0.0
 70
2
  0
VERTEX
  8
0
 10
203.0
 20
185.5
 30
0.0
 70
0
  0
VERTEX
  8
0
 10
203.0
 20
175.800003
 30
0.0
 70
0
  0
SEQEND
  8
0
  0
POLYLINE
  8
0
 62
4
 66
1
 10
0.0
 20
0.0
 30
0.0
 70
2
  0
VERTEX
  8
0
 10
198.0
 20
185.5
 30
0.0
 70
0
  0
VERTEX
  8
0
 10
198.0
 20
175.800003
 30
0.0
 70
0
  0
SEQEND
  8
0
  0
POLYLINE
  8
0
 62
4
 66
1
 10
0.0
 20
0.0
 30
0.0
 70
2
  0
VERTEX
  8
0
 10
202.565002
 20
185.5
 30
0.0
 70
0
  0
VERTEX
  8
0
 10
202.565002
 20
175.800003
 30
0.0
 70
0
  0
SEQEND
  8
0
  0
POLYLINE
  8
0
 62
4
 66
1
 10
0.0
 20
0.0
 30
0.0
 70
2
  0
VERTEX
  8
0
 10
198.434998
 20
185.5
 30
0.0
 70
0
  0
VERTEX
  8
0
 10
198.434998
 20
175.800003
 30
0.0
 70
0
  0
SEQEND
  8
0
  0
POLYLINE
  8
0
 62
4
 66
1
 10
0.0
 20
0.0
 30
0.0
 70
2
  0
VERTEX
  8
0
 10
385.0
 20
175.800003
 30
0.0
 70
0
  0
VERTEX
  8
0
 10
385.0
 20
185.360687
 30
0.0
 70
0
  0
SEQEND
  8
0
  0
POLYLINE
  8
0
 62
4
 66
1
 10
0.0
 20
0.0
 30
0.0
 70
2
  0
VERTEX
  8
0
 10
390.0
 20
175.800003
 30
0.0
 70
0
  0
VERTEX
  8
0
 10
390.0
 20
185.360687
 30
0.0
 70
0
  0
SEQEND
  8
0
  0
POLYLINE
  8
0
 62
4
 66
1
 10
0.0
 20
0.0
 30
0.0
 70
2
  0
VERTEX
  8
0
 10
385.434998
 20
175.800003
 30
0.0
 70
0
  0
VERTEX
  8
0
 10
385.434998
 20
185.405045
 30
0.0
 70
0
  0
SEQEND
  8
0
  0
POLYLINE
  8
0
 62
4
 66
1
 10
0.0
 20
0.0
 30
0.0
 70
2
  0
VERTEX
  8
0
 10
389.565002
 20
175.800003
 30
0.0
 70
0
  0
VERTEX
  8
0
 10
389.565002
 20
185.405045
 30
0.0
 70
0
  0
SEQEND
  8
0
  0
CIRCLE
  8
0
 62
7
 10
200.5
 20
163.0
 30
0.0
 40
2.5
  0
CIRCLE
  8
0
 62
4
 10
200.5
 20
163.0
 30
0.0
 40
2.065
  0
POLYLINE
  8
0
 62
4
 66
1
 10
0.0
 20
0.0
 30
0.0
 70
2
  0
VERTEX
  8
0
 10
397.182465
 20
165.5
 30
0.0
 70
0
  0
VERTEX
  8
0
 10
409.860687
 20
165.5
 30
0.0
 70
0
  0
SEQEND
  8
0
  0
POLYLINE
  8
0
 62
4
 66
1
 10
0.0
 20
0.0
 30
0.0
 70
2
  0
VERTEX
  8
0
 10
397.182465
 20
160.5
 30
0.0
 70
0
  0
VERTEX
  8
0
 10
409.860687
 20
160.5
 30
0.0
 70
0
  0
SEQEND
  8
0
  0
POLYLINE
  8
0
 62
4
 66
1
 10
0.0
 20
0.0
 30
0.0
 70
2
  0
VERTEX
  8
0
 10
397.284485
 20
165.065002
 30
0.0
 70
0
  0
VERTEX
  8
0
 10
409.905029
 20
165.065002
 30
0.0
 70
0
  0
SEQEND
  8
0
  0
POLYLINE
  8
0
 62
4
 66
1
 10
0.0
 20
0.0
 30
0.0
 70
2
  0
VERTEX
  8
0
 10
397.284485
 20
160.934998
 30
0.0
 70
0
  0
VERTEX
  8
0
 10
409.905029
 20
160.934998
 30
0.0
 70
0
  0
SEQEND
  8
0
  0
POLYLINE
  8
0
 62
4
 66
1
 10
0.0
 20
0.0
 30
0.0
 70
2
  0
VERTEX
  8
0
 10
162.0
 20
152.0
 30
0.0
 70
0
  0
VERTEX
  8
0
 10
162.0
 20
123.5
 30
0.0
 70
0
  0
VERTEX
  8
0
 10
163.0
 20
122.5
 30
0.0
 70
0
  0
VERTEX
  8
0
 10
191.0
 20
122.5
 30
0.0
 70
0
  0
VERTEX
  8
0
 10
192.0
 20
123.5
 30
0.0
 70
0
  0
VERTEX
  8
0
 10
192.0
 20
139.5
 30
0.0
 70
0
  0
SEQEND
  8
0
  0
POLYLINE
  8
0
 62
4
 66
1
 10
0.0
 20
0.0
 30
0.0
 70
2
  0
VERTEX
  8
0
 10
193.0
 20
140.5
 30
0.0
 70
0
  0
VERTEX
  8
0
 10
208.0
 20
140.5
 30
0.0
 70
0
  0
VERTEX
  8
0
 10
209.0
 20
141.5
 30
0.0
 70
0
  0
VERTEX
  8
0
 10
209.0
 20
184.5
 30
0.0
 70
0
  0
VERTEX
  8
0
 10
208.0
 20
185.5
 30
0.0
 70
0
  0
VERTEX
  8
0
 10
193.0
 20
185.5
 30
0.0
 70
0
  0
SEQEND
  8
0
  0
POLYLINE
  8
0
 62
4
 66
1
 10
0.0
 20
0.0
 30
0.0
 70
2
  0
VERTEX
  8
0
 10
192.0
 20
186.5
 30
0.0
 70
0
  0
VERTEX
  8
0
 10
192.0
 20
202.5
 30
0.0
 70
0
  0
VERTEX
  8
0
 10
191.0
 20
203.5
 30
0.0
 70
0
  0
VERTEX
  8
0
 10
163.0
 20
203.5
 30
0.0
 70
0
  0
VERTEX
  8
0
 10
162.0
 20
202.5
 30
0.0
 70
0
  0
VERTEX
  8
0
 10
162.0
 20
152.0
 30
0.0
 70
0
  0
SEQEND
  8
0
  0
CIRCLE
  8
0
 62
4
 10
387.5
 20
163.0
 30
0.0
 40
22.5
  0
ENDSEC
  0
EOF
