  0
SECTION
  2
ENTITIES
  0
LINE
  8
0
 62
4
 10
179.608688
 20
221.967392
 30
0.0
 11
209.608688
 21
221.967392
 31
0.0
  0
LINE
  8
0
 62
4
 10
179.608688
 20
139.467392
 30
0.0
 11
209.608688
 21
139.467392
 31
0.0
  0
LINE
  8
0
 62
4
 10
226.108688
 20
171.217392
 30
0.0
 11
226.608688
 21
170.717392
 31
0.0
  0
LINE
  8
0
 62
4
 10
226.108688
 20
190.217392
 30
0.0
 11
226.608688
 21
190.717392
 31
0.0
  0
LINE
  8
0
 62
4
 10
180.108688
 20
190.217392
 30
0.0
 11
180.108688
 21
171.217392
 31
0.0
  0
POLYLINE
  8
0
 62
4
 66
1
 10
0.0
 20
0.0
 30
0.0
 70
2
  0
VERTEX
  8
0
 10
179.608688
 20
170.717392
 30
0.0
 70
0
  0
VERTEX
  8
0
 10
180.108688
 20
171.217392
 30
0.0
 70
0
  0
VERTEX
  8
0
 10
226.108688
 20
171.217392
 30
0.0
 70
0
  0
VERTEX
  8
0
 10
226.108688
 20
190.217392
 30
0.0
 70
0
  0
VERTEX
  8
0
 10
180.108688
 20
190.217392
 30
0.0
 70
0
  0
VERTEX
  8
0
 10
179.608688
 20
190.717392
 30
0.0
 70
0
  0
SEQEND
  8
0
  0
CIRCLE
  8
0
 62
5
 10
194.608688
 20
216.342392
 30
0.0
 40
0.665217
  0
CIRCLE
  8
0
 62
5
 10
135.260864
 20
264.065216
 30
0.0
 40
8.869565
  0
CIRCLE
  8
0
 62
5
 10
194.608688
 20
160.967392
 30
0.0
 40
0.665217
  0
CIRCLE
  8
0
 62
5
 10
135.260864
 20
112.469566
 30
0.0
 40
8.869565
  0
LINE
  8
0
 62
4
 10
179.608688
 20
150.717392
 30
0.0
 11
209.608688
 21
150.717392
 31
0.0
  0
LINE
  8
0
 62
4
 10
179.608688
 20
210.717392
 30
0.0
 11
209.608688
 21
210.717392
 31
0.0
  0
ARC
  8
0
 62
4
 10
210.608688
 20
209.217392
 30
0.0
 40
1.0
 50
180.0
 51
270.0
  0
ARC
  8
0
 62
4
 10
210.608688
 20
152.217392
 30
0.0
 40
1.0
 50
90.0
 51
180.0
  0
ARC
  8
0
 62
4
 10
427.065216
 20
180.717392
 30
0.0
 40
9.5
 50
108.4084803259778
 51
71.5915196740222
  0
POLYLINE
  8
0
 62
4
 66
1
 10
0.0
 20
0.0
 30
0.0
 70
2
  0
VERTEX
  8
0
 10
430.065216
 20
189.731262
 30
0.0
 70
0
  0
VERTEX
  8
0
 10
430.065216
 20
193.017395
 30
0.0
 70
0
  0
VERTEX
  8
0
 10
424.065216
 20
193.017395
 30
0.0
 70
0
  0
VERTEX
  8
0
 10
424.065216
 20
189.731262
 30
0.0
 70
0
  0
SEQEND
  8
0
  0
LINE
  8
0
 62
4
 10
179.608688
 20
193.017395
 30
0.0
 11
226.608688
 21
193.017395
 31
0.0
  0
POLYLINE
  8
0
 62
4
 66
1
 10
0.0
 20
0.0
 30
0.0
 70
2
  0
VERTEX
  8
0
 10
220.608688
 20
208.217392
 30
0.0
 70
0
  0
VERTEX
  8
0
 10
220.608688
 20
193.017395
 30
0.0
 70
0
  0
SEQEND
  8
0
  0
POLYLINE
  8
0
 62
4
 66
1
 10
0.0
 20
0.0
 30
0.0
 70
2
  0
VERTEX
  8
0
 10
215.608688
 20
208.217392
 30
0.0
 70
0
  0
VERTEX
  8
0
 10
215.608688
 20
193.017395
 30
0.0
 70
0
  0
SEQEND
  8
0
  0
POLYLINE
  8
0
 62
4
 66
1
 10
0.0
 20
0.0
 30
0.0
 70
2
  0
VERTEX
  8
0
 10
220.173691
 20
208.217392
 30
0.0
 70
0
  0
VERTEX
  8
0
 10
220.173691
 20
193.017395
 30
0.0
 70
0
  0
SEQEND
  8
0
  0
POLYLINE
  8
0
 62
4
 66
1
 10
0.0
 20
0.0
 30
0.0
 70
2
  0
VERTEX
  8
0
 10
216.043686
 20
208.217392
 30
0.0
 70
0
  0
VERTEX
  8
0
 10
216.043686
 20
193.017395
 30
0.0
 70
0
  0
SEQEND
  8
0
  0
POLYLINE
  8
0
 62
4
 66
1
 10
0.0
 20
0.0
 30
0.0
 70
2
  0
VERTEX
  8
0
 10
424.565216
 20
193.017395
 30
0.0
 70
0
  0
VERTEX
  8
0
 10
424.565216
 20
208.103516
 30
0.0
 70
0
  0
SEQEND
  8
0
  0
POLYLINE
  8
0
 62
4
 66
1
 10
0.0
 20
0.0
 30
0.0
 70
2
  0
VERTEX
  8
0
 10
429.565216
 20
193.017395
 30
0.0
 70
0
  0
VERTEX
  8
0
 10
429.565216
 20
208.103516
 30
0.0
 70
0
  0
SEQEND
  8
0
  0
POLYLINE
  8
0
 62
4
 66
1
 10
0.0
 20
0.0
 30
0.0
 70
2
  0
VERTEX
  8
0
 10
425.000214
 20
193.017395
 30
0.0
 70
0
  0
VERTEX
  8
0
 10
425.000214
 20
208.139755
 30
0.0
 70
0
  0
SEQEND
  8
0
  0
POLYLINE
  8
0
 62
4
 66
1
 10
0.0
 20
0.0
 30
0.0
 70
2
  0
VERTEX
  8
0
 10
429.130219
 20
193.017395
 30
0.0
 70
0
  0
VERTEX
  8
0
 10
429.130219
 20
208.139755
 30
0.0
 70
0
  0
SEQEND
  8
0
  0
CIRCLE
  8
0
 62
7
 10
218.108688
 20
180.717392
 30
0.0
 40
2.5
  0
CIRCLE
  8
0
 62
4
 10
218.108688
 20
180.717392
 30
0.0
 40
2.065
  0
POLYLINE
  8
0
 62
4
 66
1
 10
0.0
 20
0.0
 30
0.0
 70
2
  0
VERTEX
  8
0
 10
436.230347
 20
183.217392
 30
0.0
 70
0
  0
VERTEX
  8
0
 10
454.451355
 20
183.217392
 30
0.0
 70
0
  0
SEQEND
  8
0
  0
POLYLINE
  8
0
 62
4
 66
1
 10
0.0
 20
0.0
 30
0.0
 70
2
  0
VERTEX
  8
0
 10
436.230347
 20
178.217392
 30
0.0
 70
0
  0
VERTEX
  8
0
 10
454.451355
 20
178.217392
 30
0.0
 70
0
  0
SEQEND
  8
0
  0
POLYLINE
  8
0
 62
4
 66
1
 10
0.0
 20
0.0
 30
0.0
 70
2
  0
VERTEX
  8
0
 10
436.338074
 20
182.782394
 30
0.0
 70
0
  0
VERTEX
  8
0
 10
454.487549
 20
182.782394
 30
0.0
 70
0
  0
SEQEND
  8
0
  0
POLYLINE
  8
0
 62
4
 66
1
 10
0.0
 20
0.0
 30
0.0
 70
2
  0
VERTEX
  8
0
 10
436.338074
 20
178.65239
 30
0.0
 70
0
  0
VERTEX
  8
0
 10
454.487549
 20
178.65239
 30
0.0
 70
0
  0
SEQEND
  8
0
  0
POLYLINE
  8
0
 62
4
 66
1
 10
0.0
 20
0.0
 30
0.0
 70
2
  0
VERTEX
  8
0
 10
179.608688
 20
170.717392
 30
0.0
 70
0
  0
VERTEX
  8
0
 10
179.608688
 20
133.717392
 30
0.0
 70
0
  0
VERTEX
  8
0
 10
180.608688
 20
132.717392
 30
0.0
 70
0
  0
VERTEX
  8
0
 10
208.608688
 20
132.717392
 30
0.0
 70
0
  0
VERTEX
  8
0
 10
209.608688
 20
133.717392
 30
0.0
 70
0
  0
VERTEX
  8
0
 10
209.608688
 20
152.217392
 30
0.0
 70
0
  0
SEQEND
  8
0
  0
POLYLINE
  8
0
 62
4
 66
1
 10
0.0
 20
0.0
 30
0.0
 70
2
  0
VERTEX
  8
0
 10
210.608688
 20
153.217392
 30
0.0
 70
0
  0
VERTEX
  8
0
 10
225.608688
 20
153.217392
 30
0.0
 70
0
  0
VERTEX
  8
0
 10
226.608688
 20
154.217392
 30
0.0
 70
0
  0
VERTEX
  8
0
 10
226.608688
 20
207.217392
 30
0.0
 70
0
  0
VERTEX
  8
0
 10
225.608688
 20
208.217392
 30
0.0
 70
0
  0
VERTEX
  8
0
 10
210.608688
 20
208.217392
 30
0.0
 70
0
  0
SEQEND
  8
0
  0
POLYLINE
  8
0
 62
4
 66
1
 10
0.0
 20
0.0
 30
0.0
 70
2
  0
VERTEX
  8
0
 10
209.608688
 20
209.217392
 30
0.0
 70
0
  0
VERTEX
  8
0
 10
209.608688
 20
227.717392
 30
0.0
 70
0
  0
VERTEX
  8
0
 10
208.608688
 20
228.717392
 30
0.0
 70
0
  0
VERTEX
  8
0
 10
180.608688
 20
228.717392
 30
0.0
 70
0
  0
VERTEX
  8
0
 10
179.608688
 20
227.717392
 30
0.0
 70
0
  0
VERTEX
  8
0
 10
179.608688
 20
170.717392
 30
0.0
 70
0
  0
SEQEND
  8
0
  0
CIRCLE
  8
0
 62
4
 10
427.065216
 20
180.717392
 30
0.0
 40
27.5
  0
ENDSEC
  0
EOF
