  0
SECTION
  2
ENTITIES
  0
ARC
  8
0
 62
4
 10
23.186569
 20
34.791046
 30
0.0
 40
6.125
 50
245.91049558025782
 51
294.0895044197422
  0
ARC
  8
0
 62
4
 10
23.186569
 20
13.791046
 30
0.0
 40
6.125
 50
65.91049558025782
 51
114.08950441974218
  0
LINE
  8
0
 62
4
 10
32.686569
 20
26.591045
 30
0.0
 11
32.38657
 21
26.291046
 31
0.0
  0
LINE
  8
0
 62
4
 10
32.686569
 20
21.991047
 30
0.0
 11
32.38657
 21
22.291046
 31
0.0
  0
LINE
  8
0
 62
4
 10
20.686569
 20
21.991047
 30
0.0
 11
20.986568
 21
22.291046
 31
0.0
  0
POLYLINE
  8
0
 62
4
 66
1
 10
0.0
 20
0.0
 30
0.0
 70
2
  0
VERTEX
  8
0
 10
23.186569
 20
29.791046
 30
0.0
 70
0
  0
VERTEX
  8
0
 10
20.78657
 20
29.791046
 30
0.0
 70
0
  0
VERTEX
  8
0
 10
20.686569
 20
29.691046
 30
0.0
 70
0
  0
VERTEX
  8
0
 10
20.686569
 20
21.991047
 30
0.0
 70
0
  0
SEQEND
  8
0
  0
POLYLINE
  8
0
 62
4
 66
1
 10
0.0
 20
0.0
 30
0.0
 70
2
  0
VERTEX
  8
0
 10
20.686569
 20
21.991047
 30
0.0
 70
0
  0
VERTEX
  8
0
 10
20.686569
 20
18.891047
 30
0.0
 70
0
  0
VERTEX
  8
0
 10
20.78657
 20
18.791046
 30
0.0
 70
0
  0
VERTEX
  8
0
 10
23.186569
 20
18.791046
 30
0.0
 70
0
  0
SEQEND
  8
0
  0
POLYLINE
  8
0
 62
4
 66
1
 10
0.0
 20
0.0
 30
0.0
 70
2
  0
VERTEX
  8
0
 10
20.686569
 20
26.591045
 30
0.0
 70
0
  0
VERTEX
  8
0
 10
20.986568
 20
26.291046
 30
0.0
 70
0
  0
VERTEX
  8
0
 10
20.986568
 20
22.291046
 30
0.0
 70
0
  0
VERTEX
  8
0
 10
32.38657
 20
22.291046
 30
0.0
 70
0
  0
VERTEX
  8
0
 10
32.38657
 20
26.291046
 30
0.0
 70
0
  0
VERTEX
  8
0
 10
20.986568
 20
26.291046
 30
0.0
 70
0
  0
SEQEND
  8
0
  0
POLYLINE
  8
0
 62
4
 66
1
 10
0.0
 20
0.0
 30
0.0
 70
2
  0
VERTEX
  8
0
 10
23.186569
 20
18.791046
 30
0.0
 70
0
  0
VERTEX
  8
0
 10
25.586569
 20
18.791046
 30
0.0
 70
0
  0
VERTEX
  8
0
 10
25.686569
 20
18.891047
 30
0.0
 70
0
  0
VERTEX
  8
0
 10
25.686569
 20
19.791046
 30
0.0
 70
0
  0
SEQEND
  8
0
  0
POLYLINE
  8
0
 62
4
 66
1
 10
0.0
 20
0.0
 30
0.0
 70
2
  0
VERTEX
  8
0
 10
25.686569
 20
28.791046
 30
0.0
 70
0
  0
VERTEX
  8
0
 10
25.686569
 20
29.691046
 30
0.0
 70
0
  0
VERTEX
  8
0
 10
25.586569
 20
29.791046
 30
0.0
 70
0
  0
VERTEX
  8
0
 10
23.186569
 20
29.791046
 30
0.0
 70
0
  0
SEQEND
  8
0
  0
POLYLINE
  8
0
 62
4
 66
1
 10
0.0
 20
0.0
 30
0.0
 70
2
  0
VERTEX
  8
0
 10
25.686569
 20
19.791046
 30
0.0
 70
0
  0
VERTEX
  8
0
 10
32.38657
 20
19.791046
 30
0.0
 70
0
  0
VERTEX
  8
0
 10
32.686569
 20
20.091045
 30
0.0
 70
0
  0
VERTEX
  8
0
 10
32.686569
 20
28.491047
 30
0.0
 70
0
  0
VERTEX
  8
0
 10
32.38657
 20
28.791046
 30
0.0
 70
0
  0
VERTEX
  8
0
 10
25.686569
 20
28.791046
 30
0.0
 70
0
  0
SEQEND
  8
0
  0
ENDSEC
  0
EOF
