  0
SECTION
  2
ENTITIES
  0
LINE
  8
0
 62
4
 10
112.695656
 20
127.943985
 30
0.0
 11
134.695648
 21
127.943985
 31
0.0
  0
LINE
  8
0
 62
4
 10
112.695656
 20
98.838638
 30
0.0
 11
134.695648
 21
98.838638
 31
0.0
  0
LINE
  8
0
 62
4
 10
150.195648
 20
108.391312
 30
0.0
 11
150.695648
 21
107.891312
 31
0.0
  0
LINE
  8
0
 62
4
 10
150.195648
 20
118.391312
 30
0.0
 11
150.695648
 21
118.891312
 31
0.0
  0
LINE
  8
0
 62
4
 10
113.195656
 20
118.391312
 30
0.0
 11
113.195656
 21
108.391312
 31
0.0
  0
POLYLINE
  8
0
 62
4
 66
1
 10
0.0
 20
0.0
 30
0.0
 70
2
  0
VERTEX
  8
0
 10
112.695656
 20
107.891312
 30
0.0
 70
0
  0
VERTEX
  8
0
 10
113.195656
 20
108.391312
 30
0.0
 70
0
  0
VERTEX
  8
0
 10
150.195648
 20
108.391312
 30
0.0
 70
0
  0
VERTEX
  8
0
 10
150.195648
 20
118.391312
 30
0.0
 70
0
  0
VERTEX
  8
0
 10
113.195656
 20
118.391312
 30
0.0
 70
0
  0
VERTEX
  8
0
 10
112.695656
 20
118.891312
 30
0.0
 70
0
  0
SEQEND
  8
0
  0
ARC
  8
0
 62
4
 10
135.695648
 20
127.391312
 30
0.0
 40
1.0
 50
180.0
 51
270.0
  0
ARC
  8
0
 62
4
 10
135.695648
 20
99.391312
 30
0.0
 40
1.0
 50
90.0
 51
180.0
  0
POLYLINE
  8
0
 62
4
 66
1
 10
0.0
 20
0.0
 30
0.0
 70
2
  0
VERTEX
  8
0
 10
112.695656
 20
107.891312
 30
0.0
 70
0
  0
VERTEX
  8
0
 10
112.695656
 20
93.313644
 30
0.0
 70
0
  0
VERTEX
  8
0
 10
112.795654
 20
93.213638
 30
0.0
 70
0
  0
VERTEX
  8
0
 10
134.595657
 20
93.213638
 30
0.0
 70
0
  0
VERTEX
  8
0
 10
134.695648
 20
93.313644
 30
0.0
 70
0
  0
VERTEX
  8
0
 10
134.695648
 20
99.391312
 30
0.0
 70
0
  0
SEQEND
  8
0
  0
POLYLINE
  8
0
 62
4
 66
1
 10
0.0
 20
0.0
 30
0.0
 70
2
  0
VERTEX
  8
0
 10
135.695648
 20
100.391312
 30
0.0
 70
0
  0
VERTEX
  8
0
 10
149.695648
 20
100.391312
 30
0.0
 70
0
  0
VERTEX
  8
0
 10
150.695648
 20
101.391312
 30
0.0
 70
0
  0
VERTEX
  8
0
 10
150.695648
 20
125.391312
 30
0.0
 70
0
  0
VERTEX
  8
0
 10
149.695648
 20
126.391312
 30
0.0
 70
0
  0
VERTEX
  8
0
 10
135.695648
 20
126.391312
 30
0.0
 70
0
  0
SEQEND
  8
0
  0
POLYLINE
  8
0
 62
4
 66
1
 10
0.0
 20
0.0
 30
0.0
 70
2
  0
VERTEX
  8
0
 10
134.695648
 20
127.391312
 30
0.0
 70
0
  0
VERTEX
  8
0
 10
134.695648
 20
133.468979
 30
0.0
 70
0
  0
VERTEX
  8
0
 10
134.595657
 20
133.568985
 30
0.0
 70
0
  0
VERTEX
  8
0
 10
112.795654
 20
133.568985
 30
0.0
 70
0
  0
VERTEX
  8
0
 10
112.695656
 20
133.468979
 30
0.0
 70
0
  0
VERTEX
  8
0
 10
112.695656
 20
107.891312
 30
0.0
 70
0
  0
SEQEND
  8
0
  0
ENDSEC
  0
EOF
