  0
SECTION
  2
ENTITIES
  0
LINE
  8
0
 62
4
 10
105.652168
 20
150.054352
 30
0.0
 11
115.652168
 21
150.054352
 31
0.0
  0
LINE
  8
0
 62
4
 10
105.652168
 20
62.554344
 30
0.0
 11
115.652168
 21
62.554344
 31
0.0
  0
LINE
  8
0
 62
4
 10
125.152168
 20
96.304344
 30
0.0
 11
125.652168
 21
95.804344
 31
0.0
  0
LINE
  8
0
 62
4
 10
125.152168
 20
116.304344
 30
0.0
 11
125.652168
 21
116.804344
 31
0.0
  0
LINE
  8
0
 62
4
 10
106.152168
 20
116.304344
 30
0.0
 11
106.152168
 21
96.304344
 31
0.0
  0
POLYLINE
  8
0
 62
4
 66
1
 10
0.0
 20
0.0
 30
0.0
 70
2
  0
VERTEX
  8
0
 10
105.652168
 20
95.804344
 30
0.0
 70
0
  0
VERTEX
  8
0
 10
106.152168
 20
96.304344
 30
0.0
 70
0
  0
VERTEX
  8
0
 10
125.152168
 20
96.304344
 30
0.0
 70
0
  0
VERTEX
  8
0
 10
125.152168
 20
116.304344
 30
0.0
 70
0
  0
VERTEX
  8
0
 10
106.152168
 20
116.304344
 30
0.0
 70
0
  0
VERTEX
  8
0
 10
105.652168
 20
116.804344
 30
0.0
 70
0
  0
SEQEND
  8
0
  0
ARC
  8
0
 62
4
 10
116.652168
 20
127.304344
 30
0.0
 40
1.0
 50
180.0
 51
270.0
  0
ARC
  8
0
 62
4
 10
116.652168
 20
85.304344
 30
0.0
 40
1.0
 50
90.0
 51
180.0
  0
ARC
  8
0
 62
4
 10
247.391296
 20
106.304344
 30
0.0
 40
10.0
 50
107.45760274776076
 51
72.54239725223924
  0
POLYLINE
  8
0
 62
4
 66
1
 10
0.0
 20
0.0
 30
0.0
 70
2
  0
VERTEX
  8
0
 10
250.391296
 20
115.843735
 30
0.0
 70
0
  0
VERTEX
  8
0
 10
250.391296
 20
119.104347
 30
0.0
 70
0
  0
VERTEX
  8
0
 10
244.391296
 20
119.104347
 30
0.0
 70
0
  0
VERTEX
  8
0
 10
244.391296
 20
115.843735
 30
0.0
 70
0
  0
SEQEND
  8
0
  0
LINE
  8
0
 62
4
 10
105.652168
 20
119.104347
 30
0.0
 11
125.652168
 21
119.104347
 31
0.0
  0
POLYLINE
  8
0
 62
4
 66
1
 10
0.0
 20
0.0
 30
0.0
 70
2
  0
VERTEX
  8
0
 10
123.152168
 20
126.304344
 30
0.0
 70
0
  0
VERTEX
  8
0
 10
123.152168
 20
119.104347
 30
0.0
 70
0
  0
SEQEND
  8
0
  0
POLYLINE
  8
0
 62
4
 66
1
 10
0.0
 20
0.0
 30
0.0
 70
2
  0
VERTEX
  8
0
 10
118.152168
 20
126.304344
 30
0.0
 70
0
  0
VERTEX
  8
0
 10
118.152168
 20
119.104347
 30
0.0
 70
0
  0
SEQEND
  8
0
  0
POLYLINE
  8
0
 62
4
 66
1
 10
0.0
 20
0.0
 30
0.0
 70
2
  0
VERTEX
  8
0
 10
122.717171
 20
126.304344
 30
0.0
 70
0
  0
VERTEX
  8
0
 10
122.717171
 20
119.104347
 30
0.0
 70
0
  0
SEQEND
  8
0
  0
POLYLINE
  8
0
 62
4
 66
1
 10
0.0
 20
0.0
 30
0.0
 70
2
  0
VERTEX
  8
0
 10
118.587166
 20
126.304344
 30
0.0
 70
0
  0
VERTEX
  8
0
 10
118.587166
 20
119.104347
 30
0.0
 70
0
  0
SEQEND
  8
0
  0
POLYLINE
  8
0
 62
4
 66
1
 10
0.0
 20
0.0
 30
0.0
 70
2
  0
VERTEX
  8
0
 10
244.891296
 20
119.104347
 30
0.0
 70
0
  0
VERTEX
  8
0
 10
244.891296
 20
126.147476
 30
0.0
 70
0
  0
SEQEND
  8
0
  0
POLYLINE
  8
0
 62
4
 66
1
 10
0.0
 20
0.0
 30
0.0
 70
2
  0
VERTEX
  8
0
 10
249.891296
 20
119.104347
 30
0.0
 70
0
  0
VERTEX
  8
0
 10
249.891296
 20
126.147476
 30
0.0
 70
0
  0
SEQEND
  8
0
  0
POLYLINE
  8
0
 62
4
 66
1
 10
0.0
 20
0.0
 30
0.0
 70
2
  0
VERTEX
  8
0
 10
245.326294
 20
119.104347
 30
0.0
 70
0
  0
VERTEX
  8
0
 10
245.326294
 20
126.197449
 30
0.0
 70
0
  0
SEQEND
  8
0
  0
POLYLINE
  8
0
 62
4
 66
1
 10
0.0
 20
0.0
 30
0.0
 70
2
  0
VERTEX
  8
0
 10
249.456299
 20
119.104347
 30
0.0
 70
0
  0
VERTEX
  8
0
 10
249.456299
 20
126.197449
 30
0.0
 70
0
  0
SEQEND
  8
0
  0
CIRCLE
  8
0
 62
7
 10
120.652168
 20
106.304344
 30
0.0
 40
2.5
  0
CIRCLE
  8
0
 62
4
 10
120.652168
 20
106.304344
 30
0.0
 40
2.065
  0
POLYLINE
  8
0
 62
4
 66
1
 10
0.0
 20
0.0
 30
0.0
 70
2
  0
VERTEX
  8
0
 10
257.073761
 20
108.804344
 30
0.0
 70
0
  0
VERTEX
  8
0
 10
267.234436
 20
108.804344
 30
0.0
 70
0
  0
SEQEND
  8
0
  0
POLYLINE
  8
0
 62
4
 66
1
 10
0.0
 20
0.0
 30
0.0
 70
2
  0
VERTEX
  8
0
 10
257.073761
 20
103.804344
 30
0.0
 70
0
  0
VERTEX
  8
0
 10
267.234436
 20
103.804344
 30
0.0
 70
0
  0
SEQEND
  8
0
  0
POLYLINE
  8
0
 62
4
 66
1
 10
0.0
 20
0.0
 30
0.0
 70
2
  0
VERTEX
  8
0
 10
257.175781
 20
108.369347
 30
0.0
 70
0
  0
VERTEX
  8
0
 10
267.284424
 20
108.369347
 30
0.0
 70
0
  0
SEQEND
  8
0
  0
POLYLINE
  8
0
 62
4
 66
1
 10
0.0
 20
0.0
 30
0.0
 70
2
  0
VERTEX
  8
0
 10
257.175781
 20
104.239342
 30
0.0
 70
0
  0
VERTEX
  8
0
 10
267.284424
 20
104.239342
 30
0.0
 70
0
  0
SEQEND
  8
0
  0
POLYLINE
  8
0
 62
4
 66
1
 10
0.0
 20
0.0
 30
0.0
 70
2
  0
VERTEX
  8
0
 10
105.652168
 20
95.804344
 30
0.0
 70
0
  0
VERTEX
  8
0
 10
105.652168
 20
60.404343
 30
0.0
 70
0
  0
VERTEX
  8
0
 10
105.752167
 20
60.304344
 30
0.0
 70
0
  0
VERTEX
  8
0
 10
115.55217
 20
60.304344
 30
0.0
 70
0
  0
VERTEX
  8
0
 10
115.652168
 20
60.404343
 30
0.0
 70
0
  0
VERTEX
  8
0
 10
115.652168
 20
85.304344
 30
0.0
 70
0
  0
SEQEND
  8
0
  0
POLYLINE
  8
0
 62
4
 66
1
 10
0.0
 20
0.0
 30
0.0
 70
2
  0
VERTEX
  8
0
 10
116.652168
 20
86.304344
 30
0.0
 70
0
  0
VERTEX
  8
0
 10
125.152168
 20
86.304344
 30
0.0
 70
0
  0
VERTEX
  8
0
 10
125.652168
 20
86.804344
 30
0.0
 70
0
  0
VERTEX
  8
0
 10
125.652168
 20
125.804344
 30
0.0
 70
0
  0
VERTEX
  8
0
 10
125.152168
 20
126.304344
 30
0.0
 70
0
  0
VERTEX
  8
0
 10
116.652168
 20
126.304344
 30
0.0
 70
0
  0
SEQEND
  8
0
  0
POLYLINE
  8
0
 62
4
 66
1
 10
0.0
 20
0.0
 30
0.0
 70
2
  0
VERTEX
  8
0
 10
115.652168
 20
127.304344
 30
0.0
 70
0
  0
VERTEX
  8
0
 10
115.652168
 20
152.204346
 30
0.0
 70
0
  0
VERTEX
  8
0
 10
115.55217
 20
152.304352
 30
0.0
 70
0
  0
VERTEX
  8
0
 10
105.752167
 20
152.304352
 30
0.0
 70
0
  0
VERTEX
  8
0
 10
105.652168
 20
152.204346
 30
0.0
 70
0
  0
VERTEX
  8
0
 10
105.652168
 20
95.804344
 30
0.0
 70
0
  0
SEQEND
  8
0
  0
CIRCLE
  8
0
 62
4
 10
247.391296
 20
106.304344
 30
0.0
 40
20.0
  0
ENDSEC
  0
EOF
