  0
SECTION
  2
ENTITIES
  0
LINE
  8
0
 62
4
 10
100.369568
 20
118.614128
 30
0.0
 11
115.369568
 21
118.614128
 31
0.0
  0
LINE
  8
0
 62
4
 10
100.369568
 20
83.364128
 30
0.0
 11
115.369568
 21
83.364128
 31
0.0
  0
LINE
  8
0
 62
4
 10
124.869568
 20
96.989128
 30
0.0
 11
125.369568
 21
96.489128
 31
0.0
  0
LINE
  8
0
 62
4
 10
124.869568
 20
104.989128
 30
0.0
 11
125.369568
 21
105.489128
 31
0.0
  0
LINE
  8
0
 62
4
 10
100.869568
 20
104.989128
 30
0.0
 11
100.869568
 21
96.989128
 31
0.0
  0
POLYLINE
  8
0
 62
4
 66
1
 10
0.0
 20
0.0
 30
0.0
 70
2
  0
VERTEX
  8
0
 10
100.369568
 20
96.489128
 30
0.0
 70
0
  0
VERTEX
  8
0
 10
100.869568
 20
96.989128
 30
0.0
 70
0
  0
VERTEX
  8
0
 10
124.869568
 20
96.989128
 30
0.0
 70
0
  0
VERTEX
  8
0
 10
124.869568
 20
104.989128
 30
0.0
 70
0
  0
VERTEX
  8
0
 10
100.869568
 20
104.989128
 30
0.0
 70
0
  0
VERTEX
  8
0
 10
100.369568
 20
105.489128
 30
0.0
 70
0
  0
SEQEND
  8
0
  0
ARC
  8
0
 62
4
 10
116.369568
 20
117.989128
 30
0.0
 40
1.0
 50
180.0
 51
270.0
  0
ARC
  8
0
 62
4
 10
116.369568
 20
83.989128
 30
0.0
 40
1.0
 50
90.0
 51
180.0
  0
POLYLINE
  8
0
 62
4
 66
1
 10
0.0
 20
0.0
 30
0.0
 70
2
  0
VERTEX
  8
0
 10
122.869568
 20
116.989128
 30
0.0
 70
0
  0
VERTEX
  8
0
 10
122.869568
 20
104.989128
 30
0.0
 70
0
  0
SEQEND
  8
0
  0
POLYLINE
  8
0
 62
4
 66
1
 10
0.0
 20
0.0
 30
0.0
 70
2
  0
VERTEX
  8
0
 10
117.869568
 20
116.989128
 30
0.0
 70
0
  0
VERTEX
  8
0
 10
117.869568
 20
104.989128
 30
0.0
 70
0
  0
SEQEND
  8
0
  0
POLYLINE
  8
0
 62
4
 66
1
 10
0.0
 20
0.0
 30
0.0
 70
2
  0
VERTEX
  8
0
 10
122.43457
 20
116.989128
 30
0.0
 70
0
  0
VERTEX
  8
0
 10
122.43457
 20
104.989128
 30
0.0
 70
0
  0
SEQEND
  8
0
  0
POLYLINE
  8
0
 62
4
 66
1
 10
0.0
 20
0.0
 30
0.0
 70
2
  0
VERTEX
  8
0
 10
118.304565
 20
116.989128
 30
0.0
 70
0
  0
VERTEX
  8
0
 10
118.304565
 20
104.989128
 30
0.0
 70
0
  0
SEQEND
  8
0
  0
POLYLINE
  8
0
 62
4
 66
1
 10
0.0
 20
0.0
 30
0.0
 70
2
  0
VERTEX
  8
0
 10
235.521744
 20
104.111626
 30
0.0
 70
0
  0
VERTEX
  8
0
 10
235.521744
 20
116.79261
 30
0.0
 70
0
  0
SEQEND
  8
0
  0
POLYLINE
  8
0
 62
4
 66
1
 10
0.0
 20
0.0
 30
0.0
 70
2
  0
VERTEX
  8
0
 10
240.521744
 20
104.111626
 30
0.0
 70
0
  0
VERTEX
  8
0
 10
240.521744
 20
116.79261
 30
0.0
 70
0
  0
SEQEND
  8
0
  0
POLYLINE
  8
0
 62
4
 66
1
 10
0.0
 20
0.0
 30
0.0
 70
2
  0
VERTEX
  8
0
 10
235.956741
 20
104.414879
 30
0.0
 70
0
  0
VERTEX
  8
0
 10
235.956741
 20
116.855309
 30
0.0
 70
0
  0
SEQEND
  8
0
  0
POLYLINE
  8
0
 62
4
 66
1
 10
0.0
 20
0.0
 30
0.0
 70
2
  0
VERTEX
  8
0
 10
240.086746
 20
104.414879
 30
0.0
 70
0
  0
VERTEX
  8
0
 10
240.086746
 20
116.855309
 30
0.0
 70
0
  0
SEQEND
  8
0
  0
POLYLINE
  8
0
 62
4
 66
1
 10
0.0
 20
0.0
 30
0.0
 70
2
  0
VERTEX
  8
0
 10
100.369568
 20
96.489128
 30
0.0
 70
0
  0
VERTEX
  8
0
 10
100.369568
 20
80.089127
 30
0.0
 70
0
  0
VERTEX
  8
0
 10
100.469566
 20
79.989128
 30
0.0
 70
0
  0
VERTEX
  8
0
 10
115.269569
 20
79.989128
 30
0.0
 70
0
  0
VERTEX
  8
0
 10
115.369568
 20
80.089127
 30
0.0
 70
0
  0
VERTEX
  8
0
 10
115.369568
 20
83.989128
 30
0.0
 70
0
  0
SEQEND
  8
0
  0
POLYLINE
  8
0
 62
4
 66
1
 10
0.0
 20
0.0
 30
0.0
 70
2
  0
VERTEX
  8
0
 10
116.369568
 20
84.989128
 30
0.0
 70
0
  0
VERTEX
  8
0
 10
124.869568
 20
84.989128
 30
0.0
 70
0
  0
VERTEX
  8
0
 10
125.369568
 20
85.489128
 30
0.0
 70
0
  0
VERTEX
  8
0
 10
125.369568
 20
116.489128
 30
0.0
 70
0
  0
VERTEX
  8
0
 10
124.869568
 20
116.989128
 30
0.0
 70
0
  0
VERTEX
  8
0
 10
116.369568
 20
116.989128
 30
0.0
 70
0
  0
SEQEND
  8
0
  0
POLYLINE
  8
0
 62
4
 66
1
 10
0.0
 20
0.0
 30
0.0
 70
2
  0
VERTEX
  8
0
 10
115.369568
 20
117.989128
 30
0.0
 70
0
  0
VERTEX
  8
0
 10
115.369568
 20
121.88913
 30
0.0
 70
0
  0
VERTEX
  8
0
 10
115.269569
 20
121.989128
 30
0.0
 70
0
  0
VERTEX
  8
0
 10
100.469566
 20
121.989128
 30
0.0
 70
0
  0
VERTEX
  8
0
 10
100.369568
 20
121.88913
 30
0.0
 70
0
  0
VERTEX
  8
0
 10
100.369568
 20
96.489128
 30
0.0
 70
0
  0
SEQEND
  8
0
  0
CIRCLE
  8
0
 62
4
 10
238.021744
 20
100.989128
 30
0.0
 40
4.0
  0
CIRCLE
  8
0
 62
4
 10
238.021744
 20
100.989128
 30
0.0
 40
16.0
  0
ENDSEC
  0
EOF
