  0
SECTION
  2
ENTITIES
  0
LINE
  8
0
 62
4
 10
98.608704
 20
112.717392
 30
0.0
 11
118.608704
 21
112.717392
 31
0.0
  0
LINE
  8
0
 62
4
 10
98.608704
 20
85.717392
 30
0.0
 11
118.608704
 21
85.717392
 31
0.0
  0
LINE
  8
0
 62
4
 10
128.108704
 20
94.217392
 30
0.0
 11
128.608704
 21
93.717392
 31
0.0
  0
LINE
  8
0
 62
4
 10
128.108704
 20
104.217392
 30
0.0
 11
128.608704
 21
104.717392
 31
0.0
  0
LINE
  8
0
 62
4
 10
99.108704
 20
104.217392
 30
0.0
 11
99.108704
 21
94.217392
 31
0.0
  0
POLYLINE
  8
0
 62
4
 66
1
 10
0.0
 20
0.0
 30
0.0
 70
2
  0
VERTEX
  8
0
 10
98.608704
 20
93.717392
 30
0.0
 70
0
  0
VERTEX
  8
0
 10
99.108704
 20
94.217392
 30
0.0
 70
0
  0
VERTEX
  8
0
 10
128.108704
 20
94.217392
 30
0.0
 70
0
  0
VERTEX
  8
0
 10
128.108704
 20
104.217392
 30
0.0
 70
0
  0
VERTEX
  8
0
 10
99.108704
 20
104.217392
 30
0.0
 70
0
  0
VERTEX
  8
0
 10
98.608704
 20
104.717392
 30
0.0
 70
0
  0
SEQEND
  8
0
  0
ARC
  8
0
 62
4
 10
119.608704
 20
113.217392
 30
0.0
 40
1.0
 50
180.0
 51
270.0
  0
ARC
  8
0
 62
4
 10
119.608704
 20
85.217392
 30
0.0
 40
1.0
 50
90.0
 51
180.0
  0
ARC
  8
0
 62
4
 10
236.565231
 20
99.217392
 30
0.0
 40
5.0
 50
113.5781780057233
 51
66.4218219942767
  0
POLYLINE
  8
0
 62
4
 66
1
 10
0.0
 20
0.0
 30
0.0
 70
2
  0
VERTEX
  8
0
 10
238.565231
 20
103.799965
 30
0.0
 70
0
  0
VERTEX
  8
0
 10
238.565231
 20
106.017395
 30
0.0
 70
0
  0
VERTEX
  8
0
 10
234.565231
 20
106.017395
 30
0.0
 70
0
  0
VERTEX
  8
0
 10
234.565231
 20
103.799965
 30
0.0
 70
0
  0
SEQEND
  8
0
  0
LINE
  8
0
 62
4
 10
98.608704
 20
106.017395
 30
0.0
 11
128.608704
 21
106.017395
 31
0.0
  0
POLYLINE
  8
0
 62
4
 66
1
 10
0.0
 20
0.0
 30
0.0
 70
2
  0
VERTEX
  8
0
 10
125.608704
 20
112.217392
 30
0.0
 70
0
  0
VERTEX
  8
0
 10
125.608704
 20
106.017395
 30
0.0
 70
0
  0
SEQEND
  8
0
  0
POLYLINE
  8
0
 62
4
 66
1
 10
0.0
 20
0.0
 30
0.0
 70
2
  0
VERTEX
  8
0
 10
121.608704
 20
112.217392
 30
0.0
 70
0
  0
VERTEX
  8
0
 10
121.608704
 20
106.017395
 30
0.0
 70
0
  0
SEQEND
  8
0
  0
POLYLINE
  8
0
 62
4
 66
1
 10
0.0
 20
0.0
 30
0.0
 70
2
  0
VERTEX
  8
0
 10
125.228706
 20
112.217392
 30
0.0
 70
0
  0
VERTEX
  8
0
 10
125.228706
 20
106.017395
 30
0.0
 70
0
  0
SEQEND
  8
0
  0
POLYLINE
  8
0
 62
4
 66
1
 10
0.0
 20
0.0
 30
0.0
 70
2
  0
VERTEX
  8
0
 10
121.988701
 20
112.217392
 30
0.0
 70
0
  0
VERTEX
  8
0
 10
121.988701
 20
106.017395
 30
0.0
 70
0
  0
SEQEND
  8
0
  0
POLYLINE
  8
0
 62
4
 66
1
 10
0.0
 20
0.0
 30
0.0
 70
2
  0
VERTEX
  8
0
 10
234.565231
 20
103.799965
 30
0.0
 70
0
  0
VERTEX
  8
0
 10
234.565231
 20
112.062622
 30
0.0
 70
0
  0
SEQEND
  8
0
  0
POLYLINE
  8
0
 62
4
 66
1
 10
0.0
 20
0.0
 30
0.0
 70
2
  0
VERTEX
  8
0
 10
238.565231
 20
103.799965
 30
0.0
 70
0
  0
VERTEX
  8
0
 10
238.565231
 20
112.062622
 30
0.0
 70
0
  0
SEQEND
  8
0
  0
POLYLINE
  8
0
 62
4
 66
1
 10
0.0
 20
0.0
 30
0.0
 70
2
  0
VERTEX
  8
0
 10
234.945236
 20
106.017395
 30
0.0
 70
0
  0
VERTEX
  8
0
 10
234.945236
 20
112.116058
 30
0.0
 70
0
  0
SEQEND
  8
0
  0
POLYLINE
  8
0
 62
4
 66
1
 10
0.0
 20
0.0
 30
0.0
 70
2
  0
VERTEX
  8
0
 10
238.185226
 20
106.017395
 30
0.0
 70
0
  0
VERTEX
  8
0
 10
238.185226
 20
112.116058
 30
0.0
 70
0
  0
SEQEND
  8
0
  0
CIRCLE
  8
0
 62
7
 10
123.608704
 20
99.217392
 30
0.0
 40
2.0
  0
CIRCLE
  8
0
 62
4
 10
123.608704
 20
99.217392
 30
0.0
 40
1.62
  0
POLYLINE
  8
0
 62
4
 66
1
 10
0.0
 20
0.0
 30
0.0
 70
2
  0
VERTEX
  8
0
 10
241.147812
 20
101.217392
 30
0.0
 70
0
  0
VERTEX
  8
0
 10
249.410461
 20
101.217392
 30
0.0
 70
0
  0
SEQEND
  8
0
  0
POLYLINE
  8
0
 62
4
 66
1
 10
0.0
 20
0.0
 30
0.0
 70
2
  0
VERTEX
  8
0
 10
241.147812
 20
97.217392
 30
0.0
 70
0
  0
VERTEX
  8
0
 10
249.410461
 20
97.217392
 30
0.0
 70
0
  0
SEQEND
  8
0
  0
POLYLINE
  8
0
 62
4
 66
1
 10
0.0
 20
0.0
 30
0.0
 70
2
  0
VERTEX
  8
0
 10
241.295517
 20
100.837395
 30
0.0
 70
0
  0
VERTEX
  8
0
 10
249.463898
 20
100.837395
 30
0.0
 70
0
  0
SEQEND
  8
0
  0
POLYLINE
  8
0
 62
4
 66
1
 10
0.0
 20
0.0
 30
0.0
 70
2
  0
VERTEX
  8
0
 10
241.295517
 20
97.597389
 30
0.0
 70
0
  0
VERTEX
  8
0
 10
249.463898
 20
97.597389
 30
0.0
 70
0
  0
SEQEND
  8
0
  0
POLYLINE
  8
0
 62
4
 66
1
 10
0.0
 20
0.0
 30
0.0
 70
2
  0
VERTEX
  8
0
 10
98.608704
 20
93.717392
 30
0.0
 70
0
  0
VERTEX
  8
0
 10
98.608704
 20
81.31739
 30
0.0
 70
0
  0
VERTEX
  8
0
 10
98.708702
 20
81.217392
 30
0.0
 70
0
  0
VERTEX
  8
0
 10
118.508705
 20
81.217392
 30
0.0
 70
0
  0
VERTEX
  8
0
 10
118.608704
 20
81.31739
 30
0.0
 70
0
  0
VERTEX
  8
0
 10
118.608704
 20
85.217392
 30
0.0
 70
0
  0
SEQEND
  8
0
  0
POLYLINE
  8
0
 62
4
 66
1
 10
0.0
 20
0.0
 30
0.0
 70
2
  0
VERTEX
  8
0
 10
119.608704
 20
86.217392
 30
0.0
 70
0
  0
VERTEX
  8
0
 10
128.108704
 20
86.217392
 30
0.0
 70
0
  0
VERTEX
  8
0
 10
128.608704
 20
86.717392
 30
0.0
 70
0
  0
VERTEX
  8
0
 10
128.608704
 20
111.717392
 30
0.0
 70
0
  0
VERTEX
  8
0
 10
128.108704
 20
112.217392
 30
0.0
 70
0
  0
VERTEX
  8
0
 10
119.608704
 20
112.217392
 30
0.0
 70
0
  0
SEQEND
  8
0
  0
POLYLINE
  8
0
 62
4
 66
1
 10
0.0
 20
0.0
 30
0.0
 70
2
  0
VERTEX
  8
0
 10
118.608704
 20
113.217392
 30
0.0
 70
0
  0
VERTEX
  8
0
 10
118.608704
 20
117.117393
 30
0.0
 70
0
  0
VERTEX
  8
0
 10
118.508705
 20
117.217392
 30
0.0
 70
0
  0
VERTEX
  8
0
 10
98.708702
 20
117.217392
 30
0.0
 70
0
  0
VERTEX
  8
0
 10
98.608704
 20
117.117393
 30
0.0
 70
0
  0
VERTEX
  8
0
 10
98.608704
 20
93.717392
 30
0.0
 70
0
  0
SEQEND
  8
0
  0
CIRCLE
  8
0
 62
4
 10
236.565231
 20
99.217392
 30
0.0
 40
13.0
  0
ENDSEC
  0
EOF
