  0
SECTION
  2
ENTITIES
  0
LINE
  8
0
 62
4
 10
132.065216
 20
152.255432
 30
0.0
 11
157.065216
 21
152.255432
 31
0.0
  0
LINE
  8
0
 62
4
 10
132.065216
 20
113.505432
 30
0.0
 11
157.065216
 21
113.505432
 31
0.0
  0
LINE
  8
0
 62
4
 10
168.565216
 20
125.880432
 30
0.0
 11
169.065216
 21
125.380432
 31
0.0
  0
LINE
  8
0
 62
4
 10
168.565216
 20
139.880432
 30
0.0
 11
169.065216
 21
140.380432
 31
0.0
  0
LINE
  8
0
 62
4
 10
132.565216
 20
139.880432
 30
0.0
 11
132.565216
 21
125.880432
 31
0.0
  0
POLYLINE
  8
0
 62
4
 66
1
 10
0.0
 20
0.0
 30
0.0
 70
2
  0
VERTEX
  8
0
 10
132.065216
 20
125.380432
 30
0.0
 70
0
  0
VERTEX
  8
0
 10
132.565216
 20
125.880432
 30
0.0
 70
0
  0
VERTEX
  8
0
 10
168.565216
 20
125.880432
 30
0.0
 70
0
  0
VERTEX
  8
0
 10
168.565216
 20
139.880432
 30
0.0
 70
0
  0
VERTEX
  8
0
 10
132.565216
 20
139.880432
 30
0.0
 70
0
  0
VERTEX
  8
0
 10
132.065216
 20
140.380432
 30
0.0
 70
0
  0
SEQEND
  8
0
  0
ARC
  8
0
 62
4
 10
158.065216
 20
152.880432
 30
0.0
 40
1.0
 50
180.0
 51
270.0
  0
ARC
  8
0
 62
4
 10
158.065216
 20
112.880432
 30
0.0
 40
1.0
 50
90.0
 51
180.0
  0
ARC
  8
0
 62
4
 10
315.239136
 20
132.880432
 30
0.0
 40
7.0
 50
110.92483306307776
 51
69.07516693692226
  0
POLYLINE
  8
0
 62
4
 66
1
 10
0.0
 20
0.0
 30
0.0
 70
2
  0
VERTEX
  8
0
 10
317.739136
 20
139.418777
 30
0.0
 70
0
  0
VERTEX
  8
0
 10
317.739136
 20
142.180435
 30
0.0
 70
0
  0
VERTEX
  8
0
 10
312.739136
 20
142.180435
 30
0.0
 70
0
  0
VERTEX
  8
0
 10
312.739136
 20
139.418777
 30
0.0
 70
0
  0
SEQEND
  8
0
  0
LINE
  8
0
 62
4
 10
132.065216
 20
142.180435
 30
0.0
 11
169.065216
 21
142.180435
 31
0.0
  0
POLYLINE
  8
0
 62
4
 66
1
 10
0.0
 20
0.0
 30
0.0
 70
2
  0
VERTEX
  8
0
 10
165.065216
 20
151.880432
 30
0.0
 70
0
  0
VERTEX
  8
0
 10
165.065216
 20
142.180435
 30
0.0
 70
0
  0
SEQEND
  8
0
  0
POLYLINE
  8
0
 62
4
 66
1
 10
0.0
 20
0.0
 30
0.0
 70
2
  0
VERTEX
  8
0
 10
161.065216
 20
151.880432
 30
0.0
 70
0
  0
VERTEX
  8
0
 10
161.065216
 20
142.180435
 30
0.0
 70
0
  0
SEQEND
  8
0
  0
POLYLINE
  8
0
 62
4
 66
1
 10
0.0
 20
0.0
 30
0.0
 70
2
  0
VERTEX
  8
0
 10
164.685211
 20
151.880432
 30
0.0
 70
0
  0
VERTEX
  8
0
 10
164.685211
 20
142.180435
 30
0.0
 70
0
  0
SEQEND
  8
0
  0
POLYLINE
  8
0
 62
4
 66
1
 10
0.0
 20
0.0
 30
0.0
 70
2
  0
VERTEX
  8
0
 10
161.445221
 20
151.880432
 30
0.0
 70
0
  0
VERTEX
  8
0
 10
161.445221
 20
142.180435
 30
0.0
 70
0
  0
SEQEND
  8
0
  0
POLYLINE
  8
0
 62
4
 66
1
 10
0.0
 20
0.0
 30
0.0
 70
2
  0
VERTEX
  8
0
 10
313.239136
 20
142.180435
 30
0.0
 70
0
  0
VERTEX
  8
0
 10
313.239136
 20
151.774872
 30
0.0
 70
0
  0
SEQEND
  8
0
  0
POLYLINE
  8
0
 62
4
 66
1
 10
0.0
 20
0.0
 30
0.0
 70
2
  0
VERTEX
  8
0
 10
317.239136
 20
142.180435
 30
0.0
 70
0
  0
VERTEX
  8
0
 10
317.239136
 20
151.774872
 30
0.0
 70
0
  0
SEQEND
  8
0
  0
POLYLINE
  8
0
 62
4
 66
1
 10
0.0
 20
0.0
 30
0.0
 70
2
  0
VERTEX
  8
0
 10
313.619141
 20
142.180435
 30
0.0
 70
0
  0
VERTEX
  8
0
 10
313.619141
 20
151.811249
 30
0.0
 70
0
  0
SEQEND
  8
0
  0
POLYLINE
  8
0
 62
4
 66
1
 10
0.0
 20
0.0
 30
0.0
 70
2
  0
VERTEX
  8
0
 10
316.859131
 20
142.180435
 30
0.0
 70
0
  0
VERTEX
  8
0
 10
316.859131
 20
151.811249
 30
0.0
 70
0
  0
SEQEND
  8
0
  0
CIRCLE
  8
0
 62
7
 10
163.065216
 20
132.880432
 30
0.0
 40
2.0
  0
CIRCLE
  8
0
 62
4
 10
163.065216
 20
132.880432
 30
0.0
 40
1.62
  0
POLYLINE
  8
0
 62
4
 66
1
 10
0.0
 20
0.0
 30
0.0
 70
2
  0
VERTEX
  8
0
 10
321.947327
 20
134.880432
 30
0.0
 70
0
  0
VERTEX
  8
0
 10
334.133575
 20
134.880432
 30
0.0
 70
0
  0
SEQEND
  8
0
  0
POLYLINE
  8
0
 62
4
 66
1
 10
0.0
 20
0.0
 30
0.0
 70
2
  0
VERTEX
  8
0
 10
321.947327
 20
130.880432
 30
0.0
 70
0
  0
VERTEX
  8
0
 10
334.133575
 20
130.880432
 30
0.0
 70
0
  0
SEQEND
  8
0
  0
POLYLINE
  8
0
 62
4
 66
1
 10
0.0
 20
0.0
 30
0.0
 70
2
  0
VERTEX
  8
0
 10
322.049103
 20
134.500427
 30
0.0
 70
0
  0
VERTEX
  8
0
 10
334.169952
 20
134.500427
 30
0.0
 70
0
  0
SEQEND
  8
0
  0
POLYLINE
  8
0
 62
4
 66
1
 10
0.0
 20
0.0
 30
0.0
 70
2
  0
VERTEX
  8
0
 10
322.049103
 20
131.260437
 30
0.0
 70
0
  0
VERTEX
  8
0
 10
334.169952
 20
131.260437
 30
0.0
 70
0
  0
SEQEND
  8
0
  0
POLYLINE
  8
0
 62
4
 66
1
 10
0.0
 20
0.0
 30
0.0
 70
2
  0
VERTEX
  8
0
 10
132.065216
 20
125.380432
 30
0.0
 70
0
  0
VERTEX
  8
0
 10
132.065216
 20
107.980431
 30
0.0
 70
0
  0
VERTEX
  8
0
 10
132.165222
 20
107.880432
 30
0.0
 70
0
  0
VERTEX
  8
0
 10
156.96521
 20
107.880432
 30
0.0
 70
0
  0
VERTEX
  8
0
 10
157.065216
 20
107.980431
 30
0.0
 70
0
  0
VERTEX
  8
0
 10
157.065216
 20
112.880432
 30
0.0
 70
0
  0
SEQEND
  8
0
  0
POLYLINE
  8
0
 62
4
 66
1
 10
0.0
 20
0.0
 30
0.0
 70
2
  0
VERTEX
  8
0
 10
158.065216
 20
113.880432
 30
0.0
 70
0
  0
VERTEX
  8
0
 10
168.065216
 20
113.880432
 30
0.0
 70
0
  0
VERTEX
  8
0
 10
169.065216
 20
114.880432
 30
0.0
 70
0
  0
VERTEX
  8
0
 10
169.065216
 20
150.880432
 30
0.0
 70
0
  0
VERTEX
  8
0
 10
168.065216
 20
151.880432
 30
0.0
 70
0
  0
VERTEX
  8
0
 10
158.065216
 20
151.880432
 30
0.0
 70
0
  0
SEQEND
  8
0
  0
POLYLINE
  8
0
 62
4
 66
1
 10
0.0
 20
0.0
 30
0.0
 70
2
  0
VERTEX
  8
0
 10
157.065216
 20
152.880432
 30
0.0
 70
0
  0
VERTEX
  8
0
 10
157.065216
 20
157.780426
 30
0.0
 70
0
  0
VERTEX
  8
0
 10
156.96521
 20
157.880432
 30
0.0
 70
0
  0
VERTEX
  8
0
 10
132.165222
 20
157.880432
 30
0.0
 70
0
  0
VERTEX
  8
0
 10
132.065216
 20
157.780426
 30
0.0
 70
0
  0
VERTEX
  8
0
 10
132.065216
 20
125.380432
 30
0.0
 70
0
  0
SEQEND
  8
0
  0
CIRCLE
  8
0
 62
4
 10
315.239136
 20
132.880432
 30
0.0
 40
19.0
  0
ENDSEC
  0
EOF
