  0
SECTION
  2
ENTITIES
  0
LINE
  8
0
 62
4
 10
135.586975
 20
158.29892
 30
0.0
 11
160.586975
 21
158.29892
 31
0.0
  0
LINE
  8
0
 62
4
 10
135.586975
 20
114.54892
 30
0.0
 11
160.586975
 21
114.54892
 31
0.0
  0
LINE
  8
0
 62
4
 10
172.086975
 20
127.92392
 30
0.0
 11
172.586975
 21
127.42392
 31
0.0
  0
LINE
  8
0
 62
4
 10
172.086975
 20
144.92392
 30
0.0
 11
172.586975
 21
145.42392
 31
0.0
  0
LINE
  8
0
 62
4
 10
136.086975
 20
144.92392
 30
0.0
 11
136.086975
 21
127.92392
 31
0.0
  0
POLYLINE
  8
0
 62
4
 66
1
 10
0.0
 20
0.0
 30
0.0
 70
2
  0
VERTEX
  8
0
 10
135.586975
 20
127.42392
 30
0.0
 70
0
  0
VERTEX
  8
0
 10
136.086975
 20
127.92392
 30
0.0
 70
0
  0
VERTEX
  8
0
 10
172.086975
 20
127.92392
 30
0.0
 70
0
  0
VERTEX
  8
0
 10
172.086975
 20
144.92392
 30
0.0
 70
0
  0
VERTEX
  8
0
 10
136.086975
 20
144.92392
 30
0.0
 70
0
  0
VERTEX
  8
0
 10
135.586975
 20
145.42392
 30
0.0
 70
0
  0
SEQEND
  8
0
  0
ARC
  8
0
 62
4
 10
161.586975
 20
157.42392
 30
0.0
 40
1.0
 50
180.0
 51
270.0
  0
ARC
  8
0
 62
4
 10
161.586975
 20
115.42392
 30
0.0
 40
1.0
 50
90.0
 51
180.0
  0
ARC
  8
0
 62
4
 10
323.152191
 20
136.42392
 30
0.0
 40
8.5
 50
107.10463483476482
 51
72.89536516523518
  0
POLYLINE
  8
0
 62
4
 66
1
 10
0.0
 20
0.0
 30
0.0
 70
2
  0
VERTEX
  8
0
 10
325.652191
 20
144.547958
 30
0.0
 70
0
  0
VERTEX
  8
0
 10
325.652191
 20
147.223923
 30
0.0
 70
0
  0
VERTEX
  8
0
 10
320.652191
 20
147.223923
 30
0.0
 70
0
  0
VERTEX
  8
0
 10
320.652191
 20
144.547958
 30
0.0
 70
0
  0
SEQEND
  8
0
  0
LINE
  8
0
 62
4
 10
135.586975
 20
147.223923
 30
0.0
 11
172.586975
 21
147.223923
 31
0.0
  0
POLYLINE
  8
0
 62
4
 66
1
 10
0.0
 20
0.0
 30
0.0
 70
2
  0
VERTEX
  8
0
 10
168.586975
 20
156.42392
 30
0.0
 70
0
  0
VERTEX
  8
0
 10
168.586975
 20
147.223923
 30
0.0
 70
0
  0
SEQEND
  8
0
  0
POLYLINE
  8
0
 62
4
 66
1
 10
0.0
 20
0.0
 30
0.0
 70
2
  0
VERTEX
  8
0
 10
164.586975
 20
156.42392
 30
0.0
 70
0
  0
VERTEX
  8
0
 10
164.586975
 20
147.223923
 30
0.0
 70
0
  0
SEQEND
  8
0
  0
POLYLINE
  8
0
 62
4
 66
1
 10
0.0
 20
0.0
 30
0.0
 70
2
  0
VERTEX
  8
0
 10
168.20697
 20
156.42392
 30
0.0
 70
0
  0
VERTEX
  8
0
 10
168.20697
 20
147.223923
 30
0.0
 70
0
  0
SEQEND
  8
0
  0
POLYLINE
  8
0
 62
4
 66
1
 10
0.0
 20
0.0
 30
0.0
 70
2
  0
VERTEX
  8
0
 10
164.96698
 20
156.42392
 30
0.0
 70
0
  0
VERTEX
  8
0
 10
164.96698
 20
147.223923
 30
0.0
 70
0
  0
SEQEND
  8
0
  0
POLYLINE
  8
0
 62
4
 66
1
 10
0.0
 20
0.0
 30
0.0
 70
2
  0
VERTEX
  8
0
 10
321.152191
 20
147.223923
 30
0.0
 70
0
  0
VERTEX
  8
0
 10
321.152191
 20
156.323669
 30
0.0
 70
0
  0
SEQEND
  8
0
  0
POLYLINE
  8
0
 62
4
 66
1
 10
0.0
 20
0.0
 30
0.0
 70
2
  0
VERTEX
  8
0
 10
325.152191
 20
147.223923
 30
0.0
 70
0
  0
VERTEX
  8
0
 10
325.152191
 20
156.323669
 30
0.0
 70
0
  0
SEQEND
  8
0
  0
POLYLINE
  8
0
 62
4
 66
1
 10
0.0
 20
0.0
 30
0.0
 70
2
  0
VERTEX
  8
0
 10
321.532196
 20
147.223923
 30
0.0
 70
0
  0
VERTEX
  8
0
 10
321.532196
 20
156.3582
 30
0.0
 70
0
  0
SEQEND
  8
0
  0
POLYLINE
  8
0
 62
4
 66
1
 10
0.0
 20
0.0
 30
0.0
 70
2
  0
VERTEX
  8
0
 10
324.772186
 20
147.223923
 30
0.0
 70
0
  0
VERTEX
  8
0
 10
324.772186
 20
156.3582
 30
0.0
 70
0
  0
SEQEND
  8
0
  0
CIRCLE
  8
0
 62
7
 10
166.586975
 20
136.42392
 30
0.0
 40
2.0
  0
CIRCLE
  8
0
 62
4
 10
166.586975
 20
136.42392
 30
0.0
 40
1.62
  0
POLYLINE
  8
0
 62
4
 66
1
 10
0.0
 20
0.0
 30
0.0
 70
2
  0
VERTEX
  8
0
 10
331.413544
 20
138.42392
 30
0.0
 70
0
  0
VERTEX
  8
0
 10
343.051941
 20
138.42392
 30
0.0
 70
0
  0
SEQEND
  8
0
  0
POLYLINE
  8
0
 62
4
 66
1
 10
0.0
 20
0.0
 30
0.0
 70
2
  0
VERTEX
  8
0
 10
331.413544
 20
134.42392
 30
0.0
 70
0
  0
VERTEX
  8
0
 10
343.051941
 20
134.42392
 30
0.0
 70
0
  0
SEQEND
  8
0
  0
POLYLINE
  8
0
 62
4
 66
1
 10
0.0
 20
0.0
 30
0.0
 70
2
  0
VERTEX
  8
0
 10
331.496399
 20
138.043915
 30
0.0
 70
0
  0
VERTEX
  8
0
 10
343.086487
 20
138.043915
 30
0.0
 70
0
  0
SEQEND
  8
0
  0
POLYLINE
  8
0
 62
4
 66
1
 10
0.0
 20
0.0
 30
0.0
 70
2
  0
VERTEX
  8
0
 10
331.496399
 20
134.803925
 30
0.0
 70
0
  0
VERTEX
  8
0
 10
343.086487
 20
134.803925
 30
0.0
 70
0
  0
SEQEND
  8
0
  0
POLYLINE
  8
0
 62
4
 66
1
 10
0.0
 20
0.0
 30
0.0
 70
2
  0
VERTEX
  8
0
 10
135.586975
 20
127.42392
 30
0.0
 70
0
  0
VERTEX
  8
0
 10
135.586975
 20
109.023918
 30
0.0
 70
0
  0
VERTEX
  8
0
 10
135.686981
 20
108.92392
 30
0.0
 70
0
  0
VERTEX
  8
0
 10
160.486969
 20
108.92392
 30
0.0
 70
0
  0
VERTEX
  8
0
 10
160.586975
 20
109.023918
 30
0.0
 70
0
  0
VERTEX
  8
0
 10
160.586975
 20
115.42392
 30
0.0
 70
0
  0
SEQEND
  8
0
  0
POLYLINE
  8
0
 62
4
 66
1
 10
0.0
 20
0.0
 30
0.0
 70
2
  0
VERTEX
  8
0
 10
161.586975
 20
116.42392
 30
0.0
 70
0
  0
VERTEX
  8
0
 10
171.586975
 20
116.42392
 30
0.0
 70
0
  0
VERTEX
  8
0
 10
172.586975
 20
117.42392
 30
0.0
 70
0
  0
VERTEX
  8
0
 10
172.586975
 20
155.42392
 30
0.0
 70
0
  0
VERTEX
  8
0
 10
171.586975
 20
156.42392
 30
0.0
 70
0
  0
VERTEX
  8
0
 10
161.586975
 20
156.42392
 30
0.0
 70
0
  0
SEQEND
  8
0
  0
POLYLINE
  8
0
 62
4
 66
1
 10
0.0
 20
0.0
 30
0.0
 70
2
  0
VERTEX
  8
0
 10
160.586975
 20
157.42392
 30
0.0
 70
0
  0
VERTEX
  8
0
 10
160.586975
 20
163.823914
 30
0.0
 70
0
  0
VERTEX
  8
0
 10
160.486969
 20
163.92392
 30
0.0
 70
0
  0
VERTEX
  8
0
 10
135.686981
 20
163.92392
 30
0.0
 70
0
  0
VERTEX
  8
0
 10
135.586975
 20
163.823914
 30
0.0
 70
0
  0
VERTEX
  8
0
 10
135.586975
 20
127.42392
 30
0.0
 70
0
  0
SEQEND
  8
0
  0
CIRCLE
  8
0
 62
4
 10
323.152191
 20
136.42392
 30
0.0
 40
20.0
  0
ENDSEC
  0
EOF
