  0
SECTION
  2
ENTITIES
  0
LINE
  8
0
 62
4
 10
170.804337
 20
203.733688
 30
0.0
 11
195.804337
 21
203.733688
 31
0.0
  0
LINE
  8
0
 62
4
 10
170.804337
 20
139.983688
 30
0.0
 11
195.804337
 21
139.983688
 31
0.0
  0
LINE
  8
0
 62
4
 10
207.304337
 20
164.358688
 30
0.0
 11
207.804337
 21
163.858688
 31
0.0
  0
LINE
  8
0
 62
4
 10
207.304337
 20
179.358688
 30
0.0
 11
207.804337
 21
179.858688
 31
0.0
  0
LINE
  8
0
 62
4
 10
171.304337
 20
179.358688
 30
0.0
 11
171.304337
 21
164.358688
 31
0.0
  0
POLYLINE
  8
0
 62
4
 66
1
 10
0.0
 20
0.0
 30
0.0
 70
2
  0
VERTEX
  8
0
 10
170.804337
 20
163.858688
 30
0.0
 70
0
  0
VERTEX
  8
0
 10
171.304337
 20
164.358688
 30
0.0
 70
0
  0
VERTEX
  8
0
 10
207.304337
 20
164.358688
 30
0.0
 70
0
  0
VERTEX
  8
0
 10
207.304337
 20
179.358688
 30
0.0
 70
0
  0
VERTEX
  8
0
 10
171.304337
 20
179.358688
 30
0.0
 70
0
  0
VERTEX
  8
0
 10
170.804337
 20
179.858688
 30
0.0
 70
0
  0
SEQEND
  8
0
  0
ARC
  8
0
 62
4
 10
196.804337
 20
202.858688
 30
0.0
 40
1.0
 50
180.0
 51
270.0
  0
ARC
  8
0
 62
4
 10
196.804337
 20
140.858688
 30
0.0
 40
1.0
 50
90.0
 51
180.0
  0
ARC
  8
0
 62
4
 10
402.282593
 20
171.858688
 30
0.0
 40
7.5
 50
109.47122094265586
 51
70.52877905734415
  0
POLYLINE
  8
0
 62
4
 66
1
 10
0.0
 20
0.0
 30
0.0
 70
2
  0
VERTEX
  8
0
 10
404.782593
 20
178.929749
 30
0.0
 70
0
  0
VERTEX
  8
0
 10
404.782593
 20
181.658691
 30
0.0
 70
0
  0
VERTEX
  8
0
 10
399.782593
 20
181.658691
 30
0.0
 70
0
  0
VERTEX
  8
0
 10
399.782593
 20
178.929749
 30
0.0
 70
0
  0
SEQEND
  8
0
  0
LINE
  8
0
 62
4
 10
170.804337
 20
181.658691
 30
0.0
 11
207.804337
 21
181.658691
 31
0.0
  0
POLYLINE
  8
0
 62
4
 66
1
 10
0.0
 20
0.0
 30
0.0
 70
2
  0
VERTEX
  8
0
 10
203.804337
 20
201.858688
 30
0.0
 70
0
  0
VERTEX
  8
0
 10
203.804337
 20
181.658691
 30
0.0
 70
0
  0
SEQEND
  8
0
  0
POLYLINE
  8
0
 62
4
 66
1
 10
0.0
 20
0.0
 30
0.0
 70
2
  0
VERTEX
  8
0
 10
199.804337
 20
201.858688
 30
0.0
 70
0
  0
VERTEX
  8
0
 10
199.804337
 20
181.658691
 30
0.0
 70
0
  0
SEQEND
  8
0
  0
POLYLINE
  8
0
 62
4
 66
1
 10
0.0
 20
0.0
 30
0.0
 70
2
  0
VERTEX
  8
0
 10
203.424332
 20
201.858688
 30
0.0
 70
0
  0
VERTEX
  8
0
 10
203.424332
 20
181.658691
 30
0.0
 70
0
  0
SEQEND
  8
0
  0
POLYLINE
  8
0
 62
4
 66
1
 10
0.0
 20
0.0
 30
0.0
 70
2
  0
VERTEX
  8
0
 10
200.184341
 20
201.858688
 30
0.0
 70
0
  0
VERTEX
  8
0
 10
200.184341
 20
181.658691
 30
0.0
 70
0
  0
SEQEND
  8
0
  0
POLYLINE
  8
0
 62
4
 66
1
 10
0.0
 20
0.0
 30
0.0
 70
2
  0
VERTEX
  8
0
 10
400.282593
 20
181.658691
 30
0.0
 70
0
  0
VERTEX
  8
0
 10
400.282593
 20
201.791946
 30
0.0
 70
0
  0
SEQEND
  8
0
  0
POLYLINE
  8
0
 62
4
 66
1
 10
0.0
 20
0.0
 30
0.0
 70
2
  0
VERTEX
  8
0
 10
404.282593
 20
181.658691
 30
0.0
 70
0
  0
VERTEX
  8
0
 10
404.282593
 20
201.791946
 30
0.0
 70
0
  0
SEQEND
  8
0
  0
POLYLINE
  8
0
 62
4
 66
1
 10
0.0
 20
0.0
 30
0.0
 70
2
  0
VERTEX
  8
0
 10
400.662598
 20
181.658691
 30
0.0
 70
0
  0
VERTEX
  8
0
 10
400.662598
 20
201.814911
 30
0.0
 70
0
  0
SEQEND
  8
0
  0
POLYLINE
  8
0
 62
4
 66
1
 10
0.0
 20
0.0
 30
0.0
 70
2
  0
VERTEX
  8
0
 10
403.902588
 20
181.658691
 30
0.0
 70
0
  0
VERTEX
  8
0
 10
403.902588
 20
201.814911
 30
0.0
 70
0
  0
SEQEND
  8
0
  0
CIRCLE
  8
0
 62
7
 10
201.804337
 20
171.858688
 30
0.0
 40
2.0
  0
CIRCLE
  8
0
 62
4
 10
201.804337
 20
171.858688
 30
0.0
 40
1.62
  0
POLYLINE
  8
0
 62
4
 66
1
 10
0.0
 20
0.0
 30
0.0
 70
2
  0
VERTEX
  8
0
 10
409.510986
 20
173.858688
 30
0.0
 70
0
  0
VERTEX
  8
0
 10
432.215881
 20
173.858688
 30
0.0
 70
0
  0
SEQEND
  8
0
  0
POLYLINE
  8
0
 62
4
 66
1
 10
0.0
 20
0.0
 30
0.0
 70
2
  0
VERTEX
  8
0
 10
409.510986
 20
169.858688
 30
0.0
 70
0
  0
VERTEX
  8
0
 10
432.215881
 20
169.858688
 30
0.0
 70
0
  0
SEQEND
  8
0
  0
POLYLINE
  8
0
 62
4
 66
1
 10
0.0
 20
0.0
 30
0.0
 70
2
  0
VERTEX
  8
0
 10
409.60553
 20
173.478683
 30
0.0
 70
0
  0
VERTEX
  8
0
 10
432.238831
 20
173.478683
 30
0.0
 70
0
  0
SEQEND
  8
0
  0
POLYLINE
  8
0
 62
4
 66
1
 10
0.0
 20
0.0
 30
0.0
 70
2
  0
VERTEX
  8
0
 10
409.60553
 20
170.238693
 30
0.0
 70
0
  0
VERTEX
  8
0
 10
432.238831
 20
170.238693
 30
0.0
 70
0
  0
SEQEND
  8
0
  0
POLYLINE
  8
0
 62
4
 66
1
 10
0.0
 20
0.0
 30
0.0
 70
2
  0
VERTEX
  8
0
 10
170.804337
 20
163.858688
 30
0.0
 70
0
  0
VERTEX
  8
0
 10
170.804337
 20
134.458679
 30
0.0
 70
0
  0
VERTEX
  8
0
 10
170.904343
 20
134.358688
 30
0.0
 70
0
  0
VERTEX
  8
0
 10
195.70433
 20
134.358688
 30
0.0
 70
0
  0
VERTEX
  8
0
 10
195.804337
 20
134.458679
 30
0.0
 70
0
  0
VERTEX
  8
0
 10
195.804337
 20
140.858688
 30
0.0
 70
0
  0
SEQEND
  8
0
  0
POLYLINE
  8
0
 62
4
 66
1
 10
0.0
 20
0.0
 30
0.0
 70
2
  0
VERTEX
  8
0
 10
196.804337
 20
141.858688
 30
0.0
 70
0
  0
VERTEX
  8
0
 10
206.804337
 20
141.858688
 30
0.0
 70
0
  0
VERTEX
  8
0
 10
207.804337
 20
142.858688
 30
0.0
 70
0
  0
VERTEX
  8
0
 10
207.804337
 20
200.858688
 30
0.0
 70
0
  0
VERTEX
  8
0
 10
206.804337
 20
201.858688
 30
0.0
 70
0
  0
VERTEX
  8
0
 10
196.804337
 20
201.858688
 30
0.0
 70
0
  0
SEQEND
  8
0
  0
POLYLINE
  8
0
 62
4
 66
1
 10
0.0
 20
0.0
 30
0.0
 70
2
  0
VERTEX
  8
0
 10
195.804337
 20
202.858688
 30
0.0
 70
0
  0
VERTEX
  8
0
 10
195.804337
 20
209.258698
 30
0.0
 70
0
  0
VERTEX
  8
0
 10
195.70433
 20
209.358688
 30
0.0
 70
0
  0
VERTEX
  8
0
 10
170.904343
 20
209.358688
 30
0.0
 70
0
  0
VERTEX
  8
0
 10
170.804337
 20
209.258698
 30
0.0
 70
0
  0
VERTEX
  8
0
 10
170.804337
 20
163.858688
 30
0.0
 70
0
  0
SEQEND
  8
0
  0
CIRCLE
  8
0
 62
4
 10
402.282593
 20
171.858688
 30
0.0
 40
30.0
  0
ENDSEC
  0
EOF
