  0
SECTION
  2
ENTITIES
  0
LINE
  8
0
 62
4
 10
179.608688
 20
215.092392
 30
0.0
 11
204.608688
 21
215.092392
 31
0.0
  0
LINE
  8
0
 62
4
 10
179.608688
 20
146.342392
 30
0.0
 11
204.608688
 21
146.342392
 31
0.0
  0
LINE
  8
0
 62
4
 10
216.108688
 20
163.217392
 30
0.0
 11
216.608688
 21
162.717392
 31
0.0
  0
LINE
  8
0
 62
4
 10
216.108688
 20
198.217392
 30
0.0
 11
216.608688
 21
198.717392
 31
0.0
  0
LINE
  8
0
 62
4
 10
180.108688
 20
198.217392
 30
0.0
 11
180.108688
 21
163.217392
 31
0.0
  0
POLYLINE
  8
0
 62
4
 66
1
 10
0.0
 20
0.0
 30
0.0
 70
2
  0
VERTEX
  8
0
 10
179.608688
 20
162.717392
 30
0.0
 70
0
  0
VERTEX
  8
0
 10
180.108688
 20
163.217392
 30
0.0
 70
0
  0
VERTEX
  8
0
 10
216.108688
 20
163.217392
 30
0.0
 70
0
  0
VERTEX
  8
0
 10
216.108688
 20
198.217392
 30
0.0
 70
0
  0
VERTEX
  8
0
 10
180.108688
 20
198.217392
 30
0.0
 70
0
  0
VERTEX
  8
0
 10
179.608688
 20
198.717392
 30
0.0
 70
0
  0
SEQEND
  8
0
  0
ARC
  8
0
 62
4
 10
206.108688
 20
214.717392
 30
0.0
 40
1.5
 50
180.0
 51
270.0
  0
ARC
  8
0
 62
4
 10
206.108688
 20
146.717392
 30
0.0
 40
1.5
 50
90.0
 51
180.0
  0
ARC
  8
0
 62
4
 10
422.065216
 20
180.717392
 30
0.0
 40
17.5
 50
106.60154992625478
 51
73.39845007374521
  0
POLYLINE
  8
0
 62
4
 66
1
 10
0.0
 20
0.0
 30
0.0
 70
2
  0
VERTEX
  8
0
 10
427.065216
 20
197.4879
 30
0.0
 70
0
  0
VERTEX
  8
0
 10
427.065216
 20
201.517395
 30
0.0
 70
0
  0
VERTEX
  8
0
 10
417.065216
 20
201.517395
 30
0.0
 70
0
  0
VERTEX
  8
0
 10
417.065216
 20
197.4879
 30
0.0
 70
0
  0
SEQEND
  8
0
  0
LINE
  8
0
 62
4
 10
179.608688
 20
201.517395
 30
0.0
 11
216.608688
 21
201.517395
 31
0.0
  0
POLYLINE
  8
0
 62
4
 66
1
 10
0.0
 20
0.0
 30
0.0
 70
2
  0
VERTEX
  8
0
 10
214.608688
 20
213.217392
 30
0.0
 70
0
  0
VERTEX
  8
0
 10
214.608688
 20
201.517395
 30
0.0
 70
0
  0
SEQEND
  8
0
  0
POLYLINE
  8
0
 62
4
 66
1
 10
0.0
 20
0.0
 30
0.0
 70
2
  0
VERTEX
  8
0
 10
206.608688
 20
213.217392
 30
0.0
 70
0
  0
VERTEX
  8
0
 10
206.608688
 20
201.517395
 30
0.0
 70
0
  0
SEQEND
  8
0
  0
POLYLINE
  8
0
 62
4
 66
1
 10
0.0
 20
0.0
 30
0.0
 70
2
  0
VERTEX
  8
0
 10
213.933685
 20
213.217392
 30
0.0
 70
0
  0
VERTEX
  8
0
 10
213.933685
 20
201.517395
 30
0.0
 70
0
  0
SEQEND
  8
0
  0
POLYLINE
  8
0
 62
4
 66
1
 10
0.0
 20
0.0
 30
0.0
 70
2
  0
VERTEX
  8
0
 10
207.283691
 20
213.217392
 30
0.0
 70
0
  0
VERTEX
  8
0
 10
207.283691
 20
201.517395
 30
0.0
 70
0
  0
SEQEND
  8
0
  0
POLYLINE
  8
0
 62
4
 66
1
 10
0.0
 20
0.0
 30
0.0
 70
2
  0
VERTEX
  8
0
 10
418.065216
 20
201.517395
 30
0.0
 70
0
  0
VERTEX
  8
0
 10
418.065216
 20
212.970306
 30
0.0
 70
0
  0
SEQEND
  8
0
  0
POLYLINE
  8
0
 62
4
 66
1
 10
0.0
 20
0.0
 30
0.0
 70
2
  0
VERTEX
  8
0
 10
426.065216
 20
201.517395
 30
0.0
 70
0
  0
VERTEX
  8
0
 10
426.065216
 20
212.970306
 30
0.0
 70
0
  0
SEQEND
  8
0
  0
POLYLINE
  8
0
 62
4
 66
1
 10
0.0
 20
0.0
 30
0.0
 70
2
  0
VERTEX
  8
0
 10
418.740234
 20
201.517395
 30
0.0
 70
0
  0
VERTEX
  8
0
 10
418.740234
 20
213.04686
 30
0.0
 70
0
  0
SEQEND
  8
0
  0
POLYLINE
  8
0
 62
4
 66
1
 10
0.0
 20
0.0
 30
0.0
 70
2
  0
VERTEX
  8
0
 10
425.390198
 20
201.517395
 30
0.0
 70
0
  0
VERTEX
  8
0
 10
425.390198
 20
213.04686
 30
0.0
 70
0
  0
SEQEND
  8
0
  0
CIRCLE
  8
0
 62
7
 10
210.608688
 20
180.717392
 30
0.0
 40
4.0
  0
CIRCLE
  8
0
 62
4
 10
210.608688
 20
180.717392
 30
0.0
 40
3.325
  0
POLYLINE
  8
0
 62
4
 66
1
 10
0.0
 20
0.0
 30
0.0
 70
2
  0
VERTEX
  8
0
 10
439.101929
 20
184.717392
 30
0.0
 70
0
  0
VERTEX
  8
0
 10
454.318115
 20
184.717392
 30
0.0
 70
0
  0
SEQEND
  8
0
  0
POLYLINE
  8
0
 62
4
 66
1
 10
0.0
 20
0.0
 30
0.0
 70
2
  0
VERTEX
  8
0
 10
439.101929
 20
176.717392
 30
0.0
 70
0
  0
VERTEX
  8
0
 10
454.318115
 20
176.717392
 30
0.0
 70
0
  0
SEQEND
  8
0
  0
POLYLINE
  8
0
 62
4
 66
1
 10
0.0
 20
0.0
 30
0.0
 70
2
  0
VERTEX
  8
0
 10
439.24646
 20
184.042389
 30
0.0
 70
0
  0
VERTEX
  8
0
 10
454.394714
 20
184.042389
 30
0.0
 70
0
  0
SEQEND
  8
0
  0
POLYLINE
  8
0
 62
4
 66
1
 10
0.0
 20
0.0
 30
0.0
 70
2
  0
VERTEX
  8
0
 10
439.24646
 20
177.392395
 30
0.0
 70
0
  0
VERTEX
  8
0
 10
454.394714
 20
177.392395
 30
0.0
 70
0
  0
SEQEND
  8
0
  0
POLYLINE
  8
0
 62
4
 66
1
 10
0.0
 20
0.0
 30
0.0
 70
2
  0
VERTEX
  8
0
 10
179.608688
 20
162.717392
 30
0.0
 70
0
  0
VERTEX
  8
0
 10
179.608688
 20
140.817383
 30
0.0
 70
0
  0
VERTEX
  8
0
 10
179.708694
 20
140.717392
 30
0.0
 70
0
  0
VERTEX
  8
0
 10
204.508682
 20
140.717392
 30
0.0
 70
0
  0
VERTEX
  8
0
 10
204.608688
 20
140.817383
 30
0.0
 70
0
  0
VERTEX
  8
0
 10
204.608688
 20
146.717392
 30
0.0
 70
0
  0
SEQEND
  8
0
  0
POLYLINE
  8
0
 62
4
 66
1
 10
0.0
 20
0.0
 30
0.0
 70
2
  0
VERTEX
  8
0
 10
206.108688
 20
148.217392
 30
0.0
 70
0
  0
VERTEX
  8
0
 10
215.608688
 20
148.217392
 30
0.0
 70
0
  0
VERTEX
  8
0
 10
216.608688
 20
149.217392
 30
0.0
 70
0
  0
VERTEX
  8
0
 10
216.608688
 20
212.217392
 30
0.0
 70
0
  0
VERTEX
  8
0
 10
215.608688
 20
213.217392
 30
0.0
 70
0
  0
VERTEX
  8
0
 10
206.108688
 20
213.217392
 30
0.0
 70
0
  0
SEQEND
  8
0
  0
POLYLINE
  8
0
 62
4
 66
1
 10
0.0
 20
0.0
 30
0.0
 70
2
  0
VERTEX
  8
0
 10
204.608688
 20
214.717392
 30
0.0
 70
0
  0
VERTEX
  8
0
 10
204.608688
 20
220.617401
 30
0.0
 70
0
  0
VERTEX
  8
0
 10
204.508682
 20
220.717392
 30
0.0
 70
0
  0
VERTEX
  8
0
 10
179.708694
 20
220.717392
 30
0.0
 70
0
  0
VERTEX
  8
0
 10
179.608688
 20
220.617401
 30
0.0
 70
0
  0
VERTEX
  8
0
 10
179.608688
 20
162.717392
 30
0.0
 70
0
  0
SEQEND
  8
0
  0
CIRCLE
  8
0
 62
4
 10
422.065216
 20
180.717392
 30
0.0
 40
32.5
  0
ENDSEC
  0
EOF
