  0
SECTION
  2
ENTITIES
  0
LINE
  8
0
 62
4
 10
132.065216
 20
148.630432
 30
0.0
 11
162.065216
 21
148.630432
 31
0.0
  0
LINE
  8
0
 62
4
 10
132.065216
 20
117.130432
 30
0.0
 11
162.065216
 21
117.130432
 31
0.0
  0
LINE
  8
0
 62
4
 10
176.565216
 20
126.880432
 30
0.0
 11
177.065216
 21
126.380432
 31
0.0
  0
LINE
  8
0
 62
4
 10
176.565216
 20
138.880432
 30
0.0
 11
177.065216
 21
139.380432
 31
0.0
  0
LINE
  8
0
 62
4
 10
132.565216
 20
138.880432
 30
0.0
 11
132.565216
 21
126.880432
 31
0.0
  0
POLYLINE
  8
0
 62
4
 66
1
 10
0.0
 20
0.0
 30
0.0
 70
2
  0
VERTEX
  8
0
 10
132.065216
 20
126.380432
 30
0.0
 70
0
  0
VERTEX
  8
0
 10
132.565216
 20
126.880432
 30
0.0
 70
0
  0
VERTEX
  8
0
 10
176.565216
 20
126.880432
 30
0.0
 70
0
  0
VERTEX
  8
0
 10
176.565216
 20
138.880432
 30
0.0
 70
0
  0
VERTEX
  8
0
 10
132.565216
 20
138.880432
 30
0.0
 70
0
  0
VERTEX
  8
0
 10
132.065216
 20
139.380432
 30
0.0
 70
0
  0
SEQEND
  8
0
  0
ARC
  8
0
 62
4
 10
163.065216
 20
148.880432
 30
0.0
 40
1.0
 50
180.0
 51
270.0
  0
ARC
  8
0
 62
4
 10
163.065216
 20
116.880432
 30
0.0
 40
1.0
 50
90.0
 51
180.0
  0
ARC
  8
0
 62
4
 10
319.239136
 20
132.880432
 30
0.0
 40
6.0
 50
109.47122094265586
 51
70.52877905734415
  0
POLYLINE
  8
0
 62
4
 66
1
 10
0.0
 20
0.0
 30
0.0
 70
2
  0
VERTEX
  8
0
 10
321.239136
 20
138.537292
 30
0.0
 70
0
  0
VERTEX
  8
0
 10
321.239136
 20
140.680435
 30
0.0
 70
0
  0
VERTEX
  8
0
 10
317.239136
 20
140.680435
 30
0.0
 70
0
  0
VERTEX
  8
0
 10
317.239136
 20
138.537292
 30
0.0
 70
0
  0
SEQEND
  8
0
  0
LINE
  8
0
 62
4
 10
132.065216
 20
140.680435
 30
0.0
 11
177.065216
 21
140.680435
 31
0.0
  0
POLYLINE
  8
0
 62
4
 66
1
 10
0.0
 20
0.0
 30
0.0
 70
2
  0
VERTEX
  8
0
 10
171.565216
 20
147.880432
 30
0.0
 70
0
  0
VERTEX
  8
0
 10
171.565216
 20
140.680435
 30
0.0
 70
0
  0
SEQEND
  8
0
  0
POLYLINE
  8
0
 62
4
 66
1
 10
0.0
 20
0.0
 30
0.0
 70
2
  0
VERTEX
  8
0
 10
167.565216
 20
147.880432
 30
0.0
 70
0
  0
VERTEX
  8
0
 10
167.565216
 20
140.680435
 30
0.0
 70
0
  0
SEQEND
  8
0
  0
POLYLINE
  8
0
 62
4
 66
1
 10
0.0
 20
0.0
 30
0.0
 70
2
  0
VERTEX
  8
0
 10
171.185211
 20
147.880432
 30
0.0
 70
0
  0
VERTEX
  8
0
 10
171.185211
 20
140.680435
 30
0.0
 70
0
  0
SEQEND
  8
0
  0
POLYLINE
  8
0
 62
4
 66
1
 10
0.0
 20
0.0
 30
0.0
 70
2
  0
VERTEX
  8
0
 10
167.945221
 20
147.880432
 30
0.0
 70
0
  0
VERTEX
  8
0
 10
167.945221
 20
140.680435
 30
0.0
 70
0
  0
SEQEND
  8
0
  0
POLYLINE
  8
0
 62
4
 66
1
 10
0.0
 20
0.0
 30
0.0
 70
2
  0
VERTEX
  8
0
 10
317.239136
 20
138.537292
 30
0.0
 70
0
  0
VERTEX
  8
0
 10
317.239136
 20
147.746506
 30
0.0
 70
0
  0
SEQEND
  8
0
  0
POLYLINE
  8
0
 62
4
 66
1
 10
0.0
 20
0.0
 30
0.0
 70
2
  0
VERTEX
  8
0
 10
321.239136
 20
138.537292
 30
0.0
 70
0
  0
VERTEX
  8
0
 10
321.239136
 20
147.746506
 30
0.0
 70
0
  0
SEQEND
  8
0
  0
POLYLINE
  8
0
 62
4
 66
1
 10
0.0
 20
0.0
 30
0.0
 70
2
  0
VERTEX
  8
0
 10
317.619141
 20
140.680435
 30
0.0
 70
0
  0
VERTEX
  8
0
 10
317.619141
 20
147.792694
 30
0.0
 70
0
  0
SEQEND
  8
0
  0
POLYLINE
  8
0
 62
4
 66
1
 10
0.0
 20
0.0
 30
0.0
 70
2
  0
VERTEX
  8
0
 10
320.859131
 20
140.680435
 30
0.0
 70
0
  0
VERTEX
  8
0
 10
320.859131
 20
147.792694
 30
0.0
 70
0
  0
SEQEND
  8
0
  0
CIRCLE
  8
0
 62
7
 10
169.565216
 20
132.880432
 30
0.0
 40
2.0
  0
CIRCLE
  8
0
 62
4
 10
169.565216
 20
132.880432
 30
0.0
 40
1.62
  0
POLYLINE
  8
0
 62
4
 66
1
 10
0.0
 20
0.0
 30
0.0
 70
2
  0
VERTEX
  8
0
 10
324.895996
 20
134.880432
 30
0.0
 70
0
  0
VERTEX
  8
0
 10
334.105225
 20
134.880432
 30
0.0
 70
0
  0
SEQEND
  8
0
  0
POLYLINE
  8
0
 62
4
 66
1
 10
0.0
 20
0.0
 30
0.0
 70
2
  0
VERTEX
  8
0
 10
324.895996
 20
130.880432
 30
0.0
 70
0
  0
VERTEX
  8
0
 10
334.105225
 20
130.880432
 30
0.0
 70
0
  0
SEQEND
  8
0
  0
POLYLINE
  8
0
 62
4
 66
1
 10
0.0
 20
0.0
 30
0.0
 70
2
  0
VERTEX
  8
0
 10
325.016296
 20
134.500427
 30
0.0
 70
0
  0
VERTEX
  8
0
 10
334.151398
 20
134.500427
 30
0.0
 70
0
  0
SEQEND
  8
0
  0
POLYLINE
  8
0
 62
4
 66
1
 10
0.0
 20
0.0
 30
0.0
 70
2
  0
VERTEX
  8
0
 10
325.016296
 20
131.260437
 30
0.0
 70
0
  0
VERTEX
  8
0
 10
334.151398
 20
131.260437
 30
0.0
 70
0
  0
SEQEND
  8
0
  0
POLYLINE
  8
0
 62
4
 66
1
 10
0.0
 20
0.0
 30
0.0
 70
2
  0
VERTEX
  8
0
 10
132.065216
 20
126.380432
 30
0.0
 70
0
  0
VERTEX
  8
0
 10
132.065216
 20
110.480431
 30
0.0
 70
0
  0
VERTEX
  8
0
 10
132.165222
 20
110.380432
 30
0.0
 70
0
  0
VERTEX
  8
0
 10
161.96521
 20
110.380432
 30
0.0
 70
0
  0
VERTEX
  8
0
 10
162.065216
 20
110.480431
 30
0.0
 70
0
  0
VERTEX
  8
0
 10
162.065216
 20
116.880432
 30
0.0
 70
0
  0
SEQEND
  8
0
  0
POLYLINE
  8
0
 62
4
 66
1
 10
0.0
 20
0.0
 30
0.0
 70
2
  0
VERTEX
  8
0
 10
163.065216
 20
117.880432
 30
0.0
 70
0
  0
VERTEX
  8
0
 10
176.065216
 20
117.880432
 30
0.0
 70
0
  0
VERTEX
  8
0
 10
177.065216
 20
118.880432
 30
0.0
 70
0
  0
VERTEX
  8
0
 10
177.065216
 20
146.880432
 30
0.0
 70
0
  0
VERTEX
  8
0
 10
176.065216
 20
147.880432
 30
0.0
 70
0
  0
VERTEX
  8
0
 10
163.065216
 20
147.880432
 30
0.0
 70
0
  0
SEQEND
  8
0
  0
POLYLINE
  8
0
 62
4
 66
1
 10
0.0
 20
0.0
 30
0.0
 70
2
  0
VERTEX
  8
0
 10
162.065216
 20
148.880432
 30
0.0
 70
0
  0
VERTEX
  8
0
 10
162.065216
 20
155.280426
 30
0.0
 70
0
  0
VERTEX
  8
0
 10
161.96521
 20
155.380432
 30
0.0
 70
0
  0
VERTEX
  8
0
 10
132.165222
 20
155.380432
 30
0.0
 70
0
  0
VERTEX
  8
0
 10
132.065216
 20
155.280426
 30
0.0
 70
0
  0
VERTEX
  8
0
 10
132.065216
 20
126.380432
 30
0.0
 70
0
  0
SEQEND
  8
0
  0
CIRCLE
  8
0
 62
4
 10
319.239136
 20
132.880432
 30
0.0
 40
15.0
  0
ENDSEC
  0
EOF
