  0
SECTION
  2
ENTITIES
  0
LINE
  8
0
 62
4
 10
121.338318
 20
165.003403
 30
0.0
 11
146.338318
 21
165.003403
 31
0.0
  0
LINE
  8
0
 62
4
 10
121.338318
 20
51.253403
 30
0.0
 11
146.338318
 21
51.253403
 31
0.0
  0
LINE
  8
0
 62
4
 10
146.338318
 20
116.128403
 30
0.0
 11
145.838318
 21
115.628403
 31
0.0
  0
LINE
  8
0
 62
4
 10
146.338318
 20
100.128403
 30
0.0
 11
145.838318
 21
100.628403
 31
0.0
  0
LINE
  8
0
 62
4
 10
121.338318
 20
100.128403
 30
0.0
 11
121.838318
 21
100.628403
 31
0.0
  0
POLYLINE
  8
0
 62
4
 66
1
 10
0.0
 20
0.0
 30
0.0
 70
2
  0
VERTEX
  8
0
 10
121.338318
 20
100.128403
 30
0.0
 70
0
  0
VERTEX
  8
0
 10
121.338318
 20
45.728401
 30
0.0
 70
0
  0
VERTEX
  8
0
 10
121.438316
 20
45.628403
 30
0.0
 70
0
  0
VERTEX
  8
0
 10
146.238312
 20
45.628403
 30
0.0
 70
0
  0
VERTEX
  8
0
 10
146.338318
 20
45.728401
 30
0.0
 70
0
  0
VERTEX
  8
0
 10
146.338318
 20
170.528412
 30
0.0
 70
0
  0
VERTEX
  8
0
 10
146.238312
 20
170.628403
 30
0.0
 70
0
  0
VERTEX
  8
0
 10
121.438316
 20
170.628403
 30
0.0
 70
0
  0
VERTEX
  8
0
 10
121.338318
 20
170.528412
 30
0.0
 70
0
  0
VERTEX
  8
0
 10
121.338318
 20
100.128403
 30
0.0
 70
0
  0
SEQEND
  8
0
  0
POLYLINE
  8
0
 62
4
 66
1
 10
0.0
 20
0.0
 30
0.0
 70
2
  0
VERTEX
  8
0
 10
121.338318
 20
116.128403
 30
0.0
 70
0
  0
VERTEX
  8
0
 10
121.838318
 20
115.628403
 30
0.0
 70
0
  0
VERTEX
  8
0
 10
121.838318
 20
100.628403
 30
0.0
 70
0
  0
VERTEX
  8
0
 10
145.838318
 20
100.628403
 30
0.0
 70
0
  0
VERTEX
  8
0
 10
145.838318
 20
115.628403
 30
0.0
 70
0
  0
VERTEX
  8
0
 10
121.838318
 20
115.628403
 30
0.0
 70
0
  0
SEQEND
  8
0
  0
ARC
  8
0
 62
4
 10
218.716034
 20
108.128403
 30
0.0
 40
7.5
 50
109.47122094265586
 51
70.52877905734415
  0
POLYLINE
  8
0
 62
4
 66
1
 10
0.0
 20
0.0
 30
0.0
 70
2
  0
VERTEX
  8
0
 10
221.216034
 20
115.199471
 30
0.0
 70
0
  0
VERTEX
  8
0
 10
221.216034
 20
117.928406
 30
0.0
 70
0
  0
VERTEX
  8
0
 10
216.216034
 20
117.928406
 30
0.0
 70
0
  0
VERTEX
  8
0
 10
216.216034
 20
115.199471
 30
0.0
 70
0
  0
SEQEND
  8
0
  0
LINE
  8
0
 62
4
 10
121.338318
 20
117.928406
 30
0.0
 11
146.338318
 21
117.928406
 31
0.0
  0
ENDSEC
  0
EOF
