  0
SECTION
  2
ENTITIES
  0
LINE
  8
0
 62
4
 10
145.994568
 20
194.894028
 30
0.0
 11
165.994568
 21
194.894028
 31
0.0
  0
LINE
  8
0
 62
4
 10
145.994568
 20
59.894028
 30
0.0
 11
165.994568
 21
59.894028
 31
0.0
  0
LINE
  8
0
 62
4
 10
165.994568
 20
137.394028
 30
0.0
 11
165.494568
 21
136.894028
 31
0.0
  0
LINE
  8
0
 62
4
 10
165.994568
 20
117.394028
 30
0.0
 11
165.494568
 21
117.894028
 31
0.0
  0
LINE
  8
0
 62
4
 10
145.994568
 20
117.394028
 30
0.0
 11
146.494568
 21
117.894028
 31
0.0
  0
POLYLINE
  8
0
 62
4
 66
1
 10
0.0
 20
0.0
 30
0.0
 70
2
  0
VERTEX
  8
0
 10
145.994568
 20
117.394028
 30
0.0
 70
0
  0
VERTEX
  8
0
 10
145.994568
 20
55.494026
 30
0.0
 70
0
  0
VERTEX
  8
0
 10
146.094574
 20
55.394028
 30
0.0
 70
0
  0
VERTEX
  8
0
 10
165.894562
 20
55.394028
 30
0.0
 70
0
  0
VERTEX
  8
0
 10
165.994568
 20
55.494026
 30
0.0
 70
0
  0
VERTEX
  8
0
 10
165.994568
 20
199.294037
 30
0.0
 70
0
  0
VERTEX
  8
0
 10
165.894562
 20
199.394028
 30
0.0
 70
0
  0
VERTEX
  8
0
 10
146.094574
 20
199.394028
 30
0.0
 70
0
  0
VERTEX
  8
0
 10
145.994568
 20
199.294037
 30
0.0
 70
0
  0
VERTEX
  8
0
 10
145.994568
 20
117.394028
 30
0.0
 70
0
  0
SEQEND
  8
0
  0
POLYLINE
  8
0
 62
4
 66
1
 10
0.0
 20
0.0
 30
0.0
 70
2
  0
VERTEX
  8
0
 10
145.994568
 20
137.394028
 30
0.0
 70
0
  0
VERTEX
  8
0
 10
146.494568
 20
136.894028
 30
0.0
 70
0
  0
VERTEX
  8
0
 10
146.494568
 20
117.894028
 30
0.0
 70
0
  0
VERTEX
  8
0
 10
165.494568
 20
117.894028
 30
0.0
 70
0
  0
VERTEX
  8
0
 10
165.494568
 20
136.894028
 30
0.0
 70
0
  0
VERTEX
  8
0
 10
146.494568
 20
136.894028
 30
0.0
 70
0
  0
SEQEND
  8
0
  0
ARC
  8
0
 62
4
 10
251.309784
 20
127.394028
 30
0.0
 40
9.5
 50
108.4084803259778
 51
71.5915196740222
  0
POLYLINE
  8
0
 62
4
 66
1
 10
0.0
 20
0.0
 30
0.0
 70
2
  0
VERTEX
  8
0
 10
254.309784
 20
136.407898
 30
0.0
 70
0
  0
VERTEX
  8
0
 10
254.309784
 20
139.694031
 30
0.0
 70
0
  0
VERTEX
  8
0
 10
248.309784
 20
139.694031
 30
0.0
 70
0
  0
VERTEX
  8
0
 10
248.309784
 20
136.407898
 30
0.0
 70
0
  0
SEQEND
  8
0
  0
LINE
  8
0
 62
4
 10
145.994568
 20
139.694031
 30
0.0
 11
165.994568
 21
139.694031
 31
0.0
  0
ENDSEC
  0
EOF
