  0
SECTION
  2
ENTITIES
  0
LINE
  8
0
 62
4
 10
60.33152
 20
94.839676
 30
0.0
 11
80.33152
 21
94.839676
 31
0.0
  0
LINE
  8
0
 62
4
 10
60.33152
 20
29.839676
 30
0.0
 11
80.33152
 21
29.839676
 31
0.0
  0
LINE
  8
0
 62
4
 10
80.33152
 20
78.839676
 30
0.0
 11
79.83152
 21
78.339676
 31
0.0
  0
LINE
  8
0
 62
4
 10
80.33152
 20
45.839676
 30
0.0
 11
79.83152
 21
46.339676
 31
0.0
  0
LINE
  8
0
 62
4
 10
60.33152
 20
45.839676
 30
0.0
 11
60.83152
 21
46.339676
 31
0.0
  0
POLYLINE
  8
0
 62
4
 66
1
 10
0.0
 20
0.0
 30
0.0
 70
2
  0
VERTEX
  8
0
 10
60.33152
 20
45.839676
 30
0.0
 70
0
  0
VERTEX
  8
0
 10
60.33152
 20
25.439674
 30
0.0
 70
0
  0
VERTEX
  8
0
 10
60.431519
 20
25.339676
 30
0.0
 70
0
  0
VERTEX
  8
0
 10
80.231522
 20
25.339676
 30
0.0
 70
0
  0
VERTEX
  8
0
 10
80.33152
 20
25.439674
 30
0.0
 70
0
  0
VERTEX
  8
0
 10
80.33152
 20
99.239677
 30
0.0
 70
0
  0
VERTEX
  8
0
 10
80.231522
 20
99.339676
 30
0.0
 70
0
  0
VERTEX
  8
0
 10
60.431519
 20
99.339676
 30
0.0
 70
0
  0
VERTEX
  8
0
 10
60.33152
 20
99.239677
 30
0.0
 70
0
  0
VERTEX
  8
0
 10
60.33152
 20
45.839676
 30
0.0
 70
0
  0
SEQEND
  8
0
  0
POLYLINE
  8
0
 62
4
 66
1
 10
0.0
 20
0.0
 30
0.0
 70
2
  0
VERTEX
  8
0
 10
60.33152
 20
78.839676
 30
0.0
 70
0
  0
VERTEX
  8
0
 10
60.83152
 20
78.339676
 30
0.0
 70
0
  0
VERTEX
  8
0
 10
60.83152
 20
46.339676
 30
0.0
 70
0
  0
VERTEX
  8
0
 10
79.83152
 20
46.339676
 30
0.0
 70
0
  0
VERTEX
  8
0
 10
79.83152
 20
78.339676
 30
0.0
 70
0
  0
VERTEX
  8
0
 10
60.83152
 20
78.339676
 30
0.0
 70
0
  0
SEQEND
  8
0
  0
ARC
  8
0
 62
4
 10
134.103256
 20
62.339676
 30
0.0
 40
16.0
 50
108.20995732853793
 51
71.79004267146207
  0
POLYLINE
  8
0
 62
4
 66
1
 10
0.0
 20
0.0
 30
0.0
 70
2
  0
VERTEX
  8
0
 10
139.103256
 20
77.538361
 30
0.0
 70
0
  0
VERTEX
  8
0
 10
139.103256
 20
81.639679
 30
0.0
 70
0
  0
VERTEX
  8
0
 10
129.103256
 20
81.639679
 30
0.0
 70
0
  0
VERTEX
  8
0
 10
129.103256
 20
77.538361
 30
0.0
 70
0
  0
SEQEND
  8
0
  0
LINE
  8
0
 62
4
 10
60.33152
 20
81.639679
 30
0.0
 11
80.33152
 21
81.639679
 31
0.0
  0
ENDSEC
  0
EOF
