  0
SECTION
  2
ENTITIES
  0
LINE
  8
0
 62
4
 10
124.614128
 20
180.600555
 30
0.0
 11
144.614136
 21
180.600555
 31
0.0
  0
LINE
  8
0
 62
4
 10
124.614128
 20
55.600555
 30
0.0
 11
144.614136
 21
55.600555
 31
0.0
  0
LINE
  8
0
 62
4
 10
144.614136
 20
143.600555
 30
0.0
 11
144.114136
 21
143.100555
 31
0.0
  0
LINE
  8
0
 62
4
 10
144.614136
 20
92.600555
 30
0.0
 11
144.114136
 21
93.100555
 31
0.0
  0
LINE
  8
0
 62
4
 10
124.614128
 20
92.600555
 30
0.0
 11
125.114128
 21
93.100555
 31
0.0
  0
POLYLINE
  8
0
 62
4
 66
1
 10
0.0
 20
0.0
 30
0.0
 70
2
  0
VERTEX
  8
0
 10
124.614128
 20
92.600555
 30
0.0
 70
0
  0
VERTEX
  8
0
 10
124.614128
 20
51.200554
 30
0.0
 70
0
  0
VERTEX
  8
0
 10
124.714127
 20
51.100555
 30
0.0
 70
0
  0
VERTEX
  8
0
 10
144.51413
 20
51.100555
 30
0.0
 70
0
  0
VERTEX
  8
0
 10
144.614136
 20
51.200554
 30
0.0
 70
0
  0
VERTEX
  8
0
 10
144.614136
 20
185.000549
 30
0.0
 70
0
  0
VERTEX
  8
0
 10
144.51413
 20
185.100555
 30
0.0
 70
0
  0
VERTEX
  8
0
 10
124.714127
 20
185.100555
 30
0.0
 70
0
  0
VERTEX
  8
0
 10
124.614128
 20
185.000549
 30
0.0
 70
0
  0
VERTEX
  8
0
 10
124.614128
 20
92.600555
 30
0.0
 70
0
  0
SEQEND
  8
0
  0
POLYLINE
  8
0
 62
4
 66
1
 10
0.0
 20
0.0
 30
0.0
 70
2
  0
VERTEX
  8
0
 10
124.614128
 20
143.600555
 30
0.0
 70
0
  0
VERTEX
  8
0
 10
125.114128
 20
143.100555
 30
0.0
 70
0
  0
VERTEX
  8
0
 10
125.114128
 20
93.100555
 30
0.0
 70
0
  0
VERTEX
  8
0
 10
144.114136
 20
93.100555
 30
0.0
 70
0
  0
VERTEX
  8
0
 10
144.114136
 20
143.100555
 30
0.0
 70
0
  0
VERTEX
  8
0
 10
125.114128
 20
143.100555
 30
0.0
 70
0
  0
SEQEND
  8
0
  0
ARC
  8
0
 62
4
 10
239.994568
 20
118.100555
 30
0.0
 40
25.0
 50
106.26020455531571
 51
73.73979544468429
  0
POLYLINE
  8
0
 62
4
 66
1
 10
0.0
 20
0.0
 30
0.0
 70
2
  0
VERTEX
  8
0
 10
246.994568
 20
142.100555
 30
0.0
 70
0
  0
VERTEX
  8
0
 10
246.994568
 20
146.900558
 30
0.0
 70
0
  0
VERTEX
  8
0
 10
232.994568
 20
146.900558
 30
0.0
 70
0
  0
VERTEX
  8
0
 10
232.994568
 20
142.100555
 30
0.0
 70
0
  0
SEQEND
  8
0
  0
LINE
  8
0
 62
4
 10
124.614128
 20
146.900558
 30
0.0
 11
144.614136
 21
146.900558
 31
0.0
  0
ENDSEC
  0
EOF
