  0
SECTION
  2
ENTITIES
  0
LINE
  8
0
 62
4
 10
181.885864
 20
237.774445
 30
0.0
 11
201.885864
 21
237.774445
 31
0.0
  0
LINE
  8
0
 62
4
 10
181.885864
 20
72.774445
 30
0.0
 11
201.885864
 21
72.774445
 31
0.0
  0
LINE
  8
0
 62
4
 10
201.885864
 20
163.774445
 30
0.0
 11
201.385864
 21
163.274445
 31
0.0
  0
LINE
  8
0
 62
4
 10
201.885864
 20
146.774445
 30
0.0
 11
201.385864
 21
147.274445
 31
0.0
  0
LINE
  8
0
 62
4
 10
181.885864
 20
146.774445
 30
0.0
 11
182.385864
 21
147.274445
 31
0.0
  0
POLYLINE
  8
0
 62
4
 66
1
 10
0.0
 20
0.0
 30
0.0
 70
2
  0
VERTEX
  8
0
 10
181.885864
 20
146.774445
 30
0.0
 70
0
  0
VERTEX
  8
0
 10
181.885864
 20
68.374443
 30
0.0
 70
0
  0
VERTEX
  8
0
 10
181.98587
 20
68.274445
 30
0.0
 70
0
  0
VERTEX
  8
0
 10
201.785858
 20
68.274445
 30
0.0
 70
0
  0
VERTEX
  8
0
 10
201.885864
 20
68.374443
 30
0.0
 70
0
  0
VERTEX
  8
0
 10
201.885864
 20
242.174438
 30
0.0
 70
0
  0
VERTEX
  8
0
 10
201.785858
 20
242.274445
 30
0.0
 70
0
  0
VERTEX
  8
0
 10
181.98587
 20
242.274445
 30
0.0
 70
0
  0
VERTEX
  8
0
 10
181.885864
 20
242.174438
 30
0.0
 70
0
  0
VERTEX
  8
0
 10
181.885864
 20
146.774445
 30
0.0
 70
0
  0
SEQEND
  8
0
  0
POLYLINE
  8
0
 62
4
 66
1
 10
0.0
 20
0.0
 30
0.0
 70
2
  0
VERTEX
  8
0
 10
181.885864
 20
163.774445
 30
0.0
 70
0
  0
VERTEX
  8
0
 10
182.385864
 20
163.274445
 30
0.0
 70
0
  0
VERTEX
  8
0
 10
182.385864
 20
147.274445
 30
0.0
 70
0
  0
VERTEX
  8
0
 10
201.385864
 20
147.274445
 30
0.0
 70
0
  0
VERTEX
  8
0
 10
201.385864
 20
163.274445
 30
0.0
 70
0
  0
VERTEX
  8
0
 10
182.385864
 20
163.274445
 30
0.0
 70
0
  0
SEQEND
  8
0
  0
ARC
  8
0
 62
4
 10
302.005432
 20
155.274445
 30
0.0
 40
8.0
 50
108.20995732853793
 51
71.79004267146207
  0
POLYLINE
  8
0
 62
4
 66
1
 10
0.0
 20
0.0
 30
0.0
 70
2
  0
VERTEX
  8
0
 10
304.505432
 20
162.873779
 30
0.0
 70
0
  0
VERTEX
  8
0
 10
304.505432
 20
165.574448
 30
0.0
 70
0
  0
VERTEX
  8
0
 10
299.505432
 20
165.574448
 30
0.0
 70
0
  0
VERTEX
  8
0
 10
299.505432
 20
162.873779
 30
0.0
 70
0
  0
SEQEND
  8
0
  0
LINE
  8
0
 62
4
 10
181.885864
 20
165.574448
 30
0.0
 11
201.885864
 21
165.574448
 31
0.0
  0
ENDSEC
  0
EOF
