  0
SECTION
  2
ENTITIES
  0
LINE
  8
0
 62
4
 10
126.653534
 20
172.150131
 30
0.0
 11
151.653534
 21
172.150131
 31
0.0
  0
LINE
  8
0
 62
4
 10
126.653534
 20
53.400131
 30
0.0
 11
151.653534
 21
53.400131
 31
0.0
  0
LINE
  8
0
 62
4
 10
151.653534
 20
121.775131
 30
0.0
 11
151.153534
 21
121.275131
 31
0.0
  0
LINE
  8
0
 62
4
 10
151.653534
 20
103.775131
 30
0.0
 11
151.153534
 21
104.275131
 31
0.0
  0
LINE
  8
0
 62
4
 10
126.653534
 20
103.775131
 30
0.0
 11
127.153534
 21
104.275131
 31
0.0
  0
POLYLINE
  8
0
 62
4
 66
1
 10
0.0
 20
0.0
 30
0.0
 70
2
  0
VERTEX
  8
0
 10
126.653534
 20
103.775131
 30
0.0
 70
0
  0
VERTEX
  8
0
 10
126.653534
 20
47.87513
 30
0.0
 70
0
  0
VERTEX
  8
0
 10
126.753532
 20
47.775131
 30
0.0
 70
0
  0
VERTEX
  8
0
 10
151.553528
 20
47.775131
 30
0.0
 70
0
  0
VERTEX
  8
0
 10
151.653534
 20
47.87513
 30
0.0
 70
0
  0
VERTEX
  8
0
 10
151.653534
 20
177.67514
 30
0.0
 70
0
  0
VERTEX
  8
0
 10
151.553528
 20
177.775131
 30
0.0
 70
0
  0
VERTEX
  8
0
 10
126.753532
 20
177.775131
 30
0.0
 70
0
  0
VERTEX
  8
0
 10
126.653534
 20
177.67514
 30
0.0
 70
0
  0
VERTEX
  8
0
 10
126.653534
 20
103.775131
 30
0.0
 70
0
  0
SEQEND
  8
0
  0
POLYLINE
  8
0
 62
4
 66
1
 10
0.0
 20
0.0
 30
0.0
 70
2
  0
VERTEX
  8
0
 10
126.653534
 20
121.775131
 30
0.0
 70
0
  0
VERTEX
  8
0
 10
127.153534
 20
121.275131
 30
0.0
 70
0
  0
VERTEX
  8
0
 10
127.153534
 20
104.275131
 30
0.0
 70
0
  0
VERTEX
  8
0
 10
151.153534
 20
104.275131
 30
0.0
 70
0
  0
VERTEX
  8
0
 10
151.153534
 20
121.275131
 30
0.0
 70
0
  0
VERTEX
  8
0
 10
127.153534
 20
121.275131
 30
0.0
 70
0
  0
SEQEND
  8
0
  0
ARC
  8
0
 62
4
 10
227.748642
 20
112.775131
 30
0.0
 40
8.5
 50
107.10463483476482
 51
72.89536516523518
  0
POLYLINE
  8
0
 62
4
 66
1
 10
0.0
 20
0.0
 30
0.0
 70
2
  0
VERTEX
  8
0
 10
230.248642
 20
120.89917
 30
0.0
 70
0
  0
VERTEX
  8
0
 10
230.248642
 20
123.575134
 30
0.0
 70
0
  0
VERTEX
  8
0
 10
225.248642
 20
123.575134
 30
0.0
 70
0
  0
VERTEX
  8
0
 10
225.248642
 20
120.89917
 30
0.0
 70
0
  0
SEQEND
  8
0
  0
LINE
  8
0
 62
4
 10
126.653534
 20
123.575134
 30
0.0
 11
151.653534
 21
123.575134
 31
0.0
  0
ENDSEC
  0
EOF
