  0
SECTION
  2
ENTITIES
  0
LINE
  8
0
 62
4
 10
121.088318
 20
165.003403
 30
0.0
 11
146.088318
 21
165.003403
 31
0.0
  0
LINE
  8
0
 62
4
 10
121.088318
 20
51.253403
 30
0.0
 11
146.088318
 21
51.253403
 31
0.0
  0
LINE
  8
0
 62
4
 10
146.088318
 20
116.628403
 30
0.0
 11
145.588318
 21
116.128403
 31
0.0
  0
LINE
  8
0
 62
4
 10
146.088318
 20
99.628403
 30
0.0
 11
145.588318
 21
100.128403
 31
0.0
  0
LINE
  8
0
 62
4
 10
121.088318
 20
99.628403
 30
0.0
 11
121.588318
 21
100.128403
 31
0.0
  0
POLYLINE
  8
0
 62
4
 66
1
 10
0.0
 20
0.0
 30
0.0
 70
2
  0
VERTEX
  8
0
 10
121.088318
 20
99.628403
 30
0.0
 70
0
  0
VERTEX
  8
0
 10
121.088318
 20
45.728401
 30
0.0
 70
0
  0
VERTEX
  8
0
 10
121.188316
 20
45.628403
 30
0.0
 70
0
  0
VERTEX
  8
0
 10
145.988312
 20
45.628403
 30
0.0
 70
0
  0
VERTEX
  8
0
 10
146.088318
 20
45.728401
 30
0.0
 70
0
  0
VERTEX
  8
0
 10
146.088318
 20
170.528412
 30
0.0
 70
0
  0
VERTEX
  8
0
 10
145.988312
 20
170.628403
 30
0.0
 70
0
  0
VERTEX
  8
0
 10
121.188316
 20
170.628403
 30
0.0
 70
0
  0
VERTEX
  8
0
 10
121.088318
 20
170.528412
 30
0.0
 70
0
  0
VERTEX
  8
0
 10
121.088318
 20
99.628403
 30
0.0
 70
0
  0
SEQEND
  8
0
  0
POLYLINE
  8
0
 62
4
 66
1
 10
0.0
 20
0.0
 30
0.0
 70
2
  0
VERTEX
  8
0
 10
121.088318
 20
116.628403
 30
0.0
 70
0
  0
VERTEX
  8
0
 10
121.588318
 20
116.128403
 30
0.0
 70
0
  0
VERTEX
  8
0
 10
121.588318
 20
100.128403
 30
0.0
 70
0
  0
VERTEX
  8
0
 10
145.588318
 20
100.128403
 30
0.0
 70
0
  0
VERTEX
  8
0
 10
145.588318
 20
116.128403
 30
0.0
 70
0
  0
VERTEX
  8
0
 10
121.588318
 20
116.128403
 30
0.0
 70
0
  0
SEQEND
  8
0
  0
ARC
  8
0
 62
4
 10
218.966034
 20
108.128403
 30
0.0
 40
8.0
 50
108.20995732853793
 51
71.79004267146207
  0
POLYLINE
  8
0
 62
4
 66
1
 10
0.0
 20
0.0
 30
0.0
 70
2
  0
VERTEX
  8
0
 10
221.466034
 20
115.727745
 30
0.0
 70
0
  0
VERTEX
  8
0
 10
221.466034
 20
118.428406
 30
0.0
 70
0
  0
VERTEX
  8
0
 10
216.466034
 20
118.428406
 30
0.0
 70
0
  0
VERTEX
  8
0
 10
216.466034
 20
115.727745
 30
0.0
 70
0
  0
SEQEND
  8
0
  0
LINE
  8
0
 62
4
 10
121.088318
 20
118.428406
 30
0.0
 11
146.088318
 21
118.428406
 31
0.0
  0
ENDSEC
  0
EOF
