  0
SECTION
  2
ENTITIES
  0
LINE
  8
0
 62
4
 10
207.277176
 20
280.654907
 30
0.0
 11
227.277176
 21
280.654907
 31
0.0
  0
LINE
  8
0
 62
4
 10
207.277176
 20
85.654907
 30
0.0
 11
227.277176
 21
85.654907
 31
0.0
  0
LINE
  8
0
 62
4
 10
227.277176
 20
206.154907
 30
0.0
 11
226.777176
 21
205.654907
 31
0.0
  0
LINE
  8
0
 62
4
 10
227.277176
 20
160.154907
 30
0.0
 11
226.777176
 21
160.654907
 31
0.0
  0
LINE
  8
0
 62
4
 10
207.277176
 20
160.154907
 30
0.0
 11
207.777176
 21
160.654907
 31
0.0
  0
POLYLINE
  8
0
 62
4
 66
1
 10
0.0
 20
0.0
 30
0.0
 70
2
  0
VERTEX
  8
0
 10
207.277176
 20
160.154907
 30
0.0
 70
0
  0
VERTEX
  8
0
 10
207.277176
 20
81.254906
 30
0.0
 70
0
  0
VERTEX
  8
0
 10
207.377182
 20
81.154907
 30
0.0
 70
0
  0
VERTEX
  8
0
 10
227.17717
 20
81.154907
 30
0.0
 70
0
  0
VERTEX
  8
0
 10
227.277176
 20
81.254906
 30
0.0
 70
0
  0
VERTEX
  8
0
 10
227.277176
 20
285.054901
 30
0.0
 70
0
  0
VERTEX
  8
0
 10
227.17717
 20
285.154907
 30
0.0
 70
0
  0
VERTEX
  8
0
 10
207.377182
 20
285.154907
 30
0.0
 70
0
  0
VERTEX
  8
0
 10
207.277176
 20
285.054901
 30
0.0
 70
0
  0
VERTEX
  8
0
 10
207.277176
 20
160.154907
 30
0.0
 70
0
  0
SEQEND
  8
0
  0
POLYLINE
  8
0
 62
4
 66
1
 10
0.0
 20
0.0
 30
0.0
 70
2
  0
VERTEX
  8
0
 10
207.277176
 20
206.154907
 30
0.0
 70
0
  0
VERTEX
  8
0
 10
207.777176
 20
205.654907
 30
0.0
 70
0
  0
VERTEX
  8
0
 10
207.777176
 20
160.654907
 30
0.0
 70
0
  0
VERTEX
  8
0
 10
226.777176
 20
160.654907
 30
0.0
 70
0
  0
VERTEX
  8
0
 10
226.777176
 20
205.654907
 30
0.0
 70
0
  0
VERTEX
  8
0
 10
207.777176
 20
205.654907
 30
0.0
 70
0
  0
SEQEND
  8
0
  0
ARC
  8
0
 62
4
 10
358.201111
 20
183.154907
 30
0.0
 40
22.5
 50
108.1262038101694
 51
71.87379618983061
  0
POLYLINE
  8
0
 62
4
 66
1
 10
0.0
 20
0.0
 30
0.0
 70
2
  0
VERTEX
  8
0
 10
365.201111
 20
204.538315
 30
0.0
 70
0
  0
VERTEX
  8
0
 10
365.201111
 20
209.45491
 30
0.0
 70
0
  0
VERTEX
  8
0
 10
351.201111
 20
209.45491
 30
0.0
 70
0
  0
VERTEX
  8
0
 10
351.201111
 20
204.538315
 30
0.0
 70
0
  0
SEQEND
  8
0
  0
LINE
  8
0
 62
4
 10
207.277176
 20
209.45491
 30
0.0
 11
227.277176
 21
209.45491
 31
0.0
  0
ENDSEC
  0
EOF
