  0
SECTION
  2
ENTITIES
  0
LINE
  8
0
 62
4
 10
189.266327
 20
252.067932
 30
0.0
 11
209.266327
 21
252.067932
 31
0.0
  0
LINE
  8
0
 62
4
 10
189.266327
 20
77.067932
 30
0.0
 11
209.266327
 21
77.067932
 31
0.0
  0
LINE
  8
0
 62
4
 10
209.266327
 20
180.067932
 30
0.0
 11
208.766327
 21
179.567932
 31
0.0
  0
LINE
  8
0
 62
4
 10
209.266327
 20
149.067932
 30
0.0
 11
208.766327
 21
149.567932
 31
0.0
  0
LINE
  8
0
 62
4
 10
189.266327
 20
149.067932
 30
0.0
 11
189.766327
 21
149.567932
 31
0.0
  0
POLYLINE
  8
0
 62
4
 66
1
 10
0.0
 20
0.0
 30
0.0
 70
2
  0
VERTEX
  8
0
 10
189.266327
 20
149.067932
 30
0.0
 70
0
  0
VERTEX
  8
0
 10
189.266327
 20
72.667931
 30
0.0
 70
0
  0
VERTEX
  8
0
 10
189.366333
 20
72.567932
 30
0.0
 70
0
  0
VERTEX
  8
0
 10
209.166321
 20
72.567932
 30
0.0
 70
0
  0
VERTEX
  8
0
 10
209.266327
 20
72.667931
 30
0.0
 70
0
  0
VERTEX
  8
0
 10
209.266327
 20
256.467926
 30
0.0
 70
0
  0
VERTEX
  8
0
 10
209.166321
 20
256.567932
 30
0.0
 70
0
  0
VERTEX
  8
0
 10
189.366333
 20
256.567932
 30
0.0
 70
0
  0
VERTEX
  8
0
 10
189.266327
 20
256.467926
 30
0.0
 70
0
  0
VERTEX
  8
0
 10
189.266327
 20
149.067932
 30
0.0
 70
0
  0
SEQEND
  8
0
  0
POLYLINE
  8
0
 62
4
 66
1
 10
0.0
 20
0.0
 30
0.0
 70
2
  0
VERTEX
  8
0
 10
189.266327
 20
180.067932
 30
0.0
 70
0
  0
VERTEX
  8
0
 10
189.766327
 20
179.567932
 30
0.0
 70
0
  0
VERTEX
  8
0
 10
189.766327
 20
149.567932
 30
0.0
 70
0
  0
VERTEX
  8
0
 10
208.766327
 20
149.567932
 30
0.0
 70
0
  0
VERTEX
  8
0
 10
208.766327
 20
179.567932
 30
0.0
 70
0
  0
VERTEX
  8
0
 10
189.766327
 20
179.567932
 30
0.0
 70
0
  0
SEQEND
  8
0
  0
ARC
  8
0
 62
4
 10
321.820679
 20
164.567932
 30
0.0
 40
15.0
 50
105.46601032289746
 51
74.53398967710255
  0
POLYLINE
  8
0
 62
4
 66
1
 10
0.0
 20
0.0
 30
0.0
 70
2
  0
VERTEX
  8
0
 10
325.820679
 20
179.024765
 30
0.0
 70
0
  0
VERTEX
  8
0
 10
325.820679
 20
182.867935
 30
0.0
 70
0
  0
VERTEX
  8
0
 10
317.820679
 20
182.867935
 30
0.0
 70
0
  0
VERTEX
  8
0
 10
317.820679
 20
179.024765
 30
0.0
 70
0
  0
SEQEND
  8
0
  0
LINE
  8
0
 62
4
 10
189.266327
 20
182.867935
 30
0.0
 11
209.266327
 21
182.867935
 31
0.0
  0
ENDSEC
  0
EOF
