  0
SECTION
  2
ENTITIES
  0
LINE
  8
0
 62
4
 10
112.103256
 20
152.01358
 30
0.0
 11
132.103256
 21
152.01358
 31
0.0
  0
LINE
  8
0
 62
4
 10
112.103256
 20
47.013588
 30
0.0
 11
132.103256
 21
47.013588
 31
0.0
  0
LINE
  8
0
 62
4
 10
132.103256
 20
108.013588
 30
0.0
 11
131.603256
 21
107.513588
 31
0.0
  0
LINE
  8
0
 62
4
 10
132.103256
 20
91.013588
 30
0.0
 11
131.603256
 21
91.513588
 31
0.0
  0
LINE
  8
0
 62
4
 10
112.103256
 20
91.013588
 30
0.0
 11
112.603256
 21
91.513588
 31
0.0
  0
POLYLINE
  8
0
 62
4
 66
1
 10
0.0
 20
0.0
 30
0.0
 70
2
  0
VERTEX
  8
0
 10
112.103256
 20
91.013588
 30
0.0
 70
0
  0
VERTEX
  8
0
 10
112.103256
 20
42.613586
 30
0.0
 70
0
  0
VERTEX
  8
0
 10
112.203255
 20
42.513588
 30
0.0
 70
0
  0
VERTEX
  8
0
 10
132.00325
 20
42.513588
 30
0.0
 70
0
  0
VERTEX
  8
0
 10
132.103256
 20
42.613586
 30
0.0
 70
0
  0
VERTEX
  8
0
 10
132.103256
 20
156.413589
 30
0.0
 70
0
  0
VERTEX
  8
0
 10
132.00325
 20
156.51358
 30
0.0
 70
0
  0
VERTEX
  8
0
 10
112.203255
 20
156.51358
 30
0.0
 70
0
  0
VERTEX
  8
0
 10
112.103256
 20
156.413589
 30
0.0
 70
0
  0
VERTEX
  8
0
 10
112.103256
 20
91.013588
 30
0.0
 70
0
  0
SEQEND
  8
0
  0
POLYLINE
  8
0
 62
4
 66
1
 10
0.0
 20
0.0
 30
0.0
 70
2
  0
VERTEX
  8
0
 10
112.103256
 20
108.013588
 30
0.0
 70
0
  0
VERTEX
  8
0
 10
112.603256
 20
107.513588
 30
0.0
 70
0
  0
VERTEX
  8
0
 10
112.603256
 20
91.513588
 30
0.0
 70
0
  0
VERTEX
  8
0
 10
131.603256
 20
91.513588
 30
0.0
 70
0
  0
VERTEX
  8
0
 10
131.603256
 20
107.513588
 30
0.0
 70
0
  0
VERTEX
  8
0
 10
112.603256
 20
107.513588
 30
0.0
 70
0
  0
SEQEND
  8
0
  0
ARC
  8
0
 62
4
 10
199.614136
 20
99.513588
 30
0.0
 40
8.0
 50
108.20995732853793
 51
71.79004267146207
  0
POLYLINE
  8
0
 62
4
 66
1
 10
0.0
 20
0.0
 30
0.0
 70
2
  0
VERTEX
  8
0
 10
202.114136
 20
107.11293
 30
0.0
 70
0
  0
VERTEX
  8
0
 10
202.114136
 20
109.813591
 30
0.0
 70
0
  0
VERTEX
  8
0
 10
197.114136
 20
109.813591
 30
0.0
 70
0
  0
VERTEX
  8
0
 10
197.114136
 20
107.11293
 30
0.0
 70
0
  0
SEQEND
  8
0
  0
LINE
  8
0
 62
4
 10
112.103256
 20
109.813591
 30
0.0
 11
132.103256
 21
109.813591
 31
0.0
  0
ENDSEC
  0
EOF
