  0
SECTION
  2
ENTITIES
  0
LINE
  8
0
 62
4
 10
113.353256
 20
152.01358
 30
0.0
 11
133.353256
 21
152.01358
 31
0.0
  0
LINE
  8
0
 62
4
 10
113.353256
 20
47.013588
 30
0.0
 11
133.353256
 21
47.013588
 31
0.0
  0
LINE
  8
0
 62
4
 10
133.353256
 20
106.013588
 30
0.0
 11
132.853256
 21
105.513588
 31
0.0
  0
LINE
  8
0
 62
4
 10
133.353256
 20
93.013588
 30
0.0
 11
132.853256
 21
93.513588
 31
0.0
  0
LINE
  8
0
 62
4
 10
113.353256
 20
93.013588
 30
0.0
 11
113.853256
 21
93.513588
 31
0.0
  0
POLYLINE
  8
0
 62
4
 66
1
 10
0.0
 20
0.0
 30
0.0
 70
2
  0
VERTEX
  8
0
 10
113.353256
 20
93.013588
 30
0.0
 70
0
  0
VERTEX
  8
0
 10
113.353256
 20
42.613586
 30
0.0
 70
0
  0
VERTEX
  8
0
 10
113.453255
 20
42.513588
 30
0.0
 70
0
  0
VERTEX
  8
0
 10
133.25325
 20
42.513588
 30
0.0
 70
0
  0
VERTEX
  8
0
 10
133.353256
 20
42.613586
 30
0.0
 70
0
  0
VERTEX
  8
0
 10
133.353256
 20
156.413589
 30
0.0
 70
0
  0
VERTEX
  8
0
 10
133.25325
 20
156.51358
 30
0.0
 70
0
  0
VERTEX
  8
0
 10
113.453255
 20
156.51358
 30
0.0
 70
0
  0
VERTEX
  8
0
 10
113.353256
 20
156.413589
 30
0.0
 70
0
  0
VERTEX
  8
0
 10
113.353256
 20
93.013588
 30
0.0
 70
0
  0
SEQEND
  8
0
  0
POLYLINE
  8
0
 62
4
 66
1
 10
0.0
 20
0.0
 30
0.0
 70
2
  0
VERTEX
  8
0
 10
113.353256
 20
106.013588
 30
0.0
 70
0
  0
VERTEX
  8
0
 10
113.853256
 20
105.513588
 30
0.0
 70
0
  0
VERTEX
  8
0
 10
113.853256
 20
93.513588
 30
0.0
 70
0
  0
VERTEX
  8
0
 10
132.853256
 20
93.513588
 30
0.0
 70
0
  0
VERTEX
  8
0
 10
132.853256
 20
105.513588
 30
0.0
 70
0
  0
VERTEX
  8
0
 10
113.853256
 20
105.513588
 30
0.0
 70
0
  0
SEQEND
  8
0
  0
ARC
  8
0
 62
4
 10
198.864136
 20
99.513588
 30
0.0
 40
6.0
 50
109.47122094265586
 51
70.52877905734415
  0
POLYLINE
  8
0
 62
4
 66
1
 10
0.0
 20
0.0
 30
0.0
 70
2
  0
VERTEX
  8
0
 10
200.864136
 20
105.170441
 30
0.0
 70
0
  0
VERTEX
  8
0
 10
200.864136
 20
107.313591
 30
0.0
 70
0
  0
VERTEX
  8
0
 10
196.864136
 20
107.313591
 30
0.0
 70
0
  0
VERTEX
  8
0
 10
196.864136
 20
105.170441
 30
0.0
 70
0
  0
SEQEND
  8
0
  0
LINE
  8
0
 62
4
 10
113.353256
 20
107.313591
 30
0.0
 11
133.353256
 21
107.313591
 31
0.0
  0
ENDSEC
  0
EOF
