  0
SECTION
  2
ENTITIES
  0
LINE
  8
0
 62
4
 10
120.338318
 20
165.003403
 30
0.0
 11
145.338318
 21
165.003403
 31
0.0
  0
LINE
  8
0
 62
4
 10
120.338318
 20
51.253403
 30
0.0
 11
145.338318
 21
51.253403
 31
0.0
  0
LINE
  8
0
 62
4
 10
145.338318
 20
117.628403
 30
0.0
 11
144.838318
 21
117.128403
 31
0.0
  0
LINE
  8
0
 62
4
 10
145.338318
 20
98.628403
 30
0.0
 11
144.838318
 21
99.128403
 31
0.0
  0
LINE
  8
0
 62
4
 10
120.338318
 20
98.628403
 30
0.0
 11
120.838318
 21
99.128403
 31
0.0
  0
POLYLINE
  8
0
 62
4
 66
1
 10
0.0
 20
0.0
 30
0.0
 70
2
  0
VERTEX
  8
0
 10
120.338318
 20
98.628403
 30
0.0
 70
0
  0
VERTEX
  8
0
 10
120.338318
 20
45.728401
 30
0.0
 70
0
  0
VERTEX
  8
0
 10
120.438316
 20
45.628403
 30
0.0
 70
0
  0
VERTEX
  8
0
 10
145.238312
 20
45.628403
 30
0.0
 70
0
  0
VERTEX
  8
0
 10
145.338318
 20
45.728401
 30
0.0
 70
0
  0
VERTEX
  8
0
 10
145.338318
 20
170.528412
 30
0.0
 70
0
  0
VERTEX
  8
0
 10
145.238312
 20
170.628403
 30
0.0
 70
0
  0
VERTEX
  8
0
 10
120.438316
 20
170.628403
 30
0.0
 70
0
  0
VERTEX
  8
0
 10
120.338318
 20
170.528412
 30
0.0
 70
0
  0
VERTEX
  8
0
 10
120.338318
 20
98.628403
 30
0.0
 70
0
  0
SEQEND
  8
0
  0
POLYLINE
  8
0
 62
4
 66
1
 10
0.0
 20
0.0
 30
0.0
 70
2
  0
VERTEX
  8
0
 10
120.338318
 20
117.628403
 30
0.0
 70
0
  0
VERTEX
  8
0
 10
120.838318
 20
117.128403
 30
0.0
 70
0
  0
VERTEX
  8
0
 10
120.838318
 20
99.128403
 30
0.0
 70
0
  0
VERTEX
  8
0
 10
144.838318
 20
99.128403
 30
0.0
 70
0
  0
VERTEX
  8
0
 10
144.838318
 20
117.128403
 30
0.0
 70
0
  0
VERTEX
  8
0
 10
120.838318
 20
117.128403
 30
0.0
 70
0
  0
SEQEND
  8
0
  0
ARC
  8
0
 62
4
 10
219.216034
 20
108.128403
 30
0.0
 40
9.0
 50
109.47122094265586
 51
70.52877905734415
  0
POLYLINE
  8
0
 62
4
 66
1
 10
0.0
 20
0.0
 30
0.0
 70
2
  0
VERTEX
  8
0
 10
222.216034
 20
116.613686
 30
0.0
 70
0
  0
VERTEX
  8
0
 10
222.216034
 20
119.928406
 30
0.0
 70
0
  0
VERTEX
  8
0
 10
216.216034
 20
119.928406
 30
0.0
 70
0
  0
VERTEX
  8
0
 10
216.216034
 20
116.613686
 30
0.0
 70
0
  0
SEQEND
  8
0
  0
LINE
  8
0
 62
4
 10
120.338318
 20
119.928406
 30
0.0
 11
145.338318
 21
119.928406
 31
0.0
  0
ENDSEC
  0
EOF
