  0
SECTION
  2
ENTITIES
  0
LINE
  8
0
 62
4
 10
178.885864
 20
237.774445
 30
0.0
 11
198.885864
 21
237.774445
 31
0.0
  0
LINE
  8
0
 62
4
 10
178.885864
 20
72.774445
 30
0.0
 11
198.885864
 21
72.774445
 31
0.0
  0
LINE
  8
0
 62
4
 10
198.885864
 20
168.274445
 30
0.0
 11
198.385864
 21
167.774445
 31
0.0
  0
LINE
  8
0
 62
4
 10
198.885864
 20
142.274445
 30
0.0
 11
198.385864
 21
142.774445
 31
0.0
  0
LINE
  8
0
 62
4
 10
178.885864
 20
142.274445
 30
0.0
 11
179.385864
 21
142.774445
 31
0.0
  0
POLYLINE
  8
0
 62
4
 66
1
 10
0.0
 20
0.0
 30
0.0
 70
2
  0
VERTEX
  8
0
 10
178.885864
 20
142.274445
 30
0.0
 70
0
  0
VERTEX
  8
0
 10
178.885864
 20
68.374443
 30
0.0
 70
0
  0
VERTEX
  8
0
 10
178.98587
 20
68.274445
 30
0.0
 70
0
  0
VERTEX
  8
0
 10
198.785858
 20
68.274445
 30
0.0
 70
0
  0
VERTEX
  8
0
 10
198.885864
 20
68.374443
 30
0.0
 70
0
  0
VERTEX
  8
0
 10
198.885864
 20
242.174438
 30
0.0
 70
0
  0
VERTEX
  8
0
 10
198.785858
 20
242.274445
 30
0.0
 70
0
  0
VERTEX
  8
0
 10
178.98587
 20
242.274445
 30
0.0
 70
0
  0
VERTEX
  8
0
 10
178.885864
 20
242.174438
 30
0.0
 70
0
  0
VERTEX
  8
0
 10
178.885864
 20
142.274445
 30
0.0
 70
0
  0
SEQEND
  8
0
  0
POLYLINE
  8
0
 62
4
 66
1
 10
0.0
 20
0.0
 30
0.0
 70
2
  0
VERTEX
  8
0
 10
178.885864
 20
168.274445
 30
0.0
 70
0
  0
VERTEX
  8
0
 10
179.385864
 20
167.774445
 30
0.0
 70
0
  0
VERTEX
  8
0
 10
179.385864
 20
142.774445
 30
0.0
 70
0
  0
VERTEX
  8
0
 10
198.385864
 20
142.774445
 30
0.0
 70
0
  0
VERTEX
  8
0
 10
198.385864
 20
167.774445
 30
0.0
 70
0
  0
VERTEX
  8
0
 10
179.385864
 20
167.774445
 30
0.0
 70
0
  0
SEQEND
  8
0
  0
ARC
  8
0
 62
4
 10
303.505432
 20
155.274445
 30
0.0
 40
12.5
 50
108.66292518454978
 51
71.33707481545021
  0
POLYLINE
  8
0
 62
4
 66
1
 10
0.0
 20
0.0
 30
0.0
 70
2
  0
VERTEX
  8
0
 10
307.505432
 20
167.117157
 30
0.0
 70
0
  0
VERTEX
  8
0
 10
307.505432
 20
171.074448
 30
0.0
 70
0
  0
VERTEX
  8
0
 10
299.505432
 20
171.074448
 30
0.0
 70
0
  0
VERTEX
  8
0
 10
299.505432
 20
167.117157
 30
0.0
 70
0
  0
SEQEND
  8
0
  0
LINE
  8
0
 62
4
 10
178.885864
 20
171.074448
 30
0.0
 11
198.885864
 21
171.074448
 31
0.0
  0
ENDSEC
  0
EOF
