  0
SECTION
  2
ENTITIES
  0
LINE
  8
0
 62
4
 10
134.114136
 20
180.600555
 30
0.0
 11
154.114136
 21
180.600555
 31
0.0
  0
LINE
  8
0
 62
4
 10
134.114136
 20
55.600555
 30
0.0
 11
154.114136
 21
55.600555
 31
0.0
  0
LINE
  8
0
 62
4
 10
154.114136
 20
128.600555
 30
0.0
 11
153.614136
 21
128.100555
 31
0.0
  0
LINE
  8
0
 62
4
 10
154.114136
 20
107.600555
 30
0.0
 11
153.614136
 21
108.100555
 31
0.0
  0
LINE
  8
0
 62
4
 10
134.114136
 20
107.600555
 30
0.0
 11
134.614136
 21
108.100555
 31
0.0
  0
POLYLINE
  8
0
 62
4
 66
1
 10
0.0
 20
0.0
 30
0.0
 70
2
  0
VERTEX
  8
0
 10
134.114136
 20
107.600555
 30
0.0
 70
0
  0
VERTEX
  8
0
 10
134.114136
 20
51.200554
 30
0.0
 70
0
  0
VERTEX
  8
0
 10
134.214142
 20
51.100555
 30
0.0
 70
0
  0
VERTEX
  8
0
 10
154.01413
 20
51.100555
 30
0.0
 70
0
  0
VERTEX
  8
0
 10
154.114136
 20
51.200554
 30
0.0
 70
0
  0
VERTEX
  8
0
 10
154.114136
 20
185.000549
 30
0.0
 70
0
  0
VERTEX
  8
0
 10
154.01413
 20
185.100555
 30
0.0
 70
0
  0
VERTEX
  8
0
 10
134.214142
 20
185.100555
 30
0.0
 70
0
  0
VERTEX
  8
0
 10
134.114136
 20
185.000549
 30
0.0
 70
0
  0
VERTEX
  8
0
 10
134.114136
 20
107.600555
 30
0.0
 70
0
  0
SEQEND
  8
0
  0
POLYLINE
  8
0
 62
4
 66
1
 10
0.0
 20
0.0
 30
0.0
 70
2
  0
VERTEX
  8
0
 10
134.114136
 20
128.600555
 30
0.0
 70
0
  0
VERTEX
  8
0
 10
134.614136
 20
128.100555
 30
0.0
 70
0
  0
VERTEX
  8
0
 10
134.614136
 20
108.100555
 30
0.0
 70
0
  0
VERTEX
  8
0
 10
153.614136
 20
108.100555
 30
0.0
 70
0
  0
VERTEX
  8
0
 10
153.614136
 20
128.100555
 30
0.0
 70
0
  0
VERTEX
  8
0
 10
134.614136
 20
128.100555
 30
0.0
 70
0
  0
SEQEND
  8
0
  0
ARC
  8
0
 62
4
 10
234.494568
 20
118.100555
 30
0.0
 40
10.0
 50
107.45760274776076
 51
72.54239725223924
  0
POLYLINE
  8
0
 62
4
 66
1
 10
0.0
 20
0.0
 30
0.0
 70
2
  0
VERTEX
  8
0
 10
237.494568
 20
127.639946
 30
0.0
 70
0
  0
VERTEX
  8
0
 10
237.494568
 20
130.900558
 30
0.0
 70
0
  0
VERTEX
  8
0
 10
231.494568
 20
130.900558
 30
0.0
 70
0
  0
VERTEX
  8
0
 10
231.494568
 20
127.639946
 30
0.0
 70
0
  0
SEQEND
  8
0
  0
LINE
  8
0
 62
4
 10
134.114136
 20
130.900558
 30
0.0
 11
154.114136
 21
130.900558
 31
0.0
  0
ENDSEC
  0
EOF
