  0
SECTION
  2
ENTITIES
  0
LINE
  8
0
 62
4
 10
126.903534
 20
172.150131
 30
0.0
 11
151.903534
 21
172.150131
 31
0.0
  0
LINE
  8
0
 62
4
 10
126.903534
 20
53.400131
 30
0.0
 11
151.903534
 21
53.400131
 31
0.0
  0
LINE
  8
0
 62
4
 10
151.903534
 20
121.275131
 30
0.0
 11
151.403534
 21
120.775131
 31
0.0
  0
LINE
  8
0
 62
4
 10
151.903534
 20
104.275131
 30
0.0
 11
151.403534
 21
104.775131
 31
0.0
  0
LINE
  8
0
 62
4
 10
126.903534
 20
104.275131
 30
0.0
 11
127.403534
 21
104.775131
 31
0.0
  0
POLYLINE
  8
0
 62
4
 66
1
 10
0.0
 20
0.0
 30
0.0
 70
2
  0
VERTEX
  8
0
 10
126.903534
 20
104.275131
 30
0.0
 70
0
  0
VERTEX
  8
0
 10
126.903534
 20
47.87513
 30
0.0
 70
0
  0
VERTEX
  8
0
 10
127.003532
 20
47.775131
 30
0.0
 70
0
  0
VERTEX
  8
0
 10
151.803528
 20
47.775131
 30
0.0
 70
0
  0
VERTEX
  8
0
 10
151.903534
 20
47.87513
 30
0.0
 70
0
  0
VERTEX
  8
0
 10
151.903534
 20
177.67514
 30
0.0
 70
0
  0
VERTEX
  8
0
 10
151.803528
 20
177.775131
 30
0.0
 70
0
  0
VERTEX
  8
0
 10
127.003532
 20
177.775131
 30
0.0
 70
0
  0
VERTEX
  8
0
 10
126.903534
 20
177.67514
 30
0.0
 70
0
  0
VERTEX
  8
0
 10
126.903534
 20
104.275131
 30
0.0
 70
0
  0
SEQEND
  8
0
  0
POLYLINE
  8
0
 62
4
 66
1
 10
0.0
 20
0.0
 30
0.0
 70
2
  0
VERTEX
  8
0
 10
126.903534
 20
121.275131
 30
0.0
 70
0
  0
VERTEX
  8
0
 10
127.403534
 20
120.775131
 30
0.0
 70
0
  0
VERTEX
  8
0
 10
127.403534
 20
104.775131
 30
0.0
 70
0
  0
VERTEX
  8
0
 10
151.403534
 20
104.775131
 30
0.0
 70
0
  0
VERTEX
  8
0
 10
151.403534
 20
120.775131
 30
0.0
 70
0
  0
VERTEX
  8
0
 10
127.403534
 20
120.775131
 30
0.0
 70
0
  0
SEQEND
  8
0
  0
ARC
  8
0
 62
4
 10
227.498642
 20
112.775131
 30
0.0
 40
8.0
 50
108.20995732853793
 51
71.79004267146207
  0
POLYLINE
  8
0
 62
4
 66
1
 10
0.0
 20
0.0
 30
0.0
 70
2
  0
VERTEX
  8
0
 10
229.998642
 20
120.374474
 30
0.0
 70
0
  0
VERTEX
  8
0
 10
229.998642
 20
123.075134
 30
0.0
 70
0
  0
VERTEX
  8
0
 10
224.998642
 20
123.075134
 30
0.0
 70
0
  0
VERTEX
  8
0
 10
224.998642
 20
120.374474
 30
0.0
 70
0
  0
SEQEND
  8
0
  0
LINE
  8
0
 62
4
 10
126.903534
 20
123.075134
 30
0.0
 11
151.903534
 21
123.075134
 31
0.0
  0
ENDSEC
  0
EOF
