  0
SECTION
  2
ENTITIES
  0
LINE
  8
0
 62
4
 10
141.191574
 20
190.016983
 30
0.0
 11
166.191574
 21
190.016983
 31
0.0
  0
LINE
  8
0
 62
4
 10
141.191574
 20
58.766983
 30
0.0
 11
166.191574
 21
58.766983
 31
0.0
  0
LINE
  8
0
 62
4
 10
166.191574
 20
133.391983
 30
0.0
 11
165.691574
 21
132.891983
 31
0.0
  0
LINE
  8
0
 62
4
 10
166.191574
 20
115.391983
 30
0.0
 11
165.691574
 21
115.891983
 31
0.0
  0
LINE
  8
0
 62
4
 10
141.191574
 20
115.391983
 30
0.0
 11
141.691574
 21
115.891983
 31
0.0
  0
POLYLINE
  8
0
 62
4
 66
1
 10
0.0
 20
0.0
 30
0.0
 70
2
  0
VERTEX
  8
0
 10
141.191574
 20
115.391983
 30
0.0
 70
0
  0
VERTEX
  8
0
 10
141.191574
 20
53.241982
 30
0.0
 70
0
  0
VERTEX
  8
0
 10
141.29158
 20
53.141983
 30
0.0
 70
0
  0
VERTEX
  8
0
 10
166.091568
 20
53.141983
 30
0.0
 70
0
  0
VERTEX
  8
0
 10
166.191574
 20
53.241982
 30
0.0
 70
0
  0
VERTEX
  8
0
 10
166.191574
 20
195.541992
 30
0.0
 70
0
  0
VERTEX
  8
0
 10
166.091568
 20
195.641983
 30
0.0
 70
0
  0
VERTEX
  8
0
 10
141.29158
 20
195.641983
 30
0.0
 70
0
  0
VERTEX
  8
0
 10
141.191574
 20
195.541992
 30
0.0
 70
0
  0
VERTEX
  8
0
 10
141.191574
 20
115.391983
 30
0.0
 70
0
  0
SEQEND
  8
0
  0
POLYLINE
  8
0
 62
4
 66
1
 10
0.0
 20
0.0
 30
0.0
 70
2
  0
VERTEX
  8
0
 10
141.191574
 20
133.391983
 30
0.0
 70
0
  0
VERTEX
  8
0
 10
141.691574
 20
132.891983
 30
0.0
 70
0
  0
VERTEX
  8
0
 10
141.691574
 20
115.891983
 30
0.0
 70
0
  0
VERTEX
  8
0
 10
165.691574
 20
115.891983
 30
0.0
 70
0
  0
VERTEX
  8
0
 10
165.691574
 20
132.891983
 30
0.0
 70
0
  0
VERTEX
  8
0
 10
141.691574
 20
132.891983
 30
0.0
 70
0
  0
SEQEND
  8
0
  0
ARC
  8
0
 62
4
 10
249.08017
 20
124.391983
 30
0.0
 40
8.5
 50
107.10463483476482
 51
72.89536516523518
  0
POLYLINE
  8
0
 62
4
 66
1
 10
0.0
 20
0.0
 30
0.0
 70
2
  0
VERTEX
  8
0
 10
251.58017
 20
132.516022
 30
0.0
 70
0
  0
VERTEX
  8
0
 10
251.58017
 20
135.191986
 30
0.0
 70
0
  0
VERTEX
  8
0
 10
246.58017
 20
135.191986
 30
0.0
 70
0
  0
VERTEX
  8
0
 10
246.58017
 20
132.516022
 30
0.0
 70
0
  0
SEQEND
  8
0
  0
LINE
  8
0
 62
4
 10
141.191574
 20
135.191986
 30
0.0
 11
166.191574
 21
135.191986
 31
0.0
  0
ENDSEC
  0
EOF
