  0
SECTION
  2
ENTITIES
  0
LINE
  8
0
 62
4
 10
149.584244
 20
206.58017
 30
0.0
 11
179.584244
 21
206.58017
 31
0.0
  0
LINE
  8
0
 62
4
 10
149.584244
 20
64.08017
 30
0.0
 11
179.584244
 21
64.08017
 31
0.0
  0
LINE
  8
0
 62
4
 10
179.584244
 20
149.83017
 30
0.0
 11
179.084244
 21
149.33017
 31
0.0
  0
LINE
  8
0
 62
4
 10
179.584244
 20
120.83017
 30
0.0
 11
179.084244
 21
121.33017
 31
0.0
  0
LINE
  8
0
 62
4
 10
149.584244
 20
120.83017
 30
0.0
 11
150.084244
 21
121.33017
 31
0.0
  0
POLYLINE
  8
0
 62
4
 66
1
 10
0.0
 20
0.0
 30
0.0
 70
2
  0
VERTEX
  8
0
 10
149.584244
 20
120.83017
 30
0.0
 70
0
  0
VERTEX
  8
0
 10
149.584244
 20
57.430168
 30
0.0
 70
0
  0
VERTEX
  8
0
 10
149.68425
 20
57.33017
 30
0.0
 70
0
  0
VERTEX
  8
0
 10
179.484238
 20
57.33017
 30
0.0
 70
0
  0
VERTEX
  8
0
 10
179.584244
 20
57.430168
 30
0.0
 70
0
  0
VERTEX
  8
0
 10
179.584244
 20
213.230164
 30
0.0
 70
0
  0
VERTEX
  8
0
 10
179.484238
 20
213.33017
 30
0.0
 70
0
  0
VERTEX
  8
0
 10
149.68425
 20
213.33017
 30
0.0
 70
0
  0
VERTEX
  8
0
 10
149.584244
 20
213.230164
 30
0.0
 70
0
  0
VERTEX
  8
0
 10
149.584244
 20
120.83017
 30
0.0
 70
0
  0
SEQEND
  8
0
  0
POLYLINE
  8
0
 62
4
 66
1
 10
0.0
 20
0.0
 30
0.0
 70
2
  0
VERTEX
  8
0
 10
149.584244
 20
149.83017
 30
0.0
 70
0
  0
VERTEX
  8
0
 10
150.084244
 20
149.33017
 30
0.0
 70
0
  0
VERTEX
  8
0
 10
150.084244
 20
121.33017
 30
0.0
 70
0
  0
VERTEX
  8
0
 10
179.084244
 20
121.33017
 30
0.0
 70
0
  0
VERTEX
  8
0
 10
179.084244
 20
149.33017
 30
0.0
 70
0
  0
VERTEX
  8
0
 10
150.084244
 20
149.33017
 30
0.0
 70
0
  0
SEQEND
  8
0
  0
ARC
  8
0
 62
4
 10
274.698364
 20
135.33017
 30
0.0
 40
14.0
 50
106.60154992625478
 51
73.39841996510201
  0
POLYLINE
  8
0
 62
4
 66
1
 10
0.0
 20
0.0
 30
0.0
 70
2
  0
VERTEX
  8
0
 10
278.698364
 20
148.746582
 30
0.0
 70
0
  0
VERTEX
  8
0
 10
278.698364
 20
152.630173
 30
0.0
 70
0
  0
VERTEX
  8
0
 10
270.698364
 20
152.630173
 30
0.0
 70
0
  0
VERTEX
  8
0
 10
270.698364
 20
148.746582
 30
0.0
 70
0
  0
SEQEND
  8
0
  0
LINE
  8
0
 62
4
 10
149.584244
 20
152.630173
 30
0.0
 11
179.584244
 21
152.630173
 31
0.0
  0
ENDSEC
  0
EOF
