  0
SECTION
  2
ENTITIES
  0
LINE
  8
0
 62
4
 10
86.279892
 20
129.39537
 30
0.0
 11
116.279892
 21
129.39537
 31
0.0
  0
LINE
  8
0
 62
4
 10
86.279892
 20
40.89537
 30
0.0
 11
116.279892
 21
40.89537
 31
0.0
  0
LINE
  8
0
 62
4
 10
116.279892
 20
100.64537
 30
0.0
 11
115.779892
 21
100.14537
 31
0.0
  0
LINE
  8
0
 62
4
 10
116.279892
 20
69.64537
 30
0.0
 11
115.779892
 21
70.14537
 31
0.0
  0
LINE
  8
0
 62
4
 10
86.279892
 20
69.64537
 30
0.0
 11
86.779892
 21
70.14537
 31
0.0
  0
POLYLINE
  8
0
 62
4
 66
1
 10
0.0
 20
0.0
 30
0.0
 70
2
  0
VERTEX
  8
0
 10
86.279892
 20
69.64537
 30
0.0
 70
0
  0
VERTEX
  8
0
 10
86.279892
 20
34.245369
 30
0.0
 70
0
  0
VERTEX
  8
0
 10
86.37989
 20
34.14537
 30
0.0
 70
0
  0
VERTEX
  8
0
 10
116.179893
 20
34.14537
 30
0.0
 70
0
  0
VERTEX
  8
0
 10
116.279892
 20
34.245369
 30
0.0
 70
0
  0
VERTEX
  8
0
 10
116.279892
 20
136.04538
 30
0.0
 70
0
  0
VERTEX
  8
0
 10
116.179893
 20
136.14537
 30
0.0
 70
0
  0
VERTEX
  8
0
 10
86.37989
 20
136.14537
 30
0.0
 70
0
  0
VERTEX
  8
0
 10
86.279892
 20
136.04538
 30
0.0
 70
0
  0
VERTEX
  8
0
 10
86.279892
 20
69.64537
 30
0.0
 70
0
  0
SEQEND
  8
0
  0
POLYLINE
  8
0
 62
4
 66
1
 10
0.0
 20
0.0
 30
0.0
 70
2
  0
VERTEX
  8
0
 10
86.279892
 20
100.64537
 30
0.0
 70
0
  0
VERTEX
  8
0
 10
86.779892
 20
100.14537
 30
0.0
 70
0
  0
VERTEX
  8
0
 10
86.779892
 20
70.14537
 30
0.0
 70
0
  0
VERTEX
  8
0
 10
115.779892
 20
70.14537
 30
0.0
 70
0
  0
VERTEX
  8
0
 10
115.779892
 20
100.14537
 30
0.0
 70
0
  0
VERTEX
  8
0
 10
86.779892
 20
100.14537
 30
0.0
 70
0
  0
SEQEND
  8
0
  0
ARC
  8
0
 62
4
 10
183.046204
 20
85.14537
 30
0.0
 40
15.0
 50
105.46601032289746
 51
74.53398967710255
  0
POLYLINE
  8
0
 62
4
 66
1
 10
0.0
 20
0.0
 30
0.0
 70
2
  0
VERTEX
  8
0
 10
187.046204
 20
99.602203
 30
0.0
 70
0
  0
VERTEX
  8
0
 10
187.046204
 20
103.445374
 30
0.0
 70
0
  0
VERTEX
  8
0
 10
179.046204
 20
103.445374
 30
0.0
 70
0
  0
VERTEX
  8
0
 10
179.046204
 20
99.602203
 30
0.0
 70
0
  0
SEQEND
  8
0
  0
LINE
  8
0
 62
4
 10
86.279892
 20
103.445374
 30
0.0
 11
116.279892
 21
103.445374
 31
0.0
  0
ENDSEC
  0
EOF
