  0
SECTION
  2
ENTITIES
  0
LINE
  8
0
 62
4
 10
105.652168
 20
135.054352
 30
0.0
 11
115.652168
 21
135.054352
 31
0.0
  0
LINE
  8
0
 62
4
 10
105.652168
 20
77.554344
 30
0.0
 11
115.652168
 21
77.554344
 31
0.0
  0
LINE
  8
0
 62
4
 10
125.152168
 20
101.304344
 30
0.0
 11
125.652168
 21
100.804344
 31
0.0
  0
LINE
  8
0
 62
4
 10
125.152168
 20
111.304344
 30
0.0
 11
125.652168
 21
111.804344
 31
0.0
  0
LINE
  8
0
 62
4
 10
106.152168
 20
111.304344
 30
0.0
 11
106.152168
 21
101.304344
 31
0.0
  0
POLYLINE
  8
0
 62
4
 66
1
 10
0.0
 20
0.0
 30
0.0
 70
2
  0
VERTEX
  8
0
 10
105.652168
 20
100.804344
 30
0.0
 70
0
  0
VERTEX
  8
0
 10
106.152168
 20
101.304344
 30
0.0
 70
0
  0
VERTEX
  8
0
 10
125.152168
 20
101.304344
 30
0.0
 70
0
  0
VERTEX
  8
0
 10
125.152168
 20
111.304344
 30
0.0
 70
0
  0
VERTEX
  8
0
 10
106.152168
 20
111.304344
 30
0.0
 70
0
  0
VERTEX
  8
0
 10
105.652168
 20
111.804344
 30
0.0
 70
0
  0
SEQEND
  8
0
  0
CIRCLE
  8
0
 62
5
 10
110.652168
 20
131.929352
 30
0.0
 40
0.391304
  0
CIRCLE
  8
0
 62
5
 10
79.565216
 20
159.891296
 30
0.0
 40
5.217391
  0
CIRCLE
  8
0
 62
5
 10
110.652168
 20
92.554344
 30
0.0
 40
0.391304
  0
CIRCLE
  8
0
 62
5
 10
79.565216
 20
63.217388
 30
0.0
 40
5.217391
  0
LINE
  8
0
 62
4
 10
105.652168
 20
83.804344
 30
0.0
 11
115.652168
 21
83.804344
 31
0.0
  0
LINE
  8
0
 62
4
 10
105.652168
 20
128.804352
 30
0.0
 11
115.652168
 21
128.804352
 31
0.0
  0
ARC
  8
0
 62
4
 10
116.652168
 20
127.304344
 30
0.0
 40
1.0
 50
180.0
 51
270.0
  0
ARC
  8
0
 62
4
 10
116.652168
 20
85.304344
 30
0.0
 40
1.0
 50
90.0
 51
180.0
  0
ARC
  8
0
 62
4
 10
247.391296
 20
106.304344
 30
0.0
 40
5.0
 50
113.5781780057233
 51
66.4218219942767
  0
POLYLINE
  8
0
 62
4
 66
1
 10
0.0
 20
0.0
 30
0.0
 70
2
  0
VERTEX
  8
0
 10
249.391296
 20
110.886917
 30
0.0
 70
0
  0
VERTEX
  8
0
 10
249.391296
 20
113.104347
 30
0.0
 70
0
  0
VERTEX
  8
0
 10
245.391296
 20
113.104347
 30
0.0
 70
0
  0
VERTEX
  8
0
 10
245.391296
 20
110.886917
 30
0.0
 70
0
  0
SEQEND
  8
0
  0
LINE
  8
0
 62
4
 10
105.652168
 20
113.104347
 30
0.0
 11
125.652168
 21
113.104347
 31
0.0
  0
POLYLINE
  8
0
 62
4
 66
1
 10
0.0
 20
0.0
 30
0.0
 70
2
  0
VERTEX
  8
0
 10
122.652168
 20
126.304344
 30
0.0
 70
0
  0
VERTEX
  8
0
 10
122.652168
 20
113.104347
 30
0.0
 70
0
  0
SEQEND
  8
0
  0
POLYLINE
  8
0
 62
4
 66
1
 10
0.0
 20
0.0
 30
0.0
 70
2
  0
VERTEX
  8
0
 10
118.652168
 20
126.304344
 30
0.0
 70
0
  0
VERTEX
  8
0
 10
118.652168
 20
113.104347
 30
0.0
 70
0
  0
SEQEND
  8
0
  0
POLYLINE
  8
0
 62
4
 66
1
 10
0.0
 20
0.0
 30
0.0
 70
2
  0
VERTEX
  8
0
 10
122.272171
 20
126.304344
 30
0.0
 70
0
  0
VERTEX
  8
0
 10
122.272171
 20
113.104347
 30
0.0
 70
0
  0
SEQEND
  8
0
  0
POLYLINE
  8
0
 62
4
 66
1
 10
0.0
 20
0.0
 30
0.0
 70
2
  0
VERTEX
  8
0
 10
119.032166
 20
126.304344
 30
0.0
 70
0
  0
VERTEX
  8
0
 10
119.032166
 20
113.104347
 30
0.0
 70
0
  0
SEQEND
  8
0
  0
POLYLINE
  8
0
 62
4
 66
1
 10
0.0
 20
0.0
 30
0.0
 70
2
  0
VERTEX
  8
0
 10
245.391296
 20
110.886917
 30
0.0
 70
0
  0
VERTEX
  8
0
 10
245.391296
 20
126.204094
 30
0.0
 70
0
  0
SEQEND
  8
0
  0
POLYLINE
  8
0
 62
4
 66
1
 10
0.0
 20
0.0
 30
0.0
 70
2
  0
VERTEX
  8
0
 10
249.391296
 20
110.886917
 30
0.0
 70
0
  0
VERTEX
  8
0
 10
249.391296
 20
126.204094
 30
0.0
 70
0
  0
SEQEND
  8
0
  0
POLYLINE
  8
0
 62
4
 66
1
 10
0.0
 20
0.0
 30
0.0
 70
2
  0
VERTEX
  8
0
 10
245.771301
 20
113.104347
 30
0.0
 70
0
  0
VERTEX
  8
0
 10
245.771301
 20
126.238625
 30
0.0
 70
0
  0
SEQEND
  8
0
  0
POLYLINE
  8
0
 62
4
 66
1
 10
0.0
 20
0.0
 30
0.0
 70
2
  0
VERTEX
  8
0
 10
249.011292
 20
113.104347
 30
0.0
 70
0
  0
VERTEX
  8
0
 10
249.011292
 20
126.238625
 30
0.0
 70
0
  0
SEQEND
  8
0
  0
CIRCLE
  8
0
 62
7
 10
120.652168
 20
106.304344
 30
0.0
 40
2.0
  0
CIRCLE
  8
0
 62
4
 10
120.652168
 20
106.304344
 30
0.0
 40
1.62
  0
POLYLINE
  8
0
 62
4
 66
1
 10
0.0
 20
0.0
 30
0.0
 70
2
  0
VERTEX
  8
0
 10
251.973877
 20
108.304344
 30
0.0
 70
0
  0
VERTEX
  8
0
 10
267.291046
 20
108.304344
 30
0.0
 70
0
  0
SEQEND
  8
0
  0
POLYLINE
  8
0
 62
4
 66
1
 10
0.0
 20
0.0
 30
0.0
 70
2
  0
VERTEX
  8
0
 10
251.973877
 20
104.304344
 30
0.0
 70
0
  0
VERTEX
  8
0
 10
267.291046
 20
104.304344
 30
0.0
 70
0
  0
SEQEND
  8
0
  0
POLYLINE
  8
0
 62
4
 66
1
 10
0.0
 20
0.0
 30
0.0
 70
2
  0
VERTEX
  8
0
 10
252.121582
 20
107.924347
 30
0.0
 70
0
  0
VERTEX
  8
0
 10
267.325592
 20
107.924347
 30
0.0
 70
0
  0
SEQEND
  8
0
  0
POLYLINE
  8
0
 62
4
 66
1
 10
0.0
 20
0.0
 30
0.0
 70
2
  0
VERTEX
  8
0
 10
252.121582
 20
104.684341
 30
0.0
 70
0
  0
VERTEX
  8
0
 10
267.325592
 20
104.684341
 30
0.0
 70
0
  0
SEQEND
  8
0
  0
POLYLINE
  8
0
 62
4
 66
1
 10
0.0
 20
0.0
 30
0.0
 70
2
  0
VERTEX
  8
0
 10
105.652168
 20
100.804344
 30
0.0
 70
0
  0
VERTEX
  8
0
 10
105.652168
 20
75.404343
 30
0.0
 70
0
  0
VERTEX
  8
0
 10
105.752167
 20
75.304344
 30
0.0
 70
0
  0
VERTEX
  8
0
 10
115.55217
 20
75.304344
 30
0.0
 70
0
  0
VERTEX
  8
0
 10
115.652168
 20
75.404343
 30
0.0
 70
0
  0
VERTEX
  8
0
 10
115.652168
 20
85.304344
 30
0.0
 70
0
  0
SEQEND
  8
0
  0
POLYLINE
  8
0
 62
4
 66
1
 10
0.0
 20
0.0
 30
0.0
 70
2
  0
VERTEX
  8
0
 10
116.652168
 20
86.304344
 30
0.0
 70
0
  0
VERTEX
  8
0
 10
125.152168
 20
86.304344
 30
0.0
 70
0
  0
VERTEX
  8
0
 10
125.652168
 20
86.804344
 30
0.0
 70
0
  0
VERTEX
  8
0
 10
125.652168
 20
125.804344
 30
0.0
 70
0
  0
VERTEX
  8
0
 10
125.152168
 20
126.304344
 30
0.0
 70
0
  0
VERTEX
  8
0
 10
116.652168
 20
126.304344
 30
0.0
 70
0
  0
SEQEND
  8
0
  0
POLYLINE
  8
0
 62
4
 66
1
 10
0.0
 20
0.0
 30
0.0
 70
2
  0
VERTEX
  8
0
 10
115.652168
 20
127.304344
 30
0.0
 70
0
  0
VERTEX
  8
0
 10
115.652168
 20
137.204346
 30
0.0
 70
0
  0
VERTEX
  8
0
 10
115.55217
 20
137.304352
 30
0.0
 70
0
  0
VERTEX
  8
0
 10
105.752167
 20
137.304352
 30
0.0
 70
0
  0
VERTEX
  8
0
 10
105.652168
 20
137.204346
 30
0.0
 70
0
  0
VERTEX
  8
0
 10
105.652168
 20
100.804344
 30
0.0
 70
0
  0
SEQEND
  8
0
  0
CIRCLE
  8
0
 62
4
 10
247.391296
 20
106.304344
 30
0.0
 40
20.0
  0
ENDSEC
  0
EOF
