  0
SECTION
  2
ENTITIES
  0
LINE
  8
0
 62
4
 10
117.978264
 20
146.831512
 30
0.0
 11
132.978271
 21
146.831512
 31
0.0
  0
LINE
  8
0
 62
4
 10
117.978264
 20
90.58152
 30
0.0
 11
132.978271
 21
90.58152
 31
0.0
  0
LINE
  8
0
 62
4
 10
144.478271
 20
112.70652
 30
0.0
 11
144.978271
 21
112.20652
 31
0.0
  0
LINE
  8
0
 62
4
 10
144.478271
 20
124.70652
 30
0.0
 11
144.978271
 21
125.20652
 31
0.0
  0
LINE
  8
0
 62
4
 10
118.478264
 20
124.70652
 30
0.0
 11
118.478264
 21
112.70652
 31
0.0
  0
POLYLINE
  8
0
 62
4
 66
1
 10
0.0
 20
0.0
 30
0.0
 70
2
  0
VERTEX
  8
0
 10
117.978264
 20
112.20652
 30
0.0
 70
0
  0
VERTEX
  8
0
 10
118.478264
 20
112.70652
 30
0.0
 70
0
  0
VERTEX
  8
0
 10
144.478271
 20
112.70652
 30
0.0
 70
0
  0
VERTEX
  8
0
 10
144.478271
 20
124.70652
 30
0.0
 70
0
  0
VERTEX
  8
0
 10
118.478264
 20
124.70652
 30
0.0
 70
0
  0
VERTEX
  8
0
 10
117.978264
 20
125.20652
 30
0.0
 70
0
  0
SEQEND
  8
0
  0
CIRCLE
  8
0
 62
5
 10
125.478264
 20
144.019012
 30
0.0
 40
0.436957
  0
CIRCLE
  8
0
 62
5
 10
88.847832
 20
174.83696
 30
0.0
 40
5.826087
  0
CIRCLE
  8
0
 62
5
 10
125.478264
 20
104.45652
 30
0.0
 40
0.436957
  0
CIRCLE
  8
0
 62
5
 10
88.847832
 20
72.376083
 30
0.0
 40
5.826087
  0
LINE
  8
0
 62
4
 10
117.978264
 20
96.20652
 30
0.0
 11
132.978271
 21
96.20652
 31
0.0
  0
LINE
  8
0
 62
4
 10
117.978264
 20
141.206512
 30
0.0
 11
132.978271
 21
141.206512
 31
0.0
  0
ARC
  8
0
 62
4
 10
133.978271
 20
139.706512
 30
0.0
 40
1.0
 50
180.0
 51
270.0
  0
ARC
  8
0
 62
4
 10
133.978271
 20
97.70652
 30
0.0
 40
1.0
 50
90.0
 51
180.0
  0
ARC
  8
0
 62
4
 10
278.586945
 20
118.70652
 30
0.0
 40
6.0
 50
109.47122094265586
 51
70.52877905734415
  0
POLYLINE
  8
0
 62
4
 66
1
 10
0.0
 20
0.0
 30
0.0
 70
2
  0
VERTEX
  8
0
 10
280.586945
 20
124.363373
 30
0.0
 70
0
  0
VERTEX
  8
0
 10
280.586945
 20
126.506523
 30
0.0
 70
0
  0
VERTEX
  8
0
 10
276.586945
 20
126.506523
 30
0.0
 70
0
  0
VERTEX
  8
0
 10
276.586945
 20
124.363373
 30
0.0
 70
0
  0
SEQEND
  8
0
  0
LINE
  8
0
 62
4
 10
117.978264
 20
126.506523
 30
0.0
 11
144.978271
 21
126.506523
 31
0.0
  0
POLYLINE
  8
0
 62
4
 66
1
 10
0.0
 20
0.0
 30
0.0
 70
2
  0
VERTEX
  8
0
 10
140.978271
 20
138.706512
 30
0.0
 70
0
  0
VERTEX
  8
0
 10
140.978271
 20
126.506523
 30
0.0
 70
0
  0
SEQEND
  8
0
  0
POLYLINE
  8
0
 62
4
 66
1
 10
0.0
 20
0.0
 30
0.0
 70
2
  0
VERTEX
  8
0
 10
136.978271
 20
138.706512
 30
0.0
 70
0
  0
VERTEX
  8
0
 10
136.978271
 20
126.506523
 30
0.0
 70
0
  0
SEQEND
  8
0
  0
POLYLINE
  8
0
 62
4
 66
1
 10
0.0
 20
0.0
 30
0.0
 70
2
  0
VERTEX
  8
0
 10
140.598267
 20
138.706512
 30
0.0
 70
0
  0
VERTEX
  8
0
 10
140.598267
 20
126.506523
 30
0.0
 70
0
  0
SEQEND
  8
0
  0
POLYLINE
  8
0
 62
4
 66
1
 10
0.0
 20
0.0
 30
0.0
 70
2
  0
VERTEX
  8
0
 10
137.358261
 20
138.706512
 30
0.0
 70
0
  0
VERTEX
  8
0
 10
137.358261
 20
126.506523
 30
0.0
 70
0
  0
SEQEND
  8
0
  0
POLYLINE
  8
0
 62
4
 66
1
 10
0.0
 20
0.0
 30
0.0
 70
2
  0
VERTEX
  8
0
 10
276.586945
 20
124.363373
 30
0.0
 70
0
  0
VERTEX
  8
0
 10
276.586945
 20
138.606262
 30
0.0
 70
0
  0
SEQEND
  8
0
  0
POLYLINE
  8
0
 62
4
 66
1
 10
0.0
 20
0.0
 30
0.0
 70
2
  0
VERTEX
  8
0
 10
280.586945
 20
124.363373
 30
0.0
 70
0
  0
VERTEX
  8
0
 10
280.586945
 20
138.606262
 30
0.0
 70
0
  0
SEQEND
  8
0
  0
POLYLINE
  8
0
 62
4
 66
1
 10
0.0
 20
0.0
 30
0.0
 70
2
  0
VERTEX
  8
0
 10
276.966949
 20
126.506523
 30
0.0
 70
0
  0
VERTEX
  8
0
 10
276.966949
 20
138.640808
 30
0.0
 70
0
  0
SEQEND
  8
0
  0
POLYLINE
  8
0
 62
4
 66
1
 10
0.0
 20
0.0
 30
0.0
 70
2
  0
VERTEX
  8
0
 10
280.20694
 20
126.506523
 30
0.0
 70
0
  0
VERTEX
  8
0
 10
280.20694
 20
138.640808
 30
0.0
 70
0
  0
SEQEND
  8
0
  0
CIRCLE
  8
0
 62
7
 10
138.978271
 20
118.70652
 30
0.0
 40
2.0
  0
CIRCLE
  8
0
 62
4
 10
138.978271
 20
118.70652
 30
0.0
 40
1.62
  0
POLYLINE
  8
0
 62
4
 66
1
 10
0.0
 20
0.0
 30
0.0
 70
2
  0
VERTEX
  8
0
 10
284.243805
 20
120.70652
 30
0.0
 70
0
  0
VERTEX
  8
0
 10
298.486694
 20
120.70652
 30
0.0
 70
0
  0
SEQEND
  8
0
  0
POLYLINE
  8
0
 62
4
 66
1
 10
0.0
 20
0.0
 30
0.0
 70
2
  0
VERTEX
  8
0
 10
284.243805
 20
116.70652
 30
0.0
 70
0
  0
VERTEX
  8
0
 10
298.486694
 20
116.70652
 30
0.0
 70
0
  0
SEQEND
  8
0
  0
POLYLINE
  8
0
 62
4
 66
1
 10
0.0
 20
0.0
 30
0.0
 70
2
  0
VERTEX
  8
0
 10
284.364105
 20
120.326523
 30
0.0
 70
0
  0
VERTEX
  8
0
 10
298.52124
 20
120.326523
 30
0.0
 70
0
  0
SEQEND
  8
0
  0
POLYLINE
  8
0
 62
4
 66
1
 10
0.0
 20
0.0
 30
0.0
 70
2
  0
VERTEX
  8
0
 10
284.364105
 20
117.086517
 30
0.0
 70
0
  0
VERTEX
  8
0
 10
298.52124
 20
117.086517
 30
0.0
 70
0
  0
SEQEND
  8
0
  0
POLYLINE
  8
0
 62
4
 66
1
 10
0.0
 20
0.0
 30
0.0
 70
2
  0
VERTEX
  8
0
 10
117.978264
 20
112.20652
 30
0.0
 70
0
  0
VERTEX
  8
0
 10
117.978264
 20
87.306519
 30
0.0
 70
0
  0
VERTEX
  8
0
 10
118.078262
 20
87.20652
 30
0.0
 70
0
  0
VERTEX
  8
0
 10
132.878265
 20
87.20652
 30
0.0
 70
0
  0
VERTEX
  8
0
 10
132.978271
 20
87.306519
 30
0.0
 70
0
  0
VERTEX
  8
0
 10
132.978271
 20
97.70652
 30
0.0
 70
0
  0
SEQEND
  8
0
  0
POLYLINE
  8
0
 62
4
 66
1
 10
0.0
 20
0.0
 30
0.0
 70
2
  0
VERTEX
  8
0
 10
133.978271
 20
98.70652
 30
0.0
 70
0
  0
VERTEX
  8
0
 10
144.478271
 20
98.70652
 30
0.0
 70
0
  0
VERTEX
  8
0
 10
144.978271
 20
99.20652
 30
0.0
 70
0
  0
VERTEX
  8
0
 10
144.978271
 20
138.206512
 30
0.0
 70
0
  0
VERTEX
  8
0
 10
144.478271
 20
138.706512
 30
0.0
 70
0
  0
VERTEX
  8
0
 10
133.978271
 20
138.706512
 30
0.0
 70
0
  0
SEQEND
  8
0
  0
POLYLINE
  8
0
 62
4
 66
1
 10
0.0
 20
0.0
 30
0.0
 70
2
  0
VERTEX
  8
0
 10
132.978271
 20
139.706512
 30
0.0
 70
0
  0
VERTEX
  8
0
 10
132.978271
 20
150.106522
 30
0.0
 70
0
  0
VERTEX
  8
0
 10
132.878265
 20
150.206512
 30
0.0
 70
0
  0
VERTEX
  8
0
 10
118.078262
 20
150.206512
 30
0.0
 70
0
  0
VERTEX
  8
0
 10
117.978264
 20
150.106522
 30
0.0
 70
0
  0
VERTEX
  8
0
 10
117.978264
 20
112.20652
 30
0.0
 70
0
  0
SEQEND
  8
0
  0
CIRCLE
  8
0
 62
4
 10
278.586945
 20
118.70652
 30
0.0
 40
20.0
  0
ENDSEC
  0
EOF
