  0
SECTION
  2
ENTITIES
  0
LINE
  8
0
 62
4
 10
165.521729
 20
214.043488
 30
0.0
 11
185.521729
 21
214.043488
 31
0.0
  0
LINE
  8
0
 62
4
 10
165.521729
 20
119.043488
 30
0.0
 11
185.521729
 21
119.043488
 31
0.0
  0
LINE
  8
0
 62
4
 10
199.021729
 20
159.043488
 30
0.0
 11
199.521729
 21
158.543488
 31
0.0
  0
LINE
  8
0
 62
4
 10
199.021729
 20
174.043488
 30
0.0
 11
199.521729
 21
174.543488
 31
0.0
  0
LINE
  8
0
 62
4
 10
166.021729
 20
174.043488
 30
0.0
 11
166.021729
 21
159.043488
 31
0.0
  0
POLYLINE
  8
0
 62
4
 66
1
 10
0.0
 20
0.0
 30
0.0
 70
2
  0
VERTEX
  8
0
 10
165.521729
 20
158.543488
 30
0.0
 70
0
  0
VERTEX
  8
0
 10
166.021729
 20
159.043488
 30
0.0
 70
0
  0
VERTEX
  8
0
 10
199.021729
 20
159.043488
 30
0.0
 70
0
  0
VERTEX
  8
0
 10
199.021729
 20
174.043488
 30
0.0
 70
0
  0
VERTEX
  8
0
 10
166.021729
 20
174.043488
 30
0.0
 70
0
  0
VERTEX
  8
0
 10
165.521729
 20
174.543488
 30
0.0
 70
0
  0
SEQEND
  8
0
  0
CIRCLE
  8
0
 62
5
 10
175.521729
 20
206.543488
 30
0.0
 40
0.613044
  0
CIRCLE
  8
0
 62
5
 10
124.652161
 20
251.913055
 30
0.0
 40
8.173913
  0
CIRCLE
  8
0
 62
5
 10
175.521729
 20
146.543488
 30
0.0
 40
0.613044
  0
CIRCLE
  8
0
 62
5
 10
124.652161
 20
100.17392
 30
0.0
 40
8.173913
  0
LINE
  8
0
 62
4
 10
165.521729
 20
134.043488
 30
0.0
 11
185.521729
 21
134.043488
 31
0.0
  0
LINE
  8
0
 62
4
 10
165.521729
 20
199.043488
 30
0.0
 11
185.521729
 21
199.043488
 31
0.0
  0
ARC
  8
0
 62
4
 10
186.521729
 20
197.543488
 30
0.0
 40
1.0
 50
180.0
 51
270.0
  0
ARC
  8
0
 62
4
 10
186.521729
 20
135.543488
 30
0.0
 40
1.0
 50
90.0
 51
180.0
  0
POLYLINE
  8
0
 62
4
 66
1
 10
0.0
 20
0.0
 30
0.0
 70
2
  0
VERTEX
  8
0
 10
165.521729
 20
158.543488
 30
0.0
 70
0
  0
VERTEX
  8
0
 10
165.521729
 20
114.643486
 30
0.0
 70
0
  0
VERTEX
  8
0
 10
165.621735
 20
114.543488
 30
0.0
 70
0
  0
VERTEX
  8
0
 10
185.421722
 20
114.543488
 30
0.0
 70
0
  0
VERTEX
  8
0
 10
185.521729
 20
114.643486
 30
0.0
 70
0
  0
VERTEX
  8
0
 10
185.521729
 20
135.543488
 30
0.0
 70
0
  0
SEQEND
  8
0
  0
POLYLINE
  8
0
 62
4
 66
1
 10
0.0
 20
0.0
 30
0.0
 70
2
  0
VERTEX
  8
0
 10
186.521729
 20
136.543488
 30
0.0
 70
0
  0
VERTEX
  8
0
 10
199.021729
 20
136.543488
 30
0.0
 70
0
  0
VERTEX
  8
0
 10
199.521729
 20
137.043488
 30
0.0
 70
0
  0
VERTEX
  8
0
 10
199.521729
 20
196.043488
 30
0.0
 70
0
  0
VERTEX
  8
0
 10
199.021729
 20
196.543488
 30
0.0
 70
0
  0
VERTEX
  8
0
 10
186.521729
 20
196.543488
 30
0.0
 70
0
  0
SEQEND
  8
0
  0
POLYLINE
  8
0
 62
4
 66
1
 10
0.0
 20
0.0
 30
0.0
 70
2
  0
VERTEX
  8
0
 10
185.521729
 20
197.543488
 30
0.0
 70
0
  0
VERTEX
  8
0
 10
185.521729
 20
218.443481
 30
0.0
 70
0
  0
VERTEX
  8
0
 10
185.421722
 20
218.543488
 30
0.0
 70
0
  0
VERTEX
  8
0
 10
165.621735
 20
218.543488
 30
0.0
 70
0
  0
VERTEX
  8
0
 10
165.521729
 20
218.443481
 30
0.0
 70
0
  0
VERTEX
  8
0
 10
165.521729
 20
158.543488
 30
0.0
 70
0
  0
SEQEND
  8
0
  0
ENDSEC
  0
EOF
