  0
SECTION
  2
ENTITIES
  0
LINE
  8
0
 62
4
 10
96.847832
 20
117.408852
 30
0.0
 11
106.847832
 21
117.408852
 31
0.0
  0
LINE
  8
0
 62
4
 10
96.847832
 20
77.482445
 30
0.0
 11
106.847832
 21
77.482445
 31
0.0
  0
LINE
  8
0
 62
4
 10
116.347832
 20
92.445648
 30
0.0
 11
116.847832
 21
91.945648
 31
0.0
  0
LINE
  8
0
 62
4
 10
116.347832
 20
102.445648
 30
0.0
 11
116.847832
 21
102.945648
 31
0.0
  0
LINE
  8
0
 62
4
 10
97.347832
 20
102.445648
 30
0.0
 11
97.347832
 21
92.445648
 31
0.0
  0
POLYLINE
  8
0
 62
4
 66
1
 10
0.0
 20
0.0
 30
0.0
 70
2
  0
VERTEX
  8
0
 10
96.847832
 20
91.945648
 30
0.0
 70
0
  0
VERTEX
  8
0
 10
97.347832
 20
92.445648
 30
0.0
 70
0
  0
VERTEX
  8
0
 10
116.347832
 20
92.445648
 30
0.0
 70
0
  0
VERTEX
  8
0
 10
116.347832
 20
102.445648
 30
0.0
 70
0
  0
VERTEX
  8
0
 10
97.347832
 20
102.445648
 30
0.0
 70
0
  0
VERTEX
  8
0
 10
96.847832
 20
102.945648
 30
0.0
 70
0
  0
SEQEND
  8
0
  0
ARC
  8
0
 62
4
 10
107.847832
 20
115.945648
 30
0.0
 40
1.0
 50
180.0
 51
270.0
  0
ARC
  8
0
 62
4
 10
107.847832
 20
78.945648
 30
0.0
 40
1.0
 50
90.0
 51
180.0
  0
ARC
  8
0
 62
4
 10
227.608704
 20
97.445648
 30
0.0
 40
5.0
 50
113.5781780057233
 51
66.4218219942767
  0
POLYLINE
  8
0
 62
4
 66
1
 10
0.0
 20
0.0
 30
0.0
 70
2
  0
VERTEX
  8
0
 10
229.608704
 20
102.028221
 30
0.0
 70
0
  0
VERTEX
  8
0
 10
229.608704
 20
104.245651
 30
0.0
 70
0
  0
VERTEX
  8
0
 10
225.608704
 20
104.245651
 30
0.0
 70
0
  0
VERTEX
  8
0
 10
225.608704
 20
102.028221
 30
0.0
 70
0
  0
SEQEND
  8
0
  0
LINE
  8
0
 62
4
 10
96.847832
 20
104.245651
 30
0.0
 11
116.847832
 21
104.245651
 31
0.0
  0
POLYLINE
  8
0
 62
4
 66
1
 10
0.0
 20
0.0
 30
0.0
 70
2
  0
VERTEX
  8
0
 10
113.847832
 20
114.945648
 30
0.0
 70
0
  0
VERTEX
  8
0
 10
113.847832
 20
104.245651
 30
0.0
 70
0
  0
SEQEND
  8
0
  0
POLYLINE
  8
0
 62
4
 66
1
 10
0.0
 20
0.0
 30
0.0
 70
2
  0
VERTEX
  8
0
 10
109.847832
 20
114.945648
 30
0.0
 70
0
  0
VERTEX
  8
0
 10
109.847832
 20
104.245651
 30
0.0
 70
0
  0
SEQEND
  8
0
  0
POLYLINE
  8
0
 62
4
 66
1
 10
0.0
 20
0.0
 30
0.0
 70
2
  0
VERTEX
  8
0
 10
113.467834
 20
114.945648
 30
0.0
 70
0
  0
VERTEX
  8
0
 10
113.467834
 20
104.245651
 30
0.0
 70
0
  0
SEQEND
  8
0
  0
POLYLINE
  8
0
 62
4
 66
1
 10
0.0
 20
0.0
 30
0.0
 70
2
  0
VERTEX
  8
0
 10
110.227829
 20
114.945648
 30
0.0
 70
0
  0
VERTEX
  8
0
 10
110.227829
 20
104.245651
 30
0.0
 70
0
  0
SEQEND
  8
0
  0
POLYLINE
  8
0
 62
4
 66
1
 10
0.0
 20
0.0
 30
0.0
 70
2
  0
VERTEX
  8
0
 10
225.608704
 20
102.028221
 30
0.0
 70
0
  0
VERTEX
  8
0
 10
225.608704
 20
114.830986
 30
0.0
 70
0
  0
SEQEND
  8
0
  0
POLYLINE
  8
0
 62
4
 66
1
 10
0.0
 20
0.0
 30
0.0
 70
2
  0
VERTEX
  8
0
 10
229.608704
 20
102.028221
 30
0.0
 70
0
  0
VERTEX
  8
0
 10
229.608704
 20
114.830986
 30
0.0
 70
0
  0
SEQEND
  8
0
  0
POLYLINE
  8
0
 62
4
 66
1
 10
0.0
 20
0.0
 30
0.0
 70
2
  0
VERTEX
  8
0
 10
225.988708
 20
104.245651
 30
0.0
 70
0
  0
VERTEX
  8
0
 10
225.988708
 20
114.870506
 30
0.0
 70
0
  0
SEQEND
  8
0
  0
POLYLINE
  8
0
 62
4
 66
1
 10
0.0
 20
0.0
 30
0.0
 70
2
  0
VERTEX
  8
0
 10
229.228699
 20
104.245651
 30
0.0
 70
0
  0
VERTEX
  8
0
 10
229.228699
 20
114.870506
 30
0.0
 70
0
  0
SEQEND
  8
0
  0
CIRCLE
  8
0
 62
7
 10
111.847832
 20
97.445648
 30
0.0
 40
2.0
  0
CIRCLE
  8
0
 62
4
 10
111.847832
 20
97.445648
 30
0.0
 40
1.62
  0
POLYLINE
  8
0
 62
4
 66
1
 10
0.0
 20
0.0
 30
0.0
 70
2
  0
VERTEX
  8
0
 10
232.191284
 20
99.445648
 30
0.0
 70
0
  0
VERTEX
  8
0
 10
244.994049
 20
99.445648
 30
0.0
 70
0
  0
SEQEND
  8
0
  0
POLYLINE
  8
0
 62
4
 66
1
 10
0.0
 20
0.0
 30
0.0
 70
2
  0
VERTEX
  8
0
 10
232.191284
 20
95.445648
 30
0.0
 70
0
  0
VERTEX
  8
0
 10
244.994049
 20
95.445648
 30
0.0
 70
0
  0
SEQEND
  8
0
  0
POLYLINE
  8
0
 62
4
 66
1
 10
0.0
 20
0.0
 30
0.0
 70
2
  0
VERTEX
  8
0
 10
232.338989
 20
99.065651
 30
0.0
 70
0
  0
VERTEX
  8
0
 10
245.033539
 20
99.065651
 30
0.0
 70
0
  0
SEQEND
  8
0
  0
POLYLINE
  8
0
 62
4
 66
1
 10
0.0
 20
0.0
 30
0.0
 70
2
  0
VERTEX
  8
0
 10
232.338989
 20
95.825645
 30
0.0
 70
0
  0
VERTEX
  8
0
 10
245.033539
 20
95.825645
 30
0.0
 70
0
  0
SEQEND
  8
0
  0
POLYLINE
  8
0
 62
4
 66
1
 10
0.0
 20
0.0
 30
0.0
 70
2
  0
VERTEX
  8
0
 10
96.847832
 20
91.945648
 30
0.0
 70
0
  0
VERTEX
  8
0
 10
96.847832
 20
75.732445
 30
0.0
 70
0
  0
VERTEX
  8
0
 10
97.347832
 20
75.232445
 30
0.0
 70
0
  0
VERTEX
  8
0
 10
106.347832
 20
75.232445
 30
0.0
 70
0
  0
VERTEX
  8
0
 10
106.847832
 20
75.732445
 30
0.0
 70
0
  0
VERTEX
  8
0
 10
106.847832
 20
78.945648
 30
0.0
 70
0
  0
SEQEND
  8
0
  0
POLYLINE
  8
0
 62
4
 66
1
 10
0.0
 20
0.0
 30
0.0
 70
2
  0
VERTEX
  8
0
 10
107.847832
 20
79.945648
 30
0.0
 70
0
  0
VERTEX
  8
0
 10
116.347832
 20
79.945648
 30
0.0
 70
0
  0
VERTEX
  8
0
 10
116.847832
 20
80.445648
 30
0.0
 70
0
  0
VERTEX
  8
0
 10
116.847832
 20
114.445648
 30
0.0
 70
0
  0
VERTEX
  8
0
 10
116.347832
 20
114.945648
 30
0.0
 70
0
  0
VERTEX
  8
0
 10
107.847832
 20
114.945648
 30
0.0
 70
0
  0
SEQEND
  8
0
  0
POLYLINE
  8
0
 62
4
 66
1
 10
0.0
 20
0.0
 30
0.0
 70
2
  0
VERTEX
  8
0
 10
106.847832
 20
115.945648
 30
0.0
 70
0
  0
VERTEX
  8
0
 10
106.847832
 20
119.158852
 30
0.0
 70
0
  0
VERTEX
  8
0
 10
106.347832
 20
119.658852
 30
0.0
 70
0
  0
VERTEX
  8
0
 10
97.347832
 20
119.658852
 30
0.0
 70
0
  0
VERTEX
  8
0
 10
96.847832
 20
119.158852
 30
0.0
 70
0
  0
VERTEX
  8
0
 10
96.847832
 20
91.945648
 30
0.0
 70
0
  0
SEQEND
  8
0
  0
CIRCLE
  8
0
 62
4
 10
227.608704
 20
97.445648
 30
0.0
 40
17.5
  0
ENDSEC
  0
EOF
