  0
SECTION
  2
ENTITIES
  0
LINE
  8
0
 62
4
 10
234.195663
 20
295.530884
 30
0.0
 11
259.195679
 21
295.530884
 31
0.0
  0
LINE
  8
0
 62
4
 10
234.195663
 20
175.751694
 30
0.0
 11
259.195679
 21
175.751694
 31
0.0
  0
LINE
  8
0
 62
4
 10
276.195679
 20
215.641296
 30
0.0
 11
277.195679
 21
214.641296
 31
0.0
  0
LINE
  8
0
 62
4
 10
276.195679
 20
255.641296
 30
0.0
 11
277.195679
 21
256.641296
 31
0.0
  0
LINE
  8
0
 62
4
 10
235.195663
 20
255.641296
 30
0.0
 11
235.195663
 21
215.641296
 31
0.0
  0
POLYLINE
  8
0
 62
4
 66
1
 10
0.0
 20
0.0
 30
0.0
 70
2
  0
VERTEX
  8
0
 10
234.195663
 20
214.641296
 30
0.0
 70
0
  0
VERTEX
  8
0
 10
235.195663
 20
215.641296
 30
0.0
 70
0
  0
VERTEX
  8
0
 10
276.195679
 20
215.641296
 30
0.0
 70
0
  0
VERTEX
  8
0
 10
276.195679
 20
255.641296
 30
0.0
 70
0
  0
VERTEX
  8
0
 10
235.195663
 20
255.641296
 30
0.0
 70
0
  0
VERTEX
  8
0
 10
234.195663
 20
256.641296
 30
0.0
 70
0
  0
SEQEND
  8
0
  0
ARC
  8
0
 62
4
 10
260.695679
 20
282.141296
 30
0.0
 40
1.5
 50
180.0
 51
270.0
  0
ARC
  8
0
 62
4
 10
260.695679
 20
189.141296
 30
0.0
 40
1.5
 50
90.0
 51
180.0
  0
ARC
  8
0
 62
4
 10
547.717407
 20
235.641296
 30
0.0
 40
20.0
 50
107.45760274776076
 51
72.54239725223924
  0
POLYLINE
  8
0
 62
4
 66
1
 10
0.0
 20
0.0
 30
0.0
 70
2
  0
VERTEX
  8
0
 10
553.717407
 20
254.720078
 30
0.0
 70
0
  0
VERTEX
  8
0
 10
553.717407
 20
258.941284
 30
0.0
 70
0
  0
VERTEX
  8
0
 10
541.717407
 20
258.941284
 30
0.0
 70
0
  0
VERTEX
  8
0
 10
541.717407
 20
254.720078
 30
0.0
 70
0
  0
SEQEND
  8
0
  0
LINE
  8
0
 62
4
 10
234.195663
 20
258.941284
 30
0.0
 11
277.195679
 21
258.941284
 31
0.0
  0
POLYLINE
  8
0
 62
4
 66
1
 10
0.0
 20
0.0
 30
0.0
 70
2
  0
VERTEX
  8
0
 10
272.195679
 20
280.641296
 30
0.0
 70
0
  0
VERTEX
  8
0
 10
272.195679
 20
258.941284
 30
0.0
 70
0
  0
SEQEND
  8
0
  0
POLYLINE
  8
0
 62
4
 66
1
 10
0.0
 20
0.0
 30
0.0
 70
2
  0
VERTEX
  8
0
 10
264.195679
 20
280.641296
 30
0.0
 70
0
  0
VERTEX
  8
0
 10
264.195679
 20
258.941284
 30
0.0
 70
0
  0
SEQEND
  8
0
  0
POLYLINE
  8
0
 62
4
 66
1
 10
0.0
 20
0.0
 30
0.0
 70
2
  0
VERTEX
  8
0
 10
271.52066
 20
280.641296
 30
0.0
 70
0
  0
VERTEX
  8
0
 10
271.52066
 20
258.941284
 30
0.0
 70
0
  0
SEQEND
  8
0
  0
POLYLINE
  8
0
 62
4
 66
1
 10
0.0
 20
0.0
 30
0.0
 70
2
  0
VERTEX
  8
0
 10
264.870667
 20
280.641296
 30
0.0
 70
0
  0
VERTEX
  8
0
 10
264.870667
 20
258.941284
 30
0.0
 70
0
  0
SEQEND
  8
0
  0
POLYLINE
  8
0
 62
4
 66
1
 10
0.0
 20
0.0
 30
0.0
 70
2
  0
VERTEX
  8
0
 10
543.717407
 20
258.941284
 30
0.0
 70
0
  0
VERTEX
  8
0
 10
543.717407
 20
280.463165
 30
0.0
 70
0
  0
SEQEND
  8
0
  0
POLYLINE
  8
0
 62
4
 66
1
 10
0.0
 20
0.0
 30
0.0
 70
2
  0
VERTEX
  8
0
 10
551.717407
 20
258.941284
 30
0.0
 70
0
  0
VERTEX
  8
0
 10
551.717407
 20
280.463165
 30
0.0
 70
0
  0
SEQEND
  8
0
  0
POLYLINE
  8
0
 62
4
 66
1
 10
0.0
 20
0.0
 30
0.0
 70
2
  0
VERTEX
  8
0
 10
544.392395
 20
258.941284
 30
0.0
 70
0
  0
VERTEX
  8
0
 10
544.392395
 20
280.51828
 30
0.0
 70
0
  0
SEQEND
  8
0
  0
POLYLINE
  8
0
 62
4
 66
1
 10
0.0
 20
0.0
 30
0.0
 70
2
  0
VERTEX
  8
0
 10
551.042419
 20
258.941284
 30
0.0
 70
0
  0
VERTEX
  8
0
 10
551.042419
 20
280.51828
 30
0.0
 70
0
  0
SEQEND
  8
0
  0
CIRCLE
  8
0
 62
7
 10
268.195679
 20
235.641296
 30
0.0
 40
4.0
  0
CIRCLE
  8
0
 62
4
 10
268.195679
 20
235.641296
 30
0.0
 40
3.325
  0
POLYLINE
  8
0
 62
4
 66
1
 10
0.0
 20
0.0
 30
0.0
 70
2
  0
VERTEX
  8
0
 10
567.313293
 20
239.641296
 30
0.0
 70
0
  0
VERTEX
  8
0
 10
592.539246
 20
239.641296
 30
0.0
 70
0
  0
SEQEND
  8
0
  0
POLYLINE
  8
0
 62
4
 66
1
 10
0.0
 20
0.0
 30
0.0
 70
2
  0
VERTEX
  8
0
 10
567.313293
 20
231.641296
 30
0.0
 70
0
  0
VERTEX
  8
0
 10
592.539246
 20
231.641296
 30
0.0
 70
0
  0
SEQEND
  8
0
  0
POLYLINE
  8
0
 62
4
 66
1
 10
0.0
 20
0.0
 30
0.0
 70
2
  0
VERTEX
  8
0
 10
567.439087
 20
238.966293
 30
0.0
 70
0
  0
VERTEX
  8
0
 10
592.59436
 20
238.966293
 30
0.0
 70
0
  0
SEQEND
  8
0
  0
POLYLINE
  8
0
 62
4
 66
1
 10
0.0
 20
0.0
 30
0.0
 70
2
  0
VERTEX
  8
0
 10
567.439087
 20
232.316299
 30
0.0
 70
0
  0
VERTEX
  8
0
 10
592.59436
 20
232.316299
 30
0.0
 70
0
  0
SEQEND
  8
0
  0
POLYLINE
  8
0
 62
4
 66
1
 10
0.0
 20
0.0
 30
0.0
 70
2
  0
VERTEX
  8
0
 10
234.195663
 20
214.641296
 30
0.0
 70
0
  0
VERTEX
  8
0
 10
234.195663
 20
170.001694
 30
0.0
 70
0
  0
VERTEX
  8
0
 10
235.195663
 20
169.001694
 30
0.0
 70
0
  0
VERTEX
  8
0
 10
258.195679
 20
169.001694
 30
0.0
 70
0
  0
VERTEX
  8
0
 10
259.195679
 20
170.001694
 30
0.0
 70
0
  0
VERTEX
  8
0
 10
259.195679
 20
189.141296
 30
0.0
 70
0
  0
SEQEND
  8
0
  0
POLYLINE
  8
0
 62
4
 66
1
 10
0.0
 20
0.0
 30
0.0
 70
2
  0
VERTEX
  8
0
 10
260.695679
 20
190.641296
 30
0.0
 70
0
  0
VERTEX
  8
0
 10
276.195679
 20
190.641296
 30
0.0
 70
0
  0
VERTEX
  8
0
 10
277.195679
 20
191.641296
 30
0.0
 70
0
  0
VERTEX
  8
0
 10
277.195679
 20
279.641296
 30
0.0
 70
0
  0
VERTEX
  8
0
 10
276.195679
 20
280.641296
 30
0.0
 70
0
  0
VERTEX
  8
0
 10
260.695679
 20
280.641296
 30
0.0
 70
0
  0
SEQEND
  8
0
  0
POLYLINE
  8
0
 62
4
 66
1
 10
0.0
 20
0.0
 30
0.0
 70
2
  0
VERTEX
  8
0
 10
259.195679
 20
282.141296
 30
0.0
 70
0
  0
VERTEX
  8
0
 10
259.195679
 20
301.280884
 30
0.0
 70
0
  0
VERTEX
  8
0
 10
258.195679
 20
302.280884
 30
0.0
 70
0
  0
VERTEX
  8
0
 10
235.195663
 20
302.280884
 30
0.0
 70
0
  0
VERTEX
  8
0
 10
234.195663
 20
301.280884
 30
0.0
 70
0
  0
VERTEX
  8
0
 10
234.195663
 20
214.641296
 30
0.0
 70
0
  0
SEQEND
  8
0
  0
CIRCLE
  8
0
 62
4
 10
547.717407
 20
235.641296
 30
0.0
 40
45.0
  0
ENDSEC
  0
EOF
