  0
SECTION
  2
ENTITIES
  0
LINE
  8
0
 62
4
 10
167.282593
 20
191.599487
 30
0.0
 11
197.282593
 21
191.599487
 31
0.0
  0
LINE
  8
0
 62
4
 10
167.282593
 20
145.030945
 30
0.0
 11
197.282593
 21
145.030945
 31
0.0
  0
LINE
  8
0
 62
4
 10
216.282593
 20
158.315216
 30
0.0
 11
217.282593
 21
157.315216
 31
0.0
  0
LINE
  8
0
 62
4
 10
216.282593
 20
178.315216
 30
0.0
 11
217.282593
 21
179.315216
 31
0.0
  0
LINE
  8
0
 62
4
 10
168.282593
 20
178.315216
 30
0.0
 11
168.282593
 21
158.315216
 31
0.0
  0
POLYLINE
  8
0
 62
4
 66
1
 10
0.0
 20
0.0
 30
0.0
 70
2
  0
VERTEX
  8
0
 10
167.282593
 20
157.315216
 30
0.0
 70
0
  0
VERTEX
  8
0
 10
168.282593
 20
158.315216
 30
0.0
 70
0
  0
VERTEX
  8
0
 10
216.282593
 20
158.315216
 30
0.0
 70
0
  0
VERTEX
  8
0
 10
216.282593
 20
178.315216
 30
0.0
 70
0
  0
VERTEX
  8
0
 10
168.282593
 20
178.315216
 30
0.0
 70
0
  0
VERTEX
  8
0
 10
167.282593
 20
179.315216
 30
0.0
 70
0
  0
SEQEND
  8
0
  0
ARC
  8
0
 62
4
 10
198.282593
 20
191.815216
 30
0.0
 40
1.0
 50
180.0
 51
270.0
  0
ARC
  8
0
 62
4
 10
198.282593
 20
144.815216
 30
0.0
 40
1.0
 50
90.0
 51
180.0
  0
POLYLINE
  8
0
 62
4
 66
1
 10
0.0
 20
0.0
 30
0.0
 70
2
  0
VERTEX
  8
0
 10
167.282593
 20
157.315216
 30
0.0
 70
0
  0
VERTEX
  8
0
 10
167.282593
 20
137.030945
 30
0.0
 70
0
  0
VERTEX
  8
0
 10
168.282593
 20
136.030945
 30
0.0
 70
0
  0
VERTEX
  8
0
 10
196.282593
 20
136.030945
 30
0.0
 70
0
  0
VERTEX
  8
0
 10
197.282593
 20
137.030945
 30
0.0
 70
0
  0
VERTEX
  8
0
 10
197.282593
 20
144.815216
 30
0.0
 70
0
  0
SEQEND
  8
0
  0
POLYLINE
  8
0
 62
4
 66
1
 10
0.0
 20
0.0
 30
0.0
 70
2
  0
VERTEX
  8
0
 10
198.282593
 20
145.815216
 30
0.0
 70
0
  0
VERTEX
  8
0
 10
216.282593
 20
145.815216
 30
0.0
 70
0
  0
VERTEX
  8
0
 10
217.282593
 20
146.815216
 30
0.0
 70
0
  0
VERTEX
  8
0
 10
217.282593
 20
189.815216
 30
0.0
 70
0
  0
VERTEX
  8
0
 10
216.282593
 20
190.815216
 30
0.0
 70
0
  0
VERTEX
  8
0
 10
198.282593
 20
190.815216
 30
0.0
 70
0
  0
SEQEND
  8
0
  0
POLYLINE
  8
0
 62
4
 66
1
 10
0.0
 20
0.0
 30
0.0
 70
2
  0
VERTEX
  8
0
 10
197.282593
 20
191.815216
 30
0.0
 70
0
  0
VERTEX
  8
0
 10
197.282593
 20
199.599487
 30
0.0
 70
0
  0
VERTEX
  8
0
 10
196.282593
 20
200.599487
 30
0.0
 70
0
  0
VERTEX
  8
0
 10
168.282593
 20
200.599487
 30
0.0
 70
0
  0
VERTEX
  8
0
 10
167.282593
 20
199.599487
 30
0.0
 70
0
  0
VERTEX
  8
0
 10
167.282593
 20
157.315216
 30
0.0
 70
0
  0
SEQEND
  8
0
  0
ENDSEC
  0
EOF
