  0
SECTION
  2
ENTITIES
  0
LINE
  8
0
 62
4
 10
264.130432
 20
334.299957
 30
0.0
 11
294.130432
 21
334.299957
 31
0.0
  0
LINE
  8
0
 62
4
 10
264.130432
 20
197.221771
 30
0.0
 11
294.130432
 21
197.221771
 31
0.0
  0
LINE
  8
0
 62
4
 10
313.130432
 20
245.760864
 30
0.0
 11
314.130432
 21
244.760864
 31
0.0
  0
LINE
  8
0
 62
4
 10
313.130432
 20
285.760864
 30
0.0
 11
314.130432
 21
286.760864
 31
0.0
  0
LINE
  8
0
 62
4
 10
265.130432
 20
285.760864
 30
0.0
 11
265.130432
 21
245.760864
 31
0.0
  0
POLYLINE
  8
0
 62
4
 66
1
 10
0.0
 20
0.0
 30
0.0
 70
2
  0
VERTEX
  8
0
 10
264.130432
 20
244.760864
 30
0.0
 70
0
  0
VERTEX
  8
0
 10
265.130432
 20
245.760864
 30
0.0
 70
0
  0
VERTEX
  8
0
 10
313.130432
 20
245.760864
 30
0.0
 70
0
  0
VERTEX
  8
0
 10
313.130432
 20
285.760864
 30
0.0
 70
0
  0
VERTEX
  8
0
 10
265.130432
 20
285.760864
 30
0.0
 70
0
  0
VERTEX
  8
0
 10
264.130432
 20
286.760864
 30
0.0
 70
0
  0
SEQEND
  8
0
  0
ARC
  8
0
 62
4
 10
295.630432
 20
317.260864
 30
0.0
 40
1.5
 50
180.0
 51
270.0
  0
ARC
  8
0
 62
4
 10
295.630432
 20
214.260864
 30
0.0
 40
1.5
 50
90.0
 51
180.0
  0
ARC
  8
0
 62
4
 10
618.478271
 20
265.760864
 30
0.0
 40
20.0
 50
107.45760274776076
 51
72.54239725223924
  0
POLYLINE
  8
0
 62
4
 66
1
 10
0.0
 20
0.0
 30
0.0
 70
2
  0
VERTEX
  8
0
 10
624.478271
 20
284.839661
 30
0.0
 70
0
  0
VERTEX
  8
0
 10
624.478271
 20
289.060852
 30
0.0
 70
0
  0
VERTEX
  8
0
 10
612.478271
 20
289.060852
 30
0.0
 70
0
  0
VERTEX
  8
0
 10
612.478271
 20
284.839661
 30
0.0
 70
0
  0
SEQEND
  8
0
  0
LINE
  8
0
 62
4
 10
264.130432
 20
289.060852
 30
0.0
 11
314.130432
 21
289.060852
 31
0.0
  0
POLYLINE
  8
0
 62
4
 66
1
 10
0.0
 20
0.0
 30
0.0
 70
2
  0
VERTEX
  8
0
 10
308.130432
 20
315.760864
 30
0.0
 70
0
  0
VERTEX
  8
0
 10
308.130432
 20
289.060852
 30
0.0
 70
0
  0
SEQEND
  8
0
  0
POLYLINE
  8
0
 62
4
 66
1
 10
0.0
 20
0.0
 30
0.0
 70
2
  0
VERTEX
  8
0
 10
300.130432
 20
315.760864
 30
0.0
 70
0
  0
VERTEX
  8
0
 10
300.130432
 20
289.060852
 30
0.0
 70
0
  0
SEQEND
  8
0
  0
POLYLINE
  8
0
 62
4
 66
1
 10
0.0
 20
0.0
 30
0.0
 70
2
  0
VERTEX
  8
0
 10
307.455444
 20
315.760864
 30
0.0
 70
0
  0
VERTEX
  8
0
 10
307.455444
 20
289.060852
 30
0.0
 70
0
  0
SEQEND
  8
0
  0
POLYLINE
  8
0
 62
4
 66
1
 10
0.0
 20
0.0
 30
0.0
 70
2
  0
VERTEX
  8
0
 10
300.80542
 20
315.760864
 30
0.0
 70
0
  0
VERTEX
  8
0
 10
300.80542
 20
289.060852
 30
0.0
 70
0
  0
SEQEND
  8
0
  0
POLYLINE
  8
0
 62
4
 66
1
 10
0.0
 20
0.0
 30
0.0
 70
2
  0
VERTEX
  8
0
 10
614.478271
 20
289.060852
 30
0.0
 70
0
  0
VERTEX
  8
0
 10
614.478271
 20
315.600616
 30
0.0
 70
0
  0
SEQEND
  8
0
  0
POLYLINE
  8
0
 62
4
 66
1
 10
0.0
 20
0.0
 30
0.0
 70
2
  0
VERTEX
  8
0
 10
622.478271
 20
289.060852
 30
0.0
 70
0
  0
VERTEX
  8
0
 10
622.478271
 20
315.600616
 30
0.0
 70
0
  0
SEQEND
  8
0
  0
POLYLINE
  8
0
 62
4
 66
1
 10
0.0
 20
0.0
 30
0.0
 70
2
  0
VERTEX
  8
0
 10
615.153259
 20
289.060852
 30
0.0
 70
0
  0
VERTEX
  8
0
 10
615.153259
 20
315.650177
 30
0.0
 70
0
  0
SEQEND
  8
0
  0
POLYLINE
  8
0
 62
4
 66
1
 10
0.0
 20
0.0
 30
0.0
 70
2
  0
VERTEX
  8
0
 10
621.803284
 20
289.060852
 30
0.0
 70
0
  0
VERTEX
  8
0
 10
621.803284
 20
315.650177
 30
0.0
 70
0
  0
SEQEND
  8
0
  0
CIRCLE
  8
0
 62
7
 10
304.130432
 20
265.760864
 30
0.0
 40
4.0
  0
CIRCLE
  8
0
 62
4
 10
304.130432
 20
265.760864
 30
0.0
 40
3.325
  0
POLYLINE
  8
0
 62
4
 66
1
 10
0.0
 20
0.0
 30
0.0
 70
2
  0
VERTEX
  8
0
 10
638.074219
 20
269.760864
 30
0.0
 70
0
  0
VERTEX
  8
0
 10
668.317993
 20
269.760864
 30
0.0
 70
0
  0
SEQEND
  8
0
  0
POLYLINE
  8
0
 62
4
 66
1
 10
0.0
 20
0.0
 30
0.0
 70
2
  0
VERTEX
  8
0
 10
638.074219
 20
261.760864
 30
0.0
 70
0
  0
VERTEX
  8
0
 10
668.317993
 20
261.760864
 30
0.0
 70
0
  0
SEQEND
  8
0
  0
POLYLINE
  8
0
 62
4
 66
1
 10
0.0
 20
0.0
 30
0.0
 70
2
  0
VERTEX
  8
0
 10
638.199951
 20
269.085876
 30
0.0
 70
0
  0
VERTEX
  8
0
 10
668.367554
 20
269.085876
 30
0.0
 70
0
  0
SEQEND
  8
0
  0
POLYLINE
  8
0
 62
4
 66
1
 10
0.0
 20
0.0
 30
0.0
 70
2
  0
VERTEX
  8
0
 10
638.199951
 20
262.435852
 30
0.0
 70
0
  0
VERTEX
  8
0
 10
668.367554
 20
262.435852
 30
0.0
 70
0
  0
SEQEND
  8
0
  0
POLYLINE
  8
0
 62
4
 66
1
 10
0.0
 20
0.0
 30
0.0
 70
2
  0
VERTEX
  8
0
 10
264.130432
 20
244.760864
 30
0.0
 70
0
  0
VERTEX
  8
0
 10
264.130432
 20
189.221771
 30
0.0
 70
0
  0
VERTEX
  8
0
 10
265.130432
 20
188.221771
 30
0.0
 70
0
  0
VERTEX
  8
0
 10
293.130432
 20
188.221771
 30
0.0
 70
0
  0
VERTEX
  8
0
 10
294.130432
 20
189.221771
 30
0.0
 70
0
  0
VERTEX
  8
0
 10
294.130432
 20
214.260864
 30
0.0
 70
0
  0
SEQEND
  8
0
  0
POLYLINE
  8
0
 62
4
 66
1
 10
0.0
 20
0.0
 30
0.0
 70
2
  0
VERTEX
  8
0
 10
295.630432
 20
215.760864
 30
0.0
 70
0
  0
VERTEX
  8
0
 10
313.130432
 20
215.760864
 30
0.0
 70
0
  0
VERTEX
  8
0
 10
314.130432
 20
216.760864
 30
0.0
 70
0
  0
VERTEX
  8
0
 10
314.130432
 20
314.760864
 30
0.0
 70
0
  0
VERTEX
  8
0
 10
313.130432
 20
315.760864
 30
0.0
 70
0
  0
VERTEX
  8
0
 10
295.630432
 20
315.760864
 30
0.0
 70
0
  0
SEQEND
  8
0
  0
POLYLINE
  8
0
 62
4
 66
1
 10
0.0
 20
0.0
 30
0.0
 70
2
  0
VERTEX
  8
0
 10
294.130432
 20
317.260864
 30
0.0
 70
0
  0
VERTEX
  8
0
 10
294.130432
 20
342.299957
 30
0.0
 70
0
  0
VERTEX
  8
0
 10
293.130432
 20
343.299957
 30
0.0
 70
0
  0
VERTEX
  8
0
 10
265.130432
 20
343.299957
 30
0.0
 70
0
  0
VERTEX
  8
0
 10
264.130432
 20
342.299957
 30
0.0
 70
0
  0
VERTEX
  8
0
 10
264.130432
 20
244.760864
 30
0.0
 70
0
  0
SEQEND
  8
0
  0
CIRCLE
  8
0
 62
4
 10
618.478271
 20
265.760864
 30
0.0
 40
50.0
  0
ENDSEC
  0
EOF
