  0
SECTION
  2
ENTITIES
  0
LINE
  8
0
 62
4
 10
59.869568
 20
72.114128
 30
0.0
 11
64.869568
 21
72.114128
 31
0.0
  0
LINE
  8
0
 62
4
 10
59.869568
 20
48.364128
 30
0.0
 11
64.869568
 21
48.364128
 31
0.0
  0
LINE
  8
0
 62
4
 10
71.569565
 20
57.239128
 30
0.0
 11
71.869568
 21
56.939129
 31
0.0
  0
LINE
  8
0
 62
4
 10
71.569565
 20
63.239128
 30
0.0
 11
71.869568
 21
63.539127
 31
0.0
  0
LINE
  8
0
 62
4
 10
60.169567
 20
63.239128
 30
0.0
 11
60.169567
 21
57.239128
 31
0.0
  0
POLYLINE
  8
0
 62
4
 66
1
 10
0.0
 20
0.0
 30
0.0
 70
2
  0
VERTEX
  8
0
 10
59.869568
 20
56.939129
 30
0.0
 70
0
  0
VERTEX
  8
0
 10
60.169567
 20
57.239128
 30
0.0
 70
0
  0
VERTEX
  8
0
 10
71.569565
 20
57.239128
 30
0.0
 70
0
  0
VERTEX
  8
0
 10
71.569565
 20
63.239128
 30
0.0
 70
0
  0
VERTEX
  8
0
 10
60.169567
 20
63.239128
 30
0.0
 70
0
  0
VERTEX
  8
0
 10
59.869568
 20
63.539127
 30
0.0
 70
0
  0
SEQEND
  8
0
  0
ARC
  8
0
 62
4
 10
65.269569
 20
71.63913
 30
0.0
 40
0.4
 50
180.0
 51
270.0
  0
ARC
  8
0
 62
4
 10
65.269569
 20
48.839127
 30
0.0
 40
0.4
 50
90.0
 51
180.0
  0
POLYLINE
  8
0
 62
4
 66
1
 10
0.0
 20
0.0
 30
0.0
 70
2
  0
VERTEX
  8
0
 10
70.369568
 20
71.239128
 30
0.0
 70
0
  0
VERTEX
  8
0
 10
70.369568
 20
63.239128
 30
0.0
 70
0
  0
SEQEND
  8
0
  0
POLYLINE
  8
0
 62
4
 66
1
 10
0.0
 20
0.0
 30
0.0
 70
2
  0
VERTEX
  8
0
 10
66.369568
 20
71.239128
 30
0.0
 70
0
  0
VERTEX
  8
0
 10
66.369568
 20
63.239128
 30
0.0
 70
0
  0
SEQEND
  8
0
  0
POLYLINE
  8
0
 62
4
 66
1
 10
0.0
 20
0.0
 30
0.0
 70
2
  0
VERTEX
  8
0
 10
69.989571
 20
71.239128
 30
0.0
 70
0
  0
VERTEX
  8
0
 10
69.989571
 20
63.239128
 30
0.0
 70
0
  0
SEQEND
  8
0
  0
POLYLINE
  8
0
 62
4
 66
1
 10
0.0
 20
0.0
 30
0.0
 70
2
  0
VERTEX
  8
0
 10
66.749565
 20
71.239128
 30
0.0
 70
0
  0
VERTEX
  8
0
 10
66.749565
 20
63.239128
 30
0.0
 70
0
  0
SEQEND
  8
0
  0
POLYLINE
  8
0
 62
4
 66
1
 10
0.0
 20
0.0
 30
0.0
 70
2
  0
VERTEX
  8
0
 10
138.521744
 20
62.475197
 30
0.0
 70
0
  0
VERTEX
  8
0
 10
138.521744
 20
71.055786
 30
0.0
 70
0
  0
SEQEND
  8
0
  0
POLYLINE
  8
0
 62
4
 66
1
 10
0.0
 20
0.0
 30
0.0
 70
2
  0
VERTEX
  8
0
 10
142.521744
 20
62.475197
 30
0.0
 70
0
  0
VERTEX
  8
0
 10
142.521744
 20
71.055786
 30
0.0
 70
0
  0
SEQEND
  8
0
  0
POLYLINE
  8
0
 62
4
 66
1
 10
0.0
 20
0.0
 30
0.0
 70
2
  0
VERTEX
  8
0
 10
138.901733
 20
62.764122
 30
0.0
 70
0
  0
VERTEX
  8
0
 10
138.901733
 20
71.119186
 30
0.0
 70
0
  0
SEQEND
  8
0
  0
POLYLINE
  8
0
 62
4
 66
1
 10
0.0
 20
0.0
 30
0.0
 70
2
  0
VERTEX
  8
0
 10
142.141754
 20
62.764122
 30
0.0
 70
0
  0
VERTEX
  8
0
 10
142.141754
 20
71.119186
 30
0.0
 70
0
  0
SEQEND
  8
0
  0
POLYLINE
  8
0
 62
4
 66
1
 10
0.0
 20
0.0
 30
0.0
 70
2
  0
VERTEX
  8
0
 10
59.869568
 20
56.939129
 30
0.0
 70
0
  0
VERTEX
  8
0
 10
59.869568
 20
47.539127
 30
0.0
 70
0
  0
VERTEX
  8
0
 10
60.169567
 20
47.239128
 30
0.0
 70
0
  0
VERTEX
  8
0
 10
64.569565
 20
47.239128
 30
0.0
 70
0
  0
VERTEX
  8
0
 10
64.869568
 20
47.539127
 30
0.0
 70
0
  0
VERTEX
  8
0
 10
64.869568
 20
48.839127
 30
0.0
 70
0
  0
SEQEND
  8
0
  0
POLYLINE
  8
0
 62
4
 66
1
 10
0.0
 20
0.0
 30
0.0
 70
2
  0
VERTEX
  8
0
 10
65.269569
 20
49.239128
 30
0.0
 70
0
  0
VERTEX
  8
0
 10
71.569565
 20
49.239128
 30
0.0
 70
0
  0
VERTEX
  8
0
 10
71.869568
 20
49.539127
 30
0.0
 70
0
  0
VERTEX
  8
0
 10
71.869568
 20
70.939125
 30
0.0
 70
0
  0
VERTEX
  8
0
 10
71.569565
 20
71.239128
 30
0.0
 70
0
  0
VERTEX
  8
0
 10
65.269569
 20
71.239128
 30
0.0
 70
0
  0
SEQEND
  8
0
  0
POLYLINE
  8
0
 62
4
 66
1
 10
0.0
 20
0.0
 30
0.0
 70
2
  0
VERTEX
  8
0
 10
64.869568
 20
71.63913
 30
0.0
 70
0
  0
VERTEX
  8
0
 10
64.869568
 20
72.939125
 30
0.0
 70
0
  0
VERTEX
  8
0
 10
64.569565
 20
73.239128
 30
0.0
 70
0
  0
VERTEX
  8
0
 10
60.169567
 20
73.239128
 30
0.0
 70
0
  0
VERTEX
  8
0
 10
59.869568
 20
72.939125
 30
0.0
 70
0
  0
VERTEX
  8
0
 10
59.869568
 20
56.939129
 30
0.0
 70
0
  0
SEQEND
  8
0
  0
CIRCLE
  8
0
 62
4
 10
140.521744
 20
60.239128
 30
0.0
 40
3.0
  0
CIRCLE
  8
0
 62
4
 10
140.521744
 20
60.239128
 30
0.0
 40
11.0
  0
ENDSEC
  0
EOF
