  0
SECTION
  2
ENTITIES
  0
LINE
  8
0
 62
4
 10
15.5
 20
19.5
 30
0.0
 11
20.5
 21
19.5
 31
0.0
  0
LINE
  8
0
 62
4
 10
15.5
 20
13.25
 30
0.0
 11
20.5
 21
13.25
 31
0.0
  0
LINE
  8
0
 62
4
 10
31.5
 20
18.174999
 30
0.0
 11
31.200001
 21
17.875
 31
0.0
  0
LINE
  8
0
 62
4
 10
31.5
 20
14.575
 30
0.0
 11
31.200001
 21
14.875
 31
0.0
  0
LINE
  8
0
 62
4
 10
15.5
 20
14.575
 30
0.0
 11
15.8
 21
14.875
 31
0.0
  0
POLYLINE
  8
0
 62
4
 66
1
 10
0.0
 20
0.0
 30
0.0
 70
2
  0
VERTEX
  8
0
 10
20.5
 20
20.625
 30
0.0
 70
0
  0
VERTEX
  8
0
 10
20.5
 20
20.625
 30
0.0
 70
0
  0
VERTEX
  8
0
 10
15.8
 20
20.625
 30
0.0
 70
0
  0
VERTEX
  8
0
 10
15.5
 20
20.325001
 30
0.0
 70
0
  0
VERTEX
  8
0
 10
15.5
 20
14.575
 30
0.0
 70
0
  0
SEQEND
  8
0
  0
POLYLINE
  8
0
 62
4
 66
1
 10
0.0
 20
0.0
 30
0.0
 70
2
  0
VERTEX
  8
0
 10
15.5
 20
14.575
 30
0.0
 70
0
  0
VERTEX
  8
0
 10
15.5
 20
12.425
 30
0.0
 70
0
  0
VERTEX
  8
0
 10
15.8
 20
12.125
 30
0.0
 70
0
  0
VERTEX
  8
0
 10
20.5
 20
12.125
 30
0.0
 70
0
  0
VERTEX
  8
0
 10
20.5
 20
12.125
 30
0.0
 70
0
  0
VERTEX
  8
0
 10
20.5
 20
12.125
 30
0.0
 70
0
  0
VERTEX
  8
0
 10
31.200001
 20
12.125
 30
0.0
 70
0
  0
VERTEX
  8
0
 10
31.5
 20
12.425
 30
0.0
 70
0
  0
VERTEX
  8
0
 10
31.5
 20
20.325001
 30
0.0
 70
0
  0
VERTEX
  8
0
 10
31.200001
 20
20.625
 30
0.0
 70
0
  0
VERTEX
  8
0
 10
20.5
 20
20.625
 30
0.0
 70
0
  0
VERTEX
  8
0
 10
20.5
 20
20.625
 30
0.0
 70
0
  0
SEQEND
  8
0
  0
POLYLINE
  8
0
 62
4
 66
1
 10
0.0
 20
0.0
 30
0.0
 70
2
  0
VERTEX
  8
0
 10
15.5
 20
18.174999
 30
0.0
 70
0
  0
VERTEX
  8
0
 10
15.8
 20
17.875
 30
0.0
 70
0
  0
VERTEX
  8
0
 10
15.8
 20
14.875
 30
0.0
 70
0
  0
VERTEX
  8
0
 10
31.200001
 20
14.875
 30
0.0
 70
0
  0
VERTEX
  8
0
 10
31.200001
 20
17.875
 30
0.0
 70
0
  0
VERTEX
  8
0
 10
15.8
 20
17.875
 30
0.0
 70
0
  0
SEQEND
  8
0
  0
ARC
  8
0
 62
4
 10
20.5
 20
-6.75
 30
0.0
 40
20.0
 50
70.69116924575835
 51
90.0
  0
ARC
  8
0
 62
4
 10
20.5
 20
39.5
 30
0.0
 40
20.0
 50
270.0
 51
289.3088307542416
  0
POLYLINE
  8
0
 62
4
 66
1
 10
0.0
 20
0.0
 30
0.0
 70
2
  0
VERTEX
  8
0
 10
30.5
 20
20.625
 30
0.0
 70
0
  0
VERTEX
  8
0
 10
30.5
 20
17.875
 30
0.0
 70
0
  0
SEQEND
  8
0
  0
POLYLINE
  8
0
 62
4
 66
1
 10
0.0
 20
0.0
 30
0.0
 70
2
  0
VERTEX
  8
0
 10
27.5
 20
20.625
 30
0.0
 70
0
  0
VERTEX
  8
0
 10
27.5
 20
17.875
 30
0.0
 70
0
  0
SEQEND
  8
0
  0
POLYLINE
  8
0
 62
4
 66
1
 10
0.0
 20
0.0
 30
0.0
 70
2
  0
VERTEX
  8
0
 10
30.23
 20
20.625
 30
0.0
 70
0
  0
VERTEX
  8
0
 10
30.23
 20
17.875
 30
0.0
 70
0
  0
SEQEND
  8
0
  0
POLYLINE
  8
0
 62
4
 66
1
 10
0.0
 20
0.0
 30
0.0
 70
2
  0
VERTEX
  8
0
 10
27.77
 20
20.625
 30
0.0
 70
0
  0
VERTEX
  8
0
 10
27.77
 20
17.875
 30
0.0
 70
0
  0
SEQEND
  8
0
  0
POLYLINE
  8
0
 62
4
 66
1
 10
0.0
 20
0.0
 30
0.0
 70
2
  0
VERTEX
  8
0
 10
48.0
 20
16.375
 30
0.0
 70
0
  0
VERTEX
  8
0
 10
48.0
 20
20.351494
 30
0.0
 70
0
  0
SEQEND
  8
0
  0
POLYLINE
  8
0
 62
4
 66
1
 10
0.0
 20
0.0
 30
0.0
 70
2
  0
VERTEX
  8
0
 10
51.0
 20
16.375
 30
0.0
 70
0
  0
VERTEX
  8
0
 10
51.0
 20
20.351494
 30
0.0
 70
0
  0
SEQEND
  8
0
  0
POLYLINE
  8
0
 62
4
 66
1
 10
0.0
 20
0.0
 30
0.0
 70
2
  0
VERTEX
  8
0
 10
48.27
 20
17.233545
 30
0.0
 70
0
  0
VERTEX
  8
0
 10
48.27
 20
20.443119
 30
0.0
 70
0
  0
SEQEND
  8
0
  0
POLYLINE
  8
0
 62
4
 66
1
 10
0.0
 20
0.0
 30
0.0
 70
2
  0
VERTEX
  8
0
 10
50.73
 20
17.233545
 30
0.0
 70
0
  0
VERTEX
  8
0
 10
50.73
 20
20.443119
 30
0.0
 70
0
  0
SEQEND
  8
0
  0
CIRCLE
  8
0
 62
4
 10
49.5
 20
16.375
 30
0.0
 40
1.5
  0
CIRCLE
  8
0
 62
4
 10
49.5
 20
16.375
 30
0.0
 40
4.25
  0
ENDSEC
  0
EOF
