  0
SECTION
  2
ENTITIES
  0
LINE
  8
0
 62
4
 10
63.391304
 20
72.532608
 30
0.0
 11
73.391304
 21
72.532608
 31
0.0
  0
LINE
  8
0
 62
4
 10
63.391304
 20
55.032604
 30
0.0
 11
73.391304
 21
55.032604
 31
0.0
  0
LINE
  8
0
 62
4
 10
82.891304
 20
60.782604
 30
0.0
 11
83.391304
 21
60.282604
 31
0.0
  0
LINE
  8
0
 62
4
 10
82.891304
 20
66.782608
 30
0.0
 11
83.391304
 21
67.282608
 31
0.0
  0
LINE
  8
0
 62
4
 10
63.891304
 20
66.782608
 30
0.0
 11
63.891304
 21
60.782604
 31
0.0
  0
POLYLINE
  8
0
 62
4
 66
1
 10
0.0
 20
0.0
 30
0.0
 70
2
  0
VERTEX
  8
0
 10
63.391304
 20
60.282604
 30
0.0
 70
0
  0
VERTEX
  8
0
 10
63.891304
 20
60.782604
 30
0.0
 70
0
  0
VERTEX
  8
0
 10
82.891304
 20
60.782604
 30
0.0
 70
0
  0
VERTEX
  8
0
 10
82.891304
 20
66.782608
 30
0.0
 70
0
  0
VERTEX
  8
0
 10
63.891304
 20
66.782608
 30
0.0
 70
0
  0
VERTEX
  8
0
 10
63.391304
 20
67.282608
 30
0.0
 70
0
  0
SEQEND
  8
0
  0
ARC
  8
0
 62
4
 10
74.391304
 20
72.782608
 30
0.0
 40
1.0
 50
180.0
 51
270.0
  0
ARC
  8
0
 62
4
 10
74.391304
 20
54.782604
 30
0.0
 40
1.0
 50
90.0
 51
180.0
  0
POLYLINE
  8
0
 62
4
 66
1
 10
0.0
 20
0.0
 30
0.0
 70
2
  0
VERTEX
  8
0
 10
80.391304
 20
71.782608
 30
0.0
 70
0
  0
VERTEX
  8
0
 10
80.391304
 20
66.782608
 30
0.0
 70
0
  0
SEQEND
  8
0
  0
POLYLINE
  8
0
 62
4
 66
1
 10
0.0
 20
0.0
 30
0.0
 70
2
  0
VERTEX
  8
0
 10
76.391304
 20
71.782608
 30
0.0
 70
0
  0
VERTEX
  8
0
 10
76.391304
 20
66.782608
 30
0.0
 70
0
  0
SEQEND
  8
0
  0
POLYLINE
  8
0
 62
4
 66
1
 10
0.0
 20
0.0
 30
0.0
 70
2
  0
VERTEX
  8
0
 10
80.011307
 20
71.782608
 30
0.0
 70
0
  0
VERTEX
  8
0
 10
80.011307
 20
66.782608
 30
0.0
 70
0
  0
SEQEND
  8
0
  0
POLYLINE
  8
0
 62
4
 66
1
 10
0.0
 20
0.0
 30
0.0
 70
2
  0
VERTEX
  8
0
 10
76.771301
 20
71.782608
 30
0.0
 70
0
  0
VERTEX
  8
0
 10
76.771301
 20
66.782608
 30
0.0
 70
0
  0
SEQEND
  8
0
  0
POLYLINE
  8
0
 62
4
 66
1
 10
0.0
 20
0.0
 30
0.0
 70
2
  0
VERTEX
  8
0
 10
150.434784
 20
66.018669
 30
0.0
 70
0
  0
VERTEX
  8
0
 10
150.434784
 20
71.528572
 30
0.0
 70
0
  0
SEQEND
  8
0
  0
POLYLINE
  8
0
 62
4
 66
1
 10
0.0
 20
0.0
 30
0.0
 70
2
  0
VERTEX
  8
0
 10
154.434784
 20
66.018669
 30
0.0
 70
0
  0
VERTEX
  8
0
 10
154.434784
 20
71.528572
 30
0.0
 70
0
  0
SEQEND
  8
0
  0
POLYLINE
  8
0
 62
4
 66
1
 10
0.0
 20
0.0
 30
0.0
 70
2
  0
VERTEX
  8
0
 10
150.814789
 20
66.307602
 30
0.0
 70
0
  0
VERTEX
  8
0
 10
150.814789
 20
71.616859
 30
0.0
 70
0
  0
SEQEND
  8
0
  0
POLYLINE
  8
0
 62
4
 66
1
 10
0.0
 20
0.0
 30
0.0
 70
2
  0
VERTEX
  8
0
 10
154.054779
 20
66.307602
 30
0.0
 70
0
  0
VERTEX
  8
0
 10
154.054779
 20
71.616859
 30
0.0
 70
0
  0
SEQEND
  8
0
  0
POLYLINE
  8
0
 62
4
 66
1
 10
0.0
 20
0.0
 30
0.0
 70
2
  0
VERTEX
  8
0
 10
63.391304
 20
60.282604
 30
0.0
 70
0
  0
VERTEX
  8
0
 10
63.391304
 20
53.282604
 30
0.0
 70
0
  0
VERTEX
  8
0
 10
63.891304
 20
52.782604
 30
0.0
 70
0
  0
VERTEX
  8
0
 10
72.891304
 20
52.782604
 30
0.0
 70
0
  0
VERTEX
  8
0
 10
73.391304
 20
53.282604
 30
0.0
 70
0
  0
VERTEX
  8
0
 10
73.391304
 20
54.782604
 30
0.0
 70
0
  0
SEQEND
  8
0
  0
POLYLINE
  8
0
 62
4
 66
1
 10
0.0
 20
0.0
 30
0.0
 70
2
  0
VERTEX
  8
0
 10
74.391304
 20
55.782604
 30
0.0
 70
0
  0
VERTEX
  8
0
 10
82.891304
 20
55.782604
 30
0.0
 70
0
  0
VERTEX
  8
0
 10
83.391304
 20
56.282604
 30
0.0
 70
0
  0
VERTEX
  8
0
 10
83.391304
 20
71.282608
 30
0.0
 70
0
  0
VERTEX
  8
0
 10
82.891304
 20
71.782608
 30
0.0
 70
0
  0
VERTEX
  8
0
 10
74.391304
 20
71.782608
 30
0.0
 70
0
  0
SEQEND
  8
0
  0
POLYLINE
  8
0
 62
4
 66
1
 10
0.0
 20
0.0
 30
0.0
 70
2
  0
VERTEX
  8
0
 10
73.391304
 20
72.782608
 30
0.0
 70
0
  0
VERTEX
  8
0
 10
73.391304
 20
74.282608
 30
0.0
 70
0
  0
VERTEX
  8
0
 10
72.891304
 20
74.782608
 30
0.0
 70
0
  0
VERTEX
  8
0
 10
63.891304
 20
74.782608
 30
0.0
 70
0
  0
VERTEX
  8
0
 10
63.391304
 20
74.282608
 30
0.0
 70
0
  0
VERTEX
  8
0
 10
63.391304
 20
60.282604
 30
0.0
 70
0
  0
SEQEND
  8
0
  0
CIRCLE
  8
0
 62
4
 10
152.434784
 20
63.782604
 30
0.0
 40
3.0
  0
CIRCLE
  8
0
 62
4
 10
152.434784
 20
63.782604
 30
0.0
 40
8.0
  0
ENDSEC
  0
EOF
