  0
SECTION
  2
ENTITIES
  0
LINE
  8
0
 62
4
 10
132.065216
 20
173.005432
 30
0.0
 11
147.065216
 21
173.005432
 31
0.0
  0
LINE
  8
0
 62
4
 10
132.065216
 20
92.755432
 30
0.0
 11
147.065216
 21
92.755432
 31
0.0
  0
LINE
  8
0
 62
4
 10
156.065216
 20
117.880432
 30
0.0
 11
157.065216
 21
116.880432
 31
0.0
  0
LINE
  8
0
 62
4
 10
156.065216
 20
147.880432
 30
0.0
 11
157.065216
 21
148.880432
 31
0.0
  0
LINE
  8
0
 62
4
 10
133.065216
 20
147.880432
 30
0.0
 11
133.065216
 21
117.880432
 31
0.0
  0
POLYLINE
  8
0
 62
4
 66
1
 10
0.0
 20
0.0
 30
0.0
 70
2
  0
VERTEX
  8
0
 10
132.065216
 20
116.880432
 30
0.0
 70
0
  0
VERTEX
  8
0
 10
133.065216
 20
117.880432
 30
0.0
 70
0
  0
VERTEX
  8
0
 10
156.065216
 20
117.880432
 30
0.0
 70
0
  0
VERTEX
  8
0
 10
156.065216
 20
147.880432
 30
0.0
 70
0
  0
VERTEX
  8
0
 10
133.065216
 20
147.880432
 30
0.0
 70
0
  0
VERTEX
  8
0
 10
132.065216
 20
148.880432
 30
0.0
 70
0
  0
SEQEND
  8
0
  0
ARC
  8
0
 62
4
 10
148.065216
 20
158.880432
 30
0.0
 40
1.0
 50
180.0
 51
270.0
  0
ARC
  8
0
 62
4
 10
148.065216
 20
106.880432
 30
0.0
 40
1.0
 50
90.0
 51
180.0
  0
ARC
  8
0
 62
4
 10
309.239136
 20
132.880432
 30
0.0
 40
15.0
 50
105.46601032289746
 51
74.53398967710255
  0
POLYLINE
  8
0
 62
4
 66
1
 10
0.0
 20
0.0
 30
0.0
 70
2
  0
VERTEX
  8
0
 10
313.239136
 20
147.337265
 30
0.0
 70
0
  0
VERTEX
  8
0
 10
313.239136
 20
151.180435
 30
0.0
 70
0
  0
VERTEX
  8
0
 10
305.239136
 20
151.180435
 30
0.0
 70
0
  0
VERTEX
  8
0
 10
305.239136
 20
147.337265
 30
0.0
 70
0
  0
SEQEND
  8
0
  0
LINE
  8
0
 62
4
 10
132.065216
 20
151.180435
 30
0.0
 11
157.065216
 21
151.180435
 31
0.0
  0
POLYLINE
  8
0
 62
4
 66
1
 10
0.0
 20
0.0
 30
0.0
 70
2
  0
VERTEX
  8
0
 10
155.065216
 20
157.880432
 30
0.0
 70
0
  0
VERTEX
  8
0
 10
155.065216
 20
151.180435
 30
0.0
 70
0
  0
SEQEND
  8
0
  0
POLYLINE
  8
0
 62
4
 66
1
 10
0.0
 20
0.0
 30
0.0
 70
2
  0
VERTEX
  8
0
 10
149.065216
 20
157.880432
 30
0.0
 70
0
  0
VERTEX
  8
0
 10
149.065216
 20
151.180435
 30
0.0
 70
0
  0
SEQEND
  8
0
  0
POLYLINE
  8
0
 62
4
 66
1
 10
0.0
 20
0.0
 30
0.0
 70
2
  0
VERTEX
  8
0
 10
154.525208
 20
157.880432
 30
0.0
 70
0
  0
VERTEX
  8
0
 10
154.525208
 20
151.180435
 30
0.0
 70
0
  0
SEQEND
  8
0
  0
POLYLINE
  8
0
 62
4
 66
1
 10
0.0
 20
0.0
 30
0.0
 70
2
  0
VERTEX
  8
0
 10
149.605225
 20
157.880432
 30
0.0
 70
0
  0
VERTEX
  8
0
 10
149.605225
 20
151.180435
 30
0.0
 70
0
  0
SEQEND
  8
0
  0
POLYLINE
  8
0
 62
4
 66
1
 10
0.0
 20
0.0
 30
0.0
 70
2
  0
VERTEX
  8
0
 10
306.239136
 20
151.180435
 30
0.0
 70
0
  0
VERTEX
  8
0
 10
306.239136
 20
157.699783
 30
0.0
 70
0
  0
SEQEND
  8
0
  0
POLYLINE
  8
0
 62
4
 66
1
 10
0.0
 20
0.0
 30
0.0
 70
2
  0
VERTEX
  8
0
 10
312.239136
 20
151.180435
 30
0.0
 70
0
  0
VERTEX
  8
0
 10
312.239136
 20
157.699783
 30
0.0
 70
0
  0
SEQEND
  8
0
  0
POLYLINE
  8
0
 62
4
 66
1
 10
0.0
 20
0.0
 30
0.0
 70
2
  0
VERTEX
  8
0
 10
306.779114
 20
151.180435
 30
0.0
 70
0
  0
VERTEX
  8
0
 10
306.779114
 20
157.759109
 30
0.0
 70
0
  0
SEQEND
  8
0
  0
POLYLINE
  8
0
 62
4
 66
1
 10
0.0
 20
0.0
 30
0.0
 70
2
  0
VERTEX
  8
0
 10
311.699158
 20
151.180435
 30
0.0
 70
0
  0
VERTEX
  8
0
 10
311.699158
 20
157.759109
 30
0.0
 70
0
  0
SEQEND
  8
0
  0
CIRCLE
  8
0
 62
7
 10
152.065216
 20
132.880432
 30
0.0
 40
3.0
  0
CIRCLE
  8
0
 62
4
 10
152.065216
 20
132.880432
 30
0.0
 40
2.46
  0
POLYLINE
  8
0
 62
4
 66
1
 10
0.0
 20
0.0
 30
0.0
 70
2
  0
VERTEX
  8
0
 10
323.936096
 20
135.880432
 30
0.0
 70
0
  0
VERTEX
  8
0
 10
334.058472
 20
135.880432
 30
0.0
 70
0
  0
SEQEND
  8
0
  0
POLYLINE
  8
0
 62
4
 66
1
 10
0.0
 20
0.0
 30
0.0
 70
2
  0
VERTEX
  8
0
 10
323.936096
 20
129.880432
 30
0.0
 70
0
  0
VERTEX
  8
0
 10
334.058472
 20
129.880432
 30
0.0
 70
0
  0
SEQEND
  8
0
  0
POLYLINE
  8
0
 62
4
 66
1
 10
0.0
 20
0.0
 30
0.0
 70
2
  0
VERTEX
  8
0
 10
324.036041
 20
135.340439
 30
0.0
 70
0
  0
VERTEX
  8
0
 10
334.117798
 20
135.340439
 30
0.0
 70
0
  0
SEQEND
  8
0
  0
POLYLINE
  8
0
 62
4
 66
1
 10
0.0
 20
0.0
 30
0.0
 70
2
  0
VERTEX
  8
0
 10
324.036041
 20
130.420425
 30
0.0
 70
0
  0
VERTEX
  8
0
 10
334.117798
 20
130.420425
 30
0.0
 70
0
  0
SEQEND
  8
0
  0
POLYLINE
  8
0
 62
4
 66
1
 10
0.0
 20
0.0
 30
0.0
 70
2
  0
VERTEX
  8
0
 10
132.065216
 20
116.880432
 30
0.0
 70
0
  0
VERTEX
  8
0
 10
132.065216
 20
89.880432
 30
0.0
 70
0
  0
VERTEX
  8
0
 10
132.565216
 20
89.380432
 30
0.0
 70
0
  0
VERTEX
  8
0
 10
146.565216
 20
89.380432
 30
0.0
 70
0
  0
VERTEX
  8
0
 10
147.065216
 20
89.880432
 30
0.0
 70
0
  0
VERTEX
  8
0
 10
147.065216
 20
106.880432
 30
0.0
 70
0
  0
SEQEND
  8
0
  0
POLYLINE
  8
0
 62
4
 66
1
 10
0.0
 20
0.0
 30
0.0
 70
2
  0
VERTEX
  8
0
 10
148.065216
 20
107.880432
 30
0.0
 70
0
  0
VERTEX
  8
0
 10
156.565216
 20
107.880432
 30
0.0
 70
0
  0
VERTEX
  8
0
 10
157.065216
 20
108.380432
 30
0.0
 70
0
  0
VERTEX
  8
0
 10
157.065216
 20
157.380432
 30
0.0
 70
0
  0
VERTEX
  8
0
 10
156.565216
 20
157.880432
 30
0.0
 70
0
  0
VERTEX
  8
0
 10
148.065216
 20
157.880432
 30
0.0
 70
0
  0
SEQEND
  8
0
  0
POLYLINE
  8
0
 62
4
 66
1
 10
0.0
 20
0.0
 30
0.0
 70
2
  0
VERTEX
  8
0
 10
147.065216
 20
158.880432
 30
0.0
 70
0
  0
VERTEX
  8
0
 10
147.065216
 20
175.880432
 30
0.0
 70
0
  0
VERTEX
  8
0
 10
146.565216
 20
176.380432
 30
0.0
 70
0
  0
VERTEX
  8
0
 10
132.565216
 20
176.380432
 30
0.0
 70
0
  0
VERTEX
  8
0
 10
132.065216
 20
175.880432
 30
0.0
 70
0
  0
VERTEX
  8
0
 10
132.065216
 20
116.880432
 30
0.0
 70
0
  0
SEQEND
  8
0
  0
CIRCLE
  8
0
 62
4
 10
309.239136
 20
132.880432
 30
0.0
 40
25.0
  0
ENDSEC
  0
EOF
