  0
SECTION
  2
ENTITIES
  0
LINE
  8
0
 62
4
 10
132.065216
 20
170.005432
 30
0.0
 11
147.065216
 21
170.005432
 31
0.0
  0
LINE
  8
0
 62
4
 10
132.065216
 20
95.755432
 30
0.0
 11
147.065216
 21
95.755432
 31
0.0
  0
LINE
  8
0
 62
4
 10
156.565216
 20
124.880432
 30
0.0
 11
157.065216
 21
124.380432
 31
0.0
  0
LINE
  8
0
 62
4
 10
156.565216
 20
140.880432
 30
0.0
 11
157.065216
 21
141.380432
 31
0.0
  0
LINE
  8
0
 62
4
 10
132.565216
 20
140.880432
 30
0.0
 11
132.565216
 21
124.880432
 31
0.0
  0
POLYLINE
  8
0
 62
4
 66
1
 10
0.0
 20
0.0
 30
0.0
 70
2
  0
VERTEX
  8
0
 10
132.065216
 20
124.380432
 30
0.0
 70
0
  0
VERTEX
  8
0
 10
132.565216
 20
124.880432
 30
0.0
 70
0
  0
VERTEX
  8
0
 10
156.565216
 20
124.880432
 30
0.0
 70
0
  0
VERTEX
  8
0
 10
156.565216
 20
140.880432
 30
0.0
 70
0
  0
VERTEX
  8
0
 10
132.565216
 20
140.880432
 30
0.0
 70
0
  0
VERTEX
  8
0
 10
132.065216
 20
141.380432
 30
0.0
 70
0
  0
SEQEND
  8
0
  0
ARC
  8
0
 62
4
 10
148.065216
 20
158.880432
 30
0.0
 40
1.0
 50
180.0
 51
270.0
  0
ARC
  8
0
 62
4
 10
148.065216
 20
106.880432
 30
0.0
 40
1.0
 50
90.0
 51
180.0
  0
ARC
  8
0
 62
4
 10
309.239136
 20
132.880432
 30
0.0
 40
8.0
 50
108.20995732853793
 51
71.79004267146207
  0
POLYLINE
  8
0
 62
4
 66
1
 10
0.0
 20
0.0
 30
0.0
 70
2
  0
VERTEX
  8
0
 10
311.739136
 20
140.479767
 30
0.0
 70
0
  0
VERTEX
  8
0
 10
311.739136
 20
143.180435
 30
0.0
 70
0
  0
VERTEX
  8
0
 10
306.739136
 20
143.180435
 30
0.0
 70
0
  0
VERTEX
  8
0
 10
306.739136
 20
140.479767
 30
0.0
 70
0
  0
SEQEND
  8
0
  0
LINE
  8
0
 62
4
 10
132.065216
 20
143.180435
 30
0.0
 11
157.065216
 21
143.180435
 31
0.0
  0
POLYLINE
  8
0
 62
4
 66
1
 10
0.0
 20
0.0
 30
0.0
 70
2
  0
VERTEX
  8
0
 10
154.065216
 20
157.880432
 30
0.0
 70
0
  0
VERTEX
  8
0
 10
154.065216
 20
143.180435
 30
0.0
 70
0
  0
SEQEND
  8
0
  0
POLYLINE
  8
0
 62
4
 66
1
 10
0.0
 20
0.0
 30
0.0
 70
2
  0
VERTEX
  8
0
 10
150.065216
 20
157.880432
 30
0.0
 70
0
  0
VERTEX
  8
0
 10
150.065216
 20
143.180435
 30
0.0
 70
0
  0
SEQEND
  8
0
  0
POLYLINE
  8
0
 62
4
 66
1
 10
0.0
 20
0.0
 30
0.0
 70
2
  0
VERTEX
  8
0
 10
153.685211
 20
157.880432
 30
0.0
 70
0
  0
VERTEX
  8
0
 10
153.685211
 20
143.180435
 30
0.0
 70
0
  0
SEQEND
  8
0
  0
POLYLINE
  8
0
 62
4
 66
1
 10
0.0
 20
0.0
 30
0.0
 70
2
  0
VERTEX
  8
0
 10
150.445221
 20
157.880432
 30
0.0
 70
0
  0
VERTEX
  8
0
 10
150.445221
 20
143.180435
 30
0.0
 70
0
  0
SEQEND
  8
0
  0
POLYLINE
  8
0
 62
4
 66
1
 10
0.0
 20
0.0
 30
0.0
 70
2
  0
VERTEX
  8
0
 10
307.239136
 20
143.180435
 30
0.0
 70
0
  0
VERTEX
  8
0
 10
307.239136
 20
157.800308
 30
0.0
 70
0
  0
SEQEND
  8
0
  0
POLYLINE
  8
0
 62
4
 66
1
 10
0.0
 20
0.0
 30
0.0
 70
2
  0
VERTEX
  8
0
 10
311.239136
 20
143.180435
 30
0.0
 70
0
  0
VERTEX
  8
0
 10
311.239136
 20
157.800308
 30
0.0
 70
0
  0
SEQEND
  8
0
  0
POLYLINE
  8
0
 62
4
 66
1
 10
0.0
 20
0.0
 30
0.0
 70
2
  0
VERTEX
  8
0
 10
307.619141
 20
143.180435
 30
0.0
 70
0
  0
VERTEX
  8
0
 10
307.619141
 20
157.827881
 30
0.0
 70
0
  0
SEQEND
  8
0
  0
POLYLINE
  8
0
 62
4
 66
1
 10
0.0
 20
0.0
 30
0.0
 70
2
  0
VERTEX
  8
0
 10
310.859131
 20
143.180435
 30
0.0
 70
0
  0
VERTEX
  8
0
 10
310.859131
 20
157.827881
 30
0.0
 70
0
  0
SEQEND
  8
0
  0
CIRCLE
  8
0
 62
7
 10
152.065216
 20
132.880432
 30
0.0
 40
2.0
  0
CIRCLE
  8
0
 62
4
 10
152.065216
 20
132.880432
 30
0.0
 40
1.62
  0
POLYLINE
  8
0
 62
4
 66
1
 10
0.0
 20
0.0
 30
0.0
 70
2
  0
VERTEX
  8
0
 10
316.985107
 20
134.880432
 30
0.0
 70
0
  0
VERTEX
  8
0
 10
334.158997
 20
134.880432
 30
0.0
 70
0
  0
SEQEND
  8
0
  0
POLYLINE
  8
0
 62
4
 66
1
 10
0.0
 20
0.0
 30
0.0
 70
2
  0
VERTEX
  8
0
 10
316.985107
 20
130.880432
 30
0.0
 70
0
  0
VERTEX
  8
0
 10
334.158997
 20
130.880432
 30
0.0
 70
0
  0
SEQEND
  8
0
  0
POLYLINE
  8
0
 62
4
 66
1
 10
0.0
 20
0.0
 30
0.0
 70
2
  0
VERTEX
  8
0
 10
317.073395
 20
134.500427
 30
0.0
 70
0
  0
VERTEX
  8
0
 10
334.186584
 20
134.500427
 30
0.0
 70
0
  0
SEQEND
  8
0
  0
POLYLINE
  8
0
 62
4
 66
1
 10
0.0
 20
0.0
 30
0.0
 70
2
  0
VERTEX
  8
0
 10
317.073395
 20
131.260437
 30
0.0
 70
0
  0
VERTEX
  8
0
 10
334.186584
 20
131.260437
 30
0.0
 70
0
  0
SEQEND
  8
0
  0
POLYLINE
  8
0
 62
4
 66
1
 10
0.0
 20
0.0
 30
0.0
 70
2
  0
VERTEX
  8
0
 10
132.065216
 20
124.380432
 30
0.0
 70
0
  0
VERTEX
  8
0
 10
132.065216
 20
92.880432
 30
0.0
 70
0
  0
VERTEX
  8
0
 10
132.565216
 20
92.380432
 30
0.0
 70
0
  0
VERTEX
  8
0
 10
146.565216
 20
92.380432
 30
0.0
 70
0
  0
VERTEX
  8
0
 10
147.065216
 20
92.880432
 30
0.0
 70
0
  0
VERTEX
  8
0
 10
147.065216
 20
106.880432
 30
0.0
 70
0
  0
SEQEND
  8
0
  0
POLYLINE
  8
0
 62
4
 66
1
 10
0.0
 20
0.0
 30
0.0
 70
2
  0
VERTEX
  8
0
 10
148.065216
 20
107.880432
 30
0.0
 70
0
  0
VERTEX
  8
0
 10
156.565216
 20
107.880432
 30
0.0
 70
0
  0
VERTEX
  8
0
 10
157.065216
 20
108.380432
 30
0.0
 70
0
  0
VERTEX
  8
0
 10
157.065216
 20
157.380432
 30
0.0
 70
0
  0
VERTEX
  8
0
 10
156.565216
 20
157.880432
 30
0.0
 70
0
  0
VERTEX
  8
0
 10
148.065216
 20
157.880432
 30
0.0
 70
0
  0
SEQEND
  8
0
  0
POLYLINE
  8
0
 62
4
 66
1
 10
0.0
 20
0.0
 30
0.0
 70
2
  0
VERTEX
  8
0
 10
147.065216
 20
158.880432
 30
0.0
 70
0
  0
VERTEX
  8
0
 10
147.065216
 20
172.880432
 30
0.0
 70
0
  0
VERTEX
  8
0
 10
146.565216
 20
173.380432
 30
0.0
 70
0
  0
VERTEX
  8
0
 10
132.565216
 20
173.380432
 30
0.0
 70
0
  0
VERTEX
  8
0
 10
132.065216
 20
172.880432
 30
0.0
 70
0
  0
VERTEX
  8
0
 10
132.065216
 20
124.380432
 30
0.0
 70
0
  0
SEQEND
  8
0
  0
CIRCLE
  8
0
 62
4
 10
309.239136
 20
132.880432
 30
0.0
 40
25.0
  0
ENDSEC
  0
EOF
