  0
SECTION
  2
ENTITIES
  0
LINE
  8
0
 62
4
 10
140.869568
 20
190.864136
 30
0.0
 11
155.869568
 21
190.864136
 31
0.0
  0
LINE
  8
0
 62
4
 10
140.869568
 20
92.614136
 30
0.0
 11
155.869568
 21
92.614136
 31
0.0
  0
LINE
  8
0
 62
4
 10
165.369568
 20
133.239136
 30
0.0
 11
165.869568
 21
132.739136
 31
0.0
  0
LINE
  8
0
 62
4
 10
165.369568
 20
150.239136
 30
0.0
 11
165.869568
 21
150.739136
 31
0.0
  0
LINE
  8
0
 62
4
 10
141.369568
 20
150.239136
 30
0.0
 11
141.369568
 21
133.239136
 31
0.0
  0
POLYLINE
  8
0
 62
4
 66
1
 10
0.0
 20
0.0
 30
0.0
 70
2
  0
VERTEX
  8
0
 10
140.869568
 20
132.739136
 30
0.0
 70
0
  0
VERTEX
  8
0
 10
141.369568
 20
133.239136
 30
0.0
 70
0
  0
VERTEX
  8
0
 10
165.369568
 20
133.239136
 30
0.0
 70
0
  0
VERTEX
  8
0
 10
165.369568
 20
150.239136
 30
0.0
 70
0
  0
VERTEX
  8
0
 10
141.369568
 20
150.239136
 30
0.0
 70
0
  0
VERTEX
  8
0
 10
140.869568
 20
150.739136
 30
0.0
 70
0
  0
SEQEND
  8
0
  0
ARC
  8
0
 62
4
 10
156.869568
 20
170.239136
 30
0.0
 40
1.0
 50
180.0
 51
270.0
  0
ARC
  8
0
 62
4
 10
156.869568
 20
113.239136
 30
0.0
 40
1.0
 50
90.0
 51
180.0
  0
ARC
  8
0
 62
4
 10
329.021729
 20
141.739136
 30
0.0
 40
8.5
 50
107.10463483476482
 51
72.89536516523518
  0
POLYLINE
  8
0
 62
4
 66
1
 10
0.0
 20
0.0
 30
0.0
 70
2
  0
VERTEX
  8
0
 10
331.521729
 20
149.863174
 30
0.0
 70
0
  0
VERTEX
  8
0
 10
331.521729
 20
152.539139
 30
0.0
 70
0
  0
VERTEX
  8
0
 10
326.521729
 20
152.539139
 30
0.0
 70
0
  0
VERTEX
  8
0
 10
326.521729
 20
149.863174
 30
0.0
 70
0
  0
SEQEND
  8
0
  0
LINE
  8
0
 62
4
 10
140.869568
 20
152.539139
 30
0.0
 11
165.869568
 21
152.539139
 31
0.0
  0
POLYLINE
  8
0
 62
4
 66
1
 10
0.0
 20
0.0
 30
0.0
 70
2
  0
VERTEX
  8
0
 10
162.869568
 20
169.239136
 30
0.0
 70
0
  0
VERTEX
  8
0
 10
162.869568
 20
152.539139
 30
0.0
 70
0
  0
SEQEND
  8
0
  0
POLYLINE
  8
0
 62
4
 66
1
 10
0.0
 20
0.0
 30
0.0
 70
2
  0
VERTEX
  8
0
 10
158.869568
 20
169.239136
 30
0.0
 70
0
  0
VERTEX
  8
0
 10
158.869568
 20
152.539139
 30
0.0
 70
0
  0
SEQEND
  8
0
  0
POLYLINE
  8
0
 62
4
 66
1
 10
0.0
 20
0.0
 30
0.0
 70
2
  0
VERTEX
  8
0
 10
162.489563
 20
169.239136
 30
0.0
 70
0
  0
VERTEX
  8
0
 10
162.489563
 20
152.539139
 30
0.0
 70
0
  0
SEQEND
  8
0
  0
POLYLINE
  8
0
 62
4
 66
1
 10
0.0
 20
0.0
 30
0.0
 70
2
  0
VERTEX
  8
0
 10
159.249573
 20
169.239136
 30
0.0
 70
0
  0
VERTEX
  8
0
 10
159.249573
 20
152.539139
 30
0.0
 70
0
  0
SEQEND
  8
0
  0
POLYLINE
  8
0
 62
4
 66
1
 10
0.0
 20
0.0
 30
0.0
 70
2
  0
VERTEX
  8
0
 10
327.021729
 20
152.539139
 30
0.0
 70
0
  0
VERTEX
  8
0
 10
327.021729
 20
169.166306
 30
0.0
 70
0
  0
SEQEND
  8
0
  0
POLYLINE
  8
0
 62
4
 66
1
 10
0.0
 20
0.0
 30
0.0
 70
2
  0
VERTEX
  8
0
 10
331.021729
 20
152.539139
 30
0.0
 70
0
  0
VERTEX
  8
0
 10
331.021729
 20
169.166306
 30
0.0
 70
0
  0
SEQEND
  8
0
  0
POLYLINE
  8
0
 62
4
 66
1
 10
0.0
 20
0.0
 30
0.0
 70
2
  0
VERTEX
  8
0
 10
327.401733
 20
152.539139
 30
0.0
 70
0
  0
VERTEX
  8
0
 10
327.401733
 20
169.191376
 30
0.0
 70
0
  0
SEQEND
  8
0
  0
POLYLINE
  8
0
 62
4
 66
1
 10
0.0
 20
0.0
 30
0.0
 70
2
  0
VERTEX
  8
0
 10
330.641724
 20
152.539139
 30
0.0
 70
0
  0
VERTEX
  8
0
 10
330.641724
 20
169.191376
 30
0.0
 70
0
  0
SEQEND
  8
0
  0
CIRCLE
  8
0
 62
7
 10
160.869568
 20
141.739136
 30
0.0
 40
2.0
  0
CIRCLE
  8
0
 62
4
 10
160.869568
 20
141.739136
 30
0.0
 40
1.62
  0
POLYLINE
  8
0
 62
4
 66
1
 10
0.0
 20
0.0
 30
0.0
 70
2
  0
VERTEX
  8
0
 10
337.283081
 20
143.739136
 30
0.0
 70
0
  0
VERTEX
  8
0
 10
356.448914
 20
143.739136
 30
0.0
 70
0
  0
SEQEND
  8
0
  0
POLYLINE
  8
0
 62
4
 66
1
 10
0.0
 20
0.0
 30
0.0
 70
2
  0
VERTEX
  8
0
 10
337.283081
 20
139.739136
 30
0.0
 70
0
  0
VERTEX
  8
0
 10
356.448914
 20
139.739136
 30
0.0
 70
0
  0
SEQEND
  8
0
  0
POLYLINE
  8
0
 62
4
 66
1
 10
0.0
 20
0.0
 30
0.0
 70
2
  0
VERTEX
  8
0
 10
337.365936
 20
143.359131
 30
0.0
 70
0
  0
VERTEX
  8
0
 10
356.473999
 20
143.359131
 30
0.0
 70
0
  0
SEQEND
  8
0
  0
POLYLINE
  8
0
 62
4
 66
1
 10
0.0
 20
0.0
 30
0.0
 70
2
  0
VERTEX
  8
0
 10
337.365936
 20
140.119141
 30
0.0
 70
0
  0
VERTEX
  8
0
 10
356.473999
 20
140.119141
 30
0.0
 70
0
  0
SEQEND
  8
0
  0
POLYLINE
  8
0
 62
4
 66
1
 10
0.0
 20
0.0
 30
0.0
 70
2
  0
VERTEX
  8
0
 10
140.869568
 20
132.739136
 30
0.0
 70
0
  0
VERTEX
  8
0
 10
140.869568
 20
89.739136
 30
0.0
 70
0
  0
VERTEX
  8
0
 10
141.369568
 20
89.239136
 30
0.0
 70
0
  0
VERTEX
  8
0
 10
155.369568
 20
89.239136
 30
0.0
 70
0
  0
VERTEX
  8
0
 10
155.869568
 20
89.739136
 30
0.0
 70
0
  0
VERTEX
  8
0
 10
155.869568
 20
113.239136
 30
0.0
 70
0
  0
SEQEND
  8
0
  0
POLYLINE
  8
0
 62
4
 66
1
 10
0.0
 20
0.0
 30
0.0
 70
2
  0
VERTEX
  8
0
 10
156.869568
 20
114.239136
 30
0.0
 70
0
  0
VERTEX
  8
0
 10
165.369568
 20
114.239136
 30
0.0
 70
0
  0
VERTEX
  8
0
 10
165.869568
 20
114.739136
 30
0.0
 70
0
  0
VERTEX
  8
0
 10
165.869568
 20
168.739136
 30
0.0
 70
0
  0
VERTEX
  8
0
 10
165.369568
 20
169.239136
 30
0.0
 70
0
  0
VERTEX
  8
0
 10
156.869568
 20
169.239136
 30
0.0
 70
0
  0
SEQEND
  8
0
  0
POLYLINE
  8
0
 62
4
 66
1
 10
0.0
 20
0.0
 30
0.0
 70
2
  0
VERTEX
  8
0
 10
155.869568
 20
170.239136
 30
0.0
 70
0
  0
VERTEX
  8
0
 10
155.869568
 20
193.739136
 30
0.0
 70
0
  0
VERTEX
  8
0
 10
155.369568
 20
194.239136
 30
0.0
 70
0
  0
VERTEX
  8
0
 10
141.369568
 20
194.239136
 30
0.0
 70
0
  0
VERTEX
  8
0
 10
140.869568
 20
193.739136
 30
0.0
 70
0
  0
VERTEX
  8
0
 10
140.869568
 20
132.739136
 30
0.0
 70
0
  0
SEQEND
  8
0
  0
CIRCLE
  8
0
 62
4
 10
329.021729
 20
141.739136
 30
0.0
 40
27.5
  0
ENDSEC
  0
EOF
