  0
SECTION
  2
ENTITIES
  0
ARC
  8
0
 62
4
 10
186.864868
 20
218.08107
 30
0.0
 40
2.0
 50
270.0
 51
0.0
  0
ARC
  8
0
 62
4
 10
186.864868
 20
154.08107
 30
0.0
 40
2.0
 50
0.0
 51
90.0
  0
LINE
  8
0
 62
4
 10
184.864868
 20
263.581055
 30
0.0
 11
204.864868
 21
263.581055
 31
0.0
  0
LINE
  8
0
 62
4
 10
184.864868
 20
108.58107
 30
0.0
 11
204.864868
 21
108.58107
 31
0.0
  0
LINE
  8
0
 62
4
 10
214.864868
 20
197.08107
 30
0.0
 11
213.864868
 21
196.08107
 31
0.0
  0
LINE
  8
0
 62
4
 10
214.864868
 20
175.08107
 30
0.0
 11
213.864868
 21
176.08107
 31
0.0
  0
LINE
  8
0
 62
4
 10
184.864868
 20
175.08107
 30
0.0
 11
185.864868
 21
176.08107
 31
0.0
  0
LINE
  8
0
 62
4
 10
184.864868
 20
216.08107
 30
0.0
 11
186.864868
 21
216.08107
 31
0.0
  0
LINE
  8
0
 62
4
 10
184.864868
 20
156.08107
 30
0.0
 11
186.864868
 21
156.08107
 31
0.0
  0
POLYLINE
  8
0
 62
4
 66
1
 10
0.0
 20
0.0
 30
0.0
 70
2
  0
VERTEX
  8
0
 10
200.864868
 20
218.08107
 30
0.0
 70
0
  0
VERTEX
  8
0
 10
200.864868
 20
246.230621
 30
0.0
 70
0
  0
VERTEX
  8
0
 10
204.864868
 20
254.08107
 30
0.0
 70
0
  0
SEQEND
  8
0
  0
POLYLINE
  8
0
 62
4
 66
1
 10
0.0
 20
0.0
 30
0.0
 70
2
  0
VERTEX
  8
0
 10
188.864868
 20
218.08107
 30
0.0
 70
0
  0
VERTEX
  8
0
 10
188.864868
 20
246.230621
 30
0.0
 70
0
  0
VERTEX
  8
0
 10
184.864868
 20
254.08107
 30
0.0
 70
0
  0
SEQEND
  8
0
  0
POLYLINE
  8
0
 62
4
 66
1
 10
0.0
 20
0.0
 30
0.0
 70
2
  0
VERTEX
  8
0
 10
200.864868
 20
154.08107
 30
0.0
 70
0
  0
VERTEX
  8
0
 10
200.864868
 20
125.931511
 30
0.0
 70
0
  0
VERTEX
  8
0
 10
204.864868
 20
118.08107
 30
0.0
 70
0
  0
SEQEND
  8
0
  0
POLYLINE
  8
0
 62
4
 66
1
 10
0.0
 20
0.0
 30
0.0
 70
2
  0
VERTEX
  8
0
 10
188.864868
 20
154.08107
 30
0.0
 70
0
  0
VERTEX
  8
0
 10
188.864868
 20
125.931511
 30
0.0
 70
0
  0
VERTEX
  8
0
 10
184.864868
 20
118.08107
 30
0.0
 70
0
  0
SEQEND
  8
0
  0
POLYLINE
  8
0
 62
4
 66
1
 10
0.0
 20
0.0
 30
0.0
 70
2
  0
VERTEX
  8
0
 10
184.864868
 20
197.08107
 30
0.0
 70
0
  0
VERTEX
  8
0
 10
185.864868
 20
196.08107
 30
0.0
 70
0
  0
VERTEX
  8
0
 10
185.864868
 20
176.08107
 30
0.0
 70
0
  0
VERTEX
  8
0
 10
213.864868
 20
176.08107
 30
0.0
 70
0
  0
VERTEX
  8
0
 10
213.864868
 20
196.08107
 30
0.0
 70
0
  0
VERTEX
  8
0
 10
185.864868
 20
196.08107
 30
0.0
 70
0
  0
SEQEND
  8
0
  0
ARC
  8
0
 62
4
 10
475.945953
 20
186.08107
 30
0.0
 40
10.0
 50
107.45760274776076
 51
72.54239725223924
  0
POLYLINE
  8
0
 62
4
 66
1
 10
0.0
 20
0.0
 30
0.0
 70
2
  0
VERTEX
  8
0
 10
478.945953
 20
195.620468
 30
0.0
 70
0
  0
VERTEX
  8
0
 10
478.945953
 20
198.881073
 30
0.0
 70
0
  0
VERTEX
  8
0
 10
472.945953
 20
198.881073
 30
0.0
 70
0
  0
VERTEX
  8
0
 10
472.945953
 20
195.620468
 30
0.0
 70
0
  0
SEQEND
  8
0
  0
LINE
  8
0
 62
4
 10
184.864868
 20
198.881073
 30
0.0
 11
214.864868
 21
198.881073
 31
0.0
  0
POLYLINE
  8
0
 62
4
 66
1
 10
0.0
 20
0.0
 30
0.0
 70
2
  0
VERTEX
  8
0
 10
212.364868
 20
216.08107
 30
0.0
 70
0
  0
VERTEX
  8
0
 10
212.364868
 20
198.881073
 30
0.0
 70
0
  0
SEQEND
  8
0
  0
POLYLINE
  8
0
 62
4
 66
1
 10
0.0
 20
0.0
 30
0.0
 70
2
  0
VERTEX
  8
0
 10
207.364868
 20
216.08107
 30
0.0
 70
0
  0
VERTEX
  8
0
 10
207.364868
 20
198.881073
 30
0.0
 70
0
  0
SEQEND
  8
0
  0
POLYLINE
  8
0
 62
4
 66
1
 10
0.0
 20
0.0
 30
0.0
 70
2
  0
VERTEX
  8
0
 10
211.929871
 20
216.08107
 30
0.0
 70
0
  0
VERTEX
  8
0
 10
211.929871
 20
198.881073
 30
0.0
 70
0
  0
SEQEND
  8
0
  0
POLYLINE
  8
0
 62
4
 66
1
 10
0.0
 20
0.0
 30
0.0
 70
2
  0
VERTEX
  8
0
 10
207.799866
 20
216.08107
 30
0.0
 70
0
  0
VERTEX
  8
0
 10
207.799866
 20
198.881073
 30
0.0
 70
0
  0
SEQEND
  8
0
  0
POLYLINE
  8
0
 62
4
 66
1
 10
0.0
 20
0.0
 30
0.0
 70
2
  0
VERTEX
  8
0
 10
473.445953
 20
198.881073
 30
0.0
 70
0
  0
VERTEX
  8
0
 10
473.445953
 20
215.976715
 30
0.0
 70
0
  0
SEQEND
  8
0
  0
POLYLINE
  8
0
 62
4
 66
1
 10
0.0
 20
0.0
 30
0.0
 70
2
  0
VERTEX
  8
0
 10
478.445953
 20
198.881073
 30
0.0
 70
0
  0
VERTEX
  8
0
 10
478.445953
 20
215.976715
 30
0.0
 70
0
  0
SEQEND
  8
0
  0
POLYLINE
  8
0
 62
4
 66
1
 10
0.0
 20
0.0
 30
0.0
 70
2
  0
VERTEX
  8
0
 10
473.880951
 20
198.881073
 30
0.0
 70
0
  0
VERTEX
  8
0
 10
473.880951
 20
216.009918
 30
0.0
 70
0
  0
SEQEND
  8
0
  0
POLYLINE
  8
0
 62
4
 66
1
 10
0.0
 20
0.0
 30
0.0
 70
2
  0
VERTEX
  8
0
 10
478.010956
 20
198.881073
 30
0.0
 70
0
  0
VERTEX
  8
0
 10
478.010956
 20
216.009918
 30
0.0
 70
0
  0
SEQEND
  8
0
  0
CIRCLE
  8
0
 62
7
 10
209.864868
 20
186.08107
 30
0.0
 40
2.5
  0
CIRCLE
  8
0
 62
4
 10
209.864868
 20
186.08107
 30
0.0
 40
2.065
  0
POLYLINE
  8
0
 62
4
 66
1
 10
0.0
 20
0.0
 30
0.0
 70
2
  0
VERTEX
  8
0
 10
485.628418
 20
188.58107
 30
0.0
 70
0
  0
VERTEX
  8
0
 10
505.841614
 20
188.58107
 30
0.0
 70
0
  0
SEQEND
  8
0
  0
POLYLINE
  8
0
 62
4
 66
1
 10
0.0
 20
0.0
 30
0.0
 70
2
  0
VERTEX
  8
0
 10
485.628418
 20
183.58107
 30
0.0
 70
0
  0
VERTEX
  8
0
 10
505.841614
 20
183.58107
 30
0.0
 70
0
  0
SEQEND
  8
0
  0
POLYLINE
  8
0
 62
4
 66
1
 10
0.0
 20
0.0
 30
0.0
 70
2
  0
VERTEX
  8
0
 10
485.730408
 20
188.146072
 30
0.0
 70
0
  0
VERTEX
  8
0
 10
505.874786
 20
188.146072
 30
0.0
 70
0
  0
SEQEND
  8
0
  0
POLYLINE
  8
0
 62
4
 66
1
 10
0.0
 20
0.0
 30
0.0
 70
2
  0
VERTEX
  8
0
 10
485.730408
 20
184.016068
 30
0.0
 70
0
  0
VERTEX
  8
0
 10
505.874786
 20
184.016068
 30
0.0
 70
0
  0
SEQEND
  8
0
  0
POLYLINE
  8
0
 62
4
 66
1
 10
0.0
 20
0.0
 30
0.0
 70
2
  0
VERTEX
  8
0
 10
184.864868
 20
175.08107
 30
0.0
 70
0
  0
VERTEX
  8
0
 10
184.864868
 20
104.58107
 30
0.0
 70
0
  0
VERTEX
  8
0
 10
185.364868
 20
104.08107
 30
0.0
 70
0
  0
VERTEX
  8
0
 10
204.364868
 20
104.08107
 30
0.0
 70
0
  0
VERTEX
  8
0
 10
204.864868
 20
104.58107
 30
0.0
 70
0
  0
VERTEX
  8
0
 10
204.864868
 20
156.08107
 30
0.0
 70
0
  0
VERTEX
  8
0
 10
214.364868
 20
156.08107
 30
0.0
 70
0
  0
VERTEX
  8
0
 10
214.864868
 20
156.58107
 30
0.0
 70
0
  0
VERTEX
  8
0
 10
214.864868
 20
215.58107
 30
0.0
 70
0
  0
VERTEX
  8
0
 10
214.364868
 20
216.08107
 30
0.0
 70
0
  0
VERTEX
  8
0
 10
204.864868
 20
216.08107
 30
0.0
 70
0
  0
VERTEX
  8
0
 10
204.864868
 20
267.581055
 30
0.0
 70
0
  0
SEQEND
  8
0
  0
POLYLINE
  8
0
 62
4
 66
1
 10
0.0
 20
0.0
 30
0.0
 70
2
  0
VERTEX
  8
0
 10
204.864868
 20
267.581055
 30
0.0
 70
0
  0
VERTEX
  8
0
 10
204.364868
 20
268.081055
 30
0.0
 70
0
  0
VERTEX
  8
0
 10
185.364868
 20
268.081055
 30
0.0
 70
0
  0
VERTEX
  8
0
 10
184.864868
 20
267.581055
 30
0.0
 70
0
  0
VERTEX
  8
0
 10
184.864868
 20
175.08107
 30
0.0
 70
0
  0
SEQEND
  8
0
  0
ARC
  8
0
 62
4
 10
202.864868
 20
154.08107
 30
0.0
 40
2.0
 50
90.0
 51
180.0
  0
ARC
  8
0
 62
4
 10
202.864868
 20
218.08107
 30
0.0
 40
2.0
 50
180.0
 51
270.0
  0
LINE
  8
0
 62
4
 10
204.864868
 20
156.08107
 30
0.0
 11
202.864868
 21
156.08107
 31
0.0
  0
LINE
  8
0
 62
4
 10
202.864868
 20
216.08107
 30
0.0
 11
204.864868
 21
216.08107
 31
0.0
  0
LINE
  8
0
 62
4
 10
200.864868
 20
246.230621
 30
0.0
 11
200.864868
 21
218.08107
 31
0.0
  0
LINE
  8
0
 62
4
 10
200.864868
 20
154.08107
 30
0.0
 11
200.864868
 21
125.931511
 31
0.0
  0
CIRCLE
  8
0
 62
4
 10
475.945953
 20
186.08107
 30
0.0
 40
30.0
  0
ENDSEC
  0
EOF
