  0
SECTION
  2
ENTITIES
  0
LINE
  8
0
 62
4
 10
144.391296
 20
177.782608
 30
0.0
 11
164.391296
 21
177.782608
 31
0.0
  0
LINE
  8
0
 62
4
 10
144.391296
 20
112.782608
 30
0.0
 11
164.391296
 21
112.782608
 31
0.0
  0
LINE
  8
0
 62
4
 10
173.891296
 20
137.782608
 30
0.0
 11
174.391296
 21
137.282608
 31
0.0
  0
LINE
  8
0
 62
4
 10
173.891296
 20
152.782608
 30
0.0
 11
174.391296
 21
153.282608
 31
0.0
  0
LINE
  8
0
 62
4
 10
144.891296
 20
152.782608
 30
0.0
 11
144.891296
 21
137.782608
 31
0.0
  0
POLYLINE
  8
0
 62
4
 66
1
 10
0.0
 20
0.0
 30
0.0
 70
2
  0
VERTEX
  8
0
 10
144.391296
 20
137.282608
 30
0.0
 70
0
  0
VERTEX
  8
0
 10
144.891296
 20
137.782608
 30
0.0
 70
0
  0
VERTEX
  8
0
 10
173.891296
 20
137.782608
 30
0.0
 70
0
  0
VERTEX
  8
0
 10
173.891296
 20
152.782608
 30
0.0
 70
0
  0
VERTEX
  8
0
 10
144.891296
 20
152.782608
 30
0.0
 70
0
  0
VERTEX
  8
0
 10
144.391296
 20
153.282608
 30
0.0
 70
0
  0
SEQEND
  8
0
  0
ARC
  8
0
 62
4
 10
165.391296
 20
172.282608
 30
0.0
 40
1.0
 50
180.0
 51
270.0
  0
ARC
  8
0
 62
4
 10
165.391296
 20
118.282608
 30
0.0
 40
1.0
 50
90.0
 51
180.0
  0
ARC
  8
0
 62
4
 10
339.434753
 20
145.282608
 30
0.0
 40
7.5
 50
109.47122094265586
 51
70.52877905734415
  0
POLYLINE
  8
0
 62
4
 66
1
 10
0.0
 20
0.0
 30
0.0
 70
2
  0
VERTEX
  8
0
 10
341.934753
 20
152.353668
 30
0.0
 70
0
  0
VERTEX
  8
0
 10
341.934753
 20
155.082611
 30
0.0
 70
0
  0
VERTEX
  8
0
 10
336.934753
 20
155.082611
 30
0.0
 70
0
  0
VERTEX
  8
0
 10
336.934753
 20
152.353668
 30
0.0
 70
0
  0
SEQEND
  8
0
  0
LINE
  8
0
 62
4
 10
144.391296
 20
155.082611
 30
0.0
 11
174.391296
 21
155.082611
 31
0.0
  0
POLYLINE
  8
0
 62
4
 66
1
 10
0.0
 20
0.0
 30
0.0
 70
2
  0
VERTEX
  8
0
 10
171.391296
 20
171.282608
 30
0.0
 70
0
  0
VERTEX
  8
0
 10
171.391296
 20
155.082611
 30
0.0
 70
0
  0
SEQEND
  8
0
  0
POLYLINE
  8
0
 62
4
 66
1
 10
0.0
 20
0.0
 30
0.0
 70
2
  0
VERTEX
  8
0
 10
167.391296
 20
171.282608
 30
0.0
 70
0
  0
VERTEX
  8
0
 10
167.391296
 20
155.082611
 30
0.0
 70
0
  0
SEQEND
  8
0
  0
POLYLINE
  8
0
 62
4
 66
1
 10
0.0
 20
0.0
 30
0.0
 70
2
  0
VERTEX
  8
0
 10
171.011292
 20
171.282608
 30
0.0
 70
0
  0
VERTEX
  8
0
 10
171.011292
 20
155.082611
 30
0.0
 70
0
  0
SEQEND
  8
0
  0
POLYLINE
  8
0
 62
4
 66
1
 10
0.0
 20
0.0
 30
0.0
 70
2
  0
VERTEX
  8
0
 10
167.771301
 20
171.282608
 30
0.0
 70
0
  0
VERTEX
  8
0
 10
167.771301
 20
155.082611
 30
0.0
 70
0
  0
SEQEND
  8
0
  0
POLYLINE
  8
0
 62
4
 66
1
 10
0.0
 20
0.0
 30
0.0
 70
2
  0
VERTEX
  8
0
 10
337.434753
 20
155.082611
 30
0.0
 70
0
  0
VERTEX
  8
0
 10
337.434753
 20
171.205566
 30
0.0
 70
0
  0
SEQEND
  8
0
  0
POLYLINE
  8
0
 62
4
 66
1
 10
0.0
 20
0.0
 30
0.0
 70
2
  0
VERTEX
  8
0
 10
341.434753
 20
155.082611
 30
0.0
 70
0
  0
VERTEX
  8
0
 10
341.434753
 20
171.205566
 30
0.0
 70
0
  0
SEQEND
  8
0
  0
POLYLINE
  8
0
 62
4
 66
1
 10
0.0
 20
0.0
 30
0.0
 70
2
  0
VERTEX
  8
0
 10
337.814758
 20
155.082611
 30
0.0
 70
0
  0
VERTEX
  8
0
 10
337.814758
 20
171.232086
 30
0.0
 70
0
  0
SEQEND
  8
0
  0
POLYLINE
  8
0
 62
4
 66
1
 10
0.0
 20
0.0
 30
0.0
 70
2
  0
VERTEX
  8
0
 10
341.054749
 20
155.082611
 30
0.0
 70
0
  0
VERTEX
  8
0
 10
341.054749
 20
171.232086
 30
0.0
 70
0
  0
SEQEND
  8
0
  0
CIRCLE
  8
0
 62
7
 10
169.391296
 20
145.282608
 30
0.0
 40
2.0
  0
CIRCLE
  8
0
 62
4
 10
169.391296
 20
145.282608
 30
0.0
 40
1.62
  0
POLYLINE
  8
0
 62
4
 66
1
 10
0.0
 20
0.0
 30
0.0
 70
2
  0
VERTEX
  8
0
 10
346.663177
 20
147.282608
 30
0.0
 70
0
  0
VERTEX
  8
0
 10
365.357727
 20
147.282608
 30
0.0
 70
0
  0
SEQEND
  8
0
  0
POLYLINE
  8
0
 62
4
 66
1
 10
0.0
 20
0.0
 30
0.0
 70
2
  0
VERTEX
  8
0
 10
346.663177
 20
143.282608
 30
0.0
 70
0
  0
VERTEX
  8
0
 10
365.357727
 20
143.282608
 30
0.0
 70
0
  0
SEQEND
  8
0
  0
POLYLINE
  8
0
 62
4
 66
1
 10
0.0
 20
0.0
 30
0.0
 70
2
  0
VERTEX
  8
0
 10
346.757721
 20
146.902603
 30
0.0
 70
0
  0
VERTEX
  8
0
 10
365.384247
 20
146.902603
 30
0.0
 70
0
  0
SEQEND
  8
0
  0
POLYLINE
  8
0
 62
4
 66
1
 10
0.0
 20
0.0
 30
0.0
 70
2
  0
VERTEX
  8
0
 10
346.757721
 20
143.662613
 30
0.0
 70
0
  0
VERTEX
  8
0
 10
365.384247
 20
143.662613
 30
0.0
 70
0
  0
SEQEND
  8
0
  0
POLYLINE
  8
0
 62
4
 66
1
 10
0.0
 20
0.0
 30
0.0
 70
2
  0
VERTEX
  8
0
 10
144.391296
 20
137.282608
 30
0.0
 70
0
  0
VERTEX
  8
0
 10
144.391296
 20
108.782608
 30
0.0
 70
0
  0
VERTEX
  8
0
 10
144.891296
 20
108.282608
 30
0.0
 70
0
  0
VERTEX
  8
0
 10
163.891296
 20
108.282608
 30
0.0
 70
0
  0
VERTEX
  8
0
 10
164.391296
 20
108.782608
 30
0.0
 70
0
  0
VERTEX
  8
0
 10
164.391296
 20
118.282608
 30
0.0
 70
0
  0
SEQEND
  8
0
  0
POLYLINE
  8
0
 62
4
 66
1
 10
0.0
 20
0.0
 30
0.0
 70
2
  0
VERTEX
  8
0
 10
165.391296
 20
119.282608
 30
0.0
 70
0
  0
VERTEX
  8
0
 10
173.891296
 20
119.282608
 30
0.0
 70
0
  0
VERTEX
  8
0
 10
174.391296
 20
119.782608
 30
0.0
 70
0
  0
VERTEX
  8
0
 10
174.391296
 20
170.782608
 30
0.0
 70
0
  0
VERTEX
  8
0
 10
173.891296
 20
171.282608
 30
0.0
 70
0
  0
VERTEX
  8
0
 10
165.391296
 20
171.282608
 30
0.0
 70
0
  0
SEQEND
  8
0
  0
POLYLINE
  8
0
 62
4
 66
1
 10
0.0
 20
0.0
 30
0.0
 70
2
  0
VERTEX
  8
0
 10
164.391296
 20
172.282608
 30
0.0
 70
0
  0
VERTEX
  8
0
 10
164.391296
 20
181.782608
 30
0.0
 70
0
  0
VERTEX
  8
0
 10
163.891296
 20
182.282608
 30
0.0
 70
0
  0
VERTEX
  8
0
 10
144.891296
 20
182.282608
 30
0.0
 70
0
  0
VERTEX
  8
0
 10
144.391296
 20
181.782608
 30
0.0
 70
0
  0
VERTEX
  8
0
 10
144.391296
 20
137.282608
 30
0.0
 70
0
  0
SEQEND
  8
0
  0
CIRCLE
  8
0
 62
4
 10
339.434753
 20
145.282608
 30
0.0
 40
26.0
  0
ENDSEC
  0
EOF
