  0
SECTION
  2
ENTITIES
  0
LINE
  8
0
 62
4
 10
132.065216
 20
157.380432
 30
0.0
 11
152.065216
 21
157.380432
 31
0.0
  0
LINE
  8
0
 62
4
 10
132.065216
 20
108.380432
 30
0.0
 11
152.065216
 21
108.380432
 31
0.0
  0
LINE
  8
0
 62
4
 10
161.565216
 20
125.880432
 30
0.0
 11
162.065216
 21
125.380432
 31
0.0
  0
LINE
  8
0
 62
4
 10
161.565216
 20
139.880432
 30
0.0
 11
162.065216
 21
140.380432
 31
0.0
  0
LINE
  8
0
 62
4
 10
132.565216
 20
139.880432
 30
0.0
 11
132.565216
 21
125.880432
 31
0.0
  0
POLYLINE
  8
0
 62
4
 66
1
 10
0.0
 20
0.0
 30
0.0
 70
2
  0
VERTEX
  8
0
 10
132.065216
 20
125.380432
 30
0.0
 70
0
  0
VERTEX
  8
0
 10
132.565216
 20
125.880432
 30
0.0
 70
0
  0
VERTEX
  8
0
 10
161.565216
 20
125.880432
 30
0.0
 70
0
  0
VERTEX
  8
0
 10
161.565216
 20
139.880432
 30
0.0
 70
0
  0
VERTEX
  8
0
 10
132.565216
 20
139.880432
 30
0.0
 70
0
  0
VERTEX
  8
0
 10
132.065216
 20
140.380432
 30
0.0
 70
0
  0
SEQEND
  8
0
  0
ARC
  8
0
 62
4
 10
153.065216
 20
156.380432
 30
0.0
 40
1.0
 50
180.0
 51
270.0
  0
ARC
  8
0
 62
4
 10
153.065216
 20
109.380432
 30
0.0
 40
1.0
 50
90.0
 51
180.0
  0
ARC
  8
0
 62
4
 10
311.739136
 20
132.880432
 30
0.0
 40
7.0
 50
110.92483306307776
 51
69.07516693692226
  0
POLYLINE
  8
0
 62
4
 66
1
 10
0.0
 20
0.0
 30
0.0
 70
2
  0
VERTEX
  8
0
 10
314.239136
 20
139.418777
 30
0.0
 70
0
  0
VERTEX
  8
0
 10
314.239136
 20
142.180435
 30
0.0
 70
0
  0
VERTEX
  8
0
 10
309.239136
 20
142.180435
 30
0.0
 70
0
  0
VERTEX
  8
0
 10
309.239136
 20
139.418777
 30
0.0
 70
0
  0
SEQEND
  8
0
  0
LINE
  8
0
 62
4
 10
132.065216
 20
142.180435
 30
0.0
 11
162.065216
 21
142.180435
 31
0.0
  0
POLYLINE
  8
0
 62
4
 66
1
 10
0.0
 20
0.0
 30
0.0
 70
2
  0
VERTEX
  8
0
 10
159.065216
 20
155.380432
 30
0.0
 70
0
  0
VERTEX
  8
0
 10
159.065216
 20
142.180435
 30
0.0
 70
0
  0
SEQEND
  8
0
  0
POLYLINE
  8
0
 62
4
 66
1
 10
0.0
 20
0.0
 30
0.0
 70
2
  0
VERTEX
  8
0
 10
155.065216
 20
155.380432
 30
0.0
 70
0
  0
VERTEX
  8
0
 10
155.065216
 20
142.180435
 30
0.0
 70
0
  0
SEQEND
  8
0
  0
POLYLINE
  8
0
 62
4
 66
1
 10
0.0
 20
0.0
 30
0.0
 70
2
  0
VERTEX
  8
0
 10
158.685211
 20
155.380432
 30
0.0
 70
0
  0
VERTEX
  8
0
 10
158.685211
 20
142.180435
 30
0.0
 70
0
  0
SEQEND
  8
0
  0
POLYLINE
  8
0
 62
4
 66
1
 10
0.0
 20
0.0
 30
0.0
 70
2
  0
VERTEX
  8
0
 10
155.445221
 20
155.380432
 30
0.0
 70
0
  0
VERTEX
  8
0
 10
155.445221
 20
142.180435
 30
0.0
 70
0
  0
SEQEND
  8
0
  0
POLYLINE
  8
0
 62
4
 66
1
 10
0.0
 20
0.0
 30
0.0
 70
2
  0
VERTEX
  8
0
 10
309.739136
 20
142.180435
 30
0.0
 70
0
  0
VERTEX
  8
0
 10
309.739136
 20
155.291367
 30
0.0
 70
0
  0
SEQEND
  8
0
  0
POLYLINE
  8
0
 62
4
 66
1
 10
0.0
 20
0.0
 30
0.0
 70
2
  0
VERTEX
  8
0
 10
313.739136
 20
142.180435
 30
0.0
 70
0
  0
VERTEX
  8
0
 10
313.739136
 20
155.291367
 30
0.0
 70
0
  0
SEQEND
  8
0
  0
POLYLINE
  8
0
 62
4
 66
1
 10
0.0
 20
0.0
 30
0.0
 70
2
  0
VERTEX
  8
0
 10
310.119141
 20
142.180435
 30
0.0
 70
0
  0
VERTEX
  8
0
 10
310.119141
 20
155.322037
 30
0.0
 70
0
  0
SEQEND
  8
0
  0
POLYLINE
  8
0
 62
4
 66
1
 10
0.0
 20
0.0
 30
0.0
 70
2
  0
VERTEX
  8
0
 10
313.359131
 20
142.180435
 30
0.0
 70
0
  0
VERTEX
  8
0
 10
313.359131
 20
155.322037
 30
0.0
 70
0
  0
SEQEND
  8
0
  0
CIRCLE
  8
0
 62
7
 10
157.065216
 20
132.880432
 30
0.0
 40
2.0
  0
CIRCLE
  8
0
 62
4
 10
157.065216
 20
132.880432
 30
0.0
 40
1.62
  0
POLYLINE
  8
0
 62
4
 66
1
 10
0.0
 20
0.0
 30
0.0
 70
2
  0
VERTEX
  8
0
 10
318.447327
 20
134.880432
 30
0.0
 70
0
  0
VERTEX
  8
0
 10
334.150085
 20
134.880432
 30
0.0
 70
0
  0
SEQEND
  8
0
  0
POLYLINE
  8
0
 62
4
 66
1
 10
0.0
 20
0.0
 30
0.0
 70
2
  0
VERTEX
  8
0
 10
318.447327
 20
130.880432
 30
0.0
 70
0
  0
VERTEX
  8
0
 10
334.150085
 20
130.880432
 30
0.0
 70
0
  0
SEQEND
  8
0
  0
POLYLINE
  8
0
 62
4
 66
1
 10
0.0
 20
0.0
 30
0.0
 70
2
  0
VERTEX
  8
0
 10
318.549103
 20
134.500427
 30
0.0
 70
0
  0
VERTEX
  8
0
 10
334.180725
 20
134.500427
 30
0.0
 70
0
  0
SEQEND
  8
0
  0
POLYLINE
  8
0
 62
4
 66
1
 10
0.0
 20
0.0
 30
0.0
 70
2
  0
VERTEX
  8
0
 10
318.549103
 20
131.260437
 30
0.0
 70
0
  0
VERTEX
  8
0
 10
334.180725
 20
131.260437
 30
0.0
 70
0
  0
SEQEND
  8
0
  0
POLYLINE
  8
0
 62
4
 66
1
 10
0.0
 20
0.0
 30
0.0
 70
2
  0
VERTEX
  8
0
 10
132.065216
 20
125.380432
 30
0.0
 70
0
  0
VERTEX
  8
0
 10
132.065216
 20
104.380432
 30
0.0
 70
0
  0
VERTEX
  8
0
 10
132.565216
 20
103.880432
 30
0.0
 70
0
  0
VERTEX
  8
0
 10
151.565216
 20
103.880432
 30
0.0
 70
0
  0
VERTEX
  8
0
 10
152.065216
 20
104.380432
 30
0.0
 70
0
  0
VERTEX
  8
0
 10
152.065216
 20
109.380432
 30
0.0
 70
0
  0
SEQEND
  8
0
  0
POLYLINE
  8
0
 62
4
 66
1
 10
0.0
 20
0.0
 30
0.0
 70
2
  0
VERTEX
  8
0
 10
153.065216
 20
110.380432
 30
0.0
 70
0
  0
VERTEX
  8
0
 10
161.565216
 20
110.380432
 30
0.0
 70
0
  0
VERTEX
  8
0
 10
162.065216
 20
110.880432
 30
0.0
 70
0
  0
VERTEX
  8
0
 10
162.065216
 20
154.880432
 30
0.0
 70
0
  0
VERTEX
  8
0
 10
161.565216
 20
155.380432
 30
0.0
 70
0
  0
VERTEX
  8
0
 10
153.065216
 20
155.380432
 30
0.0
 70
0
  0
SEQEND
  8
0
  0
POLYLINE
  8
0
 62
4
 66
1
 10
0.0
 20
0.0
 30
0.0
 70
2
  0
VERTEX
  8
0
 10
152.065216
 20
156.380432
 30
0.0
 70
0
  0
VERTEX
  8
0
 10
152.065216
 20
161.380432
 30
0.0
 70
0
  0
VERTEX
  8
0
 10
151.565216
 20
161.880432
 30
0.0
 70
0
  0
VERTEX
  8
0
 10
132.565216
 20
161.880432
 30
0.0
 70
0
  0
VERTEX
  8
0
 10
132.065216
 20
161.380432
 30
0.0
 70
0
  0
VERTEX
  8
0
 10
132.065216
 20
125.380432
 30
0.0
 70
0
  0
SEQEND
  8
0
  0
CIRCLE
  8
0
 62
4
 10
311.739136
 20
132.880432
 30
0.0
 40
22.5
  0
ENDSEC
  0
EOF
