  0
SECTION
  2
ENTITIES
  0
LINE
  8
0
 62
4
 10
158.478271
 20
214.956512
 30
0.0
 11
178.478271
 21
214.956512
 31
0.0
  0
LINE
  8
0
 62
4
 10
158.478271
 20
103.956512
 30
0.0
 11
178.478271
 21
103.956512
 31
0.0
  0
LINE
  8
0
 62
4
 10
187.478271
 20
143.456512
 30
0.0
 11
188.478271
 21
142.456512
 31
0.0
  0
LINE
  8
0
 62
4
 10
187.478271
 20
175.456512
 30
0.0
 11
188.478271
 21
176.456512
 31
0.0
  0
LINE
  8
0
 62
4
 10
159.478271
 20
175.456512
 30
0.0
 11
159.478271
 21
143.456512
 31
0.0
  0
POLYLINE
  8
0
 62
4
 66
1
 10
0.0
 20
0.0
 30
0.0
 70
2
  0
VERTEX
  8
0
 10
158.478271
 20
142.456512
 30
0.0
 70
0
  0
VERTEX
  8
0
 10
159.478271
 20
143.456512
 30
0.0
 70
0
  0
VERTEX
  8
0
 10
187.478271
 20
143.456512
 30
0.0
 70
0
  0
VERTEX
  8
0
 10
187.478271
 20
175.456512
 30
0.0
 70
0
  0
VERTEX
  8
0
 10
159.478271
 20
175.456512
 30
0.0
 70
0
  0
VERTEX
  8
0
 10
158.478271
 20
176.456512
 30
0.0
 70
0
  0
SEQEND
  8
0
  0
ARC
  8
0
 62
4
 10
179.478271
 20
190.456512
 30
0.0
 40
1.0
 50
180.0
 51
270.0
  0
ARC
  8
0
 62
4
 10
179.478271
 20
128.456512
 30
0.0
 40
1.0
 50
90.0
 51
180.0
  0
ARC
  8
0
 62
4
 10
371.086975
 20
159.456512
 30
0.0
 40
16.0
 50
108.20995732853793
 51
71.79004267146207
  0
POLYLINE
  8
0
 62
4
 66
1
 10
0.0
 20
0.0
 30
0.0
 70
2
  0
VERTEX
  8
0
 10
376.086975
 20
174.655197
 30
0.0
 70
0
  0
VERTEX
  8
0
 10
376.086975
 20
178.756516
 30
0.0
 70
0
  0
VERTEX
  8
0
 10
366.086975
 20
178.756516
 30
0.0
 70
0
  0
VERTEX
  8
0
 10
366.086975
 20
174.655197
 30
0.0
 70
0
  0
SEQEND
  8
0
  0
LINE
  8
0
 62
4
 10
158.478271
 20
178.756516
 30
0.0
 11
188.478271
 21
178.756516
 31
0.0
  0
POLYLINE
  8
0
 62
4
 66
1
 10
0.0
 20
0.0
 30
0.0
 70
2
  0
VERTEX
  8
0
 10
187.478271
 20
189.456512
 30
0.0
 70
0
  0
VERTEX
  8
0
 10
187.478271
 20
178.756516
 30
0.0
 70
0
  0
SEQEND
  8
0
  0
POLYLINE
  8
0
 62
4
 66
1
 10
0.0
 20
0.0
 30
0.0
 70
2
  0
VERTEX
  8
0
 10
179.478271
 20
189.456512
 30
0.0
 70
0
  0
VERTEX
  8
0
 10
179.478271
 20
178.756516
 30
0.0
 70
0
  0
SEQEND
  8
0
  0
POLYLINE
  8
0
 62
4
 66
1
 10
0.0
 20
0.0
 30
0.0
 70
2
  0
VERTEX
  8
0
 10
186.803268
 20
189.456512
 30
0.0
 70
0
  0
VERTEX
  8
0
 10
186.803268
 20
178.756516
 30
0.0
 70
0
  0
SEQEND
  8
0
  0
POLYLINE
  8
0
 62
4
 66
1
 10
0.0
 20
0.0
 30
0.0
 70
2
  0
VERTEX
  8
0
 10
180.153275
 20
189.456512
 30
0.0
 70
0
  0
VERTEX
  8
0
 10
180.153275
 20
178.756516
 30
0.0
 70
0
  0
SEQEND
  8
0
  0
POLYLINE
  8
0
 62
4
 66
1
 10
0.0
 20
0.0
 30
0.0
 70
2
  0
VERTEX
  8
0
 10
367.086975
 20
178.756516
 30
0.0
 70
0
  0
VERTEX
  8
0
 10
367.086975
 20
189.188644
 30
0.0
 70
0
  0
SEQEND
  8
0
  0
POLYLINE
  8
0
 62
4
 66
1
 10
0.0
 20
0.0
 30
0.0
 70
2
  0
VERTEX
  8
0
 10
375.086975
 20
178.756516
 30
0.0
 70
0
  0
VERTEX
  8
0
 10
375.086975
 20
189.188644
 30
0.0
 70
0
  0
SEQEND
  8
0
  0
POLYLINE
  8
0
 62
4
 66
1
 10
0.0
 20
0.0
 30
0.0
 70
2
  0
VERTEX
  8
0
 10
367.761963
 20
178.756516
 30
0.0
 70
0
  0
VERTEX
  8
0
 10
367.761963
 20
189.271683
 30
0.0
 70
0
  0
SEQEND
  8
0
  0
POLYLINE
  8
0
 62
4
 66
1
 10
0.0
 20
0.0
 30
0.0
 70
2
  0
VERTEX
  8
0
 10
374.411957
 20
178.756516
 30
0.0
 70
0
  0
VERTEX
  8
0
 10
374.411957
 20
189.271683
 30
0.0
 70
0
  0
SEQEND
  8
0
  0
CIRCLE
  8
0
 62
7
 10
183.478271
 20
159.456512
 30
0.0
 40
4.0
  0
CIRCLE
  8
0
 62
4
 10
183.478271
 20
159.456512
 30
0.0
 40
3.325
  0
POLYLINE
  8
0
 62
4
 66
1
 10
0.0
 20
0.0
 30
0.0
 70
2
  0
VERTEX
  8
0
 10
386.578888
 20
163.456512
 30
0.0
 70
0
  0
VERTEX
  8
0
 10
400.819092
 20
163.456512
 30
0.0
 70
0
  0
SEQEND
  8
0
  0
POLYLINE
  8
0
 62
4
 66
1
 10
0.0
 20
0.0
 30
0.0
 70
2
  0
VERTEX
  8
0
 10
386.578888
 20
155.456512
 30
0.0
 70
0
  0
VERTEX
  8
0
 10
400.819092
 20
155.456512
 30
0.0
 70
0
  0
SEQEND
  8
0
  0
POLYLINE
  8
0
 62
4
 66
1
 10
0.0
 20
0.0
 30
0.0
 70
2
  0
VERTEX
  8
0
 10
386.737671
 20
162.781509
 30
0.0
 70
0
  0
VERTEX
  8
0
 10
400.90213
 20
162.781509
 30
0.0
 70
0
  0
SEQEND
  8
0
  0
POLYLINE
  8
0
 62
4
 66
1
 10
0.0
 20
0.0
 30
0.0
 70
2
  0
VERTEX
  8
0
 10
386.737671
 20
156.131516
 30
0.0
 70
0
  0
VERTEX
  8
0
 10
400.90213
 20
156.131516
 30
0.0
 70
0
  0
SEQEND
  8
0
  0
POLYLINE
  8
0
 62
4
 66
1
 10
0.0
 20
0.0
 30
0.0
 70
2
  0
VERTEX
  8
0
 10
158.478271
 20
142.456512
 30
0.0
 70
0
  0
VERTEX
  8
0
 10
158.478271
 20
99.956512
 30
0.0
 70
0
  0
VERTEX
  8
0
 10
158.978271
 20
99.456512
 30
0.0
 70
0
  0
VERTEX
  8
0
 10
177.978271
 20
99.456512
 30
0.0
 70
0
  0
VERTEX
  8
0
 10
178.478271
 20
99.956512
 30
0.0
 70
0
  0
VERTEX
  8
0
 10
178.478271
 20
128.456512
 30
0.0
 70
0
  0
SEQEND
  8
0
  0
POLYLINE
  8
0
 62
4
 66
1
 10
0.0
 20
0.0
 30
0.0
 70
2
  0
VERTEX
  8
0
 10
179.478271
 20
129.456512
 30
0.0
 70
0
  0
VERTEX
  8
0
 10
187.978271
 20
129.456512
 30
0.0
 70
0
  0
VERTEX
  8
0
 10
188.478271
 20
129.956512
 30
0.0
 70
0
  0
VERTEX
  8
0
 10
188.478271
 20
188.956512
 30
0.0
 70
0
  0
VERTEX
  8
0
 10
187.978271
 20
189.456512
 30
0.0
 70
0
  0
VERTEX
  8
0
 10
179.478271
 20
189.456512
 30
0.0
 70
0
  0
SEQEND
  8
0
  0
POLYLINE
  8
0
 62
4
 66
1
 10
0.0
 20
0.0
 30
0.0
 70
2
  0
VERTEX
  8
0
 10
178.478271
 20
190.456512
 30
0.0
 70
0
  0
VERTEX
  8
0
 10
178.478271
 20
218.956512
 30
0.0
 70
0
  0
VERTEX
  8
0
 10
177.978271
 20
219.456512
 30
0.0
 70
0
  0
VERTEX
  8
0
 10
158.978271
 20
219.456512
 30
0.0
 70
0
  0
VERTEX
  8
0
 10
158.478271
 20
218.956512
 30
0.0
 70
0
  0
VERTEX
  8
0
 10
158.478271
 20
142.456512
 30
0.0
 70
0
  0
SEQEND
  8
0
  0
CIRCLE
  8
0
 62
4
 10
371.086975
 20
159.456512
 30
0.0
 40
30.0
  0
ENDSEC
  0
EOF
