  0
SECTION
  2
ENTITIES
  0
LINE
  8
0
 62
4
 10
158.478271
 20
218.956512
 30
0.0
 11
178.478271
 21
218.956512
 31
0.0
  0
LINE
  8
0
 62
4
 10
158.478271
 20
99.956512
 30
0.0
 11
178.478271
 21
99.956512
 31
0.0
  0
LINE
  8
0
 62
4
 10
187.978271
 20
151.456512
 30
0.0
 11
188.478271
 21
150.956512
 31
0.0
  0
LINE
  8
0
 62
4
 10
187.978271
 20
167.456512
 30
0.0
 11
188.478271
 21
167.956512
 31
0.0
  0
LINE
  8
0
 62
4
 10
158.978271
 20
167.456512
 30
0.0
 11
158.978271
 21
151.456512
 31
0.0
  0
POLYLINE
  8
0
 62
4
 66
1
 10
0.0
 20
0.0
 30
0.0
 70
2
  0
VERTEX
  8
0
 10
158.478271
 20
150.956512
 30
0.0
 70
0
  0
VERTEX
  8
0
 10
158.978271
 20
151.456512
 30
0.0
 70
0
  0
VERTEX
  8
0
 10
187.978271
 20
151.456512
 30
0.0
 70
0
  0
VERTEX
  8
0
 10
187.978271
 20
167.456512
 30
0.0
 70
0
  0
VERTEX
  8
0
 10
158.978271
 20
167.456512
 30
0.0
 70
0
  0
VERTEX
  8
0
 10
158.478271
 20
167.956512
 30
0.0
 70
0
  0
SEQEND
  8
0
  0
ARC
  8
0
 62
4
 10
179.478271
 20
190.456512
 30
0.0
 40
1.0
 50
180.0
 51
270.0
  0
ARC
  8
0
 62
4
 10
179.478271
 20
128.456512
 30
0.0
 40
1.0
 50
90.0
 51
180.0
  0
ARC
  8
0
 62
4
 10
371.086975
 20
159.456512
 30
0.0
 40
8.0
 50
108.20995732853793
 51
71.79004267146207
  0
POLYLINE
  8
0
 62
4
 66
1
 10
0.0
 20
0.0
 30
0.0
 70
2
  0
VERTEX
  8
0
 10
373.586975
 20
167.055847
 30
0.0
 70
0
  0
VERTEX
  8
0
 10
373.586975
 20
169.756516
 30
0.0
 70
0
  0
VERTEX
  8
0
 10
368.586975
 20
169.756516
 30
0.0
 70
0
  0
VERTEX
  8
0
 10
368.586975
 20
167.055847
 30
0.0
 70
0
  0
SEQEND
  8
0
  0
LINE
  8
0
 62
4
 10
158.478271
 20
169.756516
 30
0.0
 11
188.478271
 21
169.756516
 31
0.0
  0
POLYLINE
  8
0
 62
4
 66
1
 10
0.0
 20
0.0
 30
0.0
 70
2
  0
VERTEX
  8
0
 10
185.478271
 20
189.456512
 30
0.0
 70
0
  0
VERTEX
  8
0
 10
185.478271
 20
169.756516
 30
0.0
 70
0
  0
SEQEND
  8
0
  0
POLYLINE
  8
0
 62
4
 66
1
 10
0.0
 20
0.0
 30
0.0
 70
2
  0
VERTEX
  8
0
 10
181.478271
 20
189.456512
 30
0.0
 70
0
  0
VERTEX
  8
0
 10
181.478271
 20
169.756516
 30
0.0
 70
0
  0
SEQEND
  8
0
  0
POLYLINE
  8
0
 62
4
 66
1
 10
0.0
 20
0.0
 30
0.0
 70
2
  0
VERTEX
  8
0
 10
185.098267
 20
189.456512
 30
0.0
 70
0
  0
VERTEX
  8
0
 10
185.098267
 20
169.756516
 30
0.0
 70
0
  0
SEQEND
  8
0
  0
POLYLINE
  8
0
 62
4
 66
1
 10
0.0
 20
0.0
 30
0.0
 70
2
  0
VERTEX
  8
0
 10
181.858276
 20
189.456512
 30
0.0
 70
0
  0
VERTEX
  8
0
 10
181.858276
 20
169.756516
 30
0.0
 70
0
  0
SEQEND
  8
0
  0
POLYLINE
  8
0
 62
4
 66
1
 10
0.0
 20
0.0
 30
0.0
 70
2
  0
VERTEX
  8
0
 10
369.086975
 20
169.756516
 30
0.0
 70
0
  0
VERTEX
  8
0
 10
369.086975
 20
189.389771
 30
0.0
 70
0
  0
SEQEND
  8
0
  0
POLYLINE
  8
0
 62
4
 66
1
 10
0.0
 20
0.0
 30
0.0
 70
2
  0
VERTEX
  8
0
 10
373.086975
 20
169.756516
 30
0.0
 70
0
  0
VERTEX
  8
0
 10
373.086975
 20
189.389771
 30
0.0
 70
0
  0
SEQEND
  8
0
  0
POLYLINE
  8
0
 62
4
 66
1
 10
0.0
 20
0.0
 30
0.0
 70
2
  0
VERTEX
  8
0
 10
369.46698
 20
169.756516
 30
0.0
 70
0
  0
VERTEX
  8
0
 10
369.46698
 20
189.412735
 30
0.0
 70
0
  0
SEQEND
  8
0
  0
POLYLINE
  8
0
 62
4
 66
1
 10
0.0
 20
0.0
 30
0.0
 70
2
  0
VERTEX
  8
0
 10
372.70697
 20
169.756516
 30
0.0
 70
0
  0
VERTEX
  8
0
 10
372.70697
 20
189.412735
 30
0.0
 70
0
  0
SEQEND
  8
0
  0
CIRCLE
  8
0
 62
7
 10
183.478271
 20
159.456512
 30
0.0
 40
2.0
  0
CIRCLE
  8
0
 62
4
 10
183.478271
 20
159.456512
 30
0.0
 40
1.62
  0
POLYLINE
  8
0
 62
4
 66
1
 10
0.0
 20
0.0
 30
0.0
 70
2
  0
VERTEX
  8
0
 10
378.832947
 20
161.456512
 30
0.0
 70
0
  0
VERTEX
  8
0
 10
401.020203
 20
161.456512
 30
0.0
 70
0
  0
SEQEND
  8
0
  0
POLYLINE
  8
0
 62
4
 66
1
 10
0.0
 20
0.0
 30
0.0
 70
2
  0
VERTEX
  8
0
 10
378.832947
 20
157.456512
 30
0.0
 70
0
  0
VERTEX
  8
0
 10
401.020203
 20
157.456512
 30
0.0
 70
0
  0
SEQEND
  8
0
  0
POLYLINE
  8
0
 62
4
 66
1
 10
0.0
 20
0.0
 30
0.0
 70
2
  0
VERTEX
  8
0
 10
378.921204
 20
161.076508
 30
0.0
 70
0
  0
VERTEX
  8
0
 10
401.043182
 20
161.076508
 30
0.0
 70
0
  0
SEQEND
  8
0
  0
POLYLINE
  8
0
 62
4
 66
1
 10
0.0
 20
0.0
 30
0.0
 70
2
  0
VERTEX
  8
0
 10
378.921204
 20
157.836517
 30
0.0
 70
0
  0
VERTEX
  8
0
 10
401.043182
 20
157.836517
 30
0.0
 70
0
  0
SEQEND
  8
0
  0
POLYLINE
  8
0
 62
4
 66
1
 10
0.0
 20
0.0
 30
0.0
 70
2
  0
VERTEX
  8
0
 10
158.478271
 20
150.956512
 30
0.0
 70
0
  0
VERTEX
  8
0
 10
158.478271
 20
95.956512
 30
0.0
 70
0
  0
VERTEX
  8
0
 10
158.978271
 20
95.456512
 30
0.0
 70
0
  0
VERTEX
  8
0
 10
177.978271
 20
95.456512
 30
0.0
 70
0
  0
VERTEX
  8
0
 10
178.478271
 20
95.956512
 30
0.0
 70
0
  0
VERTEX
  8
0
 10
178.478271
 20
128.456512
 30
0.0
 70
0
  0
SEQEND
  8
0
  0
POLYLINE
  8
0
 62
4
 66
1
 10
0.0
 20
0.0
 30
0.0
 70
2
  0
VERTEX
  8
0
 10
179.478271
 20
129.456512
 30
0.0
 70
0
  0
VERTEX
  8
0
 10
187.978271
 20
129.456512
 30
0.0
 70
0
  0
VERTEX
  8
0
 10
188.478271
 20
129.956512
 30
0.0
 70
0
  0
VERTEX
  8
0
 10
188.478271
 20
188.956512
 30
0.0
 70
0
  0
VERTEX
  8
0
 10
187.978271
 20
189.456512
 30
0.0
 70
0
  0
VERTEX
  8
0
 10
179.478271
 20
189.456512
 30
0.0
 70
0
  0
SEQEND
  8
0
  0
POLYLINE
  8
0
 62
4
 66
1
 10
0.0
 20
0.0
 30
0.0
 70
2
  0
VERTEX
  8
0
 10
178.478271
 20
190.456512
 30
0.0
 70
0
  0
VERTEX
  8
0
 10
178.478271
 20
222.956512
 30
0.0
 70
0
  0
VERTEX
  8
0
 10
177.978271
 20
223.456512
 30
0.0
 70
0
  0
VERTEX
  8
0
 10
158.978271
 20
223.456512
 30
0.0
 70
0
  0
VERTEX
  8
0
 10
158.478271
 20
222.956512
 30
0.0
 70
0
  0
VERTEX
  8
0
 10
158.478271
 20
150.956512
 30
0.0
 70
0
  0
SEQEND
  8
0
  0
CIRCLE
  8
0
 62
4
 10
371.086975
 20
159.456512
 30
0.0
 40
30.0
  0
ENDSEC
  0
EOF
