  0
SECTION
  2
ENTITIES
  0
LINE
  8
0
 62
4
 10
119.739136
 20
141.978256
 30
0.0
 11
139.739136
 21
141.978256
 31
0.0
  0
LINE
  8
0
 62
4
 10
119.739136
 20
98.978256
 30
0.0
 11
139.739136
 21
98.978256
 31
0.0
  0
LINE
  8
0
 62
4
 10
148.739136
 20
110.478256
 30
0.0
 11
149.739136
 21
109.478256
 31
0.0
  0
LINE
  8
0
 62
4
 10
148.739136
 20
130.478256
 30
0.0
 11
149.739136
 21
131.478256
 31
0.0
  0
LINE
  8
0
 62
4
 10
120.739136
 20
130.478256
 30
0.0
 11
120.739136
 21
110.478256
 31
0.0
  0
POLYLINE
  8
0
 62
4
 66
1
 10
0.0
 20
0.0
 30
0.0
 70
2
  0
VERTEX
  8
0
 10
119.739136
 20
109.478256
 30
0.0
 70
0
  0
VERTEX
  8
0
 10
120.739136
 20
110.478256
 30
0.0
 70
0
  0
VERTEX
  8
0
 10
148.739136
 20
110.478256
 30
0.0
 70
0
  0
VERTEX
  8
0
 10
148.739136
 20
130.478256
 30
0.0
 70
0
  0
VERTEX
  8
0
 10
120.739136
 20
130.478256
 30
0.0
 70
0
  0
VERTEX
  8
0
 10
119.739136
 20
131.478256
 30
0.0
 70
0
  0
SEQEND
  8
0
  0
ARC
  8
0
 62
4
 10
140.739136
 20
140.478256
 30
0.0
 40
1.0
 50
180.0
 51
270.0
  0
ARC
  8
0
 62
4
 10
140.739136
 20
100.478256
 30
0.0
 40
1.0
 50
90.0
 51
180.0
  0
ARC
  8
0
 62
4
 10
284.043488
 20
120.478256
 30
0.0
 40
10.0
 50
107.45760274776076
 51
72.54239725223924
  0
POLYLINE
  8
0
 62
4
 66
1
 10
0.0
 20
0.0
 30
0.0
 70
2
  0
VERTEX
  8
0
 10
287.043488
 20
130.017654
 30
0.0
 70
0
  0
VERTEX
  8
0
 10
287.043488
 20
133.278259
 30
0.0
 70
0
  0
VERTEX
  8
0
 10
281.043488
 20
133.278259
 30
0.0
 70
0
  0
VERTEX
  8
0
 10
281.043488
 20
130.017654
 30
0.0
 70
0
  0
SEQEND
  8
0
  0
LINE
  8
0
 62
4
 10
119.739136
 20
133.278259
 30
0.0
 11
149.739136
 21
133.278259
 31
0.0
  0
POLYLINE
  8
0
 62
4
 66
1
 10
0.0
 20
0.0
 30
0.0
 70
2
  0
VERTEX
  8
0
 10
147.239136
 20
139.478256
 30
0.0
 70
0
  0
VERTEX
  8
0
 10
147.239136
 20
133.278259
 30
0.0
 70
0
  0
SEQEND
  8
0
  0
POLYLINE
  8
0
 62
4
 66
1
 10
0.0
 20
0.0
 30
0.0
 70
2
  0
VERTEX
  8
0
 10
142.239136
 20
139.478256
 30
0.0
 70
0
  0
VERTEX
  8
0
 10
142.239136
 20
133.278259
 30
0.0
 70
0
  0
SEQEND
  8
0
  0
POLYLINE
  8
0
 62
4
 66
1
 10
0.0
 20
0.0
 30
0.0
 70
2
  0
VERTEX
  8
0
 10
146.804138
 20
139.478256
 30
0.0
 70
0
  0
VERTEX
  8
0
 10
146.804138
 20
133.278259
 30
0.0
 70
0
  0
SEQEND
  8
0
  0
POLYLINE
  8
0
 62
4
 66
1
 10
0.0
 20
0.0
 30
0.0
 70
2
  0
VERTEX
  8
0
 10
142.674133
 20
139.478256
 30
0.0
 70
0
  0
VERTEX
  8
0
 10
142.674133
 20
133.278259
 30
0.0
 70
0
  0
SEQEND
  8
0
  0
POLYLINE
  8
0
 62
4
 66
1
 10
0.0
 20
0.0
 30
0.0
 70
2
  0
VERTEX
  8
0
 10
281.543488
 20
133.278259
 30
0.0
 70
0
  0
VERTEX
  8
0
 10
281.543488
 20
139.313065
 30
0.0
 70
0
  0
SEQEND
  8
0
  0
POLYLINE
  8
0
 62
4
 66
1
 10
0.0
 20
0.0
 30
0.0
 70
2
  0
VERTEX
  8
0
 10
286.543488
 20
133.278259
 30
0.0
 70
0
  0
VERTEX
  8
0
 10
286.543488
 20
139.313065
 30
0.0
 70
0
  0
SEQEND
  8
0
  0
POLYLINE
  8
0
 62
4
 66
1
 10
0.0
 20
0.0
 30
0.0
 70
2
  0
VERTEX
  8
0
 10
281.978485
 20
133.278259
 30
0.0
 70
0
  0
VERTEX
  8
0
 10
281.978485
 20
139.365707
 30
0.0
 70
0
  0
SEQEND
  8
0
  0
POLYLINE
  8
0
 62
4
 66
1
 10
0.0
 20
0.0
 30
0.0
 70
2
  0
VERTEX
  8
0
 10
286.10849
 20
133.278259
 30
0.0
 70
0
  0
VERTEX
  8
0
 10
286.10849
 20
139.365707
 30
0.0
 70
0
  0
SEQEND
  8
0
  0
CIRCLE
  8
0
 62
7
 10
144.739136
 20
120.478256
 30
0.0
 40
2.5
  0
CIRCLE
  8
0
 62
4
 10
144.739136
 20
120.478256
 30
0.0
 40
2.065
  0
POLYLINE
  8
0
 62
4
 66
1
 10
0.0
 20
0.0
 30
0.0
 70
2
  0
VERTEX
  8
0
 10
293.725952
 20
122.978256
 30
0.0
 70
0
  0
VERTEX
  8
0
 10
302.878296
 20
122.978256
 30
0.0
 70
0
  0
SEQEND
  8
0
  0
POLYLINE
  8
0
 62
4
 66
1
 10
0.0
 20
0.0
 30
0.0
 70
2
  0
VERTEX
  8
0
 10
293.725952
 20
117.978256
 30
0.0
 70
0
  0
VERTEX
  8
0
 10
302.878296
 20
117.978256
 30
0.0
 70
0
  0
SEQEND
  8
0
  0
POLYLINE
  8
0
 62
4
 66
1
 10
0.0
 20
0.0
 30
0.0
 70
2
  0
VERTEX
  8
0
 10
293.827942
 20
122.543259
 30
0.0
 70
0
  0
VERTEX
  8
0
 10
302.930939
 20
122.543259
 30
0.0
 70
0
  0
SEQEND
  8
0
  0
POLYLINE
  8
0
 62
4
 66
1
 10
0.0
 20
0.0
 30
0.0
 70
2
  0
VERTEX
  8
0
 10
293.827942
 20
118.413254
 30
0.0
 70
0
  0
VERTEX
  8
0
 10
302.930939
 20
118.413254
 30
0.0
 70
0
  0
SEQEND
  8
0
  0
POLYLINE
  8
0
 62
4
 66
1
 10
0.0
 20
0.0
 30
0.0
 70
2
  0
VERTEX
  8
0
 10
119.739136
 20
109.478256
 30
0.0
 70
0
  0
VERTEX
  8
0
 10
119.739136
 20
94.978256
 30
0.0
 70
0
  0
VERTEX
  8
0
 10
120.239136
 20
94.478256
 30
0.0
 70
0
  0
VERTEX
  8
0
 10
139.239136
 20
94.478256
 30
0.0
 70
0
  0
VERTEX
  8
0
 10
139.739136
 20
94.978256
 30
0.0
 70
0
  0
VERTEX
  8
0
 10
139.739136
 20
100.478256
 30
0.0
 70
0
  0
SEQEND
  8
0
  0
POLYLINE
  8
0
 62
4
 66
1
 10
0.0
 20
0.0
 30
0.0
 70
2
  0
VERTEX
  8
0
 10
140.739136
 20
101.478256
 30
0.0
 70
0
  0
VERTEX
  8
0
 10
149.239136
 20
101.478256
 30
0.0
 70
0
  0
VERTEX
  8
0
 10
149.739136
 20
101.978256
 30
0.0
 70
0
  0
VERTEX
  8
0
 10
149.739136
 20
138.978256
 30
0.0
 70
0
  0
VERTEX
  8
0
 10
149.239136
 20
139.478256
 30
0.0
 70
0
  0
VERTEX
  8
0
 10
140.739136
 20
139.478256
 30
0.0
 70
0
  0
SEQEND
  8
0
  0
POLYLINE
  8
0
 62
4
 66
1
 10
0.0
 20
0.0
 30
0.0
 70
2
  0
VERTEX
  8
0
 10
139.739136
 20
140.478256
 30
0.0
 70
0
  0
VERTEX
  8
0
 10
139.739136
 20
145.978256
 30
0.0
 70
0
  0
VERTEX
  8
0
 10
139.239136
 20
146.478256
 30
0.0
 70
0
  0
VERTEX
  8
0
 10
120.239136
 20
146.478256
 30
0.0
 70
0
  0
VERTEX
  8
0
 10
119.739136
 20
145.978256
 30
0.0
 70
0
  0
VERTEX
  8
0
 10
119.739136
 20
109.478256
 30
0.0
 70
0
  0
SEQEND
  8
0
  0
CIRCLE
  8
0
 62
4
 10
284.043488
 20
120.478256
 30
0.0
 40
19.0
  0
ENDSEC
  0
EOF
