  0
SECTION
  2
ENTITIES
  0
LINE
  8
0
 62
4
 10
174.32608
 20
208.527176
 30
0.0
 11
199.32608
 21
208.527176
 31
0.0
  0
LINE
  8
0
 62
4
 10
174.32608
 20
142.277176
 30
0.0
 11
199.32608
 21
142.277176
 31
0.0
  0
LINE
  8
0
 62
4
 10
210.82608
 20
167.902176
 30
0.0
 11
211.32608
 21
167.402176
 31
0.0
  0
LINE
  8
0
 62
4
 10
210.82608
 20
182.902176
 30
0.0
 11
211.32608
 21
183.402176
 31
0.0
  0
LINE
  8
0
 62
4
 10
174.82608
 20
182.902176
 30
0.0
 11
174.82608
 21
167.902176
 31
0.0
  0
POLYLINE
  8
0
 62
4
 66
1
 10
0.0
 20
0.0
 30
0.0
 70
2
  0
VERTEX
  8
0
 10
174.32608
 20
167.402176
 30
0.0
 70
0
  0
VERTEX
  8
0
 10
174.82608
 20
167.902176
 30
0.0
 70
0
  0
VERTEX
  8
0
 10
210.82608
 20
167.902176
 30
0.0
 70
0
  0
VERTEX
  8
0
 10
210.82608
 20
182.902176
 30
0.0
 70
0
  0
VERTEX
  8
0
 10
174.82608
 20
182.902176
 30
0.0
 70
0
  0
VERTEX
  8
0
 10
174.32608
 20
183.402176
 30
0.0
 70
0
  0
SEQEND
  8
0
  0
ARC
  8
0
 62
4
 10
200.82608
 20
207.902176
 30
0.0
 40
1.5
 50
180.0
 51
270.0
  0
ARC
  8
0
 62
4
 10
200.82608
 20
142.902176
 30
0.0
 40
1.5
 50
90.0
 51
180.0
  0
POLYLINE
  8
0
 62
4
 66
1
 10
0.0
 20
0.0
 30
0.0
 70
2
  0
VERTEX
  8
0
 10
174.32608
 20
167.402176
 30
0.0
 70
0
  0
VERTEX
  8
0
 10
174.32608
 20
137.652176
 30
0.0
 70
0
  0
VERTEX
  8
0
 10
175.32608
 20
136.652176
 30
0.0
 70
0
  0
VERTEX
  8
0
 10
198.32608
 20
136.652176
 30
0.0
 70
0
  0
VERTEX
  8
0
 10
199.32608
 20
137.652176
 30
0.0
 70
0
  0
VERTEX
  8
0
 10
199.32608
 20
142.902176
 30
0.0
 70
0
  0
SEQEND
  8
0
  0
POLYLINE
  8
0
 62
4
 66
1
 10
0.0
 20
0.0
 30
0.0
 70
2
  0
VERTEX
  8
0
 10
200.82608
 20
144.402176
 30
0.0
 70
0
  0
VERTEX
  8
0
 10
210.32608
 20
144.402176
 30
0.0
 70
0
  0
VERTEX
  8
0
 10
211.32608
 20
145.402176
 30
0.0
 70
0
  0
VERTEX
  8
0
 10
211.32608
 20
205.402176
 30
0.0
 70
0
  0
VERTEX
  8
0
 10
210.32608
 20
206.402176
 30
0.0
 70
0
  0
VERTEX
  8
0
 10
200.82608
 20
206.402176
 30
0.0
 70
0
  0
SEQEND
  8
0
  0
POLYLINE
  8
0
 62
4
 66
1
 10
0.0
 20
0.0
 30
0.0
 70
2
  0
VERTEX
  8
0
 10
199.32608
 20
207.902176
 30
0.0
 70
0
  0
VERTEX
  8
0
 10
199.32608
 20
213.152176
 30
0.0
 70
0
  0
VERTEX
  8
0
 10
198.32608
 20
214.152176
 30
0.0
 70
0
  0
VERTEX
  8
0
 10
175.32608
 20
214.152176
 30
0.0
 70
0
  0
VERTEX
  8
0
 10
174.32608
 20
213.152176
 30
0.0
 70
0
  0
VERTEX
  8
0
 10
174.32608
 20
167.402176
 30
0.0
 70
0
  0
SEQEND
  8
0
  0
ENDSEC
  0
EOF
