  0
SECTION
  2
ENTITIES
  0
LINE
  8
0
 62
4
 10
149.67392
 20
177.472824
 30
0.0
 11
174.67392
 21
177.472824
 31
0.0
  0
LINE
  8
0
 62
4
 10
149.67392
 20
123.722824
 30
0.0
 11
174.67392
 21
123.722824
 31
0.0
  0
LINE
  8
0
 62
4
 10
186.17392
 20
143.097824
 30
0.0
 11
186.67392
 21
142.597824
 31
0.0
  0
LINE
  8
0
 62
4
 10
186.17392
 20
158.097824
 30
0.0
 11
186.67392
 21
158.597824
 31
0.0
  0
LINE
  8
0
 62
4
 10
150.17392
 20
158.097824
 30
0.0
 11
150.17392
 21
143.097824
 31
0.0
  0
POLYLINE
  8
0
 62
4
 66
1
 10
0.0
 20
0.0
 30
0.0
 70
2
  0
VERTEX
  8
0
 10
149.67392
 20
142.597824
 30
0.0
 70
0
  0
VERTEX
  8
0
 10
150.17392
 20
143.097824
 30
0.0
 70
0
  0
VERTEX
  8
0
 10
186.17392
 20
143.097824
 30
0.0
 70
0
  0
VERTEX
  8
0
 10
186.17392
 20
158.097824
 30
0.0
 70
0
  0
VERTEX
  8
0
 10
150.17392
 20
158.097824
 30
0.0
 70
0
  0
VERTEX
  8
0
 10
149.67392
 20
158.597824
 30
0.0
 70
0
  0
SEQEND
  8
0
  0
ARC
  8
0
 62
4
 10
175.67392
 20
175.597824
 30
0.0
 40
1.0
 50
180.0
 51
270.0
  0
ARC
  8
0
 62
4
 10
175.67392
 20
125.597824
 30
0.0
 40
1.0
 50
90.0
 51
180.0
  0
POLYLINE
  8
0
 62
4
 66
1
 10
0.0
 20
0.0
 30
0.0
 70
2
  0
VERTEX
  8
0
 10
149.67392
 20
142.597824
 30
0.0
 70
0
  0
VERTEX
  8
0
 10
149.67392
 20
119.097824
 30
0.0
 70
0
  0
VERTEX
  8
0
 10
150.67392
 20
118.097824
 30
0.0
 70
0
  0
VERTEX
  8
0
 10
173.67392
 20
118.097824
 30
0.0
 70
0
  0
VERTEX
  8
0
 10
174.67392
 20
119.097824
 30
0.0
 70
0
  0
VERTEX
  8
0
 10
174.67392
 20
125.597824
 30
0.0
 70
0
  0
SEQEND
  8
0
  0
POLYLINE
  8
0
 62
4
 66
1
 10
0.0
 20
0.0
 30
0.0
 70
2
  0
VERTEX
  8
0
 10
175.67392
 20
126.597824
 30
0.0
 70
0
  0
VERTEX
  8
0
 10
185.67392
 20
126.597824
 30
0.0
 70
0
  0
VERTEX
  8
0
 10
186.67392
 20
127.597824
 30
0.0
 70
0
  0
VERTEX
  8
0
 10
186.67392
 20
173.597824
 30
0.0
 70
0
  0
VERTEX
  8
0
 10
185.67392
 20
174.597824
 30
0.0
 70
0
  0
VERTEX
  8
0
 10
175.67392
 20
174.597824
 30
0.0
 70
0
  0
SEQEND
  8
0
  0
POLYLINE
  8
0
 62
4
 66
1
 10
0.0
 20
0.0
 30
0.0
 70
2
  0
VERTEX
  8
0
 10
174.67392
 20
175.597824
 30
0.0
 70
0
  0
VERTEX
  8
0
 10
174.67392
 20
182.097824
 30
0.0
 70
0
  0
VERTEX
  8
0
 10
173.67392
 20
183.097824
 30
0.0
 70
0
  0
VERTEX
  8
0
 10
150.67392
 20
183.097824
 30
0.0
 70
0
  0
VERTEX
  8
0
 10
149.67392
 20
182.097824
 30
0.0
 70
0
  0
VERTEX
  8
0
 10
149.67392
 20
142.597824
 30
0.0
 70
0
  0
SEQEND
  8
0
  0
ENDSEC
  0
EOF
