  0
SECTION
  2
ENTITIES
  0
LINE
  8
0
 62
4
 10
188.413055
 20
226.45108
 30
0.0
 11
213.413055
 21
226.45108
 31
0.0
  0
LINE
  8
0
 62
4
 10
188.413055
 20
152.70108
 30
0.0
 11
213.413055
 21
152.70108
 31
0.0
  0
LINE
  8
0
 62
4
 10
224.913055
 20
180.57608
 30
0.0
 11
225.413055
 21
180.07608
 31
0.0
  0
LINE
  8
0
 62
4
 10
224.913055
 20
198.57608
 30
0.0
 11
225.413055
 21
199.07608
 31
0.0
  0
LINE
  8
0
 62
4
 10
188.913055
 20
198.57608
 30
0.0
 11
188.913055
 21
180.57608
 31
0.0
  0
POLYLINE
  8
0
 62
4
 66
1
 10
0.0
 20
0.0
 30
0.0
 70
2
  0
VERTEX
  8
0
 10
188.413055
 20
180.07608
 30
0.0
 70
0
  0
VERTEX
  8
0
 10
188.913055
 20
180.57608
 30
0.0
 70
0
  0
VERTEX
  8
0
 10
224.913055
 20
180.57608
 30
0.0
 70
0
  0
VERTEX
  8
0
 10
224.913055
 20
198.57608
 30
0.0
 70
0
  0
VERTEX
  8
0
 10
188.913055
 20
198.57608
 30
0.0
 70
0
  0
VERTEX
  8
0
 10
188.413055
 20
199.07608
 30
0.0
 70
0
  0
SEQEND
  8
0
  0
ARC
  8
0
 62
4
 10
214.913055
 20
226.07608
 30
0.0
 40
1.5
 50
180.0
 51
270.0
  0
ARC
  8
0
 62
4
 10
214.913055
 20
153.07608
 30
0.0
 40
1.5
 50
90.0
 51
180.0
  0
ARC
  8
0
 62
4
 10
441.847839
 20
189.57608
 30
0.0
 40
9.0
 50
109.47122094265586
 51
70.52877905734415
  0
POLYLINE
  8
0
 62
4
 66
1
 10
0.0
 20
0.0
 30
0.0
 70
2
  0
VERTEX
  8
0
 10
444.847839
 20
198.061356
 30
0.0
 70
0
  0
VERTEX
  8
0
 10
444.847839
 20
201.376083
 30
0.0
 70
0
  0
VERTEX
  8
0
 10
438.847839
 20
201.376083
 30
0.0
 70
0
  0
VERTEX
  8
0
 10
438.847839
 20
198.061356
 30
0.0
 70
0
  0
SEQEND
  8
0
  0
LINE
  8
0
 62
4
 10
188.413055
 20
201.376083
 30
0.0
 11
225.413055
 21
201.376083
 31
0.0
  0
POLYLINE
  8
0
 62
4
 66
1
 10
0.0
 20
0.0
 30
0.0
 70
2
  0
VERTEX
  8
0
 10
221.913055
 20
224.57608
 30
0.0
 70
0
  0
VERTEX
  8
0
 10
221.913055
 20
201.376083
 30
0.0
 70
0
  0
SEQEND
  8
0
  0
POLYLINE
  8
0
 62
4
 66
1
 10
0.0
 20
0.0
 30
0.0
 70
2
  0
VERTEX
  8
0
 10
216.913055
 20
224.57608
 30
0.0
 70
0
  0
VERTEX
  8
0
 10
216.913055
 20
201.376083
 30
0.0
 70
0
  0
SEQEND
  8
0
  0
POLYLINE
  8
0
 62
4
 66
1
 10
0.0
 20
0.0
 30
0.0
 70
2
  0
VERTEX
  8
0
 10
221.478058
 20
224.57608
 30
0.0
 70
0
  0
VERTEX
  8
0
 10
221.478058
 20
201.376083
 30
0.0
 70
0
  0
SEQEND
  8
0
  0
POLYLINE
  8
0
 62
4
 66
1
 10
0.0
 20
0.0
 30
0.0
 70
2
  0
VERTEX
  8
0
 10
217.348053
 20
224.57608
 30
0.0
 70
0
  0
VERTEX
  8
0
 10
217.348053
 20
201.376083
 30
0.0
 70
0
  0
SEQEND
  8
0
  0
POLYLINE
  8
0
 62
4
 66
1
 10
0.0
 20
0.0
 30
0.0
 70
2
  0
VERTEX
  8
0
 10
439.347839
 20
201.376083
 30
0.0
 70
0
  0
VERTEX
  8
0
 10
439.347839
 20
224.486679
 30
0.0
 70
0
  0
SEQEND
  8
0
  0
POLYLINE
  8
0
 62
4
 66
1
 10
0.0
 20
0.0
 30
0.0
 70
2
  0
VERTEX
  8
0
 10
444.347839
 20
201.376083
 30
0.0
 70
0
  0
VERTEX
  8
0
 10
444.347839
 20
224.486679
 30
0.0
 70
0
  0
SEQEND
  8
0
  0
POLYLINE
  8
0
 62
4
 66
1
 10
0.0
 20
0.0
 30
0.0
 70
2
  0
VERTEX
  8
0
 10
439.782837
 20
201.376083
 30
0.0
 70
0
  0
VERTEX
  8
0
 10
439.782837
 20
224.515106
 30
0.0
 70
0
  0
SEQEND
  8
0
  0
POLYLINE
  8
0
 62
4
 66
1
 10
0.0
 20
0.0
 30
0.0
 70
2
  0
VERTEX
  8
0
 10
443.912842
 20
201.376083
 30
0.0
 70
0
  0
VERTEX
  8
0
 10
443.912842
 20
224.515106
 30
0.0
 70
0
  0
SEQEND
  8
0
  0
CIRCLE
  8
0
 62
7
 10
219.413055
 20
189.57608
 30
0.0
 40
2.5
  0
CIRCLE
  8
0
 62
4
 10
219.413055
 20
189.57608
 30
0.0
 40
2.065
  0
POLYLINE
  8
0
 62
4
 66
1
 10
0.0
 20
0.0
 30
0.0
 70
2
  0
VERTEX
  8
0
 10
450.493652
 20
192.07608
 30
0.0
 70
0
  0
VERTEX
  8
0
 10
476.758453
 20
192.07608
 30
0.0
 70
0
  0
SEQEND
  8
0
  0
POLYLINE
  8
0
 62
4
 66
1
 10
0.0
 20
0.0
 30
0.0
 70
2
  0
VERTEX
  8
0
 10
450.493652
 20
187.07608
 30
0.0
 70
0
  0
VERTEX
  8
0
 10
476.758453
 20
187.07608
 30
0.0
 70
0
  0
SEQEND
  8
0
  0
POLYLINE
  8
0
 62
4
 66
1
 10
0.0
 20
0.0
 30
0.0
 70
2
  0
VERTEX
  8
0
 10
450.607727
 20
191.641083
 30
0.0
 70
0
  0
VERTEX
  8
0
 10
476.786865
 20
191.641083
 30
0.0
 70
0
  0
SEQEND
  8
0
  0
POLYLINE
  8
0
 62
4
 66
1
 10
0.0
 20
0.0
 30
0.0
 70
2
  0
VERTEX
  8
0
 10
450.607727
 20
187.511078
 30
0.0
 70
0
  0
VERTEX
  8
0
 10
476.786865
 20
187.511078
 30
0.0
 70
0
  0
SEQEND
  8
0
  0
POLYLINE
  8
0
 62
4
 66
1
 10
0.0
 20
0.0
 30
0.0
 70
2
  0
VERTEX
  8
0
 10
188.413055
 20
180.07608
 30
0.0
 70
0
  0
VERTEX
  8
0
 10
188.413055
 20
148.07608
 30
0.0
 70
0
  0
VERTEX
  8
0
 10
189.413055
 20
147.07608
 30
0.0
 70
0
  0
VERTEX
  8
0
 10
212.413055
 20
147.07608
 30
0.0
 70
0
  0
VERTEX
  8
0
 10
213.413055
 20
148.07608
 30
0.0
 70
0
  0
VERTEX
  8
0
 10
213.413055
 20
153.07608
 30
0.0
 70
0
  0
SEQEND
  8
0
  0
POLYLINE
  8
0
 62
4
 66
1
 10
0.0
 20
0.0
 30
0.0
 70
2
  0
VERTEX
  8
0
 10
214.913055
 20
154.57608
 30
0.0
 70
0
  0
VERTEX
  8
0
 10
224.413055
 20
154.57608
 30
0.0
 70
0
  0
VERTEX
  8
0
 10
225.413055
 20
155.57608
 30
0.0
 70
0
  0
VERTEX
  8
0
 10
225.413055
 20
223.57608
 30
0.0
 70
0
  0
VERTEX
  8
0
 10
224.413055
 20
224.57608
 30
0.0
 70
0
  0
VERTEX
  8
0
 10
214.913055
 20
224.57608
 30
0.0
 70
0
  0
SEQEND
  8
0
  0
POLYLINE
  8
0
 62
4
 66
1
 10
0.0
 20
0.0
 30
0.0
 70
2
  0
VERTEX
  8
0
 10
213.413055
 20
226.07608
 30
0.0
 70
0
  0
VERTEX
  8
0
 10
213.413055
 20
231.07608
 30
0.0
 70
0
  0
VERTEX
  8
0
 10
212.413055
 20
232.07608
 30
0.0
 70
0
  0
VERTEX
  8
0
 10
189.413055
 20
232.07608
 30
0.0
 70
0
  0
VERTEX
  8
0
 10
188.413055
 20
231.07608
 30
0.0
 70
0
  0
VERTEX
  8
0
 10
188.413055
 20
180.07608
 30
0.0
 70
0
  0
SEQEND
  8
0
  0
CIRCLE
  8
0
 62
4
 10
441.847839
 20
189.57608
 30
0.0
 40
35.0
  0
ENDSEC
  0
EOF
