  0
SECTION
  2
ENTITIES
  0
LINE
  8
0
 62
4
 10
188.413055
 20
228.95108
 30
0.0
 11
213.413055
 21
228.95108
 31
0.0
  0
LINE
  8
0
 62
4
 10
188.413055
 20
150.20108
 30
0.0
 11
213.413055
 21
150.20108
 31
0.0
  0
LINE
  8
0
 62
4
 10
224.913055
 20
182.07608
 30
0.0
 11
225.413055
 21
181.57608
 31
0.0
  0
LINE
  8
0
 62
4
 10
224.913055
 20
197.07608
 30
0.0
 11
225.413055
 21
197.57608
 31
0.0
  0
LINE
  8
0
 62
4
 10
188.913055
 20
197.07608
 30
0.0
 11
188.913055
 21
182.07608
 31
0.0
  0
POLYLINE
  8
0
 62
4
 66
1
 10
0.0
 20
0.0
 30
0.0
 70
2
  0
VERTEX
  8
0
 10
188.413055
 20
181.57608
 30
0.0
 70
0
  0
VERTEX
  8
0
 10
188.913055
 20
182.07608
 30
0.0
 70
0
  0
VERTEX
  8
0
 10
224.913055
 20
182.07608
 30
0.0
 70
0
  0
VERTEX
  8
0
 10
224.913055
 20
197.07608
 30
0.0
 70
0
  0
VERTEX
  8
0
 10
188.913055
 20
197.07608
 30
0.0
 70
0
  0
VERTEX
  8
0
 10
188.413055
 20
197.57608
 30
0.0
 70
0
  0
SEQEND
  8
0
  0
ARC
  8
0
 62
4
 10
214.913055
 20
226.07608
 30
0.0
 40
1.5
 50
180.0
 51
270.0
  0
ARC
  8
0
 62
4
 10
214.913055
 20
153.07608
 30
0.0
 40
1.5
 50
90.0
 51
180.0
  0
POLYLINE
  8
0
 62
4
 66
1
 10
0.0
 20
0.0
 30
0.0
 70
2
  0
VERTEX
  8
0
 10
188.413055
 20
181.57608
 30
0.0
 70
0
  0
VERTEX
  8
0
 10
188.413055
 20
145.57608
 30
0.0
 70
0
  0
VERTEX
  8
0
 10
189.413055
 20
144.57608
 30
0.0
 70
0
  0
VERTEX
  8
0
 10
212.413055
 20
144.57608
 30
0.0
 70
0
  0
VERTEX
  8
0
 10
213.413055
 20
145.57608
 30
0.0
 70
0
  0
VERTEX
  8
0
 10
213.413055
 20
153.07608
 30
0.0
 70
0
  0
SEQEND
  8
0
  0
POLYLINE
  8
0
 62
4
 66
1
 10
0.0
 20
0.0
 30
0.0
 70
2
  0
VERTEX
  8
0
 10
214.913055
 20
154.57608
 30
0.0
 70
0
  0
VERTEX
  8
0
 10
224.413055
 20
154.57608
 30
0.0
 70
0
  0
VERTEX
  8
0
 10
225.413055
 20
155.57608
 30
0.0
 70
0
  0
VERTEX
  8
0
 10
225.413055
 20
223.57608
 30
0.0
 70
0
  0
VERTEX
  8
0
 10
224.413055
 20
224.57608
 30
0.0
 70
0
  0
VERTEX
  8
0
 10
214.913055
 20
224.57608
 30
0.0
 70
0
  0
SEQEND
  8
0
  0
POLYLINE
  8
0
 62
4
 66
1
 10
0.0
 20
0.0
 30
0.0
 70
2
  0
VERTEX
  8
0
 10
213.413055
 20
226.07608
 30
0.0
 70
0
  0
VERTEX
  8
0
 10
213.413055
 20
233.57608
 30
0.0
 70
0
  0
VERTEX
  8
0
 10
212.413055
 20
234.57608
 30
0.0
 70
0
  0
VERTEX
  8
0
 10
189.413055
 20
234.57608
 30
0.0
 70
0
  0
VERTEX
  8
0
 10
188.413055
 20
233.57608
 30
0.0
 70
0
  0
VERTEX
  8
0
 10
188.413055
 20
181.57608
 30
0.0
 70
0
  0
SEQEND
  8
0
  0
ENDSEC
  0
EOF
