  0
SECTION
  2
ENTITIES
  0
LINE
  8
0
 62
4
 10
146.152161
 20
172.679352
 30
0.0
 11
171.152161
 21
172.679352
 31
0.0
  0
LINE
  8
0
 62
4
 10
146.152161
 20
121.429352
 30
0.0
 11
171.152161
 21
121.429352
 31
0.0
  0
LINE
  8
0
 62
4
 10
182.152161
 20
137.054352
 30
0.0
 11
183.152161
 21
136.054352
 31
0.0
  0
LINE
  8
0
 62
4
 10
182.152161
 20
157.054352
 30
0.0
 11
183.152161
 21
158.054352
 31
0.0
  0
LINE
  8
0
 62
4
 10
147.152161
 20
157.054352
 30
0.0
 11
147.152161
 21
137.054352
 31
0.0
  0
POLYLINE
  8
0
 62
4
 66
1
 10
0.0
 20
0.0
 30
0.0
 70
2
  0
VERTEX
  8
0
 10
146.152161
 20
136.054352
 30
0.0
 70
0
  0
VERTEX
  8
0
 10
147.152161
 20
137.054352
 30
0.0
 70
0
  0
VERTEX
  8
0
 10
182.152161
 20
137.054352
 30
0.0
 70
0
  0
VERTEX
  8
0
 10
182.152161
 20
157.054352
 30
0.0
 70
0
  0
VERTEX
  8
0
 10
147.152161
 20
157.054352
 30
0.0
 70
0
  0
VERTEX
  8
0
 10
146.152161
 20
158.054352
 30
0.0
 70
0
  0
SEQEND
  8
0
  0
ARC
  8
0
 62
4
 10
172.152161
 20
171.054352
 30
0.0
 40
1.0
 50
180.0
 51
270.0
  0
ARC
  8
0
 62
4
 10
172.152161
 20
123.054352
 30
0.0
 40
1.0
 50
90.0
 51
180.0
  0
ARC
  8
0
 62
4
 10
346.891296
 20
147.054352
 30
0.0
 40
10.0
 50
107.45760274776076
 51
72.54239725223924
  0
POLYLINE
  8
0
 62
4
 66
1
 10
0.0
 20
0.0
 30
0.0
 70
2
  0
VERTEX
  8
0
 10
349.891296
 20
156.59375
 30
0.0
 70
0
  0
VERTEX
  8
0
 10
349.891296
 20
159.854355
 30
0.0
 70
0
  0
VERTEX
  8
0
 10
343.891296
 20
159.854355
 30
0.0
 70
0
  0
VERTEX
  8
0
 10
343.891296
 20
156.59375
 30
0.0
 70
0
  0
SEQEND
  8
0
  0
LINE
  8
0
 62
4
 10
146.152161
 20
159.854355
 30
0.0
 11
183.152161
 21
159.854355
 31
0.0
  0
POLYLINE
  8
0
 62
4
 66
1
 10
0.0
 20
0.0
 30
0.0
 70
2
  0
VERTEX
  8
0
 10
179.652161
 20
170.054352
 30
0.0
 70
0
  0
VERTEX
  8
0
 10
179.652161
 20
159.854355
 30
0.0
 70
0
  0
SEQEND
  8
0
  0
POLYLINE
  8
0
 62
4
 66
1
 10
0.0
 20
0.0
 30
0.0
 70
2
  0
VERTEX
  8
0
 10
174.652161
 20
170.054352
 30
0.0
 70
0
  0
VERTEX
  8
0
 10
174.652161
 20
159.854355
 30
0.0
 70
0
  0
SEQEND
  8
0
  0
POLYLINE
  8
0
 62
4
 66
1
 10
0.0
 20
0.0
 30
0.0
 70
2
  0
VERTEX
  8
0
 10
179.217163
 20
170.054352
 30
0.0
 70
0
  0
VERTEX
  8
0
 10
179.217163
 20
159.854355
 30
0.0
 70
0
  0
SEQEND
  8
0
  0
POLYLINE
  8
0
 62
4
 66
1
 10
0.0
 20
0.0
 30
0.0
 70
2
  0
VERTEX
  8
0
 10
175.087158
 20
170.054352
 30
0.0
 70
0
  0
VERTEX
  8
0
 10
175.087158
 20
159.854355
 30
0.0
 70
0
  0
SEQEND
  8
0
  0
POLYLINE
  8
0
 62
4
 66
1
 10
0.0
 20
0.0
 30
0.0
 70
2
  0
VERTEX
  8
0
 10
344.391296
 20
159.854355
 30
0.0
 70
0
  0
VERTEX
  8
0
 10
344.391296
 20
169.918076
 30
0.0
 70
0
  0
SEQEND
  8
0
  0
POLYLINE
  8
0
 62
4
 66
1
 10
0.0
 20
0.0
 30
0.0
 70
2
  0
VERTEX
  8
0
 10
349.391296
 20
159.854355
 30
0.0
 70
0
  0
VERTEX
  8
0
 10
349.391296
 20
169.918076
 30
0.0
 70
0
  0
SEQEND
  8
0
  0
POLYLINE
  8
0
 62
4
 66
1
 10
0.0
 20
0.0
 30
0.0
 70
2
  0
VERTEX
  8
0
 10
344.826294
 20
159.854355
 30
0.0
 70
0
  0
VERTEX
  8
0
 10
344.826294
 20
169.961456
 30
0.0
 70
0
  0
SEQEND
  8
0
  0
POLYLINE
  8
0
 62
4
 66
1
 10
0.0
 20
0.0
 30
0.0
 70
2
  0
VERTEX
  8
0
 10
348.956299
 20
159.854355
 30
0.0
 70
0
  0
VERTEX
  8
0
 10
348.956299
 20
169.961456
 30
0.0
 70
0
  0
SEQEND
  8
0
  0
CIRCLE
  8
0
 62
7
 10
177.152161
 20
147.054352
 30
0.0
 40
2.5
  0
CIRCLE
  8
0
 62
4
 10
177.152161
 20
147.054352
 30
0.0
 40
2.065
  0
POLYLINE
  8
0
 62
4
 66
1
 10
0.0
 20
0.0
 30
0.0
 70
2
  0
VERTEX
  8
0
 10
356.573761
 20
149.554352
 30
0.0
 70
0
  0
VERTEX
  8
0
 10
369.755005
 20
149.554352
 30
0.0
 70
0
  0
SEQEND
  8
0
  0
POLYLINE
  8
0
 62
4
 66
1
 10
0.0
 20
0.0
 30
0.0
 70
2
  0
VERTEX
  8
0
 10
356.573761
 20
144.554352
 30
0.0
 70
0
  0
VERTEX
  8
0
 10
369.755005
 20
144.554352
 30
0.0
 70
0
  0
SEQEND
  8
0
  0
POLYLINE
  8
0
 62
4
 66
1
 10
0.0
 20
0.0
 30
0.0
 70
2
  0
VERTEX
  8
0
 10
356.675781
 20
149.119354
 30
0.0
 70
0
  0
VERTEX
  8
0
 10
369.798401
 20
149.119354
 30
0.0
 70
0
  0
SEQEND
  8
0
  0
POLYLINE
  8
0
 62
4
 66
1
 10
0.0
 20
0.0
 30
0.0
 70
2
  0
VERTEX
  8
0
 10
356.675781
 20
144.989349
 30
0.0
 70
0
  0
VERTEX
  8
0
 10
369.798401
 20
144.989349
 30
0.0
 70
0
  0
SEQEND
  8
0
  0
POLYLINE
  8
0
 62
4
 66
1
 10
0.0
 20
0.0
 30
0.0
 70
2
  0
VERTEX
  8
0
 10
146.152161
 20
136.054352
 30
0.0
 70
0
  0
VERTEX
  8
0
 10
146.152161
 20
116.804352
 30
0.0
 70
0
  0
VERTEX
  8
0
 10
147.152161
 20
115.804352
 30
0.0
 70
0
  0
VERTEX
  8
0
 10
170.152161
 20
115.804352
 30
0.0
 70
0
  0
VERTEX
  8
0
 10
171.152161
 20
116.804352
 30
0.0
 70
0
  0
VERTEX
  8
0
 10
171.152161
 20
123.054352
 30
0.0
 70
0
  0
SEQEND
  8
0
  0
POLYLINE
  8
0
 62
4
 66
1
 10
0.0
 20
0.0
 30
0.0
 70
2
  0
VERTEX
  8
0
 10
172.152161
 20
124.054352
 30
0.0
 70
0
  0
VERTEX
  8
0
 10
182.152161
 20
124.054352
 30
0.0
 70
0
  0
VERTEX
  8
0
 10
183.152161
 20
125.054352
 30
0.0
 70
0
  0
VERTEX
  8
0
 10
183.152161
 20
169.054352
 30
0.0
 70
0
  0
VERTEX
  8
0
 10
182.152161
 20
170.054352
 30
0.0
 70
0
  0
VERTEX
  8
0
 10
172.152161
 20
170.054352
 30
0.0
 70
0
  0
SEQEND
  8
0
  0
POLYLINE
  8
0
 62
4
 66
1
 10
0.0
 20
0.0
 30
0.0
 70
2
  0
VERTEX
  8
0
 10
171.152161
 20
171.054352
 30
0.0
 70
0
  0
VERTEX
  8
0
 10
171.152161
 20
177.304352
 30
0.0
 70
0
  0
VERTEX
  8
0
 10
170.152161
 20
178.304352
 30
0.0
 70
0
  0
VERTEX
  8
0
 10
147.152161
 20
178.304352
 30
0.0
 70
0
  0
VERTEX
  8
0
 10
146.152161
 20
177.304352
 30
0.0
 70
0
  0
VERTEX
  8
0
 10
146.152161
 20
136.054352
 30
0.0
 70
0
  0
SEQEND
  8
0
  0
CIRCLE
  8
0
 62
4
 10
346.891296
 20
147.054352
 30
0.0
 40
23.0
  0
ENDSEC
  0
EOF
