  0
SECTION
  2
ENTITIES
  0
LINE
  8
0
 62
4
 10
126.782608
 20
145.690216
 30
0.0
 11
151.782608
 21
145.690216
 31
0.0
  0
LINE
  8
0
 62
4
 10
126.782608
 20
109.440208
 30
0.0
 11
151.782608
 21
109.440208
 31
0.0
  0
LINE
  8
0
 62
4
 10
163.282608
 20
119.065208
 30
0.0
 11
163.782608
 21
118.565208
 31
0.0
  0
LINE
  8
0
 62
4
 10
163.282608
 20
136.065216
 30
0.0
 11
163.782608
 21
136.565216
 31
0.0
  0
LINE
  8
0
 62
4
 10
127.282608
 20
136.065216
 30
0.0
 11
127.282608
 21
119.065208
 31
0.0
  0
POLYLINE
  8
0
 62
4
 66
1
 10
0.0
 20
0.0
 30
0.0
 70
2
  0
VERTEX
  8
0
 10
126.782608
 20
118.565208
 30
0.0
 70
0
  0
VERTEX
  8
0
 10
127.282608
 20
119.065208
 30
0.0
 70
0
  0
VERTEX
  8
0
 10
163.282608
 20
119.065208
 30
0.0
 70
0
  0
VERTEX
  8
0
 10
163.282608
 20
136.065216
 30
0.0
 70
0
  0
VERTEX
  8
0
 10
127.282608
 20
136.065216
 30
0.0
 70
0
  0
VERTEX
  8
0
 10
126.782608
 20
136.565216
 30
0.0
 70
0
  0
SEQEND
  8
0
  0
ARC
  8
0
 62
4
 10
152.782608
 20
146.065216
 30
0.0
 40
1.0
 50
180.0
 51
270.0
  0
ARC
  8
0
 62
4
 10
152.782608
 20
109.065208
 30
0.0
 40
1.0
 50
90.0
 51
180.0
  0
ARC
  8
0
 62
4
 10
303.369568
 20
127.565208
 30
0.0
 40
8.5
 50
107.10463483476482
 51
72.89536516523518
  0
POLYLINE
  8
0
 62
4
 66
1
 10
0.0
 20
0.0
 30
0.0
 70
2
  0
VERTEX
  8
0
 10
305.869568
 20
135.68924
 30
0.0
 70
0
  0
VERTEX
  8
0
 10
305.869568
 20
138.365204
 30
0.0
 70
0
  0
VERTEX
  8
0
 10
300.869568
 20
138.365204
 30
0.0
 70
0
  0
VERTEX
  8
0
 10
300.869568
 20
135.68924
 30
0.0
 70
0
  0
SEQEND
  8
0
  0
LINE
  8
0
 62
4
 10
126.782608
 20
138.365204
 30
0.0
 11
163.782608
 21
138.365204
 31
0.0
  0
POLYLINE
  8
0
 62
4
 66
1
 10
0.0
 20
0.0
 30
0.0
 70
2
  0
VERTEX
  8
0
 10
159.782608
 20
145.065216
 30
0.0
 70
0
  0
VERTEX
  8
0
 10
159.782608
 20
138.365204
 30
0.0
 70
0
  0
SEQEND
  8
0
  0
POLYLINE
  8
0
 62
4
 66
1
 10
0.0
 20
0.0
 30
0.0
 70
2
  0
VERTEX
  8
0
 10
155.782608
 20
145.065216
 30
0.0
 70
0
  0
VERTEX
  8
0
 10
155.782608
 20
138.365204
 30
0.0
 70
0
  0
SEQEND
  8
0
  0
POLYLINE
  8
0
 62
4
 66
1
 10
0.0
 20
0.0
 30
0.0
 70
2
  0
VERTEX
  8
0
 10
159.402603
 20
145.065216
 30
0.0
 70
0
  0
VERTEX
  8
0
 10
159.402603
 20
138.365204
 30
0.0
 70
0
  0
SEQEND
  8
0
  0
POLYLINE
  8
0
 62
4
 66
1
 10
0.0
 20
0.0
 30
0.0
 70
2
  0
VERTEX
  8
0
 10
156.162613
 20
145.065216
 30
0.0
 70
0
  0
VERTEX
  8
0
 10
156.162613
 20
138.365204
 30
0.0
 70
0
  0
SEQEND
  8
0
  0
POLYLINE
  8
0
 62
4
 66
1
 10
0.0
 20
0.0
 30
0.0
 70
2
  0
VERTEX
  8
0
 10
301.369568
 20
138.365204
 30
0.0
 70
0
  0
VERTEX
  8
0
 10
301.369568
 20
144.950546
 30
0.0
 70
0
  0
SEQEND
  8
0
  0
POLYLINE
  8
0
 62
4
 66
1
 10
0.0
 20
0.0
 30
0.0
 70
2
  0
VERTEX
  8
0
 10
305.369568
 20
138.365204
 30
0.0
 70
0
  0
VERTEX
  8
0
 10
305.369568
 20
144.950546
 30
0.0
 70
0
  0
SEQEND
  8
0
  0
POLYLINE
  8
0
 62
4
 66
1
 10
0.0
 20
0.0
 30
0.0
 70
2
  0
VERTEX
  8
0
 10
301.749573
 20
138.365204
 30
0.0
 70
0
  0
VERTEX
  8
0
 10
301.749573
 20
144.990067
 30
0.0
 70
0
  0
SEQEND
  8
0
  0
POLYLINE
  8
0
 62
4
 66
1
 10
0.0
 20
0.0
 30
0.0
 70
2
  0
VERTEX
  8
0
 10
304.989563
 20
138.365204
 30
0.0
 70
0
  0
VERTEX
  8
0
 10
304.989563
 20
144.990067
 30
0.0
 70
0
  0
SEQEND
  8
0
  0
CIRCLE
  8
0
 62
7
 10
157.782608
 20
127.565208
 30
0.0
 40
2.0
  0
CIRCLE
  8
0
 62
4
 10
157.782608
 20
127.565208
 30
0.0
 40
1.62
  0
POLYLINE
  8
0
 62
4
 66
1
 10
0.0
 20
0.0
 30
0.0
 70
2
  0
VERTEX
  8
0
 10
311.63092
 20
129.565216
 30
0.0
 70
0
  0
VERTEX
  8
0
 10
320.754883
 20
129.565216
 30
0.0
 70
0
  0
SEQEND
  8
0
  0
POLYLINE
  8
0
 62
4
 66
1
 10
0.0
 20
0.0
 30
0.0
 70
2
  0
VERTEX
  8
0
 10
311.63092
 20
125.565208
 30
0.0
 70
0
  0
VERTEX
  8
0
 10
320.754883
 20
125.565208
 30
0.0
 70
0
  0
SEQEND
  8
0
  0
POLYLINE
  8
0
 62
4
 66
1
 10
0.0
 20
0.0
 30
0.0
 70
2
  0
VERTEX
  8
0
 10
311.713745
 20
129.185211
 30
0.0
 70
0
  0
VERTEX
  8
0
 10
320.794434
 20
129.185211
 30
0.0
 70
0
  0
SEQEND
  8
0
  0
POLYLINE
  8
0
 62
4
 66
1
 10
0.0
 20
0.0
 30
0.0
 70
2
  0
VERTEX
  8
0
 10
311.713745
 20
125.945206
 30
0.0
 70
0
  0
VERTEX
  8
0
 10
320.794434
 20
125.945206
 30
0.0
 70
0
  0
SEQEND
  8
0
  0
POLYLINE
  8
0
 62
4
 66
1
 10
0.0
 20
0.0
 30
0.0
 70
2
  0
VERTEX
  8
0
 10
126.782608
 20
118.565208
 30
0.0
 70
0
  0
VERTEX
  8
0
 10
126.782608
 20
104.815208
 30
0.0
 70
0
  0
VERTEX
  8
0
 10
127.782608
 20
103.815208
 30
0.0
 70
0
  0
VERTEX
  8
0
 10
150.782608
 20
103.815208
 30
0.0
 70
0
  0
VERTEX
  8
0
 10
151.782608
 20
104.815208
 30
0.0
 70
0
  0
VERTEX
  8
0
 10
151.782608
 20
109.065208
 30
0.0
 70
0
  0
SEQEND
  8
0
  0
POLYLINE
  8
0
 62
4
 66
1
 10
0.0
 20
0.0
 30
0.0
 70
2
  0
VERTEX
  8
0
 10
152.782608
 20
110.065208
 30
0.0
 70
0
  0
VERTEX
  8
0
 10
162.782608
 20
110.065208
 30
0.0
 70
0
  0
VERTEX
  8
0
 10
163.782608
 20
111.065208
 30
0.0
 70
0
  0
VERTEX
  8
0
 10
163.782608
 20
144.065216
 30
0.0
 70
0
  0
VERTEX
  8
0
 10
162.782608
 20
145.065216
 30
0.0
 70
0
  0
VERTEX
  8
0
 10
152.782608
 20
145.065216
 30
0.0
 70
0
  0
SEQEND
  8
0
  0
POLYLINE
  8
0
 62
4
 66
1
 10
0.0
 20
0.0
 30
0.0
 70
2
  0
VERTEX
  8
0
 10
151.782608
 20
146.065216
 30
0.0
 70
0
  0
VERTEX
  8
0
 10
151.782608
 20
150.315216
 30
0.0
 70
0
  0
VERTEX
  8
0
 10
150.782608
 20
151.315216
 30
0.0
 70
0
  0
VERTEX
  8
0
 10
127.782608
 20
151.315216
 30
0.0
 70
0
  0
VERTEX
  8
0
 10
126.782608
 20
150.315216
 30
0.0
 70
0
  0
VERTEX
  8
0
 10
126.782608
 20
118.565208
 30
0.0
 70
0
  0
SEQEND
  8
0
  0
CIRCLE
  8
0
 62
4
 10
303.369568
 20
127.565208
 30
0.0
 40
17.5
  0
ENDSEC
  0
EOF
