  0
SECTION
  2
ENTITIES
  0
ARC
  8
0
 62
4
 10
243.324326
 20
283.905396
 30
0.0
 40
2.0
 50
270.0
 51
0.0
  0
ARC
  8
0
 62
4
 10
243.324326
 20
199.905411
 30
0.0
 40
2.0
 50
0.0
 51
90.0
  0
LINE
  8
0
 62
4
 10
240.324326
 20
323.780396
 30
0.0
 11
265.324341
 21
323.780396
 31
0.0
  0
LINE
  8
0
 62
4
 10
240.324326
 20
160.030411
 30
0.0
 11
265.324341
 21
160.030411
 31
0.0
  0
LINE
  8
0
 62
4
 10
277.324341
 20
256.905396
 30
0.0
 11
276.324341
 21
255.905411
 31
0.0
  0
LINE
  8
0
 62
4
 10
277.324341
 20
226.905411
 30
0.0
 11
276.324341
 21
227.905411
 31
0.0
  0
LINE
  8
0
 62
4
 10
240.324326
 20
226.905411
 30
0.0
 11
241.324326
 21
227.905411
 31
0.0
  0
LINE
  8
0
 62
4
 10
240.324326
 20
281.905396
 30
0.0
 11
243.324326
 21
281.905396
 31
0.0
  0
LINE
  8
0
 62
4
 10
240.324326
 20
201.905411
 30
0.0
 11
243.324326
 21
201.905411
 31
0.0
  0
POLYLINE
  8
0
 62
4
 66
1
 10
0.0
 20
0.0
 30
0.0
 70
2
  0
VERTEX
  8
0
 10
260.324341
 20
283.905396
 30
0.0
 70
0
  0
VERTEX
  8
0
 10
260.324341
 20
302.092346
 30
0.0
 70
0
  0
VERTEX
  8
0
 10
265.324341
 20
311.905396
 30
0.0
 70
0
  0
SEQEND
  8
0
  0
POLYLINE
  8
0
 62
4
 66
1
 10
0.0
 20
0.0
 30
0.0
 70
2
  0
VERTEX
  8
0
 10
245.324326
 20
283.905396
 30
0.0
 70
0
  0
VERTEX
  8
0
 10
245.324326
 20
302.092346
 30
0.0
 70
0
  0
VERTEX
  8
0
 10
240.324326
 20
311.905396
 30
0.0
 70
0
  0
SEQEND
  8
0
  0
POLYLINE
  8
0
 62
4
 66
1
 10
0.0
 20
0.0
 30
0.0
 70
2
  0
VERTEX
  8
0
 10
260.324341
 20
199.905411
 30
0.0
 70
0
  0
VERTEX
  8
0
 10
260.324341
 20
181.71846
 30
0.0
 70
0
  0
VERTEX
  8
0
 10
265.324341
 20
171.905411
 30
0.0
 70
0
  0
SEQEND
  8
0
  0
POLYLINE
  8
0
 62
4
 66
1
 10
0.0
 20
0.0
 30
0.0
 70
2
  0
VERTEX
  8
0
 10
245.324326
 20
199.905411
 30
0.0
 70
0
  0
VERTEX
  8
0
 10
245.324326
 20
181.71846
 30
0.0
 70
0
  0
VERTEX
  8
0
 10
240.324326
 20
171.905411
 30
0.0
 70
0
  0
SEQEND
  8
0
  0
POLYLINE
  8
0
 62
4
 66
1
 10
0.0
 20
0.0
 30
0.0
 70
2
  0
VERTEX
  8
0
 10
240.324326
 20
256.905396
 30
0.0
 70
0
  0
VERTEX
  8
0
 10
241.324326
 20
255.905411
 30
0.0
 70
0
  0
VERTEX
  8
0
 10
241.324326
 20
227.905411
 30
0.0
 70
0
  0
VERTEX
  8
0
 10
276.324341
 20
227.905411
 30
0.0
 70
0
  0
VERTEX
  8
0
 10
276.324341
 20
255.905411
 30
0.0
 70
0
  0
VERTEX
  8
0
 10
241.324326
 20
255.905411
 30
0.0
 70
0
  0
SEQEND
  8
0
  0
ARC
  8
0
 62
4
 10
617.729736
 20
241.905411
 30
0.0
 40
14.0
 50
106.60154992625478
 51
73.39845007374521
  0
POLYLINE
  8
0
 62
4
 66
1
 10
0.0
 20
0.0
 30
0.0
 70
2
  0
VERTEX
  8
0
 10
621.729736
 20
255.321823
 30
0.0
 70
0
  0
VERTEX
  8
0
 10
621.729736
 20
259.205414
 30
0.0
 70
0
  0
VERTEX
  8
0
 10
613.729736
 20
259.205414
 30
0.0
 70
0
  0
VERTEX
  8
0
 10
613.729736
 20
255.321823
 30
0.0
 70
0
  0
SEQEND
  8
0
  0
LINE
  8
0
 62
4
 10
240.324326
 20
259.205414
 30
0.0
 11
277.324341
 21
259.205414
 31
0.0
  0
POLYLINE
  8
0
 62
4
 66
1
 10
0.0
 20
0.0
 30
0.0
 70
2
  0
VERTEX
  8
0
 10
274.324341
 20
281.905396
 30
0.0
 70
0
  0
VERTEX
  8
0
 10
274.324341
 20
259.205414
 30
0.0
 70
0
  0
SEQEND
  8
0
  0
POLYLINE
  8
0
 62
4
 66
1
 10
0.0
 20
0.0
 30
0.0
 70
2
  0
VERTEX
  8
0
 10
268.324341
 20
281.905396
 30
0.0
 70
0
  0
VERTEX
  8
0
 10
268.324341
 20
259.205414
 30
0.0
 70
0
  0
SEQEND
  8
0
  0
POLYLINE
  8
0
 62
4
 66
1
 10
0.0
 20
0.0
 30
0.0
 70
2
  0
VERTEX
  8
0
 10
273.784332
 20
281.905396
 30
0.0
 70
0
  0
VERTEX
  8
0
 10
273.784332
 20
259.205414
 30
0.0
 70
0
  0
SEQEND
  8
0
  0
POLYLINE
  8
0
 62
4
 66
1
 10
0.0
 20
0.0
 30
0.0
 70
2
  0
VERTEX
  8
0
 10
268.864319
 20
281.905396
 30
0.0
 70
0
  0
VERTEX
  8
0
 10
268.864319
 20
259.205414
 30
0.0
 70
0
  0
SEQEND
  8
0
  0
POLYLINE
  8
0
 62
4
 66
1
 10
0.0
 20
0.0
 30
0.0
 70
2
  0
VERTEX
  8
0
 10
614.729736
 20
259.205414
 30
0.0
 70
0
  0
VERTEX
  8
0
 10
614.729736
 20
281.792755
 30
0.0
 70
0
  0
SEQEND
  8
0
  0
POLYLINE
  8
0
 62
4
 66
1
 10
0.0
 20
0.0
 30
0.0
 70
2
  0
VERTEX
  8
0
 10
620.729736
 20
259.205414
 30
0.0
 70
0
  0
VERTEX
  8
0
 10
620.729736
 20
281.792755
 30
0.0
 70
0
  0
SEQEND
  8
0
  0
POLYLINE
  8
0
 62
4
 66
1
 10
0.0
 20
0.0
 30
0.0
 70
2
  0
VERTEX
  8
0
 10
615.269714
 20
259.205414
 30
0.0
 70
0
  0
VERTEX
  8
0
 10
615.269714
 20
281.829681
 30
0.0
 70
0
  0
SEQEND
  8
0
  0
POLYLINE
  8
0
 62
4
 66
1
 10
0.0
 20
0.0
 30
0.0
 70
2
  0
VERTEX
  8
0
 10
620.189697
 20
259.205414
 30
0.0
 70
0
  0
VERTEX
  8
0
 10
620.189697
 20
281.829681
 30
0.0
 70
0
  0
SEQEND
  8
0
  0
CIRCLE
  8
0
 62
7
 10
271.324341
 20
241.905411
 30
0.0
 40
3.0
  0
CIRCLE
  8
0
 62
4
 10
271.324341
 20
241.905411
 30
0.0
 40
2.46
  0
POLYLINE
  8
0
 62
4
 66
1
 10
0.0
 20
0.0
 30
0.0
 70
2
  0
VERTEX
  8
0
 10
631.404541
 20
244.905411
 30
0.0
 70
0
  0
VERTEX
  8
0
 10
657.617065
 20
244.905411
 30
0.0
 70
0
  0
SEQEND
  8
0
  0
POLYLINE
  8
0
 62
4
 66
1
 10
0.0
 20
0.0
 30
0.0
 70
2
  0
VERTEX
  8
0
 10
631.404541
 20
238.905411
 30
0.0
 70
0
  0
VERTEX
  8
0
 10
657.617065
 20
238.905411
 30
0.0
 70
0
  0
SEQEND
  8
0
  0
POLYLINE
  8
0
 62
4
 66
1
 10
0.0
 20
0.0
 30
0.0
 70
2
  0
VERTEX
  8
0
 10
631.511902
 20
244.365417
 30
0.0
 70
0
  0
VERTEX
  8
0
 10
657.653992
 20
244.365417
 30
0.0
 70
0
  0
SEQEND
  8
0
  0
POLYLINE
  8
0
 62
4
 66
1
 10
0.0
 20
0.0
 30
0.0
 70
2
  0
VERTEX
  8
0
 10
631.511902
 20
239.445404
 30
0.0
 70
0
  0
VERTEX
  8
0
 10
657.653992
 20
239.445404
 30
0.0
 70
0
  0
SEQEND
  8
0
  0
POLYLINE
  8
0
 62
4
 66
1
 10
0.0
 20
0.0
 30
0.0
 70
2
  0
VERTEX
  8
0
 10
240.324326
 20
226.905411
 30
0.0
 70
0
  0
VERTEX
  8
0
 10
240.324326
 20
155.405411
 30
0.0
 70
0
  0
VERTEX
  8
0
 10
241.324326
 20
154.405411
 30
0.0
 70
0
  0
VERTEX
  8
0
 10
264.324341
 20
154.405411
 30
0.0
 70
0
  0
VERTEX
  8
0
 10
265.324341
 20
155.405411
 30
0.0
 70
0
  0
VERTEX
  8
0
 10
265.324341
 20
201.905411
 30
0.0
 70
0
  0
VERTEX
  8
0
 10
276.324341
 20
201.905411
 30
0.0
 70
0
  0
VERTEX
  8
0
 10
277.324341
 20
202.905411
 30
0.0
 70
0
  0
VERTEX
  8
0
 10
277.324341
 20
280.905396
 30
0.0
 70
0
  0
VERTEX
  8
0
 10
276.324341
 20
281.905396
 30
0.0
 70
0
  0
VERTEX
  8
0
 10
265.324341
 20
281.905396
 30
0.0
 70
0
  0
VERTEX
  8
0
 10
265.324341
 20
328.405396
 30
0.0
 70
0
  0
SEQEND
  8
0
  0
POLYLINE
  8
0
 62
4
 66
1
 10
0.0
 20
0.0
 30
0.0
 70
2
  0
VERTEX
  8
0
 10
265.324341
 20
328.405396
 30
0.0
 70
0
  0
VERTEX
  8
0
 10
264.324341
 20
329.405396
 30
0.0
 70
0
  0
VERTEX
  8
0
 10
241.324326
 20
329.405396
 30
0.0
 70
0
  0
VERTEX
  8
0
 10
240.324326
 20
328.405396
 30
0.0
 70
0
  0
VERTEX
  8
0
 10
240.324326
 20
226.905411
 30
0.0
 70
0
  0
SEQEND
  8
0
  0
ARC
  8
0
 62
4
 10
262.324341
 20
199.905411
 30
0.0
 40
2.0
 50
90.0
 51
180.0
  0
ARC
  8
0
 62
4
 10
262.324341
 20
283.905396
 30
0.0
 40
2.0
 50
180.0
 51
270.0
  0
LINE
  8
0
 62
4
 10
265.324341
 20
201.905411
 30
0.0
 11
262.324341
 21
201.905411
 31
0.0
  0
LINE
  8
0
 62
4
 10
262.324341
 20
281.905396
 30
0.0
 11
265.324341
 21
281.905396
 31
0.0
  0
LINE
  8
0
 62
4
 10
260.324341
 20
302.092346
 30
0.0
 11
260.324341
 21
283.905396
 31
0.0
  0
LINE
  8
0
 62
4
 10
260.324341
 20
199.905411
 30
0.0
 11
260.324341
 21
181.71846
 31
0.0
  0
CIRCLE
  8
0
 62
4
 10
617.729736
 20
241.905411
 30
0.0
 40
40.0
  0
ENDSEC
  0
EOF
