  0
SECTION
  2
ENTITIES
  0
ARC
  8
0
 62
4
 10
261.756775
 20
300.445953
 30
0.0
 40
2.0
 50
270.0
 51
0.0
  0
ARC
  8
0
 62
4
 10
261.756775
 20
216.445953
 30
0.0
 40
2.0
 50
0.0
 51
90.0
  0
LINE
  8
0
 62
4
 10
256.756775
 20
335.695953
 30
0.0
 11
286.756775
 21
335.695953
 31
0.0
  0
LINE
  8
0
 62
4
 10
256.756775
 20
181.195953
 30
0.0
 11
286.756775
 21
181.195953
 31
0.0
  0
LINE
  8
0
 62
4
 10
301.756775
 20
271.945953
 30
0.0
 11
300.756775
 21
270.945953
 31
0.0
  0
LINE
  8
0
 62
4
 10
301.756775
 20
244.945953
 30
0.0
 11
300.756775
 21
245.945953
 31
0.0
  0
LINE
  8
0
 62
4
 10
256.756775
 20
244.945953
 30
0.0
 11
257.756775
 21
245.945953
 31
0.0
  0
LINE
  8
0
 62
4
 10
256.756775
 20
298.445953
 30
0.0
 11
261.756775
 21
298.445953
 31
0.0
  0
LINE
  8
0
 62
4
 10
256.756775
 20
218.445953
 30
0.0
 11
261.756775
 21
218.445953
 31
0.0
  0
POLYLINE
  8
0
 62
4
 66
1
 10
0.0
 20
0.0
 30
0.0
 70
2
  0
VERTEX
  8
0
 10
279.756775
 20
300.445953
 30
0.0
 70
0
  0
VERTEX
  8
0
 10
279.756775
 20
310.707672
 30
0.0
 70
0
  0
VERTEX
  8
0
 10
286.756775
 20
324.445953
 30
0.0
 70
0
  0
SEQEND
  8
0
  0
POLYLINE
  8
0
 62
4
 66
1
 10
0.0
 20
0.0
 30
0.0
 70
2
  0
VERTEX
  8
0
 10
263.756775
 20
300.445953
 30
0.0
 70
0
  0
VERTEX
  8
0
 10
263.756775
 20
310.707672
 30
0.0
 70
0
  0
VERTEX
  8
0
 10
256.756775
 20
324.445953
 30
0.0
 70
0
  0
SEQEND
  8
0
  0
POLYLINE
  8
0
 62
4
 66
1
 10
0.0
 20
0.0
 30
0.0
 70
2
  0
VERTEX
  8
0
 10
279.756775
 20
216.445953
 30
0.0
 70
0
  0
VERTEX
  8
0
 10
279.756775
 20
206.184235
 30
0.0
 70
0
  0
VERTEX
  8
0
 10
286.756775
 20
192.445953
 30
0.0
 70
0
  0
SEQEND
  8
0
  0
POLYLINE
  8
0
 62
4
 66
1
 10
0.0
 20
0.0
 30
0.0
 70
2
  0
VERTEX
  8
0
 10
263.756775
 20
216.445953
 30
0.0
 70
0
  0
VERTEX
  8
0
 10
263.756775
 20
206.184235
 30
0.0
 70
0
  0
VERTEX
  8
0
 10
256.756775
 20
192.445953
 30
0.0
 70
0
  0
SEQEND
  8
0
  0
POLYLINE
  8
0
 62
4
 66
1
 10
0.0
 20
0.0
 30
0.0
 70
2
  0
VERTEX
  8
0
 10
256.756775
 20
271.945953
 30
0.0
 70
0
  0
VERTEX
  8
0
 10
257.756775
 20
270.945953
 30
0.0
 70
0
  0
VERTEX
  8
0
 10
257.756775
 20
245.945953
 30
0.0
 70
0
  0
VERTEX
  8
0
 10
300.756775
 20
245.945953
 30
0.0
 70
0
  0
VERTEX
  8
0
 10
300.756775
 20
270.945953
 30
0.0
 70
0
  0
VERTEX
  8
0
 10
257.756775
 20
270.945953
 30
0.0
 70
0
  0
SEQEND
  8
0
  0
POLYLINE
  8
0
 62
4
 66
1
 10
0.0
 20
0.0
 30
0.0
 70
2
  0
VERTEX
  8
0
 10
256.756775
 20
244.945953
 30
0.0
 70
0
  0
VERTEX
  8
0
 10
256.756775
 20
175.445953
 30
0.0
 70
0
  0
VERTEX
  8
0
 10
257.756775
 20
174.445953
 30
0.0
 70
0
  0
VERTEX
  8
0
 10
285.756775
 20
174.445953
 30
0.0
 70
0
  0
VERTEX
  8
0
 10
286.756775
 20
175.445953
 30
0.0
 70
0
  0
VERTEX
  8
0
 10
286.756775
 20
218.445953
 30
0.0
 70
0
  0
VERTEX
  8
0
 10
300.756775
 20
218.445953
 30
0.0
 70
0
  0
VERTEX
  8
0
 10
301.756775
 20
219.445953
 30
0.0
 70
0
  0
VERTEX
  8
0
 10
301.756775
 20
297.445953
 30
0.0
 70
0
  0
VERTEX
  8
0
 10
300.756775
 20
298.445953
 30
0.0
 70
0
  0
VERTEX
  8
0
 10
286.756775
 20
298.445953
 30
0.0
 70
0
  0
VERTEX
  8
0
 10
286.756775
 20
341.445953
 30
0.0
 70
0
  0
SEQEND
  8
0
  0
POLYLINE
  8
0
 62
4
 66
1
 10
0.0
 20
0.0
 30
0.0
 70
2
  0
VERTEX
  8
0
 10
286.756775
 20
341.445953
 30
0.0
 70
0
  0
VERTEX
  8
0
 10
285.756775
 20
342.445953
 30
0.0
 70
0
  0
VERTEX
  8
0
 10
257.756775
 20
342.445953
 30
0.0
 70
0
  0
VERTEX
  8
0
 10
256.756775
 20
341.445953
 30
0.0
 70
0
  0
VERTEX
  8
0
 10
256.756775
 20
244.945953
 30
0.0
 70
0
  0
SEQEND
  8
0
  0
ARC
  8
0
 62
4
 10
281.756775
 20
216.445953
 30
0.0
 40
2.0
 50
90.0
 51
180.0
  0
ARC
  8
0
 62
4
 10
281.756775
 20
300.445953
 30
0.0
 40
2.0
 50
180.0
 51
270.0
  0
LINE
  8
0
 62
4
 10
286.756775
 20
218.445953
 30
0.0
 11
281.756775
 21
218.445953
 31
0.0
  0
LINE
  8
0
 62
4
 10
281.756775
 20
298.445953
 30
0.0
 11
286.756775
 21
298.445953
 31
0.0
  0
LINE
  8
0
 62
4
 10
279.756775
 20
310.707672
 30
0.0
 11
279.756775
 21
300.445953
 31
0.0
  0
LINE
  8
0
 62
4
 10
279.756775
 20
216.445953
 30
0.0
 11
279.756775
 21
206.184235
 31
0.0
  0
ENDSEC
  0
EOF
