  0
SECTION
  2
ENTITIES
  0
LINE
  8
0
 62
4
 10
202.5
 20
242.0
 30
0.0
 11
232.5
 21
242.0
 31
0.0
  0
LINE
  8
0
 62
4
 10
202.5
 20
165.5
 30
0.0
 11
232.5
 21
165.5
 31
0.0
  0
LINE
  8
0
 62
4
 10
246.5
 20
189.75
 30
0.0
 11
247.5
 21
188.75
 31
0.0
  0
LINE
  8
0
 62
4
 10
246.5
 20
217.75
 30
0.0
 11
247.5
 21
218.75
 31
0.0
  0
LINE
  8
0
 62
4
 10
203.5
 20
217.75
 30
0.0
 11
203.5
 21
189.75
 31
0.0
  0
POLYLINE
  8
0
 62
4
 66
1
 10
0.0
 20
0.0
 30
0.0
 70
2
  0
VERTEX
  8
0
 10
202.5
 20
188.75
 30
0.0
 70
0
  0
VERTEX
  8
0
 10
203.5
 20
189.75
 30
0.0
 70
0
  0
VERTEX
  8
0
 10
246.5
 20
189.75
 30
0.0
 70
0
  0
VERTEX
  8
0
 10
246.5
 20
217.75
 30
0.0
 70
0
  0
VERTEX
  8
0
 10
203.5
 20
217.75
 30
0.0
 70
0
  0
VERTEX
  8
0
 10
202.5
 20
218.75
 30
0.0
 70
0
  0
SEQEND
  8
0
  0
ARC
  8
0
 62
4
 10
234.0
 20
240.25
 30
0.0
 40
1.5
 50
180.0
 51
270.0
  0
ARC
  8
0
 62
4
 10
234.0
 20
167.25
 30
0.0
 40
1.5
 50
90.0
 51
180.0
  0
ARC
  8
0
 62
4
 10
477.5
 20
203.75
 30
0.0
 40
14.0
 50
106.60154992625478
 51
73.39845007374521
  0
POLYLINE
  8
0
 62
4
 66
1
 10
0.0
 20
0.0
 30
0.0
 70
2
  0
VERTEX
  8
0
 10
481.5
 20
217.166412
 30
0.0
 70
0
  0
VERTEX
  8
0
 10
481.5
 20
221.050003
 30
0.0
 70
0
  0
VERTEX
  8
0
 10
473.5
 20
221.050003
 30
0.0
 70
0
  0
VERTEX
  8
0
 10
473.5
 20
217.166412
 30
0.0
 70
0
  0
SEQEND
  8
0
  0
LINE
  8
0
 62
4
 10
202.5
 20
221.050003
 30
0.0
 11
247.5
 21
221.050003
 31
0.0
  0
POLYLINE
  8
0
 62
4
 66
1
 10
0.0
 20
0.0
 30
0.0
 70
2
  0
VERTEX
  8
0
 10
243.0
 20
238.75
 30
0.0
 70
0
  0
VERTEX
  8
0
 10
243.0
 20
221.050003
 30
0.0
 70
0
  0
SEQEND
  8
0
  0
POLYLINE
  8
0
 62
4
 66
1
 10
0.0
 20
0.0
 30
0.0
 70
2
  0
VERTEX
  8
0
 10
237.0
 20
238.75
 30
0.0
 70
0
  0
VERTEX
  8
0
 10
237.0
 20
221.050003
 30
0.0
 70
0
  0
SEQEND
  8
0
  0
POLYLINE
  8
0
 62
4
 66
1
 10
0.0
 20
0.0
 30
0.0
 70
2
  0
VERTEX
  8
0
 10
242.459991
 20
238.75
 30
0.0
 70
0
  0
VERTEX
  8
0
 10
242.459991
 20
221.050003
 30
0.0
 70
0
  0
SEQEND
  8
0
  0
POLYLINE
  8
0
 62
4
 66
1
 10
0.0
 20
0.0
 30
0.0
 70
2
  0
VERTEX
  8
0
 10
237.540009
 20
238.75
 30
0.0
 70
0
  0
VERTEX
  8
0
 10
237.540009
 20
221.050003
 30
0.0
 70
0
  0
SEQEND
  8
0
  0
POLYLINE
  8
0
 62
4
 66
1
 10
0.0
 20
0.0
 30
0.0
 70
2
  0
VERTEX
  8
0
 10
474.5
 20
221.050003
 30
0.0
 70
0
  0
VERTEX
  8
0
 10
474.5
 20
238.621185
 30
0.0
 70
0
  0
SEQEND
  8
0
  0
POLYLINE
  8
0
 62
4
 66
1
 10
0.0
 20
0.0
 30
0.0
 70
2
  0
VERTEX
  8
0
 10
480.5
 20
221.050003
 30
0.0
 70
0
  0
VERTEX
  8
0
 10
480.5
 20
238.621185
 30
0.0
 70
0
  0
SEQEND
  8
0
  0
POLYLINE
  8
0
 62
4
 66
1
 10
0.0
 20
0.0
 30
0.0
 70
2
  0
VERTEX
  8
0
 10
475.040009
 20
221.050003
 30
0.0
 70
0
  0
VERTEX
  8
0
 10
475.040009
 20
238.663437
 30
0.0
 70
0
  0
SEQEND
  8
0
  0
POLYLINE
  8
0
 62
4
 66
1
 10
0.0
 20
0.0
 30
0.0
 70
2
  0
VERTEX
  8
0
 10
479.959991
 20
221.050003
 30
0.0
 70
0
  0
VERTEX
  8
0
 10
479.959991
 20
238.663437
 30
0.0
 70
0
  0
SEQEND
  8
0
  0
CIRCLE
  8
0
 62
7
 10
240.0
 20
203.75
 30
0.0
 40
3.0
  0
CIRCLE
  8
0
 62
4
 10
240.0
 20
203.75
 30
0.0
 40
2.46
  0
POLYLINE
  8
0
 62
4
 66
1
 10
0.0
 20
0.0
 30
0.0
 70
2
  0
VERTEX
  8
0
 10
491.174805
 20
206.75
 30
0.0
 70
0
  0
VERTEX
  8
0
 10
512.371216
 20
206.75
 30
0.0
 70
0
  0
SEQEND
  8
0
  0
POLYLINE
  8
0
 62
4
 66
1
 10
0.0
 20
0.0
 30
0.0
 70
2
  0
VERTEX
  8
0
 10
491.174805
 20
200.75
 30
0.0
 70
0
  0
VERTEX
  8
0
 10
512.371216
 20
200.75
 30
0.0
 70
0
  0
SEQEND
  8
0
  0
POLYLINE
  8
0
 62
4
 66
1
 10
0.0
 20
0.0
 30
0.0
 70
2
  0
VERTEX
  8
0
 10
491.282166
 20
206.210007
 30
0.0
 70
0
  0
VERTEX
  8
0
 10
512.413452
 20
206.210007
 30
0.0
 70
0
  0
SEQEND
  8
0
  0
POLYLINE
  8
0
 62
4
 66
1
 10
0.0
 20
0.0
 30
0.0
 70
2
  0
VERTEX
  8
0
 10
491.282166
 20
201.289993
 30
0.0
 70
0
  0
VERTEX
  8
0
 10
512.413452
 20
201.289993
 30
0.0
 70
0
  0
SEQEND
  8
0
  0
POLYLINE
  8
0
 62
4
 66
1
 10
0.0
 20
0.0
 30
0.0
 70
2
  0
VERTEX
  8
0
 10
202.5
 20
188.75
 30
0.0
 70
0
  0
VERTEX
  8
0
 10
202.5
 20
159.75
 30
0.0
 70
0
  0
VERTEX
  8
0
 10
203.5
 20
158.75
 30
0.0
 70
0
  0
VERTEX
  8
0
 10
231.5
 20
158.75
 30
0.0
 70
0
  0
VERTEX
  8
0
 10
232.5
 20
159.75
 30
0.0
 70
0
  0
VERTEX
  8
0
 10
232.5
 20
167.25
 30
0.0
 70
0
  0
SEQEND
  8
0
  0
POLYLINE
  8
0
 62
4
 66
1
 10
0.0
 20
0.0
 30
0.0
 70
2
  0
VERTEX
  8
0
 10
234.0
 20
168.75
 30
0.0
 70
0
  0
VERTEX
  8
0
 10
246.5
 20
168.75
 30
0.0
 70
0
  0
VERTEX
  8
0
 10
247.5
 20
169.75
 30
0.0
 70
0
  0
VERTEX
  8
0
 10
247.5
 20
237.75
 30
0.0
 70
0
  0
VERTEX
  8
0
 10
246.5
 20
238.75
 30
0.0
 70
0
  0
VERTEX
  8
0
 10
234.0
 20
238.75
 30
0.0
 70
0
  0
SEQEND
  8
0
  0
POLYLINE
  8
0
 62
4
 66
1
 10
0.0
 20
0.0
 30
0.0
 70
2
  0
VERTEX
  8
0
 10
232.5
 20
240.25
 30
0.0
 70
0
  0
VERTEX
  8
0
 10
232.5
 20
247.75
 30
0.0
 70
0
  0
VERTEX
  8
0
 10
231.5
 20
248.75
 30
0.0
 70
0
  0
VERTEX
  8
0
 10
203.5
 20
248.75
 30
0.0
 70
0
  0
VERTEX
  8
0
 10
202.5
 20
247.75
 30
0.0
 70
0
  0
VERTEX
  8
0
 10
202.5
 20
188.75
 30
0.0
 70
0
  0
SEQEND
  8
0
  0
CIRCLE
  8
0
 62
4
 10
477.5
 20
203.75
 30
0.0
 40
35.0
  0
ENDSEC
  0
EOF
