  0
SECTION
  2
ENTITIES
  0
LINE
  8
0
 62
4
 10
220.108688
 20
277.717407
 30
0.0
 11
250.108688
 21
277.717407
 31
0.0
  0
LINE
  8
0
 62
4
 10
220.108688
 20
165.217392
 30
0.0
 11
250.108688
 21
165.217392
 31
0.0
  0
LINE
  8
0
 62
4
 10
264.108704
 20
201.467392
 30
0.0
 11
265.108704
 21
200.467392
 31
0.0
  0
LINE
  8
0
 62
4
 10
264.108704
 20
241.467392
 30
0.0
 11
265.108704
 21
242.467392
 31
0.0
  0
LINE
  8
0
 62
4
 10
221.108688
 20
241.467392
 30
0.0
 11
221.108688
 21
201.467392
 31
0.0
  0
POLYLINE
  8
0
 62
4
 66
1
 10
0.0
 20
0.0
 30
0.0
 70
2
  0
VERTEX
  8
0
 10
220.108688
 20
200.467392
 30
0.0
 70
0
  0
VERTEX
  8
0
 10
221.108688
 20
201.467392
 30
0.0
 70
0
  0
VERTEX
  8
0
 10
264.108704
 20
201.467392
 30
0.0
 70
0
  0
VERTEX
  8
0
 10
264.108704
 20
241.467392
 30
0.0
 70
0
  0
VERTEX
  8
0
 10
221.108688
 20
241.467392
 30
0.0
 70
0
  0
VERTEX
  8
0
 10
220.108688
 20
242.467392
 30
0.0
 70
0
  0
SEQEND
  8
0
  0
ARC
  8
0
 62
4
 10
251.608688
 20
262.967407
 30
0.0
 40
1.5
 50
180.0
 51
270.0
  0
ARC
  8
0
 62
4
 10
251.608688
 20
179.967392
 30
0.0
 40
1.5
 50
90.0
 51
180.0
  0
ARC
  8
0
 62
4
 10
517.065186
 20
221.467392
 30
0.0
 40
20.0
 50
107.45760274776076
 51
72.54239725223924
  0
POLYLINE
  8
0
 62
4
 66
1
 10
0.0
 20
0.0
 30
0.0
 70
2
  0
VERTEX
  8
0
 10
523.065186
 20
240.546173
 30
0.0
 70
0
  0
VERTEX
  8
0
 10
523.065186
 20
244.767395
 30
0.0
 70
0
  0
VERTEX
  8
0
 10
511.065186
 20
244.767395
 30
0.0
 70
0
  0
VERTEX
  8
0
 10
511.065186
 20
240.546173
 30
0.0
 70
0
  0
SEQEND
  8
0
  0
LINE
  8
0
 62
4
 10
220.108688
 20
244.767395
 30
0.0
 11
265.108704
 21
244.767395
 31
0.0
  0
POLYLINE
  8
0
 62
4
 66
1
 10
0.0
 20
0.0
 30
0.0
 70
2
  0
VERTEX
  8
0
 10
261.608704
 20
261.467407
 30
0.0
 70
0
  0
VERTEX
  8
0
 10
261.608704
 20
244.767395
 30
0.0
 70
0
  0
SEQEND
  8
0
  0
POLYLINE
  8
0
 62
4
 66
1
 10
0.0
 20
0.0
 30
0.0
 70
2
  0
VERTEX
  8
0
 10
253.608688
 20
261.467407
 30
0.0
 70
0
  0
VERTEX
  8
0
 10
253.608688
 20
244.767395
 30
0.0
 70
0
  0
SEQEND
  8
0
  0
POLYLINE
  8
0
 62
4
 66
1
 10
0.0
 20
0.0
 30
0.0
 70
2
  0
VERTEX
  8
0
 10
260.933685
 20
261.467407
 30
0.0
 70
0
  0
VERTEX
  8
0
 10
260.933685
 20
244.767395
 30
0.0
 70
0
  0
SEQEND
  8
0
  0
POLYLINE
  8
0
 62
4
 66
1
 10
0.0
 20
0.0
 30
0.0
 70
2
  0
VERTEX
  8
0
 10
254.283691
 20
261.467407
 30
0.0
 70
0
  0
VERTEX
  8
0
 10
254.283691
 20
244.767395
 30
0.0
 70
0
  0
SEQEND
  8
0
  0
POLYLINE
  8
0
 62
4
 66
1
 10
0.0
 20
0.0
 30
0.0
 70
2
  0
VERTEX
  8
0
 10
513.065186
 20
244.767395
 30
0.0
 70
0
  0
VERTEX
  8
0
 10
513.065186
 20
261.266876
 30
0.0
 70
0
  0
SEQEND
  8
0
  0
POLYLINE
  8
0
 62
4
 66
1
 10
0.0
 20
0.0
 30
0.0
 70
2
  0
VERTEX
  8
0
 10
521.065186
 20
244.767395
 30
0.0
 70
0
  0
VERTEX
  8
0
 10
521.065186
 20
261.266876
 30
0.0
 70
0
  0
SEQEND
  8
0
  0
POLYLINE
  8
0
 62
4
 66
1
 10
0.0
 20
0.0
 30
0.0
 70
2
  0
VERTEX
  8
0
 10
513.740173
 20
244.767395
 30
0.0
 70
0
  0
VERTEX
  8
0
 10
513.740173
 20
261.328949
 30
0.0
 70
0
  0
SEQEND
  8
0
  0
POLYLINE
  8
0
 62
4
 66
1
 10
0.0
 20
0.0
 30
0.0
 70
2
  0
VERTEX
  8
0
 10
520.390198
 20
244.767395
 30
0.0
 70
0
  0
VERTEX
  8
0
 10
520.390198
 20
261.328949
 30
0.0
 70
0
  0
SEQEND
  8
0
  0
CIRCLE
  8
0
 62
7
 10
257.608704
 20
221.467392
 30
0.0
 40
4.0
  0
CIRCLE
  8
0
 62
4
 10
257.608704
 20
221.467392
 30
0.0
 40
3.325
  0
POLYLINE
  8
0
 62
4
 66
1
 10
0.0
 20
0.0
 30
0.0
 70
2
  0
VERTEX
  8
0
 10
536.661133
 20
225.467392
 30
0.0
 70
0
  0
VERTEX
  8
0
 10
556.864685
 20
225.467392
 30
0.0
 70
0
  0
SEQEND
  8
0
  0
POLYLINE
  8
0
 62
4
 66
1
 10
0.0
 20
0.0
 30
0.0
 70
2
  0
VERTEX
  8
0
 10
536.661133
 20
217.467392
 30
0.0
 70
0
  0
VERTEX
  8
0
 10
556.864685
 20
217.467392
 30
0.0
 70
0
  0
SEQEND
  8
0
  0
POLYLINE
  8
0
 62
4
 66
1
 10
0.0
 20
0.0
 30
0.0
 70
2
  0
VERTEX
  8
0
 10
536.786865
 20
224.792389
 30
0.0
 70
0
  0
VERTEX
  8
0
 10
556.926758
 20
224.792389
 30
0.0
 70
0
  0
SEQEND
  8
0
  0
POLYLINE
  8
0
 62
4
 66
1
 10
0.0
 20
0.0
 30
0.0
 70
2
  0
VERTEX
  8
0
 10
536.786865
 20
218.142395
 30
0.0
 70
0
  0
VERTEX
  8
0
 10
556.926758
 20
218.142395
 30
0.0
 70
0
  0
SEQEND
  8
0
  0
POLYLINE
  8
0
 62
4
 66
1
 10
0.0
 20
0.0
 30
0.0
 70
2
  0
VERTEX
  8
0
 10
220.108688
 20
200.467392
 30
0.0
 70
0
  0
VERTEX
  8
0
 10
220.108688
 20
159.467392
 30
0.0
 70
0
  0
VERTEX
  8
0
 10
221.108688
 20
158.467392
 30
0.0
 70
0
  0
VERTEX
  8
0
 10
249.108688
 20
158.467392
 30
0.0
 70
0
  0
VERTEX
  8
0
 10
250.108688
 20
159.467392
 30
0.0
 70
0
  0
VERTEX
  8
0
 10
250.108688
 20
179.967392
 30
0.0
 70
0
  0
SEQEND
  8
0
  0
POLYLINE
  8
0
 62
4
 66
1
 10
0.0
 20
0.0
 30
0.0
 70
2
  0
VERTEX
  8
0
 10
251.608688
 20
181.467392
 30
0.0
 70
0
  0
VERTEX
  8
0
 10
264.108704
 20
181.467392
 30
0.0
 70
0
  0
VERTEX
  8
0
 10
265.108704
 20
182.467392
 30
0.0
 70
0
  0
VERTEX
  8
0
 10
265.108704
 20
260.467407
 30
0.0
 70
0
  0
VERTEX
  8
0
 10
264.108704
 20
261.467407
 30
0.0
 70
0
  0
VERTEX
  8
0
 10
251.608688
 20
261.467407
 30
0.0
 70
0
  0
SEQEND
  8
0
  0
POLYLINE
  8
0
 62
4
 66
1
 10
0.0
 20
0.0
 30
0.0
 70
2
  0
VERTEX
  8
0
 10
250.108688
 20
262.967407
 30
0.0
 70
0
  0
VERTEX
  8
0
 10
250.108688
 20
283.467407
 30
0.0
 70
0
  0
VERTEX
  8
0
 10
249.108688
 20
284.467407
 30
0.0
 70
0
  0
VERTEX
  8
0
 10
221.108688
 20
284.467407
 30
0.0
 70
0
  0
VERTEX
  8
0
 10
220.108688
 20
283.467407
 30
0.0
 70
0
  0
VERTEX
  8
0
 10
220.108688
 20
200.467392
 30
0.0
 70
0
  0
SEQEND
  8
0
  0
CIRCLE
  8
0
 62
4
 10
517.065186
 20
221.467392
 30
0.0
 40
40.0
  0
ENDSEC
  0
EOF
