  0
SECTION
  2
ENTITIES
  0
LINE
  8
0
 62
4
 10
202.5
 20
243.5
 30
0.0
 11
232.5
 21
243.5
 31
0.0
  0
LINE
  8
0
 62
4
 10
202.5
 20
164.0
 30
0.0
 11
232.5
 21
164.0
 31
0.0
  0
LINE
  8
0
 62
4
 10
246.5
 20
193.75
 30
0.0
 11
247.5
 21
192.75
 31
0.0
  0
LINE
  8
0
 62
4
 10
246.5
 20
213.75
 30
0.0
 11
247.5
 21
214.75
 31
0.0
  0
LINE
  8
0
 62
4
 10
203.5
 20
213.75
 30
0.0
 11
203.5
 21
193.75
 31
0.0
  0
POLYLINE
  8
0
 62
4
 66
1
 10
0.0
 20
0.0
 30
0.0
 70
2
  0
VERTEX
  8
0
 10
202.5
 20
192.75
 30
0.0
 70
0
  0
VERTEX
  8
0
 10
203.5
 20
193.75
 30
0.0
 70
0
  0
VERTEX
  8
0
 10
246.5
 20
193.75
 30
0.0
 70
0
  0
VERTEX
  8
0
 10
246.5
 20
213.75
 30
0.0
 70
0
  0
VERTEX
  8
0
 10
203.5
 20
213.75
 30
0.0
 70
0
  0
VERTEX
  8
0
 10
202.5
 20
214.75
 30
0.0
 70
0
  0
SEQEND
  8
0
  0
ARC
  8
0
 62
4
 10
234.0
 20
240.25
 30
0.0
 40
1.5
 50
180.0
 51
270.0
  0
ARC
  8
0
 62
4
 10
234.0
 20
167.25
 30
0.0
 40
1.5
 50
90.0
 51
180.0
  0
POLYLINE
  8
0
 62
4
 66
1
 10
0.0
 20
0.0
 30
0.0
 70
2
  0
VERTEX
  8
0
 10
202.5
 20
192.75
 30
0.0
 70
0
  0
VERTEX
  8
0
 10
202.5
 20
158.25
 30
0.0
 70
0
  0
VERTEX
  8
0
 10
203.5
 20
157.25
 30
0.0
 70
0
  0
VERTEX
  8
0
 10
231.5
 20
157.25
 30
0.0
 70
0
  0
VERTEX
  8
0
 10
232.5
 20
158.25
 30
0.0
 70
0
  0
VERTEX
  8
0
 10
232.5
 20
167.25
 30
0.0
 70
0
  0
SEQEND
  8
0
  0
POLYLINE
  8
0
 62
4
 66
1
 10
0.0
 20
0.0
 30
0.0
 70
2
  0
VERTEX
  8
0
 10
234.0
 20
168.75
 30
0.0
 70
0
  0
VERTEX
  8
0
 10
246.5
 20
168.75
 30
0.0
 70
0
  0
VERTEX
  8
0
 10
247.5
 20
169.75
 30
0.0
 70
0
  0
VERTEX
  8
0
 10
247.5
 20
237.75
 30
0.0
 70
0
  0
VERTEX
  8
0
 10
246.5
 20
238.75
 30
0.0
 70
0
  0
VERTEX
  8
0
 10
234.0
 20
238.75
 30
0.0
 70
0
  0
SEQEND
  8
0
  0
POLYLINE
  8
0
 62
4
 66
1
 10
0.0
 20
0.0
 30
0.0
 70
2
  0
VERTEX
  8
0
 10
232.5
 20
240.25
 30
0.0
 70
0
  0
VERTEX
  8
0
 10
232.5
 20
249.25
 30
0.0
 70
0
  0
VERTEX
  8
0
 10
231.5
 20
250.25
 30
0.0
 70
0
  0
VERTEX
  8
0
 10
203.5
 20
250.25
 30
0.0
 70
0
  0
VERTEX
  8
0
 10
202.5
 20
249.25
 30
0.0
 70
0
  0
VERTEX
  8
0
 10
202.5
 20
192.75
 30
0.0
 70
0
  0
SEQEND
  8
0
  0
ENDSEC
  0
EOF
