  0
SECTION
  2
ENTITIES
  0
LINE
  8
0
 62
4
 10
181.369553
 20
214.739136
 30
0.0
 11
211.369553
 21
214.739136
 31
0.0
  0
LINE
  8
0
 62
4
 10
181.369553
 20
150.239136
 30
0.0
 11
211.369553
 21
150.239136
 31
0.0
  0
LINE
  8
0
 62
4
 10
225.869553
 20
172.989136
 30
0.0
 11
226.369553
 21
172.489136
 31
0.0
  0
LINE
  8
0
 62
4
 10
225.869553
 20
191.989136
 30
0.0
 11
226.369553
 21
192.489136
 31
0.0
  0
LINE
  8
0
 62
4
 10
181.869553
 20
191.989136
 30
0.0
 11
181.869553
 21
172.989136
 31
0.0
  0
POLYLINE
  8
0
 62
4
 66
1
 10
0.0
 20
0.0
 30
0.0
 70
2
  0
VERTEX
  8
0
 10
181.369553
 20
172.489136
 30
0.0
 70
0
  0
VERTEX
  8
0
 10
181.869553
 20
172.989136
 30
0.0
 70
0
  0
VERTEX
  8
0
 10
225.869553
 20
172.989136
 30
0.0
 70
0
  0
VERTEX
  8
0
 10
225.869553
 20
191.989136
 30
0.0
 70
0
  0
VERTEX
  8
0
 10
181.869553
 20
191.989136
 30
0.0
 70
0
  0
VERTEX
  8
0
 10
181.369553
 20
192.489136
 30
0.0
 70
0
  0
SEQEND
  8
0
  0
ARC
  8
0
 62
4
 10
212.369553
 20
212.489136
 30
0.0
 40
1.0
 50
180.0
 51
270.0
  0
ARC
  8
0
 62
4
 10
212.369553
 20
152.489136
 30
0.0
 40
1.0
 50
90.0
 51
180.0
  0
ARC
  8
0
 62
4
 10
430.021729
 20
182.489136
 30
0.0
 40
9.5
 50
108.4084803259778
 51
71.5915196740222
  0
POLYLINE
  8
0
 62
4
 66
1
 10
0.0
 20
0.0
 30
0.0
 70
2
  0
VERTEX
  8
0
 10
433.021729
 20
191.503021
 30
0.0
 70
0
  0
VERTEX
  8
0
 10
433.021729
 20
194.789139
 30
0.0
 70
0
  0
VERTEX
  8
0
 10
427.021729
 20
194.789139
 30
0.0
 70
0
  0
VERTEX
  8
0
 10
427.021729
 20
191.503021
 30
0.0
 70
0
  0
SEQEND
  8
0
  0
LINE
  8
0
 62
4
 10
181.369553
 20
194.789139
 30
0.0
 11
226.369553
 21
194.789139
 31
0.0
  0
POLYLINE
  8
0
 62
4
 66
1
 10
0.0
 20
0.0
 30
0.0
 70
2
  0
VERTEX
  8
0
 10
221.369553
 20
211.489136
 30
0.0
 70
0
  0
VERTEX
  8
0
 10
221.369553
 20
194.789139
 30
0.0
 70
0
  0
SEQEND
  8
0
  0
POLYLINE
  8
0
 62
4
 66
1
 10
0.0
 20
0.0
 30
0.0
 70
2
  0
VERTEX
  8
0
 10
216.369553
 20
211.489136
 30
0.0
 70
0
  0
VERTEX
  8
0
 10
216.369553
 20
194.789139
 30
0.0
 70
0
  0
SEQEND
  8
0
  0
POLYLINE
  8
0
 62
4
 66
1
 10
0.0
 20
0.0
 30
0.0
 70
2
  0
VERTEX
  8
0
 10
220.934555
 20
211.489136
 30
0.0
 70
0
  0
VERTEX
  8
0
 10
220.934555
 20
194.789139
 30
0.0
 70
0
  0
SEQEND
  8
0
  0
POLYLINE
  8
0
 62
4
 66
1
 10
0.0
 20
0.0
 30
0.0
 70
2
  0
VERTEX
  8
0
 10
216.80455
 20
211.489136
 30
0.0
 70
0
  0
VERTEX
  8
0
 10
216.80455
 20
194.789139
 30
0.0
 70
0
  0
SEQEND
  8
0
  0
POLYLINE
  8
0
 62
4
 66
1
 10
0.0
 20
0.0
 30
0.0
 70
2
  0
VERTEX
  8
0
 10
427.521729
 20
194.789139
 30
0.0
 70
0
  0
VERTEX
  8
0
 10
427.521729
 20
211.38118
 30
0.0
 70
0
  0
SEQEND
  8
0
  0
POLYLINE
  8
0
 62
4
 66
1
 10
0.0
 20
0.0
 30
0.0
 70
2
  0
VERTEX
  8
0
 10
432.521729
 20
194.789139
 30
0.0
 70
0
  0
VERTEX
  8
0
 10
432.521729
 20
211.38118
 30
0.0
 70
0
  0
SEQEND
  8
0
  0
POLYLINE
  8
0
 62
4
 66
1
 10
0.0
 20
0.0
 30
0.0
 70
2
  0
VERTEX
  8
0
 10
427.956726
 20
194.789139
 30
0.0
 70
0
  0
VERTEX
  8
0
 10
427.956726
 20
211.415527
 30
0.0
 70
0
  0
SEQEND
  8
0
  0
POLYLINE
  8
0
 62
4
 66
1
 10
0.0
 20
0.0
 30
0.0
 70
2
  0
VERTEX
  8
0
 10
432.086731
 20
194.789139
 30
0.0
 70
0
  0
VERTEX
  8
0
 10
432.086731
 20
211.415527
 30
0.0
 70
0
  0
SEQEND
  8
0
  0
CIRCLE
  8
0
 62
7
 10
218.869553
 20
182.489136
 30
0.0
 40
2.5
  0
CIRCLE
  8
0
 62
4
 10
218.869553
 20
182.489136
 30
0.0
 40
2.065
  0
POLYLINE
  8
0
 62
4
 66
1
 10
0.0
 20
0.0
 30
0.0
 70
2
  0
VERTEX
  8
0
 10
439.18689
 20
184.989136
 30
0.0
 70
0
  0
VERTEX
  8
0
 10
458.913757
 20
184.989136
 30
0.0
 70
0
  0
SEQEND
  8
0
  0
POLYLINE
  8
0
 62
4
 66
1
 10
0.0
 20
0.0
 30
0.0
 70
2
  0
VERTEX
  8
0
 10
439.18689
 20
179.989136
 30
0.0
 70
0
  0
VERTEX
  8
0
 10
458.913757
 20
179.989136
 30
0.0
 70
0
  0
SEQEND
  8
0
  0
POLYLINE
  8
0
 62
4
 66
1
 10
0.0
 20
0.0
 30
0.0
 70
2
  0
VERTEX
  8
0
 10
439.294556
 20
184.554138
 30
0.0
 70
0
  0
VERTEX
  8
0
 10
458.94812
 20
184.554138
 30
0.0
 70
0
  0
SEQEND
  8
0
  0
POLYLINE
  8
0
 62
4
 66
1
 10
0.0
 20
0.0
 30
0.0
 70
2
  0
VERTEX
  8
0
 10
439.294556
 20
180.424133
 30
0.0
 70
0
  0
VERTEX
  8
0
 10
458.94812
 20
180.424133
 30
0.0
 70
0
  0
SEQEND
  8
0
  0
POLYLINE
  8
0
 62
4
 66
1
 10
0.0
 20
0.0
 30
0.0
 70
2
  0
VERTEX
  8
0
 10
181.369553
 20
172.489136
 30
0.0
 70
0
  0
VERTEX
  8
0
 10
181.369553
 20
144.489136
 30
0.0
 70
0
  0
VERTEX
  8
0
 10
182.369553
 20
143.489136
 30
0.0
 70
0
  0
VERTEX
  8
0
 10
210.369553
 20
143.489136
 30
0.0
 70
0
  0
VERTEX
  8
0
 10
211.369553
 20
144.489136
 30
0.0
 70
0
  0
VERTEX
  8
0
 10
211.369553
 20
152.489136
 30
0.0
 70
0
  0
SEQEND
  8
0
  0
POLYLINE
  8
0
 62
4
 66
1
 10
0.0
 20
0.0
 30
0.0
 70
2
  0
VERTEX
  8
0
 10
212.369553
 20
153.489136
 30
0.0
 70
0
  0
VERTEX
  8
0
 10
225.369553
 20
153.489136
 30
0.0
 70
0
  0
VERTEX
  8
0
 10
226.369553
 20
154.489136
 30
0.0
 70
0
  0
VERTEX
  8
0
 10
226.369553
 20
210.489136
 30
0.0
 70
0
  0
VERTEX
  8
0
 10
225.369553
 20
211.489136
 30
0.0
 70
0
  0
VERTEX
  8
0
 10
212.369553
 20
211.489136
 30
0.0
 70
0
  0
SEQEND
  8
0
  0
POLYLINE
  8
0
 62
4
 66
1
 10
0.0
 20
0.0
 30
0.0
 70
2
  0
VERTEX
  8
0
 10
211.369553
 20
212.489136
 30
0.0
 70
0
  0
VERTEX
  8
0
 10
211.369553
 20
220.489136
 30
0.0
 70
0
  0
VERTEX
  8
0
 10
210.369553
 20
221.489136
 30
0.0
 70
0
  0
VERTEX
  8
0
 10
182.369553
 20
221.489136
 30
0.0
 70
0
  0
VERTEX
  8
0
 10
181.369553
 20
220.489136
 30
0.0
 70
0
  0
VERTEX
  8
0
 10
181.369553
 20
172.489136
 30
0.0
 70
0
  0
SEQEND
  8
0
  0
CIRCLE
  8
0
 62
4
 10
430.021729
 20
182.489136
 30
0.0
 40
29.0
  0
ENDSEC
  0
EOF
