  0
SECTION
  2
ENTITIES
  0
LINE
  8
0
 62
4
 10
202.5
 20
242.0
 30
0.0
 11
232.5
 21
242.0
 31
0.0
  0
LINE
  8
0
 62
4
 10
202.5
 20
165.5
 30
0.0
 11
232.5
 21
165.5
 31
0.0
  0
LINE
  8
0
 62
4
 10
246.5
 20
187.75
 30
0.0
 11
247.5
 21
186.75
 31
0.0
  0
LINE
  8
0
 62
4
 10
246.5
 20
219.75
 30
0.0
 11
247.5
 21
220.75
 31
0.0
  0
LINE
  8
0
 62
4
 10
203.5
 20
219.75
 30
0.0
 11
203.5
 21
187.75
 31
0.0
  0
POLYLINE
  8
0
 62
4
 66
1
 10
0.0
 20
0.0
 30
0.0
 70
2
  0
VERTEX
  8
0
 10
202.5
 20
186.75
 30
0.0
 70
0
  0
VERTEX
  8
0
 10
203.5
 20
187.75
 30
0.0
 70
0
  0
VERTEX
  8
0
 10
246.5
 20
187.75
 30
0.0
 70
0
  0
VERTEX
  8
0
 10
246.5
 20
219.75
 30
0.0
 70
0
  0
VERTEX
  8
0
 10
203.5
 20
219.75
 30
0.0
 70
0
  0
VERTEX
  8
0
 10
202.5
 20
220.75
 30
0.0
 70
0
  0
SEQEND
  8
0
  0
ARC
  8
0
 62
4
 10
234.0
 20
240.25
 30
0.0
 40
1.5
 50
180.0
 51
270.0
  0
ARC
  8
0
 62
4
 10
234.0
 20
167.25
 30
0.0
 40
1.5
 50
90.0
 51
180.0
  0
ARC
  8
0
 62
4
 10
477.5
 20
203.75
 30
0.0
 40
16.0
 50
108.20995732853793
 51
71.79004267146207
  0
POLYLINE
  8
0
 62
4
 66
1
 10
0.0
 20
0.0
 30
0.0
 70
2
  0
VERTEX
  8
0
 10
482.5
 20
218.948685
 30
0.0
 70
0
  0
VERTEX
  8
0
 10
482.5
 20
223.050003
 30
0.0
 70
0
  0
VERTEX
  8
0
 10
472.5
 20
223.050003
 30
0.0
 70
0
  0
VERTEX
  8
0
 10
472.5
 20
218.948685
 30
0.0
 70
0
  0
SEQEND
  8
0
  0
LINE
  8
0
 62
4
 10
202.5
 20
223.050003
 30
0.0
 11
247.5
 21
223.050003
 31
0.0
  0
POLYLINE
  8
0
 62
4
 66
1
 10
0.0
 20
0.0
 30
0.0
 70
2
  0
VERTEX
  8
0
 10
244.0
 20
238.75
 30
0.0
 70
0
  0
VERTEX
  8
0
 10
244.0
 20
223.050003
 30
0.0
 70
0
  0
SEQEND
  8
0
  0
POLYLINE
  8
0
 62
4
 66
1
 10
0.0
 20
0.0
 30
0.0
 70
2
  0
VERTEX
  8
0
 10
236.0
 20
238.75
 30
0.0
 70
0
  0
VERTEX
  8
0
 10
236.0
 20
223.050003
 30
0.0
 70
0
  0
SEQEND
  8
0
  0
POLYLINE
  8
0
 62
4
 66
1
 10
0.0
 20
0.0
 30
0.0
 70
2
  0
VERTEX
  8
0
 10
243.324997
 20
238.75
 30
0.0
 70
0
  0
VERTEX
  8
0
 10
243.324997
 20
223.050003
 30
0.0
 70
0
  0
SEQEND
  8
0
  0
POLYLINE
  8
0
 62
4
 66
1
 10
0.0
 20
0.0
 30
0.0
 70
2
  0
VERTEX
  8
0
 10
236.675003
 20
238.75
 30
0.0
 70
0
  0
VERTEX
  8
0
 10
236.675003
 20
223.050003
 30
0.0
 70
0
  0
SEQEND
  8
0
  0
POLYLINE
  8
0
 62
4
 66
1
 10
0.0
 20
0.0
 30
0.0
 70
2
  0
VERTEX
  8
0
 10
473.5
 20
223.050003
 30
0.0
 70
0
  0
VERTEX
  8
0
 10
473.5
 20
238.520676
 30
0.0
 70
0
  0
SEQEND
  8
0
  0
POLYLINE
  8
0
 62
4
 66
1
 10
0.0
 20
0.0
 30
0.0
 70
2
  0
VERTEX
  8
0
 10
481.5
 20
223.050003
 30
0.0
 70
0
  0
VERTEX
  8
0
 10
481.5
 20
238.520676
 30
0.0
 70
0
  0
SEQEND
  8
0
  0
POLYLINE
  8
0
 62
4
 66
1
 10
0.0
 20
0.0
 30
0.0
 70
2
  0
VERTEX
  8
0
 10
474.174988
 20
223.050003
 30
0.0
 70
0
  0
VERTEX
  8
0
 10
474.174988
 20
238.591705
 30
0.0
 70
0
  0
SEQEND
  8
0
  0
POLYLINE
  8
0
 62
4
 66
1
 10
0.0
 20
0.0
 30
0.0
 70
2
  0
VERTEX
  8
0
 10
480.825012
 20
223.050003
 30
0.0
 70
0
  0
VERTEX
  8
0
 10
480.825012
 20
238.591705
 30
0.0
 70
0
  0
SEQEND
  8
0
  0
CIRCLE
  8
0
 62
7
 10
240.0
 20
203.75
 30
0.0
 40
4.0
  0
CIRCLE
  8
0
 62
4
 10
240.0
 20
203.75
 30
0.0
 40
3.325
  0
POLYLINE
  8
0
 62
4
 66
1
 10
0.0
 20
0.0
 30
0.0
 70
2
  0
VERTEX
  8
0
 10
492.991943
 20
207.75
 30
0.0
 70
0
  0
VERTEX
  8
0
 10
512.270691
 20
207.75
 30
0.0
 70
0
  0
SEQEND
  8
0
  0
POLYLINE
  8
0
 62
4
 66
1
 10
0.0
 20
0.0
 30
0.0
 70
2
  0
VERTEX
  8
0
 10
492.991943
 20
199.75
 30
0.0
 70
0
  0
VERTEX
  8
0
 10
512.270691
 20
199.75
 30
0.0
 70
0
  0
SEQEND
  8
0
  0
POLYLINE
  8
0
 62
4
 66
1
 10
0.0
 20
0.0
 30
0.0
 70
2
  0
VERTEX
  8
0
 10
493.150696
 20
207.074997
 30
0.0
 70
0
  0
VERTEX
  8
0
 10
512.341675
 20
207.074997
 30
0.0
 70
0
  0
SEQEND
  8
0
  0
POLYLINE
  8
0
 62
4
 66
1
 10
0.0
 20
0.0
 30
0.0
 70
2
  0
VERTEX
  8
0
 10
493.150696
 20
200.425003
 30
0.0
 70
0
  0
VERTEX
  8
0
 10
512.341675
 20
200.425003
 30
0.0
 70
0
  0
SEQEND
  8
0
  0
POLYLINE
  8
0
 62
4
 66
1
 10
0.0
 20
0.0
 30
0.0
 70
2
  0
VERTEX
  8
0
 10
202.5
 20
186.75
 30
0.0
 70
0
  0
VERTEX
  8
0
 10
202.5
 20
159.75
 30
0.0
 70
0
  0
VERTEX
  8
0
 10
203.5
 20
158.75
 30
0.0
 70
0
  0
VERTEX
  8
0
 10
231.5
 20
158.75
 30
0.0
 70
0
  0
VERTEX
  8
0
 10
232.5
 20
159.75
 30
0.0
 70
0
  0
VERTEX
  8
0
 10
232.5
 20
167.25
 30
0.0
 70
0
  0
SEQEND
  8
0
  0
POLYLINE
  8
0
 62
4
 66
1
 10
0.0
 20
0.0
 30
0.0
 70
2
  0
VERTEX
  8
0
 10
234.0
 20
168.75
 30
0.0
 70
0
  0
VERTEX
  8
0
 10
246.5
 20
168.75
 30
0.0
 70
0
  0
VERTEX
  8
0
 10
247.5
 20
169.75
 30
0.0
 70
0
  0
VERTEX
  8
0
 10
247.5
 20
237.75
 30
0.0
 70
0
  0
VERTEX
  8
0
 10
246.5
 20
238.75
 30
0.0
 70
0
  0
VERTEX
  8
0
 10
234.0
 20
238.75
 30
0.0
 70
0
  0
SEQEND
  8
0
  0
POLYLINE
  8
0
 62
4
 66
1
 10
0.0
 20
0.0
 30
0.0
 70
2
  0
VERTEX
  8
0
 10
232.5
 20
240.25
 30
0.0
 70
0
  0
VERTEX
  8
0
 10
232.5
 20
247.75
 30
0.0
 70
0
  0
VERTEX
  8
0
 10
231.5
 20
248.75
 30
0.0
 70
0
  0
VERTEX
  8
0
 10
203.5
 20
248.75
 30
0.0
 70
0
  0
VERTEX
  8
0
 10
202.5
 20
247.75
 30
0.0
 70
0
  0
VERTEX
  8
0
 10
202.5
 20
186.75
 30
0.0
 70
0
  0
SEQEND
  8
0
  0
CIRCLE
  8
0
 62
4
 10
477.5
 20
203.75
 30
0.0
 40
35.0
  0
ENDSEC
  0
EOF
