  0
SECTION
  2
ENTITIES
  0
ARC
  8
0
 62
4
 10
364.459473
 20
428.824341
 30
0.0
 40
2.0
 50
270.0
 51
0.0
  0
ARC
  8
0
 62
4
 10
364.459473
 20
294.824341
 30
0.0
 40
2.0
 50
0.0
 51
90.0
  0
LINE
  8
0
 62
4
 10
359.459473
 20
538.074341
 30
0.0
 11
389.459473
 21
538.074341
 31
0.0
  0
LINE
  8
0
 62
4
 10
359.459473
 20
185.574341
 30
0.0
 11
389.459473
 21
185.574341
 31
0.0
  0
LINE
  8
0
 62
4
 10
404.459473
 20
377.824341
 30
0.0
 11
403.459473
 21
376.824341
 31
0.0
  0
LINE
  8
0
 62
4
 10
404.459473
 20
345.824341
 30
0.0
 11
403.459473
 21
346.824341
 31
0.0
  0
LINE
  8
0
 62
4
 10
359.459473
 20
345.824341
 30
0.0
 11
360.459473
 21
346.824341
 31
0.0
  0
LINE
  8
0
 62
4
 10
359.459473
 20
426.824341
 30
0.0
 11
364.459473
 21
426.824341
 31
0.0
  0
LINE
  8
0
 62
4
 10
359.459473
 20
296.824341
 30
0.0
 11
364.459473
 21
296.824341
 31
0.0
  0
POLYLINE
  8
0
 62
4
 66
1
 10
0.0
 20
0.0
 30
0.0
 70
2
  0
VERTEX
  8
0
 10
382.459473
 20
428.824341
 30
0.0
 70
0
  0
VERTEX
  8
0
 10
382.459473
 20
513.08606
 30
0.0
 70
0
  0
VERTEX
  8
0
 10
389.459473
 20
526.824341
 30
0.0
 70
0
  0
SEQEND
  8
0
  0
POLYLINE
  8
0
 62
4
 66
1
 10
0.0
 20
0.0
 30
0.0
 70
2
  0
VERTEX
  8
0
 10
366.459473
 20
428.824341
 30
0.0
 70
0
  0
VERTEX
  8
0
 10
366.459473
 20
513.08606
 30
0.0
 70
0
  0
VERTEX
  8
0
 10
359.459473
 20
526.824341
 30
0.0
 70
0
  0
SEQEND
  8
0
  0
POLYLINE
  8
0
 62
4
 66
1
 10
0.0
 20
0.0
 30
0.0
 70
2
  0
VERTEX
  8
0
 10
382.459473
 20
294.824341
 30
0.0
 70
0
  0
VERTEX
  8
0
 10
382.459473
 20
210.562607
 30
0.0
 70
0
  0
VERTEX
  8
0
 10
389.459473
 20
196.824341
 30
0.0
 70
0
  0
SEQEND
  8
0
  0
POLYLINE
  8
0
 62
4
 66
1
 10
0.0
 20
0.0
 30
0.0
 70
2
  0
VERTEX
  8
0
 10
366.459473
 20
294.824341
 30
0.0
 70
0
  0
VERTEX
  8
0
 10
366.459473
 20
210.562607
 30
0.0
 70
0
  0
VERTEX
  8
0
 10
359.459473
 20
196.824341
 30
0.0
 70
0
  0
SEQEND
  8
0
  0
POLYLINE
  8
0
 62
4
 66
1
 10
0.0
 20
0.0
 30
0.0
 70
2
  0
VERTEX
  8
0
 10
359.459473
 20
377.824341
 30
0.0
 70
0
  0
VERTEX
  8
0
 10
360.459473
 20
376.824341
 30
0.0
 70
0
  0
VERTEX
  8
0
 10
360.459473
 20
346.824341
 30
0.0
 70
0
  0
VERTEX
  8
0
 10
403.459473
 20
346.824341
 30
0.0
 70
0
  0
VERTEX
  8
0
 10
403.459473
 20
376.824341
 30
0.0
 70
0
  0
VERTEX
  8
0
 10
360.459473
 20
376.824341
 30
0.0
 70
0
  0
SEQEND
  8
0
  0
ARC
  8
0
 62
4
 10
918.783813
 20
361.824341
 30
0.0
 40
15.0
 50
105.46601032289746
 51
74.53398967710255
  0
POLYLINE
  8
0
 62
4
 66
1
 10
0.0
 20
0.0
 30
0.0
 70
2
  0
VERTEX
  8
0
 10
922.783813
 20
376.281158
 30
0.0
 70
0
  0
VERTEX
  8
0
 10
922.783813
 20
380.124329
 30
0.0
 70
0
  0
VERTEX
  8
0
 10
914.783813
 20
380.124329
 30
0.0
 70
0
  0
VERTEX
  8
0
 10
914.783813
 20
376.281158
 30
0.0
 70
0
  0
SEQEND
  8
0
  0
LINE
  8
0
 62
4
 10
359.459473
 20
380.124329
 30
0.0
 11
404.459473
 21
380.124329
 31
0.0
  0
POLYLINE
  8
0
 62
4
 66
1
 10
0.0
 20
0.0
 30
0.0
 70
2
  0
VERTEX
  8
0
 10
399.959473
 20
426.824341
 30
0.0
 70
0
  0
VERTEX
  8
0
 10
399.959473
 20
380.124329
 30
0.0
 70
0
  0
SEQEND
  8
0
  0
POLYLINE
  8
0
 62
4
 66
1
 10
0.0
 20
0.0
 30
0.0
 70
2
  0
VERTEX
  8
0
 10
393.959473
 20
426.824341
 30
0.0
 70
0
  0
VERTEX
  8
0
 10
393.959473
 20
380.124329
 30
0.0
 70
0
  0
SEQEND
  8
0
  0
POLYLINE
  8
0
 62
4
 66
1
 10
0.0
 20
0.0
 30
0.0
 70
2
  0
VERTEX
  8
0
 10
399.419464
 20
426.824341
 30
0.0
 70
0
  0
VERTEX
  8
0
 10
399.419464
 20
380.124329
 30
0.0
 70
0
  0
SEQEND
  8
0
  0
POLYLINE
  8
0
 62
4
 66
1
 10
0.0
 20
0.0
 30
0.0
 70
2
  0
VERTEX
  8
0
 10
394.499481
 20
426.824341
 30
0.0
 70
0
  0
VERTEX
  8
0
 10
394.499481
 20
380.124329
 30
0.0
 70
0
  0
SEQEND
  8
0
  0
POLYLINE
  8
0
 62
4
 66
1
 10
0.0
 20
0.0
 30
0.0
 70
2
  0
VERTEX
  8
0
 10
915.783813
 20
380.124329
 30
0.0
 70
0
  0
VERTEX
  8
0
 10
915.783813
 20
426.755066
 30
0.0
 70
0
  0
SEQEND
  8
0
  0
POLYLINE
  8
0
 62
4
 66
1
 10
0.0
 20
0.0
 30
0.0
 70
2
  0
VERTEX
  8
0
 10
921.783813
 20
380.124329
 30
0.0
 70
0
  0
VERTEX
  8
0
 10
921.783813
 20
426.755066
 30
0.0
 70
0
  0
SEQEND
  8
0
  0
POLYLINE
  8
0
 62
4
 66
1
 10
0.0
 20
0.0
 30
0.0
 70
2
  0
VERTEX
  8
0
 10
916.323792
 20
380.124329
 30
0.0
 70
0
  0
VERTEX
  8
0
 10
916.323792
 20
426.777771
 30
0.0
 70
0
  0
SEQEND
  8
0
  0
POLYLINE
  8
0
 62
4
 66
1
 10
0.0
 20
0.0
 30
0.0
 70
2
  0
VERTEX
  8
0
 10
921.243835
 20
380.124329
 30
0.0
 70
0
  0
VERTEX
  8
0
 10
921.243835
 20
426.777771
 30
0.0
 70
0
  0
SEQEND
  8
0
  0
CIRCLE
  8
0
 62
7
 10
396.959473
 20
361.824341
 30
0.0
 40
3.0
  0
CIRCLE
  8
0
 62
4
 10
396.959473
 20
361.824341
 30
0.0
 40
2.46
  0
POLYLINE
  8
0
 62
4
 66
1
 10
0.0
 20
0.0
 30
0.0
 70
2
  0
VERTEX
  8
0
 10
933.480774
 20
364.824341
 30
0.0
 70
0
  0
VERTEX
  8
0
 10
983.714539
 20
364.824341
 30
0.0
 70
0
  0
SEQEND
  8
0
  0
POLYLINE
  8
0
 62
4
 66
1
 10
0.0
 20
0.0
 30
0.0
 70
2
  0
VERTEX
  8
0
 10
933.480774
 20
358.824341
 30
0.0
 70
0
  0
VERTEX
  8
0
 10
983.714539
 20
358.824341
 30
0.0
 70
0
  0
SEQEND
  8
0
  0
POLYLINE
  8
0
 62
4
 66
1
 10
0.0
 20
0.0
 30
0.0
 70
2
  0
VERTEX
  8
0
 10
933.580688
 20
364.284332
 30
0.0
 70
0
  0
VERTEX
  8
0
 10
983.737244
 20
364.284332
 30
0.0
 70
0
  0
SEQEND
  8
0
  0
POLYLINE
  8
0
 62
4
 66
1
 10
0.0
 20
0.0
 30
0.0
 70
2
  0
VERTEX
  8
0
 10
933.580688
 20
359.364349
 30
0.0
 70
0
  0
VERTEX
  8
0
 10
983.737244
 20
359.364349
 30
0.0
 70
0
  0
SEQEND
  8
0
  0
POLYLINE
  8
0
 62
4
 66
1
 10
0.0
 20
0.0
 30
0.0
 70
2
  0
VERTEX
  8
0
 10
359.459473
 20
345.824341
 30
0.0
 70
0
  0
VERTEX
  8
0
 10
359.459473
 20
179.824341
 30
0.0
 70
0
  0
VERTEX
  8
0
 10
360.459473
 20
178.824341
 30
0.0
 70
0
  0
VERTEX
  8
0
 10
388.459473
 20
178.824341
 30
0.0
 70
0
  0
VERTEX
  8
0
 10
389.459473
 20
179.824341
 30
0.0
 70
0
  0
VERTEX
  8
0
 10
389.459473
 20
296.824341
 30
0.0
 70
0
  0
VERTEX
  8
0
 10
403.459473
 20
296.824341
 30
0.0
 70
0
  0
VERTEX
  8
0
 10
404.459473
 20
297.824341
 30
0.0
 70
0
  0
VERTEX
  8
0
 10
404.459473
 20
425.824341
 30
0.0
 70
0
  0
VERTEX
  8
0
 10
403.459473
 20
426.824341
 30
0.0
 70
0
  0
VERTEX
  8
0
 10
389.459473
 20
426.824341
 30
0.0
 70
0
  0
VERTEX
  8
0
 10
389.459473
 20
543.824341
 30
0.0
 70
0
  0
SEQEND
  8
0
  0
POLYLINE
  8
0
 62
4
 66
1
 10
0.0
 20
0.0
 30
0.0
 70
2
  0
VERTEX
  8
0
 10
389.459473
 20
543.824341
 30
0.0
 70
0
  0
VERTEX
  8
0
 10
388.459473
 20
544.824341
 30
0.0
 70
0
  0
VERTEX
  8
0
 10
360.459473
 20
544.824341
 30
0.0
 70
0
  0
VERTEX
  8
0
 10
359.459473
 20
543.824341
 30
0.0
 70
0
  0
VERTEX
  8
0
 10
359.459473
 20
345.824341
 30
0.0
 70
0
  0
SEQEND
  8
0
  0
ARC
  8
0
 62
4
 10
384.459473
 20
294.824341
 30
0.0
 40
2.0
 50
90.0
 51
180.0
  0
ARC
  8
0
 62
4
 10
384.459473
 20
428.824341
 30
0.0
 40
2.0
 50
180.0
 51
270.0
  0
LINE
  8
0
 62
4
 10
389.459473
 20
296.824341
 30
0.0
 11
384.459473
 21
296.824341
 31
0.0
  0
LINE
  8
0
 62
4
 10
384.459473
 20
426.824341
 30
0.0
 11
389.459473
 21
426.824341
 31
0.0
  0
LINE
  8
0
 62
4
 10
382.459473
 20
513.08606
 30
0.0
 11
382.459473
 21
428.824341
 31
0.0
  0
LINE
  8
0
 62
4
 10
382.459473
 20
294.824341
 30
0.0
 11
382.459473
 21
210.562607
 31
0.0
  0
CIRCLE
  8
0
 62
4
 10
918.783813
 20
361.824341
 30
0.0
 40
65.0
  0
ENDSEC
  0
EOF
