  0
SECTION
  2
ENTITIES
  0
ARC
  8
0
 62
4
 10
302.83783
 20
351.797302
 30
0.0
 40
2.0
 50
270.0
 51
0.0
  0
ARC
  8
0
 62
4
 10
302.83783
 20
247.797302
 30
0.0
 40
2.0
 50
0.0
 51
90.0
  0
LINE
  8
0
 62
4
 10
297.83783
 20
446.047302
 30
0.0
 11
327.83783
 21
446.047302
 31
0.0
  0
LINE
  8
0
 62
4
 10
297.83783
 20
153.547302
 30
0.0
 11
327.83783
 21
153.547302
 31
0.0
  0
LINE
  8
0
 62
4
 10
342.83783
 20
315.797302
 30
0.0
 11
341.83783
 21
314.797302
 31
0.0
  0
LINE
  8
0
 62
4
 10
342.83783
 20
283.797302
 30
0.0
 11
341.83783
 21
284.797302
 31
0.0
  0
LINE
  8
0
 62
4
 10
297.83783
 20
283.797302
 30
0.0
 11
298.83783
 21
284.797302
 31
0.0
  0
LINE
  8
0
 62
4
 10
297.83783
 20
349.797302
 30
0.0
 11
302.83783
 21
349.797302
 31
0.0
  0
LINE
  8
0
 62
4
 10
297.83783
 20
249.797302
 30
0.0
 11
302.83783
 21
249.797302
 31
0.0
  0
POLYLINE
  8
0
 62
4
 66
1
 10
0.0
 20
0.0
 30
0.0
 70
2
  0
VERTEX
  8
0
 10
320.83783
 20
351.797302
 30
0.0
 70
0
  0
VERTEX
  8
0
 10
320.83783
 20
421.059021
 30
0.0
 70
0
  0
VERTEX
  8
0
 10
327.83783
 20
434.797302
 30
0.0
 70
0
  0
SEQEND
  8
0
  0
POLYLINE
  8
0
 62
4
 66
1
 10
0.0
 20
0.0
 30
0.0
 70
2
  0
VERTEX
  8
0
 10
304.83783
 20
351.797302
 30
0.0
 70
0
  0
VERTEX
  8
0
 10
304.83783
 20
421.059021
 30
0.0
 70
0
  0
VERTEX
  8
0
 10
297.83783
 20
434.797302
 30
0.0
 70
0
  0
SEQEND
  8
0
  0
POLYLINE
  8
0
 62
4
 66
1
 10
0.0
 20
0.0
 30
0.0
 70
2
  0
VERTEX
  8
0
 10
320.83783
 20
247.797302
 30
0.0
 70
0
  0
VERTEX
  8
0
 10
320.83783
 20
178.535583
 30
0.0
 70
0
  0
VERTEX
  8
0
 10
327.83783
 20
164.797302
 30
0.0
 70
0
  0
SEQEND
  8
0
  0
POLYLINE
  8
0
 62
4
 66
1
 10
0.0
 20
0.0
 30
0.0
 70
2
  0
VERTEX
  8
0
 10
304.83783
 20
247.797302
 30
0.0
 70
0
  0
VERTEX
  8
0
 10
304.83783
 20
178.535583
 30
0.0
 70
0
  0
VERTEX
  8
0
 10
297.83783
 20
164.797302
 30
0.0
 70
0
  0
SEQEND
  8
0
  0
POLYLINE
  8
0
 62
4
 66
1
 10
0.0
 20
0.0
 30
0.0
 70
2
  0
VERTEX
  8
0
 10
297.83783
 20
315.797302
 30
0.0
 70
0
  0
VERTEX
  8
0
 10
298.83783
 20
314.797302
 30
0.0
 70
0
  0
VERTEX
  8
0
 10
298.83783
 20
284.797302
 30
0.0
 70
0
  0
VERTEX
  8
0
 10
341.83783
 20
284.797302
 30
0.0
 70
0
  0
VERTEX
  8
0
 10
341.83783
 20
314.797302
 30
0.0
 70
0
  0
VERTEX
  8
0
 10
298.83783
 20
314.797302
 30
0.0
 70
0
  0
SEQEND
  8
0
  0
POLYLINE
  8
0
 62
4
 66
1
 10
0.0
 20
0.0
 30
0.0
 70
2
  0
VERTEX
  8
0
 10
297.83783
 20
283.797302
 30
0.0
 70
0
  0
VERTEX
  8
0
 10
297.83783
 20
147.797302
 30
0.0
 70
0
  0
VERTEX
  8
0
 10
298.83783
 20
146.797302
 30
0.0
 70
0
  0
VERTEX
  8
0
 10
326.83783
 20
146.797302
 30
0.0
 70
0
  0
VERTEX
  8
0
 10
327.83783
 20
147.797302
 30
0.0
 70
0
  0
VERTEX
  8
0
 10
327.83783
 20
249.797302
 30
0.0
 70
0
  0
VERTEX
  8
0
 10
341.83783
 20
249.797302
 30
0.0
 70
0
  0
VERTEX
  8
0
 10
342.83783
 20
250.797302
 30
0.0
 70
0
  0
VERTEX
  8
0
 10
342.83783
 20
348.797302
 30
0.0
 70
0
  0
VERTEX
  8
0
 10
341.83783
 20
349.797302
 30
0.0
 70
0
  0
VERTEX
  8
0
 10
327.83783
 20
349.797302
 30
0.0
 70
0
  0
VERTEX
  8
0
 10
327.83783
 20
451.797302
 30
0.0
 70
0
  0
SEQEND
  8
0
  0
POLYLINE
  8
0
 62
4
 66
1
 10
0.0
 20
0.0
 30
0.0
 70
2
  0
VERTEX
  8
0
 10
327.83783
 20
451.797302
 30
0.0
 70
0
  0
VERTEX
  8
0
 10
326.83783
 20
452.797302
 30
0.0
 70
0
  0
VERTEX
  8
0
 10
298.83783
 20
452.797302
 30
0.0
 70
0
  0
VERTEX
  8
0
 10
297.83783
 20
451.797302
 30
0.0
 70
0
  0
VERTEX
  8
0
 10
297.83783
 20
283.797302
 30
0.0
 70
0
  0
SEQEND
  8
0
  0
ARC
  8
0
 62
4
 10
322.83783
 20
247.797302
 30
0.0
 40
2.0
 50
90.0
 51
180.0
  0
ARC
  8
0
 62
4
 10
322.83783
 20
351.797302
 30
0.0
 40
2.0
 50
180.0
 51
270.0
  0
LINE
  8
0
 62
4
 10
327.83783
 20
249.797302
 30
0.0
 11
322.83783
 21
249.797302
 31
0.0
  0
LINE
  8
0
 62
4
 10
322.83783
 20
349.797302
 30
0.0
 11
327.83783
 21
349.797302
 31
0.0
  0
LINE
  8
0
 62
4
 10
320.83783
 20
421.059021
 30
0.0
 11
320.83783
 21
351.797302
 31
0.0
  0
LINE
  8
0
 62
4
 10
320.83783
 20
247.797302
 30
0.0
 11
320.83783
 21
178.535583
 31
0.0
  0
ENDSEC
  0
EOF
