  0
SECTION
  2
ENTITIES
  0
LINE
  8
0
 62
4
 10
128.543472
 20
143.586945
 30
0.0
 11
158.543472
 21
143.586945
 31
0.0
  0
LINE
  8
0
 62
4
 10
128.543472
 20
115.086945
 30
0.0
 11
158.543472
 21
115.086945
 31
0.0
  0
LINE
  8
0
 62
4
 10
173.043472
 20
121.836945
 30
0.0
 11
173.543472
 21
121.336945
 31
0.0
  0
LINE
  8
0
 62
4
 10
173.043472
 20
136.836945
 30
0.0
 11
173.543472
 21
137.336945
 31
0.0
  0
LINE
  8
0
 62
4
 10
129.043472
 20
136.836945
 30
0.0
 11
129.043472
 21
121.836945
 31
0.0
  0
POLYLINE
  8
0
 62
4
 66
1
 10
0.0
 20
0.0
 30
0.0
 70
2
  0
VERTEX
  8
0
 10
128.543472
 20
121.336945
 30
0.0
 70
0
  0
VERTEX
  8
0
 10
129.043472
 20
121.836945
 30
0.0
 70
0
  0
VERTEX
  8
0
 10
173.043472
 20
121.836945
 30
0.0
 70
0
  0
VERTEX
  8
0
 10
173.043472
 20
136.836945
 30
0.0
 70
0
  0
VERTEX
  8
0
 10
129.043472
 20
136.836945
 30
0.0
 70
0
  0
VERTEX
  8
0
 10
128.543472
 20
137.336945
 30
0.0
 70
0
  0
SEQEND
  8
0
  0
ARC
  8
0
 62
4
 10
159.543472
 20
144.336945
 30
0.0
 40
1.0
 50
180.0
 51
270.0
  0
ARC
  8
0
 62
4
 10
159.543472
 20
114.336945
 30
0.0
 40
1.0
 50
90.0
 51
180.0
  0
POLYLINE
  8
0
 62
4
 66
1
 10
0.0
 20
0.0
 30
0.0
 70
2
  0
VERTEX
  8
0
 10
168.043472
 20
143.336945
 30
0.0
 70
0
  0
VERTEX
  8
0
 10
168.043472
 20
136.836945
 30
0.0
 70
0
  0
SEQEND
  8
0
  0
POLYLINE
  8
0
 62
4
 66
1
 10
0.0
 20
0.0
 30
0.0
 70
2
  0
VERTEX
  8
0
 10
164.043472
 20
143.336945
 30
0.0
 70
0
  0
VERTEX
  8
0
 10
164.043472
 20
136.836945
 30
0.0
 70
0
  0
SEQEND
  8
0
  0
POLYLINE
  8
0
 62
4
 66
1
 10
0.0
 20
0.0
 30
0.0
 70
2
  0
VERTEX
  8
0
 10
167.663467
 20
143.336945
 30
0.0
 70
0
  0
VERTEX
  8
0
 10
167.663467
 20
136.836945
 30
0.0
 70
0
  0
SEQEND
  8
0
  0
POLYLINE
  8
0
 62
4
 66
1
 10
0.0
 20
0.0
 30
0.0
 70
2
  0
VERTEX
  8
0
 10
164.423477
 20
143.336945
 30
0.0
 70
0
  0
VERTEX
  8
0
 10
164.423477
 20
136.836945
 30
0.0
 70
0
  0
SEQEND
  8
0
  0
POLYLINE
  8
0
 62
4
 66
1
 10
0.0
 20
0.0
 30
0.0
 70
2
  0
VERTEX
  8
0
 10
309.32608
 20
136.565353
 30
0.0
 70
0
  0
VERTEX
  8
0
 10
309.32608
 20
143.193344
 30
0.0
 70
0
  0
SEQEND
  8
0
  0
POLYLINE
  8
0
 62
4
 66
1
 10
0.0
 20
0.0
 30
0.0
 70
2
  0
VERTEX
  8
0
 10
313.32608
 20
136.565353
 30
0.0
 70
0
  0
VERTEX
  8
0
 10
313.32608
 20
143.193344
 30
0.0
 70
0
  0
SEQEND
  8
0
  0
POLYLINE
  8
0
 62
4
 66
1
 10
0.0
 20
0.0
 30
0.0
 70
2
  0
VERTEX
  8
0
 10
309.706085
 20
136.659897
 30
0.0
 70
0
  0
VERTEX
  8
0
 10
309.706085
 20
143.242905
 30
0.0
 70
0
  0
SEQEND
  8
0
  0
POLYLINE
  8
0
 62
4
 66
1
 10
0.0
 20
0.0
 30
0.0
 70
2
  0
VERTEX
  8
0
 10
312.946075
 20
136.659897
 30
0.0
 70
0
  0
VERTEX
  8
0
 10
312.946075
 20
143.242905
 30
0.0
 70
0
  0
SEQEND
  8
0
  0
CIRCLE
  8
0
 62
7
 10
166.043472
 20
129.336945
 30
0.0
 40
2.0
  0
CIRCLE
  8
0
 62
4
 10
166.043472
 20
129.336945
 30
0.0
 40
1.62
  0
POLYLINE
  8
0
 62
4
 66
1
 10
0.0
 20
0.0
 30
0.0
 70
2
  0
VERTEX
  8
0
 10
318.554504
 20
131.336945
 30
0.0
 70
0
  0
VERTEX
  8
0
 10
325.182495
 20
131.336945
 30
0.0
 70
0
  0
SEQEND
  8
0
  0
POLYLINE
  8
0
 62
4
 66
1
 10
0.0
 20
0.0
 30
0.0
 70
2
  0
VERTEX
  8
0
 10
318.554504
 20
127.336945
 30
0.0
 70
0
  0
VERTEX
  8
0
 10
325.182495
 20
127.336945
 30
0.0
 70
0
  0
SEQEND
  8
0
  0
POLYLINE
  8
0
 62
4
 66
1
 10
0.0
 20
0.0
 30
0.0
 70
2
  0
VERTEX
  8
0
 10
318.649048
 20
130.95694
 30
0.0
 70
0
  0
VERTEX
  8
0
 10
325.232056
 20
130.95694
 30
0.0
 70
0
  0
SEQEND
  8
0
  0
POLYLINE
  8
0
 62
4
 66
1
 10
0.0
 20
0.0
 30
0.0
 70
2
  0
VERTEX
  8
0
 10
318.649048
 20
127.716942
 30
0.0
 70
0
  0
VERTEX
  8
0
 10
325.232056
 20
127.716942
 30
0.0
 70
0
  0
SEQEND
  8
0
  0
POLYLINE
  8
0
 62
4
 66
1
 10
0.0
 20
0.0
 30
0.0
 70
2
  0
VERTEX
  8
0
 10
128.543472
 20
121.336945
 30
0.0
 70
0
  0
VERTEX
  8
0
 10
128.543472
 20
109.336945
 30
0.0
 70
0
  0
VERTEX
  8
0
 10
129.543472
 20
108.336945
 30
0.0
 70
0
  0
VERTEX
  8
0
 10
157.543472
 20
108.336945
 30
0.0
 70
0
  0
VERTEX
  8
0
 10
158.543472
 20
109.336945
 30
0.0
 70
0
  0
VERTEX
  8
0
 10
158.543472
 20
114.336945
 30
0.0
 70
0
  0
SEQEND
  8
0
  0
POLYLINE
  8
0
 62
4
 66
1
 10
0.0
 20
0.0
 30
0.0
 70
2
  0
VERTEX
  8
0
 10
159.543472
 20
115.336945
 30
0.0
 70
0
  0
VERTEX
  8
0
 10
172.543472
 20
115.336945
 30
0.0
 70
0
  0
VERTEX
  8
0
 10
173.543472
 20
116.336945
 30
0.0
 70
0
  0
VERTEX
  8
0
 10
173.543472
 20
142.336945
 30
0.0
 70
0
  0
VERTEX
  8
0
 10
172.543472
 20
143.336945
 30
0.0
 70
0
  0
VERTEX
  8
0
 10
159.543472
 20
143.336945
 30
0.0
 70
0
  0
SEQEND
  8
0
  0
POLYLINE
  8
0
 62
4
 66
1
 10
0.0
 20
0.0
 30
0.0
 70
2
  0
VERTEX
  8
0
 10
158.543472
 20
144.336945
 30
0.0
 70
0
  0
VERTEX
  8
0
 10
158.543472
 20
149.336945
 30
0.0
 70
0
  0
VERTEX
  8
0
 10
157.543472
 20
150.336945
 30
0.0
 70
0
  0
VERTEX
  8
0
 10
129.543472
 20
150.336945
 30
0.0
 70
0
  0
VERTEX
  8
0
 10
128.543472
 20
149.336945
 30
0.0
 70
0
  0
VERTEX
  8
0
 10
128.543472
 20
121.336945
 30
0.0
 70
0
  0
SEQEND
  8
0
  0
CIRCLE
  8
0
 62
4
 10
311.32608
 20
129.336945
 30
0.0
 40
7.5
  0
CIRCLE
  8
0
 62
4
 10
311.32608
 20
129.336945
 30
0.0
 40
14.0
  0
ENDSEC
  0
EOF
