  0
SECTION
  2
ENTITIES
  0
LINE
  8
0
 62
4
 10
274.695679
 20
363.391296
 30
0.0
 11
314.695679
 21
363.391296
 31
0.0
  0
LINE
  8
0
 62
4
 10
274.695679
 20
189.391296
 30
0.0
 11
314.695679
 21
189.391296
 31
0.0
  0
LINE
  8
0
 62
4
 10
329.695679
 20
263.891296
 30
0.0
 11
330.695679
 21
262.891296
 31
0.0
  0
LINE
  8
0
 62
4
 10
329.695679
 20
288.891296
 30
0.0
 11
330.695679
 21
289.891296
 31
0.0
  0
LINE
  8
0
 62
4
 10
275.695679
 20
288.891296
 30
0.0
 11
275.695679
 21
263.891296
 31
0.0
  0
POLYLINE
  8
0
 62
4
 66
1
 10
0.0
 20
0.0
 30
0.0
 70
2
  0
VERTEX
  8
0
 10
274.695679
 20
262.891296
 30
0.0
 70
0
  0
VERTEX
  8
0
 10
275.695679
 20
263.891296
 30
0.0
 70
0
  0
VERTEX
  8
0
 10
329.695679
 20
263.891296
 30
0.0
 70
0
  0
VERTEX
  8
0
 10
329.695679
 20
288.891296
 30
0.0
 70
0
  0
VERTEX
  8
0
 10
275.695679
 20
288.891296
 30
0.0
 70
0
  0
VERTEX
  8
0
 10
274.695679
 20
289.891296
 30
0.0
 70
0
  0
SEQEND
  8
0
  0
ARC
  8
0
 62
4
 10
316.195679
 20
327.891296
 30
0.0
 40
1.5
 50
180.0
 51
270.0
  0
ARC
  8
0
 62
4
 10
316.195679
 20
224.891296
 30
0.0
 40
1.5
 50
90.0
 51
180.0
  0
POLYLINE
  8
0
 62
4
 66
1
 10
0.0
 20
0.0
 30
0.0
 70
2
  0
VERTEX
  8
0
 10
274.695679
 20
262.891296
 30
0.0
 70
0
  0
VERTEX
  8
0
 10
274.695679
 20
181.391296
 30
0.0
 70
0
  0
VERTEX
  8
0
 10
275.695679
 20
180.391296
 30
0.0
 70
0
  0
VERTEX
  8
0
 10
313.695679
 20
180.391296
 30
0.0
 70
0
  0
VERTEX
  8
0
 10
314.695679
 20
181.391296
 30
0.0
 70
0
  0
VERTEX
  8
0
 10
314.695679
 20
224.891296
 30
0.0
 70
0
  0
SEQEND
  8
0
  0
POLYLINE
  8
0
 62
4
 66
1
 10
0.0
 20
0.0
 30
0.0
 70
2
  0
VERTEX
  8
0
 10
316.195679
 20
226.391296
 30
0.0
 70
0
  0
VERTEX
  8
0
 10
329.695679
 20
226.391296
 30
0.0
 70
0
  0
VERTEX
  8
0
 10
330.695679
 20
227.391296
 30
0.0
 70
0
  0
VERTEX
  8
0
 10
330.695679
 20
325.391296
 30
0.0
 70
0
  0
VERTEX
  8
0
 10
329.695679
 20
326.391296
 30
0.0
 70
0
  0
VERTEX
  8
0
 10
316.195679
 20
326.391296
 30
0.0
 70
0
  0
SEQEND
  8
0
  0
POLYLINE
  8
0
 62
4
 66
1
 10
0.0
 20
0.0
 30
0.0
 70
2
  0
VERTEX
  8
0
 10
314.695679
 20
327.891296
 30
0.0
 70
0
  0
VERTEX
  8
0
 10
314.695679
 20
371.391296
 30
0.0
 70
0
  0
VERTEX
  8
0
 10
313.695679
 20
372.391296
 30
0.0
 70
0
  0
VERTEX
  8
0
 10
275.695679
 20
372.391296
 30
0.0
 70
0
  0
VERTEX
  8
0
 10
274.695679
 20
371.391296
 30
0.0
 70
0
  0
VERTEX
  8
0
 10
274.695679
 20
262.891296
 30
0.0
 70
0
  0
SEQEND
  8
0
  0
ENDSEC
  0
EOF
