  0
SECTION
  2
ENTITIES
  0
LINE
  8
0
 62
4
 10
176.086945
 20
200.17392
 30
0.0
 11
216.086945
 21
200.17392
 31
0.0
  0
LINE
  8
0
 62
4
 10
176.086945
 20
154.17392
 30
0.0
 11
216.086945
 21
154.17392
 31
0.0
  0
LINE
  8
0
 62
4
 10
235.086945
 20
167.17392
 30
0.0
 11
236.086945
 21
166.17392
 31
0.0
  0
LINE
  8
0
 62
4
 10
235.086945
 20
187.17392
 30
0.0
 11
236.086945
 21
188.17392
 31
0.0
  0
LINE
  8
0
 62
4
 10
177.086945
 20
187.17392
 30
0.0
 11
177.086945
 21
167.17392
 31
0.0
  0
POLYLINE
  8
0
 62
4
 66
1
 10
0.0
 20
0.0
 30
0.0
 70
2
  0
VERTEX
  8
0
 10
176.086945
 20
166.17392
 30
0.0
 70
0
  0
VERTEX
  8
0
 10
177.086945
 20
167.17392
 30
0.0
 70
0
  0
VERTEX
  8
0
 10
235.086945
 20
167.17392
 30
0.0
 70
0
  0
VERTEX
  8
0
 10
235.086945
 20
187.17392
 30
0.0
 70
0
  0
VERTEX
  8
0
 10
177.086945
 20
187.17392
 30
0.0
 70
0
  0
VERTEX
  8
0
 10
176.086945
 20
188.17392
 30
0.0
 70
0
  0
SEQEND
  8
0
  0
ARC
  8
0
 62
4
 10
217.086945
 20
198.17392
 30
0.0
 40
1.0
 50
180.0
 51
270.0
  0
ARC
  8
0
 62
4
 10
217.086945
 20
156.17392
 30
0.0
 40
1.0
 50
90.0
 51
180.0
  0
POLYLINE
  8
0
 62
4
 66
1
 10
0.0
 20
0.0
 30
0.0
 70
2
  0
VERTEX
  8
0
 10
176.086945
 20
166.17392
 30
0.0
 70
0
  0
VERTEX
  8
0
 10
176.086945
 20
146.17392
 30
0.0
 70
0
  0
VERTEX
  8
0
 10
177.086945
 20
145.17392
 30
0.0
 70
0
  0
VERTEX
  8
0
 10
215.086945
 20
145.17392
 30
0.0
 70
0
  0
VERTEX
  8
0
 10
216.086945
 20
146.17392
 30
0.0
 70
0
  0
VERTEX
  8
0
 10
216.086945
 20
156.17392
 30
0.0
 70
0
  0
SEQEND
  8
0
  0
POLYLINE
  8
0
 62
4
 66
1
 10
0.0
 20
0.0
 30
0.0
 70
2
  0
VERTEX
  8
0
 10
217.086945
 20
157.17392
 30
0.0
 70
0
  0
VERTEX
  8
0
 10
235.086945
 20
157.17392
 30
0.0
 70
0
  0
VERTEX
  8
0
 10
236.086945
 20
158.17392
 30
0.0
 70
0
  0
VERTEX
  8
0
 10
236.086945
 20
196.17392
 30
0.0
 70
0
  0
VERTEX
  8
0
 10
235.086945
 20
197.17392
 30
0.0
 70
0
  0
VERTEX
  8
0
 10
217.086945
 20
197.17392
 30
0.0
 70
0
  0
SEQEND
  8
0
  0
POLYLINE
  8
0
 62
4
 66
1
 10
0.0
 20
0.0
 30
0.0
 70
2
  0
VERTEX
  8
0
 10
216.086945
 20
198.17392
 30
0.0
 70
0
  0
VERTEX
  8
0
 10
216.086945
 20
208.17392
 30
0.0
 70
0
  0
VERTEX
  8
0
 10
215.086945
 20
209.17392
 30
0.0
 70
0
  0
VERTEX
  8
0
 10
177.086945
 20
209.17392
 30
0.0
 70
0
  0
VERTEX
  8
0
 10
176.086945
 20
208.17392
 30
0.0
 70
0
  0
VERTEX
  8
0
 10
176.086945
 20
166.17392
 30
0.0
 70
0
  0
SEQEND
  8
0
  0
ENDSEC
  0
EOF
