  0
SECTION
  2
ENTITIES
  0
LINE
  8
0
 62
4
 10
276.456543
 20
321.913025
 30
0.0
 11
326.456543
 21
321.913025
 31
0.0
  0
LINE
  8
0
 62
4
 10
276.456543
 20
234.413025
 30
0.0
 11
326.456543
 21
234.413025
 31
0.0
  0
LINE
  8
0
 62
4
 10
350.456543
 20
267.163025
 30
0.0
 11
351.456543
 21
266.163025
 31
0.0
  0
LINE
  8
0
 62
4
 10
350.456543
 20
289.163025
 30
0.0
 11
351.456543
 21
290.163025
 31
0.0
  0
LINE
  8
0
 62
4
 10
277.456543
 20
289.163025
 30
0.0
 11
277.456543
 21
267.163025
 31
0.0
  0
POLYLINE
  8
0
 62
4
 66
1
 10
0.0
 20
0.0
 30
0.0
 70
2
  0
VERTEX
  8
0
 10
276.456543
 20
266.163025
 30
0.0
 70
0
  0
VERTEX
  8
0
 10
277.456543
 20
267.163025
 30
0.0
 70
0
  0
VERTEX
  8
0
 10
350.456543
 20
267.163025
 30
0.0
 70
0
  0
VERTEX
  8
0
 10
350.456543
 20
289.163025
 30
0.0
 70
0
  0
VERTEX
  8
0
 10
277.456543
 20
289.163025
 30
0.0
 70
0
  0
VERTEX
  8
0
 10
276.456543
 20
290.163025
 30
0.0
 70
0
  0
SEQEND
  8
0
  0
ARC
  8
0
 62
4
 10
327.956543
 20
320.663025
 30
0.0
 40
1.5
 50
180.0
 51
270.0
  0
ARC
  8
0
 62
4
 10
327.956543
 20
235.663025
 30
0.0
 40
1.5
 50
90.0
 51
180.0
  0
POLYLINE
  8
0
 62
4
 66
1
 10
0.0
 20
0.0
 30
0.0
 70
2
  0
VERTEX
  8
0
 10
276.456543
 20
266.163025
 30
0.0
 70
0
  0
VERTEX
  8
0
 10
276.456543
 20
224.663025
 30
0.0
 70
0
  0
VERTEX
  8
0
 10
277.956543
 20
223.163025
 30
0.0
 70
0
  0
VERTEX
  8
0
 10
324.956543
 20
223.163025
 30
0.0
 70
0
  0
VERTEX
  8
0
 10
326.456543
 20
224.663025
 30
0.0
 70
0
  0
VERTEX
  8
0
 10
326.456543
 20
235.663025
 30
0.0
 70
0
  0
SEQEND
  8
0
  0
POLYLINE
  8
0
 62
4
 66
1
 10
0.0
 20
0.0
 30
0.0
 70
2
  0
VERTEX
  8
0
 10
327.956543
 20
237.163025
 30
0.0
 70
0
  0
VERTEX
  8
0
 10
350.456543
 20
237.163025
 30
0.0
 70
0
  0
VERTEX
  8
0
 10
351.456543
 20
238.163025
 30
0.0
 70
0
  0
VERTEX
  8
0
 10
351.456543
 20
318.163025
 30
0.0
 70
0
  0
VERTEX
  8
0
 10
350.456543
 20
319.163025
 30
0.0
 70
0
  0
VERTEX
  8
0
 10
327.956543
 20
319.163025
 30
0.0
 70
0
  0
SEQEND
  8
0
  0
POLYLINE
  8
0
 62
4
 66
1
 10
0.0
 20
0.0
 30
0.0
 70
2
  0
VERTEX
  8
0
 10
326.456543
 20
320.663025
 30
0.0
 70
0
  0
VERTEX
  8
0
 10
326.456543
 20
331.663025
 30
0.0
 70
0
  0
VERTEX
  8
0
 10
324.956543
 20
333.163025
 30
0.0
 70
0
  0
VERTEX
  8
0
 10
277.956543
 20
333.163025
 30
0.0
 70
0
  0
VERTEX
  8
0
 10
276.456543
 20
331.663025
 30
0.0
 70
0
  0
VERTEX
  8
0
 10
276.456543
 20
266.163025
 30
0.0
 70
0
  0
SEQEND
  8
0
  0
ENDSEC
  0
EOF
