  0
SECTION
  2
ENTITIES
  0
LINE
  8
0
 62
4
 10
295.826111
 20
344.152161
 30
0.0
 11
355.826111
 21
344.152161
 31
0.0
  0
LINE
  8
0
 62
4
 10
295.826111
 20
251.152161
 30
0.0
 11
355.826111
 21
251.152161
 31
0.0
  0
LINE
  8
0
 62
4
 10
382.826111
 20
285.152161
 30
0.0
 11
383.826111
 21
284.152161
 31
0.0
  0
LINE
  8
0
 62
4
 10
382.826111
 20
310.152161
 30
0.0
 11
383.826111
 21
311.152161
 31
0.0
  0
LINE
  8
0
 62
4
 10
296.826111
 20
310.152161
 30
0.0
 11
296.826111
 21
285.152161
 31
0.0
  0
POLYLINE
  8
0
 62
4
 66
1
 10
0.0
 20
0.0
 30
0.0
 70
2
  0
VERTEX
  8
0
 10
295.826111
 20
284.152161
 30
0.0
 70
0
  0
VERTEX
  8
0
 10
296.826111
 20
285.152161
 30
0.0
 70
0
  0
VERTEX
  8
0
 10
382.826111
 20
285.152161
 30
0.0
 70
0
  0
VERTEX
  8
0
 10
382.826111
 20
310.152161
 30
0.0
 70
0
  0
VERTEX
  8
0
 10
296.826111
 20
310.152161
 30
0.0
 70
0
  0
VERTEX
  8
0
 10
295.826111
 20
311.152161
 30
0.0
 70
0
  0
SEQEND
  8
0
  0
ARC
  8
0
 62
4
 10
357.326111
 20
339.152161
 30
0.0
 40
1.5
 50
180.0
 51
270.0
  0
ARC
  8
0
 62
4
 10
357.326111
 20
256.152161
 30
0.0
 40
1.5
 50
90.0
 51
180.0
  0
POLYLINE
  8
0
 62
4
 66
1
 10
0.0
 20
0.0
 30
0.0
 70
2
  0
VERTEX
  8
0
 10
295.826111
 20
284.152161
 30
0.0
 70
0
  0
VERTEX
  8
0
 10
295.826111
 20
239.152161
 30
0.0
 70
0
  0
VERTEX
  8
0
 10
297.326111
 20
237.652161
 30
0.0
 70
0
  0
VERTEX
  8
0
 10
354.326111
 20
237.652161
 30
0.0
 70
0
  0
VERTEX
  8
0
 10
355.826111
 20
239.152161
 30
0.0
 70
0
  0
VERTEX
  8
0
 10
355.826111
 20
256.152161
 30
0.0
 70
0
  0
SEQEND
  8
0
  0
POLYLINE
  8
0
 62
4
 66
1
 10
0.0
 20
0.0
 30
0.0
 70
2
  0
VERTEX
  8
0
 10
357.326111
 20
257.652161
 30
0.0
 70
0
  0
VERTEX
  8
0
 10
382.826111
 20
257.652161
 30
0.0
 70
0
  0
VERTEX
  8
0
 10
383.826111
 20
258.652161
 30
0.0
 70
0
  0
VERTEX
  8
0
 10
383.826111
 20
336.652161
 30
0.0
 70
0
  0
VERTEX
  8
0
 10
382.826111
 20
337.652161
 30
0.0
 70
0
  0
VERTEX
  8
0
 10
357.326111
 20
337.652161
 30
0.0
 70
0
  0
SEQEND
  8
0
  0
POLYLINE
  8
0
 62
4
 66
1
 10
0.0
 20
0.0
 30
0.0
 70
2
  0
VERTEX
  8
0
 10
355.826111
 20
339.152161
 30
0.0
 70
0
  0
VERTEX
  8
0
 10
355.826111
 20
356.152161
 30
0.0
 70
0
  0
VERTEX
  8
0
 10
354.326111
 20
357.652161
 30
0.0
 70
0
  0
VERTEX
  8
0
 10
297.326111
 20
357.652161
 30
0.0
 70
0
  0
VERTEX
  8
0
 10
295.826111
 20
356.152161
 30
0.0
 70
0
  0
VERTEX
  8
0
 10
295.826111
 20
284.152161
 30
0.0
 70
0
  0
SEQEND
  8
0
  0
ENDSEC
  0
EOF
