  0
SECTION
  2
ENTITIES
  0
LINE
  8
0
 62
4
 10
278.217407
 20
317.434784
 30
0.0
 11
338.217407
 21
317.434784
 31
0.0
  0
LINE
  8
0
 62
4
 10
278.217407
 20
242.434784
 30
0.0
 11
338.217407
 21
242.434784
 31
0.0
  0
LINE
  8
0
 62
4
 10
365.217407
 20
267.434784
 30
0.0
 11
366.217407
 21
266.434784
 31
0.0
  0
LINE
  8
0
 62
4
 10
365.217407
 20
292.434784
 30
0.0
 11
366.217407
 21
293.434784
 31
0.0
  0
LINE
  8
0
 62
4
 10
279.217407
 20
292.434784
 30
0.0
 11
279.217407
 21
267.434784
 31
0.0
  0
POLYLINE
  8
0
 62
4
 66
1
 10
0.0
 20
0.0
 30
0.0
 70
2
  0
VERTEX
  8
0
 10
278.217407
 20
266.434784
 30
0.0
 70
0
  0
VERTEX
  8
0
 10
279.217407
 20
267.434784
 30
0.0
 70
0
  0
VERTEX
  8
0
 10
365.217407
 20
267.434784
 30
0.0
 70
0
  0
VERTEX
  8
0
 10
365.217407
 20
292.434784
 30
0.0
 70
0
  0
VERTEX
  8
0
 10
279.217407
 20
292.434784
 30
0.0
 70
0
  0
VERTEX
  8
0
 10
278.217407
 20
293.434784
 30
0.0
 70
0
  0
SEQEND
  8
0
  0
ARC
  8
0
 62
4
 10
339.717407
 20
316.434784
 30
0.0
 40
1.5
 50
180.0
 51
270.0
  0
ARC
  8
0
 62
4
 10
339.717407
 20
243.434784
 30
0.0
 40
1.5
 50
90.0
 51
180.0
  0
POLYLINE
  8
0
 62
4
 66
1
 10
0.0
 20
0.0
 30
0.0
 70
2
  0
VERTEX
  8
0
 10
278.217407
 20
266.434784
 30
0.0
 70
0
  0
VERTEX
  8
0
 10
278.217407
 20
230.434784
 30
0.0
 70
0
  0
VERTEX
  8
0
 10
279.717407
 20
228.934784
 30
0.0
 70
0
  0
VERTEX
  8
0
 10
336.717407
 20
228.934784
 30
0.0
 70
0
  0
VERTEX
  8
0
 10
338.217407
 20
230.434784
 30
0.0
 70
0
  0
VERTEX
  8
0
 10
338.217407
 20
243.434784
 30
0.0
 70
0
  0
SEQEND
  8
0
  0
POLYLINE
  8
0
 62
4
 66
1
 10
0.0
 20
0.0
 30
0.0
 70
2
  0
VERTEX
  8
0
 10
339.717407
 20
244.934784
 30
0.0
 70
0
  0
VERTEX
  8
0
 10
365.217407
 20
244.934784
 30
0.0
 70
0
  0
VERTEX
  8
0
 10
366.217407
 20
245.934784
 30
0.0
 70
0
  0
VERTEX
  8
0
 10
366.217407
 20
313.934784
 30
0.0
 70
0
  0
VERTEX
  8
0
 10
365.217407
 20
314.934784
 30
0.0
 70
0
  0
VERTEX
  8
0
 10
339.717407
 20
314.934784
 30
0.0
 70
0
  0
SEQEND
  8
0
  0
POLYLINE
  8
0
 62
4
 66
1
 10
0.0
 20
0.0
 30
0.0
 70
2
  0
VERTEX
  8
0
 10
338.217407
 20
316.434784
 30
0.0
 70
0
  0
VERTEX
  8
0
 10
338.217407
 20
329.434784
 30
0.0
 70
0
  0
VERTEX
  8
0
 10
336.717407
 20
330.934784
 30
0.0
 70
0
  0
VERTEX
  8
0
 10
279.717407
 20
330.934784
 30
0.0
 70
0
  0
VERTEX
  8
0
 10
278.217407
 20
329.434784
 30
0.0
 70
0
  0
VERTEX
  8
0
 10
278.217407
 20
266.434784
 30
0.0
 70
0
  0
SEQEND
  8
0
  0
ENDSEC
  0
EOF
