  0
SECTION
  2
ENTITIES
  0
LINE
  8
0
 62
4
 10
129.27446
 20
168.914398
 30
0.0
 11
139.27446
 21
168.914398
 31
0.0
  0
LINE
  8
0
 62
4
 10
129.27446
 20
51.414398
 30
0.0
 11
139.27446
 21
51.414398
 31
0.0
  0
LINE
  8
0
 62
4
 10
139.27446
 20
118.164398
 30
0.0
 11
138.77446
 21
117.664398
 31
0.0
  0
LINE
  8
0
 62
4
 10
139.27446
 20
102.164398
 30
0.0
 11
138.77446
 21
102.664398
 31
0.0
  0
LINE
  8
0
 62
4
 10
129.27446
 20
102.164398
 30
0.0
 11
129.77446
 21
102.664398
 31
0.0
  0
POLYLINE
  8
0
 62
4
 66
1
 10
0.0
 20
0.0
 30
0.0
 70
2
  0
VERTEX
  8
0
 10
129.27446
 20
102.164398
 30
0.0
 70
0
  0
VERTEX
  8
0
 10
129.27446
 20
49.664398
 30
0.0
 70
0
  0
VERTEX
  8
0
 10
129.77446
 20
49.164398
 30
0.0
 70
0
  0
VERTEX
  8
0
 10
138.77446
 20
49.164398
 30
0.0
 70
0
  0
VERTEX
  8
0
 10
139.27446
 20
49.664398
 30
0.0
 70
0
  0
VERTEX
  8
0
 10
139.27446
 20
170.664398
 30
0.0
 70
0
  0
VERTEX
  8
0
 10
138.77446
 20
171.164398
 30
0.0
 70
0
  0
VERTEX
  8
0
 10
129.77446
 20
171.164398
 30
0.0
 70
0
  0
VERTEX
  8
0
 10
129.27446
 20
170.664398
 30
0.0
 70
0
  0
VERTEX
  8
0
 10
129.27446
 20
102.164398
 30
0.0
 70
0
  0
SEQEND
  8
0
  0
POLYLINE
  8
0
 62
4
 66
1
 10
0.0
 20
0.0
 30
0.0
 70
2
  0
VERTEX
  8
0
 10
129.27446
 20
118.164398
 30
0.0
 70
0
  0
VERTEX
  8
0
 10
129.77446
 20
117.664398
 30
0.0
 70
0
  0
VERTEX
  8
0
 10
129.77446
 20
102.664398
 30
0.0
 70
0
  0
VERTEX
  8
0
 10
138.77446
 20
102.664398
 30
0.0
 70
0
  0
VERTEX
  8
0
 10
138.77446
 20
117.664398
 30
0.0
 70
0
  0
VERTEX
  8
0
 10
129.77446
 20
117.664398
 30
0.0
 70
0
  0
SEQEND
  8
0
  0
ARC
  8
0
 62
4
 10
211.855988
 20
110.164398
 30
0.0
 40
7.5
 50
109.47122094265586
 51
70.52877905734415
  0
POLYLINE
  8
0
 62
4
 66
1
 10
0.0
 20
0.0
 30
0.0
 70
2
  0
VERTEX
  8
0
 10
214.355988
 20
117.235466
 30
0.0
 70
0
  0
VERTEX
  8
0
 10
214.355988
 20
119.964401
 30
0.0
 70
0
  0
VERTEX
  8
0
 10
209.355988
 20
119.964401
 30
0.0
 70
0
  0
VERTEX
  8
0
 10
209.355988
 20
117.235466
 30
0.0
 70
0
  0
SEQEND
  8
0
  0
LINE
  8
0
 62
4
 10
129.27446
 20
119.964401
 30
0.0
 11
139.27446
 21
119.964401
 31
0.0
  0
ENDSEC
  0
EOF
