  0
SECTION
  2
ENTITIES
  0
LINE
  8
0
 62
4
 10
31.578804
 20
48.849186
 30
0.0
 11
41.578804
 21
48.849186
 31
0.0
  0
LINE
  8
0
 62
4
 10
31.578804
 20
15.349186
 30
0.0
 11
41.578804
 21
15.349186
 31
0.0
  0
LINE
  8
0
 62
4
 10
41.578804
 20
40.099186
 30
0.0
 11
41.078804
 21
39.599186
 31
0.0
  0
LINE
  8
0
 62
4
 10
41.578804
 20
24.099186
 30
0.0
 11
41.078804
 21
24.599186
 31
0.0
  0
LINE
  8
0
 62
4
 10
31.578804
 20
24.099186
 30
0.0
 11
32.078804
 21
24.599186
 31
0.0
  0
POLYLINE
  8
0
 62
4
 66
1
 10
0.0
 20
0.0
 30
0.0
 70
2
  0
VERTEX
  8
0
 10
31.578804
 20
24.099186
 30
0.0
 70
0
  0
VERTEX
  8
0
 10
31.578804
 20
13.599186
 30
0.0
 70
0
  0
VERTEX
  8
0
 10
32.078804
 20
13.099186
 30
0.0
 70
0
  0
VERTEX
  8
0
 10
41.078804
 20
13.099186
 30
0.0
 70
0
  0
VERTEX
  8
0
 10
41.578804
 20
13.599186
 30
0.0
 70
0
  0
VERTEX
  8
0
 10
41.578804
 20
50.599186
 30
0.0
 70
0
  0
VERTEX
  8
0
 10
41.078804
 20
51.099186
 30
0.0
 70
0
  0
VERTEX
  8
0
 10
32.078804
 20
51.099186
 30
0.0
 70
0
  0
VERTEX
  8
0
 10
31.578804
 20
50.599186
 30
0.0
 70
0
  0
VERTEX
  8
0
 10
31.578804
 20
24.099186
 30
0.0
 70
0
  0
SEQEND
  8
0
  0
POLYLINE
  8
0
 62
4
 66
1
 10
0.0
 20
0.0
 30
0.0
 70
2
  0
VERTEX
  8
0
 10
31.578804
 20
40.099186
 30
0.0
 70
0
  0
VERTEX
  8
0
 10
32.078804
 20
39.599186
 30
0.0
 70
0
  0
VERTEX
  8
0
 10
32.078804
 20
24.599186
 30
0.0
 70
0
  0
VERTEX
  8
0
 10
41.078804
 20
24.599186
 30
0.0
 70
0
  0
VERTEX
  8
0
 10
41.078804
 20
39.599186
 30
0.0
 70
0
  0
VERTEX
  8
0
 10
32.078804
 20
39.599186
 30
0.0
 70
0
  0
SEQEND
  8
0
  0
ARC
  8
0
 62
4
 10
68.508148
 20
32.099186
 30
0.0
 40
7.5
 50
109.47122094265586
 51
70.52877905734415
  0
POLYLINE
  8
0
 62
4
 66
1
 10
0.0
 20
0.0
 30
0.0
 70
2
  0
VERTEX
  8
0
 10
71.008148
 20
39.170254
 30
0.0
 70
0
  0
VERTEX
  8
0
 10
71.008148
 20
41.899185
 30
0.0
 70
0
  0
VERTEX
  8
0
 10
66.008148
 20
41.899185
 30
0.0
 70
0
  0
VERTEX
  8
0
 10
66.008148
 20
39.170254
 30
0.0
 70
0
  0
SEQEND
  8
0
  0
LINE
  8
0
 62
4
 10
31.578804
 20
41.899185
 30
0.0
 11
41.578804
 21
41.899185
 31
0.0
  0
ENDSEC
  0
EOF
