  0
SECTION
  2
ENTITIES
  0
LINE
  8
0
 62
4
 10
34.911686
 20
56.121605
 30
0.0
 11
49.911686
 21
56.121605
 31
0.0
  0
LINE
  8
0
 62
4
 10
34.911686
 20
17.871605
 30
0.0
 11
49.911686
 21
17.871605
 31
0.0
  0
LINE
  8
0
 62
4
 10
49.911686
 20
46.496605
 30
0.0
 11
49.411686
 21
45.996605
 31
0.0
  0
LINE
  8
0
 62
4
 10
49.911686
 20
27.496605
 30
0.0
 11
49.411686
 21
27.996605
 31
0.0
  0
LINE
  8
0
 62
4
 10
34.911686
 20
27.496605
 30
0.0
 11
35.411686
 21
27.996605
 31
0.0
  0
POLYLINE
  8
0
 62
4
 66
1
 10
0.0
 20
0.0
 30
0.0
 70
2
  0
VERTEX
  8
0
 10
34.911686
 20
27.496605
 30
0.0
 70
0
  0
VERTEX
  8
0
 10
34.911686
 20
14.996605
 30
0.0
 70
0
  0
VERTEX
  8
0
 10
35.411686
 20
14.496605
 30
0.0
 70
0
  0
VERTEX
  8
0
 10
49.411686
 20
14.496605
 30
0.0
 70
0
  0
VERTEX
  8
0
 10
49.911686
 20
14.996605
 30
0.0
 70
0
  0
VERTEX
  8
0
 10
49.911686
 20
58.996605
 30
0.0
 70
0
  0
VERTEX
  8
0
 10
49.411686
 20
59.496605
 30
0.0
 70
0
  0
VERTEX
  8
0
 10
35.411686
 20
59.496605
 30
0.0
 70
0
  0
VERTEX
  8
0
 10
34.911686
 20
58.996605
 30
0.0
 70
0
  0
VERTEX
  8
0
 10
34.911686
 20
27.496605
 30
0.0
 70
0
  0
SEQEND
  8
0
  0
POLYLINE
  8
0
 62
4
 66
1
 10
0.0
 20
0.0
 30
0.0
 70
2
  0
VERTEX
  8
0
 10
34.911686
 20
46.496605
 30
0.0
 70
0
  0
VERTEX
  8
0
 10
35.411686
 20
45.996605
 30
0.0
 70
0
  0
VERTEX
  8
0
 10
35.411686
 20
27.996605
 30
0.0
 70
0
  0
VERTEX
  8
0
 10
49.411686
 20
27.996605
 30
0.0
 70
0
  0
VERTEX
  8
0
 10
49.411686
 20
45.996605
 30
0.0
 70
0
  0
VERTEX
  8
0
 10
35.411686
 20
45.996605
 30
0.0
 70
0
  0
SEQEND
  8
0
  0
ARC
  8
0
 62
4
 10
81.533966
 20
36.996605
 30
0.0
 40
9.0
 50
109.47122094265586
 51
70.52877905734415
  0
POLYLINE
  8
0
 62
4
 66
1
 10
0.0
 20
0.0
 30
0.0
 70
2
  0
VERTEX
  8
0
 10
84.533966
 20
45.481888
 30
0.0
 70
0
  0
VERTEX
  8
0
 10
84.533966
 20
48.796604
 30
0.0
 70
0
  0
VERTEX
  8
0
 10
78.533966
 20
48.796604
 30
0.0
 70
0
  0
VERTEX
  8
0
 10
78.533966
 20
45.481888
 30
0.0
 70
0
  0
SEQEND
  8
0
  0
LINE
  8
0
 62
4
 10
34.911686
 20
48.796604
 30
0.0
 11
49.911686
 21
48.796604
 31
0.0
  0
ENDSEC
  0
EOF
