  0
SECTION
  2
ENTITIES
  0
LINE
  8
0
 62
4
 10
46.535332
 20
66.001358
 30
0.0
 11
56.535332
 21
66.001358
 31
0.0
  0
LINE
  8
0
 62
4
 10
46.535332
 20
20.501358
 30
0.0
 11
56.535332
 21
20.501358
 31
0.0
  0
LINE
  8
0
 62
4
 10
56.535332
 20
49.751358
 30
0.0
 11
56.035332
 21
49.251358
 31
0.0
  0
LINE
  8
0
 62
4
 10
56.535332
 20
36.751358
 30
0.0
 11
56.035332
 21
37.251358
 31
0.0
  0
LINE
  8
0
 62
4
 10
46.535332
 20
36.751358
 30
0.0
 11
47.035332
 21
37.251358
 31
0.0
  0
POLYLINE
  8
0
 62
4
 66
1
 10
0.0
 20
0.0
 30
0.0
 70
2
  0
VERTEX
  8
0
 10
46.535332
 20
36.751358
 30
0.0
 70
0
  0
VERTEX
  8
0
 10
46.535332
 20
18.751358
 30
0.0
 70
0
  0
VERTEX
  8
0
 10
47.035332
 20
18.251358
 30
0.0
 70
0
  0
VERTEX
  8
0
 10
56.035332
 20
18.251358
 30
0.0
 70
0
  0
VERTEX
  8
0
 10
56.535332
 20
18.751358
 30
0.0
 70
0
  0
VERTEX
  8
0
 10
56.535332
 20
67.751358
 30
0.0
 70
0
  0
VERTEX
  8
0
 10
56.035332
 20
68.251358
 30
0.0
 70
0
  0
VERTEX
  8
0
 10
47.035332
 20
68.251358
 30
0.0
 70
0
  0
VERTEX
  8
0
 10
46.535332
 20
67.751358
 30
0.0
 70
0
  0
VERTEX
  8
0
 10
46.535332
 20
36.751358
 30
0.0
 70
0
  0
SEQEND
  8
0
  0
POLYLINE
  8
0
 62
4
 66
1
 10
0.0
 20
0.0
 30
0.0
 70
2
  0
VERTEX
  8
0
 10
46.535332
 20
49.751358
 30
0.0
 70
0
  0
VERTEX
  8
0
 10
47.035332
 20
49.251358
 30
0.0
 70
0
  0
VERTEX
  8
0
 10
47.035332
 20
37.251358
 30
0.0
 70
0
  0
VERTEX
  8
0
 10
56.035332
 20
37.251358
 30
0.0
 70
0
  0
VERTEX
  8
0
 10
56.035332
 20
49.251358
 30
0.0
 70
0
  0
VERTEX
  8
0
 10
47.035332
 20
49.251358
 30
0.0
 70
0
  0
SEQEND
  8
0
  0
ARC
  8
0
 62
4
 10
88.48642
 20
43.251358
 30
0.0
 40
6.0
 50
109.47122094265586
 51
70.52877905734415
  0
POLYLINE
  8
0
 62
4
 66
1
 10
0.0
 20
0.0
 30
0.0
 70
2
  0
VERTEX
  8
0
 10
90.48642
 20
48.908211
 30
0.0
 70
0
  0
VERTEX
  8
0
 10
90.48642
 20
51.051357
 30
0.0
 70
0
  0
VERTEX
  8
0
 10
86.48642
 20
51.051357
 30
0.0
 70
0
  0
VERTEX
  8
0
 10
86.48642
 20
48.908211
 30
0.0
 70
0
  0
SEQEND
  8
0
  0
LINE
  8
0
 62
4
 10
46.535332
 20
51.051357
 30
0.0
 11
56.535332
 21
51.051357
 31
0.0
  0
ENDSEC
  0
EOF
