  0
SECTION
  2
ENTITIES
  0
LINE
  8
0
 62
4
 10
76.764946
 20
114.010193
 30
0.0
 11
91.764946
 21
114.010193
 31
0.0
  0
LINE
  8
0
 62
4
 10
76.764946
 20
35.260193
 30
0.0
 11
91.764946
 21
35.260193
 31
0.0
  0
LINE
  8
0
 62
4
 10
91.764946
 20
93.135193
 30
0.0
 11
90.764946
 21
92.135193
 31
0.0
  0
LINE
  8
0
 62
4
 10
91.764946
 20
56.135193
 30
0.0
 11
90.764946
 21
57.135193
 31
0.0
  0
LINE
  8
0
 62
4
 10
76.764946
 20
56.135193
 30
0.0
 11
77.764946
 21
57.135193
 31
0.0
  0
POLYLINE
  8
0
 62
4
 66
1
 10
0.0
 20
0.0
 30
0.0
 70
2
  0
VERTEX
  8
0
 10
76.764946
 20
56.135193
 30
0.0
 70
0
  0
VERTEX
  8
0
 10
76.764946
 20
32.385193
 30
0.0
 70
0
  0
VERTEX
  8
0
 10
77.264946
 20
31.885193
 30
0.0
 70
0
  0
VERTEX
  8
0
 10
91.264946
 20
31.885193
 30
0.0
 70
0
  0
VERTEX
  8
0
 10
91.764946
 20
32.385193
 30
0.0
 70
0
  0
VERTEX
  8
0
 10
91.764946
 20
116.885193
 30
0.0
 70
0
  0
VERTEX
  8
0
 10
91.264946
 20
117.385193
 30
0.0
 70
0
  0
VERTEX
  8
0
 10
77.264946
 20
117.385193
 30
0.0
 70
0
  0
VERTEX
  8
0
 10
76.764946
 20
116.885193
 30
0.0
 70
0
  0
VERTEX
  8
0
 10
76.764946
 20
56.135193
 30
0.0
 70
0
  0
SEQEND
  8
0
  0
POLYLINE
  8
0
 62
4
 66
1
 10
0.0
 20
0.0
 30
0.0
 70
2
  0
VERTEX
  8
0
 10
76.764946
 20
93.135193
 30
0.0
 70
0
  0
VERTEX
  8
0
 10
77.764946
 20
92.135193
 30
0.0
 70
0
  0
VERTEX
  8
0
 10
77.764946
 20
57.135193
 30
0.0
 70
0
  0
VERTEX
  8
0
 10
90.764946
 20
57.135193
 30
0.0
 70
0
  0
VERTEX
  8
0
 10
90.764946
 20
92.135193
 30
0.0
 70
0
  0
VERTEX
  8
0
 10
77.764946
 20
92.135193
 30
0.0
 70
0
  0
SEQEND
  8
0
  0
ARC
  8
0
 62
4
 10
153.898102
 20
74.635193
 30
0.0
 40
17.5
 50
106.60154992625478
 51
73.39845007374521
  0
POLYLINE
  8
0
 62
4
 66
1
 10
0.0
 20
0.0
 30
0.0
 70
2
  0
VERTEX
  8
0
 10
158.898102
 20
91.405701
 30
0.0
 70
0
  0
VERTEX
  8
0
 10
158.898102
 20
95.435196
 30
0.0
 70
0
  0
VERTEX
  8
0
 10
148.898102
 20
95.435196
 30
0.0
 70
0
  0
VERTEX
  8
0
 10
148.898102
 20
91.405701
 30
0.0
 70
0
  0
SEQEND
  8
0
  0
LINE
  8
0
 62
4
 10
76.764946
 20
95.435196
 30
0.0
 11
91.764946
 21
95.435196
 31
0.0
  0
ENDSEC
  0
EOF
