  0
SECTION
  2
ENTITIES
  0
LINE
  8
0
 62
4
 10
106.013588
 20
140.327454
 30
0.0
 11
116.013588
 21
140.327454
 31
0.0
  0
LINE
  8
0
 62
4
 10
106.013588
 20
42.827454
 30
0.0
 11
116.013588
 21
42.827454
 31
0.0
  0
LINE
  8
0
 62
4
 10
116.013588
 20
99.577454
 30
0.0
 11
115.513588
 21
99.077454
 31
0.0
  0
LINE
  8
0
 62
4
 10
116.013588
 20
83.577454
 30
0.0
 11
115.513588
 21
84.077454
 31
0.0
  0
LINE
  8
0
 62
4
 10
106.013588
 20
83.577454
 30
0.0
 11
106.513588
 21
84.077454
 31
0.0
  0
POLYLINE
  8
0
 62
4
 66
1
 10
0.0
 20
0.0
 30
0.0
 70
2
  0
VERTEX
  8
0
 10
106.013588
 20
83.577454
 30
0.0
 70
0
  0
VERTEX
  8
0
 10
106.013588
 20
41.077454
 30
0.0
 70
0
  0
VERTEX
  8
0
 10
106.513588
 20
40.577454
 30
0.0
 70
0
  0
VERTEX
  8
0
 10
115.513588
 20
40.577454
 30
0.0
 70
0
  0
VERTEX
  8
0
 10
116.013588
 20
41.077454
 30
0.0
 70
0
  0
VERTEX
  8
0
 10
116.013588
 20
142.077454
 30
0.0
 70
0
  0
VERTEX
  8
0
 10
115.513588
 20
142.577454
 30
0.0
 70
0
  0
VERTEX
  8
0
 10
106.513588
 20
142.577454
 30
0.0
 70
0
  0
VERTEX
  8
0
 10
106.013588
 20
142.077454
 30
0.0
 70
0
  0
VERTEX
  8
0
 10
106.013588
 20
83.577454
 30
0.0
 70
0
  0
SEQEND
  8
0
  0
POLYLINE
  8
0
 62
4
 66
1
 10
0.0
 20
0.0
 30
0.0
 70
2
  0
VERTEX
  8
0
 10
106.013588
 20
99.577454
 30
0.0
 70
0
  0
VERTEX
  8
0
 10
106.513588
 20
99.077454
 30
0.0
 70
0
  0
VERTEX
  8
0
 10
106.513588
 20
84.077454
 30
0.0
 70
0
  0
VERTEX
  8
0
 10
115.513588
 20
84.077454
 30
0.0
 70
0
  0
VERTEX
  8
0
 10
115.513588
 20
99.077454
 30
0.0
 70
0
  0
VERTEX
  8
0
 10
106.513588
 20
99.077454
 30
0.0
 70
0
  0
SEQEND
  8
0
  0
ARC
  8
0
 62
4
 10
177.725555
 20
91.577454
 30
0.0
 40
7.5
 50
109.47122094265586
 51
70.52877905734415
  0
POLYLINE
  8
0
 62
4
 66
1
 10
0.0
 20
0.0
 30
0.0
 70
2
  0
VERTEX
  8
0
 10
180.225555
 20
98.648521
 30
0.0
 70
0
  0
VERTEX
  8
0
 10
180.225555
 20
101.377457
 30
0.0
 70
0
  0
VERTEX
  8
0
 10
175.225555
 20
101.377457
 30
0.0
 70
0
  0
VERTEX
  8
0
 10
175.225555
 20
98.648521
 30
0.0
 70
0
  0
SEQEND
  8
0
  0
LINE
  8
0
 62
4
 10
106.013588
 20
101.377457
 30
0.0
 11
116.013588
 21
101.377457
 31
0.0
  0
ENDSEC
  0
EOF
