  0
SECTION
  2
ENTITIES
  0
LINE
  8
0
 62
4
 10
130.77446
 20
168.914398
 30
0.0
 11
140.77446
 21
168.914398
 31
0.0
  0
LINE
  8
0
 62
4
 10
130.77446
 20
51.414398
 30
0.0
 11
140.77446
 21
51.414398
 31
0.0
  0
LINE
  8
0
 62
4
 10
140.77446
 20
115.664398
 30
0.0
 11
140.27446
 21
115.164398
 31
0.0
  0
LINE
  8
0
 62
4
 10
140.77446
 20
104.664398
 30
0.0
 11
140.27446
 21
105.164398
 31
0.0
  0
LINE
  8
0
 62
4
 10
130.77446
 20
104.664398
 30
0.0
 11
131.27446
 21
105.164398
 31
0.0
  0
POLYLINE
  8
0
 62
4
 66
1
 10
0.0
 20
0.0
 30
0.0
 70
2
  0
VERTEX
  8
0
 10
130.77446
 20
104.664398
 30
0.0
 70
0
  0
VERTEX
  8
0
 10
130.77446
 20
49.664398
 30
0.0
 70
0
  0
VERTEX
  8
0
 10
131.27446
 20
49.164398
 30
0.0
 70
0
  0
VERTEX
  8
0
 10
140.27446
 20
49.164398
 30
0.0
 70
0
  0
VERTEX
  8
0
 10
140.77446
 20
49.664398
 30
0.0
 70
0
  0
VERTEX
  8
0
 10
140.77446
 20
170.664398
 30
0.0
 70
0
  0
VERTEX
  8
0
 10
140.27446
 20
171.164398
 30
0.0
 70
0
  0
VERTEX
  8
0
 10
131.27446
 20
171.164398
 30
0.0
 70
0
  0
VERTEX
  8
0
 10
130.77446
 20
170.664398
 30
0.0
 70
0
  0
VERTEX
  8
0
 10
130.77446
 20
104.664398
 30
0.0
 70
0
  0
SEQEND
  8
0
  0
POLYLINE
  8
0
 62
4
 66
1
 10
0.0
 20
0.0
 30
0.0
 70
2
  0
VERTEX
  8
0
 10
130.77446
 20
115.664398
 30
0.0
 70
0
  0
VERTEX
  8
0
 10
131.27446
 20
115.164398
 30
0.0
 70
0
  0
VERTEX
  8
0
 10
131.27446
 20
105.164398
 30
0.0
 70
0
  0
VERTEX
  8
0
 10
140.27446
 20
105.164398
 30
0.0
 70
0
  0
VERTEX
  8
0
 10
140.27446
 20
115.164398
 30
0.0
 70
0
  0
VERTEX
  8
0
 10
131.27446
 20
115.164398
 30
0.0
 70
0
  0
SEQEND
  8
0
  0
ARC
  8
0
 62
4
 10
210.855988
 20
110.164398
 30
0.0
 40
5.0
 50
113.5781780057233
 51
66.4218219942767
  0
POLYLINE
  8
0
 62
4
 66
1
 10
0.0
 20
0.0
 30
0.0
 70
2
  0
VERTEX
  8
0
 10
212.855988
 20
114.746971
 30
0.0
 70
0
  0
VERTEX
  8
0
 10
212.855988
 20
116.964401
 30
0.0
 70
0
  0
VERTEX
  8
0
 10
208.855988
 20
116.964401
 30
0.0
 70
0
  0
VERTEX
  8
0
 10
208.855988
 20
114.746971
 30
0.0
 70
0
  0
SEQEND
  8
0
  0
LINE
  8
0
 62
4
 10
130.77446
 20
116.964401
 30
0.0
 11
140.77446
 21
116.964401
 31
0.0
  0
ENDSEC
  0
EOF
