  0
SECTION
  2
ENTITIES
  0
LINE
  8
0
 62
4
 10
161.270386
 20
210.49118
 30
0.0
 11
176.270386
 21
210.49118
 31
0.0
  0
LINE
  8
0
 62
4
 10
161.270386
 20
64.24118
 30
0.0
 11
176.270386
 21
64.24118
 31
0.0
  0
LINE
  8
0
 62
4
 10
176.270386
 20
145.86618
 30
0.0
 11
175.770386
 21
145.36618
 31
0.0
  0
LINE
  8
0
 62
4
 10
176.270386
 20
128.86618
 30
0.0
 11
175.770386
 21
129.36618
 31
0.0
  0
LINE
  8
0
 62
4
 10
161.270386
 20
128.86618
 30
0.0
 11
161.770386
 21
129.36618
 31
0.0
  0
POLYLINE
  8
0
 62
4
 66
1
 10
0.0
 20
0.0
 30
0.0
 70
2
  0
VERTEX
  8
0
 10
161.270386
 20
128.86618
 30
0.0
 70
0
  0
VERTEX
  8
0
 10
161.270386
 20
61.36618
 30
0.0
 70
0
  0
VERTEX
  8
0
 10
161.770386
 20
60.86618
 30
0.0
 70
0
  0
VERTEX
  8
0
 10
175.770386
 20
60.86618
 30
0.0
 70
0
  0
VERTEX
  8
0
 10
176.270386
 20
61.36618
 30
0.0
 70
0
  0
VERTEX
  8
0
 10
176.270386
 20
213.36618
 30
0.0
 70
0
  0
VERTEX
  8
0
 10
175.770386
 20
213.86618
 30
0.0
 70
0
  0
VERTEX
  8
0
 10
161.770386
 20
213.86618
 30
0.0
 70
0
  0
VERTEX
  8
0
 10
161.270386
 20
213.36618
 30
0.0
 70
0
  0
VERTEX
  8
0
 10
161.270386
 20
128.86618
 30
0.0
 70
0
  0
SEQEND
  8
0
  0
POLYLINE
  8
0
 62
4
 66
1
 10
0.0
 20
0.0
 30
0.0
 70
2
  0
VERTEX
  8
0
 10
161.270386
 20
145.86618
 30
0.0
 70
0
  0
VERTEX
  8
0
 10
161.770386
 20
145.36618
 30
0.0
 70
0
  0
VERTEX
  8
0
 10
161.770386
 20
129.36618
 30
0.0
 70
0
  0
VERTEX
  8
0
 10
175.770386
 20
129.36618
 30
0.0
 70
0
  0
VERTEX
  8
0
 10
175.770386
 20
145.36618
 30
0.0
 70
0
  0
VERTEX
  8
0
 10
161.770386
 20
145.36618
 30
0.0
 70
0
  0
SEQEND
  8
0
  0
ARC
  8
0
 62
4
 10
265.588318
 20
137.36618
 30
0.0
 40
8.0
 50
108.20995732853793
 51
71.79004267146207
  0
POLYLINE
  8
0
 62
4
 66
1
 10
0.0
 20
0.0
 30
0.0
 70
2
  0
VERTEX
  8
0
 10
268.088318
 20
144.965515
 30
0.0
 70
0
  0
VERTEX
  8
0
 10
268.088318
 20
147.666183
 30
0.0
 70
0
  0
VERTEX
  8
0
 10
263.088318
 20
147.666183
 30
0.0
 70
0
  0
VERTEX
  8
0
 10
263.088318
 20
144.965515
 30
0.0
 70
0
  0
SEQEND
  8
0
  0
LINE
  8
0
 62
4
 10
161.270386
 20
147.666183
 30
0.0
 11
176.270386
 21
147.666183
 31
0.0
  0
ENDSEC
  0
EOF
