  0
SECTION
  2
ENTITIES
  0
LINE
  8
0
 62
4
 10
77.252716
 20
111.740486
 30
0.0
 11
87.252716
 21
111.740486
 31
0.0
  0
LINE
  8
0
 62
4
 10
77.252716
 20
34.240486
 30
0.0
 11
87.252716
 21
34.240486
 31
0.0
  0
LINE
  8
0
 62
4
 10
87.252716
 20
89.990486
 30
0.0
 11
86.252716
 21
88.990486
 31
0.0
  0
LINE
  8
0
 62
4
 10
87.252716
 20
55.990486
 30
0.0
 11
86.252716
 21
56.990486
 31
0.0
  0
LINE
  8
0
 62
4
 10
77.252716
 20
55.990486
 30
0.0
 11
78.252716
 21
56.990486
 31
0.0
  0
POLYLINE
  8
0
 62
4
 66
1
 10
0.0
 20
0.0
 30
0.0
 70
2
  0
VERTEX
  8
0
 10
77.252716
 20
55.990486
 30
0.0
 70
0
  0
VERTEX
  8
0
 10
77.252716
 20
32.490486
 30
0.0
 70
0
  0
VERTEX
  8
0
 10
77.752716
 20
31.990486
 30
0.0
 70
0
  0
VERTEX
  8
0
 10
86.752716
 20
31.990486
 30
0.0
 70
0
  0
VERTEX
  8
0
 10
87.252716
 20
32.490486
 30
0.0
 70
0
  0
VERTEX
  8
0
 10
87.252716
 20
113.490486
 30
0.0
 70
0
  0
VERTEX
  8
0
 10
86.752716
 20
113.990486
 30
0.0
 70
0
  0
VERTEX
  8
0
 10
77.752716
 20
113.990486
 30
0.0
 70
0
  0
VERTEX
  8
0
 10
77.252716
 20
113.490486
 30
0.0
 70
0
  0
VERTEX
  8
0
 10
77.252716
 20
55.990486
 30
0.0
 70
0
  0
SEQEND
  8
0
  0
POLYLINE
  8
0
 62
4
 66
1
 10
0.0
 20
0.0
 30
0.0
 70
2
  0
VERTEX
  8
0
 10
77.252716
 20
89.990486
 30
0.0
 70
0
  0
VERTEX
  8
0
 10
78.252716
 20
88.990486
 30
0.0
 70
0
  0
VERTEX
  8
0
 10
78.252716
 20
56.990486
 30
0.0
 70
0
  0
VERTEX
  8
0
 10
86.252716
 20
56.990486
 30
0.0
 70
0
  0
VERTEX
  8
0
 10
86.252716
 20
88.990486
 30
0.0
 70
0
  0
VERTEX
  8
0
 10
78.252716
 20
88.990486
 30
0.0
 70
0
  0
SEQEND
  8
0
  0
ARC
  8
0
 62
4
 10
146.595108
 20
72.990486
 30
0.0
 40
16.0
 50
108.20995732853793
 51
71.79004267146207
  0
POLYLINE
  8
0
 62
4
 66
1
 10
0.0
 20
0.0
 30
0.0
 70
2
  0
VERTEX
  8
0
 10
151.595108
 20
88.189171
 30
0.0
 70
0
  0
VERTEX
  8
0
 10
151.595108
 20
92.290482
 30
0.0
 70
0
  0
VERTEX
  8
0
 10
141.595108
 20
92.290482
 30
0.0
 70
0
  0
VERTEX
  8
0
 10
141.595108
 20
88.189171
 30
0.0
 70
0
  0
SEQEND
  8
0
  0
LINE
  8
0
 62
4
 10
77.252716
 20
92.290482
 30
0.0
 11
87.252716
 21
92.290482
 31
0.0
  0
ENDSEC
  0
EOF
