  0
SECTION
  2
ENTITIES
  0
LINE
  8
0
 62
4
 10
87.237778
 20
124.730301
 30
0.0
 11
102.237778
 21
124.730301
 31
0.0
  0
LINE
  8
0
 62
4
 10
87.237778
 20
38.480301
 30
0.0
 11
102.237778
 21
38.480301
 31
0.0
  0
LINE
  8
0
 62
4
 10
102.237778
 20
97.605301
 30
0.0
 11
101.237778
 21
96.605301
 31
0.0
  0
LINE
  8
0
 62
4
 10
102.237778
 20
65.605301
 30
0.0
 11
101.237778
 21
66.605301
 31
0.0
  0
LINE
  8
0
 62
4
 10
87.237778
 20
65.605301
 30
0.0
 11
88.237778
 21
66.605301
 31
0.0
  0
POLYLINE
  8
0
 62
4
 66
1
 10
0.0
 20
0.0
 30
0.0
 70
2
  0
VERTEX
  8
0
 10
87.237778
 20
65.605301
 30
0.0
 70
0
  0
VERTEX
  8
0
 10
87.237778
 20
35.605301
 30
0.0
 70
0
  0
VERTEX
  8
0
 10
87.737778
 20
35.105301
 30
0.0
 70
0
  0
VERTEX
  8
0
 10
101.737778
 20
35.105301
 30
0.0
 70
0
  0
VERTEX
  8
0
 10
102.237778
 20
35.605301
 30
0.0
 70
0
  0
VERTEX
  8
0
 10
102.237778
 20
127.605301
 30
0.0
 70
0
  0
VERTEX
  8
0
 10
101.737778
 20
128.105301
 30
0.0
 70
0
  0
VERTEX
  8
0
 10
87.737778
 20
128.105301
 30
0.0
 70
0
  0
VERTEX
  8
0
 10
87.237778
 20
127.605301
 30
0.0
 70
0
  0
VERTEX
  8
0
 10
87.237778
 20
65.605301
 30
0.0
 70
0
  0
SEQEND
  8
0
  0
POLYLINE
  8
0
 62
4
 66
1
 10
0.0
 20
0.0
 30
0.0
 70
2
  0
VERTEX
  8
0
 10
87.237778
 20
97.605301
 30
0.0
 70
0
  0
VERTEX
  8
0
 10
88.237778
 20
96.605301
 30
0.0
 70
0
  0
VERTEX
  8
0
 10
88.237778
 20
66.605301
 30
0.0
 70
0
  0
VERTEX
  8
0
 10
101.237778
 20
66.605301
 30
0.0
 70
0
  0
VERTEX
  8
0
 10
101.237778
 20
96.605301
 30
0.0
 70
0
  0
VERTEX
  8
0
 10
88.237778
 20
96.605301
 30
0.0
 70
0
  0
SEQEND
  8
0
  0
ARC
  8
0
 62
4
 10
165.947021
 20
81.605301
 30
0.0
 40
15.0
 50
105.46601032289746
 51
74.53398967710255
  0
POLYLINE
  8
0
 62
4
 66
1
 10
0.0
 20
0.0
 30
0.0
 70
2
  0
VERTEX
  8
0
 10
169.947021
 20
96.062134
 30
0.0
 70
0
  0
VERTEX
  8
0
 10
169.947021
 20
99.905304
 30
0.0
 70
0
  0
VERTEX
  8
0
 10
161.947021
 20
99.905304
 30
0.0
 70
0
  0
VERTEX
  8
0
 10
161.947021
 20
96.062134
 30
0.0
 70
0
  0
SEQEND
  8
0
  0
LINE
  8
0
 62
4
 10
87.237778
 20
99.905304
 30
0.0
 11
102.237778
 21
99.905304
 31
0.0
  0
ENDSEC
  0
EOF
