  0
SECTION
  2
ENTITIES
  0
LINE
  8
0
 62
4
 10
37.411686
 20
56.121605
 30
0.0
 11
52.411686
 21
56.121605
 31
0.0
  0
LINE
  8
0
 62
4
 10
37.411686
 20
17.871605
 30
0.0
 11
52.411686
 21
17.871605
 31
0.0
  0
LINE
  8
0
 62
4
 10
52.411686
 20
42.496605
 30
0.0
 11
51.911686
 21
41.996605
 31
0.0
  0
LINE
  8
0
 62
4
 10
52.411686
 20
31.496605
 30
0.0
 11
51.911686
 21
31.996605
 31
0.0
  0
LINE
  8
0
 62
4
 10
37.411686
 20
31.496605
 30
0.0
 11
37.911686
 21
31.996605
 31
0.0
  0
POLYLINE
  8
0
 62
4
 66
1
 10
0.0
 20
0.0
 30
0.0
 70
2
  0
VERTEX
  8
0
 10
37.411686
 20
31.496605
 30
0.0
 70
0
  0
VERTEX
  8
0
 10
37.411686
 20
14.996605
 30
0.0
 70
0
  0
VERTEX
  8
0
 10
37.911686
 20
14.496605
 30
0.0
 70
0
  0
VERTEX
  8
0
 10
51.911686
 20
14.496605
 30
0.0
 70
0
  0
VERTEX
  8
0
 10
52.411686
 20
14.996605
 30
0.0
 70
0
  0
VERTEX
  8
0
 10
52.411686
 20
58.996605
 30
0.0
 70
0
  0
VERTEX
  8
0
 10
51.911686
 20
59.496605
 30
0.0
 70
0
  0
VERTEX
  8
0
 10
37.911686
 20
59.496605
 30
0.0
 70
0
  0
VERTEX
  8
0
 10
37.411686
 20
58.996605
 30
0.0
 70
0
  0
VERTEX
  8
0
 10
37.411686
 20
31.496605
 30
0.0
 70
0
  0
SEQEND
  8
0
  0
POLYLINE
  8
0
 62
4
 66
1
 10
0.0
 20
0.0
 30
0.0
 70
2
  0
VERTEX
  8
0
 10
37.411686
 20
42.496605
 30
0.0
 70
0
  0
VERTEX
  8
0
 10
37.911686
 20
41.996605
 30
0.0
 70
0
  0
VERTEX
  8
0
 10
37.911686
 20
31.996605
 30
0.0
 70
0
  0
VERTEX
  8
0
 10
51.911686
 20
31.996605
 30
0.0
 70
0
  0
VERTEX
  8
0
 10
51.911686
 20
41.996605
 30
0.0
 70
0
  0
VERTEX
  8
0
 10
37.911686
 20
41.996605
 30
0.0
 70
0
  0
SEQEND
  8
0
  0
ARC
  8
0
 62
4
 10
80.033966
 20
36.996605
 30
0.0
 40
5.0
 50
113.5781780057233
 51
66.4218219942767
  0
POLYLINE
  8
0
 62
4
 66
1
 10
0.0
 20
0.0
 30
0.0
 70
2
  0
VERTEX
  8
0
 10
82.033966
 20
41.579182
 30
0.0
 70
0
  0
VERTEX
  8
0
 10
82.033966
 20
43.796604
 30
0.0
 70
0
  0
VERTEX
  8
0
 10
78.033966
 20
43.796604
 30
0.0
 70
0
  0
VERTEX
  8
0
 10
78.033966
 20
41.579182
 30
0.0
 70
0
  0
SEQEND
  8
0
  0
LINE
  8
0
 62
4
 10
37.411686
 20
43.796604
 30
0.0
 11
52.411686
 21
43.796604
 31
0.0
  0
ENDSEC
  0
EOF
