  0
SECTION
  2
ENTITIES
  0
LINE
  8
0
 62
4
 10
29.176632
 20
43.131794
 30
0.0
 11
39.176632
 21
43.131794
 31
0.0
  0
LINE
  8
0
 62
4
 10
29.176632
 20
13.631794
 30
0.0
 11
39.176632
 21
13.631794
 31
0.0
  0
LINE
  8
0
 62
4
 10
39.176632
 20
32.881794
 30
0.0
 11
38.676632
 21
32.381794
 31
0.0
  0
LINE
  8
0
 62
4
 10
39.176632
 20
23.881794
 30
0.0
 11
38.676632
 21
24.381794
 31
0.0
  0
LINE
  8
0
 62
4
 10
29.176632
 20
23.881794
 30
0.0
 11
29.676632
 21
24.381794
 31
0.0
  0
POLYLINE
  8
0
 62
4
 66
1
 10
0.0
 20
0.0
 30
0.0
 70
2
  0
VERTEX
  8
0
 10
29.176632
 20
23.881794
 30
0.0
 70
0
  0
VERTEX
  8
0
 10
29.176632
 20
11.881794
 30
0.0
 70
0
  0
VERTEX
  8
0
 10
29.676632
 20
11.381794
 30
0.0
 70
0
  0
VERTEX
  8
0
 10
38.676632
 20
11.381794
 30
0.0
 70
0
  0
VERTEX
  8
0
 10
39.176632
 20
11.881794
 30
0.0
 70
0
  0
VERTEX
  8
0
 10
39.176632
 20
44.881794
 30
0.0
 70
0
  0
VERTEX
  8
0
 10
38.676632
 20
45.381794
 30
0.0
 70
0
  0
VERTEX
  8
0
 10
29.676632
 20
45.381794
 30
0.0
 70
0
  0
VERTEX
  8
0
 10
29.176632
 20
44.881794
 30
0.0
 70
0
  0
VERTEX
  8
0
 10
29.176632
 20
23.881794
 30
0.0
 70
0
  0
SEQEND
  8
0
  0
POLYLINE
  8
0
 62
4
 66
1
 10
0.0
 20
0.0
 30
0.0
 70
2
  0
VERTEX
  8
0
 10
29.176632
 20
32.881794
 30
0.0
 70
0
  0
VERTEX
  8
0
 10
29.676632
 20
32.381794
 30
0.0
 70
0
  0
VERTEX
  8
0
 10
29.676632
 20
24.381794
 30
0.0
 70
0
  0
VERTEX
  8
0
 10
38.676632
 20
24.381794
 30
0.0
 70
0
  0
VERTEX
  8
0
 10
38.676632
 20
32.381794
 30
0.0
 70
0
  0
VERTEX
  8
0
 10
29.676632
 20
32.381794
 30
0.0
 70
0
  0
SEQEND
  8
0
  0
ARC
  8
0
 62
4
 10
60.432068
 20
28.381794
 30
0.0
 40
4.0
 50
112.02431282373564
 51
67.97566028236332
  0
POLYLINE
  8
0
 62
4
 66
1
 10
0.0
 20
0.0
 30
0.0
 70
2
  0
VERTEX
  8
0
 10
61.932068
 20
32.089893
 30
0.0
 70
0
  0
VERTEX
  8
0
 10
61.932068
 20
33.781796
 30
0.0
 70
0
  0
VERTEX
  8
0
 10
58.932068
 20
33.781796
 30
0.0
 70
0
  0
VERTEX
  8
0
 10
58.932068
 20
32.089893
 30
0.0
 70
0
  0
SEQEND
  8
0
  0
LINE
  8
0
 62
4
 10
29.176632
 20
33.781796
 30
0.0
 11
39.176632
 21
33.781796
 31
0.0
  0
ENDSEC
  0
EOF
