  0
SECTION
  2
ENTITIES
  0
LINE
  8
0
 62
4
 10
56.346466
 20
81.849861
 30
0.0
 11
71.346466
 21
81.849861
 31
0.0
  0
LINE
  8
0
 62
4
 10
56.346466
 20
25.599861
 30
0.0
 11
71.346466
 21
25.599861
 31
0.0
  0
LINE
  8
0
 62
4
 10
71.346466
 20
62.724861
 30
0.0
 11
70.846466
 21
62.224861
 31
0.0
  0
LINE
  8
0
 62
4
 10
71.346466
 20
44.724861
 30
0.0
 11
70.846466
 21
45.224861
 31
0.0
  0
LINE
  8
0
 62
4
 10
56.346466
 20
44.724861
 30
0.0
 11
56.846466
 21
45.224861
 31
0.0
  0
POLYLINE
  8
0
 62
4
 66
1
 10
0.0
 20
0.0
 30
0.0
 70
2
  0
VERTEX
  8
0
 10
56.346466
 20
44.724861
 30
0.0
 70
0
  0
VERTEX
  8
0
 10
56.346466
 20
22.724861
 30
0.0
 70
0
  0
VERTEX
  8
0
 10
56.846466
 20
22.224861
 30
0.0
 70
0
  0
VERTEX
  8
0
 10
70.846466
 20
22.224861
 30
0.0
 70
0
  0
VERTEX
  8
0
 10
71.346466
 20
22.724861
 30
0.0
 70
0
  0
VERTEX
  8
0
 10
71.346466
 20
84.724861
 30
0.0
 70
0
  0
VERTEX
  8
0
 10
70.846466
 20
85.224861
 30
0.0
 70
0
  0
VERTEX
  8
0
 10
56.846466
 20
85.224861
 30
0.0
 70
0
  0
VERTEX
  8
0
 10
56.346466
 20
84.724861
 30
0.0
 70
0
  0
VERTEX
  8
0
 10
56.346466
 20
44.724861
 30
0.0
 70
0
  0
SEQEND
  8
0
  0
POLYLINE
  8
0
 62
4
 66
1
 10
0.0
 20
0.0
 30
0.0
 70
2
  0
VERTEX
  8
0
 10
56.346466
 20
62.724861
 30
0.0
 70
0
  0
VERTEX
  8
0
 10
56.846466
 20
62.224861
 30
0.0
 70
0
  0
VERTEX
  8
0
 10
56.846466
 20
45.224861
 30
0.0
 70
0
  0
VERTEX
  8
0
 10
70.846466
 20
45.224861
 30
0.0
 70
0
  0
VERTEX
  8
0
 10
70.846466
 20
62.224861
 30
0.0
 70
0
  0
VERTEX
  8
0
 10
56.846466
 20
62.224861
 30
0.0
 70
0
  0
SEQEND
  8
0
  0
ARC
  8
0
 62
4
 10
112.251358
 20
53.724861
 30
0.0
 40
8.5
 50
107.10463483476482
 51
72.89536516523518
  0
POLYLINE
  8
0
 62
4
 66
1
 10
0.0
 20
0.0
 30
0.0
 70
2
  0
VERTEX
  8
0
 10
114.751358
 20
61.8489
 30
0.0
 70
0
  0
VERTEX
  8
0
 10
114.751358
 20
64.524864
 30
0.0
 70
0
  0
VERTEX
  8
0
 10
109.751358
 20
64.524864
 30
0.0
 70
0
  0
VERTEX
  8
0
 10
109.751358
 20
61.8489
 30
0.0
 70
0
  0
SEQEND
  8
0
  0
LINE
  8
0
 62
4
 10
56.346466
 20
64.524864
 30
0.0
 11
71.346466
 21
64.524864
 31
0.0
  0
ENDSEC
  0
EOF
