  0
SECTION
  2
ENTITIES
  0
LINE
  8
0
 62
4
 10
68.042122
 20
103.290085
 30
0.0
 11
83.042122
 21
103.290085
 31
0.0
  0
LINE
  8
0
 62
4
 10
68.042122
 20
32.040085
 30
0.0
 11
83.042122
 21
32.040085
 31
0.0
  0
LINE
  8
0
 62
4
 10
83.042122
 20
86.165085
 30
0.0
 11
82.042122
 21
85.165085
 31
0.0
  0
LINE
  8
0
 62
4
 10
83.042122
 20
49.165085
 30
0.0
 11
82.042122
 21
50.165085
 31
0.0
  0
LINE
  8
0
 62
4
 10
68.042122
 20
49.165085
 30
0.0
 11
69.042122
 21
50.165085
 31
0.0
  0
POLYLINE
  8
0
 62
4
 66
1
 10
0.0
 20
0.0
 30
0.0
 70
2
  0
VERTEX
  8
0
 10
68.042122
 20
49.165085
 30
0.0
 70
0
  0
VERTEX
  8
0
 10
68.042122
 20
29.165085
 30
0.0
 70
0
  0
VERTEX
  8
0
 10
68.542122
 20
28.665085
 30
0.0
 70
0
  0
VERTEX
  8
0
 10
82.542122
 20
28.665085
 30
0.0
 70
0
  0
VERTEX
  8
0
 10
83.042122
 20
29.165085
 30
0.0
 70
0
  0
VERTEX
  8
0
 10
83.042122
 20
106.165085
 30
0.0
 70
0
  0
VERTEX
  8
0
 10
82.542122
 20
106.665085
 30
0.0
 70
0
  0
VERTEX
  8
0
 10
68.542122
 20
106.665085
 30
0.0
 70
0
  0
VERTEX
  8
0
 10
68.042122
 20
106.165085
 30
0.0
 70
0
  0
VERTEX
  8
0
 10
68.042122
 20
49.165085
 30
0.0
 70
0
  0
SEQEND
  8
0
  0
POLYLINE
  8
0
 62
4
 66
1
 10
0.0
 20
0.0
 30
0.0
 70
2
  0
VERTEX
  8
0
 10
68.042122
 20
86.165085
 30
0.0
 70
0
  0
VERTEX
  8
0
 10
69.042122
 20
85.165085
 30
0.0
 70
0
  0
VERTEX
  8
0
 10
69.042122
 20
50.165085
 30
0.0
 70
0
  0
VERTEX
  8
0
 10
82.042122
 20
50.165085
 30
0.0
 70
0
  0
VERTEX
  8
0
 10
82.042122
 20
85.165085
 30
0.0
 70
0
  0
VERTEX
  8
0
 10
69.042122
 20
85.165085
 30
0.0
 70
0
  0
SEQEND
  8
0
  0
ARC
  8
0
 62
4
 10
141.099182
 20
67.665085
 30
0.0
 40
17.5
 50
106.60154992625478
 51
73.39845007374521
  0
POLYLINE
  8
0
 62
4
 66
1
 10
0.0
 20
0.0
 30
0.0
 70
2
  0
VERTEX
  8
0
 10
146.099182
 20
84.435593
 30
0.0
 70
0
  0
VERTEX
  8
0
 10
146.099182
 20
88.465088
 30
0.0
 70
0
  0
VERTEX
  8
0
 10
136.099182
 20
88.465088
 30
0.0
 70
0
  0
VERTEX
  8
0
 10
136.099182
 20
84.435593
 30
0.0
 70
0
  0
SEQEND
  8
0
  0
LINE
  8
0
 62
4
 10
68.042122
 20
88.465088
 30
0.0
 11
83.042122
 21
88.465088
 31
0.0
  0
ENDSEC
  0
EOF
