  0
SECTION
  2
ENTITIES
  0
LINE
  8
0
 62
4
 10
105.933426
 20
146.170517
 30
0.0
 11
120.933426
 21
146.170517
 31
0.0
  0
LINE
  8
0
 62
4
 10
105.933426
 20
44.920517
 30
0.0
 11
120.933426
 21
44.920517
 31
0.0
  0
LINE
  8
0
 62
4
 10
120.933426
 20
109.045517
 30
0.0
 11
119.933426
 21
108.045517
 31
0.0
  0
LINE
  8
0
 62
4
 10
120.933426
 20
82.045517
 30
0.0
 11
119.933426
 21
83.045517
 31
0.0
  0
LINE
  8
0
 62
4
 10
105.933426
 20
82.045517
 30
0.0
 11
106.933426
 21
83.045517
 31
0.0
  0
POLYLINE
  8
0
 62
4
 66
1
 10
0.0
 20
0.0
 30
0.0
 70
2
  0
VERTEX
  8
0
 10
105.933426
 20
82.045517
 30
0.0
 70
0
  0
VERTEX
  8
0
 10
105.933426
 20
42.045517
 30
0.0
 70
0
  0
VERTEX
  8
0
 10
106.433426
 20
41.545517
 30
0.0
 70
0
  0
VERTEX
  8
0
 10
120.433426
 20
41.545517
 30
0.0
 70
0
  0
VERTEX
  8
0
 10
120.933426
 20
42.045517
 30
0.0
 70
0
  0
VERTEX
  8
0
 10
120.933426
 20
149.045517
 30
0.0
 70
0
  0
VERTEX
  8
0
 10
120.433426
 20
149.545517
 30
0.0
 70
0
  0
VERTEX
  8
0
 10
106.433426
 20
149.545517
 30
0.0
 70
0
  0
VERTEX
  8
0
 10
105.933426
 20
149.045517
 30
0.0
 70
0
  0
VERTEX
  8
0
 10
105.933426
 20
82.045517
 30
0.0
 70
0
  0
SEQEND
  8
0
  0
POLYLINE
  8
0
 62
4
 66
1
 10
0.0
 20
0.0
 30
0.0
 70
2
  0
VERTEX
  8
0
 10
105.933426
 20
109.045517
 30
0.0
 70
0
  0
VERTEX
  8
0
 10
106.933426
 20
108.045517
 30
0.0
 70
0
  0
VERTEX
  8
0
 10
106.933426
 20
83.045517
 30
0.0
 70
0
  0
VERTEX
  8
0
 10
119.933426
 20
83.045517
 30
0.0
 70
0
  0
VERTEX
  8
0
 10
119.933426
 20
108.045517
 30
0.0
 70
0
  0
VERTEX
  8
0
 10
106.933426
 20
108.045517
 30
0.0
 70
0
  0
SEQEND
  8
0
  0
ARC
  8
0
 62
4
 10
190.29483
 20
95.545517
 30
0.0
 40
12.5
 50
108.66292518454978
 51
71.33707481545021
  0
POLYLINE
  8
0
 62
4
 66
1
 10
0.0
 20
0.0
 30
0.0
 70
2
  0
VERTEX
  8
0
 10
194.29483
 20
107.388237
 30
0.0
 70
0
  0
VERTEX
  8
0
 10
194.29483
 20
111.34552
 30
0.0
 70
0
  0
VERTEX
  8
0
 10
186.29483
 20
111.34552
 30
0.0
 70
0
  0
VERTEX
  8
0
 10
186.29483
 20
107.388237
 30
0.0
 70
0
  0
SEQEND
  8
0
  0
LINE
  8
0
 62
4
 10
105.933426
 20
111.34552
 30
0.0
 11
120.933426
 21
111.34552
 31
0.0
  0
ENDSEC
  0
EOF
