  0
SECTION
  2
ENTITIES
  0
LINE
  8
0
 62
4
 10
46.361412
 20
68.860054
 30
0.0
 11
56.361412
 21
68.860054
 31
0.0
  0
LINE
  8
0
 62
4
 10
46.361412
 20
21.360054
 30
0.0
 11
56.361412
 21
21.360054
 31
0.0
  0
LINE
  8
0
 62
4
 10
56.361412
 20
56.110054
 30
0.0
 11
55.361412
 21
55.110054
 31
0.0
  0
LINE
  8
0
 62
4
 10
56.361412
 20
34.110054
 30
0.0
 11
55.361412
 21
35.110054
 31
0.0
  0
LINE
  8
0
 62
4
 10
46.361412
 20
34.110054
 30
0.0
 11
47.361412
 21
35.110054
 31
0.0
  0
POLYLINE
  8
0
 62
4
 66
1
 10
0.0
 20
0.0
 30
0.0
 70
2
  0
VERTEX
  8
0
 10
46.361412
 20
34.110054
 30
0.0
 70
0
  0
VERTEX
  8
0
 10
46.361412
 20
19.610054
 30
0.0
 70
0
  0
VERTEX
  8
0
 10
46.861412
 20
19.110054
 30
0.0
 70
0
  0
VERTEX
  8
0
 10
55.861412
 20
19.110054
 30
0.0
 70
0
  0
VERTEX
  8
0
 10
56.361412
 20
19.610054
 30
0.0
 70
0
  0
VERTEX
  8
0
 10
56.361412
 20
70.610054
 30
0.0
 70
0
  0
VERTEX
  8
0
 10
55.861412
 20
71.110054
 30
0.0
 70
0
  0
VERTEX
  8
0
 10
46.861412
 20
71.110054
 30
0.0
 70
0
  0
VERTEX
  8
0
 10
46.361412
 20
70.610054
 30
0.0
 70
0
  0
VERTEX
  8
0
 10
46.361412
 20
34.110054
 30
0.0
 70
0
  0
SEQEND
  8
0
  0
POLYLINE
  8
0
 62
4
 66
1
 10
0.0
 20
0.0
 30
0.0
 70
2
  0
VERTEX
  8
0
 10
46.361412
 20
56.110054
 30
0.0
 70
0
  0
VERTEX
  8
0
 10
47.361412
 20
55.110054
 30
0.0
 70
0
  0
VERTEX
  8
0
 10
47.361412
 20
35.110054
 30
0.0
 70
0
  0
VERTEX
  8
0
 10
55.361412
 20
35.110054
 30
0.0
 70
0
  0
VERTEX
  8
0
 10
55.361412
 20
55.110054
 30
0.0
 70
0
  0
VERTEX
  8
0
 10
47.361412
 20
55.110054
 30
0.0
 70
0
  0
SEQEND
  8
0
  0
ARC
  8
0
 62
4
 10
93.39946
 20
45.110054
 30
0.0
 40
10.0
 50
107.45760274776076
 51
72.54239725223924
  0
POLYLINE
  8
0
 62
4
 66
1
 10
0.0
 20
0.0
 30
0.0
 70
2
  0
VERTEX
  8
0
 10
96.39946
 20
54.649445
 30
0.0
 70
0
  0
VERTEX
  8
0
 10
96.39946
 20
57.910053
 30
0.0
 70
0
  0
VERTEX
  8
0
 10
90.39946
 20
57.910053
 30
0.0
 70
0
  0
VERTEX
  8
0
 10
90.39946
 20
54.649445
 30
0.0
 70
0
  0
SEQEND
  8
0
  0
LINE
  8
0
 62
4
 10
46.361412
 20
57.910053
 30
0.0
 11
56.361412
 21
57.910053
 31
0.0
  0
ENDSEC
  0
EOF
