  0
SECTION
  2
ENTITIES
  0
LINE
  8
0
 62
4
 10
53.589668
 20
77.436142
 30
0.0
 11
63.589668
 21
77.436142
 31
0.0
  0
LINE
  8
0
 62
4
 10
53.589668
 20
23.936142
 30
0.0
 11
63.589668
 21
23.936142
 31
0.0
  0
LINE
  8
0
 62
4
 10
63.589668
 20
60.686142
 30
0.0
 11
63.089668
 21
60.186142
 31
0.0
  0
LINE
  8
0
 62
4
 10
63.589668
 20
40.686142
 30
0.0
 11
63.089668
 21
41.186142
 31
0.0
  0
LINE
  8
0
 62
4
 10
53.589668
 20
40.686142
 30
0.0
 11
54.089668
 21
41.186142
 31
0.0
  0
POLYLINE
  8
0
 62
4
 66
1
 10
0.0
 20
0.0
 30
0.0
 70
2
  0
VERTEX
  8
0
 10
53.589668
 20
40.686142
 30
0.0
 70
0
  0
VERTEX
  8
0
 10
53.589668
 20
22.186142
 30
0.0
 70
0
  0
VERTEX
  8
0
 10
54.089668
 20
21.686142
 30
0.0
 70
0
  0
VERTEX
  8
0
 10
63.089668
 20
21.686142
 30
0.0
 70
0
  0
VERTEX
  8
0
 10
63.589668
 20
22.186142
 30
0.0
 70
0
  0
VERTEX
  8
0
 10
63.589668
 20
79.186142
 30
0.0
 70
0
  0
VERTEX
  8
0
 10
63.089668
 20
79.686142
 30
0.0
 70
0
  0
VERTEX
  8
0
 10
54.089668
 20
79.686142
 30
0.0
 70
0
  0
VERTEX
  8
0
 10
53.589668
 20
79.186142
 30
0.0
 70
0
  0
VERTEX
  8
0
 10
53.589668
 20
40.686142
 30
0.0
 70
0
  0
SEQEND
  8
0
  0
POLYLINE
  8
0
 62
4
 66
1
 10
0.0
 20
0.0
 30
0.0
 70
2
  0
VERTEX
  8
0
 10
53.589668
 20
60.686142
 30
0.0
 70
0
  0
VERTEX
  8
0
 10
54.089668
 20
60.186142
 30
0.0
 70
0
  0
VERTEX
  8
0
 10
54.089668
 20
41.186142
 30
0.0
 70
0
  0
VERTEX
  8
0
 10
63.089668
 20
41.186142
 30
0.0
 70
0
  0
VERTEX
  8
0
 10
63.089668
 20
60.186142
 30
0.0
 70
0
  0
VERTEX
  8
0
 10
54.089668
 20
60.186142
 30
0.0
 70
0
  0
SEQEND
  8
0
  0
ARC
  8
0
 62
4
 10
103.38858
 20
50.686142
 30
0.0
 40
9.5
 50
108.4084803259778
 51
71.5915196740222
  0
POLYLINE
  8
0
 62
4
 66
1
 10
0.0
 20
0.0
 30
0.0
 70
2
  0
VERTEX
  8
0
 10
106.38858
 20
59.70002
 30
0.0
 70
0
  0
VERTEX
  8
0
 10
106.38858
 20
62.986141
 30
0.0
 70
0
  0
VERTEX
  8
0
 10
100.38858
 20
62.986141
 30
0.0
 70
0
  0
VERTEX
  8
0
 10
100.38858
 20
59.70002
 30
0.0
 70
0
  0
SEQEND
  8
0
  0
LINE
  8
0
 62
4
 10
53.589668
 20
62.986141
 30
0.0
 11
63.589668
 21
62.986141
 31
0.0
  0
ENDSEC
  0
EOF
