  0
SECTION
  2
ENTITIES
  0
LINE
  8
0
 62
4
 10
48.868206
 20
73.273773
 30
0.0
 11
63.868206
 21
73.273773
 31
0.0
  0
LINE
  8
0
 62
4
 10
48.868206
 20
23.023773
 30
0.0
 11
63.868206
 21
23.023773
 31
0.0
  0
LINE
  8
0
 62
4
 10
63.868206
 20
57.648773
 30
0.0
 11
63.368206
 21
57.148773
 31
0.0
  0
LINE
  8
0
 62
4
 10
63.868206
 20
38.648773
 30
0.0
 11
63.368206
 21
39.148773
 31
0.0
  0
LINE
  8
0
 62
4
 10
48.868206
 20
38.648773
 30
0.0
 11
49.368206
 21
39.148773
 31
0.0
  0
POLYLINE
  8
0
 62
4
 66
1
 10
0.0
 20
0.0
 30
0.0
 70
2
  0
VERTEX
  8
0
 10
48.868206
 20
38.648773
 30
0.0
 70
0
  0
VERTEX
  8
0
 10
48.868206
 20
20.148773
 30
0.0
 70
0
  0
VERTEX
  8
0
 10
49.368206
 20
19.648773
 30
0.0
 70
0
  0
VERTEX
  8
0
 10
63.368206
 20
19.648773
 30
0.0
 70
0
  0
VERTEX
  8
0
 10
63.868206
 20
20.148773
 30
0.0
 70
0
  0
VERTEX
  8
0
 10
63.868206
 20
76.148773
 30
0.0
 70
0
  0
VERTEX
  8
0
 10
63.368206
 20
76.648773
 30
0.0
 70
0
  0
VERTEX
  8
0
 10
49.368206
 20
76.648773
 30
0.0
 70
0
  0
VERTEX
  8
0
 10
48.868206
 20
76.148773
 30
0.0
 70
0
  0
VERTEX
  8
0
 10
48.868206
 20
38.648773
 30
0.0
 70
0
  0
SEQEND
  8
0
  0
POLYLINE
  8
0
 62
4
 66
1
 10
0.0
 20
0.0
 30
0.0
 70
2
  0
VERTEX
  8
0
 10
48.868206
 20
57.648773
 30
0.0
 70
0
  0
VERTEX
  8
0
 10
49.368206
 20
57.148773
 30
0.0
 70
0
  0
VERTEX
  8
0
 10
49.368206
 20
39.148773
 30
0.0
 70
0
  0
VERTEX
  8
0
 10
63.368206
 20
39.148773
 30
0.0
 70
0
  0
VERTEX
  8
0
 10
63.368206
 20
57.148773
 30
0.0
 70
0
  0
VERTEX
  8
0
 10
49.368206
 20
57.148773
 30
0.0
 70
0
  0
SEQEND
  8
0
  0
ARC
  8
0
 62
4
 10
102.012222
 20
48.148773
 30
0.0
 40
9.0
 50
109.47122094265586
 51
70.52877905734415
  0
POLYLINE
  8
0
 62
4
 66
1
 10
0.0
 20
0.0
 30
0.0
 70
2
  0
VERTEX
  8
0
 10
105.012222
 20
56.634056
 30
0.0
 70
0
  0
VERTEX
  8
0
 10
105.012222
 20
59.948772
 30
0.0
 70
0
  0
VERTEX
  8
0
 10
99.012222
 20
59.948772
 30
0.0
 70
0
  0
VERTEX
  8
0
 10
99.012222
 20
56.634056
 30
0.0
 70
0
  0
SEQEND
  8
0
  0
LINE
  8
0
 62
4
 10
48.868206
 20
59.948772
 30
0.0
 11
63.868206
 21
59.948772
 31
0.0
  0
ENDSEC
  0
EOF
