  0
SECTION
  2
ENTITIES
  0
LINE
  8
0
 62
4
 10
59.241848
 20
83.153534
 30
0.0
 11
69.241852
 21
83.153534
 31
0.0
  0
LINE
  8
0
 62
4
 10
59.241848
 20
25.65353
 30
0.0
 11
69.241852
 21
25.65353
 31
0.0
  0
LINE
  8
0
 62
4
 10
69.241852
 20
62.90353
 30
0.0
 11
68.741852
 21
62.40353
 31
0.0
  0
LINE
  8
0
 62
4
 10
69.241852
 20
45.90353
 30
0.0
 11
68.741852
 21
46.40353
 31
0.0
  0
LINE
  8
0
 62
4
 10
59.241848
 20
45.90353
 30
0.0
 11
59.741848
 21
46.40353
 31
0.0
  0
POLYLINE
  8
0
 62
4
 66
1
 10
0.0
 20
0.0
 30
0.0
 70
2
  0
VERTEX
  8
0
 10
59.241848
 20
45.90353
 30
0.0
 70
0
  0
VERTEX
  8
0
 10
59.241848
 20
23.90353
 30
0.0
 70
0
  0
VERTEX
  8
0
 10
59.741848
 20
23.40353
 30
0.0
 70
0
  0
VERTEX
  8
0
 10
68.741852
 20
23.40353
 30
0.0
 70
0
  0
VERTEX
  8
0
 10
69.241852
 20
23.90353
 30
0.0
 70
0
  0
VERTEX
  8
0
 10
69.241852
 20
84.903534
 30
0.0
 70
0
  0
VERTEX
  8
0
 10
68.741852
 20
85.403534
 30
0.0
 70
0
  0
VERTEX
  8
0
 10
59.741848
 20
85.403534
 30
0.0
 70
0
  0
VERTEX
  8
0
 10
59.241848
 20
84.903534
 30
0.0
 70
0
  0
VERTEX
  8
0
 10
59.241848
 20
45.90353
 30
0.0
 70
0
  0
SEQEND
  8
0
  0
POLYLINE
  8
0
 62
4
 66
1
 10
0.0
 20
0.0
 30
0.0
 70
2
  0
VERTEX
  8
0
 10
59.241848
 20
62.90353
 30
0.0
 70
0
  0
VERTEX
  8
0
 10
59.741848
 20
62.40353
 30
0.0
 70
0
  0
VERTEX
  8
0
 10
59.741848
 20
46.40353
 30
0.0
 70
0
  0
VERTEX
  8
0
 10
68.741852
 20
46.40353
 30
0.0
 70
0
  0
VERTEX
  8
0
 10
68.741852
 20
62.40353
 30
0.0
 70
0
  0
VERTEX
  8
0
 10
59.741848
 20
62.40353
 30
0.0
 70
0
  0
SEQEND
  8
0
  0
ARC
  8
0
 62
4
 10
109.714676
 20
54.40353
 30
0.0
 40
8.0
 50
108.20995732853793
 51
71.79004267146207
  0
POLYLINE
  8
0
 62
4
 66
1
 10
0.0
 20
0.0
 30
0.0
 70
2
  0
VERTEX
  8
0
 10
112.214676
 20
62.002872
 30
0.0
 70
0
  0
VERTEX
  8
0
 10
112.214676
 20
64.703529
 30
0.0
 70
0
  0
VERTEX
  8
0
 10
107.214676
 20
64.703529
 30
0.0
 70
0
  0
VERTEX
  8
0
 10
107.214676
 20
62.002872
 30
0.0
 70
0
  0
SEQEND
  8
0
  0
LINE
  8
0
 62
4
 10
59.241848
 20
64.703529
 30
0.0
 11
69.241852
 21
64.703529
 31
0.0
  0
ENDSEC
  0
EOF
