  0
SECTION
  2
ENTITIES
  0
LINE
  8
0
 62
4
 10
72.622284
 20
97.447014
 30
0.0
 11
82.622284
 21
97.447014
 31
0.0
  0
LINE
  8
0
 62
4
 10
72.622284
 20
29.947014
 30
0.0
 11
82.622284
 21
29.947014
 31
0.0
  0
LINE
  8
0
 62
4
 10
82.622284
 20
69.197014
 30
0.0
 11
82.122284
 21
68.697014
 31
0.0
  0
LINE
  8
0
 62
4
 10
82.622284
 20
58.197014
 30
0.0
 11
82.122284
 21
58.697014
 31
0.0
  0
LINE
  8
0
 62
4
 10
72.622284
 20
58.197014
 30
0.0
 11
73.122284
 21
58.697014
 31
0.0
  0
POLYLINE
  8
0
 62
4
 66
1
 10
0.0
 20
0.0
 30
0.0
 70
2
  0
VERTEX
  8
0
 10
72.622284
 20
58.197014
 30
0.0
 70
0
  0
VERTEX
  8
0
 10
72.622284
 20
28.197014
 30
0.0
 70
0
  0
VERTEX
  8
0
 10
73.122284
 20
27.697014
 30
0.0
 70
0
  0
VERTEX
  8
0
 10
82.122284
 20
27.697014
 30
0.0
 70
0
  0
VERTEX
  8
0
 10
82.622284
 20
28.197014
 30
0.0
 70
0
  0
VERTEX
  8
0
 10
82.622284
 20
99.197014
 30
0.0
 70
0
  0
VERTEX
  8
0
 10
82.122284
 20
99.697014
 30
0.0
 70
0
  0
VERTEX
  8
0
 10
73.122284
 20
99.697014
 30
0.0
 70
0
  0
VERTEX
  8
0
 10
72.622284
 20
99.197014
 30
0.0
 70
0
  0
VERTEX
  8
0
 10
72.622284
 20
58.197014
 30
0.0
 70
0
  0
SEQEND
  8
0
  0
POLYLINE
  8
0
 62
4
 66
1
 10
0.0
 20
0.0
 30
0.0
 70
2
  0
VERTEX
  8
0
 10
72.622284
 20
69.197014
 30
0.0
 70
0
  0
VERTEX
  8
0
 10
73.122284
 20
68.697014
 30
0.0
 70
0
  0
VERTEX
  8
0
 10
73.122284
 20
58.697014
 30
0.0
 70
0
  0
VERTEX
  8
0
 10
82.122284
 20
58.697014
 30
0.0
 70
0
  0
VERTEX
  8
0
 10
82.122284
 20
68.697014
 30
0.0
 70
0
  0
VERTEX
  8
0
 10
73.122284
 20
68.697014
 30
0.0
 70
0
  0
SEQEND
  8
0
  0
ARC
  8
0
 62
4
 10
125.529892
 20
63.697014
 30
0.0
 40
5.0
 50
113.5781780057233
 51
66.4218219942767
  0
POLYLINE
  8
0
 62
4
 66
1
 10
0.0
 20
0.0
 30
0.0
 70
2
  0
VERTEX
  8
0
 10
127.529892
 20
68.279587
 30
0.0
 70
0
  0
VERTEX
  8
0
 10
127.529892
 20
70.497017
 30
0.0
 70
0
  0
VERTEX
  8
0
 10
123.529892
 20
70.497017
 30
0.0
 70
0
  0
VERTEX
  8
0
 10
123.529892
 20
68.279587
 30
0.0
 70
0
  0
SEQEND
  8
0
  0
LINE
  8
0
 62
4
 10
72.622284
 20
70.497017
 30
0.0
 11
82.622284
 21
70.497017
 31
0.0
  0
ENDSEC
  0
EOF
