  0
SECTION
  2
ENTITIES
  0
LINE
  8
0
 62
4
 10
34.360054
 20
57.802315
 30
0.0
 11
59.360054
 21
57.802315
 31
0.0
  0
LINE
  8
0
 62
4
 10
34.360054
 20
19.052315
 30
0.0
 11
59.360054
 21
19.052315
 31
0.0
  0
LINE
  8
0
 62
4
 10
59.360054
 20
45.927315
 30
0.0
 11
58.860054
 21
45.427315
 31
0.0
  0
LINE
  8
0
 62
4
 10
59.360054
 20
30.927315
 30
0.0
 11
58.860054
 21
31.427315
 31
0.0
  0
LINE
  8
0
 62
4
 10
34.360054
 20
30.927315
 30
0.0
 11
34.860054
 21
31.427315
 31
0.0
  0
POLYLINE
  8
0
 62
4
 66
1
 10
0.0
 20
0.0
 30
0.0
 70
2
  0
VERTEX
  8
0
 10
34.360054
 20
30.927315
 30
0.0
 70
0
  0
VERTEX
  8
0
 10
34.360054
 20
14.427315
 30
0.0
 70
0
  0
VERTEX
  8
0
 10
35.360054
 20
13.427315
 30
0.0
 70
0
  0
VERTEX
  8
0
 10
58.360054
 20
13.427315
 30
0.0
 70
0
  0
VERTEX
  8
0
 10
59.360054
 20
14.427315
 30
0.0
 70
0
  0
VERTEX
  8
0
 10
59.360054
 20
62.427315
 30
0.0
 70
0
  0
VERTEX
  8
0
 10
58.360054
 20
63.427315
 30
0.0
 70
0
  0
VERTEX
  8
0
 10
35.360054
 20
63.427315
 30
0.0
 70
0
  0
VERTEX
  8
0
 10
34.360054
 20
62.427315
 30
0.0
 70
0
  0
VERTEX
  8
0
 10
34.360054
 20
30.927315
 30
0.0
 70
0
  0
SEQEND
  8
0
  0
POLYLINE
  8
0
 62
4
 66
1
 10
0.0
 20
0.0
 30
0.0
 70
2
  0
VERTEX
  8
0
 10
34.360054
 20
45.927315
 30
0.0
 70
0
  0
VERTEX
  8
0
 10
34.860054
 20
45.427315
 30
0.0
 70
0
  0
VERTEX
  8
0
 10
34.860054
 20
31.427315
 30
0.0
 70
0
  0
VERTEX
  8
0
 10
58.860054
 20
31.427315
 30
0.0
 70
0
  0
VERTEX
  8
0
 10
58.860054
 20
45.427315
 30
0.0
 70
0
  0
VERTEX
  8
0
 10
34.860054
 20
45.427315
 30
0.0
 70
0
  0
SEQEND
  8
0
  0
ARC
  8
0
 62
4
 10
90.476898
 20
38.427315
 30
0.0
 40
7.0
 50
110.92483306307776
 51
69.07516693692226
  0
POLYLINE
  8
0
 62
4
 66
1
 10
0.0
 20
0.0
 30
0.0
 70
2
  0
VERTEX
  8
0
 10
92.976898
 20
44.965664
 30
0.0
 70
0
  0
VERTEX
  8
0
 10
92.976898
 20
47.727314
 30
0.0
 70
0
  0
VERTEX
  8
0
 10
87.976898
 20
47.727314
 30
0.0
 70
0
  0
VERTEX
  8
0
 10
87.976898
 20
44.965664
 30
0.0
 70
0
  0
SEQEND
  8
0
  0
LINE
  8
0
 62
4
 10
34.360054
 20
47.727314
 30
0.0
 11
59.360054
 21
47.727314
 31
0.0
  0
ENDSEC
  0
EOF
