  0
SECTION
  2
ENTITIES
  0
LINE
  8
0
 62
4
 10
68.566574
 20
107.829483
 30
0.0
 11
93.566574
 21
107.829483
 31
0.0
  0
LINE
  8
0
 62
4
 10
68.566574
 20
34.079483
 30
0.0
 11
93.566574
 21
34.079483
 31
0.0
  0
LINE
  8
0
 62
4
 10
93.566574
 20
89.454483
 30
0.0
 11
92.566574
 21
88.454483
 31
0.0
  0
LINE
  8
0
 62
4
 10
93.566574
 20
52.454483
 30
0.0
 11
92.566574
 21
53.454483
 31
0.0
  0
LINE
  8
0
 62
4
 10
68.566574
 20
52.454483
 30
0.0
 11
69.566574
 21
53.454483
 31
0.0
  0
POLYLINE
  8
0
 62
4
 66
1
 10
0.0
 20
0.0
 30
0.0
 70
2
  0
VERTEX
  8
0
 10
68.566574
 20
52.454483
 30
0.0
 70
0
  0
VERTEX
  8
0
 10
68.566574
 20
29.454483
 30
0.0
 70
0
  0
VERTEX
  8
0
 10
69.566574
 20
28.454483
 30
0.0
 70
0
  0
VERTEX
  8
0
 10
92.566574
 20
28.454483
 30
0.0
 70
0
  0
VERTEX
  8
0
 10
93.566574
 20
29.454483
 30
0.0
 70
0
  0
VERTEX
  8
0
 10
93.566574
 20
112.454483
 30
0.0
 70
0
  0
VERTEX
  8
0
 10
92.566574
 20
113.454483
 30
0.0
 70
0
  0
VERTEX
  8
0
 10
69.566574
 20
113.454483
 30
0.0
 70
0
  0
VERTEX
  8
0
 10
68.566574
 20
112.454483
 30
0.0
 70
0
  0
VERTEX
  8
0
 10
68.566574
 20
52.454483
 30
0.0
 70
0
  0
SEQEND
  8
0
  0
POLYLINE
  8
0
 62
4
 66
1
 10
0.0
 20
0.0
 30
0.0
 70
2
  0
VERTEX
  8
0
 10
68.566574
 20
89.454483
 30
0.0
 70
0
  0
VERTEX
  8
0
 10
69.566574
 20
88.454483
 30
0.0
 70
0
  0
VERTEX
  8
0
 10
69.566574
 20
53.454483
 30
0.0
 70
0
  0
VERTEX
  8
0
 10
92.566574
 20
53.454483
 30
0.0
 70
0
  0
VERTEX
  8
0
 10
92.566574
 20
88.454483
 30
0.0
 70
0
  0
VERTEX
  8
0
 10
69.566574
 20
88.454483
 30
0.0
 70
0
  0
SEQEND
  8
0
  0
ARC
  8
0
 62
4
 10
154.20517
 20
70.954483
 30
0.0
 40
17.5
 50
106.60154992625478
 51
73.39845007374521
  0
POLYLINE
  8
0
 62
4
 66
1
 10
0.0
 20
0.0
 30
0.0
 70
2
  0
VERTEX
  8
0
 10
159.20517
 20
87.724991
 30
0.0
 70
0
  0
VERTEX
  8
0
 10
159.20517
 20
91.754486
 30
0.0
 70
0
  0
VERTEX
  8
0
 10
149.20517
 20
91.754486
 30
0.0
 70
0
  0
VERTEX
  8
0
 10
149.20517
 20
87.724991
 30
0.0
 70
0
  0
SEQEND
  8
0
  0
LINE
  8
0
 62
4
 10
68.566574
 20
91.754486
 30
0.0
 11
93.566574
 21
91.754486
 31
0.0
  0
ENDSEC
  0
EOF
