  0
SECTION
  2
ENTITIES
  0
LINE
  8
0
 62
4
 10
136.599182
 20
193.590347
 30
0.0
 11
161.599182
 21
193.590347
 31
0.0
  0
LINE
  8
0
 62
4
 10
136.599182
 20
59.840347
 30
0.0
 11
161.599182
 21
59.840347
 31
0.0
  0
LINE
  8
0
 62
4
 10
161.599182
 20
147.715347
 30
0.0
 11
160.599182
 21
146.715347
 31
0.0
  0
LINE
  8
0
 62
4
 10
161.599182
 20
105.715347
 30
0.0
 11
160.599182
 21
106.715347
 31
0.0
  0
LINE
  8
0
 62
4
 10
136.599182
 20
105.715347
 30
0.0
 11
137.599182
 21
106.715347
 31
0.0
  0
POLYLINE
  8
0
 62
4
 66
1
 10
0.0
 20
0.0
 30
0.0
 70
2
  0
VERTEX
  8
0
 10
136.599182
 20
105.715347
 30
0.0
 70
0
  0
VERTEX
  8
0
 10
136.599182
 20
55.215347
 30
0.0
 70
0
  0
VERTEX
  8
0
 10
137.599182
 20
54.215347
 30
0.0
 70
0
  0
VERTEX
  8
0
 10
160.599182
 20
54.215347
 30
0.0
 70
0
  0
VERTEX
  8
0
 10
161.599182
 20
55.215347
 30
0.0
 70
0
  0
VERTEX
  8
0
 10
161.599182
 20
198.215347
 30
0.0
 70
0
  0
VERTEX
  8
0
 10
160.599182
 20
199.215347
 30
0.0
 70
0
  0
VERTEX
  8
0
 10
137.599182
 20
199.215347
 30
0.0
 70
0
  0
VERTEX
  8
0
 10
136.599182
 20
198.215347
 30
0.0
 70
0
  0
VERTEX
  8
0
 10
136.599182
 20
105.715347
 30
0.0
 70
0
  0
SEQEND
  8
0
  0
POLYLINE
  8
0
 62
4
 66
1
 10
0.0
 20
0.0
 30
0.0
 70
2
  0
VERTEX
  8
0
 10
136.599182
 20
147.715347
 30
0.0
 70
0
  0
VERTEX
  8
0
 10
137.599182
 20
146.715347
 30
0.0
 70
0
  0
VERTEX
  8
0
 10
137.599182
 20
106.715347
 30
0.0
 70
0
  0
VERTEX
  8
0
 10
160.599182
 20
106.715347
 30
0.0
 70
0
  0
VERTEX
  8
0
 10
160.599182
 20
146.715347
 30
0.0
 70
0
  0
VERTEX
  8
0
 10
137.599182
 20
146.715347
 30
0.0
 70
0
  0
SEQEND
  8
0
  0
ARC
  8
0
 62
4
 10
257.346466
 20
126.715347
 30
0.0
 40
20.0
 50
107.45760274776076
 51
72.54239725223924
  0
POLYLINE
  8
0
 62
4
 66
1
 10
0.0
 20
0.0
 30
0.0
 70
2
  0
VERTEX
  8
0
 10
263.346466
 20
145.794128
 30
0.0
 70
0
  0
VERTEX
  8
0
 10
263.346466
 20
150.01535
 30
0.0
 70
0
  0
VERTEX
  8
0
 10
251.346466
 20
150.01535
 30
0.0
 70
0
  0
VERTEX
  8
0
 10
251.346466
 20
145.794128
 30
0.0
 70
0
  0
SEQEND
  8
0
  0
LINE
  8
0
 62
4
 10
136.599182
 20
150.01535
 30
0.0
 11
161.599182
 21
150.01535
 31
0.0
  0
ENDSEC
  0
EOF
