  0
SECTION
  2
ENTITIES
  0
LINE
  8
0
 62
4
 10
67.751358
 20
100.682747
 30
0.0
 11
92.751358
 21
100.682747
 31
0.0
  0
LINE
  8
0
 62
4
 10
67.751358
 20
31.932747
 30
0.0
 11
92.751358
 21
31.932747
 31
0.0
  0
LINE
  8
0
 62
4
 10
92.751358
 20
76.307747
 30
0.0
 11
92.251358
 21
75.807747
 31
0.0
  0
LINE
  8
0
 62
4
 10
92.751358
 20
56.307747
 30
0.0
 11
92.251358
 21
56.807747
 31
0.0
  0
LINE
  8
0
 62
4
 10
67.751358
 20
56.307747
 30
0.0
 11
68.251358
 21
56.807747
 31
0.0
  0
POLYLINE
  8
0
 62
4
 66
1
 10
0.0
 20
0.0
 30
0.0
 70
2
  0
VERTEX
  8
0
 10
67.751358
 20
56.307747
 30
0.0
 70
0
  0
VERTEX
  8
0
 10
67.751358
 20
27.307747
 30
0.0
 70
0
  0
VERTEX
  8
0
 10
68.751358
 20
26.307747
 30
0.0
 70
0
  0
VERTEX
  8
0
 10
91.751358
 20
26.307747
 30
0.0
 70
0
  0
VERTEX
  8
0
 10
92.751358
 20
27.307747
 30
0.0
 70
0
  0
VERTEX
  8
0
 10
92.751358
 20
105.307747
 30
0.0
 70
0
  0
VERTEX
  8
0
 10
91.751358
 20
106.307747
 30
0.0
 70
0
  0
VERTEX
  8
0
 10
68.751358
 20
106.307747
 30
0.0
 70
0
  0
VERTEX
  8
0
 10
67.751358
 20
105.307747
 30
0.0
 70
0
  0
VERTEX
  8
0
 10
67.751358
 20
56.307747
 30
0.0
 70
0
  0
SEQEND
  8
0
  0
POLYLINE
  8
0
 62
4
 66
1
 10
0.0
 20
0.0
 30
0.0
 70
2
  0
VERTEX
  8
0
 10
67.751358
 20
76.307747
 30
0.0
 70
0
  0
VERTEX
  8
0
 10
68.251358
 20
75.807747
 30
0.0
 70
0
  0
VERTEX
  8
0
 10
68.251358
 20
56.807747
 30
0.0
 70
0
  0
VERTEX
  8
0
 10
92.251358
 20
56.807747
 30
0.0
 70
0
  0
VERTEX
  8
0
 10
92.251358
 20
75.807747
 30
0.0
 70
0
  0
VERTEX
  8
0
 10
68.251358
 20
75.807747
 30
0.0
 70
0
  0
SEQEND
  8
0
  0
ARC
  8
0
 62
4
 10
142.672546
 20
66.307747
 30
0.0
 40
9.5
 50
108.4084803259778
 51
71.5915196740222
  0
POLYLINE
  8
0
 62
4
 66
1
 10
0.0
 20
0.0
 30
0.0
 70
2
  0
VERTEX
  8
0
 10
145.672546
 20
75.321625
 30
0.0
 70
0
  0
VERTEX
  8
0
 10
145.672546
 20
78.60775
 30
0.0
 70
0
  0
VERTEX
  8
0
 10
139.672546
 20
78.60775
 30
0.0
 70
0
  0
VERTEX
  8
0
 10
139.672546
 20
75.321625
 30
0.0
 70
0
  0
SEQEND
  8
0
  0
LINE
  8
0
 62
4
 10
67.751358
 20
78.60775
 30
0.0
 11
92.751358
 21
78.60775
 31
0.0
  0
ENDSEC
  0
EOF
