  0
SECTION
  2
ENTITIES
  0
LINE
  8
0
 62
4
 10
99.222824
 20
137.720108
 30
0.0
 11
119.222824
 21
137.720108
 31
0.0
  0
LINE
  8
0
 62
4
 10
99.222824
 20
42.720108
 30
0.0
 11
119.222824
 21
42.720108
 31
0.0
  0
LINE
  8
0
 62
4
 10
119.222824
 20
101.220108
 30
0.0
 11
118.222824
 21
100.220108
 31
0.0
  0
LINE
  8
0
 62
4
 10
119.222824
 20
79.220108
 30
0.0
 11
118.222824
 21
80.220108
 31
0.0
  0
LINE
  8
0
 62
4
 10
99.222824
 20
79.220108
 30
0.0
 11
100.222824
 21
80.220108
 31
0.0
  0
POLYLINE
  8
0
 62
4
 66
1
 10
0.0
 20
0.0
 30
0.0
 70
2
  0
VERTEX
  8
0
 10
99.222824
 20
79.220108
 30
0.0
 70
0
  0
VERTEX
  8
0
 10
99.222824
 20
38.720108
 30
0.0
 70
0
  0
VERTEX
  8
0
 10
99.722824
 20
38.220108
 30
0.0
 70
0
  0
VERTEX
  8
0
 10
118.722824
 20
38.220108
 30
0.0
 70
0
  0
VERTEX
  8
0
 10
119.222824
 20
38.720108
 30
0.0
 70
0
  0
VERTEX
  8
0
 10
119.222824
 20
141.720108
 30
0.0
 70
0
  0
VERTEX
  8
0
 10
118.722824
 20
142.220108
 30
0.0
 70
0
  0
VERTEX
  8
0
 10
99.722824
 20
142.220108
 30
0.0
 70
0
  0
VERTEX
  8
0
 10
99.222824
 20
141.720108
 30
0.0
 70
0
  0
VERTEX
  8
0
 10
99.222824
 20
79.220108
 30
0.0
 70
0
  0
SEQEND
  8
0
  0
POLYLINE
  8
0
 62
4
 66
1
 10
0.0
 20
0.0
 30
0.0
 70
2
  0
VERTEX
  8
0
 10
99.222824
 20
101.220108
 30
0.0
 70
0
  0
VERTEX
  8
0
 10
100.222824
 20
100.220108
 30
0.0
 70
0
  0
VERTEX
  8
0
 10
100.222824
 20
80.220108
 30
0.0
 70
0
  0
VERTEX
  8
0
 10
118.222824
 20
80.220108
 30
0.0
 70
0
  0
VERTEX
  8
0
 10
118.222824
 20
100.220108
 30
0.0
 70
0
  0
VERTEX
  8
0
 10
100.222824
 20
100.220108
 30
0.0
 70
0
  0
SEQEND
  8
0
  0
ARC
  8
0
 62
4
 10
183.29892
 20
90.220108
 30
0.0
 40
10.0
 50
107.45760274776076
 51
72.54239725223924
  0
POLYLINE
  8
0
 62
4
 66
1
 10
0.0
 20
0.0
 30
0.0
 70
2
  0
VERTEX
  8
0
 10
186.29892
 20
99.759499
 30
0.0
 70
0
  0
VERTEX
  8
0
 10
186.29892
 20
103.020111
 30
0.0
 70
0
  0
VERTEX
  8
0
 10
180.29892
 20
103.020111
 30
0.0
 70
0
  0
VERTEX
  8
0
 10
180.29892
 20
99.759499
 30
0.0
 70
0
  0
SEQEND
  8
0
  0
LINE
  8
0
 62
4
 10
99.222824
 20
103.020111
 30
0.0
 11
119.222824
 21
103.020111
 31
0.0
  0
ENDSEC
  0
EOF
