  0
SECTION
  2
ENTITIES
  0
LINE
  8
0
 62
4
 10
211.131805
 20
279.351227
 30
0.0
 11
236.131805
 21
279.351227
 31
0.0
  0
LINE
  8
0
 62
4
 10
211.131805
 20
85.601227
 30
0.0
 11
236.131805
 21
85.601227
 31
0.0
  0
LINE
  8
0
 62
4
 10
236.131805
 20
195.976227
 30
0.0
 11
235.131805
 21
194.976227
 31
0.0
  0
LINE
  8
0
 62
4
 10
236.131805
 20
168.976227
 30
0.0
 11
235.131805
 21
169.976227
 31
0.0
  0
LINE
  8
0
 62
4
 10
211.131805
 20
168.976227
 30
0.0
 11
212.131805
 21
169.976227
 31
0.0
  0
POLYLINE
  8
0
 62
4
 66
1
 10
0.0
 20
0.0
 30
0.0
 70
2
  0
VERTEX
  8
0
 10
211.131805
 20
168.976227
 30
0.0
 70
0
  0
VERTEX
  8
0
 10
211.131805
 20
80.976227
 30
0.0
 70
0
  0
VERTEX
  8
0
 10
212.131805
 20
79.976227
 30
0.0
 70
0
  0
VERTEX
  8
0
 10
235.131805
 20
79.976227
 30
0.0
 70
0
  0
VERTEX
  8
0
 10
236.131805
 20
80.976227
 30
0.0
 70
0
  0
VERTEX
  8
0
 10
236.131805
 20
283.976227
 30
0.0
 70
0
  0
VERTEX
  8
0
 10
235.131805
 20
284.976227
 30
0.0
 70
0
  0
VERTEX
  8
0
 10
212.131805
 20
284.976227
 30
0.0
 70
0
  0
VERTEX
  8
0
 10
211.131805
 20
283.976227
 30
0.0
 70
0
  0
VERTEX
  8
0
 10
211.131805
 20
168.976227
 30
0.0
 70
0
  0
SEQEND
  8
0
  0
POLYLINE
  8
0
 62
4
 66
1
 10
0.0
 20
0.0
 30
0.0
 70
2
  0
VERTEX
  8
0
 10
211.131805
 20
195.976227
 30
0.0
 70
0
  0
VERTEX
  8
0
 10
212.131805
 20
194.976227
 30
0.0
 70
0
  0
VERTEX
  8
0
 10
212.131805
 20
169.976227
 30
0.0
 70
0
  0
VERTEX
  8
0
 10
235.131805
 20
169.976227
 30
0.0
 70
0
  0
VERTEX
  8
0
 10
235.131805
 20
194.976227
 30
0.0
 70
0
  0
VERTEX
  8
0
 10
212.131805
 20
194.976227
 30
0.0
 70
0
  0
SEQEND
  8
0
  0
ARC
  8
0
 62
4
 10
356.987793
 20
182.476227
 30
0.0
 40
12.5
 50
108.66292518454978
 51
71.33707481545021
  0
POLYLINE
  8
0
 62
4
 66
1
 10
0.0
 20
0.0
 30
0.0
 70
2
  0
VERTEX
  8
0
 10
360.987793
 20
194.318939
 30
0.0
 70
0
  0
VERTEX
  8
0
 10
360.987793
 20
198.27623
 30
0.0
 70
0
  0
VERTEX
  8
0
 10
352.987793
 20
198.27623
 30
0.0
 70
0
  0
VERTEX
  8
0
 10
352.987793
 20
194.318939
 30
0.0
 70
0
  0
SEQEND
  8
0
  0
LINE
  8
0
 62
4
 10
211.131805
 20
198.27623
 30
0.0
 11
236.131805
 21
198.27623
 31
0.0
  0
ENDSEC
  0
EOF
