  0
SECTION
  2
ENTITIES
  0
LINE
  8
0
 62
4
 10
49.298912
 20
74.828804
 30
0.0
 11
69.298912
 21
74.828804
 31
0.0
  0
LINE
  8
0
 62
4
 10
49.298912
 20
23.828804
 30
0.0
 11
69.298912
 21
23.828804
 31
0.0
  0
LINE
  8
0
 62
4
 10
69.298912
 20
57.828804
 30
0.0
 11
68.798912
 21
57.328804
 31
0.0
  0
LINE
  8
0
 62
4
 10
69.298912
 20
40.828804
 30
0.0
 11
68.798912
 21
41.328804
 31
0.0
  0
LINE
  8
0
 62
4
 10
49.298912
 20
40.828804
 30
0.0
 11
49.798912
 21
41.328804
 31
0.0
  0
POLYLINE
  8
0
 62
4
 66
1
 10
0.0
 20
0.0
 30
0.0
 70
2
  0
VERTEX
  8
0
 10
49.298912
 20
40.828804
 30
0.0
 70
0
  0
VERTEX
  8
0
 10
49.298912
 20
19.828804
 30
0.0
 70
0
  0
VERTEX
  8
0
 10
49.798912
 20
19.328804
 30
0.0
 70
0
  0
VERTEX
  8
0
 10
68.798912
 20
19.328804
 30
0.0
 70
0
  0
VERTEX
  8
0
 10
69.298912
 20
19.828804
 30
0.0
 70
0
  0
VERTEX
  8
0
 10
69.298912
 20
78.828804
 30
0.0
 70
0
  0
VERTEX
  8
0
 10
68.798912
 20
79.328804
 30
0.0
 70
0
  0
VERTEX
  8
0
 10
49.798912
 20
79.328804
 30
0.0
 70
0
  0
VERTEX
  8
0
 10
49.298912
 20
78.828804
 30
0.0
 70
0
  0
VERTEX
  8
0
 10
49.298912
 20
40.828804
 30
0.0
 70
0
  0
SEQEND
  8
0
  0
POLYLINE
  8
0
 62
4
 66
1
 10
0.0
 20
0.0
 30
0.0
 70
2
  0
VERTEX
  8
0
 10
49.298912
 20
57.828804
 30
0.0
 70
0
  0
VERTEX
  8
0
 10
49.798912
 20
57.328804
 30
0.0
 70
0
  0
VERTEX
  8
0
 10
49.798912
 20
41.328804
 30
0.0
 70
0
  0
VERTEX
  8
0
 10
68.798912
 20
41.328804
 30
0.0
 70
0
  0
VERTEX
  8
0
 10
68.798912
 20
57.328804
 30
0.0
 70
0
  0
VERTEX
  8
0
 10
49.798912
 20
57.328804
 30
0.0
 70
0
  0
SEQEND
  8
0
  0
ARC
  8
0
 62
4
 10
107.46196
 20
49.328804
 30
0.0
 40
8.0
 50
108.20995732853793
 51
71.79004267146207
  0
POLYLINE
  8
0
 62
4
 66
1
 10
0.0
 20
0.0
 30
0.0
 70
2
  0
VERTEX
  8
0
 10
109.96196
 20
56.928146
 30
0.0
 70
0
  0
VERTEX
  8
0
 10
109.96196
 20
59.628803
 30
0.0
 70
0
  0
VERTEX
  8
0
 10
104.96196
 20
59.628803
 30
0.0
 70
0
  0
VERTEX
  8
0
 10
104.96196
 20
56.928146
 30
0.0
 70
0
  0
SEQEND
  8
0
  0
LINE
  8
0
 62
4
 10
49.298912
 20
59.628803
 30
0.0
 11
69.298912
 21
59.628803
 31
0.0
  0
ENDSEC
  0
EOF
