  0
SECTION
  2
ENTITIES
  0
LINE
  8
0
 62
4
 10
59.936142
 20
93.536003
 30
0.0
 11
84.936142
 21
93.536003
 31
0.0
  0
LINE
  8
0
 62
4
 10
59.936142
 20
29.786003
 30
0.0
 11
84.936142
 21
29.786003
 31
0.0
  0
LINE
  8
0
 62
4
 10
84.936142
 20
75.161003
 30
0.0
 11
83.936142
 21
74.161003
 31
0.0
  0
LINE
  8
0
 62
4
 10
84.936142
 20
48.161003
 30
0.0
 11
83.936142
 21
49.161003
 31
0.0
  0
LINE
  8
0
 62
4
 10
59.936142
 20
48.161003
 30
0.0
 11
60.936142
 21
49.161003
 31
0.0
  0
POLYLINE
  8
0
 62
4
 66
1
 10
0.0
 20
0.0
 30
0.0
 70
2
  0
VERTEX
  8
0
 10
59.936142
 20
48.161003
 30
0.0
 70
0
  0
VERTEX
  8
0
 10
59.936142
 20
25.161003
 30
0.0
 70
0
  0
VERTEX
  8
0
 10
60.936142
 20
24.161003
 30
0.0
 70
0
  0
VERTEX
  8
0
 10
83.936142
 20
24.161003
 30
0.0
 70
0
  0
VERTEX
  8
0
 10
84.936142
 20
25.161003
 30
0.0
 70
0
  0
VERTEX
  8
0
 10
84.936142
 20
98.161003
 30
0.0
 70
0
  0
VERTEX
  8
0
 10
83.936142
 20
99.161003
 30
0.0
 70
0
  0
VERTEX
  8
0
 10
60.936142
 20
99.161003
 30
0.0
 70
0
  0
VERTEX
  8
0
 10
59.936142
 20
98.161003
 30
0.0
 70
0
  0
VERTEX
  8
0
 10
59.936142
 20
48.161003
 30
0.0
 70
0
  0
SEQEND
  8
0
  0
POLYLINE
  8
0
 62
4
 66
1
 10
0.0
 20
0.0
 30
0.0
 70
2
  0
VERTEX
  8
0
 10
59.936142
 20
75.161003
 30
0.0
 70
0
  0
VERTEX
  8
0
 10
60.936142
 20
74.161003
 30
0.0
 70
0
  0
VERTEX
  8
0
 10
60.936142
 20
49.161003
 30
0.0
 70
0
  0
VERTEX
  8
0
 10
83.936142
 20
49.161003
 30
0.0
 70
0
  0
VERTEX
  8
0
 10
83.936142
 20
74.161003
 30
0.0
 70
0
  0
VERTEX
  8
0
 10
60.936142
 20
74.161003
 30
0.0
 70
0
  0
SEQEND
  8
0
  0
ARC
  8
0
 62
4
 10
135.139954
 20
61.661003
 30
0.0
 40
12.5
 50
108.66292518454978
 51
71.33707481545021
  0
POLYLINE
  8
0
 62
4
 66
1
 10
0.0
 20
0.0
 30
0.0
 70
2
  0
VERTEX
  8
0
 10
139.139954
 20
73.503723
 30
0.0
 70
0
  0
VERTEX
  8
0
 10
139.139954
 20
77.461006
 30
0.0
 70
0
  0
VERTEX
  8
0
 10
131.139954
 20
77.461006
 30
0.0
 70
0
  0
VERTEX
  8
0
 10
131.139954
 20
73.503723
 30
0.0
 70
0
  0
SEQEND
  8
0
  0
LINE
  8
0
 62
4
 10
59.936142
 20
77.461006
 30
0.0
 11
84.936142
 21
77.461006
 31
0.0
  0
ENDSEC
  0
EOF
