  0
SECTION
  2
ENTITIES
  0
LINE
  8
0
 62
4
 10
43.570652
 20
66.252716
 30
0.0
 11
63.570652
 21
66.252716
 31
0.0
  0
LINE
  8
0
 62
4
 10
43.570652
 20
21.252716
 30
0.0
 11
63.570652
 21
21.252716
 31
0.0
  0
LINE
  8
0
 62
4
 10
63.570652
 20
50.252716
 30
0.0
 11
63.070652
 21
49.752716
 31
0.0
  0
LINE
  8
0
 62
4
 10
63.570652
 20
37.252716
 30
0.0
 11
63.070652
 21
37.752716
 31
0.0
  0
LINE
  8
0
 62
4
 10
43.570652
 20
37.252716
 30
0.0
 11
44.070652
 21
37.752716
 31
0.0
  0
POLYLINE
  8
0
 62
4
 66
1
 10
0.0
 20
0.0
 30
0.0
 70
2
  0
VERTEX
  8
0
 10
43.570652
 20
37.252716
 30
0.0
 70
0
  0
VERTEX
  8
0
 10
43.570652
 20
17.252716
 30
0.0
 70
0
  0
VERTEX
  8
0
 10
44.070652
 20
16.752716
 30
0.0
 70
0
  0
VERTEX
  8
0
 10
63.070652
 20
16.752716
 30
0.0
 70
0
  0
VERTEX
  8
0
 10
63.570652
 20
17.252716
 30
0.0
 70
0
  0
VERTEX
  8
0
 10
63.570652
 20
70.252716
 30
0.0
 70
0
  0
VERTEX
  8
0
 10
63.070652
 20
70.752716
 30
0.0
 70
0
  0
VERTEX
  8
0
 10
44.070652
 20
70.752716
 30
0.0
 70
0
  0
VERTEX
  8
0
 10
43.570652
 20
70.252716
 30
0.0
 70
0
  0
VERTEX
  8
0
 10
43.570652
 20
37.252716
 30
0.0
 70
0
  0
SEQEND
  8
0
  0
POLYLINE
  8
0
 62
4
 66
1
 10
0.0
 20
0.0
 30
0.0
 70
2
  0
VERTEX
  8
0
 10
43.570652
 20
50.252716
 30
0.0
 70
0
  0
VERTEX
  8
0
 10
44.070652
 20
49.752716
 30
0.0
 70
0
  0
VERTEX
  8
0
 10
44.070652
 20
37.752716
 30
0.0
 70
0
  0
VERTEX
  8
0
 10
63.070652
 20
37.752716
 30
0.0
 70
0
  0
VERTEX
  8
0
 10
63.070652
 20
49.752716
 30
0.0
 70
0
  0
VERTEX
  8
0
 10
44.070652
 20
49.752716
 30
0.0
 70
0
  0
SEQEND
  8
0
  0
ARC
  8
0
 62
4
 10
96.472824
 20
43.752716
 30
0.0
 40
6.0
 50
109.47122094265586
 51
70.52877905734415
  0
POLYLINE
  8
0
 62
4
 66
1
 10
0.0
 20
0.0
 30
0.0
 70
2
  0
VERTEX
  8
0
 10
98.472824
 20
49.409569
 30
0.0
 70
0
  0
VERTEX
  8
0
 10
98.472824
 20
51.552715
 30
0.0
 70
0
  0
VERTEX
  8
0
 10
94.472824
 20
51.552715
 30
0.0
 70
0
  0
VERTEX
  8
0
 10
94.472824
 20
49.409569
 30
0.0
 70
0
  0
SEQEND
  8
0
  0
LINE
  8
0
 62
4
 10
43.570652
 20
51.552715
 30
0.0
 11
63.570652
 21
51.552715
 31
0.0
  0
ENDSEC
  0
EOF
