  0
SECTION
  2
ENTITIES
  0
LINE
  8
0
 62
4
 10
138.441574
 20
190.016983
 30
0.0
 11
163.441574
 21
190.016983
 31
0.0
  0
LINE
  8
0
 62
4
 10
138.441574
 20
58.766983
 30
0.0
 11
163.441574
 21
58.766983
 31
0.0
  0
LINE
  8
0
 62
4
 10
163.441574
 20
137.891983
 30
0.0
 11
162.441574
 21
136.891983
 31
0.0
  0
LINE
  8
0
 62
4
 10
163.441574
 20
110.891983
 30
0.0
 11
162.441574
 21
111.891983
 31
0.0
  0
LINE
  8
0
 62
4
 10
138.441574
 20
110.891983
 30
0.0
 11
139.441574
 21
111.891983
 31
0.0
  0
POLYLINE
  8
0
 62
4
 66
1
 10
0.0
 20
0.0
 30
0.0
 70
2
  0
VERTEX
  8
0
 10
138.441574
 20
110.891983
 30
0.0
 70
0
  0
VERTEX
  8
0
 10
138.441574
 20
54.141983
 30
0.0
 70
0
  0
VERTEX
  8
0
 10
139.441574
 20
53.141983
 30
0.0
 70
0
  0
VERTEX
  8
0
 10
162.441574
 20
53.141983
 30
0.0
 70
0
  0
VERTEX
  8
0
 10
163.441574
 20
54.141983
 30
0.0
 70
0
  0
VERTEX
  8
0
 10
163.441574
 20
194.641983
 30
0.0
 70
0
  0
VERTEX
  8
0
 10
162.441574
 20
195.641983
 30
0.0
 70
0
  0
VERTEX
  8
0
 10
139.441574
 20
195.641983
 30
0.0
 70
0
  0
VERTEX
  8
0
 10
138.441574
 20
194.641983
 30
0.0
 70
0
  0
VERTEX
  8
0
 10
138.441574
 20
110.891983
 30
0.0
 70
0
  0
SEQEND
  8
0
  0
POLYLINE
  8
0
 62
4
 66
1
 10
0.0
 20
0.0
 30
0.0
 70
2
  0
VERTEX
  8
0
 10
138.441574
 20
137.891983
 30
0.0
 70
0
  0
VERTEX
  8
0
 10
139.441574
 20
136.891983
 30
0.0
 70
0
  0
VERTEX
  8
0
 10
139.441574
 20
111.891983
 30
0.0
 70
0
  0
VERTEX
  8
0
 10
162.441574
 20
111.891983
 30
0.0
 70
0
  0
VERTEX
  8
0
 10
162.441574
 20
136.891983
 30
0.0
 70
0
  0
VERTEX
  8
0
 10
139.441574
 20
136.891983
 30
0.0
 70
0
  0
SEQEND
  8
0
  0
ARC
  8
0
 62
4
 10
250.33017
 20
124.391983
 30
0.0
 40
12.5
 50
108.66292518454978
 51
71.33707481545021
  0
POLYLINE
  8
0
 62
4
 66
1
 10
0.0
 20
0.0
 30
0.0
 70
2
  0
VERTEX
  8
0
 10
254.33017
 20
136.234695
 30
0.0
 70
0
  0
VERTEX
  8
0
 10
254.33017
 20
140.191986
 30
0.0
 70
0
  0
VERTEX
  8
0
 10
246.33017
 20
140.191986
 30
0.0
 70
0
  0
VERTEX
  8
0
 10
246.33017
 20
136.234695
 30
0.0
 70
0
  0
SEQEND
  8
0
  0
LINE
  8
0
 62
4
 10
138.441574
 20
140.191986
 30
0.0
 11
163.441574
 21
140.191986
 31
0.0
  0
ENDSEC
  0
EOF
