  0
SECTION
  2
ENTITIES
  0
LINE
  8
0
 62
4
 10
90.570663
 20
132.002716
 30
0.0
 11
110.570663
 21
132.002716
 31
0.0
  0
LINE
  8
0
 62
4
 10
90.570663
 20
41.002716
 30
0.0
 11
110.570663
 21
41.002716
 31
0.0
  0
LINE
  8
0
 62
4
 10
110.570663
 20
103.502716
 30
0.0
 11
109.570663
 21
102.502716
 31
0.0
  0
LINE
  8
0
 62
4
 10
110.570663
 20
69.502716
 30
0.0
 11
109.570663
 21
70.502716
 31
0.0
  0
LINE
  8
0
 62
4
 10
90.570663
 20
69.502716
 30
0.0
 11
91.570663
 21
70.502716
 31
0.0
  0
POLYLINE
  8
0
 62
4
 66
1
 10
0.0
 20
0.0
 30
0.0
 70
2
  0
VERTEX
  8
0
 10
90.570663
 20
69.502716
 30
0.0
 70
0
  0
VERTEX
  8
0
 10
90.570663
 20
37.002716
 30
0.0
 70
0
  0
VERTEX
  8
0
 10
91.070663
 20
36.502716
 30
0.0
 70
0
  0
VERTEX
  8
0
 10
110.070663
 20
36.502716
 30
0.0
 70
0
  0
VERTEX
  8
0
 10
110.570663
 20
37.002716
 30
0.0
 70
0
  0
VERTEX
  8
0
 10
110.570663
 20
136.002716
 30
0.0
 70
0
  0
VERTEX
  8
0
 10
110.070663
 20
136.502716
 30
0.0
 70
0
  0
VERTEX
  8
0
 10
91.070663
 20
136.502716
 30
0.0
 70
0
  0
VERTEX
  8
0
 10
90.570663
 20
136.002716
 30
0.0
 70
0
  0
VERTEX
  8
0
 10
90.570663
 20
69.502716
 30
0.0
 70
0
  0
SEQEND
  8
0
  0
POLYLINE
  8
0
 62
4
 66
1
 10
0.0
 20
0.0
 30
0.0
 70
2
  0
VERTEX
  8
0
 10
90.570663
 20
103.502716
 30
0.0
 70
0
  0
VERTEX
  8
0
 10
91.570663
 20
102.502716
 30
0.0
 70
0
  0
VERTEX
  8
0
 10
91.570663
 20
70.502716
 30
0.0
 70
0
  0
VERTEX
  8
0
 10
109.570663
 20
70.502716
 30
0.0
 70
0
  0
VERTEX
  8
0
 10
109.570663
 20
102.502716
 30
0.0
 70
0
  0
VERTEX
  8
0
 10
91.570663
 20
102.502716
 30
0.0
 70
0
  0
SEQEND
  8
0
  0
ARC
  8
0
 62
4
 10
178.472839
 20
86.502716
 30
0.0
 40
16.0
 50
108.20995732853793
 51
71.79004267146207
  0
POLYLINE
  8
0
 62
4
 66
1
 10
0.0
 20
0.0
 30
0.0
 70
2
  0
VERTEX
  8
0
 10
183.472839
 20
101.701401
 30
0.0
 70
0
  0
VERTEX
  8
0
 10
183.472839
 20
105.802719
 30
0.0
 70
0
  0
VERTEX
  8
0
 10
173.472839
 20
105.802719
 30
0.0
 70
0
  0
VERTEX
  8
0
 10
173.472839
 20
101.701401
 30
0.0
 70
0
  0
SEQEND
  8
0
  0
LINE
  8
0
 62
4
 10
90.570663
 20
105.802719
 30
0.0
 11
110.570663
 21
105.802719
 31
0.0
  0
ENDSEC
  0
EOF
