  0
SECTION
  2
ENTITIES
  0
LINE
  8
0
 62
4
 10
73.566574
 20
107.829483
 30
0.0
 11
98.566574
 21
107.829483
 31
0.0
  0
LINE
  8
0
 62
4
 10
73.566574
 20
34.079483
 30
0.0
 11
98.566574
 21
34.079483
 31
0.0
  0
LINE
  8
0
 62
4
 10
98.566574
 20
80.954483
 30
0.0
 11
98.066574
 21
80.454483
 31
0.0
  0
LINE
  8
0
 62
4
 10
98.566574
 20
60.954483
 30
0.0
 11
98.066574
 21
61.454483
 31
0.0
  0
LINE
  8
0
 62
4
 10
73.566574
 20
60.954483
 30
0.0
 11
74.066574
 21
61.454483
 31
0.0
  0
POLYLINE
  8
0
 62
4
 66
1
 10
0.0
 20
0.0
 30
0.0
 70
2
  0
VERTEX
  8
0
 10
73.566574
 20
60.954483
 30
0.0
 70
0
  0
VERTEX
  8
0
 10
73.566574
 20
29.454483
 30
0.0
 70
0
  0
VERTEX
  8
0
 10
74.566574
 20
28.454483
 30
0.0
 70
0
  0
VERTEX
  8
0
 10
97.566574
 20
28.454483
 30
0.0
 70
0
  0
VERTEX
  8
0
 10
98.566574
 20
29.454483
 30
0.0
 70
0
  0
VERTEX
  8
0
 10
98.566574
 20
112.454483
 30
0.0
 70
0
  0
VERTEX
  8
0
 10
97.566574
 20
113.454483
 30
0.0
 70
0
  0
VERTEX
  8
0
 10
74.566574
 20
113.454483
 30
0.0
 70
0
  0
VERTEX
  8
0
 10
73.566574
 20
112.454483
 30
0.0
 70
0
  0
VERTEX
  8
0
 10
73.566574
 20
60.954483
 30
0.0
 70
0
  0
SEQEND
  8
0
  0
POLYLINE
  8
0
 62
4
 66
1
 10
0.0
 20
0.0
 30
0.0
 70
2
  0
VERTEX
  8
0
 10
73.566574
 20
80.954483
 30
0.0
 70
0
  0
VERTEX
  8
0
 10
74.066574
 20
80.454483
 30
0.0
 70
0
  0
VERTEX
  8
0
 10
74.066574
 20
61.454483
 30
0.0
 70
0
  0
VERTEX
  8
0
 10
98.066574
 20
61.454483
 30
0.0
 70
0
  0
VERTEX
  8
0
 10
98.066574
 20
80.454483
 30
0.0
 70
0
  0
VERTEX
  8
0
 10
74.066574
 20
80.454483
 30
0.0
 70
0
  0
SEQEND
  8
0
  0
ARC
  8
0
 62
4
 10
151.20517
 20
70.954483
 30
0.0
 40
9.5
 50
108.4084803259778
 51
71.5915196740222
  0
POLYLINE
  8
0
 62
4
 66
1
 10
0.0
 20
0.0
 30
0.0
 70
2
  0
VERTEX
  8
0
 10
154.20517
 20
79.968361
 30
0.0
 70
0
  0
VERTEX
  8
0
 10
154.20517
 20
83.254486
 30
0.0
 70
0
  0
VERTEX
  8
0
 10
148.20517
 20
83.254486
 30
0.0
 70
0
  0
VERTEX
  8
0
 10
148.20517
 20
79.968361
 30
0.0
 70
0
  0
SEQEND
  8
0
  0
LINE
  8
0
 62
4
 10
73.566574
 20
83.254486
 30
0.0
 11
98.566574
 21
83.254486
 31
0.0
  0
ENDSEC
  0
EOF
