  0
SECTION
  2
ENTITIES
  0
LINE
  8
0
 62
4
 10
66.35598
 20
99.379074
 30
0.0
 11
96.35598
 21
99.379074
 31
0.0
  0
LINE
  8
0
 62
4
 10
66.35598
 20
31.879074
 30
0.0
 11
96.35598
 21
31.879074
 31
0.0
  0
LINE
  8
0
 62
4
 10
96.35598
 20
73.629074
 30
0.0
 11
95.85598
 21
73.129074
 31
0.0
  0
LINE
  8
0
 62
4
 10
96.35598
 20
57.629074
 30
0.0
 11
95.85598
 21
58.129074
 31
0.0
  0
LINE
  8
0
 62
4
 10
66.35598
 20
57.629074
 30
0.0
 11
66.85598
 21
58.129074
 31
0.0
  0
POLYLINE
  8
0
 62
4
 66
1
 10
0.0
 20
0.0
 30
0.0
 70
2
  0
VERTEX
  8
0
 10
66.35598
 20
57.629074
 30
0.0
 70
0
  0
VERTEX
  8
0
 10
66.35598
 20
26.129074
 30
0.0
 70
0
  0
VERTEX
  8
0
 10
67.35598
 20
25.129074
 30
0.0
 70
0
  0
VERTEX
  8
0
 10
95.35598
 20
25.129074
 30
0.0
 70
0
  0
VERTEX
  8
0
 10
96.35598
 20
26.129074
 30
0.0
 70
0
  0
VERTEX
  8
0
 10
96.35598
 20
105.129074
 30
0.0
 70
0
  0
VERTEX
  8
0
 10
95.35598
 20
106.129074
 30
0.0
 70
0
  0
VERTEX
  8
0
 10
67.35598
 20
106.129074
 30
0.0
 70
0
  0
VERTEX
  8
0
 10
66.35598
 20
105.129074
 30
0.0
 70
0
  0
VERTEX
  8
0
 10
66.35598
 20
57.629074
 30
0.0
 70
0
  0
SEQEND
  8
0
  0
POLYLINE
  8
0
 62
4
 66
1
 10
0.0
 20
0.0
 30
0.0
 70
2
  0
VERTEX
  8
0
 10
66.35598
 20
73.629074
 30
0.0
 70
0
  0
VERTEX
  8
0
 10
66.85598
 20
73.129074
 30
0.0
 70
0
  0
VERTEX
  8
0
 10
66.85598
 20
58.129074
 30
0.0
 70
0
  0
VERTEX
  8
0
 10
95.85598
 20
58.129074
 30
0.0
 70
0
  0
VERTEX
  8
0
 10
95.85598
 20
73.129074
 30
0.0
 70
0
  0
VERTEX
  8
0
 10
66.85598
 20
73.129074
 30
0.0
 70
0
  0
SEQEND
  8
0
  0
ARC
  8
0
 62
4
 10
144.209244
 20
65.629074
 30
0.0
 40
7.5
 50
109.47122094265586
 51
70.52877905734415
  0
POLYLINE
  8
0
 62
4
 66
1
 10
0.0
 20
0.0
 30
0.0
 70
2
  0
VERTEX
  8
0
 10
146.709244
 20
72.700142
 30
0.0
 70
0
  0
VERTEX
  8
0
 10
146.709244
 20
75.429077
 30
0.0
 70
0
  0
VERTEX
  8
0
 10
141.709244
 20
75.429077
 30
0.0
 70
0
  0
VERTEX
  8
0
 10
141.709244
 20
72.700142
 30
0.0
 70
0
  0
SEQEND
  8
0
  0
LINE
  8
0
 62
4
 10
66.35598
 20
75.429077
 30
0.0
 11
96.35598
 21
75.429077
 31
0.0
  0
ENDSEC
  0
EOF
