  0
SECTION
  2
ENTITIES
  0
LINE
  8
0
 62
4
 10
163.029892
 20
228.020386
 30
0.0
 11
193.029892
 21
228.020386
 31
0.0
  0
LINE
  8
0
 62
4
 10
163.029892
 20
70.520386
 30
0.0
 11
193.029892
 21
70.520386
 31
0.0
  0
LINE
  8
0
 62
4
 10
193.029892
 20
170.270386
 30
0.0
 11
192.029892
 21
169.270386
 31
0.0
  0
LINE
  8
0
 62
4
 10
193.029892
 20
128.270386
 30
0.0
 11
192.029892
 21
129.270386
 31
0.0
  0
LINE
  8
0
 62
4
 10
163.029892
 20
128.270386
 30
0.0
 11
164.029892
 21
129.270386
 31
0.0
  0
POLYLINE
  8
0
 62
4
 66
1
 10
0.0
 20
0.0
 30
0.0
 70
2
  0
VERTEX
  8
0
 10
163.029892
 20
128.270386
 30
0.0
 70
0
  0
VERTEX
  8
0
 10
163.029892
 20
64.770386
 30
0.0
 70
0
  0
VERTEX
  8
0
 10
164.029892
 20
63.770386
 30
0.0
 70
0
  0
VERTEX
  8
0
 10
192.029892
 20
63.770386
 30
0.0
 70
0
  0
VERTEX
  8
0
 10
193.029892
 20
64.770386
 30
0.0
 70
0
  0
VERTEX
  8
0
 10
193.029892
 20
233.770386
 30
0.0
 70
0
  0
VERTEX
  8
0
 10
192.029892
 20
234.770386
 30
0.0
 70
0
  0
VERTEX
  8
0
 10
164.029892
 20
234.770386
 30
0.0
 70
0
  0
VERTEX
  8
0
 10
163.029892
 20
233.770386
 30
0.0
 70
0
  0
VERTEX
  8
0
 10
163.029892
 20
128.270386
 30
0.0
 70
0
  0
SEQEND
  8
0
  0
POLYLINE
  8
0
 62
4
 66
1
 10
0.0
 20
0.0
 30
0.0
 70
2
  0
VERTEX
  8
0
 10
163.029892
 20
170.270386
 30
0.0
 70
0
  0
VERTEX
  8
0
 10
164.029892
 20
169.270386
 30
0.0
 70
0
  0
VERTEX
  8
0
 10
164.029892
 20
129.270386
 30
0.0
 70
0
  0
VERTEX
  8
0
 10
192.029892
 20
129.270386
 30
0.0
 70
0
  0
VERTEX
  8
0
 10
192.029892
 20
169.270386
 30
0.0
 70
0
  0
VERTEX
  8
0
 10
164.029892
 20
169.270386
 30
0.0
 70
0
  0
SEQEND
  8
0
  0
ARC
  8
0
 62
4
 10
302.296204
 20
149.270386
 30
0.0
 40
20.0
 50
107.45760274776076
 51
72.54239725223924
  0
POLYLINE
  8
0
 62
4
 66
1
 10
0.0
 20
0.0
 30
0.0
 70
2
  0
VERTEX
  8
0
 10
308.296204
 20
168.349167
 30
0.0
 70
0
  0
VERTEX
  8
0
 10
308.296204
 20
172.570389
 30
0.0
 70
0
  0
VERTEX
  8
0
 10
296.296204
 20
172.570389
 30
0.0
 70
0
  0
VERTEX
  8
0
 10
296.296204
 20
168.349167
 30
0.0
 70
0
  0
SEQEND
  8
0
  0
LINE
  8
0
 62
4
 10
163.029892
 20
172.570389
 30
0.0
 11
193.029892
 21
172.570389
 31
0.0
  0
ENDSEC
  0
EOF
