  0
SECTION
  2
ENTITIES
  0
LINE
  8
0
 62
4
 10
32.464672
 20
56.498642
 30
0.0
 11
62.464672
 21
56.498642
 31
0.0
  0
LINE
  8
0
 62
4
 10
32.464672
 20
18.998642
 30
0.0
 11
62.464672
 21
18.998642
 31
0.0
  0
LINE
  8
0
 62
4
 10
62.464672
 20
44.248642
 30
0.0
 11
61.964672
 21
43.748642
 31
0.0
  0
LINE
  8
0
 62
4
 10
62.464672
 20
31.248642
 30
0.0
 11
61.964672
 21
31.748642
 31
0.0
  0
LINE
  8
0
 62
4
 10
32.464672
 20
31.248642
 30
0.0
 11
32.964672
 21
31.748642
 31
0.0
  0
POLYLINE
  8
0
 62
4
 66
1
 10
0.0
 20
0.0
 30
0.0
 70
2
  0
VERTEX
  8
0
 10
32.464672
 20
31.248642
 30
0.0
 70
0
  0
VERTEX
  8
0
 10
32.464672
 20
13.248642
 30
0.0
 70
0
  0
VERTEX
  8
0
 10
33.464672
 20
12.248642
 30
0.0
 70
0
  0
VERTEX
  8
0
 10
61.464672
 20
12.248642
 30
0.0
 70
0
  0
VERTEX
  8
0
 10
62.464672
 20
13.248642
 30
0.0
 70
0
  0
VERTEX
  8
0
 10
62.464672
 20
62.248642
 30
0.0
 70
0
  0
VERTEX
  8
0
 10
61.464672
 20
63.248642
 30
0.0
 70
0
  0
VERTEX
  8
0
 10
33.464672
 20
63.248642
 30
0.0
 70
0
  0
VERTEX
  8
0
 10
32.464672
 20
62.248642
 30
0.0
 70
0
  0
VERTEX
  8
0
 10
32.464672
 20
31.248642
 30
0.0
 70
0
  0
SEQEND
  8
0
  0
POLYLINE
  8
0
 62
4
 66
1
 10
0.0
 20
0.0
 30
0.0
 70
2
  0
VERTEX
  8
0
 10
32.464672
 20
44.248642
 30
0.0
 70
0
  0
VERTEX
  8
0
 10
32.964672
 20
43.748642
 30
0.0
 70
0
  0
VERTEX
  8
0
 10
32.964672
 20
31.748642
 30
0.0
 70
0
  0
VERTEX
  8
0
 10
61.964672
 20
31.748642
 30
0.0
 70
0
  0
VERTEX
  8
0
 10
61.964672
 20
43.748642
 30
0.0
 70
0
  0
VERTEX
  8
0
 10
32.964672
 20
43.748642
 30
0.0
 70
0
  0
SEQEND
  8
0
  0
ARC
  8
0
 62
4
 10
92.51358
 20
37.748642
 30
0.0
 40
6.0
 50
109.47122094265586
 51
70.52877905734415
  0
POLYLINE
  8
0
 62
4
 66
1
 10
0.0
 20
0.0
 30
0.0
 70
2
  0
VERTEX
  8
0
 10
94.51358
 20
43.405495
 30
0.0
 70
0
  0
VERTEX
  8
0
 10
94.51358
 20
45.548641
 30
0.0
 70
0
  0
VERTEX
  8
0
 10
90.51358
 20
45.548641
 30
0.0
 70
0
  0
VERTEX
  8
0
 10
90.51358
 20
43.405495
 30
0.0
 70
0
  0
SEQEND
  8
0
  0
LINE
  8
0
 62
4
 10
32.464672
 20
45.548641
 30
0.0
 11
62.464672
 21
45.548641
 31
0.0
  0
ENDSEC
  0
EOF
