  0
SECTION
  2
ENTITIES
  0
LINE
  8
0
 62
4
 10
218.866852
 20
292.341034
 30
0.0
 11
248.866852
 21
292.341034
 31
0.0
  0
LINE
  8
0
 62
4
 10
218.866852
 20
89.841034
 30
0.0
 11
248.866852
 21
89.841034
 31
0.0
  0
LINE
  8
0
 62
4
 10
248.866852
 20
207.091034
 30
0.0
 11
247.866852
 21
206.091034
 31
0.0
  0
LINE
  8
0
 62
4
 10
248.866852
 20
175.091034
 30
0.0
 11
247.866852
 21
176.091034
 31
0.0
  0
LINE
  8
0
 62
4
 10
218.866852
 20
175.091034
 30
0.0
 11
219.866852
 21
176.091034
 31
0.0
  0
POLYLINE
  8
0
 62
4
 66
1
 10
0.0
 20
0.0
 30
0.0
 70
2
  0
VERTEX
  8
0
 10
218.866852
 20
175.091034
 30
0.0
 70
0
  0
VERTEX
  8
0
 10
218.866852
 20
84.091034
 30
0.0
 70
0
  0
VERTEX
  8
0
 10
219.866852
 20
83.091034
 30
0.0
 70
0
  0
VERTEX
  8
0
 10
247.866852
 20
83.091034
 30
0.0
 70
0
  0
VERTEX
  8
0
 10
248.866852
 20
84.091034
 30
0.0
 70
0
  0
VERTEX
  8
0
 10
248.866852
 20
298.091034
 30
0.0
 70
0
  0
VERTEX
  8
0
 10
247.866852
 20
299.091034
 30
0.0
 70
0
  0
VERTEX
  8
0
 10
219.866852
 20
299.091034
 30
0.0
 70
0
  0
VERTEX
  8
0
 10
218.866852
 20
298.091034
 30
0.0
 70
0
  0
VERTEX
  8
0
 10
218.866852
 20
175.091034
 30
0.0
 70
0
  0
SEQEND
  8
0
  0
POLYLINE
  8
0
 62
4
 66
1
 10
0.0
 20
0.0
 30
0.0
 70
2
  0
VERTEX
  8
0
 10
218.866852
 20
207.091034
 30
0.0
 70
0
  0
VERTEX
  8
0
 10
219.866852
 20
206.091034
 30
0.0
 70
0
  0
VERTEX
  8
0
 10
219.866852
 20
176.091034
 30
0.0
 70
0
  0
VERTEX
  8
0
 10
247.866852
 20
176.091034
 30
0.0
 70
0
  0
VERTEX
  8
0
 10
247.866852
 20
206.091034
 30
0.0
 70
0
  0
VERTEX
  8
0
 10
219.866852
 20
206.091034
 30
0.0
 70
0
  0
SEQEND
  8
0
  0
ARC
  8
0
 62
4
 10
377.589661
 20
191.091034
 30
0.0
 40
15.0
 50
105.46601032289746
 51
74.53398967710255
  0
POLYLINE
  8
0
 62
4
 66
1
 10
0.0
 20
0.0
 30
0.0
 70
2
  0
VERTEX
  8
0
 10
381.589661
 20
205.547867
 30
0.0
 70
0
  0
VERTEX
  8
0
 10
381.589661
 20
209.391037
 30
0.0
 70
0
  0
VERTEX
  8
0
 10
373.589661
 20
209.391037
 30
0.0
 70
0
  0
VERTEX
  8
0
 10
373.589661
 20
205.547867
 30
0.0
 70
0
  0
SEQEND
  8
0
  0
LINE
  8
0
 62
4
 10
218.866852
 20
209.391037
 30
0.0
 11
248.866852
 21
209.391037
 31
0.0
  0
ENDSEC
  0
EOF
