  0
SECTION
  2
ENTITIES
  0
LINE
  8
0
 62
4
 10
99.236412
 20
146.547546
 30
0.0
 11
129.23642
 21
146.547546
 31
0.0
  0
LINE
  8
0
 62
4
 10
99.236412
 20
46.047546
 30
0.0
 11
129.23642
 21
46.047546
 31
0.0
  0
LINE
  8
0
 62
4
 10
129.23642
 20
113.297546
 30
0.0
 11
128.23642
 21
112.297546
 31
0.0
  0
LINE
  8
0
 62
4
 10
129.23642
 20
79.297546
 30
0.0
 11
128.23642
 21
80.297546
 31
0.0
  0
LINE
  8
0
 62
4
 10
99.236412
 20
79.297546
 30
0.0
 11
100.236412
 21
80.297546
 31
0.0
  0
POLYLINE
  8
0
 62
4
 66
1
 10
0.0
 20
0.0
 30
0.0
 70
2
  0
VERTEX
  8
0
 10
99.236412
 20
79.297546
 30
0.0
 70
0
  0
VERTEX
  8
0
 10
99.236412
 20
40.297546
 30
0.0
 70
0
  0
VERTEX
  8
0
 10
100.236412
 20
39.297546
 30
0.0
 70
0
  0
VERTEX
  8
0
 10
128.23642
 20
39.297546
 30
0.0
 70
0
  0
VERTEX
  8
0
 10
129.23642
 20
40.297546
 30
0.0
 70
0
  0
VERTEX
  8
0
 10
129.23642
 20
152.297546
 30
0.0
 70
0
  0
VERTEX
  8
0
 10
128.23642
 20
153.297546
 30
0.0
 70
0
  0
VERTEX
  8
0
 10
100.236412
 20
153.297546
 30
0.0
 70
0
  0
VERTEX
  8
0
 10
99.236412
 20
152.297546
 30
0.0
 70
0
  0
VERTEX
  8
0
 10
99.236412
 20
79.297546
 30
0.0
 70
0
  0
SEQEND
  8
0
  0
POLYLINE
  8
0
 62
4
 66
1
 10
0.0
 20
0.0
 30
0.0
 70
2
  0
VERTEX
  8
0
 10
99.236412
 20
113.297546
 30
0.0
 70
0
  0
VERTEX
  8
0
 10
100.236412
 20
112.297546
 30
0.0
 70
0
  0
VERTEX
  8
0
 10
100.236412
 20
80.297546
 30
0.0
 70
0
  0
VERTEX
  8
0
 10
128.23642
 20
80.297546
 30
0.0
 70
0
  0
VERTEX
  8
0
 10
128.23642
 20
112.297546
 30
0.0
 70
0
  0
VERTEX
  8
0
 10
100.236412
 20
112.297546
 30
0.0
 70
0
  0
SEQEND
  8
0
  0
ARC
  8
0
 62
4
 10
203.524445
 20
96.297546
 30
0.0
 40
16.0
 50
108.20995732853793
 51
71.79004267146207
  0
POLYLINE
  8
0
 62
4
 66
1
 10
0.0
 20
0.0
 30
0.0
 70
2
  0
VERTEX
  8
0
 10
208.524445
 20
111.496231
 30
0.0
 70
0
  0
VERTEX
  8
0
 10
208.524445
 20
115.597549
 30
0.0
 70
0
  0
VERTEX
  8
0
 10
198.524445
 20
115.597549
 30
0.0
 70
0
  0
VERTEX
  8
0
 10
198.524445
 20
111.496231
 30
0.0
 70
0
  0
SEQEND
  8
0
  0
LINE
  8
0
 62
4
 10
99.236412
 20
115.597549
 30
0.0
 11
129.23642
 21
115.597549
 31
0.0
  0
ENDSEC
  0
EOF
