  0
SECTION
  2
ENTITIES
  0
LINE
  8
0
 62
4
 10
79.801628
 20
120.81929
 30
0.0
 11
109.801628
 21
120.81929
 31
0.0
  0
LINE
  8
0
 62
4
 10
79.801628
 20
38.31929
 30
0.0
 11
109.801628
 21
38.31929
 31
0.0
  0
LINE
  8
0
 62
4
 10
109.801628
 20
94.56929
 30
0.0
 11
108.801628
 21
93.56929
 31
0.0
  0
LINE
  8
0
 62
4
 10
109.801628
 20
64.56929
 30
0.0
 11
108.801628
 21
65.56929
 31
0.0
  0
LINE
  8
0
 62
4
 10
79.801628
 20
64.56929
 30
0.0
 11
80.801628
 21
65.56929
 31
0.0
  0
POLYLINE
  8
0
 62
4
 66
1
 10
0.0
 20
0.0
 30
0.0
 70
2
  0
VERTEX
  8
0
 10
79.801628
 20
64.56929
 30
0.0
 70
0
  0
VERTEX
  8
0
 10
79.801628
 20
32.56929
 30
0.0
 70
0
  0
VERTEX
  8
0
 10
80.801628
 20
31.56929
 30
0.0
 70
0
  0
VERTEX
  8
0
 10
108.801628
 20
31.56929
 30
0.0
 70
0
  0
VERTEX
  8
0
 10
109.801628
 20
32.56929
 30
0.0
 70
0
  0
VERTEX
  8
0
 10
109.801628
 20
126.56929
 30
0.0
 70
0
  0
VERTEX
  8
0
 10
108.801628
 20
127.56929
 30
0.0
 70
0
  0
VERTEX
  8
0
 10
80.801628
 20
127.56929
 30
0.0
 70
0
  0
VERTEX
  8
0
 10
79.801628
 20
126.56929
 30
0.0
 70
0
  0
VERTEX
  8
0
 10
79.801628
 20
64.56929
 30
0.0
 70
0
  0
SEQEND
  8
0
  0
POLYLINE
  8
0
 62
4
 66
1
 10
0.0
 20
0.0
 30
0.0
 70
2
  0
VERTEX
  8
0
 10
79.801628
 20
94.56929
 30
0.0
 70
0
  0
VERTEX
  8
0
 10
80.801628
 20
93.56929
 30
0.0
 70
0
  0
VERTEX
  8
0
 10
80.801628
 20
65.56929
 30
0.0
 70
0
  0
VERTEX
  8
0
 10
108.801628
 20
65.56929
 30
0.0
 70
0
  0
VERTEX
  8
0
 10
108.801628
 20
93.56929
 30
0.0
 70
0
  0
VERTEX
  8
0
 10
80.801628
 20
93.56929
 30
0.0
 70
0
  0
SEQEND
  8
0
  0
ARC
  8
0
 62
4
 10
172.307068
 20
79.56929
 30
0.0
 40
14.0
 50
106.60154992625478
 51
73.39845007374521
  0
POLYLINE
  8
0
 62
4
 66
1
 10
0.0
 20
0.0
 30
0.0
 70
2
  0
VERTEX
  8
0
 10
176.307068
 20
92.985695
 30
0.0
 70
0
  0
VERTEX
  8
0
 10
176.307068
 20
96.869293
 30
0.0
 70
0
  0
VERTEX
  8
0
 10
168.307068
 20
96.869293
 30
0.0
 70
0
  0
VERTEX
  8
0
 10
168.307068
 20
92.985695
 30
0.0
 70
0
  0
SEQEND
  8
0
  0
LINE
  8
0
 62
4
 10
79.801628
 20
96.869293
 30
0.0
 11
109.801628
 21
96.869293
 31
0.0
  0
ENDSEC
  0
EOF
