  0
SECTION
  2
ENTITIES
  0
LINE
  8
0
 62
4
 10
110.934776
 20
129.994568
 30
0.0
 11
125.934776
 21
129.994568
 31
0.0
  0
LINE
  8
0
 62
4
 10
110.934776
 20
93.244568
 30
0.0
 11
125.934776
 21
93.244568
 31
0.0
  0
LINE
  8
0
 62
4
 10
139.434784
 20
104.119568
 30
0.0
 11
139.934784
 21
103.619568
 31
0.0
  0
LINE
  8
0
 62
4
 10
139.434784
 20
119.119568
 30
0.0
 11
139.934784
 21
119.619568
 31
0.0
  0
LINE
  8
0
 62
4
 10
111.434776
 20
119.119568
 30
0.0
 11
111.434776
 21
104.119568
 31
0.0
  0
POLYLINE
  8
0
 62
4
 66
1
 10
0.0
 20
0.0
 30
0.0
 70
2
  0
VERTEX
  8
0
 10
110.934776
 20
103.619568
 30
0.0
 70
0
  0
VERTEX
  8
0
 10
111.434776
 20
104.119568
 30
0.0
 70
0
  0
VERTEX
  8
0
 10
139.434784
 20
104.119568
 30
0.0
 70
0
  0
VERTEX
  8
0
 10
139.434784
 20
119.119568
 30
0.0
 70
0
  0
VERTEX
  8
0
 10
111.434776
 20
119.119568
 30
0.0
 70
0
  0
VERTEX
  8
0
 10
110.934776
 20
119.619568
 30
0.0
 70
0
  0
SEQEND
  8
0
  0
ARC
  8
0
 62
4
 10
126.934776
 20
129.619568
 30
0.0
 40
1.0
 50
180.0
 51
270.0
  0
ARC
  8
0
 62
4
 10
126.934776
 20
93.619568
 30
0.0
 40
1.0
 50
90.0
 51
180.0
  0
POLYLINE
  8
0
 62
4
 66
1
 10
0.0
 20
0.0
 30
0.0
 70
2
  0
VERTEX
  8
0
 10
110.934776
 20
103.619568
 30
0.0
 70
0
  0
VERTEX
  8
0
 10
110.934776
 20
90.369568
 30
0.0
 70
0
  0
VERTEX
  8
0
 10
111.434776
 20
89.869568
 30
0.0
 70
0
  0
VERTEX
  8
0
 10
125.434776
 20
89.869568
 30
0.0
 70
0
  0
VERTEX
  8
0
 10
125.934776
 20
90.369568
 30
0.0
 70
0
  0
VERTEX
  8
0
 10
125.934776
 20
93.619568
 30
0.0
 70
0
  0
SEQEND
  8
0
  0
POLYLINE
  8
0
 62
4
 66
1
 10
0.0
 20
0.0
 30
0.0
 70
2
  0
VERTEX
  8
0
 10
126.934776
 20
94.619568
 30
0.0
 70
0
  0
VERTEX
  8
0
 10
139.434784
 20
94.619568
 30
0.0
 70
0
  0
VERTEX
  8
0
 10
139.934784
 20
95.119568
 30
0.0
 70
0
  0
VERTEX
  8
0
 10
139.934784
 20
128.119568
 30
0.0
 70
0
  0
VERTEX
  8
0
 10
139.434784
 20
128.619568
 30
0.0
 70
0
  0
VERTEX
  8
0
 10
126.934776
 20
128.619568
 30
0.0
 70
0
  0
SEQEND
  8
0
  0
POLYLINE
  8
0
 62
4
 66
1
 10
0.0
 20
0.0
 30
0.0
 70
2
  0
VERTEX
  8
0
 10
125.934776
 20
129.619568
 30
0.0
 70
0
  0
VERTEX
  8
0
 10
125.934776
 20
132.869568
 30
0.0
 70
0
  0
VERTEX
  8
0
 10
125.434776
 20
133.369568
 30
0.0
 70
0
  0
VERTEX
  8
0
 10
111.434776
 20
133.369568
 30
0.0
 70
0
  0
VERTEX
  8
0
 10
110.934776
 20
132.869568
 30
0.0
 70
0
  0
VERTEX
  8
0
 10
110.934776
 20
103.619568
 30
0.0
 70
0
  0
SEQEND
  8
0
  0
ENDSEC
  0
EOF
