  0
SECTION
  2
ENTITIES
  0
LINE
  8
0
 62
4
 10
61.630432
 20
70.760872
 30
0.0
 11
69.630432
 21
70.760872
 31
0.0
  0
LINE
  8
0
 62
4
 10
61.630432
 20
53.260872
 30
0.0
 11
69.630432
 21
53.260872
 31
0.0
  0
LINE
  8
0
 62
4
 10
79.130432
 20
58.010872
 30
0.0
 11
79.630432
 21
57.510872
 31
0.0
  0
LINE
  8
0
 62
4
 10
79.130432
 20
66.010872
 30
0.0
 11
79.630432
 21
66.510872
 31
0.0
  0
LINE
  8
0
 62
4
 10
62.130432
 20
66.010872
 30
0.0
 11
62.130432
 21
58.010872
 31
0.0
  0
POLYLINE
  8
0
 62
4
 66
1
 10
0.0
 20
0.0
 30
0.0
 70
2
  0
VERTEX
  8
0
 10
61.630432
 20
57.510872
 30
0.0
 70
0
  0
VERTEX
  8
0
 10
62.130432
 20
58.010872
 30
0.0
 70
0
  0
VERTEX
  8
0
 10
79.130432
 20
58.010872
 30
0.0
 70
0
  0
VERTEX
  8
0
 10
79.130432
 20
66.010872
 30
0.0
 70
0
  0
VERTEX
  8
0
 10
62.130432
 20
66.010872
 30
0.0
 70
0
  0
VERTEX
  8
0
 10
61.630432
 20
66.510872
 30
0.0
 70
0
  0
SEQEND
  8
0
  0
ARC
  8
0
 62
4
 10
70.630432
 20
71.510872
 30
0.0
 40
1.0
 50
180.0
 51
270.0
  0
ARC
  8
0
 62
4
 10
70.630432
 20
52.510872
 30
0.0
 40
1.0
 50
90.0
 51
180.0
  0
POLYLINE
  8
0
 62
4
 66
1
 10
0.0
 20
0.0
 30
0.0
 70
2
  0
VERTEX
  8
0
 10
77.130432
 20
70.510872
 30
0.0
 70
0
  0
VERTEX
  8
0
 10
77.130432
 20
66.010872
 30
0.0
 70
0
  0
SEQEND
  8
0
  0
POLYLINE
  8
0
 62
4
 66
1
 10
0.0
 20
0.0
 30
0.0
 70
2
  0
VERTEX
  8
0
 10
72.130432
 20
70.510872
 30
0.0
 70
0
  0
VERTEX
  8
0
 10
72.130432
 20
66.010872
 30
0.0
 70
0
  0
SEQEND
  8
0
  0
POLYLINE
  8
0
 62
4
 66
1
 10
0.0
 20
0.0
 30
0.0
 70
2
  0
VERTEX
  8
0
 10
76.695435
 20
70.510872
 30
0.0
 70
0
  0
VERTEX
  8
0
 10
76.695435
 20
66.010872
 30
0.0
 70
0
  0
SEQEND
  8
0
  0
POLYLINE
  8
0
 62
4
 66
1
 10
0.0
 20
0.0
 30
0.0
 70
2
  0
VERTEX
  8
0
 10
72.56543
 20
70.510872
 30
0.0
 70
0
  0
VERTEX
  8
0
 10
72.56543
 20
66.010872
 30
0.0
 70
0
  0
SEQEND
  8
0
  0
POLYLINE
  8
0
 62
4
 66
1
 10
0.0
 20
0.0
 30
0.0
 70
2
  0
VERTEX
  8
0
 10
144.978256
 20
65.133369
 30
0.0
 70
0
  0
VERTEX
  8
0
 10
144.978256
 20
70.134911
 30
0.0
 70
0
  0
SEQEND
  8
0
  0
POLYLINE
  8
0
 62
4
 66
1
 10
0.0
 20
0.0
 30
0.0
 70
2
  0
VERTEX
  8
0
 10
149.978256
 20
65.133369
 30
0.0
 70
0
  0
VERTEX
  8
0
 10
149.978256
 20
70.134911
 30
0.0
 70
0
  0
SEQEND
  8
0
  0
POLYLINE
  8
0
 62
4
 66
1
 10
0.0
 20
0.0
 30
0.0
 70
2
  0
VERTEX
  8
0
 10
145.413254
 20
65.436623
 30
0.0
 70
0
  0
VERTEX
  8
0
 10
145.413254
 20
70.256218
 30
0.0
 70
0
  0
SEQEND
  8
0
  0
POLYLINE
  8
0
 62
4
 66
1
 10
0.0
 20
0.0
 30
0.0
 70
2
  0
VERTEX
  8
0
 10
149.543259
 20
65.436623
 30
0.0
 70
0
  0
VERTEX
  8
0
 10
149.543259
 20
70.256218
 30
0.0
 70
0
  0
SEQEND
  8
0
  0
POLYLINE
  8
0
 62
4
 66
1
 10
0.0
 20
0.0
 30
0.0
 70
2
  0
VERTEX
  8
0
 10
61.630432
 20
57.510872
 30
0.0
 70
0
  0
VERTEX
  8
0
 10
61.630432
 20
51.510872
 30
0.0
 70
0
  0
VERTEX
  8
0
 10
62.130432
 20
51.010872
 30
0.0
 70
0
  0
VERTEX
  8
0
 10
69.130432
 20
51.010872
 30
0.0
 70
0
  0
VERTEX
  8
0
 10
69.630432
 20
51.510872
 30
0.0
 70
0
  0
VERTEX
  8
0
 10
69.630432
 20
52.510872
 30
0.0
 70
0
  0
SEQEND
  8
0
  0
POLYLINE
  8
0
 62
4
 66
1
 10
0.0
 20
0.0
 30
0.0
 70
2
  0
VERTEX
  8
0
 10
70.630432
 20
53.510872
 30
0.0
 70
0
  0
VERTEX
  8
0
 10
79.130432
 20
53.510872
 30
0.0
 70
0
  0
VERTEX
  8
0
 10
79.630432
 20
54.010872
 30
0.0
 70
0
  0
VERTEX
  8
0
 10
79.630432
 20
70.010872
 30
0.0
 70
0
  0
VERTEX
  8
0
 10
79.130432
 20
70.510872
 30
0.0
 70
0
  0
VERTEX
  8
0
 10
70.630432
 20
70.510872
 30
0.0
 70
0
  0
SEQEND
  8
0
  0
POLYLINE
  8
0
 62
4
 66
1
 10
0.0
 20
0.0
 30
0.0
 70
2
  0
VERTEX
  8
0
 10
69.630432
 20
71.510872
 30
0.0
 70
0
  0
VERTEX
  8
0
 10
69.630432
 20
72.510872
 30
0.0
 70
0
  0
VERTEX
  8
0
 10
69.130432
 20
73.010872
 30
0.0
 70
0
  0
VERTEX
  8
0
 10
62.130432
 20
73.010872
 30
0.0
 70
0
  0
VERTEX
  8
0
 10
61.630432
 20
72.510872
 30
0.0
 70
0
  0
VERTEX
  8
0
 10
61.630432
 20
57.510872
 30
0.0
 70
0
  0
SEQEND
  8
0
  0
CIRCLE
  8
0
 62
4
 10
147.478256
 20
62.010872
 30
0.0
 40
4.0
  0
CIRCLE
  8
0
 62
4
 10
147.478256
 20
62.010872
 30
0.0
 40
8.5
  0
ENDSEC
  0
EOF
