  0
SECTION
  2
ENTITIES
  0
LINE
  8
0
 62
4
 10
102.130432
 20
136.510864
 30
0.0
 11
110.130432
 21
136.510864
 31
0.0
  0
LINE
  8
0
 62
4
 10
102.130432
 20
69.010872
 30
0.0
 11
110.130432
 21
69.010872
 31
0.0
  0
LINE
  8
0
 62
4
 10
119.630432
 20
96.760872
 30
0.0
 11
120.130432
 21
96.260872
 31
0.0
  0
LINE
  8
0
 62
4
 10
119.630432
 20
108.760872
 30
0.0
 11
120.130432
 21
109.260872
 31
0.0
  0
LINE
  8
0
 62
4
 10
102.630432
 20
108.760872
 30
0.0
 11
102.630432
 21
96.760872
 31
0.0
  0
POLYLINE
  8
0
 62
4
 66
1
 10
0.0
 20
0.0
 30
0.0
 70
2
  0
VERTEX
  8
0
 10
102.130432
 20
96.260872
 30
0.0
 70
0
  0
VERTEX
  8
0
 10
102.630432
 20
96.760872
 30
0.0
 70
0
  0
VERTEX
  8
0
 10
119.630432
 20
96.760872
 30
0.0
 70
0
  0
VERTEX
  8
0
 10
119.630432
 20
108.760872
 30
0.0
 70
0
  0
VERTEX
  8
0
 10
102.630432
 20
108.760872
 30
0.0
 70
0
  0
VERTEX
  8
0
 10
102.130432
 20
109.260872
 30
0.0
 70
0
  0
SEQEND
  8
0
  0
ARC
  8
0
 62
4
 10
111.130432
 20
123.760872
 30
0.0
 40
1.0
 50
180.0
 51
270.0
  0
ARC
  8
0
 62
4
 10
111.130432
 20
81.760872
 30
0.0
 40
1.0
 50
90.0
 51
180.0
  0
POLYLINE
  8
0
 62
4
 66
1
 10
0.0
 20
0.0
 30
0.0
 70
2
  0
VERTEX
  8
0
 10
102.130432
 20
96.260872
 30
0.0
 70
0
  0
VERTEX
  8
0
 10
102.130432
 20
67.260872
 30
0.0
 70
0
  0
VERTEX
  8
0
 10
102.630432
 20
66.760872
 30
0.0
 70
0
  0
VERTEX
  8
0
 10
109.630432
 20
66.760872
 30
0.0
 70
0
  0
VERTEX
  8
0
 10
110.130432
 20
67.260872
 30
0.0
 70
0
  0
VERTEX
  8
0
 10
110.130432
 20
81.760872
 30
0.0
 70
0
  0
SEQEND
  8
0
  0
POLYLINE
  8
0
 62
4
 66
1
 10
0.0
 20
0.0
 30
0.0
 70
2
  0
VERTEX
  8
0
 10
111.130432
 20
82.760872
 30
0.0
 70
0
  0
VERTEX
  8
0
 10
119.630432
 20
82.760872
 30
0.0
 70
0
  0
VERTEX
  8
0
 10
120.130432
 20
83.260872
 30
0.0
 70
0
  0
VERTEX
  8
0
 10
120.130432
 20
122.260872
 30
0.0
 70
0
  0
VERTEX
  8
0
 10
119.630432
 20
122.760872
 30
0.0
 70
0
  0
VERTEX
  8
0
 10
111.130432
 20
122.760872
 30
0.0
 70
0
  0
SEQEND
  8
0
  0
POLYLINE
  8
0
 62
4
 66
1
 10
0.0
 20
0.0
 30
0.0
 70
2
  0
VERTEX
  8
0
 10
110.130432
 20
123.760872
 30
0.0
 70
0
  0
VERTEX
  8
0
 10
110.130432
 20
138.260864
 30
0.0
 70
0
  0
VERTEX
  8
0
 10
109.630432
 20
138.760864
 30
0.0
 70
0
  0
VERTEX
  8
0
 10
102.630432
 20
138.760864
 30
0.0
 70
0
  0
VERTEX
  8
0
 10
102.130432
 20
138.260864
 30
0.0
 70
0
  0
VERTEX
  8
0
 10
102.130432
 20
96.260872
 30
0.0
 70
0
  0
SEQEND
  8
0
  0
ENDSEC
  0
EOF
