  0
SECTION
  2
ENTITIES
  0
LINE
  8
0
 62
4
 10
84.521736
 20
104.793472
 30
0.0
 11
92.521736
 21
104.793472
 31
0.0
  0
LINE
  8
0
 62
4
 10
84.521736
 20
65.293472
 30
0.0
 11
92.521736
 21
65.293472
 31
0.0
  0
LINE
  8
0
 62
4
 10
102.021736
 20
80.043472
 30
0.0
 11
102.521736
 21
79.543472
 31
0.0
  0
LINE
  8
0
 62
4
 10
102.021736
 20
90.043472
 30
0.0
 11
102.521736
 21
90.543472
 31
0.0
  0
LINE
  8
0
 62
4
 10
85.021736
 20
90.043472
 30
0.0
 11
85.021736
 21
80.043472
 31
0.0
  0
POLYLINE
  8
0
 62
4
 66
1
 10
0.0
 20
0.0
 30
0.0
 70
2
  0
VERTEX
  8
0
 10
84.521736
 20
79.543472
 30
0.0
 70
0
  0
VERTEX
  8
0
 10
85.021736
 20
80.043472
 30
0.0
 70
0
  0
VERTEX
  8
0
 10
102.021736
 20
80.043472
 30
0.0
 70
0
  0
VERTEX
  8
0
 10
102.021736
 20
90.043472
 30
0.0
 70
0
  0
VERTEX
  8
0
 10
85.021736
 20
90.043472
 30
0.0
 70
0
  0
VERTEX
  8
0
 10
84.521736
 20
90.543472
 30
0.0
 70
0
  0
SEQEND
  8
0
  0
ARC
  8
0
 62
4
 10
93.521736
 20
101.043472
 30
0.0
 40
1.0
 50
180.0
 51
270.0
  0
ARC
  8
0
 62
4
 10
93.521736
 20
69.043472
 30
0.0
 40
1.0
 50
90.0
 51
180.0
  0
POLYLINE
  8
0
 62
4
 66
1
 10
0.0
 20
0.0
 30
0.0
 70
2
  0
VERTEX
  8
0
 10
84.521736
 20
79.543472
 30
0.0
 70
0
  0
VERTEX
  8
0
 10
84.521736
 20
63.543472
 30
0.0
 70
0
  0
VERTEX
  8
0
 10
85.021736
 20
63.043472
 30
0.0
 70
0
  0
VERTEX
  8
0
 10
92.021736
 20
63.043472
 30
0.0
 70
0
  0
VERTEX
  8
0
 10
92.521736
 20
63.543472
 30
0.0
 70
0
  0
VERTEX
  8
0
 10
92.521736
 20
69.043472
 30
0.0
 70
0
  0
SEQEND
  8
0
  0
POLYLINE
  8
0
 62
4
 66
1
 10
0.0
 20
0.0
 30
0.0
 70
2
  0
VERTEX
  8
0
 10
93.521736
 20
70.043472
 30
0.0
 70
0
  0
VERTEX
  8
0
 10
102.021736
 20
70.043472
 30
0.0
 70
0
  0
VERTEX
  8
0
 10
102.521736
 20
70.543472
 30
0.0
 70
0
  0
VERTEX
  8
0
 10
102.521736
 20
99.543472
 30
0.0
 70
0
  0
VERTEX
  8
0
 10
102.021736
 20
100.043472
 30
0.0
 70
0
  0
VERTEX
  8
0
 10
93.521736
 20
100.043472
 30
0.0
 70
0
  0
SEQEND
  8
0
  0
POLYLINE
  8
0
 62
4
 66
1
 10
0.0
 20
0.0
 30
0.0
 70
2
  0
VERTEX
  8
0
 10
92.521736
 20
101.043472
 30
0.0
 70
0
  0
VERTEX
  8
0
 10
92.521736
 20
106.543472
 30
0.0
 70
0
  0
VERTEX
  8
0
 10
92.021736
 20
107.043472
 30
0.0
 70
0
  0
VERTEX
  8
0
 10
85.021736
 20
107.043472
 30
0.0
 70
0
  0
VERTEX
  8
0
 10
84.521736
 20
106.543472
 30
0.0
 70
0
  0
VERTEX
  8
0
 10
84.521736
 20
79.543472
 30
0.0
 70
0
  0
SEQEND
  8
0
  0
ENDSEC
  0
EOF
