  0
SECTION
  2
ENTITIES
  0
LINE
  8
0
 62
4
 10
174.32608
 20
241.027176
 30
0.0
 11
189.32608
 21
241.027176
 31
0.0
  0
LINE
  8
0
 62
4
 10
174.32608
 20
109.777176
 30
0.0
 11
189.32608
 21
109.777176
 31
0.0
  0
LINE
  8
0
 62
4
 10
202.32608
 20
162.902176
 30
0.0
 11
203.32608
 21
161.902176
 31
0.0
  0
LINE
  8
0
 62
4
 10
202.32608
 20
187.902176
 30
0.0
 11
203.32608
 21
188.902176
 31
0.0
  0
LINE
  8
0
 62
4
 10
175.32608
 20
187.902176
 30
0.0
 11
175.32608
 21
162.902176
 31
0.0
  0
POLYLINE
  8
0
 62
4
 66
1
 10
0.0
 20
0.0
 30
0.0
 70
2
  0
VERTEX
  8
0
 10
174.32608
 20
161.902176
 30
0.0
 70
0
  0
VERTEX
  8
0
 10
175.32608
 20
162.902176
 30
0.0
 70
0
  0
VERTEX
  8
0
 10
202.32608
 20
162.902176
 30
0.0
 70
0
  0
VERTEX
  8
0
 10
202.32608
 20
187.902176
 30
0.0
 70
0
  0
VERTEX
  8
0
 10
175.32608
 20
187.902176
 30
0.0
 70
0
  0
VERTEX
  8
0
 10
174.32608
 20
188.902176
 30
0.0
 70
0
  0
SEQEND
  8
0
  0
ARC
  8
0
 62
4
 10
190.82608
 20
211.902176
 30
0.0
 40
1.5
 50
180.0
 51
270.0
  0
ARC
  8
0
 62
4
 10
190.82608
 20
138.902176
 30
0.0
 40
1.5
 50
90.0
 51
180.0
  0
ARC
  8
0
 62
4
 10
406.195648
 20
175.402176
 30
0.0
 40
12.5
 50
108.66292518454978
 51
71.33707481545021
  0
POLYLINE
  8
0
 62
4
 66
1
 10
0.0
 20
0.0
 30
0.0
 70
2
  0
VERTEX
  8
0
 10
410.195648
 20
187.244888
 30
0.0
 70
0
  0
VERTEX
  8
0
 10
410.195648
 20
191.202179
 30
0.0
 70
0
  0
VERTEX
  8
0
 10
402.195648
 20
191.202179
 30
0.0
 70
0
  0
VERTEX
  8
0
 10
402.195648
 20
187.244888
 30
0.0
 70
0
  0
SEQEND
  8
0
  0
LINE
  8
0
 62
4
 10
174.32608
 20
191.202179
 30
0.0
 11
203.32608
 21
191.202179
 31
0.0
  0
POLYLINE
  8
0
 62
4
 66
1
 10
0.0
 20
0.0
 30
0.0
 70
2
  0
VERTEX
  8
0
 10
199.32608
 20
210.402176
 30
0.0
 70
0
  0
VERTEX
  8
0
 10
199.32608
 20
191.202179
 30
0.0
 70
0
  0
SEQEND
  8
0
  0
POLYLINE
  8
0
 62
4
 66
1
 10
0.0
 20
0.0
 30
0.0
 70
2
  0
VERTEX
  8
0
 10
193.32608
 20
210.402176
 30
0.0
 70
0
  0
VERTEX
  8
0
 10
193.32608
 20
191.202179
 30
0.0
 70
0
  0
SEQEND
  8
0
  0
POLYLINE
  8
0
 62
4
 66
1
 10
0.0
 20
0.0
 30
0.0
 70
2
  0
VERTEX
  8
0
 10
198.786072
 20
210.402176
 30
0.0
 70
0
  0
VERTEX
  8
0
 10
198.786072
 20
191.202179
 30
0.0
 70
0
  0
SEQEND
  8
0
  0
POLYLINE
  8
0
 62
4
 66
1
 10
0.0
 20
0.0
 30
0.0
 70
2
  0
VERTEX
  8
0
 10
193.866089
 20
210.402176
 30
0.0
 70
0
  0
VERTEX
  8
0
 10
193.866089
 20
191.202179
 30
0.0
 70
0
  0
SEQEND
  8
0
  0
POLYLINE
  8
0
 62
4
 66
1
 10
0.0
 20
0.0
 30
0.0
 70
2
  0
VERTEX
  8
0
 10
403.195648
 20
191.202179
 30
0.0
 70
0
  0
VERTEX
  8
0
 10
403.195648
 20
210.273376
 30
0.0
 70
0
  0
SEQEND
  8
0
  0
POLYLINE
  8
0
 62
4
 66
1
 10
0.0
 20
0.0
 30
0.0
 70
2
  0
VERTEX
  8
0
 10
409.195648
 20
191.202179
 30
0.0
 70
0
  0
VERTEX
  8
0
 10
409.195648
 20
210.273376
 30
0.0
 70
0
  0
SEQEND
  8
0
  0
POLYLINE
  8
0
 62
4
 66
1
 10
0.0
 20
0.0
 30
0.0
 70
2
  0
VERTEX
  8
0
 10
403.735657
 20
191.202179
 30
0.0
 70
0
  0
VERTEX
  8
0
 10
403.735657
 20
210.315613
 30
0.0
 70
0
  0
SEQEND
  8
0
  0
POLYLINE
  8
0
 62
4
 66
1
 10
0.0
 20
0.0
 30
0.0
 70
2
  0
VERTEX
  8
0
 10
408.65564
 20
191.202179
 30
0.0
 70
0
  0
VERTEX
  8
0
 10
408.65564
 20
210.315613
 30
0.0
 70
0
  0
SEQEND
  8
0
  0
CIRCLE
  8
0
 62
7
 10
196.32608
 20
175.402176
 30
0.0
 40
3.0
  0
CIRCLE
  8
0
 62
4
 10
196.32608
 20
175.402176
 30
0.0
 40
2.46
  0
POLYLINE
  8
0
 62
4
 66
1
 10
0.0
 20
0.0
 30
0.0
 70
2
  0
VERTEX
  8
0
 10
418.330322
 20
178.402176
 30
0.0
 70
0
  0
VERTEX
  8
0
 10
441.066833
 20
178.402176
 30
0.0
 70
0
  0
SEQEND
  8
0
  0
POLYLINE
  8
0
 62
4
 66
1
 10
0.0
 20
0.0
 30
0.0
 70
2
  0
VERTEX
  8
0
 10
418.330322
 20
172.402176
 30
0.0
 70
0
  0
VERTEX
  8
0
 10
441.066833
 20
172.402176
 30
0.0
 70
0
  0
SEQEND
  8
0
  0
POLYLINE
  8
0
 62
4
 66
1
 10
0.0
 20
0.0
 30
0.0
 70
2
  0
VERTEX
  8
0
 10
418.451172
 20
177.862183
 30
0.0
 70
0
  0
VERTEX
  8
0
 10
441.1091
 20
177.862183
 30
0.0
 70
0
  0
SEQEND
  8
0
  0
POLYLINE
  8
0
 62
4
 66
1
 10
0.0
 20
0.0
 30
0.0
 70
2
  0
VERTEX
  8
0
 10
418.451172
 20
172.942169
 30
0.0
 70
0
  0
VERTEX
  8
0
 10
441.1091
 20
172.942169
 30
0.0
 70
0
  0
SEQEND
  8
0
  0
POLYLINE
  8
0
 62
4
 66
1
 10
0.0
 20
0.0
 30
0.0
 70
2
  0
VERTEX
  8
0
 10
174.32608
 20
161.902176
 30
0.0
 70
0
  0
VERTEX
  8
0
 10
174.32608
 20
106.902176
 30
0.0
 70
0
  0
VERTEX
  8
0
 10
174.82608
 20
106.402176
 30
0.0
 70
0
  0
VERTEX
  8
0
 10
188.82608
 20
106.402176
 30
0.0
 70
0
  0
VERTEX
  8
0
 10
189.32608
 20
106.902176
 30
0.0
 70
0
  0
VERTEX
  8
0
 10
189.32608
 20
138.902176
 30
0.0
 70
0
  0
SEQEND
  8
0
  0
POLYLINE
  8
0
 62
4
 66
1
 10
0.0
 20
0.0
 30
0.0
 70
2
  0
VERTEX
  8
0
 10
190.82608
 20
140.402176
 30
0.0
 70
0
  0
VERTEX
  8
0
 10
202.32608
 20
140.402176
 30
0.0
 70
0
  0
VERTEX
  8
0
 10
203.32608
 20
141.402176
 30
0.0
 70
0
  0
VERTEX
  8
0
 10
203.32608
 20
209.402176
 30
0.0
 70
0
  0
VERTEX
  8
0
 10
202.32608
 20
210.402176
 30
0.0
 70
0
  0
VERTEX
  8
0
 10
190.82608
 20
210.402176
 30
0.0
 70
0
  0
SEQEND
  8
0
  0
POLYLINE
  8
0
 62
4
 66
1
 10
0.0
 20
0.0
 30
0.0
 70
2
  0
VERTEX
  8
0
 10
189.32608
 20
211.902176
 30
0.0
 70
0
  0
VERTEX
  8
0
 10
189.32608
 20
243.902176
 30
0.0
 70
0
  0
VERTEX
  8
0
 10
188.82608
 20
244.402176
 30
0.0
 70
0
  0
VERTEX
  8
0
 10
174.82608
 20
244.402176
 30
0.0
 70
0
  0
VERTEX
  8
0
 10
174.32608
 20
243.902176
 30
0.0
 70
0
  0
VERTEX
  8
0
 10
174.32608
 20
161.902176
 30
0.0
 70
0
  0
SEQEND
  8
0
  0
CIRCLE
  8
0
 62
4
 10
406.195648
 20
175.402176
 30
0.0
 40
35.0
  0
ENDSEC
  0
EOF
