  0
SECTION
  2
ENTITIES
  0
LINE
  8
0
 62
4
 10
84.521736
 20
104.793472
 30
0.0
 11
92.521736
 21
104.793472
 31
0.0
  0
LINE
  8
0
 62
4
 10
84.521736
 20
65.293472
 30
0.0
 11
92.521736
 21
65.293472
 31
0.0
  0
LINE
  8
0
 62
4
 10
102.021736
 20
78.043472
 30
0.0
 11
102.521736
 21
77.543472
 31
0.0
  0
LINE
  8
0
 62
4
 10
102.021736
 20
92.043472
 30
0.0
 11
102.521736
 21
92.543472
 31
0.0
  0
LINE
  8
0
 62
4
 10
85.021736
 20
92.043472
 30
0.0
 11
85.021736
 21
78.043472
 31
0.0
  0
POLYLINE
  8
0
 62
4
 66
1
 10
0.0
 20
0.0
 30
0.0
 70
2
  0
VERTEX
  8
0
 10
84.521736
 20
77.543472
 30
0.0
 70
0
  0
VERTEX
  8
0
 10
85.021736
 20
78.043472
 30
0.0
 70
0
  0
VERTEX
  8
0
 10
102.021736
 20
78.043472
 30
0.0
 70
0
  0
VERTEX
  8
0
 10
102.021736
 20
92.043472
 30
0.0
 70
0
  0
VERTEX
  8
0
 10
85.021736
 20
92.043472
 30
0.0
 70
0
  0
VERTEX
  8
0
 10
84.521736
 20
92.543472
 30
0.0
 70
0
  0
SEQEND
  8
0
  0
ARC
  8
0
 62
4
 10
93.521736
 20
101.043472
 30
0.0
 40
1.0
 50
180.0
 51
270.0
  0
ARC
  8
0
 62
4
 10
93.521736
 20
69.043472
 30
0.0
 40
1.0
 50
90.0
 51
180.0
  0
ARC
  8
0
 62
4
 10
198.91304
 20
85.043472
 30
0.0
 40
7.0
 50
110.92483306307776
 51
69.07516693692226
  0
POLYLINE
  8
0
 62
4
 66
1
 10
0.0
 20
0.0
 30
0.0
 70
2
  0
VERTEX
  8
0
 10
201.41304
 20
91.581818
 30
0.0
 70
0
  0
VERTEX
  8
0
 10
201.41304
 20
94.343475
 30
0.0
 70
0
  0
VERTEX
  8
0
 10
196.41304
 20
94.343475
 30
0.0
 70
0
  0
VERTEX
  8
0
 10
196.41304
 20
91.581818
 30
0.0
 70
0
  0
SEQEND
  8
0
  0
LINE
  8
0
 62
4
 10
84.521736
 20
94.343475
 30
0.0
 11
102.521736
 21
94.343475
 31
0.0
  0
POLYLINE
  8
0
 62
4
 66
1
 10
0.0
 20
0.0
 30
0.0
 70
2
  0
VERTEX
  8
0
 10
99.521736
 20
100.043472
 30
0.0
 70
0
  0
VERTEX
  8
0
 10
99.521736
 20
94.343475
 30
0.0
 70
0
  0
SEQEND
  8
0
  0
POLYLINE
  8
0
 62
4
 66
1
 10
0.0
 20
0.0
 30
0.0
 70
2
  0
VERTEX
  8
0
 10
95.521736
 20
100.043472
 30
0.0
 70
0
  0
VERTEX
  8
0
 10
95.521736
 20
94.343475
 30
0.0
 70
0
  0
SEQEND
  8
0
  0
POLYLINE
  8
0
 62
4
 66
1
 10
0.0
 20
0.0
 30
0.0
 70
2
  0
VERTEX
  8
0
 10
99.141739
 20
100.043472
 30
0.0
 70
0
  0
VERTEX
  8
0
 10
99.141739
 20
94.343475
 30
0.0
 70
0
  0
SEQEND
  8
0
  0
POLYLINE
  8
0
 62
4
 66
1
 10
0.0
 20
0.0
 30
0.0
 70
2
  0
VERTEX
  8
0
 10
95.901733
 20
100.043472
 30
0.0
 70
0
  0
VERTEX
  8
0
 10
95.901733
 20
94.343475
 30
0.0
 70
0
  0
SEQEND
  8
0
  0
POLYLINE
  8
0
 62
4
 66
1
 10
0.0
 20
0.0
 30
0.0
 70
2
  0
VERTEX
  8
0
 10
196.91304
 20
94.343475
 30
0.0
 70
0
  0
VERTEX
  8
0
 10
196.91304
 20
99.909538
 30
0.0
 70
0
  0
SEQEND
  8
0
  0
POLYLINE
  8
0
 62
4
 66
1
 10
0.0
 20
0.0
 30
0.0
 70
2
  0
VERTEX
  8
0
 10
200.91304
 20
94.343475
 30
0.0
 70
0
  0
VERTEX
  8
0
 10
200.91304
 20
99.909538
 30
0.0
 70
0
  0
SEQEND
  8
0
  0
POLYLINE
  8
0
 62
4
 66
1
 10
0.0
 20
0.0
 30
0.0
 70
2
  0
VERTEX
  8
0
 10
197.29303
 20
94.343475
 30
0.0
 70
0
  0
VERTEX
  8
0
 10
197.29303
 20
99.955734
 30
0.0
 70
0
  0
SEQEND
  8
0
  0
POLYLINE
  8
0
 62
4
 66
1
 10
0.0
 20
0.0
 30
0.0
 70
2
  0
VERTEX
  8
0
 10
200.533051
 20
94.343475
 30
0.0
 70
0
  0
VERTEX
  8
0
 10
200.533051
 20
99.955734
 30
0.0
 70
0
  0
SEQEND
  8
0
  0
CIRCLE
  8
0
 62
7
 10
97.521736
 20
85.043472
 30
0.0
 40
2.0
  0
CIRCLE
  8
0
 62
4
 10
97.521736
 20
85.043472
 30
0.0
 40
1.62
  0
POLYLINE
  8
0
 62
4
 66
1
 10
0.0
 20
0.0
 30
0.0
 70
2
  0
VERTEX
  8
0
 10
205.621246
 20
87.043472
 30
0.0
 70
0
  0
VERTEX
  8
0
 10
213.779114
 20
87.043472
 30
0.0
 70
0
  0
SEQEND
  8
0
  0
POLYLINE
  8
0
 62
4
 66
1
 10
0.0
 20
0.0
 30
0.0
 70
2
  0
VERTEX
  8
0
 10
205.621246
 20
83.043472
 30
0.0
 70
0
  0
VERTEX
  8
0
 10
213.779114
 20
83.043472
 30
0.0
 70
0
  0
SEQEND
  8
0
  0
POLYLINE
  8
0
 62
4
 66
1
 10
0.0
 20
0.0
 30
0.0
 70
2
  0
VERTEX
  8
0
 10
205.722992
 20
86.663475
 30
0.0
 70
0
  0
VERTEX
  8
0
 10
213.825317
 20
86.663475
 30
0.0
 70
0
  0
SEQEND
  8
0
  0
POLYLINE
  8
0
 62
4
 66
1
 10
0.0
 20
0.0
 30
0.0
 70
2
  0
VERTEX
  8
0
 10
205.722992
 20
83.42347
 30
0.0
 70
0
  0
VERTEX
  8
0
 10
213.825317
 20
83.42347
 30
0.0
 70
0
  0
SEQEND
  8
0
  0
POLYLINE
  8
0
 62
4
 66
1
 10
0.0
 20
0.0
 30
0.0
 70
2
  0
VERTEX
  8
0
 10
84.521736
 20
77.543472
 30
0.0
 70
0
  0
VERTEX
  8
0
 10
84.521736
 20
63.543472
 30
0.0
 70
0
  0
VERTEX
  8
0
 10
85.021736
 20
63.043472
 30
0.0
 70
0
  0
VERTEX
  8
0
 10
92.021736
 20
63.043472
 30
0.0
 70
0
  0
VERTEX
  8
0
 10
92.521736
 20
63.543472
 30
0.0
 70
0
  0
VERTEX
  8
0
 10
92.521736
 20
69.043472
 30
0.0
 70
0
  0
SEQEND
  8
0
  0
POLYLINE
  8
0
 62
4
 66
1
 10
0.0
 20
0.0
 30
0.0
 70
2
  0
VERTEX
  8
0
 10
93.521736
 20
70.043472
 30
0.0
 70
0
  0
VERTEX
  8
0
 10
102.021736
 20
70.043472
 30
0.0
 70
0
  0
VERTEX
  8
0
 10
102.521736
 20
70.543472
 30
0.0
 70
0
  0
VERTEX
  8
0
 10
102.521736
 20
99.543472
 30
0.0
 70
0
  0
VERTEX
  8
0
 10
102.021736
 20
100.043472
 30
0.0
 70
0
  0
VERTEX
  8
0
 10
93.521736
 20
100.043472
 30
0.0
 70
0
  0
SEQEND
  8
0
  0
POLYLINE
  8
0
 62
4
 66
1
 10
0.0
 20
0.0
 30
0.0
 70
2
  0
VERTEX
  8
0
 10
92.521736
 20
101.043472
 30
0.0
 70
0
  0
VERTEX
  8
0
 10
92.521736
 20
106.543472
 30
0.0
 70
0
  0
VERTEX
  8
0
 10
92.021736
 20
107.043472
 30
0.0
 70
0
  0
VERTEX
  8
0
 10
85.021736
 20
107.043472
 30
0.0
 70
0
  0
VERTEX
  8
0
 10
84.521736
 20
106.543472
 30
0.0
 70
0
  0
VERTEX
  8
0
 10
84.521736
 20
77.543472
 30
0.0
 70
0
  0
SEQEND
  8
0
  0
CIRCLE
  8
0
 62
4
 10
198.91304
 20
85.043472
 30
0.0
 40
15.0
  0
ENDSEC
  0
EOF
