  0
SECTION
  2
ENTITIES
  0
LINE
  8
0
 62
4
 10
156.717407
 20
193.309784
 30
0.0
 11
171.717407
 21
193.309784
 31
0.0
  0
LINE
  8
0
 62
4
 10
156.717407
 20
122.059784
 30
0.0
 11
171.717407
 21
122.059784
 31
0.0
  0
LINE
  8
0
 62
4
 10
184.717407
 20
147.684784
 30
0.0
 11
185.717407
 21
146.684784
 31
0.0
  0
LINE
  8
0
 62
4
 10
184.717407
 20
167.684784
 30
0.0
 11
185.717407
 21
168.684784
 31
0.0
  0
LINE
  8
0
 62
4
 10
157.717407
 20
167.684784
 30
0.0
 11
157.717407
 21
147.684784
 31
0.0
  0
POLYLINE
  8
0
 62
4
 66
1
 10
0.0
 20
0.0
 30
0.0
 70
2
  0
VERTEX
  8
0
 10
156.717407
 20
146.684784
 30
0.0
 70
0
  0
VERTEX
  8
0
 10
157.717407
 20
147.684784
 30
0.0
 70
0
  0
VERTEX
  8
0
 10
184.717407
 20
147.684784
 30
0.0
 70
0
  0
VERTEX
  8
0
 10
184.717407
 20
167.684784
 30
0.0
 70
0
  0
VERTEX
  8
0
 10
157.717407
 20
167.684784
 30
0.0
 70
0
  0
VERTEX
  8
0
 10
156.717407
 20
168.684784
 30
0.0
 70
0
  0
SEQEND
  8
0
  0
ARC
  8
0
 62
4
 10
172.717407
 20
188.684784
 30
0.0
 40
1.0
 50
180.0
 51
270.0
  0
ARC
  8
0
 62
4
 10
172.717407
 20
126.684784
 30
0.0
 40
1.0
 50
90.0
 51
180.0
  0
ARC
  8
0
 62
4
 10
366.630432
 20
157.684784
 30
0.0
 40
10.0
 50
107.45760274776076
 51
72.54239725223924
  0
POLYLINE
  8
0
 62
4
 66
1
 10
0.0
 20
0.0
 30
0.0
 70
2
  0
VERTEX
  8
0
 10
369.630432
 20
167.224182
 30
0.0
 70
0
  0
VERTEX
  8
0
 10
369.630432
 20
170.484787
 30
0.0
 70
0
  0
VERTEX
  8
0
 10
363.630432
 20
170.484787
 30
0.0
 70
0
  0
VERTEX
  8
0
 10
363.630432
 20
167.224182
 30
0.0
 70
0
  0
SEQEND
  8
0
  0
LINE
  8
0
 62
4
 10
156.717407
 20
170.484787
 30
0.0
 11
185.717407
 21
170.484787
 31
0.0
  0
POLYLINE
  8
0
 62
4
 66
1
 10
0.0
 20
0.0
 30
0.0
 70
2
  0
VERTEX
  8
0
 10
181.217407
 20
187.684784
 30
0.0
 70
0
  0
VERTEX
  8
0
 10
181.217407
 20
170.484787
 30
0.0
 70
0
  0
SEQEND
  8
0
  0
POLYLINE
  8
0
 62
4
 66
1
 10
0.0
 20
0.0
 30
0.0
 70
2
  0
VERTEX
  8
0
 10
176.217407
 20
187.684784
 30
0.0
 70
0
  0
VERTEX
  8
0
 10
176.217407
 20
170.484787
 30
0.0
 70
0
  0
SEQEND
  8
0
  0
POLYLINE
  8
0
 62
4
 66
1
 10
0.0
 20
0.0
 30
0.0
 70
2
  0
VERTEX
  8
0
 10
180.78241
 20
187.684784
 30
0.0
 70
0
  0
VERTEX
  8
0
 10
180.78241
 20
170.484787
 30
0.0
 70
0
  0
SEQEND
  8
0
  0
POLYLINE
  8
0
 62
4
 66
1
 10
0.0
 20
0.0
 30
0.0
 70
2
  0
VERTEX
  8
0
 10
176.652405
 20
187.684784
 30
0.0
 70
0
  0
VERTEX
  8
0
 10
176.652405
 20
170.484787
 30
0.0
 70
0
  0
SEQEND
  8
0
  0
POLYLINE
  8
0
 62
4
 66
1
 10
0.0
 20
0.0
 30
0.0
 70
2
  0
VERTEX
  8
0
 10
364.130432
 20
170.484787
 30
0.0
 70
0
  0
VERTEX
  8
0
 10
364.130432
 20
187.580444
 30
0.0
 70
0
  0
SEQEND
  8
0
  0
POLYLINE
  8
0
 62
4
 66
1
 10
0.0
 20
0.0
 30
0.0
 70
2
  0
VERTEX
  8
0
 10
369.130432
 20
170.484787
 30
0.0
 70
0
  0
VERTEX
  8
0
 10
369.130432
 20
187.580444
 30
0.0
 70
0
  0
SEQEND
  8
0
  0
POLYLINE
  8
0
 62
4
 66
1
 10
0.0
 20
0.0
 30
0.0
 70
2
  0
VERTEX
  8
0
 10
364.56543
 20
170.484787
 30
0.0
 70
0
  0
VERTEX
  8
0
 10
364.56543
 20
187.613632
 30
0.0
 70
0
  0
SEQEND
  8
0
  0
POLYLINE
  8
0
 62
4
 66
1
 10
0.0
 20
0.0
 30
0.0
 70
2
  0
VERTEX
  8
0
 10
368.695435
 20
170.484787
 30
0.0
 70
0
  0
VERTEX
  8
0
 10
368.695435
 20
187.613632
 30
0.0
 70
0
  0
SEQEND
  8
0
  0
CIRCLE
  8
0
 62
7
 10
178.717407
 20
157.684784
 30
0.0
 40
2.5
  0
CIRCLE
  8
0
 62
4
 10
178.717407
 20
157.684784
 30
0.0
 40
2.065
  0
POLYLINE
  8
0
 62
4
 66
1
 10
0.0
 20
0.0
 30
0.0
 70
2
  0
VERTEX
  8
0
 10
376.312927
 20
160.184784
 30
0.0
 70
0
  0
VERTEX
  8
0
 10
396.526093
 20
160.184784
 30
0.0
 70
0
  0
SEQEND
  8
0
  0
POLYLINE
  8
0
 62
4
 66
1
 10
0.0
 20
0.0
 30
0.0
 70
2
  0
VERTEX
  8
0
 10
376.312927
 20
155.184784
 30
0.0
 70
0
  0
VERTEX
  8
0
 10
396.526093
 20
155.184784
 30
0.0
 70
0
  0
SEQEND
  8
0
  0
POLYLINE
  8
0
 62
4
 66
1
 10
0.0
 20
0.0
 30
0.0
 70
2
  0
VERTEX
  8
0
 10
376.414917
 20
159.749786
 30
0.0
 70
0
  0
VERTEX
  8
0
 10
396.559296
 20
159.749786
 30
0.0
 70
0
  0
SEQEND
  8
0
  0
POLYLINE
  8
0
 62
4
 66
1
 10
0.0
 20
0.0
 30
0.0
 70
2
  0
VERTEX
  8
0
 10
376.414917
 20
155.619781
 30
0.0
 70
0
  0
VERTEX
  8
0
 10
396.559296
 20
155.619781
 30
0.0
 70
0
  0
SEQEND
  8
0
  0
POLYLINE
  8
0
 62
4
 66
1
 10
0.0
 20
0.0
 30
0.0
 70
2
  0
VERTEX
  8
0
 10
156.717407
 20
146.684784
 30
0.0
 70
0
  0
VERTEX
  8
0
 10
156.717407
 20
119.184784
 30
0.0
 70
0
  0
VERTEX
  8
0
 10
157.217407
 20
118.684784
 30
0.0
 70
0
  0
VERTEX
  8
0
 10
171.217407
 20
118.684784
 30
0.0
 70
0
  0
VERTEX
  8
0
 10
171.717407
 20
119.184784
 30
0.0
 70
0
  0
VERTEX
  8
0
 10
171.717407
 20
126.684784
 30
0.0
 70
0
  0
SEQEND
  8
0
  0
POLYLINE
  8
0
 62
4
 66
1
 10
0.0
 20
0.0
 30
0.0
 70
2
  0
VERTEX
  8
0
 10
172.717407
 20
127.684784
 30
0.0
 70
0
  0
VERTEX
  8
0
 10
185.217407
 20
127.684784
 30
0.0
 70
0
  0
VERTEX
  8
0
 10
185.717407
 20
128.184784
 30
0.0
 70
0
  0
VERTEX
  8
0
 10
185.717407
 20
187.184784
 30
0.0
 70
0
  0
VERTEX
  8
0
 10
185.217407
 20
187.684784
 30
0.0
 70
0
  0
VERTEX
  8
0
 10
172.717407
 20
187.684784
 30
0.0
 70
0
  0
SEQEND
  8
0
  0
POLYLINE
  8
0
 62
4
 66
1
 10
0.0
 20
0.0
 30
0.0
 70
2
  0
VERTEX
  8
0
 10
171.717407
 20
188.684784
 30
0.0
 70
0
  0
VERTEX
  8
0
 10
171.717407
 20
196.184784
 30
0.0
 70
0
  0
VERTEX
  8
0
 10
171.217407
 20
196.684784
 30
0.0
 70
0
  0
VERTEX
  8
0
 10
157.217407
 20
196.684784
 30
0.0
 70
0
  0
VERTEX
  8
0
 10
156.717407
 20
196.184784
 30
0.0
 70
0
  0
VERTEX
  8
0
 10
156.717407
 20
146.684784
 30
0.0
 70
0
  0
SEQEND
  8
0
  0
CIRCLE
  8
0
 62
4
 10
366.630432
 20
157.684784
 30
0.0
 40
30.0
  0
ENDSEC
  0
EOF
