  0
SECTION
  2
ENTITIES
  0
LINE
  8
0
 62
4
 10
125.021736
 20
149.418488
 30
0.0
 11
140.021729
 21
149.418488
 31
0.0
  0
LINE
  8
0
 62
4
 10
125.021736
 20
102.16848
 30
0.0
 11
140.021729
 21
102.16848
 31
0.0
  0
LINE
  8
0
 62
4
 10
153.521729
 20
118.29348
 30
0.0
 11
154.021729
 21
117.79348
 31
0.0
  0
LINE
  8
0
 62
4
 10
153.521729
 20
133.293488
 30
0.0
 11
154.021729
 21
133.793488
 31
0.0
  0
LINE
  8
0
 62
4
 10
125.521736
 20
133.293488
 30
0.0
 11
125.521736
 21
118.29348
 31
0.0
  0
POLYLINE
  8
0
 62
4
 66
1
 10
0.0
 20
0.0
 30
0.0
 70
2
  0
VERTEX
  8
0
 10
125.021736
 20
117.79348
 30
0.0
 70
0
  0
VERTEX
  8
0
 10
125.521736
 20
118.29348
 30
0.0
 70
0
  0
VERTEX
  8
0
 10
153.521729
 20
118.29348
 30
0.0
 70
0
  0
VERTEX
  8
0
 10
153.521729
 20
133.293488
 30
0.0
 70
0
  0
VERTEX
  8
0
 10
125.521736
 20
133.293488
 30
0.0
 70
0
  0
VERTEX
  8
0
 10
125.021736
 20
133.793488
 30
0.0
 70
0
  0
SEQEND
  8
0
  0
ARC
  8
0
 62
4
 10
141.021729
 20
147.793488
 30
0.0
 40
1.0
 50
180.0
 51
270.0
  0
ARC
  8
0
 62
4
 10
141.021729
 20
103.79348
 30
0.0
 40
1.0
 50
90.0
 51
180.0
  0
POLYLINE
  8
0
 62
4
 66
1
 10
0.0
 20
0.0
 30
0.0
 70
2
  0
VERTEX
  8
0
 10
125.021736
 20
117.79348
 30
0.0
 70
0
  0
VERTEX
  8
0
 10
125.021736
 20
99.29348
 30
0.0
 70
0
  0
VERTEX
  8
0
 10
125.521736
 20
98.79348
 30
0.0
 70
0
  0
VERTEX
  8
0
 10
139.521729
 20
98.79348
 30
0.0
 70
0
  0
VERTEX
  8
0
 10
140.021729
 20
99.29348
 30
0.0
 70
0
  0
VERTEX
  8
0
 10
140.021729
 20
103.79348
 30
0.0
 70
0
  0
SEQEND
  8
0
  0
POLYLINE
  8
0
 62
4
 66
1
 10
0.0
 20
0.0
 30
0.0
 70
2
  0
VERTEX
  8
0
 10
141.021729
 20
104.79348
 30
0.0
 70
0
  0
VERTEX
  8
0
 10
153.521729
 20
104.79348
 30
0.0
 70
0
  0
VERTEX
  8
0
 10
154.021729
 20
105.29348
 30
0.0
 70
0
  0
VERTEX
  8
0
 10
154.021729
 20
146.293488
 30
0.0
 70
0
  0
VERTEX
  8
0
 10
153.521729
 20
146.793488
 30
0.0
 70
0
  0
VERTEX
  8
0
 10
141.021729
 20
146.793488
 30
0.0
 70
0
  0
SEQEND
  8
0
  0
POLYLINE
  8
0
 62
4
 66
1
 10
0.0
 20
0.0
 30
0.0
 70
2
  0
VERTEX
  8
0
 10
140.021729
 20
147.793488
 30
0.0
 70
0
  0
VERTEX
  8
0
 10
140.021729
 20
152.293488
 30
0.0
 70
0
  0
VERTEX
  8
0
 10
139.521729
 20
152.793488
 30
0.0
 70
0
  0
VERTEX
  8
0
 10
125.521736
 20
152.793488
 30
0.0
 70
0
  0
VERTEX
  8
0
 10
125.021736
 20
152.293488
 30
0.0
 70
0
  0
VERTEX
  8
0
 10
125.021736
 20
117.79348
 30
0.0
 70
0
  0
SEQEND
  8
0
  0
ENDSEC
  0
EOF
