  0
SECTION
  2
ENTITIES
  0
LINE
  8
0
 62
4
 10
156.717407
 20
193.309784
 30
0.0
 11
171.717407
 21
193.309784
 31
0.0
  0
LINE
  8
0
 62
4
 10
156.717407
 20
122.059784
 30
0.0
 11
171.717407
 21
122.059784
 31
0.0
  0
LINE
  8
0
 62
4
 10
185.217407
 20
148.684784
 30
0.0
 11
185.717407
 21
148.184784
 31
0.0
  0
LINE
  8
0
 62
4
 10
185.217407
 20
166.684784
 30
0.0
 11
185.717407
 21
167.184784
 31
0.0
  0
LINE
  8
0
 62
4
 10
157.217407
 20
166.684784
 30
0.0
 11
157.217407
 21
148.684784
 31
0.0
  0
POLYLINE
  8
0
 62
4
 66
1
 10
0.0
 20
0.0
 30
0.0
 70
2
  0
VERTEX
  8
0
 10
156.717407
 20
148.184784
 30
0.0
 70
0
  0
VERTEX
  8
0
 10
157.217407
 20
148.684784
 30
0.0
 70
0
  0
VERTEX
  8
0
 10
185.217407
 20
148.684784
 30
0.0
 70
0
  0
VERTEX
  8
0
 10
185.217407
 20
166.684784
 30
0.0
 70
0
  0
VERTEX
  8
0
 10
157.217407
 20
166.684784
 30
0.0
 70
0
  0
VERTEX
  8
0
 10
156.717407
 20
167.184784
 30
0.0
 70
0
  0
SEQEND
  8
0
  0
ARC
  8
0
 62
4
 10
172.717407
 20
188.684784
 30
0.0
 40
1.0
 50
180.0
 51
270.0
  0
ARC
  8
0
 62
4
 10
172.717407
 20
126.684784
 30
0.0
 40
1.0
 50
90.0
 51
180.0
  0
POLYLINE
  8
0
 62
4
 66
1
 10
0.0
 20
0.0
 30
0.0
 70
2
  0
VERTEX
  8
0
 10
156.717407
 20
148.184784
 30
0.0
 70
0
  0
VERTEX
  8
0
 10
156.717407
 20
119.184784
 30
0.0
 70
0
  0
VERTEX
  8
0
 10
157.217407
 20
118.684784
 30
0.0
 70
0
  0
VERTEX
  8
0
 10
171.217407
 20
118.684784
 30
0.0
 70
0
  0
VERTEX
  8
0
 10
171.717407
 20
119.184784
 30
0.0
 70
0
  0
VERTEX
  8
0
 10
171.717407
 20
126.684784
 30
0.0
 70
0
  0
SEQEND
  8
0
  0
POLYLINE
  8
0
 62
4
 66
1
 10
0.0
 20
0.0
 30
0.0
 70
2
  0
VERTEX
  8
0
 10
172.717407
 20
127.684784
 30
0.0
 70
0
  0
VERTEX
  8
0
 10
185.217407
 20
127.684784
 30
0.0
 70
0
  0
VERTEX
  8
0
 10
185.717407
 20
128.184784
 30
0.0
 70
0
  0
VERTEX
  8
0
 10
185.717407
 20
187.184784
 30
0.0
 70
0
  0
VERTEX
  8
0
 10
185.217407
 20
187.684784
 30
0.0
 70
0
  0
VERTEX
  8
0
 10
172.717407
 20
187.684784
 30
0.0
 70
0
  0
SEQEND
  8
0
  0
POLYLINE
  8
0
 62
4
 66
1
 10
0.0
 20
0.0
 30
0.0
 70
2
  0
VERTEX
  8
0
 10
171.717407
 20
188.684784
 30
0.0
 70
0
  0
VERTEX
  8
0
 10
171.717407
 20
196.184784
 30
0.0
 70
0
  0
VERTEX
  8
0
 10
171.217407
 20
196.684784
 30
0.0
 70
0
  0
VERTEX
  8
0
 10
157.217407
 20
196.684784
 30
0.0
 70
0
  0
VERTEX
  8
0
 10
156.717407
 20
196.184784
 30
0.0
 70
0
  0
VERTEX
  8
0
 10
156.717407
 20
148.184784
 30
0.0
 70
0
  0
SEQEND
  8
0
  0
ENDSEC
  0
EOF
