  0
SECTION
  2
ENTITIES
  0
LINE
  8
0
 62
4
 10
125.021736
 20
140.168488
 30
0.0
 11
150.021729
 21
140.168488
 31
0.0
  0
LINE
  8
0
 62
4
 10
125.021736
 20
111.41848
 30
0.0
 11
150.021729
 21
111.41848
 31
0.0
  0
LINE
  8
0
 62
4
 10
167.521729
 20
118.29348
 30
0.0
 11
168.021729
 21
117.79348
 31
0.0
  0
LINE
  8
0
 62
4
 10
167.521729
 20
133.293488
 30
0.0
 11
168.021729
 21
133.793488
 31
0.0
  0
LINE
  8
0
 62
4
 10
125.521736
 20
133.293488
 30
0.0
 11
125.521736
 21
118.29348
 31
0.0
  0
POLYLINE
  8
0
 62
4
 66
1
 10
0.0
 20
0.0
 30
0.0
 70
2
  0
VERTEX
  8
0
 10
125.021736
 20
117.79348
 30
0.0
 70
0
  0
VERTEX
  8
0
 10
125.521736
 20
118.29348
 30
0.0
 70
0
  0
VERTEX
  8
0
 10
167.521729
 20
118.29348
 30
0.0
 70
0
  0
VERTEX
  8
0
 10
167.521729
 20
133.293488
 30
0.0
 70
0
  0
VERTEX
  8
0
 10
125.521736
 20
133.293488
 30
0.0
 70
0
  0
VERTEX
  8
0
 10
125.021736
 20
133.793488
 30
0.0
 70
0
  0
SEQEND
  8
0
  0
ARC
  8
0
 62
4
 10
151.021729
 20
140.793488
 30
0.0
 40
1.0
 50
180.0
 51
270.0
  0
ARC
  8
0
 62
4
 10
151.021729
 20
110.79348
 30
0.0
 40
1.0
 50
90.0
 51
180.0
  0
POLYLINE
  8
0
 62
4
 66
1
 10
0.0
 20
0.0
 30
0.0
 70
2
  0
VERTEX
  8
0
 10
125.021736
 20
117.79348
 30
0.0
 70
0
  0
VERTEX
  8
0
 10
125.021736
 20
106.79348
 30
0.0
 70
0
  0
VERTEX
  8
0
 10
126.021736
 20
105.79348
 30
0.0
 70
0
  0
VERTEX
  8
0
 10
149.021729
 20
105.79348
 30
0.0
 70
0
  0
VERTEX
  8
0
 10
150.021729
 20
106.79348
 30
0.0
 70
0
  0
VERTEX
  8
0
 10
150.021729
 20
110.79348
 30
0.0
 70
0
  0
SEQEND
  8
0
  0
POLYLINE
  8
0
 62
4
 66
1
 10
0.0
 20
0.0
 30
0.0
 70
2
  0
VERTEX
  8
0
 10
151.021729
 20
111.79348
 30
0.0
 70
0
  0
VERTEX
  8
0
 10
167.021729
 20
111.79348
 30
0.0
 70
0
  0
VERTEX
  8
0
 10
168.021729
 20
112.79348
 30
0.0
 70
0
  0
VERTEX
  8
0
 10
168.021729
 20
138.793488
 30
0.0
 70
0
  0
VERTEX
  8
0
 10
167.021729
 20
139.793488
 30
0.0
 70
0
  0
VERTEX
  8
0
 10
151.021729
 20
139.793488
 30
0.0
 70
0
  0
SEQEND
  8
0
  0
POLYLINE
  8
0
 62
4
 66
1
 10
0.0
 20
0.0
 30
0.0
 70
2
  0
VERTEX
  8
0
 10
150.021729
 20
140.793488
 30
0.0
 70
0
  0
VERTEX
  8
0
 10
150.021729
 20
144.793488
 30
0.0
 70
0
  0
VERTEX
  8
0
 10
149.021729
 20
145.793488
 30
0.0
 70
0
  0
VERTEX
  8
0
 10
126.021736
 20
145.793488
 30
0.0
 70
0
  0
VERTEX
  8
0
 10
125.021736
 20
144.793488
 30
0.0
 70
0
  0
VERTEX
  8
0
 10
125.021736
 20
117.79348
 30
0.0
 70
0
  0
SEQEND
  8
0
  0
ENDSEC
  0
EOF
