  0
SECTION
  2
ENTITIES
  0
LINE
  8
0
 62
4
 10
174.32608
 20
206.027176
 30
0.0
 11
199.32608
 21
206.027176
 31
0.0
  0
LINE
  8
0
 62
4
 10
174.32608
 20
144.777176
 30
0.0
 11
199.32608
 21
144.777176
 31
0.0
  0
LINE
  8
0
 62
4
 10
216.32608
 20
161.402176
 30
0.0
 11
217.32608
 21
160.402176
 31
0.0
  0
LINE
  8
0
 62
4
 10
216.32608
 20
189.402176
 30
0.0
 11
217.32608
 21
190.402176
 31
0.0
  0
LINE
  8
0
 62
4
 10
175.32608
 20
189.402176
 30
0.0
 11
175.32608
 21
161.402176
 31
0.0
  0
POLYLINE
  8
0
 62
4
 66
1
 10
0.0
 20
0.0
 30
0.0
 70
2
  0
VERTEX
  8
0
 10
174.32608
 20
160.402176
 30
0.0
 70
0
  0
VERTEX
  8
0
 10
175.32608
 20
161.402176
 30
0.0
 70
0
  0
VERTEX
  8
0
 10
216.32608
 20
161.402176
 30
0.0
 70
0
  0
VERTEX
  8
0
 10
216.32608
 20
189.402176
 30
0.0
 70
0
  0
VERTEX
  8
0
 10
175.32608
 20
189.402176
 30
0.0
 70
0
  0
VERTEX
  8
0
 10
174.32608
 20
190.402176
 30
0.0
 70
0
  0
SEQEND
  8
0
  0
ARC
  8
0
 62
4
 10
200.32608
 20
204.402176
 30
0.0
 40
1.0
 50
180.0
 51
270.0
  0
ARC
  8
0
 62
4
 10
200.32608
 20
146.402176
 30
0.0
 40
1.0
 50
90.0
 51
180.0
  0
ARC
  8
0
 62
4
 10
413.195648
 20
175.402176
 30
0.0
 40
14.0
 50
106.60154992625478
 51
73.39845007374521
  0
POLYLINE
  8
0
 62
4
 66
1
 10
0.0
 20
0.0
 30
0.0
 70
2
  0
VERTEX
  8
0
 10
417.195648
 20
188.818588
 30
0.0
 70
0
  0
VERTEX
  8
0
 10
417.195648
 20
192.702179
 30
0.0
 70
0
  0
VERTEX
  8
0
 10
409.195648
 20
192.702179
 30
0.0
 70
0
  0
VERTEX
  8
0
 10
409.195648
 20
188.818588
 30
0.0
 70
0
  0
SEQEND
  8
0
  0
LINE
  8
0
 62
4
 10
174.32608
 20
192.702179
 30
0.0
 11
217.32608
 21
192.702179
 31
0.0
  0
POLYLINE
  8
0
 62
4
 66
1
 10
0.0
 20
0.0
 30
0.0
 70
2
  0
VERTEX
  8
0
 10
211.32608
 20
203.402176
 30
0.0
 70
0
  0
VERTEX
  8
0
 10
211.32608
 20
192.702179
 30
0.0
 70
0
  0
SEQEND
  8
0
  0
POLYLINE
  8
0
 62
4
 66
1
 10
0.0
 20
0.0
 30
0.0
 70
2
  0
VERTEX
  8
0
 10
205.32608
 20
203.402176
 30
0.0
 70
0
  0
VERTEX
  8
0
 10
205.32608
 20
192.702179
 30
0.0
 70
0
  0
SEQEND
  8
0
  0
POLYLINE
  8
0
 62
4
 66
1
 10
0.0
 20
0.0
 30
0.0
 70
2
  0
VERTEX
  8
0
 10
210.786072
 20
203.402176
 30
0.0
 70
0
  0
VERTEX
  8
0
 10
210.786072
 20
192.702179
 30
0.0
 70
0
  0
SEQEND
  8
0
  0
POLYLINE
  8
0
 62
4
 66
1
 10
0.0
 20
0.0
 30
0.0
 70
2
  0
VERTEX
  8
0
 10
205.866089
 20
203.402176
 30
0.0
 70
0
  0
VERTEX
  8
0
 10
205.866089
 20
192.702179
 30
0.0
 70
0
  0
SEQEND
  8
0
  0
POLYLINE
  8
0
 62
4
 66
1
 10
0.0
 20
0.0
 30
0.0
 70
2
  0
VERTEX
  8
0
 10
410.195648
 20
192.702179
 30
0.0
 70
0
  0
VERTEX
  8
0
 10
410.195648
 20
203.240997
 30
0.0
 70
0
  0
SEQEND
  8
0
  0
POLYLINE
  8
0
 62
4
 66
1
 10
0.0
 20
0.0
 30
0.0
 70
2
  0
VERTEX
  8
0
 10
416.195648
 20
192.702179
 30
0.0
 70
0
  0
VERTEX
  8
0
 10
416.195648
 20
203.240997
 30
0.0
 70
0
  0
SEQEND
  8
0
  0
POLYLINE
  8
0
 62
4
 66
1
 10
0.0
 20
0.0
 30
0.0
 70
2
  0
VERTEX
  8
0
 10
410.735657
 20
192.702179
 30
0.0
 70
0
  0
VERTEX
  8
0
 10
410.735657
 20
203.2939
 30
0.0
 70
0
  0
SEQEND
  8
0
  0
POLYLINE
  8
0
 62
4
 66
1
 10
0.0
 20
0.0
 30
0.0
 70
2
  0
VERTEX
  8
0
 10
415.65564
 20
192.702179
 30
0.0
 70
0
  0
VERTEX
  8
0
 10
415.65564
 20
203.2939
 30
0.0
 70
0
  0
SEQEND
  8
0
  0
CIRCLE
  8
0
 62
7
 10
208.32608
 20
175.402176
 30
0.0
 40
3.0
  0
CIRCLE
  8
0
 62
4
 10
208.32608
 20
175.402176
 30
0.0
 40
2.46
  0
POLYLINE
  8
0
 62
4
 66
1
 10
0.0
 20
0.0
 30
0.0
 70
2
  0
VERTEX
  8
0
 10
426.870422
 20
178.402176
 30
0.0
 70
0
  0
VERTEX
  8
0
 10
441.034454
 20
178.402176
 30
0.0
 70
0
  0
SEQEND
  8
0
  0
POLYLINE
  8
0
 62
4
 66
1
 10
0.0
 20
0.0
 30
0.0
 70
2
  0
VERTEX
  8
0
 10
426.870422
 20
172.402176
 30
0.0
 70
0
  0
VERTEX
  8
0
 10
441.034454
 20
172.402176
 30
0.0
 70
0
  0
SEQEND
  8
0
  0
POLYLINE
  8
0
 62
4
 66
1
 10
0.0
 20
0.0
 30
0.0
 70
2
  0
VERTEX
  8
0
 10
426.977844
 20
177.862183
 30
0.0
 70
0
  0
VERTEX
  8
0
 10
441.087372
 20
177.862183
 30
0.0
 70
0
  0
SEQEND
  8
0
  0
POLYLINE
  8
0
 62
4
 66
1
 10
0.0
 20
0.0
 30
0.0
 70
2
  0
VERTEX
  8
0
 10
426.977844
 20
172.942169
 30
0.0
 70
0
  0
VERTEX
  8
0
 10
441.087372
 20
172.942169
 30
0.0
 70
0
  0
SEQEND
  8
0
  0
POLYLINE
  8
0
 62
4
 66
1
 10
0.0
 20
0.0
 30
0.0
 70
2
  0
VERTEX
  8
0
 10
174.32608
 20
160.402176
 30
0.0
 70
0
  0
VERTEX
  8
0
 10
174.32608
 20
140.152176
 30
0.0
 70
0
  0
VERTEX
  8
0
 10
175.32608
 20
139.152176
 30
0.0
 70
0
  0
VERTEX
  8
0
 10
198.32608
 20
139.152176
 30
0.0
 70
0
  0
VERTEX
  8
0
 10
199.32608
 20
140.152176
 30
0.0
 70
0
  0
VERTEX
  8
0
 10
199.32608
 20
146.402176
 30
0.0
 70
0
  0
SEQEND
  8
0
  0
POLYLINE
  8
0
 62
4
 66
1
 10
0.0
 20
0.0
 30
0.0
 70
2
  0
VERTEX
  8
0
 10
200.32608
 20
147.402176
 30
0.0
 70
0
  0
VERTEX
  8
0
 10
216.32608
 20
147.402176
 30
0.0
 70
0
  0
VERTEX
  8
0
 10
217.32608
 20
148.402176
 30
0.0
 70
0
  0
VERTEX
  8
0
 10
217.32608
 20
202.402176
 30
0.0
 70
0
  0
VERTEX
  8
0
 10
216.32608
 20
203.402176
 30
0.0
 70
0
  0
VERTEX
  8
0
 10
200.32608
 20
203.402176
 30
0.0
 70
0
  0
SEQEND
  8
0
  0
POLYLINE
  8
0
 62
4
 66
1
 10
0.0
 20
0.0
 30
0.0
 70
2
  0
VERTEX
  8
0
 10
199.32608
 20
204.402176
 30
0.0
 70
0
  0
VERTEX
  8
0
 10
199.32608
 20
210.652176
 30
0.0
 70
0
  0
VERTEX
  8
0
 10
198.32608
 20
211.652176
 30
0.0
 70
0
  0
VERTEX
  8
0
 10
175.32608
 20
211.652176
 30
0.0
 70
0
  0
VERTEX
  8
0
 10
174.32608
 20
210.652176
 30
0.0
 70
0
  0
VERTEX
  8
0
 10
174.32608
 20
160.402176
 30
0.0
 70
0
  0
SEQEND
  8
0
  0
CIRCLE
  8
0
 62
4
 10
413.195648
 20
175.402176
 30
0.0
 40
28.0
  0
ENDSEC
  0
EOF
