  0
SECTION
  2
ENTITIES
  0
LINE
  8
0
 62
4
 10
216.586945
 20
302.298889
 30
0.0
 11
241.586945
 21
302.298889
 31
0.0
  0
LINE
  8
0
 62
4
 10
216.586945
 20
133.548904
 30
0.0
 11
241.586945
 21
133.548904
 31
0.0
  0
LINE
  8
0
 62
4
 10
258.586945
 20
200.423904
 30
0.0
 11
259.586945
 21
199.423904
 31
0.0
  0
LINE
  8
0
 62
4
 10
258.586945
 20
235.423904
 30
0.0
 11
259.586945
 21
236.423904
 31
0.0
  0
LINE
  8
0
 62
4
 10
217.586945
 20
235.423904
 30
0.0
 11
217.586945
 21
200.423904
 31
0.0
  0
POLYLINE
  8
0
 62
4
 66
1
 10
0.0
 20
0.0
 30
0.0
 70
2
  0
VERTEX
  8
0
 10
216.586945
 20
199.423904
 30
0.0
 70
0
  0
VERTEX
  8
0
 10
217.586945
 20
200.423904
 30
0.0
 70
0
  0
VERTEX
  8
0
 10
258.586945
 20
200.423904
 30
0.0
 70
0
  0
VERTEX
  8
0
 10
258.586945
 20
235.423904
 30
0.0
 70
0
  0
VERTEX
  8
0
 10
217.586945
 20
235.423904
 30
0.0
 70
0
  0
VERTEX
  8
0
 10
216.586945
 20
236.423904
 30
0.0
 70
0
  0
SEQEND
  8
0
  0
ARC
  8
0
 62
4
 10
243.086945
 20
259.423889
 30
0.0
 40
1.5
 50
180.0
 51
270.0
  0
ARC
  8
0
 62
4
 10
243.086945
 20
176.423904
 30
0.0
 40
1.5
 50
90.0
 51
180.0
  0
ARC
  8
0
 62
4
 10
508.152161
 20
217.923904
 30
0.0
 40
17.5
 50
106.60154992625478
 51
73.39845007374521
  0
POLYLINE
  8
0
 62
4
 66
1
 10
0.0
 20
0.0
 30
0.0
 70
2
  0
VERTEX
  8
0
 10
513.152161
 20
234.694412
 30
0.0
 70
0
  0
VERTEX
  8
0
 10
513.152161
 20
238.723907
 30
0.0
 70
0
  0
VERTEX
  8
0
 10
503.152161
 20
238.723907
 30
0.0
 70
0
  0
VERTEX
  8
0
 10
503.152161
 20
234.694412
 30
0.0
 70
0
  0
SEQEND
  8
0
  0
LINE
  8
0
 62
4
 10
216.586945
 20
238.723907
 30
0.0
 11
259.586945
 21
238.723907
 31
0.0
  0
POLYLINE
  8
0
 62
4
 66
1
 10
0.0
 20
0.0
 30
0.0
 70
2
  0
VERTEX
  8
0
 10
254.586945
 20
257.923889
 30
0.0
 70
0
  0
VERTEX
  8
0
 10
254.586945
 20
238.723907
 30
0.0
 70
0
  0
SEQEND
  8
0
  0
POLYLINE
  8
0
 62
4
 66
1
 10
0.0
 20
0.0
 30
0.0
 70
2
  0
VERTEX
  8
0
 10
246.586945
 20
257.923889
 30
0.0
 70
0
  0
VERTEX
  8
0
 10
246.586945
 20
238.723907
 30
0.0
 70
0
  0
SEQEND
  8
0
  0
POLYLINE
  8
0
 62
4
 66
1
 10
0.0
 20
0.0
 30
0.0
 70
2
  0
VERTEX
  8
0
 10
253.911942
 20
257.923889
 30
0.0
 70
0
  0
VERTEX
  8
0
 10
253.911942
 20
238.723907
 30
0.0
 70
0
  0
SEQEND
  8
0
  0
POLYLINE
  8
0
 62
4
 66
1
 10
0.0
 20
0.0
 30
0.0
 70
2
  0
VERTEX
  8
0
 10
247.261948
 20
257.923889
 30
0.0
 70
0
  0
VERTEX
  8
0
 10
247.261948
 20
238.723907
 30
0.0
 70
0
  0
SEQEND
  8
0
  0
POLYLINE
  8
0
 62
4
 66
1
 10
0.0
 20
0.0
 30
0.0
 70
2
  0
VERTEX
  8
0
 10
504.152161
 20
238.723907
 30
0.0
 70
0
  0
VERTEX
  8
0
 10
504.152161
 20
257.723389
 30
0.0
 70
0
  0
SEQEND
  8
0
  0
POLYLINE
  8
0
 62
4
 66
1
 10
0.0
 20
0.0
 30
0.0
 70
2
  0
VERTEX
  8
0
 10
512.152161
 20
238.723907
 30
0.0
 70
0
  0
VERTEX
  8
0
 10
512.152161
 20
257.723389
 30
0.0
 70
0
  0
SEQEND
  8
0
  0
POLYLINE
  8
0
 62
4
 66
1
 10
0.0
 20
0.0
 30
0.0
 70
2
  0
VERTEX
  8
0
 10
504.827148
 20
238.723907
 30
0.0
 70
0
  0
VERTEX
  8
0
 10
504.827148
 20
257.785461
 30
0.0
 70
0
  0
SEQEND
  8
0
  0
POLYLINE
  8
0
 62
4
 66
1
 10
0.0
 20
0.0
 30
0.0
 70
2
  0
VERTEX
  8
0
 10
511.477173
 20
238.723907
 30
0.0
 70
0
  0
VERTEX
  8
0
 10
511.477173
 20
257.785461
 30
0.0
 70
0
  0
SEQEND
  8
0
  0
CIRCLE
  8
0
 62
7
 10
250.586945
 20
217.923904
 30
0.0
 40
4.0
  0
CIRCLE
  8
0
 62
4
 10
250.586945
 20
217.923904
 30
0.0
 40
3.325
  0
POLYLINE
  8
0
 62
4
 66
1
 10
0.0
 20
0.0
 30
0.0
 70
2
  0
VERTEX
  8
0
 10
525.188843
 20
221.923904
 30
0.0
 70
0
  0
VERTEX
  8
0
 10
547.95166
 20
221.923904
 30
0.0
 70
0
  0
SEQEND
  8
0
  0
POLYLINE
  8
0
 62
4
 66
1
 10
0.0
 20
0.0
 30
0.0
 70
2
  0
VERTEX
  8
0
 10
525.188843
 20
213.923904
 30
0.0
 70
0
  0
VERTEX
  8
0
 10
547.95166
 20
213.923904
 30
0.0
 70
0
  0
SEQEND
  8
0
  0
POLYLINE
  8
0
 62
4
 66
1
 10
0.0
 20
0.0
 30
0.0
 70
2
  0
VERTEX
  8
0
 10
525.333374
 20
221.248901
 30
0.0
 70
0
  0
VERTEX
  8
0
 10
548.013733
 20
221.248901
 30
0.0
 70
0
  0
SEQEND
  8
0
  0
POLYLINE
  8
0
 62
4
 66
1
 10
0.0
 20
0.0
 30
0.0
 70
2
  0
VERTEX
  8
0
 10
525.333374
 20
214.598907
 30
0.0
 70
0
  0
VERTEX
  8
0
 10
548.013733
 20
214.598907
 30
0.0
 70
0
  0
SEQEND
  8
0
  0
POLYLINE
  8
0
 62
4
 66
1
 10
0.0
 20
0.0
 30
0.0
 70
2
  0
VERTEX
  8
0
 10
216.586945
 20
199.423904
 30
0.0
 70
0
  0
VERTEX
  8
0
 10
216.586945
 20
128.923904
 30
0.0
 70
0
  0
VERTEX
  8
0
 10
217.586945
 20
127.923904
 30
0.0
 70
0
  0
VERTEX
  8
0
 10
240.586945
 20
127.923904
 30
0.0
 70
0
  0
VERTEX
  8
0
 10
241.586945
 20
128.923904
 30
0.0
 70
0
  0
VERTEX
  8
0
 10
241.586945
 20
176.423904
 30
0.0
 70
0
  0
SEQEND
  8
0
  0
POLYLINE
  8
0
 62
4
 66
1
 10
0.0
 20
0.0
 30
0.0
 70
2
  0
VERTEX
  8
0
 10
243.086945
 20
177.923904
 30
0.0
 70
0
  0
VERTEX
  8
0
 10
258.586945
 20
177.923904
 30
0.0
 70
0
  0
VERTEX
  8
0
 10
259.586945
 20
178.923904
 30
0.0
 70
0
  0
VERTEX
  8
0
 10
259.586945
 20
256.923889
 30
0.0
 70
0
  0
VERTEX
  8
0
 10
258.586945
 20
257.923889
 30
0.0
 70
0
  0
VERTEX
  8
0
 10
243.086945
 20
257.923889
 30
0.0
 70
0
  0
SEQEND
  8
0
  0
POLYLINE
  8
0
 62
4
 66
1
 10
0.0
 20
0.0
 30
0.0
 70
2
  0
VERTEX
  8
0
 10
241.586945
 20
259.423889
 30
0.0
 70
0
  0
VERTEX
  8
0
 10
241.586945
 20
306.923889
 30
0.0
 70
0
  0
VERTEX
  8
0
 10
240.586945
 20
307.923889
 30
0.0
 70
0
  0
VERTEX
  8
0
 10
217.586945
 20
307.923889
 30
0.0
 70
0
  0
VERTEX
  8
0
 10
216.586945
 20
306.923889
 30
0.0
 70
0
  0
VERTEX
  8
0
 10
216.586945
 20
199.423904
 30
0.0
 70
0
  0
SEQEND
  8
0
  0
CIRCLE
  8
0
 62
4
 10
508.152161
 20
217.923904
 30
0.0
 40
40.0
  0
ENDSEC
  0
EOF
