  0
SECTION
  2
ENTITIES
  0
LINE
  8
0
 62
4
 10
142.630432
 20
162.885864
 30
0.0
 11
167.630432
 21
162.885864
 31
0.0
  0
LINE
  8
0
 62
4
 10
142.630432
 20
124.135864
 30
0.0
 11
167.630432
 21
124.135864
 31
0.0
  0
LINE
  8
0
 62
4
 10
184.630432
 20
133.510864
 30
0.0
 11
185.630432
 21
132.510864
 31
0.0
  0
LINE
  8
0
 62
4
 10
184.630432
 20
153.510864
 30
0.0
 11
185.630432
 21
154.510864
 31
0.0
  0
LINE
  8
0
 62
4
 10
143.630432
 20
153.510864
 30
0.0
 11
143.630432
 21
133.510864
 31
0.0
  0
POLYLINE
  8
0
 62
4
 66
1
 10
0.0
 20
0.0
 30
0.0
 70
2
  0
VERTEX
  8
0
 10
142.630432
 20
132.510864
 30
0.0
 70
0
  0
VERTEX
  8
0
 10
143.630432
 20
133.510864
 30
0.0
 70
0
  0
VERTEX
  8
0
 10
184.630432
 20
133.510864
 30
0.0
 70
0
  0
VERTEX
  8
0
 10
184.630432
 20
153.510864
 30
0.0
 70
0
  0
VERTEX
  8
0
 10
143.630432
 20
153.510864
 30
0.0
 70
0
  0
VERTEX
  8
0
 10
142.630432
 20
154.510864
 30
0.0
 70
0
  0
SEQEND
  8
0
  0
ARC
  8
0
 62
4
 10
168.630432
 20
163.510864
 30
0.0
 40
1.0
 50
180.0
 51
270.0
  0
ARC
  8
0
 62
4
 10
168.630432
 20
123.510864
 30
0.0
 40
1.0
 50
90.0
 51
180.0
  0
ARC
  8
0
 62
4
 10
341.978271
 20
143.510864
 30
0.0
 40
10.0
 50
107.45760274776076
 51
72.54239725223924
  0
POLYLINE
  8
0
 62
4
 66
1
 10
0.0
 20
0.0
 30
0.0
 70
2
  0
VERTEX
  8
0
 10
344.978271
 20
153.050262
 30
0.0
 70
0
  0
VERTEX
  8
0
 10
344.978271
 20
156.310867
 30
0.0
 70
0
  0
VERTEX
  8
0
 10
338.978271
 20
156.310867
 30
0.0
 70
0
  0
VERTEX
  8
0
 10
338.978271
 20
153.050262
 30
0.0
 70
0
  0
SEQEND
  8
0
  0
LINE
  8
0
 62
4
 10
142.630432
 20
156.310867
 30
0.0
 11
185.630432
 21
156.310867
 31
0.0
  0
POLYLINE
  8
0
 62
4
 66
1
 10
0.0
 20
0.0
 30
0.0
 70
2
  0
VERTEX
  8
0
 10
179.130432
 20
162.510864
 30
0.0
 70
0
  0
VERTEX
  8
0
 10
179.130432
 20
156.310867
 30
0.0
 70
0
  0
SEQEND
  8
0
  0
POLYLINE
  8
0
 62
4
 66
1
 10
0.0
 20
0.0
 30
0.0
 70
2
  0
VERTEX
  8
0
 10
174.130432
 20
162.510864
 30
0.0
 70
0
  0
VERTEX
  8
0
 10
174.130432
 20
156.310867
 30
0.0
 70
0
  0
SEQEND
  8
0
  0
POLYLINE
  8
0
 62
4
 66
1
 10
0.0
 20
0.0
 30
0.0
 70
2
  0
VERTEX
  8
0
 10
178.695435
 20
162.510864
 30
0.0
 70
0
  0
VERTEX
  8
0
 10
178.695435
 20
156.310867
 30
0.0
 70
0
  0
SEQEND
  8
0
  0
POLYLINE
  8
0
 62
4
 66
1
 10
0.0
 20
0.0
 30
0.0
 70
2
  0
VERTEX
  8
0
 10
174.56543
 20
162.510864
 30
0.0
 70
0
  0
VERTEX
  8
0
 10
174.56543
 20
156.310867
 30
0.0
 70
0
  0
SEQEND
  8
0
  0
POLYLINE
  8
0
 62
4
 66
1
 10
0.0
 20
0.0
 30
0.0
 70
2
  0
VERTEX
  8
0
 10
339.478271
 20
156.310867
 30
0.0
 70
0
  0
VERTEX
  8
0
 10
339.478271
 20
162.345673
 30
0.0
 70
0
  0
SEQEND
  8
0
  0
POLYLINE
  8
0
 62
4
 66
1
 10
0.0
 20
0.0
 30
0.0
 70
2
  0
VERTEX
  8
0
 10
344.478271
 20
156.310867
 30
0.0
 70
0
  0
VERTEX
  8
0
 10
344.478271
 20
162.345673
 30
0.0
 70
0
  0
SEQEND
  8
0
  0
POLYLINE
  8
0
 62
4
 66
1
 10
0.0
 20
0.0
 30
0.0
 70
2
  0
VERTEX
  8
0
 10
339.913269
 20
156.310867
 30
0.0
 70
0
  0
VERTEX
  8
0
 10
339.913269
 20
162.398315
 30
0.0
 70
0
  0
SEQEND
  8
0
  0
POLYLINE
  8
0
 62
4
 66
1
 10
0.0
 20
0.0
 30
0.0
 70
2
  0
VERTEX
  8
0
 10
344.043274
 20
156.310867
 30
0.0
 70
0
  0
VERTEX
  8
0
 10
344.043274
 20
162.398315
 30
0.0
 70
0
  0
SEQEND
  8
0
  0
CIRCLE
  8
0
 62
7
 10
176.630432
 20
143.510864
 30
0.0
 40
2.5
  0
CIRCLE
  8
0
 62
4
 10
176.630432
 20
143.510864
 30
0.0
 40
2.065
  0
POLYLINE
  8
0
 62
4
 66
1
 10
0.0
 20
0.0
 30
0.0
 70
2
  0
VERTEX
  8
0
 10
351.660706
 20
146.010864
 30
0.0
 70
0
  0
VERTEX
  8
0
 10
360.813049
 20
146.010864
 30
0.0
 70
0
  0
SEQEND
  8
0
  0
POLYLINE
  8
0
 62
4
 66
1
 10
0.0
 20
0.0
 30
0.0
 70
2
  0
VERTEX
  8
0
 10
351.660706
 20
141.010864
 30
0.0
 70
0
  0
VERTEX
  8
0
 10
360.813049
 20
141.010864
 30
0.0
 70
0
  0
SEQEND
  8
0
  0
POLYLINE
  8
0
 62
4
 66
1
 10
0.0
 20
0.0
 30
0.0
 70
2
  0
VERTEX
  8
0
 10
351.762726
 20
145.575867
 30
0.0
 70
0
  0
VERTEX
  8
0
 10
360.865723
 20
145.575867
 30
0.0
 70
0
  0
SEQEND
  8
0
  0
POLYLINE
  8
0
 62
4
 66
1
 10
0.0
 20
0.0
 30
0.0
 70
2
  0
VERTEX
  8
0
 10
351.762726
 20
141.445862
 30
0.0
 70
0
  0
VERTEX
  8
0
 10
360.865723
 20
141.445862
 30
0.0
 70
0
  0
SEQEND
  8
0
  0
POLYLINE
  8
0
 62
4
 66
1
 10
0.0
 20
0.0
 30
0.0
 70
2
  0
VERTEX
  8
0
 10
142.630432
 20
132.510864
 30
0.0
 70
0
  0
VERTEX
  8
0
 10
142.630432
 20
119.510864
 30
0.0
 70
0
  0
VERTEX
  8
0
 10
143.630432
 20
118.510864
 30
0.0
 70
0
  0
VERTEX
  8
0
 10
166.630432
 20
118.510864
 30
0.0
 70
0
  0
VERTEX
  8
0
 10
167.630432
 20
119.510864
 30
0.0
 70
0
  0
VERTEX
  8
0
 10
167.630432
 20
123.510864
 30
0.0
 70
0
  0
SEQEND
  8
0
  0
POLYLINE
  8
0
 62
4
 66
1
 10
0.0
 20
0.0
 30
0.0
 70
2
  0
VERTEX
  8
0
 10
168.630432
 20
124.510864
 30
0.0
 70
0
  0
VERTEX
  8
0
 10
184.630432
 20
124.510864
 30
0.0
 70
0
  0
VERTEX
  8
0
 10
185.630432
 20
125.510864
 30
0.0
 70
0
  0
VERTEX
  8
0
 10
185.630432
 20
161.510864
 30
0.0
 70
0
  0
VERTEX
  8
0
 10
184.630432
 20
162.510864
 30
0.0
 70
0
  0
VERTEX
  8
0
 10
168.630432
 20
162.510864
 30
0.0
 70
0
  0
SEQEND
  8
0
  0
POLYLINE
  8
0
 62
4
 66
1
 10
0.0
 20
0.0
 30
0.0
 70
2
  0
VERTEX
  8
0
 10
167.630432
 20
163.510864
 30
0.0
 70
0
  0
VERTEX
  8
0
 10
167.630432
 20
167.510864
 30
0.0
 70
0
  0
VERTEX
  8
0
 10
166.630432
 20
168.510864
 30
0.0
 70
0
  0
VERTEX
  8
0
 10
143.630432
 20
168.510864
 30
0.0
 70
0
  0
VERTEX
  8
0
 10
142.630432
 20
167.510864
 30
0.0
 70
0
  0
VERTEX
  8
0
 10
142.630432
 20
132.510864
 30
0.0
 70
0
  0
SEQEND
  8
0
  0
CIRCLE
  8
0
 62
4
 10
341.978271
 20
143.510864
 30
0.0
 40
19.0
  0
ENDSEC
  0
EOF
