  0
SECTION
  2
ENTITIES
  0
LINE
  8
0
 62
4
 10
117.978264
 20
135.206512
 30
0.0
 11
137.978271
 21
135.206512
 31
0.0
  0
LINE
  8
0
 62
4
 10
117.978264
 20
102.20652
 30
0.0
 11
137.978271
 21
102.20652
 31
0.0
  0
LINE
  8
0
 62
4
 10
153.478271
 20
112.70652
 30
0.0
 11
153.978271
 21
112.20652
 31
0.0
  0
LINE
  8
0
 62
4
 10
153.478271
 20
124.70652
 30
0.0
 11
153.978271
 21
125.20652
 31
0.0
  0
LINE
  8
0
 62
4
 10
118.478264
 20
124.70652
 30
0.0
 11
118.478264
 21
112.70652
 31
0.0
  0
POLYLINE
  8
0
 62
4
 66
1
 10
0.0
 20
0.0
 30
0.0
 70
2
  0
VERTEX
  8
0
 10
117.978264
 20
112.20652
 30
0.0
 70
0
  0
VERTEX
  8
0
 10
118.478264
 20
112.70652
 30
0.0
 70
0
  0
VERTEX
  8
0
 10
153.478271
 20
112.70652
 30
0.0
 70
0
  0
VERTEX
  8
0
 10
153.478271
 20
124.70652
 30
0.0
 70
0
  0
VERTEX
  8
0
 10
118.478264
 20
124.70652
 30
0.0
 70
0
  0
VERTEX
  8
0
 10
117.978264
 20
125.20652
 30
0.0
 70
0
  0
SEQEND
  8
0
  0
ARC
  8
0
 62
4
 10
138.978271
 20
135.206512
 30
0.0
 40
1.0
 50
180.0
 51
270.0
  0
ARC
  8
0
 62
4
 10
138.978271
 20
102.20652
 30
0.0
 40
1.0
 50
90.0
 51
180.0
  0
ARC
  8
0
 62
4
 10
283.086945
 20
118.70652
 30
0.0
 40
6.0
 50
109.47122094265586
 51
70.52877905734415
  0
POLYLINE
  8
0
 62
4
 66
1
 10
0.0
 20
0.0
 30
0.0
 70
2
  0
VERTEX
  8
0
 10
285.086945
 20
124.363373
 30
0.0
 70
0
  0
VERTEX
  8
0
 10
285.086945
 20
126.506523
 30
0.0
 70
0
  0
VERTEX
  8
0
 10
281.086945
 20
126.506523
 30
0.0
 70
0
  0
VERTEX
  8
0
 10
281.086945
 20
124.363373
 30
0.0
 70
0
  0
SEQEND
  8
0
  0
LINE
  8
0
 62
4
 10
117.978264
 20
126.506523
 30
0.0
 11
153.978271
 21
126.506523
 31
0.0
  0
POLYLINE
  8
0
 62
4
 66
1
 10
0.0
 20
0.0
 30
0.0
 70
2
  0
VERTEX
  8
0
 10
147.978271
 20
134.206512
 30
0.0
 70
0
  0
VERTEX
  8
0
 10
147.978271
 20
126.506523
 30
0.0
 70
0
  0
SEQEND
  8
0
  0
POLYLINE
  8
0
 62
4
 66
1
 10
0.0
 20
0.0
 30
0.0
 70
2
  0
VERTEX
  8
0
 10
143.978271
 20
134.206512
 30
0.0
 70
0
  0
VERTEX
  8
0
 10
143.978271
 20
126.506523
 30
0.0
 70
0
  0
SEQEND
  8
0
  0
POLYLINE
  8
0
 62
4
 66
1
 10
0.0
 20
0.0
 30
0.0
 70
2
  0
VERTEX
  8
0
 10
147.598267
 20
134.206512
 30
0.0
 70
0
  0
VERTEX
  8
0
 10
147.598267
 20
126.506523
 30
0.0
 70
0
  0
SEQEND
  8
0
  0
POLYLINE
  8
0
 62
4
 66
1
 10
0.0
 20
0.0
 30
0.0
 70
2
  0
VERTEX
  8
0
 10
144.358261
 20
134.206512
 30
0.0
 70
0
  0
VERTEX
  8
0
 10
144.358261
 20
126.506523
 30
0.0
 70
0
  0
SEQEND
  8
0
  0
POLYLINE
  8
0
 62
4
 66
1
 10
0.0
 20
0.0
 30
0.0
 70
2
  0
VERTEX
  8
0
 10
281.086945
 20
124.363373
 30
0.0
 70
0
  0
VERTEX
  8
0
 10
281.086945
 20
134.07695
 30
0.0
 70
0
  0
SEQEND
  8
0
  0
POLYLINE
  8
0
 62
4
 66
1
 10
0.0
 20
0.0
 30
0.0
 70
2
  0
VERTEX
  8
0
 10
285.086945
 20
124.363373
 30
0.0
 70
0
  0
VERTEX
  8
0
 10
285.086945
 20
134.07695
 30
0.0
 70
0
  0
SEQEND
  8
0
  0
POLYLINE
  8
0
 62
4
 66
1
 10
0.0
 20
0.0
 30
0.0
 70
2
  0
VERTEX
  8
0
 10
281.466949
 20
126.506523
 30
0.0
 70
0
  0
VERTEX
  8
0
 10
281.466949
 20
134.121628
 30
0.0
 70
0
  0
SEQEND
  8
0
  0
POLYLINE
  8
0
 62
4
 66
1
 10
0.0
 20
0.0
 30
0.0
 70
2
  0
VERTEX
  8
0
 10
284.70694
 20
126.506523
 30
0.0
 70
0
  0
VERTEX
  8
0
 10
284.70694
 20
134.121628
 30
0.0
 70
0
  0
SEQEND
  8
0
  0
CIRCLE
  8
0
 62
7
 10
145.978271
 20
118.70652
 30
0.0
 40
2.0
  0
CIRCLE
  8
0
 62
4
 10
145.978271
 20
118.70652
 30
0.0
 40
1.62
  0
POLYLINE
  8
0
 62
4
 66
1
 10
0.0
 20
0.0
 30
0.0
 70
2
  0
VERTEX
  8
0
 10
288.743805
 20
120.70652
 30
0.0
 70
0
  0
VERTEX
  8
0
 10
298.457367
 20
120.70652
 30
0.0
 70
0
  0
SEQEND
  8
0
  0
POLYLINE
  8
0
 62
4
 66
1
 10
0.0
 20
0.0
 30
0.0
 70
2
  0
VERTEX
  8
0
 10
288.743805
 20
116.70652
 30
0.0
 70
0
  0
VERTEX
  8
0
 10
298.457367
 20
116.70652
 30
0.0
 70
0
  0
SEQEND
  8
0
  0
POLYLINE
  8
0
 62
4
 66
1
 10
0.0
 20
0.0
 30
0.0
 70
2
  0
VERTEX
  8
0
 10
288.864105
 20
120.326523
 30
0.0
 70
0
  0
VERTEX
  8
0
 10
298.502075
 20
120.326523
 30
0.0
 70
0
  0
SEQEND
  8
0
  0
POLYLINE
  8
0
 62
4
 66
1
 10
0.0
 20
0.0
 30
0.0
 70
2
  0
VERTEX
  8
0
 10
288.864105
 20
117.086517
 30
0.0
 70
0
  0
VERTEX
  8
0
 10
298.502075
 20
117.086517
 30
0.0
 70
0
  0
SEQEND
  8
0
  0
POLYLINE
  8
0
 62
4
 66
1
 10
0.0
 20
0.0
 30
0.0
 70
2
  0
VERTEX
  8
0
 10
117.978264
 20
112.20652
 30
0.0
 70
0
  0
VERTEX
  8
0
 10
117.978264
 20
98.20652
 30
0.0
 70
0
  0
VERTEX
  8
0
 10
118.478264
 20
97.70652
 30
0.0
 70
0
  0
VERTEX
  8
0
 10
137.478271
 20
97.70652
 30
0.0
 70
0
  0
VERTEX
  8
0
 10
137.978271
 20
98.20652
 30
0.0
 70
0
  0
VERTEX
  8
0
 10
137.978271
 20
102.20652
 30
0.0
 70
0
  0
SEQEND
  8
0
  0
POLYLINE
  8
0
 62
4
 66
1
 10
0.0
 20
0.0
 30
0.0
 70
2
  0
VERTEX
  8
0
 10
138.978271
 20
103.20652
 30
0.0
 70
0
  0
VERTEX
  8
0
 10
153.478271
 20
103.20652
 30
0.0
 70
0
  0
VERTEX
  8
0
 10
153.978271
 20
103.70652
 30
0.0
 70
0
  0
VERTEX
  8
0
 10
153.978271
 20
133.706512
 30
0.0
 70
0
  0
VERTEX
  8
0
 10
153.478271
 20
134.206512
 30
0.0
 70
0
  0
VERTEX
  8
0
 10
138.978271
 20
134.206512
 30
0.0
 70
0
  0
SEQEND
  8
0
  0
POLYLINE
  8
0
 62
4
 66
1
 10
0.0
 20
0.0
 30
0.0
 70
2
  0
VERTEX
  8
0
 10
137.978271
 20
135.206512
 30
0.0
 70
0
  0
VERTEX
  8
0
 10
137.978271
 20
139.206512
 30
0.0
 70
0
  0
VERTEX
  8
0
 10
137.478271
 20
139.706512
 30
0.0
 70
0
  0
VERTEX
  8
0
 10
118.478264
 20
139.706512
 30
0.0
 70
0
  0
VERTEX
  8
0
 10
117.978264
 20
139.206512
 30
0.0
 70
0
  0
VERTEX
  8
0
 10
117.978264
 20
112.20652
 30
0.0
 70
0
  0
SEQEND
  8
0
  0
CIRCLE
  8
0
 62
4
 10
283.086945
 20
118.70652
 30
0.0
 40
15.5
  0
ENDSEC
  0
EOF
