  0
SECTION
  2
ENTITIES
  0
LINE
  8
0
 62
4
 10
181.369553
 20
214.364136
 30
0.0
 11
206.369553
 21
214.364136
 31
0.0
  0
LINE
  8
0
 62
4
 10
181.369553
 20
150.614136
 30
0.0
 11
206.369553
 21
150.614136
 31
0.0
  0
LINE
  8
0
 62
4
 10
223.369553
 20
171.489136
 30
0.0
 11
224.369553
 21
170.489136
 31
0.0
  0
LINE
  8
0
 62
4
 10
223.369553
 20
193.489136
 30
0.0
 11
224.369553
 21
194.489136
 31
0.0
  0
LINE
  8
0
 62
4
 10
182.369553
 20
193.489136
 30
0.0
 11
182.369553
 21
171.489136
 31
0.0
  0
POLYLINE
  8
0
 62
4
 66
1
 10
0.0
 20
0.0
 30
0.0
 70
2
  0
VERTEX
  8
0
 10
181.369553
 20
170.489136
 30
0.0
 70
0
  0
VERTEX
  8
0
 10
182.369553
 20
171.489136
 30
0.0
 70
0
  0
VERTEX
  8
0
 10
223.369553
 20
171.489136
 30
0.0
 70
0
  0
VERTEX
  8
0
 10
223.369553
 20
193.489136
 30
0.0
 70
0
  0
VERTEX
  8
0
 10
182.369553
 20
193.489136
 30
0.0
 70
0
  0
VERTEX
  8
0
 10
181.369553
 20
194.489136
 30
0.0
 70
0
  0
SEQEND
  8
0
  0
ARC
  8
0
 62
4
 10
207.369553
 20
213.489136
 30
0.0
 40
1.0
 50
180.0
 51
270.0
  0
ARC
  8
0
 62
4
 10
207.369553
 20
151.489136
 30
0.0
 40
1.0
 50
90.0
 51
180.0
  0
ARC
  8
0
 62
4
 10
429.021729
 20
182.489136
 30
0.0
 40
11.0
 50
105.82662088647183
 51
74.17337911352817
  0
POLYLINE
  8
0
 62
4
 66
1
 10
0.0
 20
0.0
 30
0.0
 70
2
  0
VERTEX
  8
0
 10
432.021729
 20
193.072144
 30
0.0
 70
0
  0
VERTEX
  8
0
 10
432.021729
 20
196.289139
 30
0.0
 70
0
  0
VERTEX
  8
0
 10
426.021729
 20
196.289139
 30
0.0
 70
0
  0
VERTEX
  8
0
 10
426.021729
 20
193.072144
 30
0.0
 70
0
  0
SEQEND
  8
0
  0
LINE
  8
0
 62
4
 10
181.369553
 20
196.289139
 30
0.0
 11
224.369553
 21
196.289139
 31
0.0
  0
POLYLINE
  8
0
 62
4
 66
1
 10
0.0
 20
0.0
 30
0.0
 70
2
  0
VERTEX
  8
0
 10
217.869553
 20
212.489136
 30
0.0
 70
0
  0
VERTEX
  8
0
 10
217.869553
 20
196.289139
 30
0.0
 70
0
  0
SEQEND
  8
0
  0
POLYLINE
  8
0
 62
4
 66
1
 10
0.0
 20
0.0
 30
0.0
 70
2
  0
VERTEX
  8
0
 10
212.869553
 20
212.489136
 30
0.0
 70
0
  0
VERTEX
  8
0
 10
212.869553
 20
196.289139
 30
0.0
 70
0
  0
SEQEND
  8
0
  0
POLYLINE
  8
0
 62
4
 66
1
 10
0.0
 20
0.0
 30
0.0
 70
2
  0
VERTEX
  8
0
 10
217.434555
 20
212.489136
 30
0.0
 70
0
  0
VERTEX
  8
0
 10
217.434555
 20
196.289139
 30
0.0
 70
0
  0
SEQEND
  8
0
  0
POLYLINE
  8
0
 62
4
 66
1
 10
0.0
 20
0.0
 30
0.0
 70
2
  0
VERTEX
  8
0
 10
213.30455
 20
212.489136
 30
0.0
 70
0
  0
VERTEX
  8
0
 10
213.30455
 20
196.289139
 30
0.0
 70
0
  0
SEQEND
  8
0
  0
POLYLINE
  8
0
 62
4
 66
1
 10
0.0
 20
0.0
 30
0.0
 70
2
  0
VERTEX
  8
0
 10
426.521729
 20
196.289139
 30
0.0
 70
0
  0
VERTEX
  8
0
 10
426.521729
 20
212.384796
 30
0.0
 70
0
  0
SEQEND
  8
0
  0
POLYLINE
  8
0
 62
4
 66
1
 10
0.0
 20
0.0
 30
0.0
 70
2
  0
VERTEX
  8
0
 10
431.521729
 20
196.289139
 30
0.0
 70
0
  0
VERTEX
  8
0
 10
431.521729
 20
212.384796
 30
0.0
 70
0
  0
SEQEND
  8
0
  0
POLYLINE
  8
0
 62
4
 66
1
 10
0.0
 20
0.0
 30
0.0
 70
2
  0
VERTEX
  8
0
 10
426.956726
 20
196.289139
 30
0.0
 70
0
  0
VERTEX
  8
0
 10
426.956726
 20
212.417984
 30
0.0
 70
0
  0
SEQEND
  8
0
  0
POLYLINE
  8
0
 62
4
 66
1
 10
0.0
 20
0.0
 30
0.0
 70
2
  0
VERTEX
  8
0
 10
431.086731
 20
196.289139
 30
0.0
 70
0
  0
VERTEX
  8
0
 10
431.086731
 20
212.417984
 30
0.0
 70
0
  0
SEQEND
  8
0
  0
CIRCLE
  8
0
 62
7
 10
215.369553
 20
182.489136
 30
0.0
 40
2.5
  0
CIRCLE
  8
0
 62
4
 10
215.369553
 20
182.489136
 30
0.0
 40
2.065
  0
POLYLINE
  8
0
 62
4
 66
1
 10
0.0
 20
0.0
 30
0.0
 70
2
  0
VERTEX
  8
0
 10
439.733887
 20
184.989136
 30
0.0
 70
0
  0
VERTEX
  8
0
 10
458.917358
 20
184.989136
 30
0.0
 70
0
  0
SEQEND
  8
0
  0
POLYLINE
  8
0
 62
4
 66
1
 10
0.0
 20
0.0
 30
0.0
 70
2
  0
VERTEX
  8
0
 10
439.733887
 20
179.989136
 30
0.0
 70
0
  0
VERTEX
  8
0
 10
458.917358
 20
179.989136
 30
0.0
 70
0
  0
SEQEND
  8
0
  0
POLYLINE
  8
0
 62
4
 66
1
 10
0.0
 20
0.0
 30
0.0
 70
2
  0
VERTEX
  8
0
 10
439.826172
 20
184.554138
 30
0.0
 70
0
  0
VERTEX
  8
0
 10
458.950562
 20
184.554138
 30
0.0
 70
0
  0
SEQEND
  8
0
  0
POLYLINE
  8
0
 62
4
 66
1
 10
0.0
 20
0.0
 30
0.0
 70
2
  0
VERTEX
  8
0
 10
439.826172
 20
180.424133
 30
0.0
 70
0
  0
VERTEX
  8
0
 10
458.950562
 20
180.424133
 30
0.0
 70
0
  0
SEQEND
  8
0
  0
POLYLINE
  8
0
 62
4
 66
1
 10
0.0
 20
0.0
 30
0.0
 70
2
  0
VERTEX
  8
0
 10
181.369553
 20
170.489136
 30
0.0
 70
0
  0
VERTEX
  8
0
 10
181.369553
 20
145.989136
 30
0.0
 70
0
  0
VERTEX
  8
0
 10
182.369553
 20
144.989136
 30
0.0
 70
0
  0
VERTEX
  8
0
 10
205.369553
 20
144.989136
 30
0.0
 70
0
  0
VERTEX
  8
0
 10
206.369553
 20
145.989136
 30
0.0
 70
0
  0
VERTEX
  8
0
 10
206.369553
 20
151.489136
 30
0.0
 70
0
  0
SEQEND
  8
0
  0
POLYLINE
  8
0
 62
4
 66
1
 10
0.0
 20
0.0
 30
0.0
 70
2
  0
VERTEX
  8
0
 10
207.369553
 20
152.489136
 30
0.0
 70
0
  0
VERTEX
  8
0
 10
223.369553
 20
152.489136
 30
0.0
 70
0
  0
VERTEX
  8
0
 10
224.369553
 20
153.489136
 30
0.0
 70
0
  0
VERTEX
  8
0
 10
224.369553
 20
211.489136
 30
0.0
 70
0
  0
VERTEX
  8
0
 10
223.369553
 20
212.489136
 30
0.0
 70
0
  0
VERTEX
  8
0
 10
207.369553
 20
212.489136
 30
0.0
 70
0
  0
SEQEND
  8
0
  0
POLYLINE
  8
0
 62
4
 66
1
 10
0.0
 20
0.0
 30
0.0
 70
2
  0
VERTEX
  8
0
 10
206.369553
 20
213.489136
 30
0.0
 70
0
  0
VERTEX
  8
0
 10
206.369553
 20
218.989136
 30
0.0
 70
0
  0
VERTEX
  8
0
 10
205.369553
 20
219.989136
 30
0.0
 70
0
  0
VERTEX
  8
0
 10
182.369553
 20
219.989136
 30
0.0
 70
0
  0
VERTEX
  8
0
 10
181.369553
 20
218.989136
 30
0.0
 70
0
  0
VERTEX
  8
0
 10
181.369553
 20
170.489136
 30
0.0
 70
0
  0
SEQEND
  8
0
  0
CIRCLE
  8
0
 62
4
 10
429.021729
 20
182.489136
 30
0.0
 40
30.0
  0
ENDSEC
  0
EOF
