  0
SECTION
  2
ENTITIES
  0
LINE
  8
0
 62
4
 10
170.804337
 20
201.233688
 30
0.0
 11
195.804337
 21
201.233688
 31
0.0
  0
LINE
  8
0
 62
4
 10
170.804337
 20
142.483688
 30
0.0
 11
195.804337
 21
142.483688
 31
0.0
  0
LINE
  8
0
 62
4
 10
212.804337
 20
160.858688
 30
0.0
 11
213.804337
 21
159.858688
 31
0.0
  0
LINE
  8
0
 62
4
 10
212.804337
 20
182.858688
 30
0.0
 11
213.804337
 21
183.858688
 31
0.0
  0
LINE
  8
0
 62
4
 10
171.804337
 20
182.858688
 30
0.0
 11
171.804337
 21
160.858688
 31
0.0
  0
POLYLINE
  8
0
 62
4
 66
1
 10
0.0
 20
0.0
 30
0.0
 70
2
  0
VERTEX
  8
0
 10
170.804337
 20
159.858688
 30
0.0
 70
0
  0
VERTEX
  8
0
 10
171.804337
 20
160.858688
 30
0.0
 70
0
  0
VERTEX
  8
0
 10
212.804337
 20
160.858688
 30
0.0
 70
0
  0
VERTEX
  8
0
 10
212.804337
 20
182.858688
 30
0.0
 70
0
  0
VERTEX
  8
0
 10
171.804337
 20
182.858688
 30
0.0
 70
0
  0
VERTEX
  8
0
 10
170.804337
 20
183.858688
 30
0.0
 70
0
  0
SEQEND
  8
0
  0
ARC
  8
0
 62
4
 10
196.804337
 20
199.858688
 30
0.0
 40
1.0
 50
180.0
 51
270.0
  0
ARC
  8
0
 62
4
 10
196.804337
 20
143.858688
 30
0.0
 40
1.0
 50
90.0
 51
180.0
  0
ARC
  8
0
 62
4
 10
405.282593
 20
171.858688
 30
0.0
 40
11.0
 50
105.82662088647183
 51
74.17337911352817
  0
POLYLINE
  8
0
 62
4
 66
1
 10
0.0
 20
0.0
 30
0.0
 70
2
  0
VERTEX
  8
0
 10
408.282593
 20
182.441696
 30
0.0
 70
0
  0
VERTEX
  8
0
 10
408.282593
 20
185.658691
 30
0.0
 70
0
  0
VERTEX
  8
0
 10
402.282593
 20
185.658691
 30
0.0
 70
0
  0
VERTEX
  8
0
 10
402.282593
 20
182.441696
 30
0.0
 70
0
  0
SEQEND
  8
0
  0
LINE
  8
0
 62
4
 10
170.804337
 20
185.658691
 30
0.0
 11
213.804337
 21
185.658691
 31
0.0
  0
POLYLINE
  8
0
 62
4
 66
1
 10
0.0
 20
0.0
 30
0.0
 70
2
  0
VERTEX
  8
0
 10
207.304337
 20
198.858688
 30
0.0
 70
0
  0
VERTEX
  8
0
 10
207.304337
 20
185.658691
 30
0.0
 70
0
  0
SEQEND
  8
0
  0
POLYLINE
  8
0
 62
4
 66
1
 10
0.0
 20
0.0
 30
0.0
 70
2
  0
VERTEX
  8
0
 10
202.304337
 20
198.858688
 30
0.0
 70
0
  0
VERTEX
  8
0
 10
202.304337
 20
185.658691
 30
0.0
 70
0
  0
SEQEND
  8
0
  0
POLYLINE
  8
0
 62
4
 66
1
 10
0.0
 20
0.0
 30
0.0
 70
2
  0
VERTEX
  8
0
 10
206.869339
 20
198.858688
 30
0.0
 70
0
  0
VERTEX
  8
0
 10
206.869339
 20
185.658691
 30
0.0
 70
0
  0
SEQEND
  8
0
  0
POLYLINE
  8
0
 62
4
 66
1
 10
0.0
 20
0.0
 30
0.0
 70
2
  0
VERTEX
  8
0
 10
202.739334
 20
198.858688
 30
0.0
 70
0
  0
VERTEX
  8
0
 10
202.739334
 20
185.658691
 30
0.0
 70
0
  0
SEQEND
  8
0
  0
POLYLINE
  8
0
 62
4
 66
1
 10
0.0
 20
0.0
 30
0.0
 70
2
  0
VERTEX
  8
0
 10
402.782593
 20
185.658691
 30
0.0
 70
0
  0
VERTEX
  8
0
 10
402.782593
 20
198.742706
 30
0.0
 70
0
  0
SEQEND
  8
0
  0
POLYLINE
  8
0
 62
4
 66
1
 10
0.0
 20
0.0
 30
0.0
 70
2
  0
VERTEX
  8
0
 10
407.782593
 20
185.658691
 30
0.0
 70
0
  0
VERTEX
  8
0
 10
407.782593
 20
198.742706
 30
0.0
 70
0
  0
SEQEND
  8
0
  0
POLYLINE
  8
0
 62
4
 66
1
 10
0.0
 20
0.0
 30
0.0
 70
2
  0
VERTEX
  8
0
 10
403.21759
 20
185.658691
 30
0.0
 70
0
  0
VERTEX
  8
0
 10
403.21759
 20
198.779602
 30
0.0
 70
0
  0
SEQEND
  8
0
  0
POLYLINE
  8
0
 62
4
 66
1
 10
0.0
 20
0.0
 30
0.0
 70
2
  0
VERTEX
  8
0
 10
407.347595
 20
185.658691
 30
0.0
 70
0
  0
VERTEX
  8
0
 10
407.347595
 20
198.779602
 30
0.0
 70
0
  0
SEQEND
  8
0
  0
CIRCLE
  8
0
 62
7
 10
204.804337
 20
171.858688
 30
0.0
 40
2.5
  0
CIRCLE
  8
0
 62
4
 10
204.804337
 20
171.858688
 30
0.0
 40
2.065
  0
POLYLINE
  8
0
 62
4
 66
1
 10
0.0
 20
0.0
 30
0.0
 70
2
  0
VERTEX
  8
0
 10
415.994751
 20
174.358688
 30
0.0
 70
0
  0
VERTEX
  8
0
 10
432.166626
 20
174.358688
 30
0.0
 70
0
  0
SEQEND
  8
0
  0
POLYLINE
  8
0
 62
4
 66
1
 10
0.0
 20
0.0
 30
0.0
 70
2
  0
VERTEX
  8
0
 10
415.994751
 20
169.358688
 30
0.0
 70
0
  0
VERTEX
  8
0
 10
432.166626
 20
169.358688
 30
0.0
 70
0
  0
SEQEND
  8
0
  0
POLYLINE
  8
0
 62
4
 66
1
 10
0.0
 20
0.0
 30
0.0
 70
2
  0
VERTEX
  8
0
 10
416.087036
 20
173.923691
 30
0.0
 70
0
  0
VERTEX
  8
0
 10
432.203491
 20
173.923691
 30
0.0
 70
0
  0
SEQEND
  8
0
  0
POLYLINE
  8
0
 62
4
 66
1
 10
0.0
 20
0.0
 30
0.0
 70
2
  0
VERTEX
  8
0
 10
416.087036
 20
169.793686
 30
0.0
 70
0
  0
VERTEX
  8
0
 10
432.203491
 20
169.793686
 30
0.0
 70
0
  0
SEQEND
  8
0
  0
POLYLINE
  8
0
 62
4
 66
1
 10
0.0
 20
0.0
 30
0.0
 70
2
  0
VERTEX
  8
0
 10
170.804337
 20
159.858688
 30
0.0
 70
0
  0
VERTEX
  8
0
 10
170.804337
 20
137.858688
 30
0.0
 70
0
  0
VERTEX
  8
0
 10
171.804337
 20
136.858688
 30
0.0
 70
0
  0
VERTEX
  8
0
 10
194.804337
 20
136.858688
 30
0.0
 70
0
  0
VERTEX
  8
0
 10
195.804337
 20
137.858688
 30
0.0
 70
0
  0
VERTEX
  8
0
 10
195.804337
 20
143.858688
 30
0.0
 70
0
  0
SEQEND
  8
0
  0
POLYLINE
  8
0
 62
4
 66
1
 10
0.0
 20
0.0
 30
0.0
 70
2
  0
VERTEX
  8
0
 10
196.804337
 20
144.858688
 30
0.0
 70
0
  0
VERTEX
  8
0
 10
212.804337
 20
144.858688
 30
0.0
 70
0
  0
VERTEX
  8
0
 10
213.804337
 20
145.858688
 30
0.0
 70
0
  0
VERTEX
  8
0
 10
213.804337
 20
197.858688
 30
0.0
 70
0
  0
VERTEX
  8
0
 10
212.804337
 20
198.858688
 30
0.0
 70
0
  0
VERTEX
  8
0
 10
196.804337
 20
198.858688
 30
0.0
 70
0
  0
SEQEND
  8
0
  0
POLYLINE
  8
0
 62
4
 66
1
 10
0.0
 20
0.0
 30
0.0
 70
2
  0
VERTEX
  8
0
 10
195.804337
 20
199.858688
 30
0.0
 70
0
  0
VERTEX
  8
0
 10
195.804337
 20
205.858688
 30
0.0
 70
0
  0
VERTEX
  8
0
 10
194.804337
 20
206.858688
 30
0.0
 70
0
  0
VERTEX
  8
0
 10
171.804337
 20
206.858688
 30
0.0
 70
0
  0
VERTEX
  8
0
 10
170.804337
 20
205.858688
 30
0.0
 70
0
  0
VERTEX
  8
0
 10
170.804337
 20
159.858688
 30
0.0
 70
0
  0
SEQEND
  8
0
  0
CIRCLE
  8
0
 62
4
 10
405.282593
 20
171.858688
 30
0.0
 40
27.0
  0
ENDSEC
  0
EOF
