  0
SECTION
  2
ENTITIES
  0
LINE
  8
0
 62
4
 10
190.17392
 20
225.722824
 30
0.0
 11
215.17392
 21
225.722824
 31
0.0
  0
LINE
  8
0
 62
4
 10
190.17392
 20
156.972824
 30
0.0
 11
215.17392
 21
156.972824
 31
0.0
  0
LINE
  8
0
 62
4
 10
232.17392
 20
181.347824
 30
0.0
 11
233.17392
 21
180.347824
 31
0.0
  0
LINE
  8
0
 62
4
 10
232.17392
 20
201.347824
 30
0.0
 11
233.17392
 21
202.347824
 31
0.0
  0
LINE
  8
0
 62
4
 10
191.17392
 20
201.347824
 30
0.0
 11
191.17392
 21
181.347824
 31
0.0
  0
POLYLINE
  8
0
 62
4
 66
1
 10
0.0
 20
0.0
 30
0.0
 70
2
  0
VERTEX
  8
0
 10
190.17392
 20
180.347824
 30
0.0
 70
0
  0
VERTEX
  8
0
 10
191.17392
 20
181.347824
 30
0.0
 70
0
  0
VERTEX
  8
0
 10
232.17392
 20
181.347824
 30
0.0
 70
0
  0
VERTEX
  8
0
 10
232.17392
 20
201.347824
 30
0.0
 70
0
  0
VERTEX
  8
0
 10
191.17392
 20
201.347824
 30
0.0
 70
0
  0
VERTEX
  8
0
 10
190.17392
 20
202.347824
 30
0.0
 70
0
  0
SEQEND
  8
0
  0
ARC
  8
0
 62
4
 10
216.67392
 20
225.347824
 30
0.0
 40
1.5
 50
180.0
 51
270.0
  0
ARC
  8
0
 62
4
 10
216.67392
 20
157.347824
 30
0.0
 40
1.5
 50
90.0
 51
180.0
  0
POLYLINE
  8
0
 62
4
 66
1
 10
0.0
 20
0.0
 30
0.0
 70
2
  0
VERTEX
  8
0
 10
190.17392
 20
180.347824
 30
0.0
 70
0
  0
VERTEX
  8
0
 10
190.17392
 20
152.347824
 30
0.0
 70
0
  0
VERTEX
  8
0
 10
191.17392
 20
151.347824
 30
0.0
 70
0
  0
VERTEX
  8
0
 10
214.17392
 20
151.347824
 30
0.0
 70
0
  0
VERTEX
  8
0
 10
215.17392
 20
152.347824
 30
0.0
 70
0
  0
VERTEX
  8
0
 10
215.17392
 20
157.347824
 30
0.0
 70
0
  0
SEQEND
  8
0
  0
POLYLINE
  8
0
 62
4
 66
1
 10
0.0
 20
0.0
 30
0.0
 70
2
  0
VERTEX
  8
0
 10
216.67392
 20
158.847824
 30
0.0
 70
0
  0
VERTEX
  8
0
 10
232.17392
 20
158.847824
 30
0.0
 70
0
  0
VERTEX
  8
0
 10
233.17392
 20
159.847824
 30
0.0
 70
0
  0
VERTEX
  8
0
 10
233.17392
 20
222.847824
 30
0.0
 70
0
  0
VERTEX
  8
0
 10
232.17392
 20
223.847824
 30
0.0
 70
0
  0
VERTEX
  8
0
 10
216.67392
 20
223.847824
 30
0.0
 70
0
  0
SEQEND
  8
0
  0
POLYLINE
  8
0
 62
4
 66
1
 10
0.0
 20
0.0
 30
0.0
 70
2
  0
VERTEX
  8
0
 10
215.17392
 20
225.347824
 30
0.0
 70
0
  0
VERTEX
  8
0
 10
215.17392
 20
230.347824
 30
0.0
 70
0
  0
VERTEX
  8
0
 10
214.17392
 20
231.347824
 30
0.0
 70
0
  0
VERTEX
  8
0
 10
191.17392
 20
231.347824
 30
0.0
 70
0
  0
VERTEX
  8
0
 10
190.17392
 20
230.347824
 30
0.0
 70
0
  0
VERTEX
  8
0
 10
190.17392
 20
180.347824
 30
0.0
 70
0
  0
SEQEND
  8
0
  0
ENDSEC
  0
EOF
