  0
SECTION
  2
ENTITIES
  0
LINE
  8
0
 62
4
 10
202.5
 20
240.5
 30
0.0
 11
232.5
 21
240.5
 31
0.0
  0
LINE
  8
0
 62
4
 10
202.5
 20
167.0
 30
0.0
 11
232.5
 21
167.0
 31
0.0
  0
LINE
  8
0
 62
4
 10
251.5
 20
186.25
 30
0.0
 11
252.5
 21
185.25
 31
0.0
  0
LINE
  8
0
 62
4
 10
251.5
 20
221.25
 30
0.0
 11
252.5
 21
222.25
 31
0.0
  0
LINE
  8
0
 62
4
 10
203.5
 20
221.25
 30
0.0
 11
203.5
 21
186.25
 31
0.0
  0
POLYLINE
  8
0
 62
4
 66
1
 10
0.0
 20
0.0
 30
0.0
 70
2
  0
VERTEX
  8
0
 10
202.5
 20
185.25
 30
0.0
 70
0
  0
VERTEX
  8
0
 10
203.5
 20
186.25
 30
0.0
 70
0
  0
VERTEX
  8
0
 10
251.5
 20
186.25
 30
0.0
 70
0
  0
VERTEX
  8
0
 10
251.5
 20
221.25
 30
0.0
 70
0
  0
VERTEX
  8
0
 10
203.5
 20
221.25
 30
0.0
 70
0
  0
VERTEX
  8
0
 10
202.5
 20
222.25
 30
0.0
 70
0
  0
SEQEND
  8
0
  0
ARC
  8
0
 62
4
 10
234.0
 20
237.75
 30
0.0
 40
1.5
 50
180.0
 51
270.0
  0
ARC
  8
0
 62
4
 10
234.0
 20
169.75
 30
0.0
 40
1.5
 50
90.0
 51
180.0
  0
ARC
  8
0
 62
4
 10
480.0
 20
203.75
 30
0.0
 40
17.5
 50
106.60154992625478
 51
73.39845007374521
  0
POLYLINE
  8
0
 62
4
 66
1
 10
0.0
 20
0.0
 30
0.0
 70
2
  0
VERTEX
  8
0
 10
485.0
 20
220.520508
 30
0.0
 70
0
  0
VERTEX
  8
0
 10
485.0
 20
224.550003
 30
0.0
 70
0
  0
VERTEX
  8
0
 10
475.0
 20
224.550003
 30
0.0
 70
0
  0
VERTEX
  8
0
 10
475.0
 20
220.520508
 30
0.0
 70
0
  0
SEQEND
  8
0
  0
LINE
  8
0
 62
4
 10
202.5
 20
224.550003
 30
0.0
 11
252.5
 21
224.550003
 31
0.0
  0
POLYLINE
  8
0
 62
4
 66
1
 10
0.0
 20
0.0
 30
0.0
 70
2
  0
VERTEX
  8
0
 10
246.5
 20
236.25
 30
0.0
 70
0
  0
VERTEX
  8
0
 10
246.5
 20
224.550003
 30
0.0
 70
0
  0
SEQEND
  8
0
  0
POLYLINE
  8
0
 62
4
 66
1
 10
0.0
 20
0.0
 30
0.0
 70
2
  0
VERTEX
  8
0
 10
238.5
 20
236.25
 30
0.0
 70
0
  0
VERTEX
  8
0
 10
238.5
 20
224.550003
 30
0.0
 70
0
  0
SEQEND
  8
0
  0
POLYLINE
  8
0
 62
4
 66
1
 10
0.0
 20
0.0
 30
0.0
 70
2
  0
VERTEX
  8
0
 10
245.824997
 20
236.25
 30
0.0
 70
0
  0
VERTEX
  8
0
 10
245.824997
 20
224.550003
 30
0.0
 70
0
  0
SEQEND
  8
0
  0
POLYLINE
  8
0
 62
4
 66
1
 10
0.0
 20
0.0
 30
0.0
 70
2
  0
VERTEX
  8
0
 10
239.175003
 20
236.25
 30
0.0
 70
0
  0
VERTEX
  8
0
 10
239.175003
 20
224.550003
 30
0.0
 70
0
  0
SEQEND
  8
0
  0
POLYLINE
  8
0
 62
4
 66
1
 10
0.0
 20
0.0
 30
0.0
 70
2
  0
VERTEX
  8
0
 10
476.0
 20
224.550003
 30
0.0
 70
0
  0
VERTEX
  8
0
 10
476.0
 20
236.002899
 30
0.0
 70
0
  0
SEQEND
  8
0
  0
POLYLINE
  8
0
 62
4
 66
1
 10
0.0
 20
0.0
 30
0.0
 70
2
  0
VERTEX
  8
0
 10
484.0
 20
224.550003
 30
0.0
 70
0
  0
VERTEX
  8
0
 10
484.0
 20
236.002899
 30
0.0
 70
0
  0
SEQEND
  8
0
  0
POLYLINE
  8
0
 62
4
 66
1
 10
0.0
 20
0.0
 30
0.0
 70
2
  0
VERTEX
  8
0
 10
476.674988
 20
224.550003
 30
0.0
 70
0
  0
VERTEX
  8
0
 10
476.674988
 20
236.079468
 30
0.0
 70
0
  0
SEQEND
  8
0
  0
POLYLINE
  8
0
 62
4
 66
1
 10
0.0
 20
0.0
 30
0.0
 70
2
  0
VERTEX
  8
0
 10
483.325012
 20
224.550003
 30
0.0
 70
0
  0
VERTEX
  8
0
 10
483.325012
 20
236.079468
 30
0.0
 70
0
  0
SEQEND
  8
0
  0
CIRCLE
  8
0
 62
7
 10
242.5
 20
203.75
 30
0.0
 40
4.0
  0
CIRCLE
  8
0
 62
4
 10
242.5
 20
203.75
 30
0.0
 40
3.325
  0
POLYLINE
  8
0
 62
4
 66
1
 10
0.0
 20
0.0
 30
0.0
 70
2
  0
VERTEX
  8
0
 10
497.036713
 20
207.75
 30
0.0
 70
0
  0
VERTEX
  8
0
 10
512.25293
 20
207.75
 30
0.0
 70
0
  0
SEQEND
  8
0
  0
POLYLINE
  8
0
 62
4
 66
1
 10
0.0
 20
0.0
 30
0.0
 70
2
  0
VERTEX
  8
0
 10
497.036713
 20
199.75
 30
0.0
 70
0
  0
VERTEX
  8
0
 10
512.25293
 20
199.75
 30
0.0
 70
0
  0
SEQEND
  8
0
  0
POLYLINE
  8
0
 62
4
 66
1
 10
0.0
 20
0.0
 30
0.0
 70
2
  0
VERTEX
  8
0
 10
497.181213
 20
207.074997
 30
0.0
 70
0
  0
VERTEX
  8
0
 10
512.329468
 20
207.074997
 30
0.0
 70
0
  0
SEQEND
  8
0
  0
POLYLINE
  8
0
 62
4
 66
1
 10
0.0
 20
0.0
 30
0.0
 70
2
  0
VERTEX
  8
0
 10
497.181213
 20
200.425003
 30
0.0
 70
0
  0
VERTEX
  8
0
 10
512.329468
 20
200.425003
 30
0.0
 70
0
  0
SEQEND
  8
0
  0
POLYLINE
  8
0
 62
4
 66
1
 10
0.0
 20
0.0
 30
0.0
 70
2
  0
VERTEX
  8
0
 10
202.5
 20
185.25
 30
0.0
 70
0
  0
VERTEX
  8
0
 10
202.5
 20
161.25
 30
0.0
 70
0
  0
VERTEX
  8
0
 10
203.5
 20
160.25
 30
0.0
 70
0
  0
VERTEX
  8
0
 10
231.5
 20
160.25
 30
0.0
 70
0
  0
VERTEX
  8
0
 10
232.5
 20
161.25
 30
0.0
 70
0
  0
VERTEX
  8
0
 10
232.5
 20
169.75
 30
0.0
 70
0
  0
SEQEND
  8
0
  0
POLYLINE
  8
0
 62
4
 66
1
 10
0.0
 20
0.0
 30
0.0
 70
2
  0
VERTEX
  8
0
 10
234.0
 20
171.25
 30
0.0
 70
0
  0
VERTEX
  8
0
 10
251.5
 20
171.25
 30
0.0
 70
0
  0
VERTEX
  8
0
 10
252.5
 20
172.25
 30
0.0
 70
0
  0
VERTEX
  8
0
 10
252.5
 20
235.25
 30
0.0
 70
0
  0
VERTEX
  8
0
 10
251.5
 20
236.25
 30
0.0
 70
0
  0
VERTEX
  8
0
 10
234.0
 20
236.25
 30
0.0
 70
0
  0
SEQEND
  8
0
  0
POLYLINE
  8
0
 62
4
 66
1
 10
0.0
 20
0.0
 30
0.0
 70
2
  0
VERTEX
  8
0
 10
232.5
 20
237.75
 30
0.0
 70
0
  0
VERTEX
  8
0
 10
232.5
 20
246.25
 30
0.0
 70
0
  0
VERTEX
  8
0
 10
231.5
 20
247.25
 30
0.0
 70
0
  0
VERTEX
  8
0
 10
203.5
 20
247.25
 30
0.0
 70
0
  0
VERTEX
  8
0
 10
202.5
 20
246.25
 30
0.0
 70
0
  0
VERTEX
  8
0
 10
202.5
 20
185.25
 30
0.0
 70
0
  0
SEQEND
  8
0
  0
CIRCLE
  8
0
 62
4
 10
480.0
 20
203.75
 30
0.0
 40
32.5
  0
ENDSEC
  0
EOF
