  0
SECTION
  2
ENTITIES
  0
LINE
  8
0
 62
4
 10
153.195663
 20
175.891312
 30
0.0
 11
183.195663
 21
175.891312
 31
0.0
  0
LINE
  8
0
 62
4
 10
153.195663
 20
132.391312
 30
0.0
 11
183.195663
 21
132.391312
 31
0.0
  0
LINE
  8
0
 62
4
 10
202.695663
 20
145.641312
 30
0.0
 11
203.195663
 21
145.141312
 31
0.0
  0
LINE
  8
0
 62
4
 10
202.695663
 20
162.641312
 30
0.0
 11
203.195663
 21
163.141312
 31
0.0
  0
LINE
  8
0
 62
4
 10
153.695663
 20
162.641312
 30
0.0
 11
153.695663
 21
145.641312
 31
0.0
  0
POLYLINE
  8
0
 62
4
 66
1
 10
0.0
 20
0.0
 30
0.0
 70
2
  0
VERTEX
  8
0
 10
153.195663
 20
145.141312
 30
0.0
 70
0
  0
VERTEX
  8
0
 10
153.695663
 20
145.641312
 30
0.0
 70
0
  0
VERTEX
  8
0
 10
202.695663
 20
145.641312
 30
0.0
 70
0
  0
VERTEX
  8
0
 10
202.695663
 20
162.641312
 30
0.0
 70
0
  0
VERTEX
  8
0
 10
153.695663
 20
162.641312
 30
0.0
 70
0
  0
VERTEX
  8
0
 10
153.195663
 20
163.141312
 30
0.0
 70
0
  0
SEQEND
  8
0
  0
ARC
  8
0
 62
4
 10
184.195663
 20
173.641312
 30
0.0
 40
1.0
 50
180.0
 51
270.0
  0
ARC
  8
0
 62
4
 10
184.195663
 20
134.641312
 30
0.0
 40
1.0
 50
90.0
 51
180.0
  0
ARC
  8
0
 62
4
 10
369.217407
 20
154.141312
 30
0.0
 40
8.5
 50
107.10463483476482
 51
72.89536516523518
  0
POLYLINE
  8
0
 62
4
 66
1
 10
0.0
 20
0.0
 30
0.0
 70
2
  0
VERTEX
  8
0
 10
371.717407
 20
162.26535
 30
0.0
 70
0
  0
VERTEX
  8
0
 10
371.717407
 20
164.941315
 30
0.0
 70
0
  0
VERTEX
  8
0
 10
366.717407
 20
164.941315
 30
0.0
 70
0
  0
VERTEX
  8
0
 10
366.717407
 20
162.26535
 30
0.0
 70
0
  0
SEQEND
  8
0
  0
LINE
  8
0
 62
4
 10
153.195663
 20
164.941315
 30
0.0
 11
203.195663
 21
164.941315
 31
0.0
  0
POLYLINE
  8
0
 62
4
 66
1
 10
0.0
 20
0.0
 30
0.0
 70
2
  0
VERTEX
  8
0
 10
195.195663
 20
172.641312
 30
0.0
 70
0
  0
VERTEX
  8
0
 10
195.195663
 20
164.941315
 30
0.0
 70
0
  0
SEQEND
  8
0
  0
POLYLINE
  8
0
 62
4
 66
1
 10
0.0
 20
0.0
 30
0.0
 70
2
  0
VERTEX
  8
0
 10
191.195663
 20
172.641312
 30
0.0
 70
0
  0
VERTEX
  8
0
 10
191.195663
 20
164.941315
 30
0.0
 70
0
  0
SEQEND
  8
0
  0
POLYLINE
  8
0
 62
4
 66
1
 10
0.0
 20
0.0
 30
0.0
 70
2
  0
VERTEX
  8
0
 10
194.815659
 20
172.641312
 30
0.0
 70
0
  0
VERTEX
  8
0
 10
194.815659
 20
164.941315
 30
0.0
 70
0
  0
SEQEND
  8
0
  0
POLYLINE
  8
0
 62
4
 66
1
 10
0.0
 20
0.0
 30
0.0
 70
2
  0
VERTEX
  8
0
 10
191.575668
 20
172.641312
 30
0.0
 70
0
  0
VERTEX
  8
0
 10
191.575668
 20
164.941315
 30
0.0
 70
0
  0
SEQEND
  8
0
  0
POLYLINE
  8
0
 62
4
 66
1
 10
0.0
 20
0.0
 30
0.0
 70
2
  0
VERTEX
  8
0
 10
367.217407
 20
164.941315
 30
0.0
 70
0
  0
VERTEX
  8
0
 10
367.217407
 20
172.532883
 30
0.0
 70
0
  0
SEQEND
  8
0
  0
POLYLINE
  8
0
 62
4
 66
1
 10
0.0
 20
0.0
 30
0.0
 70
2
  0
VERTEX
  8
0
 10
371.217407
 20
164.941315
 30
0.0
 70
0
  0
VERTEX
  8
0
 10
371.217407
 20
172.532883
 30
0.0
 70
0
  0
SEQEND
  8
0
  0
POLYLINE
  8
0
 62
4
 66
1
 10
0.0
 20
0.0
 30
0.0
 70
2
  0
VERTEX
  8
0
 10
367.597412
 20
164.941315
 30
0.0
 70
0
  0
VERTEX
  8
0
 10
367.597412
 20
172.570251
 30
0.0
 70
0
  0
SEQEND
  8
0
  0
POLYLINE
  8
0
 62
4
 66
1
 10
0.0
 20
0.0
 30
0.0
 70
2
  0
VERTEX
  8
0
 10
370.837402
 20
164.941315
 30
0.0
 70
0
  0
VERTEX
  8
0
 10
370.837402
 20
172.570251
 30
0.0
 70
0
  0
SEQEND
  8
0
  0
CIRCLE
  8
0
 62
7
 10
193.195663
 20
154.141312
 30
0.0
 40
2.0
  0
CIRCLE
  8
0
 62
4
 10
193.195663
 20
154.141312
 30
0.0
 40
1.62
  0
POLYLINE
  8
0
 62
4
 66
1
 10
0.0
 20
0.0
 30
0.0
 70
2
  0
VERTEX
  8
0
 10
377.47876
 20
156.141312
 30
0.0
 70
0
  0
VERTEX
  8
0
 10
387.608978
 20
156.141312
 30
0.0
 70
0
  0
SEQEND
  8
0
  0
POLYLINE
  8
0
 62
4
 66
1
 10
0.0
 20
0.0
 30
0.0
 70
2
  0
VERTEX
  8
0
 10
377.47876
 20
152.141312
 30
0.0
 70
0
  0
VERTEX
  8
0
 10
387.608978
 20
152.141312
 30
0.0
 70
0
  0
SEQEND
  8
0
  0
POLYLINE
  8
0
 62
4
 66
1
 10
0.0
 20
0.0
 30
0.0
 70
2
  0
VERTEX
  8
0
 10
377.561584
 20
155.761307
 30
0.0
 70
0
  0
VERTEX
  8
0
 10
387.646362
 20
155.761307
 30
0.0
 70
0
  0
SEQEND
  8
0
  0
POLYLINE
  8
0
 62
4
 66
1
 10
0.0
 20
0.0
 30
0.0
 70
2
  0
VERTEX
  8
0
 10
377.561584
 20
152.521317
 30
0.0
 70
0
  0
VERTEX
  8
0
 10
387.646362
 20
152.521317
 30
0.0
 70
0
  0
SEQEND
  8
0
  0
POLYLINE
  8
0
 62
4
 66
1
 10
0.0
 20
0.0
 30
0.0
 70
2
  0
VERTEX
  8
0
 10
153.195663
 20
145.141312
 30
0.0
 70
0
  0
VERTEX
  8
0
 10
153.195663
 20
126.641312
 30
0.0
 70
0
  0
VERTEX
  8
0
 10
154.195663
 20
125.641312
 30
0.0
 70
0
  0
VERTEX
  8
0
 10
182.195663
 20
125.641312
 30
0.0
 70
0
  0
VERTEX
  8
0
 10
183.195663
 20
126.641312
 30
0.0
 70
0
  0
VERTEX
  8
0
 10
183.195663
 20
134.641312
 30
0.0
 70
0
  0
SEQEND
  8
0
  0
POLYLINE
  8
0
 62
4
 66
1
 10
0.0
 20
0.0
 30
0.0
 70
2
  0
VERTEX
  8
0
 10
184.195663
 20
135.641312
 30
0.0
 70
0
  0
VERTEX
  8
0
 10
202.195663
 20
135.641312
 30
0.0
 70
0
  0
VERTEX
  8
0
 10
203.195663
 20
136.641312
 30
0.0
 70
0
  0
VERTEX
  8
0
 10
203.195663
 20
171.641312
 30
0.0
 70
0
  0
VERTEX
  8
0
 10
202.195663
 20
172.641312
 30
0.0
 70
0
  0
VERTEX
  8
0
 10
184.195663
 20
172.641312
 30
0.0
 70
0
  0
SEQEND
  8
0
  0
POLYLINE
  8
0
 62
4
 66
1
 10
0.0
 20
0.0
 30
0.0
 70
2
  0
VERTEX
  8
0
 10
183.195663
 20
173.641312
 30
0.0
 70
0
  0
VERTEX
  8
0
 10
183.195663
 20
181.641312
 30
0.0
 70
0
  0
VERTEX
  8
0
 10
182.195663
 20
182.641312
 30
0.0
 70
0
  0
VERTEX
  8
0
 10
154.195663
 20
182.641312
 30
0.0
 70
0
  0
VERTEX
  8
0
 10
153.195663
 20
181.641312
 30
0.0
 70
0
  0
VERTEX
  8
0
 10
153.195663
 20
145.141312
 30
0.0
 70
0
  0
SEQEND
  8
0
  0
CIRCLE
  8
0
 62
4
 10
369.217407
 20
154.141312
 30
0.0
 40
18.5
  0
ENDSEC
  0
EOF
