  0
SECTION
  2
ENTITIES
  0
LINE
  8
0
 62
4
 10
202.5
 20
240.5
 30
0.0
 11
232.5
 21
240.5
 31
0.0
  0
LINE
  8
0
 62
4
 10
202.5
 20
167.0
 30
0.0
 11
232.5
 21
167.0
 31
0.0
  0
LINE
  8
0
 62
4
 10
251.5
 20
193.75
 30
0.0
 11
252.5
 21
192.75
 31
0.0
  0
LINE
  8
0
 62
4
 10
251.5
 20
213.75
 30
0.0
 11
252.5
 21
214.75
 31
0.0
  0
LINE
  8
0
 62
4
 10
203.5
 20
213.75
 30
0.0
 11
203.5
 21
193.75
 31
0.0
  0
POLYLINE
  8
0
 62
4
 66
1
 10
0.0
 20
0.0
 30
0.0
 70
2
  0
VERTEX
  8
0
 10
202.5
 20
192.75
 30
0.0
 70
0
  0
VERTEX
  8
0
 10
203.5
 20
193.75
 30
0.0
 70
0
  0
VERTEX
  8
0
 10
251.5
 20
193.75
 30
0.0
 70
0
  0
VERTEX
  8
0
 10
251.5
 20
213.75
 30
0.0
 70
0
  0
VERTEX
  8
0
 10
203.5
 20
213.75
 30
0.0
 70
0
  0
VERTEX
  8
0
 10
202.5
 20
214.75
 30
0.0
 70
0
  0
SEQEND
  8
0
  0
ARC
  8
0
 62
4
 10
234.0
 20
237.75
 30
0.0
 40
1.5
 50
180.0
 51
270.0
  0
ARC
  8
0
 62
4
 10
234.0
 20
169.75
 30
0.0
 40
1.5
 50
90.0
 51
180.0
  0
POLYLINE
  8
0
 62
4
 66
1
 10
0.0
 20
0.0
 30
0.0
 70
2
  0
VERTEX
  8
0
 10
202.5
 20
192.75
 30
0.0
 70
0
  0
VERTEX
  8
0
 10
202.5
 20
161.25
 30
0.0
 70
0
  0
VERTEX
  8
0
 10
203.5
 20
160.25
 30
0.0
 70
0
  0
VERTEX
  8
0
 10
231.5
 20
160.25
 30
0.0
 70
0
  0
VERTEX
  8
0
 10
232.5
 20
161.25
 30
0.0
 70
0
  0
VERTEX
  8
0
 10
232.5
 20
169.75
 30
0.0
 70
0
  0
SEQEND
  8
0
  0
POLYLINE
  8
0
 62
4
 66
1
 10
0.0
 20
0.0
 30
0.0
 70
2
  0
VERTEX
  8
0
 10
234.0
 20
171.25
 30
0.0
 70
0
  0
VERTEX
  8
0
 10
251.5
 20
171.25
 30
0.0
 70
0
  0
VERTEX
  8
0
 10
252.5
 20
172.25
 30
0.0
 70
0
  0
VERTEX
  8
0
 10
252.5
 20
235.25
 30
0.0
 70
0
  0
VERTEX
  8
0
 10
251.5
 20
236.25
 30
0.0
 70
0
  0
VERTEX
  8
0
 10
234.0
 20
236.25
 30
0.0
 70
0
  0
SEQEND
  8
0
  0
POLYLINE
  8
0
 62
4
 66
1
 10
0.0
 20
0.0
 30
0.0
 70
2
  0
VERTEX
  8
0
 10
232.5
 20
237.75
 30
0.0
 70
0
  0
VERTEX
  8
0
 10
232.5
 20
246.25
 30
0.0
 70
0
  0
VERTEX
  8
0
 10
231.5
 20
247.25
 30
0.0
 70
0
  0
VERTEX
  8
0
 10
203.5
 20
247.25
 30
0.0
 70
0
  0
VERTEX
  8
0
 10
202.5
 20
246.25
 30
0.0
 70
0
  0
VERTEX
  8
0
 10
202.5
 20
192.75
 30
0.0
 70
0
  0
SEQEND
  8
0
  0
ENDSEC
  0
EOF
