  0
SECTION
  2
ENTITIES
  0
LINE
  8
0
 62
4
 10
228.913055
 20
289.576111
 30
0.0
 11
258.913055
 21
289.576111
 31
0.0
  0
LINE
  8
0
 62
4
 10
228.913055
 20
171.076096
 30
0.0
 11
258.913055
 21
171.076096
 31
0.0
  0
LINE
  8
0
 62
4
 10
277.913055
 20
216.326096
 30
0.0
 11
278.913055
 21
215.326096
 31
0.0
  0
LINE
  8
0
 62
4
 10
277.913055
 20
244.326096
 30
0.0
 11
278.913055
 21
245.326096
 31
0.0
  0
LINE
  8
0
 62
4
 10
229.913055
 20
244.326096
 30
0.0
 11
229.913055
 21
216.326096
 31
0.0
  0
POLYLINE
  8
0
 62
4
 66
1
 10
0.0
 20
0.0
 30
0.0
 70
2
  0
VERTEX
  8
0
 10
228.913055
 20
215.326096
 30
0.0
 70
0
  0
VERTEX
  8
0
 10
229.913055
 20
216.326096
 30
0.0
 70
0
  0
VERTEX
  8
0
 10
277.913055
 20
216.326096
 30
0.0
 70
0
  0
VERTEX
  8
0
 10
277.913055
 20
244.326096
 30
0.0
 70
0
  0
VERTEX
  8
0
 10
229.913055
 20
244.326096
 30
0.0
 70
0
  0
VERTEX
  8
0
 10
228.913055
 20
245.326096
 30
0.0
 70
0
  0
SEQEND
  8
0
  0
ARC
  8
0
 62
4
 10
260.413055
 20
271.826111
 30
0.0
 40
1.5
 50
180.0
 51
270.0
  0
ARC
  8
0
 62
4
 10
260.413055
 20
188.826096
 30
0.0
 40
1.5
 50
90.0
 51
180.0
  0
ARC
  8
0
 62
4
 10
539.347839
 20
230.326096
 30
0.0
 40
14.0
 50
106.60154992625478
 51
73.39845007374521
  0
POLYLINE
  8
0
 62
4
 66
1
 10
0.0
 20
0.0
 30
0.0
 70
2
  0
VERTEX
  8
0
 10
543.347839
 20
243.742508
 30
0.0
 70
0
  0
VERTEX
  8
0
 10
543.347839
 20
247.626099
 30
0.0
 70
0
  0
VERTEX
  8
0
 10
535.347839
 20
247.626099
 30
0.0
 70
0
  0
VERTEX
  8
0
 10
535.347839
 20
243.742508
 30
0.0
 70
0
  0
SEQEND
  8
0
  0
LINE
  8
0
 62
4
 10
228.913055
 20
247.626099
 30
0.0
 11
278.913055
 21
247.626099
 31
0.0
  0
POLYLINE
  8
0
 62
4
 66
1
 10
0.0
 20
0.0
 30
0.0
 70
2
  0
VERTEX
  8
0
 10
271.913055
 20
270.326111
 30
0.0
 70
0
  0
VERTEX
  8
0
 10
271.913055
 20
247.626099
 30
0.0
 70
0
  0
SEQEND
  8
0
  0
POLYLINE
  8
0
 62
4
 66
1
 10
0.0
 20
0.0
 30
0.0
 70
2
  0
VERTEX
  8
0
 10
265.913055
 20
270.326111
 30
0.0
 70
0
  0
VERTEX
  8
0
 10
265.913055
 20
247.626099
 30
0.0
 70
0
  0
SEQEND
  8
0
  0
POLYLINE
  8
0
 62
4
 66
1
 10
0.0
 20
0.0
 30
0.0
 70
2
  0
VERTEX
  8
0
 10
271.373047
 20
270.326111
 30
0.0
 70
0
  0
VERTEX
  8
0
 10
271.373047
 20
247.626099
 30
0.0
 70
0
  0
SEQEND
  8
0
  0
POLYLINE
  8
0
 62
4
 66
1
 10
0.0
 20
0.0
 30
0.0
 70
2
  0
VERTEX
  8
0
 10
266.453064
 20
270.326111
 30
0.0
 70
0
  0
VERTEX
  8
0
 10
266.453064
 20
247.626099
 30
0.0
 70
0
  0
SEQEND
  8
0
  0
POLYLINE
  8
0
 62
4
 66
1
 10
0.0
 20
0.0
 30
0.0
 70
2
  0
VERTEX
  8
0
 10
536.347839
 20
247.626099
 30
0.0
 70
0
  0
VERTEX
  8
0
 10
536.347839
 20
270.21344
 30
0.0
 70
0
  0
SEQEND
  8
0
  0
POLYLINE
  8
0
 62
4
 66
1
 10
0.0
 20
0.0
 30
0.0
 70
2
  0
VERTEX
  8
0
 10
542.347839
 20
247.626099
 30
0.0
 70
0
  0
VERTEX
  8
0
 10
542.347839
 20
270.21344
 30
0.0
 70
0
  0
SEQEND
  8
0
  0
POLYLINE
  8
0
 62
4
 66
1
 10
0.0
 20
0.0
 30
0.0
 70
2
  0
VERTEX
  8
0
 10
536.887817
 20
247.626099
 30
0.0
 70
0
  0
VERTEX
  8
0
 10
536.887817
 20
270.250366
 30
0.0
 70
0
  0
SEQEND
  8
0
  0
POLYLINE
  8
0
 62
4
 66
1
 10
0.0
 20
0.0
 30
0.0
 70
2
  0
VERTEX
  8
0
 10
541.807861
 20
247.626099
 30
0.0
 70
0
  0
VERTEX
  8
0
 10
541.807861
 20
270.250366
 30
0.0
 70
0
  0
SEQEND
  8
0
  0
CIRCLE
  8
0
 62
7
 10
268.913055
 20
230.326096
 30
0.0
 40
3.0
  0
CIRCLE
  8
0
 62
4
 10
268.913055
 20
230.326096
 30
0.0
 40
2.46
  0
POLYLINE
  8
0
 62
4
 66
1
 10
0.0
 20
0.0
 30
0.0
 70
2
  0
VERTEX
  8
0
 10
553.022644
 20
233.326096
 30
0.0
 70
0
  0
VERTEX
  8
0
 10
579.235168
 20
233.326096
 30
0.0
 70
0
  0
SEQEND
  8
0
  0
POLYLINE
  8
0
 62
4
 66
1
 10
0.0
 20
0.0
 30
0.0
 70
2
  0
VERTEX
  8
0
 10
553.022644
 20
227.326096
 30
0.0
 70
0
  0
VERTEX
  8
0
 10
579.235168
 20
227.326096
 30
0.0
 70
0
  0
SEQEND
  8
0
  0
POLYLINE
  8
0
 62
4
 66
1
 10
0.0
 20
0.0
 30
0.0
 70
2
  0
VERTEX
  8
0
 10
553.130005
 20
232.786102
 30
0.0
 70
0
  0
VERTEX
  8
0
 10
579.272095
 20
232.786102
 30
0.0
 70
0
  0
SEQEND
  8
0
  0
POLYLINE
  8
0
 62
4
 66
1
 10
0.0
 20
0.0
 30
0.0
 70
2
  0
VERTEX
  8
0
 10
553.130005
 20
227.866089
 30
0.0
 70
0
  0
VERTEX
  8
0
 10
579.272095
 20
227.866089
 30
0.0
 70
0
  0
SEQEND
  8
0
  0
POLYLINE
  8
0
 62
4
 66
1
 10
0.0
 20
0.0
 30
0.0
 70
2
  0
VERTEX
  8
0
 10
228.913055
 20
215.326096
 30
0.0
 70
0
  0
VERTEX
  8
0
 10
228.913055
 20
165.326096
 30
0.0
 70
0
  0
VERTEX
  8
0
 10
229.913055
 20
164.326096
 30
0.0
 70
0
  0
VERTEX
  8
0
 10
257.913055
 20
164.326096
 30
0.0
 70
0
  0
VERTEX
  8
0
 10
258.913055
 20
165.326096
 30
0.0
 70
0
  0
VERTEX
  8
0
 10
258.913055
 20
188.826096
 30
0.0
 70
0
  0
SEQEND
  8
0
  0
POLYLINE
  8
0
 62
4
 66
1
 10
0.0
 20
0.0
 30
0.0
 70
2
  0
VERTEX
  8
0
 10
260.413055
 20
190.326096
 30
0.0
 70
0
  0
VERTEX
  8
0
 10
277.913055
 20
190.326096
 30
0.0
 70
0
  0
VERTEX
  8
0
 10
278.913055
 20
191.326096
 30
0.0
 70
0
  0
VERTEX
  8
0
 10
278.913055
 20
269.326111
 30
0.0
 70
0
  0
VERTEX
  8
0
 10
277.913055
 20
270.326111
 30
0.0
 70
0
  0
VERTEX
  8
0
 10
260.413055
 20
270.326111
 30
0.0
 70
0
  0
SEQEND
  8
0
  0
POLYLINE
  8
0
 62
4
 66
1
 10
0.0
 20
0.0
 30
0.0
 70
2
  0
VERTEX
  8
0
 10
258.913055
 20
271.826111
 30
0.0
 70
0
  0
VERTEX
  8
0
 10
258.913055
 20
295.326111
 30
0.0
 70
0
  0
VERTEX
  8
0
 10
257.913055
 20
296.326111
 30
0.0
 70
0
  0
VERTEX
  8
0
 10
229.913055
 20
296.326111
 30
0.0
 70
0
  0
VERTEX
  8
0
 10
228.913055
 20
295.326111
 30
0.0
 70
0
  0
VERTEX
  8
0
 10
228.913055
 20
215.326096
 30
0.0
 70
0
  0
SEQEND
  8
0
  0
CIRCLE
  8
0
 62
4
 10
539.347839
 20
230.326096
 30
0.0
 40
40.0
  0
ENDSEC
  0
EOF
