  0
SECTION
  2
ENTITIES
  0
LINE
  8
0
 62
4
 10
44.021736
 20
50.04348
 30
0.0
 11
50.021736
 21
50.04348
 31
0.0
  0
LINE
  8
0
 62
4
 10
44.021736
 20
38.54348
 30
0.0
 11
50.021736
 21
38.54348
 31
0.0
  0
LINE
  8
0
 62
4
 10
57.521736
 20
41.79348
 30
0.0
 11
58.021736
 21
41.29348
 31
0.0
  0
LINE
  8
0
 62
4
 10
57.521736
 20
46.79348
 30
0.0
 11
58.021736
 21
47.29348
 31
0.0
  0
LINE
  8
0
 62
4
 10
44.521736
 20
46.79348
 30
0.0
 11
44.521736
 21
41.79348
 31
0.0
  0
POLYLINE
  8
0
 62
4
 66
1
 10
0.0
 20
0.0
 30
0.0
 70
2
  0
VERTEX
  8
0
 10
44.021736
 20
41.29348
 30
0.0
 70
0
  0
VERTEX
  8
0
 10
44.521736
 20
41.79348
 30
0.0
 70
0
  0
VERTEX
  8
0
 10
57.521736
 20
41.79348
 30
0.0
 70
0
  0
VERTEX
  8
0
 10
57.521736
 20
46.79348
 30
0.0
 70
0
  0
VERTEX
  8
0
 10
44.521736
 20
46.79348
 30
0.0
 70
0
  0
VERTEX
  8
0
 10
44.021736
 20
47.29348
 30
0.0
 70
0
  0
SEQEND
  8
0
  0
ARC
  8
0
 62
4
 10
50.521736
 20
50.29348
 30
0.0
 40
0.5
 50
180.0
 51
270.0
  0
ARC
  8
0
 62
4
 10
50.521736
 20
38.29348
 30
0.0
 40
0.5
 50
90.0
 51
180.0
  0
POLYLINE
  8
0
 62
4
 66
1
 10
0.0
 20
0.0
 30
0.0
 70
2
  0
VERTEX
  8
0
 10
56.021736
 20
49.79348
 30
0.0
 70
0
  0
VERTEX
  8
0
 10
56.021736
 20
46.79348
 30
0.0
 70
0
  0
SEQEND
  8
0
  0
POLYLINE
  8
0
 62
4
 66
1
 10
0.0
 20
0.0
 30
0.0
 70
2
  0
VERTEX
  8
0
 10
52.021736
 20
49.79348
 30
0.0
 70
0
  0
VERTEX
  8
0
 10
52.021736
 20
46.79348
 30
0.0
 70
0
  0
SEQEND
  8
0
  0
POLYLINE
  8
0
 62
4
 66
1
 10
0.0
 20
0.0
 30
0.0
 70
2
  0
VERTEX
  8
0
 10
55.641735
 20
49.79348
 30
0.0
 70
0
  0
VERTEX
  8
0
 10
55.641735
 20
46.79348
 30
0.0
 70
0
  0
SEQEND
  8
0
  0
POLYLINE
  8
0
 62
4
 66
1
 10
0.0
 20
0.0
 30
0.0
 70
2
  0
VERTEX
  8
0
 10
52.401737
 20
49.79348
 30
0.0
 70
0
  0
VERTEX
  8
0
 10
52.401737
 20
46.79348
 30
0.0
 70
0
  0
SEQEND
  8
0
  0
POLYLINE
  8
0
 62
4
 66
1
 10
0.0
 20
0.0
 30
0.0
 70
2
  0
VERTEX
  8
0
 10
103.91304
 20
45.79348
 30
0.0
 70
0
  0
VERTEX
  8
0
 10
103.91304
 20
49.416954
 30
0.0
 70
0
  0
SEQEND
  8
0
  0
POLYLINE
  8
0
 62
4
 66
1
 10
0.0
 20
0.0
 30
0.0
 70
2
  0
VERTEX
  8
0
 10
107.91304
 20
45.79348
 30
0.0
 70
0
  0
VERTEX
  8
0
 10
107.91304
 20
49.416954
 30
0.0
 70
0
  0
SEQEND
  8
0
  0
POLYLINE
  8
0
 62
4
 66
1
 10
0.0
 20
0.0
 30
0.0
 70
2
  0
VERTEX
  8
0
 10
104.293045
 20
46.197582
 30
0.0
 70
0
  0
VERTEX
  8
0
 10
104.293045
 20
49.549484
 30
0.0
 70
0
  0
SEQEND
  8
0
  0
POLYLINE
  8
0
 62
4
 66
1
 10
0.0
 20
0.0
 30
0.0
 70
2
  0
VERTEX
  8
0
 10
107.533035
 20
46.197582
 30
0.0
 70
0
  0
VERTEX
  8
0
 10
107.533035
 20
49.549484
 30
0.0
 70
0
  0
SEQEND
  8
0
  0
POLYLINE
  8
0
 62
4
 66
1
 10
0.0
 20
0.0
 30
0.0
 70
2
  0
VERTEX
  8
0
 10
44.021736
 20
41.29348
 30
0.0
 70
0
  0
VERTEX
  8
0
 10
44.021736
 20
36.79348
 30
0.0
 70
0
  0
VERTEX
  8
0
 10
44.521736
 20
36.29348
 30
0.0
 70
0
  0
VERTEX
  8
0
 10
49.521736
 20
36.29348
 30
0.0
 70
0
  0
VERTEX
  8
0
 10
50.021736
 20
36.79348
 30
0.0
 70
0
  0
VERTEX
  8
0
 10
50.021736
 20
38.29348
 30
0.0
 70
0
  0
SEQEND
  8
0
  0
POLYLINE
  8
0
 62
4
 66
1
 10
0.0
 20
0.0
 30
0.0
 70
2
  0
VERTEX
  8
0
 10
50.521736
 20
38.79348
 30
0.0
 70
0
  0
VERTEX
  8
0
 10
57.521736
 20
38.79348
 30
0.0
 70
0
  0
VERTEX
  8
0
 10
58.021736
 20
39.29348
 30
0.0
 70
0
  0
VERTEX
  8
0
 10
58.021736
 20
49.29348
 30
0.0
 70
0
  0
VERTEX
  8
0
 10
57.521736
 20
49.79348
 30
0.0
 70
0
  0
VERTEX
  8
0
 10
50.521736
 20
49.79348
 30
0.0
 70
0
  0
SEQEND
  8
0
  0
POLYLINE
  8
0
 62
4
 66
1
 10
0.0
 20
0.0
 30
0.0
 70
2
  0
VERTEX
  8
0
 10
50.021736
 20
50.29348
 30
0.0
 70
0
  0
VERTEX
  8
0
 10
50.021736
 20
51.79348
 30
0.0
 70
0
  0
VERTEX
  8
0
 10
49.521736
 20
52.29348
 30
0.0
 70
0
  0
VERTEX
  8
0
 10
44.521736
 20
52.29348
 30
0.0
 70
0
  0
VERTEX
  8
0
 10
44.021736
 20
51.79348
 30
0.0
 70
0
  0
VERTEX
  8
0
 10
44.021736
 20
41.29348
 30
0.0
 70
0
  0
SEQEND
  8
0
  0
CIRCLE
  8
0
 62
4
 10
105.91304
 20
44.29348
 30
0.0
 40
2.5
  0
CIRCLE
  8
0
 62
4
 10
105.91304
 20
44.29348
 30
0.0
 40
5.5
  0
ENDSEC
  0
EOF
