  0
SECTION
  2
ENTITIES
  0
LINE
  8
0
 62
4
 10
114.456528
 20
134.288055
 30
0.0
 11
129.456528
 21
134.288055
 31
0.0
  0
LINE
  8
0
 62
4
 10
114.456528
 20
96.038048
 30
0.0
 11
129.456528
 21
96.038048
 31
0.0
  0
LINE
  8
0
 62
4
 10
142.956528
 20
107.663048
 30
0.0
 11
143.456528
 21
107.163048
 31
0.0
  0
LINE
  8
0
 62
4
 10
142.956528
 20
122.663048
 30
0.0
 11
143.456528
 21
123.163048
 31
0.0
  0
LINE
  8
0
 62
4
 10
114.956528
 20
122.663048
 30
0.0
 11
114.956528
 21
107.663048
 31
0.0
  0
POLYLINE
  8
0
 62
4
 66
1
 10
0.0
 20
0.0
 30
0.0
 70
2
  0
VERTEX
  8
0
 10
114.456528
 20
107.163048
 30
0.0
 70
0
  0
VERTEX
  8
0
 10
114.956528
 20
107.663048
 30
0.0
 70
0
  0
VERTEX
  8
0
 10
142.956528
 20
107.663048
 30
0.0
 70
0
  0
VERTEX
  8
0
 10
142.956528
 20
122.663048
 30
0.0
 70
0
  0
VERTEX
  8
0
 10
114.956528
 20
122.663048
 30
0.0
 70
0
  0
VERTEX
  8
0
 10
114.456528
 20
123.163048
 30
0.0
 70
0
  0
SEQEND
  8
0
  0
ARC
  8
0
 62
4
 10
130.456528
 20
134.163055
 30
0.0
 40
1.0
 50
180.0
 51
270.0
  0
ARC
  8
0
 62
4
 10
130.456528
 20
96.163048
 30
0.0
 40
1.0
 50
90.0
 51
180.0
  0
ARC
  8
0
 62
4
 10
271.67392
 20
115.163048
 30
0.0
 40
7.5
 50
109.47122094265586
 51
70.52877905734415
  0
POLYLINE
  8
0
 62
4
 66
1
 10
0.0
 20
0.0
 30
0.0
 70
2
  0
VERTEX
  8
0
 10
274.17392
 20
122.234116
 30
0.0
 70
0
  0
VERTEX
  8
0
 10
274.17392
 20
124.963051
 30
0.0
 70
0
  0
VERTEX
  8
0
 10
269.17392
 20
124.963051
 30
0.0
 70
0
  0
VERTEX
  8
0
 10
269.17392
 20
122.234116
 30
0.0
 70
0
  0
SEQEND
  8
0
  0
LINE
  8
0
 62
4
 10
114.456528
 20
124.963051
 30
0.0
 11
143.456528
 21
124.963051
 31
0.0
  0
POLYLINE
  8
0
 62
4
 66
1
 10
0.0
 20
0.0
 30
0.0
 70
2
  0
VERTEX
  8
0
 10
138.456528
 20
133.163055
 30
0.0
 70
0
  0
VERTEX
  8
0
 10
138.456528
 20
124.963051
 30
0.0
 70
0
  0
SEQEND
  8
0
  0
POLYLINE
  8
0
 62
4
 66
1
 10
0.0
 20
0.0
 30
0.0
 70
2
  0
VERTEX
  8
0
 10
134.456528
 20
133.163055
 30
0.0
 70
0
  0
VERTEX
  8
0
 10
134.456528
 20
124.963051
 30
0.0
 70
0
  0
SEQEND
  8
0
  0
POLYLINE
  8
0
 62
4
 66
1
 10
0.0
 20
0.0
 30
0.0
 70
2
  0
VERTEX
  8
0
 10
138.076523
 20
133.163055
 30
0.0
 70
0
  0
VERTEX
  8
0
 10
138.076523
 20
124.963051
 30
0.0
 70
0
  0
SEQEND
  8
0
  0
POLYLINE
  8
0
 62
4
 66
1
 10
0.0
 20
0.0
 30
0.0
 70
2
  0
VERTEX
  8
0
 10
134.836533
 20
133.163055
 30
0.0
 70
0
  0
VERTEX
  8
0
 10
134.836533
 20
124.963051
 30
0.0
 70
0
  0
SEQEND
  8
0
  0
POLYLINE
  8
0
 62
4
 66
1
 10
0.0
 20
0.0
 30
0.0
 70
2
  0
VERTEX
  8
0
 10
269.67392
 20
124.963051
 30
0.0
 70
0
  0
VERTEX
  8
0
 10
269.67392
 20
133.05159
 30
0.0
 70
0
  0
SEQEND
  8
0
  0
POLYLINE
  8
0
 62
4
 66
1
 10
0.0
 20
0.0
 30
0.0
 70
2
  0
VERTEX
  8
0
 10
273.67392
 20
124.963051
 30
0.0
 70
0
  0
VERTEX
  8
0
 10
273.67392
 20
133.05159
 30
0.0
 70
0
  0
SEQEND
  8
0
  0
POLYLINE
  8
0
 62
4
 66
1
 10
0.0
 20
0.0
 30
0.0
 70
2
  0
VERTEX
  8
0
 10
270.053925
 20
124.963051
 30
0.0
 70
0
  0
VERTEX
  8
0
 10
270.053925
 20
133.089996
 30
0.0
 70
0
  0
SEQEND
  8
0
  0
POLYLINE
  8
0
 62
4
 66
1
 10
0.0
 20
0.0
 30
0.0
 70
2
  0
VERTEX
  8
0
 10
273.293915
 20
124.963051
 30
0.0
 70
0
  0
VERTEX
  8
0
 10
273.293915
 20
133.089996
 30
0.0
 70
0
  0
SEQEND
  8
0
  0
CIRCLE
  8
0
 62
7
 10
136.456528
 20
115.163048
 30
0.0
 40
2.0
  0
CIRCLE
  8
0
 62
4
 10
136.456528
 20
115.163048
 30
0.0
 40
1.62
  0
POLYLINE
  8
0
 62
4
 66
1
 10
0.0
 20
0.0
 30
0.0
 70
2
  0
VERTEX
  8
0
 10
278.902344
 20
117.163048
 30
0.0
 70
0
  0
VERTEX
  8
0
 10
289.562469
 20
117.163048
 30
0.0
 70
0
  0
SEQEND
  8
0
  0
POLYLINE
  8
0
 62
4
 66
1
 10
0.0
 20
0.0
 30
0.0
 70
2
  0
VERTEX
  8
0
 10
278.902344
 20
113.163048
 30
0.0
 70
0
  0
VERTEX
  8
0
 10
289.562469
 20
113.163048
 30
0.0
 70
0
  0
SEQEND
  8
0
  0
POLYLINE
  8
0
 62
4
 66
1
 10
0.0
 20
0.0
 30
0.0
 70
2
  0
VERTEX
  8
0
 10
278.996887
 20
116.783051
 30
0.0
 70
0
  0
VERTEX
  8
0
 10
289.600891
 20
116.783051
 30
0.0
 70
0
  0
SEQEND
  8
0
  0
POLYLINE
  8
0
 62
4
 66
1
 10
0.0
 20
0.0
 30
0.0
 70
2
  0
VERTEX
  8
0
 10
278.996887
 20
113.543045
 30
0.0
 70
0
  0
VERTEX
  8
0
 10
289.600891
 20
113.543045
 30
0.0
 70
0
  0
SEQEND
  8
0
  0
POLYLINE
  8
0
 62
4
 66
1
 10
0.0
 20
0.0
 30
0.0
 70
2
  0
VERTEX
  8
0
 10
114.456528
 20
107.163048
 30
0.0
 70
0
  0
VERTEX
  8
0
 10
114.456528
 20
93.163048
 30
0.0
 70
0
  0
VERTEX
  8
0
 10
114.956528
 20
92.663048
 30
0.0
 70
0
  0
VERTEX
  8
0
 10
128.956528
 20
92.663048
 30
0.0
 70
0
  0
VERTEX
  8
0
 10
129.456528
 20
93.163048
 30
0.0
 70
0
  0
VERTEX
  8
0
 10
129.456528
 20
96.163048
 30
0.0
 70
0
  0
SEQEND
  8
0
  0
POLYLINE
  8
0
 62
4
 66
1
 10
0.0
 20
0.0
 30
0.0
 70
2
  0
VERTEX
  8
0
 10
130.456528
 20
97.163048
 30
0.0
 70
0
  0
VERTEX
  8
0
 10
142.956528
 20
97.163048
 30
0.0
 70
0
  0
VERTEX
  8
0
 10
143.456528
 20
97.663048
 30
0.0
 70
0
  0
VERTEX
  8
0
 10
143.456528
 20
132.663055
 30
0.0
 70
0
  0
VERTEX
  8
0
 10
142.956528
 20
133.163055
 30
0.0
 70
0
  0
VERTEX
  8
0
 10
130.456528
 20
133.163055
 30
0.0
 70
0
  0
SEQEND
  8
0
  0
POLYLINE
  8
0
 62
4
 66
1
 10
0.0
 20
0.0
 30
0.0
 70
2
  0
VERTEX
  8
0
 10
129.456528
 20
134.163055
 30
0.0
 70
0
  0
VERTEX
  8
0
 10
129.456528
 20
137.163055
 30
0.0
 70
0
  0
VERTEX
  8
0
 10
128.956528
 20
137.663055
 30
0.0
 70
0
  0
VERTEX
  8
0
 10
114.956528
 20
137.663055
 30
0.0
 70
0
  0
VERTEX
  8
0
 10
114.456528
 20
137.163055
 30
0.0
 70
0
  0
VERTEX
  8
0
 10
114.456528
 20
107.163048
 30
0.0
 70
0
  0
SEQEND
  8
0
  0
CIRCLE
  8
0
 62
4
 10
271.67392
 20
115.163048
 30
0.0
 40
18.0
  0
ENDSEC
  0
EOF
