  0
SECTION
  2
ENTITIES
  0
LINE
  8
0
 62
4
 10
191.934784
 20
258.744568
 30
0.0
 11
206.934784
 21
258.744568
 31
0.0
  0
LINE
  8
0
 62
4
 10
191.934784
 20
127.494568
 30
0.0
 11
206.934784
 21
127.494568
 31
0.0
  0
LINE
  8
0
 62
4
 10
219.934784
 20
173.119568
 30
0.0
 11
220.934784
 21
172.119568
 31
0.0
  0
LINE
  8
0
 62
4
 10
219.934784
 20
213.119568
 30
0.0
 11
220.934784
 21
214.119568
 31
0.0
  0
LINE
  8
0
 62
4
 10
192.934784
 20
213.119568
 30
0.0
 11
192.934784
 21
173.119568
 31
0.0
  0
POLYLINE
  8
0
 62
4
 66
1
 10
0.0
 20
0.0
 30
0.0
 70
2
  0
VERTEX
  8
0
 10
191.934784
 20
172.119568
 30
0.0
 70
0
  0
VERTEX
  8
0
 10
192.934784
 20
173.119568
 30
0.0
 70
0
  0
VERTEX
  8
0
 10
219.934784
 20
173.119568
 30
0.0
 70
0
  0
VERTEX
  8
0
 10
219.934784
 20
213.119568
 30
0.0
 70
0
  0
VERTEX
  8
0
 10
192.934784
 20
213.119568
 30
0.0
 70
0
  0
VERTEX
  8
0
 10
191.934784
 20
214.119568
 30
0.0
 70
0
  0
SEQEND
  8
0
  0
ARC
  8
0
 62
4
 10
208.434784
 20
234.619568
 30
0.0
 40
1.5
 50
180.0
 51
270.0
  0
ARC
  8
0
 62
4
 10
208.434784
 20
151.619568
 30
0.0
 40
1.5
 50
90.0
 51
180.0
  0
ARC
  8
0
 62
4
 10
445.760864
 20
193.119568
 30
0.0
 40
20.0
 50
107.45760274776076
 51
72.54239725223924
  0
POLYLINE
  8
0
 62
4
 66
1
 10
0.0
 20
0.0
 30
0.0
 70
2
  0
VERTEX
  8
0
 10
451.760864
 20
212.198349
 30
0.0
 70
0
  0
VERTEX
  8
0
 10
451.760864
 20
216.419571
 30
0.0
 70
0
  0
VERTEX
  8
0
 10
439.760864
 20
216.419571
 30
0.0
 70
0
  0
VERTEX
  8
0
 10
439.760864
 20
212.198349
 30
0.0
 70
0
  0
SEQEND
  8
0
  0
LINE
  8
0
 62
4
 10
191.934784
 20
216.419571
 30
0.0
 11
220.934784
 21
216.419571
 31
0.0
  0
POLYLINE
  8
0
 62
4
 66
1
 10
0.0
 20
0.0
 30
0.0
 70
2
  0
VERTEX
  8
0
 10
217.934784
 20
233.119568
 30
0.0
 70
0
  0
VERTEX
  8
0
 10
217.934784
 20
216.419571
 30
0.0
 70
0
  0
SEQEND
  8
0
  0
POLYLINE
  8
0
 62
4
 66
1
 10
0.0
 20
0.0
 30
0.0
 70
2
  0
VERTEX
  8
0
 10
209.934784
 20
233.119568
 30
0.0
 70
0
  0
VERTEX
  8
0
 10
209.934784
 20
216.419571
 30
0.0
 70
0
  0
SEQEND
  8
0
  0
POLYLINE
  8
0
 62
4
 66
1
 10
0.0
 20
0.0
 30
0.0
 70
2
  0
VERTEX
  8
0
 10
217.259781
 20
233.119568
 30
0.0
 70
0
  0
VERTEX
  8
0
 10
217.259781
 20
216.419571
 30
0.0
 70
0
  0
SEQEND
  8
0
  0
POLYLINE
  8
0
 62
4
 66
1
 10
0.0
 20
0.0
 30
0.0
 70
2
  0
VERTEX
  8
0
 10
210.609787
 20
233.119568
 30
0.0
 70
0
  0
VERTEX
  8
0
 10
210.609787
 20
216.419571
 30
0.0
 70
0
  0
SEQEND
  8
0
  0
POLYLINE
  8
0
 62
4
 66
1
 10
0.0
 20
0.0
 30
0.0
 70
2
  0
VERTEX
  8
0
 10
441.760864
 20
216.419571
 30
0.0
 70
0
  0
VERTEX
  8
0
 10
441.760864
 20
232.919067
 30
0.0
 70
0
  0
SEQEND
  8
0
  0
POLYLINE
  8
0
 62
4
 66
1
 10
0.0
 20
0.0
 30
0.0
 70
2
  0
VERTEX
  8
0
 10
449.760864
 20
216.419571
 30
0.0
 70
0
  0
VERTEX
  8
0
 10
449.760864
 20
232.919067
 30
0.0
 70
0
  0
SEQEND
  8
0
  0
POLYLINE
  8
0
 62
4
 66
1
 10
0.0
 20
0.0
 30
0.0
 70
2
  0
VERTEX
  8
0
 10
442.435852
 20
216.419571
 30
0.0
 70
0
  0
VERTEX
  8
0
 10
442.435852
 20
232.98114
 30
0.0
 70
0
  0
SEQEND
  8
0
  0
POLYLINE
  8
0
 62
4
 66
1
 10
0.0
 20
0.0
 30
0.0
 70
2
  0
VERTEX
  8
0
 10
449.085876
 20
216.419571
 30
0.0
 70
0
  0
VERTEX
  8
0
 10
449.085876
 20
232.98114
 30
0.0
 70
0
  0
SEQEND
  8
0
  0
CIRCLE
  8
0
 62
7
 10
213.934784
 20
193.119568
 30
0.0
 40
4.0
  0
CIRCLE
  8
0
 62
4
 10
213.934784
 20
193.119568
 30
0.0
 40
3.325
  0
POLYLINE
  8
0
 62
4
 66
1
 10
0.0
 20
0.0
 30
0.0
 70
2
  0
VERTEX
  8
0
 10
465.356781
 20
197.119568
 30
0.0
 70
0
  0
VERTEX
  8
0
 10
485.560364
 20
197.119568
 30
0.0
 70
0
  0
SEQEND
  8
0
  0
POLYLINE
  8
0
 62
4
 66
1
 10
0.0
 20
0.0
 30
0.0
 70
2
  0
VERTEX
  8
0
 10
465.356781
 20
189.119568
 30
0.0
 70
0
  0
VERTEX
  8
0
 10
485.560364
 20
189.119568
 30
0.0
 70
0
  0
SEQEND
  8
0
  0
POLYLINE
  8
0
 62
4
 66
1
 10
0.0
 20
0.0
 30
0.0
 70
2
  0
VERTEX
  8
0
 10
465.482544
 20
196.444565
 30
0.0
 70
0
  0
VERTEX
  8
0
 10
485.622437
 20
196.444565
 30
0.0
 70
0
  0
SEQEND
  8
0
  0
POLYLINE
  8
0
 62
4
 66
1
 10
0.0
 20
0.0
 30
0.0
 70
2
  0
VERTEX
  8
0
 10
465.482544
 20
189.794571
 30
0.0
 70
0
  0
VERTEX
  8
0
 10
485.622437
 20
189.794571
 30
0.0
 70
0
  0
SEQEND
  8
0
  0
POLYLINE
  8
0
 62
4
 66
1
 10
0.0
 20
0.0
 30
0.0
 70
2
  0
VERTEX
  8
0
 10
191.934784
 20
172.119568
 30
0.0
 70
0
  0
VERTEX
  8
0
 10
191.934784
 20
124.619568
 30
0.0
 70
0
  0
VERTEX
  8
0
 10
192.434784
 20
124.119568
 30
0.0
 70
0
  0
VERTEX
  8
0
 10
206.434784
 20
124.119568
 30
0.0
 70
0
  0
VERTEX
  8
0
 10
206.934784
 20
124.619568
 30
0.0
 70
0
  0
VERTEX
  8
0
 10
206.934784
 20
151.619568
 30
0.0
 70
0
  0
SEQEND
  8
0
  0
POLYLINE
  8
0
 62
4
 66
1
 10
0.0
 20
0.0
 30
0.0
 70
2
  0
VERTEX
  8
0
 10
208.434784
 20
153.119568
 30
0.0
 70
0
  0
VERTEX
  8
0
 10
219.934784
 20
153.119568
 30
0.0
 70
0
  0
VERTEX
  8
0
 10
220.934784
 20
154.119568
 30
0.0
 70
0
  0
VERTEX
  8
0
 10
220.934784
 20
232.119568
 30
0.0
 70
0
  0
VERTEX
  8
0
 10
219.934784
 20
233.119568
 30
0.0
 70
0
  0
VERTEX
  8
0
 10
208.434784
 20
233.119568
 30
0.0
 70
0
  0
SEQEND
  8
0
  0
POLYLINE
  8
0
 62
4
 66
1
 10
0.0
 20
0.0
 30
0.0
 70
2
  0
VERTEX
  8
0
 10
206.934784
 20
234.619568
 30
0.0
 70
0
  0
VERTEX
  8
0
 10
206.934784
 20
261.619568
 30
0.0
 70
0
  0
VERTEX
  8
0
 10
206.434784
 20
262.119568
 30
0.0
 70
0
  0
VERTEX
  8
0
 10
192.434784
 20
262.119568
 30
0.0
 70
0
  0
VERTEX
  8
0
 10
191.934784
 20
261.619568
 30
0.0
 70
0
  0
VERTEX
  8
0
 10
191.934784
 20
172.119568
 30
0.0
 70
0
  0
SEQEND
  8
0
  0
CIRCLE
  8
0
 62
4
 10
445.760864
 20
193.119568
 30
0.0
 40
40.0
  0
ENDSEC
  0
EOF
