  0
SECTION
  2
ENTITIES
  0
LINE
  8
0
 62
4
 10
117.978264
 20
139.331512
 30
0.0
 11
132.978271
 21
139.331512
 31
0.0
  0
LINE
  8
0
 62
4
 10
117.978264
 20
98.08152
 30
0.0
 11
132.978271
 21
98.08152
 31
0.0
  0
LINE
  8
0
 62
4
 10
146.478271
 20
109.20652
 30
0.0
 11
146.978271
 21
108.70652
 31
0.0
  0
LINE
  8
0
 62
4
 10
146.478271
 20
128.206512
 30
0.0
 11
146.978271
 21
128.706512
 31
0.0
  0
LINE
  8
0
 62
4
 10
118.478264
 20
128.206512
 30
0.0
 11
118.478264
 21
109.20652
 31
0.0
  0
POLYLINE
  8
0
 62
4
 66
1
 10
0.0
 20
0.0
 30
0.0
 70
2
  0
VERTEX
  8
0
 10
117.978264
 20
108.70652
 30
0.0
 70
0
  0
VERTEX
  8
0
 10
118.478264
 20
109.20652
 30
0.0
 70
0
  0
VERTEX
  8
0
 10
146.478271
 20
109.20652
 30
0.0
 70
0
  0
VERTEX
  8
0
 10
146.478271
 20
128.206512
 30
0.0
 70
0
  0
VERTEX
  8
0
 10
118.478264
 20
128.206512
 30
0.0
 70
0
  0
VERTEX
  8
0
 10
117.978264
 20
128.706512
 30
0.0
 70
0
  0
SEQEND
  8
0
  0
ARC
  8
0
 62
4
 10
133.978271
 20
138.706512
 30
0.0
 40
1.0
 50
180.0
 51
270.0
  0
ARC
  8
0
 62
4
 10
133.978271
 20
98.70652
 30
0.0
 40
1.0
 50
90.0
 51
180.0
  0
ARC
  8
0
 62
4
 10
279.586945
 20
118.70652
 30
0.0
 40
9.5
 50
108.4084803259778
 51
71.5915196740222
  0
POLYLINE
  8
0
 62
4
 66
1
 10
0.0
 20
0.0
 30
0.0
 70
2
  0
VERTEX
  8
0
 10
282.586945
 20
127.720398
 30
0.0
 70
0
  0
VERTEX
  8
0
 10
282.586945
 20
131.006516
 30
0.0
 70
0
  0
VERTEX
  8
0
 10
276.586945
 20
131.006516
 30
0.0
 70
0
  0
VERTEX
  8
0
 10
276.586945
 20
127.720398
 30
0.0
 70
0
  0
SEQEND
  8
0
  0
LINE
  8
0
 62
4
 10
117.978264
 20
131.006516
 30
0.0
 11
146.978271
 21
131.006516
 31
0.0
  0
POLYLINE
  8
0
 62
4
 66
1
 10
0.0
 20
0.0
 30
0.0
 70
2
  0
VERTEX
  8
0
 10
142.478271
 20
137.706512
 30
0.0
 70
0
  0
VERTEX
  8
0
 10
142.478271
 20
131.006516
 30
0.0
 70
0
  0
SEQEND
  8
0
  0
POLYLINE
  8
0
 62
4
 66
1
 10
0.0
 20
0.0
 30
0.0
 70
2
  0
VERTEX
  8
0
 10
137.478271
 20
137.706512
 30
0.0
 70
0
  0
VERTEX
  8
0
 10
137.478271
 20
131.006516
 30
0.0
 70
0
  0
SEQEND
  8
0
  0
POLYLINE
  8
0
 62
4
 66
1
 10
0.0
 20
0.0
 30
0.0
 70
2
  0
VERTEX
  8
0
 10
142.043259
 20
137.706512
 30
0.0
 70
0
  0
VERTEX
  8
0
 10
142.043259
 20
131.006516
 30
0.0
 70
0
  0
SEQEND
  8
0
  0
POLYLINE
  8
0
 62
4
 66
1
 10
0.0
 20
0.0
 30
0.0
 70
2
  0
VERTEX
  8
0
 10
137.913269
 20
137.706512
 30
0.0
 70
0
  0
VERTEX
  8
0
 10
137.913269
 20
131.006516
 30
0.0
 70
0
  0
SEQEND
  8
0
  0
POLYLINE
  8
0
 62
4
 66
1
 10
0.0
 20
0.0
 30
0.0
 70
2
  0
VERTEX
  8
0
 10
277.086945
 20
131.006516
 30
0.0
 70
0
  0
VERTEX
  8
0
 10
277.086945
 20
137.541321
 30
0.0
 70
0
  0
SEQEND
  8
0
  0
POLYLINE
  8
0
 62
4
 66
1
 10
0.0
 20
0.0
 30
0.0
 70
2
  0
VERTEX
  8
0
 10
282.086945
 20
131.006516
 30
0.0
 70
0
  0
VERTEX
  8
0
 10
282.086945
 20
137.541321
 30
0.0
 70
0
  0
SEQEND
  8
0
  0
POLYLINE
  8
0
 62
4
 66
1
 10
0.0
 20
0.0
 30
0.0
 70
2
  0
VERTEX
  8
0
 10
277.521942
 20
131.006516
 30
0.0
 70
0
  0
VERTEX
  8
0
 10
277.521942
 20
137.593964
 30
0.0
 70
0
  0
SEQEND
  8
0
  0
POLYLINE
  8
0
 62
4
 66
1
 10
0.0
 20
0.0
 30
0.0
 70
2
  0
VERTEX
  8
0
 10
281.651947
 20
131.006516
 30
0.0
 70
0
  0
VERTEX
  8
0
 10
281.651947
 20
137.593964
 30
0.0
 70
0
  0
SEQEND
  8
0
  0
CIRCLE
  8
0
 62
7
 10
139.978271
 20
118.70652
 30
0.0
 40
2.5
  0
CIRCLE
  8
0
 62
4
 10
139.978271
 20
118.70652
 30
0.0
 40
2.065
  0
POLYLINE
  8
0
 62
4
 66
1
 10
0.0
 20
0.0
 30
0.0
 70
2
  0
VERTEX
  8
0
 10
288.752106
 20
121.20652
 30
0.0
 70
0
  0
VERTEX
  8
0
 10
298.421753
 20
121.20652
 30
0.0
 70
0
  0
SEQEND
  8
0
  0
POLYLINE
  8
0
 62
4
 66
1
 10
0.0
 20
0.0
 30
0.0
 70
2
  0
VERTEX
  8
0
 10
288.752106
 20
116.20652
 30
0.0
 70
0
  0
VERTEX
  8
0
 10
298.421753
 20
116.20652
 30
0.0
 70
0
  0
SEQEND
  8
0
  0
POLYLINE
  8
0
 62
4
 66
1
 10
0.0
 20
0.0
 30
0.0
 70
2
  0
VERTEX
  8
0
 10
288.859802
 20
120.771523
 30
0.0
 70
0
  0
VERTEX
  8
0
 10
298.474396
 20
120.771523
 30
0.0
 70
0
  0
SEQEND
  8
0
  0
POLYLINE
  8
0
 62
4
 66
1
 10
0.0
 20
0.0
 30
0.0
 70
2
  0
VERTEX
  8
0
 10
288.859802
 20
116.641518
 30
0.0
 70
0
  0
VERTEX
  8
0
 10
298.474396
 20
116.641518
 30
0.0
 70
0
  0
SEQEND
  8
0
  0
POLYLINE
  8
0
 62
4
 66
1
 10
0.0
 20
0.0
 30
0.0
 70
2
  0
VERTEX
  8
0
 10
117.978264
 20
108.70652
 30
0.0
 70
0
  0
VERTEX
  8
0
 10
117.978264
 20
95.20652
 30
0.0
 70
0
  0
VERTEX
  8
0
 10
118.478264
 20
94.70652
 30
0.0
 70
0
  0
VERTEX
  8
0
 10
132.478271
 20
94.70652
 30
0.0
 70
0
  0
VERTEX
  8
0
 10
132.978271
 20
95.20652
 30
0.0
 70
0
  0
VERTEX
  8
0
 10
132.978271
 20
98.70652
 30
0.0
 70
0
  0
SEQEND
  8
0
  0
POLYLINE
  8
0
 62
4
 66
1
 10
0.0
 20
0.0
 30
0.0
 70
2
  0
VERTEX
  8
0
 10
133.978271
 20
99.70652
 30
0.0
 70
0
  0
VERTEX
  8
0
 10
146.478271
 20
99.70652
 30
0.0
 70
0
  0
VERTEX
  8
0
 10
146.978271
 20
100.20652
 30
0.0
 70
0
  0
VERTEX
  8
0
 10
146.978271
 20
137.206512
 30
0.0
 70
0
  0
VERTEX
  8
0
 10
146.478271
 20
137.706512
 30
0.0
 70
0
  0
VERTEX
  8
0
 10
133.978271
 20
137.706512
 30
0.0
 70
0
  0
SEQEND
  8
0
  0
POLYLINE
  8
0
 62
4
 66
1
 10
0.0
 20
0.0
 30
0.0
 70
2
  0
VERTEX
  8
0
 10
132.978271
 20
138.706512
 30
0.0
 70
0
  0
VERTEX
  8
0
 10
132.978271
 20
142.206512
 30
0.0
 70
0
  0
VERTEX
  8
0
 10
132.478271
 20
142.706512
 30
0.0
 70
0
  0
VERTEX
  8
0
 10
118.478264
 20
142.706512
 30
0.0
 70
0
  0
VERTEX
  8
0
 10
117.978264
 20
142.206512
 30
0.0
 70
0
  0
VERTEX
  8
0
 10
117.978264
 20
108.70652
 30
0.0
 70
0
  0
SEQEND
  8
0
  0
CIRCLE
  8
0
 62
4
 10
279.586945
 20
118.70652
 30
0.0
 40
19.0
  0
ENDSEC
  0
EOF
