  0
SECTION
  2
ENTITIES
  0
LINE
  8
0
 62
4
 10
147.913055
 20
188.95108
 30
0.0
 11
162.913055
 21
188.95108
 31
0.0
  0
LINE
  8
0
 62
4
 10
147.913055
 20
108.70108
 30
0.0
 11
162.913055
 21
108.70108
 31
0.0
  0
LINE
  8
0
 62
4
 10
176.413055
 20
140.82608
 30
0.0
 11
176.913055
 21
140.32608
 31
0.0
  0
LINE
  8
0
 62
4
 10
176.413055
 20
156.82608
 30
0.0
 11
176.913055
 21
157.32608
 31
0.0
  0
LINE
  8
0
 62
4
 10
148.413055
 20
156.82608
 30
0.0
 11
148.413055
 21
140.82608
 31
0.0
  0
POLYLINE
  8
0
 62
4
 66
1
 10
0.0
 20
0.0
 30
0.0
 70
2
  0
VERTEX
  8
0
 10
147.913055
 20
140.32608
 30
0.0
 70
0
  0
VERTEX
  8
0
 10
148.413055
 20
140.82608
 30
0.0
 70
0
  0
VERTEX
  8
0
 10
176.413055
 20
140.82608
 30
0.0
 70
0
  0
VERTEX
  8
0
 10
176.413055
 20
156.82608
 30
0.0
 70
0
  0
VERTEX
  8
0
 10
148.413055
 20
156.82608
 30
0.0
 70
0
  0
VERTEX
  8
0
 10
147.913055
 20
157.32608
 30
0.0
 70
0
  0
SEQEND
  8
0
  0
ARC
  8
0
 62
4
 10
163.913055
 20
177.32608
 30
0.0
 40
1.0
 50
180.0
 51
270.0
  0
ARC
  8
0
 62
4
 10
163.913055
 20
120.32608
 30
0.0
 40
1.0
 50
90.0
 51
180.0
  0
ARC
  8
0
 62
4
 10
346.847839
 20
148.82608
 30
0.0
 40
8.0
 50
108.20995732853793
 51
71.79004267146207
  0
POLYLINE
  8
0
 62
4
 66
1
 10
0.0
 20
0.0
 30
0.0
 70
2
  0
VERTEX
  8
0
 10
349.347839
 20
156.425415
 30
0.0
 70
0
  0
VERTEX
  8
0
 10
349.347839
 20
159.126083
 30
0.0
 70
0
  0
VERTEX
  8
0
 10
344.347839
 20
159.126083
 30
0.0
 70
0
  0
VERTEX
  8
0
 10
344.347839
 20
156.425415
 30
0.0
 70
0
  0
SEQEND
  8
0
  0
LINE
  8
0
 62
4
 10
147.913055
 20
159.126083
 30
0.0
 11
176.913055
 21
159.126083
 31
0.0
  0
POLYLINE
  8
0
 62
4
 66
1
 10
0.0
 20
0.0
 30
0.0
 70
2
  0
VERTEX
  8
0
 10
171.913055
 20
176.32608
 30
0.0
 70
0
  0
VERTEX
  8
0
 10
171.913055
 20
159.126083
 30
0.0
 70
0
  0
SEQEND
  8
0
  0
POLYLINE
  8
0
 62
4
 66
1
 10
0.0
 20
0.0
 30
0.0
 70
2
  0
VERTEX
  8
0
 10
167.913055
 20
176.32608
 30
0.0
 70
0
  0
VERTEX
  8
0
 10
167.913055
 20
159.126083
 30
0.0
 70
0
  0
SEQEND
  8
0
  0
POLYLINE
  8
0
 62
4
 66
1
 10
0.0
 20
0.0
 30
0.0
 70
2
  0
VERTEX
  8
0
 10
171.533051
 20
176.32608
 30
0.0
 70
0
  0
VERTEX
  8
0
 10
171.533051
 20
159.126083
 30
0.0
 70
0
  0
SEQEND
  8
0
  0
POLYLINE
  8
0
 62
4
 66
1
 10
0.0
 20
0.0
 30
0.0
 70
2
  0
VERTEX
  8
0
 10
168.29306
 20
176.32608
 30
0.0
 70
0
  0
VERTEX
  8
0
 10
168.29306
 20
159.126083
 30
0.0
 70
0
  0
SEQEND
  8
0
  0
POLYLINE
  8
0
 62
4
 66
1
 10
0.0
 20
0.0
 30
0.0
 70
2
  0
VERTEX
  8
0
 10
344.847839
 20
159.126083
 30
0.0
 70
0
  0
VERTEX
  8
0
 10
344.847839
 20
176.25325
 30
0.0
 70
0
  0
SEQEND
  8
0
  0
POLYLINE
  8
0
 62
4
 66
1
 10
0.0
 20
0.0
 30
0.0
 70
2
  0
VERTEX
  8
0
 10
348.847839
 20
159.126083
 30
0.0
 70
0
  0
VERTEX
  8
0
 10
348.847839
 20
176.25325
 30
0.0
 70
0
  0
SEQEND
  8
0
  0
POLYLINE
  8
0
 62
4
 66
1
 10
0.0
 20
0.0
 30
0.0
 70
2
  0
VERTEX
  8
0
 10
345.227844
 20
159.126083
 30
0.0
 70
0
  0
VERTEX
  8
0
 10
345.227844
 20
176.27832
 30
0.0
 70
0
  0
SEQEND
  8
0
  0
POLYLINE
  8
0
 62
4
 66
1
 10
0.0
 20
0.0
 30
0.0
 70
2
  0
VERTEX
  8
0
 10
348.467834
 20
159.126083
 30
0.0
 70
0
  0
VERTEX
  8
0
 10
348.467834
 20
176.27832
 30
0.0
 70
0
  0
SEQEND
  8
0
  0
CIRCLE
  8
0
 62
7
 10
169.913055
 20
148.82608
 30
0.0
 40
2.0
  0
CIRCLE
  8
0
 62
4
 10
169.913055
 20
148.82608
 30
0.0
 40
1.62
  0
POLYLINE
  8
0
 62
4
 66
1
 10
0.0
 20
0.0
 30
0.0
 70
2
  0
VERTEX
  8
0
 10
354.593811
 20
150.82608
 30
0.0
 70
0
  0
VERTEX
  8
0
 10
374.275024
 20
150.82608
 30
0.0
 70
0
  0
SEQEND
  8
0
  0
POLYLINE
  8
0
 62
4
 66
1
 10
0.0
 20
0.0
 30
0.0
 70
2
  0
VERTEX
  8
0
 10
354.593811
 20
146.82608
 30
0.0
 70
0
  0
VERTEX
  8
0
 10
374.275024
 20
146.82608
 30
0.0
 70
0
  0
SEQEND
  8
0
  0
POLYLINE
  8
0
 62
4
 66
1
 10
0.0
 20
0.0
 30
0.0
 70
2
  0
VERTEX
  8
0
 10
354.682098
 20
150.446075
 30
0.0
 70
0
  0
VERTEX
  8
0
 10
374.300079
 20
150.446075
 30
0.0
 70
0
  0
SEQEND
  8
0
  0
POLYLINE
  8
0
 62
4
 66
1
 10
0.0
 20
0.0
 30
0.0
 70
2
  0
VERTEX
  8
0
 10
354.682098
 20
147.206085
 30
0.0
 70
0
  0
VERTEX
  8
0
 10
374.300079
 20
147.206085
 30
0.0
 70
0
  0
SEQEND
  8
0
  0
POLYLINE
  8
0
 62
4
 66
1
 10
0.0
 20
0.0
 30
0.0
 70
2
  0
VERTEX
  8
0
 10
147.913055
 20
140.32608
 30
0.0
 70
0
  0
VERTEX
  8
0
 10
147.913055
 20
105.82608
 30
0.0
 70
0
  0
VERTEX
  8
0
 10
148.413055
 20
105.32608
 30
0.0
 70
0
  0
VERTEX
  8
0
 10
162.413055
 20
105.32608
 30
0.0
 70
0
  0
VERTEX
  8
0
 10
162.913055
 20
105.82608
 30
0.0
 70
0
  0
VERTEX
  8
0
 10
162.913055
 20
120.32608
 30
0.0
 70
0
  0
SEQEND
  8
0
  0
POLYLINE
  8
0
 62
4
 66
1
 10
0.0
 20
0.0
 30
0.0
 70
2
  0
VERTEX
  8
0
 10
163.913055
 20
121.32608
 30
0.0
 70
0
  0
VERTEX
  8
0
 10
176.413055
 20
121.32608
 30
0.0
 70
0
  0
VERTEX
  8
0
 10
176.913055
 20
121.82608
 30
0.0
 70
0
  0
VERTEX
  8
0
 10
176.913055
 20
175.82608
 30
0.0
 70
0
  0
VERTEX
  8
0
 10
176.413055
 20
176.32608
 30
0.0
 70
0
  0
VERTEX
  8
0
 10
163.913055
 20
176.32608
 30
0.0
 70
0
  0
SEQEND
  8
0
  0
POLYLINE
  8
0
 62
4
 66
1
 10
0.0
 20
0.0
 30
0.0
 70
2
  0
VERTEX
  8
0
 10
162.913055
 20
177.32608
 30
0.0
 70
0
  0
VERTEX
  8
0
 10
162.913055
 20
191.82608
 30
0.0
 70
0
  0
VERTEX
  8
0
 10
162.413055
 20
192.32608
 30
0.0
 70
0
  0
VERTEX
  8
0
 10
148.413055
 20
192.32608
 30
0.0
 70
0
  0
VERTEX
  8
0
 10
147.913055
 20
191.82608
 30
0.0
 70
0
  0
VERTEX
  8
0
 10
147.913055
 20
140.32608
 30
0.0
 70
0
  0
SEQEND
  8
0
  0
CIRCLE
  8
0
 62
4
 10
346.847839
 20
148.82608
 30
0.0
 40
27.5
  0
ENDSEC
  0
EOF
