  0
SECTION
  2
ENTITIES
  0
LINE
  8
0
 62
4
 10
160.239136
 20
188.103256
 30
0.0
 11
185.239136
 21
188.103256
 31
0.0
  0
LINE
  8
0
 62
4
 10
160.239136
 20
134.353256
 30
0.0
 11
185.239136
 21
134.353256
 31
0.0
  0
LINE
  8
0
 62
4
 10
202.739136
 20
153.728256
 30
0.0
 11
203.239136
 21
153.228256
 31
0.0
  0
LINE
  8
0
 62
4
 10
202.739136
 20
168.728256
 30
0.0
 11
203.239136
 21
169.228256
 31
0.0
  0
LINE
  8
0
 62
4
 10
160.739136
 20
168.728256
 30
0.0
 11
160.739136
 21
153.728256
 31
0.0
  0
POLYLINE
  8
0
 62
4
 66
1
 10
0.0
 20
0.0
 30
0.0
 70
2
  0
VERTEX
  8
0
 10
160.239136
 20
153.228256
 30
0.0
 70
0
  0
VERTEX
  8
0
 10
160.739136
 20
153.728256
 30
0.0
 70
0
  0
VERTEX
  8
0
 10
202.739136
 20
153.728256
 30
0.0
 70
0
  0
VERTEX
  8
0
 10
202.739136
 20
168.728256
 30
0.0
 70
0
  0
VERTEX
  8
0
 10
160.739136
 20
168.728256
 30
0.0
 70
0
  0
VERTEX
  8
0
 10
160.239136
 20
169.228256
 30
0.0
 70
0
  0
SEQEND
  8
0
  0
ARC
  8
0
 62
4
 10
186.239136
 20
186.228256
 30
0.0
 40
1.0
 50
180.0
 51
270.0
  0
ARC
  8
0
 62
4
 10
186.239136
 20
136.228256
 30
0.0
 40
1.0
 50
90.0
 51
180.0
  0
POLYLINE
  8
0
 62
4
 66
1
 10
0.0
 20
0.0
 30
0.0
 70
2
  0
VERTEX
  8
0
 10
160.239136
 20
153.228256
 30
0.0
 70
0
  0
VERTEX
  8
0
 10
160.239136
 20
129.728256
 30
0.0
 70
0
  0
VERTEX
  8
0
 10
161.239136
 20
128.728256
 30
0.0
 70
0
  0
VERTEX
  8
0
 10
184.239136
 20
128.728256
 30
0.0
 70
0
  0
VERTEX
  8
0
 10
185.239136
 20
129.728256
 30
0.0
 70
0
  0
VERTEX
  8
0
 10
185.239136
 20
136.228256
 30
0.0
 70
0
  0
SEQEND
  8
0
  0
POLYLINE
  8
0
 62
4
 66
1
 10
0.0
 20
0.0
 30
0.0
 70
2
  0
VERTEX
  8
0
 10
186.239136
 20
137.228256
 30
0.0
 70
0
  0
VERTEX
  8
0
 10
202.239136
 20
137.228256
 30
0.0
 70
0
  0
VERTEX
  8
0
 10
203.239136
 20
138.228256
 30
0.0
 70
0
  0
VERTEX
  8
0
 10
203.239136
 20
184.228256
 30
0.0
 70
0
  0
VERTEX
  8
0
 10
202.239136
 20
185.228256
 30
0.0
 70
0
  0
VERTEX
  8
0
 10
186.239136
 20
185.228256
 30
0.0
 70
0
  0
SEQEND
  8
0
  0
POLYLINE
  8
0
 62
4
 66
1
 10
0.0
 20
0.0
 30
0.0
 70
2
  0
VERTEX
  8
0
 10
185.239136
 20
186.228256
 30
0.0
 70
0
  0
VERTEX
  8
0
 10
185.239136
 20
192.728256
 30
0.0
 70
0
  0
VERTEX
  8
0
 10
184.239136
 20
193.728256
 30
0.0
 70
0
  0
VERTEX
  8
0
 10
161.239136
 20
193.728256
 30
0.0
 70
0
  0
VERTEX
  8
0
 10
160.239136
 20
192.728256
 30
0.0
 70
0
  0
VERTEX
  8
0
 10
160.239136
 20
153.228256
 30
0.0
 70
0
  0
SEQEND
  8
0
  0
ENDSEC
  0
EOF
