  0
SECTION
  2
ENTITIES
  0
LINE
  8
0
 62
4
 10
163.760864
 20
192.896744
 30
0.0
 11
188.760864
 21
192.896744
 31
0.0
  0
LINE
  8
0
 62
4
 10
163.760864
 20
136.646744
 30
0.0
 11
188.760864
 21
136.646744
 31
0.0
  0
LINE
  8
0
 62
4
 10
206.260864
 20
157.271744
 30
0.0
 11
206.760864
 21
156.771744
 31
0.0
  0
LINE
  8
0
 62
4
 10
206.260864
 20
172.271744
 30
0.0
 11
206.760864
 21
172.771744
 31
0.0
  0
LINE
  8
0
 62
4
 10
164.260864
 20
172.271744
 30
0.0
 11
164.260864
 21
157.271744
 31
0.0
  0
POLYLINE
  8
0
 62
4
 66
1
 10
0.0
 20
0.0
 30
0.0
 70
2
  0
VERTEX
  8
0
 10
163.760864
 20
156.771744
 30
0.0
 70
0
  0
VERTEX
  8
0
 10
164.260864
 20
157.271744
 30
0.0
 70
0
  0
VERTEX
  8
0
 10
206.260864
 20
157.271744
 30
0.0
 70
0
  0
VERTEX
  8
0
 10
206.260864
 20
172.271744
 30
0.0
 70
0
  0
VERTEX
  8
0
 10
164.260864
 20
172.271744
 30
0.0
 70
0
  0
VERTEX
  8
0
 10
163.760864
 20
172.771744
 30
0.0
 70
0
  0
SEQEND
  8
0
  0
ARC
  8
0
 62
4
 10
189.760864
 20
190.771744
 30
0.0
 40
1.0
 50
180.0
 51
270.0
  0
ARC
  8
0
 62
4
 10
189.760864
 20
138.771744
 30
0.0
 40
1.0
 50
90.0
 51
180.0
  0
POLYLINE
  8
0
 62
4
 66
1
 10
0.0
 20
0.0
 30
0.0
 70
2
  0
VERTEX
  8
0
 10
163.760864
 20
156.771744
 30
0.0
 70
0
  0
VERTEX
  8
0
 10
163.760864
 20
132.021744
 30
0.0
 70
0
  0
VERTEX
  8
0
 10
164.760864
 20
131.021744
 30
0.0
 70
0
  0
VERTEX
  8
0
 10
187.760864
 20
131.021744
 30
0.0
 70
0
  0
VERTEX
  8
0
 10
188.760864
 20
132.021744
 30
0.0
 70
0
  0
VERTEX
  8
0
 10
188.760864
 20
138.771744
 30
0.0
 70
0
  0
SEQEND
  8
0
  0
POLYLINE
  8
0
 62
4
 66
1
 10
0.0
 20
0.0
 30
0.0
 70
2
  0
VERTEX
  8
0
 10
189.760864
 20
139.771744
 30
0.0
 70
0
  0
VERTEX
  8
0
 10
205.760864
 20
139.771744
 30
0.0
 70
0
  0
VERTEX
  8
0
 10
206.760864
 20
140.771744
 30
0.0
 70
0
  0
VERTEX
  8
0
 10
206.760864
 20
188.771744
 30
0.0
 70
0
  0
VERTEX
  8
0
 10
205.760864
 20
189.771744
 30
0.0
 70
0
  0
VERTEX
  8
0
 10
189.760864
 20
189.771744
 30
0.0
 70
0
  0
SEQEND
  8
0
  0
POLYLINE
  8
0
 62
4
 66
1
 10
0.0
 20
0.0
 30
0.0
 70
2
  0
VERTEX
  8
0
 10
188.760864
 20
190.771744
 30
0.0
 70
0
  0
VERTEX
  8
0
 10
188.760864
 20
197.521744
 30
0.0
 70
0
  0
VERTEX
  8
0
 10
187.760864
 20
198.521744
 30
0.0
 70
0
  0
VERTEX
  8
0
 10
164.760864
 20
198.521744
 30
0.0
 70
0
  0
VERTEX
  8
0
 10
163.760864
 20
197.521744
 30
0.0
 70
0
  0
VERTEX
  8
0
 10
163.760864
 20
156.771744
 30
0.0
 70
0
  0
SEQEND
  8
0
  0
ENDSEC
  0
EOF
