  0
SECTION
  2
ENTITIES
  0
LINE
  8
0
 62
4
 10
181.369553
 20
214.364136
 30
0.0
 11
206.369553
 21
214.364136
 31
0.0
  0
LINE
  8
0
 62
4
 10
181.369553
 20
150.614136
 30
0.0
 11
206.369553
 21
150.614136
 31
0.0
  0
LINE
  8
0
 62
4
 10
223.869553
 20
174.989136
 30
0.0
 11
224.369553
 21
174.489136
 31
0.0
  0
LINE
  8
0
 62
4
 10
223.869553
 20
189.989136
 30
0.0
 11
224.369553
 21
190.489136
 31
0.0
  0
LINE
  8
0
 62
4
 10
181.869553
 20
189.989136
 30
0.0
 11
181.869553
 21
174.989136
 31
0.0
  0
POLYLINE
  8
0
 62
4
 66
1
 10
0.0
 20
0.0
 30
0.0
 70
2
  0
VERTEX
  8
0
 10
181.369553
 20
174.489136
 30
0.0
 70
0
  0
VERTEX
  8
0
 10
181.869553
 20
174.989136
 30
0.0
 70
0
  0
VERTEX
  8
0
 10
223.869553
 20
174.989136
 30
0.0
 70
0
  0
VERTEX
  8
0
 10
223.869553
 20
189.989136
 30
0.0
 70
0
  0
VERTEX
  8
0
 10
181.869553
 20
189.989136
 30
0.0
 70
0
  0
VERTEX
  8
0
 10
181.369553
 20
190.489136
 30
0.0
 70
0
  0
SEQEND
  8
0
  0
ARC
  8
0
 62
4
 10
207.369553
 20
213.489136
 30
0.0
 40
1.0
 50
180.0
 51
270.0
  0
ARC
  8
0
 62
4
 10
207.369553
 20
151.489136
 30
0.0
 40
1.0
 50
90.0
 51
180.0
  0
ARC
  8
0
 62
4
 10
429.021729
 20
182.489136
 30
0.0
 40
7.5
 50
109.47122094265586
 51
70.52877905734415
  0
POLYLINE
  8
0
 62
4
 66
1
 10
0.0
 20
0.0
 30
0.0
 70
2
  0
VERTEX
  8
0
 10
431.521729
 20
189.560211
 30
0.0
 70
0
  0
VERTEX
  8
0
 10
431.521729
 20
192.289139
 30
0.0
 70
0
  0
VERTEX
  8
0
 10
426.521729
 20
192.289139
 30
0.0
 70
0
  0
VERTEX
  8
0
 10
426.521729
 20
189.560211
 30
0.0
 70
0
  0
SEQEND
  8
0
  0
LINE
  8
0
 62
4
 10
181.369553
 20
192.289139
 30
0.0
 11
224.369553
 21
192.289139
 31
0.0
  0
POLYLINE
  8
0
 62
4
 66
1
 10
0.0
 20
0.0
 30
0.0
 70
2
  0
VERTEX
  8
0
 10
217.369553
 20
212.489136
 30
0.0
 70
0
  0
VERTEX
  8
0
 10
217.369553
 20
192.289139
 30
0.0
 70
0
  0
SEQEND
  8
0
  0
POLYLINE
  8
0
 62
4
 66
1
 10
0.0
 20
0.0
 30
0.0
 70
2
  0
VERTEX
  8
0
 10
213.369553
 20
212.489136
 30
0.0
 70
0
  0
VERTEX
  8
0
 10
213.369553
 20
192.289139
 30
0.0
 70
0
  0
SEQEND
  8
0
  0
POLYLINE
  8
0
 62
4
 66
1
 10
0.0
 20
0.0
 30
0.0
 70
2
  0
VERTEX
  8
0
 10
216.989548
 20
212.489136
 30
0.0
 70
0
  0
VERTEX
  8
0
 10
216.989548
 20
192.289139
 30
0.0
 70
0
  0
SEQEND
  8
0
  0
POLYLINE
  8
0
 62
4
 66
1
 10
0.0
 20
0.0
 30
0.0
 70
2
  0
VERTEX
  8
0
 10
213.749557
 20
212.489136
 30
0.0
 70
0
  0
VERTEX
  8
0
 10
213.749557
 20
192.289139
 30
0.0
 70
0
  0
SEQEND
  8
0
  0
POLYLINE
  8
0
 62
4
 66
1
 10
0.0
 20
0.0
 30
0.0
 70
2
  0
VERTEX
  8
0
 10
427.021729
 20
192.289139
 30
0.0
 70
0
  0
VERTEX
  8
0
 10
427.021729
 20
212.422394
 30
0.0
 70
0
  0
SEQEND
  8
0
  0
POLYLINE
  8
0
 62
4
 66
1
 10
0.0
 20
0.0
 30
0.0
 70
2
  0
VERTEX
  8
0
 10
431.021729
 20
192.289139
 30
0.0
 70
0
  0
VERTEX
  8
0
 10
431.021729
 20
212.422394
 30
0.0
 70
0
  0
SEQEND
  8
0
  0
POLYLINE
  8
0
 62
4
 66
1
 10
0.0
 20
0.0
 30
0.0
 70
2
  0
VERTEX
  8
0
 10
427.401733
 20
192.289139
 30
0.0
 70
0
  0
VERTEX
  8
0
 10
427.401733
 20
212.445358
 30
0.0
 70
0
  0
SEQEND
  8
0
  0
POLYLINE
  8
0
 62
4
 66
1
 10
0.0
 20
0.0
 30
0.0
 70
2
  0
VERTEX
  8
0
 10
430.641724
 20
192.289139
 30
0.0
 70
0
  0
VERTEX
  8
0
 10
430.641724
 20
212.445358
 30
0.0
 70
0
  0
SEQEND
  8
0
  0
CIRCLE
  8
0
 62
7
 10
215.369553
 20
182.489136
 30
0.0
 40
2.0
  0
CIRCLE
  8
0
 62
4
 10
215.369553
 20
182.489136
 30
0.0
 40
1.62
  0
POLYLINE
  8
0
 62
4
 66
1
 10
0.0
 20
0.0
 30
0.0
 70
2
  0
VERTEX
  8
0
 10
436.250122
 20
184.489136
 30
0.0
 70
0
  0
VERTEX
  8
0
 10
458.955017
 20
184.489136
 30
0.0
 70
0
  0
SEQEND
  8
0
  0
POLYLINE
  8
0
 62
4
 66
1
 10
0.0
 20
0.0
 30
0.0
 70
2
  0
VERTEX
  8
0
 10
436.250122
 20
180.489136
 30
0.0
 70
0
  0
VERTEX
  8
0
 10
458.955017
 20
180.489136
 30
0.0
 70
0
  0
SEQEND
  8
0
  0
POLYLINE
  8
0
 62
4
 66
1
 10
0.0
 20
0.0
 30
0.0
 70
2
  0
VERTEX
  8
0
 10
436.344666
 20
184.109131
 30
0.0
 70
0
  0
VERTEX
  8
0
 10
458.977966
 20
184.109131
 30
0.0
 70
0
  0
SEQEND
  8
0
  0
POLYLINE
  8
0
 62
4
 66
1
 10
0.0
 20
0.0
 30
0.0
 70
2
  0
VERTEX
  8
0
 10
436.344666
 20
180.869141
 30
0.0
 70
0
  0
VERTEX
  8
0
 10
458.977966
 20
180.869141
 30
0.0
 70
0
  0
SEQEND
  8
0
  0
POLYLINE
  8
0
 62
4
 66
1
 10
0.0
 20
0.0
 30
0.0
 70
2
  0
VERTEX
  8
0
 10
181.369553
 20
174.489136
 30
0.0
 70
0
  0
VERTEX
  8
0
 10
181.369553
 20
145.989136
 30
0.0
 70
0
  0
VERTEX
  8
0
 10
182.369553
 20
144.989136
 30
0.0
 70
0
  0
VERTEX
  8
0
 10
205.369553
 20
144.989136
 30
0.0
 70
0
  0
VERTEX
  8
0
 10
206.369553
 20
145.989136
 30
0.0
 70
0
  0
VERTEX
  8
0
 10
206.369553
 20
151.489136
 30
0.0
 70
0
  0
SEQEND
  8
0
  0
POLYLINE
  8
0
 62
4
 66
1
 10
0.0
 20
0.0
 30
0.0
 70
2
  0
VERTEX
  8
0
 10
207.369553
 20
152.489136
 30
0.0
 70
0
  0
VERTEX
  8
0
 10
223.369553
 20
152.489136
 30
0.0
 70
0
  0
VERTEX
  8
0
 10
224.369553
 20
153.489136
 30
0.0
 70
0
  0
VERTEX
  8
0
 10
224.369553
 20
211.489136
 30
0.0
 70
0
  0
VERTEX
  8
0
 10
223.369553
 20
212.489136
 30
0.0
 70
0
  0
VERTEX
  8
0
 10
207.369553
 20
212.489136
 30
0.0
 70
0
  0
SEQEND
  8
0
  0
POLYLINE
  8
0
 62
4
 66
1
 10
0.0
 20
0.0
 30
0.0
 70
2
  0
VERTEX
  8
0
 10
206.369553
 20
213.489136
 30
0.0
 70
0
  0
VERTEX
  8
0
 10
206.369553
 20
218.989136
 30
0.0
 70
0
  0
VERTEX
  8
0
 10
205.369553
 20
219.989136
 30
0.0
 70
0
  0
VERTEX
  8
0
 10
182.369553
 20
219.989136
 30
0.0
 70
0
  0
VERTEX
  8
0
 10
181.369553
 20
218.989136
 30
0.0
 70
0
  0
VERTEX
  8
0
 10
181.369553
 20
174.489136
 30
0.0
 70
0
  0
SEQEND
  8
0
  0
CIRCLE
  8
0
 62
4
 10
429.021729
 20
182.489136
 30
0.0
 40
30.0
  0
ENDSEC
  0
EOF
