  0
SECTION
  2
ENTITIES
  0
LINE
  8
0
 62
4
 10
190.17392
 20
223.597824
 30
0.0
 11
220.17392
 21
223.597824
 31
0.0
  0
LINE
  8
0
 62
4
 10
190.17392
 20
159.097824
 30
0.0
 11
220.17392
 21
159.097824
 31
0.0
  0
LINE
  8
0
 62
4
 10
239.67392
 20
183.847824
 30
0.0
 11
240.17392
 21
183.347824
 31
0.0
  0
LINE
  8
0
 62
4
 10
239.67392
 20
198.847824
 30
0.0
 11
240.17392
 21
199.347824
 31
0.0
  0
LINE
  8
0
 62
4
 10
190.67392
 20
198.847824
 30
0.0
 11
190.67392
 21
183.847824
 31
0.0
  0
POLYLINE
  8
0
 62
4
 66
1
 10
0.0
 20
0.0
 30
0.0
 70
2
  0
VERTEX
  8
0
 10
190.17392
 20
183.347824
 30
0.0
 70
0
  0
VERTEX
  8
0
 10
190.67392
 20
183.847824
 30
0.0
 70
0
  0
VERTEX
  8
0
 10
239.67392
 20
183.847824
 30
0.0
 70
0
  0
VERTEX
  8
0
 10
239.67392
 20
198.847824
 30
0.0
 70
0
  0
VERTEX
  8
0
 10
190.67392
 20
198.847824
 30
0.0
 70
0
  0
VERTEX
  8
0
 10
190.17392
 20
199.347824
 30
0.0
 70
0
  0
SEQEND
  8
0
  0
ARC
  8
0
 62
4
 10
221.17392
 20
221.347824
 30
0.0
 40
1.0
 50
180.0
 51
270.0
  0
ARC
  8
0
 62
4
 10
221.17392
 20
161.347824
 30
0.0
 40
1.0
 50
90.0
 51
180.0
  0
ARC
  8
0
 62
4
 10
452.304352
 20
191.347824
 30
0.0
 40
7.5
 50
109.47122094265586
 51
70.52877905734415
  0
POLYLINE
  8
0
 62
4
 66
1
 10
0.0
 20
0.0
 30
0.0
 70
2
  0
VERTEX
  8
0
 10
454.804352
 20
198.418884
 30
0.0
 70
0
  0
VERTEX
  8
0
 10
454.804352
 20
201.147827
 30
0.0
 70
0
  0
VERTEX
  8
0
 10
449.804352
 20
201.147827
 30
0.0
 70
0
  0
VERTEX
  8
0
 10
449.804352
 20
198.418884
 30
0.0
 70
0
  0
SEQEND
  8
0
  0
LINE
  8
0
 62
4
 10
190.17392
 20
201.147827
 30
0.0
 11
240.17392
 21
201.147827
 31
0.0
  0
POLYLINE
  8
0
 62
4
 66
1
 10
0.0
 20
0.0
 30
0.0
 70
2
  0
VERTEX
  8
0
 10
232.17392
 20
220.347824
 30
0.0
 70
0
  0
VERTEX
  8
0
 10
232.17392
 20
201.147827
 30
0.0
 70
0
  0
SEQEND
  8
0
  0
POLYLINE
  8
0
 62
4
 66
1
 10
0.0
 20
0.0
 30
0.0
 70
2
  0
VERTEX
  8
0
 10
228.17392
 20
220.347824
 30
0.0
 70
0
  0
VERTEX
  8
0
 10
228.17392
 20
201.147827
 30
0.0
 70
0
  0
SEQEND
  8
0
  0
POLYLINE
  8
0
 62
4
 66
1
 10
0.0
 20
0.0
 30
0.0
 70
2
  0
VERTEX
  8
0
 10
231.793915
 20
220.347824
 30
0.0
 70
0
  0
VERTEX
  8
0
 10
231.793915
 20
201.147827
 30
0.0
 70
0
  0
SEQEND
  8
0
  0
POLYLINE
  8
0
 62
4
 66
1
 10
0.0
 20
0.0
 30
0.0
 70
2
  0
VERTEX
  8
0
 10
228.553925
 20
220.347824
 30
0.0
 70
0
  0
VERTEX
  8
0
 10
228.553925
 20
201.147827
 30
0.0
 70
0
  0
SEQEND
  8
0
  0
POLYLINE
  8
0
 62
4
 66
1
 10
0.0
 20
0.0
 30
0.0
 70
2
  0
VERTEX
  8
0
 10
450.304352
 20
201.147827
 30
0.0
 70
0
  0
VERTEX
  8
0
 10
450.304352
 20
220.278778
 30
0.0
 70
0
  0
SEQEND
  8
0
  0
POLYLINE
  8
0
 62
4
 66
1
 10
0.0
 20
0.0
 30
0.0
 70
2
  0
VERTEX
  8
0
 10
454.304352
 20
201.147827
 30
0.0
 70
0
  0
VERTEX
  8
0
 10
454.304352
 20
220.278778
 30
0.0
 70
0
  0
SEQEND
  8
0
  0
POLYLINE
  8
0
 62
4
 66
1
 10
0.0
 20
0.0
 30
0.0
 70
2
  0
VERTEX
  8
0
 10
450.684357
 20
201.147827
 30
0.0
 70
0
  0
VERTEX
  8
0
 10
450.684357
 20
220.302536
 30
0.0
 70
0
  0
SEQEND
  8
0
  0
POLYLINE
  8
0
 62
4
 66
1
 10
0.0
 20
0.0
 30
0.0
 70
2
  0
VERTEX
  8
0
 10
453.924347
 20
201.147827
 30
0.0
 70
0
  0
VERTEX
  8
0
 10
453.924347
 20
220.302536
 30
0.0
 70
0
  0
SEQEND
  8
0
  0
CIRCLE
  8
0
 62
7
 10
230.17392
 20
191.347824
 30
0.0
 40
2.0
  0
CIRCLE
  8
0
 62
4
 10
230.17392
 20
191.347824
 30
0.0
 40
1.62
  0
POLYLINE
  8
0
 62
4
 66
1
 10
0.0
 20
0.0
 30
0.0
 70
2
  0
VERTEX
  8
0
 10
459.532776
 20
193.347824
 30
0.0
 70
0
  0
VERTEX
  8
0
 10
481.235291
 20
193.347824
 30
0.0
 70
0
  0
SEQEND
  8
0
  0
POLYLINE
  8
0
 62
4
 66
1
 10
0.0
 20
0.0
 30
0.0
 70
2
  0
VERTEX
  8
0
 10
459.532776
 20
189.347824
 30
0.0
 70
0
  0
VERTEX
  8
0
 10
481.235291
 20
189.347824
 30
0.0
 70
0
  0
SEQEND
  8
0
  0
POLYLINE
  8
0
 62
4
 66
1
 10
0.0
 20
0.0
 30
0.0
 70
2
  0
VERTEX
  8
0
 10
459.627289
 20
192.967819
 30
0.0
 70
0
  0
VERTEX
  8
0
 10
481.259064
 20
192.967819
 30
0.0
 70
0
  0
SEQEND
  8
0
  0
POLYLINE
  8
0
 62
4
 66
1
 10
0.0
 20
0.0
 30
0.0
 70
2
  0
VERTEX
  8
0
 10
459.627289
 20
189.727829
 30
0.0
 70
0
  0
VERTEX
  8
0
 10
481.259064
 20
189.727829
 30
0.0
 70
0
  0
SEQEND
  8
0
  0
POLYLINE
  8
0
 62
4
 66
1
 10
0.0
 20
0.0
 30
0.0
 70
2
  0
VERTEX
  8
0
 10
190.17392
 20
183.347824
 30
0.0
 70
0
  0
VERTEX
  8
0
 10
190.17392
 20
153.347824
 30
0.0
 70
0
  0
VERTEX
  8
0
 10
191.17392
 20
152.347824
 30
0.0
 70
0
  0
VERTEX
  8
0
 10
219.17392
 20
152.347824
 30
0.0
 70
0
  0
VERTEX
  8
0
 10
220.17392
 20
153.347824
 30
0.0
 70
0
  0
VERTEX
  8
0
 10
220.17392
 20
161.347824
 30
0.0
 70
0
  0
SEQEND
  8
0
  0
POLYLINE
  8
0
 62
4
 66
1
 10
0.0
 20
0.0
 30
0.0
 70
2
  0
VERTEX
  8
0
 10
221.17392
 20
162.347824
 30
0.0
 70
0
  0
VERTEX
  8
0
 10
239.17392
 20
162.347824
 30
0.0
 70
0
  0
VERTEX
  8
0
 10
240.17392
 20
163.347824
 30
0.0
 70
0
  0
VERTEX
  8
0
 10
240.17392
 20
219.347824
 30
0.0
 70
0
  0
VERTEX
  8
0
 10
239.17392
 20
220.347824
 30
0.0
 70
0
  0
VERTEX
  8
0
 10
221.17392
 20
220.347824
 30
0.0
 70
0
  0
SEQEND
  8
0
  0
POLYLINE
  8
0
 62
4
 66
1
 10
0.0
 20
0.0
 30
0.0
 70
2
  0
VERTEX
  8
0
 10
220.17392
 20
221.347824
 30
0.0
 70
0
  0
VERTEX
  8
0
 10
220.17392
 20
229.347824
 30
0.0
 70
0
  0
VERTEX
  8
0
 10
219.17392
 20
230.347824
 30
0.0
 70
0
  0
VERTEX
  8
0
 10
191.17392
 20
230.347824
 30
0.0
 70
0
  0
VERTEX
  8
0
 10
190.17392
 20
229.347824
 30
0.0
 70
0
  0
VERTEX
  8
0
 10
190.17392
 20
183.347824
 30
0.0
 70
0
  0
SEQEND
  8
0
  0
CIRCLE
  8
0
 62
4
 10
452.304352
 20
191.347824
 30
0.0
 40
29.0
  0
ENDSEC
  0
EOF
