  0
SECTION
  2
ENTITIES
  0
LINE
  8
0
 62
4
 10
176.086945
 20
203.42392
 30
0.0
 11
206.086945
 21
203.42392
 31
0.0
  0
LINE
  8
0
 62
4
 10
176.086945
 20
150.92392
 30
0.0
 11
206.086945
 21
150.92392
 31
0.0
  0
LINE
  8
0
 62
4
 10
225.586945
 20
169.67392
 30
0.0
 11
226.086945
 21
169.17392
 31
0.0
  0
LINE
  8
0
 62
4
 10
225.586945
 20
184.67392
 30
0.0
 11
226.086945
 21
185.17392
 31
0.0
  0
LINE
  8
0
 62
4
 10
176.586945
 20
184.67392
 30
0.0
 11
176.586945
 21
169.67392
 31
0.0
  0
POLYLINE
  8
0
 62
4
 66
1
 10
0.0
 20
0.0
 30
0.0
 70
2
  0
VERTEX
  8
0
 10
176.086945
 20
169.17392
 30
0.0
 70
0
  0
VERTEX
  8
0
 10
176.586945
 20
169.67392
 30
0.0
 70
0
  0
VERTEX
  8
0
 10
225.586945
 20
169.67392
 30
0.0
 70
0
  0
VERTEX
  8
0
 10
225.586945
 20
184.67392
 30
0.0
 70
0
  0
VERTEX
  8
0
 10
176.586945
 20
184.67392
 30
0.0
 70
0
  0
VERTEX
  8
0
 10
176.086945
 20
185.17392
 30
0.0
 70
0
  0
SEQEND
  8
0
  0
ARC
  8
0
 62
4
 10
207.086945
 20
203.17392
 30
0.0
 40
1.0
 50
180.0
 51
270.0
  0
ARC
  8
0
 62
4
 10
207.086945
 20
151.17392
 30
0.0
 40
1.0
 50
90.0
 51
180.0
  0
ARC
  8
0
 62
4
 10
420.652161
 20
177.17392
 30
0.0
 40
7.5
 50
109.47122094265586
 51
70.52877905734415
  0
POLYLINE
  8
0
 62
4
 66
1
 10
0.0
 20
0.0
 30
0.0
 70
2
  0
VERTEX
  8
0
 10
423.152161
 20
184.244995
 30
0.0
 70
0
  0
VERTEX
  8
0
 10
423.152161
 20
186.973923
 30
0.0
 70
0
  0
VERTEX
  8
0
 10
418.152161
 20
186.973923
 30
0.0
 70
0
  0
VERTEX
  8
0
 10
418.152161
 20
184.244995
 30
0.0
 70
0
  0
SEQEND
  8
0
  0
LINE
  8
0
 62
4
 10
176.086945
 20
186.973923
 30
0.0
 11
226.086945
 21
186.973923
 31
0.0
  0
POLYLINE
  8
0
 62
4
 66
1
 10
0.0
 20
0.0
 30
0.0
 70
2
  0
VERTEX
  8
0
 10
218.086945
 20
202.17392
 30
0.0
 70
0
  0
VERTEX
  8
0
 10
218.086945
 20
186.973923
 30
0.0
 70
0
  0
SEQEND
  8
0
  0
POLYLINE
  8
0
 62
4
 66
1
 10
0.0
 20
0.0
 30
0.0
 70
2
  0
VERTEX
  8
0
 10
214.086945
 20
202.17392
 30
0.0
 70
0
  0
VERTEX
  8
0
 10
214.086945
 20
186.973923
 30
0.0
 70
0
  0
SEQEND
  8
0
  0
POLYLINE
  8
0
 62
4
 66
1
 10
0.0
 20
0.0
 30
0.0
 70
2
  0
VERTEX
  8
0
 10
217.70694
 20
202.17392
 30
0.0
 70
0
  0
VERTEX
  8
0
 10
217.70694
 20
186.973923
 30
0.0
 70
0
  0
SEQEND
  8
0
  0
POLYLINE
  8
0
 62
4
 66
1
 10
0.0
 20
0.0
 30
0.0
 70
2
  0
VERTEX
  8
0
 10
214.466949
 20
202.17392
 30
0.0
 70
0
  0
VERTEX
  8
0
 10
214.466949
 20
186.973923
 30
0.0
 70
0
  0
SEQEND
  8
0
  0
POLYLINE
  8
0
 62
4
 66
1
 10
0.0
 20
0.0
 30
0.0
 70
2
  0
VERTEX
  8
0
 10
418.652161
 20
186.973923
 30
0.0
 70
0
  0
VERTEX
  8
0
 10
418.652161
 20
202.093796
 30
0.0
 70
0
  0
SEQEND
  8
0
  0
POLYLINE
  8
0
 62
4
 66
1
 10
0.0
 20
0.0
 30
0.0
 70
2
  0
VERTEX
  8
0
 10
422.652161
 20
186.973923
 30
0.0
 70
0
  0
VERTEX
  8
0
 10
422.652161
 20
202.093796
 30
0.0
 70
0
  0
SEQEND
  8
0
  0
POLYLINE
  8
0
 62
4
 66
1
 10
0.0
 20
0.0
 30
0.0
 70
2
  0
VERTEX
  8
0
 10
419.032166
 20
186.973923
 30
0.0
 70
0
  0
VERTEX
  8
0
 10
419.032166
 20
202.121368
 30
0.0
 70
0
  0
SEQEND
  8
0
  0
POLYLINE
  8
0
 62
4
 66
1
 10
0.0
 20
0.0
 30
0.0
 70
2
  0
VERTEX
  8
0
 10
422.272156
 20
186.973923
 30
0.0
 70
0
  0
VERTEX
  8
0
 10
422.272156
 20
202.121368
 30
0.0
 70
0
  0
SEQEND
  8
0
  0
CIRCLE
  8
0
 62
7
 10
216.086945
 20
177.17392
 30
0.0
 40
2.0
  0
CIRCLE
  8
0
 62
4
 10
216.086945
 20
177.17392
 30
0.0
 40
1.62
  0
POLYLINE
  8
0
 62
4
 66
1
 10
0.0
 20
0.0
 30
0.0
 70
2
  0
VERTEX
  8
0
 10
427.880554
 20
179.17392
 30
0.0
 70
0
  0
VERTEX
  8
0
 10
445.572021
 20
179.17392
 30
0.0
 70
0
  0
SEQEND
  8
0
  0
POLYLINE
  8
0
 62
4
 66
1
 10
0.0
 20
0.0
 30
0.0
 70
2
  0
VERTEX
  8
0
 10
427.880554
 20
175.17392
 30
0.0
 70
0
  0
VERTEX
  8
0
 10
445.572021
 20
175.17392
 30
0.0
 70
0
  0
SEQEND
  8
0
  0
POLYLINE
  8
0
 62
4
 66
1
 10
0.0
 20
0.0
 30
0.0
 70
2
  0
VERTEX
  8
0
 10
427.975098
 20
178.793915
 30
0.0
 70
0
  0
VERTEX
  8
0
 10
445.599609
 20
178.793915
 30
0.0
 70
0
  0
SEQEND
  8
0
  0
POLYLINE
  8
0
 62
4
 66
1
 10
0.0
 20
0.0
 30
0.0
 70
2
  0
VERTEX
  8
0
 10
427.975098
 20
175.553925
 30
0.0
 70
0
  0
VERTEX
  8
0
 10
445.599609
 20
175.553925
 30
0.0
 70
0
  0
SEQEND
  8
0
  0
POLYLINE
  8
0
 62
4
 66
1
 10
0.0
 20
0.0
 30
0.0
 70
2
  0
VERTEX
  8
0
 10
176.086945
 20
169.17392
 30
0.0
 70
0
  0
VERTEX
  8
0
 10
176.086945
 20
145.17392
 30
0.0
 70
0
  0
VERTEX
  8
0
 10
177.086945
 20
144.17392
 30
0.0
 70
0
  0
VERTEX
  8
0
 10
205.086945
 20
144.17392
 30
0.0
 70
0
  0
VERTEX
  8
0
 10
206.086945
 20
145.17392
 30
0.0
 70
0
  0
VERTEX
  8
0
 10
206.086945
 20
151.17392
 30
0.0
 70
0
  0
SEQEND
  8
0
  0
POLYLINE
  8
0
 62
4
 66
1
 10
0.0
 20
0.0
 30
0.0
 70
2
  0
VERTEX
  8
0
 10
207.086945
 20
152.17392
 30
0.0
 70
0
  0
VERTEX
  8
0
 10
225.086945
 20
152.17392
 30
0.0
 70
0
  0
VERTEX
  8
0
 10
226.086945
 20
153.17392
 30
0.0
 70
0
  0
VERTEX
  8
0
 10
226.086945
 20
201.17392
 30
0.0
 70
0
  0
VERTEX
  8
0
 10
225.086945
 20
202.17392
 30
0.0
 70
0
  0
VERTEX
  8
0
 10
207.086945
 20
202.17392
 30
0.0
 70
0
  0
SEQEND
  8
0
  0
POLYLINE
  8
0
 62
4
 66
1
 10
0.0
 20
0.0
 30
0.0
 70
2
  0
VERTEX
  8
0
 10
206.086945
 20
203.17392
 30
0.0
 70
0
  0
VERTEX
  8
0
 10
206.086945
 20
209.17392
 30
0.0
 70
0
  0
VERTEX
  8
0
 10
205.086945
 20
210.17392
 30
0.0
 70
0
  0
VERTEX
  8
0
 10
177.086945
 20
210.17392
 30
0.0
 70
0
  0
VERTEX
  8
0
 10
176.086945
 20
209.17392
 30
0.0
 70
0
  0
VERTEX
  8
0
 10
176.086945
 20
169.17392
 30
0.0
 70
0
  0
SEQEND
  8
0
  0
CIRCLE
  8
0
 62
4
 10
420.652161
 20
177.17392
 30
0.0
 40
25.0
  0
ENDSEC
  0
EOF
