  0
SECTION
  2
ENTITIES
  0
LINE
  8
0
 62
4
 10
193.695663
 20
228.641312
 30
0.0
 11
223.695663
 21
228.641312
 31
0.0
  0
LINE
  8
0
 62
4
 10
193.695663
 20
161.141312
 30
0.0
 11
223.695663
 21
161.141312
 31
0.0
  0
LINE
  8
0
 62
4
 10
242.695663
 20
182.391312
 30
0.0
 11
243.695663
 21
181.391312
 31
0.0
  0
LINE
  8
0
 62
4
 10
242.695663
 20
207.391312
 30
0.0
 11
243.695663
 21
208.391312
 31
0.0
  0
LINE
  8
0
 62
4
 10
194.695663
 20
207.391312
 30
0.0
 11
194.695663
 21
182.391312
 31
0.0
  0
POLYLINE
  8
0
 62
4
 66
1
 10
0.0
 20
0.0
 30
0.0
 70
2
  0
VERTEX
  8
0
 10
193.695663
 20
181.391312
 30
0.0
 70
0
  0
VERTEX
  8
0
 10
194.695663
 20
182.391312
 30
0.0
 70
0
  0
VERTEX
  8
0
 10
242.695663
 20
182.391312
 30
0.0
 70
0
  0
VERTEX
  8
0
 10
242.695663
 20
207.391312
 30
0.0
 70
0
  0
VERTEX
  8
0
 10
194.695663
 20
207.391312
 30
0.0
 70
0
  0
VERTEX
  8
0
 10
193.695663
 20
208.391312
 30
0.0
 70
0
  0
SEQEND
  8
0
  0
ARC
  8
0
 62
4
 10
224.695663
 20
225.891312
 30
0.0
 40
1.0
 50
180.0
 51
270.0
  0
ARC
  8
0
 62
4
 10
224.695663
 20
163.891312
 30
0.0
 40
1.0
 50
90.0
 51
180.0
  0
ARC
  8
0
 62
4
 10
460.217407
 20
194.891312
 30
0.0
 40
12.5
 50
108.66292518454978
 51
71.33707481545021
  0
POLYLINE
  8
0
 62
4
 66
1
 10
0.0
 20
0.0
 30
0.0
 70
2
  0
VERTEX
  8
0
 10
464.217407
 20
206.734024
 30
0.0
 70
0
  0
VERTEX
  8
0
 10
464.217407
 20
210.691315
 30
0.0
 70
0
  0
VERTEX
  8
0
 10
456.217407
 20
210.691315
 30
0.0
 70
0
  0
VERTEX
  8
0
 10
456.217407
 20
206.734024
 30
0.0
 70
0
  0
SEQEND
  8
0
  0
LINE
  8
0
 62
4
 10
193.695663
 20
210.691315
 30
0.0
 11
243.695663
 21
210.691315
 31
0.0
  0
POLYLINE
  8
0
 62
4
 66
1
 10
0.0
 20
0.0
 30
0.0
 70
2
  0
VERTEX
  8
0
 10
236.695663
 20
224.891312
 30
0.0
 70
0
  0
VERTEX
  8
0
 10
236.695663
 20
210.691315
 30
0.0
 70
0
  0
SEQEND
  8
0
  0
POLYLINE
  8
0
 62
4
 66
1
 10
0.0
 20
0.0
 30
0.0
 70
2
  0
VERTEX
  8
0
 10
230.695663
 20
224.891312
 30
0.0
 70
0
  0
VERTEX
  8
0
 10
230.695663
 20
210.691315
 30
0.0
 70
0
  0
SEQEND
  8
0
  0
POLYLINE
  8
0
 62
4
 66
1
 10
0.0
 20
0.0
 30
0.0
 70
2
  0
VERTEX
  8
0
 10
236.15567
 20
224.891312
 30
0.0
 70
0
  0
VERTEX
  8
0
 10
236.15567
 20
210.691315
 30
0.0
 70
0
  0
SEQEND
  8
0
  0
POLYLINE
  8
0
 62
4
 66
1
 10
0.0
 20
0.0
 30
0.0
 70
2
  0
VERTEX
  8
0
 10
231.235657
 20
224.891312
 30
0.0
 70
0
  0
VERTEX
  8
0
 10
231.235657
 20
210.691315
 30
0.0
 70
0
  0
SEQEND
  8
0
  0
POLYLINE
  8
0
 62
4
 66
1
 10
0.0
 20
0.0
 30
0.0
 70
2
  0
VERTEX
  8
0
 10
457.217407
 20
210.691315
 30
0.0
 70
0
  0
VERTEX
  8
0
 10
457.217407
 20
224.740936
 30
0.0
 70
0
  0
SEQEND
  8
0
  0
POLYLINE
  8
0
 62
4
 66
1
 10
0.0
 20
0.0
 30
0.0
 70
2
  0
VERTEX
  8
0
 10
463.217407
 20
210.691315
 30
0.0
 70
0
  0
VERTEX
  8
0
 10
463.217407
 20
224.740936
 30
0.0
 70
0
  0
SEQEND
  8
0
  0
POLYLINE
  8
0
 62
4
 66
1
 10
0.0
 20
0.0
 30
0.0
 70
2
  0
VERTEX
  8
0
 10
457.757385
 20
210.691315
 30
0.0
 70
0
  0
VERTEX
  8
0
 10
457.757385
 20
224.790283
 30
0.0
 70
0
  0
SEQEND
  8
0
  0
POLYLINE
  8
0
 62
4
 66
1
 10
0.0
 20
0.0
 30
0.0
 70
2
  0
VERTEX
  8
0
 10
462.677368
 20
210.691315
 30
0.0
 70
0
  0
VERTEX
  8
0
 10
462.677368
 20
224.790283
 30
0.0
 70
0
  0
SEQEND
  8
0
  0
CIRCLE
  8
0
 62
7
 10
233.695663
 20
194.891312
 30
0.0
 40
3.0
  0
CIRCLE
  8
0
 62
4
 10
233.695663
 20
194.891312
 30
0.0
 40
2.46
  0
POLYLINE
  8
0
 62
4
 66
1
 10
0.0
 20
0.0
 30
0.0
 70
2
  0
VERTEX
  8
0
 10
472.352051
 20
197.891312
 30
0.0
 70
0
  0
VERTEX
  8
0
 10
490.067017
 20
197.891312
 30
0.0
 70
0
  0
SEQEND
  8
0
  0
POLYLINE
  8
0
 62
4
 66
1
 10
0.0
 20
0.0
 30
0.0
 70
2
  0
VERTEX
  8
0
 10
472.352051
 20
191.891312
 30
0.0
 70
0
  0
VERTEX
  8
0
 10
490.067017
 20
191.891312
 30
0.0
 70
0
  0
SEQEND
  8
0
  0
POLYLINE
  8
0
 62
4
 66
1
 10
0.0
 20
0.0
 30
0.0
 70
2
  0
VERTEX
  8
0
 10
472.472961
 20
197.351318
 30
0.0
 70
0
  0
VERTEX
  8
0
 10
490.116333
 20
197.351318
 30
0.0
 70
0
  0
SEQEND
  8
0
  0
POLYLINE
  8
0
 62
4
 66
1
 10
0.0
 20
0.0
 30
0.0
 70
2
  0
VERTEX
  8
0
 10
472.472961
 20
192.431305
 30
0.0
 70
0
  0
VERTEX
  8
0
 10
490.116333
 20
192.431305
 30
0.0
 70
0
  0
SEQEND
  8
0
  0
POLYLINE
  8
0
 62
4
 66
1
 10
0.0
 20
0.0
 30
0.0
 70
2
  0
VERTEX
  8
0
 10
193.695663
 20
181.391312
 30
0.0
 70
0
  0
VERTEX
  8
0
 10
193.695663
 20
155.391312
 30
0.0
 70
0
  0
VERTEX
  8
0
 10
194.695663
 20
154.391312
 30
0.0
 70
0
  0
VERTEX
  8
0
 10
222.695663
 20
154.391312
 30
0.0
 70
0
  0
VERTEX
  8
0
 10
223.695663
 20
155.391312
 30
0.0
 70
0
  0
VERTEX
  8
0
 10
223.695663
 20
163.891312
 30
0.0
 70
0
  0
SEQEND
  8
0
  0
POLYLINE
  8
0
 62
4
 66
1
 10
0.0
 20
0.0
 30
0.0
 70
2
  0
VERTEX
  8
0
 10
224.695663
 20
164.891312
 30
0.0
 70
0
  0
VERTEX
  8
0
 10
242.695663
 20
164.891312
 30
0.0
 70
0
  0
VERTEX
  8
0
 10
243.695663
 20
165.891312
 30
0.0
 70
0
  0
VERTEX
  8
0
 10
243.695663
 20
223.891312
 30
0.0
 70
0
  0
VERTEX
  8
0
 10
242.695663
 20
224.891312
 30
0.0
 70
0
  0
VERTEX
  8
0
 10
224.695663
 20
224.891312
 30
0.0
 70
0
  0
SEQEND
  8
0
  0
POLYLINE
  8
0
 62
4
 66
1
 10
0.0
 20
0.0
 30
0.0
 70
2
  0
VERTEX
  8
0
 10
223.695663
 20
225.891312
 30
0.0
 70
0
  0
VERTEX
  8
0
 10
223.695663
 20
234.391312
 30
0.0
 70
0
  0
VERTEX
  8
0
 10
222.695663
 20
235.391312
 30
0.0
 70
0
  0
VERTEX
  8
0
 10
194.695663
 20
235.391312
 30
0.0
 70
0
  0
VERTEX
  8
0
 10
193.695663
 20
234.391312
 30
0.0
 70
0
  0
VERTEX
  8
0
 10
193.695663
 20
181.391312
 30
0.0
 70
0
  0
SEQEND
  8
0
  0
CIRCLE
  8
0
 62
4
 10
460.217407
 20
194.891312
 30
0.0
 40
30.0
  0
ENDSEC
  0
EOF
