  0
SECTION
  2
ENTITIES
  0
LINE
  8
0
 62
4
 10
228.913055
 20
265.326111
 30
0.0
 11
268.913055
 21
265.326111
 31
0.0
  0
LINE
  8
0
 62
4
 10
228.913055
 20
195.326096
 30
0.0
 11
268.913055
 21
195.326096
 31
0.0
  0
LINE
  8
0
 62
4
 10
292.913055
 20
219.326096
 30
0.0
 11
293.913055
 21
218.326096
 31
0.0
  0
LINE
  8
0
 62
4
 10
292.913055
 20
241.326096
 30
0.0
 11
293.913055
 21
242.326096
 31
0.0
  0
LINE
  8
0
 62
4
 10
229.913055
 20
241.326096
 30
0.0
 11
229.913055
 21
219.326096
 31
0.0
  0
POLYLINE
  8
0
 62
4
 66
1
 10
0.0
 20
0.0
 30
0.0
 70
2
  0
VERTEX
  8
0
 10
228.913055
 20
218.326096
 30
0.0
 70
0
  0
VERTEX
  8
0
 10
229.913055
 20
219.326096
 30
0.0
 70
0
  0
VERTEX
  8
0
 10
292.913055
 20
219.326096
 30
0.0
 70
0
  0
VERTEX
  8
0
 10
292.913055
 20
241.326096
 30
0.0
 70
0
  0
VERTEX
  8
0
 10
229.913055
 20
241.326096
 30
0.0
 70
0
  0
VERTEX
  8
0
 10
228.913055
 20
242.326096
 30
0.0
 70
0
  0
SEQEND
  8
0
  0
ARC
  8
0
 62
4
 10
270.413055
 20
264.326111
 30
0.0
 40
1.5
 50
180.0
 51
270.0
  0
ARC
  8
0
 62
4
 10
270.413055
 20
196.326096
 30
0.0
 40
1.5
 50
90.0
 51
180.0
  0
ARC
  8
0
 62
4
 10
546.847839
 20
230.326096
 30
0.0
 40
11.0
 50
105.82662088647183
 51
74.17337911352817
  0
POLYLINE
  8
0
 62
4
 66
1
 10
0.0
 20
0.0
 30
0.0
 70
2
  0
VERTEX
  8
0
 10
549.847839
 20
240.909103
 30
0.0
 70
0
  0
VERTEX
  8
0
 10
549.847839
 20
244.126099
 30
0.0
 70
0
  0
VERTEX
  8
0
 10
543.847839
 20
244.126099
 30
0.0
 70
0
  0
VERTEX
  8
0
 10
543.847839
 20
240.909103
 30
0.0
 70
0
  0
SEQEND
  8
0
  0
LINE
  8
0
 62
4
 10
228.913055
 20
244.126099
 30
0.0
 11
293.913055
 21
244.126099
 31
0.0
  0
POLYLINE
  8
0
 62
4
 66
1
 10
0.0
 20
0.0
 30
0.0
 70
2
  0
VERTEX
  8
0
 10
283.913055
 20
262.826111
 30
0.0
 70
0
  0
VERTEX
  8
0
 10
283.913055
 20
244.126099
 30
0.0
 70
0
  0
SEQEND
  8
0
  0
POLYLINE
  8
0
 62
4
 66
1
 10
0.0
 20
0.0
 30
0.0
 70
2
  0
VERTEX
  8
0
 10
278.913055
 20
262.826111
 30
0.0
 70
0
  0
VERTEX
  8
0
 10
278.913055
 20
244.126099
 30
0.0
 70
0
  0
SEQEND
  8
0
  0
POLYLINE
  8
0
 62
4
 66
1
 10
0.0
 20
0.0
 30
0.0
 70
2
  0
VERTEX
  8
0
 10
283.478058
 20
262.826111
 30
0.0
 70
0
  0
VERTEX
  8
0
 10
283.478058
 20
244.126099
 30
0.0
 70
0
  0
SEQEND
  8
0
  0
POLYLINE
  8
0
 62
4
 66
1
 10
0.0
 20
0.0
 30
0.0
 70
2
  0
VERTEX
  8
0
 10
279.348053
 20
262.826111
 30
0.0
 70
0
  0
VERTEX
  8
0
 10
279.348053
 20
244.126099
 30
0.0
 70
0
  0
SEQEND
  8
0
  0
POLYLINE
  8
0
 62
4
 66
1
 10
0.0
 20
0.0
 30
0.0
 70
2
  0
VERTEX
  8
0
 10
544.347839
 20
244.126099
 30
0.0
 70
0
  0
VERTEX
  8
0
 10
544.347839
 20
262.729797
 30
0.0
 70
0
  0
SEQEND
  8
0
  0
POLYLINE
  8
0
 62
4
 66
1
 10
0.0
 20
0.0
 30
0.0
 70
2
  0
VERTEX
  8
0
 10
549.347839
 20
244.126099
 30
0.0
 70
0
  0
VERTEX
  8
0
 10
549.347839
 20
262.729797
 30
0.0
 70
0
  0
SEQEND
  8
0
  0
POLYLINE
  8
0
 62
4
 66
1
 10
0.0
 20
0.0
 30
0.0
 70
2
  0
VERTEX
  8
0
 10
544.782837
 20
244.126099
 30
0.0
 70
0
  0
VERTEX
  8
0
 10
544.782837
 20
262.760437
 30
0.0
 70
0
  0
SEQEND
  8
0
  0
POLYLINE
  8
0
 62
4
 66
1
 10
0.0
 20
0.0
 30
0.0
 70
2
  0
VERTEX
  8
0
 10
548.912842
 20
244.126099
 30
0.0
 70
0
  0
VERTEX
  8
0
 10
548.912842
 20
262.760437
 30
0.0
 70
0
  0
SEQEND
  8
0
  0
CIRCLE
  8
0
 62
7
 10
281.413055
 20
230.326096
 30
0.0
 40
2.5
  0
CIRCLE
  8
0
 62
4
 10
281.413055
 20
230.326096
 30
0.0
 40
2.065
  0
POLYLINE
  8
0
 62
4
 66
1
 10
0.0
 20
0.0
 30
0.0
 70
2
  0
VERTEX
  8
0
 10
557.559937
 20
232.826096
 30
0.0
 70
0
  0
VERTEX
  8
0
 10
579.251587
 20
232.826096
 30
0.0
 70
0
  0
SEQEND
  8
0
  0
POLYLINE
  8
0
 62
4
 66
1
 10
0.0
 20
0.0
 30
0.0
 70
2
  0
VERTEX
  8
0
 10
557.559937
 20
227.826096
 30
0.0
 70
0
  0
VERTEX
  8
0
 10
579.251587
 20
227.826096
 30
0.0
 70
0
  0
SEQEND
  8
0
  0
POLYLINE
  8
0
 62
4
 66
1
 10
0.0
 20
0.0
 30
0.0
 70
2
  0
VERTEX
  8
0
 10
557.652283
 20
232.391098
 30
0.0
 70
0
  0
VERTEX
  8
0
 10
579.282166
 20
232.391098
 30
0.0
 70
0
  0
SEQEND
  8
0
  0
POLYLINE
  8
0
 62
4
 66
1
 10
0.0
 20
0.0
 30
0.0
 70
2
  0
VERTEX
  8
0
 10
557.652283
 20
228.261093
 30
0.0
 70
0
  0
VERTEX
  8
0
 10
579.282166
 20
228.261093
 30
0.0
 70
0
  0
SEQEND
  8
0
  0
POLYLINE
  8
0
 62
4
 66
1
 10
0.0
 20
0.0
 30
0.0
 70
2
  0
VERTEX
  8
0
 10
228.913055
 20
218.326096
 30
0.0
 70
0
  0
VERTEX
  8
0
 10
228.913055
 20
187.326096
 30
0.0
 70
0
  0
VERTEX
  8
0
 10
229.913055
 20
186.326096
 30
0.0
 70
0
  0
VERTEX
  8
0
 10
267.913055
 20
186.326096
 30
0.0
 70
0
  0
VERTEX
  8
0
 10
268.913055
 20
187.326096
 30
0.0
 70
0
  0
VERTEX
  8
0
 10
268.913055
 20
196.326096
 30
0.0
 70
0
  0
SEQEND
  8
0
  0
POLYLINE
  8
0
 62
4
 66
1
 10
0.0
 20
0.0
 30
0.0
 70
2
  0
VERTEX
  8
0
 10
270.413055
 20
197.826096
 30
0.0
 70
0
  0
VERTEX
  8
0
 10
292.913055
 20
197.826096
 30
0.0
 70
0
  0
VERTEX
  8
0
 10
293.913055
 20
198.826096
 30
0.0
 70
0
  0
VERTEX
  8
0
 10
293.913055
 20
261.826111
 30
0.0
 70
0
  0
VERTEX
  8
0
 10
292.913055
 20
262.826111
 30
0.0
 70
0
  0
VERTEX
  8
0
 10
270.413055
 20
262.826111
 30
0.0
 70
0
  0
SEQEND
  8
0
  0
POLYLINE
  8
0
 62
4
 66
1
 10
0.0
 20
0.0
 30
0.0
 70
2
  0
VERTEX
  8
0
 10
268.913055
 20
264.326111
 30
0.0
 70
0
  0
VERTEX
  8
0
 10
268.913055
 20
273.326111
 30
0.0
 70
0
  0
VERTEX
  8
0
 10
267.913055
 20
274.326111
 30
0.0
 70
0
  0
VERTEX
  8
0
 10
229.913055
 20
274.326111
 30
0.0
 70
0
  0
VERTEX
  8
0
 10
228.913055
 20
273.326111
 30
0.0
 70
0
  0
VERTEX
  8
0
 10
228.913055
 20
218.326096
 30
0.0
 70
0
  0
SEQEND
  8
0
  0
CIRCLE
  8
0
 62
4
 10
546.847839
 20
230.326096
 30
0.0
 40
32.5
  0
ENDSEC
  0
EOF
