  0
SECTION
  2
ENTITIES
  0
LINE
  8
0
 62
4
 10
290.543457
 20
347.336975
 30
0.0
 11
330.543457
 21
347.336975
 31
0.0
  0
LINE
  8
0
 62
4
 10
290.543457
 20
237.336975
 30
0.0
 11
330.543457
 21
237.336975
 31
0.0
  0
LINE
  8
0
 62
4
 10
354.543457
 20
269.836975
 30
0.0
 11
355.543457
 21
268.836975
 31
0.0
  0
LINE
  8
0
 62
4
 10
354.543457
 20
314.836975
 30
0.0
 11
355.543457
 21
315.836975
 31
0.0
  0
LINE
  8
0
 62
4
 10
291.543457
 20
314.836975
 30
0.0
 11
291.543457
 21
269.836975
 31
0.0
  0
POLYLINE
  8
0
 62
4
 66
1
 10
0.0
 20
0.0
 30
0.0
 70
2
  0
VERTEX
  8
0
 10
290.543457
 20
268.836975
 30
0.0
 70
0
  0
VERTEX
  8
0
 10
291.543457
 20
269.836975
 30
0.0
 70
0
  0
VERTEX
  8
0
 10
354.543457
 20
269.836975
 30
0.0
 70
0
  0
VERTEX
  8
0
 10
354.543457
 20
314.836975
 30
0.0
 70
0
  0
VERTEX
  8
0
 10
291.543457
 20
314.836975
 30
0.0
 70
0
  0
VERTEX
  8
0
 10
290.543457
 20
315.836975
 30
0.0
 70
0
  0
SEQEND
  8
0
  0
ARC
  8
0
 62
4
 10
332.043457
 20
343.836975
 30
0.0
 40
1.5
 50
180.0
 51
270.0
  0
ARC
  8
0
 62
4
 10
332.043457
 20
240.836975
 30
0.0
 40
1.5
 50
90.0
 51
180.0
  0
ARC
  8
0
 62
4
 10
685.32605
 20
292.336975
 30
0.0
 40
22.5
 50
108.1262038101694
 51
71.87379618983061
  0
POLYLINE
  8
0
 62
4
 66
1
 10
0.0
 20
0.0
 30
0.0
 70
2
  0
VERTEX
  8
0
 10
692.32605
 20
313.720367
 30
0.0
 70
0
  0
VERTEX
  8
0
 10
692.32605
 20
318.636963
 30
0.0
 70
0
  0
VERTEX
  8
0
 10
678.32605
 20
318.636963
 30
0.0
 70
0
  0
VERTEX
  8
0
 10
678.32605
 20
313.720367
 30
0.0
 70
0
  0
SEQEND
  8
0
  0
LINE
  8
0
 62
4
 10
290.543457
 20
318.636963
 30
0.0
 11
355.543457
 21
318.636963
 31
0.0
  0
POLYLINE
  8
0
 62
4
 66
1
 10
0.0
 20
0.0
 30
0.0
 70
2
  0
VERTEX
  8
0
 10
348.043457
 20
342.336975
 30
0.0
 70
0
  0
VERTEX
  8
0
 10
348.043457
 20
318.636963
 30
0.0
 70
0
  0
SEQEND
  8
0
  0
POLYLINE
  8
0
 62
4
 66
1
 10
0.0
 20
0.0
 30
0.0
 70
2
  0
VERTEX
  8
0
 10
338.043457
 20
342.336975
 30
0.0
 70
0
  0
VERTEX
  8
0
 10
338.043457
 20
318.636963
 30
0.0
 70
0
  0
SEQEND
  8
0
  0
POLYLINE
  8
0
 62
4
 66
1
 10
0.0
 20
0.0
 30
0.0
 70
2
  0
VERTEX
  8
0
 10
347.233459
 20
342.336975
 30
0.0
 70
0
  0
VERTEX
  8
0
 10
347.233459
 20
318.636963
 30
0.0
 70
0
  0
SEQEND
  8
0
  0
POLYLINE
  8
0
 62
4
 66
1
 10
0.0
 20
0.0
 30
0.0
 70
2
  0
VERTEX
  8
0
 10
338.853455
 20
342.336975
 30
0.0
 70
0
  0
VERTEX
  8
0
 10
338.853455
 20
318.636963
 30
0.0
 70
0
  0
SEQEND
  8
0
  0
POLYLINE
  8
0
 62
4
 66
1
 10
0.0
 20
0.0
 30
0.0
 70
2
  0
VERTEX
  8
0
 10
680.32605
 20
318.636963
 30
0.0
 70
0
  0
VERTEX
  8
0
 10
680.32605
 20
342.086334
 30
0.0
 70
0
  0
SEQEND
  8
0
  0
POLYLINE
  8
0
 62
4
 66
1
 10
0.0
 20
0.0
 30
0.0
 70
2
  0
VERTEX
  8
0
 10
690.32605
 20
318.636963
 30
0.0
 70
0
  0
VERTEX
  8
0
 10
690.32605
 20
342.086334
 30
0.0
 70
0
  0
SEQEND
  8
0
  0
POLYLINE
  8
0
 62
4
 66
1
 10
0.0
 20
0.0
 30
0.0
 70
2
  0
VERTEX
  8
0
 10
681.136108
 20
318.636963
 30
0.0
 70
0
  0
VERTEX
  8
0
 10
681.136108
 20
342.161102
 30
0.0
 70
0
  0
SEQEND
  8
0
  0
POLYLINE
  8
0
 62
4
 66
1
 10
0.0
 20
0.0
 30
0.0
 70
2
  0
VERTEX
  8
0
 10
689.516113
 20
318.636963
 30
0.0
 70
0
  0
VERTEX
  8
0
 10
689.516113
 20
342.161102
 30
0.0
 70
0
  0
SEQEND
  8
0
  0
CIRCLE
  8
0
 62
7
 10
343.043457
 20
292.336975
 30
0.0
 40
5.0
  0
CIRCLE
  8
0
 62
4
 10
343.043457
 20
292.336975
 30
0.0
 40
4.19
  0
POLYLINE
  8
0
 62
4
 66
1
 10
0.0
 20
0.0
 30
0.0
 70
2
  0
VERTEX
  8
0
 10
707.263489
 20
297.336975
 30
0.0
 70
0
  0
VERTEX
  8
0
 10
735.075439
 20
297.336975
 30
0.0
 70
0
  0
SEQEND
  8
0
  0
POLYLINE
  8
0
 62
4
 66
1
 10
0.0
 20
0.0
 30
0.0
 70
2
  0
VERTEX
  8
0
 10
707.263489
 20
287.336975
 30
0.0
 70
0
  0
VERTEX
  8
0
 10
735.075439
 20
287.336975
 30
0.0
 70
0
  0
SEQEND
  8
0
  0
POLYLINE
  8
0
 62
4
 66
1
 10
0.0
 20
0.0
 30
0.0
 70
2
  0
VERTEX
  8
0
 10
707.432495
 20
296.526978
 30
0.0
 70
0
  0
VERTEX
  8
0
 10
735.150208
 20
296.526978
 30
0.0
 70
0
  0
SEQEND
  8
0
  0
POLYLINE
  8
0
 62
4
 66
1
 10
0.0
 20
0.0
 30
0.0
 70
2
  0
VERTEX
  8
0
 10
707.432495
 20
288.146973
 30
0.0
 70
0
  0
VERTEX
  8
0
 10
735.150208
 20
288.146973
 30
0.0
 70
0
  0
SEQEND
  8
0
  0
POLYLINE
  8
0
 62
4
 66
1
 10
0.0
 20
0.0
 30
0.0
 70
2
  0
VERTEX
  8
0
 10
290.543457
 20
268.836975
 30
0.0
 70
0
  0
VERTEX
  8
0
 10
290.543457
 20
229.336975
 30
0.0
 70
0
  0
VERTEX
  8
0
 10
291.543457
 20
228.336975
 30
0.0
 70
0
  0
VERTEX
  8
0
 10
329.543457
 20
228.336975
 30
0.0
 70
0
  0
VERTEX
  8
0
 10
330.543457
 20
229.336975
 30
0.0
 70
0
  0
VERTEX
  8
0
 10
330.543457
 20
240.836975
 30
0.0
 70
0
  0
SEQEND
  8
0
  0
POLYLINE
  8
0
 62
4
 66
1
 10
0.0
 20
0.0
 30
0.0
 70
2
  0
VERTEX
  8
0
 10
332.043457
 20
242.336975
 30
0.0
 70
0
  0
VERTEX
  8
0
 10
354.543457
 20
242.336975
 30
0.0
 70
0
  0
VERTEX
  8
0
 10
355.543457
 20
243.336975
 30
0.0
 70
0
  0
VERTEX
  8
0
 10
355.543457
 20
341.336975
 30
0.0
 70
0
  0
VERTEX
  8
0
 10
354.543457
 20
342.336975
 30
0.0
 70
0
  0
VERTEX
  8
0
 10
332.043457
 20
342.336975
 30
0.0
 70
0
  0
SEQEND
  8
0
  0
POLYLINE
  8
0
 62
4
 66
1
 10
0.0
 20
0.0
 30
0.0
 70
2
  0
VERTEX
  8
0
 10
330.543457
 20
343.836975
 30
0.0
 70
0
  0
VERTEX
  8
0
 10
330.543457
 20
355.336975
 30
0.0
 70
0
  0
VERTEX
  8
0
 10
329.543457
 20
356.336975
 30
0.0
 70
0
  0
VERTEX
  8
0
 10
291.543457
 20
356.336975
 30
0.0
 70
0
  0
VERTEX
  8
0
 10
290.543457
 20
355.336975
 30
0.0
 70
0
  0
VERTEX
  8
0
 10
290.543457
 20
268.836975
 30
0.0
 70
0
  0
SEQEND
  8
0
  0
CIRCLE
  8
0
 62
4
 10
685.32605
 20
292.336975
 30
0.0
 40
50.0
  0
ENDSEC
  0
EOF
