  0
SECTION
  2
ENTITIES
  0
LINE
  8
0
 62
4
 10
92.070663
 20
132.002716
 30
0.0
 11
112.070663
 21
132.002716
 31
0.0
  0
LINE
  8
0
 62
4
 10
92.070663
 20
41.002716
 30
0.0
 11
112.070663
 21
41.002716
 31
0.0
  0
LINE
  8
0
 62
4
 10
112.070663
 20
101.502716
 30
0.0
 11
111.070663
 21
100.502716
 31
0.0
  0
LINE
  8
0
 62
4
 10
112.070663
 20
71.502716
 30
0.0
 11
111.070663
 21
72.502716
 31
0.0
  0
LINE
  8
0
 62
4
 10
92.070663
 20
71.502716
 30
0.0
 11
93.070663
 21
72.502716
 31
0.0
  0
POLYLINE
  8
0
 62
4
 66
1
 10
0.0
 20
0.0
 30
0.0
 70
2
  0
VERTEX
  8
0
 10
92.070663
 20
71.502716
 30
0.0
 70
0
  0
VERTEX
  8
0
 10
92.070663
 20
37.002716
 30
0.0
 70
0
  0
VERTEX
  8
0
 10
92.570663
 20
36.502716
 30
0.0
 70
0
  0
VERTEX
  8
0
 10
111.570663
 20
36.502716
 30
0.0
 70
0
  0
VERTEX
  8
0
 10
112.070663
 20
37.002716
 30
0.0
 70
0
  0
VERTEX
  8
0
 10
112.070663
 20
136.002716
 30
0.0
 70
0
  0
VERTEX
  8
0
 10
111.570663
 20
136.502716
 30
0.0
 70
0
  0
VERTEX
  8
0
 10
92.570663
 20
136.502716
 30
0.0
 70
0
  0
VERTEX
  8
0
 10
92.070663
 20
136.002716
 30
0.0
 70
0
  0
VERTEX
  8
0
 10
92.070663
 20
71.502716
 30
0.0
 70
0
  0
SEQEND
  8
0
  0
POLYLINE
  8
0
 62
4
 66
1
 10
0.0
 20
0.0
 30
0.0
 70
2
  0
VERTEX
  8
0
 10
92.070663
 20
101.502716
 30
0.0
 70
0
  0
VERTEX
  8
0
 10
93.070663
 20
100.502716
 30
0.0
 70
0
  0
VERTEX
  8
0
 10
93.070663
 20
72.502716
 30
0.0
 70
0
  0
VERTEX
  8
0
 10
111.070663
 20
72.502716
 30
0.0
 70
0
  0
VERTEX
  8
0
 10
111.070663
 20
100.502716
 30
0.0
 70
0
  0
VERTEX
  8
0
 10
93.070663
 20
100.502716
 30
0.0
 70
0
  0
SEQEND
  8
0
  0
ARC
  8
0
 62
4
 10
177.972839
 20
86.502716
 30
0.0
 40
14.0
 50
106.60154992625478
 51
73.39845007374521
  0
POLYLINE
  8
0
 62
4
 66
1
 10
0.0
 20
0.0
 30
0.0
 70
2
  0
VERTEX
  8
0
 10
181.972839
 20
99.919121
 30
0.0
 70
0
  0
VERTEX
  8
0
 10
181.972839
 20
103.802719
 30
0.0
 70
0
  0
VERTEX
  8
0
 10
173.972839
 20
103.802719
 30
0.0
 70
0
  0
VERTEX
  8
0
 10
173.972839
 20
99.919121
 30
0.0
 70
0
  0
SEQEND
  8
0
  0
LINE
  8
0
 62
4
 10
92.070663
 20
103.802719
 30
0.0
 11
112.070663
 21
103.802719
 31
0.0
  0
ENDSEC
  0
EOF
