  0
SECTION
  2
ENTITIES
  0
LINE
  8
0
 62
4
 10
114.671196
 20
172.275818
 30
0.0
 11
144.671204
 21
172.275818
 31
0.0
  0
LINE
  8
0
 62
4
 10
114.671196
 20
53.775818
 30
0.0
 11
144.671204
 21
53.775818
 31
0.0
  0
LINE
  8
0
 62
4
 10
144.671204
 20
139.025818
 30
0.0
 11
143.671204
 21
138.025818
 31
0.0
  0
LINE
  8
0
 62
4
 10
144.671204
 20
87.025818
 30
0.0
 11
143.671204
 21
88.025818
 31
0.0
  0
LINE
  8
0
 62
4
 10
114.671196
 20
87.025818
 30
0.0
 11
115.671196
 21
88.025818
 31
0.0
  0
POLYLINE
  8
0
 62
4
 66
1
 10
0.0
 20
0.0
 30
0.0
 70
2
  0
VERTEX
  8
0
 10
114.671196
 20
87.025818
 30
0.0
 70
0
  0
VERTEX
  8
0
 10
114.671196
 20
48.025818
 30
0.0
 70
0
  0
VERTEX
  8
0
 10
115.671196
 20
47.025818
 30
0.0
 70
0
  0
VERTEX
  8
0
 10
143.671204
 20
47.025818
 30
0.0
 70
0
  0
VERTEX
  8
0
 10
144.671204
 20
48.025818
 30
0.0
 70
0
  0
VERTEX
  8
0
 10
144.671204
 20
178.025818
 30
0.0
 70
0
  0
VERTEX
  8
0
 10
143.671204
 20
179.025818
 30
0.0
 70
0
  0
VERTEX
  8
0
 10
115.671196
 20
179.025818
 30
0.0
 70
0
  0
VERTEX
  8
0
 10
114.671196
 20
178.025818
 30
0.0
 70
0
  0
VERTEX
  8
0
 10
114.671196
 20
87.025818
 30
0.0
 70
0
  0
SEQEND
  8
0
  0
POLYLINE
  8
0
 62
4
 66
1
 10
0.0
 20
0.0
 30
0.0
 70
2
  0
VERTEX
  8
0
 10
114.671196
 20
139.025818
 30
0.0
 70
0
  0
VERTEX
  8
0
 10
115.671196
 20
138.025818
 30
0.0
 70
0
  0
VERTEX
  8
0
 10
115.671196
 20
88.025818
 30
0.0
 70
0
  0
VERTEX
  8
0
 10
143.671204
 20
88.025818
 30
0.0
 70
0
  0
VERTEX
  8
0
 10
143.671204
 20
138.025818
 30
0.0
 70
0
  0
VERTEX
  8
0
 10
115.671196
 20
138.025818
 30
0.0
 70
0
  0
SEQEND
  8
0
  0
ARC
  8
0
 62
4
 10
237.741852
 20
113.025818
 30
0.0
 40
25.0
 50
106.26020455531571
 51
73.73981258024499
  0
POLYLINE
  8
0
 62
4
 66
1
 10
0.0
 20
0.0
 30
0.0
 70
2
  0
VERTEX
  8
0
 10
244.741852
 20
137.025818
 30
0.0
 70
0
  0
VERTEX
  8
0
 10
244.741852
 20
141.825821
 30
0.0
 70
0
  0
VERTEX
  8
0
 10
230.741852
 20
141.825821
 30
0.0
 70
0
  0
VERTEX
  8
0
 10
230.741852
 20
137.025818
 30
0.0
 70
0
  0
SEQEND
  8
0
  0
LINE
  8
0
 62
4
 10
114.671196
 20
141.825821
 30
0.0
 11
144.671204
 21
141.825821
 31
0.0
  0
ENDSEC
  0
EOF
