  0
SECTION
  2
ENTITIES
  0
LINE
  8
0
 62
4
 10
87.092384
 20
123.42662
 30
0.0
 11
107.092384
 21
123.42662
 31
0.0
  0
LINE
  8
0
 62
4
 10
87.092384
 20
38.42662
 30
0.0
 11
107.092384
 21
38.42662
 31
0.0
  0
LINE
  8
0
 62
4
 10
107.092384
 20
92.92662
 30
0.0
 11
106.092384
 21
91.92662
 31
0.0
  0
LINE
  8
0
 62
4
 10
107.092384
 20
68.92662
 30
0.0
 11
106.092384
 21
69.92662
 31
0.0
  0
LINE
  8
0
 62
4
 10
87.092384
 20
68.92662
 30
0.0
 11
88.092384
 21
69.92662
 31
0.0
  0
POLYLINE
  8
0
 62
4
 66
1
 10
0.0
 20
0.0
 30
0.0
 70
2
  0
VERTEX
  8
0
 10
87.092384
 20
68.92662
 30
0.0
 70
0
  0
VERTEX
  8
0
 10
87.092384
 20
34.42662
 30
0.0
 70
0
  0
VERTEX
  8
0
 10
87.592384
 20
33.92662
 30
0.0
 70
0
  0
VERTEX
  8
0
 10
106.592384
 20
33.92662
 30
0.0
 70
0
  0
VERTEX
  8
0
 10
107.092384
 20
34.42662
 30
0.0
 70
0
  0
VERTEX
  8
0
 10
107.092384
 20
127.42662
 30
0.0
 70
0
  0
VERTEX
  8
0
 10
106.592384
 20
127.92662
 30
0.0
 70
0
  0
VERTEX
  8
0
 10
87.592384
 20
127.92662
 30
0.0
 70
0
  0
VERTEX
  8
0
 10
87.092384
 20
127.42662
 30
0.0
 70
0
  0
VERTEX
  8
0
 10
87.092384
 20
68.92662
 30
0.0
 70
0
  0
SEQEND
  8
0
  0
POLYLINE
  8
0
 62
4
 66
1
 10
0.0
 20
0.0
 30
0.0
 70
2
  0
VERTEX
  8
0
 10
87.092384
 20
92.92662
 30
0.0
 70
0
  0
VERTEX
  8
0
 10
88.092384
 20
91.92662
 30
0.0
 70
0
  0
VERTEX
  8
0
 10
88.092384
 20
69.92662
 30
0.0
 70
0
  0
VERTEX
  8
0
 10
106.092384
 20
69.92662
 30
0.0
 70
0
  0
VERTEX
  8
0
 10
106.092384
 20
91.92662
 30
0.0
 70
0
  0
VERTEX
  8
0
 10
88.092384
 20
91.92662
 30
0.0
 70
0
  0
SEQEND
  8
0
  0
ARC
  8
0
 62
4
 10
166.733688
 20
80.92662
 30
0.0
 40
11.0
 50
105.82662088647183
 51
74.17337911352817
  0
POLYLINE
  8
0
 62
4
 66
1
 10
0.0
 20
0.0
 30
0.0
 70
2
  0
VERTEX
  8
0
 10
169.733688
 20
91.509628
 30
0.0
 70
0
  0
VERTEX
  8
0
 10
169.733688
 20
94.726624
 30
0.0
 70
0
  0
VERTEX
  8
0
 10
163.733688
 20
94.726624
 30
0.0
 70
0
  0
VERTEX
  8
0
 10
163.733688
 20
91.509628
 30
0.0
 70
0
  0
SEQEND
  8
0
  0
LINE
  8
0
 62
4
 10
87.092384
 20
94.726624
 30
0.0
 11
107.092384
 21
94.726624
 31
0.0
  0
ENDSEC
  0
EOF
