  0
SECTION
  2
ENTITIES
  0
LINE
  8
0
 62
4
 10
86.320663
 20
132.002716
 30
0.0
 11
106.320663
 21
132.002716
 31
0.0
  0
LINE
  8
0
 62
4
 10
86.320663
 20
41.002716
 30
0.0
 11
106.320663
 21
41.002716
 31
0.0
  0
LINE
  8
0
 62
4
 10
106.320663
 20
110.002716
 30
0.0
 11
105.320663
 21
109.002716
 31
0.0
  0
LINE
  8
0
 62
4
 10
106.320663
 20
63.002716
 30
0.0
 11
105.320663
 21
64.002716
 31
0.0
  0
LINE
  8
0
 62
4
 10
86.320663
 20
63.002716
 30
0.0
 11
87.320663
 21
64.002716
 31
0.0
  0
POLYLINE
  8
0
 62
4
 66
1
 10
0.0
 20
0.0
 30
0.0
 70
2
  0
VERTEX
  8
0
 10
86.320663
 20
63.002716
 30
0.0
 70
0
  0
VERTEX
  8
0
 10
86.320663
 20
37.002716
 30
0.0
 70
0
  0
VERTEX
  8
0
 10
86.820663
 20
36.502716
 30
0.0
 70
0
  0
VERTEX
  8
0
 10
105.820663
 20
36.502716
 30
0.0
 70
0
  0
VERTEX
  8
0
 10
106.320663
 20
37.002716
 30
0.0
 70
0
  0
VERTEX
  8
0
 10
106.320663
 20
136.002716
 30
0.0
 70
0
  0
VERTEX
  8
0
 10
105.820663
 20
136.502716
 30
0.0
 70
0
  0
VERTEX
  8
0
 10
86.820663
 20
136.502716
 30
0.0
 70
0
  0
VERTEX
  8
0
 10
86.320663
 20
136.002716
 30
0.0
 70
0
  0
VERTEX
  8
0
 10
86.320663
 20
63.002716
 30
0.0
 70
0
  0
SEQEND
  8
0
  0
POLYLINE
  8
0
 62
4
 66
1
 10
0.0
 20
0.0
 30
0.0
 70
2
  0
VERTEX
  8
0
 10
86.320663
 20
110.002716
 30
0.0
 70
0
  0
VERTEX
  8
0
 10
87.320663
 20
109.002716
 30
0.0
 70
0
  0
VERTEX
  8
0
 10
87.320663
 20
64.002716
 30
0.0
 70
0
  0
VERTEX
  8
0
 10
105.320663
 20
64.002716
 30
0.0
 70
0
  0
VERTEX
  8
0
 10
105.320663
 20
109.002716
 30
0.0
 70
0
  0
VERTEX
  8
0
 10
87.320663
 20
109.002716
 30
0.0
 70
0
  0
SEQEND
  8
0
  0
ARC
  8
0
 62
4
 10
180.722839
 20
86.502716
 30
0.0
 40
22.5
 50
108.1262038101694
 51
71.87379618983061
  0
POLYLINE
  8
0
 62
4
 66
1
 10
0.0
 20
0.0
 30
0.0
 70
2
  0
VERTEX
  8
0
 10
187.722839
 20
107.886124
 30
0.0
 70
0
  0
VERTEX
  8
0
 10
187.722839
 20
112.802719
 30
0.0
 70
0
  0
VERTEX
  8
0
 10
173.722839
 20
112.802719
 30
0.0
 70
0
  0
VERTEX
  8
0
 10
173.722839
 20
107.886124
 30
0.0
 70
0
  0
SEQEND
  8
0
  0
LINE
  8
0
 62
4
 10
86.320663
 20
112.802719
 30
0.0
 11
106.320663
 21
112.802719
 31
0.0
  0
ENDSEC
  0
EOF
