  0
SECTION
  2
ENTITIES
  0
LINE
  8
0
 62
4
 10
114.692932
 20
163.699722
 30
0.0
 11
144.692932
 21
163.699722
 31
0.0
  0
LINE
  8
0
 62
4
 10
114.692932
 20
51.199722
 30
0.0
 11
144.692932
 21
51.199722
 31
0.0
  0
LINE
  8
0
 62
4
 10
144.692932
 20
122.449722
 30
0.0
 11
143.692932
 21
121.449722
 31
0.0
  0
LINE
  8
0
 62
4
 10
144.692932
 20
92.449722
 30
0.0
 11
143.692932
 21
93.449722
 31
0.0
  0
LINE
  8
0
 62
4
 10
114.692932
 20
92.449722
 30
0.0
 11
115.692932
 21
93.449722
 31
0.0
  0
POLYLINE
  8
0
 62
4
 66
1
 10
0.0
 20
0.0
 30
0.0
 70
2
  0
VERTEX
  8
0
 10
114.692932
 20
92.449722
 30
0.0
 70
0
  0
VERTEX
  8
0
 10
114.692932
 20
45.449722
 30
0.0
 70
0
  0
VERTEX
  8
0
 10
115.692932
 20
44.449722
 30
0.0
 70
0
  0
VERTEX
  8
0
 10
143.692932
 20
44.449722
 30
0.0
 70
0
  0
VERTEX
  8
0
 10
144.692932
 20
45.449722
 30
0.0
 70
0
  0
VERTEX
  8
0
 10
144.692932
 20
169.449722
 30
0.0
 70
0
  0
VERTEX
  8
0
 10
143.692932
 20
170.449722
 30
0.0
 70
0
  0
VERTEX
  8
0
 10
115.692932
 20
170.449722
 30
0.0
 70
0
  0
VERTEX
  8
0
 10
114.692932
 20
169.449722
 30
0.0
 70
0
  0
VERTEX
  8
0
 10
114.692932
 20
92.449722
 30
0.0
 70
0
  0
SEQEND
  8
0
  0
POLYLINE
  8
0
 62
4
 66
1
 10
0.0
 20
0.0
 30
0.0
 70
2
  0
VERTEX
  8
0
 10
114.692932
 20
122.449722
 30
0.0
 70
0
  0
VERTEX
  8
0
 10
115.692932
 20
121.449722
 30
0.0
 70
0
  0
VERTEX
  8
0
 10
115.692932
 20
93.449722
 30
0.0
 70
0
  0
VERTEX
  8
0
 10
143.692932
 20
93.449722
 30
0.0
 70
0
  0
VERTEX
  8
0
 10
143.692932
 20
121.449722
 30
0.0
 70
0
  0
VERTEX
  8
0
 10
115.692932
 20
121.449722
 30
0.0
 70
0
  0
SEQEND
  8
0
  0
ARC
  8
0
 62
4
 10
223.502716
 20
107.449722
 30
0.0
 40
14.0
 50
106.60154992625478
 51
73.39845007374521
  0
POLYLINE
  8
0
 62
4
 66
1
 10
0.0
 20
0.0
 30
0.0
 70
2
  0
VERTEX
  8
0
 10
227.502716
 20
120.866127
 30
0.0
 70
0
  0
VERTEX
  8
0
 10
227.502716
 20
124.749725
 30
0.0
 70
0
  0
VERTEX
  8
0
 10
219.502716
 20
124.749725
 30
0.0
 70
0
  0
VERTEX
  8
0
 10
219.502716
 20
120.866127
 30
0.0
 70
0
  0
SEQEND
  8
0
  0
LINE
  8
0
 62
4
 10
114.692932
 20
124.749725
 30
0.0
 11
144.692932
 21
124.749725
 31
0.0
  0
ENDSEC
  0
EOF
