  0
SECTION
  2
ENTITIES
  0
LINE
  8
0
 62
4
 10
185.225555
 20
249.460602
 30
0.0
 11
215.225555
 21
249.460602
 31
0.0
  0
LINE
  8
0
 62
4
 10
185.225555
 20
76.960602
 30
0.0
 11
215.225555
 21
76.960602
 31
0.0
  0
LINE
  8
0
 62
4
 10
215.225555
 20
176.710602
 30
0.0
 11
214.225555
 21
175.710602
 31
0.0
  0
LINE
  8
0
 62
4
 10
215.225555
 20
149.710602
 30
0.0
 11
214.225555
 21
150.710602
 31
0.0
  0
LINE
  8
0
 62
4
 10
185.225555
 20
149.710602
 30
0.0
 11
186.225555
 21
150.710602
 31
0.0
  0
POLYLINE
  8
0
 62
4
 66
1
 10
0.0
 20
0.0
 30
0.0
 70
2
  0
VERTEX
  8
0
 10
185.225555
 20
149.710602
 30
0.0
 70
0
  0
VERTEX
  8
0
 10
185.225555
 20
71.210602
 30
0.0
 70
0
  0
VERTEX
  8
0
 10
186.225555
 20
70.210602
 30
0.0
 70
0
  0
VERTEX
  8
0
 10
214.225555
 20
70.210602
 30
0.0
 70
0
  0
VERTEX
  8
0
 10
215.225555
 20
71.210602
 30
0.0
 70
0
  0
VERTEX
  8
0
 10
215.225555
 20
255.210602
 30
0.0
 70
0
  0
VERTEX
  8
0
 10
214.225555
 20
256.210602
 30
0.0
 70
0
  0
VERTEX
  8
0
 10
186.225555
 20
256.210602
 30
0.0
 70
0
  0
VERTEX
  8
0
 10
185.225555
 20
255.210602
 30
0.0
 70
0
  0
VERTEX
  8
0
 10
185.225555
 20
149.710602
 30
0.0
 70
0
  0
SEQEND
  8
0
  0
POLYLINE
  8
0
 62
4
 66
1
 10
0.0
 20
0.0
 30
0.0
 70
2
  0
VERTEX
  8
0
 10
185.225555
 20
176.710602
 30
0.0
 70
0
  0
VERTEX
  8
0
 10
186.225555
 20
175.710602
 30
0.0
 70
0
  0
VERTEX
  8
0
 10
186.225555
 20
150.710602
 30
0.0
 70
0
  0
VERTEX
  8
0
 10
214.225555
 20
150.710602
 30
0.0
 70
0
  0
VERTEX
  8
0
 10
214.225555
 20
175.710602
 30
0.0
 70
0
  0
VERTEX
  8
0
 10
186.225555
 20
175.710602
 30
0.0
 70
0
  0
SEQEND
  8
0
  0
ARC
  8
0
 62
4
 10
325.144043
 20
163.210602
 30
0.0
 40
12.5
 50
108.66292518454978
 51
71.33707481545021
  0
POLYLINE
  8
0
 62
4
 66
1
 10
0.0
 20
0.0
 30
0.0
 70
2
  0
VERTEX
  8
0
 10
329.144043
 20
175.053314
 30
0.0
 70
0
  0
VERTEX
  8
0
 10
329.144043
 20
179.010605
 30
0.0
 70
0
  0
VERTEX
  8
0
 10
321.144043
 20
179.010605
 30
0.0
 70
0
  0
VERTEX
  8
0
 10
321.144043
 20
175.053314
 30
0.0
 70
0
  0
SEQEND
  8
0
  0
LINE
  8
0
 62
4
 10
185.225555
 20
179.010605
 30
0.0
 11
215.225555
 21
179.010605
 31
0.0
  0
ENDSEC
  0
EOF
