  0
SECTION
  2
ENTITIES
  0
LINE
  8
0
 62
4
 10
86.447006
 20
122.122963
 30
0.0
 11
111.447006
 21
122.122963
 31
0.0
  0
LINE
  8
0
 62
4
 10
86.447006
 20
38.372963
 30
0.0
 11
111.447006
 21
38.372963
 31
0.0
  0
LINE
  8
0
 62
4
 10
111.447006
 20
88.247963
 30
0.0
 11
110.947006
 21
87.747963
 31
0.0
  0
LINE
  8
0
 62
4
 10
111.447006
 20
72.247963
 30
0.0
 11
110.947006
 21
72.747963
 31
0.0
  0
LINE
  8
0
 62
4
 10
86.447006
 20
72.247963
 30
0.0
 11
86.947006
 21
72.747963
 31
0.0
  0
POLYLINE
  8
0
 62
4
 66
1
 10
0.0
 20
0.0
 30
0.0
 70
2
  0
VERTEX
  8
0
 10
86.447006
 20
72.247963
 30
0.0
 70
0
  0
VERTEX
  8
0
 10
86.447006
 20
33.747963
 30
0.0
 70
0
  0
VERTEX
  8
0
 10
87.447006
 20
32.747963
 30
0.0
 70
0
  0
VERTEX
  8
0
 10
110.447006
 20
32.747963
 30
0.0
 70
0
  0
VERTEX
  8
0
 10
111.447006
 20
33.747963
 30
0.0
 70
0
  0
VERTEX
  8
0
 10
111.447006
 20
126.747963
 30
0.0
 70
0
  0
VERTEX
  8
0
 10
110.447006
 20
127.747963
 30
0.0
 70
0
  0
VERTEX
  8
0
 10
87.447006
 20
127.747963
 30
0.0
 70
0
  0
VERTEX
  8
0
 10
86.447006
 20
126.747963
 30
0.0
 70
0
  0
VERTEX
  8
0
 10
86.447006
 20
72.247963
 30
0.0
 70
0
  0
SEQEND
  8
0
  0
POLYLINE
  8
0
 62
4
 66
1
 10
0.0
 20
0.0
 30
0.0
 70
2
  0
VERTEX
  8
0
 10
86.447006
 20
88.247963
 30
0.0
 70
0
  0
VERTEX
  8
0
 10
86.947006
 20
87.747963
 30
0.0
 70
0
  0
VERTEX
  8
0
 10
86.947006
 20
72.747963
 30
0.0
 70
0
  0
VERTEX
  8
0
 10
110.947006
 20
72.747963
 30
0.0
 70
0
  0
VERTEX
  8
0
 10
110.947006
 20
87.747963
 30
0.0
 70
0
  0
VERTEX
  8
0
 10
86.947006
 20
87.747963
 30
0.0
 70
0
  0
SEQEND
  8
0
  0
ARC
  8
0
 62
4
 10
167.520386
 20
80.247963
 30
0.0
 40
7.5
 50
109.47122094265586
 51
70.52877905734415
  0
POLYLINE
  8
0
 62
4
 66
1
 10
0.0
 20
0.0
 30
0.0
 70
2
  0
VERTEX
  8
0
 10
170.020386
 20
87.319031
 30
0.0
 70
0
  0
VERTEX
  8
0
 10
170.020386
 20
90.047966
 30
0.0
 70
0
  0
VERTEX
  8
0
 10
165.020386
 20
90.047966
 30
0.0
 70
0
  0
VERTEX
  8
0
 10
165.020386
 20
87.319031
 30
0.0
 70
0
  0
SEQEND
  8
0
  0
LINE
  8
0
 62
4
 10
86.447006
 20
90.047966
 30
0.0
 11
111.447006
 21
90.047966
 31
0.0
  0
ENDSEC
  0
EOF
