  0
SECTION
  2
ENTITIES
  0
LINE
  8
0
 62
4
 10
141.105972
 20
198.004074
 30
0.0
 11
171.105972
 21
198.004074
 31
0.0
  0
LINE
  8
0
 62
4
 10
141.105972
 20
61.504074
 30
0.0
 11
171.105972
 21
61.504074
 31
0.0
  0
LINE
  8
0
 62
4
 10
171.105972
 20
146.754074
 30
0.0
 11
170.105972
 21
145.754074
 31
0.0
  0
LINE
  8
0
 62
4
 10
171.105972
 20
112.754074
 30
0.0
 11
170.105972
 21
113.754074
 31
0.0
  0
LINE
  8
0
 62
4
 10
141.105972
 20
112.754074
 30
0.0
 11
142.105972
 21
113.754074
 31
0.0
  0
POLYLINE
  8
0
 62
4
 66
1
 10
0.0
 20
0.0
 30
0.0
 70
2
  0
VERTEX
  8
0
 10
141.105972
 20
112.754074
 30
0.0
 70
0
  0
VERTEX
  8
0
 10
141.105972
 20
55.754074
 30
0.0
 70
0
  0
VERTEX
  8
0
 10
142.105972
 20
54.754074
 30
0.0
 70
0
  0
VERTEX
  8
0
 10
170.105972
 20
54.754074
 30
0.0
 70
0
  0
VERTEX
  8
0
 10
171.105972
 20
55.754074
 30
0.0
 70
0
  0
VERTEX
  8
0
 10
171.105972
 20
203.754074
 30
0.0
 70
0
  0
VERTEX
  8
0
 10
170.105972
 20
204.754074
 30
0.0
 70
0
  0
VERTEX
  8
0
 10
142.105972
 20
204.754074
 30
0.0
 70
0
  0
VERTEX
  8
0
 10
141.105972
 20
203.754074
 30
0.0
 70
0
  0
VERTEX
  8
0
 10
141.105972
 20
112.754074
 30
0.0
 70
0
  0
SEQEND
  8
0
  0
POLYLINE
  8
0
 62
4
 66
1
 10
0.0
 20
0.0
 30
0.0
 70
2
  0
VERTEX
  8
0
 10
141.105972
 20
146.754074
 30
0.0
 70
0
  0
VERTEX
  8
0
 10
142.105972
 20
145.754074
 30
0.0
 70
0
  0
VERTEX
  8
0
 10
142.105972
 20
113.754074
 30
0.0
 70
0
  0
VERTEX
  8
0
 10
170.105972
 20
113.754074
 30
0.0
 70
0
  0
VERTEX
  8
0
 10
170.105972
 20
145.754074
 30
0.0
 70
0
  0
VERTEX
  8
0
 10
142.105972
 20
145.754074
 30
0.0
 70
0
  0
SEQEND
  8
0
  0
ARC
  8
0
 62
4
 10
264.959229
 20
129.754074
 30
0.0
 40
16.0
 50
108.20995732853793
 51
71.79006801783436
  0
POLYLINE
  8
0
 62
4
 66
1
 10
0.0
 20
0.0
 30
0.0
 70
2
  0
VERTEX
  8
0
 10
269.959229
 20
144.952759
 30
0.0
 70
0
  0
VERTEX
  8
0
 10
269.959229
 20
149.054077
 30
0.0
 70
0
  0
VERTEX
  8
0
 10
259.959229
 20
149.054077
 30
0.0
 70
0
  0
VERTEX
  8
0
 10
259.959229
 20
144.952759
 30
0.0
 70
0
  0
SEQEND
  8
0
  0
LINE
  8
0
 62
4
 10
141.105972
 20
149.054077
 30
0.0
 11
171.105972
 21
149.054077
 31
0.0
  0
ENDSEC
  0
EOF
