  0
SECTION
  2
ENTITIES
  0
LINE
  8
0
 62
4
 10
158.110046
 20
222.177307
 30
0.0
 11
183.110046
 21
222.177307
 31
0.0
  0
LINE
  8
0
 62
4
 10
158.110046
 20
68.427307
 30
0.0
 11
183.110046
 21
68.427307
 31
0.0
  0
LINE
  8
0
 62
4
 10
183.110046
 20
168.802307
 30
0.0
 11
182.110046
 21
167.802307
 31
0.0
  0
LINE
  8
0
 62
4
 10
183.110046
 20
121.802307
 30
0.0
 11
182.110046
 21
122.802307
 31
0.0
  0
LINE
  8
0
 62
4
 10
158.110046
 20
121.802307
 30
0.0
 11
159.110046
 21
122.802307
 31
0.0
  0
POLYLINE
  8
0
 62
4
 66
1
 10
0.0
 20
0.0
 30
0.0
 70
2
  0
VERTEX
  8
0
 10
158.110046
 20
121.802307
 30
0.0
 70
0
  0
VERTEX
  8
0
 10
158.110046
 20
63.802307
 30
0.0
 70
0
  0
VERTEX
  8
0
 10
159.110046
 20
62.802307
 30
0.0
 70
0
  0
VERTEX
  8
0
 10
182.110046
 20
62.802307
 30
0.0
 70
0
  0
VERTEX
  8
0
 10
183.110046
 20
63.802307
 30
0.0
 70
0
  0
VERTEX
  8
0
 10
183.110046
 20
226.802307
 30
0.0
 70
0
  0
VERTEX
  8
0
 10
182.110046
 20
227.802307
 30
0.0
 70
0
  0
VERTEX
  8
0
 10
159.110046
 20
227.802307
 30
0.0
 70
0
  0
VERTEX
  8
0
 10
158.110046
 20
226.802307
 30
0.0
 70
0
  0
VERTEX
  8
0
 10
158.110046
 20
121.802307
 30
0.0
 70
0
  0
SEQEND
  8
0
  0
POLYLINE
  8
0
 62
4
 66
1
 10
0.0
 20
0.0
 30
0.0
 70
2
  0
VERTEX
  8
0
 10
158.110046
 20
168.802307
 30
0.0
 70
0
  0
VERTEX
  8
0
 10
159.110046
 20
167.802307
 30
0.0
 70
0
  0
VERTEX
  8
0
 10
159.110046
 20
122.802307
 30
0.0
 70
0
  0
VERTEX
  8
0
 10
182.110046
 20
122.802307
 30
0.0
 70
0
  0
VERTEX
  8
0
 10
182.110046
 20
167.802307
 30
0.0
 70
0
  0
VERTEX
  8
0
 10
159.110046
 20
167.802307
 30
0.0
 70
0
  0
SEQEND
  8
0
  0
ARC
  8
0
 62
4
 10
292.226898
 20
145.302307
 30
0.0
 40
22.5
 50
108.12622232084325
 51
71.87379618983061
  0
POLYLINE
  8
0
 62
4
 66
1
 10
0.0
 20
0.0
 30
0.0
 70
2
  0
VERTEX
  8
0
 10
299.226898
 20
166.685715
 30
0.0
 70
0
  0
VERTEX
  8
0
 10
299.226898
 20
171.60231
 30
0.0
 70
0
  0
VERTEX
  8
0
 10
285.226898
 20
171.60231
 30
0.0
 70
0
  0
VERTEX
  8
0
 10
285.226898
 20
166.685715
 30
0.0
 70
0
  0
SEQEND
  8
0
  0
LINE
  8
0
 62
4
 10
158.110046
 20
171.60231
 30
0.0
 11
183.110046
 21
171.60231
 31
0.0
  0
ENDSEC
  0
EOF
