  0
SECTION
  2
ENTITIES
  0
LINE
  8
0
 62
4
 10
111.115494
 20
154.283295
 30
0.0
 11
136.115494
 21
154.283295
 31
0.0
  0
LINE
  8
0
 62
4
 10
111.115494
 20
48.033287
 30
0.0
 11
136.115494
 21
48.033287
 31
0.0
  0
LINE
  8
0
 62
4
 10
136.115494
 20
112.158287
 30
0.0
 11
135.115494
 21
111.158287
 31
0.0
  0
LINE
  8
0
 62
4
 10
136.115494
 20
90.158287
 30
0.0
 11
135.115494
 21
91.158287
 31
0.0
  0
LINE
  8
0
 62
4
 10
111.115494
 20
90.158287
 30
0.0
 11
112.115494
 21
91.158287
 31
0.0
  0
POLYLINE
  8
0
 62
4
 66
1
 10
0.0
 20
0.0
 30
0.0
 70
2
  0
VERTEX
  8
0
 10
111.115494
 20
90.158287
 30
0.0
 70
0
  0
VERTEX
  8
0
 10
111.115494
 20
43.408287
 30
0.0
 70
0
  0
VERTEX
  8
0
 10
112.115494
 20
42.408287
 30
0.0
 70
0
  0
VERTEX
  8
0
 10
135.115494
 20
42.408287
 30
0.0
 70
0
  0
VERTEX
  8
0
 10
136.115494
 20
43.408287
 30
0.0
 70
0
  0
VERTEX
  8
0
 10
136.115494
 20
158.908295
 30
0.0
 70
0
  0
VERTEX
  8
0
 10
135.115494
 20
159.908295
 30
0.0
 70
0
  0
VERTEX
  8
0
 10
112.115494
 20
159.908295
 30
0.0
 70
0
  0
VERTEX
  8
0
 10
111.115494
 20
158.908295
 30
0.0
 70
0
  0
VERTEX
  8
0
 10
111.115494
 20
90.158287
 30
0.0
 70
0
  0
SEQEND
  8
0
  0
POLYLINE
  8
0
 62
4
 66
1
 10
0.0
 20
0.0
 30
0.0
 70
2
  0
VERTEX
  8
0
 10
111.115494
 20
112.158287
 30
0.0
 70
0
  0
VERTEX
  8
0
 10
112.115494
 20
111.158287
 30
0.0
 70
0
  0
VERTEX
  8
0
 10
112.115494
 20
91.158287
 30
0.0
 70
0
  0
VERTEX
  8
0
 10
135.115494
 20
91.158287
 30
0.0
 70
0
  0
VERTEX
  8
0
 10
135.115494
 20
111.158287
 30
0.0
 70
0
  0
VERTEX
  8
0
 10
112.115494
 20
111.158287
 30
0.0
 70
0
  0
SEQEND
  8
0
  0
ARC
  8
0
 62
4
 10
206.917114
 20
101.158287
 30
0.0
 40
10.0
 50
107.45760274776076
 51
72.54239725223924
  0
POLYLINE
  8
0
 62
4
 66
1
 10
0.0
 20
0.0
 30
0.0
 70
2
  0
VERTEX
  8
0
 10
209.917114
 20
110.697678
 30
0.0
 70
0
  0
VERTEX
  8
0
 10
209.917114
 20
113.95829
 30
0.0
 70
0
  0
VERTEX
  8
0
 10
203.917114
 20
113.95829
 30
0.0
 70
0
  0
VERTEX
  8
0
 10
203.917114
 20
110.697678
 30
0.0
 70
0
  0
SEQEND
  8
0
  0
LINE
  8
0
 62
4
 10
111.115494
 20
113.95829
 30
0.0
 11
136.115494
 21
113.95829
 31
0.0
  0
ENDSEC
  0
EOF
