  0
SECTION
  2
ENTITIES
  0
LINE
  8
0
 62
4
 10
145.244568
 20
194.894028
 30
0.0
 11
165.244568
 21
194.894028
 31
0.0
  0
LINE
  8
0
 62
4
 10
145.244568
 20
59.894028
 30
0.0
 11
165.244568
 21
59.894028
 31
0.0
  0
LINE
  8
0
 62
4
 10
165.244568
 20
139.394028
 30
0.0
 11
164.244568
 21
138.394028
 31
0.0
  0
LINE
  8
0
 62
4
 10
165.244568
 20
115.394028
 30
0.0
 11
164.244568
 21
116.394028
 31
0.0
  0
LINE
  8
0
 62
4
 10
145.244568
 20
115.394028
 30
0.0
 11
146.244568
 21
116.394028
 31
0.0
  0
POLYLINE
  8
0
 62
4
 66
1
 10
0.0
 20
0.0
 30
0.0
 70
2
  0
VERTEX
  8
0
 10
145.244568
 20
115.394028
 30
0.0
 70
0
  0
VERTEX
  8
0
 10
145.244568
 20
55.894028
 30
0.0
 70
0
  0
VERTEX
  8
0
 10
145.744568
 20
55.394028
 30
0.0
 70
0
  0
VERTEX
  8
0
 10
164.744568
 20
55.394028
 30
0.0
 70
0
  0
VERTEX
  8
0
 10
165.244568
 20
55.894028
 30
0.0
 70
0
  0
VERTEX
  8
0
 10
165.244568
 20
198.894028
 30
0.0
 70
0
  0
VERTEX
  8
0
 10
164.744568
 20
199.394028
 30
0.0
 70
0
  0
VERTEX
  8
0
 10
145.744568
 20
199.394028
 30
0.0
 70
0
  0
VERTEX
  8
0
 10
145.244568
 20
198.894028
 30
0.0
 70
0
  0
VERTEX
  8
0
 10
145.244568
 20
115.394028
 30
0.0
 70
0
  0
SEQEND
  8
0
  0
POLYLINE
  8
0
 62
4
 66
1
 10
0.0
 20
0.0
 30
0.0
 70
2
  0
VERTEX
  8
0
 10
145.244568
 20
139.394028
 30
0.0
 70
0
  0
VERTEX
  8
0
 10
146.244568
 20
138.394028
 30
0.0
 70
0
  0
VERTEX
  8
0
 10
146.244568
 20
116.394028
 30
0.0
 70
0
  0
VERTEX
  8
0
 10
164.244568
 20
116.394028
 30
0.0
 70
0
  0
VERTEX
  8
0
 10
164.244568
 20
138.394028
 30
0.0
 70
0
  0
VERTEX
  8
0
 10
146.244568
 20
138.394028
 30
0.0
 70
0
  0
SEQEND
  8
0
  0
ARC
  8
0
 62
4
 10
252.059784
 20
127.394028
 30
0.0
 40
11.0
 50
105.82662088647183
 51
74.17337911352817
  0
POLYLINE
  8
0
 62
4
 66
1
 10
0.0
 20
0.0
 30
0.0
 70
2
  0
VERTEX
  8
0
 10
255.059784
 20
137.977036
 30
0.0
 70
0
  0
VERTEX
  8
0
 10
255.059784
 20
141.194031
 30
0.0
 70
0
  0
VERTEX
  8
0
 10
249.059784
 20
141.194031
 30
0.0
 70
0
  0
VERTEX
  8
0
 10
249.059784
 20
137.977036
 30
0.0
 70
0
  0
SEQEND
  8
0
  0
LINE
  8
0
 62
4
 10
145.244568
 20
141.194031
 30
0.0
 11
165.244568
 21
141.194031
 31
0.0
  0
ENDSEC
  0
EOF
