  0
SECTION
  2
ENTITIES
  0
LINE
  8
0
 62
4
 10
68.157608
 20
97.698372
 30
0.0
 11
88.157608
 21
97.698372
 31
0.0
  0
LINE
  8
0
 62
4
 10
68.157608
 20
30.698372
 30
0.0
 11
88.157608
 21
30.698372
 31
0.0
  0
LINE
  8
0
 62
4
 10
88.157608
 20
72.198372
 30
0.0
 11
87.657608
 21
71.698372
 31
0.0
  0
LINE
  8
0
 62
4
 10
88.157608
 20
56.198372
 30
0.0
 11
87.657608
 21
56.698372
 31
0.0
  0
LINE
  8
0
 62
4
 10
68.157608
 20
56.198372
 30
0.0
 11
68.657608
 21
56.698372
 31
0.0
  0
POLYLINE
  8
0
 62
4
 66
1
 10
0.0
 20
0.0
 30
0.0
 70
2
  0
VERTEX
  8
0
 10
68.157608
 20
56.198372
 30
0.0
 70
0
  0
VERTEX
  8
0
 10
68.157608
 20
26.698372
 30
0.0
 70
0
  0
VERTEX
  8
0
 10
68.657608
 20
26.198372
 30
0.0
 70
0
  0
VERTEX
  8
0
 10
87.657608
 20
26.198372
 30
0.0
 70
0
  0
VERTEX
  8
0
 10
88.157608
 20
26.698372
 30
0.0
 70
0
  0
VERTEX
  8
0
 10
88.157608
 20
101.698372
 30
0.0
 70
0
  0
VERTEX
  8
0
 10
87.657608
 20
102.198372
 30
0.0
 70
0
  0
VERTEX
  8
0
 10
68.657608
 20
102.198372
 30
0.0
 70
0
  0
VERTEX
  8
0
 10
68.157608
 20
101.698372
 30
0.0
 70
0
  0
VERTEX
  8
0
 10
68.157608
 20
56.198372
 30
0.0
 70
0
  0
SEQEND
  8
0
  0
POLYLINE
  8
0
 62
4
 66
1
 10
0.0
 20
0.0
 30
0.0
 70
2
  0
VERTEX
  8
0
 10
68.157608
 20
72.198372
 30
0.0
 70
0
  0
VERTEX
  8
0
 10
68.657608
 20
71.698372
 30
0.0
 70
0
  0
VERTEX
  8
0
 10
68.657608
 20
56.698372
 30
0.0
 70
0
  0
VERTEX
  8
0
 10
87.657608
 20
56.698372
 30
0.0
 70
0
  0
VERTEX
  8
0
 10
87.657608
 20
71.698372
 30
0.0
 70
0
  0
VERTEX
  8
0
 10
68.657608
 20
71.698372
 30
0.0
 70
0
  0
SEQEND
  8
0
  0
ARC
  8
0
 62
4
 10
134.516296
 20
64.198372
 30
0.0
 40
7.5
 50
109.47122094265586
 51
70.52877905734415
  0
POLYLINE
  8
0
 62
4
 66
1
 10
0.0
 20
0.0
 30
0.0
 70
2
  0
VERTEX
  8
0
 10
137.016296
 20
71.26944
 30
0.0
 70
0
  0
VERTEX
  8
0
 10
137.016296
 20
73.998375
 30
0.0
 70
0
  0
VERTEX
  8
0
 10
132.016296
 20
73.998375
 30
0.0
 70
0
  0
VERTEX
  8
0
 10
132.016296
 20
71.26944
 30
0.0
 70
0
  0
SEQEND
  8
0
  0
LINE
  8
0
 62
4
 10
68.157608
 20
73.998375
 30
0.0
 11
88.157608
 21
73.998375
 31
0.0
  0
ENDSEC
  0
EOF
