  0
SECTION
  2
ENTITIES
  0
LINE
  8
0
 62
4
 10
139.099182
 20
193.590347
 30
0.0
 11
164.099182
 21
193.590347
 31
0.0
  0
LINE
  8
0
 62
4
 10
139.099182
 20
59.840347
 30
0.0
 11
164.099182
 21
59.840347
 31
0.0
  0
LINE
  8
0
 62
4
 10
164.099182
 20
143.715347
 30
0.0
 11
163.099182
 21
142.715347
 31
0.0
  0
LINE
  8
0
 62
4
 10
164.099182
 20
109.715347
 30
0.0
 11
163.099182
 21
110.715347
 31
0.0
  0
LINE
  8
0
 62
4
 10
139.099182
 20
109.715347
 30
0.0
 11
140.099182
 21
110.715347
 31
0.0
  0
POLYLINE
  8
0
 62
4
 66
1
 10
0.0
 20
0.0
 30
0.0
 70
2
  0
VERTEX
  8
0
 10
139.099182
 20
109.715347
 30
0.0
 70
0
  0
VERTEX
  8
0
 10
139.099182
 20
55.215347
 30
0.0
 70
0
  0
VERTEX
  8
0
 10
140.099182
 20
54.215347
 30
0.0
 70
0
  0
VERTEX
  8
0
 10
163.099182
 20
54.215347
 30
0.0
 70
0
  0
VERTEX
  8
0
 10
164.099182
 20
55.215347
 30
0.0
 70
0
  0
VERTEX
  8
0
 10
164.099182
 20
198.215347
 30
0.0
 70
0
  0
VERTEX
  8
0
 10
163.099182
 20
199.215347
 30
0.0
 70
0
  0
VERTEX
  8
0
 10
140.099182
 20
199.215347
 30
0.0
 70
0
  0
VERTEX
  8
0
 10
139.099182
 20
198.215347
 30
0.0
 70
0
  0
VERTEX
  8
0
 10
139.099182
 20
109.715347
 30
0.0
 70
0
  0
SEQEND
  8
0
  0
POLYLINE
  8
0
 62
4
 66
1
 10
0.0
 20
0.0
 30
0.0
 70
2
  0
VERTEX
  8
0
 10
139.099182
 20
143.715347
 30
0.0
 70
0
  0
VERTEX
  8
0
 10
140.099182
 20
142.715347
 30
0.0
 70
0
  0
VERTEX
  8
0
 10
140.099182
 20
110.715347
 30
0.0
 70
0
  0
VERTEX
  8
0
 10
163.099182
 20
110.715347
 30
0.0
 70
0
  0
VERTEX
  8
0
 10
163.099182
 20
142.715347
 30
0.0
 70
0
  0
VERTEX
  8
0
 10
140.099182
 20
142.715347
 30
0.0
 70
0
  0
SEQEND
  8
0
  0
ARC
  8
0
 62
4
 10
255.846466
 20
126.715347
 30
0.0
 40
16.0
 50
108.20995732853793
 51
71.79004267146207
  0
POLYLINE
  8
0
 62
4
 66
1
 10
0.0
 20
0.0
 30
0.0
 70
2
  0
VERTEX
  8
0
 10
260.846466
 20
141.914032
 30
0.0
 70
0
  0
VERTEX
  8
0
 10
260.846466
 20
146.01535
 30
0.0
 70
0
  0
VERTEX
  8
0
 10
250.846466
 20
146.01535
 30
0.0
 70
0
  0
VERTEX
  8
0
 10
250.846466
 20
141.914032
 30
0.0
 70
0
  0
SEQEND
  8
0
  0
LINE
  8
0
 62
4
 10
139.099182
 20
146.01535
 30
0.0
 11
164.099182
 21
146.01535
 31
0.0
  0
ENDSEC
  0
EOF
