  0
SECTION
  2
ENTITIES
  0
LINE
  8
0
 62
4
 10
77.46196
 20
109.133148
 30
0.0
 11
97.46196
 21
109.133148
 31
0.0
  0
LINE
  8
0
 62
4
 10
77.46196
 20
34.133148
 30
0.0
 11
97.46196
 21
34.133148
 31
0.0
  0
LINE
  8
0
 62
4
 10
97.46196
 20
79.633148
 30
0.0
 11
96.96196
 21
79.133148
 31
0.0
  0
LINE
  8
0
 62
4
 10
97.46196
 20
63.633148
 30
0.0
 11
96.96196
 21
64.133148
 31
0.0
  0
LINE
  8
0
 62
4
 10
77.46196
 20
63.633148
 30
0.0
 11
77.96196
 21
64.133148
 31
0.0
  0
POLYLINE
  8
0
 62
4
 66
1
 10
0.0
 20
0.0
 30
0.0
 70
2
  0
VERTEX
  8
0
 10
77.46196
 20
63.633148
 30
0.0
 70
0
  0
VERTEX
  8
0
 10
77.46196
 20
30.133148
 30
0.0
 70
0
  0
VERTEX
  8
0
 10
77.96196
 20
29.633148
 30
0.0
 70
0
  0
VERTEX
  8
0
 10
96.96196
 20
29.633148
 30
0.0
 70
0
  0
VERTEX
  8
0
 10
97.46196
 20
30.133148
 30
0.0
 70
0
  0
VERTEX
  8
0
 10
97.46196
 20
113.133148
 30
0.0
 70
0
  0
VERTEX
  8
0
 10
96.96196
 20
113.633148
 30
0.0
 70
0
  0
VERTEX
  8
0
 10
77.96196
 20
113.633148
 30
0.0
 70
0
  0
VERTEX
  8
0
 10
77.46196
 20
113.133148
 30
0.0
 70
0
  0
VERTEX
  8
0
 10
77.46196
 20
63.633148
 30
0.0
 70
0
  0
SEQEND
  8
0
  0
POLYLINE
  8
0
 62
4
 66
1
 10
0.0
 20
0.0
 30
0.0
 70
2
  0
VERTEX
  8
0
 10
77.46196
 20
79.633148
 30
0.0
 70
0
  0
VERTEX
  8
0
 10
77.96196
 20
79.133148
 30
0.0
 70
0
  0
VERTEX
  8
0
 10
77.96196
 20
64.133148
 30
0.0
 70
0
  0
VERTEX
  8
0
 10
96.96196
 20
64.133148
 30
0.0
 70
0
  0
VERTEX
  8
0
 10
96.96196
 20
79.133148
 30
0.0
 70
0
  0
VERTEX
  8
0
 10
77.96196
 20
79.133148
 30
0.0
 70
0
  0
SEQEND
  8
0
  0
ARC
  8
0
 62
4
 10
148.168488
 20
71.633148
 30
0.0
 40
7.5
 50
109.47122094265586
 51
70.52877905734415
  0
POLYLINE
  8
0
 62
4
 66
1
 10
0.0
 20
0.0
 30
0.0
 70
2
  0
VERTEX
  8
0
 10
150.668488
 20
78.704216
 30
0.0
 70
0
  0
VERTEX
  8
0
 10
150.668488
 20
81.433151
 30
0.0
 70
0
  0
VERTEX
  8
0
 10
145.668488
 20
81.433151
 30
0.0
 70
0
  0
VERTEX
  8
0
 10
145.668488
 20
78.704216
 30
0.0
 70
0
  0
SEQEND
  8
0
  0
LINE
  8
0
 62
4
 10
77.46196
 20
81.433151
 30
0.0
 11
97.46196
 21
81.433151
 31
0.0
  0
ENDSEC
  0
EOF
