  0
SECTION
  2
ENTITIES
  0
LINE
  8
0
 62
4
 10
82.447006
 20
122.122963
 30
0.0
 11
107.447006
 21
122.122963
 31
0.0
  0
LINE
  8
0
 62
4
 10
82.447006
 20
38.372963
 30
0.0
 11
107.447006
 21
38.372963
 31
0.0
  0
LINE
  8
0
 62
4
 10
107.447006
 20
95.247963
 30
0.0
 11
106.447006
 21
94.247963
 31
0.0
  0
LINE
  8
0
 62
4
 10
107.447006
 20
65.247963
 30
0.0
 11
106.447006
 21
66.247963
 31
0.0
  0
LINE
  8
0
 62
4
 10
82.447006
 20
65.247963
 30
0.0
 11
83.447006
 21
66.247963
 31
0.0
  0
POLYLINE
  8
0
 62
4
 66
1
 10
0.0
 20
0.0
 30
0.0
 70
2
  0
VERTEX
  8
0
 10
82.447006
 20
65.247963
 30
0.0
 70
0
  0
VERTEX
  8
0
 10
82.447006
 20
33.747963
 30
0.0
 70
0
  0
VERTEX
  8
0
 10
83.447006
 20
32.747963
 30
0.0
 70
0
  0
VERTEX
  8
0
 10
106.447006
 20
32.747963
 30
0.0
 70
0
  0
VERTEX
  8
0
 10
107.447006
 20
33.747963
 30
0.0
 70
0
  0
VERTEX
  8
0
 10
107.447006
 20
126.747963
 30
0.0
 70
0
  0
VERTEX
  8
0
 10
106.447006
 20
127.747963
 30
0.0
 70
0
  0
VERTEX
  8
0
 10
83.447006
 20
127.747963
 30
0.0
 70
0
  0
VERTEX
  8
0
 10
82.447006
 20
126.747963
 30
0.0
 70
0
  0
VERTEX
  8
0
 10
82.447006
 20
65.247963
 30
0.0
 70
0
  0
SEQEND
  8
0
  0
POLYLINE
  8
0
 62
4
 66
1
 10
0.0
 20
0.0
 30
0.0
 70
2
  0
VERTEX
  8
0
 10
82.447006
 20
95.247963
 30
0.0
 70
0
  0
VERTEX
  8
0
 10
83.447006
 20
94.247963
 30
0.0
 70
0
  0
VERTEX
  8
0
 10
83.447006
 20
66.247963
 30
0.0
 70
0
  0
VERTEX
  8
0
 10
106.447006
 20
66.247963
 30
0.0
 70
0
  0
VERTEX
  8
0
 10
106.447006
 20
94.247963
 30
0.0
 70
0
  0
VERTEX
  8
0
 10
83.447006
 20
94.247963
 30
0.0
 70
0
  0
SEQEND
  8
0
  0
ARC
  8
0
 62
4
 10
170.020386
 20
80.247963
 30
0.0
 40
14.0
 50
106.60154992625478
 51
73.39845007374521
  0
POLYLINE
  8
0
 62
4
 66
1
 10
0.0
 20
0.0
 30
0.0
 70
2
  0
VERTEX
  8
0
 10
174.020386
 20
93.664368
 30
0.0
 70
0
  0
VERTEX
  8
0
 10
174.020386
 20
97.547958
 30
0.0
 70
0
  0
VERTEX
  8
0
 10
166.020386
 20
97.547958
 30
0.0
 70
0
  0
VERTEX
  8
0
 10
166.020386
 20
93.664368
 30
0.0
 70
0
  0
SEQEND
  8
0
  0
LINE
  8
0
 62
4
 10
82.447006
 20
97.547958
 30
0.0
 11
107.447006
 21
97.547958
 31
0.0
  0
ENDSEC
  0
EOF
