  0
SECTION
  2
ENTITIES
  0
LINE
  8
0
 62
4
 10
103.236412
 20
146.547546
 30
0.0
 11
133.23642
 21
146.547546
 31
0.0
  0
LINE
  8
0
 62
4
 10
103.236412
 20
46.047546
 30
0.0
 11
133.23642
 21
46.047546
 31
0.0
  0
LINE
  8
0
 62
4
 10
133.23642
 20
107.297546
 30
0.0
 11
132.23642
 21
106.297546
 31
0.0
  0
LINE
  8
0
 62
4
 10
133.23642
 20
85.297546
 30
0.0
 11
132.23642
 21
86.297546
 31
0.0
  0
LINE
  8
0
 62
4
 10
103.236412
 20
85.297546
 30
0.0
 11
104.236412
 21
86.297546
 31
0.0
  0
POLYLINE
  8
0
 62
4
 66
1
 10
0.0
 20
0.0
 30
0.0
 70
2
  0
VERTEX
  8
0
 10
103.236412
 20
85.297546
 30
0.0
 70
0
  0
VERTEX
  8
0
 10
103.236412
 20
40.297546
 30
0.0
 70
0
  0
VERTEX
  8
0
 10
104.236412
 20
39.297546
 30
0.0
 70
0
  0
VERTEX
  8
0
 10
132.23642
 20
39.297546
 30
0.0
 70
0
  0
VERTEX
  8
0
 10
133.23642
 20
40.297546
 30
0.0
 70
0
  0
VERTEX
  8
0
 10
133.23642
 20
152.297546
 30
0.0
 70
0
  0
VERTEX
  8
0
 10
132.23642
 20
153.297546
 30
0.0
 70
0
  0
VERTEX
  8
0
 10
104.236412
 20
153.297546
 30
0.0
 70
0
  0
VERTEX
  8
0
 10
103.236412
 20
152.297546
 30
0.0
 70
0
  0
VERTEX
  8
0
 10
103.236412
 20
85.297546
 30
0.0
 70
0
  0
SEQEND
  8
0
  0
POLYLINE
  8
0
 62
4
 66
1
 10
0.0
 20
0.0
 30
0.0
 70
2
  0
VERTEX
  8
0
 10
103.236412
 20
107.297546
 30
0.0
 70
0
  0
VERTEX
  8
0
 10
104.236412
 20
106.297546
 30
0.0
 70
0
  0
VERTEX
  8
0
 10
104.236412
 20
86.297546
 30
0.0
 70
0
  0
VERTEX
  8
0
 10
132.23642
 20
86.297546
 30
0.0
 70
0
  0
VERTEX
  8
0
 10
132.23642
 20
106.297546
 30
0.0
 70
0
  0
VERTEX
  8
0
 10
104.236412
 20
106.297546
 30
0.0
 70
0
  0
SEQEND
  8
0
  0
ARC
  8
0
 62
4
 10
201.524445
 20
96.297546
 30
0.0
 40
10.0
 50
107.45760274776076
 51
72.54239725223924
  0
POLYLINE
  8
0
 62
4
 66
1
 10
0.0
 20
0.0
 30
0.0
 70
2
  0
VERTEX
  8
0
 10
204.524445
 20
105.836937
 30
0.0
 70
0
  0
VERTEX
  8
0
 10
204.524445
 20
109.097549
 30
0.0
 70
0
  0
VERTEX
  8
0
 10
198.524445
 20
109.097549
 30
0.0
 70
0
  0
VERTEX
  8
0
 10
198.524445
 20
105.836937
 30
0.0
 70
0
  0
SEQEND
  8
0
  0
LINE
  8
0
 62
4
 10
103.236412
 20
109.097549
 30
0.0
 11
133.23642
 21
109.097549
 31
0.0
  0
ENDSEC
  0
EOF
