  0
SECTION
  2
ENTITIES
  0
LINE
  8
0
 62
4
 10
85.447006
 20
122.122963
 30
0.0
 11
110.447006
 21
122.122963
 31
0.0
  0
LINE
  8
0
 62
4
 10
85.447006
 20
38.372963
 30
0.0
 11
110.447006
 21
38.372963
 31
0.0
  0
LINE
  8
0
 62
4
 10
110.447006
 20
89.747963
 30
0.0
 11
109.947006
 21
89.247963
 31
0.0
  0
LINE
  8
0
 62
4
 10
110.447006
 20
70.747963
 30
0.0
 11
109.947006
 21
71.247963
 31
0.0
  0
LINE
  8
0
 62
4
 10
85.447006
 20
70.747963
 30
0.0
 11
85.947006
 21
71.247963
 31
0.0
  0
POLYLINE
  8
0
 62
4
 66
1
 10
0.0
 20
0.0
 30
0.0
 70
2
  0
VERTEX
  8
0
 10
85.447006
 20
70.747963
 30
0.0
 70
0
  0
VERTEX
  8
0
 10
85.447006
 20
33.747963
 30
0.0
 70
0
  0
VERTEX
  8
0
 10
86.447006
 20
32.747963
 30
0.0
 70
0
  0
VERTEX
  8
0
 10
109.447006
 20
32.747963
 30
0.0
 70
0
  0
VERTEX
  8
0
 10
110.447006
 20
33.747963
 30
0.0
 70
0
  0
VERTEX
  8
0
 10
110.447006
 20
126.747963
 30
0.0
 70
0
  0
VERTEX
  8
0
 10
109.447006
 20
127.747963
 30
0.0
 70
0
  0
VERTEX
  8
0
 10
86.447006
 20
127.747963
 30
0.0
 70
0
  0
VERTEX
  8
0
 10
85.447006
 20
126.747963
 30
0.0
 70
0
  0
VERTEX
  8
0
 10
85.447006
 20
70.747963
 30
0.0
 70
0
  0
SEQEND
  8
0
  0
POLYLINE
  8
0
 62
4
 66
1
 10
0.0
 20
0.0
 30
0.0
 70
2
  0
VERTEX
  8
0
 10
85.447006
 20
89.747963
 30
0.0
 70
0
  0
VERTEX
  8
0
 10
85.947006
 20
89.247963
 30
0.0
 70
0
  0
VERTEX
  8
0
 10
85.947006
 20
71.247963
 30
0.0
 70
0
  0
VERTEX
  8
0
 10
109.947006
 20
71.247963
 30
0.0
 70
0
  0
VERTEX
  8
0
 10
109.947006
 20
89.247963
 30
0.0
 70
0
  0
VERTEX
  8
0
 10
85.947006
 20
89.247963
 30
0.0
 70
0
  0
SEQEND
  8
0
  0
ARC
  8
0
 62
4
 10
168.020386
 20
80.247963
 30
0.0
 40
9.0
 50
109.47122094265586
 51
70.52877905734415
  0
POLYLINE
  8
0
 62
4
 66
1
 10
0.0
 20
0.0
 30
0.0
 70
2
  0
VERTEX
  8
0
 10
171.020386
 20
88.733246
 30
0.0
 70
0
  0
VERTEX
  8
0
 10
171.020386
 20
92.047966
 30
0.0
 70
0
  0
VERTEX
  8
0
 10
165.020386
 20
92.047966
 30
0.0
 70
0
  0
VERTEX
  8
0
 10
165.020386
 20
88.733246
 30
0.0
 70
0
  0
SEQEND
  8
0
  0
LINE
  8
0
 62
4
 10
85.447006
 20
92.047966
 30
0.0
 11
110.447006
 21
92.047966
 31
0.0
  0
ENDSEC
  0
EOF
