  0
SECTION
  2
ENTITIES
  0
CIRCLE
  8
DASHDOT
 62
7
 10
144.327438
 20
62.787609
 30
0.0
 40
32.0
  0
LINE
  8
HIDDEN
 62
4
 10
62.363724
 20
67.34761
 30
0.0
 11
62.363724
 21
53.975342
 31
0.0
  0
LINE
  8
HIDDEN
 62
4
 10
61.663723
 20
67.34761
 30
0.0
 11
61.663723
 21
52.636749
 31
0.0
  0
LINE
  8
HIDDEN
 62
4
 10
59.063721
 20
67.34761
 30
0.0
 11
59.063721
 21
52.636749
 31
0.0
  0
LINE
  8
HIDDEN
 62
4
 10
58.363724
 20
67.34761
 30
0.0
 11
58.363724
 21
53.975342
 31
0.0
  0
POLYLINE
  8
HIDDEN
 62
4
 66
1
 10
0.0
 20
0.0
 30
0.0
 70
2
  0
VERTEX
  8
HIDDEN
 10
140.627441
 20
74.20295
 30
0.0
 70
0
  0
VERTEX
  8
HIDDEN
 10
140.627441
 20
67.34761
 30
0.0
 70
0
  0
VERTEX
  8
HIDDEN
 10
133.127441
 20
67.34761
 30
0.0
 70
0
  0
SEQEND
  8
0
  0
LINE
  8
HIDDEN
 62
4
 10
138.627441
 20
67.34761
 30
0.0
 11
138.627441
 21
52.227779
 31
0.0
  0
LINE
  8
HIDDEN
 62
4
 10
137.927444
 20
67.34761
 30
0.0
 11
137.927444
 21
52.636749
 31
0.0
  0
LINE
  8
HIDDEN
 62
4
 10
135.327438
 20
67.34761
 30
0.0
 11
135.327438
 21
54.850357
 31
0.0
  0
LINE
  8
HIDDEN
 62
4
 10
134.627441
 20
67.34761
 30
0.0
 11
134.627441
 21
55.722908
 31
0.0
  0
LINE
  8
0
 62
4
 10
56.93605
 20
67.34761
 30
0.0
 11
63.791393
 21
67.34761
 31
0.0
  0
ARC
  8
0
 62
4
 10
62.07756
 20
70.316055
 30
0.0
 40
3.42767
 50
299.99999361510413
 51
60.0000012622552
  0
ARC
  8
0
 62
4
 10
58.649887
 20
70.316055
 30
0.0
 40
3.42767
 50
120.00001239812772
 51
239.99999272451717
  0
ARC
  8
0
 62
4
 10
60.363724
 20
67.34761
 30
0.0
 40
6.855341
 50
59.999997847160536
 51
120.00000215283947
  0
LINE
  8
0
 62
4
 10
62.363724
 20
53.722908
 30
0.0
 11
62.363724
 21
54.227779
 31
0.0
  0
LINE
  8
0
 62
4
 10
58.363724
 20
53.722908
 30
0.0
 11
58.363724
 21
54.227779
 31
0.0
  0
ARC
  8
0
 62
4
 10
60.363724
 20
54.227779
 30
0.0
 40
2.0
 50
180.0
 51
0.0
  0
ARC
  8
0
 62
4
 10
60.363724
 20
53.722908
 30
0.0
 40
2.0
 50
0.0
 51
180.0
  0
LINE
  8
0
 62
4
 10
135.123642
 20
55.087608
 30
0.0
 11
153.53125
 21
55.087608
 31
0.0
  0
LINE
  8
0
 62
4
 10
134.656113
 20
55.683708
 30
0.0
 11
153.998764
 21
55.683708
 31
0.0
  0
CIRCLE
  8
0
 62
4
 10
144.327438
 20
62.787609
 30
0.0
 40
30.75
  0
CIRCLE
  8
0
 62
4
 10
144.327438
 20
62.787609
 30
0.0
 40
33.0
  0
CIRCLE
  8
0
 62
4
 10
144.327438
 20
62.787609
 30
0.0
 40
12.0
  0
CIRCLE
  8
0
 62
4
 10
144.327438
 20
62.787609
 30
0.0
 40
5.0
  0
LINE
  8
0
 62
4
 10
45.663723
 20
93.537613
 30
0.0
 11
51.663723
 21
93.537613
 31
0.0
  0
LINE
  8
0
 62
4
 10
45.663723
 20
32.037609
 30
0.0
 11
51.663723
 21
32.037609
 31
0.0
  0
POLYLINE
  8
HIDDEN
 62
4
 66
1
 10
0.0
 20
0.0
 30
0.0
 70
2
  0
VERTEX
  8
HIDDEN
 10
140.127441
 20
67.34761
 30
0.0
 70
0
  0
VERTEX
  8
HIDDEN
 10
140.127441
 20
71.34761
 30
0.0
 70
0
  0
VERTEX
  8
HIDDEN
 10
133.127441
 20
71.34761
 30
0.0
 70
0
  0
VERTEX
  8
HIDDEN
 10
133.127441
 20
67.34761
 30
0.0
 70
0
  0
SEQEND
  8
0
  0
POLYLINE
  8
0
 62
4
 66
1
 10
0.0
 20
0.0
 30
0.0
 70
2
  0
VERTEX
  8
0
 10
56.863724
 20
67.34761
 30
0.0
 70
0
  0
VERTEX
  8
0
 10
63.863724
 20
67.34761
 30
0.0
 70
0
  0
VERTEX
  8
0
 10
63.863724
 20
71.34761
 30
0.0
 70
0
  0
VERTEX
  8
0
 10
56.863724
 20
71.34761
 30
0.0
 70
0
  0
VERTEX
  8
0
 10
56.863724
 20
67.34761
 30
0.0
 70
0
  0
SEQEND
  8
0
  0
POLYLINE
  8
0
 62
4
 66
1
 10
0.0
 20
0.0
 30
0.0
 70
2
  0
VERTEX
  8
0
 10
54.403545
 20
50.787609
 30
0.0
 70
0
  0
VERTEX
  8
0
 10
65.163727
 20
50.787609
 30
0.0
 70
0
  0
VERTEX
  8
0
 10
65.663727
 20
51.287609
 30
0.0
 70
0
  0
VERTEX
  8
0
 10
65.663727
 20
55.087608
 30
0.0
 70
0
  0
VERTEX
  8
0
 10
54.403545
 20
64.536018
 30
0.0
 70
0
  0
VERTEX
  8
0
 10
54.403545
 20
50.787609
 30
0.0
 70
0
  0
SEQEND
  8
0
  0
POLYLINE
  8
0
 62
4
 66
1
 10
0.0
 20
0.0
 30
0.0
 70
2
  0
VERTEX
  8
0
 10
51.663723
 20
50.787609
 30
0.0
 70
0
  0
VERTEX
  8
0
 10
53.946907
 20
50.787609
 30
0.0
 70
0
  0
VERTEX
  8
0
 10
53.946907
 20
70.48761
 30
0.0
 70
0
  0
VERTEX
  8
0
 10
54.403545
 20
70.48761
 30
0.0
 70
0
  0
VERTEX
  8
0
 10
54.403545
 20
65.132118
 30
0.0
 70
0
  0
VERTEX
  8
0
 10
65.663727
 20
55.683708
 30
0.0
 70
0
  0
VERTEX
  8
0
 10
65.663727
 20
74.287613
 30
0.0
 70
0
  0
VERTEX
  8
0
 10
65.163727
 20
74.787613
 30
0.0
 70
0
  0
VERTEX
  8
0
 10
51.663723
 20
74.787613
 30
0.0
 70
0
  0
SEQEND
  8
0
  0
POLYLINE
  8
0
 62
4
 66
1
 10
0.0
 20
0.0
 30
0.0
 70
2
  0
VERTEX
  8
0
 10
45.663723
 20
29.787609
 30
0.0
 70
0
  0
VERTEX
  8
0
 10
45.663723
 20
29.787609
 30
0.0
 70
0
  0
VERTEX
  8
0
 10
51.663723
 20
29.787609
 30
0.0
 70
0
  0
VERTEX
  8
0
 10
51.663723
 20
29.787609
 30
0.0
 70
0
  0
VERTEX
  8
0
 10
51.663723
 20
95.787613
 30
0.0
 70
0
  0
VERTEX
  8
0
 10
51.663723
 20
95.787613
 30
0.0
 70
0
  0
VERTEX
  8
0
 10
45.663723
 20
95.787613
 30
0.0
 70
0
  0
VERTEX
  8
0
 10
45.663723
 20
95.787613
 30
0.0
 70
0
  0
VERTEX
  8
0
 10
45.663723
 20
29.787609
 30
0.0
 70
0
  0
SEQEND
  8
0
  0
POLYLINE
  8
HIDDEN
 62
4
 66
1
 10
0.0
 20
0.0
 30
0.0
 70
2
  0
VERTEX
  8
HIDDEN
 10
45.663723
 20
57.287609
 30
0.0
 70
0
  0
VERTEX
  8
HIDDEN
 10
46.163723
 20
57.787609
 30
0.0
 70
0
  0
VERTEX
  8
HIDDEN
 10
65.163727
 20
57.787609
 30
0.0
 70
0
  0
VERTEX
  8
HIDDEN
 10
65.163727
 20
67.787613
 30
0.0
 70
0
  0
VERTEX
  8
HIDDEN
 10
46.163723
 20
67.787613
 30
0.0
 70
0
  0
VERTEX
  8
HIDDEN
 10
45.663723
 20
68.287613
 30
0.0
 70
0
  0
SEQEND
  8
0
  0
LINE
  8
HIDDEN
 62
4
 10
46.163723
 20
67.787613
 30
0.0
 11
46.163723
 21
57.787609
 31
0.0
  0
LINE
  8
HIDDEN
 62
4
 10
65.663727
 20
68.287613
 30
0.0
 11
65.163727
 21
67.787613
 31
0.0
  0
LINE
  8
HIDDEN
 62
4
 10
65.663727
 20
57.287609
 30
0.0
 11
65.163727
 21
57.787609
 31
0.0
  0
ENDSEC
  0
EOF
